solid PumpAssembly - Screw4-1
   facet normal -6.381136e-001 -2.106683e-016 7.699422e-001
      outer loop
         vertex 3.324267e+002 1.493260e+002 9.219835e+001
         vertex 3.327525e+002 1.723261e+002 9.245195e+001
         vertex 3.324112e+002 1.493260e+002 9.218150e+001
      endloop
   endfacet
   facet normal -6.404724e-001 -2.110994e-016 7.679812e-001
      outer loop
         vertex 3.324112e+002 1.493260e+002 9.218150e+001
         vertex 3.327525e+002 1.723261e+002 9.245195e+001
         vertex 3.324098e+002 1.723261e+002 9.218272e+001
      endloop
   endfacet
   facet normal -7.209911e-001 -2.252308e-016 6.929443e-001
      outer loop
         vertex 3.324112e+002 1.493260e+002 9.218150e+001
         vertex 3.324098e+002 1.723261e+002 9.218272e+001
         vertex 3.321470e+002 1.493260e+002 9.189458e+001
      endloop
   endfacet
   facet normal -7.601210e-001 -2.316140e-016 6.497815e-001
      outer loop
         vertex 3.321470e+002 1.493260e+002 9.189458e+001
         vertex 3.324098e+002 1.723261e+002 9.218272e+001
         vertex 3.321220e+002 1.493260e+002 9.185622e+001
      endloop
   endfacet
   facet normal -7.640933e-001 -2.322407e-016 6.451057e-001
      outer loop
         vertex 3.321220e+002 1.493260e+002 9.185622e+001
         vertex 3.324098e+002 1.723261e+002 9.218272e+001
         vertex 3.321191e+002 1.723261e+002 9.185807e+001
      endloop
   endfacet
   facet normal -8.286541e-001 -2.417506e-016 5.597610e-001
      outer loop
         vertex 3.321220e+002 1.493260e+002 9.185622e+001
         vertex 3.321191e+002 1.723261e+002 9.185807e+001
         vertex 3.319212e+002 1.493260e+002 9.154891e+001
      endloop
   endfacet
   facet normal -8.598409e-001 -2.457679e-016 5.105621e-001
      outer loop
         vertex 3.319212e+002 1.493260e+002 9.154891e+001
         vertex 3.321191e+002 1.723261e+002 9.185807e+001
         vertex 3.318936e+002 1.493260e+002 9.148597e+001
      endloop
   endfacet
   facet normal -8.645034e-001 -2.463266e-016 5.026269e-001
      outer loop
         vertex 3.318936e+002 1.493260e+002 9.148597e+001
         vertex 3.321191e+002 1.723261e+002 9.185807e+001
         vertex 3.318893e+002 1.723261e+002 9.148788e+001
      endloop
   endfacet
   facet normal -9.120152e-001 -2.511802e-016 4.101564e-001
      outer loop
         vertex 3.318936e+002 1.493260e+002 9.148597e+001
         vertex 3.318893e+002 1.723261e+002 9.148788e+001
         vertex 3.317553e+002 1.493260e+002 9.117079e+001
      endloop
   endfacet
   facet normal -9.343465e-001 -2.527146e-016 3.563659e-001
      outer loop
         vertex 3.317553e+002 1.493260e+002 9.117079e+001
         vertex 3.318893e+002 1.723261e+002 9.148788e+001
         vertex 3.317328e+002 1.493260e+002 9.108193e+001
      endloop
   endfacet
   facet normal -9.386495e-001 -2.529287e-016 3.448727e-001
      outer loop
         vertex 3.317328e+002 1.493260e+002 9.108193e+001
         vertex 3.318893e+002 1.723261e+002 9.148788e+001
         vertex 3.317271e+002 1.723261e+002 9.108338e+001
      endloop
   endfacet
   facet normal -9.686273e-001 -2.532425e-016 2.485178e-001
      outer loop
         vertex 3.317328e+002 1.493260e+002 9.108193e+001
         vertex 3.317271e+002 1.723261e+002 9.108338e+001
         vertex 3.316540e+002 1.493260e+002 9.077053e+001
      endloop
   endfacet
   facet normal -9.814507e-001 -2.522497e-016 1.917148e-001
      outer loop
         vertex 3.316540e+002 1.493260e+002 9.077053e+001
         vertex 3.317271e+002 1.723261e+002 9.108338e+001
         vertex 3.316445e+002 1.493260e+002 9.065631e+001
      endloop
   endfacet
   facet normal -9.842762e-001 -2.518456e-016 1.766360e-001
      outer loop
         vertex 3.316445e+002 1.493260e+002 9.065631e+001
         vertex 3.317271e+002 1.723261e+002 9.108338e+001
         vertex 3.316377e+002 1.723261e+002 9.065688e+001
      endloop
   endfacet
   facet normal -9.968280e-001 -2.478766e-016 7.958686e-002
      outer loop
         vertex 3.316445e+002 1.493260e+002 9.065631e+001
         vertex 3.316377e+002 1.723261e+002 9.065688e+001
         vertex 3.316199e+002 1.493260e+002 9.035905e+001
      endloop
   endfacet
   facet normal -9.997708e-001 -2.443845e-016 2.141014e-002
      outer loop
         vertex 3.316199e+002 1.493260e+002 9.035905e+001
         vertex 3.316377e+002 1.723261e+002 9.065688e+001
         vertex 3.316237e+002 1.723261e+002 9.022132e+001
      endloop
   endfacet
   facet normal -9.993262e-001 -2.400742e-016 -3.670476e-002
      outer loop
         vertex 3.316199e+002 1.493260e+002 9.035905e+001
         vertex 3.316237e+002 1.723261e+002 9.022132e+001
         vertex 3.316312e+002 1.493260e+002 9.022195e+001
      endloop
   endfacet
   facet normal -9.957884e-001 -2.352394e-016 -9.168113e-002
      outer loop
         vertex 3.316312e+002 1.493260e+002 9.022195e+001
         vertex 3.316237e+002 1.723261e+002 9.022132e+001
         vertex 3.316540e+002 1.493260e+002 8.994756e+001
      endloop
   endfacet
   facet normal -9.887634e-001 -2.293529e-016 -1.494891e-001
      outer loop
         vertex 3.316540e+002 1.493260e+002 8.994756e+001
         vertex 3.316237e+002 1.723261e+002 9.022132e+001
         vertex 3.316855e+002 1.723261e+002 8.978996e+001
      endloop
   endfacet
   facet normal -9.784060e-001 -2.227007e-016 -2.066925e-001
      outer loop
         vertex 3.316540e+002 1.493260e+002 8.994756e+001
         vertex 3.316855e+002 1.723261e+002 8.978996e+001
         vertex 3.316934e+002 1.493260e+002 8.979195e+001
      endloop
   endfacet
   facet normal -9.655382e-001 -2.157016e-016 -2.602613e-001
      outer loop
         vertex 3.316934e+002 1.493260e+002 8.979195e+001
         vertex 3.316855e+002 1.723261e+002 8.978996e+001
         vertex 3.317553e+002 1.493260e+002 8.954729e+001
      endloop
   endfacet
   facet normal -9.487578e-001 -2.075950e-016 -3.160042e-001
      outer loop
         vertex 3.317553e+002 1.493260e+002 8.954729e+001
         vertex 3.316855e+002 1.723261e+002 8.978996e+001
         vertex 3.318213e+002 1.723261e+002 8.937588e+001
      endloop
   endfacet
   facet normal -9.287850e-001 -1.987944e-016 -3.706190e-001
      outer loop
         vertex 3.317553e+002 1.493260e+002 8.954729e+001
         vertex 3.318213e+002 1.723261e+002 8.937588e+001
         vertex 3.318290e+002 1.493260e+002 8.937926e+001
      endloop
   endfacet
   facet normal -9.069642e-001 -1.898362e-016 -4.212078e-001
      outer loop
         vertex 3.318290e+002 1.493260e+002 8.937926e+001
         vertex 3.318213e+002 1.723261e+002 8.937588e+001
         vertex 3.319212e+002 1.493260e+002 8.916917e+001
      endloop
   endfacet
   facet normal -8.809274e-001 -1.797487e-016 -4.732514e-001
      outer loop
         vertex 3.319212e+002 1.493260e+002 8.916917e+001
         vertex 3.318213e+002 1.723261e+002 8.937588e+001
         vertex 3.320269e+002 1.723261e+002 8.899167e+001
      endloop
   endfacet
   facet normal -8.519183e-001 -1.690564e-016 -5.236748e-001
      outer loop
         vertex 3.319212e+002 1.493260e+002 8.916917e+001
         vertex 3.320269e+002 1.723261e+002 8.899167e+001
         vertex 3.320341e+002 1.493260e+002 8.899635e+001
      endloop
   endfacet
   facet normal -8.217846e-001 -1.584019e-016 -5.697984e-001
      outer loop
         vertex 3.320341e+002 1.493260e+002 8.899635e+001
         vertex 3.320269e+002 1.723261e+002 8.899167e+001
         vertex 3.321470e+002 1.493260e+002 8.882351e+001
      endloop
   endfacet
   facet normal -7.872615e-001 -1.466309e-016 -6.166193e-001
      outer loop
         vertex 3.321470e+002 1.493260e+002 8.882351e+001
         vertex 3.320269e+002 1.723261e+002 8.899167e+001
         vertex 3.322962e+002 1.723261e+002 8.864901e+001
      endloop
   endfacet
   facet normal -7.500606e-001 -1.343591e-016 -6.613691e-001
      outer loop
         vertex 3.321470e+002 1.493260e+002 8.882351e+001
         vertex 3.322962e+002 1.723261e+002 8.864901e+001
         vertex 3.323024e+002 1.493260e+002 8.865472e+001
      endloop
   endfacet
   facet normal -7.124984e-001 -1.223211e-016 -7.016737e-001
      outer loop
         vertex 3.323024e+002 1.493260e+002 8.865472e+001
         vertex 3.322962e+002 1.723261e+002 8.864901e+001
         vertex 3.324266e+002 1.493260e+002 8.851973e+001
      endloop
   endfacet
   facet normal -6.705070e-001 -1.092127e-016 -7.419032e-001
      outer loop
         vertex 3.324266e+002 1.493260e+002 8.851973e+001
         vertex 3.322962e+002 1.723261e+002 8.864901e+001
         vertex 3.326208e+002 1.723261e+002 8.835831e+001
      endloop
   endfacet
   facet normal -6.262002e-001 -9.572050e-017 -7.796623e-001
      outer loop
         vertex 3.324266e+002 1.493260e+002 8.851973e+001
         vertex 3.326208e+002 1.723261e+002 8.835831e+001
         vertex 3.326258e+002 1.493260e+002 8.836472e+001
      endloop
   endfacet
   facet normal -5.823125e-001 -8.265236e-017 -8.129650e-001
      outer loop
         vertex 3.326258e+002 1.493260e+002 8.836472e+001
         vertex 3.326208e+002 1.723261e+002 8.835831e+001
         vertex 3.327525e+002 1.493260e+002 8.826612e+001
      endloop
   endfacet
   facet normal -5.340880e-001 -6.859152e-017 -8.454289e-001
      outer loop
         vertex 3.327525e+002 1.493260e+002 8.826612e+001
         vertex 3.326208e+002 1.723261e+002 8.835831e+001
         vertex 3.329910e+002 1.723261e+002 8.812840e+001
      endloop
   endfacet
   facet normal -4.839712e-001 -5.427415e-017 -8.750839e-001
      outer loop
         vertex 3.327525e+002 1.493260e+002 8.826612e+001
         vertex 3.329910e+002 1.723261e+002 8.812840e+001
         vertex 3.329946e+002 1.493260e+002 8.813508e+001
      endloop
   endfacet
   facet normal -4.350466e-001 -4.055954e-017 -9.004079e-001
      outer loop
         vertex 3.329946e+002 1.493260e+002 8.813508e+001
         vertex 3.329910e+002 1.723261e+002 8.812840e+001
         vertex 3.331156e+002 1.493260e+002 8.806960e+001
      endloop
   endfacet
   facet normal -3.820053e-001 -2.595868e-017 -9.241601e-001
      outer loop
         vertex 3.331156e+002 1.493260e+002 8.806960e+001
         vertex 3.329910e+002 1.723261e+002 8.812840e+001
         vertex 3.333955e+002 1.723261e+002 8.796627e+001
      endloop
   endfacet
   facet normal -3.275468e-001 -1.123613e-017 -9.448349e-001
      outer loop
         vertex 3.331156e+002 1.493260e+002 8.806960e+001
         vertex 3.333955e+002 1.723261e+002 8.796627e+001
         vertex 3.333977e+002 1.493260e+002 8.797275e+001
      endloop
   endfacet
   facet normal -2.750220e-001 2.722323e-018 -9.614379e-001
      outer loop
         vertex 3.333977e+002 1.493260e+002 8.797275e+001
         vertex 3.333955e+002 1.723261e+002 8.796627e+001
         vertex 3.335061e+002 1.493260e+002 8.793554e+001
      endloop
   endfacet
   facet normal -2.187191e-001 1.743550e-017 -9.757879e-001
      outer loop
         vertex 3.335061e+002 1.493260e+002 8.793554e+001
         vertex 3.333955e+002 1.723261e+002 8.796627e+001
         vertex 3.338220e+002 1.723261e+002 8.787684e+001
      endloop
   endfacet
   facet normal -1.615167e-001 3.213088e-017 -9.868700e-001
      outer loop
         vertex 3.335061e+002 1.493260e+002 8.793554e+001
         vertex 3.338220e+002 1.723261e+002 8.787684e+001
         vertex 3.338230e+002 1.493260e+002 8.788266e+001
      endloop
   endfacet
   facet normal -1.069336e-001 4.592350e-017 -9.942662e-001
      outer loop
         vertex 3.338230e+002 1.493260e+002 8.788266e+001
         vertex 3.338220e+002 1.723261e+002 8.787684e+001
         vertex 3.339134e+002 1.493260e+002 8.786758e+001
      endloop
   endfacet
   facet normal -4.901813e-002 6.031841e-017 -9.987979e-001
      outer loop
         vertex 3.339134e+002 1.493260e+002 8.786758e+001
         vertex 3.338220e+002 1.723261e+002 8.787684e+001
         vertex 3.342576e+002 1.723261e+002 8.786282e+001
      endloop
   endfacet
   facet normal 9.248273e-003 7.455468e-017 -9.999573e-001
      outer loop
         vertex 3.339134e+002 1.493260e+002 8.786758e+001
         vertex 3.342576e+002 1.723261e+002 8.786282e+001
         vertex 3.342576e+002 1.493260e+002 8.786758e+001
      endloop
   endfacet
   facet normal 6.428709e-002 8.777668e-017 -9.979314e-001
      outer loop
         vertex 3.342576e+002 1.493260e+002 8.786758e+001
         vertex 3.342576e+002 1.723261e+002 8.786282e+001
         vertex 3.343263e+002 1.493260e+002 8.786758e+001
      endloop
   endfacet
   facet normal 1.221208e-001 1.014324e-016 -9.925153e-001
      outer loop
         vertex 3.343263e+002 1.493260e+002 8.786758e+001
         vertex 3.342576e+002 1.723261e+002 8.786282e+001
         vertex 3.346889e+002 1.723261e+002 8.792467e+001
      endloop
   endfacet
   facet normal 1.797382e-001 1.147908e-016 -9.837145e-001
      outer loop
         vertex 3.343263e+002 1.493260e+002 8.786758e+001
         vertex 3.346889e+002 1.723261e+002 8.792467e+001
         vertex 3.346884e+002 1.493260e+002 8.792799e+001
      endloop
   endfacet
   facet normal 2.336176e-001 1.270543e-016 -9.723285e-001
      outer loop
         vertex 3.346884e+002 1.493260e+002 8.792799e+001
         vertex 3.346889e+002 1.723261e+002 8.792467e+001
         vertex 3.347336e+002 1.493260e+002 8.793553e+001
      endloop
   endfacet
   facet normal 2.896785e-001 1.395716e-016 -9.571240e-001
      outer loop
         vertex 3.347336e+002 1.493260e+002 8.793553e+001
         vertex 3.346889e+002 1.723261e+002 8.792467e+001
         vertex 3.351030e+002 1.723261e+002 8.806047e+001
      endloop
   endfacet
   facet normal 3.449521e-001 1.516591e-016 -9.386203e-001
      outer loop
         vertex 3.347336e+002 1.493260e+002 8.793553e+001
         vertex 3.351030e+002 1.723261e+002 8.806047e+001
         vertex 3.351024e+002 1.493260e+002 8.806216e+001
      endloop
   endfacet
   facet normal 3.960915e-001 1.626046e-016 -9.182110e-001
      outer loop
         vertex 3.351024e+002 1.493260e+002 8.806216e+001
         vertex 3.351030e+002 1.723261e+002 8.806047e+001
         vertex 3.351241e+002 1.493260e+002 8.806960e+001
      endloop
   endfacet
   facet normal 4.487410e-001 1.736176e-016 -8.936619e-001
      outer loop
         vertex 3.351241e+002 1.493260e+002 8.806960e+001
         vertex 3.351030e+002 1.723261e+002 8.806047e+001
         vertex 3.354872e+002 1.723261e+002 8.826611e+001
      endloop
   endfacet
   facet normal 5.000443e-001 1.840784e-016 -8.659998e-001
      outer loop
         vertex 3.351241e+002 1.493260e+002 8.806960e+001
         vertex 3.354872e+002 1.723261e+002 8.826611e+001
         vertex 3.354872e+002 1.493260e+002 8.826611e+001
      endloop
   endfacet
   facet normal 7.640933e-001 2.322407e-016 -6.451057e-001
      outer loop
         vertex 3.358299e+002 1.723261e+002 8.853535e+001
         vertex 3.361206e+002 1.723261e+002 8.885999e+001
         vertex 3.361177e+002 1.493260e+002 8.886184e+001
      endloop
   endfacet
   facet normal 7.601210e-001 2.316139e-016 -6.497815e-001
      outer loop
         vertex 3.361177e+002 1.493260e+002 8.886184e+001
         vertex 3.360927e+002 1.493260e+002 8.882349e+001
         vertex 3.358299e+002 1.723261e+002 8.853535e+001
      endloop
   endfacet
   facet normal 7.209911e-001 2.252308e-016 -6.929443e-001
      outer loop
         vertex 3.358299e+002 1.723261e+002 8.853535e+001
         vertex 3.360927e+002 1.493260e+002 8.882349e+001
         vertex 3.358286e+002 1.493260e+002 8.853656e+001
      endloop
   endfacet
   facet normal 6.404724e-001 2.110994e-016 -7.679812e-001
      outer loop
         vertex 3.358299e+002 1.723261e+002 8.853535e+001
         vertex 3.358286e+002 1.493260e+002 8.853656e+001
         vertex 3.354872e+002 1.723261e+002 8.826611e+001
      endloop
   endfacet
   facet normal 6.381136e-001 2.106683e-016 -7.699422e-001
      outer loop
         vertex 3.354872e+002 1.723261e+002 8.826611e+001
         vertex 3.358286e+002 1.493260e+002 8.853656e+001
         vertex 3.358130e+002 1.493260e+002 8.851971e+001
      endloop
   endfacet
   facet normal 5.921863e-001 2.021060e-016 -8.058011e-001
      outer loop
         vertex 3.354872e+002 1.723261e+002 8.826611e+001
         vertex 3.358130e+002 1.493260e+002 8.851971e+001
         vertex 3.354872e+002 1.493260e+002 8.826611e+001
      endloop
   endfacet
   facet normal 9.386495e-001 2.529287e-016 -3.448727e-001
      outer loop
         vertex 3.363505e+002 1.723261e+002 8.923019e+001
         vertex 3.365126e+002 1.723261e+002 8.963468e+001
         vertex 3.365069e+002 1.493260e+002 8.963613e+001
      endloop
   endfacet
   facet normal 9.343465e-001 2.527146e-016 -3.563659e-001
      outer loop
         vertex 3.365069e+002 1.493260e+002 8.963613e+001
         vertex 3.364844e+002 1.493260e+002 8.954727e+001
         vertex 3.363505e+002 1.723261e+002 8.923019e+001
      endloop
   endfacet
   facet normal 9.120153e-001 2.511802e-016 -4.101563e-001
      outer loop
         vertex 3.363505e+002 1.723261e+002 8.923019e+001
         vertex 3.364844e+002 1.493260e+002 8.954727e+001
         vertex 3.363462e+002 1.493260e+002 8.923209e+001
      endloop
   endfacet
   facet normal 8.645034e-001 2.463266e-016 -5.026269e-001
      outer loop
         vertex 3.363505e+002 1.723261e+002 8.923019e+001
         vertex 3.363462e+002 1.493260e+002 8.923209e+001
         vertex 3.361206e+002 1.723261e+002 8.885999e+001
      endloop
   endfacet
   facet normal 8.598409e-001 2.457679e-016 -5.105621e-001
      outer loop
         vertex 3.361206e+002 1.723261e+002 8.885999e+001
         vertex 3.363462e+002 1.493260e+002 8.923209e+001
         vertex 3.363185e+002 1.493260e+002 8.916915e+001
      endloop
   endfacet
   facet normal 8.286541e-001 2.417506e-016 -5.597610e-001
      outer loop
         vertex 3.361206e+002 1.723261e+002 8.885999e+001
         vertex 3.363185e+002 1.493260e+002 8.916915e+001
         vertex 3.361177e+002 1.493260e+002 8.886184e+001
      endloop
   endfacet
   facet normal 9.997708e-001 2.443845e-016 -2.141022e-002
      outer loop
         vertex 3.366161e+002 1.723261e+002 9.049674e+001
         vertex 3.366198e+002 1.493260e+002 9.035902e+001
         vertex 3.366021e+002 1.723261e+002 9.006119e+001
      endloop
   endfacet
   facet normal 9.968280e-001 2.478766e-016 -7.958677e-002
      outer loop
         vertex 3.366021e+002 1.723261e+002 9.006119e+001
         vertex 3.366198e+002 1.493260e+002 9.035902e+001
         vertex 3.365952e+002 1.493260e+002 9.006175e+001
      endloop
   endfacet
   facet normal 9.842762e-001 2.518456e-016 -1.766360e-001
      outer loop
         vertex 3.366021e+002 1.723261e+002 9.006119e+001
         vertex 3.365952e+002 1.493260e+002 9.006175e+001
         vertex 3.365126e+002 1.723261e+002 8.963468e+001
      endloop
   endfacet
   facet normal 9.814507e-001 2.522497e-016 -1.917148e-001
      outer loop
         vertex 3.365126e+002 1.723261e+002 8.963468e+001
         vertex 3.365952e+002 1.493260e+002 9.006175e+001
         vertex 3.365858e+002 1.493260e+002 8.994754e+001
      endloop
   endfacet
   facet normal 9.686273e-001 2.532425e-016 -2.485178e-001
      outer loop
         vertex 3.365126e+002 1.723261e+002 8.963468e+001
         vertex 3.365858e+002 1.493260e+002 8.994754e+001
         vertex 3.365069e+002 1.493260e+002 8.963613e+001
      endloop
   endfacet
   facet normal 9.887634e-001 2.293529e-016 1.494891e-001
      outer loop
         vertex 3.365542e+002 1.723261e+002 9.092811e+001
         vertex 3.365858e+002 1.493260e+002 9.077051e+001
         vertex 3.366161e+002 1.723261e+002 9.049674e+001
      endloop
   endfacet
   facet normal 9.957884e-001 2.352394e-016 9.168115e-002
      outer loop
         vertex 3.366161e+002 1.723261e+002 9.049674e+001
         vertex 3.365858e+002 1.493260e+002 9.077051e+001
         vertex 3.366085e+002 1.493260e+002 9.049612e+001
      endloop
   endfacet
   facet normal 9.993262e-001 2.400742e-016 3.670476e-002
      outer loop
         vertex 3.366161e+002 1.723261e+002 9.049674e+001
         vertex 3.366085e+002 1.493260e+002 9.049612e+001
         vertex 3.366198e+002 1.493260e+002 9.035902e+001
      endloop
   endfacet
   facet normal 9.487578e-001 2.075950e-016 3.160042e-001
      outer loop
         vertex 3.364184e+002 1.723261e+002 9.134219e+001
         vertex 3.364844e+002 1.493260e+002 9.117078e+001
         vertex 3.365542e+002 1.723261e+002 9.092811e+001
      endloop
   endfacet
   facet normal 9.655382e-001 2.157016e-016 2.602614e-001
      outer loop
         vertex 3.365542e+002 1.723261e+002 9.092811e+001
         vertex 3.364844e+002 1.493260e+002 9.117078e+001
         vertex 3.365464e+002 1.493260e+002 9.092612e+001
      endloop
   endfacet
   facet normal 9.784060e-001 2.227007e-016 2.066925e-001
      outer loop
         vertex 3.365542e+002 1.723261e+002 9.092811e+001
         vertex 3.365464e+002 1.493260e+002 9.092612e+001
         vertex 3.365858e+002 1.493260e+002 9.077051e+001
      endloop
   endfacet
   facet normal 8.809274e-001 1.797487e-016 4.732514e-001
      outer loop
         vertex 3.362128e+002 1.723261e+002 9.172639e+001
         vertex 3.363185e+002 1.493260e+002 9.154889e+001
         vertex 3.364184e+002 1.723261e+002 9.134219e+001
      endloop
   endfacet
   facet normal 9.069642e-001 1.898362e-016 4.212078e-001
      outer loop
         vertex 3.364184e+002 1.723261e+002 9.134219e+001
         vertex 3.363185e+002 1.493260e+002 9.154889e+001
         vertex 3.364107e+002 1.493260e+002 9.133880e+001
      endloop
   endfacet
   facet normal 9.287850e-001 1.987944e-016 3.706190e-001
      outer loop
         vertex 3.364184e+002 1.723261e+002 9.134219e+001
         vertex 3.364107e+002 1.493260e+002 9.133880e+001
         vertex 3.364844e+002 1.493260e+002 9.117078e+001
      endloop
   endfacet
   facet normal 7.872615e-001 1.466309e-016 6.166193e-001
      outer loop
         vertex 3.359435e+002 1.723261e+002 9.206905e+001
         vertex 3.360927e+002 1.493260e+002 9.189455e+001
         vertex 3.362128e+002 1.723261e+002 9.172639e+001
      endloop
   endfacet
   facet normal 8.217846e-001 1.584019e-016 5.697984e-001
      outer loop
         vertex 3.362128e+002 1.723261e+002 9.172639e+001
         vertex 3.360927e+002 1.493260e+002 9.189455e+001
         vertex 3.362056e+002 1.493260e+002 9.172172e+001
      endloop
   endfacet
   facet normal 8.519183e-001 1.690564e-016 5.236748e-001
      outer loop
         vertex 3.362128e+002 1.723261e+002 9.172639e+001
         vertex 3.362056e+002 1.493260e+002 9.172172e+001
         vertex 3.363185e+002 1.493260e+002 9.154889e+001
      endloop
   endfacet
   facet normal 6.705070e-001 1.092127e-016 7.419032e-001
      outer loop
         vertex 3.356189e+002 1.723261e+002 9.235975e+001
         vertex 3.358131e+002 1.493260e+002 9.219833e+001
         vertex 3.359435e+002 1.723261e+002 9.206905e+001
      endloop
   endfacet
   facet normal 7.124984e-001 1.223211e-016 7.016737e-001
      outer loop
         vertex 3.359435e+002 1.723261e+002 9.206905e+001
         vertex 3.358131e+002 1.493260e+002 9.219833e+001
         vertex 3.359373e+002 1.493260e+002 9.206334e+001
      endloop
   endfacet
   facet normal 7.500606e-001 1.343591e-016 6.613691e-001
      outer loop
         vertex 3.359435e+002 1.723261e+002 9.206905e+001
         vertex 3.359373e+002 1.493260e+002 9.206334e+001
         vertex 3.360927e+002 1.493260e+002 9.189455e+001
      endloop
   endfacet
   facet normal 5.340880e-001 6.859152e-017 8.454289e-001
      outer loop
         vertex 3.352487e+002 1.723261e+002 9.258966e+001
         vertex 3.354872e+002 1.493260e+002 9.245194e+001
         vertex 3.356189e+002 1.723261e+002 9.235975e+001
      endloop
   endfacet
   facet normal 5.823125e-001 8.265236e-017 8.129650e-001
      outer loop
         vertex 3.356189e+002 1.723261e+002 9.235975e+001
         vertex 3.354872e+002 1.493260e+002 9.245194e+001
         vertex 3.356139e+002 1.493260e+002 9.235335e+001
      endloop
   endfacet
   facet normal 6.262001e-001 9.572049e-017 7.796624e-001
      outer loop
         vertex 3.356189e+002 1.723261e+002 9.235975e+001
         vertex 3.356139e+002 1.493260e+002 9.235335e+001
         vertex 3.358131e+002 1.493260e+002 9.219833e+001
      endloop
   endfacet
   facet normal 3.820054e-001 2.595870e-017 9.241601e-001
      outer loop
         vertex 3.348442e+002 1.723261e+002 9.275179e+001
         vertex 3.351241e+002 1.493260e+002 9.264846e+001
         vertex 3.352487e+002 1.723261e+002 9.258966e+001
      endloop
   endfacet
   facet normal 4.350466e-001 4.055954e-017 9.004079e-001
      outer loop
         vertex 3.352487e+002 1.723261e+002 9.258966e+001
         vertex 3.351241e+002 1.493260e+002 9.264846e+001
         vertex 3.352451e+002 1.493260e+002 9.258298e+001
      endloop
   endfacet
   facet normal 4.839712e-001 5.427414e-017 8.750839e-001
      outer loop
         vertex 3.352487e+002 1.723261e+002 9.258966e+001
         vertex 3.352451e+002 1.493260e+002 9.258298e+001
         vertex 3.354872e+002 1.493260e+002 9.245194e+001
      endloop
   endfacet
   facet normal 2.187191e-001 -1.743550e-017 9.757879e-001
      outer loop
         vertex 3.344177e+002 1.723261e+002 9.284122e+001
         vertex 3.347336e+002 1.493260e+002 9.278252e+001
         vertex 3.348442e+002 1.723261e+002 9.275179e+001
      endloop
   endfacet
   facet normal 2.750220e-001 -2.722313e-018 9.614379e-001
      outer loop
         vertex 3.348442e+002 1.723261e+002 9.275179e+001
         vertex 3.347336e+002 1.493260e+002 9.278252e+001
         vertex 3.348420e+002 1.493260e+002 9.274532e+001
      endloop
   endfacet
   facet normal 3.275468e-001 1.123611e-017 9.448349e-001
      outer loop
         vertex 3.348442e+002 1.723261e+002 9.275179e+001
         vertex 3.348420e+002 1.493260e+002 9.274532e+001
         vertex 3.351241e+002 1.493260e+002 9.264846e+001
      endloop
   endfacet
   facet normal 4.901818e-002 -6.031839e-017 9.987979e-001
      outer loop
         vertex 3.339821e+002 1.723261e+002 9.285524e+001
         vertex 3.343263e+002 1.493260e+002 9.285049e+001
         vertex 3.344177e+002 1.723261e+002 9.284122e+001
      endloop
   endfacet
   facet normal 1.069336e-001 -4.592350e-017 9.942662e-001
      outer loop
         vertex 3.344177e+002 1.723261e+002 9.284122e+001
         vertex 3.343263e+002 1.493260e+002 9.285049e+001
         vertex 3.344167e+002 1.493260e+002 9.283540e+001
      endloop
   endfacet
   facet normal 1.615167e-001 -3.213088e-017 9.868700e-001
      outer loop
         vertex 3.344177e+002 1.723261e+002 9.284122e+001
         vertex 3.344167e+002 1.493260e+002 9.283540e+001
         vertex 3.347336e+002 1.493260e+002 9.278252e+001
      endloop
   endfacet
   facet normal -1.221209e-001 -1.014324e-016 9.925153e-001
      outer loop
         vertex 3.335508e+002 1.723261e+002 9.279340e+001
         vertex 3.339134e+002 1.493260e+002 9.285049e+001
         vertex 3.339821e+002 1.723261e+002 9.285524e+001
      endloop
   endfacet
   facet normal -6.428709e-002 -8.777668e-017 9.979314e-001
      outer loop
         vertex 3.339821e+002 1.723261e+002 9.285524e+001
         vertex 3.339134e+002 1.493260e+002 9.285049e+001
         vertex 3.339821e+002 1.493260e+002 9.285049e+001
      endloop
   endfacet
   facet normal -9.248323e-003 -7.455470e-017 9.999572e-001
      outer loop
         vertex 3.339821e+002 1.723261e+002 9.285524e+001
         vertex 3.339821e+002 1.493260e+002 9.285049e+001
         vertex 3.343263e+002 1.493260e+002 9.285049e+001
      endloop
   endfacet
   facet normal -2.896785e-001 -1.395716e-016 9.571240e-001
      outer loop
         vertex 3.331367e+002 1.723261e+002 9.265759e+001
         vertex 3.335062e+002 1.493260e+002 9.278253e+001
         vertex 3.335508e+002 1.723261e+002 9.279340e+001
      endloop
   endfacet
   facet normal -2.336176e-001 -1.270543e-016 9.723285e-001
      outer loop
         vertex 3.335508e+002 1.723261e+002 9.279340e+001
         vertex 3.335062e+002 1.493260e+002 9.278253e+001
         vertex 3.335514e+002 1.493260e+002 9.279008e+001
      endloop
   endfacet
   facet normal -1.797382e-001 -1.147908e-016 9.837145e-001
      outer loop
         vertex 3.335508e+002 1.723261e+002 9.279340e+001
         vertex 3.335514e+002 1.493260e+002 9.279008e+001
         vertex 3.339134e+002 1.493260e+002 9.285049e+001
      endloop
   endfacet
   facet normal -5.921863e-001 -2.021060e-016 8.058011e-001
      outer loop
         vertex 3.324267e+002 1.493260e+002 9.219835e+001
         vertex 3.327525e+002 1.493260e+002 9.245195e+001
         vertex 3.327525e+002 1.723261e+002 9.245195e+001
      endloop
   endfacet
   facet normal -5.000443e-001 -1.840784e-016 8.659998e-001
      outer loop
         vertex 3.327525e+002 1.723261e+002 9.245195e+001
         vertex 3.327525e+002 1.493260e+002 9.245195e+001
         vertex 3.331156e+002 1.493260e+002 9.264847e+001
      endloop
   endfacet
   facet normal -4.487410e-001 -1.736176e-016 8.936619e-001
      outer loop
         vertex 3.327525e+002 1.723261e+002 9.245195e+001
         vertex 3.331156e+002 1.493260e+002 9.264847e+001
         vertex 3.331367e+002 1.723261e+002 9.265759e+001
      endloop
   endfacet
   facet normal -3.960915e-001 -1.626046e-016 9.182110e-001
      outer loop
         vertex 3.331367e+002 1.723261e+002 9.265759e+001
         vertex 3.331156e+002 1.493260e+002 9.264847e+001
         vertex 3.331373e+002 1.493260e+002 9.265591e+001
      endloop
   endfacet
   facet normal -3.449521e-001 -1.516591e-016 9.386203e-001
      outer loop
         vertex 3.331367e+002 1.723261e+002 9.265759e+001
         vertex 3.331373e+002 1.493260e+002 9.265591e+001
         vertex 3.335062e+002 1.493260e+002 9.278253e+001
      endloop
   endfacet
   facet normal -2.428920e-016 1.000000e+000 7.231144e-017
      outer loop
         vertex 3.362128e+002 1.723261e+002 9.172639e+001
         vertex 3.364184e+002 1.723261e+002 9.134219e+001
         vertex 3.322962e+002 1.723261e+002 8.864901e+001
      endloop
   endfacet
   facet normal -2.428920e-016 1.000000e+000 7.231144e-017
      outer loop
         vertex 3.318893e+002 1.723261e+002 9.148788e+001
         vertex 3.321191e+002 1.723261e+002 9.185807e+001
         vertex 3.359435e+002 1.723261e+002 9.206905e+001
      endloop
   endfacet
   facet normal -2.428920e-016 1.000000e+000 7.231144e-017
      outer loop
         vertex 3.318213e+002 1.723261e+002 8.937588e+001
         vertex 3.316855e+002 1.723261e+002 8.978996e+001
         vertex 3.359435e+002 1.723261e+002 9.206905e+001
      endloop
   endfacet
   facet normal -2.428920e-016 1.000000e+000 7.231144e-017
      outer loop
         vertex 3.359435e+002 1.723261e+002 9.206905e+001
         vertex 3.316855e+002 1.723261e+002 8.978996e+001
         vertex 3.316237e+002 1.723261e+002 9.022132e+001
      endloop
   endfacet
   facet normal -2.428920e-016 1.000000e+000 7.231144e-017
      outer loop
         vertex 3.362128e+002 1.723261e+002 9.172639e+001
         vertex 3.322962e+002 1.723261e+002 8.864901e+001
         vertex 3.359435e+002 1.723261e+002 9.206905e+001
      endloop
   endfacet
   facet normal -2.428920e-016 1.000000e+000 7.231144e-017
      outer loop
         vertex 3.359435e+002 1.723261e+002 9.206905e+001
         vertex 3.322962e+002 1.723261e+002 8.864901e+001
         vertex 3.320269e+002 1.723261e+002 8.899167e+001
      endloop
   endfacet
   facet normal -2.428920e-016 1.000000e+000 7.231144e-017
      outer loop
         vertex 3.359435e+002 1.723261e+002 9.206905e+001
         vertex 3.320269e+002 1.723261e+002 8.899167e+001
         vertex 3.318213e+002 1.723261e+002 8.937588e+001
      endloop
   endfacet
   facet normal -2.428920e-016 1.000000e+000 7.231144e-017
      outer loop
         vertex 3.316237e+002 1.723261e+002 9.022132e+001
         vertex 3.316377e+002 1.723261e+002 9.065688e+001
         vertex 3.359435e+002 1.723261e+002 9.206905e+001
      endloop
   endfacet
   facet normal -2.428920e-016 1.000000e+000 7.231144e-017
      outer loop
         vertex 3.359435e+002 1.723261e+002 9.206905e+001
         vertex 3.316377e+002 1.723261e+002 9.065688e+001
         vertex 3.317271e+002 1.723261e+002 9.108338e+001
      endloop
   endfacet
   facet normal -2.428920e-016 1.000000e+000 7.231144e-017
      outer loop
         vertex 3.359435e+002 1.723261e+002 9.206905e+001
         vertex 3.317271e+002 1.723261e+002 9.108338e+001
         vertex 3.318893e+002 1.723261e+002 9.148788e+001
      endloop
   endfacet
   facet normal -2.428920e-016 1.000000e+000 7.231144e-017
      outer loop
         vertex 3.364184e+002 1.723261e+002 9.134219e+001
         vertex 3.365542e+002 1.723261e+002 9.092811e+001
         vertex 3.322962e+002 1.723261e+002 8.864901e+001
      endloop
   endfacet
   facet normal -2.428920e-016 1.000000e+000 7.231144e-017
      outer loop
         vertex 3.322962e+002 1.723261e+002 8.864901e+001
         vertex 3.365542e+002 1.723261e+002 9.092811e+001
         vertex 3.366161e+002 1.723261e+002 9.049674e+001
      endloop
   endfacet
   facet normal -2.428920e-016 1.000000e+000 7.231144e-017
      outer loop
         vertex 3.322962e+002 1.723261e+002 8.864901e+001
         vertex 3.366161e+002 1.723261e+002 9.049674e+001
         vertex 3.366021e+002 1.723261e+002 9.006119e+001
      endloop
   endfacet
   facet normal -2.428920e-016 1.000000e+000 7.231144e-017
      outer loop
         vertex 3.366021e+002 1.723261e+002 9.006119e+001
         vertex 3.365126e+002 1.723261e+002 8.963468e+001
         vertex 3.322962e+002 1.723261e+002 8.864901e+001
      endloop
   endfacet
   facet normal -2.428920e-016 1.000000e+000 7.231144e-017
      outer loop
         vertex 3.322962e+002 1.723261e+002 8.864901e+001
         vertex 3.365126e+002 1.723261e+002 8.963468e+001
         vertex 3.363505e+002 1.723261e+002 8.923019e+001
      endloop
   endfacet
   facet normal -2.428920e-016 1.000000e+000 7.231144e-017
      outer loop
         vertex 3.322962e+002 1.723261e+002 8.864901e+001
         vertex 3.363505e+002 1.723261e+002 8.923019e+001
         vertex 3.361206e+002 1.723261e+002 8.885999e+001
      endloop
   endfacet
   facet normal -2.428920e-016 1.000000e+000 7.231144e-017
      outer loop
         vertex 3.321191e+002 1.723261e+002 9.185807e+001
         vertex 3.324098e+002 1.723261e+002 9.218272e+001
         vertex 3.359435e+002 1.723261e+002 9.206905e+001
      endloop
   endfacet
   facet normal -2.428920e-016 1.000000e+000 7.231144e-017
      outer loop
         vertex 3.359435e+002 1.723261e+002 9.206905e+001
         vertex 3.324098e+002 1.723261e+002 9.218272e+001
         vertex 3.327525e+002 1.723261e+002 9.245195e+001
      endloop
   endfacet
   facet normal -2.428920e-016 1.000000e+000 7.231144e-017
      outer loop
         vertex 3.359435e+002 1.723261e+002 9.206905e+001
         vertex 3.327525e+002 1.723261e+002 9.245195e+001
         vertex 3.331367e+002 1.723261e+002 9.265759e+001
      endloop
   endfacet
   facet normal -2.428920e-016 1.000000e+000 7.231144e-017
      outer loop
         vertex 3.331367e+002 1.723261e+002 9.265759e+001
         vertex 3.335508e+002 1.723261e+002 9.279340e+001
         vertex 3.359435e+002 1.723261e+002 9.206905e+001
      endloop
   endfacet
   facet normal -2.428920e-016 1.000000e+000 7.231144e-017
      outer loop
         vertex 3.359435e+002 1.723261e+002 9.206905e+001
         vertex 3.335508e+002 1.723261e+002 9.279340e+001
         vertex 3.339821e+002 1.723261e+002 9.285524e+001
      endloop
   endfacet
   facet normal -2.428920e-016 1.000000e+000 7.231144e-017
      outer loop
         vertex 3.359435e+002 1.723261e+002 9.206905e+001
         vertex 3.339821e+002 1.723261e+002 9.285524e+001
         vertex 3.344177e+002 1.723261e+002 9.284122e+001
      endloop
   endfacet
   facet normal -2.428920e-016 1.000000e+000 7.231144e-017
      outer loop
         vertex 3.361206e+002 1.723261e+002 8.885999e+001
         vertex 3.358299e+002 1.723261e+002 8.853535e+001
         vertex 3.322962e+002 1.723261e+002 8.864901e+001
      endloop
   endfacet
   facet normal -2.428920e-016 1.000000e+000 7.231144e-017
      outer loop
         vertex 3.322962e+002 1.723261e+002 8.864901e+001
         vertex 3.358299e+002 1.723261e+002 8.853535e+001
         vertex 3.354872e+002 1.723261e+002 8.826611e+001
      endloop
   endfacet
   facet normal -2.428920e-016 1.000000e+000 7.231144e-017
      outer loop
         vertex 3.322962e+002 1.723261e+002 8.864901e+001
         vertex 3.354872e+002 1.723261e+002 8.826611e+001
         vertex 3.351030e+002 1.723261e+002 8.806047e+001
      endloop
   endfacet
   facet normal -2.428920e-016 1.000000e+000 7.231144e-017
      outer loop
         vertex 3.351030e+002 1.723261e+002 8.806047e+001
         vertex 3.346889e+002 1.723261e+002 8.792467e+001
         vertex 3.322962e+002 1.723261e+002 8.864901e+001
      endloop
   endfacet
   facet normal -2.428920e-016 1.000000e+000 7.231144e-017
      outer loop
         vertex 3.322962e+002 1.723261e+002 8.864901e+001
         vertex 3.346889e+002 1.723261e+002 8.792467e+001
         vertex 3.342576e+002 1.723261e+002 8.786282e+001
      endloop
   endfacet
   facet normal -2.428920e-016 1.000000e+000 7.231144e-017
      outer loop
         vertex 3.322962e+002 1.723261e+002 8.864901e+001
         vertex 3.342576e+002 1.723261e+002 8.786282e+001
         vertex 3.338220e+002 1.723261e+002 8.787684e+001
      endloop
   endfacet
   facet normal -2.428920e-016 1.000000e+000 7.231144e-017
      outer loop
         vertex 3.344177e+002 1.723261e+002 9.284122e+001
         vertex 3.348442e+002 1.723261e+002 9.275179e+001
         vertex 3.359435e+002 1.723261e+002 9.206905e+001
      endloop
   endfacet
   facet normal -2.428920e-016 1.000000e+000 7.231144e-017
      outer loop
         vertex 3.359435e+002 1.723261e+002 9.206905e+001
         vertex 3.348442e+002 1.723261e+002 9.275179e+001
         vertex 3.352487e+002 1.723261e+002 9.258966e+001
      endloop
   endfacet
   facet normal -2.428920e-016 1.000000e+000 7.231144e-017
      outer loop
         vertex 3.359435e+002 1.723261e+002 9.206905e+001
         vertex 3.352487e+002 1.723261e+002 9.258966e+001
         vertex 3.356189e+002 1.723261e+002 9.235975e+001
      endloop
   endfacet
   facet normal -2.428920e-016 1.000000e+000 7.231144e-017
      outer loop
         vertex 3.338220e+002 1.723261e+002 8.787684e+001
         vertex 3.333955e+002 1.723261e+002 8.796627e+001
         vertex 3.322962e+002 1.723261e+002 8.864901e+001
      endloop
   endfacet
   facet normal -2.428920e-016 1.000000e+000 7.231144e-017
      outer loop
         vertex 3.322962e+002 1.723261e+002 8.864901e+001
         vertex 3.333955e+002 1.723261e+002 8.796627e+001
         vertex 3.329910e+002 1.723261e+002 8.812840e+001
      endloop
   endfacet
   facet normal -2.428920e-016 1.000000e+000 7.231144e-017
      outer loop
         vertex 3.322962e+002 1.723261e+002 8.864901e+001
         vertex 3.329910e+002 1.723261e+002 8.812840e+001
         vertex 3.326208e+002 1.723261e+002 8.835831e+001
      endloop
   endfacet
   facet normal 2.428920e-016 -1.000000e+000 -7.231144e-017
      outer loop
         vertex 3.356062e+002 1.481261e+002 9.374738e+001
         vertex 3.326336e+002 1.481261e+002 8.697068e+001
         vertex 3.332115e+002 1.481261e+002 8.677225e+001
      endloop
   endfacet
   facet normal 2.428920e-016 -1.000000e+000 -7.231144e-017
      outer loop
         vertex 3.320962e+002 1.481261e+002 9.345656e+001
         vertex 3.316139e+002 1.481261e+002 9.308122e+001
         vertex 3.326336e+002 1.481261e+002 8.697068e+001
      endloop
   endfacet
   facet normal 2.428920e-016 -1.000000e+000 -7.231144e-017
      outer loop
         vertex 3.356062e+002 1.481261e+002 9.374738e+001
         vertex 3.350282e+002 1.481261e+002 9.394581e+001
         vertex 3.326336e+002 1.481261e+002 8.697068e+001
      endloop
   endfacet
   facet normal 2.428920e-016 -1.000000e+000 -7.231144e-017
      outer loop
         vertex 3.326336e+002 1.481261e+002 8.697068e+001
         vertex 3.350282e+002 1.481261e+002 9.394581e+001
         vertex 3.344254e+002 1.481261e+002 9.404639e+001
      endloop
   endfacet
   facet normal 2.428920e-016 -1.000000e+000 -7.231144e-017
      outer loop
         vertex 3.326336e+002 1.481261e+002 8.697068e+001
         vertex 3.344254e+002 1.481261e+002 9.404639e+001
         vertex 3.338143e+002 1.481261e+002 9.404640e+001
      endloop
   endfacet
   facet normal 2.428920e-016 -1.000000e+000 -7.231144e-017
      outer loop
         vertex 3.332115e+002 1.481261e+002 8.677225e+001
         vertex 3.338143e+002 1.481261e+002 8.667167e+001
         vertex 3.356062e+002 1.481261e+002 9.374738e+001
      endloop
   endfacet
   facet normal 2.428920e-016 -1.000000e+000 -7.231144e-017
      outer loop
         vertex 3.356062e+002 1.481261e+002 9.374738e+001
         vertex 3.338143e+002 1.481261e+002 8.667167e+001
         vertex 3.344254e+002 1.481261e+002 8.667167e+001
      endloop
   endfacet
   facet normal 2.428920e-016 -1.000000e+000 -7.231144e-017
      outer loop
         vertex 3.356062e+002 1.481261e+002 9.374738e+001
         vertex 3.344254e+002 1.481261e+002 8.667167e+001
         vertex 3.350281e+002 1.481261e+002 8.677225e+001
      endloop
   endfacet
   facet normal 2.428920e-016 -1.000000e+000 -7.231144e-017
      outer loop
         vertex 3.356062e+002 1.481261e+002 9.374738e+001
         vertex 3.376194e+002 1.481261e+002 8.915762e+001
         vertex 3.377694e+002 1.481261e+002 8.975002e+001
      endloop
   endfacet
   facet normal 2.428920e-016 -1.000000e+000 -7.231144e-017
      outer loop
         vertex 3.338143e+002 1.481261e+002 9.404640e+001
         vertex 3.332116e+002 1.481261e+002 9.394582e+001
         vertex 3.326336e+002 1.481261e+002 8.697068e+001
      endloop
   endfacet
   facet normal 2.428920e-016 -1.000000e+000 -7.231144e-017
      outer loop
         vertex 3.326336e+002 1.481261e+002 8.697068e+001
         vertex 3.332116e+002 1.481261e+002 9.394582e+001
         vertex 3.326336e+002 1.481261e+002 9.374740e+001
      endloop
   endfacet
   facet normal 2.428920e-016 -1.000000e+000 -7.231144e-017
      outer loop
         vertex 3.326336e+002 1.481261e+002 8.697068e+001
         vertex 3.326336e+002 1.481261e+002 9.374740e+001
         vertex 3.320962e+002 1.481261e+002 9.345656e+001
      endloop
   endfacet
   facet normal 2.428920e-016 -1.000000e+000 -7.231144e-017
      outer loop
         vertex 3.308658e+002 1.481261e+002 9.212005e+001
         vertex 3.306204e+002 1.481261e+002 9.156044e+001
         vertex 3.306203e+002 1.481261e+002 8.915766e+001
      endloop
   endfacet
   facet normal 2.428920e-016 -1.000000e+000 -7.231144e-017
      outer loop
         vertex 3.306203e+002 1.481261e+002 8.915766e+001
         vertex 3.306204e+002 1.481261e+002 9.156044e+001
         vertex 3.304703e+002 1.481261e+002 9.096805e+001
      endloop
   endfacet
   facet normal 2.428920e-016 -1.000000e+000 -7.231144e-017
      outer loop
         vertex 3.306203e+002 1.481261e+002 8.915766e+001
         vertex 3.304703e+002 1.481261e+002 9.096805e+001
         vertex 3.304703e+002 1.481261e+002 8.975005e+001
      endloop
   endfacet
   facet normal 2.428920e-016 -1.000000e+000 -7.231144e-017
      outer loop
         vertex 3.304703e+002 1.481261e+002 8.975005e+001
         vertex 3.304703e+002 1.481261e+002 9.096805e+001
         vertex 3.304199e+002 1.481261e+002 9.035905e+001
      endloop
   endfacet
   facet normal 2.428920e-016 -1.000000e+000 -7.231144e-017
      outer loop
         vertex 3.306203e+002 1.481261e+002 8.915766e+001
         vertex 3.308658e+002 1.481261e+002 8.859805e+001
         vertex 3.308658e+002 1.481261e+002 9.212005e+001
      endloop
   endfacet
   facet normal 2.428920e-016 -1.000000e+000 -7.231144e-017
      outer loop
         vertex 3.308658e+002 1.481261e+002 9.212005e+001
         vertex 3.308658e+002 1.481261e+002 8.859805e+001
         vertex 3.312000e+002 1.481261e+002 8.808646e+001
      endloop
   endfacet
   facet normal 2.428920e-016 -1.000000e+000 -7.231144e-017
      outer loop
         vertex 3.308658e+002 1.481261e+002 9.212005e+001
         vertex 3.312000e+002 1.481261e+002 8.808646e+001
         vertex 3.316139e+002 1.481261e+002 8.763686e+001
      endloop
   endfacet
   facet normal 2.428920e-016 -1.000000e+000 -7.231144e-017
      outer loop
         vertex 3.350281e+002 1.481261e+002 8.677225e+001
         vertex 3.356061e+002 1.481261e+002 8.697066e+001
         vertex 3.356062e+002 1.481261e+002 9.374738e+001
      endloop
   endfacet
   facet normal 2.428920e-016 -1.000000e+000 -7.231144e-017
      outer loop
         vertex 3.356062e+002 1.481261e+002 9.374738e+001
         vertex 3.356061e+002 1.481261e+002 8.697066e+001
         vertex 3.361436e+002 1.481261e+002 8.726151e+001
      endloop
   endfacet
   facet normal 2.428920e-016 -1.000000e+000 -7.231144e-017
      outer loop
         vertex 3.356062e+002 1.481261e+002 9.374738e+001
         vertex 3.361436e+002 1.481261e+002 8.726151e+001
         vertex 3.366258e+002 1.481261e+002 8.763684e+001
      endloop
   endfacet
   facet normal 2.428920e-016 -1.000000e+000 -7.231144e-017
      outer loop
         vertex 3.366258e+002 1.481261e+002 8.763684e+001
         vertex 3.370397e+002 1.481261e+002 8.808643e+001
         vertex 3.356062e+002 1.481261e+002 9.374738e+001
      endloop
   endfacet
   facet normal 2.428920e-016 -1.000000e+000 -7.231144e-017
      outer loop
         vertex 3.356062e+002 1.481261e+002 9.374738e+001
         vertex 3.370397e+002 1.481261e+002 8.808643e+001
         vertex 3.373739e+002 1.481261e+002 8.859801e+001
      endloop
   endfacet
   facet normal 2.428920e-016 -1.000000e+000 -7.231144e-017
      outer loop
         vertex 3.356062e+002 1.481261e+002 9.374738e+001
         vertex 3.373739e+002 1.481261e+002 8.859801e+001
         vertex 3.376194e+002 1.481261e+002 8.915762e+001
      endloop
   endfacet
   facet normal 2.428920e-016 -1.000000e+000 -7.231144e-017
      outer loop
         vertex 3.316139e+002 1.481261e+002 9.308122e+001
         vertex 3.312001e+002 1.481261e+002 9.263163e+001
         vertex 3.326336e+002 1.481261e+002 8.697068e+001
      endloop
   endfacet
   facet normal 2.428920e-016 -1.000000e+000 -7.231144e-017
      outer loop
         vertex 3.326336e+002 1.481261e+002 8.697068e+001
         vertex 3.312001e+002 1.481261e+002 9.263163e+001
         vertex 3.308658e+002 1.481261e+002 9.212005e+001
      endloop
   endfacet
   facet normal 2.428920e-016 -1.000000e+000 -7.231144e-017
      outer loop
         vertex 3.326336e+002 1.481261e+002 8.697068e+001
         vertex 3.308658e+002 1.481261e+002 9.212005e+001
         vertex 3.320961e+002 1.481261e+002 8.726153e+001
      endloop
   endfacet
   facet normal 2.428920e-016 -1.000000e+000 -7.231144e-017
      outer loop
         vertex 3.320961e+002 1.481261e+002 8.726153e+001
         vertex 3.308658e+002 1.481261e+002 9.212005e+001
         vertex 3.316139e+002 1.481261e+002 8.763686e+001
      endloop
   endfacet
   facet normal 2.428920e-016 -1.000000e+000 -7.231144e-017
      outer loop
         vertex 3.377694e+002 1.481261e+002 8.975002e+001
         vertex 3.378199e+002 1.481261e+002 9.035902e+001
         vertex 3.356062e+002 1.481261e+002 9.374738e+001
      endloop
   endfacet
   facet normal 2.428920e-016 -1.000000e+000 -7.231144e-017
      outer loop
         vertex 3.356062e+002 1.481261e+002 9.374738e+001
         vertex 3.378199e+002 1.481261e+002 9.035902e+001
         vertex 3.377694e+002 1.481261e+002 9.096801e+001
      endloop
   endfacet
   facet normal 2.428920e-016 -1.000000e+000 -7.231144e-017
      outer loop
         vertex 3.356062e+002 1.481261e+002 9.374738e+001
         vertex 3.377694e+002 1.481261e+002 9.096801e+001
         vertex 3.361436e+002 1.481261e+002 9.345654e+001
      endloop
   endfacet
   facet normal 2.428920e-016 -1.000000e+000 -7.231144e-017
      outer loop
         vertex 3.373739e+002 1.481261e+002 9.212002e+001
         vertex 3.370397e+002 1.481261e+002 9.263161e+001
         vertex 3.366258e+002 1.481261e+002 9.308120e+001
      endloop
   endfacet
   facet normal 2.428920e-016 -1.000000e+000 -7.231144e-017
      outer loop
         vertex 3.361436e+002 1.481261e+002 9.345654e+001
         vertex 3.377694e+002 1.481261e+002 9.096801e+001
         vertex 3.366258e+002 1.481261e+002 9.308120e+001
      endloop
   endfacet
   facet normal 2.428920e-016 -1.000000e+000 -7.231144e-017
      outer loop
         vertex 3.366258e+002 1.481261e+002 9.308120e+001
         vertex 3.377694e+002 1.481261e+002 9.096801e+001
         vertex 3.376194e+002 1.481261e+002 9.156040e+001
      endloop
   endfacet
   facet normal 2.428920e-016 -1.000000e+000 -7.231144e-017
      outer loop
         vertex 3.366258e+002 1.481261e+002 9.308120e+001
         vertex 3.376194e+002 1.481261e+002 9.156040e+001
         vertex 3.373739e+002 1.481261e+002 9.212002e+001
      endloop
   endfacet
   facet normal 1.311758e-001 7.080752e-001 -6.938462e-001
      outer loop
         vertex 3.346884e+002 1.493260e+002 8.792799e+001
         vertex 3.350281e+002 1.481261e+002 8.677225e+001
         vertex 3.344254e+002 1.481261e+002 8.667167e+001
      endloop
   endfacet
   facet normal 1.302261e-002 7.080321e-001 -7.060602e-001
      outer loop
         vertex 3.338143e+002 1.481261e+002 8.667167e+001
         vertex 3.342576e+002 1.493260e+002 8.786758e+001
         vertex 3.344254e+002 1.481261e+002 8.667167e+001
      endloop
   endfacet
   facet normal 5.193605e-002 7.071364e-001 -7.051672e-001
      outer loop
         vertex 3.344254e+002 1.481261e+002 8.667167e+001
         vertex 3.342576e+002 1.493260e+002 8.786758e+001
         vertex 3.343263e+002 1.493260e+002 8.786758e+001
      endloop
   endfacet
   facet normal 9.271026e-002 7.079564e-001 -7.001447e-001
      outer loop
         vertex 3.344254e+002 1.481261e+002 8.667167e+001
         vertex 3.343263e+002 1.493260e+002 8.786758e+001
         vertex 3.346884e+002 1.493260e+002 8.792799e+001
      endloop
   endfacet
   facet normal -1.055160e-001 7.079955e-001 -6.982898e-001
      outer loop
         vertex 3.332115e+002 1.481261e+002 8.677225e+001
         vertex 3.338230e+002 1.493260e+002 8.788266e+001
         vertex 3.338143e+002 1.481261e+002 8.667167e+001
      endloop
   endfacet
   facet normal -6.699133e-002 7.071595e-001 -7.038733e-001
      outer loop
         vertex 3.338143e+002 1.481261e+002 8.667167e+001
         vertex 3.338230e+002 1.493260e+002 8.788266e+001
         vertex 3.339134e+002 1.493260e+002 8.786758e+001
      endloop
   endfacet
   facet normal -2.595009e-002 7.078538e-001 -7.058821e-001
      outer loop
         vertex 3.338143e+002 1.481261e+002 8.667167e+001
         vertex 3.339134e+002 1.493260e+002 8.786758e+001
         vertex 3.342576e+002 1.493260e+002 8.786758e+001
      endloop
   endfacet
   facet normal -2.210819e-001 7.079656e-001 -6.707515e-001
      outer loop
         vertex 3.326336e+002 1.481261e+002 8.697068e+001
         vertex 3.333977e+002 1.493260e+002 8.797275e+001
         vertex 3.332115e+002 1.481261e+002 8.677225e+001
      endloop
   endfacet
   facet normal -1.840161e-001 7.071893e-001 -6.826576e-001
      outer loop
         vertex 3.332115e+002 1.481261e+002 8.677225e+001
         vertex 3.333977e+002 1.493260e+002 8.797275e+001
         vertex 3.335061e+002 1.493260e+002 8.793554e+001
      endloop
   endfacet
   facet normal -1.439133e-001 7.077576e-001 -6.916416e-001
      outer loop
         vertex 3.332115e+002 1.481261e+002 8.677225e+001
         vertex 3.335061e+002 1.493260e+002 8.793554e+001
         vertex 3.338230e+002 1.493260e+002 8.788266e+001
      endloop
   endfacet
   facet normal -3.304001e-001 7.079423e-001 -6.242223e-001
      outer loop
         vertex 3.320961e+002 1.481261e+002 8.726153e+001
         vertex 3.329946e+002 1.493260e+002 8.813508e+001
         vertex 3.326336e+002 1.481261e+002 8.697068e+001
      endloop
   endfacet
   facet normal -2.958237e-001 7.072257e-001 -6.421216e-001
      outer loop
         vertex 3.326336e+002 1.481261e+002 8.697068e+001
         vertex 3.329946e+002 1.493260e+002 8.813508e+001
         vertex 3.331156e+002 1.493260e+002 8.806960e+001
      endloop
   endfacet
   facet normal -2.578371e-001 7.076679e-001 -6.578192e-001
      outer loop
         vertex 3.326336e+002 1.481261e+002 8.697068e+001
         vertex 3.331156e+002 1.493260e+002 8.806960e+001
         vertex 3.333977e+002 1.493260e+002 8.797275e+001
      endloop
   endfacet
   facet normal -4.303728e-001 7.079256e-001 -5.600184e-001
      outer loop
         vertex 3.316139e+002 1.481261e+002 8.763686e+001
         vertex 3.326258e+002 1.493260e+002 8.836472e+001
         vertex 3.320961e+002 1.481261e+002 8.726153e+001
      endloop
   endfacet
   facet normal -3.992468e-001 7.072689e-001 -5.834147e-001
      outer loop
         vertex 3.320961e+002 1.481261e+002 8.726153e+001
         vertex 3.326258e+002 1.493260e+002 8.836472e+001
         vertex 3.327525e+002 1.493260e+002 8.826612e+001
      endloop
   endfacet
   facet normal -3.644928e-001 7.075848e-001 -6.053666e-001
      outer loop
         vertex 3.320961e+002 1.481261e+002 8.726153e+001
         vertex 3.327525e+002 1.493260e+002 8.826612e+001
         vertex 3.329946e+002 1.493260e+002 8.813508e+001
      endloop
   endfacet
   facet normal -5.181664e-001 7.079156e-001 -4.799574e-001
      outer loop
         vertex 3.312000e+002 1.481261e+002 8.808646e+001
         vertex 3.323024e+002 1.493260e+002 8.865472e+001
         vertex 3.316139e+002 1.481261e+002 8.763686e+001
      endloop
   endfacet
   facet normal -4.913564e-001 7.073187e-001 -5.082018e-001
      outer loop
         vertex 3.316139e+002 1.481261e+002 8.763686e+001
         vertex 3.323024e+002 1.493260e+002 8.865472e+001
         vertex 3.324266e+002 1.493260e+002 8.851973e+001
      endloop
   endfacet
   facet normal -4.608563e-001 7.075083e-001 -5.357643e-001
      outer loop
         vertex 3.316139e+002 1.481261e+002 8.763686e+001
         vertex 3.324266e+002 1.493260e+002 8.851973e+001
         vertex 3.326258e+002 1.493260e+002 8.836472e+001
      endloop
   endfacet
   facet normal -5.912929e-001 7.079123e-001 -3.863069e-001
      outer loop
         vertex 3.308658e+002 1.481261e+002 8.859805e+001
         vertex 3.320341e+002 1.493260e+002 8.899635e+001
         vertex 3.312000e+002 1.481261e+002 8.808646e+001
      endloop
   endfacet
   facet normal -5.695446e-001 7.073753e-001 -4.186157e-001
      outer loop
         vertex 3.312000e+002 1.481261e+002 8.808646e+001
         vertex 3.320341e+002 1.493260e+002 8.899635e+001
         vertex 3.321470e+002 1.493260e+002 8.882351e+001
      endloop
   endfacet
   facet normal -5.441948e-001 7.074385e-001 -4.509799e-001
      outer loop
         vertex 3.312000e+002 1.481261e+002 8.808646e+001
         vertex 3.321470e+002 1.493260e+002 8.882351e+001
         vertex 3.323024e+002 1.493260e+002 8.865472e+001
      endloop
   endfacet
   facet normal -6.476799e-001 7.079156e-001 -2.817201e-001
      outer loop
         vertex 3.306203e+002 1.481261e+002 8.915766e+001
         vertex 3.318290e+002 1.493260e+002 8.937926e+001
         vertex 3.308658e+002 1.481261e+002 8.859805e+001
      endloop
   endfacet
   facet normal -6.315989e-001 7.074385e-001 -3.171965e-001
      outer loop
         vertex 3.308658e+002 1.481261e+002 8.859805e+001
         vertex 3.318290e+002 1.493260e+002 8.937926e+001
         vertex 3.319212e+002 1.493260e+002 8.916917e+001
      endloop
   endfacet
   facet normal -6.121440e-001 7.073753e-001 -3.534119e-001
      outer loop
         vertex 3.308658e+002 1.481261e+002 8.859805e+001
         vertex 3.319212e+002 1.493260e+002 8.916917e+001
         vertex 3.320341e+002 1.493260e+002 8.899635e+001
      endloop
   endfacet
   facet normal -6.857303e-001 7.079256e-001 -1.691605e-001
      outer loop
         vertex 3.304703e+002 1.481261e+002 8.975005e+001
         vertex 3.316934e+002 1.493260e+002 8.979195e+001
         vertex 3.306203e+002 1.481261e+002 8.915766e+001
      endloop
   endfacet
   facet normal -6.757645e-001 7.075083e-001 -2.068194e-001
      outer loop
         vertex 3.306203e+002 1.481261e+002 8.915766e+001
         vertex 3.316934e+002 1.493260e+002 8.979195e+001
         vertex 3.317553e+002 1.493260e+002 8.954729e+001
      endloop
   endfacet
   facet normal -6.627757e-001 7.073187e-001 -2.458223e-001
      outer loop
         vertex 3.306203e+002 1.481261e+002 8.915766e+001
         vertex 3.317553e+002 1.493260e+002 8.954729e+001
         vertex 3.318290e+002 1.493260e+002 8.937926e+001
      endloop
   endfacet
   facet normal -7.043669e-001 7.079423e-001 -5.181766e-002
      outer loop
         vertex 3.304199e+002 1.481261e+002 9.035905e+001
         vertex 3.316312e+002 1.493260e+002 9.022195e+001
         vertex 3.304703e+002 1.481261e+002 8.975005e+001
      endloop
   endfacet
   facet normal -7.007945e-001 7.075849e-001 -9.061304e-002
      outer loop
         vertex 3.304703e+002 1.481261e+002 8.975005e+001
         vertex 3.316312e+002 1.493260e+002 9.022195e+001
         vertex 3.316540e+002 1.493260e+002 8.994756e+001
      endloop
   endfacet
   facet normal -6.946525e-001 7.072689e-001 -1.312578e-001
      outer loop
         vertex 3.304703e+002 1.481261e+002 8.975005e+001
         vertex 3.316540e+002 1.493260e+002 8.994756e+001
         vertex 3.316934e+002 1.493260e+002 8.979195e+001
      endloop
   endfacet
   facet normal -7.030632e-001 7.079656e-001 6.698363e-002
      outer loop
         vertex 3.304703e+002 1.481261e+002 9.096805e+001
         vertex 3.316445e+002 1.493260e+002 9.065631e+001
         vertex 3.304199e+002 1.481261e+002 9.035905e+001
      endloop
   endfacet
   facet normal -7.059851e-001 7.076679e-001 2.812939e-002
      outer loop
         vertex 3.304199e+002 1.481261e+002 9.035905e+001
         vertex 3.316445e+002 1.493260e+002 9.065631e+001
         vertex 3.316199e+002 1.493260e+002 9.035905e+001
      endloop
   endfacet
   facet normal -7.068689e-001 7.072257e-001 -1.296331e-002
      outer loop
         vertex 3.304199e+002 1.481261e+002 9.035905e+001
         vertex 3.316199e+002 1.493260e+002 9.035905e+001
         vertex 3.316312e+002 1.493260e+002 9.022195e+001
      endloop
   endfacet
   facet normal -6.818587e-001 7.079955e-001 1.838776e-001
      outer loop
         vertex 3.306204e+002 1.481261e+002 9.156044e+001
         vertex 3.317328e+002 1.493260e+002 9.108193e+001
         vertex 3.304703e+002 1.481261e+002 9.096805e+001
      endloop
   endfacet
   facet normal -6.911949e-001 7.077576e-001 1.460440e-001
      outer loop
         vertex 3.304703e+002 1.481261e+002 9.096805e+001
         vertex 3.317328e+002 1.493260e+002 9.108193e+001
         vertex 3.316540e+002 1.493260e+002 9.077053e+001
      endloop
   endfacet
   facet normal -6.990771e-001 7.071893e-001 1.057100e-001
      outer loop
         vertex 3.304703e+002 1.481261e+002 9.096805e+001
         vertex 3.316540e+002 1.493260e+002 9.077053e+001
         vertex 3.316445e+002 1.493260e+002 9.065631e+001
      endloop
   endfacet
   facet normal -6.413571e-001 7.080321e-001 2.955530e-001
      outer loop
         vertex 3.308658e+002 1.481261e+002 9.212005e+001
         vertex 3.318936e+002 1.493260e+002 9.148597e+001
         vertex 3.306204e+002 1.481261e+002 9.156044e+001
      endloop
   endfacet
   facet normal -6.568496e-001 7.078537e-001 2.597915e-001
      outer loop
         vertex 3.306204e+002 1.481261e+002 9.156044e+001
         vertex 3.318936e+002 1.493260e+002 9.148597e+001
         vertex 3.317553e+002 1.493260e+002 9.117079e+001
      endloop
   endfacet
   facet normal -6.714964e-001 7.071595e-001 2.214003e-001
      outer loop
         vertex 3.306204e+002 1.481261e+002 9.156044e+001
         vertex 3.317553e+002 1.493260e+002 9.117079e+001
         vertex 3.317328e+002 1.493260e+002 9.108193e+001
      endloop
   endfacet
   facet normal -5.827093e-001 7.080752e-001 3.988477e-001
      outer loop
         vertex 3.312001e+002 1.481261e+002 9.263163e+001
         vertex 3.321220e+002 1.493260e+002 9.185622e+001
         vertex 3.308658e+002 1.481261e+002 9.212005e+001
      endloop
   endfacet
   facet normal -6.039290e-001 7.079564e-001 3.661523e-001
      outer loop
         vertex 3.308658e+002 1.481261e+002 9.212005e+001
         vertex 3.321220e+002 1.493260e+002 9.185622e+001
         vertex 3.319212e+002 1.493260e+002 9.154891e+001
      endloop
   endfacet
   facet normal -6.249077e-001 7.071364e-001 3.308301e-001
      outer loop
         vertex 3.308658e+002 1.481261e+002 9.212005e+001
         vertex 3.319212e+002 1.493260e+002 9.154891e+001
         vertex 3.318936e+002 1.493260e+002 9.148597e+001
      endloop
   endfacet
   facet normal -5.075803e-001 7.081248e-001 4.908377e-001
      outer loop
         vertex 3.316139e+002 1.481261e+002 9.308122e+001
         vertex 3.324112e+002 1.493260e+002 9.218150e+001
         vertex 3.312001e+002 1.481261e+002 9.263163e+001
      endloop
   endfacet
   facet normal -5.339390e-001 7.080654e-001 4.621175e-001
      outer loop
         vertex 3.312001e+002 1.481261e+002 9.263163e+001
         vertex 3.324112e+002 1.493260e+002 9.218150e+001
         vertex 3.321470e+002 1.493260e+002 9.189458e+001
      endloop
   endfacet
   facet normal -5.606309e-001 7.071199e-001 4.308996e-001
      outer loop
         vertex 3.312001e+002 1.481261e+002 9.263163e+001
         vertex 3.321470e+002 1.493260e+002 9.189458e+001
         vertex 3.321220e+002 1.493260e+002 9.185622e+001
      endloop
   endfacet
   facet normal -2.455971e-001 7.081248e-001 6.619981e-001
      outer loop
         vertex 3.332116e+002 1.481261e+002 9.394582e+001
         vertex 3.331373e+002 1.493260e+002 9.265591e+001
         vertex 3.326336e+002 1.481261e+002 9.374740e+001
      endloop
   endfacet
   facet normal -2.820644e-001 7.071100e-001 6.484096e-001
      outer loop
         vertex 3.326336e+002 1.481261e+002 9.374740e+001
         vertex 3.331373e+002 1.493260e+002 9.265591e+001
         vertex 3.331156e+002 1.493260e+002 9.264847e+001
      endloop
   endfacet
   facet normal -3.187583e-001 7.081808e-001 6.299787e-001
      outer loop
         vertex 3.326336e+002 1.481261e+002 9.374740e+001
         vertex 3.331156e+002 1.493260e+002 9.264847e+001
         vertex 3.320962e+002 1.481261e+002 9.345656e+001
      endloop
   endfacet
   facet normal -3.530468e-001 7.081808e-001 6.114228e-001
      outer loop
         vertex 3.320962e+002 1.481261e+002 9.345656e+001
         vertex 3.331156e+002 1.493260e+002 9.264847e+001
         vertex 3.327525e+002 1.493260e+002 9.245195e+001
      endloop
   endfacet
   facet normal -4.181020e-001 7.081808e-001 5.689206e-001
      outer loop
         vertex 3.320962e+002 1.481261e+002 9.345656e+001
         vertex 3.327525e+002 1.493260e+002 9.245195e+001
         vertex 3.316139e+002 1.481261e+002 9.308122e+001
      endloop
   endfacet
   facet normal -4.488686e-001 7.081808e-001 5.449742e-001
      outer loop
         vertex 3.316139e+002 1.481261e+002 9.308122e+001
         vertex 3.327525e+002 1.493260e+002 9.245195e+001
         vertex 3.324267e+002 1.493260e+002 9.219835e+001
      endloop
   endfacet
   facet normal -4.804873e-001 7.071100e-001 5.187749e-001
      outer loop
         vertex 3.316139e+002 1.481261e+002 9.308122e+001
         vertex 3.324267e+002 1.493260e+002 9.219835e+001
         vertex 3.324112e+002 1.493260e+002 9.218150e+001
      endloop
   endfacet
   facet normal -1.311758e-001 7.080752e-001 6.938462e-001
      outer loop
         vertex 3.338143e+002 1.481261e+002 9.404640e+001
         vertex 3.335514e+002 1.493260e+002 9.279008e+001
         vertex 3.332116e+002 1.481261e+002 9.394582e+001
      endloop
   endfacet
   facet normal -1.693969e-001 7.071199e-001 6.865028e-001
      outer loop
         vertex 3.332116e+002 1.481261e+002 9.394582e+001
         vertex 3.335514e+002 1.493260e+002 9.279008e+001
         vertex 3.335062e+002 1.493260e+002 9.278253e+001
      endloop
   endfacet
   facet normal -2.087075e-001 7.080654e-001 6.745996e-001
      outer loop
         vertex 3.332116e+002 1.481261e+002 9.394582e+001
         vertex 3.335062e+002 1.493260e+002 9.278253e+001
         vertex 3.331373e+002 1.493260e+002 9.265591e+001
      endloop
   endfacet
   facet normal -1.302261e-002 7.080321e-001 7.060602e-001
      outer loop
         vertex 3.344254e+002 1.481261e+002 9.404639e+001
         vertex 3.339821e+002 1.493260e+002 9.285049e+001
         vertex 3.338143e+002 1.481261e+002 9.404640e+001
      endloop
   endfacet
   facet normal -5.193605e-002 7.071364e-001 7.051672e-001
      outer loop
         vertex 3.338143e+002 1.481261e+002 9.404640e+001
         vertex 3.339821e+002 1.493260e+002 9.285049e+001
         vertex 3.339134e+002 1.493260e+002 9.285049e+001
      endloop
   endfacet
   facet normal -9.271026e-002 7.079564e-001 7.001447e-001
      outer loop
         vertex 3.338143e+002 1.481261e+002 9.404640e+001
         vertex 3.339134e+002 1.493260e+002 9.285049e+001
         vertex 3.335514e+002 1.493260e+002 9.279008e+001
      endloop
   endfacet
   facet normal 1.055160e-001 7.079955e-001 6.982898e-001
      outer loop
         vertex 3.350282e+002 1.481261e+002 9.394581e+001
         vertex 3.344167e+002 1.493260e+002 9.283540e+001
         vertex 3.344254e+002 1.481261e+002 9.404639e+001
      endloop
   endfacet
   facet normal 6.699133e-002 7.071595e-001 7.038733e-001
      outer loop
         vertex 3.344254e+002 1.481261e+002 9.404639e+001
         vertex 3.344167e+002 1.493260e+002 9.283540e+001
         vertex 3.343263e+002 1.493260e+002 9.285049e+001
      endloop
   endfacet
   facet normal 2.595009e-002 7.078538e-001 7.058821e-001
      outer loop
         vertex 3.344254e+002 1.481261e+002 9.404639e+001
         vertex 3.343263e+002 1.493260e+002 9.285049e+001
         vertex 3.339821e+002 1.493260e+002 9.285049e+001
      endloop
   endfacet
   facet normal 2.210819e-001 7.079656e-001 6.707515e-001
      outer loop
         vertex 3.356062e+002 1.481261e+002 9.374738e+001
         vertex 3.348420e+002 1.493260e+002 9.274532e+001
         vertex 3.350282e+002 1.481261e+002 9.394581e+001
      endloop
   endfacet
   facet normal 1.840161e-001 7.071893e-001 6.826576e-001
      outer loop
         vertex 3.350282e+002 1.481261e+002 9.394581e+001
         vertex 3.348420e+002 1.493260e+002 9.274532e+001
         vertex 3.347336e+002 1.493260e+002 9.278252e+001
      endloop
   endfacet
   facet normal 1.439133e-001 7.077576e-001 6.916416e-001
      outer loop
         vertex 3.350282e+002 1.481261e+002 9.394581e+001
         vertex 3.347336e+002 1.493260e+002 9.278252e+001
         vertex 3.344167e+002 1.493260e+002 9.283540e+001
      endloop
   endfacet
   facet normal 3.304001e-001 7.079423e-001 6.242223e-001
      outer loop
         vertex 3.361436e+002 1.481261e+002 9.345654e+001
         vertex 3.352451e+002 1.493260e+002 9.258298e+001
         vertex 3.356062e+002 1.481261e+002 9.374738e+001
      endloop
   endfacet
   facet normal 2.958237e-001 7.072257e-001 6.421216e-001
      outer loop
         vertex 3.356062e+002 1.481261e+002 9.374738e+001
         vertex 3.352451e+002 1.493260e+002 9.258298e+001
         vertex 3.351241e+002 1.493260e+002 9.264846e+001
      endloop
   endfacet
   facet normal 2.578371e-001 7.076679e-001 6.578192e-001
      outer loop
         vertex 3.356062e+002 1.481261e+002 9.374738e+001
         vertex 3.351241e+002 1.493260e+002 9.264846e+001
         vertex 3.348420e+002 1.493260e+002 9.274532e+001
      endloop
   endfacet
   facet normal 4.303728e-001 7.079256e-001 5.600184e-001
      outer loop
         vertex 3.366258e+002 1.481261e+002 9.308120e+001
         vertex 3.356139e+002 1.493260e+002 9.235335e+001
         vertex 3.361436e+002 1.481261e+002 9.345654e+001
      endloop
   endfacet
   facet normal 3.992468e-001 7.072689e-001 5.834147e-001
      outer loop
         vertex 3.361436e+002 1.481261e+002 9.345654e+001
         vertex 3.356139e+002 1.493260e+002 9.235335e+001
         vertex 3.354872e+002 1.493260e+002 9.245194e+001
      endloop
   endfacet
   facet normal 3.644928e-001 7.075848e-001 6.053666e-001
      outer loop
         vertex 3.361436e+002 1.481261e+002 9.345654e+001
         vertex 3.354872e+002 1.493260e+002 9.245194e+001
         vertex 3.352451e+002 1.493260e+002 9.258298e+001
      endloop
   endfacet
   facet normal 5.181664e-001 7.079156e-001 4.799574e-001
      outer loop
         vertex 3.370397e+002 1.481261e+002 9.263161e+001
         vertex 3.359373e+002 1.493260e+002 9.206334e+001
         vertex 3.366258e+002 1.481261e+002 9.308120e+001
      endloop
   endfacet
   facet normal 4.913564e-001 7.073187e-001 5.082018e-001
      outer loop
         vertex 3.366258e+002 1.481261e+002 9.308120e+001
         vertex 3.359373e+002 1.493260e+002 9.206334e+001
         vertex 3.358131e+002 1.493260e+002 9.219833e+001
      endloop
   endfacet
   facet normal 4.608563e-001 7.075083e-001 5.357643e-001
      outer loop
         vertex 3.366258e+002 1.481261e+002 9.308120e+001
         vertex 3.358131e+002 1.493260e+002 9.219833e+001
         vertex 3.356139e+002 1.493260e+002 9.235335e+001
      endloop
   endfacet
   facet normal 5.912929e-001 7.079123e-001 3.863069e-001
      outer loop
         vertex 3.373739e+002 1.481261e+002 9.212002e+001
         vertex 3.362056e+002 1.493260e+002 9.172172e+001
         vertex 3.370397e+002 1.481261e+002 9.263161e+001
      endloop
   endfacet
   facet normal 5.695446e-001 7.073753e-001 4.186157e-001
      outer loop
         vertex 3.370397e+002 1.481261e+002 9.263161e+001
         vertex 3.362056e+002 1.493260e+002 9.172172e+001
         vertex 3.360927e+002 1.493260e+002 9.189455e+001
      endloop
   endfacet
   facet normal 5.441948e-001 7.074385e-001 4.509799e-001
      outer loop
         vertex 3.370397e+002 1.481261e+002 9.263161e+001
         vertex 3.360927e+002 1.493260e+002 9.189455e+001
         vertex 3.359373e+002 1.493260e+002 9.206334e+001
      endloop
   endfacet
   facet normal 6.476799e-001 7.079156e-001 2.817201e-001
      outer loop
         vertex 3.376194e+002 1.481261e+002 9.156040e+001
         vertex 3.364107e+002 1.493260e+002 9.133880e+001
         vertex 3.373739e+002 1.481261e+002 9.212002e+001
      endloop
   endfacet
   facet normal 6.315989e-001 7.074385e-001 3.171965e-001
      outer loop
         vertex 3.373739e+002 1.481261e+002 9.212002e+001
         vertex 3.364107e+002 1.493260e+002 9.133880e+001
         vertex 3.363185e+002 1.493260e+002 9.154889e+001
      endloop
   endfacet
   facet normal 6.121440e-001 7.073753e-001 3.534119e-001
      outer loop
         vertex 3.373739e+002 1.481261e+002 9.212002e+001
         vertex 3.363185e+002 1.493260e+002 9.154889e+001
         vertex 3.362056e+002 1.493260e+002 9.172172e+001
      endloop
   endfacet
   facet normal 6.857303e-001 7.079256e-001 1.691605e-001
      outer loop
         vertex 3.377694e+002 1.481261e+002 9.096801e+001
         vertex 3.365464e+002 1.493260e+002 9.092612e+001
         vertex 3.376194e+002 1.481261e+002 9.156040e+001
      endloop
   endfacet
   facet normal 6.757645e-001 7.075083e-001 2.068194e-001
      outer loop
         vertex 3.376194e+002 1.481261e+002 9.156040e+001
         vertex 3.365464e+002 1.493260e+002 9.092612e+001
         vertex 3.364844e+002 1.493260e+002 9.117078e+001
      endloop
   endfacet
   facet normal 6.627757e-001 7.073187e-001 2.458223e-001
      outer loop
         vertex 3.376194e+002 1.481261e+002 9.156040e+001
         vertex 3.364844e+002 1.493260e+002 9.117078e+001
         vertex 3.364107e+002 1.493260e+002 9.133880e+001
      endloop
   endfacet
   facet normal 7.043669e-001 7.079423e-001 5.181766e-002
      outer loop
         vertex 3.378199e+002 1.481261e+002 9.035902e+001
         vertex 3.366085e+002 1.493260e+002 9.049612e+001
         vertex 3.377694e+002 1.481261e+002 9.096801e+001
      endloop
   endfacet
   facet normal 7.007945e-001 7.075849e-001 9.061304e-002
      outer loop
         vertex 3.377694e+002 1.481261e+002 9.096801e+001
         vertex 3.366085e+002 1.493260e+002 9.049612e+001
         vertex 3.365858e+002 1.493260e+002 9.077051e+001
      endloop
   endfacet
   facet normal 6.946525e-001 7.072689e-001 1.312578e-001
      outer loop
         vertex 3.377694e+002 1.481261e+002 9.096801e+001
         vertex 3.365858e+002 1.493260e+002 9.077051e+001
         vertex 3.365464e+002 1.493260e+002 9.092612e+001
      endloop
   endfacet
   facet normal 7.030632e-001 7.079656e-001 -6.698363e-002
      outer loop
         vertex 3.377694e+002 1.481261e+002 8.975002e+001
         vertex 3.365952e+002 1.493260e+002 9.006175e+001
         vertex 3.378199e+002 1.481261e+002 9.035902e+001
      endloop
   endfacet
   facet normal 7.059851e-001 7.076679e-001 -2.812939e-002
      outer loop
         vertex 3.378199e+002 1.481261e+002 9.035902e+001
         vertex 3.365952e+002 1.493260e+002 9.006175e+001
         vertex 3.366198e+002 1.493260e+002 9.035902e+001
      endloop
   endfacet
   facet normal 7.068689e-001 7.072257e-001 1.296331e-002
      outer loop
         vertex 3.378199e+002 1.481261e+002 9.035902e+001
         vertex 3.366198e+002 1.493260e+002 9.035902e+001
         vertex 3.366085e+002 1.493260e+002 9.049612e+001
      endloop
   endfacet
   facet normal 6.818587e-001 7.079955e-001 -1.838776e-001
      outer loop
         vertex 3.376194e+002 1.481261e+002 8.915762e+001
         vertex 3.365069e+002 1.493260e+002 8.963613e+001
         vertex 3.377694e+002 1.481261e+002 8.975002e+001
      endloop
   endfacet
   facet normal 6.911949e-001 7.077576e-001 -1.460440e-001
      outer loop
         vertex 3.377694e+002 1.481261e+002 8.975002e+001
         vertex 3.365069e+002 1.493260e+002 8.963613e+001
         vertex 3.365858e+002 1.493260e+002 8.994754e+001
      endloop
   endfacet
   facet normal 6.990771e-001 7.071893e-001 -1.057100e-001
      outer loop
         vertex 3.377694e+002 1.481261e+002 8.975002e+001
         vertex 3.365858e+002 1.493260e+002 8.994754e+001
         vertex 3.365952e+002 1.493260e+002 9.006175e+001
      endloop
   endfacet
   facet normal 6.413571e-001 7.080321e-001 -2.955530e-001
      outer loop
         vertex 3.373739e+002 1.481261e+002 8.859801e+001
         vertex 3.363462e+002 1.493260e+002 8.923209e+001
         vertex 3.376194e+002 1.481261e+002 8.915762e+001
      endloop
   endfacet
   facet normal 6.568496e-001 7.078537e-001 -2.597915e-001
      outer loop
         vertex 3.376194e+002 1.481261e+002 8.915762e+001
         vertex 3.363462e+002 1.493260e+002 8.923209e+001
         vertex 3.364844e+002 1.493260e+002 8.954727e+001
      endloop
   endfacet
   facet normal 6.714964e-001 7.071595e-001 -2.214003e-001
      outer loop
         vertex 3.376194e+002 1.481261e+002 8.915762e+001
         vertex 3.364844e+002 1.493260e+002 8.954727e+001
         vertex 3.365069e+002 1.493260e+002 8.963613e+001
      endloop
   endfacet
   facet normal 5.827093e-001 7.080752e-001 -3.988477e-001
      outer loop
         vertex 3.370397e+002 1.481261e+002 8.808643e+001
         vertex 3.361177e+002 1.493260e+002 8.886184e+001
         vertex 3.373739e+002 1.481261e+002 8.859801e+001
      endloop
   endfacet
   facet normal 6.039290e-001 7.079564e-001 -3.661523e-001
      outer loop
         vertex 3.373739e+002 1.481261e+002 8.859801e+001
         vertex 3.361177e+002 1.493260e+002 8.886184e+001
         vertex 3.363185e+002 1.493260e+002 8.916915e+001
      endloop
   endfacet
   facet normal 6.249077e-001 7.071364e-001 -3.308301e-001
      outer loop
         vertex 3.373739e+002 1.481261e+002 8.859801e+001
         vertex 3.363185e+002 1.493260e+002 8.916915e+001
         vertex 3.363462e+002 1.493260e+002 8.923209e+001
      endloop
   endfacet
   facet normal 5.075803e-001 7.081248e-001 -4.908377e-001
      outer loop
         vertex 3.366258e+002 1.481261e+002 8.763684e+001
         vertex 3.358286e+002 1.493260e+002 8.853656e+001
         vertex 3.370397e+002 1.481261e+002 8.808643e+001
      endloop
   endfacet
   facet normal 5.339390e-001 7.080654e-001 -4.621175e-001
      outer loop
         vertex 3.370397e+002 1.481261e+002 8.808643e+001
         vertex 3.358286e+002 1.493260e+002 8.853656e+001
         vertex 3.360927e+002 1.493260e+002 8.882349e+001
      endloop
   endfacet
   facet normal 5.606309e-001 7.071199e-001 -4.308996e-001
      outer loop
         vertex 3.370397e+002 1.481261e+002 8.808643e+001
         vertex 3.360927e+002 1.493260e+002 8.882349e+001
         vertex 3.361177e+002 1.493260e+002 8.886184e+001
      endloop
   endfacet
   facet normal 1.693969e-001 7.071199e-001 -6.865028e-001
      outer loop
         vertex 3.346884e+002 1.493260e+002 8.792799e+001
         vertex 3.347336e+002 1.493260e+002 8.793553e+001
         vertex 3.350281e+002 1.481261e+002 8.677225e+001
      endloop
   endfacet
   facet normal 2.087075e-001 7.080654e-001 -6.745996e-001
      outer loop
         vertex 3.350281e+002 1.481261e+002 8.677225e+001
         vertex 3.347336e+002 1.493260e+002 8.793553e+001
         vertex 3.351024e+002 1.493260e+002 8.806216e+001
      endloop
   endfacet
   facet normal 2.455971e-001 7.081248e-001 -6.619981e-001
      outer loop
         vertex 3.350281e+002 1.481261e+002 8.677225e+001
         vertex 3.351024e+002 1.493260e+002 8.806216e+001
         vertex 3.356061e+002 1.481261e+002 8.697066e+001
      endloop
   endfacet
   facet normal 2.820644e-001 7.071100e-001 -6.484096e-001
      outer loop
         vertex 3.356061e+002 1.481261e+002 8.697066e+001
         vertex 3.351024e+002 1.493260e+002 8.806216e+001
         vertex 3.351241e+002 1.493260e+002 8.806960e+001
      endloop
   endfacet
   facet normal 3.187583e-001 7.081808e-001 -6.299787e-001
      outer loop
         vertex 3.356061e+002 1.481261e+002 8.697066e+001
         vertex 3.351241e+002 1.493260e+002 8.806960e+001
         vertex 3.361436e+002 1.481261e+002 8.726151e+001
      endloop
   endfacet
   facet normal 3.530468e-001 7.081808e-001 -6.114228e-001
      outer loop
         vertex 3.361436e+002 1.481261e+002 8.726151e+001
         vertex 3.351241e+002 1.493260e+002 8.806960e+001
         vertex 3.354872e+002 1.493260e+002 8.826611e+001
      endloop
   endfacet
   facet normal 4.181020e-001 7.081808e-001 -5.689206e-001
      outer loop
         vertex 3.361436e+002 1.481261e+002 8.726151e+001
         vertex 3.354872e+002 1.493260e+002 8.826611e+001
         vertex 3.366258e+002 1.481261e+002 8.763684e+001
      endloop
   endfacet
   facet normal 4.488686e-001 7.081808e-001 -5.449742e-001
      outer loop
         vertex 3.366258e+002 1.481261e+002 8.763684e+001
         vertex 3.354872e+002 1.493260e+002 8.826611e+001
         vertex 3.358130e+002 1.493260e+002 8.851971e+001
      endloop
   endfacet
   facet normal 4.804873e-001 7.071100e-001 -5.187749e-001
      outer loop
         vertex 3.366258e+002 1.481261e+002 8.763684e+001
         vertex 3.358130e+002 1.493260e+002 8.851971e+001
         vertex 3.358286e+002 1.493260e+002 8.853656e+001
      endloop
   endfacet
endsolid