solid FPM - 100-UltraSoundSourceNew-1 103-RodYokes-4
   facet normal 9.983120e-001 -5.807914e-002 -5.541745e-017
      outer loop
         vertex 3.348846e+002 8.001750e+002 5.940425e+002
         vertex 3.349570e+002 8.010020e+002 1.114425e+002
         vertex 3.349570e+002 8.010020e+002 5.940425e+002
      endloop
   endfacet
   facet normal 9.983120e-001 5.807914e-002 -5.541745e-017
      outer loop
         vertex 3.349570e+002 8.010020e+002 5.940425e+002
         vertex 3.349570e+002 8.010020e+002 1.114425e+002
         vertex 3.348846e+002 8.018290e+002 1.114425e+002
      endloop
   endfacet
   facet normal 9.932307e-001 1.161583e-001 -5.513538e-017
      outer loop
         vertex 3.349570e+002 8.010020e+002 5.940425e+002
         vertex 3.348846e+002 8.018290e+002 1.114425e+002
         vertex 3.348846e+002 8.018290e+002 5.940425e+002
      endloop
   endfacet
   facet normal 9.730600e-001 2.305519e-001 -5.401568e-017
      outer loop
         vertex 3.348846e+002 8.018290e+002 5.940425e+002
         vertex 3.348846e+002 8.018290e+002 1.114425e+002
         vertex 3.346698e+002 8.026309e+002 1.114425e+002
      endloop
   endfacet
   facet normal 9.579706e-001 2.868663e-001 -5.317805e-017
      outer loop
         vertex 3.348846e+002 8.018290e+002 5.940425e+002
         vertex 3.346698e+002 8.026309e+002 1.114425e+002
         vertex 3.346698e+002 8.026309e+002 5.940425e+002
      endloop
   endfacet
   facet normal 9.182422e-001 3.960194e-001 -5.097268e-017
      outer loop
         vertex 3.346698e+002 8.026309e+002 5.940425e+002
         vertex 3.346698e+002 8.026309e+002 1.114425e+002
         vertex 3.343189e+002 8.033832e+002 1.114425e+002
      endloop
   endfacet
   facet normal 8.936031e-001 4.488580e-001 -4.960494e-017
      outer loop
         vertex 3.346698e+002 8.026309e+002 5.940425e+002
         vertex 3.343189e+002 8.033832e+002 1.114425e+002
         vertex 3.343189e+002 8.033832e+002 5.940425e+002
      endloop
   endfacet
   facet normal 8.355240e-001 5.494540e-001 -4.638090e-017
      outer loop
         vertex 3.343189e+002 8.033832e+002 5.940425e+002
         vertex 3.343189e+002 8.033832e+002 1.114425e+002
         vertex 3.338428e+002 8.040632e+002 1.114425e+002
      endloop
   endfacet
   facet normal 8.020839e-001 5.972114e-001 -4.452460e-017
      outer loop
         vertex 3.343189e+002 8.033832e+002 5.940425e+002
         vertex 3.338428e+002 8.040632e+002 1.114425e+002
         vertex 3.338428e+002 8.040632e+002 5.940425e+002
      endloop
   endfacet
   facet normal 7.274188e-001 6.861938e-001 -4.037985e-017
      outer loop
         vertex 3.338428e+002 8.040632e+002 5.940425e+002
         vertex 3.338428e+002 8.040632e+002 1.114425e+002
         vertex 3.332558e+002 8.046503e+002 1.114425e+002
      endloop
   endfacet
   facet normal 6.861938e-001 7.274188e-001 -3.809141e-017
      outer loop
         vertex 3.338428e+002 8.040632e+002 5.940425e+002
         vertex 3.332558e+002 8.046503e+002 1.114425e+002
         vertex 3.332558e+002 8.046503e+002 5.940425e+002
      endloop
   endfacet
   facet normal 5.972114e-001 8.020839e-001 -3.315189e-017
      outer loop
         vertex 3.332558e+002 8.046503e+002 5.940425e+002
         vertex 3.332558e+002 8.046503e+002 1.114425e+002
         vertex 3.325757e+002 8.051264e+002 1.114425e+002
      endloop
   endfacet
   facet normal 5.494540e-001 8.355240e-001 -3.050083e-017
      outer loop
         vertex 3.332558e+002 8.046503e+002 5.940425e+002
         vertex 3.325757e+002 8.051264e+002 1.114425e+002
         vertex 3.325757e+002 8.051264e+002 5.940425e+002
      endloop
   endfacet
   facet normal 4.488580e-001 8.936031e-001 -2.491662e-017
      outer loop
         vertex 3.325757e+002 8.051264e+002 5.940425e+002
         vertex 3.325757e+002 8.051264e+002 1.114425e+002
         vertex 3.318234e+002 8.054772e+002 1.114425e+002
      endloop
   endfacet
   facet normal 3.960194e-001 9.182422e-001 -2.198349e-017
      outer loop
         vertex 3.325757e+002 8.051264e+002 5.940425e+002
         vertex 3.318234e+002 8.054772e+002 1.114425e+002
         vertex 3.318234e+002 8.054772e+002 5.940425e+002
      endloop
   endfacet
   facet normal 2.868663e-001 9.579706e-001 -1.592428e-017
      outer loop
         vertex 3.318234e+002 8.054772e+002 5.940425e+002
         vertex 3.318234e+002 8.054772e+002 1.114425e+002
         vertex 3.310215e+002 8.056921e+002 1.114425e+002
      endloop
   endfacet
   facet normal 2.305519e-001 9.730600e-001 -1.279820e-017
      outer loop
         vertex 3.318234e+002 8.054772e+002 5.940425e+002
         vertex 3.310215e+002 8.056921e+002 1.114425e+002
         vertex 3.310215e+002 8.056921e+002 5.940425e+002
      endloop
   endfacet
   facet normal 1.161583e-001 9.932307e-001 -6.448080e-018
      outer loop
         vertex 3.310215e+002 8.056921e+002 5.940425e+002
         vertex 3.310215e+002 8.056921e+002 1.114425e+002
         vertex 3.301945e+002 8.057645e+002 1.114425e+002
      endloop
   endfacet
   facet normal 5.807914e-002 9.983120e-001 -3.224040e-018
      outer loop
         vertex 3.310215e+002 8.056921e+002 5.940425e+002
         vertex 3.301945e+002 8.057645e+002 1.114425e+002
         vertex 3.301945e+002 8.057645e+002 5.940425e+002
      endloop
   endfacet
   facet normal -5.807914e-002 9.983120e-001 3.224040e-018
      outer loop
         vertex 3.301945e+002 8.057645e+002 5.940425e+002
         vertex 3.301945e+002 8.057645e+002 1.114425e+002
         vertex 3.293675e+002 8.056921e+002 1.114425e+002
      endloop
   endfacet
   facet normal -1.161583e-001 9.932307e-001 6.448080e-018
      outer loop
         vertex 3.301945e+002 8.057645e+002 5.940425e+002
         vertex 3.293675e+002 8.056921e+002 1.114425e+002
         vertex 3.293675e+002 8.056921e+002 5.940425e+002
      endloop
   endfacet
   facet normal -2.305519e-001 9.730600e-001 1.279820e-017
      outer loop
         vertex 3.293675e+002 8.056921e+002 5.940425e+002
         vertex 3.293675e+002 8.056921e+002 1.114425e+002
         vertex 3.285656e+002 8.054772e+002 1.114425e+002
      endloop
   endfacet
   facet normal -2.868663e-001 9.579706e-001 1.592428e-017
      outer loop
         vertex 3.293675e+002 8.056921e+002 5.940425e+002
         vertex 3.285656e+002 8.054772e+002 1.114425e+002
         vertex 3.285656e+002 8.054772e+002 5.940425e+002
      endloop
   endfacet
   facet normal -3.960194e-001 9.182422e-001 2.198349e-017
      outer loop
         vertex 3.285656e+002 8.054772e+002 5.940425e+002
         vertex 3.285656e+002 8.054772e+002 1.114425e+002
         vertex 3.278132e+002 8.051264e+002 1.114425e+002
      endloop
   endfacet
   facet normal -4.488580e-001 8.936031e-001 2.491662e-017
      outer loop
         vertex 3.285656e+002 8.054772e+002 5.940425e+002
         vertex 3.278132e+002 8.051264e+002 1.114425e+002
         vertex 3.278132e+002 8.051264e+002 5.940425e+002
      endloop
   endfacet
   facet normal -5.494540e-001 8.355240e-001 3.050083e-017
      outer loop
         vertex 3.278132e+002 8.051264e+002 5.940425e+002
         vertex 3.278132e+002 8.051264e+002 1.114425e+002
         vertex 3.271332e+002 8.046503e+002 1.114425e+002
      endloop
   endfacet
   facet normal -5.972114e-001 8.020839e-001 3.315189e-017
      outer loop
         vertex 3.278132e+002 8.051264e+002 5.940425e+002
         vertex 3.271332e+002 8.046503e+002 1.114425e+002
         vertex 3.271332e+002 8.046503e+002 5.940425e+002
      endloop
   endfacet
   facet normal -6.861938e-001 7.274188e-001 3.809141e-017
      outer loop
         vertex 3.271332e+002 8.046503e+002 5.940425e+002
         vertex 3.271332e+002 8.046503e+002 1.114425e+002
         vertex 3.265462e+002 8.040632e+002 1.114425e+002
      endloop
   endfacet
   facet normal -7.274188e-001 6.861938e-001 4.037985e-017
      outer loop
         vertex 3.271332e+002 8.046503e+002 5.940425e+002
         vertex 3.265462e+002 8.040632e+002 1.114425e+002
         vertex 3.265462e+002 8.040632e+002 5.940425e+002
      endloop
   endfacet
   facet normal -8.020839e-001 5.972114e-001 4.452460e-017
      outer loop
         vertex 3.265462e+002 8.040632e+002 5.940425e+002
         vertex 3.265462e+002 8.040632e+002 1.114425e+002
         vertex 3.260700e+002 8.033832e+002 1.114425e+002
      endloop
   endfacet
   facet normal -8.355240e-001 5.494540e-001 4.638090e-017
      outer loop
         vertex 3.265462e+002 8.040632e+002 5.940425e+002
         vertex 3.260700e+002 8.033832e+002 1.114425e+002
         vertex 3.260700e+002 8.033832e+002 5.940425e+002
      endloop
   endfacet
   facet normal -8.936031e-001 4.488580e-001 4.960494e-017
      outer loop
         vertex 3.260700e+002 8.033832e+002 5.940425e+002
         vertex 3.260700e+002 8.033832e+002 1.114425e+002
         vertex 3.257192e+002 8.026309e+002 1.114425e+002
      endloop
   endfacet
   facet normal -9.182422e-001 3.960194e-001 5.097268e-017
      outer loop
         vertex 3.260700e+002 8.033832e+002 5.940425e+002
         vertex 3.257192e+002 8.026309e+002 1.114425e+002
         vertex 3.257192e+002 8.026309e+002 5.940425e+002
      endloop
   endfacet
   facet normal -9.579706e-001 2.868663e-001 5.317805e-017
      outer loop
         vertex 3.257192e+002 8.026309e+002 5.940425e+002
         vertex 3.257192e+002 8.026309e+002 1.114425e+002
         vertex 3.255043e+002 8.018290e+002 1.114425e+002
      endloop
   endfacet
   facet normal -9.730600e-001 2.305519e-001 5.401568e-017
      outer loop
         vertex 3.257192e+002 8.026309e+002 5.940425e+002
         vertex 3.255043e+002 8.018290e+002 1.114425e+002
         vertex 3.255043e+002 8.018290e+002 5.940425e+002
      endloop
   endfacet
   facet normal -9.932307e-001 1.161583e-001 5.513538e-017
      outer loop
         vertex 3.255043e+002 8.018290e+002 5.940425e+002
         vertex 3.255043e+002 8.018290e+002 1.114425e+002
         vertex 3.254320e+002 8.010020e+002 1.114425e+002
      endloop
   endfacet
   facet normal -9.983120e-001 5.807914e-002 5.541745e-017
      outer loop
         vertex 3.255043e+002 8.018290e+002 5.940425e+002
         vertex 3.254320e+002 8.010020e+002 1.114425e+002
         vertex 3.254320e+002 8.010020e+002 5.940425e+002
      endloop
   endfacet
   facet normal -9.983120e-001 -5.807914e-002 5.541745e-017
      outer loop
         vertex 3.254320e+002 8.010020e+002 5.940425e+002
         vertex 3.254320e+002 8.010020e+002 1.114425e+002
         vertex 3.255043e+002 8.001750e+002 1.114425e+002
      endloop
   endfacet
   facet normal -9.932307e-001 -1.161583e-001 5.513538e-017
      outer loop
         vertex 3.254320e+002 8.010020e+002 5.940425e+002
         vertex 3.255043e+002 8.001750e+002 1.114425e+002
         vertex 3.255043e+002 8.001750e+002 5.940425e+002
      endloop
   endfacet
   facet normal -9.730600e-001 -2.305519e-001 5.401568e-017
      outer loop
         vertex 3.255043e+002 8.001750e+002 5.940425e+002
         vertex 3.255043e+002 8.001750e+002 1.114425e+002
         vertex 3.257192e+002 7.993732e+002 1.114425e+002
      endloop
   endfacet
   facet normal -9.579706e-001 -2.868663e-001 5.317805e-017
      outer loop
         vertex 3.255043e+002 8.001750e+002 5.940425e+002
         vertex 3.257192e+002 7.993732e+002 1.114425e+002
         vertex 3.257192e+002 7.993732e+002 5.940425e+002
      endloop
   endfacet
   facet normal -9.182422e-001 -3.960194e-001 5.097268e-017
      outer loop
         vertex 3.257192e+002 7.993732e+002 5.940425e+002
         vertex 3.257192e+002 7.993732e+002 1.114425e+002
         vertex 3.260700e+002 7.986208e+002 1.114425e+002
      endloop
   endfacet
   facet normal -8.936031e-001 -4.488580e-001 4.960494e-017
      outer loop
         vertex 3.257192e+002 7.993732e+002 5.940425e+002
         vertex 3.260700e+002 7.986208e+002 1.114425e+002
         vertex 3.260700e+002 7.986208e+002 5.940425e+002
      endloop
   endfacet
   facet normal -8.355240e-001 -5.494540e-001 4.638090e-017
      outer loop
         vertex 3.260700e+002 7.986208e+002 5.940425e+002
         vertex 3.260700e+002 7.986208e+002 1.114425e+002
         vertex 3.265462e+002 7.979407e+002 1.114425e+002
      endloop
   endfacet
   facet normal -8.020839e-001 -5.972114e-001 4.452460e-017
      outer loop
         vertex 3.260700e+002 7.986208e+002 5.940425e+002
         vertex 3.265462e+002 7.979407e+002 1.114425e+002
         vertex 3.265462e+002 7.979407e+002 5.940425e+002
      endloop
   endfacet
   facet normal -7.274188e-001 -6.861938e-001 4.037985e-017
      outer loop
         vertex 3.265462e+002 7.979407e+002 5.940425e+002
         vertex 3.265462e+002 7.979407e+002 1.114425e+002
         vertex 3.271332e+002 7.973537e+002 1.114425e+002
      endloop
   endfacet
   facet normal -6.861938e-001 -7.274188e-001 3.809141e-017
      outer loop
         vertex 3.265462e+002 7.979407e+002 5.940425e+002
         vertex 3.271332e+002 7.973537e+002 1.114425e+002
         vertex 3.271332e+002 7.973537e+002 5.940425e+002
      endloop
   endfacet
   facet normal -5.972114e-001 -8.020839e-001 3.315189e-017
      outer loop
         vertex 3.271332e+002 7.973537e+002 5.940425e+002
         vertex 3.271332e+002 7.973537e+002 1.114425e+002
         vertex 3.278132e+002 7.968776e+002 1.114425e+002
      endloop
   endfacet
   facet normal -5.494540e-001 -8.355240e-001 3.050083e-017
      outer loop
         vertex 3.271332e+002 7.973537e+002 5.940425e+002
         vertex 3.278132e+002 7.968776e+002 1.114425e+002
         vertex 3.278132e+002 7.968776e+002 5.940425e+002
      endloop
   endfacet
   facet normal -4.488580e-001 -8.936031e-001 2.491662e-017
      outer loop
         vertex 3.278132e+002 7.968776e+002 5.940425e+002
         vertex 3.278132e+002 7.968776e+002 1.114425e+002
         vertex 3.285656e+002 7.965267e+002 1.114425e+002
      endloop
   endfacet
   facet normal -3.960194e-001 -9.182422e-001 2.198349e-017
      outer loop
         vertex 3.278132e+002 7.968776e+002 5.940425e+002
         vertex 3.285656e+002 7.965267e+002 1.114425e+002
         vertex 3.285656e+002 7.965267e+002 5.940425e+002
      endloop
   endfacet
   facet normal -2.868663e-001 -9.579706e-001 1.592428e-017
      outer loop
         vertex 3.285656e+002 7.965267e+002 5.940425e+002
         vertex 3.285656e+002 7.965267e+002 1.114425e+002
         vertex 3.293675e+002 7.963118e+002 1.114425e+002
      endloop
   endfacet
   facet normal -2.305519e-001 -9.730600e-001 1.279820e-017
      outer loop
         vertex 3.285656e+002 7.965267e+002 5.940425e+002
         vertex 3.293675e+002 7.963118e+002 1.114425e+002
         vertex 3.293675e+002 7.963118e+002 5.940425e+002
      endloop
   endfacet
   facet normal -1.161583e-001 -9.932307e-001 6.448080e-018
      outer loop
         vertex 3.293675e+002 7.963118e+002 5.940425e+002
         vertex 3.293675e+002 7.963118e+002 1.114425e+002
         vertex 3.301945e+002 7.962395e+002 1.114425e+002
      endloop
   endfacet
   facet normal -5.807914e-002 -9.983120e-001 3.224040e-018
      outer loop
         vertex 3.293675e+002 7.963118e+002 5.940425e+002
         vertex 3.301945e+002 7.962395e+002 1.114425e+002
         vertex 3.301945e+002 7.962395e+002 5.940425e+002
      endloop
   endfacet
   facet normal 5.807914e-002 -9.983120e-001 -3.224040e-018
      outer loop
         vertex 3.301945e+002 7.962395e+002 5.940425e+002
         vertex 3.301945e+002 7.962395e+002 1.114425e+002
         vertex 3.310215e+002 7.963118e+002 1.114425e+002
      endloop
   endfacet
   facet normal 1.161583e-001 -9.932307e-001 -6.448080e-018
      outer loop
         vertex 3.301945e+002 7.962395e+002 5.940425e+002
         vertex 3.310215e+002 7.963118e+002 1.114425e+002
         vertex 3.310215e+002 7.963118e+002 5.940425e+002
      endloop
   endfacet
   facet normal 2.305519e-001 -9.730600e-001 -1.279820e-017
      outer loop
         vertex 3.310215e+002 7.963118e+002 5.940425e+002
         vertex 3.310215e+002 7.963118e+002 1.114425e+002
         vertex 3.318234e+002 7.965267e+002 1.114425e+002
      endloop
   endfacet
   facet normal 2.868663e-001 -9.579706e-001 -1.592428e-017
      outer loop
         vertex 3.310215e+002 7.963118e+002 5.940425e+002
         vertex 3.318234e+002 7.965267e+002 1.114425e+002
         vertex 3.318234e+002 7.965267e+002 5.940425e+002
      endloop
   endfacet
   facet normal 3.960194e-001 -9.182422e-001 -2.198349e-017
      outer loop
         vertex 3.318234e+002 7.965267e+002 5.940425e+002
         vertex 3.318234e+002 7.965267e+002 1.114425e+002
         vertex 3.325757e+002 7.968776e+002 1.114425e+002
      endloop
   endfacet
   facet normal 4.488580e-001 -8.936031e-001 -2.491662e-017
      outer loop
         vertex 3.318234e+002 7.965267e+002 5.940425e+002
         vertex 3.325757e+002 7.968776e+002 1.114425e+002
         vertex 3.325757e+002 7.968776e+002 5.940425e+002
      endloop
   endfacet
   facet normal 5.494540e-001 -8.355240e-001 -3.050083e-017
      outer loop
         vertex 3.325757e+002 7.968776e+002 5.940425e+002
         vertex 3.325757e+002 7.968776e+002 1.114425e+002
         vertex 3.332558e+002 7.973537e+002 1.114425e+002
      endloop
   endfacet
   facet normal 5.972114e-001 -8.020839e-001 -3.315189e-017
      outer loop
         vertex 3.325757e+002 7.968776e+002 5.940425e+002
         vertex 3.332558e+002 7.973537e+002 1.114425e+002
         vertex 3.332558e+002 7.973537e+002 5.940425e+002
      endloop
   endfacet
   facet normal 6.861938e-001 -7.274188e-001 -3.809141e-017
      outer loop
         vertex 3.332558e+002 7.973537e+002 5.940425e+002
         vertex 3.332558e+002 7.973537e+002 1.114425e+002
         vertex 3.338428e+002 7.979407e+002 1.114425e+002
      endloop
   endfacet
   facet normal 7.274188e-001 -6.861938e-001 -4.037985e-017
      outer loop
         vertex 3.332558e+002 7.973537e+002 5.940425e+002
         vertex 3.338428e+002 7.979407e+002 1.114425e+002
         vertex 3.338428e+002 7.979407e+002 5.940425e+002
      endloop
   endfacet
   facet normal 8.020839e-001 -5.972114e-001 -4.452460e-017
      outer loop
         vertex 3.338428e+002 7.979407e+002 5.940425e+002
         vertex 3.338428e+002 7.979407e+002 1.114425e+002
         vertex 3.343189e+002 7.986208e+002 1.114425e+002
      endloop
   endfacet
   facet normal 8.355240e-001 -5.494540e-001 -4.638090e-017
      outer loop
         vertex 3.338428e+002 7.979407e+002 5.940425e+002
         vertex 3.343189e+002 7.986208e+002 1.114425e+002
         vertex 3.343189e+002 7.986208e+002 5.940425e+002
      endloop
   endfacet
   facet normal 8.936031e-001 -4.488580e-001 -4.960494e-017
      outer loop
         vertex 3.343189e+002 7.986208e+002 5.940425e+002
         vertex 3.343189e+002 7.986208e+002 1.114425e+002
         vertex 3.346698e+002 7.993732e+002 1.114425e+002
      endloop
   endfacet
   facet normal 9.182422e-001 -3.960194e-001 -5.097268e-017
      outer loop
         vertex 3.343189e+002 7.986208e+002 5.940425e+002
         vertex 3.346698e+002 7.993732e+002 1.114425e+002
         vertex 3.346698e+002 7.993732e+002 5.940425e+002
      endloop
   endfacet
   facet normal 9.579706e-001 -2.868663e-001 -5.317805e-017
      outer loop
         vertex 3.346698e+002 7.993732e+002 5.940425e+002
         vertex 3.346698e+002 7.993732e+002 1.114425e+002
         vertex 3.348846e+002 8.001750e+002 1.114425e+002
      endloop
   endfacet
   facet normal 9.730600e-001 -2.305519e-001 -5.401568e-017
      outer loop
         vertex 3.346698e+002 7.993732e+002 5.940425e+002
         vertex 3.348846e+002 8.001750e+002 1.114425e+002
         vertex 3.348846e+002 8.001750e+002 5.940425e+002
      endloop
   endfacet
   facet normal 9.932307e-001 -1.161583e-001 -5.513538e-017
      outer loop
         vertex 3.348846e+002 8.001750e+002 5.940425e+002
         vertex 3.348846e+002 8.001750e+002 1.114425e+002
         vertex 3.349570e+002 8.010020e+002 1.114425e+002
      endloop
   endfacet
   facet normal 5.551115e-017 -1.938705e-026 1.000000e+000
      outer loop
         vertex 3.346698e+002 8.026309e+002 5.940425e+002
         vertex 3.265462e+002 7.979407e+002 5.940425e+002
         vertex 3.348846e+002 8.018290e+002 5.940425e+002
      endloop
   endfacet
   facet normal 5.551115e-017 -1.938705e-026 1.000000e+000
      outer loop
         vertex 3.348846e+002 8.018290e+002 5.940425e+002
         vertex 3.265462e+002 7.979407e+002 5.940425e+002
         vertex 3.349570e+002 8.010020e+002 5.940425e+002
      endloop
   endfacet
   facet normal 5.551115e-017 -1.938705e-026 1.000000e+000
      outer loop
         vertex 3.257192e+002 7.993732e+002 5.940425e+002
         vertex 3.338428e+002 8.040632e+002 5.940425e+002
         vertex 3.255043e+002 8.001750e+002 5.940425e+002
      endloop
   endfacet
   facet normal 5.551115e-017 -1.938705e-026 1.000000e+000
      outer loop
         vertex 3.255043e+002 8.001750e+002 5.940425e+002
         vertex 3.338428e+002 8.040632e+002 5.940425e+002
         vertex 3.254320e+002 8.010020e+002 5.940425e+002
      endloop
   endfacet
   facet normal 5.551115e-017 -1.938705e-026 1.000000e+000
      outer loop
         vertex 3.346698e+002 8.026309e+002 5.940425e+002
         vertex 3.343189e+002 8.033832e+002 5.940425e+002
         vertex 3.265462e+002 7.979407e+002 5.940425e+002
      endloop
   endfacet
   facet normal 5.551115e-017 -1.938705e-026 1.000000e+000
      outer loop
         vertex 3.265462e+002 7.979407e+002 5.940425e+002
         vertex 3.343189e+002 8.033832e+002 5.940425e+002
         vertex 3.338428e+002 8.040632e+002 5.940425e+002
      endloop
   endfacet
   facet normal 5.551115e-017 -1.938705e-026 1.000000e+000
      outer loop
         vertex 3.265462e+002 7.979407e+002 5.940425e+002
         vertex 3.338428e+002 8.040632e+002 5.940425e+002
         vertex 3.260700e+002 7.986208e+002 5.940425e+002
      endloop
   endfacet
   facet normal 5.551115e-017 -1.938705e-026 1.000000e+000
      outer loop
         vertex 3.260700e+002 7.986208e+002 5.940425e+002
         vertex 3.338428e+002 8.040632e+002 5.940425e+002
         vertex 3.257192e+002 7.993732e+002 5.940425e+002
      endloop
   endfacet
   facet normal 5.551115e-017 -1.938705e-026 1.000000e+000
      outer loop
         vertex 3.338428e+002 8.040632e+002 5.940425e+002
         vertex 3.332558e+002 8.046503e+002 5.940425e+002
         vertex 3.254320e+002 8.010020e+002 5.940425e+002
      endloop
   endfacet
   facet normal 5.551115e-017 -1.938705e-026 1.000000e+000
      outer loop
         vertex 3.254320e+002 8.010020e+002 5.940425e+002
         vertex 3.332558e+002 8.046503e+002 5.940425e+002
         vertex 3.325757e+002 8.051264e+002 5.940425e+002
      endloop
   endfacet
   facet normal 5.551115e-017 -1.938705e-026 1.000000e+000
      outer loop
         vertex 3.254320e+002 8.010020e+002 5.940425e+002
         vertex 3.325757e+002 8.051264e+002 5.940425e+002
         vertex 3.318234e+002 8.054772e+002 5.940425e+002
      endloop
   endfacet
   facet normal 5.551115e-017 -1.938705e-026 1.000000e+000
      outer loop
         vertex 3.257192e+002 8.026309e+002 5.940425e+002
         vertex 3.255043e+002 8.018290e+002 5.940425e+002
         vertex 3.301945e+002 8.057645e+002 5.940425e+002
      endloop
   endfacet
   facet normal 5.551115e-017 -1.938705e-026 1.000000e+000
      outer loop
         vertex 3.301945e+002 8.057645e+002 5.940425e+002
         vertex 3.255043e+002 8.018290e+002 5.940425e+002
         vertex 3.254320e+002 8.010020e+002 5.940425e+002
      endloop
   endfacet
   facet normal 5.551115e-017 -1.938705e-026 1.000000e+000
      outer loop
         vertex 3.301945e+002 8.057645e+002 5.940425e+002
         vertex 3.254320e+002 8.010020e+002 5.940425e+002
         vertex 3.310215e+002 8.056921e+002 5.940425e+002
      endloop
   endfacet
   facet normal 5.551115e-017 -1.938705e-026 1.000000e+000
      outer loop
         vertex 3.310215e+002 8.056921e+002 5.940425e+002
         vertex 3.254320e+002 8.010020e+002 5.940425e+002
         vertex 3.318234e+002 8.054772e+002 5.940425e+002
      endloop
   endfacet
   facet normal 5.551115e-017 -1.938705e-026 1.000000e+000
      outer loop
         vertex 3.265462e+002 7.979407e+002 5.940425e+002
         vertex 3.271332e+002 7.973537e+002 5.940425e+002
         vertex 3.349570e+002 8.010020e+002 5.940425e+002
      endloop
   endfacet
   facet normal 5.551115e-017 -1.938705e-026 1.000000e+000
      outer loop
         vertex 3.349570e+002 8.010020e+002 5.940425e+002
         vertex 3.271332e+002 7.973537e+002 5.940425e+002
         vertex 3.278132e+002 7.968776e+002 5.940425e+002
      endloop
   endfacet
   facet normal 5.551115e-017 -1.938705e-026 1.000000e+000
      outer loop
         vertex 3.349570e+002 8.010020e+002 5.940425e+002
         vertex 3.278132e+002 7.968776e+002 5.940425e+002
         vertex 3.285656e+002 7.965267e+002 5.940425e+002
      endloop
   endfacet
   facet normal 5.551115e-017 -1.938705e-026 1.000000e+000
      outer loop
         vertex 3.293675e+002 8.056921e+002 5.940425e+002
         vertex 3.285656e+002 8.054772e+002 5.940425e+002
         vertex 3.301945e+002 8.057645e+002 5.940425e+002
      endloop
   endfacet
   facet normal 5.551115e-017 -1.938705e-026 1.000000e+000
      outer loop
         vertex 3.301945e+002 8.057645e+002 5.940425e+002
         vertex 3.285656e+002 8.054772e+002 5.940425e+002
         vertex 3.278132e+002 8.051264e+002 5.940425e+002
      endloop
   endfacet
   facet normal 5.551115e-017 -1.938705e-026 1.000000e+000
      outer loop
         vertex 3.301945e+002 8.057645e+002 5.940425e+002
         vertex 3.278132e+002 8.051264e+002 5.940425e+002
         vertex 3.271332e+002 8.046503e+002 5.940425e+002
      endloop
   endfacet
   facet normal 5.551115e-017 -1.938705e-026 1.000000e+000
      outer loop
         vertex 3.271332e+002 8.046503e+002 5.940425e+002
         vertex 3.265462e+002 8.040632e+002 5.940425e+002
         vertex 3.301945e+002 8.057645e+002 5.940425e+002
      endloop
   endfacet
   facet normal 5.551115e-017 -1.938705e-026 1.000000e+000
      outer loop
         vertex 3.301945e+002 8.057645e+002 5.940425e+002
         vertex 3.265462e+002 8.040632e+002 5.940425e+002
         vertex 3.260700e+002 8.033832e+002 5.940425e+002
      endloop
   endfacet
   facet normal 5.551115e-017 -1.938705e-026 1.000000e+000
      outer loop
         vertex 3.301945e+002 8.057645e+002 5.940425e+002
         vertex 3.260700e+002 8.033832e+002 5.940425e+002
         vertex 3.257192e+002 8.026309e+002 5.940425e+002
      endloop
   endfacet
   facet normal 5.551115e-017 -1.938705e-026 1.000000e+000
      outer loop
         vertex 3.346698e+002 7.993732e+002 5.940425e+002
         vertex 3.348846e+002 8.001750e+002 5.940425e+002
         vertex 3.301945e+002 7.962395e+002 5.940425e+002
      endloop
   endfacet
   facet normal 5.551115e-017 -1.938705e-026 1.000000e+000
      outer loop
         vertex 3.301945e+002 7.962395e+002 5.940425e+002
         vertex 3.348846e+002 8.001750e+002 5.940425e+002
         vertex 3.349570e+002 8.010020e+002 5.940425e+002
      endloop
   endfacet
   facet normal 5.551115e-017 -1.938705e-026 1.000000e+000
      outer loop
         vertex 3.301945e+002 7.962395e+002 5.940425e+002
         vertex 3.349570e+002 8.010020e+002 5.940425e+002
         vertex 3.293675e+002 7.963118e+002 5.940425e+002
      endloop
   endfacet
   facet normal 5.551115e-017 -1.938705e-026 1.000000e+000
      outer loop
         vertex 3.293675e+002 7.963118e+002 5.940425e+002
         vertex 3.349570e+002 8.010020e+002 5.940425e+002
         vertex 3.285656e+002 7.965267e+002 5.940425e+002
      endloop
   endfacet
   facet normal 5.551115e-017 -1.938705e-026 1.000000e+000
      outer loop
         vertex 3.310215e+002 7.963118e+002 5.940425e+002
         vertex 3.318234e+002 7.965267e+002 5.940425e+002
         vertex 3.301945e+002 7.962395e+002 5.940425e+002
      endloop
   endfacet
   facet normal 5.551115e-017 -1.938705e-026 1.000000e+000
      outer loop
         vertex 3.301945e+002 7.962395e+002 5.940425e+002
         vertex 3.318234e+002 7.965267e+002 5.940425e+002
         vertex 3.325757e+002 7.968776e+002 5.940425e+002
      endloop
   endfacet
   facet normal 5.551115e-017 -1.938705e-026 1.000000e+000
      outer loop
         vertex 3.301945e+002 7.962395e+002 5.940425e+002
         vertex 3.325757e+002 7.968776e+002 5.940425e+002
         vertex 3.332558e+002 7.973537e+002 5.940425e+002
      endloop
   endfacet
   facet normal 5.551115e-017 -1.938705e-026 1.000000e+000
      outer loop
         vertex 3.332558e+002 7.973537e+002 5.940425e+002
         vertex 3.338428e+002 7.979407e+002 5.940425e+002
         vertex 3.301945e+002 7.962395e+002 5.940425e+002
      endloop
   endfacet
   facet normal 5.551115e-017 -1.938705e-026 1.000000e+000
      outer loop
         vertex 3.301945e+002 7.962395e+002 5.940425e+002
         vertex 3.338428e+002 7.979407e+002 5.940425e+002
         vertex 3.343189e+002 7.986208e+002 5.940425e+002
      endloop
   endfacet
   facet normal 5.551115e-017 -1.938705e-026 1.000000e+000
      outer loop
         vertex 3.301945e+002 7.962395e+002 5.940425e+002
         vertex 3.343189e+002 7.986208e+002 5.940425e+002
         vertex 3.346698e+002 7.993732e+002 5.940425e+002
      endloop
   endfacet
   facet normal -5.551115e-017 1.938705e-026 -1.000000e+000
      outer loop
         vertex 3.343189e+002 8.033832e+002 1.114425e+002
         vertex 3.265462e+002 7.979407e+002 1.114425e+002
         vertex 3.338428e+002 8.040632e+002 1.114425e+002
      endloop
   endfacet
   facet normal -5.551115e-017 1.938705e-026 -1.000000e+000
      outer loop
         vertex 3.338428e+002 8.040632e+002 1.114425e+002
         vertex 3.265462e+002 7.979407e+002 1.114425e+002
         vertex 3.260700e+002 7.986208e+002 1.114425e+002
      endloop
   endfacet
   facet normal -5.551115e-017 1.938705e-026 -1.000000e+000
      outer loop
         vertex 3.338428e+002 8.040632e+002 1.114425e+002
         vertex 3.260700e+002 7.986208e+002 1.114425e+002
         vertex 3.257192e+002 7.993732e+002 1.114425e+002
      endloop
   endfacet
   facet normal -5.551115e-017 1.938705e-026 -1.000000e+000
      outer loop
         vertex 3.255043e+002 8.018290e+002 1.114425e+002
         vertex 3.257192e+002 8.026309e+002 1.114425e+002
         vertex 3.301945e+002 8.057645e+002 1.114425e+002
      endloop
   endfacet
   facet normal -5.551115e-017 1.938705e-026 -1.000000e+000
      outer loop
         vertex 3.318234e+002 8.054772e+002 1.114425e+002
         vertex 3.325757e+002 8.051264e+002 1.114425e+002
         vertex 3.254320e+002 8.010020e+002 1.114425e+002
      endloop
   endfacet
   facet normal -5.551115e-017 1.938705e-026 -1.000000e+000
      outer loop
         vertex 3.343189e+002 8.033832e+002 1.114425e+002
         vertex 3.346698e+002 8.026309e+002 1.114425e+002
         vertex 3.265462e+002 7.979407e+002 1.114425e+002
      endloop
   endfacet
   facet normal -5.551115e-017 1.938705e-026 -1.000000e+000
      outer loop
         vertex 3.265462e+002 7.979407e+002 1.114425e+002
         vertex 3.346698e+002 8.026309e+002 1.114425e+002
         vertex 3.348846e+002 8.018290e+002 1.114425e+002
      endloop
   endfacet
   facet normal -5.551115e-017 1.938705e-026 -1.000000e+000
      outer loop
         vertex 3.265462e+002 7.979407e+002 1.114425e+002
         vertex 3.348846e+002 8.018290e+002 1.114425e+002
         vertex 3.349570e+002 8.010020e+002 1.114425e+002
      endloop
   endfacet
   facet normal -5.551115e-017 1.938705e-026 -1.000000e+000
      outer loop
         vertex 3.257192e+002 7.993732e+002 1.114425e+002
         vertex 3.255043e+002 8.001750e+002 1.114425e+002
         vertex 3.338428e+002 8.040632e+002 1.114425e+002
      endloop
   endfacet
   facet normal -5.551115e-017 1.938705e-026 -1.000000e+000
      outer loop
         vertex 3.338428e+002 8.040632e+002 1.114425e+002
         vertex 3.255043e+002 8.001750e+002 1.114425e+002
         vertex 3.254320e+002 8.010020e+002 1.114425e+002
      endloop
   endfacet
   facet normal -5.551115e-017 1.938705e-026 -1.000000e+000
      outer loop
         vertex 3.338428e+002 8.040632e+002 1.114425e+002
         vertex 3.254320e+002 8.010020e+002 1.114425e+002
         vertex 3.332558e+002 8.046503e+002 1.114425e+002
      endloop
   endfacet
   facet normal -5.551115e-017 1.938705e-026 -1.000000e+000
      outer loop
         vertex 3.332558e+002 8.046503e+002 1.114425e+002
         vertex 3.254320e+002 8.010020e+002 1.114425e+002
         vertex 3.325757e+002 8.051264e+002 1.114425e+002
      endloop
   endfacet
   facet normal -5.551115e-017 1.938705e-026 -1.000000e+000
      outer loop
         vertex 3.348846e+002 8.001750e+002 1.114425e+002
         vertex 3.346698e+002 7.993732e+002 1.114425e+002
         vertex 3.301945e+002 7.962395e+002 1.114425e+002
      endloop
   endfacet
   facet normal -5.551115e-017 1.938705e-026 -1.000000e+000
      outer loop
         vertex 3.255043e+002 8.018290e+002 1.114425e+002
         vertex 3.301945e+002 8.057645e+002 1.114425e+002
         vertex 3.254320e+002 8.010020e+002 1.114425e+002
      endloop
   endfacet
   facet normal -5.551115e-017 1.938705e-026 -1.000000e+000
      outer loop
         vertex 3.254320e+002 8.010020e+002 1.114425e+002
         vertex 3.301945e+002 8.057645e+002 1.114425e+002
         vertex 3.310215e+002 8.056921e+002 1.114425e+002
      endloop
   endfacet
   facet normal -5.551115e-017 1.938705e-026 -1.000000e+000
      outer loop
         vertex 3.254320e+002 8.010020e+002 1.114425e+002
         vertex 3.310215e+002 8.056921e+002 1.114425e+002
         vertex 3.318234e+002 8.054772e+002 1.114425e+002
      endloop
   endfacet
   facet normal -5.551115e-017 1.938705e-026 -1.000000e+000
      outer loop
         vertex 3.285656e+002 7.965267e+002 1.114425e+002
         vertex 3.278132e+002 7.968776e+002 1.114425e+002
         vertex 3.349570e+002 8.010020e+002 1.114425e+002
      endloop
   endfacet
   facet normal -5.551115e-017 1.938705e-026 -1.000000e+000
      outer loop
         vertex 3.349570e+002 8.010020e+002 1.114425e+002
         vertex 3.278132e+002 7.968776e+002 1.114425e+002
         vertex 3.271332e+002 7.973537e+002 1.114425e+002
      endloop
   endfacet
   facet normal -5.551115e-017 1.938705e-026 -1.000000e+000
      outer loop
         vertex 3.349570e+002 8.010020e+002 1.114425e+002
         vertex 3.271332e+002 7.973537e+002 1.114425e+002
         vertex 3.265462e+002 7.979407e+002 1.114425e+002
      endloop
   endfacet
   facet normal -5.551115e-017 1.938705e-026 -1.000000e+000
      outer loop
         vertex 3.257192e+002 8.026309e+002 1.114425e+002
         vertex 3.260700e+002 8.033832e+002 1.114425e+002
         vertex 3.301945e+002 8.057645e+002 1.114425e+002
      endloop
   endfacet
   facet normal -5.551115e-017 1.938705e-026 -1.000000e+000
      outer loop
         vertex 3.301945e+002 8.057645e+002 1.114425e+002
         vertex 3.260700e+002 8.033832e+002 1.114425e+002
         vertex 3.265462e+002 8.040632e+002 1.114425e+002
      endloop
   endfacet
   facet normal -5.551115e-017 1.938705e-026 -1.000000e+000
      outer loop
         vertex 3.301945e+002 8.057645e+002 1.114425e+002
         vertex 3.265462e+002 8.040632e+002 1.114425e+002
         vertex 3.271332e+002 8.046503e+002 1.114425e+002
      endloop
   endfacet
   facet normal -5.551115e-017 1.938705e-026 -1.000000e+000
      outer loop
         vertex 3.271332e+002 8.046503e+002 1.114425e+002
         vertex 3.278132e+002 8.051264e+002 1.114425e+002
         vertex 3.301945e+002 8.057645e+002 1.114425e+002
      endloop
   endfacet
   facet normal -5.551115e-017 1.938705e-026 -1.000000e+000
      outer loop
         vertex 3.301945e+002 8.057645e+002 1.114425e+002
         vertex 3.278132e+002 8.051264e+002 1.114425e+002
         vertex 3.285656e+002 8.054772e+002 1.114425e+002
      endloop
   endfacet
   facet normal -5.551115e-017 1.938705e-026 -1.000000e+000
      outer loop
         vertex 3.301945e+002 8.057645e+002 1.114425e+002
         vertex 3.285656e+002 8.054772e+002 1.114425e+002
         vertex 3.293675e+002 8.056921e+002 1.114425e+002
      endloop
   endfacet
   facet normal -5.551115e-017 1.938705e-026 -1.000000e+000
      outer loop
         vertex 3.346698e+002 7.993732e+002 1.114425e+002
         vertex 3.343189e+002 7.986208e+002 1.114425e+002
         vertex 3.301945e+002 7.962395e+002 1.114425e+002
      endloop
   endfacet
   facet normal -5.551115e-017 1.938705e-026 -1.000000e+000
      outer loop
         vertex 3.301945e+002 7.962395e+002 1.114425e+002
         vertex 3.343189e+002 7.986208e+002 1.114425e+002
         vertex 3.338428e+002 7.979407e+002 1.114425e+002
      endloop
   endfacet
   facet normal -5.551115e-017 1.938705e-026 -1.000000e+000
      outer loop
         vertex 3.301945e+002 7.962395e+002 1.114425e+002
         vertex 3.338428e+002 7.979407e+002 1.114425e+002
         vertex 3.332558e+002 7.973537e+002 1.114425e+002
      endloop
   endfacet
   facet normal -5.551115e-017 1.938705e-026 -1.000000e+000
      outer loop
         vertex 3.332558e+002 7.973537e+002 1.114425e+002
         vertex 3.325757e+002 7.968776e+002 1.114425e+002
         vertex 3.301945e+002 7.962395e+002 1.114425e+002
      endloop
   endfacet
   facet normal -5.551115e-017 1.938705e-026 -1.000000e+000
      outer loop
         vertex 3.301945e+002 7.962395e+002 1.114425e+002
         vertex 3.325757e+002 7.968776e+002 1.114425e+002
         vertex 3.318234e+002 7.965267e+002 1.114425e+002
      endloop
   endfacet
   facet normal -5.551115e-017 1.938705e-026 -1.000000e+000
      outer loop
         vertex 3.301945e+002 7.962395e+002 1.114425e+002
         vertex 3.318234e+002 7.965267e+002 1.114425e+002
         vertex 3.310215e+002 7.963118e+002 1.114425e+002
      endloop
   endfacet
   facet normal -5.551115e-017 1.938705e-026 -1.000000e+000
      outer loop
         vertex 3.348846e+002 8.001750e+002 1.114425e+002
         vertex 3.301945e+002 7.962395e+002 1.114425e+002
         vertex 3.349570e+002 8.010020e+002 1.114425e+002
      endloop
   endfacet
   facet normal -5.551115e-017 1.938705e-026 -1.000000e+000
      outer loop
         vertex 3.349570e+002 8.010020e+002 1.114425e+002
         vertex 3.301945e+002 7.962395e+002 1.114425e+002
         vertex 3.293675e+002 7.963118e+002 1.114425e+002
      endloop
   endfacet
   facet normal -5.551115e-017 1.938705e-026 -1.000000e+000
      outer loop
         vertex 3.349570e+002 8.010020e+002 1.114425e+002
         vertex 3.293675e+002 7.963118e+002 1.114425e+002
         vertex 3.285656e+002 7.965267e+002 1.114425e+002
      endloop
   endfacet
endsolid