solid FPM - SideTop-2 103-RodYokes-1
   facet normal 9.983120e-001 5.807914e-002 -4.775014e-017
      outer loop
         vertex 1.135435e+003 1.154241e+003 1.114425e+002
         vertex 1.135507e+003 1.153414e+003 5.940425e+002
         vertex 1.135507e+003 1.153414e+003 1.114425e+002
      endloop
   endfacet
   facet normal 9.983120e-001 -5.807914e-002 -4.775014e-017
      outer loop
         vertex 1.135507e+003 1.153414e+003 1.114425e+002
         vertex 1.135507e+003 1.153414e+003 5.940425e+002
         vertex 1.135435e+003 1.152587e+003 5.940425e+002
      endloop
   endfacet
   facet normal 9.932307e-001 -1.161583e-001 -4.750710e-017
      outer loop
         vertex 1.135507e+003 1.153414e+003 1.114425e+002
         vertex 1.135435e+003 1.152587e+003 5.940425e+002
         vertex 1.135435e+003 1.152587e+003 1.114425e+002
      endloop
   endfacet
   facet normal 9.730600e-001 -2.305519e-001 -4.654232e-017
      outer loop
         vertex 1.135435e+003 1.152587e+003 1.114425e+002
         vertex 1.135435e+003 1.152587e+003 5.940425e+002
         vertex 1.135220e+003 1.151785e+003 5.940425e+002
      endloop
   endfacet
   facet normal 9.579706e-001 -2.868663e-001 -4.582058e-017
      outer loop
         vertex 1.135435e+003 1.152587e+003 1.114425e+002
         vertex 1.135220e+003 1.151785e+003 5.940425e+002
         vertex 1.135220e+003 1.151785e+003 1.114425e+002
      endloop
   endfacet
   facet normal 9.182422e-001 -3.960194e-001 -4.392033e-017
      outer loop
         vertex 1.135220e+003 1.151785e+003 1.114425e+002
         vertex 1.135220e+003 1.151785e+003 5.940425e+002
         vertex 1.134869e+003 1.151033e+003 5.940425e+002
      endloop
   endfacet
   facet normal 8.936031e-001 -4.488580e-001 -4.274182e-017
      outer loop
         vertex 1.135220e+003 1.151785e+003 1.114425e+002
         vertex 1.134869e+003 1.151033e+003 5.940425e+002
         vertex 1.134869e+003 1.151033e+003 1.114425e+002
      endloop
   endfacet
   facet normal 8.355240e-001 -5.494540e-001 -3.996384e-017
      outer loop
         vertex 1.134869e+003 1.151033e+003 1.114425e+002
         vertex 1.134869e+003 1.151033e+003 5.940425e+002
         vertex 1.134393e+003 1.150353e+003 5.940425e+002
      endloop
   endfacet
   facet normal 8.020839e-001 -5.972114e-001 -3.836438e-017
      outer loop
         vertex 1.134869e+003 1.151033e+003 1.114425e+002
         vertex 1.134393e+003 1.150353e+003 5.940425e+002
         vertex 1.134393e+003 1.150353e+003 1.114425e+002
      endloop
   endfacet
   facet normal 7.274188e-001 -6.861938e-001 -3.479308e-017
      outer loop
         vertex 1.134393e+003 1.150353e+003 1.114425e+002
         vertex 1.134393e+003 1.150353e+003 5.940425e+002
         vertex 1.133806e+003 1.149766e+003 5.940425e+002
      endloop
   endfacet
   facet normal 6.861938e-001 -7.274188e-001 -3.282125e-017
      outer loop
         vertex 1.134393e+003 1.150353e+003 1.114425e+002
         vertex 1.133806e+003 1.149766e+003 5.940425e+002
         vertex 1.133806e+003 1.149766e+003 1.114425e+002
      endloop
   endfacet
   facet normal 5.972114e-001 -8.020839e-001 -2.856514e-017
      outer loop
         vertex 1.133806e+003 1.149766e+003 1.114425e+002
         vertex 1.133806e+003 1.149766e+003 5.940425e+002
         vertex 1.133126e+003 1.149290e+003 5.940425e+002
      endloop
   endfacet
   facet normal 5.494540e-001 -8.355240e-001 -2.628087e-017
      outer loop
         vertex 1.133806e+003 1.149766e+003 1.114425e+002
         vertex 1.133126e+003 1.149290e+003 5.940425e+002
         vertex 1.133126e+003 1.149290e+003 1.114425e+002
      endloop
   endfacet
   facet normal 4.488580e-001 -8.936031e-001 -2.146927e-017
      outer loop
         vertex 1.133126e+003 1.149290e+003 1.114425e+002
         vertex 1.133126e+003 1.149290e+003 5.940425e+002
         vertex 1.132373e+003 1.148939e+003 5.940425e+002
      endloop
   endfacet
   facet normal 3.960194e-001 -9.182422e-001 -1.894196e-017
      outer loop
         vertex 1.133126e+003 1.149290e+003 1.114425e+002
         vertex 1.132373e+003 1.148939e+003 5.940425e+002
         vertex 1.132373e+003 1.148939e+003 1.114425e+002
      endloop
   endfacet
   facet normal 2.868663e-001 -9.579706e-001 -1.372107e-017
      outer loop
         vertex 1.132373e+003 1.148939e+003 1.114425e+002
         vertex 1.132373e+003 1.148939e+003 5.940425e+002
         vertex 1.131572e+003 1.148724e+003 5.940425e+002
      endloop
   endfacet
   facet normal 2.305519e-001 -9.730600e-001 -1.102750e-017
      outer loop
         vertex 1.132373e+003 1.148939e+003 1.114425e+002
         vertex 1.131572e+003 1.148724e+003 5.940425e+002
         vertex 1.131572e+003 1.148724e+003 1.114425e+002
      endloop
   endfacet
   facet normal 1.161583e-001 -9.932307e-001 -5.555953e-018
      outer loop
         vertex 1.131572e+003 1.148724e+003 1.114425e+002
         vertex 1.131572e+003 1.148724e+003 5.940425e+002
         vertex 1.130745e+003 1.148651e+003 5.940425e+002
      endloop
   endfacet
   facet normal 5.807914e-002 -9.983120e-001 -2.777976e-018
      outer loop
         vertex 1.131572e+003 1.148724e+003 1.114425e+002
         vertex 1.130745e+003 1.148651e+003 5.940425e+002
         vertex 1.130745e+003 1.148651e+003 1.114425e+002
      endloop
   endfacet
   facet normal -5.807914e-002 -9.983120e-001 2.777976e-018
      outer loop
         vertex 1.130745e+003 1.148651e+003 1.114425e+002
         vertex 1.130745e+003 1.148651e+003 5.940425e+002
         vertex 1.129917e+003 1.148724e+003 5.940425e+002
      endloop
   endfacet
   facet normal -1.161583e-001 -9.932307e-001 5.555953e-018
      outer loop
         vertex 1.130745e+003 1.148651e+003 1.114425e+002
         vertex 1.129917e+003 1.148724e+003 5.940425e+002
         vertex 1.129917e+003 1.148724e+003 1.114425e+002
      endloop
   endfacet
   facet normal -2.305519e-001 -9.730600e-001 1.102750e-017
      outer loop
         vertex 1.129917e+003 1.148724e+003 1.114425e+002
         vertex 1.129917e+003 1.148724e+003 5.940425e+002
         vertex 1.129116e+003 1.148939e+003 5.940425e+002
      endloop
   endfacet
   facet normal -2.868663e-001 -9.579706e-001 1.372107e-017
      outer loop
         vertex 1.129917e+003 1.148724e+003 1.114425e+002
         vertex 1.129116e+003 1.148939e+003 5.940425e+002
         vertex 1.129116e+003 1.148939e+003 1.114425e+002
      endloop
   endfacet
   facet normal -3.960194e-001 -9.182422e-001 1.894195e-017
      outer loop
         vertex 1.129116e+003 1.148939e+003 1.114425e+002
         vertex 1.129116e+003 1.148939e+003 5.940425e+002
         vertex 1.128363e+003 1.149290e+003 5.940425e+002
      endloop
   endfacet
   facet normal -4.488580e-001 -8.936031e-001 2.146927e-017
      outer loop
         vertex 1.129116e+003 1.148939e+003 1.114425e+002
         vertex 1.128363e+003 1.149290e+003 5.940425e+002
         vertex 1.128363e+003 1.149290e+003 1.114425e+002
      endloop
   endfacet
   facet normal -5.494540e-001 -8.355240e-001 2.628087e-017
      outer loop
         vertex 1.128363e+003 1.149290e+003 1.114425e+002
         vertex 1.128363e+003 1.149290e+003 5.940425e+002
         vertex 1.127683e+003 1.149766e+003 5.940425e+002
      endloop
   endfacet
   facet normal -5.972114e-001 -8.020839e-001 2.856514e-017
      outer loop
         vertex 1.128363e+003 1.149290e+003 1.114425e+002
         vertex 1.127683e+003 1.149766e+003 5.940425e+002
         vertex 1.127683e+003 1.149766e+003 1.114425e+002
      endloop
   endfacet
   facet normal -6.861938e-001 -7.274188e-001 3.282125e-017
      outer loop
         vertex 1.127683e+003 1.149766e+003 1.114425e+002
         vertex 1.127683e+003 1.149766e+003 5.940425e+002
         vertex 1.127096e+003 1.150353e+003 5.940425e+002
      endloop
   endfacet
   facet normal -7.274188e-001 -6.861938e-001 3.479308e-017
      outer loop
         vertex 1.127683e+003 1.149766e+003 1.114425e+002
         vertex 1.127096e+003 1.150353e+003 5.940425e+002
         vertex 1.127096e+003 1.150353e+003 1.114425e+002
      endloop
   endfacet
   facet normal -8.020839e-001 -5.972114e-001 3.836438e-017
      outer loop
         vertex 1.127096e+003 1.150353e+003 1.114425e+002
         vertex 1.127096e+003 1.150353e+003 5.940425e+002
         vertex 1.126620e+003 1.151033e+003 5.940425e+002
      endloop
   endfacet
   facet normal -8.355240e-001 -5.494540e-001 3.996384e-017
      outer loop
         vertex 1.127096e+003 1.150353e+003 1.114425e+002
         vertex 1.126620e+003 1.151033e+003 5.940425e+002
         vertex 1.126620e+003 1.151033e+003 1.114425e+002
      endloop
   endfacet
   facet normal -8.936031e-001 -4.488580e-001 4.274182e-017
      outer loop
         vertex 1.126620e+003 1.151033e+003 1.114425e+002
         vertex 1.126620e+003 1.151033e+003 5.940425e+002
         vertex 1.126269e+003 1.151785e+003 5.940425e+002
      endloop
   endfacet
   facet normal -9.182422e-001 -3.960194e-001 4.392033e-017
      outer loop
         vertex 1.126620e+003 1.151033e+003 1.114425e+002
         vertex 1.126269e+003 1.151785e+003 5.940425e+002
         vertex 1.126269e+003 1.151785e+003 1.114425e+002
      endloop
   endfacet
   facet normal -9.579706e-001 -2.868663e-001 4.582058e-017
      outer loop
         vertex 1.126269e+003 1.151785e+003 1.114425e+002
         vertex 1.126269e+003 1.151785e+003 5.940425e+002
         vertex 1.126054e+003 1.152587e+003 5.940425e+002
      endloop
   endfacet
   facet normal -9.730600e-001 -2.305519e-001 4.654232e-017
      outer loop
         vertex 1.126269e+003 1.151785e+003 1.114425e+002
         vertex 1.126054e+003 1.152587e+003 5.940425e+002
         vertex 1.126054e+003 1.152587e+003 1.114425e+002
      endloop
   endfacet
   facet normal -9.932307e-001 -1.161583e-001 4.750710e-017
      outer loop
         vertex 1.126054e+003 1.152587e+003 1.114425e+002
         vertex 1.126054e+003 1.152587e+003 5.940425e+002
         vertex 1.125982e+003 1.153414e+003 5.940425e+002
      endloop
   endfacet
   facet normal -9.983120e-001 -5.807914e-002 4.775014e-017
      outer loop
         vertex 1.126054e+003 1.152587e+003 1.114425e+002
         vertex 1.125982e+003 1.153414e+003 5.940425e+002
         vertex 1.125982e+003 1.153414e+003 1.114425e+002
      endloop
   endfacet
   facet normal -9.983120e-001 5.807914e-002 4.775014e-017
      outer loop
         vertex 1.125982e+003 1.153414e+003 1.114425e+002
         vertex 1.125982e+003 1.153414e+003 5.940425e+002
         vertex 1.126054e+003 1.154241e+003 5.940425e+002
      endloop
   endfacet
   facet normal -9.932307e-001 1.161583e-001 4.750710e-017
      outer loop
         vertex 1.125982e+003 1.153414e+003 1.114425e+002
         vertex 1.126054e+003 1.154241e+003 5.940425e+002
         vertex 1.126054e+003 1.154241e+003 1.114425e+002
      endloop
   endfacet
   facet normal -9.730600e-001 2.305519e-001 4.654232e-017
      outer loop
         vertex 1.126054e+003 1.154241e+003 1.114425e+002
         vertex 1.126054e+003 1.154241e+003 5.940425e+002
         vertex 1.126269e+003 1.155043e+003 5.940425e+002
      endloop
   endfacet
   facet normal -9.579706e-001 2.868663e-001 4.582058e-017
      outer loop
         vertex 1.126054e+003 1.154241e+003 1.114425e+002
         vertex 1.126269e+003 1.155043e+003 5.940425e+002
         vertex 1.126269e+003 1.155043e+003 1.114425e+002
      endloop
   endfacet
   facet normal -9.182422e-001 3.960194e-001 4.392033e-017
      outer loop
         vertex 1.126269e+003 1.155043e+003 1.114425e+002
         vertex 1.126269e+003 1.155043e+003 5.940425e+002
         vertex 1.126620e+003 1.155795e+003 5.940425e+002
      endloop
   endfacet
   facet normal -8.936031e-001 4.488580e-001 4.274182e-017
      outer loop
         vertex 1.126269e+003 1.155043e+003 1.114425e+002
         vertex 1.126620e+003 1.155795e+003 5.940425e+002
         vertex 1.126620e+003 1.155795e+003 1.114425e+002
      endloop
   endfacet
   facet normal -8.355240e-001 5.494540e-001 3.996384e-017
      outer loop
         vertex 1.126620e+003 1.155795e+003 1.114425e+002
         vertex 1.126620e+003 1.155795e+003 5.940425e+002
         vertex 1.127096e+003 1.156475e+003 5.940425e+002
      endloop
   endfacet
   facet normal -8.020839e-001 5.972114e-001 3.836438e-017
      outer loop
         vertex 1.126620e+003 1.155795e+003 1.114425e+002
         vertex 1.127096e+003 1.156475e+003 5.940425e+002
         vertex 1.127096e+003 1.156475e+003 1.114425e+002
      endloop
   endfacet
   facet normal -7.274188e-001 6.861938e-001 3.479308e-017
      outer loop
         vertex 1.127096e+003 1.156475e+003 1.114425e+002
         vertex 1.127096e+003 1.156475e+003 5.940425e+002
         vertex 1.127683e+003 1.157062e+003 5.940425e+002
      endloop
   endfacet
   facet normal -6.861938e-001 7.274188e-001 3.282125e-017
      outer loop
         vertex 1.127096e+003 1.156475e+003 1.114425e+002
         vertex 1.127683e+003 1.157062e+003 5.940425e+002
         vertex 1.127683e+003 1.157062e+003 1.114425e+002
      endloop
   endfacet
   facet normal -5.972114e-001 8.020839e-001 2.856514e-017
      outer loop
         vertex 1.127683e+003 1.157062e+003 1.114425e+002
         vertex 1.127683e+003 1.157062e+003 5.940425e+002
         vertex 1.128363e+003 1.157538e+003 5.940425e+002
      endloop
   endfacet
   facet normal -5.494540e-001 8.355240e-001 2.628087e-017
      outer loop
         vertex 1.127683e+003 1.157062e+003 1.114425e+002
         vertex 1.128363e+003 1.157538e+003 5.940425e+002
         vertex 1.128363e+003 1.157538e+003 1.114425e+002
      endloop
   endfacet
   facet normal -4.488580e-001 8.936031e-001 2.146927e-017
      outer loop
         vertex 1.128363e+003 1.157538e+003 1.114425e+002
         vertex 1.128363e+003 1.157538e+003 5.940425e+002
         vertex 1.129116e+003 1.157889e+003 5.940425e+002
      endloop
   endfacet
   facet normal -3.960194e-001 9.182422e-001 1.894196e-017
      outer loop
         vertex 1.128363e+003 1.157538e+003 1.114425e+002
         vertex 1.129116e+003 1.157889e+003 5.940425e+002
         vertex 1.129116e+003 1.157889e+003 1.114425e+002
      endloop
   endfacet
   facet normal -2.868663e-001 9.579706e-001 1.372107e-017
      outer loop
         vertex 1.129116e+003 1.157889e+003 1.114425e+002
         vertex 1.129116e+003 1.157889e+003 5.940425e+002
         vertex 1.129917e+003 1.158104e+003 5.940425e+002
      endloop
   endfacet
   facet normal -2.305519e-001 9.730600e-001 1.102750e-017
      outer loop
         vertex 1.129116e+003 1.157889e+003 1.114425e+002
         vertex 1.129917e+003 1.158104e+003 5.940425e+002
         vertex 1.129917e+003 1.158104e+003 1.114425e+002
      endloop
   endfacet
   facet normal -1.161583e-001 9.932307e-001 5.555953e-018
      outer loop
         vertex 1.129917e+003 1.158104e+003 1.114425e+002
         vertex 1.129917e+003 1.158104e+003 5.940425e+002
         vertex 1.130745e+003 1.158177e+003 5.940425e+002
      endloop
   endfacet
   facet normal -5.807914e-002 9.983120e-001 2.777976e-018
      outer loop
         vertex 1.129917e+003 1.158104e+003 1.114425e+002
         vertex 1.130745e+003 1.158177e+003 5.940425e+002
         vertex 1.130745e+003 1.158177e+003 1.114425e+002
      endloop
   endfacet
   facet normal 5.807914e-002 9.983120e-001 -2.777976e-018
      outer loop
         vertex 1.130745e+003 1.158177e+003 1.114425e+002
         vertex 1.130745e+003 1.158177e+003 5.940425e+002
         vertex 1.131572e+003 1.158104e+003 5.940425e+002
      endloop
   endfacet
   facet normal 1.161583e-001 9.932307e-001 -5.555953e-018
      outer loop
         vertex 1.130745e+003 1.158177e+003 1.114425e+002
         vertex 1.131572e+003 1.158104e+003 5.940425e+002
         vertex 1.131572e+003 1.158104e+003 1.114425e+002
      endloop
   endfacet
   facet normal 2.305519e-001 9.730600e-001 -1.102750e-017
      outer loop
         vertex 1.131572e+003 1.158104e+003 1.114425e+002
         vertex 1.131572e+003 1.158104e+003 5.940425e+002
         vertex 1.132373e+003 1.157889e+003 5.940425e+002
      endloop
   endfacet
   facet normal 2.868663e-001 9.579706e-001 -1.372107e-017
      outer loop
         vertex 1.131572e+003 1.158104e+003 1.114425e+002
         vertex 1.132373e+003 1.157889e+003 5.940425e+002
         vertex 1.132373e+003 1.157889e+003 1.114425e+002
      endloop
   endfacet
   facet normal 3.960194e-001 9.182422e-001 -1.894195e-017
      outer loop
         vertex 1.132373e+003 1.157889e+003 1.114425e+002
         vertex 1.132373e+003 1.157889e+003 5.940425e+002
         vertex 1.133126e+003 1.157538e+003 5.940425e+002
      endloop
   endfacet
   facet normal 4.488580e-001 8.936031e-001 -2.146927e-017
      outer loop
         vertex 1.132373e+003 1.157889e+003 1.114425e+002
         vertex 1.133126e+003 1.157538e+003 5.940425e+002
         vertex 1.133126e+003 1.157538e+003 1.114425e+002
      endloop
   endfacet
   facet normal 5.494540e-001 8.355240e-001 -2.628087e-017
      outer loop
         vertex 1.133126e+003 1.157538e+003 1.114425e+002
         vertex 1.133126e+003 1.157538e+003 5.940425e+002
         vertex 1.133806e+003 1.157062e+003 5.940425e+002
      endloop
   endfacet
   facet normal 5.972114e-001 8.020839e-001 -2.856514e-017
      outer loop
         vertex 1.133126e+003 1.157538e+003 1.114425e+002
         vertex 1.133806e+003 1.157062e+003 5.940425e+002
         vertex 1.133806e+003 1.157062e+003 1.114425e+002
      endloop
   endfacet
   facet normal 6.861938e-001 7.274188e-001 -3.282125e-017
      outer loop
         vertex 1.133806e+003 1.157062e+003 1.114425e+002
         vertex 1.133806e+003 1.157062e+003 5.940425e+002
         vertex 1.134393e+003 1.156475e+003 5.940425e+002
      endloop
   endfacet
   facet normal 7.274188e-001 6.861938e-001 -3.479308e-017
      outer loop
         vertex 1.133806e+003 1.157062e+003 1.114425e+002
         vertex 1.134393e+003 1.156475e+003 5.940425e+002
         vertex 1.134393e+003 1.156475e+003 1.114425e+002
      endloop
   endfacet
   facet normal 8.020839e-001 5.972114e-001 -3.836438e-017
      outer loop
         vertex 1.134393e+003 1.156475e+003 1.114425e+002
         vertex 1.134393e+003 1.156475e+003 5.940425e+002
         vertex 1.134869e+003 1.155795e+003 5.940425e+002
      endloop
   endfacet
   facet normal 8.355240e-001 5.494540e-001 -3.996384e-017
      outer loop
         vertex 1.134393e+003 1.156475e+003 1.114425e+002
         vertex 1.134869e+003 1.155795e+003 5.940425e+002
         vertex 1.134869e+003 1.155795e+003 1.114425e+002
      endloop
   endfacet
   facet normal 8.936031e-001 4.488580e-001 -4.274182e-017
      outer loop
         vertex 1.134869e+003 1.155795e+003 1.114425e+002
         vertex 1.134869e+003 1.155795e+003 5.940425e+002
         vertex 1.135220e+003 1.155043e+003 5.940425e+002
      endloop
   endfacet
   facet normal 9.182422e-001 3.960194e-001 -4.392033e-017
      outer loop
         vertex 1.134869e+003 1.155795e+003 1.114425e+002
         vertex 1.135220e+003 1.155043e+003 5.940425e+002
         vertex 1.135220e+003 1.155043e+003 1.114425e+002
      endloop
   endfacet
   facet normal 9.579706e-001 2.868663e-001 -4.582058e-017
      outer loop
         vertex 1.135220e+003 1.155043e+003 1.114425e+002
         vertex 1.135220e+003 1.155043e+003 5.940425e+002
         vertex 1.135435e+003 1.154241e+003 5.940425e+002
      endloop
   endfacet
   facet normal 9.730600e-001 2.305519e-001 -4.654232e-017
      outer loop
         vertex 1.135220e+003 1.155043e+003 1.114425e+002
         vertex 1.135435e+003 1.154241e+003 5.940425e+002
         vertex 1.135435e+003 1.154241e+003 1.114425e+002
      endloop
   endfacet
   facet normal 9.932307e-001 1.161583e-001 -4.750710e-017
      outer loop
         vertex 1.135435e+003 1.154241e+003 1.114425e+002
         vertex 1.135435e+003 1.154241e+003 5.940425e+002
         vertex 1.135507e+003 1.153414e+003 5.940425e+002
      endloop
   endfacet
   facet normal -4.783088e-017 1.402103e-027 -1.000000e+000
      outer loop
         vertex 1.135220e+003 1.151785e+003 1.114425e+002
         vertex 1.127096e+003 1.156475e+003 1.114425e+002
         vertex 1.135435e+003 1.152587e+003 1.114425e+002
      endloop
   endfacet
   facet normal -4.783088e-017 1.402103e-027 -1.000000e+000
      outer loop
         vertex 1.135435e+003 1.152587e+003 1.114425e+002
         vertex 1.127096e+003 1.156475e+003 1.114425e+002
         vertex 1.135507e+003 1.153414e+003 1.114425e+002
      endloop
   endfacet
   facet normal -4.783088e-017 1.402103e-027 -1.000000e+000
      outer loop
         vertex 1.126269e+003 1.155043e+003 1.114425e+002
         vertex 1.134393e+003 1.150353e+003 1.114425e+002
         vertex 1.126054e+003 1.154241e+003 1.114425e+002
      endloop
   endfacet
   facet normal -4.783088e-017 1.402103e-027 -1.000000e+000
      outer loop
         vertex 1.126054e+003 1.154241e+003 1.114425e+002
         vertex 1.134393e+003 1.150353e+003 1.114425e+002
         vertex 1.125982e+003 1.153414e+003 1.114425e+002
      endloop
   endfacet
   facet normal -4.783088e-017 1.402103e-027 -1.000000e+000
      outer loop
         vertex 1.135220e+003 1.151785e+003 1.114425e+002
         vertex 1.134869e+003 1.151033e+003 1.114425e+002
         vertex 1.127096e+003 1.156475e+003 1.114425e+002
      endloop
   endfacet
   facet normal -4.783088e-017 1.402103e-027 -1.000000e+000
      outer loop
         vertex 1.127096e+003 1.156475e+003 1.114425e+002
         vertex 1.134869e+003 1.151033e+003 1.114425e+002
         vertex 1.134393e+003 1.150353e+003 1.114425e+002
      endloop
   endfacet
   facet normal -4.783088e-017 1.402103e-027 -1.000000e+000
      outer loop
         vertex 1.127096e+003 1.156475e+003 1.114425e+002
         vertex 1.134393e+003 1.150353e+003 1.114425e+002
         vertex 1.126620e+003 1.155795e+003 1.114425e+002
      endloop
   endfacet
   facet normal -4.783088e-017 1.402103e-027 -1.000000e+000
      outer loop
         vertex 1.126620e+003 1.155795e+003 1.114425e+002
         vertex 1.134393e+003 1.150353e+003 1.114425e+002
         vertex 1.126269e+003 1.155043e+003 1.114425e+002
      endloop
   endfacet
   facet normal -4.783088e-017 1.402103e-027 -1.000000e+000
      outer loop
         vertex 1.134393e+003 1.150353e+003 1.114425e+002
         vertex 1.133806e+003 1.149766e+003 1.114425e+002
         vertex 1.125982e+003 1.153414e+003 1.114425e+002
      endloop
   endfacet
   facet normal -4.783088e-017 1.402103e-027 -1.000000e+000
      outer loop
         vertex 1.125982e+003 1.153414e+003 1.114425e+002
         vertex 1.133806e+003 1.149766e+003 1.114425e+002
         vertex 1.133126e+003 1.149290e+003 1.114425e+002
      endloop
   endfacet
   facet normal -4.783088e-017 1.402103e-027 -1.000000e+000
      outer loop
         vertex 1.125982e+003 1.153414e+003 1.114425e+002
         vertex 1.133126e+003 1.149290e+003 1.114425e+002
         vertex 1.132373e+003 1.148939e+003 1.114425e+002
      endloop
   endfacet
   facet normal -4.783088e-017 1.402103e-027 -1.000000e+000
      outer loop
         vertex 1.126269e+003 1.151785e+003 1.114425e+002
         vertex 1.126054e+003 1.152587e+003 1.114425e+002
         vertex 1.130745e+003 1.148651e+003 1.114425e+002
      endloop
   endfacet
   facet normal -4.783088e-017 1.402103e-027 -1.000000e+000
      outer loop
         vertex 1.130745e+003 1.148651e+003 1.114425e+002
         vertex 1.126054e+003 1.152587e+003 1.114425e+002
         vertex 1.125982e+003 1.153414e+003 1.114425e+002
      endloop
   endfacet
   facet normal -4.783088e-017 1.402103e-027 -1.000000e+000
      outer loop
         vertex 1.130745e+003 1.148651e+003 1.114425e+002
         vertex 1.125982e+003 1.153414e+003 1.114425e+002
         vertex 1.131572e+003 1.148724e+003 1.114425e+002
      endloop
   endfacet
   facet normal -4.783088e-017 1.402103e-027 -1.000000e+000
      outer loop
         vertex 1.131572e+003 1.148724e+003 1.114425e+002
         vertex 1.125982e+003 1.153414e+003 1.114425e+002
         vertex 1.132373e+003 1.148939e+003 1.114425e+002
      endloop
   endfacet
   facet normal -4.783088e-017 1.402103e-027 -1.000000e+000
      outer loop
         vertex 1.127096e+003 1.156475e+003 1.114425e+002
         vertex 1.127683e+003 1.157062e+003 1.114425e+002
         vertex 1.135507e+003 1.153414e+003 1.114425e+002
      endloop
   endfacet
   facet normal -4.783088e-017 1.402103e-027 -1.000000e+000
      outer loop
         vertex 1.135507e+003 1.153414e+003 1.114425e+002
         vertex 1.127683e+003 1.157062e+003 1.114425e+002
         vertex 1.128363e+003 1.157538e+003 1.114425e+002
      endloop
   endfacet
   facet normal -4.783088e-017 1.402103e-027 -1.000000e+000
      outer loop
         vertex 1.135507e+003 1.153414e+003 1.114425e+002
         vertex 1.128363e+003 1.157538e+003 1.114425e+002
         vertex 1.129116e+003 1.157889e+003 1.114425e+002
      endloop
   endfacet
   facet normal -4.783088e-017 1.402103e-027 -1.000000e+000
      outer loop
         vertex 1.129917e+003 1.148724e+003 1.114425e+002
         vertex 1.129116e+003 1.148939e+003 1.114425e+002
         vertex 1.130745e+003 1.148651e+003 1.114425e+002
      endloop
   endfacet
   facet normal -4.783088e-017 1.402103e-027 -1.000000e+000
      outer loop
         vertex 1.130745e+003 1.148651e+003 1.114425e+002
         vertex 1.129116e+003 1.148939e+003 1.114425e+002
         vertex 1.128363e+003 1.149290e+003 1.114425e+002
      endloop
   endfacet
   facet normal -4.783088e-017 1.402103e-027 -1.000000e+000
      outer loop
         vertex 1.130745e+003 1.148651e+003 1.114425e+002
         vertex 1.128363e+003 1.149290e+003 1.114425e+002
         vertex 1.127683e+003 1.149766e+003 1.114425e+002
      endloop
   endfacet
   facet normal -4.783088e-017 1.402103e-027 -1.000000e+000
      outer loop
         vertex 1.127683e+003 1.149766e+003 1.114425e+002
         vertex 1.127096e+003 1.150353e+003 1.114425e+002
         vertex 1.130745e+003 1.148651e+003 1.114425e+002
      endloop
   endfacet
   facet normal -4.783088e-017 1.402103e-027 -1.000000e+000
      outer loop
         vertex 1.130745e+003 1.148651e+003 1.114425e+002
         vertex 1.127096e+003 1.150353e+003 1.114425e+002
         vertex 1.126620e+003 1.151033e+003 1.114425e+002
      endloop
   endfacet
   facet normal -4.783088e-017 1.402103e-027 -1.000000e+000
      outer loop
         vertex 1.130745e+003 1.148651e+003 1.114425e+002
         vertex 1.126620e+003 1.151033e+003 1.114425e+002
         vertex 1.126269e+003 1.151785e+003 1.114425e+002
      endloop
   endfacet
   facet normal -4.783088e-017 1.402103e-027 -1.000000e+000
      outer loop
         vertex 1.135220e+003 1.155043e+003 1.114425e+002
         vertex 1.135435e+003 1.154241e+003 1.114425e+002
         vertex 1.130745e+003 1.158177e+003 1.114425e+002
      endloop
   endfacet
   facet normal -4.783088e-017 1.402103e-027 -1.000000e+000
      outer loop
         vertex 1.130745e+003 1.158177e+003 1.114425e+002
         vertex 1.135435e+003 1.154241e+003 1.114425e+002
         vertex 1.135507e+003 1.153414e+003 1.114425e+002
      endloop
   endfacet
   facet normal -4.783088e-017 1.402103e-027 -1.000000e+000
      outer loop
         vertex 1.130745e+003 1.158177e+003 1.114425e+002
         vertex 1.135507e+003 1.153414e+003 1.114425e+002
         vertex 1.129917e+003 1.158104e+003 1.114425e+002
      endloop
   endfacet
   facet normal -4.783088e-017 1.402103e-027 -1.000000e+000
      outer loop
         vertex 1.129917e+003 1.158104e+003 1.114425e+002
         vertex 1.135507e+003 1.153414e+003 1.114425e+002
         vertex 1.129116e+003 1.157889e+003 1.114425e+002
      endloop
   endfacet
   facet normal -4.783088e-017 1.402103e-027 -1.000000e+000
      outer loop
         vertex 1.131572e+003 1.158104e+003 1.114425e+002
         vertex 1.132373e+003 1.157889e+003 1.114425e+002
         vertex 1.130745e+003 1.158177e+003 1.114425e+002
      endloop
   endfacet
   facet normal -4.783088e-017 1.402103e-027 -1.000000e+000
      outer loop
         vertex 1.130745e+003 1.158177e+003 1.114425e+002
         vertex 1.132373e+003 1.157889e+003 1.114425e+002
         vertex 1.133126e+003 1.157538e+003 1.114425e+002
      endloop
   endfacet
   facet normal -4.783088e-017 1.402103e-027 -1.000000e+000
      outer loop
         vertex 1.130745e+003 1.158177e+003 1.114425e+002
         vertex 1.133126e+003 1.157538e+003 1.114425e+002
         vertex 1.133806e+003 1.157062e+003 1.114425e+002
      endloop
   endfacet
   facet normal -4.783088e-017 1.402103e-027 -1.000000e+000
      outer loop
         vertex 1.133806e+003 1.157062e+003 1.114425e+002
         vertex 1.134393e+003 1.156475e+003 1.114425e+002
         vertex 1.130745e+003 1.158177e+003 1.114425e+002
      endloop
   endfacet
   facet normal -4.783088e-017 1.402103e-027 -1.000000e+000
      outer loop
         vertex 1.130745e+003 1.158177e+003 1.114425e+002
         vertex 1.134393e+003 1.156475e+003 1.114425e+002
         vertex 1.134869e+003 1.155795e+003 1.114425e+002
      endloop
   endfacet
   facet normal -4.783088e-017 1.402103e-027 -1.000000e+000
      outer loop
         vertex 1.130745e+003 1.158177e+003 1.114425e+002
         vertex 1.134869e+003 1.155795e+003 1.114425e+002
         vertex 1.135220e+003 1.155043e+003 1.114425e+002
      endloop
   endfacet
   facet normal 4.783088e-017 -1.402103e-027 1.000000e+000
      outer loop
         vertex 1.134869e+003 1.151033e+003 5.940425e+002
         vertex 1.127096e+003 1.156475e+003 5.940425e+002
         vertex 1.134393e+003 1.150353e+003 5.940425e+002
      endloop
   endfacet
   facet normal 4.783088e-017 -1.402103e-027 1.000000e+000
      outer loop
         vertex 1.134393e+003 1.150353e+003 5.940425e+002
         vertex 1.127096e+003 1.156475e+003 5.940425e+002
         vertex 1.126620e+003 1.155795e+003 5.940425e+002
      endloop
   endfacet
   facet normal 4.783088e-017 -1.402103e-027 1.000000e+000
      outer loop
         vertex 1.134393e+003 1.150353e+003 5.940425e+002
         vertex 1.126620e+003 1.155795e+003 5.940425e+002
         vertex 1.126269e+003 1.155043e+003 5.940425e+002
      endloop
   endfacet
   facet normal 4.783088e-017 -1.402103e-027 1.000000e+000
      outer loop
         vertex 1.126054e+003 1.152587e+003 5.940425e+002
         vertex 1.126269e+003 1.151785e+003 5.940425e+002
         vertex 1.130745e+003 1.148651e+003 5.940425e+002
      endloop
   endfacet
   facet normal 4.783088e-017 -1.402103e-027 1.000000e+000
      outer loop
         vertex 1.132373e+003 1.148939e+003 5.940425e+002
         vertex 1.133126e+003 1.149290e+003 5.940425e+002
         vertex 1.125982e+003 1.153414e+003 5.940425e+002
      endloop
   endfacet
   facet normal 4.783088e-017 -1.402103e-027 1.000000e+000
      outer loop
         vertex 1.134869e+003 1.151033e+003 5.940425e+002
         vertex 1.135220e+003 1.151785e+003 5.940425e+002
         vertex 1.127096e+003 1.156475e+003 5.940425e+002
      endloop
   endfacet
   facet normal 4.783088e-017 -1.402103e-027 1.000000e+000
      outer loop
         vertex 1.127096e+003 1.156475e+003 5.940425e+002
         vertex 1.135220e+003 1.151785e+003 5.940425e+002
         vertex 1.135435e+003 1.152587e+003 5.940425e+002
      endloop
   endfacet
   facet normal 4.783088e-017 -1.402103e-027 1.000000e+000
      outer loop
         vertex 1.127096e+003 1.156475e+003 5.940425e+002
         vertex 1.135435e+003 1.152587e+003 5.940425e+002
         vertex 1.135507e+003 1.153414e+003 5.940425e+002
      endloop
   endfacet
   facet normal 4.783088e-017 -1.402103e-027 1.000000e+000
      outer loop
         vertex 1.126269e+003 1.155043e+003 5.940425e+002
         vertex 1.126054e+003 1.154241e+003 5.940425e+002
         vertex 1.134393e+003 1.150353e+003 5.940425e+002
      endloop
   endfacet
   facet normal 4.783088e-017 -1.402103e-027 1.000000e+000
      outer loop
         vertex 1.134393e+003 1.150353e+003 5.940425e+002
         vertex 1.126054e+003 1.154241e+003 5.940425e+002
         vertex 1.125982e+003 1.153414e+003 5.940425e+002
      endloop
   endfacet
   facet normal 4.783088e-017 -1.402103e-027 1.000000e+000
      outer loop
         vertex 1.134393e+003 1.150353e+003 5.940425e+002
         vertex 1.125982e+003 1.153414e+003 5.940425e+002
         vertex 1.133806e+003 1.149766e+003 5.940425e+002
      endloop
   endfacet
   facet normal 4.783088e-017 -1.402103e-027 1.000000e+000
      outer loop
         vertex 1.133806e+003 1.149766e+003 5.940425e+002
         vertex 1.125982e+003 1.153414e+003 5.940425e+002
         vertex 1.133126e+003 1.149290e+003 5.940425e+002
      endloop
   endfacet
   facet normal 4.783088e-017 -1.402103e-027 1.000000e+000
      outer loop
         vertex 1.135435e+003 1.154241e+003 5.940425e+002
         vertex 1.135220e+003 1.155043e+003 5.940425e+002
         vertex 1.130745e+003 1.158177e+003 5.940425e+002
      endloop
   endfacet
   facet normal 4.783088e-017 -1.402103e-027 1.000000e+000
      outer loop
         vertex 1.126054e+003 1.152587e+003 5.940425e+002
         vertex 1.130745e+003 1.148651e+003 5.940425e+002
         vertex 1.125982e+003 1.153414e+003 5.940425e+002
      endloop
   endfacet
   facet normal 4.783088e-017 -1.402103e-027 1.000000e+000
      outer loop
         vertex 1.125982e+003 1.153414e+003 5.940425e+002
         vertex 1.130745e+003 1.148651e+003 5.940425e+002
         vertex 1.131572e+003 1.148724e+003 5.940425e+002
      endloop
   endfacet
   facet normal 4.783088e-017 -1.402103e-027 1.000000e+000
      outer loop
         vertex 1.125982e+003 1.153414e+003 5.940425e+002
         vertex 1.131572e+003 1.148724e+003 5.940425e+002
         vertex 1.132373e+003 1.148939e+003 5.940425e+002
      endloop
   endfacet
   facet normal 4.783088e-017 -1.402103e-027 1.000000e+000
      outer loop
         vertex 1.129116e+003 1.157889e+003 5.940425e+002
         vertex 1.128363e+003 1.157538e+003 5.940425e+002
         vertex 1.135507e+003 1.153414e+003 5.940425e+002
      endloop
   endfacet
   facet normal 4.783088e-017 -1.402103e-027 1.000000e+000
      outer loop
         vertex 1.135507e+003 1.153414e+003 5.940425e+002
         vertex 1.128363e+003 1.157538e+003 5.940425e+002
         vertex 1.127683e+003 1.157062e+003 5.940425e+002
      endloop
   endfacet
   facet normal 4.783088e-017 -1.402103e-027 1.000000e+000
      outer loop
         vertex 1.135507e+003 1.153414e+003 5.940425e+002
         vertex 1.127683e+003 1.157062e+003 5.940425e+002
         vertex 1.127096e+003 1.156475e+003 5.940425e+002
      endloop
   endfacet
   facet normal 4.783088e-017 -1.402103e-027 1.000000e+000
      outer loop
         vertex 1.126269e+003 1.151785e+003 5.940425e+002
         vertex 1.126620e+003 1.151033e+003 5.940425e+002
         vertex 1.130745e+003 1.148651e+003 5.940425e+002
      endloop
   endfacet
   facet normal 4.783088e-017 -1.402103e-027 1.000000e+000
      outer loop
         vertex 1.130745e+003 1.148651e+003 5.940425e+002
         vertex 1.126620e+003 1.151033e+003 5.940425e+002
         vertex 1.127096e+003 1.150353e+003 5.940425e+002
      endloop
   endfacet
   facet normal 4.783088e-017 -1.402103e-027 1.000000e+000
      outer loop
         vertex 1.130745e+003 1.148651e+003 5.940425e+002
         vertex 1.127096e+003 1.150353e+003 5.940425e+002
         vertex 1.127683e+003 1.149766e+003 5.940425e+002
      endloop
   endfacet
   facet normal 4.783088e-017 -1.402103e-027 1.000000e+000
      outer loop
         vertex 1.127683e+003 1.149766e+003 5.940425e+002
         vertex 1.128363e+003 1.149290e+003 5.940425e+002
         vertex 1.130745e+003 1.148651e+003 5.940425e+002
      endloop
   endfacet
   facet normal 4.783088e-017 -1.402103e-027 1.000000e+000
      outer loop
         vertex 1.130745e+003 1.148651e+003 5.940425e+002
         vertex 1.128363e+003 1.149290e+003 5.940425e+002
         vertex 1.129116e+003 1.148939e+003 5.940425e+002
      endloop
   endfacet
   facet normal 4.783088e-017 -1.402103e-027 1.000000e+000
      outer loop
         vertex 1.130745e+003 1.148651e+003 5.940425e+002
         vertex 1.129116e+003 1.148939e+003 5.940425e+002
         vertex 1.129917e+003 1.148724e+003 5.940425e+002
      endloop
   endfacet
   facet normal 4.783088e-017 -1.402103e-027 1.000000e+000
      outer loop
         vertex 1.135220e+003 1.155043e+003 5.940425e+002
         vertex 1.134869e+003 1.155795e+003 5.940425e+002
         vertex 1.130745e+003 1.158177e+003 5.940425e+002
      endloop
   endfacet
   facet normal 4.783088e-017 -1.402103e-027 1.000000e+000
      outer loop
         vertex 1.130745e+003 1.158177e+003 5.940425e+002
         vertex 1.134869e+003 1.155795e+003 5.940425e+002
         vertex 1.134393e+003 1.156475e+003 5.940425e+002
      endloop
   endfacet
   facet normal 4.783088e-017 -1.402103e-027 1.000000e+000
      outer loop
         vertex 1.130745e+003 1.158177e+003 5.940425e+002
         vertex 1.134393e+003 1.156475e+003 5.940425e+002
         vertex 1.133806e+003 1.157062e+003 5.940425e+002
      endloop
   endfacet
   facet normal 4.783088e-017 -1.402103e-027 1.000000e+000
      outer loop
         vertex 1.133806e+003 1.157062e+003 5.940425e+002
         vertex 1.133126e+003 1.157538e+003 5.940425e+002
         vertex 1.130745e+003 1.158177e+003 5.940425e+002
      endloop
   endfacet
   facet normal 4.783088e-017 -1.402103e-027 1.000000e+000
      outer loop
         vertex 1.130745e+003 1.158177e+003 5.940425e+002
         vertex 1.133126e+003 1.157538e+003 5.940425e+002
         vertex 1.132373e+003 1.157889e+003 5.940425e+002
      endloop
   endfacet
   facet normal 4.783088e-017 -1.402103e-027 1.000000e+000
      outer loop
         vertex 1.130745e+003 1.158177e+003 5.940425e+002
         vertex 1.132373e+003 1.157889e+003 5.940425e+002
         vertex 1.131572e+003 1.158104e+003 5.940425e+002
      endloop
   endfacet
   facet normal 4.783088e-017 -1.402103e-027 1.000000e+000
      outer loop
         vertex 1.135435e+003 1.154241e+003 5.940425e+002
         vertex 1.130745e+003 1.158177e+003 5.940425e+002
         vertex 1.135507e+003 1.153414e+003 5.940425e+002
      endloop
   endfacet
   facet normal 4.783088e-017 -1.402103e-027 1.000000e+000
      outer loop
         vertex 1.135507e+003 1.153414e+003 5.940425e+002
         vertex 1.130745e+003 1.158177e+003 5.940425e+002
         vertex 1.129917e+003 1.158104e+003 5.940425e+002
      endloop
   endfacet
   facet normal 4.783088e-017 -1.402103e-027 1.000000e+000
      outer loop
         vertex 1.135507e+003 1.153414e+003 5.940425e+002
         vertex 1.129917e+003 1.158104e+003 5.940425e+002
         vertex 1.129116e+003 1.157889e+003 5.940425e+002
      endloop
   endfacet
endsolid