solid FPM - SideTop-1 103-RodYokes-1
   facet normal -9.983120e-001 5.807914e-002 7.551783e-017
      outer loop
         vertex 2.370543e+002 1.154241e+003 5.940425e+002
         vertex 2.369820e+002 1.153414e+003 1.114425e+002
         vertex 2.369820e+002 1.153414e+003 5.940425e+002
      endloop
   endfacet
   facet normal -9.983120e-001 -5.807914e-002 7.448806e-017
      outer loop
         vertex 2.369820e+002 1.153414e+003 5.940425e+002
         vertex 2.369820e+002 1.153414e+003 1.114425e+002
         vertex 2.370543e+002 1.152587e+003 1.114425e+002
      endloop
   endfacet
   facet normal -9.932307e-001 -1.161583e-001 7.359142e-017
      outer loop
         vertex 2.369820e+002 1.153414e+003 5.940425e+002
         vertex 2.370543e+002 1.152587e+003 1.114425e+002
         vertex 2.370543e+002 1.152587e+003 5.940425e+002
      endloop
   endfacet
   facet normal -9.730600e-001 -2.305519e-001 7.106188e-017
      outer loop
         vertex 2.370543e+002 1.152587e+003 5.940425e+002
         vertex 2.370543e+002 1.152587e+003 1.114425e+002
         vertex 2.372692e+002 1.151785e+003 1.114425e+002
      endloop
   endfacet
   facet normal -9.579706e-001 -2.868663e-001 6.942897e-017
      outer loop
         vertex 2.370543e+002 1.152587e+003 5.940425e+002
         vertex 2.372692e+002 1.151785e+003 1.114425e+002
         vertex 2.372692e+002 1.151785e+003 5.940425e+002
      endloop
   endfacet
   facet normal -9.182422e-001 -3.960194e-001 6.547651e-017
      outer loop
         vertex 2.372692e+002 1.151785e+003 5.940425e+002
         vertex 2.372692e+002 1.151785e+003 1.114425e+002
         vertex 2.376200e+002 1.151033e+003 1.114425e+002
      endloop
   endfacet
   facet normal -8.936031e-001 -4.488580e-001 6.315696e-017
      outer loop
         vertex 2.372692e+002 1.151785e+003 5.940425e+002
         vertex 2.376200e+002 1.151033e+003 1.114425e+002
         vertex 2.376200e+002 1.151033e+003 5.940425e+002
      endloop
   endfacet
   facet normal -8.355240e-001 -5.494540e-001 5.790168e-017
      outer loop
         vertex 2.376200e+002 1.151033e+003 5.940425e+002
         vertex 2.376200e+002 1.151033e+003 1.114425e+002
         vertex 2.380962e+002 1.150353e+003 1.114425e+002
      endloop
   endfacet
   facet normal -8.020839e-001 -5.972114e-001 5.496595e-017
      outer loop
         vertex 2.376200e+002 1.151033e+003 5.940425e+002
         vertex 2.380962e+002 1.150353e+003 1.114425e+002
         vertex 2.380962e+002 1.150353e+003 5.940425e+002
      endloop
   endfacet
   facet normal -7.274188e-001 -6.861938e-001 4.856753e-017
      outer loop
         vertex 2.380962e+002 1.150353e+003 5.940425e+002
         vertex 2.380962e+002 1.150353e+003 1.114425e+002
         vertex 2.386832e+002 1.149766e+003 1.114425e+002
      endloop
   endfacet
   facet normal -6.861938e-001 -7.274188e-001 4.510484e-017
      outer loop
         vertex 2.380962e+002 1.150353e+003 5.940425e+002
         vertex 2.386832e+002 1.149766e+003 1.114425e+002
         vertex 2.386832e+002 1.149766e+003 5.940425e+002
      endloop
   endfacet
   facet normal -5.972114e-001 -8.020839e-001 3.775768e-017
      outer loop
         vertex 2.386832e+002 1.149766e+003 5.940425e+002
         vertex 2.386832e+002 1.149766e+003 1.114425e+002
         vertex 2.393632e+002 1.149290e+003 1.114425e+002
      endloop
   endfacet
   facet normal -5.494540e-001 -8.355240e-001 3.387323e-017
      outer loop
         vertex 2.386832e+002 1.149766e+003 5.940425e+002
         vertex 2.393632e+002 1.149290e+003 1.114425e+002
         vertex 2.393632e+002 1.149290e+003 5.940425e+002
      endloop
   endfacet
   facet normal -4.488580e-001 -8.936031e-001 2.580059e-017
      outer loop
         vertex 2.393632e+002 1.149290e+003 5.940425e+002
         vertex 2.393632e+002 1.149290e+003 1.114425e+002
         vertex 2.401156e+002 1.148939e+003 1.114425e+002
      endloop
   endfacet
   facet normal -3.960194e-001 -9.182422e-001 2.161241e-017
      outer loop
         vertex 2.393632e+002 1.149290e+003 5.940425e+002
         vertex 2.401156e+002 1.148939e+003 1.114425e+002
         vertex 2.401156e+002 1.148939e+003 5.940425e+002
      endloop
   endfacet
   facet normal -2.868663e-001 -9.579706e-001 1.305956e-017
      outer loop
         vertex 2.401156e+002 1.148939e+003 5.940425e+002
         vertex 2.401156e+002 1.148939e+003 1.114425e+002
         vertex 2.409175e+002 1.148724e+003 1.114425e+002
      endloop
   endfacet
   facet normal -2.305519e-001 -9.730600e-001 8.694897e-018
      outer loop
         vertex 2.401156e+002 1.148939e+003 5.940425e+002
         vertex 2.409175e+002 1.148724e+003 1.114425e+002
         vertex 2.409175e+002 1.148724e+003 5.940425e+002
      endloop
   endfacet
   facet normal -1.161583e-001 -9.932307e-001 -7.828367e-020
      outer loop
         vertex 2.409175e+002 1.148724e+003 5.940425e+002
         vertex 2.409175e+002 1.148724e+003 1.114425e+002
         vertex 2.417445e+002 1.148651e+003 1.114425e+002
      endloop
   endfacet
   facet normal -5.807914e-002 -9.983120e-001 -4.486803e-018
      outer loop
         vertex 2.409175e+002 1.148724e+003 5.940425e+002
         vertex 2.417445e+002 1.148651e+003 1.114425e+002
         vertex 2.417445e+002 1.148651e+003 5.940425e+002
      endloop
   endfacet
   facet normal 5.807914e-002 -9.983120e-001 -1.321375e-017
      outer loop
         vertex 2.417445e+002 1.148651e+003 5.940425e+002
         vertex 2.417445e+002 1.148651e+003 1.114425e+002
         vertex 2.425715e+002 1.148724e+003 1.114425e+002
      endloop
   endfacet
   facet normal 1.161583e-001 -9.932307e-001 -1.753217e-017
      outer loop
         vertex 2.417445e+002 1.148651e+003 5.940425e+002
         vertex 2.425715e+002 1.148724e+003 1.114425e+002
         vertex 2.425715e+002 1.148724e+003 5.940425e+002
      endloop
   endfacet
   facet normal 2.305519e-001 -9.730600e-001 -2.594772e-017
      outer loop
         vertex 2.425715e+002 1.148724e+003 5.940425e+002
         vertex 2.425715e+002 1.148724e+003 1.114425e+002
         vertex 2.433734e+002 1.148939e+003 1.114425e+002
      endloop
   endfacet
   facet normal 2.868663e-001 -9.579706e-001 -3.004483e-017
      outer loop
         vertex 2.425715e+002 1.148724e+003 5.940425e+002
         vertex 2.433734e+002 1.148939e+003 1.114425e+002
         vertex 2.433734e+002 1.148939e+003 5.940425e+002
      endloop
   endfacet
   facet normal 3.960194e-001 -9.182422e-001 -3.789328e-017
      outer loop
         vertex 2.433734e+002 1.148939e+003 5.940425e+002
         vertex 2.433734e+002 1.148939e+003 1.114425e+002
         vertex 2.441257e+002 1.149290e+003 1.114425e+002
      endloop
   endfacet
   facet normal 4.488580e-001 -8.936031e-001 -4.164460e-017
      outer loop
         vertex 2.433734e+002 1.148939e+003 5.940425e+002
         vertex 2.441257e+002 1.149290e+003 1.114425e+002
         vertex 2.441257e+002 1.149290e+003 5.940425e+002
      endloop
   endfacet
   facet normal 5.494540e-001 -8.355240e-001 -4.868747e-017
      outer loop
         vertex 2.441257e+002 1.149290e+003 5.940425e+002
         vertex 2.441257e+002 1.149290e+003 1.114425e+002
         vertex 2.448058e+002 1.149766e+003 1.114425e+002
      endloop
   endfacet
   facet normal 5.972114e-001 -8.020839e-001 -5.197902e-017
      outer loop
         vertex 2.441257e+002 1.149290e+003 5.940425e+002
         vertex 2.448058e+002 1.149766e+003 1.114425e+002
         vertex 2.448058e+002 1.149766e+003 5.940425e+002
      endloop
   endfacet
   facet normal 6.861938e-001 -7.274188e-001 -5.800232e-017
      outer loop
         vertex 2.448058e+002 1.149766e+003 5.940425e+002
         vertex 2.448058e+002 1.149766e+003 1.114425e+002
         vertex 2.453928e+002 1.150353e+003 1.114425e+002
      endloop
   endfacet
   facet normal 7.274188e-001 -6.861938e-001 -6.073408e-017
      outer loop
         vertex 2.448058e+002 1.149766e+003 5.940425e+002
         vertex 2.453928e+002 1.150353e+003 1.114425e+002
         vertex 2.453928e+002 1.150353e+003 5.940425e+002
      endloop
   endfacet
   facet normal 8.020839e-001 -5.972114e-001 -6.555480e-017
      outer loop
         vertex 2.453928e+002 1.150353e+003 5.940425e+002
         vertex 2.453928e+002 1.150353e+003 1.114425e+002
         vertex 2.458689e+002 1.151033e+003 1.114425e+002
      endloop
   endfacet
   facet normal 8.355240e-001 -5.494540e-001 -6.764376e-017
      outer loop
         vertex 2.453928e+002 1.150353e+003 5.940425e+002
         vertex 2.458689e+002 1.151033e+003 1.114425e+002
         vertex 2.458689e+002 1.151033e+003 5.940425e+002
      endloop
   endfacet
   facet normal 8.936031e-001 -4.488580e-001 -7.111542e-017
      outer loop
         vertex 2.458689e+002 1.151033e+003 5.940425e+002
         vertex 2.458689e+002 1.151033e+003 1.114425e+002
         vertex 2.462198e+002 1.151785e+003 1.114425e+002
      endloop
   endfacet
   facet normal 9.182422e-001 -3.960194e-001 -7.249813e-017
      outer loop
         vertex 2.458689e+002 1.151033e+003 5.940425e+002
         vertex 2.462198e+002 1.151785e+003 1.114425e+002
         vertex 2.462198e+002 1.151785e+003 5.940425e+002
      endloop
   endfacet
   facet normal 9.579706e-001 -2.868663e-001 -7.451525e-017
      outer loop
         vertex 2.462198e+002 1.151785e+003 5.940425e+002
         vertex 2.462198e+002 1.151785e+003 1.114425e+002
         vertex 2.464346e+002 1.152587e+003 1.114425e+002
      endloop
   endfacet
   facet normal 9.730600e-001 -2.305519e-001 -7.514967e-017
      outer loop
         vertex 2.462198e+002 1.151785e+003 5.940425e+002
         vertex 2.464346e+002 1.152587e+003 1.114425e+002
         vertex 2.464346e+002 1.152587e+003 5.940425e+002
      endloop
   endfacet
   facet normal 9.932307e-001 -1.161583e-001 -7.565096e-017
      outer loop
         vertex 2.464346e+002 1.152587e+003 5.940425e+002
         vertex 2.464346e+002 1.152587e+003 1.114425e+002
         vertex 2.465070e+002 1.153414e+003 1.114425e+002
      endloop
   endfacet
   facet normal 9.983120e-001 -5.807914e-002 -7.551783e-017
      outer loop
         vertex 2.464346e+002 1.152587e+003 5.940425e+002
         vertex 2.465070e+002 1.153414e+003 1.114425e+002
         vertex 2.465070e+002 1.153414e+003 5.940425e+002
      endloop
   endfacet
   facet normal 9.983120e-001 5.807914e-002 -7.448806e-017
      outer loop
         vertex 2.465070e+002 1.153414e+003 5.940425e+002
         vertex 2.465070e+002 1.153414e+003 1.114425e+002
         vertex 2.464346e+002 1.154241e+003 1.114425e+002
      endloop
   endfacet
   facet normal 9.932307e-001 1.161583e-001 -7.359142e-017
      outer loop
         vertex 2.465070e+002 1.153414e+003 5.940425e+002
         vertex 2.464346e+002 1.154241e+003 1.114425e+002
         vertex 2.464346e+002 1.154241e+003 5.940425e+002
      endloop
   endfacet
   facet normal 9.730600e-001 2.305519e-001 -7.106188e-017
      outer loop
         vertex 2.464346e+002 1.154241e+003 5.940425e+002
         vertex 2.464346e+002 1.154241e+003 1.114425e+002
         vertex 2.462198e+002 1.155043e+003 1.114425e+002
      endloop
   endfacet
   facet normal 9.579706e-001 2.868663e-001 -6.942897e-017
      outer loop
         vertex 2.464346e+002 1.154241e+003 5.940425e+002
         vertex 2.462198e+002 1.155043e+003 1.114425e+002
         vertex 2.462198e+002 1.155043e+003 5.940425e+002
      endloop
   endfacet
   facet normal 9.182422e-001 3.960194e-001 -6.547651e-017
      outer loop
         vertex 2.462198e+002 1.155043e+003 5.940425e+002
         vertex 2.462198e+002 1.155043e+003 1.114425e+002
         vertex 2.458689e+002 1.155795e+003 1.114425e+002
      endloop
   endfacet
   facet normal 8.936031e-001 4.488580e-001 -6.315696e-017
      outer loop
         vertex 2.462198e+002 1.155043e+003 5.940425e+002
         vertex 2.458689e+002 1.155795e+003 1.114425e+002
         vertex 2.458689e+002 1.155795e+003 5.940425e+002
      endloop
   endfacet
   facet normal 8.355240e-001 5.494540e-001 -5.790168e-017
      outer loop
         vertex 2.458689e+002 1.155795e+003 5.940425e+002
         vertex 2.458689e+002 1.155795e+003 1.114425e+002
         vertex 2.453928e+002 1.156475e+003 1.114425e+002
      endloop
   endfacet
   facet normal 8.020839e-001 5.972114e-001 -5.496595e-017
      outer loop
         vertex 2.458689e+002 1.155795e+003 5.940425e+002
         vertex 2.453928e+002 1.156475e+003 1.114425e+002
         vertex 2.453928e+002 1.156475e+003 5.940425e+002
      endloop
   endfacet
   facet normal 7.274188e-001 6.861938e-001 -4.856753e-017
      outer loop
         vertex 2.453928e+002 1.156475e+003 5.940425e+002
         vertex 2.453928e+002 1.156475e+003 1.114425e+002
         vertex 2.448058e+002 1.157062e+003 1.114425e+002
      endloop
   endfacet
   facet normal 6.861938e-001 7.274188e-001 -4.510484e-017
      outer loop
         vertex 2.453928e+002 1.156475e+003 5.940425e+002
         vertex 2.448058e+002 1.157062e+003 1.114425e+002
         vertex 2.448058e+002 1.157062e+003 5.940425e+002
      endloop
   endfacet
   facet normal 5.972114e-001 8.020839e-001 -3.775768e-017
      outer loop
         vertex 2.448058e+002 1.157062e+003 5.940425e+002
         vertex 2.448058e+002 1.157062e+003 1.114425e+002
         vertex 2.441257e+002 1.157538e+003 1.114425e+002
      endloop
   endfacet
   facet normal 5.494540e-001 8.355240e-001 -3.387323e-017
      outer loop
         vertex 2.448058e+002 1.157062e+003 5.940425e+002
         vertex 2.441257e+002 1.157538e+003 1.114425e+002
         vertex 2.441257e+002 1.157538e+003 5.940425e+002
      endloop
   endfacet
   facet normal 4.488580e-001 8.936031e-001 -2.580059e-017
      outer loop
         vertex 2.441257e+002 1.157538e+003 5.940425e+002
         vertex 2.441257e+002 1.157538e+003 1.114425e+002
         vertex 2.433734e+002 1.157889e+003 1.114425e+002
      endloop
   endfacet
   facet normal 3.960194e-001 9.182422e-001 -2.161241e-017
      outer loop
         vertex 2.441257e+002 1.157538e+003 5.940425e+002
         vertex 2.433734e+002 1.157889e+003 1.114425e+002
         vertex 2.433734e+002 1.157889e+003 5.940425e+002
      endloop
   endfacet
   facet normal 2.868663e-001 9.579706e-001 -1.305956e-017
      outer loop
         vertex 2.433734e+002 1.157889e+003 5.940425e+002
         vertex 2.433734e+002 1.157889e+003 1.114425e+002
         vertex 2.425715e+002 1.158104e+003 1.114425e+002
      endloop
   endfacet
   facet normal 2.305519e-001 9.730600e-001 -8.694897e-018
      outer loop
         vertex 2.433734e+002 1.157889e+003 5.940425e+002
         vertex 2.425715e+002 1.158104e+003 1.114425e+002
         vertex 2.425715e+002 1.158104e+003 5.940425e+002
      endloop
   endfacet
   facet normal 1.161583e-001 9.932307e-001 7.828367e-020
      outer loop
         vertex 2.425715e+002 1.158104e+003 5.940425e+002
         vertex 2.425715e+002 1.158104e+003 1.114425e+002
         vertex 2.417445e+002 1.158177e+003 1.114425e+002
      endloop
   endfacet
   facet normal 5.807914e-002 9.983120e-001 4.486803e-018
      outer loop
         vertex 2.425715e+002 1.158104e+003 5.940425e+002
         vertex 2.417445e+002 1.158177e+003 1.114425e+002
         vertex 2.417445e+002 1.158177e+003 5.940425e+002
      endloop
   endfacet
   facet normal -5.807914e-002 9.983120e-001 1.321375e-017
      outer loop
         vertex 2.417445e+002 1.158177e+003 5.940425e+002
         vertex 2.417445e+002 1.158177e+003 1.114425e+002
         vertex 2.409175e+002 1.158104e+003 1.114425e+002
      endloop
   endfacet
   facet normal -1.161583e-001 9.932307e-001 1.753217e-017
      outer loop
         vertex 2.417445e+002 1.158177e+003 5.940425e+002
         vertex 2.409175e+002 1.158104e+003 1.114425e+002
         vertex 2.409175e+002 1.158104e+003 5.940425e+002
      endloop
   endfacet
   facet normal -2.305519e-001 9.730600e-001 2.594772e-017
      outer loop
         vertex 2.409175e+002 1.158104e+003 5.940425e+002
         vertex 2.409175e+002 1.158104e+003 1.114425e+002
         vertex 2.401156e+002 1.157889e+003 1.114425e+002
      endloop
   endfacet
   facet normal -2.868663e-001 9.579706e-001 3.004483e-017
      outer loop
         vertex 2.409175e+002 1.158104e+003 5.940425e+002
         vertex 2.401156e+002 1.157889e+003 1.114425e+002
         vertex 2.401156e+002 1.157889e+003 5.940425e+002
      endloop
   endfacet
   facet normal -3.960194e-001 9.182422e-001 3.789328e-017
      outer loop
         vertex 2.401156e+002 1.157889e+003 5.940425e+002
         vertex 2.401156e+002 1.157889e+003 1.114425e+002
         vertex 2.393632e+002 1.157538e+003 1.114425e+002
      endloop
   endfacet
   facet normal -4.488580e-001 8.936031e-001 4.164460e-017
      outer loop
         vertex 2.401156e+002 1.157889e+003 5.940425e+002
         vertex 2.393632e+002 1.157538e+003 1.114425e+002
         vertex 2.393632e+002 1.157538e+003 5.940425e+002
      endloop
   endfacet
   facet normal -5.494540e-001 8.355240e-001 4.868747e-017
      outer loop
         vertex 2.393632e+002 1.157538e+003 5.940425e+002
         vertex 2.393632e+002 1.157538e+003 1.114425e+002
         vertex 2.386832e+002 1.157062e+003 1.114425e+002
      endloop
   endfacet
   facet normal -5.972114e-001 8.020839e-001 5.197902e-017
      outer loop
         vertex 2.393632e+002 1.157538e+003 5.940425e+002
         vertex 2.386832e+002 1.157062e+003 1.114425e+002
         vertex 2.386832e+002 1.157062e+003 5.940425e+002
      endloop
   endfacet
   facet normal -6.861938e-001 7.274188e-001 5.800232e-017
      outer loop
         vertex 2.386832e+002 1.157062e+003 5.940425e+002
         vertex 2.386832e+002 1.157062e+003 1.114425e+002
         vertex 2.380962e+002 1.156475e+003 1.114425e+002
      endloop
   endfacet
   facet normal -7.274188e-001 6.861938e-001 6.073408e-017
      outer loop
         vertex 2.386832e+002 1.157062e+003 5.940425e+002
         vertex 2.380962e+002 1.156475e+003 1.114425e+002
         vertex 2.380962e+002 1.156475e+003 5.940425e+002
      endloop
   endfacet
   facet normal -8.020839e-001 5.972114e-001 6.555480e-017
      outer loop
         vertex 2.380962e+002 1.156475e+003 5.940425e+002
         vertex 2.380962e+002 1.156475e+003 1.114425e+002
         vertex 2.376200e+002 1.155795e+003 1.114425e+002
      endloop
   endfacet
   facet normal -8.355240e-001 5.494540e-001 6.764376e-017
      outer loop
         vertex 2.380962e+002 1.156475e+003 5.940425e+002
         vertex 2.376200e+002 1.155795e+003 1.114425e+002
         vertex 2.376200e+002 1.155795e+003 5.940425e+002
      endloop
   endfacet
   facet normal -8.936031e-001 4.488580e-001 7.111542e-017
      outer loop
         vertex 2.376200e+002 1.155795e+003 5.940425e+002
         vertex 2.376200e+002 1.155795e+003 1.114425e+002
         vertex 2.372692e+002 1.155043e+003 1.114425e+002
      endloop
   endfacet
   facet normal -9.182422e-001 3.960194e-001 7.249813e-017
      outer loop
         vertex 2.376200e+002 1.155795e+003 5.940425e+002
         vertex 2.372692e+002 1.155043e+003 1.114425e+002
         vertex 2.372692e+002 1.155043e+003 5.940425e+002
      endloop
   endfacet
   facet normal -9.579706e-001 2.868663e-001 7.451525e-017
      outer loop
         vertex 2.372692e+002 1.155043e+003 5.940425e+002
         vertex 2.372692e+002 1.155043e+003 1.114425e+002
         vertex 2.370543e+002 1.154241e+003 1.114425e+002
      endloop
   endfacet
   facet normal -9.730600e-001 2.305519e-001 7.514967e-017
      outer loop
         vertex 2.372692e+002 1.155043e+003 5.940425e+002
         vertex 2.370543e+002 1.154241e+003 1.114425e+002
         vertex 2.370543e+002 1.154241e+003 5.940425e+002
      endloop
   endfacet
   facet normal -9.932307e-001 1.161583e-001 7.565096e-017
      outer loop
         vertex 2.370543e+002 1.154241e+003 5.940425e+002
         vertex 2.370543e+002 1.154241e+003 1.114425e+002
         vertex 2.369820e+002 1.153414e+003 1.114425e+002
      endloop
   endfacet
   facet normal 7.512976e-017 -8.865240e-018 1.000000e+000
      outer loop
         vertex 2.372692e+002 1.151785e+003 5.940425e+002
         vertex 2.453928e+002 1.156475e+003 5.940425e+002
         vertex 2.370543e+002 1.152587e+003 5.940425e+002
      endloop
   endfacet
   facet normal 7.512976e-017 -8.865240e-018 1.000000e+000
      outer loop
         vertex 2.370543e+002 1.152587e+003 5.940425e+002
         vertex 2.453928e+002 1.156475e+003 5.940425e+002
         vertex 2.369820e+002 1.153414e+003 5.940425e+002
      endloop
   endfacet
   facet normal 7.512976e-017 -8.865240e-018 1.000000e+000
      outer loop
         vertex 2.462198e+002 1.155043e+003 5.940425e+002
         vertex 2.380962e+002 1.150353e+003 5.940425e+002
         vertex 2.464346e+002 1.154241e+003 5.940425e+002
      endloop
   endfacet
   facet normal 7.512976e-017 -8.865240e-018 1.000000e+000
      outer loop
         vertex 2.464346e+002 1.154241e+003 5.940425e+002
         vertex 2.380962e+002 1.150353e+003 5.940425e+002
         vertex 2.465070e+002 1.153414e+003 5.940425e+002
      endloop
   endfacet
   facet normal 7.512976e-017 -8.865240e-018 1.000000e+000
      outer loop
         vertex 2.372692e+002 1.151785e+003 5.940425e+002
         vertex 2.376200e+002 1.151033e+003 5.940425e+002
         vertex 2.453928e+002 1.156475e+003 5.940425e+002
      endloop
   endfacet
   facet normal 7.512976e-017 -8.865240e-018 1.000000e+000
      outer loop
         vertex 2.453928e+002 1.156475e+003 5.940425e+002
         vertex 2.376200e+002 1.151033e+003 5.940425e+002
         vertex 2.380962e+002 1.150353e+003 5.940425e+002
      endloop
   endfacet
   facet normal 7.512976e-017 -8.865240e-018 1.000000e+000
      outer loop
         vertex 2.453928e+002 1.156475e+003 5.940425e+002
         vertex 2.380962e+002 1.150353e+003 5.940425e+002
         vertex 2.458689e+002 1.155795e+003 5.940425e+002
      endloop
   endfacet
   facet normal 7.512976e-017 -8.865240e-018 1.000000e+000
      outer loop
         vertex 2.458689e+002 1.155795e+003 5.940425e+002
         vertex 2.380962e+002 1.150353e+003 5.940425e+002
         vertex 2.462198e+002 1.155043e+003 5.940425e+002
      endloop
   endfacet
   facet normal 7.512976e-017 -8.865240e-018 1.000000e+000
      outer loop
         vertex 2.380962e+002 1.150353e+003 5.940425e+002
         vertex 2.386832e+002 1.149766e+003 5.940425e+002
         vertex 2.465070e+002 1.153414e+003 5.940425e+002
      endloop
   endfacet
   facet normal 7.512976e-017 -8.865240e-018 1.000000e+000
      outer loop
         vertex 2.465070e+002 1.153414e+003 5.940425e+002
         vertex 2.386832e+002 1.149766e+003 5.940425e+002
         vertex 2.393632e+002 1.149290e+003 5.940425e+002
      endloop
   endfacet
   facet normal 7.512976e-017 -8.865240e-018 1.000000e+000
      outer loop
         vertex 2.465070e+002 1.153414e+003 5.940425e+002
         vertex 2.393632e+002 1.149290e+003 5.940425e+002
         vertex 2.401156e+002 1.148939e+003 5.940425e+002
      endloop
   endfacet
   facet normal 7.512976e-017 -8.865240e-018 1.000000e+000
      outer loop
         vertex 2.462198e+002 1.151785e+003 5.940425e+002
         vertex 2.464346e+002 1.152587e+003 5.940425e+002
         vertex 2.417445e+002 1.148651e+003 5.940425e+002
      endloop
   endfacet
   facet normal 7.512976e-017 -8.865240e-018 1.000000e+000
      outer loop
         vertex 2.417445e+002 1.148651e+003 5.940425e+002
         vertex 2.464346e+002 1.152587e+003 5.940425e+002
         vertex 2.465070e+002 1.153414e+003 5.940425e+002
      endloop
   endfacet
   facet normal 7.512976e-017 -8.865240e-018 1.000000e+000
      outer loop
         vertex 2.417445e+002 1.148651e+003 5.940425e+002
         vertex 2.465070e+002 1.153414e+003 5.940425e+002
         vertex 2.409175e+002 1.148724e+003 5.940425e+002
      endloop
   endfacet
   facet normal 7.512976e-017 -8.865240e-018 1.000000e+000
      outer loop
         vertex 2.409175e+002 1.148724e+003 5.940425e+002
         vertex 2.465070e+002 1.153414e+003 5.940425e+002
         vertex 2.401156e+002 1.148939e+003 5.940425e+002
      endloop
   endfacet
   facet normal 7.512976e-017 -8.865240e-018 1.000000e+000
      outer loop
         vertex 2.453928e+002 1.156475e+003 5.940425e+002
         vertex 2.448058e+002 1.157062e+003 5.940425e+002
         vertex 2.369820e+002 1.153414e+003 5.940425e+002
      endloop
   endfacet
   facet normal 7.512976e-017 -8.865240e-018 1.000000e+000
      outer loop
         vertex 2.369820e+002 1.153414e+003 5.940425e+002
         vertex 2.448058e+002 1.157062e+003 5.940425e+002
         vertex 2.441257e+002 1.157538e+003 5.940425e+002
      endloop
   endfacet
   facet normal 7.512976e-017 -8.865240e-018 1.000000e+000
      outer loop
         vertex 2.369820e+002 1.153414e+003 5.940425e+002
         vertex 2.441257e+002 1.157538e+003 5.940425e+002
         vertex 2.433734e+002 1.157889e+003 5.940425e+002
      endloop
   endfacet
   facet normal 7.512976e-017 -8.865240e-018 1.000000e+000
      outer loop
         vertex 2.425715e+002 1.148724e+003 5.940425e+002
         vertex 2.433734e+002 1.148939e+003 5.940425e+002
         vertex 2.417445e+002 1.148651e+003 5.940425e+002
      endloop
   endfacet
   facet normal 7.512976e-017 -8.865240e-018 1.000000e+000
      outer loop
         vertex 2.417445e+002 1.148651e+003 5.940425e+002
         vertex 2.433734e+002 1.148939e+003 5.940425e+002
         vertex 2.441257e+002 1.149290e+003 5.940425e+002
      endloop
   endfacet
   facet normal 7.512976e-017 -8.865240e-018 1.000000e+000
      outer loop
         vertex 2.417445e+002 1.148651e+003 5.940425e+002
         vertex 2.441257e+002 1.149290e+003 5.940425e+002
         vertex 2.448058e+002 1.149766e+003 5.940425e+002
      endloop
   endfacet
   facet normal 7.512976e-017 -8.865240e-018 1.000000e+000
      outer loop
         vertex 2.448058e+002 1.149766e+003 5.940425e+002
         vertex 2.453928e+002 1.150353e+003 5.940425e+002
         vertex 2.417445e+002 1.148651e+003 5.940425e+002
      endloop
   endfacet
   facet normal 7.512976e-017 -8.865240e-018 1.000000e+000
      outer loop
         vertex 2.417445e+002 1.148651e+003 5.940425e+002
         vertex 2.453928e+002 1.150353e+003 5.940425e+002
         vertex 2.458689e+002 1.151033e+003 5.940425e+002
      endloop
   endfacet
   facet normal 7.512976e-017 -8.865240e-018 1.000000e+000
      outer loop
         vertex 2.417445e+002 1.148651e+003 5.940425e+002
         vertex 2.458689e+002 1.151033e+003 5.940425e+002
         vertex 2.462198e+002 1.151785e+003 5.940425e+002
      endloop
   endfacet
   facet normal 7.512976e-017 -8.865240e-018 1.000000e+000
      outer loop
         vertex 2.372692e+002 1.155043e+003 5.940425e+002
         vertex 2.370543e+002 1.154241e+003 5.940425e+002
         vertex 2.417445e+002 1.158177e+003 5.940425e+002
      endloop
   endfacet
   facet normal 7.512976e-017 -8.865240e-018 1.000000e+000
      outer loop
         vertex 2.417445e+002 1.158177e+003 5.940425e+002
         vertex 2.370543e+002 1.154241e+003 5.940425e+002
         vertex 2.369820e+002 1.153414e+003 5.940425e+002
      endloop
   endfacet
   facet normal 7.512976e-017 -8.865240e-018 1.000000e+000
      outer loop
         vertex 2.417445e+002 1.158177e+003 5.940425e+002
         vertex 2.369820e+002 1.153414e+003 5.940425e+002
         vertex 2.425715e+002 1.158104e+003 5.940425e+002
      endloop
   endfacet
   facet normal 7.512976e-017 -8.865240e-018 1.000000e+000
      outer loop
         vertex 2.425715e+002 1.158104e+003 5.940425e+002
         vertex 2.369820e+002 1.153414e+003 5.940425e+002
         vertex 2.433734e+002 1.157889e+003 5.940425e+002
      endloop
   endfacet
   facet normal 7.512976e-017 -8.865240e-018 1.000000e+000
      outer loop
         vertex 2.409175e+002 1.158104e+003 5.940425e+002
         vertex 2.401156e+002 1.157889e+003 5.940425e+002
         vertex 2.417445e+002 1.158177e+003 5.940425e+002
      endloop
   endfacet
   facet normal 7.512976e-017 -8.865240e-018 1.000000e+000
      outer loop
         vertex 2.417445e+002 1.158177e+003 5.940425e+002
         vertex 2.401156e+002 1.157889e+003 5.940425e+002
         vertex 2.393632e+002 1.157538e+003 5.940425e+002
      endloop
   endfacet
   facet normal 7.512976e-017 -8.865240e-018 1.000000e+000
      outer loop
         vertex 2.417445e+002 1.158177e+003 5.940425e+002
         vertex 2.393632e+002 1.157538e+003 5.940425e+002
         vertex 2.386832e+002 1.157062e+003 5.940425e+002
      endloop
   endfacet
   facet normal 7.512976e-017 -8.865240e-018 1.000000e+000
      outer loop
         vertex 2.386832e+002 1.157062e+003 5.940425e+002
         vertex 2.380962e+002 1.156475e+003 5.940425e+002
         vertex 2.417445e+002 1.158177e+003 5.940425e+002
      endloop
   endfacet
   facet normal 7.512976e-017 -8.865240e-018 1.000000e+000
      outer loop
         vertex 2.417445e+002 1.158177e+003 5.940425e+002
         vertex 2.380962e+002 1.156475e+003 5.940425e+002
         vertex 2.376200e+002 1.155795e+003 5.940425e+002
      endloop
   endfacet
   facet normal 7.512976e-017 -8.865240e-018 1.000000e+000
      outer loop
         vertex 2.417445e+002 1.158177e+003 5.940425e+002
         vertex 2.376200e+002 1.155795e+003 5.940425e+002
         vertex 2.372692e+002 1.155043e+003 5.940425e+002
      endloop
   endfacet
   facet normal -7.512976e-017 8.865240e-018 -1.000000e+000
      outer loop
         vertex 2.376200e+002 1.151033e+003 1.114425e+002
         vertex 2.453928e+002 1.156475e+003 1.114425e+002
         vertex 2.380962e+002 1.150353e+003 1.114425e+002
      endloop
   endfacet
   facet normal -7.512976e-017 8.865240e-018 -1.000000e+000
      outer loop
         vertex 2.380962e+002 1.150353e+003 1.114425e+002
         vertex 2.453928e+002 1.156475e+003 1.114425e+002
         vertex 2.458689e+002 1.155795e+003 1.114425e+002
      endloop
   endfacet
   facet normal -7.512976e-017 8.865240e-018 -1.000000e+000
      outer loop
         vertex 2.380962e+002 1.150353e+003 1.114425e+002
         vertex 2.458689e+002 1.155795e+003 1.114425e+002
         vertex 2.462198e+002 1.155043e+003 1.114425e+002
      endloop
   endfacet
   facet normal -7.512976e-017 8.865240e-018 -1.000000e+000
      outer loop
         vertex 2.464346e+002 1.152587e+003 1.114425e+002
         vertex 2.462198e+002 1.151785e+003 1.114425e+002
         vertex 2.417445e+002 1.148651e+003 1.114425e+002
      endloop
   endfacet
   facet normal -7.512976e-017 8.865240e-018 -1.000000e+000
      outer loop
         vertex 2.401156e+002 1.148939e+003 1.114425e+002
         vertex 2.393632e+002 1.149290e+003 1.114425e+002
         vertex 2.465070e+002 1.153414e+003 1.114425e+002
      endloop
   endfacet
   facet normal -7.512976e-017 8.865240e-018 -1.000000e+000
      outer loop
         vertex 2.376200e+002 1.151033e+003 1.114425e+002
         vertex 2.372692e+002 1.151785e+003 1.114425e+002
         vertex 2.453928e+002 1.156475e+003 1.114425e+002
      endloop
   endfacet
   facet normal -7.512976e-017 8.865240e-018 -1.000000e+000
      outer loop
         vertex 2.453928e+002 1.156475e+003 1.114425e+002
         vertex 2.372692e+002 1.151785e+003 1.114425e+002
         vertex 2.370543e+002 1.152587e+003 1.114425e+002
      endloop
   endfacet
   facet normal -7.512976e-017 8.865240e-018 -1.000000e+000
      outer loop
         vertex 2.453928e+002 1.156475e+003 1.114425e+002
         vertex 2.370543e+002 1.152587e+003 1.114425e+002
         vertex 2.369820e+002 1.153414e+003 1.114425e+002
      endloop
   endfacet
   facet normal -7.512976e-017 8.865240e-018 -1.000000e+000
      outer loop
         vertex 2.462198e+002 1.155043e+003 1.114425e+002
         vertex 2.464346e+002 1.154241e+003 1.114425e+002
         vertex 2.380962e+002 1.150353e+003 1.114425e+002
      endloop
   endfacet
   facet normal -7.512976e-017 8.865240e-018 -1.000000e+000
      outer loop
         vertex 2.380962e+002 1.150353e+003 1.114425e+002
         vertex 2.464346e+002 1.154241e+003 1.114425e+002
         vertex 2.465070e+002 1.153414e+003 1.114425e+002
      endloop
   endfacet
   facet normal -7.512976e-017 8.865240e-018 -1.000000e+000
      outer loop
         vertex 2.380962e+002 1.150353e+003 1.114425e+002
         vertex 2.465070e+002 1.153414e+003 1.114425e+002
         vertex 2.386832e+002 1.149766e+003 1.114425e+002
      endloop
   endfacet
   facet normal -7.512976e-017 8.865240e-018 -1.000000e+000
      outer loop
         vertex 2.386832e+002 1.149766e+003 1.114425e+002
         vertex 2.465070e+002 1.153414e+003 1.114425e+002
         vertex 2.393632e+002 1.149290e+003 1.114425e+002
      endloop
   endfacet
   facet normal -7.512976e-017 8.865240e-018 -1.000000e+000
      outer loop
         vertex 2.370543e+002 1.154241e+003 1.114425e+002
         vertex 2.372692e+002 1.155043e+003 1.114425e+002
         vertex 2.417445e+002 1.158177e+003 1.114425e+002
      endloop
   endfacet
   facet normal -7.512976e-017 8.865240e-018 -1.000000e+000
      outer loop
         vertex 2.464346e+002 1.152587e+003 1.114425e+002
         vertex 2.417445e+002 1.148651e+003 1.114425e+002
         vertex 2.465070e+002 1.153414e+003 1.114425e+002
      endloop
   endfacet
   facet normal -7.512976e-017 8.865240e-018 -1.000000e+000
      outer loop
         vertex 2.465070e+002 1.153414e+003 1.114425e+002
         vertex 2.417445e+002 1.148651e+003 1.114425e+002
         vertex 2.409175e+002 1.148724e+003 1.114425e+002
      endloop
   endfacet
   facet normal -7.512976e-017 8.865240e-018 -1.000000e+000
      outer loop
         vertex 2.465070e+002 1.153414e+003 1.114425e+002
         vertex 2.409175e+002 1.148724e+003 1.114425e+002
         vertex 2.401156e+002 1.148939e+003 1.114425e+002
      endloop
   endfacet
   facet normal -7.512976e-017 8.865240e-018 -1.000000e+000
      outer loop
         vertex 2.433734e+002 1.157889e+003 1.114425e+002
         vertex 2.441257e+002 1.157538e+003 1.114425e+002
         vertex 2.369820e+002 1.153414e+003 1.114425e+002
      endloop
   endfacet
   facet normal -7.512976e-017 8.865240e-018 -1.000000e+000
      outer loop
         vertex 2.369820e+002 1.153414e+003 1.114425e+002
         vertex 2.441257e+002 1.157538e+003 1.114425e+002
         vertex 2.448058e+002 1.157062e+003 1.114425e+002
      endloop
   endfacet
   facet normal -7.512976e-017 8.865240e-018 -1.000000e+000
      outer loop
         vertex 2.369820e+002 1.153414e+003 1.114425e+002
         vertex 2.448058e+002 1.157062e+003 1.114425e+002
         vertex 2.453928e+002 1.156475e+003 1.114425e+002
      endloop
   endfacet
   facet normal -7.512976e-017 8.865240e-018 -1.000000e+000
      outer loop
         vertex 2.462198e+002 1.151785e+003 1.114425e+002
         vertex 2.458689e+002 1.151033e+003 1.114425e+002
         vertex 2.417445e+002 1.148651e+003 1.114425e+002
      endloop
   endfacet
   facet normal -7.512976e-017 8.865240e-018 -1.000000e+000
      outer loop
         vertex 2.417445e+002 1.148651e+003 1.114425e+002
         vertex 2.458689e+002 1.151033e+003 1.114425e+002
         vertex 2.453928e+002 1.150353e+003 1.114425e+002
      endloop
   endfacet
   facet normal -7.512976e-017 8.865240e-018 -1.000000e+000
      outer loop
         vertex 2.417445e+002 1.148651e+003 1.114425e+002
         vertex 2.453928e+002 1.150353e+003 1.114425e+002
         vertex 2.448058e+002 1.149766e+003 1.114425e+002
      endloop
   endfacet
   facet normal -7.512976e-017 8.865240e-018 -1.000000e+000
      outer loop
         vertex 2.448058e+002 1.149766e+003 1.114425e+002
         vertex 2.441257e+002 1.149290e+003 1.114425e+002
         vertex 2.417445e+002 1.148651e+003 1.114425e+002
      endloop
   endfacet
   facet normal -7.512976e-017 8.865240e-018 -1.000000e+000
      outer loop
         vertex 2.417445e+002 1.148651e+003 1.114425e+002
         vertex 2.441257e+002 1.149290e+003 1.114425e+002
         vertex 2.433734e+002 1.148939e+003 1.114425e+002
      endloop
   endfacet
   facet normal -7.512976e-017 8.865240e-018 -1.000000e+000
      outer loop
         vertex 2.417445e+002 1.148651e+003 1.114425e+002
         vertex 2.433734e+002 1.148939e+003 1.114425e+002
         vertex 2.425715e+002 1.148724e+003 1.114425e+002
      endloop
   endfacet
   facet normal -7.512976e-017 8.865240e-018 -1.000000e+000
      outer loop
         vertex 2.372692e+002 1.155043e+003 1.114425e+002
         vertex 2.376200e+002 1.155795e+003 1.114425e+002
         vertex 2.417445e+002 1.158177e+003 1.114425e+002
      endloop
   endfacet
   facet normal -7.512976e-017 8.865240e-018 -1.000000e+000
      outer loop
         vertex 2.417445e+002 1.158177e+003 1.114425e+002
         vertex 2.376200e+002 1.155795e+003 1.114425e+002
         vertex 2.380962e+002 1.156475e+003 1.114425e+002
      endloop
   endfacet
   facet normal -7.512976e-017 8.865240e-018 -1.000000e+000
      outer loop
         vertex 2.417445e+002 1.158177e+003 1.114425e+002
         vertex 2.380962e+002 1.156475e+003 1.114425e+002
         vertex 2.386832e+002 1.157062e+003 1.114425e+002
      endloop
   endfacet
   facet normal -7.512976e-017 8.865240e-018 -1.000000e+000
      outer loop
         vertex 2.386832e+002 1.157062e+003 1.114425e+002
         vertex 2.393632e+002 1.157538e+003 1.114425e+002
         vertex 2.417445e+002 1.158177e+003 1.114425e+002
      endloop
   endfacet
   facet normal -7.512976e-017 8.865240e-018 -1.000000e+000
      outer loop
         vertex 2.417445e+002 1.158177e+003 1.114425e+002
         vertex 2.393632e+002 1.157538e+003 1.114425e+002
         vertex 2.401156e+002 1.157889e+003 1.114425e+002
      endloop
   endfacet
   facet normal -7.512976e-017 8.865240e-018 -1.000000e+000
      outer loop
         vertex 2.417445e+002 1.158177e+003 1.114425e+002
         vertex 2.401156e+002 1.157889e+003 1.114425e+002
         vertex 2.409175e+002 1.158104e+003 1.114425e+002
      endloop
   endfacet
   facet normal -7.512976e-017 8.865240e-018 -1.000000e+000
      outer loop
         vertex 2.370543e+002 1.154241e+003 1.114425e+002
         vertex 2.417445e+002 1.158177e+003 1.114425e+002
         vertex 2.369820e+002 1.153414e+003 1.114425e+002
      endloop
   endfacet
   facet normal -7.512976e-017 8.865240e-018 -1.000000e+000
      outer loop
         vertex 2.369820e+002 1.153414e+003 1.114425e+002
         vertex 2.417445e+002 1.158177e+003 1.114425e+002
         vertex 2.425715e+002 1.158104e+003 1.114425e+002
      endloop
   endfacet
   facet normal -7.512976e-017 8.865240e-018 -1.000000e+000
      outer loop
         vertex 2.369820e+002 1.153414e+003 1.114425e+002
         vertex 2.425715e+002 1.158104e+003 1.114425e+002
         vertex 2.433734e+002 1.157889e+003 1.114425e+002
      endloop
   endfacet
endsolid