solid FPM - 100-UltraSoundSourceNew-1 103-RodYokes-1
   facet normal 9.983120e-001 -5.807914e-002 -5.541745e-017
      outer loop
         vertex 1.046985e+003 8.001750e+002 5.940425e+002
         vertex 1.047057e+003 8.010020e+002 1.114425e+002
         vertex 1.047057e+003 8.010020e+002 5.940425e+002
      endloop
   endfacet
   facet normal 9.983120e-001 5.807914e-002 -5.541745e-017
      outer loop
         vertex 1.047057e+003 8.010020e+002 5.940425e+002
         vertex 1.047057e+003 8.010020e+002 1.114425e+002
         vertex 1.046985e+003 8.018290e+002 1.114425e+002
      endloop
   endfacet
   facet normal 9.932307e-001 1.161583e-001 -5.513538e-017
      outer loop
         vertex 1.047057e+003 8.010020e+002 5.940425e+002
         vertex 1.046985e+003 8.018290e+002 1.114425e+002
         vertex 1.046985e+003 8.018290e+002 5.940425e+002
      endloop
   endfacet
   facet normal 9.730600e-001 2.305519e-001 -5.401568e-017
      outer loop
         vertex 1.046985e+003 8.018290e+002 5.940425e+002
         vertex 1.046985e+003 8.018290e+002 1.114425e+002
         vertex 1.046770e+003 8.026309e+002 1.114425e+002
      endloop
   endfacet
   facet normal 9.579706e-001 2.868663e-001 -5.317805e-017
      outer loop
         vertex 1.046985e+003 8.018290e+002 5.940425e+002
         vertex 1.046770e+003 8.026309e+002 1.114425e+002
         vertex 1.046770e+003 8.026309e+002 5.940425e+002
      endloop
   endfacet
   facet normal 9.182422e-001 3.960194e-001 -5.097268e-017
      outer loop
         vertex 1.046770e+003 8.026309e+002 5.940425e+002
         vertex 1.046770e+003 8.026309e+002 1.114425e+002
         vertex 1.046419e+003 8.033832e+002 1.114425e+002
      endloop
   endfacet
   facet normal 8.936031e-001 4.488580e-001 -4.960494e-017
      outer loop
         vertex 1.046770e+003 8.026309e+002 5.940425e+002
         vertex 1.046419e+003 8.033832e+002 1.114425e+002
         vertex 1.046419e+003 8.033832e+002 5.940425e+002
      endloop
   endfacet
   facet normal 8.355240e-001 5.494540e-001 -4.638090e-017
      outer loop
         vertex 1.046419e+003 8.033832e+002 5.940425e+002
         vertex 1.046419e+003 8.033832e+002 1.114425e+002
         vertex 1.045943e+003 8.040632e+002 1.114425e+002
      endloop
   endfacet
   facet normal 8.020839e-001 5.972114e-001 -4.452460e-017
      outer loop
         vertex 1.046419e+003 8.033832e+002 5.940425e+002
         vertex 1.045943e+003 8.040632e+002 1.114425e+002
         vertex 1.045943e+003 8.040632e+002 5.940425e+002
      endloop
   endfacet
   facet normal 7.274188e-001 6.861938e-001 -4.037985e-017
      outer loop
         vertex 1.045943e+003 8.040632e+002 5.940425e+002
         vertex 1.045943e+003 8.040632e+002 1.114425e+002
         vertex 1.045356e+003 8.046503e+002 1.114425e+002
      endloop
   endfacet
   facet normal 6.861938e-001 7.274188e-001 -3.809141e-017
      outer loop
         vertex 1.045943e+003 8.040632e+002 5.940425e+002
         vertex 1.045356e+003 8.046503e+002 1.114425e+002
         vertex 1.045356e+003 8.046503e+002 5.940425e+002
      endloop
   endfacet
   facet normal 5.972114e-001 8.020839e-001 -3.315189e-017
      outer loop
         vertex 1.045356e+003 8.046503e+002 5.940425e+002
         vertex 1.045356e+003 8.046503e+002 1.114425e+002
         vertex 1.044676e+003 8.051264e+002 1.114425e+002
      endloop
   endfacet
   facet normal 5.494540e-001 8.355240e-001 -3.050083e-017
      outer loop
         vertex 1.045356e+003 8.046503e+002 5.940425e+002
         vertex 1.044676e+003 8.051264e+002 1.114425e+002
         vertex 1.044676e+003 8.051264e+002 5.940425e+002
      endloop
   endfacet
   facet normal 4.488580e-001 8.936031e-001 -2.491662e-017
      outer loop
         vertex 1.044676e+003 8.051264e+002 5.940425e+002
         vertex 1.044676e+003 8.051264e+002 1.114425e+002
         vertex 1.043923e+003 8.054772e+002 1.114425e+002
      endloop
   endfacet
   facet normal 3.960194e-001 9.182422e-001 -2.198349e-017
      outer loop
         vertex 1.044676e+003 8.051264e+002 5.940425e+002
         vertex 1.043923e+003 8.054772e+002 1.114425e+002
         vertex 1.043923e+003 8.054772e+002 5.940425e+002
      endloop
   endfacet
   facet normal 2.868663e-001 9.579706e-001 -1.592428e-017
      outer loop
         vertex 1.043923e+003 8.054772e+002 5.940425e+002
         vertex 1.043923e+003 8.054772e+002 1.114425e+002
         vertex 1.043121e+003 8.056921e+002 1.114425e+002
      endloop
   endfacet
   facet normal 2.305519e-001 9.730600e-001 -1.279820e-017
      outer loop
         vertex 1.043923e+003 8.054772e+002 5.940425e+002
         vertex 1.043121e+003 8.056921e+002 1.114425e+002
         vertex 1.043121e+003 8.056921e+002 5.940425e+002
      endloop
   endfacet
   facet normal 1.161583e-001 9.932307e-001 -6.448080e-018
      outer loop
         vertex 1.043121e+003 8.056921e+002 5.940425e+002
         vertex 1.043121e+003 8.056921e+002 1.114425e+002
         vertex 1.042295e+003 8.057645e+002 1.114425e+002
      endloop
   endfacet
   facet normal 5.807914e-002 9.983120e-001 -3.224040e-018
      outer loop
         vertex 1.043121e+003 8.056921e+002 5.940425e+002
         vertex 1.042295e+003 8.057645e+002 1.114425e+002
         vertex 1.042295e+003 8.057645e+002 5.940425e+002
      endloop
   endfacet
   facet normal -5.807914e-002 9.983120e-001 3.224040e-018
      outer loop
         vertex 1.042295e+003 8.057645e+002 5.940425e+002
         vertex 1.042295e+003 8.057645e+002 1.114425e+002
         vertex 1.041467e+003 8.056921e+002 1.114425e+002
      endloop
   endfacet
   facet normal -1.161583e-001 9.932307e-001 6.448080e-018
      outer loop
         vertex 1.042295e+003 8.057645e+002 5.940425e+002
         vertex 1.041467e+003 8.056921e+002 1.114425e+002
         vertex 1.041467e+003 8.056921e+002 5.940425e+002
      endloop
   endfacet
   facet normal -2.305519e-001 9.730600e-001 1.279820e-017
      outer loop
         vertex 1.041467e+003 8.056921e+002 5.940425e+002
         vertex 1.041467e+003 8.056921e+002 1.114425e+002
         vertex 1.040666e+003 8.054772e+002 1.114425e+002
      endloop
   endfacet
   facet normal -2.868663e-001 9.579706e-001 1.592428e-017
      outer loop
         vertex 1.041467e+003 8.056921e+002 5.940425e+002
         vertex 1.040666e+003 8.054772e+002 1.114425e+002
         vertex 1.040666e+003 8.054772e+002 5.940425e+002
      endloop
   endfacet
   facet normal -3.960194e-001 9.182422e-001 2.198349e-017
      outer loop
         vertex 1.040666e+003 8.054772e+002 5.940425e+002
         vertex 1.040666e+003 8.054772e+002 1.114425e+002
         vertex 1.039913e+003 8.051264e+002 1.114425e+002
      endloop
   endfacet
   facet normal -4.488580e-001 8.936031e-001 2.491662e-017
      outer loop
         vertex 1.040666e+003 8.054772e+002 5.940425e+002
         vertex 1.039913e+003 8.051264e+002 1.114425e+002
         vertex 1.039913e+003 8.051264e+002 5.940425e+002
      endloop
   endfacet
   facet normal -5.494540e-001 8.355240e-001 3.050083e-017
      outer loop
         vertex 1.039913e+003 8.051264e+002 5.940425e+002
         vertex 1.039913e+003 8.051264e+002 1.114425e+002
         vertex 1.039233e+003 8.046503e+002 1.114425e+002
      endloop
   endfacet
   facet normal -5.972114e-001 8.020839e-001 3.315189e-017
      outer loop
         vertex 1.039913e+003 8.051264e+002 5.940425e+002
         vertex 1.039233e+003 8.046503e+002 1.114425e+002
         vertex 1.039233e+003 8.046503e+002 5.940425e+002
      endloop
   endfacet
   facet normal -6.861938e-001 7.274188e-001 3.809141e-017
      outer loop
         vertex 1.039233e+003 8.046503e+002 5.940425e+002
         vertex 1.039233e+003 8.046503e+002 1.114425e+002
         vertex 1.038646e+003 8.040632e+002 1.114425e+002
      endloop
   endfacet
   facet normal -7.274188e-001 6.861938e-001 4.037985e-017
      outer loop
         vertex 1.039233e+003 8.046503e+002 5.940425e+002
         vertex 1.038646e+003 8.040632e+002 1.114425e+002
         vertex 1.038646e+003 8.040632e+002 5.940425e+002
      endloop
   endfacet
   facet normal -8.020839e-001 5.972114e-001 4.452460e-017
      outer loop
         vertex 1.038646e+003 8.040632e+002 5.940425e+002
         vertex 1.038646e+003 8.040632e+002 1.114425e+002
         vertex 1.038170e+003 8.033832e+002 1.114425e+002
      endloop
   endfacet
   facet normal -8.355240e-001 5.494540e-001 4.638090e-017
      outer loop
         vertex 1.038646e+003 8.040632e+002 5.940425e+002
         vertex 1.038170e+003 8.033832e+002 1.114425e+002
         vertex 1.038170e+003 8.033832e+002 5.940425e+002
      endloop
   endfacet
   facet normal -8.936031e-001 4.488580e-001 4.960494e-017
      outer loop
         vertex 1.038170e+003 8.033832e+002 5.940425e+002
         vertex 1.038170e+003 8.033832e+002 1.114425e+002
         vertex 1.037819e+003 8.026309e+002 1.114425e+002
      endloop
   endfacet
   facet normal -9.182422e-001 3.960194e-001 5.097268e-017
      outer loop
         vertex 1.038170e+003 8.033832e+002 5.940425e+002
         vertex 1.037819e+003 8.026309e+002 1.114425e+002
         vertex 1.037819e+003 8.026309e+002 5.940425e+002
      endloop
   endfacet
   facet normal -9.579706e-001 2.868663e-001 5.317805e-017
      outer loop
         vertex 1.037819e+003 8.026309e+002 5.940425e+002
         vertex 1.037819e+003 8.026309e+002 1.114425e+002
         vertex 1.037604e+003 8.018290e+002 1.114425e+002
      endloop
   endfacet
   facet normal -9.730600e-001 2.305519e-001 5.401568e-017
      outer loop
         vertex 1.037819e+003 8.026309e+002 5.940425e+002
         vertex 1.037604e+003 8.018290e+002 1.114425e+002
         vertex 1.037604e+003 8.018290e+002 5.940425e+002
      endloop
   endfacet
   facet normal -9.932307e-001 1.161583e-001 5.513538e-017
      outer loop
         vertex 1.037604e+003 8.018290e+002 5.940425e+002
         vertex 1.037604e+003 8.018290e+002 1.114425e+002
         vertex 1.037532e+003 8.010020e+002 1.114425e+002
      endloop
   endfacet
   facet normal -9.983120e-001 5.807914e-002 5.541745e-017
      outer loop
         vertex 1.037604e+003 8.018290e+002 5.940425e+002
         vertex 1.037532e+003 8.010020e+002 1.114425e+002
         vertex 1.037532e+003 8.010020e+002 5.940425e+002
      endloop
   endfacet
   facet normal -9.983120e-001 -5.807914e-002 5.541745e-017
      outer loop
         vertex 1.037532e+003 8.010020e+002 5.940425e+002
         vertex 1.037532e+003 8.010020e+002 1.114425e+002
         vertex 1.037604e+003 8.001750e+002 1.114425e+002
      endloop
   endfacet
   facet normal -9.932307e-001 -1.161583e-001 5.513538e-017
      outer loop
         vertex 1.037532e+003 8.010020e+002 5.940425e+002
         vertex 1.037604e+003 8.001750e+002 1.114425e+002
         vertex 1.037604e+003 8.001750e+002 5.940425e+002
      endloop
   endfacet
   facet normal -9.730600e-001 -2.305519e-001 5.401568e-017
      outer loop
         vertex 1.037604e+003 8.001750e+002 5.940425e+002
         vertex 1.037604e+003 8.001750e+002 1.114425e+002
         vertex 1.037819e+003 7.993732e+002 1.114425e+002
      endloop
   endfacet
   facet normal -9.579706e-001 -2.868663e-001 5.317805e-017
      outer loop
         vertex 1.037604e+003 8.001750e+002 5.940425e+002
         vertex 1.037819e+003 7.993732e+002 1.114425e+002
         vertex 1.037819e+003 7.993732e+002 5.940425e+002
      endloop
   endfacet
   facet normal -9.182422e-001 -3.960194e-001 5.097268e-017
      outer loop
         vertex 1.037819e+003 7.993732e+002 5.940425e+002
         vertex 1.037819e+003 7.993732e+002 1.114425e+002
         vertex 1.038170e+003 7.986208e+002 1.114425e+002
      endloop
   endfacet
   facet normal -8.936031e-001 -4.488580e-001 4.960494e-017
      outer loop
         vertex 1.037819e+003 7.993732e+002 5.940425e+002
         vertex 1.038170e+003 7.986208e+002 1.114425e+002
         vertex 1.038170e+003 7.986208e+002 5.940425e+002
      endloop
   endfacet
   facet normal -8.355240e-001 -5.494540e-001 4.638090e-017
      outer loop
         vertex 1.038170e+003 7.986208e+002 5.940425e+002
         vertex 1.038170e+003 7.986208e+002 1.114425e+002
         vertex 1.038646e+003 7.979407e+002 1.114425e+002
      endloop
   endfacet
   facet normal -8.020839e-001 -5.972114e-001 4.452460e-017
      outer loop
         vertex 1.038170e+003 7.986208e+002 5.940425e+002
         vertex 1.038646e+003 7.979407e+002 1.114425e+002
         vertex 1.038646e+003 7.979407e+002 5.940425e+002
      endloop
   endfacet
   facet normal -7.274188e-001 -6.861938e-001 4.037985e-017
      outer loop
         vertex 1.038646e+003 7.979407e+002 5.940425e+002
         vertex 1.038646e+003 7.979407e+002 1.114425e+002
         vertex 1.039233e+003 7.973537e+002 1.114425e+002
      endloop
   endfacet
   facet normal -6.861938e-001 -7.274188e-001 3.809141e-017
      outer loop
         vertex 1.038646e+003 7.979407e+002 5.940425e+002
         vertex 1.039233e+003 7.973537e+002 1.114425e+002
         vertex 1.039233e+003 7.973537e+002 5.940425e+002
      endloop
   endfacet
   facet normal -5.972114e-001 -8.020839e-001 3.315189e-017
      outer loop
         vertex 1.039233e+003 7.973537e+002 5.940425e+002
         vertex 1.039233e+003 7.973537e+002 1.114425e+002
         vertex 1.039913e+003 7.968776e+002 1.114425e+002
      endloop
   endfacet
   facet normal -5.494540e-001 -8.355240e-001 3.050083e-017
      outer loop
         vertex 1.039233e+003 7.973537e+002 5.940425e+002
         vertex 1.039913e+003 7.968776e+002 1.114425e+002
         vertex 1.039913e+003 7.968776e+002 5.940425e+002
      endloop
   endfacet
   facet normal -4.488580e-001 -8.936031e-001 2.491662e-017
      outer loop
         vertex 1.039913e+003 7.968776e+002 5.940425e+002
         vertex 1.039913e+003 7.968776e+002 1.114425e+002
         vertex 1.040666e+003 7.965267e+002 1.114425e+002
      endloop
   endfacet
   facet normal -3.960194e-001 -9.182422e-001 2.198349e-017
      outer loop
         vertex 1.039913e+003 7.968776e+002 5.940425e+002
         vertex 1.040666e+003 7.965267e+002 1.114425e+002
         vertex 1.040666e+003 7.965267e+002 5.940425e+002
      endloop
   endfacet
   facet normal -2.868663e-001 -9.579706e-001 1.592428e-017
      outer loop
         vertex 1.040666e+003 7.965267e+002 5.940425e+002
         vertex 1.040666e+003 7.965267e+002 1.114425e+002
         vertex 1.041467e+003 7.963118e+002 1.114425e+002
      endloop
   endfacet
   facet normal -2.305519e-001 -9.730600e-001 1.279820e-017
      outer loop
         vertex 1.040666e+003 7.965267e+002 5.940425e+002
         vertex 1.041467e+003 7.963118e+002 1.114425e+002
         vertex 1.041467e+003 7.963118e+002 5.940425e+002
      endloop
   endfacet
   facet normal -1.161583e-001 -9.932307e-001 6.448080e-018
      outer loop
         vertex 1.041467e+003 7.963118e+002 5.940425e+002
         vertex 1.041467e+003 7.963118e+002 1.114425e+002
         vertex 1.042295e+003 7.962395e+002 1.114425e+002
      endloop
   endfacet
   facet normal -5.807914e-002 -9.983120e-001 3.224040e-018
      outer loop
         vertex 1.041467e+003 7.963118e+002 5.940425e+002
         vertex 1.042295e+003 7.962395e+002 1.114425e+002
         vertex 1.042295e+003 7.962395e+002 5.940425e+002
      endloop
   endfacet
   facet normal 5.807914e-002 -9.983120e-001 -3.224040e-018
      outer loop
         vertex 1.042295e+003 7.962395e+002 5.940425e+002
         vertex 1.042295e+003 7.962395e+002 1.114425e+002
         vertex 1.043121e+003 7.963118e+002 1.114425e+002
      endloop
   endfacet
   facet normal 1.161583e-001 -9.932307e-001 -6.448080e-018
      outer loop
         vertex 1.042295e+003 7.962395e+002 5.940425e+002
         vertex 1.043121e+003 7.963118e+002 1.114425e+002
         vertex 1.043121e+003 7.963118e+002 5.940425e+002
      endloop
   endfacet
   facet normal 2.305519e-001 -9.730600e-001 -1.279820e-017
      outer loop
         vertex 1.043121e+003 7.963118e+002 5.940425e+002
         vertex 1.043121e+003 7.963118e+002 1.114425e+002
         vertex 1.043923e+003 7.965267e+002 1.114425e+002
      endloop
   endfacet
   facet normal 2.868663e-001 -9.579706e-001 -1.592428e-017
      outer loop
         vertex 1.043121e+003 7.963118e+002 5.940425e+002
         vertex 1.043923e+003 7.965267e+002 1.114425e+002
         vertex 1.043923e+003 7.965267e+002 5.940425e+002
      endloop
   endfacet
   facet normal 3.960194e-001 -9.182422e-001 -2.198349e-017
      outer loop
         vertex 1.043923e+003 7.965267e+002 5.940425e+002
         vertex 1.043923e+003 7.965267e+002 1.114425e+002
         vertex 1.044676e+003 7.968776e+002 1.114425e+002
      endloop
   endfacet
   facet normal 4.488580e-001 -8.936031e-001 -2.491662e-017
      outer loop
         vertex 1.043923e+003 7.965267e+002 5.940425e+002
         vertex 1.044676e+003 7.968776e+002 1.114425e+002
         vertex 1.044676e+003 7.968776e+002 5.940425e+002
      endloop
   endfacet
   facet normal 5.494540e-001 -8.355240e-001 -3.050083e-017
      outer loop
         vertex 1.044676e+003 7.968776e+002 5.940425e+002
         vertex 1.044676e+003 7.968776e+002 1.114425e+002
         vertex 1.045356e+003 7.973537e+002 1.114425e+002
      endloop
   endfacet
   facet normal 5.972114e-001 -8.020839e-001 -3.315189e-017
      outer loop
         vertex 1.044676e+003 7.968776e+002 5.940425e+002
         vertex 1.045356e+003 7.973537e+002 1.114425e+002
         vertex 1.045356e+003 7.973537e+002 5.940425e+002
      endloop
   endfacet
   facet normal 6.861938e-001 -7.274188e-001 -3.809141e-017
      outer loop
         vertex 1.045356e+003 7.973537e+002 5.940425e+002
         vertex 1.045356e+003 7.973537e+002 1.114425e+002
         vertex 1.045943e+003 7.979407e+002 1.114425e+002
      endloop
   endfacet
   facet normal 7.274188e-001 -6.861938e-001 -4.037985e-017
      outer loop
         vertex 1.045356e+003 7.973537e+002 5.940425e+002
         vertex 1.045943e+003 7.979407e+002 1.114425e+002
         vertex 1.045943e+003 7.979407e+002 5.940425e+002
      endloop
   endfacet
   facet normal 8.020839e-001 -5.972114e-001 -4.452460e-017
      outer loop
         vertex 1.045943e+003 7.979407e+002 5.940425e+002
         vertex 1.045943e+003 7.979407e+002 1.114425e+002
         vertex 1.046419e+003 7.986208e+002 1.114425e+002
      endloop
   endfacet
   facet normal 8.355240e-001 -5.494540e-001 -4.638090e-017
      outer loop
         vertex 1.045943e+003 7.979407e+002 5.940425e+002
         vertex 1.046419e+003 7.986208e+002 1.114425e+002
         vertex 1.046419e+003 7.986208e+002 5.940425e+002
      endloop
   endfacet
   facet normal 8.936031e-001 -4.488580e-001 -4.960494e-017
      outer loop
         vertex 1.046419e+003 7.986208e+002 5.940425e+002
         vertex 1.046419e+003 7.986208e+002 1.114425e+002
         vertex 1.046770e+003 7.993732e+002 1.114425e+002
      endloop
   endfacet
   facet normal 9.182422e-001 -3.960194e-001 -5.097268e-017
      outer loop
         vertex 1.046419e+003 7.986208e+002 5.940425e+002
         vertex 1.046770e+003 7.993732e+002 1.114425e+002
         vertex 1.046770e+003 7.993732e+002 5.940425e+002
      endloop
   endfacet
   facet normal 9.579706e-001 -2.868663e-001 -5.317805e-017
      outer loop
         vertex 1.046770e+003 7.993732e+002 5.940425e+002
         vertex 1.046770e+003 7.993732e+002 1.114425e+002
         vertex 1.046985e+003 8.001750e+002 1.114425e+002
      endloop
   endfacet
   facet normal 9.730600e-001 -2.305519e-001 -5.401568e-017
      outer loop
         vertex 1.046770e+003 7.993732e+002 5.940425e+002
         vertex 1.046985e+003 8.001750e+002 1.114425e+002
         vertex 1.046985e+003 8.001750e+002 5.940425e+002
      endloop
   endfacet
   facet normal 9.932307e-001 -1.161583e-001 -5.513538e-017
      outer loop
         vertex 1.046985e+003 8.001750e+002 5.940425e+002
         vertex 1.046985e+003 8.001750e+002 1.114425e+002
         vertex 1.047057e+003 8.010020e+002 1.114425e+002
      endloop
   endfacet
   facet normal 5.551115e-017 -1.938705e-026 1.000000e+000
      outer loop
         vertex 1.046770e+003 8.026309e+002 5.940425e+002
         vertex 1.038646e+003 7.979407e+002 5.940425e+002
         vertex 1.046985e+003 8.018290e+002 5.940425e+002
      endloop
   endfacet
   facet normal 5.551115e-017 -1.938705e-026 1.000000e+000
      outer loop
         vertex 1.046985e+003 8.018290e+002 5.940425e+002
         vertex 1.038646e+003 7.979407e+002 5.940425e+002
         vertex 1.047057e+003 8.010020e+002 5.940425e+002
      endloop
   endfacet
   facet normal 5.551115e-017 -1.938705e-026 1.000000e+000
      outer loop
         vertex 1.037819e+003 7.993732e+002 5.940425e+002
         vertex 1.045943e+003 8.040632e+002 5.940425e+002
         vertex 1.037604e+003 8.001750e+002 5.940425e+002
      endloop
   endfacet
   facet normal 5.551115e-017 -1.938705e-026 1.000000e+000
      outer loop
         vertex 1.037604e+003 8.001750e+002 5.940425e+002
         vertex 1.045943e+003 8.040632e+002 5.940425e+002
         vertex 1.037532e+003 8.010020e+002 5.940425e+002
      endloop
   endfacet
   facet normal 5.551115e-017 -1.938705e-026 1.000000e+000
      outer loop
         vertex 1.046770e+003 8.026309e+002 5.940425e+002
         vertex 1.046419e+003 8.033832e+002 5.940425e+002
         vertex 1.038646e+003 7.979407e+002 5.940425e+002
      endloop
   endfacet
   facet normal 5.551115e-017 -1.938705e-026 1.000000e+000
      outer loop
         vertex 1.038646e+003 7.979407e+002 5.940425e+002
         vertex 1.046419e+003 8.033832e+002 5.940425e+002
         vertex 1.045943e+003 8.040632e+002 5.940425e+002
      endloop
   endfacet
   facet normal 5.551115e-017 -1.938705e-026 1.000000e+000
      outer loop
         vertex 1.038646e+003 7.979407e+002 5.940425e+002
         vertex 1.045943e+003 8.040632e+002 5.940425e+002
         vertex 1.038170e+003 7.986208e+002 5.940425e+002
      endloop
   endfacet
   facet normal 5.551115e-017 -1.938705e-026 1.000000e+000
      outer loop
         vertex 1.038170e+003 7.986208e+002 5.940425e+002
         vertex 1.045943e+003 8.040632e+002 5.940425e+002
         vertex 1.037819e+003 7.993732e+002 5.940425e+002
      endloop
   endfacet
   facet normal 5.551115e-017 -1.938705e-026 1.000000e+000
      outer loop
         vertex 1.045943e+003 8.040632e+002 5.940425e+002
         vertex 1.045356e+003 8.046503e+002 5.940425e+002
         vertex 1.037532e+003 8.010020e+002 5.940425e+002
      endloop
   endfacet
   facet normal 5.551115e-017 -1.938705e-026 1.000000e+000
      outer loop
         vertex 1.037532e+003 8.010020e+002 5.940425e+002
         vertex 1.045356e+003 8.046503e+002 5.940425e+002
         vertex 1.044676e+003 8.051264e+002 5.940425e+002
      endloop
   endfacet
   facet normal 5.551115e-017 -1.938705e-026 1.000000e+000
      outer loop
         vertex 1.037532e+003 8.010020e+002 5.940425e+002
         vertex 1.044676e+003 8.051264e+002 5.940425e+002
         vertex 1.043923e+003 8.054772e+002 5.940425e+002
      endloop
   endfacet
   facet normal 5.551115e-017 -1.938705e-026 1.000000e+000
      outer loop
         vertex 1.037819e+003 8.026309e+002 5.940425e+002
         vertex 1.037604e+003 8.018290e+002 5.940425e+002
         vertex 1.042295e+003 8.057645e+002 5.940425e+002
      endloop
   endfacet
   facet normal 5.551115e-017 -1.938705e-026 1.000000e+000
      outer loop
         vertex 1.042295e+003 8.057645e+002 5.940425e+002
         vertex 1.037604e+003 8.018290e+002 5.940425e+002
         vertex 1.037532e+003 8.010020e+002 5.940425e+002
      endloop
   endfacet
   facet normal 5.551115e-017 -1.938705e-026 1.000000e+000
      outer loop
         vertex 1.042295e+003 8.057645e+002 5.940425e+002
         vertex 1.037532e+003 8.010020e+002 5.940425e+002
         vertex 1.043121e+003 8.056921e+002 5.940425e+002
      endloop
   endfacet
   facet normal 5.551115e-017 -1.938705e-026 1.000000e+000
      outer loop
         vertex 1.043121e+003 8.056921e+002 5.940425e+002
         vertex 1.037532e+003 8.010020e+002 5.940425e+002
         vertex 1.043923e+003 8.054772e+002 5.940425e+002
      endloop
   endfacet
   facet normal 5.551115e-017 -1.938705e-026 1.000000e+000
      outer loop
         vertex 1.038646e+003 7.979407e+002 5.940425e+002
         vertex 1.039233e+003 7.973537e+002 5.940425e+002
         vertex 1.047057e+003 8.010020e+002 5.940425e+002
      endloop
   endfacet
   facet normal 5.551115e-017 -1.938705e-026 1.000000e+000
      outer loop
         vertex 1.047057e+003 8.010020e+002 5.940425e+002
         vertex 1.039233e+003 7.973537e+002 5.940425e+002
         vertex 1.039913e+003 7.968776e+002 5.940425e+002
      endloop
   endfacet
   facet normal 5.551115e-017 -1.938705e-026 1.000000e+000
      outer loop
         vertex 1.047057e+003 8.010020e+002 5.940425e+002
         vertex 1.039913e+003 7.968776e+002 5.940425e+002
         vertex 1.040666e+003 7.965267e+002 5.940425e+002
      endloop
   endfacet
   facet normal 5.551115e-017 -1.938705e-026 1.000000e+000
      outer loop
         vertex 1.041467e+003 8.056921e+002 5.940425e+002
         vertex 1.040666e+003 8.054772e+002 5.940425e+002
         vertex 1.042295e+003 8.057645e+002 5.940425e+002
      endloop
   endfacet
   facet normal 5.551115e-017 -1.938705e-026 1.000000e+000
      outer loop
         vertex 1.042295e+003 8.057645e+002 5.940425e+002
         vertex 1.040666e+003 8.054772e+002 5.940425e+002
         vertex 1.039913e+003 8.051264e+002 5.940425e+002
      endloop
   endfacet
   facet normal 5.551115e-017 -1.938705e-026 1.000000e+000
      outer loop
         vertex 1.042295e+003 8.057645e+002 5.940425e+002
         vertex 1.039913e+003 8.051264e+002 5.940425e+002
         vertex 1.039233e+003 8.046503e+002 5.940425e+002
      endloop
   endfacet
   facet normal 5.551115e-017 -1.938705e-026 1.000000e+000
      outer loop
         vertex 1.039233e+003 8.046503e+002 5.940425e+002
         vertex 1.038646e+003 8.040632e+002 5.940425e+002
         vertex 1.042295e+003 8.057645e+002 5.940425e+002
      endloop
   endfacet
   facet normal 5.551115e-017 -1.938705e-026 1.000000e+000
      outer loop
         vertex 1.042295e+003 8.057645e+002 5.940425e+002
         vertex 1.038646e+003 8.040632e+002 5.940425e+002
         vertex 1.038170e+003 8.033832e+002 5.940425e+002
      endloop
   endfacet
   facet normal 5.551115e-017 -1.938705e-026 1.000000e+000
      outer loop
         vertex 1.042295e+003 8.057645e+002 5.940425e+002
         vertex 1.038170e+003 8.033832e+002 5.940425e+002
         vertex 1.037819e+003 8.026309e+002 5.940425e+002
      endloop
   endfacet
   facet normal 5.551115e-017 -1.938705e-026 1.000000e+000
      outer loop
         vertex 1.046770e+003 7.993732e+002 5.940425e+002
         vertex 1.046985e+003 8.001750e+002 5.940425e+002
         vertex 1.042295e+003 7.962395e+002 5.940425e+002
      endloop
   endfacet
   facet normal 5.551115e-017 -1.938705e-026 1.000000e+000
      outer loop
         vertex 1.042295e+003 7.962395e+002 5.940425e+002
         vertex 1.046985e+003 8.001750e+002 5.940425e+002
         vertex 1.047057e+003 8.010020e+002 5.940425e+002
      endloop
   endfacet
   facet normal 5.551115e-017 -1.938705e-026 1.000000e+000
      outer loop
         vertex 1.042295e+003 7.962395e+002 5.940425e+002
         vertex 1.047057e+003 8.010020e+002 5.940425e+002
         vertex 1.041467e+003 7.963118e+002 5.940425e+002
      endloop
   endfacet
   facet normal 5.551115e-017 -1.938705e-026 1.000000e+000
      outer loop
         vertex 1.041467e+003 7.963118e+002 5.940425e+002
         vertex 1.047057e+003 8.010020e+002 5.940425e+002
         vertex 1.040666e+003 7.965267e+002 5.940425e+002
      endloop
   endfacet
   facet normal 5.551115e-017 -1.938705e-026 1.000000e+000
      outer loop
         vertex 1.043121e+003 7.963118e+002 5.940425e+002
         vertex 1.043923e+003 7.965267e+002 5.940425e+002
         vertex 1.042295e+003 7.962395e+002 5.940425e+002
      endloop
   endfacet
   facet normal 5.551115e-017 -1.938705e-026 1.000000e+000
      outer loop
         vertex 1.042295e+003 7.962395e+002 5.940425e+002
         vertex 1.043923e+003 7.965267e+002 5.940425e+002
         vertex 1.044676e+003 7.968776e+002 5.940425e+002
      endloop
   endfacet
   facet normal 5.551115e-017 -1.938705e-026 1.000000e+000
      outer loop
         vertex 1.042295e+003 7.962395e+002 5.940425e+002
         vertex 1.044676e+003 7.968776e+002 5.940425e+002
         vertex 1.045356e+003 7.973537e+002 5.940425e+002
      endloop
   endfacet
   facet normal 5.551115e-017 -1.938705e-026 1.000000e+000
      outer loop
         vertex 1.045356e+003 7.973537e+002 5.940425e+002
         vertex 1.045943e+003 7.979407e+002 5.940425e+002
         vertex 1.042295e+003 7.962395e+002 5.940425e+002
      endloop
   endfacet
   facet normal 5.551115e-017 -1.938705e-026 1.000000e+000
      outer loop
         vertex 1.042295e+003 7.962395e+002 5.940425e+002
         vertex 1.045943e+003 7.979407e+002 5.940425e+002
         vertex 1.046419e+003 7.986208e+002 5.940425e+002
      endloop
   endfacet
   facet normal 5.551115e-017 -1.938705e-026 1.000000e+000
      outer loop
         vertex 1.042295e+003 7.962395e+002 5.940425e+002
         vertex 1.046419e+003 7.986208e+002 5.940425e+002
         vertex 1.046770e+003 7.993732e+002 5.940425e+002
      endloop
   endfacet
   facet normal -5.551115e-017 1.938705e-026 -1.000000e+000
      outer loop
         vertex 1.046419e+003 8.033832e+002 1.114425e+002
         vertex 1.038646e+003 7.979407e+002 1.114425e+002
         vertex 1.045943e+003 8.040632e+002 1.114425e+002
      endloop
   endfacet
   facet normal -5.551115e-017 1.938705e-026 -1.000000e+000
      outer loop
         vertex 1.045943e+003 8.040632e+002 1.114425e+002
         vertex 1.038646e+003 7.979407e+002 1.114425e+002
         vertex 1.038170e+003 7.986208e+002 1.114425e+002
      endloop
   endfacet
   facet normal -5.551115e-017 1.938705e-026 -1.000000e+000
      outer loop
         vertex 1.045943e+003 8.040632e+002 1.114425e+002
         vertex 1.038170e+003 7.986208e+002 1.114425e+002
         vertex 1.037819e+003 7.993732e+002 1.114425e+002
      endloop
   endfacet
   facet normal -5.551115e-017 1.938705e-026 -1.000000e+000
      outer loop
         vertex 1.037604e+003 8.018290e+002 1.114425e+002
         vertex 1.037819e+003 8.026309e+002 1.114425e+002
         vertex 1.042295e+003 8.057645e+002 1.114425e+002
      endloop
   endfacet
   facet normal -5.551115e-017 1.938705e-026 -1.000000e+000
      outer loop
         vertex 1.043923e+003 8.054772e+002 1.114425e+002
         vertex 1.044676e+003 8.051264e+002 1.114425e+002
         vertex 1.037532e+003 8.010020e+002 1.114425e+002
      endloop
   endfacet
   facet normal -5.551115e-017 1.938705e-026 -1.000000e+000
      outer loop
         vertex 1.046419e+003 8.033832e+002 1.114425e+002
         vertex 1.046770e+003 8.026309e+002 1.114425e+002
         vertex 1.038646e+003 7.979407e+002 1.114425e+002
      endloop
   endfacet
   facet normal -5.551115e-017 1.938705e-026 -1.000000e+000
      outer loop
         vertex 1.038646e+003 7.979407e+002 1.114425e+002
         vertex 1.046770e+003 8.026309e+002 1.114425e+002
         vertex 1.046985e+003 8.018290e+002 1.114425e+002
      endloop
   endfacet
   facet normal -5.551115e-017 1.938705e-026 -1.000000e+000
      outer loop
         vertex 1.038646e+003 7.979407e+002 1.114425e+002
         vertex 1.046985e+003 8.018290e+002 1.114425e+002
         vertex 1.047057e+003 8.010020e+002 1.114425e+002
      endloop
   endfacet
   facet normal -5.551115e-017 1.938705e-026 -1.000000e+000
      outer loop
         vertex 1.037819e+003 7.993732e+002 1.114425e+002
         vertex 1.037604e+003 8.001750e+002 1.114425e+002
         vertex 1.045943e+003 8.040632e+002 1.114425e+002
      endloop
   endfacet
   facet normal -5.551115e-017 1.938705e-026 -1.000000e+000
      outer loop
         vertex 1.045943e+003 8.040632e+002 1.114425e+002
         vertex 1.037604e+003 8.001750e+002 1.114425e+002
         vertex 1.037532e+003 8.010020e+002 1.114425e+002
      endloop
   endfacet
   facet normal -5.551115e-017 1.938705e-026 -1.000000e+000
      outer loop
         vertex 1.045943e+003 8.040632e+002 1.114425e+002
         vertex 1.037532e+003 8.010020e+002 1.114425e+002
         vertex 1.045356e+003 8.046503e+002 1.114425e+002
      endloop
   endfacet
   facet normal -5.551115e-017 1.938705e-026 -1.000000e+000
      outer loop
         vertex 1.045356e+003 8.046503e+002 1.114425e+002
         vertex 1.037532e+003 8.010020e+002 1.114425e+002
         vertex 1.044676e+003 8.051264e+002 1.114425e+002
      endloop
   endfacet
   facet normal -5.551115e-017 1.938705e-026 -1.000000e+000
      outer loop
         vertex 1.046985e+003 8.001750e+002 1.114425e+002
         vertex 1.046770e+003 7.993732e+002 1.114425e+002
         vertex 1.042295e+003 7.962395e+002 1.114425e+002
      endloop
   endfacet
   facet normal -5.551115e-017 1.938705e-026 -1.000000e+000
      outer loop
         vertex 1.037604e+003 8.018290e+002 1.114425e+002
         vertex 1.042295e+003 8.057645e+002 1.114425e+002
         vertex 1.037532e+003 8.010020e+002 1.114425e+002
      endloop
   endfacet
   facet normal -5.551115e-017 1.938705e-026 -1.000000e+000
      outer loop
         vertex 1.037532e+003 8.010020e+002 1.114425e+002
         vertex 1.042295e+003 8.057645e+002 1.114425e+002
         vertex 1.043121e+003 8.056921e+002 1.114425e+002
      endloop
   endfacet
   facet normal -5.551115e-017 1.938705e-026 -1.000000e+000
      outer loop
         vertex 1.037532e+003 8.010020e+002 1.114425e+002
         vertex 1.043121e+003 8.056921e+002 1.114425e+002
         vertex 1.043923e+003 8.054772e+002 1.114425e+002
      endloop
   endfacet
   facet normal -5.551115e-017 1.938705e-026 -1.000000e+000
      outer loop
         vertex 1.040666e+003 7.965267e+002 1.114425e+002
         vertex 1.039913e+003 7.968776e+002 1.114425e+002
         vertex 1.047057e+003 8.010020e+002 1.114425e+002
      endloop
   endfacet
   facet normal -5.551115e-017 1.938705e-026 -1.000000e+000
      outer loop
         vertex 1.047057e+003 8.010020e+002 1.114425e+002
         vertex 1.039913e+003 7.968776e+002 1.114425e+002
         vertex 1.039233e+003 7.973537e+002 1.114425e+002
      endloop
   endfacet
   facet normal -5.551115e-017 1.938705e-026 -1.000000e+000
      outer loop
         vertex 1.047057e+003 8.010020e+002 1.114425e+002
         vertex 1.039233e+003 7.973537e+002 1.114425e+002
         vertex 1.038646e+003 7.979407e+002 1.114425e+002
      endloop
   endfacet
   facet normal -5.551115e-017 1.938705e-026 -1.000000e+000
      outer loop
         vertex 1.037819e+003 8.026309e+002 1.114425e+002
         vertex 1.038170e+003 8.033832e+002 1.114425e+002
         vertex 1.042295e+003 8.057645e+002 1.114425e+002
      endloop
   endfacet
   facet normal -5.551115e-017 1.938705e-026 -1.000000e+000
      outer loop
         vertex 1.042295e+003 8.057645e+002 1.114425e+002
         vertex 1.038170e+003 8.033832e+002 1.114425e+002
         vertex 1.038646e+003 8.040632e+002 1.114425e+002
      endloop
   endfacet
   facet normal -5.551115e-017 1.938705e-026 -1.000000e+000
      outer loop
         vertex 1.042295e+003 8.057645e+002 1.114425e+002
         vertex 1.038646e+003 8.040632e+002 1.114425e+002
         vertex 1.039233e+003 8.046503e+002 1.114425e+002
      endloop
   endfacet
   facet normal -5.551115e-017 1.938705e-026 -1.000000e+000
      outer loop
         vertex 1.039233e+003 8.046503e+002 1.114425e+002
         vertex 1.039913e+003 8.051264e+002 1.114425e+002
         vertex 1.042295e+003 8.057645e+002 1.114425e+002
      endloop
   endfacet
   facet normal -5.551115e-017 1.938705e-026 -1.000000e+000
      outer loop
         vertex 1.042295e+003 8.057645e+002 1.114425e+002
         vertex 1.039913e+003 8.051264e+002 1.114425e+002
         vertex 1.040666e+003 8.054772e+002 1.114425e+002
      endloop
   endfacet
   facet normal -5.551115e-017 1.938705e-026 -1.000000e+000
      outer loop
         vertex 1.042295e+003 8.057645e+002 1.114425e+002
         vertex 1.040666e+003 8.054772e+002 1.114425e+002
         vertex 1.041467e+003 8.056921e+002 1.114425e+002
      endloop
   endfacet
   facet normal -5.551115e-017 1.938705e-026 -1.000000e+000
      outer loop
         vertex 1.046770e+003 7.993732e+002 1.114425e+002
         vertex 1.046419e+003 7.986208e+002 1.114425e+002
         vertex 1.042295e+003 7.962395e+002 1.114425e+002
      endloop
   endfacet
   facet normal -5.551115e-017 1.938705e-026 -1.000000e+000
      outer loop
         vertex 1.042295e+003 7.962395e+002 1.114425e+002
         vertex 1.046419e+003 7.986208e+002 1.114425e+002
         vertex 1.045943e+003 7.979407e+002 1.114425e+002
      endloop
   endfacet
   facet normal -5.551115e-017 1.938705e-026 -1.000000e+000
      outer loop
         vertex 1.042295e+003 7.962395e+002 1.114425e+002
         vertex 1.045943e+003 7.979407e+002 1.114425e+002
         vertex 1.045356e+003 7.973537e+002 1.114425e+002
      endloop
   endfacet
   facet normal -5.551115e-017 1.938705e-026 -1.000000e+000
      outer loop
         vertex 1.045356e+003 7.973537e+002 1.114425e+002
         vertex 1.044676e+003 7.968776e+002 1.114425e+002
         vertex 1.042295e+003 7.962395e+002 1.114425e+002
      endloop
   endfacet
   facet normal -5.551115e-017 1.938705e-026 -1.000000e+000
      outer loop
         vertex 1.042295e+003 7.962395e+002 1.114425e+002
         vertex 1.044676e+003 7.968776e+002 1.114425e+002
         vertex 1.043923e+003 7.965267e+002 1.114425e+002
      endloop
   endfacet
   facet normal -5.551115e-017 1.938705e-026 -1.000000e+000
      outer loop
         vertex 1.042295e+003 7.962395e+002 1.114425e+002
         vertex 1.043923e+003 7.965267e+002 1.114425e+002
         vertex 1.043121e+003 7.963118e+002 1.114425e+002
      endloop
   endfacet
   facet normal -5.551115e-017 1.938705e-026 -1.000000e+000
      outer loop
         vertex 1.046985e+003 8.001750e+002 1.114425e+002
         vertex 1.042295e+003 7.962395e+002 1.114425e+002
         vertex 1.047057e+003 8.010020e+002 1.114425e+002
      endloop
   endfacet
   facet normal -5.551115e-017 1.938705e-026 -1.000000e+000
      outer loop
         vertex 1.047057e+003 8.010020e+002 1.114425e+002
         vertex 1.042295e+003 7.962395e+002 1.114425e+002
         vertex 1.041467e+003 7.963118e+002 1.114425e+002
      endloop
   endfacet
   facet normal -5.551115e-017 1.938705e-026 -1.000000e+000
      outer loop
         vertex 1.047057e+003 8.010020e+002 1.114425e+002
         vertex 1.041467e+003 7.963118e+002 1.114425e+002
         vertex 1.040666e+003 7.965267e+002 1.114425e+002
      endloop
   endfacet
endsolid