solid FPM - SideTop-1 703-PlateBack-1
   facet normal 1.000000e+000 1.323170e-010 -7.512976e-017
      outer loop
         vertex 2.685820e+002 1.168514e+003 5.178425e+002
         vertex 2.685820e+002 9.922141e+002 5.178425e+002
         vertex 2.685820e+002 1.168514e+003 1.876425e+002
      endloop
   endfacet
   facet normal 1.000000e+000 1.323170e-010 -7.512976e-017
      outer loop
         vertex 2.685820e+002 1.168514e+003 1.876425e+002
         vertex 2.685820e+002 9.922141e+002 5.178425e+002
         vertex 2.685820e+002 9.922141e+002 1.876425e+002
      endloop
   endfacet
   facet normal -1.323170e-010 1.000000e+000 8.865240e-018
      outer loop
         vertex 2.670820e+002 1.168514e+003 5.178425e+002
         vertex 2.685820e+002 1.168514e+003 5.178425e+002
         vertex 2.670820e+002 1.168514e+003 1.876425e+002
      endloop
   endfacet
   facet normal -1.323170e-010 1.000000e+000 8.865240e-018
      outer loop
         vertex 2.670820e+002 1.168514e+003 1.876425e+002
         vertex 2.685820e+002 1.168514e+003 5.178425e+002
         vertex 2.685820e+002 1.168514e+003 1.876425e+002
      endloop
   endfacet
   facet normal -1.000000e+000 -1.323170e-010 7.512976e-017
      outer loop
         vertex 2.670820e+002 9.922141e+002 5.178425e+002
         vertex 2.670820e+002 1.168514e+003 5.178425e+002
         vertex 2.670820e+002 9.922141e+002 1.876425e+002
      endloop
   endfacet
   facet normal -1.000000e+000 -1.323170e-010 7.512976e-017
      outer loop
         vertex 2.670820e+002 9.922141e+002 1.876425e+002
         vertex 2.670820e+002 1.168514e+003 5.178425e+002
         vertex 2.670820e+002 1.168514e+003 1.876425e+002
      endloop
   endfacet
   facet normal 1.323170e-010 -1.000000e+000 -8.865240e-018
      outer loop
         vertex 2.685820e+002 9.922141e+002 5.178425e+002
         vertex 2.670820e+002 9.922141e+002 5.178425e+002
         vertex 2.685820e+002 9.922141e+002 1.876425e+002
      endloop
   endfacet
   facet normal 1.323170e-010 -1.000000e+000 -8.865240e-018
      outer loop
         vertex 2.685820e+002 9.922141e+002 1.876425e+002
         vertex 2.670820e+002 9.922141e+002 5.178425e+002
         vertex 2.670820e+002 9.922141e+002 1.876425e+002
      endloop
   endfacet
   facet normal 7.512976e-017 -8.865240e-018 1.000000e+000
      outer loop
         vertex 2.670820e+002 1.168514e+003 5.178425e+002
         vertex 2.670820e+002 9.922141e+002 5.178425e+002
         vertex 2.685820e+002 1.168514e+003 5.178425e+002
      endloop
   endfacet
   facet normal 7.512976e-017 -8.865240e-018 1.000000e+000
      outer loop
         vertex 2.685820e+002 1.168514e+003 5.178425e+002
         vertex 2.670820e+002 9.922141e+002 5.178425e+002
         vertex 2.685820e+002 9.922141e+002 5.178425e+002
      endloop
   endfacet
   facet normal -7.512976e-017 8.865240e-018 -1.000000e+000
      outer loop
         vertex 2.670820e+002 9.922141e+002 1.876425e+002
         vertex 2.670820e+002 1.168514e+003 1.876425e+002
         vertex 2.685820e+002 9.922141e+002 1.876425e+002
      endloop
   endfacet
   facet normal -7.512976e-017 8.865240e-018 -1.000000e+000
      outer loop
         vertex 2.685820e+002 9.922141e+002 1.876425e+002
         vertex 2.670820e+002 1.168514e+003 1.876425e+002
         vertex 2.685820e+002 1.168514e+003 1.876425e+002
      endloop
   endfacet
endsolid