solid FPM - SideTop-1 704-PlateBottom-1
   facet normal 1.000000e+000 1.323170e-010 -2.424832e-016
      outer loop
         vertex 2.678320e+002 1.170014e+003 1.868925e+002
         vertex 2.678320e+002 1.170014e+003 5.185925e+002
         vertex 2.678320e+002 1.168514e+003 1.868925e+002
      endloop
   endfacet
   facet normal 1.000000e+000 1.323170e-010 -2.424832e-016
      outer loop
         vertex 2.678320e+002 1.168514e+003 1.868925e+002
         vertex 2.678320e+002 1.170014e+003 5.185925e+002
         vertex 2.678320e+002 1.168514e+003 5.185925e+002
      endloop
   endfacet
   facet normal -7.512976e-017 8.865240e-018 -1.000000e+000
      outer loop
         vertex 1.415820e+002 1.170014e+003 1.868925e+002
         vertex 2.678320e+002 1.170014e+003 1.868925e+002
         vertex 1.415820e+002 1.168514e+003 1.868925e+002
      endloop
   endfacet
   facet normal -7.512976e-017 8.865240e-018 -1.000000e+000
      outer loop
         vertex 1.415820e+002 1.168514e+003 1.868925e+002
         vertex 2.678320e+002 1.170014e+003 1.868925e+002
         vertex 2.678320e+002 1.168514e+003 1.868925e+002
      endloop
   endfacet
   facet normal -1.000000e+000 -1.323170e-010 7.512976e-017
      outer loop
         vertex 1.415820e+002 1.170014e+003 5.185925e+002
         vertex 1.415820e+002 1.170014e+003 1.868925e+002
         vertex 1.415820e+002 1.168514e+003 5.185925e+002
      endloop
   endfacet
   facet normal -1.000000e+000 -1.323170e-010 7.512976e-017
      outer loop
         vertex 1.415820e+002 1.168514e+003 5.185925e+002
         vertex 1.415820e+002 1.170014e+003 1.868925e+002
         vertex 1.415820e+002 1.168514e+003 1.868925e+002
      endloop
   endfacet
   facet normal 7.512976e-017 -8.865240e-018 1.000000e+000
      outer loop
         vertex 2.678320e+002 1.170014e+003 5.185925e+002
         vertex 1.415820e+002 1.170014e+003 5.185925e+002
         vertex 2.678320e+002 1.168514e+003 5.185925e+002
      endloop
   endfacet
   facet normal 7.512976e-017 -8.865240e-018 1.000000e+000
      outer loop
         vertex 2.678320e+002 1.168514e+003 5.185925e+002
         vertex 1.415820e+002 1.170014e+003 5.185925e+002
         vertex 1.415820e+002 1.168514e+003 5.185925e+002
      endloop
   endfacet
   facet normal -1.323170e-010 1.000000e+000 8.865240e-018
      outer loop
         vertex 1.415820e+002 1.170014e+003 1.868925e+002
         vertex 1.415820e+002 1.170014e+003 5.185925e+002
         vertex 2.678320e+002 1.170014e+003 1.868925e+002
      endloop
   endfacet
   facet normal -1.323170e-010 1.000000e+000 8.865240e-018
      outer loop
         vertex 2.678320e+002 1.170014e+003 1.868925e+002
         vertex 1.415820e+002 1.170014e+003 5.185925e+002
         vertex 2.678320e+002 1.170014e+003 5.185925e+002
      endloop
   endfacet
   facet normal 1.323170e-010 -1.000000e+000 -8.865240e-018
      outer loop
         vertex 1.415820e+002 1.168514e+003 5.185925e+002
         vertex 1.415820e+002 1.168514e+003 1.868925e+002
         vertex 2.678320e+002 1.168514e+003 5.185925e+002
      endloop
   endfacet
   facet normal 1.323170e-010 -1.000000e+000 -8.865240e-018
      outer loop
         vertex 2.678320e+002 1.168514e+003 5.185925e+002
         vertex 1.415820e+002 1.168514e+003 1.868925e+002
         vertex 2.678320e+002 1.168514e+003 1.868925e+002
      endloop
   endfacet
endsolid