solid PumpAssembly - ScrewLong-2
   facet normal -4.973988e-001 -3.229825e-015 8.675220e-001
      outer loop
         vertex 2.404401e+002 1.441261e+002 2.011731e+001
         vertex 2.399790e+002 1.711261e+002 1.987054e+001
         vertex 2.399790e+002 1.441261e+002 1.987054e+001
      endloop
   endfacet
   facet normal -5.946429e-001 -3.020061e-015 8.039899e-001
      outer loop
         vertex 2.399790e+002 1.441261e+002 1.987054e+001
         vertex 2.399790e+002 1.711261e+002 1.987054e+001
         vertex 2.395678e+002 1.711261e+002 1.954746e+001
      endloop
   endfacet
   facet normal -6.404858e-001 -2.899273e-015 7.679700e-001
      outer loop
         vertex 2.399790e+002 1.441261e+002 1.987054e+001
         vertex 2.395678e+002 1.711261e+002 1.954746e+001
         vertex 2.395678e+002 1.441261e+002 1.954746e+001
      endloop
   endfacet
   facet normal -7.252204e-001 -2.629558e-015 6.885168e-001
      outer loop
         vertex 2.395678e+002 1.441261e+002 1.954746e+001
         vertex 2.395678e+002 1.711261e+002 1.954746e+001
         vertex 2.392190e+002 1.711261e+002 1.915788e+001
      endloop
   endfacet
   facet normal -7.641120e-001 -2.480629e-015 6.450836e-001
      outer loop
         vertex 2.395678e+002 1.441261e+002 1.954746e+001
         vertex 2.392190e+002 1.711261e+002 1.915788e+001
         vertex 2.392190e+002 1.441261e+002 1.915788e+001
      endloop
   endfacet
   facet normal -8.337623e-001 -2.159157e-015 5.521235e-001
      outer loop
         vertex 2.392190e+002 1.441261e+002 1.915788e+001
         vertex 2.392190e+002 1.711261e+002 1.915788e+001
         vertex 2.389431e+002 1.711261e+002 1.871365e+001
      endloop
   endfacet
   facet normal -8.645210e-001 -1.986612e-015 5.025967e-001
      outer loop
         vertex 2.392190e+002 1.441261e+002 1.915788e+001
         vertex 2.389431e+002 1.711261e+002 1.871365e+001
         vertex 2.389431e+002 1.441261e+002 1.871365e+001
      endloop
   endfacet
   facet normal -9.169708e-001 -1.623151e-015 3.989542e-001
      outer loop
         vertex 2.389431e+002 1.441261e+002 1.871365e+001
         vertex 2.389431e+002 1.711261e+002 1.871365e+001
         vertex 2.387486e+002 1.711261e+002 1.822825e+001
      endloop
   endfacet
   facet normal -9.386620e-001 -1.432234e-015 3.448386e-001
      outer loop
         vertex 2.389431e+002 1.441261e+002 1.871365e+001
         vertex 2.387486e+002 1.711261e+002 1.822825e+001
         vertex 2.387486e+002 1.441261e+002 1.822825e+001
      endloop
   endfacet
   facet normal -9.723177e-001 -1.037826e-015 2.336629e-001
      outer loop
         vertex 2.387486e+002 1.441261e+002 1.822825e+001
         vertex 2.387486e+002 1.711261e+002 1.822825e+001
         vertex 2.386412e+002 1.711261e+002 1.771645e+001
      endloop
   endfacet
   facet normal -9.842822e-001 -8.343369e-016 1.766028e-001
      outer loop
         vertex 2.387486e+002 1.441261e+002 1.822825e+001
         vertex 2.386412e+002 1.711261e+002 1.771645e+001
         vertex 2.386412e+002 1.441261e+002 1.771645e+001
      endloop
   endfacet
   facet normal -9.981211e-001 -4.209684e-016 6.127184e-002
      outer loop
         vertex 2.386412e+002 1.441261e+002 1.771645e+001
         vertex 2.386412e+002 1.711261e+002 1.771645e+001
         vertex 2.386244e+002 1.711261e+002 1.719378e+001
      endloop
   endfacet
   facet normal -9.999955e-001 -2.110895e-016 3.001007e-003
      outer loop
         vertex 2.386412e+002 1.441261e+002 1.771645e+001
         vertex 2.386244e+002 1.711261e+002 1.719378e+001
         vertex 2.386244e+002 1.441261e+002 1.719378e+001
      endloop
   endfacet
   facet normal -9.935971e-001 2.086808e-016 -1.129809e-001
      outer loop
         vertex 2.386244e+002 1.441261e+002 1.719378e+001
         vertex 2.386244e+002 1.711261e+002 1.719378e+001
         vertex 2.386986e+002 1.711261e+002 1.667614e+001
      endloop
   endfacet
   facet normal -9.853244e-001 4.185719e-016 -1.706920e-001
      outer loop
         vertex 2.386244e+002 1.441261e+002 1.719378e+001
         vertex 2.386986e+002 1.711261e+002 1.667614e+001
         vertex 2.386986e+002 1.441261e+002 1.667614e+001
      endloop
   endfacet
   facet normal -9.588832e-001 8.319893e-016 -2.838008e-001
      outer loop
         vertex 2.386986e+002 1.441261e+002 1.667614e+001
         vertex 2.386986e+002 1.711261e+002 1.667614e+001
         vertex 2.388616e+002 1.711261e+002 1.617925e+001
      endloop
   endfacet
   facet normal -9.407148e-001 1.035515e-015 -3.391986e-001
      outer loop
         vertex 2.386986e+002 1.441261e+002 1.667614e+001
         vertex 2.388616e+002 1.711261e+002 1.617925e+001
         vertex 2.388616e+002 1.441261e+002 1.617925e+001
      endloop
   endfacet
   facet normal -8.950341e-001 1.430018e-015 -4.459976e-001
      outer loop
         vertex 2.388616e+002 1.441261e+002 1.617925e+001
         vertex 2.388616e+002 1.711261e+002 1.617925e+001
         vertex 2.391084e+002 1.711261e+002 1.571820e+001
      endloop
   endfacet
   facet normal -8.675220e-001 1.620995e-015 -4.973988e-001
      outer loop
         vertex 2.388616e+002 1.441261e+002 1.617925e+001
         vertex 2.391084e+002 1.711261e+002 1.571820e+001
         vertex 2.391084e+002 1.441261e+002 1.571820e+001
      endloop
   endfacet
   facet normal -8.039899e-001 1.984597e-015 -5.946429e-001
      outer loop
         vertex 2.391084e+002 1.441261e+002 1.571820e+001
         vertex 2.391084e+002 1.711261e+002 1.571820e+001
         vertex 2.394314e+002 1.711261e+002 1.530701e+001
      endloop
   endfacet
   facet normal -7.679700e-001 2.157222e-015 -6.404858e-001
      outer loop
         vertex 2.391084e+002 1.441261e+002 1.571820e+001
         vertex 2.394314e+002 1.711261e+002 1.530701e+001
         vertex 2.394314e+002 1.441261e+002 1.530701e+001
      endloop
   endfacet
   facet normal -6.885168e-001 2.478874e-015 -7.252204e-001
      outer loop
         vertex 2.394314e+002 1.441261e+002 1.530701e+001
         vertex 2.394314e+002 1.711261e+002 1.530701e+001
         vertex 2.398210e+002 1.711261e+002 1.495817e+001
      endloop
   endfacet
   facet normal -6.450836e-001 2.627902e-015 -7.641120e-001
      outer loop
         vertex 2.394314e+002 1.441261e+002 1.530701e+001
         vertex 2.398210e+002 1.711261e+002 1.495817e+001
         vertex 2.398210e+002 1.441261e+002 1.495817e+001
      endloop
   endfacet
   facet normal -5.521235e-001 2.897833e-015 -8.337623e-001
      outer loop
         vertex 2.398210e+002 1.441261e+002 1.495817e+001
         vertex 2.398210e+002 1.711261e+002 1.495817e+001
         vertex 2.402652e+002 1.711261e+002 1.468228e+001
      endloop
   endfacet
   facet normal -5.025967e-001 3.018735e-015 -8.645210e-001
      outer loop
         vertex 2.398210e+002 1.441261e+002 1.495817e+001
         vertex 2.402652e+002 1.711261e+002 1.468228e+001
         vertex 2.402652e+002 1.441261e+002 1.468228e+001
      endloop
   endfacet
   facet normal -3.989542e-001 3.228742e-015 -9.169708e-001
      outer loop
         vertex 2.402652e+002 1.441261e+002 1.468228e+001
         vertex 2.402652e+002 1.711261e+002 1.468228e+001
         vertex 2.407506e+002 1.711261e+002 1.448772e+001
      endloop
   endfacet
   facet normal -3.448386e-001 3.317845e-015 -9.386620e-001
      outer loop
         vertex 2.402652e+002 1.441261e+002 1.468228e+001
         vertex 2.407506e+002 1.711261e+002 1.448772e+001
         vertex 2.407506e+002 1.441261e+002 1.448772e+001
      endloop
   endfacet
   facet normal -2.336629e-001 3.461547e-015 -9.723177e-001
      outer loop
         vertex 2.407506e+002 1.441261e+002 1.448772e+001
         vertex 2.407506e+002 1.711261e+002 1.448772e+001
         vertex 2.412625e+002 1.711261e+002 1.438040e+001
      endloop
   endfacet
   facet normal -1.766028e-001 3.516145e-015 -9.842822e-001
      outer loop
         vertex 2.407506e+002 1.441261e+002 1.448772e+001
         vertex 2.412625e+002 1.711261e+002 1.438040e+001
         vertex 2.412625e+002 1.441261e+002 1.438040e+001
      endloop
   endfacet
   facet normal -6.127184e-002 3.589175e-015 -9.981211e-001
      outer loop
         vertex 2.412625e+002 1.441261e+002 1.438040e+001
         vertex 2.412625e+002 1.711261e+002 1.438040e+001
         vertex 2.417851e+002 1.711261e+002 1.436359e+001
      endloop
   endfacet
   facet normal -3.001007e-003 3.607608e-015 -9.999955e-001
      outer loop
         vertex 2.412625e+002 1.441261e+002 1.438040e+001
         vertex 2.417851e+002 1.711261e+002 1.436359e+001
         vertex 2.417851e+002 1.441261e+002 1.436359e+001
      endloop
   endfacet
   facet normal 1.129809e-001 3.607748e-015 -9.935971e-001
      outer loop
         vertex 2.417851e+002 1.441261e+002 1.436359e+001
         vertex 2.417851e+002 1.711261e+002 1.436359e+001
         vertex 2.423028e+002 1.711261e+002 1.443779e+001
      endloop
   endfacet
   facet normal 1.706920e-001 3.589455e-015 -9.853244e-001
      outer loop
         vertex 2.417851e+002 1.441261e+002 1.436359e+001
         vertex 2.423028e+002 1.711261e+002 1.443779e+001
         vertex 2.423028e+002 1.441261e+002 1.443779e+001
      endloop
   endfacet
   facet normal 2.838008e-001 3.516701e-015 -9.588832e-001
      outer loop
         vertex 2.423028e+002 1.441261e+002 1.443779e+001
         vertex 2.423028e+002 1.711261e+002 1.443779e+001
         vertex 2.427997e+002 1.711261e+002 1.460075e+001
      endloop
   endfacet
   facet normal 3.391986e-001 3.462239e-015 -9.407148e-001
      outer loop
         vertex 2.423028e+002 1.441261e+002 1.443779e+001
         vertex 2.427997e+002 1.711261e+002 1.460075e+001
         vertex 2.427997e+002 1.441261e+002 1.460075e+001
      endloop
   endfacet
   facet normal 4.459976e-001 3.318801e-015 -8.950341e-001
      outer loop
         vertex 2.427997e+002 1.441261e+002 1.460075e+001
         vertex 2.427997e+002 1.711261e+002 1.460075e+001
         vertex 2.432607e+002 1.711261e+002 1.484753e+001
      endloop
   endfacet
   facet normal 4.973988e-001 3.229825e-015 -8.675220e-001
      outer loop
         vertex 2.427997e+002 1.441261e+002 1.460075e+001
         vertex 2.432607e+002 1.711261e+002 1.484753e+001
         vertex 2.432607e+002 1.441261e+002 1.484753e+001
      endloop
   endfacet
   facet normal 5.946429e-001 3.020061e-015 -8.039899e-001
      outer loop
         vertex 2.432607e+002 1.441261e+002 1.484753e+001
         vertex 2.432607e+002 1.711261e+002 1.484753e+001
         vertex 2.436719e+002 1.711261e+002 1.517061e+001
      endloop
   endfacet
   facet normal 6.404858e-001 2.899273e-015 -7.679700e-001
      outer loop
         vertex 2.432607e+002 1.441261e+002 1.484753e+001
         vertex 2.436719e+002 1.711261e+002 1.517061e+001
         vertex 2.436719e+002 1.441261e+002 1.517061e+001
      endloop
   endfacet
   facet normal 7.252204e-001 2.629558e-015 -6.885168e-001
      outer loop
         vertex 2.436719e+002 1.441261e+002 1.517061e+001
         vertex 2.436719e+002 1.711261e+002 1.517061e+001
         vertex 2.440207e+002 1.711261e+002 1.556019e+001
      endloop
   endfacet
   facet normal 7.641120e-001 2.480629e-015 -6.450836e-001
      outer loop
         vertex 2.436719e+002 1.441261e+002 1.517061e+001
         vertex 2.440207e+002 1.711261e+002 1.556019e+001
         vertex 2.440207e+002 1.441261e+002 1.556019e+001
      endloop
   endfacet
   facet normal 8.337623e-001 2.159157e-015 -5.521235e-001
      outer loop
         vertex 2.440207e+002 1.441261e+002 1.556019e+001
         vertex 2.440207e+002 1.711261e+002 1.556019e+001
         vertex 2.442966e+002 1.711261e+002 1.600442e+001
      endloop
   endfacet
   facet normal 8.645210e-001 1.986612e-015 -5.025967e-001
      outer loop
         vertex 2.440207e+002 1.441261e+002 1.556019e+001
         vertex 2.442966e+002 1.711261e+002 1.600442e+001
         vertex 2.442966e+002 1.441261e+002 1.600442e+001
      endloop
   endfacet
   facet normal 9.169708e-001 1.623151e-015 -3.989542e-001
      outer loop
         vertex 2.442966e+002 1.441261e+002 1.600442e+001
         vertex 2.442966e+002 1.711261e+002 1.600442e+001
         vertex 2.444912e+002 1.711261e+002 1.648981e+001
      endloop
   endfacet
   facet normal 9.386620e-001 1.432234e-015 -3.448386e-001
      outer loop
         vertex 2.442966e+002 1.441261e+002 1.600442e+001
         vertex 2.444912e+002 1.711261e+002 1.648981e+001
         vertex 2.444912e+002 1.441261e+002 1.648981e+001
      endloop
   endfacet
   facet normal 9.723177e-001 1.037826e-015 -2.336629e-001
      outer loop
         vertex 2.444912e+002 1.441261e+002 1.648981e+001
         vertex 2.444912e+002 1.711261e+002 1.648981e+001
         vertex 2.445985e+002 1.711261e+002 1.700162e+001
      endloop
   endfacet
   facet normal 9.842822e-001 8.343369e-016 -1.766028e-001
      outer loop
         vertex 2.444912e+002 1.441261e+002 1.648981e+001
         vertex 2.445985e+002 1.711261e+002 1.700162e+001
         vertex 2.445985e+002 1.441261e+002 1.700162e+001
      endloop
   endfacet
   facet normal 9.981211e-001 4.209684e-016 -6.127184e-002
      outer loop
         vertex 2.445985e+002 1.441261e+002 1.700162e+001
         vertex 2.445985e+002 1.711261e+002 1.700162e+001
         vertex 2.446153e+002 1.711261e+002 1.752428e+001
      endloop
   endfacet
   facet normal 9.999955e-001 2.110895e-016 -3.001007e-003
      outer loop
         vertex 2.445985e+002 1.441261e+002 1.700162e+001
         vertex 2.446153e+002 1.711261e+002 1.752428e+001
         vertex 2.446153e+002 1.441261e+002 1.752428e+001
      endloop
   endfacet
   facet normal 9.935971e-001 -2.086808e-016 1.129809e-001
      outer loop
         vertex 2.446153e+002 1.441261e+002 1.752428e+001
         vertex 2.446153e+002 1.711261e+002 1.752428e+001
         vertex 2.445411e+002 1.711261e+002 1.804192e+001
      endloop
   endfacet
   facet normal 9.853244e-001 -4.185719e-016 1.706920e-001
      outer loop
         vertex 2.446153e+002 1.441261e+002 1.752428e+001
         vertex 2.445411e+002 1.711261e+002 1.804192e+001
         vertex 2.445411e+002 1.441261e+002 1.804192e+001
      endloop
   endfacet
   facet normal 9.588832e-001 -8.319893e-016 2.838008e-001
      outer loop
         vertex 2.445411e+002 1.441261e+002 1.804192e+001
         vertex 2.445411e+002 1.711261e+002 1.804192e+001
         vertex 2.443781e+002 1.711261e+002 1.853882e+001
      endloop
   endfacet
   facet normal 9.407148e-001 -1.035515e-015 3.391986e-001
      outer loop
         vertex 2.445411e+002 1.441261e+002 1.804192e+001
         vertex 2.443781e+002 1.711261e+002 1.853882e+001
         vertex 2.443781e+002 1.441261e+002 1.853882e+001
      endloop
   endfacet
   facet normal 8.950341e-001 -1.430018e-015 4.459976e-001
      outer loop
         vertex 2.443781e+002 1.441261e+002 1.853882e+001
         vertex 2.443781e+002 1.711261e+002 1.853882e+001
         vertex 2.441314e+002 1.711261e+002 1.899986e+001
      endloop
   endfacet
   facet normal 8.675220e-001 -1.620995e-015 4.973988e-001
      outer loop
         vertex 2.443781e+002 1.441261e+002 1.853882e+001
         vertex 2.441314e+002 1.711261e+002 1.899986e+001
         vertex 2.441314e+002 1.441261e+002 1.899986e+001
      endloop
   endfacet
   facet normal 8.039899e-001 -1.984597e-015 5.946429e-001
      outer loop
         vertex 2.441314e+002 1.441261e+002 1.899986e+001
         vertex 2.441314e+002 1.711261e+002 1.899986e+001
         vertex 2.438083e+002 1.711261e+002 1.941105e+001
      endloop
   endfacet
   facet normal 7.679700e-001 -2.157222e-015 6.404858e-001
      outer loop
         vertex 2.441314e+002 1.441261e+002 1.899986e+001
         vertex 2.438083e+002 1.711261e+002 1.941105e+001
         vertex 2.438083e+002 1.441261e+002 1.941105e+001
      endloop
   endfacet
   facet normal 6.885168e-001 -2.478874e-015 7.252204e-001
      outer loop
         vertex 2.438083e+002 1.441261e+002 1.941105e+001
         vertex 2.438083e+002 1.711261e+002 1.941105e+001
         vertex 2.434187e+002 1.711261e+002 1.975990e+001
      endloop
   endfacet
   facet normal 6.450836e-001 -2.627902e-015 7.641120e-001
      outer loop
         vertex 2.438083e+002 1.441261e+002 1.941105e+001
         vertex 2.434187e+002 1.711261e+002 1.975990e+001
         vertex 2.434187e+002 1.441261e+002 1.975990e+001
      endloop
   endfacet
   facet normal 5.521235e-001 -2.897833e-015 8.337623e-001
      outer loop
         vertex 2.434187e+002 1.441261e+002 1.975990e+001
         vertex 2.434187e+002 1.711261e+002 1.975990e+001
         vertex 2.429745e+002 1.711261e+002 2.003579e+001
      endloop
   endfacet
   facet normal 5.025967e-001 -3.018735e-015 8.645210e-001
      outer loop
         vertex 2.434187e+002 1.441261e+002 1.975990e+001
         vertex 2.429745e+002 1.711261e+002 2.003579e+001
         vertex 2.429745e+002 1.441261e+002 2.003579e+001
      endloop
   endfacet
   facet normal 3.989542e-001 -3.228742e-015 9.169708e-001
      outer loop
         vertex 2.429745e+002 1.441261e+002 2.003579e+001
         vertex 2.429745e+002 1.711261e+002 2.003579e+001
         vertex 2.424891e+002 1.711261e+002 2.023035e+001
      endloop
   endfacet
   facet normal 3.448386e-001 -3.317845e-015 9.386620e-001
      outer loop
         vertex 2.429745e+002 1.441261e+002 2.003579e+001
         vertex 2.424891e+002 1.711261e+002 2.023035e+001
         vertex 2.424891e+002 1.441261e+002 2.023035e+001
      endloop
   endfacet
   facet normal 2.336629e-001 -3.461547e-015 9.723177e-001
      outer loop
         vertex 2.424891e+002 1.441261e+002 2.023035e+001
         vertex 2.424891e+002 1.711261e+002 2.023035e+001
         vertex 2.419773e+002 1.711261e+002 2.033767e+001
      endloop
   endfacet
   facet normal 1.766028e-001 -3.516145e-015 9.842822e-001
      outer loop
         vertex 2.424891e+002 1.441261e+002 2.023035e+001
         vertex 2.419773e+002 1.711261e+002 2.033767e+001
         vertex 2.419773e+002 1.441261e+002 2.033767e+001
      endloop
   endfacet
   facet normal 6.127184e-002 -3.589175e-015 9.981211e-001
      outer loop
         vertex 2.419773e+002 1.441261e+002 2.033767e+001
         vertex 2.419773e+002 1.711261e+002 2.033767e+001
         vertex 2.414546e+002 1.711261e+002 2.035448e+001
      endloop
   endfacet
   facet normal 3.001007e-003 -3.607608e-015 9.999955e-001
      outer loop
         vertex 2.419773e+002 1.441261e+002 2.033767e+001
         vertex 2.414546e+002 1.711261e+002 2.035448e+001
         vertex 2.414546e+002 1.441261e+002 2.035448e+001
      endloop
   endfacet
   facet normal -1.129809e-001 -3.607748e-015 9.935971e-001
      outer loop
         vertex 2.414546e+002 1.441261e+002 2.035448e+001
         vertex 2.414546e+002 1.711261e+002 2.035448e+001
         vertex 2.409370e+002 1.711261e+002 2.028028e+001
      endloop
   endfacet
   facet normal -1.706920e-001 -3.589455e-015 9.853244e-001
      outer loop
         vertex 2.414546e+002 1.441261e+002 2.035448e+001
         vertex 2.409370e+002 1.711261e+002 2.028028e+001
         vertex 2.409370e+002 1.441261e+002 2.028028e+001
      endloop
   endfacet
   facet normal -2.838008e-001 -3.516701e-015 9.588832e-001
      outer loop
         vertex 2.409370e+002 1.441261e+002 2.028028e+001
         vertex 2.409370e+002 1.711261e+002 2.028028e+001
         vertex 2.404401e+002 1.711261e+002 2.011731e+001
      endloop
   endfacet
   facet normal -3.391986e-001 -3.462239e-015 9.407148e-001
      outer loop
         vertex 2.409370e+002 1.441261e+002 2.028028e+001
         vertex 2.404401e+002 1.711261e+002 2.011731e+001
         vertex 2.404401e+002 1.441261e+002 2.011731e+001
      endloop
   endfacet
   facet normal -4.459976e-001 -3.318801e-015 8.950341e-001
      outer loop
         vertex 2.404401e+002 1.441261e+002 2.011731e+001
         vertex 2.404401e+002 1.711261e+002 2.011731e+001
         vertex 2.399790e+002 1.711261e+002 1.987054e+001
      endloop
   endfacet
   facet normal -2.002620e-016 1.000000e+000 3.608225e-015
      outer loop
         vertex 2.394314e+002 1.711261e+002 1.530701e+001
         vertex 2.438083e+002 1.711261e+002 1.941105e+001
         vertex 2.441314e+002 1.711261e+002 1.899986e+001
      endloop
   endfacet
   facet normal -2.002620e-016 1.000000e+000 3.608225e-015
      outer loop
         vertex 2.441314e+002 1.711261e+002 1.899986e+001
         vertex 2.443781e+002 1.711261e+002 1.853882e+001
         vertex 2.394314e+002 1.711261e+002 1.530701e+001
      endloop
   endfacet
   facet normal -2.002620e-016 1.000000e+000 3.608225e-015
      outer loop
         vertex 2.394314e+002 1.711261e+002 1.530701e+001
         vertex 2.443781e+002 1.711261e+002 1.853882e+001
         vertex 2.445411e+002 1.711261e+002 1.804192e+001
      endloop
   endfacet
   facet normal -2.002620e-016 1.000000e+000 3.608225e-015
      outer loop
         vertex 2.394314e+002 1.711261e+002 1.530701e+001
         vertex 2.445411e+002 1.711261e+002 1.804192e+001
         vertex 2.446153e+002 1.711261e+002 1.752428e+001
      endloop
   endfacet
   facet normal -2.002620e-016 1.000000e+000 3.608225e-015
      outer loop
         vertex 2.388616e+002 1.711261e+002 1.617925e+001
         vertex 2.386986e+002 1.711261e+002 1.667614e+001
         vertex 2.404401e+002 1.711261e+002 2.011731e+001
      endloop
   endfacet
   facet normal -2.002620e-016 1.000000e+000 3.608225e-015
      outer loop
         vertex 2.404401e+002 1.711261e+002 2.011731e+001
         vertex 2.386986e+002 1.711261e+002 1.667614e+001
         vertex 2.386244e+002 1.711261e+002 1.719378e+001
      endloop
   endfacet
   facet normal -2.002620e-016 1.000000e+000 3.608225e-015
      outer loop
         vertex 2.409370e+002 1.711261e+002 2.028028e+001
         vertex 2.414546e+002 1.711261e+002 2.035448e+001
         vertex 2.394314e+002 1.711261e+002 1.530701e+001
      endloop
   endfacet
   facet normal -2.002620e-016 1.000000e+000 3.608225e-015
      outer loop
         vertex 2.394314e+002 1.711261e+002 1.530701e+001
         vertex 2.414546e+002 1.711261e+002 2.035448e+001
         vertex 2.419773e+002 1.711261e+002 2.033767e+001
      endloop
   endfacet
   facet normal -2.002620e-016 1.000000e+000 3.608225e-015
      outer loop
         vertex 2.394314e+002 1.711261e+002 1.530701e+001
         vertex 2.419773e+002 1.711261e+002 2.033767e+001
         vertex 2.424891e+002 1.711261e+002 2.023035e+001
      endloop
   endfacet
   facet normal -2.002620e-016 1.000000e+000 3.608225e-015
      outer loop
         vertex 2.424891e+002 1.711261e+002 2.023035e+001
         vertex 2.429745e+002 1.711261e+002 2.003579e+001
         vertex 2.394314e+002 1.711261e+002 1.530701e+001
      endloop
   endfacet
   facet normal -2.002620e-016 1.000000e+000 3.608225e-015
      outer loop
         vertex 2.394314e+002 1.711261e+002 1.530701e+001
         vertex 2.429745e+002 1.711261e+002 2.003579e+001
         vertex 2.434187e+002 1.711261e+002 1.975990e+001
      endloop
   endfacet
   facet normal -2.002620e-016 1.000000e+000 3.608225e-015
      outer loop
         vertex 2.394314e+002 1.711261e+002 1.530701e+001
         vertex 2.434187e+002 1.711261e+002 1.975990e+001
         vertex 2.438083e+002 1.711261e+002 1.941105e+001
      endloop
   endfacet
   facet normal -2.002620e-016 1.000000e+000 3.608225e-015
      outer loop
         vertex 2.409370e+002 1.711261e+002 2.028028e+001
         vertex 2.394314e+002 1.711261e+002 1.530701e+001
         vertex 2.404401e+002 1.711261e+002 2.011731e+001
      endloop
   endfacet
   facet normal -2.002620e-016 1.000000e+000 3.608225e-015
      outer loop
         vertex 2.404401e+002 1.711261e+002 2.011731e+001
         vertex 2.394314e+002 1.711261e+002 1.530701e+001
         vertex 2.391084e+002 1.711261e+002 1.571820e+001
      endloop
   endfacet
   facet normal -2.002620e-016 1.000000e+000 3.608225e-015
      outer loop
         vertex 2.404401e+002 1.711261e+002 2.011731e+001
         vertex 2.391084e+002 1.711261e+002 1.571820e+001
         vertex 2.388616e+002 1.711261e+002 1.617925e+001
      endloop
   endfacet
   facet normal -2.002620e-016 1.000000e+000 3.608225e-015
      outer loop
         vertex 2.446153e+002 1.711261e+002 1.752428e+001
         vertex 2.445985e+002 1.711261e+002 1.700162e+001
         vertex 2.394314e+002 1.711261e+002 1.530701e+001
      endloop
   endfacet
   facet normal -2.002620e-016 1.000000e+000 3.608225e-015
      outer loop
         vertex 2.394314e+002 1.711261e+002 1.530701e+001
         vertex 2.445985e+002 1.711261e+002 1.700162e+001
         vertex 2.444912e+002 1.711261e+002 1.648981e+001
      endloop
   endfacet
   facet normal -2.002620e-016 1.000000e+000 3.608225e-015
      outer loop
         vertex 2.394314e+002 1.711261e+002 1.530701e+001
         vertex 2.444912e+002 1.711261e+002 1.648981e+001
         vertex 2.442966e+002 1.711261e+002 1.600442e+001
      endloop
   endfacet
   facet normal -2.002620e-016 1.000000e+000 3.608225e-015
      outer loop
         vertex 2.442966e+002 1.711261e+002 1.600442e+001
         vertex 2.440207e+002 1.711261e+002 1.556019e+001
         vertex 2.394314e+002 1.711261e+002 1.530701e+001
      endloop
   endfacet
   facet normal -2.002620e-016 1.000000e+000 3.608225e-015
      outer loop
         vertex 2.394314e+002 1.711261e+002 1.530701e+001
         vertex 2.440207e+002 1.711261e+002 1.556019e+001
         vertex 2.436719e+002 1.711261e+002 1.517061e+001
      endloop
   endfacet
   facet normal -2.002620e-016 1.000000e+000 3.608225e-015
      outer loop
         vertex 2.394314e+002 1.711261e+002 1.530701e+001
         vertex 2.436719e+002 1.711261e+002 1.517061e+001
         vertex 2.432607e+002 1.711261e+002 1.484753e+001
      endloop
   endfacet
   facet normal -2.002620e-016 1.000000e+000 3.608225e-015
      outer loop
         vertex 2.432607e+002 1.711261e+002 1.484753e+001
         vertex 2.427997e+002 1.711261e+002 1.460075e+001
         vertex 2.394314e+002 1.711261e+002 1.530701e+001
      endloop
   endfacet
   facet normal -2.002620e-016 1.000000e+000 3.608225e-015
      outer loop
         vertex 2.394314e+002 1.711261e+002 1.530701e+001
         vertex 2.427997e+002 1.711261e+002 1.460075e+001
         vertex 2.423028e+002 1.711261e+002 1.443779e+001
      endloop
   endfacet
   facet normal -2.002620e-016 1.000000e+000 3.608225e-015
      outer loop
         vertex 2.394314e+002 1.711261e+002 1.530701e+001
         vertex 2.423028e+002 1.711261e+002 1.443779e+001
         vertex 2.398210e+002 1.711261e+002 1.495817e+001
      endloop
   endfacet
   facet normal -2.002620e-016 1.000000e+000 3.608225e-015
      outer loop
         vertex 2.423028e+002 1.711261e+002 1.443779e+001
         vertex 2.417851e+002 1.711261e+002 1.436359e+001
         vertex 2.412625e+002 1.711261e+002 1.438040e+001
      endloop
   endfacet
   facet normal -2.002620e-016 1.000000e+000 3.608225e-015
      outer loop
         vertex 2.412625e+002 1.711261e+002 1.438040e+001
         vertex 2.407506e+002 1.711261e+002 1.448772e+001
         vertex 2.423028e+002 1.711261e+002 1.443779e+001
      endloop
   endfacet
   facet normal -2.002620e-016 1.000000e+000 3.608225e-015
      outer loop
         vertex 2.423028e+002 1.711261e+002 1.443779e+001
         vertex 2.407506e+002 1.711261e+002 1.448772e+001
         vertex 2.402652e+002 1.711261e+002 1.468228e+001
      endloop
   endfacet
   facet normal -2.002620e-016 1.000000e+000 3.608225e-015
      outer loop
         vertex 2.423028e+002 1.711261e+002 1.443779e+001
         vertex 2.402652e+002 1.711261e+002 1.468228e+001
         vertex 2.398210e+002 1.711261e+002 1.495817e+001
      endloop
   endfacet
   facet normal -2.002620e-016 1.000000e+000 3.608225e-015
      outer loop
         vertex 2.386244e+002 1.711261e+002 1.719378e+001
         vertex 2.386412e+002 1.711261e+002 1.771645e+001
         vertex 2.404401e+002 1.711261e+002 2.011731e+001
      endloop
   endfacet
   facet normal -2.002620e-016 1.000000e+000 3.608225e-015
      outer loop
         vertex 2.404401e+002 1.711261e+002 2.011731e+001
         vertex 2.386412e+002 1.711261e+002 1.771645e+001
         vertex 2.387486e+002 1.711261e+002 1.822825e+001
      endloop
   endfacet
   facet normal -2.002620e-016 1.000000e+000 3.608225e-015
      outer loop
         vertex 2.404401e+002 1.711261e+002 2.011731e+001
         vertex 2.387486e+002 1.711261e+002 1.822825e+001
         vertex 2.389431e+002 1.711261e+002 1.871365e+001
      endloop
   endfacet
   facet normal -2.002620e-016 1.000000e+000 3.608225e-015
      outer loop
         vertex 2.389431e+002 1.711261e+002 1.871365e+001
         vertex 2.392190e+002 1.711261e+002 1.915788e+001
         vertex 2.404401e+002 1.711261e+002 2.011731e+001
      endloop
   endfacet
   facet normal -2.002620e-016 1.000000e+000 3.608225e-015
      outer loop
         vertex 2.404401e+002 1.711261e+002 2.011731e+001
         vertex 2.392190e+002 1.711261e+002 1.915788e+001
         vertex 2.395678e+002 1.711261e+002 1.954746e+001
      endloop
   endfacet
   facet normal -2.002620e-016 1.000000e+000 3.608225e-015
      outer loop
         vertex 2.404401e+002 1.711261e+002 2.011731e+001
         vertex 2.395678e+002 1.711261e+002 1.954746e+001
         vertex 2.399790e+002 1.711261e+002 1.987054e+001
      endloop
   endfacet
   facet normal -2.002620e-016 1.000000e+000 3.608225e-015
      outer loop
         vertex 2.440837e+002 1.441261e+002 1.420796e+001
         vertex 2.432607e+002 1.441261e+002 1.484753e+001
         vertex 2.436719e+002 1.441261e+002 1.517061e+001
      endloop
   endfacet
   facet normal -2.002620e-016 1.000000e+000 3.608225e-015
      outer loop
         vertex 2.440837e+002 1.441261e+002 1.420796e+001
         vertex 2.438076e+002 1.441261e+002 1.401036e+001
         vertex 2.432607e+002 1.441261e+002 1.484753e+001
      endloop
   endfacet
   facet normal -2.002620e-016 1.000000e+000 3.608225e-015
      outer loop
         vertex 2.432607e+002 1.441261e+002 1.484753e+001
         vertex 2.438076e+002 1.441261e+002 1.401036e+001
         vertex 2.435158e+002 1.441261e+002 1.383688e+001
      endloop
   endfacet
   facet normal -2.002620e-016 1.000000e+000 3.608225e-015
      outer loop
         vertex 2.432607e+002 1.441261e+002 1.484753e+001
         vertex 2.435158e+002 1.441261e+002 1.383688e+001
         vertex 2.427997e+002 1.441261e+002 1.460075e+001
      endloop
   endfacet
   facet normal -2.002620e-016 1.000000e+000 3.608225e-015
      outer loop
         vertex 2.427997e+002 1.441261e+002 1.460075e+001
         vertex 2.435158e+002 1.441261e+002 1.383688e+001
         vertex 2.428932e+002 1.441261e+002 1.356714e+001
      endloop
   endfacet
   facet normal -2.002620e-016 1.000000e+000 3.608225e-015
      outer loop
         vertex 2.427997e+002 1.441261e+002 1.460075e+001
         vertex 2.428932e+002 1.441261e+002 1.356714e+001
         vertex 2.423028e+002 1.441261e+002 1.443779e+001
      endloop
   endfacet
   facet normal -2.002620e-016 1.000000e+000 3.608225e-015
      outer loop
         vertex 2.423028e+002 1.441261e+002 1.443779e+001
         vertex 2.428932e+002 1.441261e+002 1.356714e+001
         vertex 2.422341e+002 1.441261e+002 1.340648e+001
      endloop
   endfacet
   facet normal -2.002620e-016 1.000000e+000 3.608225e-015
      outer loop
         vertex 2.423028e+002 1.441261e+002 1.443779e+001
         vertex 2.422341e+002 1.441261e+002 1.340648e+001
         vertex 2.417851e+002 1.441261e+002 1.436359e+001
      endloop
   endfacet
   facet normal -2.002620e-016 1.000000e+000 3.608225e-015
      outer loop
         vertex 2.417851e+002 1.441261e+002 1.436359e+001
         vertex 2.422341e+002 1.441261e+002 1.340648e+001
         vertex 2.415573e+002 1.441261e+002 1.335952e+001
      endloop
   endfacet
   facet normal -2.002620e-016 1.000000e+000 3.608225e-015
      outer loop
         vertex 2.417851e+002 1.441261e+002 1.436359e+001
         vertex 2.415573e+002 1.441261e+002 1.335952e+001
         vertex 2.412625e+002 1.441261e+002 1.438040e+001
      endloop
   endfacet
   facet normal -2.002620e-016 1.000000e+000 3.608225e-015
      outer loop
         vertex 2.412625e+002 1.441261e+002 1.438040e+001
         vertex 2.415573e+002 1.441261e+002 1.335952e+001
         vertex 2.408823e+002 1.441261e+002 1.342763e+001
      endloop
   endfacet
   facet normal -2.002620e-016 1.000000e+000 3.608225e-015
      outer loop
         vertex 2.412625e+002 1.441261e+002 1.438040e+001
         vertex 2.408823e+002 1.441261e+002 1.342763e+001
         vertex 2.407506e+002 1.441261e+002 1.448772e+001
      endloop
   endfacet
   facet normal -2.002620e-016 1.000000e+000 3.608225e-015
      outer loop
         vertex 2.407506e+002 1.441261e+002 1.448772e+001
         vertex 2.408823e+002 1.441261e+002 1.342763e+001
         vertex 2.402285e+002 1.441261e+002 1.360883e+001
      endloop
   endfacet
   facet normal -2.002620e-016 1.000000e+000 3.608225e-015
      outer loop
         vertex 2.407506e+002 1.441261e+002 1.448772e+001
         vertex 2.402285e+002 1.441261e+002 1.360883e+001
         vertex 2.402652e+002 1.441261e+002 1.468228e+001
      endloop
   endfacet
   facet normal -2.002620e-016 1.000000e+000 3.608225e-015
      outer loop
         vertex 2.402652e+002 1.441261e+002 1.468228e+001
         vertex 2.402285e+002 1.441261e+002 1.360883e+001
         vertex 2.396147e+002 1.441261e+002 1.389792e+001
      endloop
   endfacet
   facet normal -2.002620e-016 1.000000e+000 3.608225e-015
      outer loop
         vertex 2.402652e+002 1.441261e+002 1.468228e+001
         vertex 2.396147e+002 1.441261e+002 1.389792e+001
         vertex 2.398210e+002 1.441261e+002 1.495817e+001
      endloop
   endfacet
   facet normal -2.002620e-016 1.000000e+000 3.608225e-015
      outer loop
         vertex 2.398210e+002 1.441261e+002 1.495817e+001
         vertex 2.396147e+002 1.441261e+002 1.389792e+001
         vertex 2.390586e+002 1.441261e+002 1.428658e+001
      endloop
   endfacet
   facet normal -2.002620e-016 1.000000e+000 3.608225e-015
      outer loop
         vertex 2.398210e+002 1.441261e+002 1.495817e+001
         vertex 2.390586e+002 1.441261e+002 1.428658e+001
         vertex 2.394314e+002 1.441261e+002 1.530701e+001
      endloop
   endfacet
   facet normal -2.002620e-016 1.000000e+000 3.608225e-015
      outer loop
         vertex 2.394314e+002 1.441261e+002 1.530701e+001
         vertex 2.390586e+002 1.441261e+002 1.428658e+001
         vertex 2.385762e+002 1.441261e+002 1.476363e+001
      endloop
   endfacet
   facet normal -2.002620e-016 1.000000e+000 3.608225e-015
      outer loop
         vertex 2.394314e+002 1.441261e+002 1.530701e+001
         vertex 2.385762e+002 1.441261e+002 1.476363e+001
         vertex 2.391084e+002 1.441261e+002 1.571820e+001
      endloop
   endfacet
   facet normal -2.002620e-016 1.000000e+000 3.608225e-015
      outer loop
         vertex 2.391084e+002 1.441261e+002 1.571820e+001
         vertex 2.385762e+002 1.441261e+002 1.476363e+001
         vertex 2.381814e+002 1.441261e+002 1.531535e+001
      endloop
   endfacet
   facet normal -2.002620e-016 1.000000e+000 3.608225e-015
      outer loop
         vertex 2.391084e+002 1.441261e+002 1.571820e+001
         vertex 2.381814e+002 1.441261e+002 1.531535e+001
         vertex 2.388616e+002 1.441261e+002 1.617925e+001
      endloop
   endfacet
   facet normal -2.002620e-016 1.000000e+000 3.608225e-015
      outer loop
         vertex 2.388616e+002 1.441261e+002 1.617925e+001
         vertex 2.381814e+002 1.441261e+002 1.531535e+001
         vertex 2.378854e+002 1.441261e+002 1.592586e+001
      endloop
   endfacet
   facet normal -2.002620e-016 1.000000e+000 3.608225e-015
      outer loop
         vertex 2.388616e+002 1.441261e+002 1.617925e+001
         vertex 2.378854e+002 1.441261e+002 1.592586e+001
         vertex 2.386986e+002 1.441261e+002 1.667614e+001
      endloop
   endfacet
   facet normal -2.002620e-016 1.000000e+000 3.608225e-015
      outer loop
         vertex 2.386986e+002 1.441261e+002 1.667614e+001
         vertex 2.378854e+002 1.441261e+002 1.592586e+001
         vertex 2.376969e+002 1.441261e+002 1.657759e+001
      endloop
   endfacet
   facet normal -2.002620e-016 1.000000e+000 3.608225e-015
      outer loop
         vertex 2.386986e+002 1.441261e+002 1.667614e+001
         vertex 2.376969e+002 1.441261e+002 1.657759e+001
         vertex 2.386244e+002 1.441261e+002 1.719378e+001
      endloop
   endfacet
   facet normal -2.002620e-016 1.000000e+000 3.608225e-015
      outer loop
         vertex 2.386244e+002 1.441261e+002 1.719378e+001
         vertex 2.376969e+002 1.441261e+002 1.657759e+001
         vertex 2.376213e+002 1.441261e+002 1.725181e+001
      endloop
   endfacet
   facet normal -2.002620e-016 1.000000e+000 3.608225e-015
      outer loop
         vertex 2.386244e+002 1.441261e+002 1.719378e+001
         vertex 2.376213e+002 1.441261e+002 1.725181e+001
         vertex 2.386412e+002 1.441261e+002 1.771645e+001
      endloop
   endfacet
   facet normal -2.002620e-016 1.000000e+000 3.608225e-015
      outer loop
         vertex 2.386412e+002 1.441261e+002 1.771645e+001
         vertex 2.376213e+002 1.441261e+002 1.725181e+001
         vertex 2.376607e+002 1.441261e+002 1.792912e+001
      endloop
   endfacet
   facet normal -2.002620e-016 1.000000e+000 3.608225e-015
      outer loop
         vertex 2.386412e+002 1.441261e+002 1.771645e+001
         vertex 2.376607e+002 1.441261e+002 1.792912e+001
         vertex 2.387486e+002 1.441261e+002 1.822825e+001
      endloop
   endfacet
   facet normal -2.002620e-016 1.000000e+000 3.608225e-015
      outer loop
         vertex 2.387486e+002 1.441261e+002 1.822825e+001
         vertex 2.376607e+002 1.441261e+002 1.792912e+001
         vertex 2.378140e+002 1.441261e+002 1.859002e+001
      endloop
   endfacet
   facet normal -2.002620e-016 1.000000e+000 3.608225e-015
      outer loop
         vertex 2.387486e+002 1.441261e+002 1.822825e+001
         vertex 2.378140e+002 1.441261e+002 1.859002e+001
         vertex 2.389431e+002 1.441261e+002 1.871365e+001
      endloop
   endfacet
   facet normal -2.002620e-016 1.000000e+000 3.608225e-015
      outer loop
         vertex 2.389431e+002 1.441261e+002 1.871365e+001
         vertex 2.378140e+002 1.441261e+002 1.859002e+001
         vertex 2.380768e+002 1.441261e+002 1.921551e+001
      endloop
   endfacet
   facet normal -2.002620e-016 1.000000e+000 3.608225e-015
      outer loop
         vertex 2.389431e+002 1.441261e+002 1.871365e+001
         vertex 2.380768e+002 1.441261e+002 1.921551e+001
         vertex 2.392190e+002 1.441261e+002 1.915788e+001
      endloop
   endfacet
   facet normal -2.002620e-016 1.000000e+000 3.608225e-015
      outer loop
         vertex 2.392190e+002 1.441261e+002 1.915788e+001
         vertex 2.380768e+002 1.441261e+002 1.921551e+001
         vertex 2.384415e+002 1.441261e+002 1.978759e+001
      endloop
   endfacet
   facet normal -2.002620e-016 1.000000e+000 3.608225e-015
      outer loop
         vertex 2.392190e+002 1.441261e+002 1.915788e+001
         vertex 2.384415e+002 1.441261e+002 1.978759e+001
         vertex 2.395678e+002 1.441261e+002 1.954746e+001
      endloop
   endfacet
   facet normal -2.002620e-016 1.000000e+000 3.608225e-015
      outer loop
         vertex 2.395678e+002 1.441261e+002 1.954746e+001
         vertex 2.384415e+002 1.441261e+002 1.978759e+001
         vertex 2.388976e+002 1.441261e+002 2.028980e+001
      endloop
   endfacet
   facet normal -2.002620e-016 1.000000e+000 3.608225e-015
      outer loop
         vertex 2.395678e+002 1.441261e+002 1.954746e+001
         vertex 2.388976e+002 1.441261e+002 2.028980e+001
         vertex 2.399790e+002 1.441261e+002 1.987054e+001
      endloop
   endfacet
   facet normal -2.002620e-016 1.000000e+000 3.608225e-015
      outer loop
         vertex 2.399790e+002 1.441261e+002 1.987054e+001
         vertex 2.388976e+002 1.441261e+002 2.028980e+001
         vertex 2.394321e+002 1.441261e+002 2.070771e+001
      endloop
   endfacet
   facet normal -2.002620e-016 1.000000e+000 3.608225e-015
      outer loop
         vertex 2.399790e+002 1.441261e+002 1.987054e+001
         vertex 2.394321e+002 1.441261e+002 2.070771e+001
         vertex 2.404401e+002 1.441261e+002 2.011731e+001
      endloop
   endfacet
   facet normal -2.002620e-016 1.000000e+000 3.608225e-015
      outer loop
         vertex 2.404401e+002 1.441261e+002 2.011731e+001
         vertex 2.394321e+002 1.441261e+002 2.070771e+001
         vertex 2.400295e+002 1.441261e+002 2.102928e+001
      endloop
   endfacet
   facet normal -2.002620e-016 1.000000e+000 3.608225e-015
      outer loop
         vertex 2.404401e+002 1.441261e+002 2.011731e+001
         vertex 2.400295e+002 1.441261e+002 2.102928e+001
         vertex 2.409370e+002 1.441261e+002 2.028028e+001
      endloop
   endfacet
   facet normal -2.002620e-016 1.000000e+000 3.608225e-015
      outer loop
         vertex 2.409370e+002 1.441261e+002 2.028028e+001
         vertex 2.400295e+002 1.441261e+002 2.102928e+001
         vertex 2.406726e+002 1.441261e+002 2.124526e+001
      endloop
   endfacet
   facet normal -2.002620e-016 1.000000e+000 3.608225e-015
      outer loop
         vertex 2.409370e+002 1.441261e+002 2.028028e+001
         vertex 2.406726e+002 1.441261e+002 2.124526e+001
         vertex 2.414546e+002 1.441261e+002 2.035448e+001
      endloop
   endfacet
   facet normal -2.002620e-016 1.000000e+000 3.608225e-015
      outer loop
         vertex 2.414546e+002 1.441261e+002 2.035448e+001
         vertex 2.406726e+002 1.441261e+002 2.124526e+001
         vertex 2.413430e+002 1.441261e+002 2.134944e+001
      endloop
   endfacet
   facet normal -2.002620e-016 1.000000e+000 3.608225e-015
      outer loop
         vertex 2.414546e+002 1.441261e+002 2.035448e+001
         vertex 2.413430e+002 1.441261e+002 2.134944e+001
         vertex 2.419773e+002 1.441261e+002 2.033767e+001
      endloop
   endfacet
   facet normal -2.002620e-016 1.000000e+000 3.608225e-015
      outer loop
         vertex 2.419773e+002 1.441261e+002 2.033767e+001
         vertex 2.413430e+002 1.441261e+002 2.134944e+001
         vertex 2.420214e+002 1.441261e+002 2.133883e+001
      endloop
   endfacet
   facet normal -2.002620e-016 1.000000e+000 3.608225e-015
      outer loop
         vertex 2.419773e+002 1.441261e+002 2.033767e+001
         vertex 2.420214e+002 1.441261e+002 2.133883e+001
         vertex 2.424891e+002 1.441261e+002 2.023035e+001
      endloop
   endfacet
   facet normal -2.002620e-016 1.000000e+000 3.608225e-015
      outer loop
         vertex 2.424891e+002 1.441261e+002 2.023035e+001
         vertex 2.420214e+002 1.441261e+002 2.133883e+001
         vertex 2.426882e+002 1.441261e+002 2.121372e+001
      endloop
   endfacet
   facet normal -2.002620e-016 1.000000e+000 3.608225e-015
      outer loop
         vertex 2.424891e+002 1.441261e+002 2.023035e+001
         vertex 2.426882e+002 1.441261e+002 2.121372e+001
         vertex 2.429745e+002 1.441261e+002 2.003579e+001
      endloop
   endfacet
   facet normal -2.002620e-016 1.000000e+000 3.608225e-015
      outer loop
         vertex 2.429745e+002 1.441261e+002 2.003579e+001
         vertex 2.426882e+002 1.441261e+002 2.121372e+001
         vertex 2.433243e+002 1.441261e+002 2.097772e+001
      endloop
   endfacet
   facet normal -2.002620e-016 1.000000e+000 3.608225e-015
      outer loop
         vertex 2.429745e+002 1.441261e+002 2.003579e+001
         vertex 2.433243e+002 1.441261e+002 2.097772e+001
         vertex 2.434187e+002 1.441261e+002 1.975990e+001
      endloop
   endfacet
   facet normal -2.002620e-016 1.000000e+000 3.608225e-015
      outer loop
         vertex 2.434187e+002 1.441261e+002 1.975990e+001
         vertex 2.433243e+002 1.441261e+002 2.097772e+001
         vertex 2.439113e+002 1.441261e+002 2.063762e+001
      endloop
   endfacet
   facet normal -2.002620e-016 1.000000e+000 3.608225e-015
      outer loop
         vertex 2.434187e+002 1.441261e+002 1.975990e+001
         vertex 2.439113e+002 1.441261e+002 2.063762e+001
         vertex 2.438083e+002 1.441261e+002 1.941105e+001
      endloop
   endfacet
   facet normal -2.002620e-016 1.000000e+000 3.608225e-015
      outer loop
         vertex 2.438083e+002 1.441261e+002 1.941105e+001
         vertex 2.439113e+002 1.441261e+002 2.063762e+001
         vertex 2.444325e+002 1.441261e+002 2.020320e+001
      endloop
   endfacet
   facet normal -2.002620e-016 1.000000e+000 3.608225e-015
      outer loop
         vertex 2.438083e+002 1.441261e+002 1.941105e+001
         vertex 2.444325e+002 1.441261e+002 2.020320e+001
         vertex 2.441314e+002 1.441261e+002 1.899986e+001
      endloop
   endfacet
   facet normal -2.002620e-016 1.000000e+000 3.608225e-015
      outer loop
         vertex 2.441314e+002 1.441261e+002 1.899986e+001
         vertex 2.444325e+002 1.441261e+002 2.020320e+001
         vertex 2.448727e+002 1.441261e+002 1.968696e+001
      endloop
   endfacet
   facet normal -2.002620e-016 1.000000e+000 3.608225e-015
      outer loop
         vertex 2.441314e+002 1.441261e+002 1.899986e+001
         vertex 2.448727e+002 1.441261e+002 1.968696e+001
         vertex 2.443781e+002 1.441261e+002 1.853882e+001
      endloop
   endfacet
   facet normal -2.002620e-016 1.000000e+000 3.608225e-015
      outer loop
         vertex 2.443781e+002 1.441261e+002 1.853882e+001
         vertex 2.448727e+002 1.441261e+002 1.968696e+001
         vertex 2.452193e+002 1.441261e+002 1.910375e+001
      endloop
   endfacet
   facet normal -2.002620e-016 1.000000e+000 3.608225e-015
      outer loop
         vertex 2.443781e+002 1.441261e+002 1.853882e+001
         vertex 2.452193e+002 1.441261e+002 1.910375e+001
         vertex 2.445411e+002 1.441261e+002 1.804192e+001
      endloop
   endfacet
   facet normal -2.002620e-016 1.000000e+000 3.608225e-015
      outer loop
         vertex 2.445411e+002 1.441261e+002 1.804192e+001
         vertex 2.452193e+002 1.441261e+002 1.910375e+001
         vertex 2.454624e+002 1.441261e+002 1.847034e+001
      endloop
   endfacet
   facet normal -2.002620e-016 1.000000e+000 3.608225e-015
      outer loop
         vertex 2.445411e+002 1.441261e+002 1.804192e+001
         vertex 2.454624e+002 1.441261e+002 1.847034e+001
         vertex 2.446153e+002 1.441261e+002 1.752428e+001
      endloop
   endfacet
   facet normal -2.002620e-016 1.000000e+000 3.608225e-015
      outer loop
         vertex 2.446153e+002 1.441261e+002 1.752428e+001
         vertex 2.454624e+002 1.441261e+002 1.847034e+001
         vertex 2.455949e+002 1.441261e+002 1.780497e+001
      endloop
   endfacet
   facet normal -2.002620e-016 1.000000e+000 3.608225e-015
      outer loop
         vertex 2.446153e+002 1.441261e+002 1.752428e+001
         vertex 2.455949e+002 1.441261e+002 1.780497e+001
         vertex 2.445985e+002 1.441261e+002 1.700162e+001
      endloop
   endfacet
   facet normal -2.002620e-016 1.000000e+000 3.608225e-015
      outer loop
         vertex 2.445985e+002 1.441261e+002 1.700162e+001
         vertex 2.455949e+002 1.441261e+002 1.780497e+001
         vertex 2.456131e+002 1.441261e+002 1.712676e+001
      endloop
   endfacet
   facet normal -2.002620e-016 1.000000e+000 3.608225e-015
      outer loop
         vertex 2.445985e+002 1.441261e+002 1.700162e+001
         vertex 2.456131e+002 1.441261e+002 1.712676e+001
         vertex 2.444912e+002 1.441261e+002 1.648981e+001
      endloop
   endfacet
   facet normal -2.002620e-016 1.000000e+000 3.608225e-015
      outer loop
         vertex 2.444912e+002 1.441261e+002 1.648981e+001
         vertex 2.456131e+002 1.441261e+002 1.712676e+001
         vertex 2.455164e+002 1.441261e+002 1.645524e+001
      endloop
   endfacet
   facet normal -2.002620e-016 1.000000e+000 3.608225e-015
      outer loop
         vertex 2.444912e+002 1.441261e+002 1.648981e+001
         vertex 2.455164e+002 1.441261e+002 1.645524e+001
         vertex 2.442966e+002 1.441261e+002 1.600442e+001
      endloop
   endfacet
   facet normal -2.002620e-016 1.000000e+000 3.608225e-015
      outer loop
         vertex 2.442966e+002 1.441261e+002 1.600442e+001
         vertex 2.455164e+002 1.441261e+002 1.645524e+001
         vertex 2.453076e+002 1.441261e+002 1.580972e+001
      endloop
   endfacet
   facet normal -2.002620e-016 1.000000e+000 3.608225e-015
      outer loop
         vertex 2.442966e+002 1.441261e+002 1.600442e+001
         vertex 2.453076e+002 1.441261e+002 1.580972e+001
         vertex 2.440207e+002 1.441261e+002 1.556019e+001
      endloop
   endfacet
   facet normal -2.002620e-016 1.000000e+000 3.608225e-015
      outer loop
         vertex 2.440207e+002 1.441261e+002 1.556019e+001
         vertex 2.453076e+002 1.441261e+002 1.580972e+001
         vertex 2.449928e+002 1.441261e+002 1.520877e+001
      endloop
   endfacet
   facet normal -2.002620e-016 1.000000e+000 3.608225e-015
      outer loop
         vertex 2.440207e+002 1.441261e+002 1.556019e+001
         vertex 2.449928e+002 1.441261e+002 1.520877e+001
         vertex 2.436719e+002 1.441261e+002 1.517061e+001
      endloop
   endfacet
   facet normal -2.002620e-016 1.000000e+000 3.608225e-015
      outer loop
         vertex 2.436719e+002 1.441261e+002 1.517061e+001
         vertex 2.449928e+002 1.441261e+002 1.520877e+001
         vertex 2.445808e+002 1.441261e+002 1.466968e+001
      endloop
   endfacet
   facet normal -2.002620e-016 1.000000e+000 3.608225e-015
      outer loop
         vertex 2.436719e+002 1.441261e+002 1.517061e+001
         vertex 2.445808e+002 1.441261e+002 1.466968e+001
         vertex 2.440837e+002 1.441261e+002 1.420796e+001
      endloop
   endfacet
   facet normal 5.704098e-001 3.077884e-015 -8.213602e-001
      outer loop
         vertex 2.440837e+002 1.421261e+002 1.420796e+001
         vertex 2.438076e+002 1.421261e+002 1.401036e+001
         vertex 2.438076e+002 1.441261e+002 1.401036e+001
      endloop
   endfacet
   facet normal 5.230406e-001 3.180063e-015 -8.523077e-001
      outer loop
         vertex 2.438076e+002 1.441261e+002 1.401036e+001
         vertex 2.438076e+002 1.421261e+002 1.401036e+001
         vertex 2.435158e+002 1.441261e+002 1.383688e+001
      endloop
   endfacet
   facet normal 5.934371e-001 3.023032e-015 -8.048804e-001
      outer loop
         vertex 2.438076e+002 1.441261e+002 1.401036e+001
         vertex 2.440837e+002 1.441261e+002 1.420796e+001
         vertex 2.440837e+002 1.421261e+002 1.420796e+001
      endloop
   endfacet
   facet normal 6.595066e-001 2.844372e-015 -7.516987e-001
      outer loop
         vertex 2.440837e+002 1.421261e+002 1.420796e+001
         vertex 2.440837e+002 1.441261e+002 1.420796e+001
         vertex 2.445808e+002 1.441261e+002 1.466968e+001
      endloop
   endfacet
   facet normal 7.010642e-001 2.713415e-015 -7.130982e-001
      outer loop
         vertex 2.440837e+002 1.421261e+002 1.420796e+001
         vertex 2.445808e+002 1.441261e+002 1.466968e+001
         vertex 2.445808e+002 1.421261e+002 1.466968e+001
      endloop
   endfacet
   facet normal 7.770579e-001 2.426737e-015 -6.294291e-001
      outer loop
         vertex 2.445808e+002 1.421261e+002 1.466968e+001
         vertex 2.445808e+002 1.441261e+002 1.466968e+001
         vertex 2.449928e+002 1.441261e+002 1.520877e+001
      endloop
   endfacet
   facet normal 8.114942e-001 2.271016e-015 -5.843605e-001
      outer loop
         vertex 2.445808e+002 1.421261e+002 1.466968e+001
         vertex 2.449928e+002 1.441261e+002 1.520877e+001
         vertex 2.449928e+002 1.421261e+002 1.520877e+001
      endloop
   endfacet
   facet normal 8.722547e-001 1.939289e-015 -4.890519e-001
      outer loop
         vertex 2.449928e+002 1.421261e+002 1.520877e+001
         vertex 2.449928e+002 1.441261e+002 1.520877e+001
         vertex 2.453076e+002 1.441261e+002 1.580972e+001
      endloop
   endfacet
   facet normal 8.985790e-001 1.763283e-015 -4.388118e-001
      outer loop
         vertex 2.449928e+002 1.421261e+002 1.520877e+001
         vertex 2.453076e+002 1.441261e+002 1.580972e+001
         vertex 2.453076e+002 1.421261e+002 1.580972e+001
      endloop
   endfacet
   facet normal 9.423583e-001 1.396051e-015 -3.346056e-001
      outer loop
         vertex 2.453076e+002 1.421261e+002 1.580972e+001
         vertex 2.453076e+002 1.441261e+002 1.580972e+001
         vertex 2.455164e+002 1.441261e+002 1.645524e+001
      endloop
   endfacet
   facet normal 9.598133e-001 1.204824e-015 -2.806394e-001
      outer loop
         vertex 2.453076e+002 1.421261e+002 1.580972e+001
         vertex 2.455164e+002 1.441261e+002 1.645524e+001
         vertex 2.455164e+002 1.421261e+002 1.645524e+001
      endloop
   endfacet
   facet normal 9.853519e-001 8.126510e-016 -1.705333e-001
      outer loop
         vertex 2.455164e+002 1.421261e+002 1.645524e+001
         vertex 2.455164e+002 1.441261e+002 1.645524e+001
         vertex 2.456131e+002 1.441261e+002 1.712676e+001
      endloop
   endfacet
   facet normal 9.934355e-001 6.117044e-016 -1.143934e-001
      outer loop
         vertex 2.455164e+002 1.421261e+002 1.645524e+001
         vertex 2.456131e+002 1.441261e+002 1.712676e+001
         vertex 2.456131e+002 1.421261e+002 1.712676e+001
      endloop
   endfacet
   facet normal 9.999988e-001 2.058725e-016 -1.554977e-003
      outer loop
         vertex 2.456131e+002 1.421261e+002 1.712676e+001
         vertex 2.456131e+002 1.441261e+002 1.712676e+001
         vertex 2.455949e+002 1.441261e+002 1.780497e+001
      endloop
   endfacet
   facet normal 9.984784e-001 9.872494e-019 5.514348e-002
      outer loop
         vertex 2.456131e+002 1.421261e+002 1.712676e+001
         vertex 2.455949e+002 1.441261e+002 1.780497e+001
         vertex 2.455949e+002 1.421261e+002 1.780497e+001
      endloop
   endfacet
   facet normal 9.858775e-001 -4.068283e-016 1.674680e-001
      outer loop
         vertex 2.455949e+002 1.421261e+002 1.780497e+001
         vertex 2.455949e+002 1.441261e+002 1.780497e+001
         vertex 2.454624e+002 1.441261e+002 1.847034e+001
      endloop
   endfacet
   facet normal 9.747970e-001 -6.097583e-016 2.230940e-001
      outer loop
         vertex 2.455949e+002 1.421261e+002 1.780497e+001
         vertex 2.454624e+002 1.441261e+002 1.847034e+001
         vertex 2.454624e+002 1.421261e+002 1.847034e+001
      endloop
   endfacet
   facet normal 9.433944e-001 -1.007825e-015 3.316732e-001
      outer loop
         vertex 2.454624e+002 1.421261e+002 1.847034e+001
         vertex 2.454624e+002 1.441261e+002 1.847034e+001
         vertex 2.452193e+002 1.441261e+002 1.910375e+001
      endloop
   endfacet
   facet normal 9.230723e-001 -1.202962e-015 3.846264e-001
      outer loop
         vertex 2.454624e+002 1.421261e+002 1.847034e+001
         vertex 2.452193e+002 1.441261e+002 1.910375e+001
         vertex 2.452193e+002 1.421261e+002 1.910375e+001
      endloop
   endfacet
   facet normal 8.737714e-001 -1.579829e-015 4.863368e-001
      outer loop
         vertex 2.452193e+002 1.421261e+002 1.910375e+001
         vertex 2.452193e+002 1.441261e+002 1.910375e+001
         vertex 2.448727e+002 1.441261e+002 1.968696e+001
      endloop
   endfacet
   facet normal 8.447926e-001 -1.761559e-015 5.350939e-001
      outer loop
         vertex 2.452193e+002 1.421261e+002 1.910375e+001
         vertex 2.448727e+002 1.441261e+002 1.968696e+001
         vertex 2.448727e+002 1.421261e+002 1.968696e+001
      endloop
   endfacet
   facet normal 7.790117e-001 -2.106384e-015 6.270094e-001
      outer loop
         vertex 2.448727e+002 1.421261e+002 1.968696e+001
         vertex 2.448727e+002 1.441261e+002 1.968696e+001
         vertex 2.444325e+002 1.441261e+002 2.020320e+001
      endloop
   endfacet
   facet normal 7.422097e-001 -2.269479e-015 6.701677e-001
      outer loop
         vertex 2.448727e+002 1.421261e+002 1.968696e+001
         vertex 2.444325e+002 1.441261e+002 2.020320e+001
         vertex 2.444325e+002 1.421261e+002 2.020320e+001
      endloop
   endfacet
   facet normal 6.618412e-001 -2.572342e-015 7.496440e-001
      outer loop
         vertex 2.444325e+002 1.421261e+002 2.020320e+001
         vertex 2.444325e+002 1.441261e+002 2.020320e+001
         vertex 2.439113e+002 1.441261e+002 2.063762e+001
      endloop
   endfacet
   facet normal 6.182748e-001 -2.712111e-015 7.859620e-001
      outer loop
         vertex 2.444325e+002 1.421261e+002 2.020320e+001
         vertex 2.439113e+002 1.441261e+002 2.063762e+001
         vertex 2.439113e+002 1.421261e+002 2.063762e+001
      endloop
   endfacet
   facet normal 5.256308e-001 -2.964299e-015 8.507128e-001
      outer loop
         vertex 2.439113e+002 1.421261e+002 2.063762e+001
         vertex 2.439113e+002 1.441261e+002 2.063762e+001
         vertex 2.433243e+002 1.441261e+002 2.097772e+001
      endloop
   endfacet
   facet normal 4.765533e-001 -3.076719e-015 8.791456e-001
      outer loop
         vertex 2.439113e+002 1.421261e+002 2.063762e+001
         vertex 2.433243e+002 1.441261e+002 2.097772e+001
         vertex 2.433243e+002 1.421261e+002 2.097772e+001
      endloop
   endfacet
   facet normal 3.742989e-001 -3.270978e-015 9.273081e-001
      outer loop
         vertex 2.433243e+002 1.421261e+002 2.097772e+001
         vertex 2.433243e+002 1.441261e+002 2.097772e+001
         vertex 2.426882e+002 1.441261e+002 2.121372e+001
      endloop
   endfacet
   facet normal 3.211221e-001 -3.352817e-015 9.470378e-001
      outer loop
         vertex 2.433243e+002 1.421261e+002 2.097772e+001
         vertex 2.426882e+002 1.441261e+002 2.121372e+001
         vertex 2.426882e+002 1.421261e+002 2.121372e+001
      endloop
   endfacet
   facet normal 2.121991e-001 -3.483557e-015 9.772264e-001
      outer loop
         vertex 2.426882e+002 1.421261e+002 2.121372e+001
         vertex 2.426882e+002 1.441261e+002 2.121372e+001
         vertex 2.420214e+002 1.441261e+002 2.133883e+001
      endloop
   endfacet
   facet normal 1.564528e-001 -3.532459e-015 9.876854e-001
      outer loop
         vertex 2.426882e+002 1.421261e+002 2.121372e+001
         vertex 2.420214e+002 1.441261e+002 2.133883e+001
         vertex 2.420214e+002 1.421261e+002 2.133883e+001
      endloop
   endfacet
   facet normal 4.399477e-002 -3.595921e-015 9.990318e-001
      outer loop
         vertex 2.420214e+002 1.421261e+002 2.133883e+001
         vertex 2.420214e+002 1.441261e+002 2.133883e+001
         vertex 2.413430e+002 1.441261e+002 2.134944e+001
      endloop
   endfacet
   facet normal -1.271714e-002 -3.610480e-015 9.999191e-001
      outer loop
         vertex 2.420214e+002 1.421261e+002 2.133883e+001
         vertex 2.413430e+002 1.441261e+002 2.134944e+001
         vertex 2.413430e+002 1.421261e+002 2.134944e+001
      endloop
   endfacet
   facet normal -1.254753e-001 -3.604836e-015 9.920967e-001
      outer loop
         vertex 2.413430e+002 1.421261e+002 2.134944e+001
         vertex 2.413430e+002 1.441261e+002 2.134944e+001
         vertex 2.406726e+002 1.441261e+002 2.124526e+001
      endloop
   endfacet
   facet normal -1.815214e-001 -3.584633e-015 9.833870e-001
      outer loop
         vertex 2.413430e+002 1.421261e+002 2.134944e+001
         vertex 2.406726e+002 1.441261e+002 2.124526e+001
         vertex 2.406726e+002 1.421261e+002 2.124526e+001
      endloop
   endfacet
   facet normal -2.913356e-001 -3.510047e-015 9.566209e-001
      outer loop
         vertex 2.406726e+002 1.421261e+002 2.124526e+001
         vertex 2.406726e+002 1.441261e+002 2.124526e+001
         vertex 2.400295e+002 1.441261e+002 2.102928e+001
      endloop
   endfacet
   facet normal -3.451036e-001 -3.455663e-015 9.385646e-001
      outer loop
         vertex 2.406726e+002 1.421261e+002 2.124526e+001
         vertex 2.400295e+002 1.441261e+002 2.102928e+001
         vertex 2.400295e+002 1.421261e+002 2.102928e+001
      endloop
   endfacet
   facet normal -4.488147e-001 -3.314280e-015 8.936248e-001
      outer loop
         vertex 2.400295e+002 1.421261e+002 2.102928e+001
         vertex 2.400295e+002 1.441261e+002 2.102928e+001
         vertex 2.394321e+002 1.441261e+002 2.070771e+001
      endloop
   endfacet
   facet normal -4.987578e-001 -3.227280e-015 8.667414e-001
      outer loop
         vertex 2.400295e+002 1.421261e+002 2.102928e+001
         vertex 2.394321e+002 1.441261e+002 2.070771e+001
         vertex 2.394321e+002 1.421261e+002 2.070771e+001
      endloop
   endfacet
   facet normal -5.933822e-001 -3.023167e-015 8.049209e-001
      outer loop
         vertex 2.394321e+002 1.421261e+002 2.070771e+001
         vertex 2.394321e+002 1.441261e+002 2.070771e+001
         vertex 2.388976e+002 1.441261e+002 2.028980e+001
      endloop
   endfacet
   facet normal -6.380636e-001 -2.906054e-015 7.699836e-001
      outer loop
         vertex 2.394321e+002 1.421261e+002 2.070771e+001
         vertex 2.388976e+002 1.441261e+002 2.028980e+001
         vertex 2.388976e+002 1.421261e+002 2.028980e+001
      endloop
   endfacet
   facet normal -7.208793e-001 -2.645084e-015 6.930607e-001
      outer loop
         vertex 2.388976e+002 1.421261e+002 2.028980e+001
         vertex 2.388976e+002 1.441261e+002 2.028980e+001
         vertex 2.384415e+002 1.441261e+002 1.978759e+001
      endloop
   endfacet
   facet normal -7.590135e-001 -2.501226e-015 6.510749e-001
      outer loop
         vertex 2.388976e+002 1.421261e+002 2.028980e+001
         vertex 2.384415e+002 1.441261e+002 1.978759e+001
         vertex 2.384415e+002 1.421261e+002 1.978759e+001
      endloop
   endfacet
   facet normal -8.276379e-001 -2.190906e-015 5.612625e-001
      outer loop
         vertex 2.384415e+002 1.421261e+002 1.978759e+001
         vertex 2.384415e+002 1.441261e+002 1.978759e+001
         vertex 2.380768e+002 1.441261e+002 1.921551e+001
      endloop
   endfacet
   facet normal -8.581280e-001 -2.024442e-015 5.134358e-001
      outer loop
         vertex 2.384415e+002 1.421261e+002 1.978759e+001
         vertex 2.380768e+002 1.441261e+002 1.921551e+001
         vertex 2.380768e+002 1.421261e+002 1.921551e+001
      endloop
   endfacet
   facet normal -9.105869e-001 -1.673699e-015 4.133177e-001
      outer loop
         vertex 2.380768e+002 1.421261e+002 1.921551e+001
         vertex 2.380768e+002 1.441261e+002 1.921551e+001
         vertex 2.378140e+002 1.441261e+002 1.859002e+001
      endloop
   endfacet
   facet normal -9.325557e-001 -1.489419e-015 3.610263e-001
      outer loop
         vertex 2.380768e+002 1.421261e+002 1.921551e+001
         vertex 2.378140e+002 1.441261e+002 1.859002e+001
         vertex 2.378140e+002 1.421261e+002 1.859002e+001
      endloop
   endfacet
   facet normal -9.673399e-001 -1.108344e-015 2.534827e-001
      outer loop
         vertex 2.378140e+002 1.421261e+002 1.859002e+001
         vertex 2.378140e+002 1.441261e+002 1.859002e+001
         vertex 2.376607e+002 1.441261e+002 1.792912e+001
      endloop
   endfacet
   facet normal -9.801554e-001 -9.115483e-016 1.982305e-001
      outer loop
         vertex 2.378140e+002 1.421261e+002 1.859002e+001
         vertex 2.376607e+002 1.441261e+002 1.792912e+001
         vertex 2.376607e+002 1.421261e+002 1.792912e+001
      endloop
   endfacet
   facet normal -9.962644e-001 -5.111030e-016 8.635522e-002
      outer loop
         vertex 2.376607e+002 1.421261e+002 1.792912e+001
         vertex 2.376607e+002 1.441261e+002 1.792912e+001
         vertex 2.376213e+002 1.441261e+002 1.725181e+001
      endloop
   endfacet
   facet normal -9.995579e-001 -3.074535e-016 2.973207e-002
      outer loop
         vertex 2.376607e+002 1.421261e+002 1.792912e+001
         vertex 2.376213e+002 1.441261e+002 1.725181e+001
         vertex 2.376213e+002 1.421261e+002 1.725181e+001
      endloop
   endfacet
   facet normal -9.965281e-001 1.008411e-016 -8.325642e-002
      outer loop
         vertex 2.376213e+002 1.421261e+002 1.725181e+001
         vertex 2.376213e+002 1.441261e+002 1.725181e+001
         vertex 2.376969e+002 1.441261e+002 1.657759e+001
      endloop
   endfacet
   facet normal -9.902049e-001 3.054861e-016 -1.396217e-001
      outer loop
         vertex 2.376213e+002 1.421261e+002 1.725181e+001
         vertex 2.376969e+002 1.441261e+002 1.657759e+001
         vertex 2.376969e+002 1.421261e+002 1.657759e+001
      endloop
   endfacet
   facet normal -9.681236e-001 7.098842e-016 -2.504729e-001
      outer loop
         vertex 2.376969e+002 1.421261e+002 1.657759e+001
         vertex 2.376969e+002 1.441261e+002 1.657759e+001
         vertex 2.378854e+002 1.441261e+002 1.592586e+001
      endloop
   endfacet
   facet normal -9.523655e-001 9.096374e-016 -3.049588e-001
      outer loop
         vertex 2.376969e+002 1.421261e+002 1.657759e+001
         vertex 2.378854e+002 1.441261e+002 1.592586e+001
         vertex 2.378854e+002 1.421261e+002 1.592586e+001
      endloop
   endfacet
   facet normal -9.118679e-001 1.298505e-015 -4.104838e-001
      outer loop
         vertex 2.378854e+002 1.421261e+002 1.592586e+001
         vertex 2.378854e+002 1.441261e+002 1.592586e+001
         vertex 2.381814e+002 1.441261e+002 1.531535e+001
      endloop
   endfacet
   facet normal -8.871284e-001 1.487620e-015 -4.615228e-001
      outer loop
         vertex 2.378854e+002 1.421261e+002 1.592586e+001
         vertex 2.381814e+002 1.441261e+002 1.531535e+001
         vertex 2.381814e+002 1.421261e+002 1.531535e+001
      endloop
   endfacet
   facet normal -8.293794e-001 1.849771e-015 -5.586858e-001
      outer loop
         vertex 2.381814e+002 1.421261e+002 1.531535e+001
         vertex 2.381814e+002 1.441261e+002 1.531535e+001
         vertex 2.385762e+002 1.441261e+002 1.476363e+001
      endloop
   endfacet
   facet normal -7.963701e-001 2.022807e-015 -6.048096e-001
      outer loop
         vertex 2.381814e+002 1.421261e+002 1.531535e+001
         vertex 2.385762e+002 1.441261e+002 1.476363e+001
         vertex 2.385762e+002 1.421261e+002 1.476363e+001
      endloop
   endfacet
   facet normal -7.230312e-001 2.347822e-015 -6.908154e-001
      outer loop
         vertex 2.385762e+002 1.421261e+002 1.476363e+001
         vertex 2.385762e+002 1.441261e+002 1.476363e+001
         vertex 2.390586e+002 1.441261e+002 1.428658e+001
      endloop
   endfacet
   facet normal -6.827016e-001 2.499801e-015 -7.306972e-001
      outer loop
         vertex 2.385762e+002 1.421261e+002 1.476363e+001
         vertex 2.390586e+002 1.441261e+002 1.428658e+001
         vertex 2.390586e+002 1.421261e+002 1.428658e+001
      endloop
   endfacet
   facet normal -5.958827e-001 2.778330e-015 -8.030715e-001
      outer loop
         vertex 2.390586e+002 1.421261e+002 1.428658e+001
         vertex 2.390586e+002 1.441261e+002 1.428658e+001
         vertex 2.396147e+002 1.441261e+002 1.389792e+001
      endloop
   endfacet
   facet normal -5.493932e-001 2.904880e-015 -8.355640e-001
      outer loop
         vertex 2.390586e+002 1.421261e+002 1.428658e+001
         vertex 2.396147e+002 1.441261e+002 1.389792e+001
         vertex 2.396147e+002 1.421261e+002 1.389792e+001
      endloop
   endfacet
   facet normal -4.515917e-001 3.128911e-015 -8.922247e-001
      outer loop
         vertex 2.396147e+002 1.421261e+002 1.389792e+001
         vertex 2.396147e+002 1.441261e+002 1.389792e+001
         vertex 2.402285e+002 1.441261e+002 1.360883e+001
      endloop
   endfacet
   facet normal -4.002797e-001 3.226391e-015 -9.163930e-001
      outer loop
         vertex 2.396147e+002 1.421261e+002 1.389792e+001
         vertex 2.402285e+002 1.441261e+002 1.360883e+001
         vertex 2.402285e+002 1.421261e+002 1.360883e+001
      endloop
   endfacet
   facet normal -2.943093e-001 3.389478e-015 -9.557102e-001
      outer loop
         vertex 2.402285e+002 1.421261e+002 1.360883e+001
         vertex 2.402285e+002 1.441261e+002 1.360883e+001
         vertex 2.408823e+002 1.441261e+002 1.342763e+001
      endloop
   endfacet
   facet normal -2.396508e-001 3.455085e-015 -9.708592e-001
      outer loop
         vertex 2.402285e+002 1.421261e+002 1.360883e+001
         vertex 2.408823e+002 1.441261e+002 1.342763e+001
         vertex 2.408823e+002 1.421261e+002 1.342763e+001
      endloop
   endfacet
   facet normal -1.285601e-001 3.552537e-015 -9.917017e-001
      outer loop
         vertex 2.408823e+002 1.421261e+002 1.342763e+001
         vertex 2.408823e+002 1.441261e+002 1.342763e+001
         vertex 2.415573e+002 1.441261e+002 1.335952e+001
      endloop
   endfacet
   facet normal -7.212772e-002 3.584383e-015 -9.973954e-001
      outer loop
         vertex 2.408823e+002 1.421261e+002 1.342763e+001
         vertex 2.415573e+002 1.441261e+002 1.335952e+001
         vertex 2.415573e+002 1.421261e+002 1.335952e+001
      endloop
   endfacet
   facet normal 4.088751e-002 3.613396e-015 -9.991637e-001
      outer loop
         vertex 2.415573e+002 1.421261e+002 1.335952e+001
         vertex 2.415573e+002 1.441261e+002 1.335952e+001
         vertex 2.422341e+002 1.441261e+002 1.340648e+001
      endloop
   endfacet
   facet normal 9.747042e-002 3.610563e-015 -9.952384e-001
      outer loop
         vertex 2.415573e+002 1.421261e+002 1.335952e+001
         vertex 2.422341e+002 1.441261e+002 1.340648e+001
         vertex 2.422341e+002 1.421261e+002 1.340648e+001
      endloop
   endfacet
   facet normal 2.091589e-001 3.570304e-015 -9.778817e-001
      outer loop
         vertex 2.422341e+002 1.421261e+002 1.340648e+001
         vertex 2.422341e+002 1.441261e+002 1.340648e+001
         vertex 2.428932e+002 1.441261e+002 1.356714e+001
      endloop
   endfacet
   facet normal 2.642645e-001 3.532876e-015 -9.644502e-001
      outer loop
         vertex 2.422341e+002 1.421261e+002 1.340648e+001
         vertex 2.428932e+002 1.441261e+002 1.356714e+001
         vertex 2.428932e+002 1.421261e+002 1.356714e+001
      endloop
   endfacet
   facet normal 3.714131e-001 3.424500e-015 -9.284677e-001
      outer loop
         vertex 2.428932e+002 1.421261e+002 1.356714e+001
         vertex 2.428932e+002 1.441261e+002 1.356714e+001
         vertex 2.435158e+002 1.441261e+002 1.383688e+001
      endloop
   endfacet
   facet normal 4.234562e-001 3.353553e-015 -9.059166e-001
      outer loop
         vertex 2.428932e+002 1.421261e+002 1.356714e+001
         vertex 2.435158e+002 1.441261e+002 1.383688e+001
         vertex 2.435158e+002 1.421261e+002 1.383688e+001
      endloop
   endfacet
   facet normal 4.986987e-001 3.227391e-015 -8.667754e-001
      outer loop
         vertex 2.435158e+002 1.421261e+002 1.383688e+001
         vertex 2.435158e+002 1.441261e+002 1.383688e+001
         vertex 2.438076e+002 1.421261e+002 1.401036e+001
      endloop
   endfacet
   facet normal 2.002620e-016 -1.000000e+000 -3.608225e-015
      outer loop
         vertex 2.388976e+002 1.421261e+002 2.028980e+001
         vertex 2.435158e+002 1.421261e+002 1.383688e+001
         vertex 2.394321e+002 1.421261e+002 2.070771e+001
      endloop
   endfacet
   facet normal 2.002620e-016 -1.000000e+000 -3.608225e-015
      outer loop
         vertex 2.394321e+002 1.421261e+002 2.070771e+001
         vertex 2.435158e+002 1.421261e+002 1.383688e+001
         vertex 2.438076e+002 1.421261e+002 1.401036e+001
      endloop
   endfacet
   facet normal 2.002620e-016 -1.000000e+000 -3.608225e-015
      outer loop
         vertex 2.394321e+002 1.421261e+002 2.070771e+001
         vertex 2.438076e+002 1.421261e+002 1.401036e+001
         vertex 2.440837e+002 1.421261e+002 1.420796e+001
      endloop
   endfacet
   facet normal 2.002620e-016 -1.000000e+000 -3.608225e-015
      outer loop
         vertex 2.385762e+002 1.421261e+002 1.476363e+001
         vertex 2.390586e+002 1.421261e+002 1.428658e+001
         vertex 2.435158e+002 1.421261e+002 1.383688e+001
      endloop
   endfacet
   facet normal 2.002620e-016 -1.000000e+000 -3.608225e-015
      outer loop
         vertex 2.440837e+002 1.421261e+002 1.420796e+001
         vertex 2.445808e+002 1.421261e+002 1.466968e+001
         vertex 2.433243e+002 1.421261e+002 2.097772e+001
      endloop
   endfacet
   facet normal 2.002620e-016 -1.000000e+000 -3.608225e-015
      outer loop
         vertex 2.433243e+002 1.421261e+002 2.097772e+001
         vertex 2.445808e+002 1.421261e+002 1.466968e+001
         vertex 2.449928e+002 1.421261e+002 1.520877e+001
      endloop
   endfacet
   facet normal 2.002620e-016 -1.000000e+000 -3.608225e-015
      outer loop
         vertex 2.433243e+002 1.421261e+002 2.097772e+001
         vertex 2.426882e+002 1.421261e+002 2.121372e+001
         vertex 2.440837e+002 1.421261e+002 1.420796e+001
      endloop
   endfacet
   facet normal 2.002620e-016 -1.000000e+000 -3.608225e-015
      outer loop
         vertex 2.440837e+002 1.421261e+002 1.420796e+001
         vertex 2.426882e+002 1.421261e+002 2.121372e+001
         vertex 2.420214e+002 1.421261e+002 2.133883e+001
      endloop
   endfacet
   facet normal 2.002620e-016 -1.000000e+000 -3.608225e-015
      outer loop
         vertex 2.440837e+002 1.421261e+002 1.420796e+001
         vertex 2.420214e+002 1.421261e+002 2.133883e+001
         vertex 2.413430e+002 1.421261e+002 2.134944e+001
      endloop
   endfacet
   facet normal 2.002620e-016 -1.000000e+000 -3.608225e-015
      outer loop
         vertex 2.388976e+002 1.421261e+002 2.028980e+001
         vertex 2.384415e+002 1.421261e+002 1.978759e+001
         vertex 2.435158e+002 1.421261e+002 1.383688e+001
      endloop
   endfacet
   facet normal 2.002620e-016 -1.000000e+000 -3.608225e-015
      outer loop
         vertex 2.435158e+002 1.421261e+002 1.383688e+001
         vertex 2.384415e+002 1.421261e+002 1.978759e+001
         vertex 2.380768e+002 1.421261e+002 1.921551e+001
      endloop
   endfacet
   facet normal 2.002620e-016 -1.000000e+000 -3.608225e-015
      outer loop
         vertex 2.435158e+002 1.421261e+002 1.383688e+001
         vertex 2.380768e+002 1.421261e+002 1.921551e+001
         vertex 2.378140e+002 1.421261e+002 1.859002e+001
      endloop
   endfacet
   facet normal 2.002620e-016 -1.000000e+000 -3.608225e-015
      outer loop
         vertex 2.378140e+002 1.421261e+002 1.859002e+001
         vertex 2.376607e+002 1.421261e+002 1.792912e+001
         vertex 2.435158e+002 1.421261e+002 1.383688e+001
      endloop
   endfacet
   facet normal 2.002620e-016 -1.000000e+000 -3.608225e-015
      outer loop
         vertex 2.435158e+002 1.421261e+002 1.383688e+001
         vertex 2.376607e+002 1.421261e+002 1.792912e+001
         vertex 2.376213e+002 1.421261e+002 1.725181e+001
      endloop
   endfacet
   facet normal 2.002620e-016 -1.000000e+000 -3.608225e-015
      outer loop
         vertex 2.435158e+002 1.421261e+002 1.383688e+001
         vertex 2.376213e+002 1.421261e+002 1.725181e+001
         vertex 2.376969e+002 1.421261e+002 1.657759e+001
      endloop
   endfacet
   facet normal 2.002620e-016 -1.000000e+000 -3.608225e-015
      outer loop
         vertex 2.376969e+002 1.421261e+002 1.657759e+001
         vertex 2.378854e+002 1.421261e+002 1.592586e+001
         vertex 2.435158e+002 1.421261e+002 1.383688e+001
      endloop
   endfacet
   facet normal 2.002620e-016 -1.000000e+000 -3.608225e-015
      outer loop
         vertex 2.435158e+002 1.421261e+002 1.383688e+001
         vertex 2.378854e+002 1.421261e+002 1.592586e+001
         vertex 2.381814e+002 1.421261e+002 1.531535e+001
      endloop
   endfacet
   facet normal 2.002620e-016 -1.000000e+000 -3.608225e-015
      outer loop
         vertex 2.435158e+002 1.421261e+002 1.383688e+001
         vertex 2.381814e+002 1.421261e+002 1.531535e+001
         vertex 2.385762e+002 1.421261e+002 1.476363e+001
      endloop
   endfacet
   facet normal 2.002620e-016 -1.000000e+000 -3.608225e-015
      outer loop
         vertex 2.390586e+002 1.421261e+002 1.428658e+001
         vertex 2.396147e+002 1.421261e+002 1.389792e+001
         vertex 2.435158e+002 1.421261e+002 1.383688e+001
      endloop
   endfacet
   facet normal 2.002620e-016 -1.000000e+000 -3.608225e-015
      outer loop
         vertex 2.435158e+002 1.421261e+002 1.383688e+001
         vertex 2.396147e+002 1.421261e+002 1.389792e+001
         vertex 2.402285e+002 1.421261e+002 1.360883e+001
      endloop
   endfacet
   facet normal 2.002620e-016 -1.000000e+000 -3.608225e-015
      outer loop
         vertex 2.435158e+002 1.421261e+002 1.383688e+001
         vertex 2.402285e+002 1.421261e+002 1.360883e+001
         vertex 2.408823e+002 1.421261e+002 1.342763e+001
      endloop
   endfacet
   facet normal 2.002620e-016 -1.000000e+000 -3.608225e-015
      outer loop
         vertex 2.408823e+002 1.421261e+002 1.342763e+001
         vertex 2.415573e+002 1.421261e+002 1.335952e+001
         vertex 2.435158e+002 1.421261e+002 1.383688e+001
      endloop
   endfacet
   facet normal 2.002620e-016 -1.000000e+000 -3.608225e-015
      outer loop
         vertex 2.435158e+002 1.421261e+002 1.383688e+001
         vertex 2.415573e+002 1.421261e+002 1.335952e+001
         vertex 2.422341e+002 1.421261e+002 1.340648e+001
      endloop
   endfacet
   facet normal 2.002620e-016 -1.000000e+000 -3.608225e-015
      outer loop
         vertex 2.435158e+002 1.421261e+002 1.383688e+001
         vertex 2.422341e+002 1.421261e+002 1.340648e+001
         vertex 2.428932e+002 1.421261e+002 1.356714e+001
      endloop
   endfacet
   facet normal 2.002620e-016 -1.000000e+000 -3.608225e-015
      outer loop
         vertex 2.454624e+002 1.421261e+002 1.847034e+001
         vertex 2.433243e+002 1.421261e+002 2.097772e+001
         vertex 2.455949e+002 1.421261e+002 1.780497e+001
      endloop
   endfacet
   facet normal 2.002620e-016 -1.000000e+000 -3.608225e-015
      outer loop
         vertex 2.455949e+002 1.421261e+002 1.780497e+001
         vertex 2.433243e+002 1.421261e+002 2.097772e+001
         vertex 2.456131e+002 1.421261e+002 1.712676e+001
      endloop
   endfacet
   facet normal 2.002620e-016 -1.000000e+000 -3.608225e-015
      outer loop
         vertex 2.413430e+002 1.421261e+002 2.134944e+001
         vertex 2.406726e+002 1.421261e+002 2.124526e+001
         vertex 2.440837e+002 1.421261e+002 1.420796e+001
      endloop
   endfacet
   facet normal 2.002620e-016 -1.000000e+000 -3.608225e-015
      outer loop
         vertex 2.440837e+002 1.421261e+002 1.420796e+001
         vertex 2.406726e+002 1.421261e+002 2.124526e+001
         vertex 2.400295e+002 1.421261e+002 2.102928e+001
      endloop
   endfacet
   facet normal 2.002620e-016 -1.000000e+000 -3.608225e-015
      outer loop
         vertex 2.440837e+002 1.421261e+002 1.420796e+001
         vertex 2.400295e+002 1.421261e+002 2.102928e+001
         vertex 2.394321e+002 1.421261e+002 2.070771e+001
      endloop
   endfacet
   facet normal 2.002620e-016 -1.000000e+000 -3.608225e-015
      outer loop
         vertex 2.449928e+002 1.421261e+002 1.520877e+001
         vertex 2.453076e+002 1.421261e+002 1.580972e+001
         vertex 2.433243e+002 1.421261e+002 2.097772e+001
      endloop
   endfacet
   facet normal 2.002620e-016 -1.000000e+000 -3.608225e-015
      outer loop
         vertex 2.433243e+002 1.421261e+002 2.097772e+001
         vertex 2.453076e+002 1.421261e+002 1.580972e+001
         vertex 2.455164e+002 1.421261e+002 1.645524e+001
      endloop
   endfacet
   facet normal 2.002620e-016 -1.000000e+000 -3.608225e-015
      outer loop
         vertex 2.433243e+002 1.421261e+002 2.097772e+001
         vertex 2.455164e+002 1.421261e+002 1.645524e+001
         vertex 2.456131e+002 1.421261e+002 1.712676e+001
      endloop
   endfacet
   facet normal 2.002620e-016 -1.000000e+000 -3.608225e-015
      outer loop
         vertex 2.454624e+002 1.421261e+002 1.847034e+001
         vertex 2.452193e+002 1.421261e+002 1.910375e+001
         vertex 2.433243e+002 1.421261e+002 2.097772e+001
      endloop
   endfacet
   facet normal 2.002620e-016 -1.000000e+000 -3.608225e-015
      outer loop
         vertex 2.433243e+002 1.421261e+002 2.097772e+001
         vertex 2.452193e+002 1.421261e+002 1.910375e+001
         vertex 2.448727e+002 1.421261e+002 1.968696e+001
      endloop
   endfacet
   facet normal 2.002620e-016 -1.000000e+000 -3.608225e-015
      outer loop
         vertex 2.433243e+002 1.421261e+002 2.097772e+001
         vertex 2.448727e+002 1.421261e+002 1.968696e+001
         vertex 2.439113e+002 1.421261e+002 2.063762e+001
      endloop
   endfacet
   facet normal 2.002620e-016 -1.000000e+000 -3.608225e-015
      outer loop
         vertex 2.439113e+002 1.421261e+002 2.063762e+001
         vertex 2.448727e+002 1.421261e+002 1.968696e+001
         vertex 2.444325e+002 1.421261e+002 2.020320e+001
      endloop
   endfacet
endsolid