solid FPM - 300-TableCage-1 308-AngleBracketMirror-1
   facet normal 2.775558e-017 2.775558e-017 -1.000000e+000
      outer loop
         vertex 7.941945e+002 6.568596e+002 6.321425e+002
         vertex 7.951977e+002 6.563918e+002 6.321425e+002
         vertex 7.973695e+002 6.306089e+002 6.321425e+002
      endloop
   endfacet
   facet normal 2.775558e-017 2.775558e-017 -1.000000e+000
      outer loop
         vertex 7.962668e+002 6.686124e+002 6.321425e+002
         vertex 7.951977e+002 6.683259e+002 6.321425e+002
         vertex 7.814945e+002 7.683500e+002 6.321425e+002
      endloop
   endfacet
   facet normal 2.775558e-017 2.775558e-017 -1.000000e+000
      outer loop
         vertex 7.814945e+002 7.683500e+002 6.321425e+002
         vertex 7.951977e+002 6.683259e+002 6.321425e+002
         vertex 7.941945e+002 6.678582e+002 6.321425e+002
      endloop
   endfacet
   facet normal 2.775558e-017 2.775558e-017 -1.000000e+000
      outer loop
         vertex 7.941945e+002 6.678582e+002 6.321425e+002
         vertex 7.932878e+002 6.672233e+002 6.321425e+002
         vertex 7.814945e+002 7.683500e+002 6.321425e+002
      endloop
   endfacet
   facet normal 2.775558e-017 2.775558e-017 -1.000000e+000
      outer loop
         vertex 7.814945e+002 7.683500e+002 6.321425e+002
         vertex 7.932878e+002 6.672233e+002 6.321425e+002
         vertex 7.925051e+002 6.664406e+002 6.321425e+002
      endloop
   endfacet
   facet normal 2.775558e-017 2.775558e-017 -1.000000e+000
      outer loop
         vertex 7.814945e+002 7.683500e+002 6.321425e+002
         vertex 7.925051e+002 6.664406e+002 6.321425e+002
         vertex 7.918702e+002 6.655339e+002 6.321425e+002
      endloop
   endfacet
   facet normal 2.775558e-017 2.775558e-017 -1.000000e+000
      outer loop
         vertex 7.918702e+002 6.655339e+002 6.321425e+002
         vertex 7.914024e+002 6.645307e+002 6.321425e+002
         vertex 7.814945e+002 7.683500e+002 6.321425e+002
      endloop
   endfacet
   facet normal 2.775558e-017 2.775558e-017 -1.000000e+000
      outer loop
         vertex 7.814945e+002 7.683500e+002 6.321425e+002
         vertex 7.914024e+002 6.645307e+002 6.321425e+002
         vertex 7.911160e+002 6.634615e+002 6.321425e+002
      endloop
   endfacet
   facet normal 2.775558e-017 2.775558e-017 -1.000000e+000
      outer loop
         vertex 7.814945e+002 7.683500e+002 6.321425e+002
         vertex 7.911160e+002 6.634615e+002 6.321425e+002
         vertex 7.910194e+002 6.623589e+002 6.321425e+002
      endloop
   endfacet
   facet normal 2.775558e-017 2.775558e-017 -1.000000e+000
      outer loop
         vertex 8.195944e+002 7.683500e+002 6.321425e+002
         vertex 7.984721e+002 6.686124e+002 6.321425e+002
         vertex 7.814945e+002 7.683500e+002 6.321425e+002
      endloop
   endfacet
   facet normal 2.775558e-017 2.775558e-017 -1.000000e+000
      outer loop
         vertex 7.814945e+002 7.683500e+002 6.321425e+002
         vertex 7.984721e+002 6.686124e+002 6.321425e+002
         vertex 7.973695e+002 6.687089e+002 6.321425e+002
      endloop
   endfacet
   facet normal 2.775558e-017 2.775558e-017 -1.000000e+000
      outer loop
         vertex 7.814945e+002 7.683500e+002 6.321425e+002
         vertex 7.973695e+002 6.687089e+002 6.321425e+002
         vertex 7.962668e+002 6.686124e+002 6.321425e+002
      endloop
   endfacet
   facet normal 2.775558e-017 2.775558e-017 -1.000000e+000
      outer loop
         vertex 8.033365e+002 6.645307e+002 6.321425e+002
         vertex 8.195944e+002 7.683500e+002 6.321425e+002
         vertex 8.036230e+002 6.634615e+002 6.321425e+002
      endloop
   endfacet
   facet normal 2.775558e-017 2.775558e-017 -1.000000e+000
      outer loop
         vertex 8.036230e+002 6.634615e+002 6.321425e+002
         vertex 8.195944e+002 7.683500e+002 6.321425e+002
         vertex 8.037195e+002 6.623589e+002 6.321425e+002
      endloop
   endfacet
   facet normal 2.775558e-017 2.775558e-017 -1.000000e+000
      outer loop
         vertex 8.033365e+002 6.645307e+002 6.321425e+002
         vertex 8.028687e+002 6.655339e+002 6.321425e+002
         vertex 8.195944e+002 7.683500e+002 6.321425e+002
      endloop
   endfacet
   facet normal 2.775558e-017 2.775558e-017 -1.000000e+000
      outer loop
         vertex 8.195944e+002 7.683500e+002 6.321425e+002
         vertex 8.028687e+002 6.655339e+002 6.321425e+002
         vertex 8.022339e+002 6.664406e+002 6.321425e+002
      endloop
   endfacet
   facet normal 2.775558e-017 2.775558e-017 -1.000000e+000
      outer loop
         vertex 8.195944e+002 7.683500e+002 6.321425e+002
         vertex 8.022339e+002 6.664406e+002 6.321425e+002
         vertex 8.014512e+002 6.672233e+002 6.321425e+002
      endloop
   endfacet
   facet normal 2.775558e-017 2.775558e-017 -1.000000e+000
      outer loop
         vertex 8.014512e+002 6.672233e+002 6.321425e+002
         vertex 8.005444e+002 6.678582e+002 6.321425e+002
         vertex 8.195944e+002 7.683500e+002 6.321425e+002
      endloop
   endfacet
   facet normal 2.775558e-017 2.775558e-017 -1.000000e+000
      outer loop
         vertex 8.195944e+002 7.683500e+002 6.321425e+002
         vertex 8.005444e+002 6.678582e+002 6.321425e+002
         vertex 7.995413e+002 6.683259e+002 6.321425e+002
      endloop
   endfacet
   facet normal 2.775558e-017 2.775558e-017 -1.000000e+000
      outer loop
         vertex 8.195944e+002 7.683500e+002 6.321425e+002
         vertex 7.995413e+002 6.683259e+002 6.321425e+002
         vertex 7.984721e+002 6.686124e+002 6.321425e+002
      endloop
   endfacet
   facet normal 2.775558e-017 2.775558e-017 -1.000000e+000
      outer loop
         vertex 7.911160e+002 6.612562e+002 6.321425e+002
         vertex 7.962668e+002 6.305124e+002 6.321425e+002
         vertex 7.951977e+002 6.302259e+002 6.321425e+002
      endloop
   endfacet
   facet normal 2.775558e-017 2.775558e-017 -1.000000e+000
      outer loop
         vertex 7.918702e+002 6.591838e+002 6.321425e+002
         vertex 7.925051e+002 6.582772e+002 6.321425e+002
         vertex 7.973695e+002 6.306089e+002 6.321425e+002
      endloop
   endfacet
   facet normal 2.775558e-017 2.775558e-017 -1.000000e+000
      outer loop
         vertex 7.973695e+002 6.306089e+002 6.321425e+002
         vertex 7.925051e+002 6.582772e+002 6.321425e+002
         vertex 7.932878e+002 6.574945e+002 6.321425e+002
      endloop
   endfacet
   facet normal 2.775558e-017 2.775558e-017 -1.000000e+000
      outer loop
         vertex 7.973695e+002 6.306089e+002 6.321425e+002
         vertex 7.932878e+002 6.574945e+002 6.321425e+002
         vertex 7.941945e+002 6.568596e+002 6.321425e+002
      endloop
   endfacet
   facet normal 2.775558e-017 2.775558e-017 -1.000000e+000
      outer loop
         vertex 8.005444e+002 6.568596e+002 6.321425e+002
         vertex 8.014512e+002 6.574945e+002 6.321425e+002
         vertex 8.036230e+002 6.253616e+002 6.321425e+002
      endloop
   endfacet
   facet normal 2.775558e-017 2.775558e-017 -1.000000e+000
      outer loop
         vertex 8.036230e+002 6.253616e+002 6.321425e+002
         vertex 8.014512e+002 6.574945e+002 6.321425e+002
         vertex 8.022339e+002 6.582772e+002 6.321425e+002
      endloop
   endfacet
   facet normal 2.775558e-017 2.775558e-017 -1.000000e+000
      outer loop
         vertex 7.951977e+002 6.302259e+002 6.321425e+002
         vertex 7.941945e+002 6.297581e+002 6.321425e+002
         vertex 7.911160e+002 6.612562e+002 6.321425e+002
      endloop
   endfacet
   facet normal 2.775558e-017 2.775558e-017 -1.000000e+000
      outer loop
         vertex 7.911160e+002 6.612562e+002 6.321425e+002
         vertex 7.941945e+002 6.297581e+002 6.321425e+002
         vertex 7.932878e+002 6.291233e+002 6.321425e+002
      endloop
   endfacet
   facet normal 2.775558e-017 2.775558e-017 -1.000000e+000
      outer loop
         vertex 7.911160e+002 6.612562e+002 6.321425e+002
         vertex 7.932878e+002 6.291233e+002 6.321425e+002
         vertex 7.910194e+002 6.623589e+002 6.321425e+002
      endloop
   endfacet
   facet normal 2.775558e-017 2.775558e-017 -1.000000e+000
      outer loop
         vertex 7.918702e+002 6.274339e+002 6.321425e+002
         vertex 7.914024e+002 6.264307e+002 6.321425e+002
         vertex 7.814945e+002 7.683500e+002 6.321425e+002
      endloop
   endfacet
   facet normal 2.775558e-017 2.775558e-017 -1.000000e+000
      outer loop
         vertex 7.932878e+002 6.193945e+002 6.321425e+002
         vertex 7.941945e+002 6.187596e+002 6.321425e+002
         vertex 7.814945e+002 3.492500e+002 6.321425e+002
      endloop
   endfacet
   facet normal 2.775558e-017 2.775558e-017 -1.000000e+000
      outer loop
         vertex 7.962668e+002 6.305124e+002 6.321425e+002
         vertex 7.911160e+002 6.612562e+002 6.321425e+002
         vertex 7.973695e+002 6.306089e+002 6.321425e+002
      endloop
   endfacet
   facet normal 2.775558e-017 2.775558e-017 -1.000000e+000
      outer loop
         vertex 7.973695e+002 6.306089e+002 6.321425e+002
         vertex 7.911160e+002 6.612562e+002 6.321425e+002
         vertex 7.914024e+002 6.601871e+002 6.321425e+002
      endloop
   endfacet
   facet normal 2.775558e-017 2.775558e-017 -1.000000e+000
      outer loop
         vertex 7.973695e+002 6.306089e+002 6.321425e+002
         vertex 7.914024e+002 6.601871e+002 6.321425e+002
         vertex 7.918702e+002 6.591838e+002 6.321425e+002
      endloop
   endfacet
   facet normal 2.775558e-017 2.775558e-017 -1.000000e+000
      outer loop
         vertex 7.984721e+002 6.305124e+002 6.321425e+002
         vertex 7.995413e+002 6.563918e+002 6.321425e+002
         vertex 7.995413e+002 6.302259e+002 6.321425e+002
      endloop
   endfacet
   facet normal 2.775558e-017 2.775558e-017 -1.000000e+000
      outer loop
         vertex 7.995413e+002 6.302259e+002 6.321425e+002
         vertex 7.995413e+002 6.563918e+002 6.321425e+002
         vertex 8.005444e+002 6.297581e+002 6.321425e+002
      endloop
   endfacet
   facet normal 2.775558e-017 2.775558e-017 -1.000000e+000
      outer loop
         vertex 7.941945e+002 6.187596e+002 6.321425e+002
         vertex 7.951977e+002 6.182918e+002 6.321425e+002
         vertex 7.814945e+002 3.492500e+002 6.321425e+002
      endloop
   endfacet
   facet normal 2.775558e-017 2.775558e-017 -1.000000e+000
      outer loop
         vertex 7.814945e+002 3.492500e+002 6.321425e+002
         vertex 7.951977e+002 6.182918e+002 6.321425e+002
         vertex 7.962668e+002 6.180053e+002 6.321425e+002
      endloop
   endfacet
   facet normal 2.775558e-017 2.775558e-017 -1.000000e+000
      outer loop
         vertex 7.814945e+002 3.492500e+002 6.321425e+002
         vertex 7.962668e+002 6.180053e+002 6.321425e+002
         vertex 8.195944e+002 3.492500e+002 6.321425e+002
      endloop
   endfacet
   facet normal 2.775558e-017 2.775558e-017 -1.000000e+000
      outer loop
         vertex 8.022339e+002 6.582772e+002 6.321425e+002
         vertex 8.028687e+002 6.591838e+002 6.321425e+002
         vertex 8.036230e+002 6.253616e+002 6.321425e+002
      endloop
   endfacet
   facet normal 2.775558e-017 2.775558e-017 -1.000000e+000
      outer loop
         vertex 8.036230e+002 6.253616e+002 6.321425e+002
         vertex 8.028687e+002 6.591838e+002 6.321425e+002
         vertex 8.033365e+002 6.601871e+002 6.321425e+002
      endloop
   endfacet
   facet normal 2.775558e-017 2.775558e-017 -1.000000e+000
      outer loop
         vertex 8.036230e+002 6.253616e+002 6.321425e+002
         vertex 8.033365e+002 6.601871e+002 6.321425e+002
         vertex 8.036230e+002 6.612562e+002 6.321425e+002
      endloop
   endfacet
   facet normal 2.775558e-017 2.775558e-017 -1.000000e+000
      outer loop
         vertex 7.910194e+002 6.623589e+002 6.321425e+002
         vertex 7.932878e+002 6.291233e+002 6.321425e+002
         vertex 7.814945e+002 7.683500e+002 6.321425e+002
      endloop
   endfacet
   facet normal 2.775558e-017 2.775558e-017 -1.000000e+000
      outer loop
         vertex 7.814945e+002 7.683500e+002 6.321425e+002
         vertex 7.932878e+002 6.291233e+002 6.321425e+002
         vertex 7.925051e+002 6.283406e+002 6.321425e+002
      endloop
   endfacet
   facet normal 2.775558e-017 2.775558e-017 -1.000000e+000
      outer loop
         vertex 7.814945e+002 7.683500e+002 6.321425e+002
         vertex 7.925051e+002 6.283406e+002 6.321425e+002
         vertex 7.918702e+002 6.274339e+002 6.321425e+002
      endloop
   endfacet
   facet normal 2.775558e-017 2.775558e-017 -1.000000e+000
      outer loop
         vertex 7.962668e+002 6.180053e+002 6.321425e+002
         vertex 7.973695e+002 6.179089e+002 6.321425e+002
         vertex 8.195944e+002 3.492500e+002 6.321425e+002
      endloop
   endfacet
   facet normal 2.775558e-017 2.775558e-017 -1.000000e+000
      outer loop
         vertex 8.195944e+002 3.492500e+002 6.321425e+002
         vertex 7.973695e+002 6.179089e+002 6.321425e+002
         vertex 7.984721e+002 6.180053e+002 6.321425e+002
      endloop
   endfacet
   facet normal 2.775558e-017 2.775558e-017 -1.000000e+000
      outer loop
         vertex 8.195944e+002 3.492500e+002 6.321425e+002
         vertex 7.984721e+002 6.180053e+002 6.321425e+002
         vertex 7.995413e+002 6.182918e+002 6.321425e+002
      endloop
   endfacet
   facet normal 2.775558e-017 2.775558e-017 -1.000000e+000
      outer loop
         vertex 8.005444e+002 6.568596e+002 6.321425e+002
         vertex 8.036230e+002 6.253616e+002 6.321425e+002
         vertex 7.995413e+002 6.563918e+002 6.321425e+002
      endloop
   endfacet
   facet normal 2.775558e-017 2.775558e-017 -1.000000e+000
      outer loop
         vertex 7.995413e+002 6.563918e+002 6.321425e+002
         vertex 8.036230e+002 6.253616e+002 6.321425e+002
         vertex 8.033365e+002 6.264307e+002 6.321425e+002
      endloop
   endfacet
   facet normal 2.775558e-017 2.775558e-017 -1.000000e+000
      outer loop
         vertex 7.995413e+002 6.563918e+002 6.321425e+002
         vertex 8.033365e+002 6.264307e+002 6.321425e+002
         vertex 8.028687e+002 6.274339e+002 6.321425e+002
      endloop
   endfacet
   facet normal 2.775558e-017 2.775558e-017 -1.000000e+000
      outer loop
         vertex 8.028687e+002 6.274339e+002 6.321425e+002
         vertex 8.022339e+002 6.283406e+002 6.321425e+002
         vertex 7.995413e+002 6.563918e+002 6.321425e+002
      endloop
   endfacet
   facet normal 2.775558e-017 2.775558e-017 -1.000000e+000
      outer loop
         vertex 7.995413e+002 6.563918e+002 6.321425e+002
         vertex 8.022339e+002 6.283406e+002 6.321425e+002
         vertex 8.014512e+002 6.291233e+002 6.321425e+002
      endloop
   endfacet
   facet normal 2.775558e-017 2.775558e-017 -1.000000e+000
      outer loop
         vertex 7.995413e+002 6.563918e+002 6.321425e+002
         vertex 8.014512e+002 6.291233e+002 6.321425e+002
         vertex 8.005444e+002 6.297581e+002 6.321425e+002
      endloop
   endfacet
   facet normal 2.775558e-017 2.775558e-017 -1.000000e+000
      outer loop
         vertex 7.951977e+002 6.563918e+002 6.321425e+002
         vertex 7.962668e+002 6.561053e+002 6.321425e+002
         vertex 7.973695e+002 6.306089e+002 6.321425e+002
      endloop
   endfacet
   facet normal 2.775558e-017 2.775558e-017 -1.000000e+000
      outer loop
         vertex 7.973695e+002 6.306089e+002 6.321425e+002
         vertex 7.962668e+002 6.561053e+002 6.321425e+002
         vertex 7.973695e+002 6.560089e+002 6.321425e+002
      endloop
   endfacet
   facet normal 2.775558e-017 2.775558e-017 -1.000000e+000
      outer loop
         vertex 7.973695e+002 6.306089e+002 6.321425e+002
         vertex 7.973695e+002 6.560089e+002 6.321425e+002
         vertex 7.984721e+002 6.305124e+002 6.321425e+002
      endloop
   endfacet
   facet normal 2.775558e-017 2.775558e-017 -1.000000e+000
      outer loop
         vertex 7.984721e+002 6.305124e+002 6.321425e+002
         vertex 7.973695e+002 6.560089e+002 6.321425e+002
         vertex 7.984721e+002 6.561053e+002 6.321425e+002
      endloop
   endfacet
   facet normal 2.775558e-017 2.775558e-017 -1.000000e+000
      outer loop
         vertex 7.984721e+002 6.305124e+002 6.321425e+002
         vertex 7.984721e+002 6.561053e+002 6.321425e+002
         vertex 7.995413e+002 6.563918e+002 6.321425e+002
      endloop
   endfacet
   facet normal 2.775558e-017 2.775558e-017 -1.000000e+000
      outer loop
         vertex 8.036230e+002 6.612562e+002 6.321425e+002
         vertex 8.037195e+002 6.623589e+002 6.321425e+002
         vertex 8.036230e+002 6.253616e+002 6.321425e+002
      endloop
   endfacet
   facet normal 2.775558e-017 2.775558e-017 -1.000000e+000
      outer loop
         vertex 8.036230e+002 6.253616e+002 6.321425e+002
         vertex 8.037195e+002 6.623589e+002 6.321425e+002
         vertex 8.195944e+002 7.683500e+002 6.321425e+002
      endloop
   endfacet
   facet normal 2.775558e-017 2.775558e-017 -1.000000e+000
      outer loop
         vertex 8.036230e+002 6.253616e+002 6.321425e+002
         vertex 8.195944e+002 7.683500e+002 6.321425e+002
         vertex 8.037195e+002 6.242589e+002 6.321425e+002
      endloop
   endfacet
   facet normal 2.775558e-017 2.775558e-017 -1.000000e+000
      outer loop
         vertex 8.037195e+002 6.242589e+002 6.321425e+002
         vertex 8.195944e+002 7.683500e+002 6.321425e+002
         vertex 8.195944e+002 3.492500e+002 6.321425e+002
      endloop
   endfacet
   facet normal 2.775558e-017 2.775558e-017 -1.000000e+000
      outer loop
         vertex 8.037195e+002 6.242589e+002 6.321425e+002
         vertex 8.195944e+002 3.492500e+002 6.321425e+002
         vertex 8.036230e+002 6.231562e+002 6.321425e+002
      endloop
   endfacet
   facet normal 2.775558e-017 2.775558e-017 -1.000000e+000
      outer loop
         vertex 7.914024e+002 6.264307e+002 6.321425e+002
         vertex 7.911160e+002 6.253616e+002 6.321425e+002
         vertex 7.814945e+002 7.683500e+002 6.321425e+002
      endloop
   endfacet
   facet normal 2.775558e-017 2.775558e-017 -1.000000e+000
      outer loop
         vertex 7.814945e+002 7.683500e+002 6.321425e+002
         vertex 7.911160e+002 6.253616e+002 6.321425e+002
         vertex 7.910194e+002 6.242589e+002 6.321425e+002
      endloop
   endfacet
   facet normal 2.775558e-017 2.775558e-017 -1.000000e+000
      outer loop
         vertex 7.814945e+002 7.683500e+002 6.321425e+002
         vertex 7.910194e+002 6.242589e+002 6.321425e+002
         vertex 7.814945e+002 3.492500e+002 6.321425e+002
      endloop
   endfacet
   facet normal 2.775558e-017 2.775558e-017 -1.000000e+000
      outer loop
         vertex 7.814945e+002 3.492500e+002 6.321425e+002
         vertex 7.910194e+002 6.242589e+002 6.321425e+002
         vertex 7.911160e+002 6.231562e+002 6.321425e+002
      endloop
   endfacet
   facet normal 2.775558e-017 2.775558e-017 -1.000000e+000
      outer loop
         vertex 7.814945e+002 3.492500e+002 6.321425e+002
         vertex 7.911160e+002 6.231562e+002 6.321425e+002
         vertex 7.914024e+002 6.220870e+002 6.321425e+002
      endloop
   endfacet
   facet normal 2.775558e-017 2.775558e-017 -1.000000e+000
      outer loop
         vertex 7.995413e+002 6.182918e+002 6.321425e+002
         vertex 8.005444e+002 6.187596e+002 6.321425e+002
         vertex 8.195944e+002 3.492500e+002 6.321425e+002
      endloop
   endfacet
   facet normal 2.775558e-017 2.775558e-017 -1.000000e+000
      outer loop
         vertex 8.195944e+002 3.492500e+002 6.321425e+002
         vertex 8.005444e+002 6.187596e+002 6.321425e+002
         vertex 8.014512e+002 6.193945e+002 6.321425e+002
      endloop
   endfacet
   facet normal 2.775558e-017 2.775558e-017 -1.000000e+000
      outer loop
         vertex 8.195944e+002 3.492500e+002 6.321425e+002
         vertex 8.014512e+002 6.193945e+002 6.321425e+002
         vertex 8.022339e+002 6.201771e+002 6.321425e+002
      endloop
   endfacet
   facet normal 2.775558e-017 2.775558e-017 -1.000000e+000
      outer loop
         vertex 7.914024e+002 6.220870e+002 6.321425e+002
         vertex 7.918702e+002 6.210839e+002 6.321425e+002
         vertex 7.814945e+002 3.492500e+002 6.321425e+002
      endloop
   endfacet
   facet normal 2.775558e-017 2.775558e-017 -1.000000e+000
      outer loop
         vertex 7.814945e+002 3.492500e+002 6.321425e+002
         vertex 7.918702e+002 6.210839e+002 6.321425e+002
         vertex 7.925051e+002 6.201771e+002 6.321425e+002
      endloop
   endfacet
   facet normal 2.775558e-017 2.775558e-017 -1.000000e+000
      outer loop
         vertex 7.814945e+002 3.492500e+002 6.321425e+002
         vertex 7.925051e+002 6.201771e+002 6.321425e+002
         vertex 7.932878e+002 6.193945e+002 6.321425e+002
      endloop
   endfacet
   facet normal 2.775558e-017 2.775558e-017 -1.000000e+000
      outer loop
         vertex 8.022339e+002 6.201771e+002 6.321425e+002
         vertex 8.028687e+002 6.210839e+002 6.321425e+002
         vertex 8.195944e+002 3.492500e+002 6.321425e+002
      endloop
   endfacet
   facet normal 2.775558e-017 2.775558e-017 -1.000000e+000
      outer loop
         vertex 8.195944e+002 3.492500e+002 6.321425e+002
         vertex 8.028687e+002 6.210839e+002 6.321425e+002
         vertex 8.033365e+002 6.220870e+002 6.321425e+002
      endloop
   endfacet
   facet normal 2.775558e-017 2.775558e-017 -1.000000e+000
      outer loop
         vertex 8.195944e+002 3.492500e+002 6.321425e+002
         vertex 8.033365e+002 6.220870e+002 6.321425e+002
         vertex 8.036230e+002 6.231562e+002 6.321425e+002
      endloop
   endfacet
   facet normal -1.000000e+000 -8.326673e-017 -2.498002e-016
      outer loop
         vertex 7.814945e+002 3.492500e+002 6.321425e+002
         vertex 7.814945e+002 3.492500e+002 6.384925e+002
         vertex 7.814945e+002 7.683500e+002 6.321425e+002
      endloop
   endfacet
   facet normal -1.000000e+000 -8.326673e-017 -2.498002e-016
      outer loop
         vertex 7.814945e+002 7.683500e+002 6.321425e+002
         vertex 7.814945e+002 3.492500e+002 6.384925e+002
         vertex 7.814945e+002 7.683500e+002 6.384925e+002
      endloop
   endfacet
   facet normal -2.775558e-017 -2.775558e-017 1.000000e+000
      outer loop
         vertex 7.962668e+002 6.561053e+002 6.384925e+002
         vertex 7.951977e+002 6.563918e+002 6.384925e+002
         vertex 7.911160e+002 6.253616e+002 6.384925e+002
      endloop
   endfacet
   facet normal -2.775558e-017 -2.775558e-017 1.000000e+000
      outer loop
         vertex 7.995413e+002 6.563918e+002 6.384925e+002
         vertex 8.036230e+002 6.253616e+002 6.384925e+002
         vertex 8.005444e+002 6.568596e+002 6.384925e+002
      endloop
   endfacet
   facet normal -2.775558e-017 -2.775558e-017 1.000000e+000
      outer loop
         vertex 8.005444e+002 6.568596e+002 6.384925e+002
         vertex 8.036230e+002 6.253616e+002 6.384925e+002
         vertex 8.014512e+002 6.574945e+002 6.384925e+002
      endloop
   endfacet
   facet normal -2.775558e-017 -2.775558e-017 1.000000e+000
      outer loop
         vertex 8.014512e+002 6.193945e+002 6.384925e+002
         vertex 8.005444e+002 6.187596e+002 6.384925e+002
         vertex 8.132444e+002 3.492500e+002 6.384925e+002
      endloop
   endfacet
   facet normal -2.775558e-017 -2.775558e-017 1.000000e+000
      outer loop
         vertex 7.962668e+002 6.180053e+002 6.384925e+002
         vertex 7.951977e+002 6.182918e+002 6.384925e+002
         vertex 7.814945e+002 3.492500e+002 6.384925e+002
      endloop
   endfacet
   facet normal -2.775558e-017 -2.775558e-017 1.000000e+000
      outer loop
         vertex 7.814945e+002 3.492500e+002 6.384925e+002
         vertex 7.951977e+002 6.182918e+002 6.384925e+002
         vertex 7.941945e+002 6.187596e+002 6.384925e+002
      endloop
   endfacet
   facet normal -2.775558e-017 -2.775558e-017 1.000000e+000
      outer loop
         vertex 7.814945e+002 3.492500e+002 6.384925e+002
         vertex 7.941945e+002 6.187596e+002 6.384925e+002
         vertex 7.932878e+002 6.193945e+002 6.384925e+002
      endloop
   endfacet
   facet normal -2.775558e-017 -2.775558e-017 1.000000e+000
      outer loop
         vertex 7.925051e+002 6.664406e+002 6.384925e+002
         vertex 7.814945e+002 7.683500e+002 6.384925e+002
         vertex 7.918702e+002 6.655339e+002 6.384925e+002
      endloop
   endfacet
   facet normal -2.775558e-017 -2.775558e-017 1.000000e+000
      outer loop
         vertex 7.918702e+002 6.655339e+002 6.384925e+002
         vertex 7.814945e+002 7.683500e+002 6.384925e+002
         vertex 7.914024e+002 6.645307e+002 6.384925e+002
      endloop
   endfacet
   facet normal -2.775558e-017 -2.775558e-017 1.000000e+000
      outer loop
         vertex 7.925051e+002 6.664406e+002 6.384925e+002
         vertex 7.932878e+002 6.672233e+002 6.384925e+002
         vertex 7.814945e+002 7.683500e+002 6.384925e+002
      endloop
   endfacet
   facet normal -2.775558e-017 -2.775558e-017 1.000000e+000
      outer loop
         vertex 7.814945e+002 7.683500e+002 6.384925e+002
         vertex 7.932878e+002 6.672233e+002 6.384925e+002
         vertex 7.941945e+002 6.678582e+002 6.384925e+002
      endloop
   endfacet
   facet normal -2.775558e-017 -2.775558e-017 1.000000e+000
      outer loop
         vertex 7.814945e+002 7.683500e+002 6.384925e+002
         vertex 7.941945e+002 6.678582e+002 6.384925e+002
         vertex 7.951977e+002 6.683259e+002 6.384925e+002
      endloop
   endfacet
   facet normal -2.775558e-017 -2.775558e-017 1.000000e+000
      outer loop
         vertex 8.036230e+002 6.612562e+002 6.384925e+002
         vertex 8.033365e+002 6.601871e+002 6.384925e+002
         vertex 8.036230e+002 6.253616e+002 6.384925e+002
      endloop
   endfacet
   facet normal -2.775558e-017 -2.775558e-017 1.000000e+000
      outer loop
         vertex 7.973695e+002 6.560089e+002 6.384925e+002
         vertex 7.941945e+002 6.297581e+002 6.384925e+002
         vertex 7.951977e+002 6.302259e+002 6.384925e+002
      endloop
   endfacet
   facet normal -2.775558e-017 -2.775558e-017 1.000000e+000
      outer loop
         vertex 8.005444e+002 6.187596e+002 6.384925e+002
         vertex 7.995413e+002 6.182918e+002 6.384925e+002
         vertex 8.132444e+002 3.492500e+002 6.384925e+002
      endloop
   endfacet
   facet normal -2.775558e-017 -2.775558e-017 1.000000e+000
      outer loop
         vertex 8.132444e+002 3.492500e+002 6.384925e+002
         vertex 7.995413e+002 6.182918e+002 6.384925e+002
         vertex 7.984721e+002 6.180053e+002 6.384925e+002
      endloop
   endfacet
   facet normal -2.775558e-017 -2.775558e-017 1.000000e+000
      outer loop
         vertex 8.132444e+002 3.492500e+002 6.384925e+002
         vertex 7.984721e+002 6.180053e+002 6.384925e+002
         vertex 7.814945e+002 3.492500e+002 6.384925e+002
      endloop
   endfacet
   facet normal -2.775558e-017 -2.775558e-017 1.000000e+000
      outer loop
         vertex 7.814945e+002 3.492500e+002 6.384925e+002
         vertex 7.984721e+002 6.180053e+002 6.384925e+002
         vertex 7.973695e+002 6.179089e+002 6.384925e+002
      endloop
   endfacet
   facet normal -2.775558e-017 -2.775558e-017 1.000000e+000
      outer loop
         vertex 7.814945e+002 3.492500e+002 6.384925e+002
         vertex 7.973695e+002 6.179089e+002 6.384925e+002
         vertex 7.962668e+002 6.180053e+002 6.384925e+002
      endloop
   endfacet
   facet normal -2.775558e-017 -2.775558e-017 1.000000e+000
      outer loop
         vertex 7.918702e+002 6.591838e+002 6.384925e+002
         vertex 7.914024e+002 6.601871e+002 6.384925e+002
         vertex 7.910194e+002 6.242589e+002 6.384925e+002
      endloop
   endfacet
   facet normal -2.775558e-017 -2.775558e-017 1.000000e+000
      outer loop
         vertex 8.132444e+002 7.683500e+002 6.384925e+002
         vertex 7.995413e+002 6.683259e+002 6.384925e+002
         vertex 8.005444e+002 6.678582e+002 6.384925e+002
      endloop
   endfacet
   facet normal -2.775558e-017 -2.775558e-017 1.000000e+000
      outer loop
         vertex 8.005444e+002 6.678582e+002 6.384925e+002
         vertex 8.014512e+002 6.672233e+002 6.384925e+002
         vertex 8.132444e+002 7.683500e+002 6.384925e+002
      endloop
   endfacet
   facet normal -2.775558e-017 -2.775558e-017 1.000000e+000
      outer loop
         vertex 8.132444e+002 7.683500e+002 6.384925e+002
         vertex 8.014512e+002 6.672233e+002 6.384925e+002
         vertex 8.022339e+002 6.664406e+002 6.384925e+002
      endloop
   endfacet
   facet normal -2.775558e-017 -2.775558e-017 1.000000e+000
      outer loop
         vertex 8.132444e+002 7.683500e+002 6.384925e+002
         vertex 8.022339e+002 6.664406e+002 6.384925e+002
         vertex 8.028687e+002 6.655339e+002 6.384925e+002
      endloop
   endfacet
   facet normal -2.775558e-017 -2.775558e-017 1.000000e+000
      outer loop
         vertex 8.028687e+002 6.655339e+002 6.384925e+002
         vertex 8.033365e+002 6.645307e+002 6.384925e+002
         vertex 8.132444e+002 7.683500e+002 6.384925e+002
      endloop
   endfacet
   facet normal -2.775558e-017 -2.775558e-017 1.000000e+000
      outer loop
         vertex 8.132444e+002 7.683500e+002 6.384925e+002
         vertex 8.033365e+002 6.645307e+002 6.384925e+002
         vertex 8.036230e+002 6.634615e+002 6.384925e+002
      endloop
   endfacet
   facet normal -2.775558e-017 -2.775558e-017 1.000000e+000
      outer loop
         vertex 8.132444e+002 7.683500e+002 6.384925e+002
         vertex 8.036230e+002 6.634615e+002 6.384925e+002
         vertex 8.037195e+002 6.623589e+002 6.384925e+002
      endloop
   endfacet
   facet normal -2.775558e-017 -2.775558e-017 1.000000e+000
      outer loop
         vertex 8.036230e+002 6.612562e+002 6.384925e+002
         vertex 8.036230e+002 6.253616e+002 6.384925e+002
         vertex 8.037195e+002 6.623589e+002 6.384925e+002
      endloop
   endfacet
   facet normal -2.775558e-017 -2.775558e-017 1.000000e+000
      outer loop
         vertex 8.033365e+002 6.601871e+002 6.384925e+002
         vertex 8.028687e+002 6.591838e+002 6.384925e+002
         vertex 8.036230e+002 6.253616e+002 6.384925e+002
      endloop
   endfacet
   facet normal -2.775558e-017 -2.775558e-017 1.000000e+000
      outer loop
         vertex 8.036230e+002 6.253616e+002 6.384925e+002
         vertex 8.028687e+002 6.591838e+002 6.384925e+002
         vertex 8.022339e+002 6.582772e+002 6.384925e+002
      endloop
   endfacet
   facet normal -2.775558e-017 -2.775558e-017 1.000000e+000
      outer loop
         vertex 8.036230e+002 6.253616e+002 6.384925e+002
         vertex 8.022339e+002 6.582772e+002 6.384925e+002
         vertex 8.014512e+002 6.574945e+002 6.384925e+002
      endloop
   endfacet
   facet normal -2.775558e-017 -2.775558e-017 1.000000e+000
      outer loop
         vertex 7.932878e+002 6.193945e+002 6.384925e+002
         vertex 7.925051e+002 6.201771e+002 6.384925e+002
         vertex 7.814945e+002 3.492500e+002 6.384925e+002
      endloop
   endfacet
   facet normal -2.775558e-017 -2.775558e-017 1.000000e+000
      outer loop
         vertex 7.814945e+002 3.492500e+002 6.384925e+002
         vertex 7.925051e+002 6.201771e+002 6.384925e+002
         vertex 7.918702e+002 6.210839e+002 6.384925e+002
      endloop
   endfacet
   facet normal -2.775558e-017 -2.775558e-017 1.000000e+000
      outer loop
         vertex 7.814945e+002 3.492500e+002 6.384925e+002
         vertex 7.918702e+002 6.210839e+002 6.384925e+002
         vertex 7.914024e+002 6.220870e+002 6.384925e+002
      endloop
   endfacet
   facet normal -2.775558e-017 -2.775558e-017 1.000000e+000
      outer loop
         vertex 7.951977e+002 6.563918e+002 6.384925e+002
         vertex 7.941945e+002 6.568596e+002 6.384925e+002
         vertex 7.911160e+002 6.253616e+002 6.384925e+002
      endloop
   endfacet
   facet normal -2.775558e-017 -2.775558e-017 1.000000e+000
      outer loop
         vertex 7.911160e+002 6.253616e+002 6.384925e+002
         vertex 7.941945e+002 6.568596e+002 6.384925e+002
         vertex 7.932878e+002 6.574945e+002 6.384925e+002
      endloop
   endfacet
   facet normal -2.775558e-017 -2.775558e-017 1.000000e+000
      outer loop
         vertex 7.911160e+002 6.253616e+002 6.384925e+002
         vertex 7.932878e+002 6.574945e+002 6.384925e+002
         vertex 7.910194e+002 6.242589e+002 6.384925e+002
      endloop
   endfacet
   facet normal -2.775558e-017 -2.775558e-017 1.000000e+000
      outer loop
         vertex 7.910194e+002 6.242589e+002 6.384925e+002
         vertex 7.932878e+002 6.574945e+002 6.384925e+002
         vertex 7.925051e+002 6.582772e+002 6.384925e+002
      endloop
   endfacet
   facet normal -2.775558e-017 -2.775558e-017 1.000000e+000
      outer loop
         vertex 7.910194e+002 6.242589e+002 6.384925e+002
         vertex 7.925051e+002 6.582772e+002 6.384925e+002
         vertex 7.918702e+002 6.591838e+002 6.384925e+002
      endloop
   endfacet
   facet normal -2.775558e-017 -2.775558e-017 1.000000e+000
      outer loop
         vertex 7.951977e+002 6.683259e+002 6.384925e+002
         vertex 7.962668e+002 6.686124e+002 6.384925e+002
         vertex 7.814945e+002 7.683500e+002 6.384925e+002
      endloop
   endfacet
   facet normal -2.775558e-017 -2.775558e-017 1.000000e+000
      outer loop
         vertex 7.814945e+002 7.683500e+002 6.384925e+002
         vertex 7.962668e+002 6.686124e+002 6.384925e+002
         vertex 7.973695e+002 6.687089e+002 6.384925e+002
      endloop
   endfacet
   facet normal -2.775558e-017 -2.775558e-017 1.000000e+000
      outer loop
         vertex 7.814945e+002 7.683500e+002 6.384925e+002
         vertex 7.973695e+002 6.687089e+002 6.384925e+002
         vertex 8.132444e+002 7.683500e+002 6.384925e+002
      endloop
   endfacet
   facet normal -2.775558e-017 -2.775558e-017 1.000000e+000
      outer loop
         vertex 8.132444e+002 7.683500e+002 6.384925e+002
         vertex 7.973695e+002 6.687089e+002 6.384925e+002
         vertex 7.984721e+002 6.686124e+002 6.384925e+002
      endloop
   endfacet
   facet normal -2.775558e-017 -2.775558e-017 1.000000e+000
      outer loop
         vertex 8.132444e+002 7.683500e+002 6.384925e+002
         vertex 7.984721e+002 6.686124e+002 6.384925e+002
         vertex 7.995413e+002 6.683259e+002 6.384925e+002
      endloop
   endfacet
   facet normal -2.775558e-017 -2.775558e-017 1.000000e+000
      outer loop
         vertex 7.962668e+002 6.561053e+002 6.384925e+002
         vertex 7.911160e+002 6.253616e+002 6.384925e+002
         vertex 7.973695e+002 6.560089e+002 6.384925e+002
      endloop
   endfacet
   facet normal -2.775558e-017 -2.775558e-017 1.000000e+000
      outer loop
         vertex 7.973695e+002 6.560089e+002 6.384925e+002
         vertex 7.911160e+002 6.253616e+002 6.384925e+002
         vertex 7.914024e+002 6.264307e+002 6.384925e+002
      endloop
   endfacet
   facet normal -2.775558e-017 -2.775558e-017 1.000000e+000
      outer loop
         vertex 7.973695e+002 6.560089e+002 6.384925e+002
         vertex 7.914024e+002 6.264307e+002 6.384925e+002
         vertex 7.918702e+002 6.274339e+002 6.384925e+002
      endloop
   endfacet
   facet normal -2.775558e-017 -2.775558e-017 1.000000e+000
      outer loop
         vertex 7.918702e+002 6.274339e+002 6.384925e+002
         vertex 7.925051e+002 6.283406e+002 6.384925e+002
         vertex 7.973695e+002 6.560089e+002 6.384925e+002
      endloop
   endfacet
   facet normal -2.775558e-017 -2.775558e-017 1.000000e+000
      outer loop
         vertex 7.973695e+002 6.560089e+002 6.384925e+002
         vertex 7.925051e+002 6.283406e+002 6.384925e+002
         vertex 7.932878e+002 6.291233e+002 6.384925e+002
      endloop
   endfacet
   facet normal -2.775558e-017 -2.775558e-017 1.000000e+000
      outer loop
         vertex 7.973695e+002 6.560089e+002 6.384925e+002
         vertex 7.932878e+002 6.291233e+002 6.384925e+002
         vertex 7.941945e+002 6.297581e+002 6.384925e+002
      endloop
   endfacet
   facet normal -2.775558e-017 -2.775558e-017 1.000000e+000
      outer loop
         vertex 7.995413e+002 6.302259e+002 6.384925e+002
         vertex 7.995413e+002 6.563918e+002 6.384925e+002
         vertex 7.984721e+002 6.305124e+002 6.384925e+002
      endloop
   endfacet
   facet normal -2.775558e-017 -2.775558e-017 1.000000e+000
      outer loop
         vertex 7.984721e+002 6.305124e+002 6.384925e+002
         vertex 7.995413e+002 6.563918e+002 6.384925e+002
         vertex 7.984721e+002 6.561053e+002 6.384925e+002
      endloop
   endfacet
   facet normal -2.775558e-017 -2.775558e-017 1.000000e+000
      outer loop
         vertex 7.984721e+002 6.305124e+002 6.384925e+002
         vertex 7.984721e+002 6.561053e+002 6.384925e+002
         vertex 7.973695e+002 6.306089e+002 6.384925e+002
      endloop
   endfacet
   facet normal -2.775558e-017 -2.775558e-017 1.000000e+000
      outer loop
         vertex 7.973695e+002 6.306089e+002 6.384925e+002
         vertex 7.984721e+002 6.561053e+002 6.384925e+002
         vertex 7.973695e+002 6.560089e+002 6.384925e+002
      endloop
   endfacet
   facet normal -2.775558e-017 -2.775558e-017 1.000000e+000
      outer loop
         vertex 7.973695e+002 6.306089e+002 6.384925e+002
         vertex 7.973695e+002 6.560089e+002 6.384925e+002
         vertex 7.962668e+002 6.305124e+002 6.384925e+002
      endloop
   endfacet
   facet normal -2.775558e-017 -2.775558e-017 1.000000e+000
      outer loop
         vertex 7.962668e+002 6.305124e+002 6.384925e+002
         vertex 7.973695e+002 6.560089e+002 6.384925e+002
         vertex 7.951977e+002 6.302259e+002 6.384925e+002
      endloop
   endfacet
   facet normal -2.775558e-017 -2.775558e-017 1.000000e+000
      outer loop
         vertex 8.037195e+002 6.623589e+002 6.384925e+002
         vertex 8.036230e+002 6.253616e+002 6.384925e+002
         vertex 8.132444e+002 7.683500e+002 6.384925e+002
      endloop
   endfacet
   facet normal -2.775558e-017 -2.775558e-017 1.000000e+000
      outer loop
         vertex 8.132444e+002 7.683500e+002 6.384925e+002
         vertex 8.036230e+002 6.253616e+002 6.384925e+002
         vertex 8.037195e+002 6.242589e+002 6.384925e+002
      endloop
   endfacet
   facet normal -2.775558e-017 -2.775558e-017 1.000000e+000
      outer loop
         vertex 8.132444e+002 7.683500e+002 6.384925e+002
         vertex 8.037195e+002 6.242589e+002 6.384925e+002
         vertex 8.132444e+002 3.492500e+002 6.384925e+002
      endloop
   endfacet
   facet normal -2.775558e-017 -2.775558e-017 1.000000e+000
      outer loop
         vertex 8.132444e+002 3.492500e+002 6.384925e+002
         vertex 8.037195e+002 6.242589e+002 6.384925e+002
         vertex 8.036230e+002 6.231562e+002 6.384925e+002
      endloop
   endfacet
   facet normal -2.775558e-017 -2.775558e-017 1.000000e+000
      outer loop
         vertex 8.132444e+002 3.492500e+002 6.384925e+002
         vertex 8.036230e+002 6.231562e+002 6.384925e+002
         vertex 8.033365e+002 6.220870e+002 6.384925e+002
      endloop
   endfacet
   facet normal -2.775558e-017 -2.775558e-017 1.000000e+000
      outer loop
         vertex 7.995413e+002 6.302259e+002 6.384925e+002
         vertex 8.005444e+002 6.297581e+002 6.384925e+002
         vertex 7.995413e+002 6.563918e+002 6.384925e+002
      endloop
   endfacet
   facet normal -2.775558e-017 -2.775558e-017 1.000000e+000
      outer loop
         vertex 7.995413e+002 6.563918e+002 6.384925e+002
         vertex 8.005444e+002 6.297581e+002 6.384925e+002
         vertex 8.014512e+002 6.291233e+002 6.384925e+002
      endloop
   endfacet
   facet normal -2.775558e-017 -2.775558e-017 1.000000e+000
      outer loop
         vertex 7.995413e+002 6.563918e+002 6.384925e+002
         vertex 8.014512e+002 6.291233e+002 6.384925e+002
         vertex 8.022339e+002 6.283406e+002 6.384925e+002
      endloop
   endfacet
   facet normal -2.775558e-017 -2.775558e-017 1.000000e+000
      outer loop
         vertex 8.033365e+002 6.220870e+002 6.384925e+002
         vertex 8.028687e+002 6.210839e+002 6.384925e+002
         vertex 8.132444e+002 3.492500e+002 6.384925e+002
      endloop
   endfacet
   facet normal -2.775558e-017 -2.775558e-017 1.000000e+000
      outer loop
         vertex 8.132444e+002 3.492500e+002 6.384925e+002
         vertex 8.028687e+002 6.210839e+002 6.384925e+002
         vertex 8.022339e+002 6.201771e+002 6.384925e+002
      endloop
   endfacet
   facet normal -2.775558e-017 -2.775558e-017 1.000000e+000
      outer loop
         vertex 8.132444e+002 3.492500e+002 6.384925e+002
         vertex 8.022339e+002 6.201771e+002 6.384925e+002
         vertex 8.014512e+002 6.193945e+002 6.384925e+002
      endloop
   endfacet
   facet normal -2.775558e-017 -2.775558e-017 1.000000e+000
      outer loop
         vertex 7.914024e+002 6.220870e+002 6.384925e+002
         vertex 7.911160e+002 6.231562e+002 6.384925e+002
         vertex 7.814945e+002 3.492500e+002 6.384925e+002
      endloop
   endfacet
   facet normal -2.775558e-017 -2.775558e-017 1.000000e+000
      outer loop
         vertex 7.814945e+002 3.492500e+002 6.384925e+002
         vertex 7.911160e+002 6.231562e+002 6.384925e+002
         vertex 7.910194e+002 6.242589e+002 6.384925e+002
      endloop
   endfacet
   facet normal -2.775558e-017 -2.775558e-017 1.000000e+000
      outer loop
         vertex 7.814945e+002 3.492500e+002 6.384925e+002
         vertex 7.910194e+002 6.242589e+002 6.384925e+002
         vertex 7.814945e+002 7.683500e+002 6.384925e+002
      endloop
   endfacet
   facet normal -2.775558e-017 -2.775558e-017 1.000000e+000
      outer loop
         vertex 7.914024e+002 6.601871e+002 6.384925e+002
         vertex 7.911160e+002 6.612562e+002 6.384925e+002
         vertex 7.910194e+002 6.242589e+002 6.384925e+002
      endloop
   endfacet
   facet normal -2.775558e-017 -2.775558e-017 1.000000e+000
      outer loop
         vertex 7.910194e+002 6.242589e+002 6.384925e+002
         vertex 7.911160e+002 6.612562e+002 6.384925e+002
         vertex 7.910194e+002 6.623589e+002 6.384925e+002
      endloop
   endfacet
   facet normal -2.775558e-017 -2.775558e-017 1.000000e+000
      outer loop
         vertex 7.910194e+002 6.242589e+002 6.384925e+002
         vertex 7.910194e+002 6.623589e+002 6.384925e+002
         vertex 7.814945e+002 7.683500e+002 6.384925e+002
      endloop
   endfacet
   facet normal -2.775558e-017 -2.775558e-017 1.000000e+000
      outer loop
         vertex 7.814945e+002 7.683500e+002 6.384925e+002
         vertex 7.910194e+002 6.623589e+002 6.384925e+002
         vertex 7.911160e+002 6.634615e+002 6.384925e+002
      endloop
   endfacet
   facet normal -2.775558e-017 -2.775558e-017 1.000000e+000
      outer loop
         vertex 7.814945e+002 7.683500e+002 6.384925e+002
         vertex 7.911160e+002 6.634615e+002 6.384925e+002
         vertex 7.914024e+002 6.645307e+002 6.384925e+002
      endloop
   endfacet
   facet normal -2.775558e-017 -2.775558e-017 1.000000e+000
      outer loop
         vertex 8.022339e+002 6.283406e+002 6.384925e+002
         vertex 8.028687e+002 6.274339e+002 6.384925e+002
         vertex 7.995413e+002 6.563918e+002 6.384925e+002
      endloop
   endfacet
   facet normal -2.775558e-017 -2.775558e-017 1.000000e+000
      outer loop
         vertex 7.995413e+002 6.563918e+002 6.384925e+002
         vertex 8.028687e+002 6.274339e+002 6.384925e+002
         vertex 8.033365e+002 6.264307e+002 6.384925e+002
      endloop
   endfacet
   facet normal -2.775558e-017 -2.775558e-017 1.000000e+000
      outer loop
         vertex 7.995413e+002 6.563918e+002 6.384925e+002
         vertex 8.033365e+002 6.264307e+002 6.384925e+002
         vertex 8.036230e+002 6.253616e+002 6.384925e+002
      endloop
   endfacet
   facet normal -1.000000e+000 -8.326673e-017 -2.498002e-016
      outer loop
         vertex 8.132444e+002 3.492500e+002 6.384925e+002
         vertex 8.132444e+002 3.492500e+002 6.702425e+002
         vertex 8.132444e+002 7.683500e+002 6.384925e+002
      endloop
   endfacet
   facet normal -1.000000e+000 -8.326673e-017 -2.498002e-016
      outer loop
         vertex 8.132444e+002 7.683500e+002 6.384925e+002
         vertex 8.132444e+002 3.492500e+002 6.702425e+002
         vertex 8.132444e+002 7.683500e+002 6.702425e+002
      endloop
   endfacet
   facet normal -2.775558e-017 -2.775558e-017 1.000000e+000
      outer loop
         vertex 8.132444e+002 3.492500e+002 6.702425e+002
         vertex 8.195944e+002 3.492500e+002 6.702425e+002
         vertex 8.132444e+002 7.683500e+002 6.702425e+002
      endloop
   endfacet
   facet normal -2.775558e-017 -2.775558e-017 1.000000e+000
      outer loop
         vertex 8.132444e+002 7.683500e+002 6.702425e+002
         vertex 8.195944e+002 3.492500e+002 6.702425e+002
         vertex 8.195944e+002 7.683500e+002 6.702425e+002
      endloop
   endfacet
   facet normal 1.000000e+000 8.326673e-017 2.498002e-016
      outer loop
         vertex 8.195944e+002 3.492500e+002 6.321425e+002
         vertex 8.195944e+002 7.683500e+002 6.321425e+002
         vertex 8.195944e+002 3.492500e+002 6.702425e+002
      endloop
   endfacet
   facet normal 1.000000e+000 8.326673e-017 2.498002e-016
      outer loop
         vertex 8.195944e+002 3.492500e+002 6.702425e+002
         vertex 8.195944e+002 7.683500e+002 6.321425e+002
         vertex 8.195944e+002 7.683500e+002 6.702425e+002
      endloop
   endfacet
   facet normal 5.080073e-017 1.000000e+000 5.694234e-018
      outer loop
         vertex 8.132444e+002 7.683500e+002 6.702425e+002
         vertex 8.195944e+002 7.683500e+002 6.702425e+002
         vertex 8.132444e+002 7.683500e+002 6.384925e+002
      endloop
   endfacet
   facet normal 5.080073e-017 1.000000e+000 5.694234e-018
      outer loop
         vertex 8.132444e+002 7.683500e+002 6.384925e+002
         vertex 8.195944e+002 7.683500e+002 6.702425e+002
         vertex 8.195944e+002 7.683500e+002 6.321425e+002
      endloop
   endfacet
   facet normal 5.080073e-017 1.000000e+000 5.694234e-018
      outer loop
         vertex 8.132444e+002 7.683500e+002 6.384925e+002
         vertex 8.195944e+002 7.683500e+002 6.321425e+002
         vertex 7.814945e+002 7.683500e+002 6.384925e+002
      endloop
   endfacet
   facet normal 5.080073e-017 1.000000e+000 5.694234e-018
      outer loop
         vertex 7.814945e+002 7.683500e+002 6.384925e+002
         vertex 8.195944e+002 7.683500e+002 6.321425e+002
         vertex 7.814945e+002 7.683500e+002 6.321425e+002
      endloop
   endfacet
   facet normal -5.080073e-017 -1.000000e+000 -5.694234e-018
      outer loop
         vertex 7.814945e+002 3.492500e+002 6.384925e+002
         vertex 7.814945e+002 3.492500e+002 6.321425e+002
         vertex 8.132444e+002 3.492500e+002 6.384925e+002
      endloop
   endfacet
   facet normal -5.080073e-017 -1.000000e+000 -5.694234e-018
      outer loop
         vertex 8.132444e+002 3.492500e+002 6.384925e+002
         vertex 7.814945e+002 3.492500e+002 6.321425e+002
         vertex 8.195944e+002 3.492500e+002 6.321425e+002
      endloop
   endfacet
   facet normal -5.080073e-017 -1.000000e+000 -5.694234e-018
      outer loop
         vertex 8.132444e+002 3.492500e+002 6.384925e+002
         vertex 8.195944e+002 3.492500e+002 6.321425e+002
         vertex 8.132444e+002 3.492500e+002 6.702425e+002
      endloop
   endfacet
   facet normal -5.080073e-017 -1.000000e+000 -5.694234e-018
      outer loop
         vertex 8.132444e+002 3.492500e+002 6.702425e+002
         vertex 8.195944e+002 3.492500e+002 6.321425e+002
         vertex 8.195944e+002 3.492500e+002 6.702425e+002
      endloop
   endfacet
   facet normal -5.807914e-002 -9.983120e-001 -4.790152e-017
      outer loop
         vertex 7.984721e+002 6.686124e+002 6.321425e+002
         vertex 7.973695e+002 6.687089e+002 6.384925e+002
         vertex 7.973695e+002 6.687089e+002 6.321425e+002
      endloop
   endfacet
   facet normal 5.807914e-002 -9.983120e-001 -1.888517e-017
      outer loop
         vertex 7.973695e+002 6.687089e+002 6.321425e+002
         vertex 7.973695e+002 6.687089e+002 6.384925e+002
         vertex 7.962668e+002 6.686124e+002 6.384925e+002
      endloop
   endfacet
   facet normal 1.161583e-001 -9.932307e-001 -4.207019e-018
      outer loop
         vertex 7.973695e+002 6.687089e+002 6.321425e+002
         vertex 7.962668e+002 6.686124e+002 6.384925e+002
         vertex 7.962668e+002 6.686124e+002 6.321425e+002
      endloop
   endfacet
   facet normal 2.305519e-001 -9.730600e-001 2.504322e-017
      outer loop
         vertex 7.962668e+002 6.686124e+002 6.321425e+002
         vertex 7.962668e+002 6.686124e+002 6.384925e+002
         vertex 7.951977e+002 6.683259e+002 6.384925e+002
      endloop
   endfacet
   facet normal 2.868663e-001 -9.579706e-001 3.961531e-017
      outer loop
         vertex 7.962668e+002 6.686124e+002 6.321425e+002
         vertex 7.951977e+002 6.683259e+002 6.384925e+002
         vertex 7.951977e+002 6.683259e+002 6.321425e+002
      endloop
   endfacet
   facet normal 3.960194e-001 -9.182422e-001 6.821068e-017
      outer loop
         vertex 7.951977e+002 6.683259e+002 6.321425e+002
         vertex 7.951977e+002 6.683259e+002 6.384925e+002
         vertex 7.941945e+002 6.678582e+002 6.384925e+002
      endloop
   endfacet
   facet normal 4.488580e-001 -8.936031e-001 8.223396e-017
      outer loop
         vertex 7.951977e+002 6.683259e+002 6.321425e+002
         vertex 7.941945e+002 6.678582e+002 6.384925e+002
         vertex 7.941945e+002 6.678582e+002 6.321425e+002
      endloop
   endfacet
   facet normal 5.494540e-001 -8.355240e-001 1.093056e-016
      outer loop
         vertex 7.941945e+002 6.678582e+002 6.321425e+002
         vertex 7.941945e+002 6.678582e+002 6.384925e+002
         vertex 7.932878e+002 6.672233e+002 6.384925e+002
      endloop
   endfacet
   facet normal 5.972114e-001 -8.020839e-001 1.223540e-016
      outer loop
         vertex 7.941945e+002 6.678582e+002 6.321425e+002
         vertex 7.932878e+002 6.672233e+002 6.384925e+002
         vertex 7.932878e+002 6.672233e+002 6.321425e+002
      endloop
   endfacet
   facet normal 6.861938e-001 -7.274188e-001 1.470793e-016
      outer loop
         vertex 7.932878e+002 6.672233e+002 6.321425e+002
         vertex 7.932878e+002 6.672233e+002 6.384925e+002
         vertex 7.925051e+002 6.664406e+002 6.384925e+002
      endloop
   endfacet
   facet normal 7.274188e-001 -6.861938e-001 1.587563e-016
      outer loop
         vertex 7.932878e+002 6.672233e+002 6.321425e+002
         vertex 7.925051e+002 6.664406e+002 6.384925e+002
         vertex 7.925051e+002 6.664406e+002 6.321425e+002
      endloop
   endfacet
   facet normal 8.020839e-001 -5.972114e-001 1.803841e-016
      outer loop
         vertex 7.925051e+002 6.664406e+002 6.321425e+002
         vertex 7.925051e+002 6.664406e+002 6.384925e+002
         vertex 7.918702e+002 6.655339e+002 6.384925e+002
      endloop
   endfacet
   facet normal 8.355240e-001 -5.494540e-001 1.903349e-016
      outer loop
         vertex 7.925051e+002 6.664406e+002 6.321425e+002
         vertex 7.918702e+002 6.655339e+002 6.384925e+002
         vertex 7.918702e+002 6.655339e+002 6.321425e+002
      endloop
   endfacet
   facet normal 8.936031e-001 -4.488580e-001 2.082080e-016
      outer loop
         vertex 7.918702e+002 6.655339e+002 6.321425e+002
         vertex 7.918702e+002 6.655339e+002 6.384925e+002
         vertex 7.914024e+002 6.645307e+002 6.384925e+002
      endloop
   endfacet
   facet normal 9.182422e-001 -3.960194e-001 2.161303e-016
      outer loop
         vertex 7.918702e+002 6.655339e+002 6.321425e+002
         vertex 7.914024e+002 6.645307e+002 6.384925e+002
         vertex 7.914024e+002 6.645307e+002 6.321425e+002
      endloop
   endfacet
   facet normal 9.579706e-001 -2.868663e-001 2.297056e-016
      outer loop
         vertex 7.914024e+002 6.645307e+002 6.321425e+002
         vertex 7.914024e+002 6.645307e+002 6.384925e+002
         vertex 7.911160e+002 6.634615e+002 6.384925e+002
      endloop
   endfacet
   facet normal 9.730600e-001 -2.305519e-001 2.353587e-016
      outer loop
         vertex 7.914024e+002 6.645307e+002 6.321425e+002
         vertex 7.911160e+002 6.634615e+002 6.384925e+002
         vertex 7.911160e+002 6.634615e+002 6.321425e+002
      endloop
   endfacet
   facet normal 9.932307e-001 -1.161583e-001 2.442237e-016
      outer loop
         vertex 7.911160e+002 6.634615e+002 6.321425e+002
         vertex 7.911160e+002 6.634615e+002 6.384925e+002
         vertex 7.910194e+002 6.623589e+002 6.384925e+002
      endloop
   endfacet
   facet normal 9.983120e-001 -5.807914e-002 2.474358e-016
      outer loop
         vertex 7.911160e+002 6.634615e+002 6.321425e+002
         vertex 7.910194e+002 6.623589e+002 6.384925e+002
         vertex 7.910194e+002 6.623589e+002 6.321425e+002
      endloop
   endfacet
   facet normal 9.983120e-001 5.807914e-002 2.513212e-016
      outer loop
         vertex 7.910194e+002 6.623589e+002 6.321425e+002
         vertex 7.910194e+002 6.623589e+002 6.384925e+002
         vertex 7.911160e+002 6.612562e+002 6.384925e+002
      endloop
   endfacet
   facet normal 9.932307e-001 1.161583e-001 2.519947e-016
      outer loop
         vertex 7.910194e+002 6.623589e+002 6.321425e+002
         vertex 7.911160e+002 6.612562e+002 6.384925e+002
         vertex 7.911160e+002 6.612562e+002 6.321425e+002
      endloop
   endfacet
   facet normal 9.730600e-001 2.305519e-001 2.507825e-016
      outer loop
         vertex 7.911160e+002 6.612562e+002 6.321425e+002
         vertex 7.911160e+002 6.612562e+002 6.384925e+002
         vertex 7.914024e+002 6.601871e+002 6.384925e+002
      endloop
   endfacet
   facet normal 9.579706e-001 2.868663e-001 2.488969e-016
      outer loop
         vertex 7.911160e+002 6.612562e+002 6.321425e+002
         vertex 7.914024e+002 6.601871e+002 6.384925e+002
         vertex 7.914024e+002 6.601871e+002 6.321425e+002
      endloop
   endfacet
   facet normal 9.182422e-001 3.960194e-001 2.426238e-016
      outer loop
         vertex 7.914024e+002 6.601871e+002 6.321425e+002
         vertex 7.914024e+002 6.601871e+002 6.384925e+002
         vertex 7.918702e+002 6.591838e+002 6.384925e+002
      endloop
   endfacet
   facet normal 8.936031e-001 4.488580e-001 2.382364e-016
      outer loop
         vertex 7.914024e+002 6.601871e+002 6.321425e+002
         vertex 7.918702e+002 6.591838e+002 6.384925e+002
         vertex 7.918702e+002 6.591838e+002 6.321425e+002
      endloop
   endfacet
   facet normal 8.355240e-001 5.494540e-001 2.270932e-016
      outer loop
         vertex 7.918702e+002 6.591838e+002 6.321425e+002
         vertex 7.918702e+002 6.591838e+002 6.384925e+002
         vertex 7.925051e+002 6.582772e+002 6.384925e+002
      endloop
   endfacet
   facet normal 8.020839e-001 5.972114e-001 2.203373e-016
      outer loop
         vertex 7.918702e+002 6.591838e+002 6.321425e+002
         vertex 7.925051e+002 6.582772e+002 6.384925e+002
         vertex 7.925051e+002 6.582772e+002 6.321425e+002
      endloop
   endfacet
   facet normal 7.274188e-001 6.861938e-001 2.046624e-016
      outer loop
         vertex 7.925051e+002 6.582772e+002 6.321425e+002
         vertex 7.925051e+002 6.582772e+002 6.384925e+002
         vertex 7.932878e+002 6.574945e+002 6.384925e+002
      endloop
   endfacet
   facet normal 6.861938e-001 7.274188e-001 1.957433e-016
      outer loop
         vertex 7.925051e+002 6.582772e+002 6.321425e+002
         vertex 7.932878e+002 6.574945e+002 6.384925e+002
         vertex 7.932878e+002 6.574945e+002 6.321425e+002
      endloop
   endfacet
   facet normal 5.972114e-001 8.020839e-001 1.760131e-016
      outer loop
         vertex 7.932878e+002 6.574945e+002 6.321425e+002
         vertex 7.932878e+002 6.574945e+002 6.384925e+002
         vertex 7.941945e+002 6.568596e+002 6.384925e+002
      endloop
   endfacet
   facet normal 5.494540e-001 8.355240e-001 1.652018e-016
      outer loop
         vertex 7.932878e+002 6.574945e+002 6.321425e+002
         vertex 7.941945e+002 6.568596e+002 6.384925e+002
         vertex 7.941945e+002 6.568596e+002 6.321425e+002
      endloop
   endfacet
   facet normal 4.488580e-001 8.936031e-001 1.420157e-016
      outer loop
         vertex 7.941945e+002 6.568596e+002 6.321425e+002
         vertex 7.941945e+002 6.568596e+002 6.384925e+002
         vertex 7.951977e+002 6.563918e+002 6.384925e+002
      endloop
   endfacet
   facet normal 3.960194e-001 9.182422e-001 1.296407e-016
      outer loop
         vertex 7.941945e+002 6.568596e+002 6.321425e+002
         vertex 7.951977e+002 6.563918e+002 6.384925e+002
         vertex 7.951977e+002 6.563918e+002 6.321425e+002
      endloop
   endfacet
   facet normal 2.868663e-001 9.579706e-001 1.037032e-016
      outer loop
         vertex 7.951977e+002 6.563918e+002 6.321425e+002
         vertex 7.951977e+002 6.563918e+002 6.384925e+002
         vertex 7.962668e+002 6.561053e+002 6.384925e+002
      endloop
   endfacet
   facet normal 2.305519e-001 9.730600e-001 9.014057e-017
      outer loop
         vertex 7.951977e+002 6.563918e+002 6.321425e+002
         vertex 7.962668e+002 6.561053e+002 6.384925e+002
         vertex 7.962668e+002 6.561053e+002 6.321425e+002
      endloop
   endfacet
   facet normal 1.161583e-001 9.932307e-001 6.223974e-017
      outer loop
         vertex 7.962668e+002 6.561053e+002 6.321425e+002
         vertex 7.962668e+002 6.561053e+002 6.384925e+002
         vertex 7.973695e+002 6.560089e+002 6.384925e+002
      endloop
   endfacet
   facet normal 5.807914e-002 9.983120e-001 4.790152e-017
      outer loop
         vertex 7.962668e+002 6.561053e+002 6.321425e+002
         vertex 7.973695e+002 6.560089e+002 6.384925e+002
         vertex 7.973695e+002 6.560089e+002 6.321425e+002
      endloop
   endfacet
   facet normal -5.807914e-002 9.983120e-001 1.888517e-017
      outer loop
         vertex 7.973695e+002 6.560089e+002 6.321425e+002
         vertex 7.973695e+002 6.560089e+002 6.384925e+002
         vertex 7.984721e+002 6.561053e+002 6.384925e+002
      endloop
   endfacet
   facet normal -1.161583e-001 9.932307e-001 4.207019e-018
      outer loop
         vertex 7.973695e+002 6.560089e+002 6.321425e+002
         vertex 7.984721e+002 6.561053e+002 6.384925e+002
         vertex 7.984721e+002 6.561053e+002 6.321425e+002
      endloop
   endfacet
   facet normal -2.305519e-001 9.730600e-001 -2.504322e-017
      outer loop
         vertex 7.984721e+002 6.561053e+002 6.321425e+002
         vertex 7.984721e+002 6.561053e+002 6.384925e+002
         vertex 7.995413e+002 6.563918e+002 6.384925e+002
      endloop
   endfacet
   facet normal -2.868663e-001 9.579706e-001 -3.961531e-017
      outer loop
         vertex 7.984721e+002 6.561053e+002 6.321425e+002
         vertex 7.995413e+002 6.563918e+002 6.384925e+002
         vertex 7.995413e+002 6.563918e+002 6.321425e+002
      endloop
   endfacet
   facet normal -3.960194e-001 9.182422e-001 -6.821068e-017
      outer loop
         vertex 7.995413e+002 6.563918e+002 6.321425e+002
         vertex 7.995413e+002 6.563918e+002 6.384925e+002
         vertex 8.005444e+002 6.568596e+002 6.384925e+002
      endloop
   endfacet
   facet normal -4.488580e-001 8.936031e-001 -8.223396e-017
      outer loop
         vertex 7.995413e+002 6.563918e+002 6.321425e+002
         vertex 8.005444e+002 6.568596e+002 6.384925e+002
         vertex 8.005444e+002 6.568596e+002 6.321425e+002
      endloop
   endfacet
   facet normal -5.494540e-001 8.355240e-001 -1.093056e-016
      outer loop
         vertex 8.005444e+002 6.568596e+002 6.321425e+002
         vertex 8.005444e+002 6.568596e+002 6.384925e+002
         vertex 8.014512e+002 6.574945e+002 6.384925e+002
      endloop
   endfacet
   facet normal -5.972114e-001 8.020839e-001 -1.223540e-016
      outer loop
         vertex 8.005444e+002 6.568596e+002 6.321425e+002
         vertex 8.014512e+002 6.574945e+002 6.384925e+002
         vertex 8.014512e+002 6.574945e+002 6.321425e+002
      endloop
   endfacet
   facet normal -6.861938e-001 7.274188e-001 -1.470793e-016
      outer loop
         vertex 8.014512e+002 6.574945e+002 6.321425e+002
         vertex 8.014512e+002 6.574945e+002 6.384925e+002
         vertex 8.022339e+002 6.582772e+002 6.384925e+002
      endloop
   endfacet
   facet normal -7.274188e-001 6.861938e-001 -1.587563e-016
      outer loop
         vertex 8.014512e+002 6.574945e+002 6.321425e+002
         vertex 8.022339e+002 6.582772e+002 6.384925e+002
         vertex 8.022339e+002 6.582772e+002 6.321425e+002
      endloop
   endfacet
   facet normal -8.020839e-001 5.972114e-001 -1.803841e-016
      outer loop
         vertex 8.022339e+002 6.582772e+002 6.321425e+002
         vertex 8.022339e+002 6.582772e+002 6.384925e+002
         vertex 8.028687e+002 6.591838e+002 6.384925e+002
      endloop
   endfacet
   facet normal -8.355240e-001 5.494540e-001 -1.903349e-016
      outer loop
         vertex 8.022339e+002 6.582772e+002 6.321425e+002
         vertex 8.028687e+002 6.591838e+002 6.384925e+002
         vertex 8.028687e+002 6.591838e+002 6.321425e+002
      endloop
   endfacet
   facet normal -8.936031e-001 4.488580e-001 -2.082080e-016
      outer loop
         vertex 8.028687e+002 6.591838e+002 6.321425e+002
         vertex 8.028687e+002 6.591838e+002 6.384925e+002
         vertex 8.033365e+002 6.601871e+002 6.384925e+002
      endloop
   endfacet
   facet normal -9.182422e-001 3.960194e-001 -2.161303e-016
      outer loop
         vertex 8.028687e+002 6.591838e+002 6.321425e+002
         vertex 8.033365e+002 6.601871e+002 6.384925e+002
         vertex 8.033365e+002 6.601871e+002 6.321425e+002
      endloop
   endfacet
   facet normal -9.579706e-001 2.868663e-001 -2.297056e-016
      outer loop
         vertex 8.033365e+002 6.601871e+002 6.321425e+002
         vertex 8.033365e+002 6.601871e+002 6.384925e+002
         vertex 8.036230e+002 6.612562e+002 6.384925e+002
      endloop
   endfacet
   facet normal -9.730600e-001 2.305519e-001 -2.353587e-016
      outer loop
         vertex 8.033365e+002 6.601871e+002 6.321425e+002
         vertex 8.036230e+002 6.612562e+002 6.384925e+002
         vertex 8.036230e+002 6.612562e+002 6.321425e+002
      endloop
   endfacet
   facet normal -9.932307e-001 1.161583e-001 -2.442237e-016
      outer loop
         vertex 8.036230e+002 6.612562e+002 6.321425e+002
         vertex 8.036230e+002 6.612562e+002 6.384925e+002
         vertex 8.037195e+002 6.623589e+002 6.384925e+002
      endloop
   endfacet
   facet normal -9.983120e-001 5.807914e-002 -2.474358e-016
      outer loop
         vertex 8.036230e+002 6.612562e+002 6.321425e+002
         vertex 8.037195e+002 6.623589e+002 6.384925e+002
         vertex 8.037195e+002 6.623589e+002 6.321425e+002
      endloop
   endfacet
   facet normal -9.983120e-001 -5.807914e-002 -2.513212e-016
      outer loop
         vertex 8.037195e+002 6.623589e+002 6.321425e+002
         vertex 8.037195e+002 6.623589e+002 6.384925e+002
         vertex 8.036230e+002 6.634615e+002 6.384925e+002
      endloop
   endfacet
   facet normal -9.932307e-001 -1.161583e-001 -2.519947e-016
      outer loop
         vertex 8.037195e+002 6.623589e+002 6.321425e+002
         vertex 8.036230e+002 6.634615e+002 6.384925e+002
         vertex 8.036230e+002 6.634615e+002 6.321425e+002
      endloop
   endfacet
   facet normal -9.730600e-001 -2.305519e-001 -2.507825e-016
      outer loop
         vertex 8.036230e+002 6.634615e+002 6.321425e+002
         vertex 8.036230e+002 6.634615e+002 6.384925e+002
         vertex 8.033365e+002 6.645307e+002 6.384925e+002
      endloop
   endfacet
   facet normal -9.579706e-001 -2.868663e-001 -2.488969e-016
      outer loop
         vertex 8.036230e+002 6.634615e+002 6.321425e+002
         vertex 8.033365e+002 6.645307e+002 6.384925e+002
         vertex 8.033365e+002 6.645307e+002 6.321425e+002
      endloop
   endfacet
   facet normal -9.182422e-001 -3.960194e-001 -2.426238e-016
      outer loop
         vertex 8.033365e+002 6.645307e+002 6.321425e+002
         vertex 8.033365e+002 6.645307e+002 6.384925e+002
         vertex 8.028687e+002 6.655339e+002 6.384925e+002
      endloop
   endfacet
   facet normal -8.936031e-001 -4.488580e-001 -2.382364e-016
      outer loop
         vertex 8.033365e+002 6.645307e+002 6.321425e+002
         vertex 8.028687e+002 6.655339e+002 6.384925e+002
         vertex 8.028687e+002 6.655339e+002 6.321425e+002
      endloop
   endfacet
   facet normal -8.355240e-001 -5.494540e-001 -2.270932e-016
      outer loop
         vertex 8.028687e+002 6.655339e+002 6.321425e+002
         vertex 8.028687e+002 6.655339e+002 6.384925e+002
         vertex 8.022339e+002 6.664406e+002 6.384925e+002
      endloop
   endfacet
   facet normal -8.020839e-001 -5.972114e-001 -2.203373e-016
      outer loop
         vertex 8.028687e+002 6.655339e+002 6.321425e+002
         vertex 8.022339e+002 6.664406e+002 6.384925e+002
         vertex 8.022339e+002 6.664406e+002 6.321425e+002
      endloop
   endfacet
   facet normal -7.274188e-001 -6.861938e-001 -2.046624e-016
      outer loop
         vertex 8.022339e+002 6.664406e+002 6.321425e+002
         vertex 8.022339e+002 6.664406e+002 6.384925e+002
         vertex 8.014512e+002 6.672233e+002 6.384925e+002
      endloop
   endfacet
   facet normal -6.861938e-001 -7.274188e-001 -1.957433e-016
      outer loop
         vertex 8.022339e+002 6.664406e+002 6.321425e+002
         vertex 8.014512e+002 6.672233e+002 6.384925e+002
         vertex 8.014512e+002 6.672233e+002 6.321425e+002
      endloop
   endfacet
   facet normal -5.972114e-001 -8.020839e-001 -1.760131e-016
      outer loop
         vertex 8.014512e+002 6.672233e+002 6.321425e+002
         vertex 8.014512e+002 6.672233e+002 6.384925e+002
         vertex 8.005444e+002 6.678582e+002 6.384925e+002
      endloop
   endfacet
   facet normal -5.494540e-001 -8.355240e-001 -1.652018e-016
      outer loop
         vertex 8.014512e+002 6.672233e+002 6.321425e+002
         vertex 8.005444e+002 6.678582e+002 6.384925e+002
         vertex 8.005444e+002 6.678582e+002 6.321425e+002
      endloop
   endfacet
   facet normal -4.488580e-001 -8.936031e-001 -1.420157e-016
      outer loop
         vertex 8.005444e+002 6.678582e+002 6.321425e+002
         vertex 8.005444e+002 6.678582e+002 6.384925e+002
         vertex 7.995413e+002 6.683259e+002 6.384925e+002
      endloop
   endfacet
   facet normal -3.960194e-001 -9.182422e-001 -1.296407e-016
      outer loop
         vertex 8.005444e+002 6.678582e+002 6.321425e+002
         vertex 7.995413e+002 6.683259e+002 6.384925e+002
         vertex 7.995413e+002 6.683259e+002 6.321425e+002
      endloop
   endfacet
   facet normal -2.868663e-001 -9.579706e-001 -1.037032e-016
      outer loop
         vertex 7.995413e+002 6.683259e+002 6.321425e+002
         vertex 7.995413e+002 6.683259e+002 6.384925e+002
         vertex 7.984721e+002 6.686124e+002 6.384925e+002
      endloop
   endfacet
   facet normal -2.305519e-001 -9.730600e-001 -9.014057e-017
      outer loop
         vertex 7.995413e+002 6.683259e+002 6.321425e+002
         vertex 7.984721e+002 6.686124e+002 6.384925e+002
         vertex 7.984721e+002 6.686124e+002 6.321425e+002
      endloop
   endfacet
   facet normal -1.161583e-001 -9.932307e-001 -6.223974e-017
      outer loop
         vertex 7.984721e+002 6.686124e+002 6.321425e+002
         vertex 7.984721e+002 6.686124e+002 6.384925e+002
         vertex 7.973695e+002 6.687089e+002 6.384925e+002
      endloop
   endfacet
   facet normal -5.807914e-002 -9.983120e-001 -4.790152e-017
      outer loop
         vertex 7.984721e+002 6.305124e+002 6.321425e+002
         vertex 7.973695e+002 6.306089e+002 6.384925e+002
         vertex 7.973695e+002 6.306089e+002 6.321425e+002
      endloop
   endfacet
   facet normal 5.807914e-002 -9.983120e-001 -1.888517e-017
      outer loop
         vertex 7.973695e+002 6.306089e+002 6.321425e+002
         vertex 7.973695e+002 6.306089e+002 6.384925e+002
         vertex 7.962668e+002 6.305124e+002 6.384925e+002
      endloop
   endfacet
   facet normal 1.161583e-001 -9.932307e-001 -4.207019e-018
      outer loop
         vertex 7.973695e+002 6.306089e+002 6.321425e+002
         vertex 7.962668e+002 6.305124e+002 6.384925e+002
         vertex 7.962668e+002 6.305124e+002 6.321425e+002
      endloop
   endfacet
   facet normal 2.305519e-001 -9.730600e-001 2.504322e-017
      outer loop
         vertex 7.962668e+002 6.305124e+002 6.321425e+002
         vertex 7.962668e+002 6.305124e+002 6.384925e+002
         vertex 7.951977e+002 6.302259e+002 6.384925e+002
      endloop
   endfacet
   facet normal 2.868663e-001 -9.579706e-001 3.961531e-017
      outer loop
         vertex 7.962668e+002 6.305124e+002 6.321425e+002
         vertex 7.951977e+002 6.302259e+002 6.384925e+002
         vertex 7.951977e+002 6.302259e+002 6.321425e+002
      endloop
   endfacet
   facet normal 3.960194e-001 -9.182422e-001 6.821068e-017
      outer loop
         vertex 7.951977e+002 6.302259e+002 6.321425e+002
         vertex 7.951977e+002 6.302259e+002 6.384925e+002
         vertex 7.941945e+002 6.297581e+002 6.384925e+002
      endloop
   endfacet
   facet normal 4.488580e-001 -8.936031e-001 8.223396e-017
      outer loop
         vertex 7.951977e+002 6.302259e+002 6.321425e+002
         vertex 7.941945e+002 6.297581e+002 6.384925e+002
         vertex 7.941945e+002 6.297581e+002 6.321425e+002
      endloop
   endfacet
   facet normal 5.494540e-001 -8.355240e-001 1.093056e-016
      outer loop
         vertex 7.941945e+002 6.297581e+002 6.321425e+002
         vertex 7.941945e+002 6.297581e+002 6.384925e+002
         vertex 7.932878e+002 6.291233e+002 6.384925e+002
      endloop
   endfacet
   facet normal 5.972114e-001 -8.020839e-001 1.223540e-016
      outer loop
         vertex 7.941945e+002 6.297581e+002 6.321425e+002
         vertex 7.932878e+002 6.291233e+002 6.384925e+002
         vertex 7.932878e+002 6.291233e+002 6.321425e+002
      endloop
   endfacet
   facet normal 6.861938e-001 -7.274188e-001 1.470793e-016
      outer loop
         vertex 7.932878e+002 6.291233e+002 6.321425e+002
         vertex 7.932878e+002 6.291233e+002 6.384925e+002
         vertex 7.925051e+002 6.283406e+002 6.384925e+002
      endloop
   endfacet
   facet normal 7.274188e-001 -6.861938e-001 1.587563e-016
      outer loop
         vertex 7.932878e+002 6.291233e+002 6.321425e+002
         vertex 7.925051e+002 6.283406e+002 6.384925e+002
         vertex 7.925051e+002 6.283406e+002 6.321425e+002
      endloop
   endfacet
   facet normal 8.020839e-001 -5.972114e-001 1.803841e-016
      outer loop
         vertex 7.925051e+002 6.283406e+002 6.321425e+002
         vertex 7.925051e+002 6.283406e+002 6.384925e+002
         vertex 7.918702e+002 6.274339e+002 6.384925e+002
      endloop
   endfacet
   facet normal 8.355240e-001 -5.494540e-001 1.903349e-016
      outer loop
         vertex 7.925051e+002 6.283406e+002 6.321425e+002
         vertex 7.918702e+002 6.274339e+002 6.384925e+002
         vertex 7.918702e+002 6.274339e+002 6.321425e+002
      endloop
   endfacet
   facet normal 8.936031e-001 -4.488580e-001 2.082080e-016
      outer loop
         vertex 7.918702e+002 6.274339e+002 6.321425e+002
         vertex 7.918702e+002 6.274339e+002 6.384925e+002
         vertex 7.914024e+002 6.264307e+002 6.384925e+002
      endloop
   endfacet
   facet normal 9.182422e-001 -3.960194e-001 2.161303e-016
      outer loop
         vertex 7.918702e+002 6.274339e+002 6.321425e+002
         vertex 7.914024e+002 6.264307e+002 6.384925e+002
         vertex 7.914024e+002 6.264307e+002 6.321425e+002
      endloop
   endfacet
   facet normal 9.579706e-001 -2.868663e-001 2.297056e-016
      outer loop
         vertex 7.914024e+002 6.264307e+002 6.321425e+002
         vertex 7.914024e+002 6.264307e+002 6.384925e+002
         vertex 7.911160e+002 6.253616e+002 6.384925e+002
      endloop
   endfacet
   facet normal 9.730600e-001 -2.305519e-001 2.353587e-016
      outer loop
         vertex 7.914024e+002 6.264307e+002 6.321425e+002
         vertex 7.911160e+002 6.253616e+002 6.384925e+002
         vertex 7.911160e+002 6.253616e+002 6.321425e+002
      endloop
   endfacet
   facet normal 9.932307e-001 -1.161583e-001 2.442237e-016
      outer loop
         vertex 7.911160e+002 6.253616e+002 6.321425e+002
         vertex 7.911160e+002 6.253616e+002 6.384925e+002
         vertex 7.910194e+002 6.242589e+002 6.384925e+002
      endloop
   endfacet
   facet normal 9.983120e-001 -5.807914e-002 2.474358e-016
      outer loop
         vertex 7.911160e+002 6.253616e+002 6.321425e+002
         vertex 7.910194e+002 6.242589e+002 6.384925e+002
         vertex 7.910194e+002 6.242589e+002 6.321425e+002
      endloop
   endfacet
   facet normal 9.983120e-001 5.807914e-002 2.513212e-016
      outer loop
         vertex 7.910194e+002 6.242589e+002 6.321425e+002
         vertex 7.910194e+002 6.242589e+002 6.384925e+002
         vertex 7.911160e+002 6.231562e+002 6.384925e+002
      endloop
   endfacet
   facet normal 9.932307e-001 1.161583e-001 2.519947e-016
      outer loop
         vertex 7.910194e+002 6.242589e+002 6.321425e+002
         vertex 7.911160e+002 6.231562e+002 6.384925e+002
         vertex 7.911160e+002 6.231562e+002 6.321425e+002
      endloop
   endfacet
   facet normal 9.730600e-001 2.305519e-001 2.507825e-016
      outer loop
         vertex 7.911160e+002 6.231562e+002 6.321425e+002
         vertex 7.911160e+002 6.231562e+002 6.384925e+002
         vertex 7.914024e+002 6.220870e+002 6.384925e+002
      endloop
   endfacet
   facet normal 9.579706e-001 2.868663e-001 2.488969e-016
      outer loop
         vertex 7.911160e+002 6.231562e+002 6.321425e+002
         vertex 7.914024e+002 6.220870e+002 6.384925e+002
         vertex 7.914024e+002 6.220870e+002 6.321425e+002
      endloop
   endfacet
   facet normal 9.182422e-001 3.960194e-001 2.426238e-016
      outer loop
         vertex 7.914024e+002 6.220870e+002 6.321425e+002
         vertex 7.914024e+002 6.220870e+002 6.384925e+002
         vertex 7.918702e+002 6.210839e+002 6.384925e+002
      endloop
   endfacet
   facet normal 8.936031e-001 4.488580e-001 2.382364e-016
      outer loop
         vertex 7.914024e+002 6.220870e+002 6.321425e+002
         vertex 7.918702e+002 6.210839e+002 6.384925e+002
         vertex 7.918702e+002 6.210839e+002 6.321425e+002
      endloop
   endfacet
   facet normal 8.355240e-001 5.494540e-001 2.270932e-016
      outer loop
         vertex 7.918702e+002 6.210839e+002 6.321425e+002
         vertex 7.918702e+002 6.210839e+002 6.384925e+002
         vertex 7.925051e+002 6.201771e+002 6.384925e+002
      endloop
   endfacet
   facet normal 8.020839e-001 5.972114e-001 2.203373e-016
      outer loop
         vertex 7.918702e+002 6.210839e+002 6.321425e+002
         vertex 7.925051e+002 6.201771e+002 6.384925e+002
         vertex 7.925051e+002 6.201771e+002 6.321425e+002
      endloop
   endfacet
   facet normal 7.274188e-001 6.861938e-001 2.046624e-016
      outer loop
         vertex 7.925051e+002 6.201771e+002 6.321425e+002
         vertex 7.925051e+002 6.201771e+002 6.384925e+002
         vertex 7.932878e+002 6.193945e+002 6.384925e+002
      endloop
   endfacet
   facet normal 6.861938e-001 7.274188e-001 1.957433e-016
      outer loop
         vertex 7.925051e+002 6.201771e+002 6.321425e+002
         vertex 7.932878e+002 6.193945e+002 6.384925e+002
         vertex 7.932878e+002 6.193945e+002 6.321425e+002
      endloop
   endfacet
   facet normal 5.972114e-001 8.020839e-001 1.760131e-016
      outer loop
         vertex 7.932878e+002 6.193945e+002 6.321425e+002
         vertex 7.932878e+002 6.193945e+002 6.384925e+002
         vertex 7.941945e+002 6.187596e+002 6.384925e+002
      endloop
   endfacet
   facet normal 5.494540e-001 8.355240e-001 1.652018e-016
      outer loop
         vertex 7.932878e+002 6.193945e+002 6.321425e+002
         vertex 7.941945e+002 6.187596e+002 6.384925e+002
         vertex 7.941945e+002 6.187596e+002 6.321425e+002
      endloop
   endfacet
   facet normal 4.488580e-001 8.936031e-001 1.420157e-016
      outer loop
         vertex 7.941945e+002 6.187596e+002 6.321425e+002
         vertex 7.941945e+002 6.187596e+002 6.384925e+002
         vertex 7.951977e+002 6.182918e+002 6.384925e+002
      endloop
   endfacet
   facet normal 3.960194e-001 9.182422e-001 1.296407e-016
      outer loop
         vertex 7.941945e+002 6.187596e+002 6.321425e+002
         vertex 7.951977e+002 6.182918e+002 6.384925e+002
         vertex 7.951977e+002 6.182918e+002 6.321425e+002
      endloop
   endfacet
   facet normal 2.868663e-001 9.579706e-001 1.037032e-016
      outer loop
         vertex 7.951977e+002 6.182918e+002 6.321425e+002
         vertex 7.951977e+002 6.182918e+002 6.384925e+002
         vertex 7.962668e+002 6.180053e+002 6.384925e+002
      endloop
   endfacet
   facet normal 2.305519e-001 9.730600e-001 9.014057e-017
      outer loop
         vertex 7.951977e+002 6.182918e+002 6.321425e+002
         vertex 7.962668e+002 6.180053e+002 6.384925e+002
         vertex 7.962668e+002 6.180053e+002 6.321425e+002
      endloop
   endfacet
   facet normal 1.161583e-001 9.932307e-001 6.223974e-017
      outer loop
         vertex 7.962668e+002 6.180053e+002 6.321425e+002
         vertex 7.962668e+002 6.180053e+002 6.384925e+002
         vertex 7.973695e+002 6.179089e+002 6.384925e+002
      endloop
   endfacet
   facet normal 5.807914e-002 9.983120e-001 4.790152e-017
      outer loop
         vertex 7.962668e+002 6.180053e+002 6.321425e+002
         vertex 7.973695e+002 6.179089e+002 6.384925e+002
         vertex 7.973695e+002 6.179089e+002 6.321425e+002
      endloop
   endfacet
   facet normal -5.807914e-002 9.983120e-001 1.888517e-017
      outer loop
         vertex 7.973695e+002 6.179089e+002 6.321425e+002
         vertex 7.973695e+002 6.179089e+002 6.384925e+002
         vertex 7.984721e+002 6.180053e+002 6.384925e+002
      endloop
   endfacet
   facet normal -1.161583e-001 9.932307e-001 4.207019e-018
      outer loop
         vertex 7.973695e+002 6.179089e+002 6.321425e+002
         vertex 7.984721e+002 6.180053e+002 6.384925e+002
         vertex 7.984721e+002 6.180053e+002 6.321425e+002
      endloop
   endfacet
   facet normal -2.305519e-001 9.730600e-001 -2.504322e-017
      outer loop
         vertex 7.984721e+002 6.180053e+002 6.321425e+002
         vertex 7.984721e+002 6.180053e+002 6.384925e+002
         vertex 7.995413e+002 6.182918e+002 6.384925e+002
      endloop
   endfacet
   facet normal -2.868663e-001 9.579706e-001 -3.961531e-017
      outer loop
         vertex 7.984721e+002 6.180053e+002 6.321425e+002
         vertex 7.995413e+002 6.182918e+002 6.384925e+002
         vertex 7.995413e+002 6.182918e+002 6.321425e+002
      endloop
   endfacet
   facet normal -3.960194e-001 9.182422e-001 -6.821068e-017
      outer loop
         vertex 7.995413e+002 6.182918e+002 6.321425e+002
         vertex 7.995413e+002 6.182918e+002 6.384925e+002
         vertex 8.005444e+002 6.187596e+002 6.384925e+002
      endloop
   endfacet
   facet normal -4.488580e-001 8.936031e-001 -8.223396e-017
      outer loop
         vertex 7.995413e+002 6.182918e+002 6.321425e+002
         vertex 8.005444e+002 6.187596e+002 6.384925e+002
         vertex 8.005444e+002 6.187596e+002 6.321425e+002
      endloop
   endfacet
   facet normal -5.494540e-001 8.355240e-001 -1.093056e-016
      outer loop
         vertex 8.005444e+002 6.187596e+002 6.321425e+002
         vertex 8.005444e+002 6.187596e+002 6.384925e+002
         vertex 8.014512e+002 6.193945e+002 6.384925e+002
      endloop
   endfacet
   facet normal -5.972114e-001 8.020839e-001 -1.223540e-016
      outer loop
         vertex 8.005444e+002 6.187596e+002 6.321425e+002
         vertex 8.014512e+002 6.193945e+002 6.384925e+002
         vertex 8.014512e+002 6.193945e+002 6.321425e+002
      endloop
   endfacet
   facet normal -6.861938e-001 7.274188e-001 -1.470793e-016
      outer loop
         vertex 8.014512e+002 6.193945e+002 6.321425e+002
         vertex 8.014512e+002 6.193945e+002 6.384925e+002
         vertex 8.022339e+002 6.201771e+002 6.384925e+002
      endloop
   endfacet
   facet normal -7.274188e-001 6.861938e-001 -1.587563e-016
      outer loop
         vertex 8.014512e+002 6.193945e+002 6.321425e+002
         vertex 8.022339e+002 6.201771e+002 6.384925e+002
         vertex 8.022339e+002 6.201771e+002 6.321425e+002
      endloop
   endfacet
   facet normal -8.020839e-001 5.972114e-001 -1.803841e-016
      outer loop
         vertex 8.022339e+002 6.201771e+002 6.321425e+002
         vertex 8.022339e+002 6.201771e+002 6.384925e+002
         vertex 8.028687e+002 6.210839e+002 6.384925e+002
      endloop
   endfacet
   facet normal -8.355240e-001 5.494540e-001 -1.903349e-016
      outer loop
         vertex 8.022339e+002 6.201771e+002 6.321425e+002
         vertex 8.028687e+002 6.210839e+002 6.384925e+002
         vertex 8.028687e+002 6.210839e+002 6.321425e+002
      endloop
   endfacet
   facet normal -8.936031e-001 4.488580e-001 -2.082080e-016
      outer loop
         vertex 8.028687e+002 6.210839e+002 6.321425e+002
         vertex 8.028687e+002 6.210839e+002 6.384925e+002
         vertex 8.033365e+002 6.220870e+002 6.384925e+002
      endloop
   endfacet
   facet normal -9.182422e-001 3.960194e-001 -2.161303e-016
      outer loop
         vertex 8.028687e+002 6.210839e+002 6.321425e+002
         vertex 8.033365e+002 6.220870e+002 6.384925e+002
         vertex 8.033365e+002 6.220870e+002 6.321425e+002
      endloop
   endfacet
   facet normal -9.579706e-001 2.868663e-001 -2.297056e-016
      outer loop
         vertex 8.033365e+002 6.220870e+002 6.321425e+002
         vertex 8.033365e+002 6.220870e+002 6.384925e+002
         vertex 8.036230e+002 6.231562e+002 6.384925e+002
      endloop
   endfacet
   facet normal -9.730600e-001 2.305519e-001 -2.353587e-016
      outer loop
         vertex 8.033365e+002 6.220870e+002 6.321425e+002
         vertex 8.036230e+002 6.231562e+002 6.384925e+002
         vertex 8.036230e+002 6.231562e+002 6.321425e+002
      endloop
   endfacet
   facet normal -9.932307e-001 1.161583e-001 -2.442237e-016
      outer loop
         vertex 8.036230e+002 6.231562e+002 6.321425e+002
         vertex 8.036230e+002 6.231562e+002 6.384925e+002
         vertex 8.037195e+002 6.242589e+002 6.384925e+002
      endloop
   endfacet
   facet normal -9.983120e-001 5.807914e-002 -2.474358e-016
      outer loop
         vertex 8.036230e+002 6.231562e+002 6.321425e+002
         vertex 8.037195e+002 6.242589e+002 6.384925e+002
         vertex 8.037195e+002 6.242589e+002 6.321425e+002
      endloop
   endfacet
   facet normal -9.983120e-001 -5.807914e-002 -2.513212e-016
      outer loop
         vertex 8.037195e+002 6.242589e+002 6.321425e+002
         vertex 8.037195e+002 6.242589e+002 6.384925e+002
         vertex 8.036230e+002 6.253616e+002 6.384925e+002
      endloop
   endfacet
   facet normal -9.932307e-001 -1.161583e-001 -2.519947e-016
      outer loop
         vertex 8.037195e+002 6.242589e+002 6.321425e+002
         vertex 8.036230e+002 6.253616e+002 6.384925e+002
         vertex 8.036230e+002 6.253616e+002 6.321425e+002
      endloop
   endfacet
   facet normal -9.730600e-001 -2.305519e-001 -2.507825e-016
      outer loop
         vertex 8.036230e+002 6.253616e+002 6.321425e+002
         vertex 8.036230e+002 6.253616e+002 6.384925e+002
         vertex 8.033365e+002 6.264307e+002 6.384925e+002
      endloop
   endfacet
   facet normal -9.579706e-001 -2.868663e-001 -2.488969e-016
      outer loop
         vertex 8.036230e+002 6.253616e+002 6.321425e+002
         vertex 8.033365e+002 6.264307e+002 6.384925e+002
         vertex 8.033365e+002 6.264307e+002 6.321425e+002
      endloop
   endfacet
   facet normal -9.182422e-001 -3.960194e-001 -2.426238e-016
      outer loop
         vertex 8.033365e+002 6.264307e+002 6.321425e+002
         vertex 8.033365e+002 6.264307e+002 6.384925e+002
         vertex 8.028687e+002 6.274339e+002 6.384925e+002
      endloop
   endfacet
   facet normal -8.936031e-001 -4.488580e-001 -2.382364e-016
      outer loop
         vertex 8.033365e+002 6.264307e+002 6.321425e+002
         vertex 8.028687e+002 6.274339e+002 6.384925e+002
         vertex 8.028687e+002 6.274339e+002 6.321425e+002
      endloop
   endfacet
   facet normal -8.355240e-001 -5.494540e-001 -2.270932e-016
      outer loop
         vertex 8.028687e+002 6.274339e+002 6.321425e+002
         vertex 8.028687e+002 6.274339e+002 6.384925e+002
         vertex 8.022339e+002 6.283406e+002 6.384925e+002
      endloop
   endfacet
   facet normal -8.020839e-001 -5.972114e-001 -2.203373e-016
      outer loop
         vertex 8.028687e+002 6.274339e+002 6.321425e+002
         vertex 8.022339e+002 6.283406e+002 6.384925e+002
         vertex 8.022339e+002 6.283406e+002 6.321425e+002
      endloop
   endfacet
   facet normal -7.274188e-001 -6.861938e-001 -2.046624e-016
      outer loop
         vertex 8.022339e+002 6.283406e+002 6.321425e+002
         vertex 8.022339e+002 6.283406e+002 6.384925e+002
         vertex 8.014512e+002 6.291233e+002 6.384925e+002
      endloop
   endfacet
   facet normal -6.861938e-001 -7.274188e-001 -1.957433e-016
      outer loop
         vertex 8.022339e+002 6.283406e+002 6.321425e+002
         vertex 8.014512e+002 6.291233e+002 6.384925e+002
         vertex 8.014512e+002 6.291233e+002 6.321425e+002
      endloop
   endfacet
   facet normal -5.972114e-001 -8.020839e-001 -1.760131e-016
      outer loop
         vertex 8.014512e+002 6.291233e+002 6.321425e+002
         vertex 8.014512e+002 6.291233e+002 6.384925e+002
         vertex 8.005444e+002 6.297581e+002 6.384925e+002
      endloop
   endfacet
   facet normal -5.494540e-001 -8.355240e-001 -1.652018e-016
      outer loop
         vertex 8.014512e+002 6.291233e+002 6.321425e+002
         vertex 8.005444e+002 6.297581e+002 6.384925e+002
         vertex 8.005444e+002 6.297581e+002 6.321425e+002
      endloop
   endfacet
   facet normal -4.488580e-001 -8.936031e-001 -1.420157e-016
      outer loop
         vertex 8.005444e+002 6.297581e+002 6.321425e+002
         vertex 8.005444e+002 6.297581e+002 6.384925e+002
         vertex 7.995413e+002 6.302259e+002 6.384925e+002
      endloop
   endfacet
   facet normal -3.960194e-001 -9.182422e-001 -1.296407e-016
      outer loop
         vertex 8.005444e+002 6.297581e+002 6.321425e+002
         vertex 7.995413e+002 6.302259e+002 6.384925e+002
         vertex 7.995413e+002 6.302259e+002 6.321425e+002
      endloop
   endfacet
   facet normal -2.868663e-001 -9.579706e-001 -1.037032e-016
      outer loop
         vertex 7.995413e+002 6.302259e+002 6.321425e+002
         vertex 7.995413e+002 6.302259e+002 6.384925e+002
         vertex 7.984721e+002 6.305124e+002 6.384925e+002
      endloop
   endfacet
   facet normal -2.305519e-001 -9.730600e-001 -9.014057e-017
      outer loop
         vertex 7.995413e+002 6.302259e+002 6.321425e+002
         vertex 7.984721e+002 6.305124e+002 6.384925e+002
         vertex 7.984721e+002 6.305124e+002 6.321425e+002
      endloop
   endfacet
   facet normal -1.161583e-001 -9.932307e-001 -6.223974e-017
      outer loop
         vertex 7.984721e+002 6.305124e+002 6.321425e+002
         vertex 7.984721e+002 6.305124e+002 6.384925e+002
         vertex 7.973695e+002 6.306089e+002 6.384925e+002
      endloop
   endfacet
endsolid