solid FPM - 300-TableCage-1 308-AngleBracketMirror-2
   facet normal -2.220446e-016 1.883957e-017 1.000000e+000
      outer loop
         vertex 5.782945e+002 6.568596e+002 7.334250e+001
         vertex 5.772913e+002 6.563918e+002 7.334250e+001
         vertex 5.751195e+002 6.306089e+002 7.334250e+001
      endloop
   endfacet
   facet normal -2.220446e-016 1.883957e-017 1.000000e+000
      outer loop
         vertex 5.762222e+002 6.686124e+002 7.334250e+001
         vertex 5.772913e+002 6.683259e+002 7.334250e+001
         vertex 5.909945e+002 7.683500e+002 7.334250e+001
      endloop
   endfacet
   facet normal -2.220446e-016 1.883957e-017 1.000000e+000
      outer loop
         vertex 5.909945e+002 7.683500e+002 7.334250e+001
         vertex 5.772913e+002 6.683259e+002 7.334250e+001
         vertex 5.782945e+002 6.678582e+002 7.334250e+001
      endloop
   endfacet
   facet normal -2.220446e-016 1.883957e-017 1.000000e+000
      outer loop
         vertex 5.782945e+002 6.678582e+002 7.334250e+001
         vertex 5.792012e+002 6.672233e+002 7.334250e+001
         vertex 5.909945e+002 7.683500e+002 7.334250e+001
      endloop
   endfacet
   facet normal -2.220446e-016 1.883957e-017 1.000000e+000
      outer loop
         vertex 5.909945e+002 7.683500e+002 7.334250e+001
         vertex 5.792012e+002 6.672233e+002 7.334250e+001
         vertex 5.799839e+002 6.664406e+002 7.334250e+001
      endloop
   endfacet
   facet normal -2.220446e-016 1.883957e-017 1.000000e+000
      outer loop
         vertex 5.909945e+002 7.683500e+002 7.334250e+001
         vertex 5.799839e+002 6.664406e+002 7.334250e+001
         vertex 5.806187e+002 6.655339e+002 7.334250e+001
      endloop
   endfacet
   facet normal -2.220446e-016 1.883957e-017 1.000000e+000
      outer loop
         vertex 5.806187e+002 6.655339e+002 7.334250e+001
         vertex 5.810865e+002 6.645307e+002 7.334250e+001
         vertex 5.909945e+002 7.683500e+002 7.334250e+001
      endloop
   endfacet
   facet normal -2.220446e-016 1.883957e-017 1.000000e+000
      outer loop
         vertex 5.909945e+002 7.683500e+002 7.334250e+001
         vertex 5.810865e+002 6.645307e+002 7.334250e+001
         vertex 5.813730e+002 6.634615e+002 7.334250e+001
      endloop
   endfacet
   facet normal -2.220446e-016 1.883957e-017 1.000000e+000
      outer loop
         vertex 5.909945e+002 7.683500e+002 7.334250e+001
         vertex 5.813730e+002 6.634615e+002 7.334250e+001
         vertex 5.814695e+002 6.623589e+002 7.334250e+001
      endloop
   endfacet
   facet normal -2.220446e-016 1.883957e-017 1.000000e+000
      outer loop
         vertex 5.528945e+002 7.683500e+002 7.334250e+001
         vertex 5.740168e+002 6.686124e+002 7.334250e+001
         vertex 5.909945e+002 7.683500e+002 7.334250e+001
      endloop
   endfacet
   facet normal -2.220446e-016 1.883957e-017 1.000000e+000
      outer loop
         vertex 5.909945e+002 7.683500e+002 7.334250e+001
         vertex 5.740168e+002 6.686124e+002 7.334250e+001
         vertex 5.751195e+002 6.687089e+002 7.334250e+001
      endloop
   endfacet
   facet normal -2.220446e-016 1.883957e-017 1.000000e+000
      outer loop
         vertex 5.909945e+002 7.683500e+002 7.334250e+001
         vertex 5.751195e+002 6.687089e+002 7.334250e+001
         vertex 5.762222e+002 6.686124e+002 7.334250e+001
      endloop
   endfacet
   facet normal -2.220446e-016 1.883957e-017 1.000000e+000
      outer loop
         vertex 5.691525e+002 6.645307e+002 7.334250e+001
         vertex 5.528945e+002 7.683500e+002 7.334250e+001
         vertex 5.688660e+002 6.634615e+002 7.334250e+001
      endloop
   endfacet
   facet normal -2.220446e-016 1.883957e-017 1.000000e+000
      outer loop
         vertex 5.688660e+002 6.634615e+002 7.334250e+001
         vertex 5.528945e+002 7.683500e+002 7.334250e+001
         vertex 5.687695e+002 6.623589e+002 7.334250e+001
      endloop
   endfacet
   facet normal -2.220446e-016 1.883957e-017 1.000000e+000
      outer loop
         vertex 5.691525e+002 6.645307e+002 7.334250e+001
         vertex 5.696202e+002 6.655339e+002 7.334250e+001
         vertex 5.528945e+002 7.683500e+002 7.334250e+001
      endloop
   endfacet
   facet normal -2.220446e-016 1.883957e-017 1.000000e+000
      outer loop
         vertex 5.528945e+002 7.683500e+002 7.334250e+001
         vertex 5.696202e+002 6.655339e+002 7.334250e+001
         vertex 5.702551e+002 6.664406e+002 7.334250e+001
      endloop
   endfacet
   facet normal -2.220446e-016 1.883957e-017 1.000000e+000
      outer loop
         vertex 5.528945e+002 7.683500e+002 7.334250e+001
         vertex 5.702551e+002 6.664406e+002 7.334250e+001
         vertex 5.710378e+002 6.672233e+002 7.334250e+001
      endloop
   endfacet
   facet normal -2.220446e-016 1.883957e-017 1.000000e+000
      outer loop
         vertex 5.710378e+002 6.672233e+002 7.334250e+001
         vertex 5.719445e+002 6.678582e+002 7.334250e+001
         vertex 5.528945e+002 7.683500e+002 7.334250e+001
      endloop
   endfacet
   facet normal -2.220446e-016 1.883957e-017 1.000000e+000
      outer loop
         vertex 5.528945e+002 7.683500e+002 7.334250e+001
         vertex 5.719445e+002 6.678582e+002 7.334250e+001
         vertex 5.729477e+002 6.683259e+002 7.334250e+001
      endloop
   endfacet
   facet normal -2.220446e-016 1.883957e-017 1.000000e+000
      outer loop
         vertex 5.528945e+002 7.683500e+002 7.334250e+001
         vertex 5.729477e+002 6.683259e+002 7.334250e+001
         vertex 5.740168e+002 6.686124e+002 7.334250e+001
      endloop
   endfacet
   facet normal -2.220446e-016 1.883957e-017 1.000000e+000
      outer loop
         vertex 5.813730e+002 6.612562e+002 7.334250e+001
         vertex 5.762222e+002 6.305124e+002 7.334250e+001
         vertex 5.772913e+002 6.302259e+002 7.334250e+001
      endloop
   endfacet
   facet normal -2.220446e-016 1.883957e-017 1.000000e+000
      outer loop
         vertex 5.806187e+002 6.591838e+002 7.334250e+001
         vertex 5.799839e+002 6.582772e+002 7.334250e+001
         vertex 5.751195e+002 6.306089e+002 7.334250e+001
      endloop
   endfacet
   facet normal -2.220446e-016 1.883957e-017 1.000000e+000
      outer loop
         vertex 5.751195e+002 6.306089e+002 7.334250e+001
         vertex 5.799839e+002 6.582772e+002 7.334250e+001
         vertex 5.792012e+002 6.574945e+002 7.334250e+001
      endloop
   endfacet
   facet normal -2.220446e-016 1.883957e-017 1.000000e+000
      outer loop
         vertex 5.751195e+002 6.306089e+002 7.334250e+001
         vertex 5.792012e+002 6.574945e+002 7.334250e+001
         vertex 5.782945e+002 6.568596e+002 7.334250e+001
      endloop
   endfacet
   facet normal -2.220446e-016 1.883957e-017 1.000000e+000
      outer loop
         vertex 5.719445e+002 6.568596e+002 7.334250e+001
         vertex 5.710378e+002 6.574945e+002 7.334250e+001
         vertex 5.688660e+002 6.253616e+002 7.334250e+001
      endloop
   endfacet
   facet normal -2.220446e-016 1.883957e-017 1.000000e+000
      outer loop
         vertex 5.688660e+002 6.253616e+002 7.334250e+001
         vertex 5.710378e+002 6.574945e+002 7.334250e+001
         vertex 5.702551e+002 6.582772e+002 7.334250e+001
      endloop
   endfacet
   facet normal -2.220446e-016 1.883957e-017 1.000000e+000
      outer loop
         vertex 5.772913e+002 6.302259e+002 7.334250e+001
         vertex 5.782945e+002 6.297581e+002 7.334250e+001
         vertex 5.813730e+002 6.612562e+002 7.334250e+001
      endloop
   endfacet
   facet normal -2.220446e-016 1.883957e-017 1.000000e+000
      outer loop
         vertex 5.813730e+002 6.612562e+002 7.334250e+001
         vertex 5.782945e+002 6.297581e+002 7.334250e+001
         vertex 5.792012e+002 6.291233e+002 7.334250e+001
      endloop
   endfacet
   facet normal -2.220446e-016 1.883957e-017 1.000000e+000
      outer loop
         vertex 5.813730e+002 6.612562e+002 7.334250e+001
         vertex 5.792012e+002 6.291233e+002 7.334250e+001
         vertex 5.814695e+002 6.623589e+002 7.334250e+001
      endloop
   endfacet
   facet normal -2.220446e-016 1.883957e-017 1.000000e+000
      outer loop
         vertex 5.806187e+002 6.274339e+002 7.334250e+001
         vertex 5.810865e+002 6.264307e+002 7.334250e+001
         vertex 5.909945e+002 7.683500e+002 7.334250e+001
      endloop
   endfacet
   facet normal -2.220446e-016 1.883957e-017 1.000000e+000
      outer loop
         vertex 5.792012e+002 6.193945e+002 7.334250e+001
         vertex 5.782945e+002 6.187596e+002 7.334250e+001
         vertex 5.909945e+002 3.492500e+002 7.334250e+001
      endloop
   endfacet
   facet normal -2.220446e-016 1.883957e-017 1.000000e+000
      outer loop
         vertex 5.762222e+002 6.305124e+002 7.334250e+001
         vertex 5.813730e+002 6.612562e+002 7.334250e+001
         vertex 5.751195e+002 6.306089e+002 7.334250e+001
      endloop
   endfacet
   facet normal -2.220446e-016 1.883957e-017 1.000000e+000
      outer loop
         vertex 5.751195e+002 6.306089e+002 7.334250e+001
         vertex 5.813730e+002 6.612562e+002 7.334250e+001
         vertex 5.810865e+002 6.601871e+002 7.334250e+001
      endloop
   endfacet
   facet normal -2.220446e-016 1.883957e-017 1.000000e+000
      outer loop
         vertex 5.751195e+002 6.306089e+002 7.334250e+001
         vertex 5.810865e+002 6.601871e+002 7.334250e+001
         vertex 5.806187e+002 6.591838e+002 7.334250e+001
      endloop
   endfacet
   facet normal -2.220446e-016 1.883957e-017 1.000000e+000
      outer loop
         vertex 5.740168e+002 6.305124e+002 7.334250e+001
         vertex 5.729477e+002 6.563918e+002 7.334250e+001
         vertex 5.729477e+002 6.302259e+002 7.334250e+001
      endloop
   endfacet
   facet normal -2.220446e-016 1.883957e-017 1.000000e+000
      outer loop
         vertex 5.729477e+002 6.302259e+002 7.334250e+001
         vertex 5.729477e+002 6.563918e+002 7.334250e+001
         vertex 5.719445e+002 6.297581e+002 7.334250e+001
      endloop
   endfacet
   facet normal -2.220446e-016 1.883957e-017 1.000000e+000
      outer loop
         vertex 5.782945e+002 6.187596e+002 7.334250e+001
         vertex 5.772913e+002 6.182918e+002 7.334250e+001
         vertex 5.909945e+002 3.492500e+002 7.334250e+001
      endloop
   endfacet
   facet normal -2.220446e-016 1.883957e-017 1.000000e+000
      outer loop
         vertex 5.909945e+002 3.492500e+002 7.334250e+001
         vertex 5.772913e+002 6.182918e+002 7.334250e+001
         vertex 5.762222e+002 6.180053e+002 7.334250e+001
      endloop
   endfacet
   facet normal -2.220446e-016 1.883957e-017 1.000000e+000
      outer loop
         vertex 5.909945e+002 3.492500e+002 7.334250e+001
         vertex 5.762222e+002 6.180053e+002 7.334250e+001
         vertex 5.528945e+002 3.492500e+002 7.334250e+001
      endloop
   endfacet
   facet normal -2.220446e-016 1.883957e-017 1.000000e+000
      outer loop
         vertex 5.702551e+002 6.582772e+002 7.334250e+001
         vertex 5.696202e+002 6.591838e+002 7.334250e+001
         vertex 5.688660e+002 6.253616e+002 7.334250e+001
      endloop
   endfacet
   facet normal -2.220446e-016 1.883957e-017 1.000000e+000
      outer loop
         vertex 5.688660e+002 6.253616e+002 7.334250e+001
         vertex 5.696202e+002 6.591838e+002 7.334250e+001
         vertex 5.691525e+002 6.601871e+002 7.334250e+001
      endloop
   endfacet
   facet normal -2.220446e-016 1.883957e-017 1.000000e+000
      outer loop
         vertex 5.688660e+002 6.253616e+002 7.334250e+001
         vertex 5.691525e+002 6.601871e+002 7.334250e+001
         vertex 5.688660e+002 6.612562e+002 7.334250e+001
      endloop
   endfacet
   facet normal -2.220446e-016 1.883957e-017 1.000000e+000
      outer loop
         vertex 5.814695e+002 6.623589e+002 7.334250e+001
         vertex 5.792012e+002 6.291233e+002 7.334250e+001
         vertex 5.909945e+002 7.683500e+002 7.334250e+001
      endloop
   endfacet
   facet normal -2.220446e-016 1.883957e-017 1.000000e+000
      outer loop
         vertex 5.909945e+002 7.683500e+002 7.334250e+001
         vertex 5.792012e+002 6.291233e+002 7.334250e+001
         vertex 5.799839e+002 6.283406e+002 7.334250e+001
      endloop
   endfacet
   facet normal -2.220446e-016 1.883957e-017 1.000000e+000
      outer loop
         vertex 5.909945e+002 7.683500e+002 7.334250e+001
         vertex 5.799839e+002 6.283406e+002 7.334250e+001
         vertex 5.806187e+002 6.274339e+002 7.334250e+001
      endloop
   endfacet
   facet normal -2.220446e-016 1.883957e-017 1.000000e+000
      outer loop
         vertex 5.762222e+002 6.180053e+002 7.334250e+001
         vertex 5.751195e+002 6.179089e+002 7.334250e+001
         vertex 5.528945e+002 3.492500e+002 7.334250e+001
      endloop
   endfacet
   facet normal -2.220446e-016 1.883957e-017 1.000000e+000
      outer loop
         vertex 5.528945e+002 3.492500e+002 7.334250e+001
         vertex 5.751195e+002 6.179089e+002 7.334250e+001
         vertex 5.740168e+002 6.180053e+002 7.334250e+001
      endloop
   endfacet
   facet normal -2.220446e-016 1.883957e-017 1.000000e+000
      outer loop
         vertex 5.528945e+002 3.492500e+002 7.334250e+001
         vertex 5.740168e+002 6.180053e+002 7.334250e+001
         vertex 5.729477e+002 6.182918e+002 7.334250e+001
      endloop
   endfacet
   facet normal -2.220446e-016 1.883957e-017 1.000000e+000
      outer loop
         vertex 5.719445e+002 6.568596e+002 7.334250e+001
         vertex 5.688660e+002 6.253616e+002 7.334250e+001
         vertex 5.729477e+002 6.563918e+002 7.334250e+001
      endloop
   endfacet
   facet normal -2.220446e-016 1.883957e-017 1.000000e+000
      outer loop
         vertex 5.729477e+002 6.563918e+002 7.334250e+001
         vertex 5.688660e+002 6.253616e+002 7.334250e+001
         vertex 5.691525e+002 6.264307e+002 7.334250e+001
      endloop
   endfacet
   facet normal -2.220446e-016 1.883957e-017 1.000000e+000
      outer loop
         vertex 5.729477e+002 6.563918e+002 7.334250e+001
         vertex 5.691525e+002 6.264307e+002 7.334250e+001
         vertex 5.696202e+002 6.274339e+002 7.334250e+001
      endloop
   endfacet
   facet normal -2.220446e-016 1.883957e-017 1.000000e+000
      outer loop
         vertex 5.696202e+002 6.274339e+002 7.334250e+001
         vertex 5.702551e+002 6.283406e+002 7.334250e+001
         vertex 5.729477e+002 6.563918e+002 7.334250e+001
      endloop
   endfacet
   facet normal -2.220446e-016 1.883957e-017 1.000000e+000
      outer loop
         vertex 5.729477e+002 6.563918e+002 7.334250e+001
         vertex 5.702551e+002 6.283406e+002 7.334250e+001
         vertex 5.710378e+002 6.291233e+002 7.334250e+001
      endloop
   endfacet
   facet normal -2.220446e-016 1.883957e-017 1.000000e+000
      outer loop
         vertex 5.729477e+002 6.563918e+002 7.334250e+001
         vertex 5.710378e+002 6.291233e+002 7.334250e+001
         vertex 5.719445e+002 6.297581e+002 7.334250e+001
      endloop
   endfacet
   facet normal -2.220446e-016 1.883957e-017 1.000000e+000
      outer loop
         vertex 5.772913e+002 6.563918e+002 7.334250e+001
         vertex 5.762222e+002 6.561053e+002 7.334250e+001
         vertex 5.751195e+002 6.306089e+002 7.334250e+001
      endloop
   endfacet
   facet normal -2.220446e-016 1.883957e-017 1.000000e+000
      outer loop
         vertex 5.751195e+002 6.306089e+002 7.334250e+001
         vertex 5.762222e+002 6.561053e+002 7.334250e+001
         vertex 5.751195e+002 6.560089e+002 7.334250e+001
      endloop
   endfacet
   facet normal -2.220446e-016 1.883957e-017 1.000000e+000
      outer loop
         vertex 5.751195e+002 6.306089e+002 7.334250e+001
         vertex 5.751195e+002 6.560089e+002 7.334250e+001
         vertex 5.740168e+002 6.305124e+002 7.334250e+001
      endloop
   endfacet
   facet normal -2.220446e-016 1.883957e-017 1.000000e+000
      outer loop
         vertex 5.740168e+002 6.305124e+002 7.334250e+001
         vertex 5.751195e+002 6.560089e+002 7.334250e+001
         vertex 5.740168e+002 6.561053e+002 7.334250e+001
      endloop
   endfacet
   facet normal -2.220446e-016 1.883957e-017 1.000000e+000
      outer loop
         vertex 5.740168e+002 6.305124e+002 7.334250e+001
         vertex 5.740168e+002 6.561053e+002 7.334250e+001
         vertex 5.729477e+002 6.563918e+002 7.334250e+001
      endloop
   endfacet
   facet normal -2.220446e-016 1.883957e-017 1.000000e+000
      outer loop
         vertex 5.688660e+002 6.612562e+002 7.334250e+001
         vertex 5.687695e+002 6.623589e+002 7.334250e+001
         vertex 5.688660e+002 6.253616e+002 7.334250e+001
      endloop
   endfacet
   facet normal -2.220446e-016 1.883957e-017 1.000000e+000
      outer loop
         vertex 5.688660e+002 6.253616e+002 7.334250e+001
         vertex 5.687695e+002 6.623589e+002 7.334250e+001
         vertex 5.528945e+002 7.683500e+002 7.334250e+001
      endloop
   endfacet
   facet normal -2.220446e-016 1.883957e-017 1.000000e+000
      outer loop
         vertex 5.688660e+002 6.253616e+002 7.334250e+001
         vertex 5.528945e+002 7.683500e+002 7.334250e+001
         vertex 5.687695e+002 6.242589e+002 7.334250e+001
      endloop
   endfacet
   facet normal -2.220446e-016 1.883957e-017 1.000000e+000
      outer loop
         vertex 5.687695e+002 6.242589e+002 7.334250e+001
         vertex 5.528945e+002 7.683500e+002 7.334250e+001
         vertex 5.528945e+002 3.492500e+002 7.334250e+001
      endloop
   endfacet
   facet normal -2.220446e-016 1.883957e-017 1.000000e+000
      outer loop
         vertex 5.687695e+002 6.242589e+002 7.334250e+001
         vertex 5.528945e+002 3.492500e+002 7.334250e+001
         vertex 5.688660e+002 6.231562e+002 7.334250e+001
      endloop
   endfacet
   facet normal -2.220446e-016 1.883957e-017 1.000000e+000
      outer loop
         vertex 5.810865e+002 6.264307e+002 7.334250e+001
         vertex 5.813730e+002 6.253616e+002 7.334250e+001
         vertex 5.909945e+002 7.683500e+002 7.334250e+001
      endloop
   endfacet
   facet normal -2.220446e-016 1.883957e-017 1.000000e+000
      outer loop
         vertex 5.909945e+002 7.683500e+002 7.334250e+001
         vertex 5.813730e+002 6.253616e+002 7.334250e+001
         vertex 5.814695e+002 6.242589e+002 7.334250e+001
      endloop
   endfacet
   facet normal -2.220446e-016 1.883957e-017 1.000000e+000
      outer loop
         vertex 5.909945e+002 7.683500e+002 7.334250e+001
         vertex 5.814695e+002 6.242589e+002 7.334250e+001
         vertex 5.909945e+002 3.492500e+002 7.334250e+001
      endloop
   endfacet
   facet normal -2.220446e-016 1.883957e-017 1.000000e+000
      outer loop
         vertex 5.909945e+002 3.492500e+002 7.334250e+001
         vertex 5.814695e+002 6.242589e+002 7.334250e+001
         vertex 5.813730e+002 6.231562e+002 7.334250e+001
      endloop
   endfacet
   facet normal -2.220446e-016 1.883957e-017 1.000000e+000
      outer loop
         vertex 5.909945e+002 3.492500e+002 7.334250e+001
         vertex 5.813730e+002 6.231562e+002 7.334250e+001
         vertex 5.810865e+002 6.220870e+002 7.334250e+001
      endloop
   endfacet
   facet normal -2.220446e-016 1.883957e-017 1.000000e+000
      outer loop
         vertex 5.729477e+002 6.182918e+002 7.334250e+001
         vertex 5.719445e+002 6.187596e+002 7.334250e+001
         vertex 5.528945e+002 3.492500e+002 7.334250e+001
      endloop
   endfacet
   facet normal -2.220446e-016 1.883957e-017 1.000000e+000
      outer loop
         vertex 5.528945e+002 3.492500e+002 7.334250e+001
         vertex 5.719445e+002 6.187596e+002 7.334250e+001
         vertex 5.710378e+002 6.193945e+002 7.334250e+001
      endloop
   endfacet
   facet normal -2.220446e-016 1.883957e-017 1.000000e+000
      outer loop
         vertex 5.528945e+002 3.492500e+002 7.334250e+001
         vertex 5.710378e+002 6.193945e+002 7.334250e+001
         vertex 5.702551e+002 6.201771e+002 7.334250e+001
      endloop
   endfacet
   facet normal -2.220446e-016 1.883957e-017 1.000000e+000
      outer loop
         vertex 5.810865e+002 6.220870e+002 7.334250e+001
         vertex 5.806187e+002 6.210839e+002 7.334250e+001
         vertex 5.909945e+002 3.492500e+002 7.334250e+001
      endloop
   endfacet
   facet normal -2.220446e-016 1.883957e-017 1.000000e+000
      outer loop
         vertex 5.909945e+002 3.492500e+002 7.334250e+001
         vertex 5.806187e+002 6.210839e+002 7.334250e+001
         vertex 5.799839e+002 6.201771e+002 7.334250e+001
      endloop
   endfacet
   facet normal -2.220446e-016 1.883957e-017 1.000000e+000
      outer loop
         vertex 5.909945e+002 3.492500e+002 7.334250e+001
         vertex 5.799839e+002 6.201771e+002 7.334250e+001
         vertex 5.792012e+002 6.193945e+002 7.334250e+001
      endloop
   endfacet
   facet normal -2.220446e-016 1.883957e-017 1.000000e+000
      outer loop
         vertex 5.702551e+002 6.201771e+002 7.334250e+001
         vertex 5.696202e+002 6.210839e+002 7.334250e+001
         vertex 5.528945e+002 3.492500e+002 7.334250e+001
      endloop
   endfacet
   facet normal -2.220446e-016 1.883957e-017 1.000000e+000
      outer loop
         vertex 5.528945e+002 3.492500e+002 7.334250e+001
         vertex 5.696202e+002 6.210839e+002 7.334250e+001
         vertex 5.691525e+002 6.220870e+002 7.334250e+001
      endloop
   endfacet
   facet normal -2.220446e-016 1.883957e-017 1.000000e+000
      outer loop
         vertex 5.528945e+002 3.492500e+002 7.334250e+001
         vertex 5.691525e+002 6.220870e+002 7.334250e+001
         vertex 5.688660e+002 6.231562e+002 7.334250e+001
      endloop
   endfacet
   facet normal 1.000000e+000 -8.726354e-017 1.942890e-016
      outer loop
         vertex 5.909945e+002 3.492500e+002 7.334250e+001
         vertex 5.909945e+002 3.492500e+002 6.699249e+001
         vertex 5.909945e+002 7.683500e+002 7.334250e+001
      endloop
   endfacet
   facet normal 1.000000e+000 -8.726354e-017 1.942890e-016
      outer loop
         vertex 5.909945e+002 7.683500e+002 7.334250e+001
         vertex 5.909945e+002 3.492500e+002 6.699249e+001
         vertex 5.909945e+002 7.683500e+002 6.699249e+001
      endloop
   endfacet
   facet normal 2.220446e-016 -1.883957e-017 -1.000000e+000
      outer loop
         vertex 5.762222e+002 6.561053e+002 6.699249e+001
         vertex 5.772913e+002 6.563918e+002 6.699249e+001
         vertex 5.813730e+002 6.253616e+002 6.699249e+001
      endloop
   endfacet
   facet normal 2.220446e-016 -1.883957e-017 -1.000000e+000
      outer loop
         vertex 5.729477e+002 6.563918e+002 6.699249e+001
         vertex 5.688660e+002 6.253616e+002 6.699249e+001
         vertex 5.719445e+002 6.568596e+002 6.699249e+001
      endloop
   endfacet
   facet normal 2.220446e-016 -1.883957e-017 -1.000000e+000
      outer loop
         vertex 5.719445e+002 6.568596e+002 6.699249e+001
         vertex 5.688660e+002 6.253616e+002 6.699249e+001
         vertex 5.710378e+002 6.574945e+002 6.699249e+001
      endloop
   endfacet
   facet normal 2.220446e-016 -1.883957e-017 -1.000000e+000
      outer loop
         vertex 5.710378e+002 6.193945e+002 6.699249e+001
         vertex 5.719445e+002 6.187596e+002 6.699249e+001
         vertex 5.592445e+002 3.492500e+002 6.699249e+001
      endloop
   endfacet
   facet normal 2.220446e-016 -1.883957e-017 -1.000000e+000
      outer loop
         vertex 5.762222e+002 6.180053e+002 6.699249e+001
         vertex 5.772913e+002 6.182918e+002 6.699249e+001
         vertex 5.909945e+002 3.492500e+002 6.699249e+001
      endloop
   endfacet
   facet normal 2.220446e-016 -1.883957e-017 -1.000000e+000
      outer loop
         vertex 5.909945e+002 3.492500e+002 6.699249e+001
         vertex 5.772913e+002 6.182918e+002 6.699249e+001
         vertex 5.782945e+002 6.187596e+002 6.699249e+001
      endloop
   endfacet
   facet normal 2.220446e-016 -1.883957e-017 -1.000000e+000
      outer loop
         vertex 5.909945e+002 3.492500e+002 6.699249e+001
         vertex 5.782945e+002 6.187596e+002 6.699249e+001
         vertex 5.792012e+002 6.193945e+002 6.699249e+001
      endloop
   endfacet
   facet normal 2.220446e-016 -1.883957e-017 -1.000000e+000
      outer loop
         vertex 5.799839e+002 6.664406e+002 6.699249e+001
         vertex 5.909945e+002 7.683500e+002 6.699249e+001
         vertex 5.806187e+002 6.655339e+002 6.699249e+001
      endloop
   endfacet
   facet normal 2.220446e-016 -1.883957e-017 -1.000000e+000
      outer loop
         vertex 5.806187e+002 6.655339e+002 6.699249e+001
         vertex 5.909945e+002 7.683500e+002 6.699249e+001
         vertex 5.810865e+002 6.645307e+002 6.699249e+001
      endloop
   endfacet
   facet normal 2.220446e-016 -1.883957e-017 -1.000000e+000
      outer loop
         vertex 5.799839e+002 6.664406e+002 6.699249e+001
         vertex 5.792012e+002 6.672233e+002 6.699249e+001
         vertex 5.909945e+002 7.683500e+002 6.699249e+001
      endloop
   endfacet
   facet normal 2.220446e-016 -1.883957e-017 -1.000000e+000
      outer loop
         vertex 5.909945e+002 7.683500e+002 6.699249e+001
         vertex 5.792012e+002 6.672233e+002 6.699249e+001
         vertex 5.782945e+002 6.678582e+002 6.699249e+001
      endloop
   endfacet
   facet normal 2.220446e-016 -1.883957e-017 -1.000000e+000
      outer loop
         vertex 5.909945e+002 7.683500e+002 6.699249e+001
         vertex 5.782945e+002 6.678582e+002 6.699249e+001
         vertex 5.772913e+002 6.683259e+002 6.699249e+001
      endloop
   endfacet
   facet normal 2.220446e-016 -1.883957e-017 -1.000000e+000
      outer loop
         vertex 5.688660e+002 6.612562e+002 6.699249e+001
         vertex 5.691525e+002 6.601871e+002 6.699249e+001
         vertex 5.688660e+002 6.253616e+002 6.699249e+001
      endloop
   endfacet
   facet normal 2.220446e-016 -1.883957e-017 -1.000000e+000
      outer loop
         vertex 5.751195e+002 6.560089e+002 6.699249e+001
         vertex 5.782945e+002 6.297581e+002 6.699249e+001
         vertex 5.772913e+002 6.302259e+002 6.699249e+001
      endloop
   endfacet
   facet normal 2.220446e-016 -1.883957e-017 -1.000000e+000
      outer loop
         vertex 5.719445e+002 6.187596e+002 6.699249e+001
         vertex 5.729477e+002 6.182918e+002 6.699249e+001
         vertex 5.592445e+002 3.492500e+002 6.699249e+001
      endloop
   endfacet
   facet normal 2.220446e-016 -1.883957e-017 -1.000000e+000
      outer loop
         vertex 5.592445e+002 3.492500e+002 6.699249e+001
         vertex 5.729477e+002 6.182918e+002 6.699249e+001
         vertex 5.740168e+002 6.180053e+002 6.699249e+001
      endloop
   endfacet
   facet normal 2.220446e-016 -1.883957e-017 -1.000000e+000
      outer loop
         vertex 5.592445e+002 3.492500e+002 6.699249e+001
         vertex 5.740168e+002 6.180053e+002 6.699249e+001
         vertex 5.909945e+002 3.492500e+002 6.699249e+001
      endloop
   endfacet
   facet normal 2.220446e-016 -1.883957e-017 -1.000000e+000
      outer loop
         vertex 5.909945e+002 3.492500e+002 6.699249e+001
         vertex 5.740168e+002 6.180053e+002 6.699249e+001
         vertex 5.751195e+002 6.179089e+002 6.699249e+001
      endloop
   endfacet
   facet normal 2.220446e-016 -1.883957e-017 -1.000000e+000
      outer loop
         vertex 5.909945e+002 3.492500e+002 6.699249e+001
         vertex 5.751195e+002 6.179089e+002 6.699249e+001
         vertex 5.762222e+002 6.180053e+002 6.699249e+001
      endloop
   endfacet
   facet normal 2.220446e-016 -1.883957e-017 -1.000000e+000
      outer loop
         vertex 5.806187e+002 6.591838e+002 6.699249e+001
         vertex 5.810865e+002 6.601871e+002 6.699249e+001
         vertex 5.814695e+002 6.242589e+002 6.699249e+001
      endloop
   endfacet
   facet normal 2.220446e-016 -1.883957e-017 -1.000000e+000
      outer loop
         vertex 5.592445e+002 7.683500e+002 6.699249e+001
         vertex 5.729477e+002 6.683259e+002 6.699249e+001
         vertex 5.719445e+002 6.678582e+002 6.699249e+001
      endloop
   endfacet
   facet normal 2.220446e-016 -1.883957e-017 -1.000000e+000
      outer loop
         vertex 5.719445e+002 6.678582e+002 6.699249e+001
         vertex 5.710378e+002 6.672233e+002 6.699249e+001
         vertex 5.592445e+002 7.683500e+002 6.699249e+001
      endloop
   endfacet
   facet normal 2.220446e-016 -1.883957e-017 -1.000000e+000
      outer loop
         vertex 5.592445e+002 7.683500e+002 6.699249e+001
         vertex 5.710378e+002 6.672233e+002 6.699249e+001
         vertex 5.702551e+002 6.664406e+002 6.699249e+001
      endloop
   endfacet
   facet normal 2.220446e-016 -1.883957e-017 -1.000000e+000
      outer loop
         vertex 5.592445e+002 7.683500e+002 6.699249e+001
         vertex 5.702551e+002 6.664406e+002 6.699249e+001
         vertex 5.696202e+002 6.655339e+002 6.699249e+001
      endloop
   endfacet
   facet normal 2.220446e-016 -1.883957e-017 -1.000000e+000
      outer loop
         vertex 5.696202e+002 6.655339e+002 6.699249e+001
         vertex 5.691525e+002 6.645307e+002 6.699249e+001
         vertex 5.592445e+002 7.683500e+002 6.699249e+001
      endloop
   endfacet
   facet normal 2.220446e-016 -1.883957e-017 -1.000000e+000
      outer loop
         vertex 5.592445e+002 7.683500e+002 6.699249e+001
         vertex 5.691525e+002 6.645307e+002 6.699249e+001
         vertex 5.688660e+002 6.634615e+002 6.699249e+001
      endloop
   endfacet
   facet normal 2.220446e-016 -1.883957e-017 -1.000000e+000
      outer loop
         vertex 5.592445e+002 7.683500e+002 6.699249e+001
         vertex 5.688660e+002 6.634615e+002 6.699249e+001
         vertex 5.687695e+002 6.623589e+002 6.699249e+001
      endloop
   endfacet
   facet normal 2.220446e-016 -1.883957e-017 -1.000000e+000
      outer loop
         vertex 5.688660e+002 6.612562e+002 6.699249e+001
         vertex 5.688660e+002 6.253616e+002 6.699249e+001
         vertex 5.687695e+002 6.623589e+002 6.699249e+001
      endloop
   endfacet
   facet normal 2.220446e-016 -1.883957e-017 -1.000000e+000
      outer loop
         vertex 5.691525e+002 6.601871e+002 6.699249e+001
         vertex 5.696202e+002 6.591838e+002 6.699249e+001
         vertex 5.688660e+002 6.253616e+002 6.699249e+001
      endloop
   endfacet
   facet normal 2.220446e-016 -1.883957e-017 -1.000000e+000
      outer loop
         vertex 5.688660e+002 6.253616e+002 6.699249e+001
         vertex 5.696202e+002 6.591838e+002 6.699249e+001
         vertex 5.702551e+002 6.582772e+002 6.699249e+001
      endloop
   endfacet
   facet normal 2.220446e-016 -1.883957e-017 -1.000000e+000
      outer loop
         vertex 5.688660e+002 6.253616e+002 6.699249e+001
         vertex 5.702551e+002 6.582772e+002 6.699249e+001
         vertex 5.710378e+002 6.574945e+002 6.699249e+001
      endloop
   endfacet
   facet normal 2.220446e-016 -1.883957e-017 -1.000000e+000
      outer loop
         vertex 5.792012e+002 6.193945e+002 6.699249e+001
         vertex 5.799839e+002 6.201771e+002 6.699249e+001
         vertex 5.909945e+002 3.492500e+002 6.699249e+001
      endloop
   endfacet
   facet normal 2.220446e-016 -1.883957e-017 -1.000000e+000
      outer loop
         vertex 5.909945e+002 3.492500e+002 6.699249e+001
         vertex 5.799839e+002 6.201771e+002 6.699249e+001
         vertex 5.806187e+002 6.210839e+002 6.699249e+001
      endloop
   endfacet
   facet normal 2.220446e-016 -1.883957e-017 -1.000000e+000
      outer loop
         vertex 5.909945e+002 3.492500e+002 6.699249e+001
         vertex 5.806187e+002 6.210839e+002 6.699249e+001
         vertex 5.810865e+002 6.220870e+002 6.699249e+001
      endloop
   endfacet
   facet normal 2.220446e-016 -1.883957e-017 -1.000000e+000
      outer loop
         vertex 5.772913e+002 6.563918e+002 6.699249e+001
         vertex 5.782945e+002 6.568596e+002 6.699249e+001
         vertex 5.813730e+002 6.253616e+002 6.699249e+001
      endloop
   endfacet
   facet normal 2.220446e-016 -1.883957e-017 -1.000000e+000
      outer loop
         vertex 5.813730e+002 6.253616e+002 6.699249e+001
         vertex 5.782945e+002 6.568596e+002 6.699249e+001
         vertex 5.792012e+002 6.574945e+002 6.699249e+001
      endloop
   endfacet
   facet normal 2.220446e-016 -1.883957e-017 -1.000000e+000
      outer loop
         vertex 5.813730e+002 6.253616e+002 6.699249e+001
         vertex 5.792012e+002 6.574945e+002 6.699249e+001
         vertex 5.814695e+002 6.242589e+002 6.699249e+001
      endloop
   endfacet
   facet normal 2.220446e-016 -1.883957e-017 -1.000000e+000
      outer loop
         vertex 5.814695e+002 6.242589e+002 6.699249e+001
         vertex 5.792012e+002 6.574945e+002 6.699249e+001
         vertex 5.799839e+002 6.582772e+002 6.699249e+001
      endloop
   endfacet
   facet normal 2.220446e-016 -1.883957e-017 -1.000000e+000
      outer loop
         vertex 5.814695e+002 6.242589e+002 6.699249e+001
         vertex 5.799839e+002 6.582772e+002 6.699249e+001
         vertex 5.806187e+002 6.591838e+002 6.699249e+001
      endloop
   endfacet
   facet normal 2.220446e-016 -1.883957e-017 -1.000000e+000
      outer loop
         vertex 5.772913e+002 6.683259e+002 6.699249e+001
         vertex 5.762222e+002 6.686124e+002 6.699249e+001
         vertex 5.909945e+002 7.683500e+002 6.699249e+001
      endloop
   endfacet
   facet normal 2.220446e-016 -1.883957e-017 -1.000000e+000
      outer loop
         vertex 5.909945e+002 7.683500e+002 6.699249e+001
         vertex 5.762222e+002 6.686124e+002 6.699249e+001
         vertex 5.751195e+002 6.687089e+002 6.699249e+001
      endloop
   endfacet
   facet normal 2.220446e-016 -1.883957e-017 -1.000000e+000
      outer loop
         vertex 5.909945e+002 7.683500e+002 6.699249e+001
         vertex 5.751195e+002 6.687089e+002 6.699249e+001
         vertex 5.592445e+002 7.683500e+002 6.699249e+001
      endloop
   endfacet
   facet normal 2.220446e-016 -1.883957e-017 -1.000000e+000
      outer loop
         vertex 5.592445e+002 7.683500e+002 6.699249e+001
         vertex 5.751195e+002 6.687089e+002 6.699249e+001
         vertex 5.740168e+002 6.686124e+002 6.699249e+001
      endloop
   endfacet
   facet normal 2.220446e-016 -1.883957e-017 -1.000000e+000
      outer loop
         vertex 5.592445e+002 7.683500e+002 6.699249e+001
         vertex 5.740168e+002 6.686124e+002 6.699249e+001
         vertex 5.729477e+002 6.683259e+002 6.699249e+001
      endloop
   endfacet
   facet normal 2.220446e-016 -1.883957e-017 -1.000000e+000
      outer loop
         vertex 5.762222e+002 6.561053e+002 6.699249e+001
         vertex 5.813730e+002 6.253616e+002 6.699249e+001
         vertex 5.751195e+002 6.560089e+002 6.699249e+001
      endloop
   endfacet
   facet normal 2.220446e-016 -1.883957e-017 -1.000000e+000
      outer loop
         vertex 5.751195e+002 6.560089e+002 6.699249e+001
         vertex 5.813730e+002 6.253616e+002 6.699249e+001
         vertex 5.810865e+002 6.264307e+002 6.699249e+001
      endloop
   endfacet
   facet normal 2.220446e-016 -1.883957e-017 -1.000000e+000
      outer loop
         vertex 5.751195e+002 6.560089e+002 6.699249e+001
         vertex 5.810865e+002 6.264307e+002 6.699249e+001
         vertex 5.806187e+002 6.274339e+002 6.699249e+001
      endloop
   endfacet
   facet normal 2.220446e-016 -1.883957e-017 -1.000000e+000
      outer loop
         vertex 5.806187e+002 6.274339e+002 6.699249e+001
         vertex 5.799839e+002 6.283406e+002 6.699249e+001
         vertex 5.751195e+002 6.560089e+002 6.699249e+001
      endloop
   endfacet
   facet normal 2.220446e-016 -1.883957e-017 -1.000000e+000
      outer loop
         vertex 5.751195e+002 6.560089e+002 6.699249e+001
         vertex 5.799839e+002 6.283406e+002 6.699249e+001
         vertex 5.792012e+002 6.291233e+002 6.699249e+001
      endloop
   endfacet
   facet normal 2.220446e-016 -1.883957e-017 -1.000000e+000
      outer loop
         vertex 5.751195e+002 6.560089e+002 6.699249e+001
         vertex 5.792012e+002 6.291233e+002 6.699249e+001
         vertex 5.782945e+002 6.297581e+002 6.699249e+001
      endloop
   endfacet
   facet normal 2.220446e-016 -1.883957e-017 -1.000000e+000
      outer loop
         vertex 5.729477e+002 6.302259e+002 6.699249e+001
         vertex 5.729477e+002 6.563918e+002 6.699249e+001
         vertex 5.740168e+002 6.305124e+002 6.699249e+001
      endloop
   endfacet
   facet normal 2.220446e-016 -1.883957e-017 -1.000000e+000
      outer loop
         vertex 5.740168e+002 6.305124e+002 6.699249e+001
         vertex 5.729477e+002 6.563918e+002 6.699249e+001
         vertex 5.740168e+002 6.561053e+002 6.699249e+001
      endloop
   endfacet
   facet normal 2.220446e-016 -1.883957e-017 -1.000000e+000
      outer loop
         vertex 5.740168e+002 6.305124e+002 6.699249e+001
         vertex 5.740168e+002 6.561053e+002 6.699249e+001
         vertex 5.751195e+002 6.306089e+002 6.699249e+001
      endloop
   endfacet
   facet normal 2.220446e-016 -1.883957e-017 -1.000000e+000
      outer loop
         vertex 5.751195e+002 6.306089e+002 6.699249e+001
         vertex 5.740168e+002 6.561053e+002 6.699249e+001
         vertex 5.751195e+002 6.560089e+002 6.699249e+001
      endloop
   endfacet
   facet normal 2.220446e-016 -1.883957e-017 -1.000000e+000
      outer loop
         vertex 5.751195e+002 6.306089e+002 6.699249e+001
         vertex 5.751195e+002 6.560089e+002 6.699249e+001
         vertex 5.762222e+002 6.305124e+002 6.699249e+001
      endloop
   endfacet
   facet normal 2.220446e-016 -1.883957e-017 -1.000000e+000
      outer loop
         vertex 5.762222e+002 6.305124e+002 6.699249e+001
         vertex 5.751195e+002 6.560089e+002 6.699249e+001
         vertex 5.772913e+002 6.302259e+002 6.699249e+001
      endloop
   endfacet
   facet normal 2.220446e-016 -1.883957e-017 -1.000000e+000
      outer loop
         vertex 5.687695e+002 6.623589e+002 6.699249e+001
         vertex 5.688660e+002 6.253616e+002 6.699249e+001
         vertex 5.592445e+002 7.683500e+002 6.699249e+001
      endloop
   endfacet
   facet normal 2.220446e-016 -1.883957e-017 -1.000000e+000
      outer loop
         vertex 5.592445e+002 7.683500e+002 6.699249e+001
         vertex 5.688660e+002 6.253616e+002 6.699249e+001
         vertex 5.687695e+002 6.242589e+002 6.699249e+001
      endloop
   endfacet
   facet normal 2.220446e-016 -1.883957e-017 -1.000000e+000
      outer loop
         vertex 5.592445e+002 7.683500e+002 6.699249e+001
         vertex 5.687695e+002 6.242589e+002 6.699249e+001
         vertex 5.592445e+002 3.492500e+002 6.699249e+001
      endloop
   endfacet
   facet normal 2.220446e-016 -1.883957e-017 -1.000000e+000
      outer loop
         vertex 5.592445e+002 3.492500e+002 6.699249e+001
         vertex 5.687695e+002 6.242589e+002 6.699249e+001
         vertex 5.688660e+002 6.231562e+002 6.699249e+001
      endloop
   endfacet
   facet normal 2.220446e-016 -1.883957e-017 -1.000000e+000
      outer loop
         vertex 5.592445e+002 3.492500e+002 6.699249e+001
         vertex 5.688660e+002 6.231562e+002 6.699249e+001
         vertex 5.691525e+002 6.220870e+002 6.699249e+001
      endloop
   endfacet
   facet normal 2.220446e-016 -1.883957e-017 -1.000000e+000
      outer loop
         vertex 5.729477e+002 6.302259e+002 6.699249e+001
         vertex 5.719445e+002 6.297581e+002 6.699249e+001
         vertex 5.729477e+002 6.563918e+002 6.699249e+001
      endloop
   endfacet
   facet normal 2.220446e-016 -1.883957e-017 -1.000000e+000
      outer loop
         vertex 5.729477e+002 6.563918e+002 6.699249e+001
         vertex 5.719445e+002 6.297581e+002 6.699249e+001
         vertex 5.710378e+002 6.291233e+002 6.699249e+001
      endloop
   endfacet
   facet normal 2.220446e-016 -1.883957e-017 -1.000000e+000
      outer loop
         vertex 5.729477e+002 6.563918e+002 6.699249e+001
         vertex 5.710378e+002 6.291233e+002 6.699249e+001
         vertex 5.702551e+002 6.283406e+002 6.699249e+001
      endloop
   endfacet
   facet normal 2.220446e-016 -1.883957e-017 -1.000000e+000
      outer loop
         vertex 5.691525e+002 6.220870e+002 6.699249e+001
         vertex 5.696202e+002 6.210839e+002 6.699249e+001
         vertex 5.592445e+002 3.492500e+002 6.699249e+001
      endloop
   endfacet
   facet normal 2.220446e-016 -1.883957e-017 -1.000000e+000
      outer loop
         vertex 5.592445e+002 3.492500e+002 6.699249e+001
         vertex 5.696202e+002 6.210839e+002 6.699249e+001
         vertex 5.702551e+002 6.201771e+002 6.699249e+001
      endloop
   endfacet
   facet normal 2.220446e-016 -1.883957e-017 -1.000000e+000
      outer loop
         vertex 5.592445e+002 3.492500e+002 6.699249e+001
         vertex 5.702551e+002 6.201771e+002 6.699249e+001
         vertex 5.710378e+002 6.193945e+002 6.699249e+001
      endloop
   endfacet
   facet normal 2.220446e-016 -1.883957e-017 -1.000000e+000
      outer loop
         vertex 5.810865e+002 6.220870e+002 6.699249e+001
         vertex 5.813730e+002 6.231562e+002 6.699249e+001
         vertex 5.909945e+002 3.492500e+002 6.699249e+001
      endloop
   endfacet
   facet normal 2.220446e-016 -1.883957e-017 -1.000000e+000
      outer loop
         vertex 5.909945e+002 3.492500e+002 6.699249e+001
         vertex 5.813730e+002 6.231562e+002 6.699249e+001
         vertex 5.814695e+002 6.242589e+002 6.699249e+001
      endloop
   endfacet
   facet normal 2.220446e-016 -1.883957e-017 -1.000000e+000
      outer loop
         vertex 5.909945e+002 3.492500e+002 6.699249e+001
         vertex 5.814695e+002 6.242589e+002 6.699249e+001
         vertex 5.909945e+002 7.683500e+002 6.699249e+001
      endloop
   endfacet
   facet normal 2.220446e-016 -1.883957e-017 -1.000000e+000
      outer loop
         vertex 5.810865e+002 6.601871e+002 6.699249e+001
         vertex 5.813730e+002 6.612562e+002 6.699249e+001
         vertex 5.814695e+002 6.242589e+002 6.699249e+001
      endloop
   endfacet
   facet normal 2.220446e-016 -1.883957e-017 -1.000000e+000
      outer loop
         vertex 5.814695e+002 6.242589e+002 6.699249e+001
         vertex 5.813730e+002 6.612562e+002 6.699249e+001
         vertex 5.814695e+002 6.623589e+002 6.699249e+001
      endloop
   endfacet
   facet normal 2.220446e-016 -1.883957e-017 -1.000000e+000
      outer loop
         vertex 5.814695e+002 6.242589e+002 6.699249e+001
         vertex 5.814695e+002 6.623589e+002 6.699249e+001
         vertex 5.909945e+002 7.683500e+002 6.699249e+001
      endloop
   endfacet
   facet normal 2.220446e-016 -1.883957e-017 -1.000000e+000
      outer loop
         vertex 5.909945e+002 7.683500e+002 6.699249e+001
         vertex 5.814695e+002 6.623589e+002 6.699249e+001
         vertex 5.813730e+002 6.634615e+002 6.699249e+001
      endloop
   endfacet
   facet normal 2.220446e-016 -1.883957e-017 -1.000000e+000
      outer loop
         vertex 5.909945e+002 7.683500e+002 6.699249e+001
         vertex 5.813730e+002 6.634615e+002 6.699249e+001
         vertex 5.810865e+002 6.645307e+002 6.699249e+001
      endloop
   endfacet
   facet normal 2.220446e-016 -1.883957e-017 -1.000000e+000
      outer loop
         vertex 5.702551e+002 6.283406e+002 6.699249e+001
         vertex 5.696202e+002 6.274339e+002 6.699249e+001
         vertex 5.729477e+002 6.563918e+002 6.699249e+001
      endloop
   endfacet
   facet normal 2.220446e-016 -1.883957e-017 -1.000000e+000
      outer loop
         vertex 5.729477e+002 6.563918e+002 6.699249e+001
         vertex 5.696202e+002 6.274339e+002 6.699249e+001
         vertex 5.691525e+002 6.264307e+002 6.699249e+001
      endloop
   endfacet
   facet normal 2.220446e-016 -1.883957e-017 -1.000000e+000
      outer loop
         vertex 5.729477e+002 6.563918e+002 6.699249e+001
         vertex 5.691525e+002 6.264307e+002 6.699249e+001
         vertex 5.688660e+002 6.253616e+002 6.699249e+001
      endloop
   endfacet
   facet normal 1.000000e+000 -8.726354e-017 1.942890e-016
      outer loop
         vertex 5.592445e+002 3.492500e+002 6.699249e+001
         vertex 5.592445e+002 3.492500e+002 3.524250e+001
         vertex 5.592445e+002 7.683500e+002 6.699249e+001
      endloop
   endfacet
   facet normal 1.000000e+000 -8.726354e-017 1.942890e-016
      outer loop
         vertex 5.592445e+002 7.683500e+002 6.699249e+001
         vertex 5.592445e+002 3.492500e+002 3.524250e+001
         vertex 5.592445e+002 7.683500e+002 3.524250e+001
      endloop
   endfacet
   facet normal 2.220446e-016 -1.883957e-017 -1.000000e+000
      outer loop
         vertex 5.592445e+002 3.492500e+002 3.524250e+001
         vertex 5.528945e+002 3.492500e+002 3.524250e+001
         vertex 5.592445e+002 7.683500e+002 3.524250e+001
      endloop
   endfacet
   facet normal 2.220446e-016 -1.883957e-017 -1.000000e+000
      outer loop
         vertex 5.592445e+002 7.683500e+002 3.524250e+001
         vertex 5.528945e+002 3.492500e+002 3.524250e+001
         vertex 5.528945e+002 7.683500e+002 3.524250e+001
      endloop
   endfacet
   facet normal -1.000000e+000 8.726354e-017 -1.942890e-016
      outer loop
         vertex 5.528945e+002 3.492500e+002 7.334250e+001
         vertex 5.528945e+002 7.683500e+002 7.334250e+001
         vertex 5.528945e+002 3.492500e+002 3.524250e+001
      endloop
   endfacet
   facet normal -1.000000e+000 8.726354e-017 -1.942890e-016
      outer loop
         vertex 5.528945e+002 3.492500e+002 3.524250e+001
         vertex 5.528945e+002 7.683500e+002 7.334250e+001
         vertex 5.528945e+002 7.683500e+002 3.524250e+001
      endloop
   endfacet
   facet normal -2.449004e-017 1.000000e+000 3.177449e-017
      outer loop
         vertex 5.592445e+002 7.683500e+002 3.524250e+001
         vertex 5.528945e+002 7.683500e+002 3.524250e+001
         vertex 5.592445e+002 7.683500e+002 6.699249e+001
      endloop
   endfacet
   facet normal -2.449004e-017 1.000000e+000 3.177449e-017
      outer loop
         vertex 5.592445e+002 7.683500e+002 6.699249e+001
         vertex 5.528945e+002 7.683500e+002 3.524250e+001
         vertex 5.528945e+002 7.683500e+002 7.334250e+001
      endloop
   endfacet
   facet normal -2.449004e-017 1.000000e+000 3.177449e-017
      outer loop
         vertex 5.592445e+002 7.683500e+002 6.699249e+001
         vertex 5.528945e+002 7.683500e+002 7.334250e+001
         vertex 5.909945e+002 7.683500e+002 6.699249e+001
      endloop
   endfacet
   facet normal -2.449004e-017 1.000000e+000 3.177449e-017
      outer loop
         vertex 5.909945e+002 7.683500e+002 6.699249e+001
         vertex 5.528945e+002 7.683500e+002 7.334250e+001
         vertex 5.909945e+002 7.683500e+002 7.334250e+001
      endloop
   endfacet
   facet normal 2.449004e-017 -1.000000e+000 -3.177449e-017
      outer loop
         vertex 5.909945e+002 3.492500e+002 6.699249e+001
         vertex 5.909945e+002 3.492500e+002 7.334250e+001
         vertex 5.592445e+002 3.492500e+002 6.699249e+001
      endloop
   endfacet
   facet normal 2.449004e-017 -1.000000e+000 -3.177449e-017
      outer loop
         vertex 5.592445e+002 3.492500e+002 6.699249e+001
         vertex 5.909945e+002 3.492500e+002 7.334250e+001
         vertex 5.528945e+002 3.492500e+002 7.334250e+001
      endloop
   endfacet
   facet normal 2.449004e-017 -1.000000e+000 -3.177449e-017
      outer loop
         vertex 5.592445e+002 3.492500e+002 6.699249e+001
         vertex 5.528945e+002 3.492500e+002 7.334250e+001
         vertex 5.592445e+002 3.492500e+002 3.524250e+001
      endloop
   endfacet
   facet normal 2.449004e-017 -1.000000e+000 -3.177449e-017
      outer loop
         vertex 5.592445e+002 3.492500e+002 3.524250e+001
         vertex 5.528945e+002 3.492500e+002 7.334250e+001
         vertex 5.528945e+002 3.492500e+002 3.524250e+001
      endloop
   endfacet
   facet normal 5.807914e-002 -9.983120e-001 7.272012e-018
      outer loop
         vertex 5.740168e+002 6.686124e+002 7.334250e+001
         vertex 5.751195e+002 6.687089e+002 6.699249e+001
         vertex 5.751195e+002 6.687089e+002 7.334250e+001
      endloop
   endfacet
   facet normal -5.807914e-002 -9.983120e-001 -1.529627e-017
      outer loop
         vertex 5.751195e+002 6.687089e+002 7.334250e+001
         vertex 5.751195e+002 6.687089e+002 6.699249e+001
         vertex 5.762222e+002 6.686124e+002 6.699249e+001
      endloop
   endfacet
   facet normal -1.161583e-001 -9.932307e-001 -2.655999e-017
      outer loop
         vertex 5.751195e+002 6.687089e+002 7.334250e+001
         vertex 5.762222e+002 6.686124e+002 6.699249e+001
         vertex 5.762222e+002 6.686124e+002 7.334250e+001
      endloop
   endfacet
   facet normal -2.305519e-001 -9.730600e-001 -4.870434e-017
      outer loop
         vertex 5.762222e+002 6.686124e+002 7.334250e+001
         vertex 5.762222e+002 6.686124e+002 6.699249e+001
         vertex 5.772913e+002 6.683259e+002 6.699249e+001
      endloop
   endfacet
   facet normal -2.868663e-001 -9.579706e-001 -5.958497e-017
      outer loop
         vertex 5.762222e+002 6.686124e+002 7.334250e+001
         vertex 5.772913e+002 6.683259e+002 6.699249e+001
         vertex 5.772913e+002 6.683259e+002 7.334250e+001
      endloop
   endfacet
   facet normal -3.960194e-001 -9.182422e-001 -8.063255e-017
      outer loop
         vertex 5.772913e+002 6.683259e+002 7.334250e+001
         vertex 5.772913e+002 6.683259e+002 6.699249e+001
         vertex 5.782945e+002 6.678582e+002 6.699249e+001
      endloop
   endfacet
   facet normal -4.488580e-001 -8.936031e-001 -9.079950e-017
      outer loop
         vertex 5.772913e+002 6.683259e+002 7.334250e+001
         vertex 5.782945e+002 6.678582e+002 6.699249e+001
         vertex 5.782945e+002 6.678582e+002 7.334250e+001
      endloop
   endfacet
   facet normal -5.494540e-001 -8.355240e-001 -1.101108e-016
      outer loop
         vertex 5.782945e+002 6.678582e+002 7.334250e+001
         vertex 5.782945e+002 6.678582e+002 6.699249e+001
         vertex 5.792012e+002 6.672233e+002 6.699249e+001
      endloop
   endfacet
   facet normal -5.972114e-001 -8.020839e-001 -1.192551e-016
      outer loop
         vertex 5.782945e+002 6.678582e+002 7.334250e+001
         vertex 5.792012e+002 6.672233e+002 6.699249e+001
         vertex 5.792012e+002 6.672233e+002 7.334250e+001
      endloop
   endfacet
   facet normal -6.861938e-001 -7.274188e-001 -1.362434e-016
      outer loop
         vertex 5.792012e+002 6.672233e+002 7.334250e+001
         vertex 5.792012e+002 6.672233e+002 6.699249e+001
         vertex 5.799839e+002 6.664406e+002 6.699249e+001
      endloop
   endfacet
   facet normal -7.274188e-001 -6.861938e-001 -1.440872e-016
      outer loop
         vertex 5.792012e+002 6.672233e+002 7.334250e+001
         vertex 5.799839e+002 6.664406e+002 6.699249e+001
         vertex 5.799839e+002 6.664406e+002 7.334250e+001
      endloop
   endfacet
   facet normal -8.020839e-001 -5.972114e-001 -1.582362e-016
      outer loop
         vertex 5.799839e+002 6.664406e+002 7.334250e+001
         vertex 5.799839e+002 6.664406e+002 6.699249e+001
         vertex 5.806187e+002 6.655339e+002 6.699249e+001
      endloop
   endfacet
   facet normal -8.355240e-001 -5.494540e-001 -1.645413e-016
      outer loop
         vertex 5.799839e+002 6.664406e+002 7.334250e+001
         vertex 5.806187e+002 6.655339e+002 6.699249e+001
         vertex 5.806187e+002 6.655339e+002 7.334250e+001
      endloop
   endfacet
   facet normal -8.936031e-001 -4.488580e-001 -1.754212e-016
      outer loop
         vertex 5.806187e+002 6.655339e+002 7.334250e+001
         vertex 5.806187e+002 6.655339e+002 6.699249e+001
         vertex 5.810865e+002 6.645307e+002 6.699249e+001
      endloop
   endfacet
   facet normal -9.182422e-001 -3.960194e-001 -1.799959e-016
      outer loop
         vertex 5.806187e+002 6.655339e+002 7.334250e+001
         vertex 5.810865e+002 6.645307e+002 6.699249e+001
         vertex 5.810865e+002 6.645307e+002 7.334250e+001
      endloop
   endfacet
   facet normal -9.579706e-001 -2.868663e-001 -1.872761e-016
      outer loop
         vertex 5.810865e+002 6.645307e+002 7.334250e+001
         vertex 5.810865e+002 6.645307e+002 6.699249e+001
         vertex 5.813730e+002 6.634615e+002 6.699249e+001
      endloop
   endfacet
   facet normal -9.730600e-001 -2.305519e-001 -1.899815e-016
      outer loop
         vertex 5.810865e+002 6.645307e+002 7.334250e+001
         vertex 5.813730e+002 6.634615e+002 6.699249e+001
         vertex 5.813730e+002 6.634615e+002 7.334250e+001
      endloop
   endfacet
   facet normal -9.932307e-001 -1.161583e-001 -1.934407e-016
      outer loop
         vertex 5.813730e+002 6.634615e+002 7.334250e+001
         vertex 5.813730e+002 6.634615e+002 6.699249e+001
         vertex 5.814695e+002 6.623589e+002 6.699249e+001
      endloop
   endfacet
   facet normal -9.983120e-001 -5.807914e-002 -1.941945e-016
      outer loop
         vertex 5.813730e+002 6.634615e+002 7.334250e+001
         vertex 5.814695e+002 6.623589e+002 6.699249e+001
         vertex 5.814695e+002 6.623589e+002 7.334250e+001
      endloop
   endfacet
   facet normal -9.983120e-001 5.807914e-002 -1.937276e-016
      outer loop
         vertex 5.814695e+002 6.623589e+002 7.334250e+001
         vertex 5.814695e+002 6.623589e+002 6.699249e+001
         vertex 5.813730e+002 6.612562e+002 6.699249e+001
      endloop
   endfacet
   facet normal -9.932307e-001 1.161583e-001 -1.925070e-016
      outer loop
         vertex 5.814695e+002 6.623589e+002 7.334250e+001
         vertex 5.813730e+002 6.612562e+002 6.699249e+001
         vertex 5.813730e+002 6.612562e+002 7.334250e+001
      endloop
   endfacet
   facet normal -9.730600e-001 2.305519e-001 -1.881283e-016
      outer loop
         vertex 5.813730e+002 6.612562e+002 7.334250e+001
         vertex 5.813730e+002 6.612562e+002 6.699249e+001
         vertex 5.810865e+002 6.601871e+002 6.699249e+001
      endloop
   endfacet
   facet normal -9.579706e-001 2.868663e-001 -1.849703e-016
      outer loop
         vertex 5.813730e+002 6.612562e+002 7.334250e+001
         vertex 5.810865e+002 6.601871e+002 6.699249e+001
         vertex 5.810865e+002 6.601871e+002 7.334250e+001
      endloop
   endfacet
   facet normal -9.182422e-001 3.960194e-001 -1.768128e-016
      outer loop
         vertex 5.810865e+002 6.601871e+002 7.334250e+001
         vertex 5.810865e+002 6.601871e+002 6.699249e+001
         vertex 5.806187e+002 6.591838e+002 6.699249e+001
      endloop
   endfacet
   facet normal -8.936031e-001 4.488580e-001 -1.718134e-016
      outer loop
         vertex 5.810865e+002 6.601871e+002 7.334250e+001
         vertex 5.806187e+002 6.591838e+002 6.699249e+001
         vertex 5.806187e+002 6.591838e+002 7.334250e+001
      endloop
   endfacet
   facet normal -8.355240e-001 5.494540e-001 -1.601249e-016
      outer loop
         vertex 5.806187e+002 6.591838e+002 7.334250e+001
         vertex 5.806187e+002 6.591838e+002 6.699249e+001
         vertex 5.799839e+002 6.582772e+002 6.699249e+001
      endloop
   endfacet
   facet normal -8.020839e-001 5.972114e-001 -1.534360e-016
      outer loop
         vertex 5.806187e+002 6.591838e+002 7.334250e+001
         vertex 5.799839e+002 6.582772e+002 6.699249e+001
         vertex 5.799839e+002 6.582772e+002 7.334250e+001
      endloop
   endfacet
   facet normal -7.274188e-001 6.861938e-001 -1.385717e-016
      outer loop
         vertex 5.799839e+002 6.582772e+002 7.334250e+001
         vertex 5.799839e+002 6.582772e+002 6.699249e+001
         vertex 5.792012e+002 6.574945e+002 6.699249e+001
      endloop
   endfacet
   facet normal -6.861938e-001 7.274188e-001 -1.303965e-016
      outer loop
         vertex 5.799839e+002 6.582772e+002 7.334250e+001
         vertex 5.792012e+002 6.574945e+002 6.699249e+001
         vertex 5.792012e+002 6.574945e+002 7.334250e+001
      endloop
   endfacet
   facet normal -5.972114e-001 8.020839e-001 -1.128081e-016
      outer loop
         vertex 5.792012e+002 6.574945e+002 7.334250e+001
         vertex 5.792012e+002 6.574945e+002 6.699249e+001
         vertex 5.782945e+002 6.568596e+002 6.699249e+001
      endloop
   endfacet
   facet normal -5.494540e-001 8.355240e-001 -1.033950e-016
      outer loop
         vertex 5.792012e+002 6.574945e+002 7.334250e+001
         vertex 5.782945e+002 6.568596e+002 6.699249e+001
         vertex 5.782945e+002 6.568596e+002 7.334250e+001
      endloop
   endfacet
   facet normal -4.488580e-001 8.936031e-001 -8.361688e-017
      outer loop
         vertex 5.782945e+002 6.568596e+002 7.334250e+001
         vertex 5.782945e+002 6.568596e+002 6.699249e+001
         vertex 5.772913e+002 6.563918e+002 6.699249e+001
      endloop
   endfacet
   facet normal -3.960194e-001 9.182422e-001 -7.325189e-017
      outer loop
         vertex 5.782945e+002 6.568596e+002 7.334250e+001
         vertex 5.772913e+002 6.563918e+002 6.699249e+001
         vertex 5.772913e+002 6.563918e+002 7.334250e+001
      endloop
   endfacet
   facet normal -2.868663e-001 9.579706e-001 -5.188497e-017
      outer loop
         vertex 5.772913e+002 6.563918e+002 7.334250e+001
         vertex 5.772913e+002 6.563918e+002 6.699249e+001
         vertex 5.762222e+002 6.561053e+002 6.699249e+001
      endloop
   endfacet
   facet normal -2.305519e-001 9.730600e-001 -4.088305e-017
      outer loop
         vertex 5.772913e+002 6.563918e+002 7.334250e+001
         vertex 5.762222e+002 6.561053e+002 6.699249e+001
         vertex 5.762222e+002 6.561053e+002 7.334250e+001
      endloop
   endfacet
   facet normal -1.161583e-001 9.932307e-001 -1.857657e-017
      outer loop
         vertex 5.762222e+002 6.561053e+002 7.334250e+001
         vertex 5.762222e+002 6.561053e+002 6.699249e+001
         vertex 5.751195e+002 6.560089e+002 6.699249e+001
      endloop
   endfacet
   facet normal -5.807914e-002 9.983120e-001 -7.272012e-018
      outer loop
         vertex 5.762222e+002 6.561053e+002 7.334250e+001
         vertex 5.751195e+002 6.560089e+002 6.699249e+001
         vertex 5.751195e+002 6.560089e+002 7.334250e+001
      endloop
   endfacet
   facet normal 5.807914e-002 9.983120e-001 1.529627e-017
      outer loop
         vertex 5.751195e+002 6.560089e+002 7.334250e+001
         vertex 5.751195e+002 6.560089e+002 6.699249e+001
         vertex 5.740168e+002 6.561053e+002 6.699249e+001
      endloop
   endfacet
   facet normal 1.161583e-001 9.932307e-001 2.655999e-017
      outer loop
         vertex 5.751195e+002 6.560089e+002 7.334250e+001
         vertex 5.740168e+002 6.561053e+002 6.699249e+001
         vertex 5.740168e+002 6.561053e+002 7.334250e+001
      endloop
   endfacet
   facet normal 2.305519e-001 9.730600e-001 4.870434e-017
      outer loop
         vertex 5.740168e+002 6.561053e+002 7.334250e+001
         vertex 5.740168e+002 6.561053e+002 6.699249e+001
         vertex 5.729477e+002 6.563918e+002 6.699249e+001
      endloop
   endfacet
   facet normal 2.868663e-001 9.579706e-001 5.958497e-017
      outer loop
         vertex 5.740168e+002 6.561053e+002 7.334250e+001
         vertex 5.729477e+002 6.563918e+002 6.699249e+001
         vertex 5.729477e+002 6.563918e+002 7.334250e+001
      endloop
   endfacet
   facet normal 3.960194e-001 9.182422e-001 8.063255e-017
      outer loop
         vertex 5.729477e+002 6.563918e+002 7.334250e+001
         vertex 5.729477e+002 6.563918e+002 6.699249e+001
         vertex 5.719445e+002 6.568596e+002 6.699249e+001
      endloop
   endfacet
   facet normal 4.488580e-001 8.936031e-001 9.079950e-017
      outer loop
         vertex 5.729477e+002 6.563918e+002 7.334250e+001
         vertex 5.719445e+002 6.568596e+002 6.699249e+001
         vertex 5.719445e+002 6.568596e+002 7.334250e+001
      endloop
   endfacet
   facet normal 5.494540e-001 8.355240e-001 1.101108e-016
      outer loop
         vertex 5.719445e+002 6.568596e+002 7.334250e+001
         vertex 5.719445e+002 6.568596e+002 6.699249e+001
         vertex 5.710378e+002 6.574945e+002 6.699249e+001
      endloop
   endfacet
   facet normal 5.972114e-001 8.020839e-001 1.192551e-016
      outer loop
         vertex 5.719445e+002 6.568596e+002 7.334250e+001
         vertex 5.710378e+002 6.574945e+002 6.699249e+001
         vertex 5.710378e+002 6.574945e+002 7.334250e+001
      endloop
   endfacet
   facet normal 6.861938e-001 7.274188e-001 1.362434e-016
      outer loop
         vertex 5.710378e+002 6.574945e+002 7.334250e+001
         vertex 5.710378e+002 6.574945e+002 6.699249e+001
         vertex 5.702551e+002 6.582772e+002 6.699249e+001
      endloop
   endfacet
   facet normal 7.274188e-001 6.861938e-001 1.440872e-016
      outer loop
         vertex 5.710378e+002 6.574945e+002 7.334250e+001
         vertex 5.702551e+002 6.582772e+002 6.699249e+001
         vertex 5.702551e+002 6.582772e+002 7.334250e+001
      endloop
   endfacet
   facet normal 8.020839e-001 5.972114e-001 1.582362e-016
      outer loop
         vertex 5.702551e+002 6.582772e+002 7.334250e+001
         vertex 5.702551e+002 6.582772e+002 6.699249e+001
         vertex 5.696202e+002 6.591838e+002 6.699249e+001
      endloop
   endfacet
   facet normal 8.355240e-001 5.494540e-001 1.645413e-016
      outer loop
         vertex 5.702551e+002 6.582772e+002 7.334250e+001
         vertex 5.696202e+002 6.591838e+002 6.699249e+001
         vertex 5.696202e+002 6.591838e+002 7.334250e+001
      endloop
   endfacet
   facet normal 8.936031e-001 4.488580e-001 1.754212e-016
      outer loop
         vertex 5.696202e+002 6.591838e+002 7.334250e+001
         vertex 5.696202e+002 6.591838e+002 6.699249e+001
         vertex 5.691525e+002 6.601871e+002 6.699249e+001
      endloop
   endfacet
   facet normal 9.182422e-001 3.960194e-001 1.799959e-016
      outer loop
         vertex 5.696202e+002 6.591838e+002 7.334250e+001
         vertex 5.691525e+002 6.601871e+002 6.699249e+001
         vertex 5.691525e+002 6.601871e+002 7.334250e+001
      endloop
   endfacet
   facet normal 9.579706e-001 2.868663e-001 1.872761e-016
      outer loop
         vertex 5.691525e+002 6.601871e+002 7.334250e+001
         vertex 5.691525e+002 6.601871e+002 6.699249e+001
         vertex 5.688660e+002 6.612562e+002 6.699249e+001
      endloop
   endfacet
   facet normal 9.730600e-001 2.305519e-001 1.899815e-016
      outer loop
         vertex 5.691525e+002 6.601871e+002 7.334250e+001
         vertex 5.688660e+002 6.612562e+002 6.699249e+001
         vertex 5.688660e+002 6.612562e+002 7.334250e+001
      endloop
   endfacet
   facet normal 9.932307e-001 1.161583e-001 1.934407e-016
      outer loop
         vertex 5.688660e+002 6.612562e+002 7.334250e+001
         vertex 5.688660e+002 6.612562e+002 6.699249e+001
         vertex 5.687695e+002 6.623589e+002 6.699249e+001
      endloop
   endfacet
   facet normal 9.983120e-001 5.807914e-002 1.941945e-016
      outer loop
         vertex 5.688660e+002 6.612562e+002 7.334250e+001
         vertex 5.687695e+002 6.623589e+002 6.699249e+001
         vertex 5.687695e+002 6.623589e+002 7.334250e+001
      endloop
   endfacet
   facet normal 9.983120e-001 -5.807914e-002 1.937276e-016
      outer loop
         vertex 5.687695e+002 6.623589e+002 7.334250e+001
         vertex 5.687695e+002 6.623589e+002 6.699249e+001
         vertex 5.688660e+002 6.634615e+002 6.699249e+001
      endloop
   endfacet
   facet normal 9.932307e-001 -1.161583e-001 1.925070e-016
      outer loop
         vertex 5.687695e+002 6.623589e+002 7.334250e+001
         vertex 5.688660e+002 6.634615e+002 6.699249e+001
         vertex 5.688660e+002 6.634615e+002 7.334250e+001
      endloop
   endfacet
   facet normal 9.730600e-001 -2.305519e-001 1.881283e-016
      outer loop
         vertex 5.688660e+002 6.634615e+002 7.334250e+001
         vertex 5.688660e+002 6.634615e+002 6.699249e+001
         vertex 5.691525e+002 6.645307e+002 6.699249e+001
      endloop
   endfacet
   facet normal 9.579706e-001 -2.868663e-001 1.849703e-016
      outer loop
         vertex 5.688660e+002 6.634615e+002 7.334250e+001
         vertex 5.691525e+002 6.645307e+002 6.699249e+001
         vertex 5.691525e+002 6.645307e+002 7.334250e+001
      endloop
   endfacet
   facet normal 9.182422e-001 -3.960194e-001 1.768128e-016
      outer loop
         vertex 5.691525e+002 6.645307e+002 7.334250e+001
         vertex 5.691525e+002 6.645307e+002 6.699249e+001
         vertex 5.696202e+002 6.655339e+002 6.699249e+001
      endloop
   endfacet
   facet normal 8.936031e-001 -4.488580e-001 1.718134e-016
      outer loop
         vertex 5.691525e+002 6.645307e+002 7.334250e+001
         vertex 5.696202e+002 6.655339e+002 6.699249e+001
         vertex 5.696202e+002 6.655339e+002 7.334250e+001
      endloop
   endfacet
   facet normal 8.355240e-001 -5.494540e-001 1.601249e-016
      outer loop
         vertex 5.696202e+002 6.655339e+002 7.334250e+001
         vertex 5.696202e+002 6.655339e+002 6.699249e+001
         vertex 5.702551e+002 6.664406e+002 6.699249e+001
      endloop
   endfacet
   facet normal 8.020839e-001 -5.972114e-001 1.534360e-016
      outer loop
         vertex 5.696202e+002 6.655339e+002 7.334250e+001
         vertex 5.702551e+002 6.664406e+002 6.699249e+001
         vertex 5.702551e+002 6.664406e+002 7.334250e+001
      endloop
   endfacet
   facet normal 7.274188e-001 -6.861938e-001 1.385717e-016
      outer loop
         vertex 5.702551e+002 6.664406e+002 7.334250e+001
         vertex 5.702551e+002 6.664406e+002 6.699249e+001
         vertex 5.710378e+002 6.672233e+002 6.699249e+001
      endloop
   endfacet
   facet normal 6.861938e-001 -7.274188e-001 1.303965e-016
      outer loop
         vertex 5.702551e+002 6.664406e+002 7.334250e+001
         vertex 5.710378e+002 6.672233e+002 6.699249e+001
         vertex 5.710378e+002 6.672233e+002 7.334250e+001
      endloop
   endfacet
   facet normal 5.972114e-001 -8.020839e-001 1.128081e-016
      outer loop
         vertex 5.710378e+002 6.672233e+002 7.334250e+001
         vertex 5.710378e+002 6.672233e+002 6.699249e+001
         vertex 5.719445e+002 6.678582e+002 6.699249e+001
      endloop
   endfacet
   facet normal 5.494540e-001 -8.355240e-001 1.033950e-016
      outer loop
         vertex 5.710378e+002 6.672233e+002 7.334250e+001
         vertex 5.719445e+002 6.678582e+002 6.699249e+001
         vertex 5.719445e+002 6.678582e+002 7.334250e+001
      endloop
   endfacet
   facet normal 4.488580e-001 -8.936031e-001 8.361688e-017
      outer loop
         vertex 5.719445e+002 6.678582e+002 7.334250e+001
         vertex 5.719445e+002 6.678582e+002 6.699249e+001
         vertex 5.729477e+002 6.683259e+002 6.699249e+001
      endloop
   endfacet
   facet normal 3.960194e-001 -9.182422e-001 7.325189e-017
      outer loop
         vertex 5.719445e+002 6.678582e+002 7.334250e+001
         vertex 5.729477e+002 6.683259e+002 6.699249e+001
         vertex 5.729477e+002 6.683259e+002 7.334250e+001
      endloop
   endfacet
   facet normal 2.868663e-001 -9.579706e-001 5.188497e-017
      outer loop
         vertex 5.729477e+002 6.683259e+002 7.334250e+001
         vertex 5.729477e+002 6.683259e+002 6.699249e+001
         vertex 5.740168e+002 6.686124e+002 6.699249e+001
      endloop
   endfacet
   facet normal 2.305519e-001 -9.730600e-001 4.088305e-017
      outer loop
         vertex 5.729477e+002 6.683259e+002 7.334250e+001
         vertex 5.740168e+002 6.686124e+002 6.699249e+001
         vertex 5.740168e+002 6.686124e+002 7.334250e+001
      endloop
   endfacet
   facet normal 1.161583e-001 -9.932307e-001 1.857657e-017
      outer loop
         vertex 5.740168e+002 6.686124e+002 7.334250e+001
         vertex 5.740168e+002 6.686124e+002 6.699249e+001
         vertex 5.751195e+002 6.687089e+002 6.699249e+001
      endloop
   endfacet
   facet normal 5.807914e-002 -9.983120e-001 7.272012e-018
      outer loop
         vertex 5.740168e+002 6.305124e+002 7.334250e+001
         vertex 5.751195e+002 6.306089e+002 6.699249e+001
         vertex 5.751195e+002 6.306089e+002 7.334250e+001
      endloop
   endfacet
   facet normal -5.807914e-002 -9.983120e-001 -1.529627e-017
      outer loop
         vertex 5.751195e+002 6.306089e+002 7.334250e+001
         vertex 5.751195e+002 6.306089e+002 6.699249e+001
         vertex 5.762222e+002 6.305124e+002 6.699249e+001
      endloop
   endfacet
   facet normal -1.161583e-001 -9.932307e-001 -2.655999e-017
      outer loop
         vertex 5.751195e+002 6.306089e+002 7.334250e+001
         vertex 5.762222e+002 6.305124e+002 6.699249e+001
         vertex 5.762222e+002 6.305124e+002 7.334250e+001
      endloop
   endfacet
   facet normal -2.305519e-001 -9.730600e-001 -4.870434e-017
      outer loop
         vertex 5.762222e+002 6.305124e+002 7.334250e+001
         vertex 5.762222e+002 6.305124e+002 6.699249e+001
         vertex 5.772913e+002 6.302259e+002 6.699249e+001
      endloop
   endfacet
   facet normal -2.868663e-001 -9.579706e-001 -5.958497e-017
      outer loop
         vertex 5.762222e+002 6.305124e+002 7.334250e+001
         vertex 5.772913e+002 6.302259e+002 6.699249e+001
         vertex 5.772913e+002 6.302259e+002 7.334250e+001
      endloop
   endfacet
   facet normal -3.960194e-001 -9.182422e-001 -8.063255e-017
      outer loop
         vertex 5.772913e+002 6.302259e+002 7.334250e+001
         vertex 5.772913e+002 6.302259e+002 6.699249e+001
         vertex 5.782945e+002 6.297581e+002 6.699249e+001
      endloop
   endfacet
   facet normal -4.488580e-001 -8.936031e-001 -9.079950e-017
      outer loop
         vertex 5.772913e+002 6.302259e+002 7.334250e+001
         vertex 5.782945e+002 6.297581e+002 6.699249e+001
         vertex 5.782945e+002 6.297581e+002 7.334250e+001
      endloop
   endfacet
   facet normal -5.494540e-001 -8.355240e-001 -1.101108e-016
      outer loop
         vertex 5.782945e+002 6.297581e+002 7.334250e+001
         vertex 5.782945e+002 6.297581e+002 6.699249e+001
         vertex 5.792012e+002 6.291233e+002 6.699249e+001
      endloop
   endfacet
   facet normal -5.972114e-001 -8.020839e-001 -1.192551e-016
      outer loop
         vertex 5.782945e+002 6.297581e+002 7.334250e+001
         vertex 5.792012e+002 6.291233e+002 6.699249e+001
         vertex 5.792012e+002 6.291233e+002 7.334250e+001
      endloop
   endfacet
   facet normal -6.861938e-001 -7.274188e-001 -1.362434e-016
      outer loop
         vertex 5.792012e+002 6.291233e+002 7.334250e+001
         vertex 5.792012e+002 6.291233e+002 6.699249e+001
         vertex 5.799839e+002 6.283406e+002 6.699249e+001
      endloop
   endfacet
   facet normal -7.274188e-001 -6.861938e-001 -1.440872e-016
      outer loop
         vertex 5.792012e+002 6.291233e+002 7.334250e+001
         vertex 5.799839e+002 6.283406e+002 6.699249e+001
         vertex 5.799839e+002 6.283406e+002 7.334250e+001
      endloop
   endfacet
   facet normal -8.020839e-001 -5.972114e-001 -1.582362e-016
      outer loop
         vertex 5.799839e+002 6.283406e+002 7.334250e+001
         vertex 5.799839e+002 6.283406e+002 6.699249e+001
         vertex 5.806187e+002 6.274339e+002 6.699249e+001
      endloop
   endfacet
   facet normal -8.355240e-001 -5.494540e-001 -1.645413e-016
      outer loop
         vertex 5.799839e+002 6.283406e+002 7.334250e+001
         vertex 5.806187e+002 6.274339e+002 6.699249e+001
         vertex 5.806187e+002 6.274339e+002 7.334250e+001
      endloop
   endfacet
   facet normal -8.936031e-001 -4.488580e-001 -1.754212e-016
      outer loop
         vertex 5.806187e+002 6.274339e+002 7.334250e+001
         vertex 5.806187e+002 6.274339e+002 6.699249e+001
         vertex 5.810865e+002 6.264307e+002 6.699249e+001
      endloop
   endfacet
   facet normal -9.182422e-001 -3.960194e-001 -1.799959e-016
      outer loop
         vertex 5.806187e+002 6.274339e+002 7.334250e+001
         vertex 5.810865e+002 6.264307e+002 6.699249e+001
         vertex 5.810865e+002 6.264307e+002 7.334250e+001
      endloop
   endfacet
   facet normal -9.579706e-001 -2.868663e-001 -1.872761e-016
      outer loop
         vertex 5.810865e+002 6.264307e+002 7.334250e+001
         vertex 5.810865e+002 6.264307e+002 6.699249e+001
         vertex 5.813730e+002 6.253616e+002 6.699249e+001
      endloop
   endfacet
   facet normal -9.730600e-001 -2.305519e-001 -1.899815e-016
      outer loop
         vertex 5.810865e+002 6.264307e+002 7.334250e+001
         vertex 5.813730e+002 6.253616e+002 6.699249e+001
         vertex 5.813730e+002 6.253616e+002 7.334250e+001
      endloop
   endfacet
   facet normal -9.932307e-001 -1.161583e-001 -1.934407e-016
      outer loop
         vertex 5.813730e+002 6.253616e+002 7.334250e+001
         vertex 5.813730e+002 6.253616e+002 6.699249e+001
         vertex 5.814695e+002 6.242589e+002 6.699249e+001
      endloop
   endfacet
   facet normal -9.983120e-001 -5.807914e-002 -1.941945e-016
      outer loop
         vertex 5.813730e+002 6.253616e+002 7.334250e+001
         vertex 5.814695e+002 6.242589e+002 6.699249e+001
         vertex 5.814695e+002 6.242589e+002 7.334250e+001
      endloop
   endfacet
   facet normal -9.983120e-001 5.807914e-002 -1.937276e-016
      outer loop
         vertex 5.814695e+002 6.242589e+002 7.334250e+001
         vertex 5.814695e+002 6.242589e+002 6.699249e+001
         vertex 5.813730e+002 6.231562e+002 6.699249e+001
      endloop
   endfacet
   facet normal -9.932307e-001 1.161583e-001 -1.925070e-016
      outer loop
         vertex 5.814695e+002 6.242589e+002 7.334250e+001
         vertex 5.813730e+002 6.231562e+002 6.699249e+001
         vertex 5.813730e+002 6.231562e+002 7.334250e+001
      endloop
   endfacet
   facet normal -9.730600e-001 2.305519e-001 -1.881283e-016
      outer loop
         vertex 5.813730e+002 6.231562e+002 7.334250e+001
         vertex 5.813730e+002 6.231562e+002 6.699249e+001
         vertex 5.810865e+002 6.220870e+002 6.699249e+001
      endloop
   endfacet
   facet normal -9.579706e-001 2.868663e-001 -1.849703e-016
      outer loop
         vertex 5.813730e+002 6.231562e+002 7.334250e+001
         vertex 5.810865e+002 6.220870e+002 6.699249e+001
         vertex 5.810865e+002 6.220870e+002 7.334250e+001
      endloop
   endfacet
   facet normal -9.182422e-001 3.960194e-001 -1.768128e-016
      outer loop
         vertex 5.810865e+002 6.220870e+002 7.334250e+001
         vertex 5.810865e+002 6.220870e+002 6.699249e+001
         vertex 5.806187e+002 6.210839e+002 6.699249e+001
      endloop
   endfacet
   facet normal -8.936031e-001 4.488580e-001 -1.718134e-016
      outer loop
         vertex 5.810865e+002 6.220870e+002 7.334250e+001
         vertex 5.806187e+002 6.210839e+002 6.699249e+001
         vertex 5.806187e+002 6.210839e+002 7.334250e+001
      endloop
   endfacet
   facet normal -8.355240e-001 5.494540e-001 -1.601249e-016
      outer loop
         vertex 5.806187e+002 6.210839e+002 7.334250e+001
         vertex 5.806187e+002 6.210839e+002 6.699249e+001
         vertex 5.799839e+002 6.201771e+002 6.699249e+001
      endloop
   endfacet
   facet normal -8.020839e-001 5.972114e-001 -1.534360e-016
      outer loop
         vertex 5.806187e+002 6.210839e+002 7.334250e+001
         vertex 5.799839e+002 6.201771e+002 6.699249e+001
         vertex 5.799839e+002 6.201771e+002 7.334250e+001
      endloop
   endfacet
   facet normal -7.274188e-001 6.861938e-001 -1.385717e-016
      outer loop
         vertex 5.799839e+002 6.201771e+002 7.334250e+001
         vertex 5.799839e+002 6.201771e+002 6.699249e+001
         vertex 5.792012e+002 6.193945e+002 6.699249e+001
      endloop
   endfacet
   facet normal -6.861938e-001 7.274188e-001 -1.303965e-016
      outer loop
         vertex 5.799839e+002 6.201771e+002 7.334250e+001
         vertex 5.792012e+002 6.193945e+002 6.699249e+001
         vertex 5.792012e+002 6.193945e+002 7.334250e+001
      endloop
   endfacet
   facet normal -5.972114e-001 8.020839e-001 -1.128081e-016
      outer loop
         vertex 5.792012e+002 6.193945e+002 7.334250e+001
         vertex 5.792012e+002 6.193945e+002 6.699249e+001
         vertex 5.782945e+002 6.187596e+002 6.699249e+001
      endloop
   endfacet
   facet normal -5.494540e-001 8.355240e-001 -1.033950e-016
      outer loop
         vertex 5.792012e+002 6.193945e+002 7.334250e+001
         vertex 5.782945e+002 6.187596e+002 6.699249e+001
         vertex 5.782945e+002 6.187596e+002 7.334250e+001
      endloop
   endfacet
   facet normal -4.488580e-001 8.936031e-001 -8.361688e-017
      outer loop
         vertex 5.782945e+002 6.187596e+002 7.334250e+001
         vertex 5.782945e+002 6.187596e+002 6.699249e+001
         vertex 5.772913e+002 6.182918e+002 6.699249e+001
      endloop
   endfacet
   facet normal -3.960194e-001 9.182422e-001 -7.325189e-017
      outer loop
         vertex 5.782945e+002 6.187596e+002 7.334250e+001
         vertex 5.772913e+002 6.182918e+002 6.699249e+001
         vertex 5.772913e+002 6.182918e+002 7.334250e+001
      endloop
   endfacet
   facet normal -2.868663e-001 9.579706e-001 -5.188497e-017
      outer loop
         vertex 5.772913e+002 6.182918e+002 7.334250e+001
         vertex 5.772913e+002 6.182918e+002 6.699249e+001
         vertex 5.762222e+002 6.180053e+002 6.699249e+001
      endloop
   endfacet
   facet normal -2.305519e-001 9.730600e-001 -4.088305e-017
      outer loop
         vertex 5.772913e+002 6.182918e+002 7.334250e+001
         vertex 5.762222e+002 6.180053e+002 6.699249e+001
         vertex 5.762222e+002 6.180053e+002 7.334250e+001
      endloop
   endfacet
   facet normal -1.161583e-001 9.932307e-001 -1.857657e-017
      outer loop
         vertex 5.762222e+002 6.180053e+002 7.334250e+001
         vertex 5.762222e+002 6.180053e+002 6.699249e+001
         vertex 5.751195e+002 6.179089e+002 6.699249e+001
      endloop
   endfacet
   facet normal -5.807914e-002 9.983120e-001 -7.272012e-018
      outer loop
         vertex 5.762222e+002 6.180053e+002 7.334250e+001
         vertex 5.751195e+002 6.179089e+002 6.699249e+001
         vertex 5.751195e+002 6.179089e+002 7.334250e+001
      endloop
   endfacet
   facet normal 5.807914e-002 9.983120e-001 1.529627e-017
      outer loop
         vertex 5.751195e+002 6.179089e+002 7.334250e+001
         vertex 5.751195e+002 6.179089e+002 6.699249e+001
         vertex 5.740168e+002 6.180053e+002 6.699249e+001
      endloop
   endfacet
   facet normal 1.161583e-001 9.932307e-001 2.655999e-017
      outer loop
         vertex 5.751195e+002 6.179089e+002 7.334250e+001
         vertex 5.740168e+002 6.180053e+002 6.699249e+001
         vertex 5.740168e+002 6.180053e+002 7.334250e+001
      endloop
   endfacet
   facet normal 2.305519e-001 9.730600e-001 4.870434e-017
      outer loop
         vertex 5.740168e+002 6.180053e+002 7.334250e+001
         vertex 5.740168e+002 6.180053e+002 6.699249e+001
         vertex 5.729477e+002 6.182918e+002 6.699249e+001
      endloop
   endfacet
   facet normal 2.868663e-001 9.579706e-001 5.958497e-017
      outer loop
         vertex 5.740168e+002 6.180053e+002 7.334250e+001
         vertex 5.729477e+002 6.182918e+002 6.699249e+001
         vertex 5.729477e+002 6.182918e+002 7.334250e+001
      endloop
   endfacet
   facet normal 3.960194e-001 9.182422e-001 8.063255e-017
      outer loop
         vertex 5.729477e+002 6.182918e+002 7.334250e+001
         vertex 5.729477e+002 6.182918e+002 6.699249e+001
         vertex 5.719445e+002 6.187596e+002 6.699249e+001
      endloop
   endfacet
   facet normal 4.488580e-001 8.936031e-001 9.079950e-017
      outer loop
         vertex 5.729477e+002 6.182918e+002 7.334250e+001
         vertex 5.719445e+002 6.187596e+002 6.699249e+001
         vertex 5.719445e+002 6.187596e+002 7.334250e+001
      endloop
   endfacet
   facet normal 5.494540e-001 8.355240e-001 1.101108e-016
      outer loop
         vertex 5.719445e+002 6.187596e+002 7.334250e+001
         vertex 5.719445e+002 6.187596e+002 6.699249e+001
         vertex 5.710378e+002 6.193945e+002 6.699249e+001
      endloop
   endfacet
   facet normal 5.972114e-001 8.020839e-001 1.192551e-016
      outer loop
         vertex 5.719445e+002 6.187596e+002 7.334250e+001
         vertex 5.710378e+002 6.193945e+002 6.699249e+001
         vertex 5.710378e+002 6.193945e+002 7.334250e+001
      endloop
   endfacet
   facet normal 6.861938e-001 7.274188e-001 1.362434e-016
      outer loop
         vertex 5.710378e+002 6.193945e+002 7.334250e+001
         vertex 5.710378e+002 6.193945e+002 6.699249e+001
         vertex 5.702551e+002 6.201771e+002 6.699249e+001
      endloop
   endfacet
   facet normal 7.274188e-001 6.861938e-001 1.440872e-016
      outer loop
         vertex 5.710378e+002 6.193945e+002 7.334250e+001
         vertex 5.702551e+002 6.201771e+002 6.699249e+001
         vertex 5.702551e+002 6.201771e+002 7.334250e+001
      endloop
   endfacet
   facet normal 8.020839e-001 5.972114e-001 1.582362e-016
      outer loop
         vertex 5.702551e+002 6.201771e+002 7.334250e+001
         vertex 5.702551e+002 6.201771e+002 6.699249e+001
         vertex 5.696202e+002 6.210839e+002 6.699249e+001
      endloop
   endfacet
   facet normal 8.355240e-001 5.494540e-001 1.645413e-016
      outer loop
         vertex 5.702551e+002 6.201771e+002 7.334250e+001
         vertex 5.696202e+002 6.210839e+002 6.699249e+001
         vertex 5.696202e+002 6.210839e+002 7.334250e+001
      endloop
   endfacet
   facet normal 8.936031e-001 4.488580e-001 1.754212e-016
      outer loop
         vertex 5.696202e+002 6.210839e+002 7.334250e+001
         vertex 5.696202e+002 6.210839e+002 6.699249e+001
         vertex 5.691525e+002 6.220870e+002 6.699249e+001
      endloop
   endfacet
   facet normal 9.182422e-001 3.960194e-001 1.799959e-016
      outer loop
         vertex 5.696202e+002 6.210839e+002 7.334250e+001
         vertex 5.691525e+002 6.220870e+002 6.699249e+001
         vertex 5.691525e+002 6.220870e+002 7.334250e+001
      endloop
   endfacet
   facet normal 9.579706e-001 2.868663e-001 1.872761e-016
      outer loop
         vertex 5.691525e+002 6.220870e+002 7.334250e+001
         vertex 5.691525e+002 6.220870e+002 6.699249e+001
         vertex 5.688660e+002 6.231562e+002 6.699249e+001
      endloop
   endfacet
   facet normal 9.730600e-001 2.305519e-001 1.899815e-016
      outer loop
         vertex 5.691525e+002 6.220870e+002 7.334250e+001
         vertex 5.688660e+002 6.231562e+002 6.699249e+001
         vertex 5.688660e+002 6.231562e+002 7.334250e+001
      endloop
   endfacet
   facet normal 9.932307e-001 1.161583e-001 1.934407e-016
      outer loop
         vertex 5.688660e+002 6.231562e+002 7.334250e+001
         vertex 5.688660e+002 6.231562e+002 6.699249e+001
         vertex 5.687695e+002 6.242589e+002 6.699249e+001
      endloop
   endfacet
   facet normal 9.983120e-001 5.807914e-002 1.941945e-016
      outer loop
         vertex 5.688660e+002 6.231562e+002 7.334250e+001
         vertex 5.687695e+002 6.242589e+002 6.699249e+001
         vertex 5.687695e+002 6.242589e+002 7.334250e+001
      endloop
   endfacet
   facet normal 9.983120e-001 -5.807914e-002 1.937276e-016
      outer loop
         vertex 5.687695e+002 6.242589e+002 7.334250e+001
         vertex 5.687695e+002 6.242589e+002 6.699249e+001
         vertex 5.688660e+002 6.253616e+002 6.699249e+001
      endloop
   endfacet
   facet normal 9.932307e-001 -1.161583e-001 1.925070e-016
      outer loop
         vertex 5.687695e+002 6.242589e+002 7.334250e+001
         vertex 5.688660e+002 6.253616e+002 6.699249e+001
         vertex 5.688660e+002 6.253616e+002 7.334250e+001
      endloop
   endfacet
   facet normal 9.730600e-001 -2.305519e-001 1.881283e-016
      outer loop
         vertex 5.688660e+002 6.253616e+002 7.334250e+001
         vertex 5.688660e+002 6.253616e+002 6.699249e+001
         vertex 5.691525e+002 6.264307e+002 6.699249e+001
      endloop
   endfacet
   facet normal 9.579706e-001 -2.868663e-001 1.849703e-016
      outer loop
         vertex 5.688660e+002 6.253616e+002 7.334250e+001
         vertex 5.691525e+002 6.264307e+002 6.699249e+001
         vertex 5.691525e+002 6.264307e+002 7.334250e+001
      endloop
   endfacet
   facet normal 9.182422e-001 -3.960194e-001 1.768128e-016
      outer loop
         vertex 5.691525e+002 6.264307e+002 7.334250e+001
         vertex 5.691525e+002 6.264307e+002 6.699249e+001
         vertex 5.696202e+002 6.274339e+002 6.699249e+001
      endloop
   endfacet
   facet normal 8.936031e-001 -4.488580e-001 1.718134e-016
      outer loop
         vertex 5.691525e+002 6.264307e+002 7.334250e+001
         vertex 5.696202e+002 6.274339e+002 6.699249e+001
         vertex 5.696202e+002 6.274339e+002 7.334250e+001
      endloop
   endfacet
   facet normal 8.355240e-001 -5.494540e-001 1.601249e-016
      outer loop
         vertex 5.696202e+002 6.274339e+002 7.334250e+001
         vertex 5.696202e+002 6.274339e+002 6.699249e+001
         vertex 5.702551e+002 6.283406e+002 6.699249e+001
      endloop
   endfacet
   facet normal 8.020839e-001 -5.972114e-001 1.534360e-016
      outer loop
         vertex 5.696202e+002 6.274339e+002 7.334250e+001
         vertex 5.702551e+002 6.283406e+002 6.699249e+001
         vertex 5.702551e+002 6.283406e+002 7.334250e+001
      endloop
   endfacet
   facet normal 7.274188e-001 -6.861938e-001 1.385717e-016
      outer loop
         vertex 5.702551e+002 6.283406e+002 7.334250e+001
         vertex 5.702551e+002 6.283406e+002 6.699249e+001
         vertex 5.710378e+002 6.291233e+002 6.699249e+001
      endloop
   endfacet
   facet normal 6.861938e-001 -7.274188e-001 1.303965e-016
      outer loop
         vertex 5.702551e+002 6.283406e+002 7.334250e+001
         vertex 5.710378e+002 6.291233e+002 6.699249e+001
         vertex 5.710378e+002 6.291233e+002 7.334250e+001
      endloop
   endfacet
   facet normal 5.972114e-001 -8.020839e-001 1.128081e-016
      outer loop
         vertex 5.710378e+002 6.291233e+002 7.334250e+001
         vertex 5.710378e+002 6.291233e+002 6.699249e+001
         vertex 5.719445e+002 6.297581e+002 6.699249e+001
      endloop
   endfacet
   facet normal 5.494540e-001 -8.355240e-001 1.033950e-016
      outer loop
         vertex 5.710378e+002 6.291233e+002 7.334250e+001
         vertex 5.719445e+002 6.297581e+002 6.699249e+001
         vertex 5.719445e+002 6.297581e+002 7.334250e+001
      endloop
   endfacet
   facet normal 4.488580e-001 -8.936031e-001 8.361688e-017
      outer loop
         vertex 5.719445e+002 6.297581e+002 7.334250e+001
         vertex 5.719445e+002 6.297581e+002 6.699249e+001
         vertex 5.729477e+002 6.302259e+002 6.699249e+001
      endloop
   endfacet
   facet normal 3.960194e-001 -9.182422e-001 7.325189e-017
      outer loop
         vertex 5.719445e+002 6.297581e+002 7.334250e+001
         vertex 5.729477e+002 6.302259e+002 6.699249e+001
         vertex 5.729477e+002 6.302259e+002 7.334250e+001
      endloop
   endfacet
   facet normal 2.868663e-001 -9.579706e-001 5.188497e-017
      outer loop
         vertex 5.729477e+002 6.302259e+002 7.334250e+001
         vertex 5.729477e+002 6.302259e+002 6.699249e+001
         vertex 5.740168e+002 6.305124e+002 6.699249e+001
      endloop
   endfacet
   facet normal 2.305519e-001 -9.730600e-001 4.088305e-017
      outer loop
         vertex 5.729477e+002 6.302259e+002 7.334250e+001
         vertex 5.740168e+002 6.305124e+002 6.699249e+001
         vertex 5.740168e+002 6.305124e+002 7.334250e+001
      endloop
   endfacet
   facet normal 1.161583e-001 -9.932307e-001 1.857657e-017
      outer loop
         vertex 5.740168e+002 6.305124e+002 7.334250e+001
         vertex 5.740168e+002 6.305124e+002 6.699249e+001
         vertex 5.751195e+002 6.306089e+002 6.699249e+001
      endloop
   endfacet
endsolid