solid PumpAssembly - PumpExtention-2 PinL-1
   facet normal 9.962947e-001 2.981709e-016 -8.600465e-002
      outer loop
         vertex 2.345688e+002 9.912605e+001 4.185616e+001
         vertex 2.346189e+002 1.291261e+002 4.228904e+001
         vertex 2.346189e+002 9.912605e+001 4.228904e+001
      endloop
   endfacet
   facet normal 9.995466e-001 4.991989e-017 3.010810e-002
      outer loop
         vertex 2.346189e+002 9.912605e+001 4.228904e+001
         vertex 2.346189e+002 1.291261e+002 4.228904e+001
         vertex 2.345931e+002 1.291261e+002 4.272406e+001
      endloop
   endfacet
   facet normal 9.960933e-001 -7.509152e-017 8.830673e-002
      outer loop
         vertex 2.346189e+002 9.912605e+001 4.228904e+001
         vertex 2.345931e+002 1.291261e+002 4.272406e+001
         vertex 2.345931e+002 9.912605e+001 4.272406e+001
      endloop
   endfacet
   facet normal 9.791331e-001 -3.230877e-016 2.032202e-001
      outer loop
         vertex 2.345931e+002 9.912605e+001 4.272406e+001
         vertex 2.345931e+002 1.291261e+002 4.272406e+001
         vertex 2.344921e+002 1.291261e+002 4.314798e+001
      endloop
   endfacet
   facet normal 9.656261e-001 -4.460724e-016 2.599349e-001
      outer loop
         vertex 2.345931e+002 9.912605e+001 4.272406e+001
         vertex 2.344921e+002 1.291261e+002 4.314798e+001
         vertex 2.344921e+002 9.912605e+001 4.314798e+001
      endloop
   endfacet
   facet normal 9.289690e-001 -6.862783e-016 3.701575e-001
      outer loop
         vertex 2.344921e+002 9.912605e+001 4.314798e+001
         vertex 2.344921e+002 1.291261e+002 4.314798e+001
         vertex 2.343191e+002 1.291261e+002 4.354793e+001
      endloop
   endfacet
   facet normal 9.058189e-001 -8.034995e-016 4.236652e-001
      outer loop
         vertex 2.344921e+002 9.912605e+001 4.314798e+001
         vertex 2.343191e+002 1.291261e+002 4.354793e+001
         vertex 2.343191e+002 9.912605e+001 4.354793e+001
      endloop
   endfacet
   facet normal 8.505787e-001 -1.028617e-015 5.258477e-001
      outer loop
         vertex 2.343191e+002 9.912605e+001 4.354793e+001
         vertex 2.343191e+002 1.291261e+002 4.354793e+001
         vertex 2.340792e+002 1.291261e+002 4.391175e+001
      endloop
   endfacet
   facet normal 8.184888e-001 -1.136513e-015 5.745226e-001
      outer loop
         vertex 2.343191e+002 9.912605e+001 4.354793e+001
         vertex 2.340792e+002 1.291261e+002 4.391175e+001
         vertex 2.340792e+002 9.912605e+001 4.391175e+001
      endloop
   endfacet
   facet normal 7.463440e-001 -1.339701e-015 6.655604e-001
      outer loop
         vertex 2.340792e+002 9.912605e+001 4.391175e+001
         vertex 2.340792e+002 1.291261e+002 4.391175e+001
         vertex 2.337798e+002 1.291261e+002 4.422840e+001
      endloop
   endfacet
   facet normal 7.062893e-001 -1.434994e-015 7.079233e-001
      outer loop
         vertex 2.340792e+002 9.912605e+001 4.391175e+001
         vertex 2.337798e+002 1.291261e+002 4.422840e+001
         vertex 2.337798e+002 9.912605e+001 4.422840e+001
      endloop
   endfacet
   facet normal 6.194321e-001 -1.610079e-015 7.850503e-001
      outer loop
         vertex 2.337798e+002 9.912605e+001 4.422840e+001
         vertex 2.337798e+002 1.291261e+002 4.422840e+001
         vertex 2.334300e+002 1.291261e+002 4.448825e+001
      endloop
   endfacet
   facet normal 5.726296e-001 -1.689873e-015 8.198142e-001
      outer loop
         vertex 2.337798e+002 9.912605e+001 4.422840e+001
         vertex 2.334300e+002 1.291261e+002 4.448825e+001
         vertex 2.334300e+002 9.912605e+001 4.448825e+001
      endloop
   endfacet
   facet normal 4.736990e-001 -1.831536e-015 8.806868e-001
      outer loop
         vertex 2.334300e+002 9.912605e+001 4.448825e+001
         vertex 2.334300e+002 1.291261e+002 4.448825e+001
         vertex 2.330403e+002 1.291261e+002 4.468340e+001
      endloop
   endfacet
   facet normal 4.215709e-001 -1.893406e-015 9.067954e-001
      outer loop
         vertex 2.334300e+002 9.912605e+001 4.448825e+001
         vertex 2.330403e+002 1.291261e+002 4.468340e+001
         vertex 2.330403e+002 9.912605e+001 4.468340e+001
      endloop
   endfacet
   facet normal 3.135727e-001 -1.997343e-015 9.495642e-001
      outer loop
         vertex 2.330403e+002 9.912605e+001 4.468340e+001
         vertex 2.330403e+002 1.291261e+002 4.468340e+001
         vertex 2.326227e+002 1.291261e+002 4.480793e+001
      endloop
   endfacet
   facet normal 2.577028e-001 -2.039409e-015 9.662243e-001
      outer loop
         vertex 2.330403e+002 9.912605e+001 4.468340e+001
         vertex 2.326227e+002 1.291261e+002 4.480793e+001
         vertex 2.326227e+002 9.912605e+001 4.480793e+001
      endloop
   endfacet
   facet normal 1.439188e-001 -2.102461e-015 9.895895e-001
      outer loop
         vertex 2.326227e+002 9.912605e+001 4.480793e+001
         vertex 2.326227e+002 1.291261e+002 4.480793e+001
         vertex 2.321898e+002 1.291261e+002 4.485806e+001
      endloop
   endfacet
   facet normal 8.600465e-002 -2.123446e-015 9.962947e-001
      outer loop
         vertex 2.326227e+002 9.912605e+001 4.480793e+001
         vertex 2.321898e+002 1.291261e+002 4.485806e+001
         vertex 2.321898e+002 9.912605e+001 4.485806e+001
      endloop
   endfacet
   facet normal -3.010810e-002 -2.143697e-015 9.995466e-001
      outer loop
         vertex 2.321898e+002 9.912605e+001 4.485806e+001
         vertex 2.321898e+002 1.291261e+002 4.485806e+001
         vertex 2.317548e+002 1.291261e+002 4.483224e+001
      endloop
   endfacet
   facet normal -8.830673e-002 -2.142963e-015 9.960933e-001
      outer loop
         vertex 2.321898e+002 9.912605e+001 4.485806e+001
         vertex 2.317548e+002 1.291261e+002 4.483224e+001
         vertex 2.317548e+002 9.912605e+001 4.483224e+001
      endloop
   endfacet
   facet normal -2.032202e-001 -2.119798e-015 9.791331e-001
      outer loop
         vertex 2.317548e+002 9.912605e+001 4.483224e+001
         vertex 2.317548e+002 1.291261e+002 4.483224e+001
         vertex 2.313309e+002 1.291261e+002 4.473128e+001
      endloop
   endfacet
   facet normal -2.599349e-001 -2.097367e-015 9.656261e-001
      outer loop
         vertex 2.317548e+002 9.912605e+001 4.483224e+001
         vertex 2.313309e+002 1.291261e+002 4.473128e+001
         vertex 2.313309e+002 9.912605e+001 4.473128e+001
      endloop
   endfacet
   facet normal -3.701575e-001 -2.031490e-015 9.289690e-001
      outer loop
         vertex 2.313309e+002 9.912605e+001 4.473128e+001
         vertex 2.313309e+002 1.291261e+002 4.473128e+001
         vertex 2.309310e+002 1.291261e+002 4.455824e+001
      endloop
   endfacet
   facet normal -4.236652e-001 -1.988044e-015 9.058189e-001
      outer loop
         vertex 2.313309e+002 9.912605e+001 4.473128e+001
         vertex 2.309310e+002 1.291261e+002 4.455824e+001
         vertex 2.309310e+002 9.912605e+001 4.455824e+001
      endloop
   endfacet
   facet normal -5.258477e-001 -1.881456e-015 8.505787e-001
      outer loop
         vertex 2.309310e+002 9.912605e+001 4.455824e+001
         vertex 2.309310e+002 1.291261e+002 4.455824e+001
         vertex 2.305671e+002 1.291261e+002 4.431838e+001
      endloop
   endfacet
   facet normal -5.745226e-001 -1.818315e-015 8.184888e-001
      outer loop
         vertex 2.309310e+002 9.912605e+001 4.455824e+001
         vertex 2.305671e+002 1.291261e+002 4.431838e+001
         vertex 2.305671e+002 9.912605e+001 4.431838e+001
      endloop
   endfacet
   facet normal -6.655604e-001 -1.674255e-015 7.463440e-001
      outer loop
         vertex 2.305671e+002 9.912605e+001 4.431838e+001
         vertex 2.305671e+002 1.291261e+002 4.431838e+001
         vertex 2.302505e+002 1.291261e+002 4.401899e+001
      endloop
   endfacet
   facet normal -7.079233e-001 -1.593337e-015 7.062893e-001
      outer loop
         vertex 2.305671e+002 9.912605e+001 4.431838e+001
         vertex 2.302505e+002 1.291261e+002 4.401899e+001
         vertex 2.302505e+002 9.912605e+001 4.401899e+001
      endloop
   endfacet
   facet normal -7.850503e-001 -1.416183e-015 6.194321e-001
      outer loop
         vertex 2.302505e+002 9.912605e+001 4.401899e+001
         vertex 2.302505e+002 1.291261e+002 4.401899e+001
         vertex 2.299906e+002 1.291261e+002 4.366915e+001
      endloop
   endfacet
   facet normal -8.198142e-001 -1.319947e-015 5.726296e-001
      outer loop
         vertex 2.302505e+002 9.912605e+001 4.401899e+001
         vertex 2.299906e+002 1.291261e+002 4.366915e+001
         vertex 2.299906e+002 9.912605e+001 4.366915e+001
      endloop
   endfacet
   facet normal -8.806868e-001 -1.115081e-015 4.736990e-001
      outer loop
         vertex 2.299906e+002 9.912605e+001 4.366915e+001
         vertex 2.299906e+002 1.291261e+002 4.366915e+001
         vertex 2.297955e+002 1.291261e+002 4.327951e+001
      endloop
   endfacet
   facet normal -9.067954e-001 -1.006451e-015 4.215709e-001
      outer loop
         vertex 2.299906e+002 9.912605e+001 4.366915e+001
         vertex 2.297955e+002 1.291261e+002 4.327951e+001
         vertex 2.297955e+002 9.912605e+001 4.327951e+001
      endloop
   endfacet
   facet normal -9.495642e-001 -7.800970e-016 3.135727e-001
      outer loop
         vertex 2.297955e+002 9.912605e+001 4.327951e+001
         vertex 2.297955e+002 1.291261e+002 4.327951e+001
         vertex 2.296710e+002 1.291261e+002 4.286191e+001
      endloop
   endfacet
   facet normal -9.662243e-001 -6.623737e-016 2.577028e-001
      outer loop
         vertex 2.297955e+002 9.912605e+001 4.327951e+001
         vertex 2.296710e+002 1.291261e+002 4.286191e+001
         vertex 2.296710e+002 9.912605e+001 4.286191e+001
      endloop
   endfacet
   facet normal -9.895895e-001 -4.214106e-016 1.439188e-001
      outer loop
         vertex 2.296710e+002 9.912605e+001 4.286191e+001
         vertex 2.296710e+002 1.291261e+002 4.286191e+001
         vertex 2.296208e+002 1.291261e+002 4.242902e+001
      endloop
   endfacet
   facet normal -9.962947e-001 -2.981709e-016 8.600465e-002
      outer loop
         vertex 2.296710e+002 9.912605e+001 4.286191e+001
         vertex 2.296208e+002 1.291261e+002 4.242902e+001
         vertex 2.296208e+002 9.912605e+001 4.242902e+001
      endloop
   endfacet
   facet normal -9.995466e-001 -4.991989e-017 -3.010810e-002
      outer loop
         vertex 2.296208e+002 9.912605e+001 4.242902e+001
         vertex 2.296208e+002 1.291261e+002 4.242902e+001
         vertex 2.296467e+002 1.291261e+002 4.199401e+001
      endloop
   endfacet
   facet normal -9.960933e-001 7.509152e-017 -8.830673e-002
      outer loop
         vertex 2.296208e+002 9.912605e+001 4.242902e+001
         vertex 2.296467e+002 1.291261e+002 4.199401e+001
         vertex 2.296467e+002 9.912605e+001 4.199401e+001
      endloop
   endfacet
   facet normal -9.791331e-001 3.230877e-016 -2.032202e-001
      outer loop
         vertex 2.296467e+002 9.912605e+001 4.199401e+001
         vertex 2.296467e+002 1.291261e+002 4.199401e+001
         vertex 2.297476e+002 1.291261e+002 4.157009e+001
      endloop
   endfacet
   facet normal -9.656261e-001 4.460724e-016 -2.599349e-001
      outer loop
         vertex 2.296467e+002 9.912605e+001 4.199401e+001
         vertex 2.297476e+002 1.291261e+002 4.157009e+001
         vertex 2.297476e+002 9.912605e+001 4.157009e+001
      endloop
   endfacet
   facet normal -9.289690e-001 6.862783e-016 -3.701575e-001
      outer loop
         vertex 2.297476e+002 9.912605e+001 4.157009e+001
         vertex 2.297476e+002 1.291261e+002 4.157009e+001
         vertex 2.299207e+002 1.291261e+002 4.117014e+001
      endloop
   endfacet
   facet normal -9.058189e-001 8.034995e-016 -4.236652e-001
      outer loop
         vertex 2.297476e+002 9.912605e+001 4.157009e+001
         vertex 2.299207e+002 1.291261e+002 4.117014e+001
         vertex 2.299207e+002 9.912605e+001 4.117014e+001
      endloop
   endfacet
   facet normal -8.505787e-001 1.028617e-015 -5.258477e-001
      outer loop
         vertex 2.299207e+002 9.912605e+001 4.117014e+001
         vertex 2.299207e+002 1.291261e+002 4.117014e+001
         vertex 2.301605e+002 1.291261e+002 4.080631e+001
      endloop
   endfacet
   facet normal -8.184888e-001 1.136513e-015 -5.745226e-001
      outer loop
         vertex 2.299207e+002 9.912605e+001 4.117014e+001
         vertex 2.301605e+002 1.291261e+002 4.080631e+001
         vertex 2.301605e+002 9.912605e+001 4.080631e+001
      endloop
   endfacet
   facet normal -7.463440e-001 1.339701e-015 -6.655604e-001
      outer loop
         vertex 2.301605e+002 9.912605e+001 4.080631e+001
         vertex 2.301605e+002 1.291261e+002 4.080631e+001
         vertex 2.304599e+002 1.291261e+002 4.048966e+001
      endloop
   endfacet
   facet normal -7.062893e-001 1.434994e-015 -7.079233e-001
      outer loop
         vertex 2.301605e+002 9.912605e+001 4.080631e+001
         vertex 2.304599e+002 1.291261e+002 4.048966e+001
         vertex 2.304599e+002 9.912605e+001 4.048966e+001
      endloop
   endfacet
   facet normal -6.194321e-001 1.610079e-015 -7.850503e-001
      outer loop
         vertex 2.304599e+002 9.912605e+001 4.048966e+001
         vertex 2.304599e+002 1.291261e+002 4.048966e+001
         vertex 2.308097e+002 1.291261e+002 4.022981e+001
      endloop
   endfacet
   facet normal -5.726296e-001 1.689873e-015 -8.198142e-001
      outer loop
         vertex 2.304599e+002 9.912605e+001 4.048966e+001
         vertex 2.308097e+002 1.291261e+002 4.022981e+001
         vertex 2.308097e+002 9.912605e+001 4.022981e+001
      endloop
   endfacet
   facet normal -4.736990e-001 1.831536e-015 -8.806868e-001
      outer loop
         vertex 2.308097e+002 9.912605e+001 4.022981e+001
         vertex 2.308097e+002 1.291261e+002 4.022981e+001
         vertex 2.311994e+002 1.291261e+002 4.003466e+001
      endloop
   endfacet
   facet normal -4.215709e-001 1.893406e-015 -9.067954e-001
      outer loop
         vertex 2.308097e+002 9.912605e+001 4.022981e+001
         vertex 2.311994e+002 1.291261e+002 4.003466e+001
         vertex 2.311994e+002 9.912605e+001 4.003466e+001
      endloop
   endfacet
   facet normal -3.135727e-001 1.997343e-015 -9.495642e-001
      outer loop
         vertex 2.311994e+002 9.912605e+001 4.003466e+001
         vertex 2.311994e+002 1.291261e+002 4.003466e+001
         vertex 2.316170e+002 1.291261e+002 3.991013e+001
      endloop
   endfacet
   facet normal -2.577028e-001 2.039409e-015 -9.662243e-001
      outer loop
         vertex 2.311994e+002 9.912605e+001 4.003466e+001
         vertex 2.316170e+002 1.291261e+002 3.991013e+001
         vertex 2.316170e+002 9.912605e+001 3.991013e+001
      endloop
   endfacet
   facet normal -1.439188e-001 2.102461e-015 -9.895895e-001
      outer loop
         vertex 2.316170e+002 9.912605e+001 3.991013e+001
         vertex 2.316170e+002 1.291261e+002 3.991013e+001
         vertex 2.320499e+002 1.291261e+002 3.986001e+001
      endloop
   endfacet
   facet normal -8.600465e-002 2.123446e-015 -9.962947e-001
      outer loop
         vertex 2.316170e+002 9.912605e+001 3.991013e+001
         vertex 2.320499e+002 1.291261e+002 3.986001e+001
         vertex 2.320499e+002 9.912605e+001 3.986001e+001
      endloop
   endfacet
   facet normal 3.010810e-002 2.143697e-015 -9.995466e-001
      outer loop
         vertex 2.320499e+002 9.912605e+001 3.986001e+001
         vertex 2.320499e+002 1.291261e+002 3.986001e+001
         vertex 2.324849e+002 1.291261e+002 3.988582e+001
      endloop
   endfacet
   facet normal 8.830673e-002 2.142963e-015 -9.960933e-001
      outer loop
         vertex 2.320499e+002 9.912605e+001 3.986001e+001
         vertex 2.324849e+002 1.291261e+002 3.988582e+001
         vertex 2.324849e+002 9.912605e+001 3.988582e+001
      endloop
   endfacet
   facet normal 2.032202e-001 2.119798e-015 -9.791331e-001
      outer loop
         vertex 2.324849e+002 9.912605e+001 3.988582e+001
         vertex 2.324849e+002 1.291261e+002 3.988582e+001
         vertex 2.329088e+002 1.291261e+002 3.998679e+001
      endloop
   endfacet
   facet normal 2.599349e-001 2.097367e-015 -9.656261e-001
      outer loop
         vertex 2.324849e+002 9.912605e+001 3.988582e+001
         vertex 2.329088e+002 1.291261e+002 3.998679e+001
         vertex 2.329088e+002 9.912605e+001 3.998679e+001
      endloop
   endfacet
   facet normal 3.701575e-001 2.031490e-015 -9.289690e-001
      outer loop
         vertex 2.329088e+002 9.912605e+001 3.998679e+001
         vertex 2.329088e+002 1.291261e+002 3.998679e+001
         vertex 2.333088e+002 1.291261e+002 4.015982e+001
      endloop
   endfacet
   facet normal 4.236652e-001 1.988044e-015 -9.058189e-001
      outer loop
         vertex 2.329088e+002 9.912605e+001 3.998679e+001
         vertex 2.333088e+002 1.291261e+002 4.015982e+001
         vertex 2.333088e+002 9.912605e+001 4.015982e+001
      endloop
   endfacet
   facet normal 5.258477e-001 1.881456e-015 -8.505787e-001
      outer loop
         vertex 2.333088e+002 9.912605e+001 4.015982e+001
         vertex 2.333088e+002 1.291261e+002 4.015982e+001
         vertex 2.336726e+002 1.291261e+002 4.039968e+001
      endloop
   endfacet
   facet normal 5.745226e-001 1.818315e-015 -8.184888e-001
      outer loop
         vertex 2.333088e+002 9.912605e+001 4.015982e+001
         vertex 2.336726e+002 1.291261e+002 4.039968e+001
         vertex 2.336726e+002 9.912605e+001 4.039968e+001
      endloop
   endfacet
   facet normal 6.655604e-001 1.674255e-015 -7.463440e-001
      outer loop
         vertex 2.336726e+002 9.912605e+001 4.039968e+001
         vertex 2.336726e+002 1.291261e+002 4.039968e+001
         vertex 2.339892e+002 1.291261e+002 4.069908e+001
      endloop
   endfacet
   facet normal 7.079233e-001 1.593337e-015 -7.062893e-001
      outer loop
         vertex 2.336726e+002 9.912605e+001 4.039968e+001
         vertex 2.339892e+002 1.291261e+002 4.069908e+001
         vertex 2.339892e+002 9.912605e+001 4.069908e+001
      endloop
   endfacet
   facet normal 7.850503e-001 1.416183e-015 -6.194321e-001
      outer loop
         vertex 2.339892e+002 9.912605e+001 4.069908e+001
         vertex 2.339892e+002 1.291261e+002 4.069908e+001
         vertex 2.342491e+002 1.291261e+002 4.104891e+001
      endloop
   endfacet
   facet normal 8.198142e-001 1.319947e-015 -5.726296e-001
      outer loop
         vertex 2.339892e+002 9.912605e+001 4.069908e+001
         vertex 2.342491e+002 1.291261e+002 4.104891e+001
         vertex 2.342491e+002 9.912605e+001 4.104891e+001
      endloop
   endfacet
   facet normal 8.806868e-001 1.115081e-015 -4.736990e-001
      outer loop
         vertex 2.342491e+002 9.912605e+001 4.104891e+001
         vertex 2.342491e+002 1.291261e+002 4.104891e+001
         vertex 2.344442e+002 1.291261e+002 4.143855e+001
      endloop
   endfacet
   facet normal 9.067954e-001 1.006451e-015 -4.215709e-001
      outer loop
         vertex 2.342491e+002 9.912605e+001 4.104891e+001
         vertex 2.344442e+002 1.291261e+002 4.143855e+001
         vertex 2.344442e+002 9.912605e+001 4.143855e+001
      endloop
   endfacet
   facet normal 9.495642e-001 7.800970e-016 -3.135727e-001
      outer loop
         vertex 2.344442e+002 9.912605e+001 4.143855e+001
         vertex 2.344442e+002 1.291261e+002 4.143855e+001
         vertex 2.345688e+002 1.291261e+002 4.185616e+001
      endloop
   endfacet
   facet normal 9.662243e-001 6.623737e-016 -2.577028e-001
      outer loop
         vertex 2.344442e+002 9.912605e+001 4.143855e+001
         vertex 2.345688e+002 1.291261e+002 4.185616e+001
         vertex 2.345688e+002 9.912605e+001 4.185616e+001
      endloop
   endfacet
   facet normal 9.895895e-001 4.214106e-016 -1.439188e-001
      outer loop
         vertex 2.345688e+002 9.912605e+001 4.185616e+001
         vertex 2.345688e+002 1.291261e+002 4.185616e+001
         vertex 2.346189e+002 1.291261e+002 4.228904e+001
      endloop
   endfacet
   facet normal -8.809916e-017 1.000000e+000 2.164935e-015
      outer loop
         vertex 2.340792e+002 1.291261e+002 4.391175e+001
         vertex 2.308097e+002 1.291261e+002 4.022981e+001
         vertex 2.337798e+002 1.291261e+002 4.422840e+001
      endloop
   endfacet
   facet normal -8.809916e-017 1.000000e+000 2.164935e-015
      outer loop
         vertex 2.337798e+002 1.291261e+002 4.422840e+001
         vertex 2.308097e+002 1.291261e+002 4.022981e+001
         vertex 2.334300e+002 1.291261e+002 4.448825e+001
      endloop
   endfacet
   facet normal -8.809916e-017 1.000000e+000 2.164935e-015
      outer loop
         vertex 2.308097e+002 1.291261e+002 4.022981e+001
         vertex 2.304599e+002 1.291261e+002 4.048966e+001
         vertex 2.334300e+002 1.291261e+002 4.448825e+001
      endloop
   endfacet
   facet normal -8.809916e-017 1.000000e+000 2.164935e-015
      outer loop
         vertex 2.334300e+002 1.291261e+002 4.448825e+001
         vertex 2.304599e+002 1.291261e+002 4.048966e+001
         vertex 2.301605e+002 1.291261e+002 4.080631e+001
      endloop
   endfacet
   facet normal -8.809916e-017 1.000000e+000 2.164935e-015
      outer loop
         vertex 2.334300e+002 1.291261e+002 4.448825e+001
         vertex 2.301605e+002 1.291261e+002 4.080631e+001
         vertex 2.330403e+002 1.291261e+002 4.468340e+001
      endloop
   endfacet
   facet normal -8.809916e-017 1.000000e+000 2.164935e-015
      outer loop
         vertex 2.330403e+002 1.291261e+002 4.468340e+001
         vertex 2.301605e+002 1.291261e+002 4.080631e+001
         vertex 2.326227e+002 1.291261e+002 4.480793e+001
      endloop
   endfacet
   facet normal -8.809916e-017 1.000000e+000 2.164935e-015
      outer loop
         vertex 2.345931e+002 1.291261e+002 4.272406e+001
         vertex 2.324849e+002 1.291261e+002 3.988582e+001
         vertex 2.344921e+002 1.291261e+002 4.314798e+001
      endloop
   endfacet
   facet normal -8.809916e-017 1.000000e+000 2.164935e-015
      outer loop
         vertex 2.344921e+002 1.291261e+002 4.314798e+001
         vertex 2.324849e+002 1.291261e+002 3.988582e+001
         vertex 2.320499e+002 1.291261e+002 3.986001e+001
      endloop
   endfacet
   facet normal -8.809916e-017 1.000000e+000 2.164935e-015
      outer loop
         vertex 2.344921e+002 1.291261e+002 4.314798e+001
         vertex 2.320499e+002 1.291261e+002 3.986001e+001
         vertex 2.316170e+002 1.291261e+002 3.991013e+001
      endloop
   endfacet
   facet normal -8.809916e-017 1.000000e+000 2.164935e-015
      outer loop
         vertex 2.340792e+002 1.291261e+002 4.391175e+001
         vertex 2.343191e+002 1.291261e+002 4.354793e+001
         vertex 2.308097e+002 1.291261e+002 4.022981e+001
      endloop
   endfacet
   facet normal -8.809916e-017 1.000000e+000 2.164935e-015
      outer loop
         vertex 2.308097e+002 1.291261e+002 4.022981e+001
         vertex 2.343191e+002 1.291261e+002 4.354793e+001
         vertex 2.344921e+002 1.291261e+002 4.314798e+001
      endloop
   endfacet
   facet normal -8.809916e-017 1.000000e+000 2.164935e-015
      outer loop
         vertex 2.308097e+002 1.291261e+002 4.022981e+001
         vertex 2.344921e+002 1.291261e+002 4.314798e+001
         vertex 2.311994e+002 1.291261e+002 4.003466e+001
      endloop
   endfacet
   facet normal -8.809916e-017 1.000000e+000 2.164935e-015
      outer loop
         vertex 2.311994e+002 1.291261e+002 4.003466e+001
         vertex 2.344921e+002 1.291261e+002 4.314798e+001
         vertex 2.316170e+002 1.291261e+002 3.991013e+001
      endloop
   endfacet
   facet normal -8.809916e-017 1.000000e+000 2.164935e-015
      outer loop
         vertex 2.296467e+002 1.291261e+002 4.199401e+001
         vertex 2.317548e+002 1.291261e+002 4.483224e+001
         vertex 2.297476e+002 1.291261e+002 4.157009e+001
      endloop
   endfacet
   facet normal -8.809916e-017 1.000000e+000 2.164935e-015
      outer loop
         vertex 2.297476e+002 1.291261e+002 4.157009e+001
         vertex 2.317548e+002 1.291261e+002 4.483224e+001
         vertex 2.299207e+002 1.291261e+002 4.117014e+001
      endloop
   endfacet
   facet normal -8.809916e-017 1.000000e+000 2.164935e-015
      outer loop
         vertex 2.299207e+002 1.291261e+002 4.117014e+001
         vertex 2.317548e+002 1.291261e+002 4.483224e+001
         vertex 2.301605e+002 1.291261e+002 4.080631e+001
      endloop
   endfacet
   facet normal -8.809916e-017 1.000000e+000 2.164935e-015
      outer loop
         vertex 2.301605e+002 1.291261e+002 4.080631e+001
         vertex 2.317548e+002 1.291261e+002 4.483224e+001
         vertex 2.321898e+002 1.291261e+002 4.485806e+001
      endloop
   endfacet
   facet normal -8.809916e-017 1.000000e+000 2.164935e-015
      outer loop
         vertex 2.301605e+002 1.291261e+002 4.080631e+001
         vertex 2.321898e+002 1.291261e+002 4.485806e+001
         vertex 2.326227e+002 1.291261e+002 4.480793e+001
      endloop
   endfacet
   facet normal -8.809916e-017 1.000000e+000 2.164935e-015
      outer loop
         vertex 2.345931e+002 1.291261e+002 4.272406e+001
         vertex 2.346189e+002 1.291261e+002 4.228904e+001
         vertex 2.324849e+002 1.291261e+002 3.988582e+001
      endloop
   endfacet
   facet normal -8.809916e-017 1.000000e+000 2.164935e-015
      outer loop
         vertex 2.324849e+002 1.291261e+002 3.988582e+001
         vertex 2.346189e+002 1.291261e+002 4.228904e+001
         vertex 2.345688e+002 1.291261e+002 4.185616e+001
      endloop
   endfacet
   facet normal -8.809916e-017 1.000000e+000 2.164935e-015
      outer loop
         vertex 2.324849e+002 1.291261e+002 3.988582e+001
         vertex 2.345688e+002 1.291261e+002 4.185616e+001
         vertex 2.344442e+002 1.291261e+002 4.143855e+001
      endloop
   endfacet
   facet normal -8.809916e-017 1.000000e+000 2.164935e-015
      outer loop
         vertex 2.296467e+002 1.291261e+002 4.199401e+001
         vertex 2.296208e+002 1.291261e+002 4.242902e+001
         vertex 2.317548e+002 1.291261e+002 4.483224e+001
      endloop
   endfacet
   facet normal -8.809916e-017 1.000000e+000 2.164935e-015
      outer loop
         vertex 2.317548e+002 1.291261e+002 4.483224e+001
         vertex 2.296208e+002 1.291261e+002 4.242902e+001
         vertex 2.296710e+002 1.291261e+002 4.286191e+001
      endloop
   endfacet
   facet normal -8.809916e-017 1.000000e+000 2.164935e-015
      outer loop
         vertex 2.317548e+002 1.291261e+002 4.483224e+001
         vertex 2.296710e+002 1.291261e+002 4.286191e+001
         vertex 2.297955e+002 1.291261e+002 4.327951e+001
      endloop
   endfacet
   facet normal -8.809916e-017 1.000000e+000 2.164935e-015
      outer loop
         vertex 2.313309e+002 1.291261e+002 4.473128e+001
         vertex 2.317548e+002 1.291261e+002 4.483224e+001
         vertex 2.309310e+002 1.291261e+002 4.455824e+001
      endloop
   endfacet
   facet normal -8.809916e-017 1.000000e+000 2.164935e-015
      outer loop
         vertex 2.309310e+002 1.291261e+002 4.455824e+001
         vertex 2.317548e+002 1.291261e+002 4.483224e+001
         vertex 2.305671e+002 1.291261e+002 4.431838e+001
      endloop
   endfacet
   facet normal -8.809916e-017 1.000000e+000 2.164935e-015
      outer loop
         vertex 2.339892e+002 1.291261e+002 4.069908e+001
         vertex 2.336726e+002 1.291261e+002 4.039968e+001
         vertex 2.333088e+002 1.291261e+002 4.015982e+001
      endloop
   endfacet
   facet normal -8.809916e-017 1.000000e+000 2.164935e-015
      outer loop
         vertex 2.297955e+002 1.291261e+002 4.327951e+001
         vertex 2.299906e+002 1.291261e+002 4.366915e+001
         vertex 2.317548e+002 1.291261e+002 4.483224e+001
      endloop
   endfacet
   facet normal -8.809916e-017 1.000000e+000 2.164935e-015
      outer loop
         vertex 2.317548e+002 1.291261e+002 4.483224e+001
         vertex 2.299906e+002 1.291261e+002 4.366915e+001
         vertex 2.302505e+002 1.291261e+002 4.401899e+001
      endloop
   endfacet
   facet normal -8.809916e-017 1.000000e+000 2.164935e-015
      outer loop
         vertex 2.317548e+002 1.291261e+002 4.483224e+001
         vertex 2.302505e+002 1.291261e+002 4.401899e+001
         vertex 2.305671e+002 1.291261e+002 4.431838e+001
      endloop
   endfacet
   facet normal -8.809916e-017 1.000000e+000 2.164935e-015
      outer loop
         vertex 2.344442e+002 1.291261e+002 4.143855e+001
         vertex 2.342491e+002 1.291261e+002 4.104891e+001
         vertex 2.324849e+002 1.291261e+002 3.988582e+001
      endloop
   endfacet
   facet normal -8.809916e-017 1.000000e+000 2.164935e-015
      outer loop
         vertex 2.324849e+002 1.291261e+002 3.988582e+001
         vertex 2.342491e+002 1.291261e+002 4.104891e+001
         vertex 2.339892e+002 1.291261e+002 4.069908e+001
      endloop
   endfacet
   facet normal -8.809916e-017 1.000000e+000 2.164935e-015
      outer loop
         vertex 2.324849e+002 1.291261e+002 3.988582e+001
         vertex 2.339892e+002 1.291261e+002 4.069908e+001
         vertex 2.329088e+002 1.291261e+002 3.998679e+001
      endloop
   endfacet
   facet normal -8.809916e-017 1.000000e+000 2.164935e-015
      outer loop
         vertex 2.329088e+002 1.291261e+002 3.998679e+001
         vertex 2.339892e+002 1.291261e+002 4.069908e+001
         vertex 2.333088e+002 1.291261e+002 4.015982e+001
      endloop
   endfacet
   facet normal -8.809916e-017 1.000000e+000 2.164935e-015
      outer loop
         vertex 2.345688e+002 9.912605e+001 4.185616e+001
         vertex 2.346189e+002 9.912605e+001 4.228904e+001
         vertex 2.354085e+002 9.912605e+001 3.476399e+001
      endloop
   endfacet
   facet normal -8.809916e-017 1.000000e+000 2.164935e-015
      outer loop
         vertex 2.344921e+002 9.912605e+001 4.314798e+001
         vertex 2.343191e+002 9.912605e+001 4.354793e+001
         vertex 2.358285e+002 9.912605e+001 4.975811e+001
      endloop
   endfacet
   facet normal -8.809916e-017 1.000000e+000 2.164935e-015
      outer loop
         vertex 2.308097e+002 9.912605e+001 4.022981e+001
         vertex 2.311994e+002 9.912605e+001 4.003466e+001
         vertex 2.284113e+002 9.912605e+001 3.495996e+001
      endloop
   endfacet
   facet normal -8.809916e-017 1.000000e+000 2.164935e-015
      outer loop
         vertex 2.354085e+002 9.912605e+001 3.476399e+001
         vertex 2.346189e+002 9.912605e+001 4.228904e+001
         vertex 2.358285e+002 9.912605e+001 4.975811e+001
      endloop
   endfacet
   facet normal -8.809916e-017 1.000000e+000 2.164935e-015
      outer loop
         vertex 2.358285e+002 9.912605e+001 4.975811e+001
         vertex 2.346189e+002 9.912605e+001 4.228904e+001
         vertex 2.345931e+002 9.912605e+001 4.272406e+001
      endloop
   endfacet
   facet normal -8.809916e-017 1.000000e+000 2.164935e-015
      outer loop
         vertex 2.358285e+002 9.912605e+001 4.975811e+001
         vertex 2.345931e+002 9.912605e+001 4.272406e+001
         vertex 2.344921e+002 9.912605e+001 4.314798e+001
      endloop
   endfacet
   facet normal -8.809916e-017 1.000000e+000 2.164935e-015
      outer loop
         vertex 2.311994e+002 9.912605e+001 4.003466e+001
         vertex 2.316170e+002 9.912605e+001 3.991013e+001
         vertex 2.284113e+002 9.912605e+001 3.495996e+001
      endloop
   endfacet
   facet normal -8.809916e-017 1.000000e+000 2.164935e-015
      outer loop
         vertex 2.284113e+002 9.912605e+001 3.495996e+001
         vertex 2.316170e+002 9.912605e+001 3.991013e+001
         vertex 2.320499e+002 9.912605e+001 3.986001e+001
      endloop
   endfacet
   facet normal -8.809916e-017 1.000000e+000 2.164935e-015
      outer loop
         vertex 2.284113e+002 9.912605e+001 3.495996e+001
         vertex 2.320499e+002 9.912605e+001 3.986001e+001
         vertex 2.354085e+002 9.912605e+001 3.476399e+001
      endloop
   endfacet
   facet normal -8.809916e-017 1.000000e+000 2.164935e-015
      outer loop
         vertex 2.354085e+002 9.912605e+001 3.476399e+001
         vertex 2.320499e+002 9.912605e+001 3.986001e+001
         vertex 2.324849e+002 9.912605e+001 3.988582e+001
      endloop
   endfacet
   facet normal -8.809916e-017 1.000000e+000 2.164935e-015
      outer loop
         vertex 2.354085e+002 9.912605e+001 3.476399e+001
         vertex 2.324849e+002 9.912605e+001 3.988582e+001
         vertex 2.329088e+002 9.912605e+001 3.998679e+001
      endloop
   endfacet
   facet normal -8.809916e-017 1.000000e+000 2.164935e-015
      outer loop
         vertex 2.343191e+002 9.912605e+001 4.354793e+001
         vertex 2.340792e+002 9.912605e+001 4.391175e+001
         vertex 2.358285e+002 9.912605e+001 4.975811e+001
      endloop
   endfacet
   facet normal -8.809916e-017 1.000000e+000 2.164935e-015
      outer loop
         vertex 2.358285e+002 9.912605e+001 4.975811e+001
         vertex 2.340792e+002 9.912605e+001 4.391175e+001
         vertex 2.337798e+002 9.912605e+001 4.422840e+001
      endloop
   endfacet
   facet normal -8.809916e-017 1.000000e+000 2.164935e-015
      outer loop
         vertex 2.358285e+002 9.912605e+001 4.975811e+001
         vertex 2.337798e+002 9.912605e+001 4.422840e+001
         vertex 2.334300e+002 9.912605e+001 4.448825e+001
      endloop
   endfacet
   facet normal -8.809916e-017 1.000000e+000 2.164935e-015
      outer loop
         vertex 2.329088e+002 9.912605e+001 3.998679e+001
         vertex 2.333088e+002 9.912605e+001 4.015982e+001
         vertex 2.354085e+002 9.912605e+001 3.476399e+001
      endloop
   endfacet
   facet normal -8.809916e-017 1.000000e+000 2.164935e-015
      outer loop
         vertex 2.354085e+002 9.912605e+001 3.476399e+001
         vertex 2.333088e+002 9.912605e+001 4.015982e+001
         vertex 2.336726e+002 9.912605e+001 4.039968e+001
      endloop
   endfacet
   facet normal -8.809916e-017 1.000000e+000 2.164935e-015
      outer loop
         vertex 2.354085e+002 9.912605e+001 3.476399e+001
         vertex 2.336726e+002 9.912605e+001 4.039968e+001
         vertex 2.339892e+002 9.912605e+001 4.069908e+001
      endloop
   endfacet
   facet normal -8.809916e-017 1.000000e+000 2.164935e-015
      outer loop
         vertex 2.334300e+002 9.912605e+001 4.448825e+001
         vertex 2.330403e+002 9.912605e+001 4.468340e+001
         vertex 2.358285e+002 9.912605e+001 4.975811e+001
      endloop
   endfacet
   facet normal -8.809916e-017 1.000000e+000 2.164935e-015
      outer loop
         vertex 2.358285e+002 9.912605e+001 4.975811e+001
         vertex 2.330403e+002 9.912605e+001 4.468340e+001
         vertex 2.326227e+002 9.912605e+001 4.480793e+001
      endloop
   endfacet
   facet normal -8.809916e-017 1.000000e+000 2.164935e-015
      outer loop
         vertex 2.358285e+002 9.912605e+001 4.975811e+001
         vertex 2.326227e+002 9.912605e+001 4.480793e+001
         vertex 2.288312e+002 9.912605e+001 4.995407e+001
      endloop
   endfacet
   facet normal -8.809916e-017 1.000000e+000 2.164935e-015
      outer loop
         vertex 2.288312e+002 9.912605e+001 4.995407e+001
         vertex 2.326227e+002 9.912605e+001 4.480793e+001
         vertex 2.321898e+002 9.912605e+001 4.485806e+001
      endloop
   endfacet
   facet normal -8.809916e-017 1.000000e+000 2.164935e-015
      outer loop
         vertex 2.288312e+002 9.912605e+001 4.995407e+001
         vertex 2.321898e+002 9.912605e+001 4.485806e+001
         vertex 2.317548e+002 9.912605e+001 4.483224e+001
      endloop
   endfacet
   facet normal -8.809916e-017 1.000000e+000 2.164935e-015
      outer loop
         vertex 2.339892e+002 9.912605e+001 4.069908e+001
         vertex 2.342491e+002 9.912605e+001 4.104891e+001
         vertex 2.354085e+002 9.912605e+001 3.476399e+001
      endloop
   endfacet
   facet normal -8.809916e-017 1.000000e+000 2.164935e-015
      outer loop
         vertex 2.354085e+002 9.912605e+001 3.476399e+001
         vertex 2.342491e+002 9.912605e+001 4.104891e+001
         vertex 2.344442e+002 9.912605e+001 4.143855e+001
      endloop
   endfacet
   facet normal -8.809916e-017 1.000000e+000 2.164935e-015
      outer loop
         vertex 2.354085e+002 9.912605e+001 3.476399e+001
         vertex 2.344442e+002 9.912605e+001 4.143855e+001
         vertex 2.345688e+002 9.912605e+001 4.185616e+001
      endloop
   endfacet
   facet normal -8.809916e-017 1.000000e+000 2.164935e-015
      outer loop
         vertex 2.317548e+002 9.912605e+001 4.483224e+001
         vertex 2.313309e+002 9.912605e+001 4.473128e+001
         vertex 2.288312e+002 9.912605e+001 4.995407e+001
      endloop
   endfacet
   facet normal -8.809916e-017 1.000000e+000 2.164935e-015
      outer loop
         vertex 2.288312e+002 9.912605e+001 4.995407e+001
         vertex 2.313309e+002 9.912605e+001 4.473128e+001
         vertex 2.309310e+002 9.912605e+001 4.455824e+001
      endloop
   endfacet
   facet normal -8.809916e-017 1.000000e+000 2.164935e-015
      outer loop
         vertex 2.288312e+002 9.912605e+001 4.995407e+001
         vertex 2.309310e+002 9.912605e+001 4.455824e+001
         vertex 2.305671e+002 9.912605e+001 4.431838e+001
      endloop
   endfacet
   facet normal -8.809916e-017 1.000000e+000 2.164935e-015
      outer loop
         vertex 2.305671e+002 9.912605e+001 4.431838e+001
         vertex 2.302505e+002 9.912605e+001 4.401899e+001
         vertex 2.288312e+002 9.912605e+001 4.995407e+001
      endloop
   endfacet
   facet normal -8.809916e-017 1.000000e+000 2.164935e-015
      outer loop
         vertex 2.288312e+002 9.912605e+001 4.995407e+001
         vertex 2.302505e+002 9.912605e+001 4.401899e+001
         vertex 2.299906e+002 9.912605e+001 4.366915e+001
      endloop
   endfacet
   facet normal -8.809916e-017 1.000000e+000 2.164935e-015
      outer loop
         vertex 2.288312e+002 9.912605e+001 4.995407e+001
         vertex 2.299906e+002 9.912605e+001 4.366915e+001
         vertex 2.297955e+002 9.912605e+001 4.327951e+001
      endloop
   endfacet
   facet normal -8.809916e-017 1.000000e+000 2.164935e-015
      outer loop
         vertex 2.284113e+002 9.912605e+001 3.495996e+001
         vertex 2.297476e+002 9.912605e+001 4.157009e+001
         vertex 2.299207e+002 9.912605e+001 4.117014e+001
      endloop
   endfacet
   facet normal -8.809916e-017 1.000000e+000 2.164935e-015
      outer loop
         vertex 2.297955e+002 9.912605e+001 4.327951e+001
         vertex 2.296710e+002 9.912605e+001 4.286191e+001
         vertex 2.288312e+002 9.912605e+001 4.995407e+001
      endloop
   endfacet
   facet normal -8.809916e-017 1.000000e+000 2.164935e-015
      outer loop
         vertex 2.288312e+002 9.912605e+001 4.995407e+001
         vertex 2.296710e+002 9.912605e+001 4.286191e+001
         vertex 2.296208e+002 9.912605e+001 4.242902e+001
      endloop
   endfacet
   facet normal -8.809916e-017 1.000000e+000 2.164935e-015
      outer loop
         vertex 2.288312e+002 9.912605e+001 4.995407e+001
         vertex 2.296208e+002 9.912605e+001 4.242902e+001
         vertex 2.284113e+002 9.912605e+001 3.495996e+001
      endloop
   endfacet
   facet normal -8.809916e-017 1.000000e+000 2.164935e-015
      outer loop
         vertex 2.284113e+002 9.912605e+001 3.495996e+001
         vertex 2.296208e+002 9.912605e+001 4.242902e+001
         vertex 2.296467e+002 9.912605e+001 4.199401e+001
      endloop
   endfacet
   facet normal -8.809916e-017 1.000000e+000 2.164935e-015
      outer loop
         vertex 2.284113e+002 9.912605e+001 3.495996e+001
         vertex 2.296467e+002 9.912605e+001 4.199401e+001
         vertex 2.297476e+002 9.912605e+001 4.157009e+001
      endloop
   endfacet
   facet normal -8.809916e-017 1.000000e+000 2.164935e-015
      outer loop
         vertex 2.299207e+002 9.912605e+001 4.117014e+001
         vertex 2.301605e+002 9.912605e+001 4.080631e+001
         vertex 2.284113e+002 9.912605e+001 3.495996e+001
      endloop
   endfacet
   facet normal -8.809916e-017 1.000000e+000 2.164935e-015
      outer loop
         vertex 2.284113e+002 9.912605e+001 3.495996e+001
         vertex 2.301605e+002 9.912605e+001 4.080631e+001
         vertex 2.304599e+002 9.912605e+001 4.048966e+001
      endloop
   endfacet
   facet normal -8.809916e-017 1.000000e+000 2.164935e-015
      outer loop
         vertex 2.284113e+002 9.912605e+001 3.495996e+001
         vertex 2.304599e+002 9.912605e+001 4.048966e+001
         vertex 2.308097e+002 9.912605e+001 4.022981e+001
      endloop
   endfacet
   facet normal 2.799553e-002 -2.137179e-015 9.996080e-001
      outer loop
         vertex 2.288312e+002 9.812606e+001 4.995407e+001
         vertex 2.358285e+002 9.812606e+001 4.975811e+001
         vertex 2.288312e+002 9.912605e+001 4.995407e+001
      endloop
   endfacet
   facet normal 2.799553e-002 -2.137179e-015 9.996080e-001
      outer loop
         vertex 2.288312e+002 9.912605e+001 4.995407e+001
         vertex 2.358285e+002 9.812606e+001 4.975811e+001
         vertex 2.358285e+002 9.912605e+001 4.975811e+001
      endloop
   endfacet
   facet normal -9.996080e-001 -1.743397e-016 2.799553e-002
      outer loop
         vertex 2.284113e+002 9.812606e+001 3.495996e+001
         vertex 2.288312e+002 9.812606e+001 4.995407e+001
         vertex 2.284113e+002 9.912605e+001 3.495996e+001
      endloop
   endfacet
   facet normal -9.996080e-001 -1.743397e-016 2.799553e-002
      outer loop
         vertex 2.284113e+002 9.912605e+001 3.495996e+001
         vertex 2.288312e+002 9.812606e+001 4.995407e+001
         vertex 2.288312e+002 9.912605e+001 4.995407e+001
      endloop
   endfacet
   facet normal -2.799553e-002 2.137179e-015 -9.996080e-001
      outer loop
         vertex 2.354085e+002 9.812606e+001 3.476399e+001
         vertex 2.284113e+002 9.812606e+001 3.495996e+001
         vertex 2.354085e+002 9.912605e+001 3.476399e+001
      endloop
   endfacet
   facet normal -2.799553e-002 2.137179e-015 -9.996080e-001
      outer loop
         vertex 2.354085e+002 9.912605e+001 3.476399e+001
         vertex 2.284113e+002 9.812606e+001 3.495996e+001
         vertex 2.284113e+002 9.912605e+001 3.495996e+001
      endloop
   endfacet
   facet normal 9.996080e-001 1.743397e-016 -2.799553e-002
      outer loop
         vertex 2.358285e+002 9.812606e+001 4.975811e+001
         vertex 2.354085e+002 9.812606e+001 3.476399e+001
         vertex 2.358285e+002 9.912605e+001 4.975811e+001
      endloop
   endfacet
   facet normal 9.996080e-001 1.743397e-016 -2.799553e-002
      outer loop
         vertex 2.358285e+002 9.912605e+001 4.975811e+001
         vertex 2.354085e+002 9.812606e+001 3.476399e+001
         vertex 2.354085e+002 9.912605e+001 3.476399e+001
      endloop
   endfacet
   facet normal 8.809916e-017 -1.000000e+000 -2.164935e-015
      outer loop
         vertex 2.284113e+002 9.812606e+001 3.495996e+001
         vertex 2.354085e+002 9.812606e+001 3.476399e+001
         vertex 2.288312e+002 9.812606e+001 4.995407e+001
      endloop
   endfacet
   facet normal 8.809916e-017 -1.000000e+000 -2.164935e-015
      outer loop
         vertex 2.288312e+002 9.812606e+001 4.995407e+001
         vertex 2.354085e+002 9.812606e+001 3.476399e+001
         vertex 2.358285e+002 9.812606e+001 4.975811e+001
      endloop
   endfacet
endsolid