solid PumpAssembly - Screw8-1
   facet normal 6.223261e-001 4.028010e-033 -7.827581e-001
      outer loop
         vertex 3.220141e+002 1.593261e+002 5.077859e+001
         vertex 3.223176e+002 1.593261e+002 5.101184e+001
         vertex 3.222657e+002 1.493260e+002 5.096647e+001
      endloop
   endfacet
   facet normal 7.282383e-001 3.158578e-033 -6.853240e-001
      outer loop
         vertex 3.225819e+002 1.593261e+002 5.128868e+001
         vertex 3.224917e+002 1.493260e+002 5.118439e+001
         vertex 3.223176e+002 1.593261e+002 5.101184e+001
      endloop
   endfacet
   facet normal 6.922653e-001 3.475626e-033 -7.216431e-001
      outer loop
         vertex 3.223176e+002 1.593261e+002 5.101184e+001
         vertex 3.224917e+002 1.493260e+002 5.118439e+001
         vertex 3.223152e+002 1.493260e+002 5.101428e+001
      endloop
   endfacet
   facet normal 6.614478e-001 3.728590e-033 -7.499912e-001
      outer loop
         vertex 3.223176e+002 1.593261e+002 5.101184e+001
         vertex 3.223152e+002 1.493260e+002 5.101428e+001
         vertex 3.222657e+002 1.493260e+002 5.096647e+001
      endloop
   endfacet
   facet normal 8.190673e-001 2.223737e-033 -5.736974e-001
      outer loop
         vertex 3.228008e+002 1.593261e+002 5.160263e+001
         vertex 3.226886e+002 1.493260e+002 5.142892e+001
         vertex 3.225819e+002 1.593261e+002 5.128868e+001
      endloop
   endfacet
   facet normal 7.887023e-001 2.561612e-033 -6.147754e-001
      outer loop
         vertex 3.225819e+002 1.593261e+002 5.128868e+001
         vertex 3.226886e+002 1.493260e+002 5.142892e+001
         vertex 3.225781e+002 1.493260e+002 5.129174e+001
      endloop
   endfacet
   facet normal 7.622705e-001 2.833651e-033 -6.472586e-001
      outer loop
         vertex 3.225819e+002 1.593261e+002 5.128868e+001
         vertex 3.225781e+002 1.493260e+002 5.129174e+001
         vertex 3.224917e+002 1.493260e+002 5.118439e+001
      endloop
   endfacet
   facet normal 8.929333e-001 1.242839e-033 -4.501890e-001
      outer loop
         vertex 3.229693e+002 1.593261e+002 5.194632e+001
         vertex 3.228533e+002 1.493260e+002 5.169620e+001
         vertex 3.228008e+002 1.593261e+002 5.160263e+001
      endloop
   endfacet
   facet normal 8.687977e-001 1.594507e-033 -4.951673e-001
      outer loop
         vertex 3.228008e+002 1.593261e+002 5.160263e+001
         vertex 3.228533e+002 1.493260e+002 5.169620e+001
         vertex 3.227971e+002 1.493260e+002 5.160496e+001
      endloop
   endfacet
   facet normal 8.473043e-001 1.879941e-033 -5.311077e-001
      outer loop
         vertex 3.228008e+002 1.593261e+002 5.160263e+001
         vertex 3.227971e+002 1.493260e+002 5.160496e+001
         vertex 3.226886e+002 1.493260e+002 5.142892e+001
      endloop
   endfacet
   facet normal 9.470047e-001 2.648541e-034 -3.212196e-001
      outer loop
         vertex 3.230762e+002 1.493260e+002 5.228186e+001
         vertex 3.229832e+002 1.493260e+002 5.198201e+001
         vertex 3.229693e+002 1.593261e+002 5.194632e+001
      endloop
   endfacet
   facet normal 9.308839e-001 5.944852e-034 -3.653152e-001
      outer loop
         vertex 3.229693e+002 1.593261e+002 5.194632e+001
         vertex 3.229832e+002 1.493260e+002 5.198201e+001
         vertex 3.229673e+002 1.493260e+002 5.194719e+001
      endloop
   endfacet
   facet normal 9.147763e-001 8.873473e-034 -4.039608e-001
      outer loop
         vertex 3.229693e+002 1.593261e+002 5.194632e+001
         vertex 3.229673e+002 1.493260e+002 5.194719e+001
         vertex 3.228533e+002 1.493260e+002 5.169620e+001
      endloop
   endfacet
   facet normal 9.607822e-001 -5.885906e-035 -2.773040e-001
      outer loop
         vertex 3.230762e+002 1.493260e+002 5.228186e+001
         vertex 3.229693e+002 1.593261e+002 5.194632e+001
         vertex 3.230816e+002 1.493260e+002 5.231199e+001
      endloop
   endfacet
   facet normal 9.619090e-001 -8.764318e-035 -2.733698e-001
      outer loop
         vertex 3.230816e+002 1.493260e+002 5.231199e+001
         vertex 3.229693e+002 1.593261e+002 5.194632e+001
         vertex 3.230833e+002 1.593261e+002 5.231169e+001
      endloop
   endfacet
   facet normal 9.823663e-001 -7.112011e-034 -1.869663e-001
      outer loop
         vertex 3.230816e+002 1.493260e+002 5.231199e+001
         vertex 3.230833e+002 1.593261e+002 5.231169e+001
         vertex 3.231310e+002 1.493260e+002 5.259100e+001
      endloop
   endfacet
   facet normal 9.906388e-001 -1.067964e-033 -1.365095e-001
      outer loop
         vertex 3.231310e+002 1.493260e+002 5.259100e+001
         vertex 3.230833e+002 1.593261e+002 5.231169e+001
         vertex 3.231402e+002 1.593261e+002 5.269018e+001
      endloop
   endfacet
   facet normal 9.963137e-001 -1.421322e-033 -8.578447e-002
      outer loop
         vertex 3.231310e+002 1.493260e+002 5.259100e+001
         vertex 3.231402e+002 1.593261e+002 5.269018e+001
         vertex 3.231359e+002 1.493260e+002 5.269040e+001
      endloop
   endfacet
   facet normal 9.990317e-001 -1.708495e-033 -4.399655e-002
      outer loop
         vertex 3.231359e+002 1.493260e+002 5.269040e+001
         vertex 3.231402e+002 1.593261e+002 5.269018e+001
         vertex 3.231465e+002 1.493260e+002 5.290457e+001
      endloop
   endfacet
   facet normal 9.999748e-001 -2.054854e-033 7.098990e-003
      outer loop
         vertex 3.231465e+002 1.493260e+002 5.290457e+001
         vertex 3.231402e+002 1.593261e+002 5.269018e+001
         vertex 3.231386e+002 1.593261e+002 5.307293e+001
      endloop
   endfacet
   facet normal 9.983079e-001 -2.395673e-033 5.814978e-002
      outer loop
         vertex 3.231465e+002 1.493260e+002 5.290457e+001
         vertex 3.231386e+002 1.593261e+002 5.307293e+001
         vertex 3.231338e+002 1.493260e+002 5.307255e+001
      endloop
   endfacet
   facet normal 9.949977e-001 -2.670475e-033 9.989738e-002
      outer loop
         vertex 3.231338e+002 1.493260e+002 5.307255e+001
         vertex 3.231386e+002 1.593261e+002 5.307293e+001
         vertex 3.231227e+002 1.493260e+002 5.321761e+001
      endloop
   endfacet
   facet normal 9.886009e-001 -2.999183e-033 1.505599e-001
      outer loop
         vertex 3.231227e+002 1.493260e+002 5.321761e+001
         vertex 3.231386e+002 1.593261e+002 5.307293e+001
         vertex 3.230787e+002 1.593261e+002 5.345095e+001
      endloop
   endfacet
   facet normal 9.796160e-001 -3.320384e-033 2.008795e-001
      outer loop
         vertex 3.231227e+002 1.493260e+002 5.321761e+001
         vertex 3.230787e+002 1.593261e+002 5.345095e+001
         vertex 3.230751e+002 1.493260e+002 5.345022e+001
      endloop
   endfacet
   facet normal 9.703473e-001 -3.577077e-033 2.417147e-001
      outer loop
         vertex 3.230751e+002 1.493260e+002 5.345022e+001
         vertex 3.230787e+002 1.593261e+002 5.345095e+001
         vertex 3.230598e+002 1.493260e+002 5.352520e+001
      endloop
   endfacet
   facet normal 9.567524e-001 -3.881404e-033 2.909037e-001
      outer loop
         vertex 3.230598e+002 1.493260e+002 5.352520e+001
         vertex 3.230787e+002 1.593261e+002 5.345095e+001
         vertex 3.229618e+002 1.593261e+002 5.381539e+001
      endloop
   endfacet
   facet normal 9.406318e-001 -4.176185e-033 3.394286e-001
      outer loop
         vertex 3.230598e+002 1.493260e+002 5.352520e+001
         vertex 3.229618e+002 1.593261e+002 5.381539e+001
         vertex 3.229613e+002 1.493260e+002 5.381524e+001
      endloop
   endfacet
   facet normal 9.256015e-001 -4.409419e-033 3.784994e-001
      outer loop
         vertex 3.229613e+002 1.493260e+002 5.381524e+001
         vertex 3.229618e+002 1.593261e+002 5.381539e+001
         vertex 3.229589e+002 1.493260e+002 5.382248e+001
      endloop
   endfacet
   facet normal 9.050877e-001 -4.683252e-033 4.252250e-001
      outer loop
         vertex 3.229589e+002 1.493260e+002 5.382248e+001
         vertex 3.229618e+002 1.593261e+002 5.381539e+001
         vertex 3.227905e+002 1.593261e+002 5.415770e+001
      endloop
   endfacet
   facet normal 8.859800e-001 -4.904444e-033 4.637235e-001
      outer loop
         vertex 3.229589e+002 1.493260e+002 5.382248e+001
         vertex 3.227905e+002 1.593261e+002 5.415770e+001
         vertex 3.228214e+002 1.493260e+002 5.410476e+001
      endloop
   endfacet
   facet normal 8.108398e-001 -5.573041e-033 5.852683e-001
      outer loop
         vertex 3.225691e+002 1.593261e+002 5.446988e+001
         vertex 3.226497e+002 1.493260e+002 5.436759e+001
         vertex 3.227905e+002 1.593261e+002 5.415770e+001
      endloop
   endfacet
   facet normal 8.396903e-001 -5.346431e-033 5.430655e-001
      outer loop
         vertex 3.227905e+002 1.593261e+002 5.415770e+001
         vertex 3.226497e+002 1.493260e+002 5.436759e+001
         vertex 3.227879e+002 1.493260e+002 5.415601e+001
      endloop
   endfacet
   facet normal 8.616884e-001 -5.150394e-033 5.074377e-001
      outer loop
         vertex 3.227905e+002 1.593261e+002 5.415770e+001
         vertex 3.227879e+002 1.493260e+002 5.415601e+001
         vertex 3.228214e+002 1.493260e+002 5.410476e+001
      endloop
   endfacet
   facet normal 7.184350e-001 -6.131354e-033 6.955941e-001
      outer loop
         vertex 3.223026e+002 1.593261e+002 5.474458e+001
         vertex 3.224464e+002 1.493260e+002 5.460683e+001
         vertex 3.225691e+002 1.593261e+002 5.446988e+001
      endloop
   endfacet
   facet normal 7.530217e-001 -5.947297e-033 6.579956e-001
      outer loop
         vertex 3.225691e+002 1.593261e+002 5.446988e+001
         vertex 3.224464e+002 1.493260e+002 5.460683e+001
         vertex 3.225654e+002 1.493260e+002 5.446677e+001
      endloop
   endfacet
   facet normal 7.799110e-001 -5.784824e-033 6.258904e-001
      outer loop
         vertex 3.225691e+002 1.593261e+002 5.446988e+001
         vertex 3.225654e+002 1.493260e+002 5.446677e+001
         vertex 3.226497e+002 1.493260e+002 5.436759e+001
      endloop
   endfacet
   facet normal 6.111510e-001 -6.562684e-033 7.915140e-001
      outer loop
         vertex 3.219972e+002 1.593261e+002 5.497538e+001
         vertex 3.222147e+002 1.493260e+002 5.481870e+001
         vertex 3.223026e+002 1.593261e+002 5.474458e+001
      endloop
   endfacet
   facet normal 6.507471e-001 -6.424944e-033 7.592945e-001
      outer loop
         vertex 3.223026e+002 1.593261e+002 5.474458e+001
         vertex 3.222147e+002 1.493260e+002 5.481870e+001
         vertex 3.222995e+002 1.493260e+002 5.474120e+001
      endloop
   endfacet
   facet normal 6.819668e-001 -6.299436e-033 7.313831e-001
      outer loop
         vertex 3.223026e+002 1.593261e+002 5.474458e+001
         vertex 3.222995e+002 1.493260e+002 5.474120e+001
         vertex 3.224464e+002 1.493260e+002 5.460683e+001
      endloop
   endfacet
   facet normal 4.938700e-001 -6.853288e-033 8.695357e-001
      outer loop
         vertex 3.216812e+002 1.493260e+002 5.514746e+001
         vertex 3.219583e+002 1.493260e+002 5.499986e+001
         vertex 3.219972e+002 1.593261e+002 5.497538e+001
      endloop
   endfacet
   facet normal 5.350011e-001 -6.769427e-033 8.448514e-001
      outer loop
         vertex 3.219972e+002 1.593261e+002 5.497538e+001
         vertex 3.219583e+002 1.493260e+002 5.499986e+001
         vertex 3.219958e+002 1.493260e+002 5.497337e+001
      endloop
   endfacet
   facet normal 5.698979e-001 -6.683494e-033 8.217155e-001
      outer loop
         vertex 3.219972e+002 1.593261e+002 5.497538e+001
         vertex 3.219958e+002 1.493260e+002 5.497337e+001
         vertex 3.222147e+002 1.493260e+002 5.481870e+001
      endloop
   endfacet
   facet normal 4.542429e-001 -6.917635e-033 8.908778e-001
      outer loop
         vertex 3.216812e+002 1.493260e+002 5.514746e+001
         vertex 3.219972e+002 1.593261e+002 5.497538e+001
         vertex 3.216598e+002 1.493260e+002 5.515562e+001
      endloop
   endfacet
   facet normal 4.515065e-001 -6.921514e-033 8.922678e-001
      outer loop
         vertex 3.216598e+002 1.493260e+002 5.515562e+001
         vertex 3.219972e+002 1.593261e+002 5.497538e+001
         vertex 3.216602e+002 1.593261e+002 5.515687e+001
      endloop
   endfacet
   facet normal 3.696305e-001 -7.006023e-033 9.291788e-001
      outer loop
         vertex 3.216598e+002 1.493260e+002 5.515562e+001
         vertex 3.216602e+002 1.593261e+002 5.515687e+001
         vertex 3.213878e+002 1.493260e+002 5.525916e+001
      endloop
   endfacet
   facet normal 3.216524e-001 -7.028915e-033 9.468578e-001
      outer loop
         vertex 3.213878e+002 1.493260e+002 5.525916e+001
         vertex 3.216602e+002 1.593261e+002 5.515687e+001
         vertex 3.212995e+002 1.593261e+002 5.528479e+001
      endloop
   endfacet
   facet normal 2.729231e-001 -7.033437e-033 9.620358e-001
      outer loop
         vertex 3.213878e+002 1.493260e+002 5.525916e+001
         vertex 3.212995e+002 1.593261e+002 5.528479e+001
         vertex 3.212986e+002 1.493260e+002 5.528083e+001
      endloop
   endfacet
   facet normal 2.324069e-001 -7.023464e-033 9.726186e-001
      outer loop
         vertex 3.212986e+002 1.493260e+002 5.528083e+001
         vertex 3.212995e+002 1.593261e+002 5.528479e+001
         vertex 3.210827e+002 1.493260e+002 5.533321e+001
      endloop
   endfacet
   facet normal 1.824108e-001 -6.994606e-033 9.832224e-001
      outer loop
         vertex 3.210827e+002 1.493260e+002 5.533321e+001
         vertex 3.212995e+002 1.593261e+002 5.528479e+001
         vertex 3.209235e+002 1.593261e+002 5.535615e+001
      endloop
   endfacet
   facet normal 1.319726e-001 -6.947515e-033 9.912534e-001
      outer loop
         vertex 3.210827e+002 1.493260e+002 5.533321e+001
         vertex 3.209235e+002 1.593261e+002 5.535615e+001
         vertex 3.209229e+002 1.493260e+002 5.535125e+001
      endloop
   endfacet
   facet normal 9.035359e-002 -6.895376e-033 9.959098e-001
      outer loop
         vertex 3.209229e+002 1.493260e+002 5.535125e+001
         vertex 3.209235e+002 1.593261e+002 5.535615e+001
         vertex 3.207708e+002 1.493260e+002 5.536844e+001
      endloop
   endfacet
   facet normal 3.939212e-002 -6.815436e-033 9.992238e-001
      outer loop
         vertex 3.207708e+002 1.493260e+002 5.536844e+001
         vertex 3.209235e+002 1.593261e+002 5.535615e+001
         vertex 3.205410e+002 1.593261e+002 5.536927e+001
      endloop
   endfacet
   facet normal -1.171482e-002 -6.717632e-033 9.999314e-001
      outer loop
         vertex 3.207708e+002 1.493260e+002 5.536844e+001
         vertex 3.205410e+002 1.593261e+002 5.536927e+001
         vertex 3.205410e+002 1.493260e+002 5.536540e+001
      endloop
   endfacet
   facet normal -5.356731e-002 -6.624415e-033 9.985642e-001
      outer loop
         vertex 3.205410e+002 1.493260e+002 5.536540e+001
         vertex 3.205410e+002 1.593261e+002 5.536927e+001
         vertex 3.204568e+002 1.493260e+002 5.536428e+001
      endloop
   endfacet
   facet normal -1.044433e-001 -6.495114e-033 9.945309e-001
      outer loop
         vertex 3.204568e+002 1.493260e+002 5.536428e+001
         vertex 3.205410e+002 1.593261e+002 5.536927e+001
         vertex 3.201609e+002 1.593261e+002 5.532384e+001
      endloop
   endfacet
   facet normal -1.551428e-001 -6.348601e-033 9.878920e-001
      outer loop
         vertex 3.204568e+002 1.493260e+002 5.536428e+001
         vertex 3.201609e+002 1.593261e+002 5.532384e+001
         vertex 3.201610e+002 1.493260e+002 5.532294e+001
      endloop
   endfacet
   facet normal -1.963547e-001 -6.216275e-033 9.805329e-001
      outer loop
         vertex 3.201610e+002 1.493260e+002 5.532294e+001
         vertex 3.201609e+002 1.593261e+002 5.532384e+001
         vertex 3.201459e+002 1.493260e+002 5.532082e+001
      endloop
   endfacet
   facet normal -2.461179e-001 -6.040264e-033 9.692399e-001
      outer loop
         vertex 3.201459e+002 1.493260e+002 5.532082e+001
         vertex 3.201609e+002 1.593261e+002 5.532384e+001
         vertex 3.197923e+002 1.593261e+002 5.522094e+001
      endloop
   endfacet
   facet normal -2.885150e-001 -5.875860e-033 9.574754e-001
      outer loop
         vertex 3.201459e+002 1.493260e+002 5.532082e+001
         vertex 3.197923e+002 1.593261e+002 5.522094e+001
         vertex 3.198428e+002 1.493260e+002 5.523873e+001
      endloop
   endfacet
   facet normal -4.211146e-001 -5.269491e-033 9.070074e-001
      outer loop
         vertex 3.194436e+002 1.593261e+002 5.506297e+001
         vertex 3.195525e+002 1.493260e+002 5.511930e+001
         vertex 3.197923e+002 1.593261e+002 5.522094e+001
      endloop
   endfacet
   facet normal -3.742092e-001 -5.500736e-033 9.273443e-001
      outer loop
         vertex 3.197923e+002 1.593261e+002 5.522094e+001
         vertex 3.195525e+002 1.493260e+002 5.511930e+001
         vertex 3.197933e+002 1.493260e+002 5.521836e+001
      endloop
   endfacet
   facet normal -3.350611e-001 -5.679435e-033 9.421964e-001
      outer loop
         vertex 3.197923e+002 1.593261e+002 5.522094e+001
         vertex 3.197933e+002 1.493260e+002 5.521836e+001
         vertex 3.198428e+002 1.493260e+002 5.523873e+001
      endloop
   endfacet
   facet normal -7.282392e-001 -3.158569e-033 6.853230e-001
      outer loop
         vertex 3.188019e+002 1.493260e+002 5.455864e+001
         vertex 3.188405e+002 1.493260e+002 5.459581e+001
         vertex 3.188385e+002 1.593261e+002 5.459782e+001
      endloop
   endfacet
   facet normal -6.989122e-001 -3.418899e-033 7.152075e-001
      outer loop
         vertex 3.188385e+002 1.593261e+002 5.459782e+001
         vertex 3.188405e+002 1.493260e+002 5.459581e+001
         vertex 3.190279e+002 1.493260e+002 5.477656e+001
      endloop
   endfacet
   facet normal -6.614462e-001 -3.728603e-033 7.499926e-001
      outer loop
         vertex 3.188385e+002 1.593261e+002 5.459782e+001
         vertex 3.190279e+002 1.493260e+002 5.477656e+001
         vertex 3.191232e+002 1.593261e+002 5.485363e+001
      endloop
   endfacet
   facet normal -6.223078e-001 -4.028145e-033 7.827726e-001
      outer loop
         vertex 3.191232e+002 1.593261e+002 5.485363e+001
         vertex 3.190279e+002 1.493260e+002 5.477656e+001
         vertex 3.191260e+002 1.493260e+002 5.484986e+001
      endloop
   endfacet
   facet normal -5.889885e-001 -4.266045e-033 8.081414e-001
      outer loop
         vertex 3.191232e+002 1.593261e+002 5.485363e+001
         vertex 3.191260e+002 1.493260e+002 5.484986e+001
         vertex 3.192794e+002 1.593261e+002 5.496444e+001
      endloop
   endfacet
   facet normal -5.681484e-001 -4.407544e-033 8.229261e-001
      outer loop
         vertex 3.192794e+002 1.593261e+002 5.496444e+001
         vertex 3.191260e+002 1.493260e+002 5.484986e+001
         vertex 3.192794e+002 1.493260e+002 5.496444e+001
      endloop
   endfacet
   facet normal -5.253903e-001 -4.681690e-033 8.508613e-001
      outer loop
         vertex 3.192794e+002 1.593261e+002 5.496444e+001
         vertex 3.192794e+002 1.493260e+002 5.496444e+001
         vertex 3.194436e+002 1.593261e+002 5.506297e+001
      endloop
   endfacet
   facet normal -5.034720e-001 -4.814334e-033 8.640115e-001
      outer loop
         vertex 3.194436e+002 1.593261e+002 5.506297e+001
         vertex 3.192794e+002 1.493260e+002 5.496444e+001
         vertex 3.194460e+002 1.493260e+002 5.505888e+001
      endloop
   endfacet
   facet normal -4.668556e-001 -5.024829e-033 8.843336e-001
      outer loop
         vertex 3.194436e+002 1.593261e+002 5.506297e+001
         vertex 3.194460e+002 1.493260e+002 5.505888e+001
         vertex 3.195525e+002 1.493260e+002 5.511930e+001
      endloop
   endfacet
   facet normal -8.688057e-001 -1.594396e-033 4.951532e-001
      outer loop
         vertex 3.184019e+002 1.593261e+002 5.397178e+001
         vertex 3.184402e+002 1.493260e+002 5.404683e+001
         vertex 3.185962e+002 1.593261e+002 5.430156e+001
      endloop
   endfacet
   facet normal -8.423598e-001 -1.942502e-033 5.389155e-001
      outer loop
         vertex 3.185962e+002 1.593261e+002 5.430156e+001
         vertex 3.184402e+002 1.493260e+002 5.404683e+001
         vertex 3.185970e+002 1.493260e+002 5.430108e+001
      endloop
   endfacet
   facet normal -7.899855e-001 -2.547914e-033 6.131254e-001
      outer loop
         vertex 3.185962e+002 1.593261e+002 5.430156e+001
         vertex 3.185970e+002 1.493260e+002 5.430108e+001
         vertex 3.188385e+002 1.593261e+002 5.459782e+001
      endloop
   endfacet
   facet normal -7.887294e-001 -2.561323e-033 6.147406e-001
      outer loop
         vertex 3.188385e+002 1.593261e+002 5.459782e+001
         vertex 3.185970e+002 1.493260e+002 5.430108e+001
         vertex 3.186050e+002 1.493260e+002 5.431410e+001
      endloop
   endfacet
   facet normal -7.609290e-001 -2.846972e-033 6.488352e-001
      outer loop
         vertex 3.188385e+002 1.593261e+002 5.459782e+001
         vertex 3.186050e+002 1.493260e+002 5.431410e+001
         vertex 3.188019e+002 1.493260e+002 5.455864e+001
      endloop
   endfacet
   facet normal -9.308826e-001 -5.945085e-034 3.653183e-001
      outer loop
         vertex 3.182603e+002 1.593261e+002 5.361621e+001
         vertex 3.183104e+002 1.493260e+002 5.376101e+001
         vertex 3.184019e+002 1.593261e+002 5.397178e+001
      endloop
   endfacet
   facet normal -9.110007e-001 -9.518504e-034 4.124047e-001
      outer loop
         vertex 3.184019e+002 1.593261e+002 5.397178e+001
         vertex 3.183104e+002 1.493260e+002 5.376101e+001
         vertex 3.184055e+002 1.493260e+002 5.397018e+001
      endloop
   endfacet
   facet normal -8.929364e-001 -1.242791e-033 4.501828e-001
      outer loop
         vertex 3.184019e+002 1.593261e+002 5.397178e+001
         vertex 3.184055e+002 1.493260e+002 5.397018e+001
         vertex 3.184402e+002 1.493260e+002 5.404683e+001
      endloop
   endfacet
   facet normal -9.736803e-001 4.176850e-034 2.279183e-001
      outer loop
         vertex 3.181745e+002 1.593261e+002 5.324318e+001
         vertex 3.182173e+002 1.493260e+002 5.346116e+001
         vertex 3.182603e+002 1.593261e+002 5.361621e+001
      endloop
   endfacet
   facet normal -9.607735e-001 5.863851e-035 2.773342e-001
      outer loop
         vertex 3.182603e+002 1.593261e+002 5.361621e+001
         vertex 3.182173e+002 1.493260e+002 5.346116e+001
         vertex 3.182650e+002 1.493260e+002 5.361475e+001
      endloop
   endfacet
   facet normal -9.483191e-001 -2.359140e-034 3.173181e-001
      outer loop
         vertex 3.182603e+002 1.593261e+002 5.361621e+001
         vertex 3.182650e+002 1.493260e+002 5.361475e+001
         vertex 3.183104e+002 1.493260e+002 5.376101e+001
      endloop
   endfacet
   facet normal -9.999748e-001 2.054878e-033 -7.102528e-003
      outer loop
         vertex 3.181470e+002 1.493260e+002 5.283846e+001
         vertex 3.181481e+002 1.493260e+002 5.286138e+001
         vertex 3.181468e+002 1.593261e+002 5.286144e+001
      endloop
   endfacet
   facet normal -9.993957e-001 1.771503e-033 3.475876e-002
      outer loop
         vertex 3.181468e+002 1.593261e+002 5.286144e+001
         vertex 3.181481e+002 1.493260e+002 5.286138e+001
         vertex 3.181626e+002 1.493260e+002 5.315202e+001
      endloop
   endfacet
   facet normal -9.963126e-001 1.421233e-033 8.579733e-002
      outer loop
         vertex 3.181468e+002 1.593261e+002 5.286144e+001
         vertex 3.181626e+002 1.493260e+002 5.315202e+001
         vertex 3.181745e+002 1.593261e+002 5.324318e+001
      endloop
   endfacet
   facet normal -9.906374e-001 1.067895e-033 1.365193e-001
      outer loop
         vertex 3.181745e+002 1.593261e+002 5.324318e+001
         vertex 3.181626e+002 1.493260e+002 5.315202e+001
         vertex 3.181786e+002 1.493260e+002 5.324247e+001
      endloop
   endfacet
   facet normal -9.840533e-001 7.758840e-034 1.778739e-001
      outer loop
         vertex 3.181745e+002 1.593261e+002 5.324318e+001
         vertex 3.181786e+002 1.493260e+002 5.324247e+001
         vertex 3.182173e+002 1.493260e+002 5.346116e+001
      endloop
   endfacet
   facet normal -9.703463e-001 3.577104e-033 -2.417189e-001
      outer loop
         vertex 3.182663e+002 1.593261e+002 5.210762e+001
         vertex 3.182338e+002 1.493260e+002 5.221782e+001
         vertex 3.181776e+002 1.593261e+002 5.247994e+001
      endloop
   endfacet
   facet normal -9.814324e-001 3.262877e-033 -1.918085e-001
      outer loop
         vertex 3.181776e+002 1.593261e+002 5.247994e+001
         vertex 3.182338e+002 1.493260e+002 5.221782e+001
         vertex 3.181801e+002 1.493260e+002 5.248043e+001
      endloop
   endfacet
   facet normal -9.943636e-001 2.710505e-033 -1.060239e-001
      outer loop
         vertex 3.181776e+002 1.593261e+002 5.247994e+001
         vertex 3.181801e+002 1.493260e+002 5.248043e+001
         vertex 3.181468e+002 1.593261e+002 5.286144e+001
      endloop
   endfacet
   facet normal -9.949957e-001 2.670608e-033 -9.991772e-002
      outer loop
         vertex 3.181468e+002 1.593261e+002 5.286144e+001
         vertex 3.181801e+002 1.493260e+002 5.248043e+001
         vertex 3.181708e+002 1.493260e+002 5.252541e+001
      endloop
   endfacet
   facet normal -9.986473e-001 2.354864e-033 -5.199545e-002
      outer loop
         vertex 3.181468e+002 1.593261e+002 5.286144e+001
         vertex 3.181708e+002 1.493260e+002 5.252541e+001
         vertex 3.181470e+002 1.493260e+002 5.283846e+001
      endloop
   endfacet
   facet normal -9.256022e-001 4.409409e-033 -3.784977e-001
      outer loop
         vertex 3.184109e+002 1.593261e+002 5.175320e+001
         vertex 3.183347e+002 1.493260e+002 5.192055e+001
         vertex 3.182663e+002 1.593261e+002 5.210762e+001
      endloop
   endfacet
   facet normal -9.437273e-001 4.123720e-033 -3.307247e-001
      outer loop
         vertex 3.182663e+002 1.593261e+002 5.210762e+001
         vertex 3.183347e+002 1.493260e+002 5.192055e+001
         vertex 3.182707e+002 1.493260e+002 5.210909e+001
      endloop
   endfacet
   facet normal -9.567466e-001 3.881519e-033 -2.909225e-001
      outer loop
         vertex 3.182663e+002 1.593261e+002 5.210762e+001
         vertex 3.182707e+002 1.493260e+002 5.210909e+001
         vertex 3.182338e+002 1.493260e+002 5.221782e+001
      endloop
   endfacet
   facet normal -8.108398e-001 5.573040e-033 -5.852681e-001
      outer loop
         vertex 3.186438e+002 1.493260e+002 5.137543e+001
         vertex 3.186104e+002 1.493260e+002 5.142669e+001
         vertex 3.186078e+002 1.593261e+002 5.142499e+001
      endloop
   endfacet
   facet normal -8.346300e-001 5.388493e-033 -5.508111e-001
      outer loop
         vertex 3.186078e+002 1.593261e+002 5.142499e+001
         vertex 3.186104e+002 1.493260e+002 5.142669e+001
         vertex 3.184721e+002 1.493260e+002 5.163827e+001
      endloop
   endfacet
   facet normal -8.616886e-001 5.150393e-033 -5.074376e-001
      outer loop
         vertex 3.186078e+002 1.593261e+002 5.142499e+001
         vertex 3.184721e+002 1.493260e+002 5.163827e+001
         vertex 3.184109e+002 1.593261e+002 5.175320e+001
      endloop
   endfacet
   facet normal -8.864649e-001 4.899164e-033 -4.627959e-001
      outer loop
         vertex 3.184109e+002 1.593261e+002 5.175320e+001
         vertex 3.184721e+002 1.493260e+002 5.163827e+001
         vertex 3.184152e+002 1.493260e+002 5.175529e+001
      endloop
   endfacet
   facet normal -9.050643e-001 4.683540e-033 -4.252747e-001
      outer loop
         vertex 3.184109e+002 1.593261e+002 5.175320e+001
         vertex 3.184152e+002 1.493260e+002 5.175529e+001
         vertex 3.183347e+002 1.493260e+002 5.192055e+001
      endloop
   endfacet
   facet normal -6.507322e-001 6.425001e-033 -7.593074e-001
      outer loop
         vertex 3.191393e+002 1.593261e+002 5.087719e+001
         vertex 3.190788e+002 1.493260e+002 5.092433e+001
         vertex 3.188524e+002 1.593261e+002 5.113069e+001
      endloop
   endfacet
   facet normal -6.886941e-001 6.270256e-033 -7.250520e-001
      outer loop
         vertex 3.188524e+002 1.593261e+002 5.113069e+001
         vertex 3.190788e+002 1.493260e+002 5.092433e+001
         vertex 3.188528e+002 1.493260e+002 5.113103e+001
      endloop
   endfacet
   facet normal -7.523144e-001 5.951328e-033 -6.588042e-001
      outer loop
         vertex 3.188524e+002 1.593261e+002 5.113069e+001
         vertex 3.188528e+002 1.493260e+002 5.113103e+001
         vertex 3.186078e+002 1.593261e+002 5.142499e+001
      endloop
   endfacet
   facet normal -7.529880e-001 5.947489e-033 -6.580342e-001
      outer loop
         vertex 3.186078e+002 1.593261e+002 5.142499e+001
         vertex 3.188528e+002 1.493260e+002 5.113103e+001
         vertex 3.188471e+002 1.493260e+002 5.113620e+001
      endloop
   endfacet
   facet normal -7.805657e-001 5.780633e-033 -6.250737e-001
      outer loop
         vertex 3.186078e+002 1.593261e+002 5.142499e+001
         vertex 3.188471e+002 1.493260e+002 5.113620e+001
         vertex 3.186438e+002 1.493260e+002 5.137543e+001
      endloop
   endfacet
   facet normal -5.350033e-001 6.769423e-033 -8.448499e-001
      outer loop
         vertex 3.194613e+002 1.593261e+002 5.067044e+001
         vertex 3.193352e+002 1.493260e+002 5.074317e+001
         vertex 3.191393e+002 1.593261e+002 5.087719e+001
      endloop
   endfacet
   facet normal -5.774751e-001 6.662922e-033 -8.164083e-001
      outer loop
         vertex 3.191393e+002 1.593261e+002 5.087719e+001
         vertex 3.193352e+002 1.493260e+002 5.074317e+001
         vertex 3.191413e+002 1.493260e+002 5.088017e+001
      endloop
   endfacet
   facet normal -6.111475e-001 6.562695e-033 -7.915167e-001
      outer loop
         vertex 3.191393e+002 1.593261e+002 5.087719e+001
         vertex 3.191413e+002 1.493260e+002 5.088017e+001
         vertex 3.190788e+002 1.493260e+002 5.092433e+001
      endloop
   endfacet
   facet normal -4.081951e-001 6.973644e-033 -9.128947e-001
      outer loop
         vertex 3.198112e+002 1.593261e+002 5.051528e+001
         vertex 3.196123e+002 1.493260e+002 5.059557e+001
         vertex 3.194613e+002 1.593261e+002 5.067044e+001
      endloop
   endfacet
   facet normal -4.542763e-001 6.917587e-033 -8.908609e-001
      outer loop
         vertex 3.194613e+002 1.593261e+002 5.067044e+001
         vertex 3.196123e+002 1.493260e+002 5.059557e+001
         vertex 3.194637e+002 1.493260e+002 5.067477e+001
      endloop
   endfacet
   facet normal -4.911778e-001 6.858156e-033 -8.710594e-001
      outer loop
         vertex 3.194613e+002 1.593261e+002 5.067044e+001
         vertex 3.194637e+002 1.493260e+002 5.067477e+001
         vertex 3.193352e+002 1.493260e+002 5.074317e+001
      endloop
   endfacet
   facet normal -1.824072e-001 6.994603e-033 -9.832231e-001
      outer loop
         vertex 3.202108e+002 1.493260e+002 5.040982e+001
         vertex 3.201811e+002 1.493260e+002 5.041703e+001
         vertex 3.201807e+002 1.593261e+002 5.041534e+001
      endloop
   endfacet
   facet normal -2.234027e-001 7.019600e-033 -9.747263e-001
      outer loop
         vertex 3.201807e+002 1.593261e+002 5.041534e+001
         vertex 3.201811e+002 1.493260e+002 5.041703e+001
         vertex 3.199057e+002 1.493260e+002 5.048386e+001
      endloop
   endfacet
   facet normal -2.729326e-001 7.033437e-033 -9.620332e-001
      outer loop
         vertex 3.201807e+002 1.593261e+002 5.041534e+001
         vertex 3.199057e+002 1.493260e+002 5.048386e+001
         vertex 3.198112e+002 1.593261e+002 5.051528e+001
      endloop
   endfacet
   facet normal -3.216646e-001 7.028911e-033 -9.468537e-001
      outer loop
         vertex 3.198112e+002 1.593261e+002 5.051528e+001
         vertex 3.199057e+002 1.493260e+002 5.048386e+001
         vertex 3.198127e+002 1.493260e+002 5.051927e+001
      endloop
   endfacet
   facet normal -3.610245e-001 7.011521e-033 -9.325563e-001
      outer loop
         vertex 3.198112e+002 1.593261e+002 5.051528e+001
         vertex 3.198127e+002 1.493260e+002 5.051927e+001
         vertex 3.196123e+002 1.493260e+002 5.059557e+001
      endloop
   endfacet
   facet normal 5.357429e-002 6.624399e-033 -9.985639e-001
      outer loop
         vertex 3.209435e+002 1.593261e+002 5.038918e+001
         vertex 3.208367e+002 1.493260e+002 5.037874e+001
         vertex 3.205611e+002 1.593261e+002 5.037298e+001
      endloop
   endfacet
   facet normal 2.465507e-003 6.736638e-033 -9.999970e-001
      outer loop
         vertex 3.205611e+002 1.593261e+002 5.037298e+001
         vertex 3.208367e+002 1.493260e+002 5.037874e+001
         vertex 3.205611e+002 1.493260e+002 5.037509e+001
      endloop
   endfacet
   facet normal -8.523221e-002 6.888140e-033 -9.963611e-001
      outer loop
         vertex 3.205611e+002 1.593261e+002 5.037298e+001
         vertex 3.205611e+002 1.493260e+002 5.037509e+001
         vertex 3.201807e+002 1.593261e+002 5.041534e+001
      endloop
   endfacet
   facet normal -9.032806e-002 6.895340e-033 -9.959121e-001
      outer loop
         vertex 3.201807e+002 1.593261e+002 5.041534e+001
         vertex 3.205611e+002 1.493260e+002 5.037509e+001
         vertex 3.205228e+002 1.493260e+002 5.037459e+001
      endloop
   endfacet
   facet normal -1.370663e-001 6.953077e-033 -9.905619e-001
      outer loop
         vertex 3.201807e+002 1.593261e+002 5.041534e+001
         vertex 3.205228e+002 1.493260e+002 5.037459e+001
         vertex 3.202108e+002 1.493260e+002 5.040982e+001
      endloop
   endfacet
   facet normal 1.963518e-001 6.216284e-033 -9.805335e-001
      outer loop
         vertex 3.213189e+002 1.593261e+002 5.046357e+001
         vertex 3.211476e+002 1.493260e+002 5.042220e+001
         vertex 3.209435e+002 1.593261e+002 5.038918e+001
      endloop
   endfacet
   facet normal 1.460065e-001 6.376320e-033 -9.892836e-001
      outer loop
         vertex 3.209435e+002 1.593261e+002 5.038918e+001
         vertex 3.211476e+002 1.493260e+002 5.042220e+001
         vertex 3.209429e+002 1.493260e+002 5.039358e+001
      endloop
   endfacet
   facet normal 1.044594e-001 6.495070e-033 -9.945291e-001
      outer loop
         vertex 3.209435e+002 1.593261e+002 5.038918e+001
         vertex 3.209429e+002 1.493260e+002 5.039358e+001
         vertex 3.208367e+002 1.493260e+002 5.037874e+001
      endloop
   endfacet
   facet normal 3.350624e-001 5.679429e-033 -9.421960e-001
      outer loop
         vertex 3.216786e+002 1.593261e+002 5.059439e+001
         vertex 3.214507e+002 1.493260e+002 5.050429e+001
         vertex 3.213189e+002 1.593261e+002 5.046357e+001
      endloop
   endfacet
   facet normal 2.865324e-001 5.883851e-033 -9.580706e-001
      outer loop
         vertex 3.213189e+002 1.593261e+002 5.046357e+001
         vertex 3.214507e+002 1.493260e+002 5.050429e+001
         vertex 3.213177e+002 1.493260e+002 5.046826e+001
      endloop
   endfacet
   facet normal 2.461675e-001 6.040080e-033 -9.692273e-001
      outer loop
         vertex 3.213189e+002 1.593261e+002 5.046357e+001
         vertex 3.213177e+002 1.493260e+002 5.046826e+001
         vertex 3.211476e+002 1.493260e+002 5.042220e+001
      endloop
   endfacet
   facet normal 5.815014e-001 4.317503e-033 -8.135454e-001
      outer loop
         vertex 3.222657e+002 1.493260e+002 5.096647e+001
         vertex 3.220141e+002 1.493260e+002 5.077859e+001
         vertex 3.220141e+002 1.593261e+002 5.077859e+001
      endloop
   endfacet
   facet normal 5.114285e-001 4.766777e-033 -8.593259e-001
      outer loop
         vertex 3.220141e+002 1.593261e+002 5.077859e+001
         vertex 3.220141e+002 1.493260e+002 5.077859e+001
         vertex 3.217411e+002 1.493260e+002 5.062372e+001
      endloop
   endfacet
   facet normal 4.668349e-001 5.024944e-033 -8.843445e-001
      outer loop
         vertex 3.220141e+002 1.593261e+002 5.077859e+001
         vertex 3.217411e+002 1.493260e+002 5.062372e+001
         vertex 3.216786e+002 1.593261e+002 5.059439e+001
      endloop
   endfacet
   facet normal 4.211127e-001 5.269501e-033 -9.070083e-001
      outer loop
         vertex 3.216786e+002 1.593261e+002 5.059439e+001
         vertex 3.217411e+002 1.493260e+002 5.062372e+001
         vertex 3.216773e+002 1.493260e+002 5.059752e+001
      endloop
   endfacet
   facet normal 3.827728e-001 5.459941e-033 -9.238425e-001
      outer loop
         vertex 3.216786e+002 1.593261e+002 5.059439e+001
         vertex 3.216773e+002 1.493260e+002 5.059752e+001
         vertex 3.214507e+002 1.493260e+002 5.050429e+001
      endloop
   endfacet
   facet normal 2.007046e-033 1.000000e+000 6.741607e-033
      outer loop
         vertex 3.188385e+002 1.593261e+002 5.459782e+001
         vertex 3.191232e+002 1.593261e+002 5.485363e+001
         vertex 3.209435e+002 1.593261e+002 5.038918e+001
      endloop
   endfacet
   facet normal 2.007046e-033 1.000000e+000 6.741607e-033
      outer loop
         vertex 3.209435e+002 1.593261e+002 5.038918e+001
         vertex 3.191232e+002 1.593261e+002 5.485363e+001
         vertex 3.213189e+002 1.593261e+002 5.046357e+001
      endloop
   endfacet
   facet normal 2.007046e-033 1.000000e+000 6.741607e-033
      outer loop
         vertex 3.225819e+002 1.593261e+002 5.128868e+001
         vertex 3.223176e+002 1.593261e+002 5.101184e+001
         vertex 3.194436e+002 1.593261e+002 5.506297e+001
      endloop
   endfacet
   facet normal 2.007046e-033 1.000000e+000 6.741607e-033
      outer loop
         vertex 3.194436e+002 1.593261e+002 5.506297e+001
         vertex 3.223176e+002 1.593261e+002 5.101184e+001
         vertex 3.220141e+002 1.593261e+002 5.077859e+001
      endloop
   endfacet
   facet normal 2.007046e-033 1.000000e+000 6.741607e-033
      outer loop
         vertex 3.194436e+002 1.593261e+002 5.506297e+001
         vertex 3.220141e+002 1.593261e+002 5.077859e+001
         vertex 3.192794e+002 1.593261e+002 5.496444e+001
      endloop
   endfacet
   facet normal 2.007046e-033 1.000000e+000 6.741607e-033
      outer loop
         vertex 3.192794e+002 1.593261e+002 5.496444e+001
         vertex 3.220141e+002 1.593261e+002 5.077859e+001
         vertex 3.191232e+002 1.593261e+002 5.485363e+001
      endloop
   endfacet
   facet normal 2.007046e-033 1.000000e+000 6.741607e-033
      outer loop
         vertex 3.191232e+002 1.593261e+002 5.485363e+001
         vertex 3.220141e+002 1.593261e+002 5.077859e+001
         vertex 3.216786e+002 1.593261e+002 5.059439e+001
      endloop
   endfacet
   facet normal 2.007046e-033 1.000000e+000 6.741607e-033
      outer loop
         vertex 3.191232e+002 1.593261e+002 5.485363e+001
         vertex 3.216786e+002 1.593261e+002 5.059439e+001
         vertex 3.213189e+002 1.593261e+002 5.046357e+001
      endloop
   endfacet
   facet normal 2.007046e-033 1.000000e+000 6.741607e-033
      outer loop
         vertex 3.182663e+002 1.593261e+002 5.210762e+001
         vertex 3.181776e+002 1.593261e+002 5.247994e+001
         vertex 3.209435e+002 1.593261e+002 5.038918e+001
      endloop
   endfacet
   facet normal 2.007046e-033 1.000000e+000 6.741607e-033
      outer loop
         vertex 3.230787e+002 1.593261e+002 5.345095e+001
         vertex 3.194436e+002 1.593261e+002 5.506297e+001
         vertex 3.229618e+002 1.593261e+002 5.381539e+001
      endloop
   endfacet
   facet normal 2.007046e-033 1.000000e+000 6.741607e-033
      outer loop
         vertex 3.229618e+002 1.593261e+002 5.381539e+001
         vertex 3.194436e+002 1.593261e+002 5.506297e+001
         vertex 3.227905e+002 1.593261e+002 5.415770e+001
      endloop
   endfacet
   facet normal 2.007046e-033 1.000000e+000 6.741607e-033
      outer loop
         vertex 3.205611e+002 1.593261e+002 5.037298e+001
         vertex 3.201807e+002 1.593261e+002 5.041534e+001
         vertex 3.186078e+002 1.593261e+002 5.142499e+001
      endloop
   endfacet
   facet normal 2.007046e-033 1.000000e+000 6.741607e-033
      outer loop
         vertex 3.181776e+002 1.593261e+002 5.247994e+001
         vertex 3.181468e+002 1.593261e+002 5.286144e+001
         vertex 3.209435e+002 1.593261e+002 5.038918e+001
      endloop
   endfacet
   facet normal 2.007046e-033 1.000000e+000 6.741607e-033
      outer loop
         vertex 3.209435e+002 1.593261e+002 5.038918e+001
         vertex 3.181468e+002 1.593261e+002 5.286144e+001
         vertex 3.181745e+002 1.593261e+002 5.324318e+001
      endloop
   endfacet
   facet normal 2.007046e-033 1.000000e+000 6.741607e-033
      outer loop
         vertex 3.209435e+002 1.593261e+002 5.038918e+001
         vertex 3.181745e+002 1.593261e+002 5.324318e+001
         vertex 3.182603e+002 1.593261e+002 5.361621e+001
      endloop
   endfacet
   facet normal 2.007046e-033 1.000000e+000 6.741607e-033
      outer loop
         vertex 3.194436e+002 1.593261e+002 5.506297e+001
         vertex 3.197923e+002 1.593261e+002 5.522094e+001
         vertex 3.227905e+002 1.593261e+002 5.415770e+001
      endloop
   endfacet
   facet normal 2.007046e-033 1.000000e+000 6.741607e-033
      outer loop
         vertex 3.227905e+002 1.593261e+002 5.415770e+001
         vertex 3.197923e+002 1.593261e+002 5.522094e+001
         vertex 3.201609e+002 1.593261e+002 5.532384e+001
      endloop
   endfacet
   facet normal 2.007046e-033 1.000000e+000 6.741607e-033
      outer loop
         vertex 3.227905e+002 1.593261e+002 5.415770e+001
         vertex 3.201609e+002 1.593261e+002 5.532384e+001
         vertex 3.205410e+002 1.593261e+002 5.536927e+001
      endloop
   endfacet
   facet normal 2.007046e-033 1.000000e+000 6.741607e-033
      outer loop
         vertex 3.216602e+002 1.593261e+002 5.515687e+001
         vertex 3.219972e+002 1.593261e+002 5.497538e+001
         vertex 3.227905e+002 1.593261e+002 5.415770e+001
      endloop
   endfacet
   facet normal 2.007046e-033 1.000000e+000 6.741607e-033
      outer loop
         vertex 3.227905e+002 1.593261e+002 5.415770e+001
         vertex 3.219972e+002 1.593261e+002 5.497538e+001
         vertex 3.223026e+002 1.593261e+002 5.474458e+001
      endloop
   endfacet
   facet normal 2.007046e-033 1.000000e+000 6.741607e-033
      outer loop
         vertex 3.227905e+002 1.593261e+002 5.415770e+001
         vertex 3.223026e+002 1.593261e+002 5.474458e+001
         vertex 3.225691e+002 1.593261e+002 5.446988e+001
      endloop
   endfacet
   facet normal 2.007046e-033 1.000000e+000 6.741607e-033
      outer loop
         vertex 3.205611e+002 1.593261e+002 5.037298e+001
         vertex 3.186078e+002 1.593261e+002 5.142499e+001
         vertex 3.209435e+002 1.593261e+002 5.038918e+001
      endloop
   endfacet
   facet normal 2.007046e-033 1.000000e+000 6.741607e-033
      outer loop
         vertex 3.209435e+002 1.593261e+002 5.038918e+001
         vertex 3.186078e+002 1.593261e+002 5.142499e+001
         vertex 3.184109e+002 1.593261e+002 5.175320e+001
      endloop
   endfacet
   facet normal 2.007046e-033 1.000000e+000 6.741607e-033
      outer loop
         vertex 3.209435e+002 1.593261e+002 5.038918e+001
         vertex 3.184109e+002 1.593261e+002 5.175320e+001
         vertex 3.182663e+002 1.593261e+002 5.210762e+001
      endloop
   endfacet
   facet normal 2.007046e-033 1.000000e+000 6.741607e-033
      outer loop
         vertex 3.182603e+002 1.593261e+002 5.361621e+001
         vertex 3.184019e+002 1.593261e+002 5.397178e+001
         vertex 3.209435e+002 1.593261e+002 5.038918e+001
      endloop
   endfacet
   facet normal 2.007046e-033 1.000000e+000 6.741607e-033
      outer loop
         vertex 3.209435e+002 1.593261e+002 5.038918e+001
         vertex 3.184019e+002 1.593261e+002 5.397178e+001
         vertex 3.185962e+002 1.593261e+002 5.430156e+001
      endloop
   endfacet
   facet normal 2.007046e-033 1.000000e+000 6.741607e-033
      outer loop
         vertex 3.209435e+002 1.593261e+002 5.038918e+001
         vertex 3.185962e+002 1.593261e+002 5.430156e+001
         vertex 3.188385e+002 1.593261e+002 5.459782e+001
      endloop
   endfacet
   facet normal 2.007046e-033 1.000000e+000 6.741607e-033
      outer loop
         vertex 3.205410e+002 1.593261e+002 5.536927e+001
         vertex 3.209235e+002 1.593261e+002 5.535615e+001
         vertex 3.227905e+002 1.593261e+002 5.415770e+001
      endloop
   endfacet
   facet normal 2.007046e-033 1.000000e+000 6.741607e-033
      outer loop
         vertex 3.227905e+002 1.593261e+002 5.415770e+001
         vertex 3.209235e+002 1.593261e+002 5.535615e+001
         vertex 3.212995e+002 1.593261e+002 5.528479e+001
      endloop
   endfacet
   facet normal 2.007046e-033 1.000000e+000 6.741607e-033
      outer loop
         vertex 3.227905e+002 1.593261e+002 5.415770e+001
         vertex 3.212995e+002 1.593261e+002 5.528479e+001
         vertex 3.216602e+002 1.593261e+002 5.515687e+001
      endloop
   endfacet
   facet normal 2.007046e-033 1.000000e+000 6.741607e-033
      outer loop
         vertex 3.230787e+002 1.593261e+002 5.345095e+001
         vertex 3.231386e+002 1.593261e+002 5.307293e+001
         vertex 3.194436e+002 1.593261e+002 5.506297e+001
      endloop
   endfacet
   facet normal 2.007046e-033 1.000000e+000 6.741607e-033
      outer loop
         vertex 3.194436e+002 1.593261e+002 5.506297e+001
         vertex 3.231386e+002 1.593261e+002 5.307293e+001
         vertex 3.231402e+002 1.593261e+002 5.269018e+001
      endloop
   endfacet
   facet normal 2.007046e-033 1.000000e+000 6.741607e-033
      outer loop
         vertex 3.194436e+002 1.593261e+002 5.506297e+001
         vertex 3.231402e+002 1.593261e+002 5.269018e+001
         vertex 3.230833e+002 1.593261e+002 5.231169e+001
      endloop
   endfacet
   facet normal 2.007046e-033 1.000000e+000 6.741607e-033
      outer loop
         vertex 3.201807e+002 1.593261e+002 5.041534e+001
         vertex 3.198112e+002 1.593261e+002 5.051528e+001
         vertex 3.186078e+002 1.593261e+002 5.142499e+001
      endloop
   endfacet
   facet normal 2.007046e-033 1.000000e+000 6.741607e-033
      outer loop
         vertex 3.186078e+002 1.593261e+002 5.142499e+001
         vertex 3.198112e+002 1.593261e+002 5.051528e+001
         vertex 3.194613e+002 1.593261e+002 5.067044e+001
      endloop
   endfacet
   facet normal 2.007046e-033 1.000000e+000 6.741607e-033
      outer loop
         vertex 3.186078e+002 1.593261e+002 5.142499e+001
         vertex 3.194613e+002 1.593261e+002 5.067044e+001
         vertex 3.188524e+002 1.593261e+002 5.113069e+001
      endloop
   endfacet
   facet normal 2.007046e-033 1.000000e+000 6.741607e-033
      outer loop
         vertex 3.188524e+002 1.593261e+002 5.113069e+001
         vertex 3.194613e+002 1.593261e+002 5.067044e+001
         vertex 3.191393e+002 1.593261e+002 5.087719e+001
      endloop
   endfacet
   facet normal 2.007046e-033 1.000000e+000 6.741607e-033
      outer loop
         vertex 3.230833e+002 1.593261e+002 5.231169e+001
         vertex 3.229693e+002 1.593261e+002 5.194632e+001
         vertex 3.194436e+002 1.593261e+002 5.506297e+001
      endloop
   endfacet
   facet normal 2.007046e-033 1.000000e+000 6.741607e-033
      outer loop
         vertex 3.194436e+002 1.593261e+002 5.506297e+001
         vertex 3.229693e+002 1.593261e+002 5.194632e+001
         vertex 3.228008e+002 1.593261e+002 5.160263e+001
      endloop
   endfacet
   facet normal 2.007046e-033 1.000000e+000 6.741607e-033
      outer loop
         vertex 3.194436e+002 1.593261e+002 5.506297e+001
         vertex 3.228008e+002 1.593261e+002 5.160263e+001
         vertex 3.225819e+002 1.593261e+002 5.128868e+001
      endloop
   endfacet
   facet normal -2.007046e-033 -1.000000e+000 -6.741607e-033
      outer loop
         vertex 3.243465e+002 1.481261e+002 5.292043e+001
         vertex 3.243111e+002 1.481261e+002 5.338374e+001
         vertex 3.190273e+002 1.481261e+002 5.619825e+001
      endloop
   endfacet
   facet normal -2.007046e-033 -1.000000e+000 -6.741607e-033
      outer loop
         vertex 3.186231e+002 1.481261e+002 5.596904e+001
         vertex 3.222663e+002 1.481261e+002 4.954477e+001
         vertex 3.190273e+002 1.481261e+002 5.619825e+001
      endloop
   endfacet
   facet normal -2.007046e-033 -1.000000e+000 -6.741607e-033
      outer loop
         vertex 3.190273e+002 1.481261e+002 5.619825e+001
         vertex 3.222663e+002 1.481261e+002 4.954477e+001
         vertex 3.226705e+002 1.481261e+002 4.977399e+001
      endloop
   endfacet
   facet normal -2.007046e-033 -1.000000e+000 -6.741607e-033
      outer loop
         vertex 3.190273e+002 1.481261e+002 5.619825e+001
         vertex 3.226705e+002 1.481261e+002 4.977399e+001
         vertex 3.230427e+002 1.481261e+002 5.005205e+001
      endloop
   endfacet
   facet normal -2.007046e-033 -1.000000e+000 -6.741607e-033
      outer loop
         vertex 3.190273e+002 1.481261e+002 5.619825e+001
         vertex 3.239124e+002 1.481261e+002 5.113205e+001
         vertex 3.241047e+002 1.481261e+002 5.155506e+001
      endloop
   endfacet
   facet normal -2.007046e-033 -1.000000e+000 -6.741607e-033
      outer loop
         vertex 3.230427e+002 1.481261e+002 5.005205e+001
         vertex 3.233772e+002 1.481261e+002 5.037458e+001
         vertex 3.190273e+002 1.481261e+002 5.619825e+001
      endloop
   endfacet
   facet normal -2.007046e-033 -1.000000e+000 -6.741607e-033
      outer loop
         vertex 3.190273e+002 1.481261e+002 5.619825e+001
         vertex 3.233772e+002 1.481261e+002 5.037458e+001
         vertex 3.236686e+002 1.481261e+002 5.073648e+001
      endloop
   endfacet
   facet normal -2.007046e-033 -1.000000e+000 -6.741607e-033
      outer loop
         vertex 3.190273e+002 1.481261e+002 5.619825e+001
         vertex 3.236686e+002 1.481261e+002 5.073648e+001
         vertex 3.239124e+002 1.481261e+002 5.113205e+001
      endloop
   endfacet
   facet normal -2.007046e-033 -1.000000e+000 -6.741607e-033
      outer loop
         vertex 3.241047e+002 1.481261e+002 5.155506e+001
         vertex 3.242424e+002 1.481261e+002 5.199883e+001
         vertex 3.190273e+002 1.481261e+002 5.619825e+001
      endloop
   endfacet
   facet normal -2.007046e-033 -1.000000e+000 -6.741607e-033
      outer loop
         vertex 3.190273e+002 1.481261e+002 5.619825e+001
         vertex 3.242424e+002 1.481261e+002 5.199883e+001
         vertex 3.243234e+002 1.481261e+002 5.245636e+001
      endloop
   endfacet
   facet normal -2.007046e-033 -1.000000e+000 -6.741607e-033
      outer loop
         vertex 3.190273e+002 1.481261e+002 5.619825e+001
         vertex 3.243234e+002 1.481261e+002 5.245636e+001
         vertex 3.243465e+002 1.481261e+002 5.292043e+001
      endloop
   endfacet
   facet normal -2.007046e-033 -1.000000e+000 -6.741607e-033
      outer loop
         vertex 3.243111e+002 1.481261e+002 5.338374e+001
         vertex 3.242181e+002 1.481261e+002 5.383897e+001
         vertex 3.190273e+002 1.481261e+002 5.619825e+001
      endloop
   endfacet
   facet normal -2.007046e-033 -1.000000e+000 -6.741607e-033
      outer loop
         vertex 3.190273e+002 1.481261e+002 5.619825e+001
         vertex 3.242181e+002 1.481261e+002 5.383897e+001
         vertex 3.240686e+002 1.481261e+002 5.427894e+001
      endloop
   endfacet
   facet normal -2.007046e-033 -1.000000e+000 -6.741607e-033
      outer loop
         vertex 3.190273e+002 1.481261e+002 5.619825e+001
         vertex 3.240686e+002 1.481261e+002 5.427894e+001
         vertex 3.238653e+002 1.481261e+002 5.469672e+001
      endloop
   endfacet
   facet normal -2.007046e-033 -1.000000e+000 -6.741607e-033
      outer loop
         vertex 3.229673e+002 1.481261e+002 5.575335e+001
         vertex 3.225879e+002 1.481261e+002 5.602147e+001
         vertex 3.190273e+002 1.481261e+002 5.619825e+001
      endloop
   endfacet
   facet normal -2.007046e-033 -1.000000e+000 -6.741607e-033
      outer loop
         vertex 3.190273e+002 1.481261e+002 5.619825e+001
         vertex 3.225879e+002 1.481261e+002 5.602147e+001
         vertex 3.221777e+002 1.481261e+002 5.623991e+001
      endloop
   endfacet
   facet normal -2.007046e-033 -1.000000e+000 -6.741607e-033
      outer loop
         vertex 3.190273e+002 1.481261e+002 5.619825e+001
         vertex 3.221777e+002 1.481261e+002 5.623991e+001
         vertex 3.217435e+002 1.481261e+002 5.640523e+001
      endloop
   endfacet
   facet normal -2.007046e-033 -1.000000e+000 -6.741607e-033
      outer loop
         vertex 3.208303e+002 1.481261e+002 5.656696e+001
         vertex 3.203656e+002 1.481261e+002 5.656082e+001
         vertex 3.199055e+002 1.481261e+002 5.649649e+001
      endloop
   endfacet
   facet normal -2.007046e-033 -1.000000e+000 -6.741607e-033
      outer loop
         vertex 3.186231e+002 1.481261e+002 5.596904e+001
         vertex 3.182508e+002 1.481261e+002 5.569098e+001
         vertex 3.222663e+002 1.481261e+002 4.954477e+001
      endloop
   endfacet
   facet normal -2.007046e-033 -1.000000e+000 -6.741607e-033
      outer loop
         vertex 3.222663e+002 1.481261e+002 4.954477e+001
         vertex 3.182508e+002 1.481261e+002 5.569098e+001
         vertex 3.179163e+002 1.481261e+002 5.536845e+001
      endloop
   endfacet
   facet normal -2.007046e-033 -1.000000e+000 -6.741607e-033
      outer loop
         vertex 3.222663e+002 1.481261e+002 4.954477e+001
         vertex 3.179163e+002 1.481261e+002 5.536845e+001
         vertex 3.176249e+002 1.481261e+002 5.500655e+001
      endloop
   endfacet
   facet normal -2.007046e-033 -1.000000e+000 -6.741607e-033
      outer loop
         vertex 3.238653e+002 1.481261e+002 5.469672e+001
         vertex 3.236111e+002 1.481261e+002 5.508571e+001
         vertex 3.190273e+002 1.481261e+002 5.619825e+001
      endloop
   endfacet
   facet normal -2.007046e-033 -1.000000e+000 -6.741607e-033
      outer loop
         vertex 3.190273e+002 1.481261e+002 5.619825e+001
         vertex 3.236111e+002 1.481261e+002 5.508571e+001
         vertex 3.233102e+002 1.481261e+002 5.543978e+001
      endloop
   endfacet
   facet normal -2.007046e-033 -1.000000e+000 -6.741607e-033
      outer loop
         vertex 3.190273e+002 1.481261e+002 5.619825e+001
         vertex 3.233102e+002 1.481261e+002 5.543978e+001
         vertex 3.229673e+002 1.481261e+002 5.575335e+001
      endloop
   endfacet
   facet normal -2.007046e-033 -1.000000e+000 -6.741607e-033
      outer loop
         vertex 3.217435e+002 1.481261e+002 5.640523e+001
         vertex 3.212920e+002 1.481261e+002 5.651482e+001
         vertex 3.190273e+002 1.481261e+002 5.619825e+001
      endloop
   endfacet
   facet normal -2.007046e-033 -1.000000e+000 -6.741607e-033
      outer loop
         vertex 3.190273e+002 1.481261e+002 5.619825e+001
         vertex 3.212920e+002 1.481261e+002 5.651482e+001
         vertex 3.208303e+002 1.481261e+002 5.656696e+001
      endloop
   endfacet
   facet normal -2.007046e-033 -1.000000e+000 -6.741607e-033
      outer loop
         vertex 3.190273e+002 1.481261e+002 5.619825e+001
         vertex 3.208303e+002 1.481261e+002 5.656696e+001
         vertex 3.194570e+002 1.481261e+002 5.637500e+001
      endloop
   endfacet
   facet normal -2.007046e-033 -1.000000e+000 -6.741607e-033
      outer loop
         vertex 3.194570e+002 1.481261e+002 5.637500e+001
         vertex 3.208303e+002 1.481261e+002 5.656696e+001
         vertex 3.199055e+002 1.481261e+002 5.649649e+001
      endloop
   endfacet
   facet normal -2.007046e-033 -1.000000e+000 -6.741607e-033
      outer loop
         vertex 3.176249e+002 1.481261e+002 5.500655e+001
         vertex 3.173811e+002 1.481261e+002 5.461097e+001
         vertex 3.222663e+002 1.481261e+002 4.954477e+001
      endloop
   endfacet
   facet normal -2.007046e-033 -1.000000e+000 -6.741607e-033
      outer loop
         vertex 3.222663e+002 1.481261e+002 4.954477e+001
         vertex 3.173811e+002 1.481261e+002 5.461097e+001
         vertex 3.171889e+002 1.481261e+002 5.418797e+001
      endloop
   endfacet
   facet normal -2.007046e-033 -1.000000e+000 -6.741607e-033
      outer loop
         vertex 3.222663e+002 1.481261e+002 4.954477e+001
         vertex 3.171889e+002 1.481261e+002 5.418797e+001
         vertex 3.170512e+002 1.481261e+002 5.374420e+001
      endloop
   endfacet
   facet normal -2.007046e-033 -1.000000e+000 -6.741607e-033
      outer loop
         vertex 3.170512e+002 1.481261e+002 5.374420e+001
         vertex 3.169702e+002 1.481261e+002 5.328667e+001
         vertex 3.222663e+002 1.481261e+002 4.954477e+001
      endloop
   endfacet
   facet normal -2.007046e-033 -1.000000e+000 -6.741607e-033
      outer loop
         vertex 3.222663e+002 1.481261e+002 4.954477e+001
         vertex 3.169702e+002 1.481261e+002 5.328667e+001
         vertex 3.169471e+002 1.481261e+002 5.282259e+001
      endloop
   endfacet
   facet normal -2.007046e-033 -1.000000e+000 -6.741607e-033
      outer loop
         vertex 3.222663e+002 1.481261e+002 4.954477e+001
         vertex 3.169471e+002 1.481261e+002 5.282259e+001
         vertex 3.218365e+002 1.481261e+002 4.936803e+001
      endloop
   endfacet
   facet normal -2.007046e-033 -1.000000e+000 -6.741607e-033
      outer loop
         vertex 3.218365e+002 1.481261e+002 4.936803e+001
         vertex 3.169471e+002 1.481261e+002 5.282259e+001
         vertex 3.169824e+002 1.481261e+002 5.235928e+001
      endloop
   endfacet
   facet normal -2.007046e-033 -1.000000e+000 -6.741607e-033
      outer loop
         vertex 3.218365e+002 1.481261e+002 4.936803e+001
         vertex 3.169824e+002 1.481261e+002 5.235928e+001
         vertex 3.170755e+002 1.481261e+002 5.190405e+001
      endloop
   endfacet
   facet normal -2.007046e-033 -1.000000e+000 -6.741607e-033
      outer loop
         vertex 3.170755e+002 1.481261e+002 5.190405e+001
         vertex 3.172249e+002 1.481261e+002 5.146408e+001
         vertex 3.218365e+002 1.481261e+002 4.936803e+001
      endloop
   endfacet
   facet normal -2.007046e-033 -1.000000e+000 -6.741607e-033
      outer loop
         vertex 3.218365e+002 1.481261e+002 4.936803e+001
         vertex 3.172249e+002 1.481261e+002 5.146408e+001
         vertex 3.174283e+002 1.481261e+002 5.104631e+001
      endloop
   endfacet
   facet normal -2.007046e-033 -1.000000e+000 -6.741607e-033
      outer loop
         vertex 3.218365e+002 1.481261e+002 4.936803e+001
         vertex 3.174283e+002 1.481261e+002 5.104631e+001
         vertex 3.176824e+002 1.481261e+002 5.065732e+001
      endloop
   endfacet
   facet normal -2.007046e-033 -1.000000e+000 -6.741607e-033
      outer loop
         vertex 3.176824e+002 1.481261e+002 5.065732e+001
         vertex 3.179833e+002 1.481261e+002 5.030325e+001
         vertex 3.218365e+002 1.481261e+002 4.936803e+001
      endloop
   endfacet
   facet normal -2.007046e-033 -1.000000e+000 -6.741607e-033
      outer loop
         vertex 3.218365e+002 1.481261e+002 4.936803e+001
         vertex 3.179833e+002 1.481261e+002 5.030325e+001
         vertex 3.183262e+002 1.481261e+002 4.998968e+001
      endloop
   endfacet
   facet normal -2.007046e-033 -1.000000e+000 -6.741607e-033
      outer loop
         vertex 3.218365e+002 1.481261e+002 4.936803e+001
         vertex 3.183262e+002 1.481261e+002 4.998968e+001
         vertex 3.187057e+002 1.481261e+002 4.972156e+001
      endloop
   endfacet
   facet normal -2.007046e-033 -1.000000e+000 -6.741607e-033
      outer loop
         vertex 3.187057e+002 1.481261e+002 4.972156e+001
         vertex 3.191158e+002 1.481261e+002 4.950311e+001
         vertex 3.218365e+002 1.481261e+002 4.936803e+001
      endloop
   endfacet
   facet normal -2.007046e-033 -1.000000e+000 -6.741607e-033
      outer loop
         vertex 3.218365e+002 1.481261e+002 4.936803e+001
         vertex 3.191158e+002 1.481261e+002 4.950311e+001
         vertex 3.195500e+002 1.481261e+002 4.933779e+001
      endloop
   endfacet
   facet normal -2.007046e-033 -1.000000e+000 -6.741607e-033
      outer loop
         vertex 3.218365e+002 1.481261e+002 4.936803e+001
         vertex 3.195500e+002 1.481261e+002 4.933779e+001
         vertex 3.200016e+002 1.481261e+002 4.922820e+001
      endloop
   endfacet
   facet normal -2.007046e-033 -1.000000e+000 -6.741607e-033
      outer loop
         vertex 3.200016e+002 1.481261e+002 4.922820e+001
         vertex 3.204633e+002 1.481261e+002 4.917606e+001
         vertex 3.218365e+002 1.481261e+002 4.936803e+001
      endloop
   endfacet
   facet normal -2.007046e-033 -1.000000e+000 -6.741607e-033
      outer loop
         vertex 3.218365e+002 1.481261e+002 4.936803e+001
         vertex 3.204633e+002 1.481261e+002 4.917606e+001
         vertex 3.209279e+002 1.481261e+002 4.918221e+001
      endloop
   endfacet
   facet normal -2.007046e-033 -1.000000e+000 -6.741607e-033
      outer loop
         vertex 3.218365e+002 1.481261e+002 4.936803e+001
         vertex 3.209279e+002 1.481261e+002 4.918221e+001
         vertex 3.213881e+002 1.481261e+002 4.924654e+001
      endloop
   endfacet
   facet normal -3.198068e-001 7.072011e-001 6.305475e-001
      outer loop
         vertex 3.190273e+002 1.481261e+002 5.619825e+001
         vertex 3.195525e+002 1.493260e+002 5.511930e+001
         vertex 3.194460e+002 1.493260e+002 5.505888e+001
      endloop
   endfacet
   facet normal -3.457428e-001 7.075795e-001 6.162736e-001
      outer loop
         vertex 3.190273e+002 1.481261e+002 5.619825e+001
         vertex 3.194460e+002 1.493260e+002 5.505888e+001
         vertex 3.186231e+002 1.481261e+002 5.596904e+001
      endloop
   endfacet
   facet normal -2.870639e-001 7.075337e-001 6.457479e-001
      outer loop
         vertex 3.195525e+002 1.493260e+002 5.511930e+001
         vertex 3.190273e+002 1.481261e+002 5.619825e+001
         vertex 3.197933e+002 1.493260e+002 5.521836e+001
      endloop
   endfacet
   facet normal -2.597115e-001 7.076395e-001 6.571121e-001
      outer loop
         vertex 3.197933e+002 1.493260e+002 5.521836e+001
         vertex 3.190273e+002 1.481261e+002 5.619825e+001
         vertex 3.194570e+002 1.481261e+002 5.637500e+001
      endloop
   endfacet
   facet normal -2.321473e-001 7.071248e-001 6.678938e-001
      outer loop
         vertex 3.197933e+002 1.493260e+002 5.521836e+001
         vertex 3.194570e+002 1.481261e+002 5.637500e+001
         vertex 3.198428e+002 1.493260e+002 5.523873e+001
      endloop
   endfacet
   facet normal -1.989855e-001 7.077271e-001 6.778842e-001
      outer loop
         vertex 3.198428e+002 1.493260e+002 5.523873e+001
         vertex 3.194570e+002 1.481261e+002 5.637500e+001
         vertex 3.201459e+002 1.493260e+002 5.532082e+001
      endloop
   endfacet
   facet normal -1.703905e-001 7.077271e-001 6.856307e-001
      outer loop
         vertex 3.201459e+002 1.493260e+002 5.532082e+001
         vertex 3.194570e+002 1.481261e+002 5.637500e+001
         vertex 3.199055e+002 1.481261e+002 5.649649e+001
      endloop
   endfacet
   facet normal -1.402598e-001 7.071083e-001 6.930549e-001
      outer loop
         vertex 3.201459e+002 1.493260e+002 5.532082e+001
         vertex 3.199055e+002 1.481261e+002 5.649649e+001
         vertex 3.201610e+002 1.493260e+002 5.532294e+001
      endloop
   endfacet
   facet normal -1.110376e-001 7.076985e-001 6.977346e-001
      outer loop
         vertex 3.201610e+002 1.493260e+002 5.532294e+001
         vertex 3.199055e+002 1.481261e+002 5.649649e+001
         vertex 3.203656e+002 1.481261e+002 5.656082e+001
      endloop
   endfacet
   facet normal -8.169495e-002 7.076682e-001 7.018059e-001
      outer loop
         vertex 3.201610e+002 1.493260e+002 5.532294e+001
         vertex 3.203656e+002 1.481261e+002 5.656082e+001
         vertex 3.204568e+002 1.493260e+002 5.536428e+001
      endloop
   endfacet
   facet normal -4.580821e-002 7.071513e-001 7.055768e-001
      outer loop
         vertex 3.204568e+002 1.493260e+002 5.536428e+001
         vertex 3.203656e+002 1.481261e+002 5.656082e+001
         vertex 3.205410e+002 1.493260e+002 5.536540e+001
      endloop
   endfacet
   facet normal -1.621964e-002 7.076054e-001 7.064216e-001
      outer loop
         vertex 3.205410e+002 1.493260e+002 5.536540e+001
         vertex 3.203656e+002 1.481261e+002 5.656082e+001
         vertex 3.208303e+002 1.481261e+002 5.656696e+001
      endloop
   endfacet
   facet normal 1.339523e-002 7.074392e-001 7.066472e-001
      outer loop
         vertex 3.205410e+002 1.493260e+002 5.536540e+001
         vertex 3.208303e+002 1.481261e+002 5.656696e+001
         vertex 3.207708e+002 1.493260e+002 5.536844e+001
      endloop
   endfacet
   facet normal 4.947366e-002 7.072544e-001 7.052259e-001
      outer loop
         vertex 3.207708e+002 1.493260e+002 5.536844e+001
         vertex 3.208303e+002 1.481261e+002 5.656696e+001
         vertex 3.209229e+002 1.493260e+002 5.535125e+001
      endloop
   endfacet
   facet normal 7.892807e-002 7.075721e-001 7.022194e-001
      outer loop
         vertex 3.209229e+002 1.493260e+002 5.535125e+001
         vertex 3.208303e+002 1.481261e+002 5.656696e+001
         vertex 3.212920e+002 1.481261e+002 5.651482e+001
      endloop
   endfacet
   facet normal 1.083139e-001 7.072695e-001 6.985971e-001
      outer loop
         vertex 3.209229e+002 1.493260e+002 5.535125e+001
         vertex 3.212920e+002 1.481261e+002 5.651482e+001
         vertex 3.210827e+002 1.493260e+002 5.533321e+001
      endloop
   endfacet
   facet normal 1.438155e-001 7.074174e-001 6.920099e-001
      outer loop
         vertex 3.210827e+002 1.493260e+002 5.533321e+001
         vertex 3.212920e+002 1.481261e+002 5.651482e+001
         vertex 3.212986e+002 1.493260e+002 5.528083e+001
      endloop
   endfacet
   facet normal 1.726370e-001 7.075988e-001 6.852010e-001
      outer loop
         vertex 3.212986e+002 1.493260e+002 5.528083e+001
         vertex 3.212920e+002 1.481261e+002 5.651482e+001
         vertex 3.217435e+002 1.481261e+002 5.640523e+001
      endloop
   endfacet
   facet normal 2.012967e-001 7.071598e-001 6.777940e-001
      outer loop
         vertex 3.212986e+002 1.493260e+002 5.528083e+001
         vertex 3.217435e+002 1.481261e+002 5.640523e+001
         vertex 3.213878e+002 1.493260e+002 5.525916e+001
      endloop
   endfacet
   facet normal 2.354660e-001 7.076399e-001 6.661843e-001
      outer loop
         vertex 3.213878e+002 1.493260e+002 5.525916e+001
         vertex 3.217435e+002 1.481261e+002 5.640523e+001
         vertex 3.216598e+002 1.493260e+002 5.515562e+001
      endloop
   endfacet
   facet normal 2.631665e-001 7.076852e-001 6.556867e-001
      outer loop
         vertex 3.216598e+002 1.493260e+002 5.515562e+001
         vertex 3.217435e+002 1.481261e+002 5.640523e+001
         vertex 3.221777e+002 1.481261e+002 5.623991e+001
      endloop
   endfacet
   facet normal 2.906156e-001 7.071101e-001 6.446223e-001
      outer loop
         vertex 3.216598e+002 1.493260e+002 5.515562e+001
         vertex 3.221777e+002 1.481261e+002 5.623991e+001
         vertex 3.216812e+002 1.493260e+002 5.514746e+001
      endloop
   endfacet
   facet normal 3.189895e-001 7.077271e-001 6.303713e-001
      outer loop
         vertex 3.216812e+002 1.493260e+002 5.514746e+001
         vertex 3.221777e+002 1.481261e+002 5.623991e+001
         vertex 3.219583e+002 1.493260e+002 5.499986e+001
      endloop
   endfacet
   facet normal 3.451371e-001 7.077271e-001 6.164436e-001
      outer loop
         vertex 3.219583e+002 1.493260e+002 5.499986e+001
         vertex 3.221777e+002 1.481261e+002 5.623991e+001
         vertex 3.225879e+002 1.481261e+002 5.602147e+001
      endloop
   endfacet
   facet normal 3.746267e-001 7.071200e-001 5.996967e-001
      outer loop
         vertex 3.219583e+002 1.493260e+002 5.499986e+001
         vertex 3.225879e+002 1.481261e+002 5.602147e+001
         vertex 3.219958e+002 1.493260e+002 5.497337e+001
      endloop
   endfacet
   facet normal 3.991006e-001 7.076498e-001 5.830528e-001
      outer loop
         vertex 3.219958e+002 1.493260e+002 5.497337e+001
         vertex 3.225879e+002 1.481261e+002 5.602147e+001
         vertex 3.229673e+002 1.481261e+002 5.575335e+001
      endloop
   endfacet
   facet normal 4.232396e-001 7.075592e-001 5.658871e-001
      outer loop
         vertex 3.219958e+002 1.493260e+002 5.497337e+001
         vertex 3.229673e+002 1.481261e+002 5.575335e+001
         vertex 3.222147e+002 1.493260e+002 5.481870e+001
      endloop
   endfacet
   facet normal 4.518118e-001 7.071897e-001 5.438280e-001
      outer loop
         vertex 3.222147e+002 1.493260e+002 5.481870e+001
         vertex 3.229673e+002 1.481261e+002 5.575335e+001
         vertex 3.222995e+002 1.493260e+002 5.474120e+001
      endloop
   endfacet
   facet normal 4.739212e-001 7.075832e-001 5.241418e-001
      outer loop
         vertex 3.222995e+002 1.493260e+002 5.474120e+001
         vertex 3.229673e+002 1.481261e+002 5.575335e+001
         vertex 3.233102e+002 1.481261e+002 5.543978e+001
      endloop
   endfacet
   facet normal 4.956204e-001 7.073564e-001 5.039914e-001
      outer loop
         vertex 3.222995e+002 1.493260e+002 5.474120e+001
         vertex 3.233102e+002 1.481261e+002 5.543978e+001
         vertex 3.224464e+002 1.493260e+002 5.460683e+001
      endloop
   endfacet
   facet normal 5.207381e-001 7.073194e-001 4.780492e-001
      outer loop
         vertex 3.224464e+002 1.493260e+002 5.460683e+001
         vertex 3.233102e+002 1.481261e+002 5.543978e+001
         vertex 3.225654e+002 1.493260e+002 5.446677e+001
      endloop
   endfacet
   facet normal 5.401076e-001 7.075766e-001 4.556525e-001
      outer loop
         vertex 3.225654e+002 1.493260e+002 5.446677e+001
         vertex 3.233102e+002 1.481261e+002 5.543978e+001
         vertex 3.236111e+002 1.481261e+002 5.508571e+001
      endloop
   endfacet
   facet normal 5.590007e-001 7.072133e-001 4.328597e-001
      outer loop
         vertex 3.225654e+002 1.493260e+002 5.446677e+001
         vertex 3.236111e+002 1.481261e+002 5.508571e+001
         vertex 3.226497e+002 1.493260e+002 5.436759e+001
      endloop
   endfacet
   facet normal 5.801284e-001 7.075090e-001 4.035864e-001
      outer loop
         vertex 3.226497e+002 1.493260e+002 5.436759e+001
         vertex 3.236111e+002 1.481261e+002 5.508571e+001
         vertex 3.227879e+002 1.493260e+002 5.415601e+001
      endloop
   endfacet
   facet normal 5.964289e-001 7.076298e-001 3.788570e-001
      outer loop
         vertex 3.227879e+002 1.493260e+002 5.415601e+001
         vertex 3.236111e+002 1.481261e+002 5.508571e+001
         vertex 3.238653e+002 1.481261e+002 5.469672e+001
      endloop
   endfacet
   facet normal 6.121978e-001 7.071303e-001 3.538087e-001
      outer loop
         vertex 3.227879e+002 1.493260e+002 5.415601e+001
         vertex 3.238653e+002 1.481261e+002 5.469672e+001
         vertex 3.228214e+002 1.493260e+002 5.410476e+001
      endloop
   endfacet
   facet normal 6.285909e-001 7.077271e-001 3.224838e-001
      outer loop
         vertex 3.228214e+002 1.493260e+002 5.410476e+001
         vertex 3.238653e+002 1.481261e+002 5.469672e+001
         vertex 3.229589e+002 1.493260e+002 5.382248e+001
      endloop
   endfacet
   facet normal 6.415582e-001 7.077271e-001 2.958468e-001
      outer loop
         vertex 3.229589e+002 1.493260e+002 5.382248e+001
         vertex 3.238653e+002 1.481261e+002 5.469672e+001
         vertex 3.240686e+002 1.481261e+002 5.427894e+001
      endloop
   endfacet
   facet normal 6.542251e-001 7.071071e-001 2.683079e-001
      outer loop
         vertex 3.229589e+002 1.493260e+002 5.382248e+001
         vertex 3.240686e+002 1.481261e+002 5.427894e+001
         vertex 3.229613e+002 1.493260e+002 5.381524e+001
      endloop
   endfacet
   facet normal 6.643115e-001 7.077124e-001 2.404859e-001
      outer loop
         vertex 3.229613e+002 1.493260e+002 5.381524e+001
         vertex 3.240686e+002 1.481261e+002 5.427894e+001
         vertex 3.242181e+002 1.481261e+002 5.383897e+001
      endloop
   endfacet
   facet normal 6.738235e-001 7.076973e-001 2.124298e-001
      outer loop
         vertex 3.229613e+002 1.493260e+002 5.381524e+001
         vertex 3.242181e+002 1.481261e+002 5.383897e+001
         vertex 3.230598e+002 1.493260e+002 5.352520e+001
      endloop
   endfacet
   facet normal 6.843215e-001 7.071435e-001 1.779103e-001
      outer loop
         vertex 3.230598e+002 1.493260e+002 5.352520e+001
         vertex 3.242181e+002 1.481261e+002 5.383897e+001
         vertex 3.230751e+002 1.493260e+002 5.345022e+001
      endloop
   endfacet
   facet normal 6.907103e-001 7.076128e-001 1.490080e-001
      outer loop
         vertex 3.230751e+002 1.493260e+002 5.345022e+001
         vertex 3.242181e+002 1.481261e+002 5.383897e+001
         vertex 3.243111e+002 1.481261e+002 5.338374e+001
      endloop
   endfacet
   facet normal 6.964962e-001 7.074617e-001 1.199621e-001
      outer loop
         vertex 3.230751e+002 1.493260e+002 5.345022e+001
         vertex 3.243111e+002 1.481261e+002 5.338374e+001
         vertex 3.231227e+002 1.493260e+002 5.321761e+001
      endloop
   endfacet
   facet normal 7.019333e-001 7.072399e-001 8.426884e-002
      outer loop
         vertex 3.231227e+002 1.493260e+002 5.321761e+001
         vertex 3.243111e+002 1.481261e+002 5.338374e+001
         vertex 3.231338e+002 1.493260e+002 5.307255e+001
      endloop
   endfacet
   facet normal 7.045143e-001 7.075729e-001 5.477489e-002
      outer loop
         vertex 3.231338e+002 1.493260e+002 5.307255e+001
         vertex 3.243111e+002 1.481261e+002 5.338374e+001
         vertex 3.243465e+002 1.481261e+002 5.292043e+001
      endloop
   endfacet
   facet normal 7.064776e-001 7.072855e-001 2.523099e-002
      outer loop
         vertex 3.231338e+002 1.493260e+002 5.307255e+001
         vertex 3.243465e+002 1.481261e+002 5.292043e+001
         vertex 3.231465e+002 1.493260e+002 5.290457e+001
      endloop
   endfacet
   facet normal 7.067333e-001 7.073964e-001 -1.087656e-002
      outer loop
         vertex 3.231465e+002 1.493260e+002 5.290457e+001
         vertex 3.243465e+002 1.481261e+002 5.292043e+001
         vertex 3.231359e+002 1.493260e+002 5.269040e+001
      endloop
   endfacet
   facet normal 7.054609e-001 7.075928e-001 -4.046326e-002
      outer loop
         vertex 3.231359e+002 1.493260e+002 5.269040e+001
         vertex 3.243465e+002 1.481261e+002 5.292043e+001
         vertex 3.243234e+002 1.481261e+002 5.245636e+001
      endloop
   endfacet
   facet normal 7.035704e-001 7.071690e-001 -7.000493e-002
      outer loop
         vertex 3.231359e+002 1.493260e+002 5.269040e+001
         vertex 3.243234e+002 1.481261e+002 5.245636e+001
         vertex 3.231310e+002 1.493260e+002 5.259100e+001
      endloop
   endfacet
   facet normal 6.986417e-001 7.076123e-001 -1.057578e-001
      outer loop
         vertex 3.231310e+002 1.493260e+002 5.259100e+001
         vertex 3.243234e+002 1.481261e+002 5.245636e+001
         vertex 3.230816e+002 1.493260e+002 5.231199e+001
      endloop
   endfacet
   facet normal 6.935356e-001 7.076727e-001 -1.349364e-001
      outer loop
         vertex 3.230816e+002 1.493260e+002 5.231199e+001
         vertex 3.243234e+002 1.481261e+002 5.245636e+001
         vertex 3.242424e+002 1.481261e+002 5.199883e+001
      endloop
   endfacet
   facet normal 6.878253e-001 7.071126e-001 -1.639761e-001
      outer loop
         vertex 3.230816e+002 1.493260e+002 5.231199e+001
         vertex 3.242424e+002 1.481261e+002 5.199883e+001
         vertex 3.230762e+002 1.493260e+002 5.228186e+001
      endloop
   endfacet
   facet normal 6.789784e-001 7.077271e-001 -1.952195e-001
      outer loop
         vertex 3.230762e+002 1.493260e+002 5.228186e+001
         vertex 3.242424e+002 1.481261e+002 5.199883e+001
         vertex 3.229832e+002 1.493260e+002 5.198201e+001
      endloop
   endfacet
   facet normal 6.701970e-001 7.077271e-001 -2.235139e-001
      outer loop
         vertex 3.229832e+002 1.493260e+002 5.198201e+001
         vertex 3.242424e+002 1.481261e+002 5.199883e+001
         vertex 3.241047e+002 1.481261e+002 5.155506e+001
      endloop
   endfacet
   facet normal 6.595367e-001 7.071159e-001 -2.549477e-001
      outer loop
         vertex 3.229832e+002 1.493260e+002 5.198201e+001
         vertex 3.241047e+002 1.481261e+002 5.155506e+001
         vertex 3.229673e+002 1.493260e+002 5.194719e+001
      endloop
   endfacet
   facet normal 6.477876e-001 7.076609e-001 -2.821122e-001
      outer loop
         vertex 3.229673e+002 1.493260e+002 5.194719e+001
         vertex 3.241047e+002 1.481261e+002 5.155506e+001
         vertex 3.239124e+002 1.481261e+002 5.113205e+001
      endloop
   endfacet
   facet normal 6.354626e-001 7.075854e-001 -3.090473e-001
      outer loop
         vertex 3.229673e+002 1.493260e+002 5.194719e+001
         vertex 3.239124e+002 1.481261e+002 5.113205e+001
         vertex 3.228533e+002 1.493260e+002 5.169620e+001
      endloop
   endfacet
   facet normal 6.192152e-001 7.071790e-001 -3.412777e-001
      outer loop
         vertex 3.228533e+002 1.493260e+002 5.169620e+001
         vertex 3.239124e+002 1.481261e+002 5.113205e+001
         vertex 3.227971e+002 1.493260e+002 5.160496e+001
      endloop
   endfacet
   facet normal 6.040340e-001 7.075877e-001 -3.666914e-001
      outer loop
         vertex 3.227971e+002 1.493260e+002 5.160496e+001
         vertex 3.239124e+002 1.481261e+002 5.113205e+001
         vertex 3.236686e+002 1.481261e+002 5.073648e+001
      endloop
   endfacet
   facet normal 5.883189e-001 7.073761e-001 -3.917907e-001
      outer loop
         vertex 3.227971e+002 1.493260e+002 5.160496e+001
         vertex 3.236686e+002 1.481261e+002 5.073648e+001
         vertex 3.226886e+002 1.493260e+002 5.142892e+001
      endloop
   endfacet
   facet normal 5.676035e-001 7.073020e-001 -4.213668e-001
      outer loop
         vertex 3.226886e+002 1.493260e+002 5.142892e+001
         vertex 3.236686e+002 1.481261e+002 5.073648e+001
         vertex 3.225781e+002 1.493260e+002 5.129174e+001
      endloop
   endfacet
   facet normal 5.492454e-001 7.075744e-001 -4.445987e-001
      outer loop
         vertex 3.225781e+002 1.493260e+002 5.129174e+001
         vertex 3.236686e+002 1.481261e+002 5.073648e+001
         vertex 3.233772e+002 1.481261e+002 5.037458e+001
      endloop
   endfacet
   facet normal 5.304077e-001 7.072263e-001 -4.674384e-001
      outer loop
         vertex 3.225781e+002 1.493260e+002 5.129174e+001
         vertex 3.233772e+002 1.481261e+002 5.037458e+001
         vertex 3.224917e+002 1.493260e+002 5.118439e+001
      endloop
   endfacet
   facet normal 5.056642e-001 7.074851e-001 -4.937293e-001
      outer loop
         vertex 3.224917e+002 1.493260e+002 5.118439e+001
         vertex 3.233772e+002 1.481261e+002 5.037458e+001
         vertex 3.223152e+002 1.493260e+002 5.101428e+001
      endloop
   endfacet
   facet normal 4.844384e-001 7.076210e-001 -5.143850e-001
      outer loop
         vertex 3.223152e+002 1.493260e+002 5.101428e+001
         vertex 3.233772e+002 1.481261e+002 5.037458e+001
         vertex 3.230427e+002 1.481261e+002 5.005205e+001
      endloop
   endfacet
   facet normal 4.627985e-001 7.071365e-001 -5.345798e-001
      outer loop
         vertex 3.223152e+002 1.493260e+002 5.101428e+001
         vertex 3.230427e+002 1.481261e+002 5.005205e+001
         vertex 3.222657e+002 1.493260e+002 5.096647e+001
      endloop
   endfacet
   facet normal 4.345579e-001 7.077271e-001 -5.570294e-001
      outer loop
         vertex 3.222657e+002 1.493260e+002 5.096647e+001
         vertex 3.230427e+002 1.481261e+002 5.005205e+001
         vertex 3.220141e+002 1.493260e+002 5.077859e+001
      endloop
   endfacet
   facet normal 4.108225e-001 7.077271e-001 -5.747583e-001
      outer loop
         vertex 3.220141e+002 1.493260e+002 5.077859e+001
         vertex 3.230427e+002 1.481261e+002 5.005205e+001
         vertex 3.226705e+002 1.481261e+002 4.977399e+001
      endloop
   endfacet
   facet normal 3.613170e-001 7.077271e-001 -6.071016e-001
      outer loop
         vertex 3.220141e+002 1.493260e+002 5.077859e+001
         vertex 3.226705e+002 1.481261e+002 4.977399e+001
         vertex 3.217411e+002 1.493260e+002 5.062372e+001
      endloop
   endfacet
   facet normal 3.355468e-001 7.077271e-001 -6.217159e-001
      outer loop
         vertex 3.217411e+002 1.493260e+002 5.062372e+001
         vertex 3.226705e+002 1.481261e+002 4.977399e+001
         vertex 3.222663e+002 1.481261e+002 4.954477e+001
      endloop
   endfacet
   facet normal 3.036437e-001 7.071366e-001 -6.385596e-001
      outer loop
         vertex 3.217411e+002 1.493260e+002 5.062372e+001
         vertex 3.222663e+002 1.481261e+002 4.954477e+001
         vertex 3.216773e+002 1.493260e+002 5.059752e+001
      endloop
   endfacet
   facet normal 2.764571e-001 7.076210e-001 -6.502646e-001
      outer loop
         vertex 3.216773e+002 1.493260e+002 5.059752e+001
         vertex 3.222663e+002 1.481261e+002 4.954477e+001
         vertex 3.218365e+002 1.481261e+002 4.936803e+001
      endloop
   endfacet
   facet normal 2.490147e-001 7.074851e-001 -6.614050e-001
      outer loop
         vertex 3.216773e+002 1.493260e+002 5.059752e+001
         vertex 3.218365e+002 1.481261e+002 4.936803e+001
         vertex 3.214507e+002 1.493260e+002 5.050429e+001
      endloop
   endfacet
   facet normal 2.149988e-001 7.072263e-001 -6.735032e-001
      outer loop
         vertex 3.214507e+002 1.493260e+002 5.050429e+001
         vertex 3.218365e+002 1.481261e+002 4.936803e+001
         vertex 3.213177e+002 1.493260e+002 5.046826e+001
      endloop
   endfacet
   facet normal 1.865158e-001 7.075744e-001 -6.815793e-001
      outer loop
         vertex 3.213177e+002 1.493260e+002 5.046826e+001
         vertex 3.218365e+002 1.481261e+002 4.936803e+001
         vertex 3.213881e+002 1.481261e+002 4.924654e+001
      endloop
   endfacet
   facet normal 1.578662e-001 7.073020e-001 -6.890588e-001
      outer loop
         vertex 3.213177e+002 1.493260e+002 5.046826e+001
         vertex 3.213881e+002 1.481261e+002 4.924654e+001
         vertex 3.211476e+002 1.493260e+002 5.042220e+001
      endloop
   endfacet
   facet normal 1.224598e-001 7.073760e-001 -6.961485e-001
      outer loop
         vertex 3.211476e+002 1.493260e+002 5.042220e+001
         vertex 3.213881e+002 1.481261e+002 4.924654e+001
         vertex 3.209429e+002 1.493260e+002 5.039358e+001
      endloop
   endfacet
   facet normal 9.316184e-002 7.075877e-001 -7.004574e-001
      outer loop
         vertex 3.209429e+002 1.493260e+002 5.039358e+001
         vertex 3.213881e+002 1.481261e+002 4.924654e+001
         vertex 3.209279e+002 1.481261e+002 4.918221e+001
      endloop
   endfacet
   facet normal 6.379030e-002 7.071790e-001 -7.041510e-001
      outer loop
         vertex 3.209429e+002 1.493260e+002 5.039358e+001
         vertex 3.209279e+002 1.481261e+002 4.918221e+001
         vertex 3.208367e+002 1.493260e+002 5.037874e+001
      endloop
   endfacet
   facet normal 2.774809e-002 7.075854e-001 -7.060828e-001
      outer loop
         vertex 3.208367e+002 1.493260e+002 5.037874e+001
         vertex 3.209279e+002 1.481261e+002 4.918221e+001
         vertex 3.205611e+002 1.493260e+002 5.037509e+001
      endloop
   endfacet
   facet normal -1.869258e-003 7.076609e-001 -7.065498e-001
      outer loop
         vertex 3.205611e+002 1.493260e+002 5.037509e+001
         vertex 3.209279e+002 1.481261e+002 4.918221e+001
         vertex 3.204633e+002 1.481261e+002 4.917606e+001
      endloop
   endfacet
   facet normal -3.146537e-002 7.071159e-001 -7.063972e-001
      outer loop
         vertex 3.205611e+002 1.493260e+002 5.037509e+001
         vertex 3.204633e+002 1.481261e+002 4.917606e+001
         vertex 3.205228e+002 1.493260e+002 5.037459e+001
      endloop
   endfacet
   facet normal -6.453381e-002 7.077271e-001 -7.035323e-001
      outer loop
         vertex 3.205228e+002 1.493260e+002 5.037459e+001
         vertex 3.204633e+002 1.481261e+002 4.917606e+001
         vertex 3.202108e+002 1.493260e+002 5.040982e+001
      endloop
   endfacet
   facet normal -9.397241e-002 7.077271e-001 -7.002082e-001
      outer loop
         vertex 3.202108e+002 1.493260e+002 5.040982e+001
         vertex 3.204633e+002 1.481261e+002 4.917606e+001
         vertex 3.200016e+002 1.481261e+002 4.922820e+001
      endloop
   endfacet
   facet normal -1.261380e-001 7.071126e-001 -6.957592e-001
      outer loop
         vertex 3.202108e+002 1.493260e+002 5.040982e+001
         vertex 3.200016e+002 1.481261e+002 4.922820e+001
         vertex 3.201811e+002 1.493260e+002 5.041703e+001
      endloop
   endfacet
   facet normal -1.550256e-001 7.076726e-001 -6.893232e-001
      outer loop
         vertex 3.201811e+002 1.493260e+002 5.041703e+001
         vertex 3.200016e+002 1.481261e+002 4.922820e+001
         vertex 3.195500e+002 1.481261e+002 4.933779e+001
      endloop
   endfacet
   facet normal -1.837976e-001 7.076123e-001 -6.822780e-001
      outer loop
         vertex 3.201811e+002 1.493260e+002 5.041703e+001
         vertex 3.195500e+002 1.481261e+002 4.933779e+001
         vertex 3.199057e+002 1.493260e+002 5.048386e+001
      endloop
   endfacet
   facet normal -2.185188e-001 7.071690e-001 -6.724296e-001
      outer loop
         vertex 3.199057e+002 1.493260e+002 5.048386e+001
         vertex 3.195500e+002 1.481261e+002 4.933779e+001
         vertex 3.198127e+002 1.493260e+002 5.051927e+001
      endloop
   endfacet
   facet normal -2.463316e-001 7.075928e-001 -6.622938e-001
      outer loop
         vertex 3.198127e+002 1.493260e+002 5.051927e+001
         vertex 3.195500e+002 1.481261e+002 4.933779e+001
         vertex 3.191158e+002 1.481261e+002 4.950311e+001
      endloop
   endfacet
   facet normal -2.739373e-001 7.073964e-001 -6.515740e-001
      outer loop
         vertex 3.198127e+002 1.493260e+002 5.051927e+001
         vertex 3.191158e+002 1.481261e+002 4.950311e+001
         vertex 3.196123e+002 1.493260e+002 5.059557e+001
      endloop
   endfacet
   facet normal -3.069008e-001 7.072855e-001 -6.368353e-001
      outer loop
         vertex 3.196123e+002 1.493260e+002 5.059557e+001
         vertex 3.191158e+002 1.481261e+002 4.950311e+001
         vertex 3.194637e+002 1.493260e+002 5.067477e+001
      endloop
   endfacet
   facet normal -3.331675e-001 7.075729e-001 -6.231694e-001
      outer loop
         vertex 3.194637e+002 1.493260e+002 5.067477e+001
         vertex 3.191158e+002 1.481261e+002 4.950311e+001
         vertex 3.187057e+002 1.481261e+002 4.972156e+001
      endloop
   endfacet
   facet normal -3.591404e-001 7.072399e-001 -6.089580e-001
      outer loop
         vertex 3.194637e+002 1.493260e+002 5.067477e+001
         vertex 3.187057e+002 1.481261e+002 4.972156e+001
         vertex 3.193352e+002 1.493260e+002 5.074317e+001
      endloop
   endfacet
   facet normal -3.896431e-001 7.074618e-001 -5.896407e-001
      outer loop
         vertex 3.193352e+002 1.493260e+002 5.074317e+001
         vertex 3.187057e+002 1.481261e+002 4.972156e+001
         vertex 3.191413e+002 1.493260e+002 5.088017e+001
      endloop
   endfacet
   facet normal -4.139182e-001 7.076128e-001 -5.726743e-001
      outer loop
         vertex 3.191413e+002 1.493260e+002 5.088017e+001
         vertex 3.187057e+002 1.481261e+002 4.972156e+001
         vertex 3.183262e+002 1.481261e+002 4.998968e+001
      endloop
   endfacet
   facet normal -4.378196e-001 7.071435e-001 -5.552135e-001
      outer loop
         vertex 3.191413e+002 1.493260e+002 5.088017e+001
         vertex 3.183262e+002 1.481261e+002 4.998968e+001
         vertex 3.190788e+002 1.493260e+002 5.092433e+001
      endloop
   endfacet
   facet normal -5.865337e-001 7.076298e-001 -3.940029e-001
      outer loop
         vertex 3.174283e+002 1.481261e+002 5.104631e+001
         vertex 3.186104e+002 1.493260e+002 5.142669e+001
         vertex 3.176824e+002 1.481261e+002 5.065732e+001
      endloop
   endfacet
   facet normal -5.699297e-001 7.071303e-001 -4.185056e-001
      outer loop
         vertex 3.176824e+002 1.481261e+002 5.065732e+001
         vertex 3.186104e+002 1.493260e+002 5.142669e+001
         vertex 3.186438e+002 1.493260e+002 5.137543e+001
      endloop
   endfacet
   facet normal -5.478284e-001 7.077271e-001 -4.461013e-001
      outer loop
         vertex 3.176824e+002 1.481261e+002 5.065732e+001
         vertex 3.186438e+002 1.493260e+002 5.137543e+001
         vertex 3.179833e+002 1.481261e+002 5.030325e+001
      endloop
   endfacet
   facet normal -5.286441e-001 7.077271e-001 -4.686766e-001
      outer loop
         vertex 3.179833e+002 1.481261e+002 5.030325e+001
         vertex 3.186438e+002 1.493260e+002 5.137543e+001
         vertex 3.188471e+002 1.493260e+002 5.113620e+001
      endloop
   endfacet
   facet normal -4.875973e-001 7.077271e-001 -5.112447e-001
      outer loop
         vertex 3.179833e+002 1.481261e+002 5.030325e+001
         vertex 3.188471e+002 1.493260e+002 5.113620e+001
         vertex 3.183262e+002 1.481261e+002 4.998968e+001
      endloop
   endfacet
   facet normal -4.870864e-001 7.077124e-001 -5.117519e-001
      outer loop
         vertex 3.183262e+002 1.481261e+002 4.998968e+001
         vertex 3.188471e+002 1.493260e+002 5.113620e+001
         vertex 3.188528e+002 1.493260e+002 5.113103e+001
      endloop
   endfacet
   facet normal -4.652144e-001 7.076973e-001 -5.317330e-001
      outer loop
         vertex 3.183262e+002 1.481261e+002 4.998968e+001
         vertex 3.188528e+002 1.493260e+002 5.113103e+001
         vertex 3.190788e+002 1.493260e+002 5.092433e+001
      endloop
   endfacet
   facet normal -6.342362e-001 7.075766e-001 -3.115765e-001
      outer loop
         vertex 3.172249e+002 1.481261e+002 5.146408e+001
         vertex 3.184152e+002 1.493260e+002 5.175529e+001
         vertex 3.174283e+002 1.481261e+002 5.104631e+001
      endloop
   endfacet
   facet normal -6.209526e-001 7.072133e-001 -3.380342e-001
      outer loop
         vertex 3.174283e+002 1.481261e+002 5.104631e+001
         vertex 3.184152e+002 1.493260e+002 5.175529e+001
         vertex 3.184721e+002 1.493260e+002 5.163827e+001
      endloop
   endfacet
   facet normal -6.026321e-001 7.075090e-001 -3.691415e-001
      outer loop
         vertex 3.174283e+002 1.481261e+002 5.104631e+001
         vertex 3.184721e+002 1.493260e+002 5.163827e+001
         vertex 3.186104e+002 1.493260e+002 5.142669e+001
      endloop
   endfacet
   facet normal -6.703692e-001 7.075832e-001 -2.234526e-001
      outer loop
         vertex 3.170755e+002 1.481261e+002 5.190405e+001
         vertex 3.182707e+002 1.493260e+002 5.210909e+001
         vertex 3.172249e+002 1.481261e+002 5.146408e+001
      endloop
   endfacet
   facet normal -6.606328e-001 7.073564e-001 -2.514185e-001
      outer loop
         vertex 3.172249e+002 1.481261e+002 5.146408e+001
         vertex 3.182707e+002 1.493260e+002 5.210909e+001
         vertex 3.183347e+002 1.493260e+002 5.192055e+001
      endloop
   endfacet
   facet normal -6.469656e-001 7.073194e-001 -2.848417e-001
      outer loop
         vertex 3.172249e+002 1.481261e+002 5.146408e+001
         vertex 3.183347e+002 1.493260e+002 5.192055e+001
         vertex 3.184152e+002 1.493260e+002 5.175529e+001
      endloop
   endfacet
   facet normal -6.942623e-001 7.076498e-001 -1.312694e-001
      outer loop
         vertex 3.169824e+002 1.481261e+002 5.235928e+001
         vertex 3.181801e+002 1.493260e+002 5.248043e+001
         vertex 3.170755e+002 1.481261e+002 5.190405e+001
      endloop
   endfacet
   facet normal -6.882393e-001 7.075592e-001 -1.602707e-001
      outer loop
         vertex 3.170755e+002 1.481261e+002 5.190405e+001
         vertex 3.181801e+002 1.493260e+002 5.248043e+001
         vertex 3.182338e+002 1.493260e+002 5.221782e+001
      endloop
   endfacet
   facet normal -6.795157e-001 7.071897e-001 -1.952974e-001
      outer loop
         vertex 3.170755e+002 1.481261e+002 5.190405e+001
         vertex 3.182338e+002 1.493260e+002 5.221782e+001
         vertex 3.182707e+002 1.493260e+002 5.210909e+001
      endloop
   endfacet
   facet normal -7.061730e-001 7.076852e-001 2.239225e-002
      outer loop
         vertex 3.169702e+002 1.481261e+002 5.328667e+001
         vertex 3.181481e+002 1.493260e+002 5.286138e+001
         vertex 3.169471e+002 1.481261e+002 5.282259e+001
      endloop
   endfacet
   facet normal -7.070670e-001 7.071101e-001 -7.189394e-003
      outer loop
         vertex 3.169471e+002 1.481261e+002 5.282259e+001
         vertex 3.181481e+002 1.493260e+002 5.286138e+001
         vertex 3.181470e+002 1.493260e+002 5.283846e+001
      endloop
   endfacet
   facet normal -7.054142e-001 7.077271e-001 -3.889806e-002
      outer loop
         vertex 3.169471e+002 1.481261e+002 5.282259e+001
         vertex 3.181470e+002 1.493260e+002 5.283846e+001
         vertex 3.169824e+002 1.481261e+002 5.235928e+001
      endloop
   endfacet
   facet normal -7.031632e-001 7.077271e-001 -6.843808e-002
      outer loop
         vertex 3.169824e+002 1.481261e+002 5.235928e+001
         vertex 3.181470e+002 1.493260e+002 5.283846e+001
         vertex 3.181708e+002 1.493260e+002 5.252541e+001
      endloop
   endfacet
   facet normal -6.996731e-001 7.071200e-001 -1.021710e-001
      outer loop
         vertex 3.169824e+002 1.481261e+002 5.235928e+001
         vertex 3.181708e+002 1.493260e+002 5.252541e+001
         vertex 3.181801e+002 1.493260e+002 5.248043e+001
      endloop
   endfacet
   facet normal -6.968352e-001 7.075988e-001 1.171525e-001
      outer loop
         vertex 3.170512e+002 1.481261e+002 5.374420e+001
         vertex 3.181786e+002 1.493260e+002 5.324247e+001
         vertex 3.169702e+002 1.481261e+002 5.328667e+001
      endloop
   endfacet
   facet normal -7.015647e-001 7.071598e-001 8.793131e-002
      outer loop
         vertex 3.169702e+002 1.481261e+002 5.328667e+001
         vertex 3.181786e+002 1.493260e+002 5.324247e+001
         vertex 3.181626e+002 1.493260e+002 5.315202e+001
      endloop
   endfacet
   facet normal -7.046589e-001 7.076399e-001 5.197644e-002
      outer loop
         vertex 3.169702e+002 1.481261e+002 5.328667e+001
         vertex 3.181626e+002 1.493260e+002 5.315202e+001
         vertex 3.181481e+002 1.493260e+002 5.286138e+001
      endloop
   endfacet
   facet normal -6.747768e-001 7.075721e-001 2.098046e-001
      outer loop
         vertex 3.171889e+002 1.481261e+002 5.418797e+001
         vertex 3.182650e+002 1.493260e+002 5.361475e+001
         vertex 3.170512e+002 1.481261e+002 5.374420e+001
      endloop
   endfacet
   facet normal -6.832640e-001 7.072695e-001 1.814388e-001
      outer loop
         vertex 3.170512e+002 1.481261e+002 5.374420e+001
         vertex 3.182650e+002 1.493260e+002 5.361475e+001
         vertex 3.182173e+002 1.493260e+002 5.346116e+001
      endloop
   endfacet
   facet normal -6.914928e-001 7.074174e-001 1.462815e-001
      outer loop
         vertex 3.170512e+002 1.481261e+002 5.374420e+001
         vertex 3.182173e+002 1.493260e+002 5.346116e+001
         vertex 3.181786e+002 1.493260e+002 5.324247e+001
      endloop
   endfacet
   facet normal -6.404038e-001 7.076054e-001 2.986260e-001
      outer loop
         vertex 3.173811e+002 1.481261e+002 5.461097e+001
         vertex 3.184055e+002 1.493260e+002 5.397018e+001
         vertex 3.171889e+002 1.481261e+002 5.418797e+001
      endloop
   endfacet
   facet normal -6.525069e-001 7.074392e-001 2.715962e-001
      outer loop
         vertex 3.171889e+002 1.481261e+002 5.418797e+001
         vertex 3.184055e+002 1.493260e+002 5.397018e+001
         vertex 3.183104e+002 1.493260e+002 5.376101e+001
      endloop
   endfacet
   facet normal -6.656982e-001 7.072544e-001 2.379858e-001
      outer loop
         vertex 3.171889e+002 1.481261e+002 5.418797e+001
         vertex 3.183104e+002 1.493260e+002 5.376101e+001
         vertex 3.182650e+002 1.493260e+002 5.361475e+001
      endloop
   endfacet
   facet normal -5.943598e-001 7.076985e-001 3.819678e-001
      outer loop
         vertex 3.176249e+002 1.481261e+002 5.500655e+001
         vertex 3.185970e+002 1.493260e+002 5.430108e+001
         vertex 3.173811e+002 1.481261e+002 5.461097e+001
      endloop
   endfacet
   facet normal -6.098753e-001 7.076682e-001 3.567322e-001
      outer loop
         vertex 3.173811e+002 1.481261e+002 5.461097e+001
         vertex 3.185970e+002 1.493260e+002 5.430108e+001
         vertex 3.184402e+002 1.493260e+002 5.404683e+001
      endloop
   endfacet
   facet normal -6.277444e-001 7.071513e-001 3.253829e-001
      outer loop
         vertex 3.173811e+002 1.481261e+002 5.461097e+001
         vertex 3.184402e+002 1.493260e+002 5.404683e+001
         vertex 3.184055e+002 1.493260e+002 5.397018e+001
      endloop
   endfacet
   facet normal -4.974360e-001 7.076395e-001 5.018005e-001
      outer loop
         vertex 3.182508e+002 1.481261e+002 5.569098e+001
         vertex 3.188405e+002 1.493260e+002 5.459581e+001
         vertex 3.179163e+002 1.481261e+002 5.536845e+001
      endloop
   endfacet
   facet normal -5.183823e-001 7.071248e-001 4.808892e-001
      outer loop
         vertex 3.179163e+002 1.481261e+002 5.536845e+001
         vertex 3.188405e+002 1.493260e+002 5.459581e+001
         vertex 3.188019e+002 1.493260e+002 5.455864e+001
      endloop
   endfacet
   facet normal -5.408524e-001 7.077271e-001 4.545338e-001
      outer loop
         vertex 3.179163e+002 1.481261e+002 5.536845e+001
         vertex 3.188019e+002 1.493260e+002 5.455864e+001
         vertex 3.176249e+002 1.481261e+002 5.500655e+001
      endloop
   endfacet
   facet normal -5.594330e-001 7.077271e-001 4.314592e-001
      outer loop
         vertex 3.176249e+002 1.481261e+002 5.500655e+001
         vertex 3.188019e+002 1.493260e+002 5.455864e+001
         vertex 3.186050e+002 1.493260e+002 5.431410e+001
      endloop
   endfacet
   facet normal -5.783355e-001 7.071083e-001 4.068488e-001
      outer loop
         vertex 3.176249e+002 1.481261e+002 5.500655e+001
         vertex 3.186050e+002 1.493260e+002 5.431410e+001
         vertex 3.185970e+002 1.493260e+002 5.430108e+001
      endloop
   endfacet
   facet normal -3.713806e-001 7.073376e-001 6.014566e-001
      outer loop
         vertex 3.194460e+002 1.493260e+002 5.505888e+001
         vertex 3.192794e+002 1.493260e+002 5.496444e+001
         vertex 3.186231e+002 1.481261e+002 5.596904e+001
      endloop
   endfacet
   facet normal -4.016104e-001 7.073376e-001 5.817066e-001
      outer loop
         vertex 3.186231e+002 1.481261e+002 5.596904e+001
         vertex 3.192794e+002 1.493260e+002 5.496444e+001
         vertex 3.191260e+002 1.493260e+002 5.484986e+001
      endloop
   endfacet
   facet normal -4.254782e-001 7.075795e-001 5.641804e-001
      outer loop
         vertex 3.186231e+002 1.481261e+002 5.596904e+001
         vertex 3.191260e+002 1.493260e+002 5.484986e+001
         vertex 3.182508e+002 1.481261e+002 5.569098e+001
      endloop
   endfacet
   facet normal -4.489684e-001 7.072011e-001 5.461630e-001
      outer loop
         vertex 3.182508e+002 1.481261e+002 5.569098e+001
         vertex 3.191260e+002 1.493260e+002 5.484986e+001
         vertex 3.190279e+002 1.493260e+002 5.477656e+001
      endloop
   endfacet
   facet normal -4.760414e-001 7.075337e-001 5.222840e-001
      outer loop
         vertex 3.182508e+002 1.481261e+002 5.569098e+001
         vertex 3.190279e+002 1.493260e+002 5.477656e+001
         vertex 3.188405e+002 1.493260e+002 5.459581e+001
      endloop
   endfacet
endsolid