solid Torsion Device_9122016 - 1 d 6 L pin  93772A142-1
   facet normal -1.000000e+000 1.219934e-016 2.784367e-017
      outer loop
         vertex 4.771687e-002 1.518517e+001 3.933017e+000
         vertex 4.771687e-002 1.516221e+001 4.025908e+000
         vertex 4.771687e-002 1.577865e+001 4.128990e+000
      endloop
   endfacet
   facet normal -1.000000e+000 1.219934e-016 2.784367e-017
      outer loop
         vertex 4.771687e-002 1.518517e+001 3.933017e+000
         vertex 4.771687e-002 1.577865e+001 4.128990e+000
         vertex 4.771687e-002 1.522204e+001 3.844719e+000
      endloop
   endfacet
   facet normal -1.000000e+000 1.219934e-016 2.784367e-017
      outer loop
         vertex 4.771687e-002 1.540597e+001 3.627257e+000
         vertex 4.771687e-002 1.533375e+001 3.690027e+000
         vertex 4.771687e-002 1.577865e+001 4.128990e+000
      endloop
   endfacet
   facet normal -1.000000e+000 1.219934e-016 2.784367e-017
      outer loop
         vertex 4.771687e-002 1.577865e+001 4.128990e+000
         vertex 4.771687e-002 1.533375e+001 3.690027e+000
         vertex 4.771687e-002 1.527196e+001 3.763085e+000
      endloop
   endfacet
   facet normal -1.000000e+000 1.219934e-016 2.784367e-017
      outer loop
         vertex 4.771687e-002 1.577865e+001 4.128990e+000
         vertex 4.771687e-002 1.527196e+001 3.763085e+000
         vertex 4.771687e-002 1.522204e+001 3.844719e+000
      endloop
   endfacet
   facet normal -1.000000e+000 1.219934e-016 2.784367e-017
      outer loop
         vertex 4.771687e-002 1.566730e+001 3.513989e+000
         vertex 4.771687e-002 1.557472e+001 3.538195e+000
         vertex 4.771687e-002 1.577865e+001 4.128990e+000
      endloop
   endfacet
   facet normal -1.000000e+000 1.219934e-016 2.784367e-017
      outer loop
         vertex 4.771687e-002 1.577865e+001 4.128990e+000
         vertex 4.771687e-002 1.557472e+001 3.538195e+000
         vertex 4.771687e-002 1.548693e+001 3.576248e+000
      endloop
   endfacet
   facet normal -1.000000e+000 1.219934e-016 2.784367e-017
      outer loop
         vertex 4.771687e-002 1.577865e+001 4.128990e+000
         vertex 4.771687e-002 1.548693e+001 3.576248e+000
         vertex 4.771687e-002 1.540597e+001 3.627257e+000
      endloop
   endfacet
   facet normal -1.000000e+000 1.219934e-016 2.784367e-017
      outer loop
         vertex 4.771687e-002 1.595175e+001 3.528437e+000
         vertex 4.771687e-002 1.585805e+001 3.509053e+000
         vertex 4.771687e-002 1.577865e+001 4.128990e+000
      endloop
   endfacet
   facet normal -1.000000e+000 1.219934e-016 2.784367e-017
      outer loop
         vertex 4.771687e-002 1.577865e+001 4.128990e+000
         vertex 4.771687e-002 1.585805e+001 3.509053e+000
         vertex 4.771687e-002 1.576248e+001 3.504199e+000
      endloop
   endfacet
   facet normal -1.000000e+000 1.219934e-016 2.784367e-017
      outer loop
         vertex 4.771687e-002 1.577865e+001 4.128990e+000
         vertex 4.771687e-002 1.576248e+001 3.504199e+000
         vertex 4.771687e-002 1.566730e+001 3.513989e+000
      endloop
   endfacet
   facet normal -1.000000e+000 1.219934e-016 2.784367e-017
      outer loop
         vertex 4.771687e-002 1.620025e+001 3.667602e+000
         vertex 4.771687e-002 1.612488e+001 3.608652e+000
         vertex 4.771687e-002 1.577865e+001 4.128990e+000
      endloop
   endfacet
   facet normal -1.000000e+000 1.219934e-016 2.784367e-017
      outer loop
         vertex 4.771687e-002 1.577865e+001 4.128990e+000
         vertex 4.771687e-002 1.612488e+001 3.608652e+000
         vertex 4.771687e-002 1.604140e+001 3.561899e+000
      endloop
   endfacet
   facet normal -1.000000e+000 1.219934e-016 2.784367e-017
      outer loop
         vertex 4.771687e-002 1.577865e+001 4.128990e+000
         vertex 4.771687e-002 1.604140e+001 3.561899e+000
         vertex 4.771687e-002 1.595175e+001 3.528437e+000
      endloop
   endfacet
   facet normal -1.000000e+000 1.219934e-016 2.784367e-017
      outer loop
         vertex 4.771687e-002 1.636120e+001 3.902582e+000
         vertex 4.771687e-002 1.631981e+001 3.816310e+000
         vertex 4.771687e-002 1.577865e+001 4.128990e+000
      endloop
   endfacet
   facet normal -1.000000e+000 1.219934e-016 2.784367e-017
      outer loop
         vertex 4.771687e-002 1.577865e+001 4.128990e+000
         vertex 4.771687e-002 1.631981e+001 3.816310e+000
         vertex 4.771687e-002 1.626574e+001 3.737366e+000
      endloop
   endfacet
   facet normal -1.000000e+000 1.219934e-016 2.784367e-017
      outer loop
         vertex 4.771687e-002 1.577865e+001 4.128990e+000
         vertex 4.771687e-002 1.626574e+001 3.737366e+000
         vertex 4.771687e-002 1.620025e+001 3.667602e+000
      endloop
   endfacet
   facet normal -1.000000e+000 1.219934e-016 2.784367e-017
      outer loop
         vertex 4.771687e-002 1.640118e+001 4.184580e+000
         vertex 4.771687e-002 1.640236e+001 4.088901e+000
         vertex 4.771687e-002 1.577865e+001 4.128990e+000
      endloop
   endfacet
   facet normal -1.000000e+000 1.219934e-016 2.784367e-017
      outer loop
         vertex 4.771687e-002 1.577865e+001 4.128990e+000
         vertex 4.771687e-002 1.640236e+001 4.088901e+000
         vertex 4.771687e-002 1.638894e+001 3.994162e+000
      endloop
   endfacet
   facet normal -1.000000e+000 1.219934e-016 2.784367e-017
      outer loop
         vertex 4.771687e-002 1.577865e+001 4.128990e+000
         vertex 4.771687e-002 1.638894e+001 3.994162e+000
         vertex 4.771687e-002 1.636120e+001 3.902582e+000
      endloop
   endfacet
   facet normal -1.000000e+000 1.219934e-016 2.784367e-017
      outer loop
         vertex 4.771687e-002 1.631187e+001 4.455034e+000
         vertex 4.771687e-002 1.635539e+001 4.369817e+000
         vertex 4.771687e-002 1.577865e+001 4.128990e+000
      endloop
   endfacet
   facet normal -1.000000e+000 1.219934e-016 2.784367e-017
      outer loop
         vertex 4.771687e-002 1.577865e+001 4.128990e+000
         vertex 4.771687e-002 1.635539e+001 4.369817e+000
         vertex 4.771687e-002 1.638540e+001 4.278956e+000
      endloop
   endfacet
   facet normal -1.000000e+000 1.219934e-016 2.784367e-017
      outer loop
         vertex 4.771687e-002 1.577865e+001 4.128990e+000
         vertex 4.771687e-002 1.638540e+001 4.278956e+000
         vertex 4.771687e-002 1.640118e+001 4.184580e+000
      endloop
   endfacet
   facet normal -1.000000e+000 1.219934e-016 2.784367e-017
      outer loop
         vertex 4.771687e-002 1.611183e+001 4.657778e+000
         vertex 4.771687e-002 1.618864e+001 4.600721e+000
         vertex 4.771687e-002 1.577865e+001 4.128990e+000
      endloop
   endfacet
   facet normal -1.000000e+000 1.219934e-016 2.784367e-017
      outer loop
         vertex 4.771687e-002 1.577865e+001 4.128990e+000
         vertex 4.771687e-002 1.618864e+001 4.600721e+000
         vertex 4.771687e-002 1.625585e+001 4.532608e+000
      endloop
   endfacet
   facet normal -1.000000e+000 1.219934e-016 2.784367e-017
      outer loop
         vertex 4.771687e-002 1.577865e+001 4.128990e+000
         vertex 4.771687e-002 1.625585e+001 4.532608e+000
         vertex 4.771687e-002 1.631187e+001 4.455034e+000
      endloop
   endfacet
   facet normal -1.000000e+000 1.219934e-016 2.784367e-017
      outer loop
         vertex 4.771687e-002 1.584260e+001 4.750710e+000
         vertex 4.771687e-002 1.593676e+001 4.733661e+000
         vertex 4.771687e-002 1.577865e+001 4.128990e+000
      endloop
   endfacet
   facet normal -1.000000e+000 1.219934e-016 2.784367e-017
      outer loop
         vertex 4.771687e-002 1.577865e+001 4.128990e+000
         vertex 4.771687e-002 1.593676e+001 4.733661e+000
         vertex 4.771687e-002 1.602721e+001 4.702440e+000
      endloop
   endfacet
   facet normal -1.000000e+000 1.219934e-016 2.784367e-017
      outer loop
         vertex 4.771687e-002 1.577865e+001 4.128990e+000
         vertex 4.771687e-002 1.602721e+001 4.702440e+000
         vertex 4.771687e-002 1.611183e+001 4.657778e+000
      endloop
   endfacet
   facet normal -1.000000e+000 1.219934e-016 2.784367e-017
      outer loop
         vertex 4.771687e-002 1.556009e+001 4.714529e+000
         vertex 4.771687e-002 1.565204e+001 4.741030e+000
         vertex 4.771687e-002 1.577865e+001 4.128990e+000
      endloop
   endfacet
   facet normal -1.000000e+000 1.219934e-016 2.784367e-017
      outer loop
         vertex 4.771687e-002 1.577865e+001 4.128990e+000
         vertex 4.771687e-002 1.565204e+001 4.741030e+000
         vertex 4.771687e-002 1.574695e+001 4.753185e+000
      endloop
   endfacet
   facet normal -1.000000e+000 1.219934e-016 2.784367e-017
      outer loop
         vertex 4.771687e-002 1.577865e+001 4.128990e+000
         vertex 4.771687e-002 1.574695e+001 4.753185e+000
         vertex 4.771687e-002 1.584260e+001 4.750710e+000
      endloop
   endfacet
   facet normal -1.000000e+000 1.219934e-016 2.784367e-017
      outer loop
         vertex 4.771687e-002 1.532297e+001 4.556750e+000
         vertex 4.771687e-002 1.539361e+001 4.621296e+000
         vertex 4.771687e-002 1.577865e+001 4.128990e+000
      endloop
   endfacet
   facet normal -1.000000e+000 1.219934e-016 2.784367e-017
      outer loop
         vertex 4.771687e-002 1.577865e+001 4.128990e+000
         vertex 4.771687e-002 1.539361e+001 4.621296e+000
         vertex 4.771687e-002 1.547327e+001 4.674304e+000
      endloop
   endfacet
   facet normal -1.000000e+000 1.219934e-016 2.784367e-017
      outer loop
         vertex 4.771687e-002 1.577865e+001 4.128990e+000
         vertex 4.771687e-002 1.547327e+001 4.674304e+000
         vertex 4.771687e-002 1.556009e+001 4.714529e+000
      endloop
   endfacet
   facet normal -1.000000e+000 1.219934e-016 2.784367e-017
      outer loop
         vertex 4.771687e-002 1.518048e+001 4.310139e+000
         vertex 4.771687e-002 1.521514e+001 4.399326e+000
         vertex 4.771687e-002 1.577865e+001 4.128990e+000
      endloop
   endfacet
   facet normal -1.000000e+000 1.219934e-016 2.784367e-017
      outer loop
         vertex 4.771687e-002 1.577865e+001 4.128990e+000
         vertex 4.771687e-002 1.521514e+001 4.399326e+000
         vertex 4.771687e-002 1.526301e+001 4.482177e+000
      endloop
   endfacet
   facet normal -1.000000e+000 1.219934e-016 2.784367e-017
      outer loop
         vertex 4.771687e-002 1.577865e+001 4.128990e+000
         vertex 4.771687e-002 1.526301e+001 4.482177e+000
         vertex 4.771687e-002 1.532297e+001 4.556750e+000
      endloop
   endfacet
   facet normal -1.000000e+000 1.219934e-016 2.784367e-017
      outer loop
         vertex 4.771687e-002 1.516221e+001 4.025908e+000
         vertex 4.771687e-002 1.515370e+001 4.121216e+000
         vertex 4.771687e-002 1.577865e+001 4.128990e+000
      endloop
   endfacet
   facet normal -1.000000e+000 1.219934e-016 2.784367e-017
      outer loop
         vertex 4.771687e-002 1.577865e+001 4.128990e+000
         vertex 4.771687e-002 1.515370e+001 4.121216e+000
         vertex 4.771687e-002 1.515984e+001 4.216705e+000
      endloop
   endfacet
   facet normal -1.000000e+000 1.219934e-016 2.784367e-017
      outer loop
         vertex 4.771687e-002 1.577865e+001 4.128990e+000
         vertex 4.771687e-002 1.515984e+001 4.216705e+000
         vertex 4.771687e-002 1.518048e+001 4.310139e+000
      endloop
   endfacet
   facet normal -1.261758e-016 -9.126213e-001 -4.088061e-001
      outer loop
         vertex 2.977170e-001 1.518517e+001 3.933017e+000
         vertex 4.771687e-002 1.522204e+001 3.844719e+000
         vertex 2.977170e-001 1.522204e+001 3.844719e+000
      endloop
   endfacet
   facet normal -1.238827e-016 -8.662137e-001 -4.996738e-001
      outer loop
         vertex 2.977170e-001 1.522204e+001 3.844719e+000
         vertex 4.771687e-002 1.522204e+001 3.844719e+000
         vertex 4.771687e-002 1.527196e+001 3.763085e+000
      endloop
   endfacet
   facet normal -1.222457e-016 -8.395218e-001 -5.433261e-001
      outer loop
         vertex 2.977170e-001 1.522204e+001 3.844719e+000
         vertex 4.771687e-002 1.527196e+001 3.763085e+000
         vertex 2.977170e-001 1.527196e+001 3.763085e+000
      endloop
   endfacet
   facet normal -1.180296e-016 -7.797872e-001 -6.260447e-001
      outer loop
         vertex 2.977170e-001 1.527196e+001 3.763085e+000
         vertex 4.771687e-002 1.527196e+001 3.763085e+000
         vertex 4.771687e-002 1.533375e+001 3.690027e+000
      endloop
   endfacet
   facet normal -1.154503e-016 -7.467446e-001 -6.651109e-001
      outer loop
         vertex 2.977170e-001 1.527196e+001 3.763085e+000
         vertex 4.771687e-002 1.533375e+001 3.690027e+000
         vertex 2.977170e-001 1.533375e+001 3.690027e+000
      endloop
   endfacet
   facet normal -1.094099e-016 -6.750832e-001 -7.377416e-001
      outer loop
         vertex 2.977170e-001 1.533375e+001 3.690027e+000
         vertex 4.771687e-002 1.533375e+001 3.690027e+000
         vertex 4.771687e-002 1.540597e+001 3.627257e+000
      endloop
   endfacet
   facet normal -1.059488e-016 -6.364644e-001 -7.713061e-001
      outer loop
         vertex 2.977170e-001 1.533375e+001 3.690027e+000
         vertex 4.771687e-002 1.540597e+001 3.627257e+000
         vertex 2.977170e-001 1.540597e+001 3.627257e+000
      endloop
   endfacet
   facet normal -9.822583e-017 -5.545558e-001 -8.321465e-001
      outer loop
         vertex 2.977170e-001 1.540597e+001 3.627257e+000
         vertex 4.771687e-002 1.540597e+001 3.627257e+000
         vertex 4.771687e-002 1.548693e+001 3.576248e+000
      endloop
   endfacet
   facet normal -9.396395e-017 -5.112659e-001 -8.594226e-001
      outer loop
         vertex 2.977170e-001 1.540597e+001 3.627257e+000
         vertex 4.771687e-002 1.548693e+001 3.576248e+000
         vertex 2.977170e-001 1.548693e+001 3.576248e+000
      endloop
   endfacet
   facet normal -8.473938e-017 -4.210300e-001 -9.070467e-001
      outer loop
         vertex 2.977170e-001 1.548693e+001 3.576248e+000
         vertex 4.771687e-002 1.548693e+001 3.576248e+000
         vertex 4.771687e-002 1.557472e+001 3.538195e+000
      endloop
   endfacet
   facet normal -7.977667e-017 -3.740839e-001 -9.273949e-001
      outer loop
         vertex 2.977170e-001 1.548693e+001 3.576248e+000
         vertex 4.771687e-002 1.557472e+001 3.538195e+000
         vertex 2.977170e-001 1.557472e+001 3.538195e+000
      endloop
   endfacet
   facet normal -6.926672e-017 -2.776356e-001 -9.606864e-001
      outer loop
         vertex 2.977170e-001 1.557472e+001 3.538195e+000
         vertex 4.771687e-002 1.557472e+001 3.538195e+000
         vertex 4.771687e-002 1.566730e+001 3.513989e+000
      endloop
   endfacet
   facet normal -6.371950e-017 -2.281336e-001 -9.736298e-001
      outer loop
         vertex 2.977170e-001 1.557472e+001 3.538195e+000
         vertex 4.771687e-002 1.566730e+001 3.513989e+000
         vertex 2.977170e-001 1.566730e+001 3.513989e+000
      endloop
   endfacet
   facet normal -5.217053e-017 -1.277338e-001 -9.918085e-001
      outer loop
         vertex 2.977170e-001 1.566730e+001 3.513989e+000
         vertex 4.771687e-002 1.566730e+001 3.513989e+000
         vertex 4.771687e-002 1.576248e+001 3.504199e+000
      endloop
   endfacet
   facet normal -4.616878e-017 -7.683608e-002 -9.970437e-001
      outer loop
         vertex 2.977170e-001 1.566730e+001 3.513989e+000
         vertex 4.771687e-002 1.576248e+001 3.504199e+000
         vertex 2.977170e-001 1.576248e+001 3.504199e+000
      endloop
   endfacet
   facet normal -3.385148e-017 2.516207e-002 -9.996834e-001
      outer loop
         vertex 2.977170e-001 1.576248e+001 3.504199e+000
         vertex 4.771687e-002 1.576248e+001 3.504199e+000
         vertex 4.771687e-002 1.585805e+001 3.509053e+000
      endloop
   endfacet
   facet normal -2.753592e-017 7.626244e-002 -9.970878e-001
      outer loop
         vertex 2.977170e-001 1.576248e+001 3.504199e+000
         vertex 4.771687e-002 1.585805e+001 3.509053e+000
         vertex 2.977170e-001 1.585805e+001 3.509053e+000
      endloop
   endfacet
   facet normal -1.473899e-017 1.774681e-001 -9.841266e-001
      outer loop
         vertex 2.977170e-001 1.585805e+001 3.509053e+000
         vertex 4.771687e-002 1.585805e+001 3.509053e+000
         vertex 4.771687e-002 1.595175e+001 3.528437e+000
      endloop
   endfacet
   facet normal -8.257628e-018 2.275734e-001 -9.737609e-001
      outer loop
         vertex 2.977170e-001 1.585805e+001 3.509053e+000
         vertex 4.771687e-002 1.595175e+001 3.528437e+000
         vertex 2.977170e-001 1.595175e+001 3.528437e+000
      endloop
   endfacet
   facet normal 4.718970e-018 3.256145e-001 -9.455026e-001
      outer loop
         vertex 2.977170e-001 1.595175e+001 3.528437e+000
         vertex 4.771687e-002 1.595175e+001 3.528437e+000
         vertex 4.771687e-002 1.604140e+001 3.561899e+000
      endloop
   endfacet
   facet normal 1.121421e-017 3.735503e-001 -9.276099e-001
      outer loop
         vertex 2.977170e-001 1.595175e+001 3.528437e+000
         vertex 4.771687e-002 1.604140e+001 3.561899e+000
         vertex 2.977170e-001 1.604140e+001 3.561899e+000
      endloop
   endfacet
   facet normal 2.406632e-017 4.661287e-001 -8.847169e-001
      outer loop
         vertex 2.977170e-001 1.604140e+001 3.561899e+000
         vertex 4.771687e-002 1.604140e+001 3.561899e+000
         vertex 4.771687e-002 1.612488e+001 3.608652e+000
      endloop
   endfacet
   facet normal 3.042319e-017 5.107714e-001 -8.597166e-001
      outer loop
         vertex 2.977170e-001 1.604140e+001 3.561899e+000
         vertex 4.771687e-002 1.612488e+001 3.608652e+000
         vertex 2.977170e-001 1.612488e+001 3.608652e+000
      endloop
   endfacet
   facet normal 4.284958e-017 5.957173e-001 -8.031942e-001
      outer loop
         vertex 2.977170e-001 1.612488e+001 3.608652e+000
         vertex 4.771687e-002 1.612488e+001 3.608652e+000
         vertex 4.771687e-002 1.620025e+001 3.667602e+000
      endloop
   endfacet
   facet normal 4.891909e-017 6.360205e-001 -7.716721e-001
      outer loop
         vertex 2.977170e-001 1.612488e+001 3.608652e+000
         vertex 4.771687e-002 1.620025e+001 3.667602e+000
         vertex 2.977170e-001 1.620025e+001 3.667602e+000
      endloop
   endfacet
   facet normal 6.062848e-017 7.113428e-001 -7.028453e-001
      outer loop
         vertex 2.977170e-001 1.620025e+001 3.667602e+000
         vertex 4.771687e-002 1.620025e+001 3.667602e+000
         vertex 4.771687e-002 1.626574e+001 3.737366e+000
      endloop
   endfacet
   facet normal 6.626836e-017 7.463618e-001 -6.655404e-001
      outer loop
         vertex 2.977170e-001 1.620025e+001 3.667602e+000
         vertex 4.771687e-002 1.626574e+001 3.737366e+000
         vertex 2.977170e-001 1.626574e+001 3.737366e+000
      endloop
   endfacet
   facet normal 7.698630e-017 8.102949e-001 -5.860223e-001
      outer loop
         vertex 2.977170e-001 1.626574e+001 3.737366e+000
         vertex 4.771687e-002 1.626574e+001 3.737366e+000
         vertex 4.771687e-002 1.631981e+001 3.816310e+000
      endloop
   endfacet
   facet normal 8.206435e-017 8.392090e-001 -5.438090e-001
      outer loop
         vertex 2.977170e-001 1.626574e+001 3.737366e+000
         vertex 4.771687e-002 1.631981e+001 3.816310e+000
         vertex 2.977170e-001 1.631981e+001 3.816310e+000
      endloop
   endfacet
   facet normal 9.153962e-017 8.902545e-001 -4.554634e-001
      outer loop
         vertex 2.977170e-001 1.631981e+001 3.816310e+000
         vertex 4.771687e-002 1.631981e+001 3.816310e+000
         vertex 4.771687e-002 1.636120e+001 3.902582e+000
      endloop
   endfacet
   facet normal 9.593684e-017 9.123859e-001 -4.093311e-001
      outer loop
         vertex 2.977170e-001 1.631981e+001 3.816310e+000
         vertex 4.771687e-002 1.636120e+001 3.902582e+000
         vertex 2.977170e-001 1.636120e+001 3.902582e+000
      endloop
   endfacet
   facet normal 1.039473e-016 9.493473e-001 -3.142288e-001
      outer loop
         vertex 2.977170e-001 1.636120e+001 3.902582e+000
         vertex 4.771687e-002 1.636120e+001 3.902582e+000
         vertex 4.771687e-002 1.638894e+001 3.994162e+000
      endloop
   endfacet
   facet normal 1.075606e-016 9.641773e-001 -2.652588e-001
      outer loop
         vertex 2.977170e-001 1.636120e+001 3.902582e+000
         vertex 4.771687e-002 1.638894e+001 3.994162e+000
         vertex 2.977170e-001 1.638894e+001 3.994162e+000
      endloop
   endfacet
   facet normal 1.139186e-016 9.861881e-001 -1.656290e-001
      outer loop
         vertex 2.977170e-001 1.638894e+001 3.994162e+000
         vertex 4.771687e-002 1.638894e+001 3.994162e+000
         vertex 4.771687e-002 1.640236e+001 4.088901e+000
      endloop
   endfacet
   facet normal 1.166633e-016 9.933690e-001 -1.149692e-001
      outer loop
         vertex 2.977170e-001 1.638894e+001 3.994162e+000
         vertex 4.771687e-002 1.640236e+001 4.088901e+000
         vertex 2.977170e-001 1.640236e+001 4.088901e+000
      endloop
   endfacet
   facet normal 1.212197e-016 9.999136e-001 -1.314703e-002
      outer loop
         vertex 2.977170e-001 1.640236e+001 4.088901e+000
         vertex 4.771687e-002 1.640236e+001 4.088901e+000
         vertex 4.771687e-002 1.640118e+001 4.184580e+000
      endloop
   endfacet
   facet normal 1.230315e-016 9.992772e-001 3.801525e-002
      outer loop
         vertex 2.977170e-001 1.640236e+001 4.088901e+000
         vertex 4.771687e-002 1.640118e+001 4.184580e+000
         vertex 2.977170e-001 1.640118e+001 4.184580e+000
      endloop
   endfacet
   facet normal 1.256796e-016 9.902019e-001 1.396431e-001
      outer loop
         vertex 2.977170e-001 1.640118e+001 4.184580e+000
         vertex 4.771687e-002 1.640118e+001 4.184580e+000
         vertex 4.771687e-002 1.638540e+001 4.278956e+000
      endloop
   endfacet
   facet normal 1.265159e-016 9.817631e-001 1.901087e-001
      outer loop
         vertex 2.977170e-001 1.640118e+001 4.184580e+000
         vertex 4.771687e-002 1.638540e+001 4.278956e+000
         vertex 2.977170e-001 1.638540e+001 4.278956e+000
      endloop
   endfacet
   facet normal 1.271936e-016 9.572807e-001 2.891602e-001
      outer loop
         vertex 2.977170e-001 1.638540e+001 4.278956e+000
         vertex 4.771687e-002 1.638540e+001 4.278956e+000
         vertex 4.771687e-002 1.635539e+001 4.369817e+000
      endloop
   endfacet
   facet normal 1.270349e-016 9.412373e-001 3.377461e-001
      outer loop
         vertex 2.977170e-001 1.638540e+001 4.278956e+000
         vertex 4.771687e-002 1.635539e+001 4.369817e+000
         vertex 2.977170e-001 1.635539e+001 4.369817e+000
      endloop
   endfacet
   facet normal 1.257263e-016 9.019217e-001 4.318996e-001
      outer loop
         vertex 2.977170e-001 1.635539e+001 4.369817e+000
         vertex 4.771687e-002 1.635539e+001 4.369817e+000
         vertex 4.771687e-002 1.631187e+001 4.455034e+000
      endloop
   endfacet
   facet normal 1.245763e-016 8.786497e-001 4.774671e-001
      outer loop
         vertex 2.977170e-001 1.635539e+001 4.369817e+000
         vertex 4.771687e-002 1.631187e+001 4.455034e+000
         vertex 2.977170e-001 1.631187e+001 4.455034e+000
      endloop
   endfacet
   facet normal 1.213121e-016 8.254224e-001 5.645156e-001
      outer loop
         vertex 2.977170e-001 1.631187e+001 4.455034e+000
         vertex 4.771687e-002 1.631187e+001 4.455034e+000
         vertex 4.771687e-002 1.625585e+001 4.532608e+000
      endloop
   endfacet
   facet normal 1.191978e-016 7.954672e-001 6.059966e-001
      outer loop
         vertex 2.977170e-001 1.631187e+001 4.455034e+000
         vertex 4.771687e-002 1.625585e+001 4.532608e+000
         vertex 2.977170e-001 1.625585e+001 4.532608e+000
      endloop
   endfacet
   facet normal 1.140544e-016 7.295759e-001 6.838999e-001
      outer loop
         vertex 2.977170e-001 1.625585e+001 4.532608e+000
         vertex 4.771687e-002 1.625585e+001 4.532608e+000
         vertex 4.771687e-002 1.618864e+001 4.600721e+000
      endloop
   endfacet
   facet normal 1.110253e-016 6.936398e-001 7.203221e-001
      outer loop
         vertex 2.977170e-001 1.625585e+001 4.532608e+000
         vertex 4.771687e-002 1.618864e+001 4.600721e+000
         vertex 2.977170e-001 1.618864e+001 4.600721e+000
      endloop
   endfacet
   facet normal 1.041234e-016 6.166288e-001 7.872540e-001
      outer loop
         vertex 2.977170e-001 1.618864e+001 4.600721e+000
         vertex 4.771687e-002 1.618864e+001 4.600721e+000
         vertex 4.771687e-002 1.611183e+001 4.657778e+000
      endloop
   endfacet
   facet normal 1.002505e-016 5.755540e-001 8.177638e-001
      outer loop
         vertex 2.977170e-001 1.618864e+001 4.600721e+000
         vertex 4.771687e-002 1.611183e+001 4.657778e+000
         vertex 2.977170e-001 1.611183e+001 4.657778e+000
      endloop
   endfacet
   facet normal 9.175182e-017 4.892284e-001 8.721557e-001
      outer loop
         vertex 2.977170e-001 1.611183e+001 4.657778e+000
         vertex 4.771687e-002 1.611183e+001 4.657778e+000
         vertex 4.771687e-002 1.602721e+001 4.702440e+000
      endloop
   endfacet
   facet normal 8.712596e-017 4.439776e-001 8.960379e-001
      outer loop
         vertex 2.977170e-001 1.611183e+001 4.657778e+000
         vertex 4.771687e-002 1.602721e+001 4.702440e+000
         vertex 2.977170e-001 1.602721e+001 4.702440e+000
      endloop
   endfacet
   facet normal 7.722966e-017 3.503608e-001 9.366148e-001
      outer loop
         vertex 2.977170e-001 1.602721e+001 4.702440e+000
         vertex 4.771687e-002 1.602721e+001 4.702440e+000
         vertex 4.771687e-002 1.593676e+001 4.733661e+000
      endloop
   endfacet
   facet normal 7.195923e-017 3.019949e-001 9.533095e-001
      outer loop
         vertex 2.977170e-001 1.602721e+001 4.702440e+000
         vertex 4.771687e-002 1.593676e+001 4.733661e+000
         vertex 2.977170e-001 1.593676e+001 4.733661e+000
      endloop
   endfacet
   facet normal 6.089731e-017 2.032812e-001 9.791204e-001
      outer loop
         vertex 2.977170e-001 1.593676e+001 4.733661e+000
         vertex 4.771687e-002 1.593676e+001 4.733661e+000
         vertex 4.771687e-002 1.584260e+001 4.750710e+000
      endloop
   endfacet
   facet normal 5.510583e-017 1.529336e-001 9.882365e-001
      outer loop
         vertex 2.977170e-001 1.593676e+001 4.733661e+000
         vertex 4.771687e-002 1.584260e+001 4.750710e+000
         vertex 2.977170e-001 1.584260e+001 4.750710e+000
      endloop
   endfacet
   facet normal 4.313758e-017 5.143682e-002 9.986762e-001
      outer loop
         vertex 2.977170e-001 1.584260e+001 4.750710e+000
         vertex 4.771687e-002 1.584260e+001 4.750710e+000
         vertex 4.771687e-002 1.574695e+001 4.753185e+000
      endloop
   endfacet
   facet normal 3.696080e-017 2.876561e-004 9.999999e-001
      outer loop
         vertex 2.977170e-001 1.584260e+001 4.750710e+000
         vertex 4.771687e-002 1.574695e+001 4.753185e+000
         vertex 2.977170e-001 1.574695e+001 4.753185e+000
      endloop
   endfacet
   facet normal 2.436673e-017 -1.016132e-001 9.948240e-001
      outer loop
         vertex 2.977170e-001 1.574695e+001 4.753185e+000
         vertex 4.771687e-002 1.574695e+001 4.753185e+000
         vertex 4.771687e-002 1.565204e+001 4.741030e+000
      endloop
   endfacet
   facet normal 1.794944e-017 -1.523650e-001 9.883243e-001
      outer loop
         vertex 2.977170e-001 1.574695e+001 4.753185e+000
         vertex 4.771687e-002 1.565204e+001 4.741030e+000
         vertex 2.977170e-001 1.565204e+001 4.741030e+000
      endloop
   endfacet
   facet normal 5.024754e-018 -2.522815e-001 9.676539e-001
      outer loop
         vertex 2.977170e-001 1.565204e+001 4.741030e+000
         vertex 4.771687e-002 1.565204e+001 4.741030e+000
         vertex 4.771687e-002 1.556009e+001 4.714529e+000
      endloop
   endfacet
   facet normal -1.482640e-018 -3.014463e-001 9.534832e-001
      outer loop
         vertex 2.977170e-001 1.565204e+001 4.741030e+000
         vertex 4.771687e-002 1.556009e+001 4.714529e+000
         vertex 2.977170e-001 1.556009e+001 4.714529e+000
      endloop
   endfacet
   facet normal -1.443500e-017 -3.970366e-001 9.178028e-001
      outer loop
         vertex 2.977170e-001 1.556009e+001 4.714529e+000
         vertex 4.771687e-002 1.556009e+001 4.714529e+000
         vertex 4.771687e-002 1.547327e+001 4.674304e+000
      endloop
   endfacet
   facet normal -2.087997e-017 -4.434620e-001 8.962932e-001
      outer loop
         vertex 2.977170e-001 1.556009e+001 4.714529e+000
         vertex 4.771687e-002 1.547327e+001 4.674304e+000
         vertex 2.977170e-001 1.547327e+001 4.674304e+000
      endloop
   endfacet
   facet normal -3.355641e-017 -5.324854e-001 8.464392e-001
      outer loop
         vertex 2.977170e-001 1.547327e+001 4.674304e+000
         vertex 4.771687e-002 1.547327e+001 4.674304e+000
         vertex 4.771687e-002 1.539361e+001 4.621296e+000
      endloop
   endfacet
   facet normal -3.978788e-017 -5.750833e-001 8.180948e-001
      outer loop
         vertex 2.977170e-001 1.547327e+001 4.674304e+000
         vertex 4.771687e-002 1.539361e+001 4.621296e+000
         vertex 2.977170e-001 1.539361e+001 4.621296e+000
      endloop
   endfacet
   facet normal -5.189129e-017 -6.554533e-001 7.552357e-001
      outer loop
         vertex 2.977170e-001 1.539361e+001 4.621296e+000
         vertex 4.771687e-002 1.539361e+001 4.621296e+000
         vertex 4.771687e-002 1.532297e+001 4.556750e+000
      endloop
   endfacet
   facet normal -5.776321e-017 -6.932252e-001 7.207211e-001
      outer loop
         vertex 2.977170e-001 1.539361e+001 4.621296e+000
         vertex 4.771687e-002 1.532297e+001 4.556750e+000
         vertex 2.977170e-001 1.532297e+001 4.556750e+000
      endloop
   endfacet
   facet normal -6.900988e-017 -7.630578e-001 6.463302e-001
      outer loop
         vertex 2.977170e-001 1.532297e+001 4.556750e+000
         vertex 4.771687e-002 1.532297e+001 4.556750e+000
         vertex 4.771687e-002 1.526301e+001 4.482177e+000
      endloop
   endfacet
   facet normal -7.438462e-017 -7.951185e-001 6.064541e-001
      outer loop
         vertex 2.977170e-001 1.532297e+001 4.556750e+000
         vertex 4.771687e-002 1.526301e+001 4.482177e+000
         vertex 2.977170e-001 1.526301e+001 4.482177e+000
      endloop
   endfacet
   facet normal -8.451093e-017 -8.527769e-001 5.222753e-001
      outer loop
         vertex 2.977170e-001 1.526301e+001 4.482177e+000
         vertex 4.771687e-002 1.526301e+001 4.482177e+000
         vertex 4.771687e-002 1.521514e+001 4.399326e+000
      endloop
   endfacet
   facet normal -8.926250e-017 -8.783748e-001 4.779726e-001
      outer loop
         vertex 2.977170e-001 1.526301e+001 4.482177e+000
         vertex 4.771687e-002 1.521514e+001 4.399326e+000
         vertex 2.977170e-001 1.521514e+001 4.399326e+000
      endloop
   endfacet
   facet normal -9.803112e-017 -9.225077e-001 3.859787e-001
      outer loop
         vertex 2.977170e-001 1.521514e+001 4.399326e+000
         vertex 4.771687e-002 1.521514e+001 4.399326e+000
         vertex 4.771687e-002 1.518048e+001 4.310139e+000
      endloop
   endfacet
   facet normal -1.020482e-016 -9.410428e-001 3.382875e-001
      outer loop
         vertex 2.977170e-001 1.521514e+001 4.399326e+000
         vertex 4.771687e-002 1.518048e+001 4.310139e+000
         vertex 2.977170e-001 1.518048e+001 4.310139e+000
      endloop
   endfacet
   facet normal -1.092536e-016 -9.706157e-001 2.406350e-001
      outer loop
         vertex 2.977170e-001 1.518048e+001 4.310139e+000
         vertex 4.771687e-002 1.518048e+001 4.310139e+000
         vertex 4.771687e-002 1.515984e+001 4.216705e+000
      endloop
   endfacet
   facet normal -1.124419e-016 -9.816535e-001 1.906735e-001
      outer loop
         vertex 2.977170e-001 1.518048e+001 4.310139e+000
         vertex 4.771687e-002 1.515984e+001 4.216705e+000
         vertex 2.977170e-001 1.515984e+001 4.216705e+000
      endloop
   endfacet
   facet normal -1.179152e-016 -9.959732e-001 8.965107e-002
      outer loop
         vertex 2.977170e-001 1.515984e+001 4.216705e+000
         vertex 4.771687e-002 1.515984e+001 4.216705e+000
         vertex 4.771687e-002 1.515370e+001 4.121216e+000
      endloop
   endfacet
   facet normal -1.202001e-016 -9.992551e-001 3.859017e-002
      outer loop
         vertex 2.977170e-001 1.515984e+001 4.216705e+000
         vertex 4.771687e-002 1.515370e+001 4.121216e+000
         vertex 2.977170e-001 1.515370e+001 4.121216e+000
      endloop
   endfacet
   facet normal -1.238129e-016 -9.979860e-001 -6.343418e-002
      outer loop
         vertex 2.977170e-001 1.515370e+001 4.121216e+000
         vertex 4.771687e-002 1.515370e+001 4.121216e+000
         vertex 4.771687e-002 1.516221e+001 4.025908e+000
      endloop
   endfacet
   facet normal -1.251409e-016 -9.934350e-001 -1.143977e-001
      outer loop
         vertex 2.977170e-001 1.515370e+001 4.121216e+000
         vertex 4.771687e-002 1.516221e+001 4.025908e+000
         vertex 2.977170e-001 1.516221e+001 4.025908e+000
      endloop
   endfacet
   facet normal -1.268087e-016 -9.766068e-001 -2.150326e-001
      outer loop
         vertex 2.977170e-001 1.516221e+001 4.025908e+000
         vertex 4.771687e-002 1.516221e+001 4.025908e+000
         vertex 4.771687e-002 1.518517e+001 3.933017e+000
      endloop
   endfacet
   facet normal -1.271485e-016 -9.643297e-001 -2.647041e-001
      outer loop
         vertex 2.977170e-001 1.516221e+001 4.025908e+000
         vertex 4.771687e-002 1.518517e+001 3.933017e+000
         vertex 2.977170e-001 1.518517e+001 3.933017e+000
      endloop
   endfacet
   facet normal -1.268321e-016 -9.323369e-001 -3.615909e-001
      outer loop
         vertex 2.977170e-001 1.518517e+001 3.933017e+000
         vertex 4.771687e-002 1.518517e+001 3.933017e+000
         vertex 4.771687e-002 1.522204e+001 3.844719e+000
      endloop
   endfacet
   facet normal 1.000000e+000 -1.219934e-016 -2.784367e-017
      outer loop
         vertex 2.977170e-001 1.537330e+001 3.836266e+000
         vertex 2.977170e-001 1.527196e+001 3.763085e+000
         vertex 2.977170e-001 1.542273e+001 3.777819e+000
      endloop
   endfacet
   facet normal 1.000000e+000 -1.219934e-016 -2.784367e-017
      outer loop
         vertex 2.977170e-001 1.542273e+001 3.777819e+000
         vertex 2.977170e-001 1.527196e+001 3.763085e+000
         vertex 2.977170e-001 1.533375e+001 3.690027e+000
      endloop
   endfacet
   facet normal 1.000000e+000 -1.219934e-016 -2.784367e-017
      outer loop
         vertex 2.977170e-001 1.542273e+001 3.777819e+000
         vertex 2.977170e-001 1.533375e+001 3.690027e+000
         vertex 2.977170e-001 1.548051e+001 3.727603e+000
      endloop
   endfacet
   facet normal 1.000000e+000 -1.219934e-016 -2.784367e-017
      outer loop
         vertex 2.977170e-001 1.548051e+001 3.727603e+000
         vertex 2.977170e-001 1.533375e+001 3.690027e+000
         vertex 2.977170e-001 1.540597e+001 3.627257e+000
      endloop
   endfacet
   facet normal 1.000000e+000 -1.219934e-016 -2.784367e-017
      outer loop
         vertex 2.977170e-001 1.548051e+001 3.727603e+000
         vertex 2.977170e-001 1.540597e+001 3.627257e+000
         vertex 2.977170e-001 1.554527e+001 3.686796e+000
      endloop
   endfacet
   facet normal 1.000000e+000 -1.219934e-016 -2.784367e-017
      outer loop
         vertex 2.977170e-001 1.554527e+001 3.686796e+000
         vertex 2.977170e-001 1.540597e+001 3.627257e+000
         vertex 2.977170e-001 1.548693e+001 3.576248e+000
      endloop
   endfacet
   facet normal 1.000000e+000 -1.219934e-016 -2.784367e-017
      outer loop
         vertex 2.977170e-001 1.554527e+001 3.686796e+000
         vertex 2.977170e-001 1.548693e+001 3.576248e+000
         vertex 2.977170e-001 1.561551e+001 3.656354e+000
      endloop
   endfacet
   facet normal 1.000000e+000 -1.219934e-016 -2.784367e-017
      outer loop
         vertex 2.977170e-001 1.561551e+001 3.656354e+000
         vertex 2.977170e-001 1.548693e+001 3.576248e+000
         vertex 2.977170e-001 1.557472e+001 3.538195e+000
      endloop
   endfacet
   facet normal 1.000000e+000 -1.219934e-016 -2.784367e-017
      outer loop
         vertex 2.977170e-001 1.561551e+001 3.656354e+000
         vertex 2.977170e-001 1.557472e+001 3.538195e+000
         vertex 2.977170e-001 1.568957e+001 3.636989e+000
      endloop
   endfacet
   facet normal 1.000000e+000 -1.219934e-016 -2.784367e-017
      outer loop
         vertex 2.977170e-001 1.568957e+001 3.636989e+000
         vertex 2.977170e-001 1.557472e+001 3.538195e+000
         vertex 2.977170e-001 1.566730e+001 3.513989e+000
      endloop
   endfacet
   facet normal 1.000000e+000 -1.219934e-016 -2.784367e-017
      outer loop
         vertex 2.977170e-001 1.568957e+001 3.636989e+000
         vertex 2.977170e-001 1.566730e+001 3.513989e+000
         vertex 2.977170e-001 1.576572e+001 3.629157e+000
      endloop
   endfacet
   facet normal 1.000000e+000 -1.219934e-016 -2.784367e-017
      outer loop
         vertex 2.977170e-001 1.576572e+001 3.629157e+000
         vertex 2.977170e-001 1.566730e+001 3.513989e+000
         vertex 2.977170e-001 1.576248e+001 3.504199e+000
      endloop
   endfacet
   facet normal 1.000000e+000 -1.219934e-016 -2.784367e-017
      outer loop
         vertex 2.977170e-001 1.576572e+001 3.629157e+000
         vertex 2.977170e-001 1.576248e+001 3.504199e+000
         vertex 2.977170e-001 1.584217e+001 3.633040e+000
      endloop
   endfacet
   facet normal 1.000000e+000 -1.219934e-016 -2.784367e-017
      outer loop
         vertex 2.977170e-001 1.584217e+001 3.633040e+000
         vertex 2.977170e-001 1.576248e+001 3.504199e+000
         vertex 2.977170e-001 1.585805e+001 3.509053e+000
      endloop
   endfacet
   facet normal 1.000000e+000 -1.219934e-016 -2.784367e-017
      outer loop
         vertex 2.977170e-001 1.584217e+001 3.633040e+000
         vertex 2.977170e-001 1.585805e+001 3.509053e+000
         vertex 2.977170e-001 1.591713e+001 3.648548e+000
      endloop
   endfacet
   facet normal 1.000000e+000 -1.219934e-016 -2.784367e-017
      outer loop
         vertex 2.977170e-001 1.591713e+001 3.648548e+000
         vertex 2.977170e-001 1.585805e+001 3.509053e+000
         vertex 2.977170e-001 1.595175e+001 3.528437e+000
      endloop
   endfacet
   facet normal 1.000000e+000 -1.219934e-016 -2.784367e-017
      outer loop
         vertex 2.977170e-001 1.591713e+001 3.648548e+000
         vertex 2.977170e-001 1.595175e+001 3.528437e+000
         vertex 2.977170e-001 1.598885e+001 3.675317e+000
      endloop
   endfacet
   facet normal 1.000000e+000 -1.219934e-016 -2.784367e-017
      outer loop
         vertex 2.977170e-001 1.598885e+001 3.675317e+000
         vertex 2.977170e-001 1.595175e+001 3.528437e+000
         vertex 2.977170e-001 1.604140e+001 3.561899e+000
      endloop
   endfacet
   facet normal 1.000000e+000 -1.219934e-016 -2.784367e-017
      outer loop
         vertex 2.977170e-001 1.598885e+001 3.675317e+000
         vertex 2.977170e-001 1.604140e+001 3.561899e+000
         vertex 2.977170e-001 1.605564e+001 3.712720e+000
      endloop
   endfacet
   facet normal 1.000000e+000 -1.219934e-016 -2.784367e-017
      outer loop
         vertex 2.977170e-001 1.605564e+001 3.712720e+000
         vertex 2.977170e-001 1.604140e+001 3.561899e+000
         vertex 2.977170e-001 1.612488e+001 3.608652e+000
      endloop
   endfacet
   facet normal 1.000000e+000 -1.219934e-016 -2.784367e-017
      outer loop
         vertex 2.977170e-001 1.605564e+001 3.712720e+000
         vertex 2.977170e-001 1.612488e+001 3.608652e+000
         vertex 2.977170e-001 1.611593e+001 3.759880e+000
      endloop
   endfacet
   facet normal 1.000000e+000 -1.219934e-016 -2.784367e-017
      outer loop
         vertex 2.977170e-001 1.611593e+001 3.759880e+000
         vertex 2.977170e-001 1.612488e+001 3.608652e+000
         vertex 2.977170e-001 1.620025e+001 3.667602e+000
      endloop
   endfacet
   facet normal 1.000000e+000 -1.219934e-016 -2.784367e-017
      outer loop
         vertex 2.977170e-001 1.611593e+001 3.759880e+000
         vertex 2.977170e-001 1.620025e+001 3.667602e+000
         vertex 2.977170e-001 1.616832e+001 3.815691e+000
      endloop
   endfacet
   facet normal 1.000000e+000 -1.219934e-016 -2.784367e-017
      outer loop
         vertex 2.977170e-001 1.616832e+001 3.815691e+000
         vertex 2.977170e-001 1.620025e+001 3.667602e+000
         vertex 2.977170e-001 1.626574e+001 3.737366e+000
      endloop
   endfacet
   facet normal 1.000000e+000 -1.219934e-016 -2.784367e-017
      outer loop
         vertex 2.977170e-001 1.616832e+001 3.815691e+000
         vertex 2.977170e-001 1.626574e+001 3.737366e+000
         vertex 2.977170e-001 1.621158e+001 3.878846e+000
      endloop
   endfacet
   facet normal 1.000000e+000 -1.219934e-016 -2.784367e-017
      outer loop
         vertex 2.977170e-001 1.621158e+001 3.878846e+000
         vertex 2.977170e-001 1.626574e+001 3.737366e+000
         vertex 2.977170e-001 1.631981e+001 3.816310e+000
      endloop
   endfacet
   facet normal 1.000000e+000 -1.219934e-016 -2.784367e-017
      outer loop
         vertex 2.977170e-001 1.621158e+001 3.878846e+000
         vertex 2.977170e-001 1.631981e+001 3.816310e+000
         vertex 2.977170e-001 1.624469e+001 3.947864e+000
      endloop
   endfacet
   facet normal 1.000000e+000 -1.219934e-016 -2.784367e-017
      outer loop
         vertex 2.977170e-001 1.624469e+001 3.947864e+000
         vertex 2.977170e-001 1.631981e+001 3.816310e+000
         vertex 2.977170e-001 1.636120e+001 3.902582e+000
      endloop
   endfacet
   facet normal 1.000000e+000 -1.219934e-016 -2.784367e-017
      outer loop
         vertex 2.977170e-001 1.624469e+001 3.947864e+000
         vertex 2.977170e-001 1.636120e+001 3.902582e+000
         vertex 2.977170e-001 1.626688e+001 4.021127e+000
      endloop
   endfacet
   facet normal 1.000000e+000 -1.219934e-016 -2.784367e-017
      outer loop
         vertex 2.977170e-001 1.626688e+001 4.021127e+000
         vertex 2.977170e-001 1.636120e+001 3.902582e+000
         vertex 2.977170e-001 1.638894e+001 3.994162e+000
      endloop
   endfacet
   facet normal 1.000000e+000 -1.219934e-016 -2.784367e-017
      outer loop
         vertex 2.977170e-001 1.626688e+001 4.021127e+000
         vertex 2.977170e-001 1.638894e+001 3.994162e+000
         vertex 2.977170e-001 1.627762e+001 4.096919e+000
      endloop
   endfacet
   facet normal 1.000000e+000 -1.219934e-016 -2.784367e-017
      outer loop
         vertex 2.977170e-001 1.627762e+001 4.096919e+000
         vertex 2.977170e-001 1.638894e+001 3.994162e+000
         vertex 2.977170e-001 1.640236e+001 4.088901e+000
      endloop
   endfacet
   facet normal 1.000000e+000 -1.219934e-016 -2.784367e-017
      outer loop
         vertex 2.977170e-001 1.627762e+001 4.096919e+000
         vertex 2.977170e-001 1.640236e+001 4.088901e+000
         vertex 2.977170e-001 1.627667e+001 4.173462e+000
      endloop
   endfacet
   facet normal 1.000000e+000 -1.219934e-016 -2.784367e-017
      outer loop
         vertex 2.977170e-001 1.627667e+001 4.173462e+000
         vertex 2.977170e-001 1.640236e+001 4.088901e+000
         vertex 2.977170e-001 1.640118e+001 4.184580e+000
      endloop
   endfacet
   facet normal 1.000000e+000 -1.219934e-016 -2.784367e-017
      outer loop
         vertex 2.977170e-001 1.627667e+001 4.173462e+000
         vertex 2.977170e-001 1.640118e+001 4.184580e+000
         vertex 2.977170e-001 1.626405e+001 4.248963e+000
      endloop
   endfacet
   facet normal 1.000000e+000 -1.219934e-016 -2.784367e-017
      outer loop
         vertex 2.977170e-001 1.626405e+001 4.248963e+000
         vertex 2.977170e-001 1.640118e+001 4.184580e+000
         vertex 2.977170e-001 1.638540e+001 4.278956e+000
      endloop
   endfacet
   facet normal 1.000000e+000 -1.219934e-016 -2.784367e-017
      outer loop
         vertex 2.977170e-001 1.626405e+001 4.248963e+000
         vertex 2.977170e-001 1.638540e+001 4.278956e+000
         vertex 2.977170e-001 1.624004e+001 4.321652e+000
      endloop
   endfacet
   facet normal 1.000000e+000 -1.219934e-016 -2.784367e-017
      outer loop
         vertex 2.977170e-001 1.624004e+001 4.321652e+000
         vertex 2.977170e-001 1.638540e+001 4.278956e+000
         vertex 2.977170e-001 1.635539e+001 4.369817e+000
      endloop
   endfacet
   facet normal 1.000000e+000 -1.219934e-016 -2.784367e-017
      outer loop
         vertex 2.977170e-001 1.624004e+001 4.321652e+000
         vertex 2.977170e-001 1.635539e+001 4.369817e+000
         vertex 2.977170e-001 1.620523e+001 4.389824e+000
      endloop
   endfacet
   facet normal 1.000000e+000 -1.219934e-016 -2.784367e-017
      outer loop
         vertex 2.977170e-001 1.620523e+001 4.389824e+000
         vertex 2.977170e-001 1.635539e+001 4.369817e+000
         vertex 2.977170e-001 1.631187e+001 4.455034e+000
      endloop
   endfacet
   facet normal 1.000000e+000 -1.219934e-016 -2.784367e-017
      outer loop
         vertex 2.977170e-001 1.620523e+001 4.389824e+000
         vertex 2.977170e-001 1.631187e+001 4.455034e+000
         vertex 2.977170e-001 1.616041e+001 4.451884e+000
      endloop
   endfacet
   facet normal 1.000000e+000 -1.219934e-016 -2.784367e-017
      outer loop
         vertex 2.977170e-001 1.616041e+001 4.451884e+000
         vertex 2.977170e-001 1.631187e+001 4.455034e+000
         vertex 2.977170e-001 1.625585e+001 4.532608e+000
      endloop
   endfacet
   facet normal 1.000000e+000 -1.219934e-016 -2.784367e-017
      outer loop
         vertex 2.977170e-001 1.616041e+001 4.451884e+000
         vertex 2.977170e-001 1.625585e+001 4.532608e+000
         vertex 2.977170e-001 1.610665e+001 4.506375e+000
      endloop
   endfacet
   facet normal 1.000000e+000 -1.219934e-016 -2.784367e-017
      outer loop
         vertex 2.977170e-001 1.610665e+001 4.506375e+000
         vertex 2.977170e-001 1.625585e+001 4.532608e+000
         vertex 2.977170e-001 1.618864e+001 4.600721e+000
      endloop
   endfacet
   facet normal 1.000000e+000 -1.219934e-016 -2.784367e-017
      outer loop
         vertex 2.977170e-001 1.610665e+001 4.506375e+000
         vertex 2.977170e-001 1.618864e+001 4.600721e+000
         vertex 2.977170e-001 1.604519e+001 4.552020e+000
      endloop
   endfacet
   facet normal 1.000000e+000 -1.219934e-016 -2.784367e-017
      outer loop
         vertex 2.977170e-001 1.604519e+001 4.552020e+000
         vertex 2.977170e-001 1.618864e+001 4.600721e+000
         vertex 2.977170e-001 1.611183e+001 4.657778e+000
      endloop
   endfacet
   facet normal 1.000000e+000 -1.219934e-016 -2.784367e-017
      outer loop
         vertex 2.977170e-001 1.604519e+001 4.552020e+000
         vertex 2.977170e-001 1.611183e+001 4.657778e+000
         vertex 2.977170e-001 1.597750e+001 4.587750e+000
      endloop
   endfacet
   facet normal 1.000000e+000 -1.219934e-016 -2.784367e-017
      outer loop
         vertex 2.977170e-001 1.597750e+001 4.587750e+000
         vertex 2.977170e-001 1.611183e+001 4.657778e+000
         vertex 2.977170e-001 1.602721e+001 4.702440e+000
      endloop
   endfacet
   facet normal 1.000000e+000 -1.219934e-016 -2.784367e-017
      outer loop
         vertex 2.977170e-001 1.597750e+001 4.587750e+000
         vertex 2.977170e-001 1.602721e+001 4.702440e+000
         vertex 2.977170e-001 1.590514e+001 4.612727e+000
      endloop
   endfacet
   facet normal 1.000000e+000 -1.219934e-016 -2.784367e-017
      outer loop
         vertex 2.977170e-001 1.590514e+001 4.612727e+000
         vertex 2.977170e-001 1.602721e+001 4.702440e+000
         vertex 2.977170e-001 1.593676e+001 4.733661e+000
      endloop
   endfacet
   facet normal 1.000000e+000 -1.219934e-016 -2.784367e-017
      outer loop
         vertex 2.977170e-001 1.590514e+001 4.612727e+000
         vertex 2.977170e-001 1.593676e+001 4.733661e+000
         vertex 2.977170e-001 1.582981e+001 4.626365e+000
      endloop
   endfacet
   facet normal 1.000000e+000 -1.219934e-016 -2.784367e-017
      outer loop
         vertex 2.977170e-001 1.582981e+001 4.626365e+000
         vertex 2.977170e-001 1.593676e+001 4.733661e+000
         vertex 2.977170e-001 1.584260e+001 4.750710e+000
      endloop
   endfacet
   facet normal 1.000000e+000 -1.219934e-016 -2.784367e-017
      outer loop
         vertex 2.977170e-001 1.582981e+001 4.626365e+000
         vertex 2.977170e-001 1.584260e+001 4.750710e+000
         vertex 2.977170e-001 1.575329e+001 4.628345e+000
      endloop
   endfacet
   facet normal 1.000000e+000 -1.219934e-016 -2.784367e-017
      outer loop
         vertex 2.977170e-001 1.575329e+001 4.628345e+000
         vertex 2.977170e-001 1.584260e+001 4.750710e+000
         vertex 2.977170e-001 1.574695e+001 4.753185e+000
      endloop
   endfacet
   facet normal 1.000000e+000 -1.219934e-016 -2.784367e-017
      outer loop
         vertex 2.977170e-001 1.575329e+001 4.628345e+000
         vertex 2.977170e-001 1.574695e+001 4.753185e+000
         vertex 2.977170e-001 1.567736e+001 4.618622e+000
      endloop
   endfacet
   facet normal 1.000000e+000 -1.219934e-016 -2.784367e-017
      outer loop
         vertex 2.977170e-001 1.567736e+001 4.618622e+000
         vertex 2.977170e-001 1.574695e+001 4.753185e+000
         vertex 2.977170e-001 1.565204e+001 4.741030e+000
      endloop
   endfacet
   facet normal 1.000000e+000 -1.219934e-016 -2.784367e-017
      outer loop
         vertex 2.977170e-001 1.567736e+001 4.618622e+000
         vertex 2.977170e-001 1.565204e+001 4.741030e+000
         vertex 2.977170e-001 1.560380e+001 4.597421e+000
      endloop
   endfacet
   facet normal 1.000000e+000 -1.219934e-016 -2.784367e-017
      outer loop
         vertex 2.977170e-001 1.560380e+001 4.597421e+000
         vertex 2.977170e-001 1.565204e+001 4.741030e+000
         vertex 2.977170e-001 1.556009e+001 4.714529e+000
      endloop
   endfacet
   facet normal 1.000000e+000 -1.219934e-016 -2.784367e-017
      outer loop
         vertex 2.977170e-001 1.560380e+001 4.597421e+000
         vertex 2.977170e-001 1.556009e+001 4.714529e+000
         vertex 2.977170e-001 1.553435e+001 4.565241e+000
      endloop
   endfacet
   facet normal 1.000000e+000 -1.219934e-016 -2.784367e-017
      outer loop
         vertex 2.977170e-001 1.553435e+001 4.565241e+000
         vertex 2.977170e-001 1.556009e+001 4.714529e+000
         vertex 2.977170e-001 1.547327e+001 4.674304e+000
      endloop
   endfacet
   facet normal 1.000000e+000 -1.219934e-016 -2.784367e-017
      outer loop
         vertex 2.977170e-001 1.553435e+001 4.565241e+000
         vertex 2.977170e-001 1.547327e+001 4.674304e+000
         vertex 2.977170e-001 1.547062e+001 4.522835e+000
      endloop
   endfacet
   facet normal 1.000000e+000 -1.219934e-016 -2.784367e-017
      outer loop
         vertex 2.977170e-001 1.547062e+001 4.522835e+000
         vertex 2.977170e-001 1.547327e+001 4.674304e+000
         vertex 2.977170e-001 1.539361e+001 4.621296e+000
      endloop
   endfacet
   facet normal 1.000000e+000 -1.219934e-016 -2.784367e-017
      outer loop
         vertex 2.977170e-001 1.547062e+001 4.522835e+000
         vertex 2.977170e-001 1.539361e+001 4.621296e+000
         vertex 2.977170e-001 1.541411e+001 4.471198e+000
      endloop
   endfacet
   facet normal 1.000000e+000 -1.219934e-016 -2.784367e-017
      outer loop
         vertex 2.977170e-001 1.541411e+001 4.471198e+000
         vertex 2.977170e-001 1.539361e+001 4.621296e+000
         vertex 2.977170e-001 1.532297e+001 4.556750e+000
      endloop
   endfacet
   facet normal 1.000000e+000 -1.219934e-016 -2.784367e-017
      outer loop
         vertex 2.977170e-001 1.541411e+001 4.471198e+000
         vertex 2.977170e-001 1.532297e+001 4.556750e+000
         vertex 2.977170e-001 1.536614e+001 4.411540e+000
      endloop
   endfacet
   facet normal 1.000000e+000 -1.219934e-016 -2.784367e-017
      outer loop
         vertex 2.977170e-001 1.536614e+001 4.411540e+000
         vertex 2.977170e-001 1.532297e+001 4.556750e+000
         vertex 2.977170e-001 1.526301e+001 4.482177e+000
      endloop
   endfacet
   facet normal 1.000000e+000 -1.219934e-016 -2.784367e-017
      outer loop
         vertex 2.977170e-001 1.536614e+001 4.411540e+000
         vertex 2.977170e-001 1.526301e+001 4.482177e+000
         vertex 2.977170e-001 1.532784e+001 4.345259e+000
      endloop
   endfacet
   facet normal 1.000000e+000 -1.219934e-016 -2.784367e-017
      outer loop
         vertex 2.977170e-001 1.532784e+001 4.345259e+000
         vertex 2.977170e-001 1.526301e+001 4.482177e+000
         vertex 2.977170e-001 1.521514e+001 4.399326e+000
      endloop
   endfacet
   facet normal 1.000000e+000 -1.219934e-016 -2.784367e-017
      outer loop
         vertex 2.977170e-001 1.532784e+001 4.345259e+000
         vertex 2.977170e-001 1.521514e+001 4.399326e+000
         vertex 2.977170e-001 1.530011e+001 4.273909e+000
      endloop
   endfacet
   facet normal 1.000000e+000 -1.219934e-016 -2.784367e-017
      outer loop
         vertex 2.977170e-001 1.530011e+001 4.273909e+000
         vertex 2.977170e-001 1.521514e+001 4.399326e+000
         vertex 2.977170e-001 1.518048e+001 4.310139e+000
      endloop
   endfacet
   facet normal 1.000000e+000 -1.219934e-016 -2.784367e-017
      outer loop
         vertex 2.977170e-001 1.530011e+001 4.273909e+000
         vertex 2.977170e-001 1.518048e+001 4.310139e+000
         vertex 2.977170e-001 1.528360e+001 4.199162e+000
      endloop
   endfacet
   facet normal 1.000000e+000 -1.219934e-016 -2.784367e-017
      outer loop
         vertex 2.977170e-001 1.528360e+001 4.199162e+000
         vertex 2.977170e-001 1.518048e+001 4.310139e+000
         vertex 2.977170e-001 1.515984e+001 4.216705e+000
      endloop
   endfacet
   facet normal 1.000000e+000 -1.219934e-016 -2.784367e-017
      outer loop
         vertex 2.977170e-001 1.528360e+001 4.199162e+000
         vertex 2.977170e-001 1.515984e+001 4.216705e+000
         vertex 2.977170e-001 1.527869e+001 4.122770e+000
      endloop
   endfacet
   facet normal 1.000000e+000 -1.219934e-016 -2.784367e-017
      outer loop
         vertex 2.977170e-001 1.527869e+001 4.122770e+000
         vertex 2.977170e-001 1.515984e+001 4.216705e+000
         vertex 2.977170e-001 1.515370e+001 4.121216e+000
      endloop
   endfacet
   facet normal 1.000000e+000 -1.219934e-016 -2.784367e-017
      outer loop
         vertex 2.977170e-001 1.527869e+001 4.122770e+000
         vertex 2.977170e-001 1.515370e+001 4.121216e+000
         vertex 2.977170e-001 1.528550e+001 4.046525e+000
      endloop
   endfacet
   facet normal 1.000000e+000 -1.219934e-016 -2.784367e-017
      outer loop
         vertex 2.977170e-001 1.528550e+001 4.046525e+000
         vertex 2.977170e-001 1.515370e+001 4.121216e+000
         vertex 2.977170e-001 1.516221e+001 4.025908e+000
      endloop
   endfacet
   facet normal 1.000000e+000 -1.219934e-016 -2.784367e-017
      outer loop
         vertex 2.977170e-001 1.528550e+001 4.046525e+000
         vertex 2.977170e-001 1.516221e+001 4.025908e+000
         vertex 2.977170e-001 1.530387e+001 3.972212e+000
      endloop
   endfacet
   facet normal 1.000000e+000 -1.219934e-016 -2.784367e-017
      outer loop
         vertex 2.977170e-001 1.530387e+001 3.972212e+000
         vertex 2.977170e-001 1.516221e+001 4.025908e+000
         vertex 2.977170e-001 1.518517e+001 3.933017e+000
      endloop
   endfacet
   facet normal 1.000000e+000 -1.219934e-016 -2.784367e-017
      outer loop
         vertex 2.977170e-001 1.530387e+001 3.972212e+000
         vertex 2.977170e-001 1.518517e+001 3.933017e+000
         vertex 2.977170e-001 1.533336e+001 3.901573e+000
      endloop
   endfacet
   facet normal 1.000000e+000 -1.219934e-016 -2.784367e-017
      outer loop
         vertex 2.977170e-001 1.533336e+001 3.901573e+000
         vertex 2.977170e-001 1.518517e+001 3.933017e+000
         vertex 2.977170e-001 1.522204e+001 3.844719e+000
      endloop
   endfacet
   facet normal 1.000000e+000 -1.219934e-016 -2.784367e-017
      outer loop
         vertex 2.977170e-001 1.533336e+001 3.901573e+000
         vertex 2.977170e-001 1.522204e+001 3.844719e+000
         vertex 2.977170e-001 1.537330e+001 3.836266e+000
      endloop
   endfacet
   facet normal 1.000000e+000 -1.219934e-016 -2.784367e-017
      outer loop
         vertex 2.977170e-001 1.537330e+001 3.836266e+000
         vertex 2.977170e-001 1.522204e+001 3.844719e+000
         vertex 2.977170e-001 1.527196e+001 3.763085e+000
      endloop
   endfacet
   facet normal -1.261758e-016 -9.126213e-001 -4.088061e-001
      outer loop
         vertex 5.047718e+000 1.530387e+001 3.972212e+000
         vertex 2.977170e-001 1.533336e+001 3.901573e+000
         vertex 5.047718e+000 1.533336e+001 3.901573e+000
      endloop
   endfacet
   facet normal -1.238827e-016 -8.662137e-001 -4.996738e-001
      outer loop
         vertex 5.047718e+000 1.533336e+001 3.901573e+000
         vertex 2.977170e-001 1.533336e+001 3.901573e+000
         vertex 2.977170e-001 1.537330e+001 3.836266e+000
      endloop
   endfacet
   facet normal -1.222457e-016 -8.395218e-001 -5.433261e-001
      outer loop
         vertex 5.047718e+000 1.533336e+001 3.901573e+000
         vertex 2.977170e-001 1.537330e+001 3.836266e+000
         vertex 5.047718e+000 1.537330e+001 3.836266e+000
      endloop
   endfacet
   facet normal -1.180296e-016 -7.797872e-001 -6.260447e-001
      outer loop
         vertex 5.047718e+000 1.537330e+001 3.836266e+000
         vertex 2.977170e-001 1.537330e+001 3.836266e+000
         vertex 2.977170e-001 1.542273e+001 3.777819e+000
      endloop
   endfacet
   facet normal -1.154503e-016 -7.467446e-001 -6.651109e-001
      outer loop
         vertex 5.047718e+000 1.537330e+001 3.836266e+000
         vertex 2.977170e-001 1.542273e+001 3.777819e+000
         vertex 5.047718e+000 1.542273e+001 3.777819e+000
      endloop
   endfacet
   facet normal -1.094099e-016 -6.750832e-001 -7.377416e-001
      outer loop
         vertex 5.047718e+000 1.542273e+001 3.777819e+000
         vertex 2.977170e-001 1.542273e+001 3.777819e+000
         vertex 2.977170e-001 1.548051e+001 3.727603e+000
      endloop
   endfacet
   facet normal -1.059488e-016 -6.364644e-001 -7.713061e-001
      outer loop
         vertex 5.047718e+000 1.542273e+001 3.777819e+000
         vertex 2.977170e-001 1.548051e+001 3.727603e+000
         vertex 5.047718e+000 1.548051e+001 3.727603e+000
      endloop
   endfacet
   facet normal -9.822583e-017 -5.545558e-001 -8.321465e-001
      outer loop
         vertex 5.047718e+000 1.548051e+001 3.727603e+000
         vertex 2.977170e-001 1.548051e+001 3.727603e+000
         vertex 2.977170e-001 1.554527e+001 3.686796e+000
      endloop
   endfacet
   facet normal -9.396395e-017 -5.112659e-001 -8.594226e-001
      outer loop
         vertex 5.047718e+000 1.548051e+001 3.727603e+000
         vertex 2.977170e-001 1.554527e+001 3.686796e+000
         vertex 5.047718e+000 1.554527e+001 3.686796e+000
      endloop
   endfacet
   facet normal -8.473938e-017 -4.210300e-001 -9.070467e-001
      outer loop
         vertex 5.047718e+000 1.554527e+001 3.686796e+000
         vertex 2.977170e-001 1.554527e+001 3.686796e+000
         vertex 2.977170e-001 1.561551e+001 3.656354e+000
      endloop
   endfacet
   facet normal -7.977667e-017 -3.740839e-001 -9.273949e-001
      outer loop
         vertex 5.047718e+000 1.554527e+001 3.686796e+000
         vertex 2.977170e-001 1.561551e+001 3.656354e+000
         vertex 5.047718e+000 1.561551e+001 3.656354e+000
      endloop
   endfacet
   facet normal -6.926672e-017 -2.776356e-001 -9.606864e-001
      outer loop
         vertex 5.047718e+000 1.561551e+001 3.656354e+000
         vertex 2.977170e-001 1.561551e+001 3.656354e+000
         vertex 2.977170e-001 1.568957e+001 3.636989e+000
      endloop
   endfacet
   facet normal -6.371950e-017 -2.281336e-001 -9.736298e-001
      outer loop
         vertex 5.047718e+000 1.561551e+001 3.656354e+000
         vertex 2.977170e-001 1.568957e+001 3.636989e+000
         vertex 5.047718e+000 1.568957e+001 3.636989e+000
      endloop
   endfacet
   facet normal -5.217053e-017 -1.277338e-001 -9.918085e-001
      outer loop
         vertex 5.047718e+000 1.568957e+001 3.636989e+000
         vertex 2.977170e-001 1.568957e+001 3.636989e+000
         vertex 2.977170e-001 1.576572e+001 3.629157e+000
      endloop
   endfacet
   facet normal -4.616878e-017 -7.683608e-002 -9.970437e-001
      outer loop
         vertex 5.047718e+000 1.568957e+001 3.636989e+000
         vertex 2.977170e-001 1.576572e+001 3.629157e+000
         vertex 5.047718e+000 1.576572e+001 3.629157e+000
      endloop
   endfacet
   facet normal -3.385148e-017 2.516207e-002 -9.996834e-001
      outer loop
         vertex 5.047718e+000 1.576572e+001 3.629157e+000
         vertex 2.977170e-001 1.576572e+001 3.629157e+000
         vertex 2.977170e-001 1.584217e+001 3.633040e+000
      endloop
   endfacet
   facet normal -2.753592e-017 7.626244e-002 -9.970878e-001
      outer loop
         vertex 5.047718e+000 1.576572e+001 3.629157e+000
         vertex 2.977170e-001 1.584217e+001 3.633040e+000
         vertex 5.047718e+000 1.584217e+001 3.633040e+000
      endloop
   endfacet
   facet normal -1.473899e-017 1.774681e-001 -9.841266e-001
      outer loop
         vertex 5.047718e+000 1.584217e+001 3.633040e+000
         vertex 2.977170e-001 1.584217e+001 3.633040e+000
         vertex 2.977170e-001 1.591713e+001 3.648548e+000
      endloop
   endfacet
   facet normal -8.257628e-018 2.275734e-001 -9.737609e-001
      outer loop
         vertex 5.047718e+000 1.584217e+001 3.633040e+000
         vertex 2.977170e-001 1.591713e+001 3.648548e+000
         vertex 5.047718e+000 1.591713e+001 3.648548e+000
      endloop
   endfacet
   facet normal 4.718970e-018 3.256145e-001 -9.455026e-001
      outer loop
         vertex 5.047718e+000 1.591713e+001 3.648548e+000
         vertex 2.977170e-001 1.591713e+001 3.648548e+000
         vertex 2.977170e-001 1.598885e+001 3.675317e+000
      endloop
   endfacet
   facet normal 1.121421e-017 3.735503e-001 -9.276099e-001
      outer loop
         vertex 5.047718e+000 1.591713e+001 3.648548e+000
         vertex 2.977170e-001 1.598885e+001 3.675317e+000
         vertex 5.047718e+000 1.598885e+001 3.675317e+000
      endloop
   endfacet
   facet normal 2.406632e-017 4.661287e-001 -8.847169e-001
      outer loop
         vertex 5.047718e+000 1.598885e+001 3.675317e+000
         vertex 2.977170e-001 1.598885e+001 3.675317e+000
         vertex 2.977170e-001 1.605564e+001 3.712720e+000
      endloop
   endfacet
   facet normal 3.042319e-017 5.107714e-001 -8.597166e-001
      outer loop
         vertex 5.047718e+000 1.598885e+001 3.675317e+000
         vertex 2.977170e-001 1.605564e+001 3.712720e+000
         vertex 5.047718e+000 1.605564e+001 3.712720e+000
      endloop
   endfacet
   facet normal 4.284958e-017 5.957173e-001 -8.031942e-001
      outer loop
         vertex 5.047718e+000 1.605564e+001 3.712720e+000
         vertex 2.977170e-001 1.605564e+001 3.712720e+000
         vertex 2.977170e-001 1.611593e+001 3.759880e+000
      endloop
   endfacet
   facet normal 4.891909e-017 6.360205e-001 -7.716721e-001
      outer loop
         vertex 5.047718e+000 1.605564e+001 3.712720e+000
         vertex 2.977170e-001 1.611593e+001 3.759880e+000
         vertex 5.047718e+000 1.611593e+001 3.759880e+000
      endloop
   endfacet
   facet normal 6.062848e-017 7.113428e-001 -7.028453e-001
      outer loop
         vertex 5.047718e+000 1.611593e+001 3.759880e+000
         vertex 2.977170e-001 1.611593e+001 3.759880e+000
         vertex 2.977170e-001 1.616832e+001 3.815691e+000
      endloop
   endfacet
   facet normal 6.626836e-017 7.463618e-001 -6.655404e-001
      outer loop
         vertex 5.047718e+000 1.611593e+001 3.759880e+000
         vertex 2.977170e-001 1.616832e+001 3.815691e+000
         vertex 5.047718e+000 1.616832e+001 3.815691e+000
      endloop
   endfacet
   facet normal 7.698630e-017 8.102949e-001 -5.860223e-001
      outer loop
         vertex 5.047718e+000 1.616832e+001 3.815691e+000
         vertex 2.977170e-001 1.616832e+001 3.815691e+000
         vertex 2.977170e-001 1.621158e+001 3.878846e+000
      endloop
   endfacet
   facet normal 8.206435e-017 8.392090e-001 -5.438090e-001
      outer loop
         vertex 5.047718e+000 1.616832e+001 3.815691e+000
         vertex 2.977170e-001 1.621158e+001 3.878846e+000
         vertex 5.047718e+000 1.621158e+001 3.878846e+000
      endloop
   endfacet
   facet normal 9.153962e-017 8.902545e-001 -4.554634e-001
      outer loop
         vertex 5.047718e+000 1.621158e+001 3.878846e+000
         vertex 2.977170e-001 1.621158e+001 3.878846e+000
         vertex 2.977170e-001 1.624469e+001 3.947864e+000
      endloop
   endfacet
   facet normal 9.593684e-017 9.123859e-001 -4.093311e-001
      outer loop
         vertex 5.047718e+000 1.621158e+001 3.878846e+000
         vertex 2.977170e-001 1.624469e+001 3.947864e+000
         vertex 5.047718e+000 1.624469e+001 3.947864e+000
      endloop
   endfacet
   facet normal 1.039473e-016 9.493473e-001 -3.142288e-001
      outer loop
         vertex 5.047718e+000 1.624469e+001 3.947864e+000
         vertex 2.977170e-001 1.624469e+001 3.947864e+000
         vertex 2.977170e-001 1.626688e+001 4.021127e+000
      endloop
   endfacet
   facet normal 1.075606e-016 9.641773e-001 -2.652588e-001
      outer loop
         vertex 5.047718e+000 1.624469e+001 3.947864e+000
         vertex 2.977170e-001 1.626688e+001 4.021127e+000
         vertex 5.047718e+000 1.626688e+001 4.021127e+000
      endloop
   endfacet
   facet normal 1.139186e-016 9.861881e-001 -1.656290e-001
      outer loop
         vertex 5.047718e+000 1.626688e+001 4.021127e+000
         vertex 2.977170e-001 1.626688e+001 4.021127e+000
         vertex 2.977170e-001 1.627762e+001 4.096919e+000
      endloop
   endfacet
   facet normal 1.166633e-016 9.933690e-001 -1.149692e-001
      outer loop
         vertex 5.047718e+000 1.626688e+001 4.021127e+000
         vertex 2.977170e-001 1.627762e+001 4.096919e+000
         vertex 5.047718e+000 1.627762e+001 4.096919e+000
      endloop
   endfacet
   facet normal 1.212197e-016 9.999136e-001 -1.314703e-002
      outer loop
         vertex 5.047718e+000 1.627762e+001 4.096919e+000
         vertex 2.977170e-001 1.627762e+001 4.096919e+000
         vertex 2.977170e-001 1.627667e+001 4.173462e+000
      endloop
   endfacet
   facet normal 1.230315e-016 9.992772e-001 3.801525e-002
      outer loop
         vertex 5.047718e+000 1.627762e+001 4.096919e+000
         vertex 2.977170e-001 1.627667e+001 4.173462e+000
         vertex 5.047718e+000 1.627667e+001 4.173462e+000
      endloop
   endfacet
   facet normal 1.256796e-016 9.902019e-001 1.396431e-001
      outer loop
         vertex 5.047718e+000 1.627667e+001 4.173462e+000
         vertex 2.977170e-001 1.627667e+001 4.173462e+000
         vertex 2.977170e-001 1.626405e+001 4.248963e+000
      endloop
   endfacet
   facet normal 1.265159e-016 9.817631e-001 1.901087e-001
      outer loop
         vertex 5.047718e+000 1.627667e+001 4.173462e+000
         vertex 2.977170e-001 1.626405e+001 4.248963e+000
         vertex 5.047718e+000 1.626405e+001 4.248963e+000
      endloop
   endfacet
   facet normal 1.271936e-016 9.572807e-001 2.891602e-001
      outer loop
         vertex 5.047718e+000 1.626405e+001 4.248963e+000
         vertex 2.977170e-001 1.626405e+001 4.248963e+000
         vertex 2.977170e-001 1.624004e+001 4.321652e+000
      endloop
   endfacet
   facet normal 1.270349e-016 9.412373e-001 3.377461e-001
      outer loop
         vertex 5.047718e+000 1.626405e+001 4.248963e+000
         vertex 2.977170e-001 1.624004e+001 4.321652e+000
         vertex 5.047718e+000 1.624004e+001 4.321652e+000
      endloop
   endfacet
   facet normal 1.257263e-016 9.019217e-001 4.318996e-001
      outer loop
         vertex 5.047718e+000 1.624004e+001 4.321652e+000
         vertex 2.977170e-001 1.624004e+001 4.321652e+000
         vertex 2.977170e-001 1.620523e+001 4.389824e+000
      endloop
   endfacet
   facet normal 1.245763e-016 8.786497e-001 4.774671e-001
      outer loop
         vertex 5.047718e+000 1.624004e+001 4.321652e+000
         vertex 2.977170e-001 1.620523e+001 4.389824e+000
         vertex 5.047718e+000 1.620523e+001 4.389824e+000
      endloop
   endfacet
   facet normal 1.213121e-016 8.254224e-001 5.645156e-001
      outer loop
         vertex 5.047718e+000 1.620523e+001 4.389824e+000
         vertex 2.977170e-001 1.620523e+001 4.389824e+000
         vertex 2.977170e-001 1.616041e+001 4.451884e+000
      endloop
   endfacet
   facet normal 1.191978e-016 7.954672e-001 6.059966e-001
      outer loop
         vertex 5.047718e+000 1.620523e+001 4.389824e+000
         vertex 2.977170e-001 1.616041e+001 4.451884e+000
         vertex 5.047718e+000 1.616041e+001 4.451884e+000
      endloop
   endfacet
   facet normal 1.140544e-016 7.295759e-001 6.838999e-001
      outer loop
         vertex 5.047718e+000 1.616041e+001 4.451884e+000
         vertex 2.977170e-001 1.616041e+001 4.451884e+000
         vertex 2.977170e-001 1.610665e+001 4.506375e+000
      endloop
   endfacet
   facet normal 1.110253e-016 6.936398e-001 7.203221e-001
      outer loop
         vertex 5.047718e+000 1.616041e+001 4.451884e+000
         vertex 2.977170e-001 1.610665e+001 4.506375e+000
         vertex 5.047718e+000 1.610665e+001 4.506375e+000
      endloop
   endfacet
   facet normal 1.041234e-016 6.166288e-001 7.872540e-001
      outer loop
         vertex 5.047718e+000 1.610665e+001 4.506375e+000
         vertex 2.977170e-001 1.610665e+001 4.506375e+000
         vertex 2.977170e-001 1.604519e+001 4.552020e+000
      endloop
   endfacet
   facet normal 1.002505e-016 5.755540e-001 8.177638e-001
      outer loop
         vertex 5.047718e+000 1.610665e+001 4.506375e+000
         vertex 2.977170e-001 1.604519e+001 4.552020e+000
         vertex 5.047718e+000 1.604519e+001 4.552020e+000
      endloop
   endfacet
   facet normal 9.175182e-017 4.892284e-001 8.721557e-001
      outer loop
         vertex 5.047718e+000 1.604519e+001 4.552020e+000
         vertex 2.977170e-001 1.604519e+001 4.552020e+000
         vertex 2.977170e-001 1.597750e+001 4.587750e+000
      endloop
   endfacet
   facet normal 8.712596e-017 4.439776e-001 8.960379e-001
      outer loop
         vertex 5.047718e+000 1.604519e+001 4.552020e+000
         vertex 2.977170e-001 1.597750e+001 4.587750e+000
         vertex 5.047718e+000 1.597750e+001 4.587750e+000
      endloop
   endfacet
   facet normal 7.722966e-017 3.503608e-001 9.366148e-001
      outer loop
         vertex 5.047718e+000 1.597750e+001 4.587750e+000
         vertex 2.977170e-001 1.597750e+001 4.587750e+000
         vertex 2.977170e-001 1.590514e+001 4.612727e+000
      endloop
   endfacet
   facet normal 7.195923e-017 3.019949e-001 9.533095e-001
      outer loop
         vertex 5.047718e+000 1.597750e+001 4.587750e+000
         vertex 2.977170e-001 1.590514e+001 4.612727e+000
         vertex 5.047718e+000 1.590514e+001 4.612727e+000
      endloop
   endfacet
   facet normal 6.089731e-017 2.032812e-001 9.791204e-001
      outer loop
         vertex 5.047718e+000 1.590514e+001 4.612727e+000
         vertex 2.977170e-001 1.590514e+001 4.612727e+000
         vertex 2.977170e-001 1.582981e+001 4.626365e+000
      endloop
   endfacet
   facet normal 5.510583e-017 1.529336e-001 9.882365e-001
      outer loop
         vertex 5.047718e+000 1.590514e+001 4.612727e+000
         vertex 2.977170e-001 1.582981e+001 4.626365e+000
         vertex 5.047718e+000 1.582981e+001 4.626365e+000
      endloop
   endfacet
   facet normal 4.313758e-017 5.143682e-002 9.986762e-001
      outer loop
         vertex 5.047718e+000 1.582981e+001 4.626365e+000
         vertex 2.977170e-001 1.582981e+001 4.626365e+000
         vertex 2.977170e-001 1.575329e+001 4.628345e+000
      endloop
   endfacet
   facet normal 3.696080e-017 2.876561e-004 9.999999e-001
      outer loop
         vertex 5.047718e+000 1.582981e+001 4.626365e+000
         vertex 2.977170e-001 1.575329e+001 4.628345e+000
         vertex 5.047718e+000 1.575329e+001 4.628345e+000
      endloop
   endfacet
   facet normal 2.436673e-017 -1.016132e-001 9.948240e-001
      outer loop
         vertex 5.047718e+000 1.575329e+001 4.628345e+000
         vertex 2.977170e-001 1.575329e+001 4.628345e+000
         vertex 2.977170e-001 1.567736e+001 4.618622e+000
      endloop
   endfacet
   facet normal 1.794944e-017 -1.523650e-001 9.883243e-001
      outer loop
         vertex 5.047718e+000 1.575329e+001 4.628345e+000
         vertex 2.977170e-001 1.567736e+001 4.618622e+000
         vertex 5.047718e+000 1.567736e+001 4.618622e+000
      endloop
   endfacet
   facet normal 5.024754e-018 -2.522815e-001 9.676539e-001
      outer loop
         vertex 5.047718e+000 1.567736e+001 4.618622e+000
         vertex 2.977170e-001 1.567736e+001 4.618622e+000
         vertex 2.977170e-001 1.560380e+001 4.597421e+000
      endloop
   endfacet
   facet normal -1.482640e-018 -3.014463e-001 9.534832e-001
      outer loop
         vertex 5.047718e+000 1.567736e+001 4.618622e+000
         vertex 2.977170e-001 1.560380e+001 4.597421e+000
         vertex 5.047718e+000 1.560380e+001 4.597421e+000
      endloop
   endfacet
   facet normal -1.443500e-017 -3.970366e-001 9.178028e-001
      outer loop
         vertex 5.047718e+000 1.560380e+001 4.597421e+000
         vertex 2.977170e-001 1.560380e+001 4.597421e+000
         vertex 2.977170e-001 1.553435e+001 4.565241e+000
      endloop
   endfacet
   facet normal -2.087997e-017 -4.434620e-001 8.962932e-001
      outer loop
         vertex 5.047718e+000 1.560380e+001 4.597421e+000
         vertex 2.977170e-001 1.553435e+001 4.565241e+000
         vertex 5.047718e+000 1.553435e+001 4.565241e+000
      endloop
   endfacet
   facet normal -3.355641e-017 -5.324854e-001 8.464392e-001
      outer loop
         vertex 5.047718e+000 1.553435e+001 4.565241e+000
         vertex 2.977170e-001 1.553435e+001 4.565241e+000
         vertex 2.977170e-001 1.547062e+001 4.522835e+000
      endloop
   endfacet
   facet normal -3.978788e-017 -5.750833e-001 8.180948e-001
      outer loop
         vertex 5.047718e+000 1.553435e+001 4.565241e+000
         vertex 2.977170e-001 1.547062e+001 4.522835e+000
         vertex 5.047718e+000 1.547062e+001 4.522835e+000
      endloop
   endfacet
   facet normal -5.189129e-017 -6.554533e-001 7.552357e-001
      outer loop
         vertex 5.047718e+000 1.547062e+001 4.522835e+000
         vertex 2.977170e-001 1.547062e+001 4.522835e+000
         vertex 2.977170e-001 1.541411e+001 4.471198e+000
      endloop
   endfacet
   facet normal -5.776321e-017 -6.932252e-001 7.207211e-001
      outer loop
         vertex 5.047718e+000 1.547062e+001 4.522835e+000
         vertex 2.977170e-001 1.541411e+001 4.471198e+000
         vertex 5.047718e+000 1.541411e+001 4.471198e+000
      endloop
   endfacet
   facet normal -6.900988e-017 -7.630578e-001 6.463302e-001
      outer loop
         vertex 5.047718e+000 1.541411e+001 4.471198e+000
         vertex 2.977170e-001 1.541411e+001 4.471198e+000
         vertex 2.977170e-001 1.536614e+001 4.411540e+000
      endloop
   endfacet
   facet normal -7.438462e-017 -7.951185e-001 6.064541e-001
      outer loop
         vertex 5.047718e+000 1.541411e+001 4.471198e+000
         vertex 2.977170e-001 1.536614e+001 4.411540e+000
         vertex 5.047718e+000 1.536614e+001 4.411540e+000
      endloop
   endfacet
   facet normal -8.451093e-017 -8.527769e-001 5.222753e-001
      outer loop
         vertex 5.047718e+000 1.536614e+001 4.411540e+000
         vertex 2.977170e-001 1.536614e+001 4.411540e+000
         vertex 2.977170e-001 1.532784e+001 4.345259e+000
      endloop
   endfacet
   facet normal -8.926250e-017 -8.783748e-001 4.779726e-001
      outer loop
         vertex 5.047718e+000 1.536614e+001 4.411540e+000
         vertex 2.977170e-001 1.532784e+001 4.345259e+000
         vertex 5.047718e+000 1.532784e+001 4.345259e+000
      endloop
   endfacet
   facet normal -9.803112e-017 -9.225077e-001 3.859787e-001
      outer loop
         vertex 5.047718e+000 1.532784e+001 4.345259e+000
         vertex 2.977170e-001 1.532784e+001 4.345259e+000
         vertex 2.977170e-001 1.530011e+001 4.273909e+000
      endloop
   endfacet
   facet normal -1.020482e-016 -9.410428e-001 3.382875e-001
      outer loop
         vertex 5.047718e+000 1.532784e+001 4.345259e+000
         vertex 2.977170e-001 1.530011e+001 4.273909e+000
         vertex 5.047718e+000 1.530011e+001 4.273909e+000
      endloop
   endfacet
   facet normal -1.092536e-016 -9.706157e-001 2.406350e-001
      outer loop
         vertex 5.047718e+000 1.530011e+001 4.273909e+000
         vertex 2.977170e-001 1.530011e+001 4.273909e+000
         vertex 2.977170e-001 1.528360e+001 4.199162e+000
      endloop
   endfacet
   facet normal -1.124419e-016 -9.816535e-001 1.906735e-001
      outer loop
         vertex 5.047718e+000 1.530011e+001 4.273909e+000
         vertex 2.977170e-001 1.528360e+001 4.199162e+000
         vertex 5.047718e+000 1.528360e+001 4.199162e+000
      endloop
   endfacet
   facet normal -1.179152e-016 -9.959732e-001 8.965107e-002
      outer loop
         vertex 5.047718e+000 1.528360e+001 4.199162e+000
         vertex 2.977170e-001 1.528360e+001 4.199162e+000
         vertex 2.977170e-001 1.527869e+001 4.122770e+000
      endloop
   endfacet
   facet normal -1.202001e-016 -9.992551e-001 3.859017e-002
      outer loop
         vertex 5.047718e+000 1.528360e+001 4.199162e+000
         vertex 2.977170e-001 1.527869e+001 4.122770e+000
         vertex 5.047718e+000 1.527869e+001 4.122770e+000
      endloop
   endfacet
   facet normal -1.238129e-016 -9.979860e-001 -6.343418e-002
      outer loop
         vertex 5.047718e+000 1.527869e+001 4.122770e+000
         vertex 2.977170e-001 1.527869e+001 4.122770e+000
         vertex 2.977170e-001 1.528550e+001 4.046525e+000
      endloop
   endfacet
   facet normal -1.251409e-016 -9.934350e-001 -1.143977e-001
      outer loop
         vertex 5.047718e+000 1.527869e+001 4.122770e+000
         vertex 2.977170e-001 1.528550e+001 4.046525e+000
         vertex 5.047718e+000 1.528550e+001 4.046525e+000
      endloop
   endfacet
   facet normal -1.268087e-016 -9.766068e-001 -2.150326e-001
      outer loop
         vertex 5.047718e+000 1.528550e+001 4.046525e+000
         vertex 2.977170e-001 1.528550e+001 4.046525e+000
         vertex 2.977170e-001 1.530387e+001 3.972212e+000
      endloop
   endfacet
   facet normal -1.271485e-016 -9.643297e-001 -2.647041e-001
      outer loop
         vertex 5.047718e+000 1.528550e+001 4.046525e+000
         vertex 2.977170e-001 1.530387e+001 3.972212e+000
         vertex 5.047718e+000 1.530387e+001 3.972212e+000
      endloop
   endfacet
   facet normal -1.268321e-016 -9.323369e-001 -3.615909e-001
      outer loop
         vertex 5.047718e+000 1.530387e+001 3.972212e+000
         vertex 2.977170e-001 1.530387e+001 3.972212e+000
         vertex 2.977170e-001 1.533336e+001 3.901573e+000
      endloop
   endfacet
   facet normal 1.000000e+000 -1.219934e-016 -2.784367e-017
      outer loop
         vertex 5.047718e+000 1.530387e+001 3.972212e+000
         vertex 5.047718e+000 1.533336e+001 3.901573e+000
         vertex 5.047718e+000 1.577865e+001 4.128990e+000
      endloop
   endfacet
   facet normal 1.000000e+000 -1.219934e-016 -2.784367e-017
      outer loop
         vertex 5.047718e+000 1.530387e+001 3.972212e+000
         vertex 5.047718e+000 1.577865e+001 4.128990e+000
         vertex 5.047718e+000 1.528550e+001 4.046525e+000
      endloop
   endfacet
   facet normal 1.000000e+000 -1.219934e-016 -2.784367e-017
      outer loop
         vertex 5.047718e+000 1.530011e+001 4.273909e+000
         vertex 5.047718e+000 1.528360e+001 4.199162e+000
         vertex 5.047718e+000 1.577865e+001 4.128990e+000
      endloop
   endfacet
   facet normal 1.000000e+000 -1.219934e-016 -2.784367e-017
      outer loop
         vertex 5.047718e+000 1.577865e+001 4.128990e+000
         vertex 5.047718e+000 1.528360e+001 4.199162e+000
         vertex 5.047718e+000 1.527869e+001 4.122770e+000
      endloop
   endfacet
   facet normal 1.000000e+000 -1.219934e-016 -2.784367e-017
      outer loop
         vertex 5.047718e+000 1.577865e+001 4.128990e+000
         vertex 5.047718e+000 1.527869e+001 4.122770e+000
         vertex 5.047718e+000 1.528550e+001 4.046525e+000
      endloop
   endfacet
   facet normal 1.000000e+000 -1.219934e-016 -2.784367e-017
      outer loop
         vertex 5.047718e+000 1.541411e+001 4.471198e+000
         vertex 5.047718e+000 1.536614e+001 4.411540e+000
         vertex 5.047718e+000 1.577865e+001 4.128990e+000
      endloop
   endfacet
   facet normal 1.000000e+000 -1.219934e-016 -2.784367e-017
      outer loop
         vertex 5.047718e+000 1.577865e+001 4.128990e+000
         vertex 5.047718e+000 1.536614e+001 4.411540e+000
         vertex 5.047718e+000 1.532784e+001 4.345259e+000
      endloop
   endfacet
   facet normal 1.000000e+000 -1.219934e-016 -2.784367e-017
      outer loop
         vertex 5.047718e+000 1.577865e+001 4.128990e+000
         vertex 5.047718e+000 1.532784e+001 4.345259e+000
         vertex 5.047718e+000 1.530011e+001 4.273909e+000
      endloop
   endfacet
   facet normal 1.000000e+000 -1.219934e-016 -2.784367e-017
      outer loop
         vertex 5.047718e+000 1.560380e+001 4.597421e+000
         vertex 5.047718e+000 1.553435e+001 4.565241e+000
         vertex 5.047718e+000 1.577865e+001 4.128990e+000
      endloop
   endfacet
   facet normal 1.000000e+000 -1.219934e-016 -2.784367e-017
      outer loop
         vertex 5.047718e+000 1.577865e+001 4.128990e+000
         vertex 5.047718e+000 1.553435e+001 4.565241e+000
         vertex 5.047718e+000 1.547062e+001 4.522835e+000
      endloop
   endfacet
   facet normal 1.000000e+000 -1.219934e-016 -2.784367e-017
      outer loop
         vertex 5.047718e+000 1.577865e+001 4.128990e+000
         vertex 5.047718e+000 1.547062e+001 4.522835e+000
         vertex 5.047718e+000 1.541411e+001 4.471198e+000
      endloop
   endfacet
   facet normal 1.000000e+000 -1.219934e-016 -2.784367e-017
      outer loop
         vertex 5.047718e+000 1.582981e+001 4.626365e+000
         vertex 5.047718e+000 1.575329e+001 4.628345e+000
         vertex 5.047718e+000 1.577865e+001 4.128990e+000
      endloop
   endfacet
   facet normal 1.000000e+000 -1.219934e-016 -2.784367e-017
      outer loop
         vertex 5.047718e+000 1.577865e+001 4.128990e+000
         vertex 5.047718e+000 1.575329e+001 4.628345e+000
         vertex 5.047718e+000 1.567736e+001 4.618622e+000
      endloop
   endfacet
   facet normal 1.000000e+000 -1.219934e-016 -2.784367e-017
      outer loop
         vertex 5.047718e+000 1.577865e+001 4.128990e+000
         vertex 5.047718e+000 1.567736e+001 4.618622e+000
         vertex 5.047718e+000 1.560380e+001 4.597421e+000
      endloop
   endfacet
   facet normal 1.000000e+000 -1.219934e-016 -2.784367e-017
      outer loop
         vertex 5.047718e+000 1.604519e+001 4.552020e+000
         vertex 5.047718e+000 1.597750e+001 4.587750e+000
         vertex 5.047718e+000 1.577865e+001 4.128990e+000
      endloop
   endfacet
   facet normal 1.000000e+000 -1.219934e-016 -2.784367e-017
      outer loop
         vertex 5.047718e+000 1.577865e+001 4.128990e+000
         vertex 5.047718e+000 1.597750e+001 4.587750e+000
         vertex 5.047718e+000 1.590514e+001 4.612727e+000
      endloop
   endfacet
   facet normal 1.000000e+000 -1.219934e-016 -2.784367e-017
      outer loop
         vertex 5.047718e+000 1.577865e+001 4.128990e+000
         vertex 5.047718e+000 1.590514e+001 4.612727e+000
         vertex 5.047718e+000 1.582981e+001 4.626365e+000
      endloop
   endfacet
   facet normal 1.000000e+000 -1.219934e-016 -2.784367e-017
      outer loop
         vertex 5.047718e+000 1.620523e+001 4.389824e+000
         vertex 5.047718e+000 1.616041e+001 4.451884e+000
         vertex 5.047718e+000 1.577865e+001 4.128990e+000
      endloop
   endfacet
   facet normal 1.000000e+000 -1.219934e-016 -2.784367e-017
      outer loop
         vertex 5.047718e+000 1.577865e+001 4.128990e+000
         vertex 5.047718e+000 1.616041e+001 4.451884e+000
         vertex 5.047718e+000 1.610665e+001 4.506375e+000
      endloop
   endfacet
   facet normal 1.000000e+000 -1.219934e-016 -2.784367e-017
      outer loop
         vertex 5.047718e+000 1.577865e+001 4.128990e+000
         vertex 5.047718e+000 1.610665e+001 4.506375e+000
         vertex 5.047718e+000 1.604519e+001 4.552020e+000
      endloop
   endfacet
   facet normal 1.000000e+000 -1.219934e-016 -2.784367e-017
      outer loop
         vertex 5.047718e+000 1.627667e+001 4.173462e+000
         vertex 5.047718e+000 1.626405e+001 4.248963e+000
         vertex 5.047718e+000 1.577865e+001 4.128990e+000
      endloop
   endfacet
   facet normal 1.000000e+000 -1.219934e-016 -2.784367e-017
      outer loop
         vertex 5.047718e+000 1.577865e+001 4.128990e+000
         vertex 5.047718e+000 1.626405e+001 4.248963e+000
         vertex 5.047718e+000 1.624004e+001 4.321652e+000
      endloop
   endfacet
   facet normal 1.000000e+000 -1.219934e-016 -2.784367e-017
      outer loop
         vertex 5.047718e+000 1.577865e+001 4.128990e+000
         vertex 5.047718e+000 1.624004e+001 4.321652e+000
         vertex 5.047718e+000 1.620523e+001 4.389824e+000
      endloop
   endfacet
   facet normal 1.000000e+000 -1.219934e-016 -2.784367e-017
      outer loop
         vertex 5.047718e+000 1.624469e+001 3.947864e+000
         vertex 5.047718e+000 1.626688e+001 4.021127e+000
         vertex 5.047718e+000 1.577865e+001 4.128990e+000
      endloop
   endfacet
   facet normal 1.000000e+000 -1.219934e-016 -2.784367e-017
      outer loop
         vertex 5.047718e+000 1.577865e+001 4.128990e+000
         vertex 5.047718e+000 1.626688e+001 4.021127e+000
         vertex 5.047718e+000 1.627762e+001 4.096919e+000
      endloop
   endfacet
   facet normal 1.000000e+000 -1.219934e-016 -2.784367e-017
      outer loop
         vertex 5.047718e+000 1.577865e+001 4.128990e+000
         vertex 5.047718e+000 1.627762e+001 4.096919e+000
         vertex 5.047718e+000 1.627667e+001 4.173462e+000
      endloop
   endfacet
   facet normal 1.000000e+000 -1.219934e-016 -2.784367e-017
      outer loop
         vertex 5.047718e+000 1.611593e+001 3.759880e+000
         vertex 5.047718e+000 1.616832e+001 3.815691e+000
         vertex 5.047718e+000 1.577865e+001 4.128990e+000
      endloop
   endfacet
   facet normal 1.000000e+000 -1.219934e-016 -2.784367e-017
      outer loop
         vertex 5.047718e+000 1.577865e+001 4.128990e+000
         vertex 5.047718e+000 1.616832e+001 3.815691e+000
         vertex 5.047718e+000 1.621158e+001 3.878846e+000
      endloop
   endfacet
   facet normal 1.000000e+000 -1.219934e-016 -2.784367e-017
      outer loop
         vertex 5.047718e+000 1.577865e+001 4.128990e+000
         vertex 5.047718e+000 1.621158e+001 3.878846e+000
         vertex 5.047718e+000 1.624469e+001 3.947864e+000
      endloop
   endfacet
   facet normal 1.000000e+000 -1.219934e-016 -2.784367e-017
      outer loop
         vertex 5.047718e+000 1.591713e+001 3.648548e+000
         vertex 5.047718e+000 1.598885e+001 3.675317e+000
         vertex 5.047718e+000 1.577865e+001 4.128990e+000
      endloop
   endfacet
   facet normal 1.000000e+000 -1.219934e-016 -2.784367e-017
      outer loop
         vertex 5.047718e+000 1.577865e+001 4.128990e+000
         vertex 5.047718e+000 1.598885e+001 3.675317e+000
         vertex 5.047718e+000 1.605564e+001 3.712720e+000
      endloop
   endfacet
   facet normal 1.000000e+000 -1.219934e-016 -2.784367e-017
      outer loop
         vertex 5.047718e+000 1.577865e+001 4.128990e+000
         vertex 5.047718e+000 1.605564e+001 3.712720e+000
         vertex 5.047718e+000 1.611593e+001 3.759880e+000
      endloop
   endfacet
   facet normal 1.000000e+000 -1.219934e-016 -2.784367e-017
      outer loop
         vertex 5.047718e+000 1.568957e+001 3.636989e+000
         vertex 5.047718e+000 1.576572e+001 3.629157e+000
         vertex 5.047718e+000 1.577865e+001 4.128990e+000
      endloop
   endfacet
   facet normal 1.000000e+000 -1.219934e-016 -2.784367e-017
      outer loop
         vertex 5.047718e+000 1.577865e+001 4.128990e+000
         vertex 5.047718e+000 1.576572e+001 3.629157e+000
         vertex 5.047718e+000 1.584217e+001 3.633040e+000
      endloop
   endfacet
   facet normal 1.000000e+000 -1.219934e-016 -2.784367e-017
      outer loop
         vertex 5.047718e+000 1.577865e+001 4.128990e+000
         vertex 5.047718e+000 1.584217e+001 3.633040e+000
         vertex 5.047718e+000 1.591713e+001 3.648548e+000
      endloop
   endfacet
   facet normal 1.000000e+000 -1.219934e-016 -2.784367e-017
      outer loop
         vertex 5.047718e+000 1.548051e+001 3.727603e+000
         vertex 5.047718e+000 1.554527e+001 3.686796e+000
         vertex 5.047718e+000 1.577865e+001 4.128990e+000
      endloop
   endfacet
   facet normal 1.000000e+000 -1.219934e-016 -2.784367e-017
      outer loop
         vertex 5.047718e+000 1.577865e+001 4.128990e+000
         vertex 5.047718e+000 1.554527e+001 3.686796e+000
         vertex 5.047718e+000 1.561551e+001 3.656354e+000
      endloop
   endfacet
   facet normal 1.000000e+000 -1.219934e-016 -2.784367e-017
      outer loop
         vertex 5.047718e+000 1.577865e+001 4.128990e+000
         vertex 5.047718e+000 1.561551e+001 3.656354e+000
         vertex 5.047718e+000 1.568957e+001 3.636989e+000
      endloop
   endfacet
   facet normal 1.000000e+000 -1.219934e-016 -2.784367e-017
      outer loop
         vertex 5.047718e+000 1.533336e+001 3.901573e+000
         vertex 5.047718e+000 1.537330e+001 3.836266e+000
         vertex 5.047718e+000 1.577865e+001 4.128990e+000
      endloop
   endfacet
   facet normal 1.000000e+000 -1.219934e-016 -2.784367e-017
      outer loop
         vertex 5.047718e+000 1.577865e+001 4.128990e+000
         vertex 5.047718e+000 1.537330e+001 3.836266e+000
         vertex 5.047718e+000 1.542273e+001 3.777819e+000
      endloop
   endfacet
   facet normal 1.000000e+000 -1.219934e-016 -2.784367e-017
      outer loop
         vertex 5.047718e+000 1.577865e+001 4.128990e+000
         vertex 5.047718e+000 1.542273e+001 3.777819e+000
         vertex 5.047718e+000 1.548051e+001 3.727603e+000
      endloop
   endfacet
endsolid