solid Torsion Device_9122016 - Bottom mechanism-2 bracket-1
   facet normal 1.262694e-016 -9.126909e-034 1.000000e+000
      outer loop
         vertex 1.747717e+000 9.774183e+000 4.968760e+000
         vertex 1.747717e+000 7.024183e+000 4.968760e+000
         vertex 2.247717e+000 9.774183e+000 4.968760e+000
      endloop
   endfacet
   facet normal 1.262694e-016 -9.126909e-034 1.000000e+000
      outer loop
         vertex 2.247717e+000 9.774183e+000 4.968760e+000
         vertex 1.747717e+000 7.024183e+000 4.968760e+000
         vertex 2.247717e+000 7.024183e+000 4.968760e+000
      endloop
   endfacet
   facet normal -3.517730e-017 1.000000e+000 -3.929817e-032
      outer loop
         vertex 2.247717e+000 1.002418e+001 4.718760e+000
         vertex 2.247717e+000 1.002418e+001 3.541660e+000
         vertex 1.747717e+000 1.002418e+001 4.718760e+000
      endloop
   endfacet
   facet normal -3.517730e-017 1.000000e+000 -3.929817e-032
      outer loop
         vertex 1.747717e+000 1.002418e+001 4.718760e+000
         vertex 2.247717e+000 1.002418e+001 3.541660e+000
         vertex 1.747717e+000 1.002418e+001 3.541660e+000
      endloop
   endfacet
   facet normal -1.262694e-016 9.126909e-034 -1.000000e+000
      outer loop
         vertex 2.247717e+000 9.774183e+000 3.291660e+000
         vertex 2.247717e+000 7.024183e+000 3.291660e+000
         vertex 1.747717e+000 9.774183e+000 3.291660e+000
      endloop
   endfacet
   facet normal -1.262694e-016 9.126909e-034 -1.000000e+000
      outer loop
         vertex 1.747717e+000 9.774183e+000 3.291660e+000
         vertex 2.247717e+000 7.024183e+000 3.291660e+000
         vertex 1.747717e+000 7.024183e+000 3.291660e+000
      endloop
   endfacet
   facet normal 3.517730e-017 -1.000000e+000 3.929817e-032
      outer loop
         vertex 1.747717e+000 7.024183e+000 4.968760e+000
         vertex 1.747717e+000 7.024183e+000 3.291660e+000
         vertex 2.247717e+000 7.024183e+000 4.968760e+000
      endloop
   endfacet
   facet normal 3.517730e-017 -1.000000e+000 3.929817e-032
      outer loop
         vertex 2.247717e+000 7.024183e+000 4.968760e+000
         vertex 1.747717e+000 7.024183e+000 3.291660e+000
         vertex 2.247717e+000 7.024183e+000 3.291660e+000
      endloop
   endfacet
   facet normal -1.000000e+000 -3.517730e-017 1.262694e-016
      outer loop
         vertex 1.747717e+000 8.913747e+000 4.035923e+000
         vertex 1.747717e+000 8.931632e+000 3.991548e+000
         vertex 1.747717e+000 7.024183e+000 3.291660e+000
      endloop
   endfacet
   facet normal -1.000000e+000 -3.517730e-017 1.262694e-016
      outer loop
         vertex 1.747717e+000 9.844617e+000 4.958633e+000
         vertex 1.747717e+000 9.878037e+000 4.946168e+000
         vertex 1.747717e+000 9.419598e+000 4.363508e+000
      endloop
   endfacet
   facet normal -1.000000e+000 -3.517730e-017 1.262694e-016
      outer loop
         vertex 1.747717e+000 9.199714e+000 3.817939e+000
         vertex 1.747717e+000 9.247521e+000 3.819772e+000
         vertex 1.747717e+000 9.774183e+000 3.291660e+000
      endloop
   endfacet
   facet normal -1.000000e+000 -3.517730e-017 1.262694e-016
      outer loop
         vertex 1.747717e+000 9.774183e+000 3.291660e+000
         vertex 1.747717e+000 9.247521e+000 3.819772e+000
         vertex 1.747717e+000 9.294490e+000 3.828881e+000
      endloop
   endfacet
   facet normal -1.000000e+000 -3.517730e-017 1.262694e-016
      outer loop
         vertex 1.747717e+000 9.501528e+000 4.013392e+000
         vertex 1.747717e+000 9.515964e+000 4.059006e+000
         vertex 1.747717e+000 1.002418e+001 3.541660e+000
      endloop
   endfacet
   facet normal -1.000000e+000 -3.517730e-017 1.262694e-016
      outer loop
         vertex 1.747717e+000 1.002418e+001 3.541660e+000
         vertex 1.747717e+000 9.515964e+000 4.059006e+000
         vertex 1.747717e+000 9.523267e+000 4.106288e+000
      endloop
   endfacet
   facet normal -1.000000e+000 -3.517730e-017 1.262694e-016
      outer loop
         vertex 1.747717e+000 1.002418e+001 3.541660e+000
         vertex 1.747717e+000 9.523267e+000 4.106288e+000
         vertex 1.747717e+000 1.002418e+001 4.718760e+000
      endloop
   endfacet
   facet normal -1.000000e+000 -3.517730e-017 1.262694e-016
      outer loop
         vertex 1.747717e+000 1.002418e+001 4.718760e+000
         vertex 1.747717e+000 9.523267e+000 4.106288e+000
         vertex 1.747717e+000 9.523267e+000 4.154132e+000
      endloop
   endfacet
   facet normal -1.000000e+000 -3.517730e-017 1.262694e-016
      outer loop
         vertex 1.747717e+000 1.002418e+001 4.718760e+000
         vertex 1.747717e+000 9.523267e+000 4.154132e+000
         vertex 1.747717e+000 9.515964e+000 4.201414e+000
      endloop
   endfacet
   facet normal -1.000000e+000 -3.517730e-017 1.262694e-016
      outer loop
         vertex 1.747717e+000 9.515964e+000 4.201414e+000
         vertex 1.747717e+000 9.501528e+000 4.247028e+000
         vertex 1.747717e+000 1.002418e+001 4.718760e+000
      endloop
   endfacet
   facet normal -1.000000e+000 -3.517730e-017 1.262694e-016
      outer loop
         vertex 1.747717e+000 1.002418e+001 4.718760e+000
         vertex 1.747717e+000 9.501528e+000 4.247028e+000
         vertex 1.747717e+000 9.480299e+000 4.289903e+000
      endloop
   endfacet
   facet normal -1.000000e+000 -3.517730e-017 1.262694e-016
      outer loop
         vertex 1.747717e+000 1.002418e+001 4.718760e+000
         vertex 1.747717e+000 9.480299e+000 4.289903e+000
         vertex 1.747717e+000 1.002164e+001 4.754339e+000
      endloop
   endfacet
   facet normal -1.000000e+000 -3.517730e-017 1.262694e-016
      outer loop
         vertex 1.747717e+000 1.002164e+001 4.754339e+000
         vertex 1.747717e+000 9.480299e+000 4.289903e+000
         vertex 1.747717e+000 9.452773e+000 4.329036e+000
      endloop
   endfacet
   facet normal -1.000000e+000 -3.517730e-017 1.262694e-016
      outer loop
         vertex 1.747717e+000 9.381548e+000 4.392511e+000
         vertex 1.747717e+000 9.339518e+000 4.415368e+000
         vertex 1.747717e+000 9.774183e+000 4.968760e+000
      endloop
   endfacet
   facet normal -1.000000e+000 -3.517730e-017 1.262694e-016
      outer loop
         vertex 1.747717e+000 9.774183e+000 4.968760e+000
         vertex 1.747717e+000 9.339518e+000 4.415368e+000
         vertex 1.747717e+000 9.294490e+000 4.431539e+000
      endloop
   endfacet
   facet normal -1.000000e+000 -3.517730e-017 1.262694e-016
      outer loop
         vertex 1.747717e+000 9.774183e+000 4.968760e+000
         vertex 1.747717e+000 9.294490e+000 4.431539e+000
         vertex 1.747717e+000 9.247521e+000 4.440648e+000
      endloop
   endfacet
   facet normal -1.000000e+000 -3.517730e-017 1.262694e-016
      outer loop
         vertex 1.747717e+000 9.247521e+000 4.440648e+000
         vertex 1.747717e+000 9.199714e+000 4.442481e+000
         vertex 1.747717e+000 9.774183e+000 4.968760e+000
      endloop
   endfacet
   facet normal -1.000000e+000 -3.517730e-017 1.262694e-016
      outer loop
         vertex 1.747717e+000 9.774183e+000 4.968760e+000
         vertex 1.747717e+000 9.199714e+000 4.442481e+000
         vertex 1.747717e+000 9.152185e+000 4.436994e+000
      endloop
   endfacet
   facet normal -1.000000e+000 -3.517730e-017 1.262694e-016
      outer loop
         vertex 1.747717e+000 9.774183e+000 4.968760e+000
         vertex 1.747717e+000 9.152185e+000 4.436994e+000
         vertex 1.747717e+000 7.024183e+000 4.968760e+000
      endloop
   endfacet
   facet normal -1.000000e+000 -3.517730e-017 1.262694e-016
      outer loop
         vertex 1.747717e+000 7.024183e+000 4.968760e+000
         vertex 1.747717e+000 9.152185e+000 4.436994e+000
         vertex 1.747717e+000 9.106053e+000 4.424316e+000
      endloop
   endfacet
   facet normal -1.000000e+000 -3.517730e-017 1.262694e-016
      outer loop
         vertex 1.747717e+000 7.024183e+000 4.968760e+000
         vertex 1.747717e+000 9.106053e+000 4.424316e+000
         vertex 1.747717e+000 9.062396e+000 4.404745e+000
      endloop
   endfacet
   facet normal -1.000000e+000 -3.517730e-017 1.262694e-016
      outer loop
         vertex 1.747717e+000 8.913747e+000 4.224498e+000
         vertex 1.747717e+000 7.024183e+000 4.968760e+000
         vertex 1.747717e+000 8.931632e+000 4.268872e+000
      endloop
   endfacet
   facet normal -1.000000e+000 -3.517730e-017 1.262694e-016
      outer loop
         vertex 1.747717e+000 8.931632e+000 4.268872e+000
         vertex 1.747717e+000 7.024183e+000 4.968760e+000
         vertex 1.747717e+000 8.956080e+000 4.309997e+000
      endloop
   endfacet
   facet normal -1.000000e+000 -3.517730e-017 1.262694e-016
      outer loop
         vertex 1.747717e+000 8.913747e+000 4.224498e+000
         vertex 1.747717e+000 8.902845e+000 4.177913e+000
         vertex 1.747717e+000 7.024183e+000 4.968760e+000
      endloop
   endfacet
   facet normal -1.000000e+000 -3.517730e-017 1.262694e-016
      outer loop
         vertex 1.747717e+000 7.024183e+000 4.968760e+000
         vertex 1.747717e+000 8.902845e+000 4.177913e+000
         vertex 1.747717e+000 8.899183e+000 4.130210e+000
      endloop
   endfacet
   facet normal -1.000000e+000 -3.517730e-017 1.262694e-016
      outer loop
         vertex 1.747717e+000 7.024183e+000 4.968760e+000
         vertex 1.747717e+000 8.899183e+000 4.130210e+000
         vertex 1.747717e+000 7.024183e+000 3.291660e+000
      endloop
   endfacet
   facet normal -1.000000e+000 -3.517730e-017 1.262694e-016
      outer loop
         vertex 1.747717e+000 7.024183e+000 3.291660e+000
         vertex 1.747717e+000 8.899183e+000 4.130210e+000
         vertex 1.747717e+000 8.902845e+000 4.082507e+000
      endloop
   endfacet
   facet normal -1.000000e+000 -3.517730e-017 1.262694e-016
      outer loop
         vertex 1.747717e+000 7.024183e+000 3.291660e+000
         vertex 1.747717e+000 8.902845e+000 4.082507e+000
         vertex 1.747717e+000 8.913747e+000 4.035923e+000
      endloop
   endfacet
   facet normal -1.000000e+000 -3.517730e-017 1.262694e-016
      outer loop
         vertex 1.747717e+000 8.931632e+000 3.991548e+000
         vertex 1.747717e+000 8.956080e+000 3.950423e+000
         vertex 1.747717e+000 7.024183e+000 3.291660e+000
      endloop
   endfacet
   facet normal -1.000000e+000 -3.517730e-017 1.262694e-016
      outer loop
         vertex 1.747717e+000 7.024183e+000 3.291660e+000
         vertex 1.747717e+000 8.956080e+000 3.950423e+000
         vertex 1.747717e+000 8.986520e+000 3.913512e+000
      endloop
   endfacet
   facet normal -1.000000e+000 -3.517730e-017 1.262694e-016
      outer loop
         vertex 1.747717e+000 7.024183e+000 3.291660e+000
         vertex 1.747717e+000 8.986520e+000 3.913512e+000
         vertex 1.747717e+000 9.022238e+000 3.881681e+000
      endloop
   endfacet
   facet normal -1.000000e+000 -3.517730e-017 1.262694e-016
      outer loop
         vertex 1.747717e+000 9.022238e+000 3.881681e+000
         vertex 1.747717e+000 9.062396e+000 3.855675e+000
         vertex 1.747717e+000 7.024183e+000 3.291660e+000
      endloop
   endfacet
   facet normal -1.000000e+000 -3.517730e-017 1.262694e-016
      outer loop
         vertex 1.747717e+000 7.024183e+000 3.291660e+000
         vertex 1.747717e+000 9.062396e+000 3.855675e+000
         vertex 1.747717e+000 9.106053e+000 3.836104e+000
      endloop
   endfacet
   facet normal -1.000000e+000 -3.517730e-017 1.262694e-016
      outer loop
         vertex 1.747717e+000 7.024183e+000 3.291660e+000
         vertex 1.747717e+000 9.106053e+000 3.836104e+000
         vertex 1.747717e+000 9.774183e+000 3.291660e+000
      endloop
   endfacet
   facet normal -1.000000e+000 -3.517730e-017 1.262694e-016
      outer loop
         vertex 1.747717e+000 9.774183e+000 3.291660e+000
         vertex 1.747717e+000 9.106053e+000 3.836104e+000
         vertex 1.747717e+000 9.152185e+000 3.823426e+000
      endloop
   endfacet
   facet normal -1.000000e+000 -3.517730e-017 1.262694e-016
      outer loop
         vertex 1.747717e+000 9.774183e+000 3.291660e+000
         vertex 1.747717e+000 9.152185e+000 3.823426e+000
         vertex 1.747717e+000 9.199714e+000 3.817939e+000
      endloop
   endfacet
   facet normal -1.000000e+000 -3.517730e-017 1.262694e-016
      outer loop
         vertex 1.747717e+000 1.002164e+001 3.506081e+000
         vertex 1.747717e+000 9.452773e+000 3.931384e+000
         vertex 1.747717e+000 1.002418e+001 3.541660e+000
      endloop
   endfacet
   facet normal -1.000000e+000 -3.517730e-017 1.262694e-016
      outer loop
         vertex 1.747717e+000 1.002418e+001 3.541660e+000
         vertex 1.747717e+000 9.452773e+000 3.931384e+000
         vertex 1.747717e+000 9.480299e+000 3.970516e+000
      endloop
   endfacet
   facet normal -1.000000e+000 -3.517730e-017 1.262694e-016
      outer loop
         vertex 1.747717e+000 1.002418e+001 3.541660e+000
         vertex 1.747717e+000 9.480299e+000 3.970516e+000
         vertex 1.747717e+000 9.501528e+000 4.013392e+000
      endloop
   endfacet
   facet normal -1.000000e+000 -3.517730e-017 1.262694e-016
      outer loop
         vertex 1.747717e+000 9.878037e+000 4.946168e+000
         vertex 1.747717e+000 9.909344e+000 4.929074e+000
         vertex 1.747717e+000 9.419598e+000 4.363508e+000
      endloop
   endfacet
   facet normal -1.000000e+000 -3.517730e-017 1.262694e-016
      outer loop
         vertex 1.747717e+000 9.419598e+000 4.363508e+000
         vertex 1.747717e+000 9.909344e+000 4.929074e+000
         vertex 1.747717e+000 9.937899e+000 4.907698e+000
      endloop
   endfacet
   facet normal -1.000000e+000 -3.517730e-017 1.262694e-016
      outer loop
         vertex 1.747717e+000 9.419598e+000 4.363508e+000
         vertex 1.747717e+000 9.937899e+000 4.907698e+000
         vertex 1.747717e+000 9.963120e+000 4.882475e+000
      endloop
   endfacet
   facet normal -1.000000e+000 -3.517730e-017 1.262694e-016
      outer loop
         vertex 1.747717e+000 9.963120e+000 4.882475e+000
         vertex 1.747717e+000 9.984496e+000 4.853920e+000
         vertex 1.747717e+000 9.419598e+000 4.363508e+000
      endloop
   endfacet
   facet normal -1.000000e+000 -3.517730e-017 1.262694e-016
      outer loop
         vertex 1.747717e+000 9.419598e+000 4.363508e+000
         vertex 1.747717e+000 9.984496e+000 4.853920e+000
         vertex 1.747717e+000 1.000159e+001 4.822614e+000
      endloop
   endfacet
   facet normal -1.000000e+000 -3.517730e-017 1.262694e-016
      outer loop
         vertex 1.747717e+000 9.419598e+000 4.363508e+000
         vertex 1.747717e+000 1.000159e+001 4.822614e+000
         vertex 1.747717e+000 9.452773e+000 4.329036e+000
      endloop
   endfacet
   facet normal -1.000000e+000 -3.517730e-017 1.262694e-016
      outer loop
         vertex 1.747717e+000 9.452773e+000 4.329036e+000
         vertex 1.747717e+000 1.000159e+001 4.822614e+000
         vertex 1.747717e+000 1.001406e+001 4.789193e+000
      endloop
   endfacet
   facet normal -1.000000e+000 -3.517730e-017 1.262694e-016
      outer loop
         vertex 1.747717e+000 9.452773e+000 4.329036e+000
         vertex 1.747717e+000 1.001406e+001 4.789193e+000
         vertex 1.747717e+000 1.002164e+001 4.754339e+000
      endloop
   endfacet
   facet normal -1.000000e+000 -3.517730e-017 1.262694e-016
      outer loop
         vertex 1.747717e+000 9.062396e+000 4.404745e+000
         vertex 1.747717e+000 9.022238e+000 4.378739e+000
         vertex 1.747717e+000 7.024183e+000 4.968760e+000
      endloop
   endfacet
   facet normal -1.000000e+000 -3.517730e-017 1.262694e-016
      outer loop
         vertex 1.747717e+000 7.024183e+000 4.968760e+000
         vertex 1.747717e+000 9.022238e+000 4.378739e+000
         vertex 1.747717e+000 8.986520e+000 4.346908e+000
      endloop
   endfacet
   facet normal -1.000000e+000 -3.517730e-017 1.262694e-016
      outer loop
         vertex 1.747717e+000 7.024183e+000 4.968760e+000
         vertex 1.747717e+000 8.986520e+000 4.346908e+000
         vertex 1.747717e+000 8.956080e+000 4.309997e+000
      endloop
   endfacet
   facet normal -1.000000e+000 -3.517730e-017 1.262694e-016
      outer loop
         vertex 1.747717e+000 1.002164e+001 3.506081e+000
         vertex 1.747717e+000 1.001406e+001 3.471227e+000
         vertex 1.747717e+000 9.452773e+000 3.931384e+000
      endloop
   endfacet
   facet normal -1.000000e+000 -3.517730e-017 1.262694e-016
      outer loop
         vertex 1.747717e+000 9.452773e+000 3.931384e+000
         vertex 1.747717e+000 1.001406e+001 3.471227e+000
         vertex 1.747717e+000 1.000159e+001 3.437806e+000
      endloop
   endfacet
   facet normal -1.000000e+000 -3.517730e-017 1.262694e-016
      outer loop
         vertex 1.747717e+000 9.452773e+000 3.931384e+000
         vertex 1.747717e+000 1.000159e+001 3.437806e+000
         vertex 1.747717e+000 9.419598e+000 3.896912e+000
      endloop
   endfacet
   facet normal -1.000000e+000 -3.517730e-017 1.262694e-016
      outer loop
         vertex 1.747717e+000 9.419598e+000 3.896912e+000
         vertex 1.747717e+000 1.000159e+001 3.437806e+000
         vertex 1.747717e+000 9.984496e+000 3.406500e+000
      endloop
   endfacet
   facet normal -1.000000e+000 -3.517730e-017 1.262694e-016
      outer loop
         vertex 1.747717e+000 9.419598e+000 3.896912e+000
         vertex 1.747717e+000 9.984496e+000 3.406500e+000
         vertex 1.747717e+000 9.963120e+000 3.377945e+000
      endloop
   endfacet
   facet normal -1.000000e+000 -3.517730e-017 1.262694e-016
      outer loop
         vertex 1.747717e+000 9.381548e+000 4.392511e+000
         vertex 1.747717e+000 9.774183e+000 4.968760e+000
         vertex 1.747717e+000 9.419598e+000 4.363508e+000
      endloop
   endfacet
   facet normal -1.000000e+000 -3.517730e-017 1.262694e-016
      outer loop
         vertex 1.747717e+000 9.419598e+000 4.363508e+000
         vertex 1.747717e+000 9.774183e+000 4.968760e+000
         vertex 1.747717e+000 9.809762e+000 4.966216e+000
      endloop
   endfacet
   facet normal -1.000000e+000 -3.517730e-017 1.262694e-016
      outer loop
         vertex 1.747717e+000 9.419598e+000 4.363508e+000
         vertex 1.747717e+000 9.809762e+000 4.966216e+000
         vertex 1.747717e+000 9.844617e+000 4.958633e+000
      endloop
   endfacet
   facet normal -1.000000e+000 -3.517730e-017 1.262694e-016
      outer loop
         vertex 1.747717e+000 9.963120e+000 3.377945e+000
         vertex 1.747717e+000 9.937899e+000 3.352723e+000
         vertex 1.747717e+000 9.419598e+000 3.896912e+000
      endloop
   endfacet
   facet normal -1.000000e+000 -3.517730e-017 1.262694e-016
      outer loop
         vertex 1.747717e+000 9.419598e+000 3.896912e+000
         vertex 1.747717e+000 9.937899e+000 3.352723e+000
         vertex 1.747717e+000 9.909344e+000 3.331347e+000
      endloop
   endfacet
   facet normal -1.000000e+000 -3.517730e-017 1.262694e-016
      outer loop
         vertex 1.747717e+000 9.419598e+000 3.896912e+000
         vertex 1.747717e+000 9.909344e+000 3.331347e+000
         vertex 1.747717e+000 9.878037e+000 3.314252e+000
      endloop
   endfacet
   facet normal -1.000000e+000 -3.517730e-017 1.262694e-016
      outer loop
         vertex 1.747717e+000 9.294490e+000 3.828881e+000
         vertex 1.747717e+000 9.339518e+000 3.845052e+000
         vertex 1.747717e+000 9.774183e+000 3.291660e+000
      endloop
   endfacet
   facet normal -1.000000e+000 -3.517730e-017 1.262694e-016
      outer loop
         vertex 1.747717e+000 9.774183e+000 3.291660e+000
         vertex 1.747717e+000 9.339518e+000 3.845052e+000
         vertex 1.747717e+000 9.381548e+000 3.867908e+000
      endloop
   endfacet
   facet normal -1.000000e+000 -3.517730e-017 1.262694e-016
      outer loop
         vertex 1.747717e+000 9.774183e+000 3.291660e+000
         vertex 1.747717e+000 9.381548e+000 3.867908e+000
         vertex 1.747717e+000 9.809762e+000 3.294205e+000
      endloop
   endfacet
   facet normal -1.000000e+000 -3.517730e-017 1.262694e-016
      outer loop
         vertex 1.747717e+000 9.809762e+000 3.294205e+000
         vertex 1.747717e+000 9.381548e+000 3.867908e+000
         vertex 1.747717e+000 9.419598e+000 3.896912e+000
      endloop
   endfacet
   facet normal -1.000000e+000 -3.517730e-017 1.262694e-016
      outer loop
         vertex 1.747717e+000 9.809762e+000 3.294205e+000
         vertex 1.747717e+000 9.419598e+000 3.896912e+000
         vertex 1.747717e+000 9.844617e+000 3.301787e+000
      endloop
   endfacet
   facet normal -1.000000e+000 -3.517730e-017 1.262694e-016
      outer loop
         vertex 1.747717e+000 9.844617e+000 3.301787e+000
         vertex 1.747717e+000 9.419598e+000 3.896912e+000
         vertex 1.747717e+000 9.878037e+000 3.314252e+000
      endloop
   endfacet
   facet normal 1.000000e+000 3.517730e-017 -1.262694e-016
      outer loop
         vertex 2.247717e+000 9.480299e+000 4.289903e+000
         vertex 2.247717e+000 9.501528e+000 4.247028e+000
         vertex 2.247717e+000 1.002418e+001 4.718760e+000
      endloop
   endfacet
   facet normal 1.000000e+000 3.517730e-017 -1.262694e-016
      outer loop
         vertex 2.247717e+000 1.002418e+001 4.718760e+000
         vertex 2.247717e+000 9.501528e+000 4.247028e+000
         vertex 2.247717e+000 9.515964e+000 4.201414e+000
      endloop
   endfacet
   facet normal 1.000000e+000 3.517730e-017 -1.262694e-016
      outer loop
         vertex 2.247717e+000 9.515964e+000 4.201414e+000
         vertex 2.247717e+000 9.523267e+000 4.154132e+000
         vertex 2.247717e+000 1.002418e+001 4.718760e+000
      endloop
   endfacet
   facet normal 1.000000e+000 3.517730e-017 -1.262694e-016
      outer loop
         vertex 2.247717e+000 1.002418e+001 4.718760e+000
         vertex 2.247717e+000 9.523267e+000 4.154132e+000
         vertex 2.247717e+000 9.524183e+000 4.130210e+000
      endloop
   endfacet
   facet normal 1.000000e+000 3.517730e-017 -1.262694e-016
      outer loop
         vertex 2.247717e+000 1.002418e+001 4.718760e+000
         vertex 2.247717e+000 9.524183e+000 4.130210e+000
         vertex 2.247717e+000 1.002418e+001 3.541660e+000
      endloop
   endfacet
   facet normal 1.000000e+000 3.517730e-017 -1.262694e-016
      outer loop
         vertex 2.247717e+000 1.002418e+001 3.541660e+000
         vertex 2.247717e+000 9.524183e+000 4.130210e+000
         vertex 2.247717e+000 9.523267e+000 4.106288e+000
      endloop
   endfacet
   facet normal 1.000000e+000 3.517730e-017 -1.262694e-016
      outer loop
         vertex 2.247717e+000 1.002418e+001 3.541660e+000
         vertex 2.247717e+000 9.523267e+000 4.106288e+000
         vertex 2.247717e+000 9.515964e+000 4.059006e+000
      endloop
   endfacet
   facet normal 1.000000e+000 3.517730e-017 -1.262694e-016
      outer loop
         vertex 2.247717e+000 9.381548e+000 3.867908e+000
         vertex 2.247717e+000 9.339518e+000 3.845052e+000
         vertex 2.247717e+000 9.774183e+000 3.291660e+000
      endloop
   endfacet
   facet normal 1.000000e+000 3.517730e-017 -1.262694e-016
      outer loop
         vertex 2.247717e+000 9.774183e+000 3.291660e+000
         vertex 2.247717e+000 9.339518e+000 3.845052e+000
         vertex 2.247717e+000 9.294490e+000 3.828881e+000
      endloop
   endfacet
   facet normal 1.000000e+000 3.517730e-017 -1.262694e-016
      outer loop
         vertex 2.247717e+000 9.774183e+000 3.291660e+000
         vertex 2.247717e+000 9.294490e+000 3.828881e+000
         vertex 2.247717e+000 9.247521e+000 3.819772e+000
      endloop
   endfacet
   facet normal 1.000000e+000 3.517730e-017 -1.262694e-016
      outer loop
         vertex 2.247717e+000 9.515964e+000 4.059006e+000
         vertex 2.247717e+000 9.501528e+000 4.013392e+000
         vertex 2.247717e+000 1.002418e+001 3.541660e+000
      endloop
   endfacet
   facet normal 1.000000e+000 3.517730e-017 -1.262694e-016
      outer loop
         vertex 2.247717e+000 1.002418e+001 3.541660e+000
         vertex 2.247717e+000 9.501528e+000 4.013392e+000
         vertex 2.247717e+000 9.480299e+000 3.970516e+000
      endloop
   endfacet
   facet normal 1.000000e+000 3.517730e-017 -1.262694e-016
      outer loop
         vertex 2.247717e+000 1.002418e+001 3.541660e+000
         vertex 2.247717e+000 9.480299e+000 3.970516e+000
         vertex 2.247717e+000 1.002164e+001 3.506081e+000
      endloop
   endfacet
   facet normal 1.000000e+000 3.517730e-017 -1.262694e-016
      outer loop
         vertex 2.247717e+000 1.002164e+001 3.506081e+000
         vertex 2.247717e+000 9.480299e+000 3.970516e+000
         vertex 2.247717e+000 9.452773e+000 3.931384e+000
      endloop
   endfacet
   facet normal 1.000000e+000 3.517730e-017 -1.262694e-016
      outer loop
         vertex 2.247717e+000 9.844617e+000 3.301787e+000
         vertex 2.247717e+000 9.878037e+000 3.314252e+000
         vertex 2.247717e+000 9.419598e+000 3.896912e+000
      endloop
   endfacet
   facet normal 1.000000e+000 3.517730e-017 -1.262694e-016
      outer loop
         vertex 2.247717e+000 9.106053e+000 3.836104e+000
         vertex 2.247717e+000 7.024183e+000 3.291660e+000
         vertex 2.247717e+000 9.152185e+000 3.823426e+000
      endloop
   endfacet
   facet normal 1.000000e+000 3.517730e-017 -1.262694e-016
      outer loop
         vertex 2.247717e+000 9.152185e+000 3.823426e+000
         vertex 2.247717e+000 7.024183e+000 3.291660e+000
         vertex 2.247717e+000 9.774183e+000 3.291660e+000
      endloop
   endfacet
   facet normal 1.000000e+000 3.517730e-017 -1.262694e-016
      outer loop
         vertex 2.247717e+000 9.152185e+000 3.823426e+000
         vertex 2.247717e+000 9.774183e+000 3.291660e+000
         vertex 2.247717e+000 9.199714e+000 3.817939e+000
      endloop
   endfacet
   facet normal 1.000000e+000 3.517730e-017 -1.262694e-016
      outer loop
         vertex 2.247717e+000 9.199714e+000 3.817939e+000
         vertex 2.247717e+000 9.774183e+000 3.291660e+000
         vertex 2.247717e+000 9.247521e+000 3.819772e+000
      endloop
   endfacet
   facet normal 1.000000e+000 3.517730e-017 -1.262694e-016
      outer loop
         vertex 2.247717e+000 7.024183e+000 4.968760e+000
         vertex 2.247717e+000 9.106053e+000 4.424316e+000
         vertex 2.247717e+000 9.774183e+000 4.968760e+000
      endloop
   endfacet
   facet normal 1.000000e+000 3.517730e-017 -1.262694e-016
      outer loop
         vertex 2.247717e+000 9.774183e+000 4.968760e+000
         vertex 2.247717e+000 9.106053e+000 4.424316e+000
         vertex 2.247717e+000 9.152185e+000 4.436994e+000
      endloop
   endfacet
   facet normal 1.000000e+000 3.517730e-017 -1.262694e-016
      outer loop
         vertex 2.247717e+000 9.152185e+000 4.436994e+000
         vertex 2.247717e+000 9.199714e+000 4.442481e+000
         vertex 2.247717e+000 9.774183e+000 4.968760e+000
      endloop
   endfacet
   facet normal 1.000000e+000 3.517730e-017 -1.262694e-016
      outer loop
         vertex 2.247717e+000 9.774183e+000 4.968760e+000
         vertex 2.247717e+000 9.199714e+000 4.442481e+000
         vertex 2.247717e+000 9.247521e+000 4.440648e+000
      endloop
   endfacet
   facet normal 1.000000e+000 3.517730e-017 -1.262694e-016
      outer loop
         vertex 2.247717e+000 9.774183e+000 4.968760e+000
         vertex 2.247717e+000 9.247521e+000 4.440648e+000
         vertex 2.247717e+000 9.294490e+000 4.431539e+000
      endloop
   endfacet
   facet normal 1.000000e+000 3.517730e-017 -1.262694e-016
      outer loop
         vertex 2.247717e+000 9.878037e+000 3.314252e+000
         vertex 2.247717e+000 9.909344e+000 3.331347e+000
         vertex 2.247717e+000 9.419598e+000 3.896912e+000
      endloop
   endfacet
   facet normal 1.000000e+000 3.517730e-017 -1.262694e-016
      outer loop
         vertex 2.247717e+000 9.419598e+000 3.896912e+000
         vertex 2.247717e+000 9.909344e+000 3.331347e+000
         vertex 2.247717e+000 9.937899e+000 3.352723e+000
      endloop
   endfacet
   facet normal 1.000000e+000 3.517730e-017 -1.262694e-016
      outer loop
         vertex 2.247717e+000 9.419598e+000 3.896912e+000
         vertex 2.247717e+000 9.937899e+000 3.352723e+000
         vertex 2.247717e+000 9.963120e+000 3.377945e+000
      endloop
   endfacet
   facet normal 1.000000e+000 3.517730e-017 -1.262694e-016
      outer loop
         vertex 2.247717e+000 9.963120e+000 3.377945e+000
         vertex 2.247717e+000 9.984496e+000 3.406500e+000
         vertex 2.247717e+000 9.419598e+000 3.896912e+000
      endloop
   endfacet
   facet normal 1.000000e+000 3.517730e-017 -1.262694e-016
      outer loop
         vertex 2.247717e+000 9.419598e+000 3.896912e+000
         vertex 2.247717e+000 9.984496e+000 3.406500e+000
         vertex 2.247717e+000 1.000159e+001 3.437806e+000
      endloop
   endfacet
   facet normal 1.000000e+000 3.517730e-017 -1.262694e-016
      outer loop
         vertex 2.247717e+000 9.419598e+000 3.896912e+000
         vertex 2.247717e+000 1.000159e+001 3.437806e+000
         vertex 2.247717e+000 9.452773e+000 3.931384e+000
      endloop
   endfacet
   facet normal 1.000000e+000 3.517730e-017 -1.262694e-016
      outer loop
         vertex 2.247717e+000 9.452773e+000 3.931384e+000
         vertex 2.247717e+000 1.000159e+001 3.437806e+000
         vertex 2.247717e+000 1.001406e+001 3.471227e+000
      endloop
   endfacet
   facet normal 1.000000e+000 3.517730e-017 -1.262694e-016
      outer loop
         vertex 2.247717e+000 9.452773e+000 3.931384e+000
         vertex 2.247717e+000 1.001406e+001 3.471227e+000
         vertex 2.247717e+000 1.002164e+001 3.506081e+000
      endloop
   endfacet
   facet normal 1.000000e+000 3.517730e-017 -1.262694e-016
      outer loop
         vertex 2.247717e+000 9.106053e+000 3.836104e+000
         vertex 2.247717e+000 9.062396e+000 3.855675e+000
         vertex 2.247717e+000 7.024183e+000 3.291660e+000
      endloop
   endfacet
   facet normal 1.000000e+000 3.517730e-017 -1.262694e-016
      outer loop
         vertex 2.247717e+000 7.024183e+000 3.291660e+000
         vertex 2.247717e+000 9.062396e+000 3.855675e+000
         vertex 2.247717e+000 9.022238e+000 3.881681e+000
      endloop
   endfacet
   facet normal 1.000000e+000 3.517730e-017 -1.262694e-016
      outer loop
         vertex 2.247717e+000 7.024183e+000 3.291660e+000
         vertex 2.247717e+000 9.022238e+000 3.881681e+000
         vertex 2.247717e+000 8.986520e+000 3.913512e+000
      endloop
   endfacet
   facet normal 1.000000e+000 3.517730e-017 -1.262694e-016
      outer loop
         vertex 2.247717e+000 9.452773e+000 4.329036e+000
         vertex 2.247717e+000 1.001406e+001 4.789193e+000
         vertex 2.247717e+000 1.000159e+001 4.822614e+000
      endloop
   endfacet
   facet normal 1.000000e+000 3.517730e-017 -1.262694e-016
      outer loop
         vertex 2.247717e+000 9.452773e+000 4.329036e+000
         vertex 2.247717e+000 1.000159e+001 4.822614e+000
         vertex 2.247717e+000 9.419598e+000 4.363508e+000
      endloop
   endfacet
   facet normal 1.000000e+000 3.517730e-017 -1.262694e-016
      outer loop
         vertex 2.247717e+000 9.419598e+000 4.363508e+000
         vertex 2.247717e+000 1.000159e+001 4.822614e+000
         vertex 2.247717e+000 9.984496e+000 4.853920e+000
      endloop
   endfacet
   facet normal 1.000000e+000 3.517730e-017 -1.262694e-016
      outer loop
         vertex 2.247717e+000 9.419598e+000 4.363508e+000
         vertex 2.247717e+000 9.984496e+000 4.853920e+000
         vertex 2.247717e+000 9.963120e+000 4.882475e+000
      endloop
   endfacet
   facet normal 1.000000e+000 3.517730e-017 -1.262694e-016
      outer loop
         vertex 2.247717e+000 9.480299e+000 4.289903e+000
         vertex 2.247717e+000 1.002418e+001 4.718760e+000
         vertex 2.247717e+000 9.452773e+000 4.329036e+000
      endloop
   endfacet
   facet normal 1.000000e+000 3.517730e-017 -1.262694e-016
      outer loop
         vertex 2.247717e+000 9.452773e+000 4.329036e+000
         vertex 2.247717e+000 1.002418e+001 4.718760e+000
         vertex 2.247717e+000 1.002164e+001 4.754339e+000
      endloop
   endfacet
   facet normal 1.000000e+000 3.517730e-017 -1.262694e-016
      outer loop
         vertex 2.247717e+000 9.452773e+000 4.329036e+000
         vertex 2.247717e+000 1.002164e+001 4.754339e+000
         vertex 2.247717e+000 1.001406e+001 4.789193e+000
      endloop
   endfacet
   facet normal 1.000000e+000 3.517730e-017 -1.262694e-016
      outer loop
         vertex 2.247717e+000 8.986520e+000 3.913512e+000
         vertex 2.247717e+000 8.956080e+000 3.950423e+000
         vertex 2.247717e+000 7.024183e+000 3.291660e+000
      endloop
   endfacet
   facet normal 1.000000e+000 3.517730e-017 -1.262694e-016
      outer loop
         vertex 2.247717e+000 7.024183e+000 3.291660e+000
         vertex 2.247717e+000 8.956080e+000 3.950423e+000
         vertex 2.247717e+000 8.931632e+000 3.991548e+000
      endloop
   endfacet
   facet normal 1.000000e+000 3.517730e-017 -1.262694e-016
      outer loop
         vertex 2.247717e+000 7.024183e+000 3.291660e+000
         vertex 2.247717e+000 8.931632e+000 3.991548e+000
         vertex 2.247717e+000 8.913747e+000 4.035923e+000
      endloop
   endfacet
   facet normal 1.000000e+000 3.517730e-017 -1.262694e-016
      outer loop
         vertex 2.247717e+000 8.913747e+000 4.224498e+000
         vertex 2.247717e+000 8.931632e+000 4.268872e+000
         vertex 2.247717e+000 7.024183e+000 4.968760e+000
      endloop
   endfacet
   facet normal 1.000000e+000 3.517730e-017 -1.262694e-016
      outer loop
         vertex 2.247717e+000 7.024183e+000 4.968760e+000
         vertex 2.247717e+000 8.931632e+000 4.268872e+000
         vertex 2.247717e+000 8.956080e+000 4.309997e+000
      endloop
   endfacet
   facet normal 1.000000e+000 3.517730e-017 -1.262694e-016
      outer loop
         vertex 2.247717e+000 7.024183e+000 4.968760e+000
         vertex 2.247717e+000 8.956080e+000 4.309997e+000
         vertex 2.247717e+000 8.986520e+000 4.346908e+000
      endloop
   endfacet
   facet normal 1.000000e+000 3.517730e-017 -1.262694e-016
      outer loop
         vertex 2.247717e+000 8.986520e+000 4.346908e+000
         vertex 2.247717e+000 9.022238e+000 4.378739e+000
         vertex 2.247717e+000 7.024183e+000 4.968760e+000
      endloop
   endfacet
   facet normal 1.000000e+000 3.517730e-017 -1.262694e-016
      outer loop
         vertex 2.247717e+000 7.024183e+000 4.968760e+000
         vertex 2.247717e+000 9.022238e+000 4.378739e+000
         vertex 2.247717e+000 9.062396e+000 4.404745e+000
      endloop
   endfacet
   facet normal 1.000000e+000 3.517730e-017 -1.262694e-016
      outer loop
         vertex 2.247717e+000 7.024183e+000 4.968760e+000
         vertex 2.247717e+000 9.062396e+000 4.404745e+000
         vertex 2.247717e+000 9.106053e+000 4.424316e+000
      endloop
   endfacet
   facet normal 1.000000e+000 3.517730e-017 -1.262694e-016
      outer loop
         vertex 2.247717e+000 9.963120e+000 4.882475e+000
         vertex 2.247717e+000 9.937899e+000 4.907698e+000
         vertex 2.247717e+000 9.419598e+000 4.363508e+000
      endloop
   endfacet
   facet normal 1.000000e+000 3.517730e-017 -1.262694e-016
      outer loop
         vertex 2.247717e+000 9.419598e+000 4.363508e+000
         vertex 2.247717e+000 9.937899e+000 4.907698e+000
         vertex 2.247717e+000 9.909344e+000 4.929074e+000
      endloop
   endfacet
   facet normal 1.000000e+000 3.517730e-017 -1.262694e-016
      outer loop
         vertex 2.247717e+000 9.419598e+000 4.363508e+000
         vertex 2.247717e+000 9.909344e+000 4.929074e+000
         vertex 2.247717e+000 9.878037e+000 4.946168e+000
      endloop
   endfacet
   facet normal 1.000000e+000 3.517730e-017 -1.262694e-016
      outer loop
         vertex 2.247717e+000 9.381548e+000 3.867908e+000
         vertex 2.247717e+000 9.774183e+000 3.291660e+000
         vertex 2.247717e+000 9.419598e+000 3.896912e+000
      endloop
   endfacet
   facet normal 1.000000e+000 3.517730e-017 -1.262694e-016
      outer loop
         vertex 2.247717e+000 9.419598e+000 3.896912e+000
         vertex 2.247717e+000 9.774183e+000 3.291660e+000
         vertex 2.247717e+000 9.809762e+000 3.294205e+000
      endloop
   endfacet
   facet normal 1.000000e+000 3.517730e-017 -1.262694e-016
      outer loop
         vertex 2.247717e+000 9.419598e+000 3.896912e+000
         vertex 2.247717e+000 9.809762e+000 3.294205e+000
         vertex 2.247717e+000 9.844617e+000 3.301787e+000
      endloop
   endfacet
   facet normal 1.000000e+000 3.517730e-017 -1.262694e-016
      outer loop
         vertex 2.247717e+000 8.913747e+000 4.035923e+000
         vertex 2.247717e+000 8.902845e+000 4.082507e+000
         vertex 2.247717e+000 7.024183e+000 3.291660e+000
      endloop
   endfacet
   facet normal 1.000000e+000 3.517730e-017 -1.262694e-016
      outer loop
         vertex 2.247717e+000 7.024183e+000 3.291660e+000
         vertex 2.247717e+000 8.902845e+000 4.082507e+000
         vertex 2.247717e+000 8.899183e+000 4.130210e+000
      endloop
   endfacet
   facet normal 1.000000e+000 3.517730e-017 -1.262694e-016
      outer loop
         vertex 2.247717e+000 7.024183e+000 3.291660e+000
         vertex 2.247717e+000 8.899183e+000 4.130210e+000
         vertex 2.247717e+000 7.024183e+000 4.968760e+000
      endloop
   endfacet
   facet normal 1.000000e+000 3.517730e-017 -1.262694e-016
      outer loop
         vertex 2.247717e+000 7.024183e+000 4.968760e+000
         vertex 2.247717e+000 8.899183e+000 4.130210e+000
         vertex 2.247717e+000 8.902845e+000 4.177913e+000
      endloop
   endfacet
   facet normal 1.000000e+000 3.517730e-017 -1.262694e-016
      outer loop
         vertex 2.247717e+000 7.024183e+000 4.968760e+000
         vertex 2.247717e+000 8.902845e+000 4.177913e+000
         vertex 2.247717e+000 8.913747e+000 4.224498e+000
      endloop
   endfacet
   facet normal 1.000000e+000 3.517730e-017 -1.262694e-016
      outer loop
         vertex 2.247717e+000 9.294490e+000 4.431539e+000
         vertex 2.247717e+000 9.339518e+000 4.415368e+000
         vertex 2.247717e+000 9.774183e+000 4.968760e+000
      endloop
   endfacet
   facet normal 1.000000e+000 3.517730e-017 -1.262694e-016
      outer loop
         vertex 2.247717e+000 9.774183e+000 4.968760e+000
         vertex 2.247717e+000 9.339518e+000 4.415368e+000
         vertex 2.247717e+000 9.381548e+000 4.392511e+000
      endloop
   endfacet
   facet normal 1.000000e+000 3.517730e-017 -1.262694e-016
      outer loop
         vertex 2.247717e+000 9.774183e+000 4.968760e+000
         vertex 2.247717e+000 9.381548e+000 4.392511e+000
         vertex 2.247717e+000 9.809762e+000 4.966216e+000
      endloop
   endfacet
   facet normal 1.000000e+000 3.517730e-017 -1.262694e-016
      outer loop
         vertex 2.247717e+000 9.809762e+000 4.966216e+000
         vertex 2.247717e+000 9.381548e+000 4.392511e+000
         vertex 2.247717e+000 9.419598e+000 4.363508e+000
      endloop
   endfacet
   facet normal 1.000000e+000 3.517730e-017 -1.262694e-016
      outer loop
         vertex 2.247717e+000 9.809762e+000 4.966216e+000
         vertex 2.247717e+000 9.419598e+000 4.363508e+000
         vertex 2.247717e+000 9.844617e+000 4.958633e+000
      endloop
   endfacet
   facet normal 1.000000e+000 3.517730e-017 -1.262694e-016
      outer loop
         vertex 2.247717e+000 9.844617e+000 4.958633e+000
         vertex 2.247717e+000 9.419598e+000 4.363508e+000
         vertex 2.247717e+000 9.878037e+000 4.946168e+000
      endloop
   endfacet
   facet normal 5.096715e-017 -9.918622e-001 1.273160e-001
      outer loop
         vertex 2.247717e+000 9.515964e+000 4.059006e+000
         vertex 2.247717e+000 9.523267e+000 4.106288e+000
         vertex 1.747717e+000 9.523267e+000 4.106288e+000
      endloop
   endfacet
   facet normal 4.157949e-017 -9.986953e-001 5.106615e-002
      outer loop
         vertex 1.747717e+000 9.523267e+000 4.106288e+000
         vertex 2.247717e+000 9.523267e+000 4.106288e+000
         vertex 2.247717e+000 9.524183e+000 4.130210e+000
      endloop
   endfacet
   facet normal 3.517730e-017 -1.000000e+000 3.929817e-032
      outer loop
         vertex 1.747717e+000 9.523267e+000 4.106288e+000
         vertex 2.247717e+000 9.524183e+000 4.130210e+000
         vertex 1.747717e+000 9.523267e+000 4.154132e+000
      endloop
   endfacet
   facet normal 2.868331e-017 -9.986953e-001 -5.106615e-002
      outer loop
         vertex 1.747717e+000 9.523267e+000 4.154132e+000
         vertex 2.247717e+000 9.524183e+000 4.130210e+000
         vertex 2.247717e+000 9.523267e+000 4.154132e+000
      endloop
   endfacet
   facet normal 1.881492e-017 -9.918622e-001 -1.273160e-001
      outer loop
         vertex 1.747717e+000 9.523267e+000 4.154132e+000
         vertex 2.247717e+000 9.523267e+000 4.154132e+000
         vertex 1.747717e+000 9.515964e+000 4.201414e+000
      endloop
   endfacet
   facet normal 1.215515e-017 -9.840517e-001 -1.778826e-001
      outer loop
         vertex 1.747717e+000 9.515964e+000 4.201414e+000
         vertex 2.247717e+000 9.523267e+000 4.154132e+000
         vertex 2.247717e+000 9.515964e+000 4.201414e+000
      endloop
   endfacet
   facet normal -1.207317e-018 -9.608033e-001 -2.772310e-001
      outer loop
         vertex 1.747717e+000 9.515964e+000 4.201414e+000
         vertex 2.247717e+000 9.515964e+000 4.201414e+000
         vertex 1.747717e+000 9.501528e+000 4.247028e+000
      endloop
   endfacet
   facet normal -7.910020e-018 -9.453654e-001 -3.260127e-001
      outer loop
         vertex 1.747717e+000 9.501528e+000 4.247028e+000
         vertex 2.247717e+000 9.515964e+000 4.201414e+000
         vertex 2.247717e+000 9.501528e+000 4.247028e+000
      endloop
   endfacet
   facet normal -2.120126e-017 -9.072239e-001 -4.206479e-001
      outer loop
         vertex 1.747717e+000 9.501528e+000 4.247028e+000
         vertex 2.247717e+000 9.501528e+000 4.247028e+000
         vertex 1.747717e+000 9.480299e+000 4.289903e+000
      endloop
   endfacet
   facet normal -2.778979e-017 -8.845205e-001 -4.665013e-001
      outer loop
         vertex 1.747717e+000 9.480299e+000 4.289903e+000
         vertex 2.247717e+000 9.501528e+000 4.247028e+000
         vertex 2.247717e+000 9.480299e+000 4.289903e+000
      endloop
   endfacet
   facet normal -4.069825e-017 -8.323801e-001 -5.542051e-001
      outer loop
         vertex 1.747717e+000 9.480299e+000 4.289903e+000
         vertex 2.247717e+000 9.480299e+000 4.289903e+000
         vertex 1.747717e+000 9.452773e+000 4.329036e+000
      endloop
   endfacet
   facet normal -4.701818e-017 -8.029432e-001 -5.960555e-001
      outer loop
         vertex 1.747717e+000 9.452773e+000 4.329036e+000
         vertex 2.247717e+000 9.480299e+000 4.289903e+000
         vertex 2.247717e+000 9.452773e+000 4.329036e+000
      endloop
   endfacet
   facet normal -5.924132e-017 -7.380260e-001 -6.747723e-001
      outer loop
         vertex 1.747717e+000 9.452773e+000 4.329036e+000
         vertex 2.247717e+000 9.452773e+000 4.329036e+000
         vertex 1.747717e+000 9.419598e+000 4.363508e+000
      endloop
   endfacet
   facet normal -6.514452e-017 -7.025456e-001 -7.116387e-001
      outer loop
         vertex 1.747717e+000 9.419598e+000 4.363508e+000
         vertex 2.247717e+000 9.452773e+000 4.329036e+000
         vertex 2.247717e+000 9.419598e+000 4.363508e+000
      endloop
   endfacet
   facet normal -7.639582e-017 -6.263731e-001 -7.795234e-001
      outer loop
         vertex 1.747717e+000 9.419598e+000 4.363508e+000
         vertex 2.247717e+000 9.419598e+000 4.363508e+000
         vertex 1.747717e+000 9.381548e+000 4.392511e+000
      endloop
   endfacet
   facet normal -8.174392e-017 -5.856809e-001 -8.105417e-001
      outer loop
         vertex 1.747717e+000 9.381548e+000 4.392511e+000
         vertex 2.247717e+000 9.419598e+000 4.363508e+000
         vertex 2.247717e+000 9.381548e+000 4.392511e+000
      endloop
   endfacet
   facet normal -9.175967e-017 -5.000386e-001 -8.660032e-001
      outer loop
         vertex 1.747717e+000 9.381548e+000 4.392511e+000
         vertex 2.247717e+000 9.381548e+000 4.392511e+000
         vertex 1.747717e+000 9.339518e+000 4.415368e+000
      endloop
   endfacet
   facet normal -9.642731e-017 -4.550884e-001 -8.904462e-001
      outer loop
         vertex 1.747717e+000 9.339518e+000 4.415368e+000
         vertex 2.247717e+000 9.381548e+000 4.392511e+000
         vertex 2.247717e+000 9.339518e+000 4.415368e+000
      endloop
   endfacet
   facet normal -1.049727e-016 -3.619836e-001 -9.321845e-001
      outer loop
         vertex 1.747717e+000 9.339518e+000 4.415368e+000
         vertex 2.247717e+000 9.339518e+000 4.415368e+000
         vertex 1.747717e+000 9.294490e+000 4.431539e+000
      endloop
   endfacet
   facet normal -1.088505e-016 -3.138289e-001 -9.494795e-001
      outer loop
         vertex 1.747717e+000 9.294490e+000 4.431539e+000
         vertex 2.247717e+000 9.339518e+000 4.415368e+000
         vertex 2.247717e+000 9.294490e+000 4.431539e+000
      endloop
   endfacet
   facet normal -1.157253e-016 -2.154440e-001 -9.765162e-001
      outer loop
         vertex 1.747717e+000 9.294490e+000 4.431539e+000
         vertex 2.247717e+000 9.294490e+000 4.431539e+000
         vertex 1.747717e+000 9.247521e+000 4.440648e+000
      endloop
   endfacet
   facet normal -1.187224e-016 -1.652136e-001 -9.862578e-001
      outer loop
         vertex 1.747717e+000 9.247521e+000 4.440648e+000
         vertex 2.247717e+000 9.294490e+000 4.431539e+000
         vertex 2.247717e+000 9.247521e+000 4.440648e+000
      endloop
   endfacet
   facet normal -1.237654e-016 -6.385456e-002 -9.979592e-001
      outer loop
         vertex 1.747717e+000 9.247521e+000 4.440648e+000
         vertex 2.247717e+000 9.247521e+000 4.440648e+000
         vertex 1.747717e+000 9.199714e+000 4.442481e+000
      endloop
   endfacet
   facet normal -1.258115e-016 -1.272584e-002 -9.999190e-001
      outer loop
         vertex 1.747717e+000 9.199714e+000 4.442481e+000
         vertex 2.247717e+000 9.247521e+000 4.440648e+000
         vertex 2.247717e+000 9.199714e+000 4.442481e+000
      endloop
   endfacet
   facet normal -1.289046e-016 8.923154e-002 -9.960109e-001
      outer loop
         vertex 1.747717e+000 9.199714e+000 4.442481e+000
         vertex 2.247717e+000 9.199714e+000 4.442481e+000
         vertex 1.747717e+000 9.152185e+000 4.436994e+000
      endloop
   endfacet
   facet normal -1.299517e-016 1.400602e-001 -9.901430e-001
      outer loop
         vertex 1.747717e+000 9.152185e+000 4.436994e+000
         vertex 2.247717e+000 9.199714e+000 4.442481e+000
         vertex 2.247717e+000 9.152185e+000 4.436994e+000
      endloop
   endfacet
   facet normal -1.310223e-016 2.402261e-001 -9.707170e-001
      outer loop
         vertex 1.747717e+000 9.152185e+000 4.436994e+000
         vertex 2.247717e+000 9.152185e+000 4.436994e+000
         vertex 1.747717e+000 9.106053e+000 4.424316e+000
      endloop
   endfacet
   facet normal -1.310459e-016 2.895634e-001 -9.571589e-001
      outer loop
         vertex 1.747717e+000 9.106053e+000 4.424316e+000
         vertex 2.247717e+000 9.152185e+000 4.436994e+000
         vertex 2.247717e+000 9.106053e+000 4.424316e+000
      endloop
   endfacet
   facet normal -1.300690e-016 3.855900e-001 -9.226702e-001
      outer loop
         vertex 1.747717e+000 9.106053e+000 4.424316e+000
         vertex 2.247717e+000 9.106053e+000 4.424316e+000
         vertex 1.747717e+000 9.062396e+000 4.404745e+000
      endloop
   endfacet
   facet normal -1.290685e-016 4.322794e-001 -9.017397e-001
      outer loop
         vertex 1.747717e+000 9.062396e+000 4.404745e+000
         vertex 2.247717e+000 9.106053e+000 4.424316e+000
         vertex 2.247717e+000 9.062396e+000 4.404745e+000
      endloop
   endfacet
   facet normal -1.260670e-016 5.219160e-001 -8.529969e-001
      outer loop
         vertex 1.747717e+000 9.062396e+000 4.404745e+000
         vertex 2.247717e+000 9.062396e+000 4.404745e+000
         vertex 1.747717e+000 9.022238e+000 4.378739e+000
      endloop
   endfacet
   facet normal -1.240659e-016 5.648633e-001 -8.251845e-001
      outer loop
         vertex 1.747717e+000 9.022238e+000 4.378739e+000
         vertex 2.247717e+000 9.062396e+000 4.404745e+000
         vertex 2.247717e+000 9.022238e+000 4.378739e+000
      endloop
   endfacet
   facet normal -1.191100e-016 6.460088e-001 -7.633300e-001
      outer loop
         vertex 1.747717e+000 9.022238e+000 4.378739e+000
         vertex 2.247717e+000 9.022238e+000 4.378739e+000
         vertex 1.747717e+000 8.986520e+000 4.346908e+000
      endloop
   endfacet
   facet normal -1.161553e-016 6.842071e-001 -7.292878e-001
      outer loop
         vertex 1.747717e+000 8.986520e+000 4.346908e+000
         vertex 2.247717e+000 9.022238e+000 4.378739e+000
         vertex 2.247717e+000 8.986520e+000 4.346908e+000
      endloop
   endfacet
   facet normal -1.093613e-016 7.549596e-001 -6.557713e-001
      outer loop
         vertex 1.747717e+000 8.986520e+000 4.346908e+000
         vertex 2.247717e+000 8.986520e+000 4.346908e+000
         vertex 1.747717e+000 8.956080e+000 4.309997e+000
      endloop
   endfacet
   facet normal -1.055220e-016 7.875138e-001 -6.162970e-001
      outer loop
         vertex 1.747717e+000 8.956080e+000 4.309997e+000
         vertex 2.247717e+000 8.986520e+000 4.346908e+000
         vertex 2.247717e+000 8.956080e+000 4.309997e+000
      endloop
   endfacet
   facet normal -9.704916e-017 8.462148e-001 -5.328419e-001
      outer loop
         vertex 1.747717e+000 8.956080e+000 4.309997e+000
         vertex 2.247717e+000 8.956080e+000 4.309997e+000
         vertex 1.747717e+000 8.931632e+000 4.268872e+000
      endloop
   endfacet
   facet normal -9.241549e-017 8.723617e-001 -4.888609e-001
      outer loop
         vertex 1.747717e+000 8.931632e+000 4.268872e+000
         vertex 2.247717e+000 8.956080e+000 4.309997e+000
         vertex 2.247717e+000 8.931632e+000 4.268872e+000
      endloop
   endfacet
   facet normal -8.246231e-017 9.176354e-001 -3.974231e-001
      outer loop
         vertex 1.747717e+000 8.931632e+000 4.268872e+000
         vertex 2.247717e+000 8.931632e+000 4.268872e+000
         vertex 1.747717e+000 8.913747e+000 4.224498e+000
      endloop
   endfacet
   facet normal -7.714279e-017 9.367623e-001 -3.499663e-001
      outer loop
         vertex 1.747717e+000 8.913747e+000 4.224498e+000
         vertex 2.247717e+000 8.931632e+000 4.268872e+000
         vertex 2.247717e+000 8.913747e+000 4.224498e+000
      endloop
   endfacet
   facet normal -6.594261e-017 9.675475e-001 -2.526891e-001
      outer loop
         vertex 1.747717e+000 8.913747e+000 4.224498e+000
         vertex 2.247717e+000 8.913747e+000 4.224498e+000
         vertex 1.747717e+000 8.902845e+000 4.177913e+000
      endloop
   endfacet
   facet normal -6.006193e-017 9.792060e-001 -2.028688e-001
      outer loop
         vertex 1.747717e+000 8.902845e+000 4.177913e+000
         vertex 2.247717e+000 8.913747e+000 4.224498e+000
         vertex 2.247717e+000 8.902845e+000 4.177913e+000
      endloop
   endfacet
   facet normal -4.787726e-017 9.947811e-001 -1.020323e-001
      outer loop
         vertex 1.747717e+000 8.902845e+000 4.177913e+000
         vertex 2.247717e+000 8.902845e+000 4.177913e+000
         vertex 1.747717e+000 8.899183e+000 4.130210e+000
      endloop
   endfacet
   facet normal -4.157327e-017 9.986978e-001 -5.101613e-002
      outer loop
         vertex 1.747717e+000 8.899183e+000 4.130210e+000
         vertex 2.247717e+000 8.902845e+000 4.177913e+000
         vertex 2.247717e+000 8.899183e+000 4.130210e+000
      endloop
   endfacet
   facet normal -2.868972e-017 9.986978e-001 5.101613e-002
      outer loop
         vertex 1.747717e+000 8.899183e+000 4.130210e+000
         vertex 2.247717e+000 8.899183e+000 4.130210e+000
         vertex 1.747717e+000 8.902845e+000 4.082507e+000
      endloop
   endfacet
   facet normal -2.211016e-017 9.947811e-001 1.020323e-001
      outer loop
         vertex 1.747717e+000 8.902845e+000 4.082507e+000
         vertex 2.247717e+000 8.899183e+000 4.130210e+000
         vertex 2.247717e+000 8.902845e+000 4.082507e+000
      endloop
   endfacet
   facet normal -8.829709e-018 9.792059e-001 2.028688e-001
      outer loop
         vertex 1.747717e+000 8.902845e+000 4.082507e+000
         vertex 2.247717e+000 8.902845e+000 4.082507e+000
         vertex 1.747717e+000 8.913747e+000 4.035923e+000
      endloop
   endfacet
   facet normal -2.128813e-018 9.675475e-001 2.526891e-001
      outer loop
         vertex 1.747717e+000 8.913747e+000 4.035923e+000
         vertex 2.247717e+000 8.902845e+000 4.082507e+000
         vertex 2.247717e+000 8.913747e+000 4.035923e+000
      endloop
   endfacet
   facet normal 1.123726e-017 9.367623e-001 3.499663e-001
      outer loop
         vertex 1.747717e+000 8.913747e+000 4.035923e+000
         vertex 2.247717e+000 8.913747e+000 4.035923e+000
         vertex 1.747717e+000 8.931632e+000 3.991548e+000
      endloop
   endfacet
   facet normal 1.790243e-017 9.176354e-001 3.974231e-001
      outer loop
         vertex 1.747717e+000 8.931632e+000 3.991548e+000
         vertex 2.247717e+000 8.913747e+000 4.035923e+000
         vertex 2.247717e+000 8.931632e+000 3.991548e+000
      endloop
   endfacet
   facet normal 3.104083e-017 8.723617e-001 4.888609e-001
      outer loop
         vertex 1.747717e+000 8.931632e+000 3.991548e+000
         vertex 2.247717e+000 8.931632e+000 3.991548e+000
         vertex 1.747717e+000 8.956080e+000 3.950423e+000
      endloop
   endfacet
   facet normal 3.751405e-017 8.462148e-001 5.328419e-001
      outer loop
         vertex 1.747717e+000 8.956080e+000 3.950423e+000
         vertex 2.247717e+000 8.931632e+000 3.991548e+000
         vertex 2.247717e+000 8.956080e+000 3.950423e+000
      endloop
   endfacet
   facet normal 5.011683e-017 7.875138e-001 6.162970e-001
      outer loop
         vertex 1.747717e+000 8.956080e+000 3.950423e+000
         vertex 2.247717e+000 8.956080e+000 3.950423e+000
         vertex 1.747717e+000 8.986520e+000 3.913512e+000
      endloop
   endfacet
   facet normal 5.624640e-017 7.549596e-001 6.557713e-001
      outer loop
         vertex 1.747717e+000 8.986520e+000 3.913512e+000
         vertex 2.247717e+000 8.956080e+000 3.950423e+000
         vertex 2.247717e+000 8.986520e+000 3.913512e+000
      endloop
   endfacet
   facet normal 6.801815e-017 6.842071e-001 7.292877e-001
      outer loop
         vertex 1.747717e+000 8.986520e+000 3.913512e+000
         vertex 2.247717e+000 8.986520e+000 3.913512e+000
         vertex 1.747717e+000 9.022238e+000 3.881681e+000
      endloop
   endfacet
   facet normal 7.366035e-017 6.460088e-001 7.633300e-001
      outer loop
         vertex 1.747717e+000 9.022238e+000 3.881681e+000
         vertex 2.247717e+000 8.986520e+000 3.913512e+000
         vertex 2.247717e+000 9.022238e+000 3.881681e+000
      endloop
   endfacet
   facet normal 8.432517e-017 5.648632e-001 8.251846e-001
      outer loop
         vertex 1.747717e+000 9.022238e+000 3.881681e+000
         vertex 2.247717e+000 9.022238e+000 3.881681e+000
         vertex 1.747717e+000 9.062396e+000 3.855675e+000
      endloop
   endfacet
   facet normal 8.934778e-017 5.219160e-001 8.529969e-001
      outer loop
         vertex 1.747717e+000 9.062396e+000 3.855675e+000
         vertex 2.247717e+000 9.022238e+000 3.881681e+000
         vertex 2.247717e+000 9.062396e+000 3.855675e+000
      endloop
   endfacet
   facet normal 9.865568e-017 4.322795e-001 9.017397e-001
      outer loop
         vertex 1.747717e+000 9.062396e+000 3.855675e+000
         vertex 2.247717e+000 9.062396e+000 3.855675e+000
         vertex 1.747717e+000 9.106053e+000 3.836104e+000
      endloop
   endfacet
   facet normal 1.029410e-016 3.855900e-001 9.226702e-001
      outer loop
         vertex 1.747717e+000 9.106053e+000 3.836104e+000
         vertex 2.247717e+000 9.062396e+000 3.855675e+000
         vertex 2.247717e+000 9.106053e+000 3.836104e+000
      endloop
   endfacet
   facet normal 1.106738e-016 2.895634e-001 9.571589e-001
      outer loop
         vertex 1.747717e+000 9.106053e+000 3.836104e+000
         vertex 2.247717e+000 9.106053e+000 3.836104e+000
         vertex 1.747717e+000 9.152185e+000 3.823426e+000
      endloop
   endfacet
   facet normal 1.141213e-016 2.402261e-001 9.707170e-001
      outer loop
         vertex 1.747717e+000 9.152185e+000 3.823426e+000
         vertex 2.247717e+000 9.106053e+000 3.836104e+000
         vertex 2.247717e+000 9.152185e+000 3.823426e+000
      endloop
   endfacet
   facet normal 1.200978e-016 1.400602e-001 9.901430e-001
      outer loop
         vertex 1.747717e+000 9.152185e+000 3.823426e+000
         vertex 2.247717e+000 9.152185e+000 3.823426e+000
         vertex 1.747717e+000 9.199714e+000 3.817939e+000
      endloop
   endfacet
   facet normal 1.226267e-016 8.923154e-002 9.960109e-001
      outer loop
         vertex 1.747717e+000 9.199714e+000 3.817939e+000
         vertex 2.247717e+000 9.152185e+000 3.823426e+000
         vertex 2.247717e+000 9.199714e+000 3.817939e+000
      endloop
   endfacet
   facet normal 1.267068e-016 -1.272584e-002 9.999190e-001
      outer loop
         vertex 1.747717e+000 9.199714e+000 3.817939e+000
         vertex 2.247717e+000 9.199714e+000 3.817939e+000
         vertex 1.747717e+000 9.247521e+000 3.819772e+000
      endloop
   endfacet
   facet normal 1.282579e-016 -6.385456e-002 9.979592e-001
      outer loop
         vertex 1.747717e+000 9.247521e+000 3.819772e+000
         vertex 2.247717e+000 9.199714e+000 3.817939e+000
         vertex 2.247717e+000 9.247521e+000 3.819772e+000
      endloop
   endfacet
   facet normal 1.303459e-016 -1.652136e-001 9.862578e-001
      outer loop
         vertex 1.747717e+000 9.247521e+000 3.819772e+000
         vertex 2.247717e+000 9.247521e+000 3.819772e+000
         vertex 1.747717e+000 9.294490e+000 3.828881e+000
      endloop
   endfacet
   facet normal 1.308828e-016 -2.154440e-001 9.765162e-001
      outer loop
         vertex 1.747717e+000 9.294490e+000 3.828881e+000
         vertex 2.247717e+000 9.247521e+000 3.819772e+000
         vertex 2.247717e+000 9.294490e+000 3.828881e+000
      endloop
   endfacet
   facet normal 1.309298e-016 -3.138289e-001 9.494795e-001
      outer loop
         vertex 1.747717e+000 9.294490e+000 3.828881e+000
         vertex 2.247717e+000 9.294490e+000 3.828881e+000
         vertex 1.747717e+000 9.339518e+000 3.845052e+000
      endloop
   endfacet
   facet normal 1.304400e-016 -3.619836e-001 9.321845e-001
      outer loop
         vertex 1.747717e+000 9.339518e+000 3.845052e+000
         vertex 2.247717e+000 9.294490e+000 3.828881e+000
         vertex 2.247717e+000 9.339518e+000 3.845052e+000
      endloop
   endfacet
   facet normal 1.284449e-016 -4.550884e-001 8.904463e-001
      outer loop
         vertex 1.747717e+000 9.339518e+000 3.845052e+000
         vertex 2.247717e+000 9.339518e+000 3.845052e+000
         vertex 1.747717e+000 9.381548e+000 3.867908e+000
      endloop
   endfacet
   facet normal 1.269397e-016 -5.000386e-001 8.660032e-001
      outer loop
         vertex 1.747717e+000 9.381548e+000 3.867908e+000
         vertex 2.247717e+000 9.339518e+000 3.845052e+000
         vertex 2.247717e+000 9.381548e+000 3.867908e+000
      endloop
   endfacet
   facet normal 1.229493e-016 -5.856809e-001 8.105417e-001
      outer loop
         vertex 1.747717e+000 9.381548e+000 3.867908e+000
         vertex 2.247717e+000 9.381548e+000 3.867908e+000
         vertex 1.747717e+000 9.419598e+000 3.896912e+000
      endloop
   endfacet
   facet normal 1.204640e-016 -6.263731e-001 7.795234e-001
      outer loop
         vertex 1.747717e+000 9.419598e+000 3.896912e+000
         vertex 2.247717e+000 9.381548e+000 3.867908e+000
         vertex 2.247717e+000 9.419598e+000 3.896912e+000
      endloop
   endfacet
   facet normal 1.145718e-016 -7.025456e-001 7.116387e-001
      outer loop
         vertex 1.747717e+000 9.419598e+000 3.896912e+000
         vertex 2.247717e+000 9.419598e+000 3.896912e+000
         vertex 1.747717e+000 9.452773e+000 3.931384e+000
      endloop
   endfacet
   facet normal 1.111648e-016 -7.380260e-001 6.747723e-001
      outer loop
         vertex 1.747717e+000 9.452773e+000 3.931384e+000
         vertex 2.247717e+000 9.419598e+000 3.896912e+000
         vertex 2.247717e+000 9.452773e+000 3.931384e+000
      endloop
   endfacet
   facet normal 1.035089e-016 -8.029432e-001 5.960555e-001
      outer loop
         vertex 1.747717e+000 9.452773e+000 3.931384e+000
         vertex 2.247717e+000 9.452773e+000 3.931384e+000
         vertex 1.747717e+000 9.480299e+000 3.970516e+000
      endloop
   endfacet
   facet normal 9.926002e-017 -8.323801e-001 5.542051e-001
      outer loop
         vertex 1.747717e+000 9.480299e+000 3.970516e+000
         vertex 2.247717e+000 9.452773e+000 3.931384e+000
         vertex 2.247717e+000 9.480299e+000 3.970516e+000
      endloop
   endfacet
   facet normal 9.001988e-017 -8.845205e-001 4.665013e-001
      outer loop
         vertex 1.747717e+000 9.480299e+000 3.970516e+000
         vertex 2.247717e+000 9.480299e+000 3.970516e+000
         vertex 1.747717e+000 9.501528e+000 4.013392e+000
      endloop
   endfacet
   facet normal 8.502864e-017 -9.072239e-001 4.206479e-001
      outer loop
         vertex 1.747717e+000 9.501528e+000 4.013392e+000
         vertex 2.247717e+000 9.480299e+000 3.970516e+000
         vertex 2.247717e+000 9.501528e+000 4.013392e+000
      endloop
   endfacet
   facet normal 7.442082e-017 -9.453654e-001 3.260127e-001
      outer loop
         vertex 1.747717e+000 9.501528e+000 4.013392e+000
         vertex 2.247717e+000 9.501528e+000 4.013392e+000
         vertex 1.747717e+000 9.515964e+000 4.059006e+000
      endloop
   endfacet
   facet normal 6.880425e-017 -9.608033e-001 2.772310e-001
      outer loop
         vertex 1.747717e+000 9.515964e+000 4.059006e+000
         vertex 2.247717e+000 9.501528e+000 4.013392e+000
         vertex 2.247717e+000 9.515964e+000 4.059006e+000
      endloop
   endfacet
   facet normal 5.707741e-017 -9.840517e-001 1.778826e-001
      outer loop
         vertex 1.747717e+000 9.515964e+000 4.059006e+000
         vertex 2.247717e+000 9.515964e+000 4.059006e+000
         vertex 1.747717e+000 9.523267e+000 4.106288e+000
      endloop
   endfacet
   facet normal 1.244540e-016 4.754595e-002 9.988691e-001
      outer loop
         vertex 1.747717e+000 9.774183e+000 4.968760e+000
         vertex 2.247717e+000 9.774183e+000 4.968760e+000
         vertex 2.247717e+000 9.809762e+000 4.966216e+000
      endloop
   endfacet
   facet normal 1.223521e-016 9.509189e-002 9.954685e-001
      outer loop
         vertex 1.747717e+000 9.774183e+000 4.968760e+000
         vertex 2.247717e+000 9.809762e+000 4.966216e+000
         vertex 1.747717e+000 9.809762e+000 4.966216e+000
      endloop
   endfacet
   facet normal 1.173323e-016 1.892159e-001 9.819355e-001
      outer loop
         vertex 1.747717e+000 9.809762e+000 4.966216e+000
         vertex 2.247717e+000 9.809762e+000 4.966216e+000
         vertex 2.247717e+000 9.844617e+000 4.958633e+000
      endloop
   endfacet
   facet normal 1.144144e-016 2.357939e-001 9.718031e-001
      outer loop
         vertex 1.747717e+000 9.809762e+000 4.966216e+000
         vertex 2.247717e+000 9.844617e+000 4.958633e+000
         vertex 1.747717e+000 9.844617e+000 4.958633e+000
      endloop
   endfacet
   facet normal 1.078220e-016 3.270339e-001 9.450126e-001
      outer loop
         vertex 1.747717e+000 9.844617e+000 4.958633e+000
         vertex 2.247717e+000 9.844617e+000 4.958633e+000
         vertex 2.247717e+000 9.878037e+000 4.946168e+000
      endloop
   endfacet
   facet normal 1.041475e-016 3.716959e-001 9.283546e-001
      outer loop
         vertex 1.747717e+000 9.844617e+000 4.958633e+000
         vertex 2.247717e+000 9.878037e+000 4.946168e+000
         vertex 1.747717e+000 9.878037e+000 4.946168e+000
      endloop
   endfacet
   facet normal 9.611673e-017 4.581946e-001 8.888519e-001
      outer loop
         vertex 1.747717e+000 9.878037e+000 4.946168e+000
         vertex 2.247717e+000 9.878037e+000 4.946168e+000
         vertex 2.247717e+000 9.909344e+000 4.929074e+000
      endloop
   endfacet
   facet normal 9.176046e-017 5.000312e-001 8.660074e-001
      outer loop
         vertex 1.747717e+000 9.878037e+000 4.946168e+000
         vertex 2.247717e+000 9.909344e+000 4.929074e+000
         vertex 1.747717e+000 9.909344e+000 4.929074e+000
      endloop
   endfacet
   facet normal 8.245483e-017 5.800276e-001 8.145968e-001
      outer loop
         vertex 1.747717e+000 9.909344e+000 4.929074e+000
         vertex 2.247717e+000 9.909344e+000 4.929074e+000
         vertex 2.247717e+000 9.937899e+000 4.907698e+000
      endloop
   endfacet
   facet normal 7.750546e-017 6.181873e-001 7.860308e-001
      outer loop
         vertex 1.747717e+000 9.909344e+000 4.929074e+000
         vertex 2.247717e+000 9.937899e+000 4.907698e+000
         vertex 1.747717e+000 9.937899e+000 4.907698e+000
      endloop
   endfacet
   facet normal 6.711438e-017 6.900530e-001 7.237589e-001
      outer loop
         vertex 1.747717e+000 9.937899e+000 4.907698e+000
         vertex 2.247717e+000 9.937899e+000 4.907698e+000
         vertex 2.247717e+000 9.963120e+000 4.882475e+000
      endloop
   endfacet
   facet normal 6.167267e-017 7.237589e-001 6.900530e-001
      outer loop
         vertex 1.747717e+000 9.937899e+000 4.907698e+000
         vertex 2.247717e+000 9.963120e+000 4.882475e+000
         vertex 1.747717e+000 9.963120e+000 4.882475e+000
      endloop
   endfacet
   facet normal 5.040768e-017 7.860308e-001 6.181873e-001
      outer loop
         vertex 1.747717e+000 9.963120e+000 4.882475e+000
         vertex 2.247717e+000 9.963120e+000 4.882475e+000
         vertex 2.247717e+000 9.984496e+000 4.853920e+000
      endloop
   endfacet
   facet normal 4.458440e-017 8.145968e-001 5.800276e-001
      outer loop
         vertex 1.747717e+000 9.963120e+000 4.882475e+000
         vertex 2.247717e+000 9.984496e+000 4.853920e+000
         vertex 1.747717e+000 9.984496e+000 4.853920e+000
      endloop
   endfacet
   facet normal 3.267483e-017 8.660074e-001 5.000312e-001
      outer loop
         vertex 1.747717e+000 9.984496e+000 4.853920e+000
         vertex 2.247717e+000 9.984496e+000 4.853920e+000
         vertex 2.247717e+000 1.000159e+001 4.822614e+000
      endloop
   endfacet
   facet normal 2.658853e-017 8.888519e-001 4.581946e-001
      outer loop
         vertex 1.747717e+000 9.984496e+000 4.853920e+000
         vertex 2.247717e+000 1.000159e+001 4.822614e+000
         vertex 1.747717e+000 1.000159e+001 4.822614e+000
      endloop
   endfacet
   facet normal 1.427680e-017 9.283546e-001 3.716959e-001
      outer loop
         vertex 1.747717e+000 1.000159e+001 4.822614e+000
         vertex 2.247717e+000 1.000159e+001 4.822614e+000
         vertex 2.247717e+000 1.001406e+001 4.789193e+000
      endloop
   endfacet
   facet normal 8.051381e-018 9.450126e-001 3.270340e-001
      outer loop
         vertex 1.747717e+000 1.000159e+001 4.822614e+000
         vertex 2.247717e+000 1.001406e+001 4.789193e+000
         vertex 1.747717e+000 1.001406e+001 4.789193e+000
      endloop
   endfacet
   facet normal -4.411854e-018 9.718031e-001 2.357939e-001
      outer loop
         vertex 1.747717e+000 1.001406e+001 4.789193e+000
         vertex 2.247717e+000 1.001406e+001 4.789193e+000
         vertex 2.247717e+000 1.002164e+001 4.754339e+000
      endloop
   endfacet
   facet normal -1.064967e-017 9.819355e-001 1.892159e-001
      outer loop
         vertex 1.747717e+000 1.001406e+001 4.789193e+000
         vertex 2.247717e+000 1.002164e+001 4.754339e+000
         vertex 1.747717e+000 1.002164e+001 4.754339e+000
      endloop
   endfacet
   facet normal -2.301070e-017 9.954685e-001 9.509189e-002
      outer loop
         vertex 1.747717e+000 1.002164e+001 4.754339e+000
         vertex 2.247717e+000 1.002164e+001 4.754339e+000
         vertex 2.247717e+000 1.002418e+001 4.718760e+000
      endloop
   endfacet
   facet normal -2.913392e-017 9.988691e-001 4.754595e-002
      outer loop
         vertex 1.747717e+000 1.002164e+001 4.754339e+000
         vertex 2.247717e+000 1.002418e+001 4.718760e+000
         vertex 1.747717e+000 1.002418e+001 4.718760e+000
      endloop
   endfacet
   facet normal -4.114111e-017 9.988691e-001 -4.754595e-002
      outer loop
         vertex 1.747717e+000 1.002418e+001 3.541660e+000
         vertex 2.247717e+000 1.002418e+001 3.541660e+000
         vertex 2.247717e+000 1.002164e+001 3.506081e+000
      endloop
   endfacet
   facet normal -4.702509e-017 9.954685e-001 -9.509189e-002
      outer loop
         vertex 1.747717e+000 1.002418e+001 3.541660e+000
         vertex 2.247717e+000 1.002164e+001 3.506081e+000
         vertex 1.747717e+000 1.002164e+001 3.506081e+000
      endloop
   endfacet
   facet normal -5.843401e-017 9.819355e-001 -1.892159e-001
      outer loop
         vertex 1.747717e+000 1.002164e+001 3.506081e+000
         vertex 2.247717e+000 1.002164e+001 3.506081e+000
         vertex 2.247717e+000 1.001406e+001 3.471227e+000
      endloop
   endfacet
   facet normal -6.395896e-017 9.718031e-001 -2.357939e-001
      outer loop
         vertex 1.747717e+000 1.002164e+001 3.506081e+000
         vertex 2.247717e+000 1.001406e+001 3.471227e+000
         vertex 1.747717e+000 1.001406e+001 3.471227e+000
      endloop
   endfacet
   facet normal -7.453736e-017 9.450126e-001 -3.270339e-001
      outer loop
         vertex 1.747717e+000 1.001406e+001 3.471227e+000
         vertex 2.247717e+000 1.001406e+001 3.471227e+000
         vertex 2.247717e+000 1.000159e+001 3.437806e+000
      endloop
   endfacet
   facet normal -7.959082e-017 9.283546e-001 -3.716959e-001
      outer loop
         vertex 1.747717e+000 1.001406e+001 3.471227e+000
         vertex 2.247717e+000 1.000159e+001 3.437806e+000
         vertex 1.747717e+000 1.000159e+001 3.437806e+000
      endloop
   endfacet
   facet normal -8.912335e-017 8.888519e-001 -4.581946e-001
      outer loop
         vertex 1.747717e+000 1.000159e+001 3.437806e+000
         vertex 2.247717e+000 1.000159e+001 3.437806e+000
         vertex 2.247717e+000 9.984496e+000 3.406500e+000
      endloop
   endfacet
   facet normal -9.360243e-017 8.660074e-001 -5.000312e-001
      outer loop
         vertex 1.747717e+000 1.000159e+001 3.437806e+000
         vertex 2.247717e+000 9.984496e+000 3.406500e+000
         vertex 1.747717e+000 9.984496e+000 3.406500e+000
      endloop
   endfacet
   facet normal -1.018950e-016 8.145968e-001 -5.800276e-001
      outer loop
         vertex 1.747717e+000 9.984496e+000 3.406500e+000
         vertex 2.247717e+000 9.984496e+000 3.406500e+000
         vertex 2.247717e+000 9.963120e+000 3.377945e+000
      endloop
   endfacet
   facet normal -1.057086e-016 7.860308e-001 -6.181873e-001
      outer loop
         vertex 1.747717e+000 9.984496e+000 3.406500e+000
         vertex 2.247717e+000 9.963120e+000 3.377945e+000
         vertex 1.747717e+000 9.963120e+000 3.377945e+000
      endloop
   endfacet
   facet normal -1.125924e-016 7.237589e-001 -6.900530e-001
      outer loop
         vertex 1.747717e+000 9.963120e+000 3.377945e+000
         vertex 2.247717e+000 9.963120e+000 3.377945e+000
         vertex 2.247717e+000 9.937899e+000 3.352723e+000
      endloop
   endfacet
   facet normal -1.156628e-016 6.900530e-001 -7.237589e-001
      outer loop
         vertex 1.747717e+000 9.963120e+000 3.377945e+000
         vertex 2.247717e+000 9.937899e+000 3.352723e+000
         vertex 1.747717e+000 9.937899e+000 3.352723e+000
      endloop
   endfacet
   facet normal -1.209978e-016 6.181873e-001 -7.860308e-001
      outer loop
         vertex 1.747717e+000 9.937899e+000 3.352723e+000
         vertex 2.247717e+000 9.937899e+000 3.352723e+000
         vertex 2.247717e+000 9.909344e+000 3.331347e+000
      endloop
   endfacet
   facet normal -1.232624e-016 5.800276e-001 -8.145968e-001
      outer loop
         vertex 1.747717e+000 9.937899e+000 3.352723e+000
         vertex 2.247717e+000 9.909344e+000 3.331347e+000
         vertex 1.747717e+000 9.909344e+000 3.331347e+000
      endloop
   endfacet
   facet normal -1.269400e-016 5.000312e-001 -8.660074e-001
      outer loop
         vertex 1.747717e+000 9.909344e+000 3.331347e+000
         vertex 2.247717e+000 9.909344e+000 3.331347e+000
         vertex 2.247717e+000 9.878037e+000 3.314252e+000
      endloop
   endfacet
   facet normal -1.283528e-016 4.581946e-001 -8.888519e-001
      outer loop
         vertex 1.747717e+000 9.909344e+000 3.331347e+000
         vertex 2.247717e+000 9.878037e+000 3.314252e+000
         vertex 1.747717e+000 9.878037e+000 3.314252e+000
      endloop
   endfacet
   facet normal -1.302980e-016 3.716959e-001 -9.283546e-001
      outer loop
         vertex 1.747717e+000 9.878037e+000 3.314252e+000
         vertex 2.247717e+000 9.878037e+000 3.314252e+000
         vertex 2.247717e+000 9.844617e+000 3.301787e+000
      endloop
   endfacet
   facet normal -1.308303e-016 3.270340e-001 -9.450126e-001
      outer loop
         vertex 1.747717e+000 9.878037e+000 3.314252e+000
         vertex 2.247717e+000 9.844617e+000 3.301787e+000
         vertex 1.747717e+000 9.844617e+000 3.301787e+000
      endloop
   endfacet
   facet normal -1.310036e-016 2.357939e-001 -9.718031e-001
      outer loop
         vertex 1.747717e+000 9.844617e+000 3.301787e+000
         vertex 2.247717e+000 9.844617e+000 3.301787e+000
         vertex 2.247717e+000 9.809762e+000 3.294205e+000
      endloop
   endfacet
   facet normal -1.306445e-016 1.892159e-001 -9.819355e-001
      outer loop
         vertex 1.747717e+000 9.844617e+000 3.301787e+000
         vertex 2.247717e+000 9.809762e+000 3.294205e+000
         vertex 1.747717e+000 9.809762e+000 3.294205e+000
      endloop
   endfacet
   facet normal -1.290423e-016 9.509189e-002 -9.954685e-001
      outer loop
         vertex 1.747717e+000 9.809762e+000 3.294205e+000
         vertex 2.247717e+000 9.809762e+000 3.294205e+000
         vertex 2.247717e+000 9.774183e+000 3.291660e+000
      endloop
   endfacet
   facet normal -1.277991e-016 4.754595e-002 -9.988691e-001
      outer loop
         vertex 1.747717e+000 9.809762e+000 3.294205e+000
         vertex 2.247717e+000 9.774183e+000 3.291660e+000
         vertex 1.747717e+000 9.774183e+000 3.291660e+000
      endloop
   endfacet
endsolid