solid Mc Cormik-D326 - Soporte del tiro-1
   facet normal -1.224647e-016 1.000000e+000 0.000000e+000
      outer loop
         vertex 1.017522e+003 6.402883e+002 5.419196e+002
         vertex 1.020901e+003 6.402883e+002 5.437776e+002
         vertex 1.020901e+003 6.402883e+002 5.337776e+002
      endloop
   endfacet
   facet normal -1.224647e-016 1.000000e+000 0.000000e+000
      outer loop
         vertex 7.059005e+002 6.402883e+002 5.337776e+002
         vertex 7.059005e+002 6.402883e+002 5.437776e+002
         vertex 7.092786e+002 6.402883e+002 5.419196e+002
      endloop
   endfacet
   facet normal -1.224647e-016 1.000000e+000 0.000000e+000
      outer loop
         vertex 7.059005e+002 6.402883e+002 5.337776e+002
         vertex 7.092786e+002 6.402883e+002 5.419196e+002
         vertex 1.020901e+003 6.402883e+002 5.337776e+002
      endloop
   endfacet
   facet normal -1.224647e-016 1.000000e+000 0.000000e+000
      outer loop
         vertex 1.020901e+003 6.402883e+002 5.337776e+002
         vertex 7.092786e+002 6.402883e+002 5.419196e+002
         vertex 1.017522e+003 6.402883e+002 5.419196e+002
      endloop
   endfacet
   facet normal -1.224647e-016 1.000000e+000 0.000000e+000
      outer loop
         vertex 1.017522e+003 6.402883e+002 5.419196e+002
         vertex 7.092786e+002 6.402883e+002 5.419196e+002
         vertex 7.334005e+002 6.402883e+002 5.857776e+002
      endloop
   endfacet
   facet normal -1.224647e-016 1.000000e+000 0.000000e+000
      outer loop
         vertex 1.017522e+003 6.402883e+002 5.419196e+002
         vertex 7.334005e+002 6.402883e+002 5.857776e+002
         vertex 9.934005e+002 6.402883e+002 5.857776e+002
      endloop
   endfacet
   facet normal -1.224647e-016 1.000000e+000 0.000000e+000
      outer loop
         vertex 7.334005e+002 6.402883e+002 5.937776e+002
         vertex 7.059005e+002 6.402883e+002 5.437776e+002
         vertex 7.059005e+002 6.402883e+002 5.937776e+002
      endloop
   endfacet
   facet normal -1.224647e-016 1.000000e+000 0.000000e+000
      outer loop
         vertex 1.020901e+003 6.402883e+002 5.437776e+002
         vertex 9.934005e+002 6.402883e+002 5.937776e+002
         vertex 1.020901e+003 6.402883e+002 5.937776e+002
      endloop
   endfacet
   facet normal 0.000000e+000 0.000000e+000 1.000000e+000
      outer loop
         vertex 8.284005e+002 5.902884e+002 5.937776e+002
         vertex 7.059005e+002 5.702883e+002 5.937776e+002
         vertex 8.984005e+002 5.902884e+002 5.937776e+002
      endloop
   endfacet
   facet normal 0.000000e+000 0.000000e+000 1.000000e+000
      outer loop
         vertex 8.984005e+002 5.902884e+002 5.937776e+002
         vertex 7.059005e+002 5.702883e+002 5.937776e+002
         vertex 1.020901e+003 5.702883e+002 5.937776e+002
      endloop
   endfacet
   facet normal 0.000000e+000 0.000000e+000 1.000000e+000
      outer loop
         vertex 8.134005e+002 6.202884e+002 5.937776e+002
         vertex 7.334005e+002 6.402883e+002 5.937776e+002
         vertex 7.334005e+002 6.202884e+002 5.937776e+002
      endloop
   endfacet
   facet normal 0.000000e+000 0.000000e+000 1.000000e+000
      outer loop
         vertex 7.334005e+002 6.202884e+002 5.937776e+002
         vertex 7.334005e+002 6.402883e+002 5.937776e+002
         vertex 7.059005e+002 6.402883e+002 5.937776e+002
      endloop
   endfacet
   facet normal 0.000000e+000 0.000000e+000 1.000000e+000
      outer loop
         vertex 7.334005e+002 6.202884e+002 5.937776e+002
         vertex 7.059005e+002 6.402883e+002 5.937776e+002
         vertex 7.334005e+002 5.902884e+002 5.937776e+002
      endloop
   endfacet
   facet normal 0.000000e+000 0.000000e+000 1.000000e+000
      outer loop
         vertex 7.334005e+002 5.902884e+002 5.937776e+002
         vertex 7.059005e+002 6.402883e+002 5.937776e+002
         vertex 7.059005e+002 5.702883e+002 5.937776e+002
      endloop
   endfacet
   facet normal 0.000000e+000 0.000000e+000 1.000000e+000
      outer loop
         vertex 7.334005e+002 5.902884e+002 5.937776e+002
         vertex 7.059005e+002 5.702883e+002 5.937776e+002
         vertex 8.134005e+002 5.902884e+002 5.937776e+002
      endloop
   endfacet
   facet normal 0.000000e+000 0.000000e+000 1.000000e+000
      outer loop
         vertex 8.134005e+002 5.902884e+002 5.937776e+002
         vertex 7.059005e+002 5.702883e+002 5.937776e+002
         vertex 8.284005e+002 5.902884e+002 5.937776e+002
      endloop
   endfacet
   facet normal 0.000000e+000 0.000000e+000 1.000000e+000
      outer loop
         vertex 8.134005e+002 5.902884e+002 5.937776e+002
         vertex 8.284005e+002 5.902884e+002 5.937776e+002
         vertex 8.284005e+002 6.202884e+002 5.937776e+002
      endloop
   endfacet
   facet normal 0.000000e+000 0.000000e+000 1.000000e+000
      outer loop
         vertex 1.020901e+003 5.702883e+002 5.937776e+002
         vertex 1.020901e+003 6.402883e+002 5.937776e+002
         vertex 9.934005e+002 6.202884e+002 5.937776e+002
      endloop
   endfacet
   facet normal 0.000000e+000 0.000000e+000 1.000000e+000
      outer loop
         vertex 9.934005e+002 6.202884e+002 5.937776e+002
         vertex 1.020901e+003 6.402883e+002 5.937776e+002
         vertex 9.934005e+002 6.402883e+002 5.937776e+002
      endloop
   endfacet
   facet normal 0.000000e+000 0.000000e+000 1.000000e+000
      outer loop
         vertex 9.131110e+002 7.516899e+002 5.937776e+002
         vertex 9.067178e+002 7.437720e+002 5.937776e+002
         vertex 8.134005e+002 6.202884e+002 5.937776e+002
      endloop
   endfacet
   facet normal 0.000000e+000 0.000000e+000 1.000000e+000
      outer loop
         vertex 8.134005e+002 6.202884e+002 5.937776e+002
         vertex 9.067178e+002 7.437720e+002 5.937776e+002
         vertex 8.990785e+002 7.370486e+002 5.937776e+002
      endloop
   endfacet
   facet normal 0.000000e+000 0.000000e+000 1.000000e+000
      outer loop
         vertex 8.134005e+002 6.202884e+002 5.937776e+002
         vertex 8.990785e+002 7.370486e+002 5.937776e+002
         vertex 8.904127e+002 7.317128e+002 5.937776e+002
      endloop
   endfacet
   facet normal 0.000000e+000 0.000000e+000 1.000000e+000
      outer loop
         vertex 9.934005e+002 6.202884e+002 5.937776e+002
         vertex 9.934005e+002 5.902884e+002 5.937776e+002
         vertex 1.020901e+003 5.702883e+002 5.937776e+002
      endloop
   endfacet
   facet normal 0.000000e+000 0.000000e+000 1.000000e+000
      outer loop
         vertex 1.020901e+003 5.702883e+002 5.937776e+002
         vertex 9.934005e+002 5.902884e+002 5.937776e+002
         vertex 9.134005e+002 5.902884e+002 5.937776e+002
      endloop
   endfacet
   facet normal 0.000000e+000 0.000000e+000 1.000000e+000
      outer loop
         vertex 1.020901e+003 5.702883e+002 5.937776e+002
         vertex 9.134005e+002 5.902884e+002 5.937776e+002
         vertex 8.984005e+002 5.902884e+002 5.937776e+002
      endloop
   endfacet
   facet normal 0.000000e+000 0.000000e+000 1.000000e+000
      outer loop
         vertex 8.984005e+002 5.902884e+002 5.937776e+002
         vertex 9.134005e+002 5.902884e+002 5.937776e+002
         vertex 9.134005e+002 6.202884e+002 5.937776e+002
      endloop
   endfacet
   facet normal 0.000000e+000 0.000000e+000 1.000000e+000
      outer loop
         vertex 8.984005e+002 5.902884e+002 5.937776e+002
         vertex 9.134005e+002 6.202884e+002 5.937776e+002
         vertex 8.984005e+002 6.202884e+002 5.937776e+002
      endloop
   endfacet
   facet normal 0.000000e+000 0.000000e+000 1.000000e+000
      outer loop
         vertex 8.984005e+002 6.202884e+002 5.937776e+002
         vertex 9.134005e+002 6.202884e+002 5.937776e+002
         vertex 9.131110e+002 7.516899e+002 5.937776e+002
      endloop
   endfacet
   facet normal 0.000000e+000 0.000000e+000 1.000000e+000
      outer loop
         vertex 8.984005e+002 6.202884e+002 5.937776e+002
         vertex 9.131110e+002 7.516899e+002 5.937776e+002
         vertex 8.284005e+002 6.202884e+002 5.937776e+002
      endloop
   endfacet
   facet normal 0.000000e+000 0.000000e+000 1.000000e+000
      outer loop
         vertex 8.284005e+002 6.202884e+002 5.937776e+002
         vertex 9.131110e+002 7.516899e+002 5.937776e+002
         vertex 8.134005e+002 6.202884e+002 5.937776e+002
      endloop
   endfacet
   facet normal 0.000000e+000 0.000000e+000 1.000000e+000
      outer loop
         vertex 8.284005e+002 6.202884e+002 5.937776e+002
         vertex 8.134005e+002 6.202884e+002 5.937776e+002
         vertex 8.134005e+002 5.902884e+002 5.937776e+002
      endloop
   endfacet
   facet normal 0.000000e+000 0.000000e+000 1.000000e+000
      outer loop
         vertex 9.231843e+002 7.802000e+002 5.937776e+002
         vertex 9.214644e+002 7.701697e+002 5.937776e+002
         vertex 9.934005e+002 7.002883e+002 5.937776e+002
      endloop
   endfacet
   facet normal 0.000000e+000 0.000000e+000 1.000000e+000
      outer loop
         vertex 7.334005e+002 7.002883e+002 5.937776e+002
         vertex 8.110196e+002 7.560267e+002 5.937776e+002
         vertex 8.068278e+002 7.653000e+002 5.937776e+002
      endloop
   endfacet
   facet normal 0.000000e+000 0.000000e+000 1.000000e+000
      outer loop
         vertex 8.167183e+002 8.229816e+002 5.937776e+002
         vertex 7.334005e+002 8.952883e+002 5.937776e+002
         vertex 8.110196e+002 8.145500e+002 5.937776e+002
      endloop
   endfacet
   facet normal 0.000000e+000 0.000000e+000 1.000000e+000
      outer loop
         vertex 8.110196e+002 8.145500e+002 5.937776e+002
         vertex 7.334005e+002 8.952883e+002 5.937776e+002
         vertex 8.068278e+002 8.052767e+002 5.937776e+002
      endloop
   endfacet
   facet normal 0.000000e+000 0.000000e+000 1.000000e+000
      outer loop
         vertex 9.214644e+002 7.701697e+002 5.937776e+002
         vertex 9.180742e+002 7.605743e+002 5.937776e+002
         vertex 9.934005e+002 7.002883e+002 5.937776e+002
      endloop
   endfacet
   facet normal 0.000000e+000 0.000000e+000 1.000000e+000
      outer loop
         vertex 9.934005e+002 7.002883e+002 5.937776e+002
         vertex 9.180742e+002 7.605743e+002 5.937776e+002
         vertex 9.131110e+002 7.516899e+002 5.937776e+002
      endloop
   endfacet
   facet normal 0.000000e+000 0.000000e+000 1.000000e+000
      outer loop
         vertex 9.934005e+002 7.002883e+002 5.937776e+002
         vertex 9.131110e+002 7.516899e+002 5.937776e+002
         vertex 9.934005e+002 6.402883e+002 5.937776e+002
      endloop
   endfacet
   facet normal 0.000000e+000 0.000000e+000 1.000000e+000
      outer loop
         vertex 9.934005e+002 6.402883e+002 5.937776e+002
         vertex 9.131110e+002 7.516899e+002 5.937776e+002
         vertex 9.134005e+002 6.202884e+002 5.937776e+002
      endloop
   endfacet
   facet normal 0.000000e+000 0.000000e+000 1.000000e+000
      outer loop
         vertex 9.934005e+002 6.402883e+002 5.937776e+002
         vertex 9.134005e+002 6.202884e+002 5.937776e+002
         vertex 9.934005e+002 6.202884e+002 5.937776e+002
      endloop
   endfacet
   facet normal 0.000000e+000 0.000000e+000 1.000000e+000
      outer loop
         vertex 8.904127e+002 7.317128e+002 5.937776e+002
         vertex 8.809698e+002 7.279184e+002 5.937776e+002
         vertex 8.134005e+002 6.202884e+002 5.937776e+002
      endloop
   endfacet
   facet normal 0.000000e+000 0.000000e+000 1.000000e+000
      outer loop
         vertex 8.134005e+002 6.202884e+002 5.937776e+002
         vertex 8.809698e+002 7.279184e+002 5.937776e+002
         vertex 8.710215e+002 7.257744e+002 5.937776e+002
      endloop
   endfacet
   facet normal 0.000000e+000 0.000000e+000 1.000000e+000
      outer loop
         vertex 8.134005e+002 6.202884e+002 5.937776e+002
         vertex 8.710215e+002 7.257744e+002 5.937776e+002
         vertex 8.608539e+002 7.253425e+002 5.937776e+002
      endloop
   endfacet
   facet normal 0.000000e+000 0.000000e+000 1.000000e+000
      outer loop
         vertex 7.334005e+002 6.402883e+002 5.937776e+002
         vertex 8.237599e+002 7.402480e+002 5.937776e+002
         vertex 7.334005e+002 7.002883e+002 5.937776e+002
      endloop
   endfacet
   facet normal 0.000000e+000 0.000000e+000 1.000000e+000
      outer loop
         vertex 7.334005e+002 7.002883e+002 5.937776e+002
         vertex 8.237599e+002 7.402480e+002 5.937776e+002
         vertex 8.167183e+002 7.475952e+002 5.937776e+002
      endloop
   endfacet
   facet normal 0.000000e+000 0.000000e+000 1.000000e+000
      outer loop
         vertex 7.334005e+002 7.002883e+002 5.937776e+002
         vertex 8.167183e+002 7.475952e+002 5.937776e+002
         vertex 8.110196e+002 7.560267e+002 5.937776e+002
      endloop
   endfacet
   facet normal 0.000000e+000 0.000000e+000 1.000000e+000
      outer loop
         vertex 8.068278e+002 7.653000e+002 5.937776e+002
         vertex 8.042635e+002 7.751483e+002 5.937776e+002
         vertex 7.334005e+002 7.002883e+002 5.937776e+002
      endloop
   endfacet
   facet normal 0.000000e+000 0.000000e+000 1.000000e+000
      outer loop
         vertex 7.334005e+002 7.002883e+002 5.937776e+002
         vertex 8.042635e+002 7.751483e+002 5.937776e+002
         vertex 8.034005e+002 7.852884e+002 5.937776e+002
      endloop
   endfacet
   facet normal 0.000000e+000 0.000000e+000 1.000000e+000
      outer loop
         vertex 7.334005e+002 7.002883e+002 5.937776e+002
         vertex 8.034005e+002 7.852884e+002 5.937776e+002
         vertex 7.334005e+002 8.952883e+002 5.937776e+002
      endloop
   endfacet
   facet normal 0.000000e+000 0.000000e+000 1.000000e+000
      outer loop
         vertex 7.334005e+002 8.952883e+002 5.937776e+002
         vertex 8.034005e+002 7.852884e+002 5.937776e+002
         vertex 8.042635e+002 7.954284e+002 5.937776e+002
      endloop
   endfacet
   facet normal 0.000000e+000 0.000000e+000 1.000000e+000
      outer loop
         vertex 7.334005e+002 8.952883e+002 5.937776e+002
         vertex 8.042635e+002 7.954284e+002 5.937776e+002
         vertex 8.068278e+002 8.052767e+002 5.937776e+002
      endloop
   endfacet
   facet normal 0.000000e+000 0.000000e+000 1.000000e+000
      outer loop
         vertex 8.167183e+002 8.229816e+002 5.937776e+002
         vertex 8.237599e+002 8.303287e+002 5.937776e+002
         vertex 7.334005e+002 8.952883e+002 5.937776e+002
      endloop
   endfacet
   facet normal 0.000000e+000 0.000000e+000 1.000000e+000
      outer loop
         vertex 7.334005e+002 8.952883e+002 5.937776e+002
         vertex 8.237599e+002 8.303287e+002 5.937776e+002
         vertex 8.319420e+002 8.363801e+002 5.937776e+002
      endloop
   endfacet
   facet normal 0.000000e+000 0.000000e+000 1.000000e+000
      outer loop
         vertex 7.334005e+002 8.952883e+002 5.937776e+002
         vertex 8.319420e+002 8.363801e+002 5.937776e+002
         vertex 8.410291e+002 8.409617e+002 5.937776e+002
      endloop
   endfacet
   facet normal 0.000000e+000 0.000000e+000 1.000000e+000
      outer loop
         vertex 8.710215e+002 8.448024e+002 5.937776e+002
         vertex 9.934005e+002 8.952883e+002 5.937776e+002
         vertex 8.608539e+002 8.452343e+002 5.937776e+002
      endloop
   endfacet
   facet normal 0.000000e+000 0.000000e+000 1.000000e+000
      outer loop
         vertex 8.608539e+002 8.452343e+002 5.937776e+002
         vertex 9.934005e+002 8.952883e+002 5.937776e+002
         vertex 7.334005e+002 8.952883e+002 5.937776e+002
      endloop
   endfacet
   facet normal 0.000000e+000 0.000000e+000 1.000000e+000
      outer loop
         vertex 8.608539e+002 8.452343e+002 5.937776e+002
         vertex 7.334005e+002 8.952883e+002 5.937776e+002
         vertex 8.507598e+002 8.439417e+002 5.937776e+002
      endloop
   endfacet
   facet normal 0.000000e+000 0.000000e+000 1.000000e+000
      outer loop
         vertex 8.507598e+002 8.439417e+002 5.937776e+002
         vertex 7.334005e+002 8.952883e+002 5.937776e+002
         vertex 8.410291e+002 8.409617e+002 5.937776e+002
      endloop
   endfacet
   facet normal 0.000000e+000 0.000000e+000 1.000000e+000
      outer loop
         vertex 8.710215e+002 8.448024e+002 5.937776e+002
         vertex 8.809698e+002 8.426584e+002 5.937776e+002
         vertex 9.934005e+002 8.952883e+002 5.937776e+002
      endloop
   endfacet
   facet normal 0.000000e+000 0.000000e+000 1.000000e+000
      outer loop
         vertex 9.934005e+002 8.952883e+002 5.937776e+002
         vertex 8.809698e+002 8.426584e+002 5.937776e+002
         vertex 8.904127e+002 8.388639e+002 5.937776e+002
      endloop
   endfacet
   facet normal 0.000000e+000 0.000000e+000 1.000000e+000
      outer loop
         vertex 9.934005e+002 8.952883e+002 5.937776e+002
         vertex 8.904127e+002 8.388639e+002 5.937776e+002
         vertex 8.990785e+002 8.335282e+002 5.937776e+002
      endloop
   endfacet
   facet normal 0.000000e+000 0.000000e+000 1.000000e+000
      outer loop
         vertex 9.180742e+002 8.100024e+002 5.937776e+002
         vertex 9.214644e+002 8.004070e+002 5.937776e+002
         vertex 9.934005e+002 8.952883e+002 5.937776e+002
      endloop
   endfacet
   facet normal 0.000000e+000 0.000000e+000 1.000000e+000
      outer loop
         vertex 9.934005e+002 8.952883e+002 5.937776e+002
         vertex 9.214644e+002 8.004070e+002 5.937776e+002
         vertex 9.231843e+002 7.903767e+002 5.937776e+002
      endloop
   endfacet
   facet normal 0.000000e+000 0.000000e+000 1.000000e+000
      outer loop
         vertex 9.934005e+002 8.952883e+002 5.937776e+002
         vertex 9.231843e+002 7.903767e+002 5.937776e+002
         vertex 9.934005e+002 7.002883e+002 5.937776e+002
      endloop
   endfacet
   facet normal 0.000000e+000 0.000000e+000 1.000000e+000
      outer loop
         vertex 9.934005e+002 7.002883e+002 5.937776e+002
         vertex 9.231843e+002 7.903767e+002 5.937776e+002
         vertex 9.234005e+002 7.852884e+002 5.937776e+002
      endloop
   endfacet
   facet normal 0.000000e+000 0.000000e+000 1.000000e+000
      outer loop
         vertex 9.934005e+002 7.002883e+002 5.937776e+002
         vertex 9.234005e+002 7.852884e+002 5.937776e+002
         vertex 9.231843e+002 7.802000e+002 5.937776e+002
      endloop
   endfacet
   facet normal 0.000000e+000 0.000000e+000 1.000000e+000
      outer loop
         vertex 8.990785e+002 8.335282e+002 5.937776e+002
         vertex 9.067178e+002 8.268047e+002 5.937776e+002
         vertex 9.934005e+002 8.952883e+002 5.937776e+002
      endloop
   endfacet
   facet normal 0.000000e+000 0.000000e+000 1.000000e+000
      outer loop
         vertex 9.934005e+002 8.952883e+002 5.937776e+002
         vertex 9.067178e+002 8.268047e+002 5.937776e+002
         vertex 9.131110e+002 8.188869e+002 5.937776e+002
      endloop
   endfacet
   facet normal 0.000000e+000 0.000000e+000 1.000000e+000
      outer loop
         vertex 9.934005e+002 8.952883e+002 5.937776e+002
         vertex 9.131110e+002 8.188869e+002 5.937776e+002
         vertex 9.180742e+002 8.100024e+002 5.937776e+002
      endloop
   endfacet
   facet normal 0.000000e+000 0.000000e+000 1.000000e+000
      outer loop
         vertex 8.608539e+002 7.253425e+002 5.937776e+002
         vertex 8.507598e+002 7.266350e+002 5.937776e+002
         vertex 8.134005e+002 6.202884e+002 5.937776e+002
      endloop
   endfacet
   facet normal 0.000000e+000 0.000000e+000 1.000000e+000
      outer loop
         vertex 8.134005e+002 6.202884e+002 5.937776e+002
         vertex 8.507598e+002 7.266350e+002 5.937776e+002
         vertex 8.410291e+002 7.296151e+002 5.937776e+002
      endloop
   endfacet
   facet normal 0.000000e+000 0.000000e+000 1.000000e+000
      outer loop
         vertex 8.134005e+002 6.202884e+002 5.937776e+002
         vertex 8.410291e+002 7.296151e+002 5.937776e+002
         vertex 7.334005e+002 6.402883e+002 5.937776e+002
      endloop
   endfacet
   facet normal 0.000000e+000 0.000000e+000 1.000000e+000
      outer loop
         vertex 7.334005e+002 6.402883e+002 5.937776e+002
         vertex 8.410291e+002 7.296151e+002 5.937776e+002
         vertex 8.319420e+002 7.341966e+002 5.937776e+002
      endloop
   endfacet
   facet normal 0.000000e+000 0.000000e+000 1.000000e+000
      outer loop
         vertex 7.334005e+002 6.402883e+002 5.937776e+002
         vertex 8.319420e+002 7.341966e+002 5.937776e+002
         vertex 8.237599e+002 7.402480e+002 5.937776e+002
      endloop
   endfacet
   facet normal 0.000000e+000 0.000000e+000 -1.000000e+000
      outer loop
         vertex 8.042635e+002 7.751483e+002 5.857776e+002
         vertex 8.068278e+002 7.653000e+002 5.857776e+002
         vertex 7.334005e+002 7.002883e+002 5.857776e+002
      endloop
   endfacet
   facet normal 0.000000e+000 0.000000e+000 -1.000000e+000
      outer loop
         vertex 8.237599e+002 8.303287e+002 5.857776e+002
         vertex 8.167183e+002 8.229816e+002 5.857776e+002
         vertex 7.334005e+002 8.952883e+002 5.857776e+002
      endloop
   endfacet
   facet normal 0.000000e+000 0.000000e+000 -1.000000e+000
      outer loop
         vertex 7.334005e+002 8.952883e+002 5.857776e+002
         vertex 8.167183e+002 8.229816e+002 5.857776e+002
         vertex 8.110196e+002 8.145500e+002 5.857776e+002
      endloop
   endfacet
   facet normal 0.000000e+000 0.000000e+000 -1.000000e+000
      outer loop
         vertex 8.110196e+002 8.145500e+002 5.857776e+002
         vertex 8.068278e+002 8.052767e+002 5.857776e+002
         vertex 7.334005e+002 8.952883e+002 5.857776e+002
      endloop
   endfacet
   facet normal 0.000000e+000 0.000000e+000 -1.000000e+000
      outer loop
         vertex 7.334005e+002 8.952883e+002 5.857776e+002
         vertex 8.068278e+002 8.052767e+002 5.857776e+002
         vertex 8.042635e+002 7.954284e+002 5.857776e+002
      endloop
   endfacet
   facet normal 0.000000e+000 0.000000e+000 -1.000000e+000
      outer loop
         vertex 7.334005e+002 8.952883e+002 5.857776e+002
         vertex 8.042635e+002 7.954284e+002 5.857776e+002
         vertex 7.334005e+002 7.002883e+002 5.857776e+002
      endloop
   endfacet
   facet normal 0.000000e+000 0.000000e+000 -1.000000e+000
      outer loop
         vertex 7.334005e+002 7.002883e+002 5.857776e+002
         vertex 8.042635e+002 7.954284e+002 5.857776e+002
         vertex 8.034005e+002 7.852884e+002 5.857776e+002
      endloop
   endfacet
   facet normal 0.000000e+000 0.000000e+000 -1.000000e+000
      outer loop
         vertex 7.334005e+002 7.002883e+002 5.857776e+002
         vertex 8.034005e+002 7.852884e+002 5.857776e+002
         vertex 8.042635e+002 7.751483e+002 5.857776e+002
      endloop
   endfacet
   facet normal 0.000000e+000 0.000000e+000 -1.000000e+000
      outer loop
         vertex 8.809698e+002 7.279184e+002 5.857776e+002
         vertex 8.904127e+002 7.317128e+002 5.857776e+002
         vertex 9.934005e+002 6.402883e+002 5.857776e+002
      endloop
   endfacet
   facet normal 0.000000e+000 0.000000e+000 -1.000000e+000
      outer loop
         vertex 9.934005e+002 7.002883e+002 5.857776e+002
         vertex 9.180742e+002 7.605743e+002 5.857776e+002
         vertex 9.214644e+002 7.701697e+002 5.857776e+002
      endloop
   endfacet
   facet normal 0.000000e+000 0.000000e+000 -1.000000e+000
      outer loop
         vertex 8.319420e+002 7.341966e+002 5.857776e+002
         vertex 8.410291e+002 7.296151e+002 5.857776e+002
         vertex 7.334005e+002 6.402883e+002 5.857776e+002
      endloop
   endfacet
   facet normal 0.000000e+000 0.000000e+000 -1.000000e+000
      outer loop
         vertex 8.904127e+002 7.317128e+002 5.857776e+002
         vertex 8.990785e+002 7.370486e+002 5.857776e+002
         vertex 9.934005e+002 6.402883e+002 5.857776e+002
      endloop
   endfacet
   facet normal 0.000000e+000 0.000000e+000 -1.000000e+000
      outer loop
         vertex 9.934005e+002 6.402883e+002 5.857776e+002
         vertex 8.990785e+002 7.370486e+002 5.857776e+002
         vertex 9.067178e+002 7.437720e+002 5.857776e+002
      endloop
   endfacet
   facet normal 0.000000e+000 0.000000e+000 -1.000000e+000
      outer loop
         vertex 9.934005e+002 6.402883e+002 5.857776e+002
         vertex 9.067178e+002 7.437720e+002 5.857776e+002
         vertex 9.934005e+002 7.002883e+002 5.857776e+002
      endloop
   endfacet
   facet normal 0.000000e+000 0.000000e+000 -1.000000e+000
      outer loop
         vertex 9.934005e+002 7.002883e+002 5.857776e+002
         vertex 9.067178e+002 7.437720e+002 5.857776e+002
         vertex 9.131110e+002 7.516899e+002 5.857776e+002
      endloop
   endfacet
   facet normal 0.000000e+000 0.000000e+000 -1.000000e+000
      outer loop
         vertex 9.934005e+002 7.002883e+002 5.857776e+002
         vertex 9.131110e+002 7.516899e+002 5.857776e+002
         vertex 9.180742e+002 7.605743e+002 5.857776e+002
      endloop
   endfacet
   facet normal 0.000000e+000 0.000000e+000 -1.000000e+000
      outer loop
         vertex 8.507598e+002 8.439417e+002 5.857776e+002
         vertex 8.410291e+002 8.409617e+002 5.857776e+002
         vertex 7.334005e+002 8.952883e+002 5.857776e+002
      endloop
   endfacet
   facet normal 0.000000e+000 0.000000e+000 -1.000000e+000
      outer loop
         vertex 7.334005e+002 8.952883e+002 5.857776e+002
         vertex 8.410291e+002 8.409617e+002 5.857776e+002
         vertex 8.319420e+002 8.363801e+002 5.857776e+002
      endloop
   endfacet
   facet normal 0.000000e+000 0.000000e+000 -1.000000e+000
      outer loop
         vertex 7.334005e+002 8.952883e+002 5.857776e+002
         vertex 8.319420e+002 8.363801e+002 5.857776e+002
         vertex 8.237599e+002 8.303287e+002 5.857776e+002
      endloop
   endfacet
   facet normal 0.000000e+000 0.000000e+000 -1.000000e+000
      outer loop
         vertex 8.068278e+002 7.653000e+002 5.857776e+002
         vertex 8.110196e+002 7.560267e+002 5.857776e+002
         vertex 7.334005e+002 7.002883e+002 5.857776e+002
      endloop
   endfacet
   facet normal 0.000000e+000 0.000000e+000 -1.000000e+000
      outer loop
         vertex 7.334005e+002 7.002883e+002 5.857776e+002
         vertex 8.110196e+002 7.560267e+002 5.857776e+002
         vertex 8.167183e+002 7.475952e+002 5.857776e+002
      endloop
   endfacet
   facet normal 0.000000e+000 0.000000e+000 -1.000000e+000
      outer loop
         vertex 7.334005e+002 7.002883e+002 5.857776e+002
         vertex 8.167183e+002 7.475952e+002 5.857776e+002
         vertex 7.334005e+002 6.402883e+002 5.857776e+002
      endloop
   endfacet
   facet normal 0.000000e+000 0.000000e+000 -1.000000e+000
      outer loop
         vertex 7.334005e+002 6.402883e+002 5.857776e+002
         vertex 8.167183e+002 7.475952e+002 5.857776e+002
         vertex 8.237599e+002 7.402480e+002 5.857776e+002
      endloop
   endfacet
   facet normal 0.000000e+000 0.000000e+000 -1.000000e+000
      outer loop
         vertex 7.334005e+002 6.402883e+002 5.857776e+002
         vertex 8.237599e+002 7.402480e+002 5.857776e+002
         vertex 8.319420e+002 7.341966e+002 5.857776e+002
      endloop
   endfacet
   facet normal 0.000000e+000 0.000000e+000 -1.000000e+000
      outer loop
         vertex 8.410291e+002 7.296151e+002 5.857776e+002
         vertex 8.507598e+002 7.266350e+002 5.857776e+002
         vertex 7.334005e+002 6.402883e+002 5.857776e+002
      endloop
   endfacet
   facet normal 0.000000e+000 0.000000e+000 -1.000000e+000
      outer loop
         vertex 7.334005e+002 6.402883e+002 5.857776e+002
         vertex 8.507598e+002 7.266350e+002 5.857776e+002
         vertex 8.608539e+002 7.253425e+002 5.857776e+002
      endloop
   endfacet
   facet normal 0.000000e+000 0.000000e+000 -1.000000e+000
      outer loop
         vertex 7.334005e+002 6.402883e+002 5.857776e+002
         vertex 8.608539e+002 7.253425e+002 5.857776e+002
         vertex 9.934005e+002 6.402883e+002 5.857776e+002
      endloop
   endfacet
   facet normal 0.000000e+000 0.000000e+000 -1.000000e+000
      outer loop
         vertex 9.934005e+002 6.402883e+002 5.857776e+002
         vertex 8.608539e+002 7.253425e+002 5.857776e+002
         vertex 8.710215e+002 7.257744e+002 5.857776e+002
      endloop
   endfacet
   facet normal 0.000000e+000 0.000000e+000 -1.000000e+000
      outer loop
         vertex 9.934005e+002 6.402883e+002 5.857776e+002
         vertex 8.710215e+002 7.257744e+002 5.857776e+002
         vertex 8.809698e+002 7.279184e+002 5.857776e+002
      endloop
   endfacet
   facet normal 0.000000e+000 0.000000e+000 -1.000000e+000
      outer loop
         vertex 9.214644e+002 8.004070e+002 5.857776e+002
         vertex 9.180742e+002 8.100024e+002 5.857776e+002
         vertex 9.934005e+002 8.952883e+002 5.857776e+002
      endloop
   endfacet
   facet normal 0.000000e+000 0.000000e+000 -1.000000e+000
      outer loop
         vertex 9.934005e+002 8.952883e+002 5.857776e+002
         vertex 9.180742e+002 8.100024e+002 5.857776e+002
         vertex 9.131110e+002 8.188869e+002 5.857776e+002
      endloop
   endfacet
   facet normal 0.000000e+000 0.000000e+000 -1.000000e+000
      outer loop
         vertex 8.904127e+002 8.388639e+002 5.857776e+002
         vertex 8.809698e+002 8.426584e+002 5.857776e+002
         vertex 9.934005e+002 8.952883e+002 5.857776e+002
      endloop
   endfacet
   facet normal 0.000000e+000 0.000000e+000 -1.000000e+000
      outer loop
         vertex 9.934005e+002 8.952883e+002 5.857776e+002
         vertex 8.809698e+002 8.426584e+002 5.857776e+002
         vertex 8.710215e+002 8.448024e+002 5.857776e+002
      endloop
   endfacet
   facet normal 0.000000e+000 0.000000e+000 -1.000000e+000
      outer loop
         vertex 9.934005e+002 8.952883e+002 5.857776e+002
         vertex 8.710215e+002 8.448024e+002 5.857776e+002
         vertex 7.334005e+002 8.952883e+002 5.857776e+002
      endloop
   endfacet
   facet normal 0.000000e+000 0.000000e+000 -1.000000e+000
      outer loop
         vertex 7.334005e+002 8.952883e+002 5.857776e+002
         vertex 8.710215e+002 8.448024e+002 5.857776e+002
         vertex 8.608539e+002 8.452343e+002 5.857776e+002
      endloop
   endfacet
   facet normal 0.000000e+000 0.000000e+000 -1.000000e+000
      outer loop
         vertex 7.334005e+002 8.952883e+002 5.857776e+002
         vertex 8.608539e+002 8.452343e+002 5.857776e+002
         vertex 8.507598e+002 8.439417e+002 5.857776e+002
      endloop
   endfacet
   facet normal 0.000000e+000 0.000000e+000 -1.000000e+000
      outer loop
         vertex 9.131110e+002 8.188869e+002 5.857776e+002
         vertex 9.067178e+002 8.268047e+002 5.857776e+002
         vertex 9.934005e+002 8.952883e+002 5.857776e+002
      endloop
   endfacet
   facet normal 0.000000e+000 0.000000e+000 -1.000000e+000
      outer loop
         vertex 9.934005e+002 8.952883e+002 5.857776e+002
         vertex 9.067178e+002 8.268047e+002 5.857776e+002
         vertex 8.990785e+002 8.335282e+002 5.857776e+002
      endloop
   endfacet
   facet normal 0.000000e+000 0.000000e+000 -1.000000e+000
      outer loop
         vertex 9.934005e+002 8.952883e+002 5.857776e+002
         vertex 8.990785e+002 8.335282e+002 5.857776e+002
         vertex 8.904127e+002 8.388639e+002 5.857776e+002
      endloop
   endfacet
   facet normal 0.000000e+000 0.000000e+000 -1.000000e+000
      outer loop
         vertex 9.214644e+002 7.701697e+002 5.857776e+002
         vertex 9.231843e+002 7.802000e+002 5.857776e+002
         vertex 9.934005e+002 7.002883e+002 5.857776e+002
      endloop
   endfacet
   facet normal 0.000000e+000 0.000000e+000 -1.000000e+000
      outer loop
         vertex 9.934005e+002 7.002883e+002 5.857776e+002
         vertex 9.231843e+002 7.802000e+002 5.857776e+002
         vertex 9.234005e+002 7.852884e+002 5.857776e+002
      endloop
   endfacet
   facet normal 0.000000e+000 0.000000e+000 -1.000000e+000
      outer loop
         vertex 9.934005e+002 7.002883e+002 5.857776e+002
         vertex 9.234005e+002 7.852884e+002 5.857776e+002
         vertex 9.934005e+002 8.952883e+002 5.857776e+002
      endloop
   endfacet
   facet normal 0.000000e+000 0.000000e+000 -1.000000e+000
      outer loop
         vertex 9.934005e+002 8.952883e+002 5.857776e+002
         vertex 9.234005e+002 7.852884e+002 5.857776e+002
         vertex 9.231843e+002 7.903767e+002 5.857776e+002
      endloop
   endfacet
   facet normal 0.000000e+000 0.000000e+000 -1.000000e+000
      outer loop
         vertex 9.934005e+002 8.952883e+002 5.857776e+002
         vertex 9.231843e+002 7.903767e+002 5.857776e+002
         vertex 9.214644e+002 8.004070e+002 5.857776e+002
      endloop
   endfacet
   facet normal -1.000000e+000 -2.721135e-016 0.000000e+000
      outer loop
         vertex 7.334005e+002 7.002883e+002 5.937776e+002
         vertex 7.334005e+002 8.952883e+002 5.937776e+002
         vertex 7.334005e+002 7.002883e+002 5.857776e+002
      endloop
   endfacet
   facet normal -1.000000e+000 -2.721135e-016 0.000000e+000
      outer loop
         vertex 7.334005e+002 7.002883e+002 5.857776e+002
         vertex 7.334005e+002 8.952883e+002 5.937776e+002
         vertex 7.334005e+002 8.952883e+002 5.857776e+002
      endloop
   endfacet
   facet normal 1.000000e+000 0.000000e+000 0.000000e+000
      outer loop
         vertex 9.934005e+002 7.002883e+002 5.857776e+002
         vertex 9.934005e+002 8.952883e+002 5.857776e+002
         vertex 9.934005e+002 7.002883e+002 5.937776e+002
      endloop
   endfacet
   facet normal 1.000000e+000 0.000000e+000 0.000000e+000
      outer loop
         vertex 9.934005e+002 7.002883e+002 5.937776e+002
         vertex 9.934005e+002 8.952883e+002 5.857776e+002
         vertex 9.934005e+002 8.952883e+002 5.937776e+002
      endloop
   endfacet
   facet normal 2.135044e-016 1.000000e+000 0.000000e+000
      outer loop
         vertex 7.334005e+002 8.952883e+002 5.937776e+002
         vertex 9.934005e+002 8.952883e+002 5.937776e+002
         vertex 7.334005e+002 8.952883e+002 5.857776e+002
      endloop
   endfacet
   facet normal 2.135044e-016 1.000000e+000 0.000000e+000
      outer loop
         vertex 7.334005e+002 8.952883e+002 5.857776e+002
         vertex 9.934005e+002 8.952883e+002 5.937776e+002
         vertex 9.934005e+002 8.952883e+002 5.857776e+002
      endloop
   endfacet
   facet normal -9.995997e-001 2.829130e-002 0.000000e+000
      outer loop
         vertex 9.231843e+002 7.802000e+002 5.937776e+002
         vertex 9.234005e+002 7.852884e+002 5.937776e+002
         vertex 9.234005e+002 7.852884e+002 5.857776e+002
      endloop
   endfacet
   facet normal -9.995997e-001 -2.829130e-002 0.000000e+000
      outer loop
         vertex 9.234005e+002 7.852884e+002 5.857776e+002
         vertex 9.234005e+002 7.852884e+002 5.937776e+002
         vertex 9.231843e+002 7.903767e+002 5.857776e+002
      endloop
   endfacet
   facet normal -9.983979e-001 5.658260e-002 0.000000e+000
      outer loop
         vertex 9.234005e+002 7.852884e+002 5.857776e+002
         vertex 9.231843e+002 7.802000e+002 5.857776e+002
         vertex 9.231843e+002 7.802000e+002 5.937776e+002
      endloop
   endfacet
   facet normal -9.900122e-001 1.409813e-001 0.000000e+000
      outer loop
         vertex 9.231843e+002 7.802000e+002 5.937776e+002
         vertex 9.231843e+002 7.802000e+002 5.857776e+002
         vertex 9.214644e+002 7.701697e+002 5.857776e+002
      endloop
   endfacet
   facet normal -9.804267e-001 1.968844e-001 0.000000e+000
      outer loop
         vertex 9.231843e+002 7.802000e+002 5.937776e+002
         vertex 9.214644e+002 7.701697e+002 5.857776e+002
         vertex 9.214644e+002 7.701697e+002 5.937776e+002
      endloop
   endfacet
   facet normal -9.519459e-001 3.062663e-001 0.000000e+000
      outer loop
         vertex 9.214644e+002 7.701697e+002 5.937776e+002
         vertex 9.214644e+002 7.701697e+002 5.857776e+002
         vertex 9.180742e+002 7.605743e+002 5.857776e+002
      endloop
   endfacet
   facet normal -9.330506e-001 3.597453e-001 0.000000e+000
      outer loop
         vertex 9.214644e+002 7.701697e+002 5.937776e+002
         vertex 9.180742e+002 7.605743e+002 5.857776e+002
         vertex 9.180742e+002 7.605743e+002 5.937776e+002
      endloop
   endfacet
   facet normal -8.864937e-001 4.627406e-001 0.000000e+000
      outer loop
         vertex 9.180742e+002 7.605743e+002 5.937776e+002
         vertex 9.180742e+002 7.605743e+002 5.857776e+002
         vertex 9.131110e+002 7.516899e+002 5.857776e+002
      endloop
   endfacet
   facet normal -8.588322e-001 5.122570e-001 0.000000e+000
      outer loop
         vertex 9.180742e+002 7.605743e+002 5.937776e+002
         vertex 9.131110e+002 7.516899e+002 5.857776e+002
         vertex 9.131110e+002 7.516899e+002 5.937776e+002
      endloop
   endfacet
   facet normal -7.955388e-001 6.059027e-001 0.000000e+000
      outer loop
         vertex 9.131110e+002 7.516899e+002 5.937776e+002
         vertex 9.131110e+002 7.516899e+002 5.857776e+002
         vertex 9.067178e+002 7.437720e+002 5.857776e+002
      endloop
   endfacet
   facet normal -7.599069e-001 6.500320e-001 0.000000e+000
      outer loop
         vertex 9.131110e+002 7.516899e+002 5.937776e+002
         vertex 9.067178e+002 7.437720e+002 5.857776e+002
         vertex 9.067178e+002 7.437720e+002 5.937776e+002
      endloop
   endfacet
   facet normal -6.816977e-001 7.316340e-001 0.000000e+000
      outer loop
         vertex 9.067178e+002 7.437720e+002 5.937776e+002
         vertex 9.067178e+002 7.437720e+002 5.857776e+002
         vertex 8.990785e+002 7.370486e+002 5.857776e+002
      endloop
   endfacet
   facet normal -6.391203e-001 7.691067e-001 0.000000e+000
      outer loop
         vertex 9.067178e+002 7.437720e+002 5.937776e+002
         vertex 8.990785e+002 7.370486e+002 5.857776e+002
         vertex 8.990785e+002 7.370486e+002 5.937776e+002
      endloop
   endfacet
   facet normal -5.482453e-001 8.363176e-001 0.000000e+000
      outer loop
         vertex 8.990785e+002 7.370486e+002 5.937776e+002
         vertex 8.990785e+002 7.370486e+002 5.857776e+002
         vertex 8.904127e+002 7.317128e+002 5.857776e+002
      endloop
   endfacet
   facet normal -4.999475e-001 8.660557e-001 0.000000e+000
      outer loop
         vertex 8.990785e+002 7.370486e+002 5.937776e+002
         vertex 8.904127e+002 7.317128e+002 5.857776e+002
         vertex 8.904127e+002 7.317128e+002 5.937776e+002
      endloop
   endfacet
   facet normal -3.990209e-001 9.169418e-001 0.000000e+000
      outer loop
         vertex 8.904127e+002 7.317128e+002 5.937776e+002
         vertex 8.904127e+002 7.317128e+002 5.857776e+002
         vertex 8.809698e+002 7.279184e+002 5.857776e+002
      endloop
   endfacet
   facet normal -3.463921e-001 9.380898e-001 0.000000e+000
      outer loop
         vertex 8.904127e+002 7.317128e+002 5.937776e+002
         vertex 8.809698e+002 7.279184e+002 5.857776e+002
         vertex 8.809698e+002 7.279184e+002 5.937776e+002
      endloop
   endfacet
   facet normal -2.383175e-001 9.711873e-001 0.000000e+000
      outer loop
         vertex 8.809698e+002 7.279184e+002 5.937776e+002
         vertex 8.809698e+002 7.279184e+002 5.857776e+002
         vertex 8.710215e+002 7.257744e+002 5.857776e+002
      endloop
   endfacet
   facet normal -1.828716e-001 9.831368e-001 0.000000e+000
      outer loop
         vertex 8.809698e+002 7.279184e+002 5.937776e+002
         vertex 8.710215e+002 7.257744e+002 5.857776e+002
         vertex 8.710215e+002 7.257744e+002 5.937776e+002
      endloop
   endfacet
   facet normal -7.075802e-002 9.974935e-001 0.000000e+000
      outer loop
         vertex 8.710215e+002 7.257744e+002 5.937776e+002
         vertex 8.710215e+002 7.257744e+002 5.857776e+002
         vertex 8.608539e+002 7.253425e+002 5.857776e+002
      endloop
   endfacet
   facet normal -1.409025e-002 9.999007e-001 0.000000e+000
      outer loop
         vertex 8.710215e+002 7.257744e+002 5.937776e+002
         vertex 8.608539e+002 7.253425e+002 5.857776e+002
         vertex 8.608539e+002 7.253425e+002 5.937776e+002
      endloop
   endfacet
   facet normal 9.883700e-002 9.951037e-001 0.000000e+000
      outer loop
         vertex 8.608539e+002 7.253425e+002 5.937776e+002
         vertex 8.608539e+002 7.253425e+002 5.857776e+002
         vertex 8.507598e+002 7.266350e+002 5.857776e+002
      endloop
   endfacet
   facet normal 1.550965e-001 9.878993e-001 0.000000e+000
      outer loop
         vertex 8.608539e+002 7.253425e+002 5.937776e+002
         vertex 8.507598e+002 7.266350e+002 5.857776e+002
         vertex 8.507598e+002 7.266350e+002 5.937776e+002
      endloop
   endfacet
   facet normal 2.655886e-001 9.640865e-001 0.000000e+000
      outer loop
         vertex 8.507598e+002 7.266350e+002 5.937776e+002
         vertex 8.507598e+002 7.266350e+002 5.857776e+002
         vertex 8.410291e+002 7.296151e+002 5.857776e+002
      endloop
   endfacet
   facet normal 3.198213e-001 9.474779e-001 0.000000e+000
      outer loop
         vertex 8.507598e+002 7.266350e+002 5.937776e+002
         vertex 8.410291e+002 7.296151e+002 5.857776e+002
         vertex 8.410291e+002 7.296151e+002 5.937776e+002
      endloop
   endfacet
   facet normal 4.246998e-001 9.053342e-001 0.000000e+000
      outer loop
         vertex 8.410291e+002 7.296151e+002 5.937776e+002
         vertex 8.410291e+002 7.296151e+002 5.857776e+002
         vertex 8.319420e+002 7.341966e+002 5.857776e+002
      endloop
   endfacet
   facet normal 4.753455e-001 8.797992e-001 0.000000e+000
      outer loop
         vertex 8.410291e+002 7.296151e+002 5.937776e+002
         vertex 8.319420e+002 7.341966e+002 5.857776e+002
         vertex 8.319420e+002 7.341966e+002 5.937776e+002
      endloop
   endfacet
   facet normal 5.715931e-001 8.205372e-001 0.000000e+000
      outer loop
         vertex 8.319420e+002 7.341966e+002 5.937776e+002
         vertex 8.319420e+002 7.341966e+002 5.857776e+002
         vertex 8.237599e+002 7.402480e+002 5.857776e+002
      endloop
   endfacet
   facet normal 6.171949e-001 7.868103e-001 0.000000e+000
      outer loop
         vertex 8.319420e+002 7.341966e+002 5.937776e+002
         vertex 8.237599e+002 7.402480e+002 5.857776e+002
         vertex 8.237599e+002 7.402480e+002 5.937776e+002
      endloop
   endfacet
   facet normal 7.020428e-001 7.121348e-001 0.000000e+000
      outer loop
         vertex 8.237599e+002 7.402480e+002 5.937776e+002
         vertex 8.237599e+002 7.402480e+002 5.857776e+002
         vertex 8.167183e+002 7.475952e+002 5.857776e+002
      endloop
   endfacet
   facet normal 7.412888e-001 6.711863e-001 0.000000e+000
      outer loop
         vertex 8.237599e+002 7.402480e+002 5.937776e+002
         vertex 8.167183e+002 7.475952e+002 5.857776e+002
         vertex 8.167183e+002 7.475952e+002 5.937776e+002
      endloop
   endfacet
   facet normal 8.122959e-001 5.832456e-001 0.000000e+000
      outer loop
         vertex 8.167183e+002 7.475952e+002 5.937776e+002
         vertex 8.167183e+002 7.475952e+002 5.857776e+002
         vertex 8.110196e+002 7.560267e+002 5.857776e+002
      endloop
   endfacet
   facet normal 8.440570e-001 5.362535e-001 0.000000e+000
      outer loop
         vertex 8.167183e+002 7.475952e+002 5.937776e+002
         vertex 8.110196e+002 7.560267e+002 5.857776e+002
         vertex 8.110196e+002 7.560267e+002 5.937776e+002
      endloop
   endfacet
   facet normal 8.991807e-001 4.375775e-001 0.000000e+000
      outer loop
         vertex 8.110196e+002 7.560267e+002 5.937776e+002
         vertex 8.110196e+002 7.560267e+002 5.857776e+002
         vertex 8.068278e+002 7.653000e+002 5.857776e+002
      endloop
   endfacet
   facet normal 9.225433e-001 3.858936e-001 0.000000e+000
      outer loop
         vertex 8.110196e+002 7.560267e+002 5.937776e+002
         vertex 8.068278e+002 7.653000e+002 5.857776e+002
         vertex 8.068278e+002 7.653000e+002 5.937776e+002
      endloop
   endfacet
   facet normal 9.601977e-001 2.793211e-001 0.000000e+000
      outer loop
         vertex 8.068278e+002 7.653000e+002 5.937776e+002
         vertex 8.068278e+002 7.653000e+002 5.857776e+002
         vertex 8.042635e+002 7.751483e+002 5.857776e+002
      endloop
   endfacet
   facet normal 9.744897e-001 2.244324e-001 0.000000e+000
      outer loop
         vertex 8.068278e+002 7.653000e+002 5.937776e+002
         vertex 8.042635e+002 7.751483e+002 5.857776e+002
         vertex 8.042635e+002 7.751483e+002 5.937776e+002
      endloop
   endfacet
   facet normal 9.935917e-001 1.130291e-001 0.000000e+000
      outer loop
         vertex 8.042635e+002 7.751483e+002 5.937776e+002
         vertex 8.042635e+002 7.751483e+002 5.857776e+002
         vertex 8.034005e+002 7.852884e+002 5.857776e+002
      endloop
   endfacet
   facet normal 9.984018e-001 5.651454e-002 0.000000e+000
      outer loop
         vertex 8.042635e+002 7.751483e+002 5.937776e+002
         vertex 8.034005e+002 7.852884e+002 5.857776e+002
         vertex 8.034005e+002 7.852884e+002 5.937776e+002
      endloop
   endfacet
   facet normal 9.984018e-001 -5.651454e-002 0.000000e+000
      outer loop
         vertex 8.034005e+002 7.852884e+002 5.937776e+002
         vertex 8.034005e+002 7.852884e+002 5.857776e+002
         vertex 8.042635e+002 7.954284e+002 5.857776e+002
      endloop
   endfacet
   facet normal 9.935917e-001 -1.130291e-001 0.000000e+000
      outer loop
         vertex 8.034005e+002 7.852884e+002 5.937776e+002
         vertex 8.042635e+002 7.954284e+002 5.857776e+002
         vertex 8.042635e+002 7.954284e+002 5.937776e+002
      endloop
   endfacet
   facet normal 9.744897e-001 -2.244324e-001 0.000000e+000
      outer loop
         vertex 8.042635e+002 7.954284e+002 5.937776e+002
         vertex 8.042635e+002 7.954284e+002 5.857776e+002
         vertex 8.068278e+002 8.052767e+002 5.857776e+002
      endloop
   endfacet
   facet normal 9.601977e-001 -2.793211e-001 0.000000e+000
      outer loop
         vertex 8.042635e+002 7.954284e+002 5.937776e+002
         vertex 8.068278e+002 8.052767e+002 5.857776e+002
         vertex 8.068278e+002 8.052767e+002 5.937776e+002
      endloop
   endfacet
   facet normal 9.225433e-001 -3.858936e-001 0.000000e+000
      outer loop
         vertex 8.068278e+002 8.052767e+002 5.937776e+002
         vertex 8.068278e+002 8.052767e+002 5.857776e+002
         vertex 8.110196e+002 8.145500e+002 5.857776e+002
      endloop
   endfacet
   facet normal 8.991807e-001 -4.375775e-001 0.000000e+000
      outer loop
         vertex 8.068278e+002 8.052767e+002 5.937776e+002
         vertex 8.110196e+002 8.145500e+002 5.857776e+002
         vertex 8.110196e+002 8.145500e+002 5.937776e+002
      endloop
   endfacet
   facet normal 8.440570e-001 -5.362535e-001 0.000000e+000
      outer loop
         vertex 8.110196e+002 8.145500e+002 5.937776e+002
         vertex 8.110196e+002 8.145500e+002 5.857776e+002
         vertex 8.167183e+002 8.229816e+002 5.857776e+002
      endloop
   endfacet
   facet normal 8.122959e-001 -5.832456e-001 0.000000e+000
      outer loop
         vertex 8.110196e+002 8.145500e+002 5.937776e+002
         vertex 8.167183e+002 8.229816e+002 5.857776e+002
         vertex 8.167183e+002 8.229816e+002 5.937776e+002
      endloop
   endfacet
   facet normal 7.412888e-001 -6.711863e-001 0.000000e+000
      outer loop
         vertex 8.167183e+002 8.229816e+002 5.937776e+002
         vertex 8.167183e+002 8.229816e+002 5.857776e+002
         vertex 8.237599e+002 8.303287e+002 5.857776e+002
      endloop
   endfacet
   facet normal 7.020428e-001 -7.121348e-001 0.000000e+000
      outer loop
         vertex 8.167183e+002 8.229816e+002 5.937776e+002
         vertex 8.237599e+002 8.303287e+002 5.857776e+002
         vertex 8.237599e+002 8.303287e+002 5.937776e+002
      endloop
   endfacet
   facet normal 6.171949e-001 -7.868103e-001 0.000000e+000
      outer loop
         vertex 8.237599e+002 8.303287e+002 5.937776e+002
         vertex 8.237599e+002 8.303287e+002 5.857776e+002
         vertex 8.319420e+002 8.363801e+002 5.857776e+002
      endloop
   endfacet
   facet normal 5.715931e-001 -8.205372e-001 0.000000e+000
      outer loop
         vertex 8.237599e+002 8.303287e+002 5.937776e+002
         vertex 8.319420e+002 8.363801e+002 5.857776e+002
         vertex 8.319420e+002 8.363801e+002 5.937776e+002
      endloop
   endfacet
   facet normal 4.753455e-001 -8.797992e-001 0.000000e+000
      outer loop
         vertex 8.319420e+002 8.363801e+002 5.937776e+002
         vertex 8.319420e+002 8.363801e+002 5.857776e+002
         vertex 8.410291e+002 8.409617e+002 5.857776e+002
      endloop
   endfacet
   facet normal 4.246998e-001 -9.053342e-001 0.000000e+000
      outer loop
         vertex 8.319420e+002 8.363801e+002 5.937776e+002
         vertex 8.410291e+002 8.409617e+002 5.857776e+002
         vertex 8.410291e+002 8.409617e+002 5.937776e+002
      endloop
   endfacet
   facet normal 3.198213e-001 -9.474779e-001 0.000000e+000
      outer loop
         vertex 8.410291e+002 8.409617e+002 5.937776e+002
         vertex 8.410291e+002 8.409617e+002 5.857776e+002
         vertex 8.507598e+002 8.439417e+002 5.857776e+002
      endloop
   endfacet
   facet normal 2.655886e-001 -9.640865e-001 0.000000e+000
      outer loop
         vertex 8.410291e+002 8.409617e+002 5.937776e+002
         vertex 8.507598e+002 8.439417e+002 5.857776e+002
         vertex 8.507598e+002 8.439417e+002 5.937776e+002
      endloop
   endfacet
   facet normal 1.550965e-001 -9.878993e-001 0.000000e+000
      outer loop
         vertex 8.507598e+002 8.439417e+002 5.937776e+002
         vertex 8.507598e+002 8.439417e+002 5.857776e+002
         vertex 8.608539e+002 8.452343e+002 5.857776e+002
      endloop
   endfacet
   facet normal 9.883700e-002 -9.951037e-001 0.000000e+000
      outer loop
         vertex 8.507598e+002 8.439417e+002 5.937776e+002
         vertex 8.608539e+002 8.452343e+002 5.857776e+002
         vertex 8.608539e+002 8.452343e+002 5.937776e+002
      endloop
   endfacet
   facet normal -1.409025e-002 -9.999007e-001 0.000000e+000
      outer loop
         vertex 8.608539e+002 8.452343e+002 5.937776e+002
         vertex 8.608539e+002 8.452343e+002 5.857776e+002
         vertex 8.710215e+002 8.448024e+002 5.857776e+002
      endloop
   endfacet
   facet normal -7.075802e-002 -9.974935e-001 0.000000e+000
      outer loop
         vertex 8.608539e+002 8.452343e+002 5.937776e+002
         vertex 8.710215e+002 8.448024e+002 5.857776e+002
         vertex 8.710215e+002 8.448024e+002 5.937776e+002
      endloop
   endfacet
   facet normal -1.828716e-001 -9.831368e-001 0.000000e+000
      outer loop
         vertex 8.710215e+002 8.448024e+002 5.937776e+002
         vertex 8.710215e+002 8.448024e+002 5.857776e+002
         vertex 8.809698e+002 8.426584e+002 5.857776e+002
      endloop
   endfacet
   facet normal -2.383175e-001 -9.711873e-001 0.000000e+000
      outer loop
         vertex 8.710215e+002 8.448024e+002 5.937776e+002
         vertex 8.809698e+002 8.426584e+002 5.857776e+002
         vertex 8.809698e+002 8.426584e+002 5.937776e+002
      endloop
   endfacet
   facet normal -3.463921e-001 -9.380898e-001 0.000000e+000
      outer loop
         vertex 8.809698e+002 8.426584e+002 5.937776e+002
         vertex 8.809698e+002 8.426584e+002 5.857776e+002
         vertex 8.904127e+002 8.388639e+002 5.857776e+002
      endloop
   endfacet
   facet normal -3.990209e-001 -9.169418e-001 0.000000e+000
      outer loop
         vertex 8.809698e+002 8.426584e+002 5.937776e+002
         vertex 8.904127e+002 8.388639e+002 5.857776e+002
         vertex 8.904127e+002 8.388639e+002 5.937776e+002
      endloop
   endfacet
   facet normal -4.999475e-001 -8.660557e-001 0.000000e+000
      outer loop
         vertex 8.904127e+002 8.388639e+002 5.937776e+002
         vertex 8.904127e+002 8.388639e+002 5.857776e+002
         vertex 8.990785e+002 8.335282e+002 5.857776e+002
      endloop
   endfacet
   facet normal -5.482453e-001 -8.363176e-001 0.000000e+000
      outer loop
         vertex 8.904127e+002 8.388639e+002 5.937776e+002
         vertex 8.990785e+002 8.335282e+002 5.857776e+002
         vertex 8.990785e+002 8.335282e+002 5.937776e+002
      endloop
   endfacet
   facet normal -6.391203e-001 -7.691067e-001 0.000000e+000
      outer loop
         vertex 8.990785e+002 8.335282e+002 5.937776e+002
         vertex 8.990785e+002 8.335282e+002 5.857776e+002
         vertex 9.067178e+002 8.268047e+002 5.857776e+002
      endloop
   endfacet
   facet normal -6.816977e-001 -7.316340e-001 0.000000e+000
      outer loop
         vertex 8.990785e+002 8.335282e+002 5.937776e+002
         vertex 9.067178e+002 8.268047e+002 5.857776e+002
         vertex 9.067178e+002 8.268047e+002 5.937776e+002
      endloop
   endfacet
   facet normal -7.599069e-001 -6.500320e-001 0.000000e+000
      outer loop
         vertex 9.067178e+002 8.268047e+002 5.937776e+002
         vertex 9.067178e+002 8.268047e+002 5.857776e+002
         vertex 9.131110e+002 8.188869e+002 5.857776e+002
      endloop
   endfacet
   facet normal -7.955388e-001 -6.059027e-001 0.000000e+000
      outer loop
         vertex 9.067178e+002 8.268047e+002 5.937776e+002
         vertex 9.131110e+002 8.188869e+002 5.857776e+002
         vertex 9.131110e+002 8.188869e+002 5.937776e+002
      endloop
   endfacet
   facet normal -8.588322e-001 -5.122570e-001 0.000000e+000
      outer loop
         vertex 9.131110e+002 8.188869e+002 5.937776e+002
         vertex 9.131110e+002 8.188869e+002 5.857776e+002
         vertex 9.180742e+002 8.100024e+002 5.857776e+002
      endloop
   endfacet
   facet normal -8.864937e-001 -4.627406e-001 0.000000e+000
      outer loop
         vertex 9.131110e+002 8.188869e+002 5.937776e+002
         vertex 9.180742e+002 8.100024e+002 5.857776e+002
         vertex 9.180742e+002 8.100024e+002 5.937776e+002
      endloop
   endfacet
   facet normal -9.330506e-001 -3.597453e-001 0.000000e+000
      outer loop
         vertex 9.180742e+002 8.100024e+002 5.937776e+002
         vertex 9.180742e+002 8.100024e+002 5.857776e+002
         vertex 9.214644e+002 8.004070e+002 5.857776e+002
      endloop
   endfacet
   facet normal -9.519459e-001 -3.062663e-001 0.000000e+000
      outer loop
         vertex 9.180742e+002 8.100024e+002 5.937776e+002
         vertex 9.214644e+002 8.004070e+002 5.857776e+002
         vertex 9.214644e+002 8.004070e+002 5.937776e+002
      endloop
   endfacet
   facet normal -9.804267e-001 -1.968844e-001 0.000000e+000
      outer loop
         vertex 9.214644e+002 8.004070e+002 5.937776e+002
         vertex 9.214644e+002 8.004070e+002 5.857776e+002
         vertex 9.231843e+002 7.903767e+002 5.857776e+002
      endloop
   endfacet
   facet normal -9.900122e-001 -1.409813e-001 0.000000e+000
      outer loop
         vertex 9.214644e+002 8.004070e+002 5.937776e+002
         vertex 9.231843e+002 7.903767e+002 5.857776e+002
         vertex 9.231843e+002 7.903767e+002 5.937776e+002
      endloop
   endfacet
   facet normal -9.983979e-001 -5.658260e-002 0.000000e+000
      outer loop
         vertex 9.231843e+002 7.903767e+002 5.937776e+002
         vertex 9.231843e+002 7.903767e+002 5.857776e+002
         vertex 9.234005e+002 7.852884e+002 5.937776e+002
      endloop
   endfacet
   facet normal 1.762259e-016 -1.000000e+000 0.000000e+000
      outer loop
         vertex 7.059005e+002 5.702883e+002 5.337776e+002
         vertex 1.020901e+003 5.702883e+002 5.337776e+002
         vertex 7.059005e+002 5.702883e+002 5.937776e+002
      endloop
   endfacet
   facet normal 1.762259e-016 -1.000000e+000 0.000000e+000
      outer loop
         vertex 7.059005e+002 5.702883e+002 5.937776e+002
         vertex 1.020901e+003 5.702883e+002 5.337776e+002
         vertex 1.020901e+003 5.702883e+002 5.937776e+002
      endloop
   endfacet
   facet normal -1.000000e+000 0.000000e+000 0.000000e+000
      outer loop
         vertex 7.059005e+002 6.402883e+002 5.337776e+002
         vertex 7.059005e+002 5.702883e+002 5.337776e+002
         vertex 7.059005e+002 6.402883e+002 5.437776e+002
      endloop
   endfacet
   facet normal -1.000000e+000 0.000000e+000 0.000000e+000
      outer loop
         vertex 7.059005e+002 6.402883e+002 5.437776e+002
         vertex 7.059005e+002 5.702883e+002 5.337776e+002
         vertex 7.059005e+002 5.702883e+002 5.937776e+002
      endloop
   endfacet
   facet normal -1.000000e+000 0.000000e+000 0.000000e+000
      outer loop
         vertex 7.059005e+002 6.402883e+002 5.437776e+002
         vertex 7.059005e+002 5.702883e+002 5.937776e+002
         vertex 7.059005e+002 6.402883e+002 5.937776e+002
      endloop
   endfacet
   facet normal 1.000000e+000 7.930164e-016 0.000000e+000
      outer loop
         vertex 1.020901e+003 6.402883e+002 5.937776e+002
         vertex 1.020901e+003 5.702883e+002 5.937776e+002
         vertex 1.020901e+003 6.402883e+002 5.437776e+002
      endloop
   endfacet
   facet normal 1.000000e+000 7.930164e-016 0.000000e+000
      outer loop
         vertex 1.020901e+003 6.402883e+002 5.437776e+002
         vertex 1.020901e+003 5.702883e+002 5.937776e+002
         vertex 1.020901e+003 5.702883e+002 5.337776e+002
      endloop
   endfacet
   facet normal 1.000000e+000 7.930164e-016 0.000000e+000
      outer loop
         vertex 1.020901e+003 6.402883e+002 5.437776e+002
         vertex 1.020901e+003 5.702883e+002 5.337776e+002
         vertex 1.020901e+003 6.402883e+002 5.337776e+002
      endloop
   endfacet
   facet normal 0.000000e+000 0.000000e+000 -1.000000e+000
      outer loop
         vertex 7.059005e+002 5.702883e+002 5.337776e+002
         vertex 7.334005e+002 5.902884e+002 5.337776e+002
         vertex 8.134005e+002 5.902884e+002 5.337776e+002
      endloop
   endfacet
   facet normal 0.000000e+000 0.000000e+000 -1.000000e+000
      outer loop
         vertex 7.334005e+002 5.902884e+002 5.337776e+002
         vertex 7.059005e+002 5.702883e+002 5.337776e+002
         vertex 7.334005e+002 6.202884e+002 5.337776e+002
      endloop
   endfacet
   facet normal 0.000000e+000 0.000000e+000 -1.000000e+000
      outer loop
         vertex 7.334005e+002 6.202884e+002 5.337776e+002
         vertex 7.059005e+002 5.702883e+002 5.337776e+002
         vertex 7.059005e+002 6.402883e+002 5.337776e+002
      endloop
   endfacet
   facet normal 0.000000e+000 0.000000e+000 -1.000000e+000
      outer loop
         vertex 7.334005e+002 6.202884e+002 5.337776e+002
         vertex 7.059005e+002 6.402883e+002 5.337776e+002
         vertex 8.134005e+002 6.202884e+002 5.337776e+002
      endloop
   endfacet
   facet normal 0.000000e+000 0.000000e+000 -1.000000e+000
      outer loop
         vertex 7.059005e+002 5.702883e+002 5.337776e+002
         vertex 9.134005e+002 5.902884e+002 5.337776e+002
         vertex 1.020901e+003 5.702883e+002 5.337776e+002
      endloop
   endfacet
   facet normal 0.000000e+000 0.000000e+000 -1.000000e+000
      outer loop
         vertex 1.020901e+003 5.702883e+002 5.337776e+002
         vertex 9.134005e+002 5.902884e+002 5.337776e+002
         vertex 9.934005e+002 5.902884e+002 5.337776e+002
      endloop
   endfacet
   facet normal 0.000000e+000 0.000000e+000 -1.000000e+000
      outer loop
         vertex 1.020901e+003 5.702883e+002 5.337776e+002
         vertex 9.934005e+002 5.902884e+002 5.337776e+002
         vertex 1.020901e+003 6.402883e+002 5.337776e+002
      endloop
   endfacet
   facet normal 0.000000e+000 0.000000e+000 -1.000000e+000
      outer loop
         vertex 1.020901e+003 6.402883e+002 5.337776e+002
         vertex 9.934005e+002 5.902884e+002 5.337776e+002
         vertex 9.934005e+002 6.202884e+002 5.337776e+002
      endloop
   endfacet
   facet normal 0.000000e+000 0.000000e+000 -1.000000e+000
      outer loop
         vertex 1.020901e+003 6.402883e+002 5.337776e+002
         vertex 9.934005e+002 6.202884e+002 5.337776e+002
         vertex 9.134005e+002 6.202884e+002 5.337776e+002
      endloop
   endfacet
   facet normal 0.000000e+000 0.000000e+000 -1.000000e+000
      outer loop
         vertex 8.284005e+002 6.202884e+002 5.337776e+002
         vertex 1.020901e+003 6.402883e+002 5.337776e+002
         vertex 8.984005e+002 6.202884e+002 5.337776e+002
      endloop
   endfacet
   facet normal 0.000000e+000 0.000000e+000 -1.000000e+000
      outer loop
         vertex 8.984005e+002 6.202884e+002 5.337776e+002
         vertex 1.020901e+003 6.402883e+002 5.337776e+002
         vertex 9.134005e+002 6.202884e+002 5.337776e+002
      endloop
   endfacet
   facet normal 0.000000e+000 0.000000e+000 -1.000000e+000
      outer loop
         vertex 8.984005e+002 6.202884e+002 5.337776e+002
         vertex 9.134005e+002 6.202884e+002 5.337776e+002
         vertex 8.984005e+002 5.902884e+002 5.337776e+002
      endloop
   endfacet
   facet normal 0.000000e+000 0.000000e+000 -1.000000e+000
      outer loop
         vertex 9.134005e+002 6.202884e+002 5.337776e+002
         vertex 9.134005e+002 5.902884e+002 5.337776e+002
         vertex 8.984005e+002 5.902884e+002 5.337776e+002
      endloop
   endfacet
   facet normal 0.000000e+000 0.000000e+000 -1.000000e+000
      outer loop
         vertex 8.984005e+002 5.902884e+002 5.337776e+002
         vertex 9.134005e+002 5.902884e+002 5.337776e+002
         vertex 7.059005e+002 5.702883e+002 5.337776e+002
      endloop
   endfacet
   facet normal 0.000000e+000 0.000000e+000 -1.000000e+000
      outer loop
         vertex 8.984005e+002 5.902884e+002 5.337776e+002
         vertex 7.059005e+002 5.702883e+002 5.337776e+002
         vertex 8.284005e+002 5.902884e+002 5.337776e+002
      endloop
   endfacet
   facet normal 0.000000e+000 0.000000e+000 -1.000000e+000
      outer loop
         vertex 8.284005e+002 5.902884e+002 5.337776e+002
         vertex 7.059005e+002 5.702883e+002 5.337776e+002
         vertex 8.134005e+002 5.902884e+002 5.337776e+002
      endloop
   endfacet
   facet normal 0.000000e+000 0.000000e+000 -1.000000e+000
      outer loop
         vertex 8.284005e+002 5.902884e+002 5.337776e+002
         vertex 8.134005e+002 5.902884e+002 5.337776e+002
         vertex 8.284005e+002 6.202884e+002 5.337776e+002
      endloop
   endfacet
   facet normal 0.000000e+000 0.000000e+000 -1.000000e+000
      outer loop
         vertex 8.284005e+002 6.202884e+002 5.337776e+002
         vertex 8.134005e+002 5.902884e+002 5.337776e+002
         vertex 8.134005e+002 6.202884e+002 5.337776e+002
      endloop
   endfacet
   facet normal 0.000000e+000 0.000000e+000 -1.000000e+000
      outer loop
         vertex 8.284005e+002 6.202884e+002 5.337776e+002
         vertex 8.134005e+002 6.202884e+002 5.337776e+002
         vertex 1.020901e+003 6.402883e+002 5.337776e+002
      endloop
   endfacet
   facet normal 0.000000e+000 0.000000e+000 -1.000000e+000
      outer loop
         vertex 1.020901e+003 6.402883e+002 5.337776e+002
         vertex 8.134005e+002 6.202884e+002 5.337776e+002
         vertex 7.059005e+002 6.402883e+002 5.337776e+002
      endloop
   endfacet
   facet normal 0.000000e+000 1.000000e+000 0.000000e+000
      outer loop
         vertex 9.934005e+002 5.902884e+002 5.337776e+002
         vertex 9.134005e+002 5.902884e+002 5.337776e+002
         vertex 9.934005e+002 5.902884e+002 5.937776e+002
      endloop
   endfacet
   facet normal 0.000000e+000 1.000000e+000 0.000000e+000
      outer loop
         vertex 9.934005e+002 5.902884e+002 5.937776e+002
         vertex 9.134005e+002 5.902884e+002 5.337776e+002
         vertex 9.134005e+002 5.902884e+002 5.937776e+002
      endloop
   endfacet
   facet normal 1.000000e+000 0.000000e+000 0.000000e+000
      outer loop
         vertex 9.134005e+002 5.902884e+002 5.337776e+002
         vertex 9.134005e+002 6.202884e+002 5.337776e+002
         vertex 9.134005e+002 5.902884e+002 5.937776e+002
      endloop
   endfacet
   facet normal 1.000000e+000 0.000000e+000 0.000000e+000
      outer loop
         vertex 9.134005e+002 5.902884e+002 5.937776e+002
         vertex 9.134005e+002 6.202884e+002 5.337776e+002
         vertex 9.134005e+002 6.202884e+002 5.937776e+002
      endloop
   endfacet
   facet normal 0.000000e+000 -1.000000e+000 0.000000e+000
      outer loop
         vertex 9.134005e+002 6.202884e+002 5.337776e+002
         vertex 9.934005e+002 6.202884e+002 5.337776e+002
         vertex 9.134005e+002 6.202884e+002 5.937776e+002
      endloop
   endfacet
   facet normal 0.000000e+000 -1.000000e+000 0.000000e+000
      outer loop
         vertex 9.134005e+002 6.202884e+002 5.937776e+002
         vertex 9.934005e+002 6.202884e+002 5.337776e+002
         vertex 9.934005e+002 6.202884e+002 5.937776e+002
      endloop
   endfacet
   facet normal -1.000000e+000 0.000000e+000 0.000000e+000
      outer loop
         vertex 9.934005e+002 6.202884e+002 5.337776e+002
         vertex 9.934005e+002 5.902884e+002 5.337776e+002
         vertex 9.934005e+002 6.202884e+002 5.937776e+002
      endloop
   endfacet
   facet normal -1.000000e+000 0.000000e+000 0.000000e+000
      outer loop
         vertex 9.934005e+002 6.202884e+002 5.937776e+002
         vertex 9.934005e+002 5.902884e+002 5.337776e+002
         vertex 9.934005e+002 5.902884e+002 5.937776e+002
      endloop
   endfacet
   facet normal 0.000000e+000 -1.000000e+000 0.000000e+000
      outer loop
         vertex 8.284005e+002 6.202884e+002 5.337776e+002
         vertex 8.984005e+002 6.202884e+002 5.337776e+002
         vertex 8.284005e+002 6.202884e+002 5.937776e+002
      endloop
   endfacet
   facet normal 0.000000e+000 -1.000000e+000 0.000000e+000
      outer loop
         vertex 8.284005e+002 6.202884e+002 5.937776e+002
         vertex 8.984005e+002 6.202884e+002 5.337776e+002
         vertex 8.984005e+002 6.202884e+002 5.937776e+002
      endloop
   endfacet
   facet normal -1.000000e+000 -9.251858e-016 0.000000e+000
      outer loop
         vertex 8.984005e+002 6.202884e+002 5.337776e+002
         vertex 8.984005e+002 5.902884e+002 5.337776e+002
         vertex 8.984005e+002 6.202884e+002 5.937776e+002
      endloop
   endfacet
   facet normal -1.000000e+000 -9.251858e-016 0.000000e+000
      outer loop
         vertex 8.984005e+002 6.202884e+002 5.937776e+002
         vertex 8.984005e+002 5.902884e+002 5.337776e+002
         vertex 8.984005e+002 5.902884e+002 5.937776e+002
      endloop
   endfacet
   facet normal 0.000000e+000 1.000000e+000 0.000000e+000
      outer loop
         vertex 8.984005e+002 5.902884e+002 5.337776e+002
         vertex 8.284005e+002 5.902884e+002 5.337776e+002
         vertex 8.984005e+002 5.902884e+002 5.937776e+002
      endloop
   endfacet
   facet normal 0.000000e+000 1.000000e+000 0.000000e+000
      outer loop
         vertex 8.984005e+002 5.902884e+002 5.937776e+002
         vertex 8.284005e+002 5.902884e+002 5.337776e+002
         vertex 8.284005e+002 5.902884e+002 5.937776e+002
      endloop
   endfacet
   facet normal 1.000000e+000 -9.251858e-016 0.000000e+000
      outer loop
         vertex 8.284005e+002 5.902884e+002 5.337776e+002
         vertex 8.284005e+002 6.202884e+002 5.337776e+002
         vertex 8.284005e+002 5.902884e+002 5.937776e+002
      endloop
   endfacet
   facet normal 1.000000e+000 -9.251858e-016 0.000000e+000
      outer loop
         vertex 8.284005e+002 5.902884e+002 5.937776e+002
         vertex 8.284005e+002 6.202884e+002 5.337776e+002
         vertex 8.284005e+002 6.202884e+002 5.937776e+002
      endloop
   endfacet
   facet normal 0.000000e+000 -1.000000e+000 0.000000e+000
      outer loop
         vertex 7.334005e+002 6.202884e+002 5.337776e+002
         vertex 8.134005e+002 6.202884e+002 5.337776e+002
         vertex 7.334005e+002 6.202884e+002 5.937776e+002
      endloop
   endfacet
   facet normal 0.000000e+000 -1.000000e+000 0.000000e+000
      outer loop
         vertex 7.334005e+002 6.202884e+002 5.937776e+002
         vertex 8.134005e+002 6.202884e+002 5.337776e+002
         vertex 8.134005e+002 6.202884e+002 5.937776e+002
      endloop
   endfacet
   facet normal -1.000000e+000 0.000000e+000 0.000000e+000
      outer loop
         vertex 8.134005e+002 6.202884e+002 5.337776e+002
         vertex 8.134005e+002 5.902884e+002 5.337776e+002
         vertex 8.134005e+002 6.202884e+002 5.937776e+002
      endloop
   endfacet
   facet normal -1.000000e+000 0.000000e+000 0.000000e+000
      outer loop
         vertex 8.134005e+002 6.202884e+002 5.937776e+002
         vertex 8.134005e+002 5.902884e+002 5.337776e+002
         vertex 8.134005e+002 5.902884e+002 5.937776e+002
      endloop
   endfacet
   facet normal 0.000000e+000 1.000000e+000 0.000000e+000
      outer loop
         vertex 8.134005e+002 5.902884e+002 5.337776e+002
         vertex 7.334005e+002 5.902884e+002 5.337776e+002
         vertex 8.134005e+002 5.902884e+002 5.937776e+002
      endloop
   endfacet
   facet normal 0.000000e+000 1.000000e+000 0.000000e+000
      outer loop
         vertex 8.134005e+002 5.902884e+002 5.937776e+002
         vertex 7.334005e+002 5.902884e+002 5.337776e+002
         vertex 7.334005e+002 5.902884e+002 5.937776e+002
      endloop
   endfacet
   facet normal 1.000000e+000 0.000000e+000 0.000000e+000
      outer loop
         vertex 7.334005e+002 5.902884e+002 5.337776e+002
         vertex 7.334005e+002 6.202884e+002 5.337776e+002
         vertex 7.334005e+002 5.902884e+002 5.937776e+002
      endloop
   endfacet
   facet normal 1.000000e+000 0.000000e+000 0.000000e+000
      outer loop
         vertex 7.334005e+002 5.902884e+002 5.937776e+002
         vertex 7.334005e+002 6.202884e+002 5.337776e+002
         vertex 7.334005e+002 6.202884e+002 5.937776e+002
      endloop
   endfacet
   facet normal 8.762159e-001 1.073055e-016 4.819187e-001
      outer loop
         vertex 9.967786e+002 7.002883e+002 5.876355e+002
         vertex 9.934005e+002 7.002883e+002 5.937776e+002
         vertex 1.020901e+003 6.402883e+002 5.437776e+002
      endloop
   endfacet
   facet normal 8.762159e-001 1.073055e-016 4.819187e-001
      outer loop
         vertex 1.020901e+003 6.402883e+002 5.437776e+002
         vertex 9.934005e+002 7.002883e+002 5.937776e+002
         vertex 9.934005e+002 6.402883e+002 5.937776e+002
      endloop
   endfacet
   facet normal -8.762159e-001 -1.073055e-016 -4.819187e-001
      outer loop
         vertex 9.934005e+002 7.002883e+002 5.857776e+002
         vertex 1.017522e+003 6.402883e+002 5.419196e+002
         vertex 9.934005e+002 6.402883e+002 5.857776e+002
      endloop
   endfacet
   facet normal -1.224647e-016 1.000000e+000 0.000000e+000
      outer loop
         vertex 9.934005e+002 7.002883e+002 5.857776e+002
         vertex 9.934005e+002 7.002883e+002 5.937776e+002
         vertex 9.967786e+002 7.002883e+002 5.876355e+002
      endloop
   endfacet
   facet normal 8.762159e-001 1.073055e-016 -4.819187e-001
      outer loop
         vertex 7.092786e+002 6.402883e+002 5.419196e+002
         vertex 7.334005e+002 7.002883e+002 5.857776e+002
         vertex 7.334005e+002 6.402883e+002 5.857776e+002
      endloop
   endfacet
   facet normal -8.762159e-001 -1.073055e-016 4.819187e-001
      outer loop
         vertex 7.059005e+002 6.402883e+002 5.437776e+002
         vertex 7.334005e+002 6.402883e+002 5.937776e+002
         vertex 7.300224e+002 7.002883e+002 5.876355e+002
      endloop
   endfacet
   facet normal -8.762159e-001 -1.073055e-016 4.819187e-001
      outer loop
         vertex 7.300224e+002 7.002883e+002 5.876355e+002
         vertex 7.334005e+002 6.402883e+002 5.937776e+002
         vertex 7.334005e+002 7.002883e+002 5.937776e+002
      endloop
   endfacet
   facet normal -1.224647e-016 1.000000e+000 0.000000e+000
      outer loop
         vertex 7.300224e+002 7.002883e+002 5.876355e+002
         vertex 7.334005e+002 7.002883e+002 5.937776e+002
         vertex 7.334005e+002 7.002883e+002 5.857776e+002
      endloop
   endfacet
   facet normal 3.700569e-001 6.405909e-001 -6.728308e-001
      outer loop
         vertex 9.967786e+002 7.002883e+002 5.876355e+002
         vertex 1.020901e+003 6.402883e+002 5.437776e+002
         vertex 9.934005e+002 7.002883e+002 5.857776e+002
      endloop
   endfacet
   facet normal 3.700569e-001 6.405909e-001 -6.728308e-001
      outer loop
         vertex 9.934005e+002 7.002883e+002 5.857776e+002
         vertex 1.020901e+003 6.402883e+002 5.437776e+002
         vertex 1.017522e+003 6.402883e+002 5.419196e+002
      endloop
   endfacet
   facet normal -3.700569e-001 6.405909e-001 -6.728308e-001
      outer loop
         vertex 7.059005e+002 6.402883e+002 5.437776e+002
         vertex 7.300224e+002 7.002883e+002 5.876355e+002
         vertex 7.092786e+002 6.402883e+002 5.419196e+002
      endloop
   endfacet
   facet normal -3.700569e-001 6.405909e-001 -6.728308e-001
      outer loop
         vertex 7.092786e+002 6.402883e+002 5.419196e+002
         vertex 7.300224e+002 7.002883e+002 5.876355e+002
         vertex 7.334005e+002 7.002883e+002 5.857776e+002
      endloop
   endfacet
endsolid