solid PumpAssembly - Screw5-1
   facet normal -6.381136e-001 -2.106683e-016 7.699422e-001
      outer loop
         vertex 2.404267e+002 1.493260e+002 8.723775e+001
         vertex 2.407525e+002 1.723261e+002 8.749135e+001
         vertex 2.404112e+002 1.493260e+002 8.722090e+001
      endloop
   endfacet
   facet normal -6.404724e-001 -2.110994e-016 7.679812e-001
      outer loop
         vertex 2.404112e+002 1.493260e+002 8.722090e+001
         vertex 2.407525e+002 1.723261e+002 8.749135e+001
         vertex 2.404098e+002 1.723261e+002 8.722211e+001
      endloop
   endfacet
   facet normal -7.209911e-001 -2.252308e-016 6.929443e-001
      outer loop
         vertex 2.404112e+002 1.493260e+002 8.722090e+001
         vertex 2.404098e+002 1.723261e+002 8.722211e+001
         vertex 2.401470e+002 1.493260e+002 8.693396e+001
      endloop
   endfacet
   facet normal -7.601210e-001 -2.316140e-016 6.497815e-001
      outer loop
         vertex 2.401470e+002 1.493260e+002 8.693396e+001
         vertex 2.404098e+002 1.723261e+002 8.722211e+001
         vertex 2.401220e+002 1.493260e+002 8.689562e+001
      endloop
   endfacet
   facet normal -7.640933e-001 -2.322407e-016 6.451057e-001
      outer loop
         vertex 2.401220e+002 1.493260e+002 8.689562e+001
         vertex 2.404098e+002 1.723261e+002 8.722211e+001
         vertex 2.401191e+002 1.723261e+002 8.689746e+001
      endloop
   endfacet
   facet normal -8.286541e-001 -2.417506e-016 5.597610e-001
      outer loop
         vertex 2.401220e+002 1.493260e+002 8.689562e+001
         vertex 2.401191e+002 1.723261e+002 8.689746e+001
         vertex 2.399212e+002 1.493260e+002 8.658830e+001
      endloop
   endfacet
   facet normal -8.598409e-001 -2.457679e-016 5.105621e-001
      outer loop
         vertex 2.399212e+002 1.493260e+002 8.658830e+001
         vertex 2.401191e+002 1.723261e+002 8.689746e+001
         vertex 2.398936e+002 1.493260e+002 8.652537e+001
      endloop
   endfacet
   facet normal -8.645034e-001 -2.463266e-016 5.026269e-001
      outer loop
         vertex 2.398936e+002 1.493260e+002 8.652537e+001
         vertex 2.401191e+002 1.723261e+002 8.689746e+001
         vertex 2.398892e+002 1.723261e+002 8.652727e+001
      endloop
   endfacet
   facet normal -9.120152e-001 -2.511802e-016 4.101564e-001
      outer loop
         vertex 2.398936e+002 1.493260e+002 8.652537e+001
         vertex 2.398892e+002 1.723261e+002 8.652727e+001
         vertex 2.397553e+002 1.493260e+002 8.621018e+001
      endloop
   endfacet
   facet normal -9.343465e-001 -2.527146e-016 3.563659e-001
      outer loop
         vertex 2.397553e+002 1.493260e+002 8.621018e+001
         vertex 2.398892e+002 1.723261e+002 8.652727e+001
         vertex 2.397328e+002 1.493260e+002 8.612133e+001
      endloop
   endfacet
   facet normal -9.386495e-001 -2.529287e-016 3.448727e-001
      outer loop
         vertex 2.397328e+002 1.493260e+002 8.612133e+001
         vertex 2.398892e+002 1.723261e+002 8.652727e+001
         vertex 2.397271e+002 1.723261e+002 8.612277e+001
      endloop
   endfacet
   facet normal -9.686273e-001 -2.532425e-016 2.485178e-001
      outer loop
         vertex 2.397328e+002 1.493260e+002 8.612133e+001
         vertex 2.397271e+002 1.723261e+002 8.612277e+001
         vertex 2.396540e+002 1.493260e+002 8.580992e+001
      endloop
   endfacet
   facet normal -9.814507e-001 -2.522497e-016 1.917148e-001
      outer loop
         vertex 2.396540e+002 1.493260e+002 8.580992e+001
         vertex 2.397271e+002 1.723261e+002 8.612277e+001
         vertex 2.396445e+002 1.493260e+002 8.569571e+001
      endloop
   endfacet
   facet normal -9.842762e-001 -2.518456e-016 1.766360e-001
      outer loop
         vertex 2.396445e+002 1.493260e+002 8.569571e+001
         vertex 2.397271e+002 1.723261e+002 8.612277e+001
         vertex 2.396377e+002 1.723261e+002 8.569627e+001
      endloop
   endfacet
   facet normal -9.968280e-001 -2.478766e-016 7.958686e-002
      outer loop
         vertex 2.396445e+002 1.493260e+002 8.569571e+001
         vertex 2.396377e+002 1.723261e+002 8.569627e+001
         vertex 2.396199e+002 1.493260e+002 8.539844e+001
      endloop
   endfacet
   facet normal -9.997708e-001 -2.443845e-016 2.141014e-002
      outer loop
         vertex 2.396199e+002 1.493260e+002 8.539844e+001
         vertex 2.396377e+002 1.723261e+002 8.569627e+001
         vertex 2.396237e+002 1.723261e+002 8.526072e+001
      endloop
   endfacet
   facet normal -9.993262e-001 -2.400742e-016 -3.670476e-002
      outer loop
         vertex 2.396199e+002 1.493260e+002 8.539844e+001
         vertex 2.396237e+002 1.723261e+002 8.526072e+001
         vertex 2.396312e+002 1.493260e+002 8.526134e+001
      endloop
   endfacet
   facet normal -9.957884e-001 -2.352394e-016 -9.168113e-002
      outer loop
         vertex 2.396312e+002 1.493260e+002 8.526134e+001
         vertex 2.396237e+002 1.723261e+002 8.526072e+001
         vertex 2.396540e+002 1.493260e+002 8.498695e+001
      endloop
   endfacet
   facet normal -9.887634e-001 -2.293529e-016 -1.494891e-001
      outer loop
         vertex 2.396540e+002 1.493260e+002 8.498695e+001
         vertex 2.396237e+002 1.723261e+002 8.526072e+001
         vertex 2.396855e+002 1.723261e+002 8.482935e+001
      endloop
   endfacet
   facet normal -9.784060e-001 -2.227007e-016 -2.066925e-001
      outer loop
         vertex 2.396540e+002 1.493260e+002 8.498695e+001
         vertex 2.396855e+002 1.723261e+002 8.482935e+001
         vertex 2.396934e+002 1.493260e+002 8.483134e+001
      endloop
   endfacet
   facet normal -9.655382e-001 -2.157016e-016 -2.602613e-001
      outer loop
         vertex 2.396934e+002 1.493260e+002 8.483134e+001
         vertex 2.396855e+002 1.723261e+002 8.482935e+001
         vertex 2.397553e+002 1.493260e+002 8.458669e+001
      endloop
   endfacet
   facet normal -9.487578e-001 -2.075950e-016 -3.160042e-001
      outer loop
         vertex 2.397553e+002 1.493260e+002 8.458669e+001
         vertex 2.396855e+002 1.723261e+002 8.482935e+001
         vertex 2.398213e+002 1.723261e+002 8.441528e+001
      endloop
   endfacet
   facet normal -9.287850e-001 -1.987944e-016 -3.706190e-001
      outer loop
         vertex 2.397553e+002 1.493260e+002 8.458669e+001
         vertex 2.398213e+002 1.723261e+002 8.441528e+001
         vertex 2.398290e+002 1.493260e+002 8.441866e+001
      endloop
   endfacet
   facet normal -9.069642e-001 -1.898362e-016 -4.212078e-001
      outer loop
         vertex 2.398290e+002 1.493260e+002 8.441866e+001
         vertex 2.398213e+002 1.723261e+002 8.441528e+001
         vertex 2.399212e+002 1.493260e+002 8.420856e+001
      endloop
   endfacet
   facet normal -8.809274e-001 -1.797487e-016 -4.732514e-001
      outer loop
         vertex 2.399212e+002 1.493260e+002 8.420856e+001
         vertex 2.398213e+002 1.723261e+002 8.441528e+001
         vertex 2.400269e+002 1.723261e+002 8.403107e+001
      endloop
   endfacet
   facet normal -8.519183e-001 -1.690564e-016 -5.236748e-001
      outer loop
         vertex 2.399212e+002 1.493260e+002 8.420856e+001
         vertex 2.400269e+002 1.723261e+002 8.403107e+001
         vertex 2.400341e+002 1.493260e+002 8.403573e+001
      endloop
   endfacet
   facet normal -8.217846e-001 -1.584019e-016 -5.697984e-001
      outer loop
         vertex 2.400341e+002 1.493260e+002 8.403573e+001
         vertex 2.400269e+002 1.723261e+002 8.403107e+001
         vertex 2.401470e+002 1.493260e+002 8.386290e+001
      endloop
   endfacet
   facet normal -7.872615e-001 -1.466309e-016 -6.166193e-001
      outer loop
         vertex 2.401470e+002 1.493260e+002 8.386290e+001
         vertex 2.400269e+002 1.723261e+002 8.403107e+001
         vertex 2.402962e+002 1.723261e+002 8.368841e+001
      endloop
   endfacet
   facet normal -7.500606e-001 -1.343591e-016 -6.613691e-001
      outer loop
         vertex 2.401470e+002 1.493260e+002 8.386290e+001
         vertex 2.402962e+002 1.723261e+002 8.368841e+001
         vertex 2.403024e+002 1.493260e+002 8.369411e+001
      endloop
   endfacet
   facet normal -7.124984e-001 -1.223211e-016 -7.016737e-001
      outer loop
         vertex 2.403024e+002 1.493260e+002 8.369411e+001
         vertex 2.402962e+002 1.723261e+002 8.368841e+001
         vertex 2.404267e+002 1.493260e+002 8.355913e+001
      endloop
   endfacet
   facet normal -6.705070e-001 -1.092127e-016 -7.419032e-001
      outer loop
         vertex 2.404267e+002 1.493260e+002 8.355913e+001
         vertex 2.402962e+002 1.723261e+002 8.368841e+001
         vertex 2.406208e+002 1.723261e+002 8.339771e+001
      endloop
   endfacet
   facet normal -6.262002e-001 -9.572050e-017 -7.796623e-001
      outer loop
         vertex 2.404267e+002 1.493260e+002 8.355913e+001
         vertex 2.406208e+002 1.723261e+002 8.339771e+001
         vertex 2.406258e+002 1.493260e+002 8.340411e+001
      endloop
   endfacet
   facet normal -5.823125e-001 -8.265236e-017 -8.129650e-001
      outer loop
         vertex 2.406258e+002 1.493260e+002 8.340411e+001
         vertex 2.406208e+002 1.723261e+002 8.339771e+001
         vertex 2.407525e+002 1.493260e+002 8.330552e+001
      endloop
   endfacet
   facet normal -5.340880e-001 -6.859152e-017 -8.454289e-001
      outer loop
         vertex 2.407525e+002 1.493260e+002 8.330552e+001
         vertex 2.406208e+002 1.723261e+002 8.339771e+001
         vertex 2.409910e+002 1.723261e+002 8.316779e+001
      endloop
   endfacet
   facet normal -4.839712e-001 -5.427415e-017 -8.750839e-001
      outer loop
         vertex 2.407525e+002 1.493260e+002 8.330552e+001
         vertex 2.409910e+002 1.723261e+002 8.316779e+001
         vertex 2.409946e+002 1.493260e+002 8.317447e+001
      endloop
   endfacet
   facet normal -4.350466e-001 -4.055954e-017 -9.004079e-001
      outer loop
         vertex 2.409946e+002 1.493260e+002 8.317447e+001
         vertex 2.409910e+002 1.723261e+002 8.316779e+001
         vertex 2.411156e+002 1.493260e+002 8.310900e+001
      endloop
   endfacet
   facet normal -3.820053e-001 -2.595868e-017 -9.241601e-001
      outer loop
         vertex 2.411156e+002 1.493260e+002 8.310900e+001
         vertex 2.409910e+002 1.723261e+002 8.316779e+001
         vertex 2.413955e+002 1.723261e+002 8.300566e+001
      endloop
   endfacet
   facet normal -3.275468e-001 -1.123613e-017 -9.448349e-001
      outer loop
         vertex 2.411156e+002 1.493260e+002 8.310900e+001
         vertex 2.413955e+002 1.723261e+002 8.300566e+001
         vertex 2.413977e+002 1.493260e+002 8.301214e+001
      endloop
   endfacet
   facet normal -2.750220e-001 2.722323e-018 -9.614379e-001
      outer loop
         vertex 2.413977e+002 1.493260e+002 8.301214e+001
         vertex 2.413955e+002 1.723261e+002 8.300566e+001
         vertex 2.415061e+002 1.493260e+002 8.297492e+001
      endloop
   endfacet
   facet normal -2.187191e-001 1.743550e-017 -9.757879e-001
      outer loop
         vertex 2.415061e+002 1.493260e+002 8.297492e+001
         vertex 2.413955e+002 1.723261e+002 8.300566e+001
         vertex 2.418220e+002 1.723261e+002 8.291623e+001
      endloop
   endfacet
   facet normal -1.615167e-001 3.213088e-017 -9.868700e-001
      outer loop
         vertex 2.415061e+002 1.493260e+002 8.297492e+001
         vertex 2.418220e+002 1.723261e+002 8.291623e+001
         vertex 2.418230e+002 1.493260e+002 8.292205e+001
      endloop
   endfacet
   facet normal -1.069336e-001 4.592350e-017 -9.942662e-001
      outer loop
         vertex 2.418230e+002 1.493260e+002 8.292205e+001
         vertex 2.418220e+002 1.723261e+002 8.291623e+001
         vertex 2.419134e+002 1.493260e+002 8.290696e+001
      endloop
   endfacet
   facet normal -4.901813e-002 6.031841e-017 -9.987979e-001
      outer loop
         vertex 2.419134e+002 1.493260e+002 8.290696e+001
         vertex 2.418220e+002 1.723261e+002 8.291623e+001
         vertex 2.422576e+002 1.723261e+002 8.290222e+001
      endloop
   endfacet
   facet normal 9.248273e-003 7.455468e-017 -9.999573e-001
      outer loop
         vertex 2.419134e+002 1.493260e+002 8.290696e+001
         vertex 2.422576e+002 1.723261e+002 8.290222e+001
         vertex 2.422576e+002 1.493260e+002 8.290696e+001
      endloop
   endfacet
   facet normal 6.428709e-002 8.777668e-017 -9.979314e-001
      outer loop
         vertex 2.422576e+002 1.493260e+002 8.290696e+001
         vertex 2.422576e+002 1.723261e+002 8.290222e+001
         vertex 2.423263e+002 1.493260e+002 8.290696e+001
      endloop
   endfacet
   facet normal 1.221208e-001 1.014324e-016 -9.925153e-001
      outer loop
         vertex 2.423263e+002 1.493260e+002 8.290696e+001
         vertex 2.422576e+002 1.723261e+002 8.290222e+001
         vertex 2.426889e+002 1.723261e+002 8.296406e+001
      endloop
   endfacet
   facet normal 1.797382e-001 1.147908e-016 -9.837145e-001
      outer loop
         vertex 2.423263e+002 1.493260e+002 8.290696e+001
         vertex 2.426889e+002 1.723261e+002 8.296406e+001
         vertex 2.426884e+002 1.493260e+002 8.296738e+001
      endloop
   endfacet
   facet normal 2.336176e-001 1.270543e-016 -9.723285e-001
      outer loop
         vertex 2.426884e+002 1.493260e+002 8.296738e+001
         vertex 2.426889e+002 1.723261e+002 8.296406e+001
         vertex 2.427336e+002 1.493260e+002 8.297491e+001
      endloop
   endfacet
   facet normal 2.896785e-001 1.395716e-016 -9.571240e-001
      outer loop
         vertex 2.427336e+002 1.493260e+002 8.297491e+001
         vertex 2.426889e+002 1.723261e+002 8.296406e+001
         vertex 2.431030e+002 1.723261e+002 8.309985e+001
      endloop
   endfacet
   facet normal 3.449521e-001 1.516591e-016 -9.386203e-001
      outer loop
         vertex 2.427336e+002 1.493260e+002 8.297491e+001
         vertex 2.431030e+002 1.723261e+002 8.309985e+001
         vertex 2.431024e+002 1.493260e+002 8.310155e+001
      endloop
   endfacet
   facet normal 3.960915e-001 1.626046e-016 -9.182110e-001
      outer loop
         vertex 2.431024e+002 1.493260e+002 8.310155e+001
         vertex 2.431030e+002 1.723261e+002 8.309985e+001
         vertex 2.431241e+002 1.493260e+002 8.310899e+001
      endloop
   endfacet
   facet normal 4.487410e-001 1.736176e-016 -8.936619e-001
      outer loop
         vertex 2.431241e+002 1.493260e+002 8.310899e+001
         vertex 2.431030e+002 1.723261e+002 8.309985e+001
         vertex 2.434872e+002 1.723261e+002 8.330550e+001
      endloop
   endfacet
   facet normal 5.000443e-001 1.840784e-016 -8.659998e-001
      outer loop
         vertex 2.431241e+002 1.493260e+002 8.310899e+001
         vertex 2.434872e+002 1.723261e+002 8.330550e+001
         vertex 2.434872e+002 1.493260e+002 8.330550e+001
      endloop
   endfacet
   facet normal 7.640933e-001 2.322407e-016 -6.451057e-001
      outer loop
         vertex 2.438299e+002 1.723261e+002 8.357474e+001
         vertex 2.441206e+002 1.723261e+002 8.389938e+001
         vertex 2.441178e+002 1.493260e+002 8.390123e+001
      endloop
   endfacet
   facet normal 7.601210e-001 2.316139e-016 -6.497815e-001
      outer loop
         vertex 2.441178e+002 1.493260e+002 8.390123e+001
         vertex 2.440927e+002 1.493260e+002 8.386288e+001
         vertex 2.438299e+002 1.723261e+002 8.357474e+001
      endloop
   endfacet
   facet normal 7.209911e-001 2.252308e-016 -6.929443e-001
      outer loop
         vertex 2.438299e+002 1.723261e+002 8.357474e+001
         vertex 2.440927e+002 1.493260e+002 8.386288e+001
         vertex 2.438286e+002 1.493260e+002 8.357595e+001
      endloop
   endfacet
   facet normal 6.404724e-001 2.110994e-016 -7.679812e-001
      outer loop
         vertex 2.438299e+002 1.723261e+002 8.357474e+001
         vertex 2.438286e+002 1.493260e+002 8.357595e+001
         vertex 2.434872e+002 1.723261e+002 8.330550e+001
      endloop
   endfacet
   facet normal 6.381136e-001 2.106683e-016 -7.699422e-001
      outer loop
         vertex 2.434872e+002 1.723261e+002 8.330550e+001
         vertex 2.438286e+002 1.493260e+002 8.357595e+001
         vertex 2.438130e+002 1.493260e+002 8.355910e+001
      endloop
   endfacet
   facet normal 5.921863e-001 2.021060e-016 -8.058011e-001
      outer loop
         vertex 2.434872e+002 1.723261e+002 8.330550e+001
         vertex 2.438130e+002 1.493260e+002 8.355910e+001
         vertex 2.434872e+002 1.493260e+002 8.330550e+001
      endloop
   endfacet
   facet normal 9.386495e-001 2.529287e-016 -3.448727e-001
      outer loop
         vertex 2.443505e+002 1.723261e+002 8.426958e+001
         vertex 2.445126e+002 1.723261e+002 8.467407e+001
         vertex 2.445069e+002 1.493260e+002 8.467552e+001
      endloop
   endfacet
   facet normal 9.343465e-001 2.527146e-016 -3.563659e-001
      outer loop
         vertex 2.445069e+002 1.493260e+002 8.467552e+001
         vertex 2.444844e+002 1.493260e+002 8.458666e+001
         vertex 2.443505e+002 1.723261e+002 8.426958e+001
      endloop
   endfacet
   facet normal 9.120153e-001 2.511802e-016 -4.101563e-001
      outer loop
         vertex 2.443505e+002 1.723261e+002 8.426958e+001
         vertex 2.444844e+002 1.493260e+002 8.458666e+001
         vertex 2.443461e+002 1.493260e+002 8.427148e+001
      endloop
   endfacet
   facet normal 8.645034e-001 2.463266e-016 -5.026269e-001
      outer loop
         vertex 2.443505e+002 1.723261e+002 8.426958e+001
         vertex 2.443461e+002 1.493260e+002 8.427148e+001
         vertex 2.441206e+002 1.723261e+002 8.389938e+001
      endloop
   endfacet
   facet normal 8.598409e-001 2.457679e-016 -5.105621e-001
      outer loop
         vertex 2.441206e+002 1.723261e+002 8.389938e+001
         vertex 2.443461e+002 1.493260e+002 8.427148e+001
         vertex 2.443185e+002 1.493260e+002 8.420855e+001
      endloop
   endfacet
   facet normal 8.286541e-001 2.417506e-016 -5.597610e-001
      outer loop
         vertex 2.441206e+002 1.723261e+002 8.389938e+001
         vertex 2.443185e+002 1.493260e+002 8.420855e+001
         vertex 2.441178e+002 1.493260e+002 8.390123e+001
      endloop
   endfacet
   facet normal 9.997708e-001 2.443845e-016 -2.141022e-002
      outer loop
         vertex 2.446161e+002 1.723261e+002 8.553613e+001
         vertex 2.446199e+002 1.493260e+002 8.539841e+001
         vertex 2.446021e+002 1.723261e+002 8.510058e+001
      endloop
   endfacet
   facet normal 9.968280e-001 2.478766e-016 -7.958677e-002
      outer loop
         vertex 2.446021e+002 1.723261e+002 8.510058e+001
         vertex 2.446199e+002 1.493260e+002 8.539841e+001
         vertex 2.445952e+002 1.493260e+002 8.510114e+001
      endloop
   endfacet
   facet normal 9.842762e-001 2.518456e-016 -1.766360e-001
      outer loop
         vertex 2.446021e+002 1.723261e+002 8.510058e+001
         vertex 2.445952e+002 1.493260e+002 8.510114e+001
         vertex 2.445126e+002 1.723261e+002 8.467407e+001
      endloop
   endfacet
   facet normal 9.814507e-001 2.522497e-016 -1.917148e-001
      outer loop
         vertex 2.445126e+002 1.723261e+002 8.467407e+001
         vertex 2.445952e+002 1.493260e+002 8.510114e+001
         vertex 2.445858e+002 1.493260e+002 8.498692e+001
      endloop
   endfacet
   facet normal 9.686273e-001 2.532425e-016 -2.485178e-001
      outer loop
         vertex 2.445126e+002 1.723261e+002 8.467407e+001
         vertex 2.445858e+002 1.493260e+002 8.498692e+001
         vertex 2.445069e+002 1.493260e+002 8.467552e+001
      endloop
   endfacet
   facet normal 9.887634e-001 2.293529e-016 1.494891e-001
      outer loop
         vertex 2.445542e+002 1.723261e+002 8.596751e+001
         vertex 2.445858e+002 1.493260e+002 8.580990e+001
         vertex 2.446161e+002 1.723261e+002 8.553613e+001
      endloop
   endfacet
   facet normal 9.957884e-001 2.352394e-016 9.168115e-002
      outer loop
         vertex 2.446161e+002 1.723261e+002 8.553613e+001
         vertex 2.445858e+002 1.493260e+002 8.580990e+001
         vertex 2.446085e+002 1.493260e+002 8.553551e+001
      endloop
   endfacet
   facet normal 9.993262e-001 2.400742e-016 3.670476e-002
      outer loop
         vertex 2.446161e+002 1.723261e+002 8.553613e+001
         vertex 2.446085e+002 1.493260e+002 8.553551e+001
         vertex 2.446199e+002 1.493260e+002 8.539841e+001
      endloop
   endfacet
   facet normal 9.487578e-001 2.075950e-016 3.160042e-001
      outer loop
         vertex 2.444184e+002 1.723261e+002 8.638158e+001
         vertex 2.444844e+002 1.493260e+002 8.621016e+001
         vertex 2.445542e+002 1.723261e+002 8.596751e+001
      endloop
   endfacet
   facet normal 9.655382e-001 2.157016e-016 2.602614e-001
      outer loop
         vertex 2.445542e+002 1.723261e+002 8.596751e+001
         vertex 2.444844e+002 1.493260e+002 8.621016e+001
         vertex 2.445464e+002 1.493260e+002 8.596551e+001
      endloop
   endfacet
   facet normal 9.784060e-001 2.227007e-016 2.066925e-001
      outer loop
         vertex 2.445542e+002 1.723261e+002 8.596751e+001
         vertex 2.445464e+002 1.493260e+002 8.596551e+001
         vertex 2.445858e+002 1.493260e+002 8.580990e+001
      endloop
   endfacet
   facet normal 8.809274e-001 1.797487e-016 4.732514e-001
      outer loop
         vertex 2.442128e+002 1.723261e+002 8.676579e+001
         vertex 2.443185e+002 1.493260e+002 8.658829e+001
         vertex 2.444184e+002 1.723261e+002 8.638158e+001
      endloop
   endfacet
   facet normal 9.069642e-001 1.898362e-016 4.212078e-001
      outer loop
         vertex 2.444184e+002 1.723261e+002 8.638158e+001
         vertex 2.443185e+002 1.493260e+002 8.658829e+001
         vertex 2.444107e+002 1.493260e+002 8.637820e+001
      endloop
   endfacet
   facet normal 9.287850e-001 1.987944e-016 3.706190e-001
      outer loop
         vertex 2.444184e+002 1.723261e+002 8.638158e+001
         vertex 2.444107e+002 1.493260e+002 8.637820e+001
         vertex 2.444844e+002 1.493260e+002 8.621016e+001
      endloop
   endfacet
   facet normal 7.872615e-001 1.466309e-016 6.166193e-001
      outer loop
         vertex 2.439435e+002 1.723261e+002 8.710844e+001
         vertex 2.440927e+002 1.493260e+002 8.693394e+001
         vertex 2.442128e+002 1.723261e+002 8.676579e+001
      endloop
   endfacet
   facet normal 8.217846e-001 1.584019e-016 5.697984e-001
      outer loop
         vertex 2.442128e+002 1.723261e+002 8.676579e+001
         vertex 2.440927e+002 1.493260e+002 8.693394e+001
         vertex 2.442056e+002 1.493260e+002 8.676112e+001
      endloop
   endfacet
   facet normal 8.519183e-001 1.690564e-016 5.236748e-001
      outer loop
         vertex 2.442128e+002 1.723261e+002 8.676579e+001
         vertex 2.442056e+002 1.493260e+002 8.676112e+001
         vertex 2.443185e+002 1.493260e+002 8.658829e+001
      endloop
   endfacet
   facet normal 6.705070e-001 1.092127e-016 7.419032e-001
      outer loop
         vertex 2.436189e+002 1.723261e+002 8.739915e+001
         vertex 2.438131e+002 1.493260e+002 8.723772e+001
         vertex 2.439435e+002 1.723261e+002 8.710844e+001
      endloop
   endfacet
   facet normal 7.124984e-001 1.223211e-016 7.016737e-001
      outer loop
         vertex 2.439435e+002 1.723261e+002 8.710844e+001
         vertex 2.438131e+002 1.493260e+002 8.723772e+001
         vertex 2.439373e+002 1.493260e+002 8.710273e+001
      endloop
   endfacet
   facet normal 7.500606e-001 1.343591e-016 6.613691e-001
      outer loop
         vertex 2.439435e+002 1.723261e+002 8.710844e+001
         vertex 2.439373e+002 1.493260e+002 8.710273e+001
         vertex 2.440927e+002 1.493260e+002 8.693394e+001
      endloop
   endfacet
   facet normal 5.340880e-001 6.859152e-017 8.454289e-001
      outer loop
         vertex 2.432487e+002 1.723261e+002 8.762906e+001
         vertex 2.434872e+002 1.493260e+002 8.749133e+001
         vertex 2.436189e+002 1.723261e+002 8.739915e+001
      endloop
   endfacet
   facet normal 5.823125e-001 8.265236e-017 8.129650e-001
      outer loop
         vertex 2.436189e+002 1.723261e+002 8.739915e+001
         vertex 2.434872e+002 1.493260e+002 8.749133e+001
         vertex 2.436139e+002 1.493260e+002 8.739274e+001
      endloop
   endfacet
   facet normal 6.262001e-001 9.572049e-017 7.796624e-001
      outer loop
         vertex 2.436189e+002 1.723261e+002 8.739915e+001
         vertex 2.436139e+002 1.493260e+002 8.739274e+001
         vertex 2.438131e+002 1.493260e+002 8.723772e+001
      endloop
   endfacet
   facet normal 3.820054e-001 2.595870e-017 9.241601e-001
      outer loop
         vertex 2.428442e+002 1.723261e+002 8.779119e+001
         vertex 2.431241e+002 1.493260e+002 8.768785e+001
         vertex 2.432487e+002 1.723261e+002 8.762906e+001
      endloop
   endfacet
   facet normal 4.350466e-001 4.055954e-017 9.004079e-001
      outer loop
         vertex 2.432487e+002 1.723261e+002 8.762906e+001
         vertex 2.431241e+002 1.493260e+002 8.768785e+001
         vertex 2.432451e+002 1.493260e+002 8.762238e+001
      endloop
   endfacet
   facet normal 4.839712e-001 5.427414e-017 8.750839e-001
      outer loop
         vertex 2.432487e+002 1.723261e+002 8.762906e+001
         vertex 2.432451e+002 1.493260e+002 8.762238e+001
         vertex 2.434872e+002 1.493260e+002 8.749133e+001
      endloop
   endfacet
   facet normal 2.187191e-001 -1.743550e-017 9.757879e-001
      outer loop
         vertex 2.424177e+002 1.723261e+002 8.788062e+001
         vertex 2.427336e+002 1.493260e+002 8.782192e+001
         vertex 2.428442e+002 1.723261e+002 8.779119e+001
      endloop
   endfacet
   facet normal 2.750220e-001 -2.722313e-018 9.614379e-001
      outer loop
         vertex 2.428442e+002 1.723261e+002 8.779119e+001
         vertex 2.427336e+002 1.493260e+002 8.782192e+001
         vertex 2.428420e+002 1.493260e+002 8.778471e+001
      endloop
   endfacet
   facet normal 3.275468e-001 1.123611e-017 9.448349e-001
      outer loop
         vertex 2.428442e+002 1.723261e+002 8.779119e+001
         vertex 2.428420e+002 1.493260e+002 8.778471e+001
         vertex 2.431241e+002 1.493260e+002 8.768785e+001
      endloop
   endfacet
   facet normal 4.901818e-002 -6.031839e-017 9.987979e-001
      outer loop
         vertex 2.419821e+002 1.723261e+002 8.789462e+001
         vertex 2.423263e+002 1.493260e+002 8.788988e+001
         vertex 2.424177e+002 1.723261e+002 8.788062e+001
      endloop
   endfacet
   facet normal 1.069336e-001 -4.592350e-017 9.942662e-001
      outer loop
         vertex 2.424177e+002 1.723261e+002 8.788062e+001
         vertex 2.423263e+002 1.493260e+002 8.788988e+001
         vertex 2.424167e+002 1.493260e+002 8.787480e+001
      endloop
   endfacet
   facet normal 1.615167e-001 -3.213088e-017 9.868700e-001
      outer loop
         vertex 2.424177e+002 1.723261e+002 8.788062e+001
         vertex 2.424167e+002 1.493260e+002 8.787480e+001
         vertex 2.427336e+002 1.493260e+002 8.782192e+001
      endloop
   endfacet
   facet normal -1.221209e-001 -1.014324e-016 9.925153e-001
      outer loop
         vertex 2.415508e+002 1.723261e+002 8.783279e+001
         vertex 2.419134e+002 1.493260e+002 8.788988e+001
         vertex 2.419821e+002 1.723261e+002 8.789462e+001
      endloop
   endfacet
   facet normal -6.428709e-002 -8.777668e-017 9.979314e-001
      outer loop
         vertex 2.419821e+002 1.723261e+002 8.789462e+001
         vertex 2.419134e+002 1.493260e+002 8.788988e+001
         vertex 2.419821e+002 1.493260e+002 8.788988e+001
      endloop
   endfacet
   facet normal -9.248323e-003 -7.455470e-017 9.999572e-001
      outer loop
         vertex 2.419821e+002 1.723261e+002 8.789462e+001
         vertex 2.419821e+002 1.493260e+002 8.788988e+001
         vertex 2.423263e+002 1.493260e+002 8.788988e+001
      endloop
   endfacet
   facet normal -2.896785e-001 -1.395716e-016 9.571240e-001
      outer loop
         vertex 2.411367e+002 1.723261e+002 8.769699e+001
         vertex 2.415062e+002 1.493260e+002 8.782193e+001
         vertex 2.415508e+002 1.723261e+002 8.783279e+001
      endloop
   endfacet
   facet normal -2.336176e-001 -1.270543e-016 9.723285e-001
      outer loop
         vertex 2.415508e+002 1.723261e+002 8.783279e+001
         vertex 2.415062e+002 1.493260e+002 8.782193e+001
         vertex 2.415513e+002 1.493260e+002 8.782947e+001
      endloop
   endfacet
   facet normal -1.797382e-001 -1.147908e-016 9.837145e-001
      outer loop
         vertex 2.415508e+002 1.723261e+002 8.783279e+001
         vertex 2.415513e+002 1.493260e+002 8.782947e+001
         vertex 2.419134e+002 1.493260e+002 8.788988e+001
      endloop
   endfacet
   facet normal -5.921863e-001 -2.021060e-016 8.058011e-001
      outer loop
         vertex 2.404267e+002 1.493260e+002 8.723775e+001
         vertex 2.407525e+002 1.493260e+002 8.749135e+001
         vertex 2.407525e+002 1.723261e+002 8.749135e+001
      endloop
   endfacet
   facet normal -5.000443e-001 -1.840784e-016 8.659998e-001
      outer loop
         vertex 2.407525e+002 1.723261e+002 8.749135e+001
         vertex 2.407525e+002 1.493260e+002 8.749135e+001
         vertex 2.411156e+002 1.493260e+002 8.768787e+001
      endloop
   endfacet
   facet normal -4.487410e-001 -1.736176e-016 8.936619e-001
      outer loop
         vertex 2.407525e+002 1.723261e+002 8.749135e+001
         vertex 2.411156e+002 1.493260e+002 8.768787e+001
         vertex 2.411367e+002 1.723261e+002 8.769699e+001
      endloop
   endfacet
   facet normal -3.960915e-001 -1.626046e-016 9.182110e-001
      outer loop
         vertex 2.411367e+002 1.723261e+002 8.769699e+001
         vertex 2.411156e+002 1.493260e+002 8.768787e+001
         vertex 2.411373e+002 1.493260e+002 8.769529e+001
      endloop
   endfacet
   facet normal -3.449521e-001 -1.516591e-016 9.386203e-001
      outer loop
         vertex 2.411367e+002 1.723261e+002 8.769699e+001
         vertex 2.411373e+002 1.493260e+002 8.769529e+001
         vertex 2.415062e+002 1.493260e+002 8.782193e+001
      endloop
   endfacet
   facet normal -2.428920e-016 1.000000e+000 7.231144e-017
      outer loop
         vertex 2.442128e+002 1.723261e+002 8.676579e+001
         vertex 2.444184e+002 1.723261e+002 8.638158e+001
         vertex 2.402962e+002 1.723261e+002 8.368841e+001
      endloop
   endfacet
   facet normal -2.428920e-016 1.000000e+000 7.231144e-017
      outer loop
         vertex 2.398892e+002 1.723261e+002 8.652727e+001
         vertex 2.401191e+002 1.723261e+002 8.689746e+001
         vertex 2.439435e+002 1.723261e+002 8.710844e+001
      endloop
   endfacet
   facet normal -2.428920e-016 1.000000e+000 7.231144e-017
      outer loop
         vertex 2.398213e+002 1.723261e+002 8.441528e+001
         vertex 2.396855e+002 1.723261e+002 8.482935e+001
         vertex 2.439435e+002 1.723261e+002 8.710844e+001
      endloop
   endfacet
   facet normal -2.428920e-016 1.000000e+000 7.231144e-017
      outer loop
         vertex 2.439435e+002 1.723261e+002 8.710844e+001
         vertex 2.396855e+002 1.723261e+002 8.482935e+001
         vertex 2.396237e+002 1.723261e+002 8.526072e+001
      endloop
   endfacet
   facet normal -2.428920e-016 1.000000e+000 7.231144e-017
      outer loop
         vertex 2.442128e+002 1.723261e+002 8.676579e+001
         vertex 2.402962e+002 1.723261e+002 8.368841e+001
         vertex 2.439435e+002 1.723261e+002 8.710844e+001
      endloop
   endfacet
   facet normal -2.428920e-016 1.000000e+000 7.231144e-017
      outer loop
         vertex 2.439435e+002 1.723261e+002 8.710844e+001
         vertex 2.402962e+002 1.723261e+002 8.368841e+001
         vertex 2.400269e+002 1.723261e+002 8.403107e+001
      endloop
   endfacet
   facet normal -2.428920e-016 1.000000e+000 7.231144e-017
      outer loop
         vertex 2.439435e+002 1.723261e+002 8.710844e+001
         vertex 2.400269e+002 1.723261e+002 8.403107e+001
         vertex 2.398213e+002 1.723261e+002 8.441528e+001
      endloop
   endfacet
   facet normal -2.428920e-016 1.000000e+000 7.231144e-017
      outer loop
         vertex 2.396237e+002 1.723261e+002 8.526072e+001
         vertex 2.396377e+002 1.723261e+002 8.569627e+001
         vertex 2.439435e+002 1.723261e+002 8.710844e+001
      endloop
   endfacet
   facet normal -2.428920e-016 1.000000e+000 7.231144e-017
      outer loop
         vertex 2.439435e+002 1.723261e+002 8.710844e+001
         vertex 2.396377e+002 1.723261e+002 8.569627e+001
         vertex 2.397271e+002 1.723261e+002 8.612277e+001
      endloop
   endfacet
   facet normal -2.428920e-016 1.000000e+000 7.231144e-017
      outer loop
         vertex 2.439435e+002 1.723261e+002 8.710844e+001
         vertex 2.397271e+002 1.723261e+002 8.612277e+001
         vertex 2.398892e+002 1.723261e+002 8.652727e+001
      endloop
   endfacet
   facet normal -2.428920e-016 1.000000e+000 7.231144e-017
      outer loop
         vertex 2.444184e+002 1.723261e+002 8.638158e+001
         vertex 2.445542e+002 1.723261e+002 8.596751e+001
         vertex 2.402962e+002 1.723261e+002 8.368841e+001
      endloop
   endfacet
   facet normal -2.428920e-016 1.000000e+000 7.231144e-017
      outer loop
         vertex 2.402962e+002 1.723261e+002 8.368841e+001
         vertex 2.445542e+002 1.723261e+002 8.596751e+001
         vertex 2.446161e+002 1.723261e+002 8.553613e+001
      endloop
   endfacet
   facet normal -2.428920e-016 1.000000e+000 7.231144e-017
      outer loop
         vertex 2.402962e+002 1.723261e+002 8.368841e+001
         vertex 2.446161e+002 1.723261e+002 8.553613e+001
         vertex 2.446021e+002 1.723261e+002 8.510058e+001
      endloop
   endfacet
   facet normal -2.428920e-016 1.000000e+000 7.231144e-017
      outer loop
         vertex 2.446021e+002 1.723261e+002 8.510058e+001
         vertex 2.445126e+002 1.723261e+002 8.467407e+001
         vertex 2.402962e+002 1.723261e+002 8.368841e+001
      endloop
   endfacet
   facet normal -2.428920e-016 1.000000e+000 7.231144e-017
      outer loop
         vertex 2.402962e+002 1.723261e+002 8.368841e+001
         vertex 2.445126e+002 1.723261e+002 8.467407e+001
         vertex 2.443505e+002 1.723261e+002 8.426958e+001
      endloop
   endfacet
   facet normal -2.428920e-016 1.000000e+000 7.231144e-017
      outer loop
         vertex 2.402962e+002 1.723261e+002 8.368841e+001
         vertex 2.443505e+002 1.723261e+002 8.426958e+001
         vertex 2.441206e+002 1.723261e+002 8.389938e+001
      endloop
   endfacet
   facet normal -2.428920e-016 1.000000e+000 7.231144e-017
      outer loop
         vertex 2.401191e+002 1.723261e+002 8.689746e+001
         vertex 2.404098e+002 1.723261e+002 8.722211e+001
         vertex 2.439435e+002 1.723261e+002 8.710844e+001
      endloop
   endfacet
   facet normal -2.428920e-016 1.000000e+000 7.231144e-017
      outer loop
         vertex 2.439435e+002 1.723261e+002 8.710844e+001
         vertex 2.404098e+002 1.723261e+002 8.722211e+001
         vertex 2.407525e+002 1.723261e+002 8.749135e+001
      endloop
   endfacet
   facet normal -2.428920e-016 1.000000e+000 7.231144e-017
      outer loop
         vertex 2.439435e+002 1.723261e+002 8.710844e+001
         vertex 2.407525e+002 1.723261e+002 8.749135e+001
         vertex 2.411367e+002 1.723261e+002 8.769699e+001
      endloop
   endfacet
   facet normal -2.428920e-016 1.000000e+000 7.231144e-017
      outer loop
         vertex 2.411367e+002 1.723261e+002 8.769699e+001
         vertex 2.415508e+002 1.723261e+002 8.783279e+001
         vertex 2.439435e+002 1.723261e+002 8.710844e+001
      endloop
   endfacet
   facet normal -2.428920e-016 1.000000e+000 7.231144e-017
      outer loop
         vertex 2.439435e+002 1.723261e+002 8.710844e+001
         vertex 2.415508e+002 1.723261e+002 8.783279e+001
         vertex 2.419821e+002 1.723261e+002 8.789462e+001
      endloop
   endfacet
   facet normal -2.428920e-016 1.000000e+000 7.231144e-017
      outer loop
         vertex 2.439435e+002 1.723261e+002 8.710844e+001
         vertex 2.419821e+002 1.723261e+002 8.789462e+001
         vertex 2.424177e+002 1.723261e+002 8.788062e+001
      endloop
   endfacet
   facet normal -2.428920e-016 1.000000e+000 7.231144e-017
      outer loop
         vertex 2.441206e+002 1.723261e+002 8.389938e+001
         vertex 2.438299e+002 1.723261e+002 8.357474e+001
         vertex 2.402962e+002 1.723261e+002 8.368841e+001
      endloop
   endfacet
   facet normal -2.428920e-016 1.000000e+000 7.231144e-017
      outer loop
         vertex 2.402962e+002 1.723261e+002 8.368841e+001
         vertex 2.438299e+002 1.723261e+002 8.357474e+001
         vertex 2.434872e+002 1.723261e+002 8.330550e+001
      endloop
   endfacet
   facet normal -2.428920e-016 1.000000e+000 7.231144e-017
      outer loop
         vertex 2.402962e+002 1.723261e+002 8.368841e+001
         vertex 2.434872e+002 1.723261e+002 8.330550e+001
         vertex 2.431030e+002 1.723261e+002 8.309985e+001
      endloop
   endfacet
   facet normal -2.428920e-016 1.000000e+000 7.231144e-017
      outer loop
         vertex 2.431030e+002 1.723261e+002 8.309985e+001
         vertex 2.426889e+002 1.723261e+002 8.296406e+001
         vertex 2.402962e+002 1.723261e+002 8.368841e+001
      endloop
   endfacet
   facet normal -2.428920e-016 1.000000e+000 7.231144e-017
      outer loop
         vertex 2.402962e+002 1.723261e+002 8.368841e+001
         vertex 2.426889e+002 1.723261e+002 8.296406e+001
         vertex 2.422576e+002 1.723261e+002 8.290222e+001
      endloop
   endfacet
   facet normal -2.428920e-016 1.000000e+000 7.231144e-017
      outer loop
         vertex 2.402962e+002 1.723261e+002 8.368841e+001
         vertex 2.422576e+002 1.723261e+002 8.290222e+001
         vertex 2.418220e+002 1.723261e+002 8.291623e+001
      endloop
   endfacet
   facet normal -2.428920e-016 1.000000e+000 7.231144e-017
      outer loop
         vertex 2.424177e+002 1.723261e+002 8.788062e+001
         vertex 2.428442e+002 1.723261e+002 8.779119e+001
         vertex 2.439435e+002 1.723261e+002 8.710844e+001
      endloop
   endfacet
   facet normal -2.428920e-016 1.000000e+000 7.231144e-017
      outer loop
         vertex 2.439435e+002 1.723261e+002 8.710844e+001
         vertex 2.428442e+002 1.723261e+002 8.779119e+001
         vertex 2.432487e+002 1.723261e+002 8.762906e+001
      endloop
   endfacet
   facet normal -2.428920e-016 1.000000e+000 7.231144e-017
      outer loop
         vertex 2.439435e+002 1.723261e+002 8.710844e+001
         vertex 2.432487e+002 1.723261e+002 8.762906e+001
         vertex 2.436189e+002 1.723261e+002 8.739915e+001
      endloop
   endfacet
   facet normal -2.428920e-016 1.000000e+000 7.231144e-017
      outer loop
         vertex 2.418220e+002 1.723261e+002 8.291623e+001
         vertex 2.413955e+002 1.723261e+002 8.300566e+001
         vertex 2.402962e+002 1.723261e+002 8.368841e+001
      endloop
   endfacet
   facet normal -2.428920e-016 1.000000e+000 7.231144e-017
      outer loop
         vertex 2.402962e+002 1.723261e+002 8.368841e+001
         vertex 2.413955e+002 1.723261e+002 8.300566e+001
         vertex 2.409910e+002 1.723261e+002 8.316779e+001
      endloop
   endfacet
   facet normal -2.428920e-016 1.000000e+000 7.231144e-017
      outer loop
         vertex 2.402962e+002 1.723261e+002 8.368841e+001
         vertex 2.409910e+002 1.723261e+002 8.316779e+001
         vertex 2.406208e+002 1.723261e+002 8.339771e+001
      endloop
   endfacet
   facet normal 2.428920e-016 -1.000000e+000 -7.231144e-017
      outer loop
         vertex 2.436062e+002 1.481261e+002 8.878678e+001
         vertex 2.406336e+002 1.481261e+002 8.201007e+001
         vertex 2.412115e+002 1.481261e+002 8.181165e+001
      endloop
   endfacet
   facet normal 2.428920e-016 -1.000000e+000 -7.231144e-017
      outer loop
         vertex 2.400962e+002 1.481261e+002 8.849595e+001
         vertex 2.396139e+002 1.481261e+002 8.812062e+001
         vertex 2.406336e+002 1.481261e+002 8.201007e+001
      endloop
   endfacet
   facet normal 2.428920e-016 -1.000000e+000 -7.231144e-017
      outer loop
         vertex 2.436062e+002 1.481261e+002 8.878678e+001
         vertex 2.430282e+002 1.481261e+002 8.898521e+001
         vertex 2.406336e+002 1.481261e+002 8.201007e+001
      endloop
   endfacet
   facet normal 2.428920e-016 -1.000000e+000 -7.231144e-017
      outer loop
         vertex 2.406336e+002 1.481261e+002 8.201007e+001
         vertex 2.430282e+002 1.481261e+002 8.898521e+001
         vertex 2.424254e+002 1.481261e+002 8.908578e+001
      endloop
   endfacet
   facet normal 2.428920e-016 -1.000000e+000 -7.231144e-017
      outer loop
         vertex 2.406336e+002 1.481261e+002 8.201007e+001
         vertex 2.424254e+002 1.481261e+002 8.908578e+001
         vertex 2.418143e+002 1.481261e+002 8.908578e+001
      endloop
   endfacet
   facet normal 2.428920e-016 -1.000000e+000 -7.231144e-017
      outer loop
         vertex 2.412115e+002 1.481261e+002 8.181165e+001
         vertex 2.418143e+002 1.481261e+002 8.171106e+001
         vertex 2.436062e+002 1.481261e+002 8.878678e+001
      endloop
   endfacet
   facet normal 2.428920e-016 -1.000000e+000 -7.231144e-017
      outer loop
         vertex 2.436062e+002 1.481261e+002 8.878678e+001
         vertex 2.418143e+002 1.481261e+002 8.171106e+001
         vertex 2.424254e+002 1.481261e+002 8.171106e+001
      endloop
   endfacet
   facet normal 2.428920e-016 -1.000000e+000 -7.231144e-017
      outer loop
         vertex 2.436062e+002 1.481261e+002 8.878678e+001
         vertex 2.424254e+002 1.481261e+002 8.171106e+001
         vertex 2.430281e+002 1.481261e+002 8.181164e+001
      endloop
   endfacet
   facet normal 2.428920e-016 -1.000000e+000 -7.231144e-017
      outer loop
         vertex 2.436062e+002 1.481261e+002 8.878678e+001
         vertex 2.456194e+002 1.481261e+002 8.419702e+001
         vertex 2.457694e+002 1.481261e+002 8.478941e+001
      endloop
   endfacet
   facet normal 2.428920e-016 -1.000000e+000 -7.231144e-017
      outer loop
         vertex 2.418143e+002 1.481261e+002 8.908578e+001
         vertex 2.412116e+002 1.481261e+002 8.898521e+001
         vertex 2.406336e+002 1.481261e+002 8.201007e+001
      endloop
   endfacet
   facet normal 2.428920e-016 -1.000000e+000 -7.231144e-017
      outer loop
         vertex 2.406336e+002 1.481261e+002 8.201007e+001
         vertex 2.412116e+002 1.481261e+002 8.898521e+001
         vertex 2.406336e+002 1.481261e+002 8.878680e+001
      endloop
   endfacet
   facet normal 2.428920e-016 -1.000000e+000 -7.231144e-017
      outer loop
         vertex 2.406336e+002 1.481261e+002 8.201007e+001
         vertex 2.406336e+002 1.481261e+002 8.878680e+001
         vertex 2.400962e+002 1.481261e+002 8.849595e+001
      endloop
   endfacet
   facet normal 2.428920e-016 -1.000000e+000 -7.231144e-017
      outer loop
         vertex 2.388658e+002 1.481261e+002 8.715945e+001
         vertex 2.386203e+002 1.481261e+002 8.659982e+001
         vertex 2.386203e+002 1.481261e+002 8.419705e+001
      endloop
   endfacet
   facet normal 2.428920e-016 -1.000000e+000 -7.231144e-017
      outer loop
         vertex 2.386203e+002 1.481261e+002 8.419705e+001
         vertex 2.386203e+002 1.481261e+002 8.659982e+001
         vertex 2.384703e+002 1.481261e+002 8.600744e+001
      endloop
   endfacet
   facet normal 2.428920e-016 -1.000000e+000 -7.231144e-017
      outer loop
         vertex 2.386203e+002 1.481261e+002 8.419705e+001
         vertex 2.384703e+002 1.481261e+002 8.600744e+001
         vertex 2.384703e+002 1.481261e+002 8.478944e+001
      endloop
   endfacet
   facet normal 2.428920e-016 -1.000000e+000 -7.231144e-017
      outer loop
         vertex 2.384703e+002 1.481261e+002 8.478944e+001
         vertex 2.384703e+002 1.481261e+002 8.600744e+001
         vertex 2.384199e+002 1.481261e+002 8.539845e+001
      endloop
   endfacet
   facet normal 2.428920e-016 -1.000000e+000 -7.231144e-017
      outer loop
         vertex 2.386203e+002 1.481261e+002 8.419705e+001
         vertex 2.388658e+002 1.481261e+002 8.363743e+001
         vertex 2.388658e+002 1.481261e+002 8.715945e+001
      endloop
   endfacet
   facet normal 2.428920e-016 -1.000000e+000 -7.231144e-017
      outer loop
         vertex 2.388658e+002 1.481261e+002 8.715945e+001
         vertex 2.388658e+002 1.481261e+002 8.363743e+001
         vertex 2.392000e+002 1.481261e+002 8.312585e+001
      endloop
   endfacet
   facet normal 2.428920e-016 -1.000000e+000 -7.231144e-017
      outer loop
         vertex 2.388658e+002 1.481261e+002 8.715945e+001
         vertex 2.392000e+002 1.481261e+002 8.312585e+001
         vertex 2.396139e+002 1.481261e+002 8.267626e+001
      endloop
   endfacet
   facet normal 2.428920e-016 -1.000000e+000 -7.231144e-017
      outer loop
         vertex 2.430281e+002 1.481261e+002 8.181164e+001
         vertex 2.436061e+002 1.481261e+002 8.201006e+001
         vertex 2.436062e+002 1.481261e+002 8.878678e+001
      endloop
   endfacet
   facet normal 2.428920e-016 -1.000000e+000 -7.231144e-017
      outer loop
         vertex 2.436062e+002 1.481261e+002 8.878678e+001
         vertex 2.436061e+002 1.481261e+002 8.201006e+001
         vertex 2.441436e+002 1.481261e+002 8.230090e+001
      endloop
   endfacet
   facet normal 2.428920e-016 -1.000000e+000 -7.231144e-017
      outer loop
         vertex 2.436062e+002 1.481261e+002 8.878678e+001
         vertex 2.441436e+002 1.481261e+002 8.230090e+001
         vertex 2.446258e+002 1.481261e+002 8.267623e+001
      endloop
   endfacet
   facet normal 2.428920e-016 -1.000000e+000 -7.231144e-017
      outer loop
         vertex 2.446258e+002 1.481261e+002 8.267623e+001
         vertex 2.450397e+002 1.481261e+002 8.312582e+001
         vertex 2.436062e+002 1.481261e+002 8.878678e+001
      endloop
   endfacet
   facet normal 2.428920e-016 -1.000000e+000 -7.231144e-017
      outer loop
         vertex 2.436062e+002 1.481261e+002 8.878678e+001
         vertex 2.450397e+002 1.481261e+002 8.312582e+001
         vertex 2.453739e+002 1.481261e+002 8.363740e+001
      endloop
   endfacet
   facet normal 2.428920e-016 -1.000000e+000 -7.231144e-017
      outer loop
         vertex 2.436062e+002 1.481261e+002 8.878678e+001
         vertex 2.453739e+002 1.481261e+002 8.363740e+001
         vertex 2.456194e+002 1.481261e+002 8.419702e+001
      endloop
   endfacet
   facet normal 2.428920e-016 -1.000000e+000 -7.231144e-017
      outer loop
         vertex 2.396139e+002 1.481261e+002 8.812062e+001
         vertex 2.392001e+002 1.481261e+002 8.767103e+001
         vertex 2.406336e+002 1.481261e+002 8.201007e+001
      endloop
   endfacet
   facet normal 2.428920e-016 -1.000000e+000 -7.231144e-017
      outer loop
         vertex 2.406336e+002 1.481261e+002 8.201007e+001
         vertex 2.392001e+002 1.481261e+002 8.767103e+001
         vertex 2.388658e+002 1.481261e+002 8.715945e+001
      endloop
   endfacet
   facet normal 2.428920e-016 -1.000000e+000 -7.231144e-017
      outer loop
         vertex 2.406336e+002 1.481261e+002 8.201007e+001
         vertex 2.388658e+002 1.481261e+002 8.715945e+001
         vertex 2.400961e+002 1.481261e+002 8.230092e+001
      endloop
   endfacet
   facet normal 2.428920e-016 -1.000000e+000 -7.231144e-017
      outer loop
         vertex 2.400961e+002 1.481261e+002 8.230092e+001
         vertex 2.388658e+002 1.481261e+002 8.715945e+001
         vertex 2.396139e+002 1.481261e+002 8.267626e+001
      endloop
   endfacet
   facet normal 2.428920e-016 -1.000000e+000 -7.231144e-017
      outer loop
         vertex 2.457694e+002 1.481261e+002 8.478941e+001
         vertex 2.458199e+002 1.481261e+002 8.539841e+001
         vertex 2.436062e+002 1.481261e+002 8.878678e+001
      endloop
   endfacet
   facet normal 2.428920e-016 -1.000000e+000 -7.231144e-017
      outer loop
         vertex 2.436062e+002 1.481261e+002 8.878678e+001
         vertex 2.458199e+002 1.481261e+002 8.539841e+001
         vertex 2.457694e+002 1.481261e+002 8.600741e+001
      endloop
   endfacet
   facet normal 2.428920e-016 -1.000000e+000 -7.231144e-017
      outer loop
         vertex 2.436062e+002 1.481261e+002 8.878678e+001
         vertex 2.457694e+002 1.481261e+002 8.600741e+001
         vertex 2.441436e+002 1.481261e+002 8.849593e+001
      endloop
   endfacet
   facet normal 2.428920e-016 -1.000000e+000 -7.231144e-017
      outer loop
         vertex 2.453739e+002 1.481261e+002 8.715942e+001
         vertex 2.450397e+002 1.481261e+002 8.767100e+001
         vertex 2.446258e+002 1.481261e+002 8.812060e+001
      endloop
   endfacet
   facet normal 2.428920e-016 -1.000000e+000 -7.231144e-017
      outer loop
         vertex 2.441436e+002 1.481261e+002 8.849593e+001
         vertex 2.457694e+002 1.481261e+002 8.600741e+001
         vertex 2.446258e+002 1.481261e+002 8.812060e+001
      endloop
   endfacet
   facet normal 2.428920e-016 -1.000000e+000 -7.231144e-017
      outer loop
         vertex 2.446258e+002 1.481261e+002 8.812060e+001
         vertex 2.457694e+002 1.481261e+002 8.600741e+001
         vertex 2.456194e+002 1.481261e+002 8.659980e+001
      endloop
   endfacet
   facet normal 2.428920e-016 -1.000000e+000 -7.231144e-017
      outer loop
         vertex 2.446258e+002 1.481261e+002 8.812060e+001
         vertex 2.456194e+002 1.481261e+002 8.659980e+001
         vertex 2.453739e+002 1.481261e+002 8.715942e+001
      endloop
   endfacet
   facet normal 1.311758e-001 7.080752e-001 -6.938462e-001
      outer loop
         vertex 2.426884e+002 1.493260e+002 8.296738e+001
         vertex 2.430281e+002 1.481261e+002 8.181164e+001
         vertex 2.424254e+002 1.481261e+002 8.171106e+001
      endloop
   endfacet
   facet normal 1.302261e-002 7.080321e-001 -7.060602e-001
      outer loop
         vertex 2.418143e+002 1.481261e+002 8.171106e+001
         vertex 2.422576e+002 1.493260e+002 8.290696e+001
         vertex 2.424254e+002 1.481261e+002 8.171106e+001
      endloop
   endfacet
   facet normal 5.193605e-002 7.071364e-001 -7.051672e-001
      outer loop
         vertex 2.424254e+002 1.481261e+002 8.171106e+001
         vertex 2.422576e+002 1.493260e+002 8.290696e+001
         vertex 2.423263e+002 1.493260e+002 8.290696e+001
      endloop
   endfacet
   facet normal 9.271026e-002 7.079564e-001 -7.001447e-001
      outer loop
         vertex 2.424254e+002 1.481261e+002 8.171106e+001
         vertex 2.423263e+002 1.493260e+002 8.290696e+001
         vertex 2.426884e+002 1.493260e+002 8.296738e+001
      endloop
   endfacet
   facet normal -1.055160e-001 7.079955e-001 -6.982898e-001
      outer loop
         vertex 2.412115e+002 1.481261e+002 8.181165e+001
         vertex 2.418230e+002 1.493260e+002 8.292205e+001
         vertex 2.418143e+002 1.481261e+002 8.171106e+001
      endloop
   endfacet
   facet normal -6.699133e-002 7.071595e-001 -7.038733e-001
      outer loop
         vertex 2.418143e+002 1.481261e+002 8.171106e+001
         vertex 2.418230e+002 1.493260e+002 8.292205e+001
         vertex 2.419134e+002 1.493260e+002 8.290696e+001
      endloop
   endfacet
   facet normal -2.595009e-002 7.078538e-001 -7.058821e-001
      outer loop
         vertex 2.418143e+002 1.481261e+002 8.171106e+001
         vertex 2.419134e+002 1.493260e+002 8.290696e+001
         vertex 2.422576e+002 1.493260e+002 8.290696e+001
      endloop
   endfacet
   facet normal -2.210819e-001 7.079656e-001 -6.707515e-001
      outer loop
         vertex 2.406336e+002 1.481261e+002 8.201007e+001
         vertex 2.413977e+002 1.493260e+002 8.301214e+001
         vertex 2.412115e+002 1.481261e+002 8.181165e+001
      endloop
   endfacet
   facet normal -1.840161e-001 7.071893e-001 -6.826576e-001
      outer loop
         vertex 2.412115e+002 1.481261e+002 8.181165e+001
         vertex 2.413977e+002 1.493260e+002 8.301214e+001
         vertex 2.415061e+002 1.493260e+002 8.297492e+001
      endloop
   endfacet
   facet normal -1.439133e-001 7.077576e-001 -6.916416e-001
      outer loop
         vertex 2.412115e+002 1.481261e+002 8.181165e+001
         vertex 2.415061e+002 1.493260e+002 8.297492e+001
         vertex 2.418230e+002 1.493260e+002 8.292205e+001
      endloop
   endfacet
   facet normal -3.304001e-001 7.079423e-001 -6.242223e-001
      outer loop
         vertex 2.400961e+002 1.481261e+002 8.230092e+001
         vertex 2.409946e+002 1.493260e+002 8.317447e+001
         vertex 2.406336e+002 1.481261e+002 8.201007e+001
      endloop
   endfacet
   facet normal -2.958237e-001 7.072257e-001 -6.421216e-001
      outer loop
         vertex 2.406336e+002 1.481261e+002 8.201007e+001
         vertex 2.409946e+002 1.493260e+002 8.317447e+001
         vertex 2.411156e+002 1.493260e+002 8.310900e+001
      endloop
   endfacet
   facet normal -2.578371e-001 7.076679e-001 -6.578192e-001
      outer loop
         vertex 2.406336e+002 1.481261e+002 8.201007e+001
         vertex 2.411156e+002 1.493260e+002 8.310900e+001
         vertex 2.413977e+002 1.493260e+002 8.301214e+001
      endloop
   endfacet
   facet normal -4.303728e-001 7.079256e-001 -5.600184e-001
      outer loop
         vertex 2.396139e+002 1.481261e+002 8.267626e+001
         vertex 2.406258e+002 1.493260e+002 8.340411e+001
         vertex 2.400961e+002 1.481261e+002 8.230092e+001
      endloop
   endfacet
   facet normal -3.992468e-001 7.072689e-001 -5.834147e-001
      outer loop
         vertex 2.400961e+002 1.481261e+002 8.230092e+001
         vertex 2.406258e+002 1.493260e+002 8.340411e+001
         vertex 2.407525e+002 1.493260e+002 8.330552e+001
      endloop
   endfacet
   facet normal -3.644928e-001 7.075848e-001 -6.053666e-001
      outer loop
         vertex 2.400961e+002 1.481261e+002 8.230092e+001
         vertex 2.407525e+002 1.493260e+002 8.330552e+001
         vertex 2.409946e+002 1.493260e+002 8.317447e+001
      endloop
   endfacet
   facet normal -5.181664e-001 7.079156e-001 -4.799574e-001
      outer loop
         vertex 2.392000e+002 1.481261e+002 8.312585e+001
         vertex 2.403024e+002 1.493260e+002 8.369411e+001
         vertex 2.396139e+002 1.481261e+002 8.267626e+001
      endloop
   endfacet
   facet normal -4.913564e-001 7.073187e-001 -5.082018e-001
      outer loop
         vertex 2.396139e+002 1.481261e+002 8.267626e+001
         vertex 2.403024e+002 1.493260e+002 8.369411e+001
         vertex 2.404267e+002 1.493260e+002 8.355913e+001
      endloop
   endfacet
   facet normal -4.608563e-001 7.075083e-001 -5.357643e-001
      outer loop
         vertex 2.396139e+002 1.481261e+002 8.267626e+001
         vertex 2.404267e+002 1.493260e+002 8.355913e+001
         vertex 2.406258e+002 1.493260e+002 8.340411e+001
      endloop
   endfacet
   facet normal -5.912929e-001 7.079123e-001 -3.863069e-001
      outer loop
         vertex 2.388658e+002 1.481261e+002 8.363743e+001
         vertex 2.400341e+002 1.493260e+002 8.403573e+001
         vertex 2.392000e+002 1.481261e+002 8.312585e+001
      endloop
   endfacet
   facet normal -5.695446e-001 7.073753e-001 -4.186157e-001
      outer loop
         vertex 2.392000e+002 1.481261e+002 8.312585e+001
         vertex 2.400341e+002 1.493260e+002 8.403573e+001
         vertex 2.401470e+002 1.493260e+002 8.386290e+001
      endloop
   endfacet
   facet normal -5.441948e-001 7.074385e-001 -4.509799e-001
      outer loop
         vertex 2.392000e+002 1.481261e+002 8.312585e+001
         vertex 2.401470e+002 1.493260e+002 8.386290e+001
         vertex 2.403024e+002 1.493260e+002 8.369411e+001
      endloop
   endfacet
   facet normal -6.476799e-001 7.079156e-001 -2.817201e-001
      outer loop
         vertex 2.386203e+002 1.481261e+002 8.419705e+001
         vertex 2.398290e+002 1.493260e+002 8.441866e+001
         vertex 2.388658e+002 1.481261e+002 8.363743e+001
      endloop
   endfacet
   facet normal -6.315989e-001 7.074385e-001 -3.171965e-001
      outer loop
         vertex 2.388658e+002 1.481261e+002 8.363743e+001
         vertex 2.398290e+002 1.493260e+002 8.441866e+001
         vertex 2.399212e+002 1.493260e+002 8.420856e+001
      endloop
   endfacet
   facet normal -6.121440e-001 7.073753e-001 -3.534119e-001
      outer loop
         vertex 2.388658e+002 1.481261e+002 8.363743e+001
         vertex 2.399212e+002 1.493260e+002 8.420856e+001
         vertex 2.400341e+002 1.493260e+002 8.403573e+001
      endloop
   endfacet
   facet normal -6.857303e-001 7.079256e-001 -1.691605e-001
      outer loop
         vertex 2.384703e+002 1.481261e+002 8.478944e+001
         vertex 2.396934e+002 1.493260e+002 8.483134e+001
         vertex 2.386203e+002 1.481261e+002 8.419705e+001
      endloop
   endfacet
   facet normal -6.757645e-001 7.075083e-001 -2.068194e-001
      outer loop
         vertex 2.386203e+002 1.481261e+002 8.419705e+001
         vertex 2.396934e+002 1.493260e+002 8.483134e+001
         vertex 2.397553e+002 1.493260e+002 8.458669e+001
      endloop
   endfacet
   facet normal -6.627757e-001 7.073187e-001 -2.458223e-001
      outer loop
         vertex 2.386203e+002 1.481261e+002 8.419705e+001
         vertex 2.397553e+002 1.493260e+002 8.458669e+001
         vertex 2.398290e+002 1.493260e+002 8.441866e+001
      endloop
   endfacet
   facet normal -7.043669e-001 7.079423e-001 -5.181766e-002
      outer loop
         vertex 2.384199e+002 1.481261e+002 8.539845e+001
         vertex 2.396312e+002 1.493260e+002 8.526134e+001
         vertex 2.384703e+002 1.481261e+002 8.478944e+001
      endloop
   endfacet
   facet normal -7.007945e-001 7.075849e-001 -9.061304e-002
      outer loop
         vertex 2.384703e+002 1.481261e+002 8.478944e+001
         vertex 2.396312e+002 1.493260e+002 8.526134e+001
         vertex 2.396540e+002 1.493260e+002 8.498695e+001
      endloop
   endfacet
   facet normal -6.946525e-001 7.072689e-001 -1.312578e-001
      outer loop
         vertex 2.384703e+002 1.481261e+002 8.478944e+001
         vertex 2.396540e+002 1.493260e+002 8.498695e+001
         vertex 2.396934e+002 1.493260e+002 8.483134e+001
      endloop
   endfacet
   facet normal -7.030632e-001 7.079656e-001 6.698363e-002
      outer loop
         vertex 2.384703e+002 1.481261e+002 8.600744e+001
         vertex 2.396445e+002 1.493260e+002 8.569571e+001
         vertex 2.384199e+002 1.481261e+002 8.539845e+001
      endloop
   endfacet
   facet normal -7.059851e-001 7.076679e-001 2.812939e-002
      outer loop
         vertex 2.384199e+002 1.481261e+002 8.539845e+001
         vertex 2.396445e+002 1.493260e+002 8.569571e+001
         vertex 2.396199e+002 1.493260e+002 8.539844e+001
      endloop
   endfacet
   facet normal -7.068689e-001 7.072257e-001 -1.296331e-002
      outer loop
         vertex 2.384199e+002 1.481261e+002 8.539845e+001
         vertex 2.396199e+002 1.493260e+002 8.539844e+001
         vertex 2.396312e+002 1.493260e+002 8.526134e+001
      endloop
   endfacet
   facet normal -6.818587e-001 7.079955e-001 1.838776e-001
      outer loop
         vertex 2.386203e+002 1.481261e+002 8.659982e+001
         vertex 2.397328e+002 1.493260e+002 8.612133e+001
         vertex 2.384703e+002 1.481261e+002 8.600744e+001
      endloop
   endfacet
   facet normal -6.911949e-001 7.077576e-001 1.460440e-001
      outer loop
         vertex 2.384703e+002 1.481261e+002 8.600744e+001
         vertex 2.397328e+002 1.493260e+002 8.612133e+001
         vertex 2.396540e+002 1.493260e+002 8.580992e+001
      endloop
   endfacet
   facet normal -6.990771e-001 7.071893e-001 1.057100e-001
      outer loop
         vertex 2.384703e+002 1.481261e+002 8.600744e+001
         vertex 2.396540e+002 1.493260e+002 8.580992e+001
         vertex 2.396445e+002 1.493260e+002 8.569571e+001
      endloop
   endfacet
   facet normal -6.413571e-001 7.080321e-001 2.955530e-001
      outer loop
         vertex 2.388658e+002 1.481261e+002 8.715945e+001
         vertex 2.398936e+002 1.493260e+002 8.652537e+001
         vertex 2.386203e+002 1.481261e+002 8.659982e+001
      endloop
   endfacet
   facet normal -6.568496e-001 7.078537e-001 2.597915e-001
      outer loop
         vertex 2.386203e+002 1.481261e+002 8.659982e+001
         vertex 2.398936e+002 1.493260e+002 8.652537e+001
         vertex 2.397553e+002 1.493260e+002 8.621018e+001
      endloop
   endfacet
   facet normal -6.714964e-001 7.071595e-001 2.214003e-001
      outer loop
         vertex 2.386203e+002 1.481261e+002 8.659982e+001
         vertex 2.397553e+002 1.493260e+002 8.621018e+001
         vertex 2.397328e+002 1.493260e+002 8.612133e+001
      endloop
   endfacet
   facet normal -5.827093e-001 7.080752e-001 3.988477e-001
      outer loop
         vertex 2.392001e+002 1.481261e+002 8.767103e+001
         vertex 2.401220e+002 1.493260e+002 8.689562e+001
         vertex 2.388658e+002 1.481261e+002 8.715945e+001
      endloop
   endfacet
   facet normal -6.039290e-001 7.079564e-001 3.661523e-001
      outer loop
         vertex 2.388658e+002 1.481261e+002 8.715945e+001
         vertex 2.401220e+002 1.493260e+002 8.689562e+001
         vertex 2.399212e+002 1.493260e+002 8.658830e+001
      endloop
   endfacet
   facet normal -6.249077e-001 7.071364e-001 3.308301e-001
      outer loop
         vertex 2.388658e+002 1.481261e+002 8.715945e+001
         vertex 2.399212e+002 1.493260e+002 8.658830e+001
         vertex 2.398936e+002 1.493260e+002 8.652537e+001
      endloop
   endfacet
   facet normal -5.075803e-001 7.081248e-001 4.908377e-001
      outer loop
         vertex 2.396139e+002 1.481261e+002 8.812062e+001
         vertex 2.404112e+002 1.493260e+002 8.722090e+001
         vertex 2.392001e+002 1.481261e+002 8.767103e+001
      endloop
   endfacet
   facet normal -5.339390e-001 7.080654e-001 4.621175e-001
      outer loop
         vertex 2.392001e+002 1.481261e+002 8.767103e+001
         vertex 2.404112e+002 1.493260e+002 8.722090e+001
         vertex 2.401470e+002 1.493260e+002 8.693396e+001
      endloop
   endfacet
   facet normal -5.606309e-001 7.071199e-001 4.308996e-001
      outer loop
         vertex 2.392001e+002 1.481261e+002 8.767103e+001
         vertex 2.401470e+002 1.493260e+002 8.693396e+001
         vertex 2.401220e+002 1.493260e+002 8.689562e+001
      endloop
   endfacet
   facet normal -2.455971e-001 7.081248e-001 6.619981e-001
      outer loop
         vertex 2.412116e+002 1.481261e+002 8.898521e+001
         vertex 2.411373e+002 1.493260e+002 8.769529e+001
         vertex 2.406336e+002 1.481261e+002 8.878680e+001
      endloop
   endfacet
   facet normal -2.820644e-001 7.071100e-001 6.484096e-001
      outer loop
         vertex 2.406336e+002 1.481261e+002 8.878680e+001
         vertex 2.411373e+002 1.493260e+002 8.769529e+001
         vertex 2.411156e+002 1.493260e+002 8.768787e+001
      endloop
   endfacet
   facet normal -3.187583e-001 7.081808e-001 6.299787e-001
      outer loop
         vertex 2.406336e+002 1.481261e+002 8.878680e+001
         vertex 2.411156e+002 1.493260e+002 8.768787e+001
         vertex 2.400962e+002 1.481261e+002 8.849595e+001
      endloop
   endfacet
   facet normal -3.530468e-001 7.081808e-001 6.114228e-001
      outer loop
         vertex 2.400962e+002 1.481261e+002 8.849595e+001
         vertex 2.411156e+002 1.493260e+002 8.768787e+001
         vertex 2.407525e+002 1.493260e+002 8.749135e+001
      endloop
   endfacet
   facet normal -4.181020e-001 7.081808e-001 5.689206e-001
      outer loop
         vertex 2.400962e+002 1.481261e+002 8.849595e+001
         vertex 2.407525e+002 1.493260e+002 8.749135e+001
         vertex 2.396139e+002 1.481261e+002 8.812062e+001
      endloop
   endfacet
   facet normal -4.488686e-001 7.081808e-001 5.449742e-001
      outer loop
         vertex 2.396139e+002 1.481261e+002 8.812062e+001
         vertex 2.407525e+002 1.493260e+002 8.749135e+001
         vertex 2.404267e+002 1.493260e+002 8.723775e+001
      endloop
   endfacet
   facet normal -4.804873e-001 7.071100e-001 5.187749e-001
      outer loop
         vertex 2.396139e+002 1.481261e+002 8.812062e+001
         vertex 2.404267e+002 1.493260e+002 8.723775e+001
         vertex 2.404112e+002 1.493260e+002 8.722090e+001
      endloop
   endfacet
   facet normal -1.311758e-001 7.080752e-001 6.938462e-001
      outer loop
         vertex 2.418143e+002 1.481261e+002 8.908578e+001
         vertex 2.415513e+002 1.493260e+002 8.782947e+001
         vertex 2.412116e+002 1.481261e+002 8.898521e+001
      endloop
   endfacet
   facet normal -1.693969e-001 7.071199e-001 6.865028e-001
      outer loop
         vertex 2.412116e+002 1.481261e+002 8.898521e+001
         vertex 2.415513e+002 1.493260e+002 8.782947e+001
         vertex 2.415062e+002 1.493260e+002 8.782193e+001
      endloop
   endfacet
   facet normal -2.087075e-001 7.080654e-001 6.745996e-001
      outer loop
         vertex 2.412116e+002 1.481261e+002 8.898521e+001
         vertex 2.415062e+002 1.493260e+002 8.782193e+001
         vertex 2.411373e+002 1.493260e+002 8.769529e+001
      endloop
   endfacet
   facet normal -1.302261e-002 7.080321e-001 7.060602e-001
      outer loop
         vertex 2.424254e+002 1.481261e+002 8.908578e+001
         vertex 2.419821e+002 1.493260e+002 8.788988e+001
         vertex 2.418143e+002 1.481261e+002 8.908578e+001
      endloop
   endfacet
   facet normal -5.193605e-002 7.071364e-001 7.051672e-001
      outer loop
         vertex 2.418143e+002 1.481261e+002 8.908578e+001
         vertex 2.419821e+002 1.493260e+002 8.788988e+001
         vertex 2.419134e+002 1.493260e+002 8.788988e+001
      endloop
   endfacet
   facet normal -9.271026e-002 7.079564e-001 7.001447e-001
      outer loop
         vertex 2.418143e+002 1.481261e+002 8.908578e+001
         vertex 2.419134e+002 1.493260e+002 8.788988e+001
         vertex 2.415513e+002 1.493260e+002 8.782947e+001
      endloop
   endfacet
   facet normal 1.055160e-001 7.079955e-001 6.982898e-001
      outer loop
         vertex 2.430282e+002 1.481261e+002 8.898521e+001
         vertex 2.424167e+002 1.493260e+002 8.787480e+001
         vertex 2.424254e+002 1.481261e+002 8.908578e+001
      endloop
   endfacet
   facet normal 6.699133e-002 7.071595e-001 7.038733e-001
      outer loop
         vertex 2.424254e+002 1.481261e+002 8.908578e+001
         vertex 2.424167e+002 1.493260e+002 8.787480e+001
         vertex 2.423263e+002 1.493260e+002 8.788988e+001
      endloop
   endfacet
   facet normal 2.595009e-002 7.078538e-001 7.058821e-001
      outer loop
         vertex 2.424254e+002 1.481261e+002 8.908578e+001
         vertex 2.423263e+002 1.493260e+002 8.788988e+001
         vertex 2.419821e+002 1.493260e+002 8.788988e+001
      endloop
   endfacet
   facet normal 2.210819e-001 7.079656e-001 6.707515e-001
      outer loop
         vertex 2.436062e+002 1.481261e+002 8.878678e+001
         vertex 2.428420e+002 1.493260e+002 8.778471e+001
         vertex 2.430282e+002 1.481261e+002 8.898521e+001
      endloop
   endfacet
   facet normal 1.840161e-001 7.071893e-001 6.826576e-001
      outer loop
         vertex 2.430282e+002 1.481261e+002 8.898521e+001
         vertex 2.428420e+002 1.493260e+002 8.778471e+001
         vertex 2.427336e+002 1.493260e+002 8.782192e+001
      endloop
   endfacet
   facet normal 1.439133e-001 7.077576e-001 6.916416e-001
      outer loop
         vertex 2.430282e+002 1.481261e+002 8.898521e+001
         vertex 2.427336e+002 1.493260e+002 8.782192e+001
         vertex 2.424167e+002 1.493260e+002 8.787480e+001
      endloop
   endfacet
   facet normal 3.304001e-001 7.079423e-001 6.242223e-001
      outer loop
         vertex 2.441436e+002 1.481261e+002 8.849593e+001
         vertex 2.432451e+002 1.493260e+002 8.762238e+001
         vertex 2.436062e+002 1.481261e+002 8.878678e+001
      endloop
   endfacet
   facet normal 2.958237e-001 7.072257e-001 6.421216e-001
      outer loop
         vertex 2.436062e+002 1.481261e+002 8.878678e+001
         vertex 2.432451e+002 1.493260e+002 8.762238e+001
         vertex 2.431241e+002 1.493260e+002 8.768785e+001
      endloop
   endfacet
   facet normal 2.578371e-001 7.076679e-001 6.578192e-001
      outer loop
         vertex 2.436062e+002 1.481261e+002 8.878678e+001
         vertex 2.431241e+002 1.493260e+002 8.768785e+001
         vertex 2.428420e+002 1.493260e+002 8.778471e+001
      endloop
   endfacet
   facet normal 4.303728e-001 7.079256e-001 5.600184e-001
      outer loop
         vertex 2.446258e+002 1.481261e+002 8.812060e+001
         vertex 2.436139e+002 1.493260e+002 8.739274e+001
         vertex 2.441436e+002 1.481261e+002 8.849593e+001
      endloop
   endfacet
   facet normal 3.992468e-001 7.072689e-001 5.834147e-001
      outer loop
         vertex 2.441436e+002 1.481261e+002 8.849593e+001
         vertex 2.436139e+002 1.493260e+002 8.739274e+001
         vertex 2.434872e+002 1.493260e+002 8.749133e+001
      endloop
   endfacet
   facet normal 3.644928e-001 7.075848e-001 6.053666e-001
      outer loop
         vertex 2.441436e+002 1.481261e+002 8.849593e+001
         vertex 2.434872e+002 1.493260e+002 8.749133e+001
         vertex 2.432451e+002 1.493260e+002 8.762238e+001
      endloop
   endfacet
   facet normal 5.181664e-001 7.079156e-001 4.799574e-001
      outer loop
         vertex 2.450397e+002 1.481261e+002 8.767100e+001
         vertex 2.439373e+002 1.493260e+002 8.710273e+001
         vertex 2.446258e+002 1.481261e+002 8.812060e+001
      endloop
   endfacet
   facet normal 4.913564e-001 7.073187e-001 5.082018e-001
      outer loop
         vertex 2.446258e+002 1.481261e+002 8.812060e+001
         vertex 2.439373e+002 1.493260e+002 8.710273e+001
         vertex 2.438131e+002 1.493260e+002 8.723772e+001
      endloop
   endfacet
   facet normal 4.608563e-001 7.075083e-001 5.357643e-001
      outer loop
         vertex 2.446258e+002 1.481261e+002 8.812060e+001
         vertex 2.438131e+002 1.493260e+002 8.723772e+001
         vertex 2.436139e+002 1.493260e+002 8.739274e+001
      endloop
   endfacet
   facet normal 5.912929e-001 7.079123e-001 3.863069e-001
      outer loop
         vertex 2.453739e+002 1.481261e+002 8.715942e+001
         vertex 2.442056e+002 1.493260e+002 8.676112e+001
         vertex 2.450397e+002 1.481261e+002 8.767100e+001
      endloop
   endfacet
   facet normal 5.695446e-001 7.073753e-001 4.186157e-001
      outer loop
         vertex 2.450397e+002 1.481261e+002 8.767100e+001
         vertex 2.442056e+002 1.493260e+002 8.676112e+001
         vertex 2.440927e+002 1.493260e+002 8.693394e+001
      endloop
   endfacet
   facet normal 5.441948e-001 7.074385e-001 4.509799e-001
      outer loop
         vertex 2.450397e+002 1.481261e+002 8.767100e+001
         vertex 2.440927e+002 1.493260e+002 8.693394e+001
         vertex 2.439373e+002 1.493260e+002 8.710273e+001
      endloop
   endfacet
   facet normal 6.476799e-001 7.079156e-001 2.817201e-001
      outer loop
         vertex 2.456194e+002 1.481261e+002 8.659980e+001
         vertex 2.444107e+002 1.493260e+002 8.637820e+001
         vertex 2.453739e+002 1.481261e+002 8.715942e+001
      endloop
   endfacet
   facet normal 6.315989e-001 7.074385e-001 3.171965e-001
      outer loop
         vertex 2.453739e+002 1.481261e+002 8.715942e+001
         vertex 2.444107e+002 1.493260e+002 8.637820e+001
         vertex 2.443185e+002 1.493260e+002 8.658829e+001
      endloop
   endfacet
   facet normal 6.121440e-001 7.073753e-001 3.534119e-001
      outer loop
         vertex 2.453739e+002 1.481261e+002 8.715942e+001
         vertex 2.443185e+002 1.493260e+002 8.658829e+001
         vertex 2.442056e+002 1.493260e+002 8.676112e+001
      endloop
   endfacet
   facet normal 6.857303e-001 7.079256e-001 1.691605e-001
      outer loop
         vertex 2.457694e+002 1.481261e+002 8.600741e+001
         vertex 2.445464e+002 1.493260e+002 8.596551e+001
         vertex 2.456194e+002 1.481261e+002 8.659980e+001
      endloop
   endfacet
   facet normal 6.757645e-001 7.075083e-001 2.068194e-001
      outer loop
         vertex 2.456194e+002 1.481261e+002 8.659980e+001
         vertex 2.445464e+002 1.493260e+002 8.596551e+001
         vertex 2.444844e+002 1.493260e+002 8.621016e+001
      endloop
   endfacet
   facet normal 6.627757e-001 7.073187e-001 2.458223e-001
      outer loop
         vertex 2.456194e+002 1.481261e+002 8.659980e+001
         vertex 2.444844e+002 1.493260e+002 8.621016e+001
         vertex 2.444107e+002 1.493260e+002 8.637820e+001
      endloop
   endfacet
   facet normal 7.043669e-001 7.079423e-001 5.181766e-002
      outer loop
         vertex 2.458199e+002 1.481261e+002 8.539841e+001
         vertex 2.446085e+002 1.493260e+002 8.553551e+001
         vertex 2.457694e+002 1.481261e+002 8.600741e+001
      endloop
   endfacet
   facet normal 7.007945e-001 7.075849e-001 9.061304e-002
      outer loop
         vertex 2.457694e+002 1.481261e+002 8.600741e+001
         vertex 2.446085e+002 1.493260e+002 8.553551e+001
         vertex 2.445858e+002 1.493260e+002 8.580990e+001
      endloop
   endfacet
   facet normal 6.946525e-001 7.072689e-001 1.312578e-001
      outer loop
         vertex 2.457694e+002 1.481261e+002 8.600741e+001
         vertex 2.445858e+002 1.493260e+002 8.580990e+001
         vertex 2.445464e+002 1.493260e+002 8.596551e+001
      endloop
   endfacet
   facet normal 7.030632e-001 7.079656e-001 -6.698363e-002
      outer loop
         vertex 2.457694e+002 1.481261e+002 8.478941e+001
         vertex 2.445952e+002 1.493260e+002 8.510114e+001
         vertex 2.458199e+002 1.481261e+002 8.539841e+001
      endloop
   endfacet
   facet normal 7.059851e-001 7.076679e-001 -2.812939e-002
      outer loop
         vertex 2.458199e+002 1.481261e+002 8.539841e+001
         vertex 2.445952e+002 1.493260e+002 8.510114e+001
         vertex 2.446199e+002 1.493260e+002 8.539841e+001
      endloop
   endfacet
   facet normal 7.068689e-001 7.072257e-001 1.296331e-002
      outer loop
         vertex 2.458199e+002 1.481261e+002 8.539841e+001
         vertex 2.446199e+002 1.493260e+002 8.539841e+001
         vertex 2.446085e+002 1.493260e+002 8.553551e+001
      endloop
   endfacet
   facet normal 6.818587e-001 7.079955e-001 -1.838776e-001
      outer loop
         vertex 2.456194e+002 1.481261e+002 8.419702e+001
         vertex 2.445069e+002 1.493260e+002 8.467552e+001
         vertex 2.457694e+002 1.481261e+002 8.478941e+001
      endloop
   endfacet
   facet normal 6.911949e-001 7.077576e-001 -1.460440e-001
      outer loop
         vertex 2.457694e+002 1.481261e+002 8.478941e+001
         vertex 2.445069e+002 1.493260e+002 8.467552e+001
         vertex 2.445858e+002 1.493260e+002 8.498692e+001
      endloop
   endfacet
   facet normal 6.990771e-001 7.071893e-001 -1.057100e-001
      outer loop
         vertex 2.457694e+002 1.481261e+002 8.478941e+001
         vertex 2.445858e+002 1.493260e+002 8.498692e+001
         vertex 2.445952e+002 1.493260e+002 8.510114e+001
      endloop
   endfacet
   facet normal 6.413571e-001 7.080321e-001 -2.955530e-001
      outer loop
         vertex 2.453739e+002 1.481261e+002 8.363740e+001
         vertex 2.443461e+002 1.493260e+002 8.427148e+001
         vertex 2.456194e+002 1.481261e+002 8.419702e+001
      endloop
   endfacet
   facet normal 6.568496e-001 7.078537e-001 -2.597915e-001
      outer loop
         vertex 2.456194e+002 1.481261e+002 8.419702e+001
         vertex 2.443461e+002 1.493260e+002 8.427148e+001
         vertex 2.444844e+002 1.493260e+002 8.458666e+001
      endloop
   endfacet
   facet normal 6.714964e-001 7.071595e-001 -2.214003e-001
      outer loop
         vertex 2.456194e+002 1.481261e+002 8.419702e+001
         vertex 2.444844e+002 1.493260e+002 8.458666e+001
         vertex 2.445069e+002 1.493260e+002 8.467552e+001
      endloop
   endfacet
   facet normal 5.827093e-001 7.080752e-001 -3.988477e-001
      outer loop
         vertex 2.450397e+002 1.481261e+002 8.312582e+001
         vertex 2.441178e+002 1.493260e+002 8.390123e+001
         vertex 2.453739e+002 1.481261e+002 8.363740e+001
      endloop
   endfacet
   facet normal 6.039290e-001 7.079564e-001 -3.661523e-001
      outer loop
         vertex 2.453739e+002 1.481261e+002 8.363740e+001
         vertex 2.441178e+002 1.493260e+002 8.390123e+001
         vertex 2.443185e+002 1.493260e+002 8.420855e+001
      endloop
   endfacet
   facet normal 6.249077e-001 7.071364e-001 -3.308301e-001
      outer loop
         vertex 2.453739e+002 1.481261e+002 8.363740e+001
         vertex 2.443185e+002 1.493260e+002 8.420855e+001
         vertex 2.443461e+002 1.493260e+002 8.427148e+001
      endloop
   endfacet
   facet normal 5.075803e-001 7.081248e-001 -4.908377e-001
      outer loop
         vertex 2.446258e+002 1.481261e+002 8.267623e+001
         vertex 2.438286e+002 1.493260e+002 8.357595e+001
         vertex 2.450397e+002 1.481261e+002 8.312582e+001
      endloop
   endfacet
   facet normal 5.339390e-001 7.080654e-001 -4.621175e-001
      outer loop
         vertex 2.450397e+002 1.481261e+002 8.312582e+001
         vertex 2.438286e+002 1.493260e+002 8.357595e+001
         vertex 2.440927e+002 1.493260e+002 8.386288e+001
      endloop
   endfacet
   facet normal 5.606309e-001 7.071199e-001 -4.308996e-001
      outer loop
         vertex 2.450397e+002 1.481261e+002 8.312582e+001
         vertex 2.440927e+002 1.493260e+002 8.386288e+001
         vertex 2.441178e+002 1.493260e+002 8.390123e+001
      endloop
   endfacet
   facet normal 1.693969e-001 7.071199e-001 -6.865028e-001
      outer loop
         vertex 2.426884e+002 1.493260e+002 8.296738e+001
         vertex 2.427336e+002 1.493260e+002 8.297491e+001
         vertex 2.430281e+002 1.481261e+002 8.181164e+001
      endloop
   endfacet
   facet normal 2.087075e-001 7.080654e-001 -6.745996e-001
      outer loop
         vertex 2.430281e+002 1.481261e+002 8.181164e+001
         vertex 2.427336e+002 1.493260e+002 8.297491e+001
         vertex 2.431024e+002 1.493260e+002 8.310155e+001
      endloop
   endfacet
   facet normal 2.455971e-001 7.081248e-001 -6.619981e-001
      outer loop
         vertex 2.430281e+002 1.481261e+002 8.181164e+001
         vertex 2.431024e+002 1.493260e+002 8.310155e+001
         vertex 2.436061e+002 1.481261e+002 8.201006e+001
      endloop
   endfacet
   facet normal 2.820644e-001 7.071100e-001 -6.484096e-001
      outer loop
         vertex 2.436061e+002 1.481261e+002 8.201006e+001
         vertex 2.431024e+002 1.493260e+002 8.310155e+001
         vertex 2.431241e+002 1.493260e+002 8.310899e+001
      endloop
   endfacet
   facet normal 3.187583e-001 7.081808e-001 -6.299787e-001
      outer loop
         vertex 2.436061e+002 1.481261e+002 8.201006e+001
         vertex 2.431241e+002 1.493260e+002 8.310899e+001
         vertex 2.441436e+002 1.481261e+002 8.230090e+001
      endloop
   endfacet
   facet normal 3.530468e-001 7.081808e-001 -6.114228e-001
      outer loop
         vertex 2.441436e+002 1.481261e+002 8.230090e+001
         vertex 2.431241e+002 1.493260e+002 8.310899e+001
         vertex 2.434872e+002 1.493260e+002 8.330550e+001
      endloop
   endfacet
   facet normal 4.181020e-001 7.081808e-001 -5.689206e-001
      outer loop
         vertex 2.441436e+002 1.481261e+002 8.230090e+001
         vertex 2.434872e+002 1.493260e+002 8.330550e+001
         vertex 2.446258e+002 1.481261e+002 8.267623e+001
      endloop
   endfacet
   facet normal 4.488686e-001 7.081808e-001 -5.449742e-001
      outer loop
         vertex 2.446258e+002 1.481261e+002 8.267623e+001
         vertex 2.434872e+002 1.493260e+002 8.330550e+001
         vertex 2.438130e+002 1.493260e+002 8.355910e+001
      endloop
   endfacet
   facet normal 4.804873e-001 7.071100e-001 -5.187749e-001
      outer loop
         vertex 2.446258e+002 1.481261e+002 8.267623e+001
         vertex 2.438130e+002 1.493260e+002 8.355910e+001
         vertex 2.438286e+002 1.493260e+002 8.357595e+001
      endloop
   endfacet
endsolid