solid PumpAssembly - Screw7-1
   facet normal 6.223261e-001 -0.000000e+000 -7.827581e-001
      outer loop
         vertex 2.894872e+002 1.593261e+002 3.730550e+001
         vertex 2.897907e+002 1.593261e+002 3.753876e+001
         vertex 2.897387e+002 1.493260e+002 3.749338e+001
      endloop
   endfacet
   facet normal 7.282383e-001 -0.000000e+000 -6.853240e-001
      outer loop
         vertex 2.900550e+002 1.593261e+002 3.781560e+001
         vertex 2.899648e+002 1.493260e+002 3.771130e+001
         vertex 2.897907e+002 1.593261e+002 3.753876e+001
      endloop
   endfacet
   facet normal 6.922653e-001 -0.000000e+000 -7.216431e-001
      outer loop
         vertex 2.897907e+002 1.593261e+002 3.753876e+001
         vertex 2.899648e+002 1.493260e+002 3.771130e+001
         vertex 2.897883e+002 1.493260e+002 3.754119e+001
      endloop
   endfacet
   facet normal 6.614478e-001 -0.000000e+000 -7.499912e-001
      outer loop
         vertex 2.897907e+002 1.593261e+002 3.753876e+001
         vertex 2.897883e+002 1.493260e+002 3.754119e+001
         vertex 2.897387e+002 1.493260e+002 3.749338e+001
      endloop
   endfacet
   facet normal 8.190673e-001 -0.000000e+000 -5.736974e-001
      outer loop
         vertex 2.902739e+002 1.593261e+002 3.812955e+001
         vertex 2.901617e+002 1.493260e+002 3.795583e+001
         vertex 2.900550e+002 1.593261e+002 3.781560e+001
      endloop
   endfacet
   facet normal 7.887023e-001 -0.000000e+000 -6.147754e-001
      outer loop
         vertex 2.900550e+002 1.593261e+002 3.781560e+001
         vertex 2.901617e+002 1.493260e+002 3.795583e+001
         vertex 2.900512e+002 1.493260e+002 3.781865e+001
      endloop
   endfacet
   facet normal 7.622705e-001 -0.000000e+000 -6.472586e-001
      outer loop
         vertex 2.900550e+002 1.593261e+002 3.781560e+001
         vertex 2.900512e+002 1.493260e+002 3.781865e+001
         vertex 2.899648e+002 1.493260e+002 3.771130e+001
      endloop
   endfacet
   facet normal 8.929333e-001 -0.000000e+000 -4.501890e-001
      outer loop
         vertex 2.904424e+002 1.593261e+002 3.847323e+001
         vertex 2.903264e+002 1.493260e+002 3.822311e+001
         vertex 2.902739e+002 1.593261e+002 3.812955e+001
      endloop
   endfacet
   facet normal 8.687977e-001 -0.000000e+000 -4.951673e-001
      outer loop
         vertex 2.902739e+002 1.593261e+002 3.812955e+001
         vertex 2.903264e+002 1.493260e+002 3.822311e+001
         vertex 2.902701e+002 1.493260e+002 3.813187e+001
      endloop
   endfacet
   facet normal 8.473043e-001 -0.000000e+000 -5.311077e-001
      outer loop
         vertex 2.902739e+002 1.593261e+002 3.812955e+001
         vertex 2.902701e+002 1.493260e+002 3.813187e+001
         vertex 2.901617e+002 1.493260e+002 3.795583e+001
      endloop
   endfacet
   facet normal 9.470047e-001 -0.000000e+000 -3.212196e-001
      outer loop
         vertex 2.905493e+002 1.493260e+002 3.880877e+001
         vertex 2.904563e+002 1.493260e+002 3.850893e+001
         vertex 2.904424e+002 1.593261e+002 3.847323e+001
      endloop
   endfacet
   facet normal 9.308839e-001 -0.000000e+000 -3.653152e-001
      outer loop
         vertex 2.904424e+002 1.593261e+002 3.847323e+001
         vertex 2.904563e+002 1.493260e+002 3.850893e+001
         vertex 2.904404e+002 1.493260e+002 3.847411e+001
      endloop
   endfacet
   facet normal 9.147763e-001 -0.000000e+000 -4.039608e-001
      outer loop
         vertex 2.904424e+002 1.593261e+002 3.847323e+001
         vertex 2.904404e+002 1.493260e+002 3.847411e+001
         vertex 2.903264e+002 1.493260e+002 3.822311e+001
      endloop
   endfacet
   facet normal 9.607822e-001 -0.000000e+000 -2.773040e-001
      outer loop
         vertex 2.905493e+002 1.493260e+002 3.880877e+001
         vertex 2.904424e+002 1.593261e+002 3.847323e+001
         vertex 2.905547e+002 1.493260e+002 3.883891e+001
      endloop
   endfacet
   facet normal 9.619090e-001 -0.000000e+000 -2.733698e-001
      outer loop
         vertex 2.905547e+002 1.493260e+002 3.883891e+001
         vertex 2.904424e+002 1.593261e+002 3.847323e+001
         vertex 2.905564e+002 1.593261e+002 3.883860e+001
      endloop
   endfacet
   facet normal 9.823663e-001 -0.000000e+000 -1.869663e-001
      outer loop
         vertex 2.905547e+002 1.493260e+002 3.883891e+001
         vertex 2.905564e+002 1.593261e+002 3.883860e+001
         vertex 2.906041e+002 1.493260e+002 3.911791e+001
      endloop
   endfacet
   facet normal 9.906388e-001 -0.000000e+000 -1.365095e-001
      outer loop
         vertex 2.906041e+002 1.493260e+002 3.911791e+001
         vertex 2.905564e+002 1.593261e+002 3.883860e+001
         vertex 2.906133e+002 1.593261e+002 3.921709e+001
      endloop
   endfacet
   facet normal 9.963137e-001 -0.000000e+000 -8.578447e-002
      outer loop
         vertex 2.906041e+002 1.493260e+002 3.911791e+001
         vertex 2.906133e+002 1.593261e+002 3.921709e+001
         vertex 2.906090e+002 1.493260e+002 3.921730e+001
      endloop
   endfacet
   facet normal 9.990317e-001 -0.000000e+000 -4.399655e-002
      outer loop
         vertex 2.906090e+002 1.493260e+002 3.921730e+001
         vertex 2.906133e+002 1.593261e+002 3.921709e+001
         vertex 2.906196e+002 1.493260e+002 3.943148e+001
      endloop
   endfacet
   facet normal 9.999748e-001 -0.000000e+000 7.098990e-003
      outer loop
         vertex 2.906196e+002 1.493260e+002 3.943148e+001
         vertex 2.906133e+002 1.593261e+002 3.921709e+001
         vertex 2.906118e+002 1.593261e+002 3.959983e+001
      endloop
   endfacet
   facet normal 9.983079e-001 -0.000000e+000 5.814978e-002
      outer loop
         vertex 2.906196e+002 1.493260e+002 3.943148e+001
         vertex 2.906118e+002 1.593261e+002 3.959983e+001
         vertex 2.906068e+002 1.493260e+002 3.959946e+001
      endloop
   endfacet
   facet normal 9.949977e-001 -0.000000e+000 9.989738e-002
      outer loop
         vertex 2.906068e+002 1.493260e+002 3.959946e+001
         vertex 2.906118e+002 1.593261e+002 3.959983e+001
         vertex 2.905958e+002 1.493260e+002 3.974453e+001
      endloop
   endfacet
   facet normal 9.886009e-001 -0.000000e+000 1.505599e-001
      outer loop
         vertex 2.905958e+002 1.493260e+002 3.974453e+001
         vertex 2.906118e+002 1.593261e+002 3.959983e+001
         vertex 2.905518e+002 1.593261e+002 3.997786e+001
      endloop
   endfacet
   facet normal 9.796160e-001 -0.000000e+000 2.008795e-001
      outer loop
         vertex 2.905958e+002 1.493260e+002 3.974453e+001
         vertex 2.905518e+002 1.593261e+002 3.997786e+001
         vertex 2.905482e+002 1.493260e+002 3.997713e+001
      endloop
   endfacet
   facet normal 9.703473e-001 -0.000000e+000 2.417147e-001
      outer loop
         vertex 2.905482e+002 1.493260e+002 3.997713e+001
         vertex 2.905518e+002 1.593261e+002 3.997786e+001
         vertex 2.905329e+002 1.493260e+002 4.005211e+001
      endloop
   endfacet
   facet normal 9.567524e-001 -0.000000e+000 2.909037e-001
      outer loop
         vertex 2.905329e+002 1.493260e+002 4.005211e+001
         vertex 2.905518e+002 1.593261e+002 3.997786e+001
         vertex 2.904348e+002 1.593261e+002 4.034230e+001
      endloop
   endfacet
   facet normal 9.406318e-001 -0.000000e+000 3.394286e-001
      outer loop
         vertex 2.905329e+002 1.493260e+002 4.005211e+001
         vertex 2.904348e+002 1.593261e+002 4.034230e+001
         vertex 2.904344e+002 1.493260e+002 4.034215e+001
      endloop
   endfacet
   facet normal 9.256015e-001 -0.000000e+000 3.784994e-001
      outer loop
         vertex 2.904344e+002 1.493260e+002 4.034215e+001
         vertex 2.904348e+002 1.593261e+002 4.034230e+001
         vertex 2.904319e+002 1.493260e+002 4.034939e+001
      endloop
   endfacet
   facet normal 9.050877e-001 -0.000000e+000 4.252250e-001
      outer loop
         vertex 2.904319e+002 1.493260e+002 4.034939e+001
         vertex 2.904348e+002 1.593261e+002 4.034230e+001
         vertex 2.902636e+002 1.593261e+002 4.068462e+001
      endloop
   endfacet
   facet normal 8.859800e-001 -0.000000e+000 4.637235e-001
      outer loop
         vertex 2.904319e+002 1.493260e+002 4.034939e+001
         vertex 2.902636e+002 1.593261e+002 4.068462e+001
         vertex 2.902945e+002 1.493260e+002 4.063167e+001
      endloop
   endfacet
   facet normal 8.108398e-001 0.000000e+000 5.852683e-001
      outer loop
         vertex 2.900422e+002 1.593261e+002 4.099679e+001
         vertex 2.901228e+002 1.493260e+002 4.089450e+001
         vertex 2.902636e+002 1.593261e+002 4.068462e+001
      endloop
   endfacet
   facet normal 8.396903e-001 -0.000000e+000 5.430655e-001
      outer loop
         vertex 2.902636e+002 1.593261e+002 4.068462e+001
         vertex 2.901228e+002 1.493260e+002 4.089450e+001
         vertex 2.902610e+002 1.493260e+002 4.068292e+001
      endloop
   endfacet
   facet normal 8.616884e-001 -0.000000e+000 5.074377e-001
      outer loop
         vertex 2.902636e+002 1.593261e+002 4.068462e+001
         vertex 2.902610e+002 1.493260e+002 4.068292e+001
         vertex 2.902945e+002 1.493260e+002 4.063167e+001
      endloop
   endfacet
   facet normal 7.184350e-001 0.000000e+000 6.955941e-001
      outer loop
         vertex 2.897756e+002 1.593261e+002 4.127149e+001
         vertex 2.899195e+002 1.493260e+002 4.113374e+001
         vertex 2.900422e+002 1.593261e+002 4.099679e+001
      endloop
   endfacet
   facet normal 7.530217e-001 0.000000e+000 6.579956e-001
      outer loop
         vertex 2.900422e+002 1.593261e+002 4.099679e+001
         vertex 2.899195e+002 1.493260e+002 4.113374e+001
         vertex 2.900385e+002 1.493260e+002 4.099369e+001
      endloop
   endfacet
   facet normal 7.799110e-001 0.000000e+000 6.258904e-001
      outer loop
         vertex 2.900422e+002 1.593261e+002 4.099679e+001
         vertex 2.900385e+002 1.493260e+002 4.099369e+001
         vertex 2.901228e+002 1.493260e+002 4.089450e+001
      endloop
   endfacet
   facet normal 6.111510e-001 0.000000e+000 7.915140e-001
      outer loop
         vertex 2.894703e+002 1.593261e+002 4.150229e+001
         vertex 2.896878e+002 1.493260e+002 4.134561e+001
         vertex 2.897756e+002 1.593261e+002 4.127149e+001
      endloop
   endfacet
   facet normal 6.507471e-001 0.000000e+000 7.592945e-001
      outer loop
         vertex 2.897756e+002 1.593261e+002 4.127149e+001
         vertex 2.896878e+002 1.493260e+002 4.134561e+001
         vertex 2.897726e+002 1.493260e+002 4.126811e+001
      endloop
   endfacet
   facet normal 6.819668e-001 0.000000e+000 7.313831e-001
      outer loop
         vertex 2.897756e+002 1.593261e+002 4.127149e+001
         vertex 2.897726e+002 1.493260e+002 4.126811e+001
         vertex 2.899195e+002 1.493260e+002 4.113374e+001
      endloop
   endfacet
   facet normal 4.938700e-001 0.000000e+000 8.695357e-001
      outer loop
         vertex 2.891543e+002 1.493260e+002 4.167437e+001
         vertex 2.894314e+002 1.493260e+002 4.152677e+001
         vertex 2.894703e+002 1.593261e+002 4.150229e+001
      endloop
   endfacet
   facet normal 5.350011e-001 0.000000e+000 8.448514e-001
      outer loop
         vertex 2.894703e+002 1.593261e+002 4.150229e+001
         vertex 2.894314e+002 1.493260e+002 4.152677e+001
         vertex 2.894689e+002 1.493260e+002 4.150028e+001
      endloop
   endfacet
   facet normal 5.698979e-001 0.000000e+000 8.217155e-001
      outer loop
         vertex 2.894703e+002 1.593261e+002 4.150229e+001
         vertex 2.894689e+002 1.493260e+002 4.150028e+001
         vertex 2.896878e+002 1.493260e+002 4.134561e+001
      endloop
   endfacet
   facet normal 4.542429e-001 0.000000e+000 8.908778e-001
      outer loop
         vertex 2.891543e+002 1.493260e+002 4.167437e+001
         vertex 2.894703e+002 1.593261e+002 4.150229e+001
         vertex 2.891329e+002 1.493260e+002 4.168253e+001
      endloop
   endfacet
   facet normal 4.515065e-001 0.000000e+000 8.922678e-001
      outer loop
         vertex 2.891329e+002 1.493260e+002 4.168253e+001
         vertex 2.894703e+002 1.593261e+002 4.150229e+001
         vertex 2.891333e+002 1.593261e+002 4.168378e+001
      endloop
   endfacet
   facet normal 3.696305e-001 0.000000e+000 9.291788e-001
      outer loop
         vertex 2.891329e+002 1.493260e+002 4.168253e+001
         vertex 2.891333e+002 1.593261e+002 4.168378e+001
         vertex 2.888609e+002 1.493260e+002 4.178608e+001
      endloop
   endfacet
   facet normal 3.216524e-001 0.000000e+000 9.468578e-001
      outer loop
         vertex 2.888609e+002 1.493260e+002 4.178608e+001
         vertex 2.891333e+002 1.593261e+002 4.168378e+001
         vertex 2.887726e+002 1.593261e+002 4.181171e+001
      endloop
   endfacet
   facet normal 2.729231e-001 0.000000e+000 9.620358e-001
      outer loop
         vertex 2.888609e+002 1.493260e+002 4.178608e+001
         vertex 2.887726e+002 1.593261e+002 4.181171e+001
         vertex 2.887716e+002 1.493260e+002 4.180774e+001
      endloop
   endfacet
   facet normal 2.324069e-001 0.000000e+000 9.726186e-001
      outer loop
         vertex 2.887716e+002 1.493260e+002 4.180774e+001
         vertex 2.887726e+002 1.593261e+002 4.181171e+001
         vertex 2.885558e+002 1.493260e+002 4.186012e+001
      endloop
   endfacet
   facet normal 1.824108e-001 0.000000e+000 9.832224e-001
      outer loop
         vertex 2.885558e+002 1.493260e+002 4.186012e+001
         vertex 2.887726e+002 1.593261e+002 4.181171e+001
         vertex 2.883966e+002 1.593261e+002 4.188307e+001
      endloop
   endfacet
   facet normal 1.319726e-001 0.000000e+000 9.912534e-001
      outer loop
         vertex 2.885558e+002 1.493260e+002 4.186012e+001
         vertex 2.883966e+002 1.593261e+002 4.188307e+001
         vertex 2.883960e+002 1.493260e+002 4.187816e+001
      endloop
   endfacet
   facet normal 9.035359e-002 0.000000e+000 9.959098e-001
      outer loop
         vertex 2.883960e+002 1.493260e+002 4.187816e+001
         vertex 2.883966e+002 1.593261e+002 4.188307e+001
         vertex 2.882438e+002 1.493260e+002 4.189535e+001
      endloop
   endfacet
   facet normal 3.939212e-002 0.000000e+000 9.992238e-001
      outer loop
         vertex 2.882438e+002 1.493260e+002 4.189535e+001
         vertex 2.883966e+002 1.593261e+002 4.188307e+001
         vertex 2.880141e+002 1.593261e+002 4.189618e+001
      endloop
   endfacet
   facet normal -1.171482e-002 0.000000e+000 9.999314e-001
      outer loop
         vertex 2.882438e+002 1.493260e+002 4.189535e+001
         vertex 2.880141e+002 1.593261e+002 4.189618e+001
         vertex 2.880141e+002 1.493260e+002 4.189231e+001
      endloop
   endfacet
   facet normal -5.356731e-002 0.000000e+000 9.985642e-001
      outer loop
         vertex 2.880141e+002 1.493260e+002 4.189231e+001
         vertex 2.880141e+002 1.593261e+002 4.189618e+001
         vertex 2.879299e+002 1.493260e+002 4.189120e+001
      endloop
   endfacet
   facet normal -1.044433e-001 0.000000e+000 9.945309e-001
      outer loop
         vertex 2.879299e+002 1.493260e+002 4.189120e+001
         vertex 2.880141e+002 1.593261e+002 4.189618e+001
         vertex 2.876340e+002 1.593261e+002 4.185076e+001
      endloop
   endfacet
   facet normal -1.551428e-001 0.000000e+000 9.878920e-001
      outer loop
         vertex 2.879299e+002 1.493260e+002 4.189120e+001
         vertex 2.876340e+002 1.593261e+002 4.185076e+001
         vertex 2.876341e+002 1.493260e+002 4.184985e+001
      endloop
   endfacet
   facet normal -1.963547e-001 0.000000e+000 9.805329e-001
      outer loop
         vertex 2.876341e+002 1.493260e+002 4.184985e+001
         vertex 2.876340e+002 1.593261e+002 4.185076e+001
         vertex 2.876190e+002 1.493260e+002 4.184774e+001
      endloop
   endfacet
   facet normal -2.461179e-001 0.000000e+000 9.692399e-001
      outer loop
         vertex 2.876190e+002 1.493260e+002 4.184774e+001
         vertex 2.876340e+002 1.593261e+002 4.185076e+001
         vertex 2.872654e+002 1.593261e+002 4.174785e+001
      endloop
   endfacet
   facet normal -2.885150e-001 0.000000e+000 9.574754e-001
      outer loop
         vertex 2.876190e+002 1.493260e+002 4.184774e+001
         vertex 2.872654e+002 1.593261e+002 4.174785e+001
         vertex 2.873159e+002 1.493260e+002 4.176564e+001
      endloop
   endfacet
   facet normal -4.211146e-001 0.000000e+000 9.070074e-001
      outer loop
         vertex 2.869167e+002 1.593261e+002 4.158988e+001
         vertex 2.870256e+002 1.493260e+002 4.164622e+001
         vertex 2.872654e+002 1.593261e+002 4.174785e+001
      endloop
   endfacet
   facet normal -3.742092e-001 0.000000e+000 9.273443e-001
      outer loop
         vertex 2.872654e+002 1.593261e+002 4.174785e+001
         vertex 2.870256e+002 1.493260e+002 4.164622e+001
         vertex 2.872664e+002 1.493260e+002 4.174527e+001
      endloop
   endfacet
   facet normal -3.350611e-001 0.000000e+000 9.421964e-001
      outer loop
         vertex 2.872654e+002 1.593261e+002 4.174785e+001
         vertex 2.872664e+002 1.493260e+002 4.174527e+001
         vertex 2.873159e+002 1.493260e+002 4.176564e+001
      endloop
   endfacet
   facet normal -7.282392e-001 0.000000e+000 6.853230e-001
      outer loop
         vertex 2.862750e+002 1.493260e+002 4.108554e+001
         vertex 2.863135e+002 1.493260e+002 4.112272e+001
         vertex 2.863116e+002 1.593261e+002 4.112474e+001
      endloop
   endfacet
   facet normal -6.989122e-001 0.000000e+000 7.152075e-001
      outer loop
         vertex 2.863116e+002 1.593261e+002 4.112474e+001
         vertex 2.863135e+002 1.493260e+002 4.112272e+001
         vertex 2.865009e+002 1.493260e+002 4.130347e+001
      endloop
   endfacet
   facet normal -6.614462e-001 0.000000e+000 7.499926e-001
      outer loop
         vertex 2.863116e+002 1.593261e+002 4.112474e+001
         vertex 2.865009e+002 1.493260e+002 4.130347e+001
         vertex 2.865963e+002 1.593261e+002 4.138054e+001
      endloop
   endfacet
   facet normal -6.223078e-001 0.000000e+000 7.827726e-001
      outer loop
         vertex 2.865963e+002 1.593261e+002 4.138054e+001
         vertex 2.865009e+002 1.493260e+002 4.130347e+001
         vertex 2.865991e+002 1.493260e+002 4.137677e+001
      endloop
   endfacet
   facet normal -5.889885e-001 0.000000e+000 8.081414e-001
      outer loop
         vertex 2.865963e+002 1.593261e+002 4.138054e+001
         vertex 2.865991e+002 1.493260e+002 4.137677e+001
         vertex 2.867525e+002 1.593261e+002 4.149135e+001
      endloop
   endfacet
   facet normal -5.681484e-001 0.000000e+000 8.229261e-001
      outer loop
         vertex 2.867525e+002 1.593261e+002 4.149135e+001
         vertex 2.865991e+002 1.493260e+002 4.137677e+001
         vertex 2.867525e+002 1.493260e+002 4.149135e+001
      endloop
   endfacet
   facet normal -5.253903e-001 0.000000e+000 8.508613e-001
      outer loop
         vertex 2.867525e+002 1.593261e+002 4.149135e+001
         vertex 2.867525e+002 1.493260e+002 4.149135e+001
         vertex 2.869167e+002 1.593261e+002 4.158988e+001
      endloop
   endfacet
   facet normal -5.034720e-001 0.000000e+000 8.640115e-001
      outer loop
         vertex 2.869167e+002 1.593261e+002 4.158988e+001
         vertex 2.867525e+002 1.493260e+002 4.149135e+001
         vertex 2.869190e+002 1.493260e+002 4.158579e+001
      endloop
   endfacet
   facet normal -4.668556e-001 0.000000e+000 8.843336e-001
      outer loop
         vertex 2.869167e+002 1.593261e+002 4.158988e+001
         vertex 2.869190e+002 1.493260e+002 4.158579e+001
         vertex 2.870256e+002 1.493260e+002 4.164622e+001
      endloop
   endfacet
   facet normal -8.688057e-001 0.000000e+000 4.951532e-001
      outer loop
         vertex 2.858750e+002 1.593261e+002 4.049869e+001
         vertex 2.859134e+002 1.493260e+002 4.057373e+001
         vertex 2.860693e+002 1.593261e+002 4.082847e+001
      endloop
   endfacet
   facet normal -8.423598e-001 0.000000e+000 5.389155e-001
      outer loop
         vertex 2.860693e+002 1.593261e+002 4.082847e+001
         vertex 2.859134e+002 1.493260e+002 4.057373e+001
         vertex 2.860700e+002 1.493260e+002 4.082799e+001
      endloop
   endfacet
   facet normal -7.899855e-001 0.000000e+000 6.131254e-001
      outer loop
         vertex 2.860693e+002 1.593261e+002 4.082847e+001
         vertex 2.860700e+002 1.493260e+002 4.082799e+001
         vertex 2.863116e+002 1.593261e+002 4.112474e+001
      endloop
   endfacet
   facet normal -7.887294e-001 0.000000e+000 6.147406e-001
      outer loop
         vertex 2.863116e+002 1.593261e+002 4.112474e+001
         vertex 2.860700e+002 1.493260e+002 4.082799e+001
         vertex 2.860781e+002 1.493260e+002 4.084102e+001
      endloop
   endfacet
   facet normal -7.609290e-001 0.000000e+000 6.488352e-001
      outer loop
         vertex 2.863116e+002 1.593261e+002 4.112474e+001
         vertex 2.860781e+002 1.493260e+002 4.084102e+001
         vertex 2.862750e+002 1.493260e+002 4.108554e+001
      endloop
   endfacet
   facet normal -9.308826e-001 0.000000e+000 3.653183e-001
      outer loop
         vertex 2.857333e+002 1.593261e+002 4.014312e+001
         vertex 2.857834e+002 1.493260e+002 4.028792e+001
         vertex 2.858750e+002 1.593261e+002 4.049869e+001
      endloop
   endfacet
   facet normal -9.110007e-001 0.000000e+000 4.124047e-001
      outer loop
         vertex 2.858750e+002 1.593261e+002 4.049869e+001
         vertex 2.857834e+002 1.493260e+002 4.028792e+001
         vertex 2.858785e+002 1.493260e+002 4.049709e+001
      endloop
   endfacet
   facet normal -8.929364e-001 0.000000e+000 4.501828e-001
      outer loop
         vertex 2.858750e+002 1.593261e+002 4.049869e+001
         vertex 2.858785e+002 1.493260e+002 4.049709e+001
         vertex 2.859134e+002 1.493260e+002 4.057373e+001
      endloop
   endfacet
   facet normal -9.736803e-001 0.000000e+000 2.279183e-001
      outer loop
         vertex 2.856476e+002 1.593261e+002 3.977009e+001
         vertex 2.856904e+002 1.493260e+002 3.998808e+001
         vertex 2.857333e+002 1.593261e+002 4.014312e+001
      endloop
   endfacet
   facet normal -9.607735e-001 0.000000e+000 2.773342e-001
      outer loop
         vertex 2.857333e+002 1.593261e+002 4.014312e+001
         vertex 2.856904e+002 1.493260e+002 3.998808e+001
         vertex 2.857380e+002 1.493260e+002 4.014166e+001
      endloop
   endfacet
   facet normal -9.483191e-001 0.000000e+000 3.173181e-001
      outer loop
         vertex 2.857333e+002 1.593261e+002 4.014312e+001
         vertex 2.857380e+002 1.493260e+002 4.014166e+001
         vertex 2.857834e+002 1.493260e+002 4.028792e+001
      endloop
   endfacet
   facet normal -9.999748e-001 0.000000e+000 -7.102528e-003
      outer loop
         vertex 2.856201e+002 1.493260e+002 3.936537e+001
         vertex 2.856212e+002 1.493260e+002 3.938829e+001
         vertex 2.856199e+002 1.593261e+002 3.938836e+001
      endloop
   endfacet
   facet normal -9.993957e-001 0.000000e+000 3.475876e-002
      outer loop
         vertex 2.856199e+002 1.593261e+002 3.938836e+001
         vertex 2.856212e+002 1.493260e+002 3.938829e+001
         vertex 2.856357e+002 1.493260e+002 3.967894e+001
      endloop
   endfacet
   facet normal -9.963126e-001 0.000000e+000 8.579733e-002
      outer loop
         vertex 2.856199e+002 1.593261e+002 3.938836e+001
         vertex 2.856357e+002 1.493260e+002 3.967894e+001
         vertex 2.856476e+002 1.593261e+002 3.977009e+001
      endloop
   endfacet
   facet normal -9.906374e-001 0.000000e+000 1.365193e-001
      outer loop
         vertex 2.856476e+002 1.593261e+002 3.977009e+001
         vertex 2.856357e+002 1.493260e+002 3.967894e+001
         vertex 2.856516e+002 1.493260e+002 3.976938e+001
      endloop
   endfacet
   facet normal -9.840533e-001 0.000000e+000 1.778739e-001
      outer loop
         vertex 2.856476e+002 1.593261e+002 3.977009e+001
         vertex 2.856516e+002 1.493260e+002 3.976938e+001
         vertex 2.856904e+002 1.493260e+002 3.998808e+001
      endloop
   endfacet
   facet normal -9.703463e-001 0.000000e+000 -2.417189e-001
      outer loop
         vertex 2.857394e+002 1.593261e+002 3.863453e+001
         vertex 2.857068e+002 1.493260e+002 3.874474e+001
         vertex 2.856507e+002 1.593261e+002 3.900685e+001
      endloop
   endfacet
   facet normal -9.814324e-001 0.000000e+000 -1.918085e-001
      outer loop
         vertex 2.856507e+002 1.593261e+002 3.900685e+001
         vertex 2.857068e+002 1.493260e+002 3.874474e+001
         vertex 2.856531e+002 1.493260e+002 3.900735e+001
      endloop
   endfacet
   facet normal -9.943636e-001 0.000000e+000 -1.060239e-001
      outer loop
         vertex 2.856507e+002 1.593261e+002 3.900685e+001
         vertex 2.856531e+002 1.493260e+002 3.900735e+001
         vertex 2.856199e+002 1.593261e+002 3.938836e+001
      endloop
   endfacet
   facet normal -9.949957e-001 0.000000e+000 -9.991772e-002
      outer loop
         vertex 2.856199e+002 1.593261e+002 3.938836e+001
         vertex 2.856531e+002 1.493260e+002 3.900735e+001
         vertex 2.856439e+002 1.493260e+002 3.905232e+001
      endloop
   endfacet
   facet normal -9.986473e-001 0.000000e+000 -5.199545e-002
      outer loop
         vertex 2.856199e+002 1.593261e+002 3.938836e+001
         vertex 2.856439e+002 1.493260e+002 3.905232e+001
         vertex 2.856201e+002 1.493260e+002 3.936537e+001
      endloop
   endfacet
   facet normal -9.256022e-001 0.000000e+000 -3.784977e-001
      outer loop
         vertex 2.858839e+002 1.593261e+002 3.828011e+001
         vertex 2.858078e+002 1.493260e+002 3.844746e+001
         vertex 2.857394e+002 1.593261e+002 3.863453e+001
      endloop
   endfacet
   facet normal -9.437273e-001 0.000000e+000 -3.307247e-001
      outer loop
         vertex 2.857394e+002 1.593261e+002 3.863453e+001
         vertex 2.858078e+002 1.493260e+002 3.844746e+001
         vertex 2.857438e+002 1.493260e+002 3.863600e+001
      endloop
   endfacet
   facet normal -9.567466e-001 0.000000e+000 -2.909225e-001
      outer loop
         vertex 2.857394e+002 1.593261e+002 3.863453e+001
         vertex 2.857438e+002 1.493260e+002 3.863600e+001
         vertex 2.857068e+002 1.493260e+002 3.874474e+001
      endloop
   endfacet
   facet normal -8.108398e-001 0.000000e+000 -5.852681e-001
      outer loop
         vertex 2.861169e+002 1.493260e+002 3.790235e+001
         vertex 2.860834e+002 1.493260e+002 3.795360e+001
         vertex 2.860808e+002 1.593261e+002 3.795190e+001
      endloop
   endfacet
   facet normal -8.346300e-001 0.000000e+000 -5.508111e-001
      outer loop
         vertex 2.860808e+002 1.593261e+002 3.795190e+001
         vertex 2.860834e+002 1.493260e+002 3.795360e+001
         vertex 2.859452e+002 1.493260e+002 3.816518e+001
      endloop
   endfacet
   facet normal -8.616886e-001 0.000000e+000 -5.074376e-001
      outer loop
         vertex 2.860808e+002 1.593261e+002 3.795190e+001
         vertex 2.859452e+002 1.493260e+002 3.816518e+001
         vertex 2.858839e+002 1.593261e+002 3.828011e+001
      endloop
   endfacet
   facet normal -8.864649e-001 0.000000e+000 -4.627959e-001
      outer loop
         vertex 2.858839e+002 1.593261e+002 3.828011e+001
         vertex 2.859452e+002 1.493260e+002 3.816518e+001
         vertex 2.858882e+002 1.493260e+002 3.828220e+001
      endloop
   endfacet
   facet normal -9.050643e-001 0.000000e+000 -4.252747e-001
      outer loop
         vertex 2.858839e+002 1.593261e+002 3.828011e+001
         vertex 2.858882e+002 1.493260e+002 3.828220e+001
         vertex 2.858078e+002 1.493260e+002 3.844746e+001
      endloop
   endfacet
   facet normal -6.507322e-001 0.000000e+000 -7.593074e-001
      outer loop
         vertex 2.866123e+002 1.593261e+002 3.740411e+001
         vertex 2.865519e+002 1.493260e+002 3.745124e+001
         vertex 2.863255e+002 1.593261e+002 3.765760e+001
      endloop
   endfacet
   facet normal -6.886941e-001 0.000000e+000 -7.250520e-001
      outer loop
         vertex 2.863255e+002 1.593261e+002 3.765760e+001
         vertex 2.865519e+002 1.493260e+002 3.745124e+001
         vertex 2.863259e+002 1.493260e+002 3.765795e+001
      endloop
   endfacet
   facet normal -7.523144e-001 0.000000e+000 -6.588042e-001
      outer loop
         vertex 2.863255e+002 1.593261e+002 3.765760e+001
         vertex 2.863259e+002 1.493260e+002 3.765795e+001
         vertex 2.860808e+002 1.593261e+002 3.795190e+001
      endloop
   endfacet
   facet normal -7.529880e-001 0.000000e+000 -6.580342e-001
      outer loop
         vertex 2.860808e+002 1.593261e+002 3.795190e+001
         vertex 2.863259e+002 1.493260e+002 3.765795e+001
         vertex 2.863203e+002 1.493260e+002 3.766311e+001
      endloop
   endfacet
   facet normal -7.805657e-001 0.000000e+000 -6.250737e-001
      outer loop
         vertex 2.860808e+002 1.593261e+002 3.795190e+001
         vertex 2.863203e+002 1.493260e+002 3.766311e+001
         vertex 2.861169e+002 1.493260e+002 3.790235e+001
      endloop
   endfacet
   facet normal -5.350033e-001 0.000000e+000 -8.448499e-001
      outer loop
         vertex 2.869344e+002 1.593261e+002 3.719735e+001
         vertex 2.868083e+002 1.493260e+002 3.727008e+001
         vertex 2.866123e+002 1.593261e+002 3.740411e+001
      endloop
   endfacet
   facet normal -5.774751e-001 0.000000e+000 -8.164083e-001
      outer loop
         vertex 2.866123e+002 1.593261e+002 3.740411e+001
         vertex 2.868083e+002 1.493260e+002 3.727008e+001
         vertex 2.866144e+002 1.493260e+002 3.740707e+001
      endloop
   endfacet
   facet normal -6.111475e-001 0.000000e+000 -7.915167e-001
      outer loop
         vertex 2.866123e+002 1.593261e+002 3.740411e+001
         vertex 2.866144e+002 1.493260e+002 3.740707e+001
         vertex 2.865519e+002 1.493260e+002 3.745124e+001
      endloop
   endfacet
   facet normal -4.081951e-001 0.000000e+000 -9.128947e-001
      outer loop
         vertex 2.872843e+002 1.593261e+002 3.704219e+001
         vertex 2.870854e+002 1.493260e+002 3.712248e+001
         vertex 2.869344e+002 1.593261e+002 3.719735e+001
      endloop
   endfacet
   facet normal -4.542763e-001 0.000000e+000 -8.908609e-001
      outer loop
         vertex 2.869344e+002 1.593261e+002 3.719735e+001
         vertex 2.870854e+002 1.493260e+002 3.712248e+001
         vertex 2.869367e+002 1.493260e+002 3.720168e+001
      endloop
   endfacet
   facet normal -4.911778e-001 0.000000e+000 -8.710594e-001
      outer loop
         vertex 2.869344e+002 1.593261e+002 3.719735e+001
         vertex 2.869367e+002 1.493260e+002 3.720168e+001
         vertex 2.868083e+002 1.493260e+002 3.727008e+001
      endloop
   endfacet
   facet normal -1.824072e-001 0.000000e+000 -9.832231e-001
      outer loop
         vertex 2.876839e+002 1.493260e+002 3.693673e+001
         vertex 2.876542e+002 1.493260e+002 3.694395e+001
         vertex 2.876538e+002 1.593261e+002 3.694225e+001
      endloop
   endfacet
   facet normal -2.234027e-001 0.000000e+000 -9.747263e-001
      outer loop
         vertex 2.876538e+002 1.593261e+002 3.694225e+001
         vertex 2.876542e+002 1.493260e+002 3.694395e+001
         vertex 2.873788e+002 1.493260e+002 3.701078e+001
      endloop
   endfacet
   facet normal -2.729326e-001 0.000000e+000 -9.620332e-001
      outer loop
         vertex 2.876538e+002 1.593261e+002 3.694225e+001
         vertex 2.873788e+002 1.493260e+002 3.701078e+001
         vertex 2.872843e+002 1.593261e+002 3.704219e+001
      endloop
   endfacet
   facet normal -3.216646e-001 0.000000e+000 -9.468537e-001
      outer loop
         vertex 2.872843e+002 1.593261e+002 3.704219e+001
         vertex 2.873788e+002 1.493260e+002 3.701078e+001
         vertex 2.872858e+002 1.493260e+002 3.704618e+001
      endloop
   endfacet
   facet normal -3.610245e-001 0.000000e+000 -9.325563e-001
      outer loop
         vertex 2.872843e+002 1.593261e+002 3.704219e+001
         vertex 2.872858e+002 1.493260e+002 3.704618e+001
         vertex 2.870854e+002 1.493260e+002 3.712248e+001
      endloop
   endfacet
   facet normal 5.357429e-002 0.000000e+000 -9.985639e-001
      outer loop
         vertex 2.884166e+002 1.593261e+002 3.691610e+001
         vertex 2.883098e+002 1.493260e+002 3.690565e+001
         vertex 2.880342e+002 1.593261e+002 3.689989e+001
      endloop
   endfacet
   facet normal 2.465507e-003 0.000000e+000 -9.999970e-001
      outer loop
         vertex 2.880342e+002 1.593261e+002 3.689989e+001
         vertex 2.883098e+002 1.493260e+002 3.690565e+001
         vertex 2.880341e+002 1.493260e+002 3.690201e+001
      endloop
   endfacet
   facet normal -8.523221e-002 0.000000e+000 -9.963611e-001
      outer loop
         vertex 2.880342e+002 1.593261e+002 3.689989e+001
         vertex 2.880341e+002 1.493260e+002 3.690201e+001
         vertex 2.876538e+002 1.593261e+002 3.694225e+001
      endloop
   endfacet
   facet normal -9.032806e-002 0.000000e+000 -9.959121e-001
      outer loop
         vertex 2.876538e+002 1.593261e+002 3.694225e+001
         vertex 2.880341e+002 1.493260e+002 3.690201e+001
         vertex 2.879959e+002 1.493260e+002 3.690150e+001
      endloop
   endfacet
   facet normal -1.370663e-001 0.000000e+000 -9.905619e-001
      outer loop
         vertex 2.876538e+002 1.593261e+002 3.694225e+001
         vertex 2.879959e+002 1.493260e+002 3.690150e+001
         vertex 2.876839e+002 1.493260e+002 3.693673e+001
      endloop
   endfacet
   facet normal 1.963518e-001 0.000000e+000 -9.805335e-001
      outer loop
         vertex 2.887920e+002 1.593261e+002 3.699048e+001
         vertex 2.886207e+002 1.493260e+002 3.694912e+001
         vertex 2.884166e+002 1.593261e+002 3.691610e+001
      endloop
   endfacet
   facet normal 1.460065e-001 0.000000e+000 -9.892836e-001
      outer loop
         vertex 2.884166e+002 1.593261e+002 3.691610e+001
         vertex 2.886207e+002 1.493260e+002 3.694912e+001
         vertex 2.884160e+002 1.493260e+002 3.692049e+001
      endloop
   endfacet
   facet normal 1.044594e-001 0.000000e+000 -9.945291e-001
      outer loop
         vertex 2.884166e+002 1.593261e+002 3.691610e+001
         vertex 2.884160e+002 1.493260e+002 3.692049e+001
         vertex 2.883098e+002 1.493260e+002 3.690565e+001
      endloop
   endfacet
   facet normal 3.350624e-001 0.000000e+000 -9.421960e-001
      outer loop
         vertex 2.891517e+002 1.593261e+002 3.712130e+001
         vertex 2.889238e+002 1.493260e+002 3.703121e+001
         vertex 2.887920e+002 1.593261e+002 3.699048e+001
      endloop
   endfacet
   facet normal 2.865324e-001 0.000000e+000 -9.580706e-001
      outer loop
         vertex 2.887920e+002 1.593261e+002 3.699048e+001
         vertex 2.889238e+002 1.493260e+002 3.703121e+001
         vertex 2.887908e+002 1.493260e+002 3.699517e+001
      endloop
   endfacet
   facet normal 2.461675e-001 0.000000e+000 -9.692273e-001
      outer loop
         vertex 2.887920e+002 1.593261e+002 3.699048e+001
         vertex 2.887908e+002 1.493260e+002 3.699517e+001
         vertex 2.886207e+002 1.493260e+002 3.694912e+001
      endloop
   endfacet
   facet normal 5.815014e-001 -0.000000e+000 -8.135454e-001
      outer loop
         vertex 2.897387e+002 1.493260e+002 3.749338e+001
         vertex 2.894872e+002 1.493260e+002 3.730550e+001
         vertex 2.894872e+002 1.593261e+002 3.730550e+001
      endloop
   endfacet
   facet normal 5.114285e-001 0.000000e+000 -8.593259e-001
      outer loop
         vertex 2.894872e+002 1.593261e+002 3.730550e+001
         vertex 2.894872e+002 1.493260e+002 3.730550e+001
         vertex 2.892141e+002 1.493260e+002 3.715063e+001
      endloop
   endfacet
   facet normal 4.668349e-001 0.000000e+000 -8.843445e-001
      outer loop
         vertex 2.894872e+002 1.593261e+002 3.730550e+001
         vertex 2.892141e+002 1.493260e+002 3.715063e+001
         vertex 2.891517e+002 1.593261e+002 3.712130e+001
      endloop
   endfacet
   facet normal 4.211127e-001 0.000000e+000 -9.070083e-001
      outer loop
         vertex 2.891517e+002 1.593261e+002 3.712130e+001
         vertex 2.892141e+002 1.493260e+002 3.715063e+001
         vertex 2.891504e+002 1.493260e+002 3.712443e+001
      endloop
   endfacet
   facet normal 3.827728e-001 0.000000e+000 -9.238425e-001
      outer loop
         vertex 2.891517e+002 1.593261e+002 3.712130e+001
         vertex 2.891504e+002 1.493260e+002 3.712443e+001
         vertex 2.889238e+002 1.493260e+002 3.703121e+001
      endloop
   endfacet
   facet normal -0.000000e+000 1.000000e+000 0.000000e+000
      outer loop
         vertex 2.863116e+002 1.593261e+002 4.112474e+001
         vertex 2.865963e+002 1.593261e+002 4.138054e+001
         vertex 2.884166e+002 1.593261e+002 3.691610e+001
      endloop
   endfacet
   facet normal -0.000000e+000 1.000000e+000 0.000000e+000
      outer loop
         vertex 2.884166e+002 1.593261e+002 3.691610e+001
         vertex 2.865963e+002 1.593261e+002 4.138054e+001
         vertex 2.887920e+002 1.593261e+002 3.699048e+001
      endloop
   endfacet
   facet normal -0.000000e+000 1.000000e+000 0.000000e+000
      outer loop
         vertex 2.900550e+002 1.593261e+002 3.781560e+001
         vertex 2.897907e+002 1.593261e+002 3.753876e+001
         vertex 2.869167e+002 1.593261e+002 4.158988e+001
      endloop
   endfacet
   facet normal -0.000000e+000 1.000000e+000 0.000000e+000
      outer loop
         vertex 2.869167e+002 1.593261e+002 4.158988e+001
         vertex 2.897907e+002 1.593261e+002 3.753876e+001
         vertex 2.894872e+002 1.593261e+002 3.730550e+001
      endloop
   endfacet
   facet normal -0.000000e+000 1.000000e+000 0.000000e+000
      outer loop
         vertex 2.869167e+002 1.593261e+002 4.158988e+001
         vertex 2.894872e+002 1.593261e+002 3.730550e+001
         vertex 2.867525e+002 1.593261e+002 4.149135e+001
      endloop
   endfacet
   facet normal -0.000000e+000 1.000000e+000 0.000000e+000
      outer loop
         vertex 2.867525e+002 1.593261e+002 4.149135e+001
         vertex 2.894872e+002 1.593261e+002 3.730550e+001
         vertex 2.865963e+002 1.593261e+002 4.138054e+001
      endloop
   endfacet
   facet normal -0.000000e+000 1.000000e+000 0.000000e+000
      outer loop
         vertex 2.865963e+002 1.593261e+002 4.138054e+001
         vertex 2.894872e+002 1.593261e+002 3.730550e+001
         vertex 2.891517e+002 1.593261e+002 3.712130e+001
      endloop
   endfacet
   facet normal -0.000000e+000 1.000000e+000 0.000000e+000
      outer loop
         vertex 2.865963e+002 1.593261e+002 4.138054e+001
         vertex 2.891517e+002 1.593261e+002 3.712130e+001
         vertex 2.887920e+002 1.593261e+002 3.699048e+001
      endloop
   endfacet
   facet normal -0.000000e+000 1.000000e+000 0.000000e+000
      outer loop
         vertex 2.857394e+002 1.593261e+002 3.863453e+001
         vertex 2.856507e+002 1.593261e+002 3.900685e+001
         vertex 2.884166e+002 1.593261e+002 3.691610e+001
      endloop
   endfacet
   facet normal -0.000000e+000 1.000000e+000 0.000000e+000
      outer loop
         vertex 2.905518e+002 1.593261e+002 3.997786e+001
         vertex 2.869167e+002 1.593261e+002 4.158988e+001
         vertex 2.904348e+002 1.593261e+002 4.034230e+001
      endloop
   endfacet
   facet normal -0.000000e+000 1.000000e+000 0.000000e+000
      outer loop
         vertex 2.904348e+002 1.593261e+002 4.034230e+001
         vertex 2.869167e+002 1.593261e+002 4.158988e+001
         vertex 2.902636e+002 1.593261e+002 4.068462e+001
      endloop
   endfacet
   facet normal -0.000000e+000 1.000000e+000 0.000000e+000
      outer loop
         vertex 2.880342e+002 1.593261e+002 3.689989e+001
         vertex 2.876538e+002 1.593261e+002 3.694225e+001
         vertex 2.860808e+002 1.593261e+002 3.795190e+001
      endloop
   endfacet
   facet normal -0.000000e+000 1.000000e+000 0.000000e+000
      outer loop
         vertex 2.856507e+002 1.593261e+002 3.900685e+001
         vertex 2.856199e+002 1.593261e+002 3.938836e+001
         vertex 2.884166e+002 1.593261e+002 3.691610e+001
      endloop
   endfacet
   facet normal -0.000000e+000 1.000000e+000 0.000000e+000
      outer loop
         vertex 2.884166e+002 1.593261e+002 3.691610e+001
         vertex 2.856199e+002 1.593261e+002 3.938836e+001
         vertex 2.856476e+002 1.593261e+002 3.977009e+001
      endloop
   endfacet
   facet normal -0.000000e+000 1.000000e+000 0.000000e+000
      outer loop
         vertex 2.884166e+002 1.593261e+002 3.691610e+001
         vertex 2.856476e+002 1.593261e+002 3.977009e+001
         vertex 2.857333e+002 1.593261e+002 4.014312e+001
      endloop
   endfacet
   facet normal -0.000000e+000 1.000000e+000 0.000000e+000
      outer loop
         vertex 2.869167e+002 1.593261e+002 4.158988e+001
         vertex 2.872654e+002 1.593261e+002 4.174785e+001
         vertex 2.902636e+002 1.593261e+002 4.068462e+001
      endloop
   endfacet
   facet normal -0.000000e+000 1.000000e+000 0.000000e+000
      outer loop
         vertex 2.902636e+002 1.593261e+002 4.068462e+001
         vertex 2.872654e+002 1.593261e+002 4.174785e+001
         vertex 2.876340e+002 1.593261e+002 4.185076e+001
      endloop
   endfacet
   facet normal -0.000000e+000 1.000000e+000 0.000000e+000
      outer loop
         vertex 2.902636e+002 1.593261e+002 4.068462e+001
         vertex 2.876340e+002 1.593261e+002 4.185076e+001
         vertex 2.880141e+002 1.593261e+002 4.189618e+001
      endloop
   endfacet
   facet normal -0.000000e+000 1.000000e+000 0.000000e+000
      outer loop
         vertex 2.891333e+002 1.593261e+002 4.168378e+001
         vertex 2.894703e+002 1.593261e+002 4.150229e+001
         vertex 2.902636e+002 1.593261e+002 4.068462e+001
      endloop
   endfacet
   facet normal -0.000000e+000 1.000000e+000 0.000000e+000
      outer loop
         vertex 2.902636e+002 1.593261e+002 4.068462e+001
         vertex 2.894703e+002 1.593261e+002 4.150229e+001
         vertex 2.897756e+002 1.593261e+002 4.127149e+001
      endloop
   endfacet
   facet normal -0.000000e+000 1.000000e+000 0.000000e+000
      outer loop
         vertex 2.902636e+002 1.593261e+002 4.068462e+001
         vertex 2.897756e+002 1.593261e+002 4.127149e+001
         vertex 2.900422e+002 1.593261e+002 4.099679e+001
      endloop
   endfacet
   facet normal -0.000000e+000 1.000000e+000 0.000000e+000
      outer loop
         vertex 2.880342e+002 1.593261e+002 3.689989e+001
         vertex 2.860808e+002 1.593261e+002 3.795190e+001
         vertex 2.884166e+002 1.593261e+002 3.691610e+001
      endloop
   endfacet
   facet normal -0.000000e+000 1.000000e+000 0.000000e+000
      outer loop
         vertex 2.884166e+002 1.593261e+002 3.691610e+001
         vertex 2.860808e+002 1.593261e+002 3.795190e+001
         vertex 2.858839e+002 1.593261e+002 3.828011e+001
      endloop
   endfacet
   facet normal -0.000000e+000 1.000000e+000 0.000000e+000
      outer loop
         vertex 2.884166e+002 1.593261e+002 3.691610e+001
         vertex 2.858839e+002 1.593261e+002 3.828011e+001
         vertex 2.857394e+002 1.593261e+002 3.863453e+001
      endloop
   endfacet
   facet normal -0.000000e+000 1.000000e+000 0.000000e+000
      outer loop
         vertex 2.857333e+002 1.593261e+002 4.014312e+001
         vertex 2.858750e+002 1.593261e+002 4.049869e+001
         vertex 2.884166e+002 1.593261e+002 3.691610e+001
      endloop
   endfacet
   facet normal -0.000000e+000 1.000000e+000 0.000000e+000
      outer loop
         vertex 2.884166e+002 1.593261e+002 3.691610e+001
         vertex 2.858750e+002 1.593261e+002 4.049869e+001
         vertex 2.860693e+002 1.593261e+002 4.082847e+001
      endloop
   endfacet
   facet normal -0.000000e+000 1.000000e+000 0.000000e+000
      outer loop
         vertex 2.884166e+002 1.593261e+002 3.691610e+001
         vertex 2.860693e+002 1.593261e+002 4.082847e+001
         vertex 2.863116e+002 1.593261e+002 4.112474e+001
      endloop
   endfacet
   facet normal -0.000000e+000 1.000000e+000 0.000000e+000
      outer loop
         vertex 2.880141e+002 1.593261e+002 4.189618e+001
         vertex 2.883966e+002 1.593261e+002 4.188307e+001
         vertex 2.902636e+002 1.593261e+002 4.068462e+001
      endloop
   endfacet
   facet normal -0.000000e+000 1.000000e+000 0.000000e+000
      outer loop
         vertex 2.902636e+002 1.593261e+002 4.068462e+001
         vertex 2.883966e+002 1.593261e+002 4.188307e+001
         vertex 2.887726e+002 1.593261e+002 4.181171e+001
      endloop
   endfacet
   facet normal -0.000000e+000 1.000000e+000 0.000000e+000
      outer loop
         vertex 2.902636e+002 1.593261e+002 4.068462e+001
         vertex 2.887726e+002 1.593261e+002 4.181171e+001
         vertex 2.891333e+002 1.593261e+002 4.168378e+001
      endloop
   endfacet
   facet normal -0.000000e+000 1.000000e+000 0.000000e+000
      outer loop
         vertex 2.905518e+002 1.593261e+002 3.997786e+001
         vertex 2.906118e+002 1.593261e+002 3.959983e+001
         vertex 2.869167e+002 1.593261e+002 4.158988e+001
      endloop
   endfacet
   facet normal -0.000000e+000 1.000000e+000 0.000000e+000
      outer loop
         vertex 2.869167e+002 1.593261e+002 4.158988e+001
         vertex 2.906118e+002 1.593261e+002 3.959983e+001
         vertex 2.906133e+002 1.593261e+002 3.921709e+001
      endloop
   endfacet
   facet normal -0.000000e+000 1.000000e+000 0.000000e+000
      outer loop
         vertex 2.869167e+002 1.593261e+002 4.158988e+001
         vertex 2.906133e+002 1.593261e+002 3.921709e+001
         vertex 2.905564e+002 1.593261e+002 3.883860e+001
      endloop
   endfacet
   facet normal -0.000000e+000 1.000000e+000 0.000000e+000
      outer loop
         vertex 2.876538e+002 1.593261e+002 3.694225e+001
         vertex 2.872843e+002 1.593261e+002 3.704219e+001
         vertex 2.860808e+002 1.593261e+002 3.795190e+001
      endloop
   endfacet
   facet normal -0.000000e+000 1.000000e+000 0.000000e+000
      outer loop
         vertex 2.860808e+002 1.593261e+002 3.795190e+001
         vertex 2.872843e+002 1.593261e+002 3.704219e+001
         vertex 2.869344e+002 1.593261e+002 3.719735e+001
      endloop
   endfacet
   facet normal -0.000000e+000 1.000000e+000 0.000000e+000
      outer loop
         vertex 2.860808e+002 1.593261e+002 3.795190e+001
         vertex 2.869344e+002 1.593261e+002 3.719735e+001
         vertex 2.863255e+002 1.593261e+002 3.765760e+001
      endloop
   endfacet
   facet normal -0.000000e+000 1.000000e+000 0.000000e+000
      outer loop
         vertex 2.863255e+002 1.593261e+002 3.765760e+001
         vertex 2.869344e+002 1.593261e+002 3.719735e+001
         vertex 2.866123e+002 1.593261e+002 3.740411e+001
      endloop
   endfacet
   facet normal -0.000000e+000 1.000000e+000 0.000000e+000
      outer loop
         vertex 2.905564e+002 1.593261e+002 3.883860e+001
         vertex 2.904424e+002 1.593261e+002 3.847323e+001
         vertex 2.869167e+002 1.593261e+002 4.158988e+001
      endloop
   endfacet
   facet normal -0.000000e+000 1.000000e+000 0.000000e+000
      outer loop
         vertex 2.869167e+002 1.593261e+002 4.158988e+001
         vertex 2.904424e+002 1.593261e+002 3.847323e+001
         vertex 2.902739e+002 1.593261e+002 3.812955e+001
      endloop
   endfacet
   facet normal -0.000000e+000 1.000000e+000 0.000000e+000
      outer loop
         vertex 2.869167e+002 1.593261e+002 4.158988e+001
         vertex 2.902739e+002 1.593261e+002 3.812955e+001
         vertex 2.900550e+002 1.593261e+002 3.781560e+001
      endloop
   endfacet
   facet normal 0.000000e+000 -1.000000e+000 0.000000e+000
      outer loop
         vertex 2.918195e+002 1.481261e+002 3.944735e+001
         vertex 2.917842e+002 1.481261e+002 3.991066e+001
         vertex 2.865003e+002 1.481261e+002 4.272516e+001
      endloop
   endfacet
   facet normal 0.000000e+000 -1.000000e+000 0.000000e+000
      outer loop
         vertex 2.860962e+002 1.481261e+002 4.249595e+001
         vertex 2.897394e+002 1.481261e+002 3.607169e+001
         vertex 2.865003e+002 1.481261e+002 4.272516e+001
      endloop
   endfacet
   facet normal 0.000000e+000 -1.000000e+000 0.000000e+000
      outer loop
         vertex 2.865003e+002 1.481261e+002 4.272516e+001
         vertex 2.897394e+002 1.481261e+002 3.607169e+001
         vertex 2.901436e+002 1.481261e+002 3.630090e+001
      endloop
   endfacet
   facet normal 0.000000e+000 -1.000000e+000 0.000000e+000
      outer loop
         vertex 2.865003e+002 1.481261e+002 4.272516e+001
         vertex 2.901436e+002 1.481261e+002 3.630090e+001
         vertex 2.905158e+002 1.481261e+002 3.657896e+001
      endloop
   endfacet
   facet normal 0.000000e+000 -1.000000e+000 0.000000e+000
      outer loop
         vertex 2.865003e+002 1.481261e+002 4.272516e+001
         vertex 2.913855e+002 1.481261e+002 3.765896e+001
         vertex 2.915778e+002 1.481261e+002 3.808197e+001
      endloop
   endfacet
   facet normal 0.000000e+000 -1.000000e+000 0.000000e+000
      outer loop
         vertex 2.905158e+002 1.481261e+002 3.657896e+001
         vertex 2.908503e+002 1.481261e+002 3.690149e+001
         vertex 2.865003e+002 1.481261e+002 4.272516e+001
      endloop
   endfacet
   facet normal 0.000000e+000 -1.000000e+000 0.000000e+000
      outer loop
         vertex 2.865003e+002 1.481261e+002 4.272516e+001
         vertex 2.908503e+002 1.481261e+002 3.690149e+001
         vertex 2.911417e+002 1.481261e+002 3.726339e+001
      endloop
   endfacet
   facet normal 0.000000e+000 -1.000000e+000 0.000000e+000
      outer loop
         vertex 2.865003e+002 1.481261e+002 4.272516e+001
         vertex 2.911417e+002 1.481261e+002 3.726339e+001
         vertex 2.913855e+002 1.481261e+002 3.765896e+001
      endloop
   endfacet
   facet normal 0.000000e+000 -1.000000e+000 0.000000e+000
      outer loop
         vertex 2.915778e+002 1.481261e+002 3.808197e+001
         vertex 2.917155e+002 1.481261e+002 3.852574e+001
         vertex 2.865003e+002 1.481261e+002 4.272516e+001
      endloop
   endfacet
   facet normal 0.000000e+000 -1.000000e+000 0.000000e+000
      outer loop
         vertex 2.865003e+002 1.481261e+002 4.272516e+001
         vertex 2.917155e+002 1.481261e+002 3.852574e+001
         vertex 2.917965e+002 1.481261e+002 3.898327e+001
      endloop
   endfacet
   facet normal 0.000000e+000 -1.000000e+000 0.000000e+000
      outer loop
         vertex 2.865003e+002 1.481261e+002 4.272516e+001
         vertex 2.917965e+002 1.481261e+002 3.898327e+001
         vertex 2.918195e+002 1.481261e+002 3.944735e+001
      endloop
   endfacet
   facet normal 0.000000e+000 -1.000000e+000 0.000000e+000
      outer loop
         vertex 2.917842e+002 1.481261e+002 3.991066e+001
         vertex 2.916911e+002 1.481261e+002 4.036588e+001
         vertex 2.865003e+002 1.481261e+002 4.272516e+001
      endloop
   endfacet
   facet normal 0.000000e+000 -1.000000e+000 0.000000e+000
      outer loop
         vertex 2.865003e+002 1.481261e+002 4.272516e+001
         vertex 2.916911e+002 1.481261e+002 4.036588e+001
         vertex 2.915417e+002 1.481261e+002 4.080585e+001
      endloop
   endfacet
   facet normal 0.000000e+000 -1.000000e+000 0.000000e+000
      outer loop
         vertex 2.865003e+002 1.481261e+002 4.272516e+001
         vertex 2.915417e+002 1.481261e+002 4.080585e+001
         vertex 2.913383e+002 1.481261e+002 4.122363e+001
      endloop
   endfacet
   facet normal 0.000000e+000 -1.000000e+000 0.000000e+000
      outer loop
         vertex 2.904404e+002 1.481261e+002 4.228026e+001
         vertex 2.900609e+002 1.481261e+002 4.254838e+001
         vertex 2.865003e+002 1.481261e+002 4.272516e+001
      endloop
   endfacet
   facet normal 0.000000e+000 -1.000000e+000 0.000000e+000
      outer loop
         vertex 2.865003e+002 1.481261e+002 4.272516e+001
         vertex 2.900609e+002 1.481261e+002 4.254838e+001
         vertex 2.896508e+002 1.481261e+002 4.276682e+001
      endloop
   endfacet
   facet normal 0.000000e+000 -1.000000e+000 0.000000e+000
      outer loop
         vertex 2.865003e+002 1.481261e+002 4.272516e+001
         vertex 2.896508e+002 1.481261e+002 4.276682e+001
         vertex 2.892166e+002 1.481261e+002 4.293214e+001
      endloop
   endfacet
   facet normal 0.000000e+000 -1.000000e+000 0.000000e+000
      outer loop
         vertex 2.883033e+002 1.481261e+002 4.309387e+001
         vertex 2.878387e+002 1.481261e+002 4.308773e+001
         vertex 2.873785e+002 1.481261e+002 4.302340e+001
      endloop
   endfacet
   facet normal 0.000000e+000 -1.000000e+000 0.000000e+000
      outer loop
         vertex 2.860962e+002 1.481261e+002 4.249595e+001
         vertex 2.857239e+002 1.481261e+002 4.221789e+001
         vertex 2.897394e+002 1.481261e+002 3.607169e+001
      endloop
   endfacet
   facet normal 0.000000e+000 -1.000000e+000 0.000000e+000
      outer loop
         vertex 2.897394e+002 1.481261e+002 3.607169e+001
         vertex 2.857239e+002 1.481261e+002 4.221789e+001
         vertex 2.853894e+002 1.481261e+002 4.189536e+001
      endloop
   endfacet
   facet normal 0.000000e+000 -1.000000e+000 0.000000e+000
      outer loop
         vertex 2.897394e+002 1.481261e+002 3.607169e+001
         vertex 2.853894e+002 1.481261e+002 4.189536e+001
         vertex 2.850980e+002 1.481261e+002 4.153346e+001
      endloop
   endfacet
   facet normal 0.000000e+000 -1.000000e+000 0.000000e+000
      outer loop
         vertex 2.913383e+002 1.481261e+002 4.122363e+001
         vertex 2.910842e+002 1.481261e+002 4.161262e+001
         vertex 2.865003e+002 1.481261e+002 4.272516e+001
      endloop
   endfacet
   facet normal 0.000000e+000 -1.000000e+000 0.000000e+000
      outer loop
         vertex 2.865003e+002 1.481261e+002 4.272516e+001
         vertex 2.910842e+002 1.481261e+002 4.161262e+001
         vertex 2.907833e+002 1.481261e+002 4.196669e+001
      endloop
   endfacet
   facet normal 0.000000e+000 -1.000000e+000 0.000000e+000
      outer loop
         vertex 2.865003e+002 1.481261e+002 4.272516e+001
         vertex 2.907833e+002 1.481261e+002 4.196669e+001
         vertex 2.904404e+002 1.481261e+002 4.228026e+001
      endloop
   endfacet
   facet normal 0.000000e+000 -1.000000e+000 0.000000e+000
      outer loop
         vertex 2.892166e+002 1.481261e+002 4.293214e+001
         vertex 2.887650e+002 1.481261e+002 4.304174e+001
         vertex 2.865003e+002 1.481261e+002 4.272516e+001
      endloop
   endfacet
   facet normal 0.000000e+000 -1.000000e+000 0.000000e+000
      outer loop
         vertex 2.865003e+002 1.481261e+002 4.272516e+001
         vertex 2.887650e+002 1.481261e+002 4.304174e+001
         vertex 2.883033e+002 1.481261e+002 4.309387e+001
      endloop
   endfacet
   facet normal 0.000000e+000 -1.000000e+000 0.000000e+000
      outer loop
         vertex 2.865003e+002 1.481261e+002 4.272516e+001
         vertex 2.883033e+002 1.481261e+002 4.309387e+001
         vertex 2.869301e+002 1.481261e+002 4.290191e+001
      endloop
   endfacet
   facet normal 0.000000e+000 -1.000000e+000 0.000000e+000
      outer loop
         vertex 2.869301e+002 1.481261e+002 4.290191e+001
         vertex 2.883033e+002 1.481261e+002 4.309387e+001
         vertex 2.873785e+002 1.481261e+002 4.302340e+001
      endloop
   endfacet
   facet normal 0.000000e+000 -1.000000e+000 0.000000e+000
      outer loop
         vertex 2.850980e+002 1.481261e+002 4.153346e+001
         vertex 2.848542e+002 1.481261e+002 4.113789e+001
         vertex 2.897394e+002 1.481261e+002 3.607169e+001
      endloop
   endfacet
   facet normal 0.000000e+000 -1.000000e+000 0.000000e+000
      outer loop
         vertex 2.897394e+002 1.481261e+002 3.607169e+001
         vertex 2.848542e+002 1.481261e+002 4.113789e+001
         vertex 2.846620e+002 1.481261e+002 4.071488e+001
      endloop
   endfacet
   facet normal 0.000000e+000 -1.000000e+000 0.000000e+000
      outer loop
         vertex 2.897394e+002 1.481261e+002 3.607169e+001
         vertex 2.846620e+002 1.481261e+002 4.071488e+001
         vertex 2.845243e+002 1.481261e+002 4.027111e+001
      endloop
   endfacet
   facet normal 0.000000e+000 -1.000000e+000 0.000000e+000
      outer loop
         vertex 2.845243e+002 1.481261e+002 4.027111e+001
         vertex 2.844432e+002 1.481261e+002 3.981358e+001
         vertex 2.897394e+002 1.481261e+002 3.607169e+001
      endloop
   endfacet
   facet normal 0.000000e+000 -1.000000e+000 0.000000e+000
      outer loop
         vertex 2.897394e+002 1.481261e+002 3.607169e+001
         vertex 2.844432e+002 1.481261e+002 3.981358e+001
         vertex 2.844202e+002 1.481261e+002 3.934950e+001
      endloop
   endfacet
   facet normal 0.000000e+000 -1.000000e+000 0.000000e+000
      outer loop
         vertex 2.897394e+002 1.481261e+002 3.607169e+001
         vertex 2.844202e+002 1.481261e+002 3.934950e+001
         vertex 2.893097e+002 1.481261e+002 3.589494e+001
      endloop
   endfacet
   facet normal 0.000000e+000 -1.000000e+000 0.000000e+000
      outer loop
         vertex 2.893097e+002 1.481261e+002 3.589494e+001
         vertex 2.844202e+002 1.481261e+002 3.934950e+001
         vertex 2.844555e+002 1.481261e+002 3.888619e+001
      endloop
   endfacet
   facet normal 0.000000e+000 -1.000000e+000 0.000000e+000
      outer loop
         vertex 2.893097e+002 1.481261e+002 3.589494e+001
         vertex 2.844555e+002 1.481261e+002 3.888619e+001
         vertex 2.845486e+002 1.481261e+002 3.843097e+001
      endloop
   endfacet
   facet normal 0.000000e+000 -1.000000e+000 0.000000e+000
      outer loop
         vertex 2.845486e+002 1.481261e+002 3.843097e+001
         vertex 2.846980e+002 1.481261e+002 3.799099e+001
         vertex 2.893097e+002 1.481261e+002 3.589494e+001
      endloop
   endfacet
   facet normal 0.000000e+000 -1.000000e+000 0.000000e+000
      outer loop
         vertex 2.893097e+002 1.481261e+002 3.589494e+001
         vertex 2.846980e+002 1.481261e+002 3.799099e+001
         vertex 2.849014e+002 1.481261e+002 3.757322e+001
      endloop
   endfacet
   facet normal 0.000000e+000 -1.000000e+000 0.000000e+000
      outer loop
         vertex 2.893097e+002 1.481261e+002 3.589494e+001
         vertex 2.849014e+002 1.481261e+002 3.757322e+001
         vertex 2.851555e+002 1.481261e+002 3.718423e+001
      endloop
   endfacet
   facet normal 0.000000e+000 -1.000000e+000 0.000000e+000
      outer loop
         vertex 2.851555e+002 1.481261e+002 3.718423e+001
         vertex 2.854564e+002 1.481261e+002 3.683016e+001
         vertex 2.893097e+002 1.481261e+002 3.589494e+001
      endloop
   endfacet
   facet normal 0.000000e+000 -1.000000e+000 0.000000e+000
      outer loop
         vertex 2.893097e+002 1.481261e+002 3.589494e+001
         vertex 2.854564e+002 1.481261e+002 3.683016e+001
         vertex 2.857993e+002 1.481261e+002 3.651659e+001
      endloop
   endfacet
   facet normal 0.000000e+000 -1.000000e+000 0.000000e+000
      outer loop
         vertex 2.893097e+002 1.481261e+002 3.589494e+001
         vertex 2.857993e+002 1.481261e+002 3.651659e+001
         vertex 2.861788e+002 1.481261e+002 3.624847e+001
      endloop
   endfacet
   facet normal 0.000000e+000 -1.000000e+000 0.000000e+000
      outer loop
         vertex 2.861788e+002 1.481261e+002 3.624847e+001
         vertex 2.865889e+002 1.481261e+002 3.603003e+001
         vertex 2.893097e+002 1.481261e+002 3.589494e+001
      endloop
   endfacet
   facet normal 0.000000e+000 -1.000000e+000 0.000000e+000
      outer loop
         vertex 2.893097e+002 1.481261e+002 3.589494e+001
         vertex 2.865889e+002 1.481261e+002 3.603003e+001
         vertex 2.870231e+002 1.481261e+002 3.586470e+001
      endloop
   endfacet
   facet normal 0.000000e+000 -1.000000e+000 0.000000e+000
      outer loop
         vertex 2.893097e+002 1.481261e+002 3.589494e+001
         vertex 2.870231e+002 1.481261e+002 3.586470e+001
         vertex 2.874747e+002 1.481261e+002 3.575511e+001
      endloop
   endfacet
   facet normal 0.000000e+000 -1.000000e+000 0.000000e+000
      outer loop
         vertex 2.874747e+002 1.481261e+002 3.575511e+001
         vertex 2.879364e+002 1.481261e+002 3.570298e+001
         vertex 2.893097e+002 1.481261e+002 3.589494e+001
      endloop
   endfacet
   facet normal 0.000000e+000 -1.000000e+000 0.000000e+000
      outer loop
         vertex 2.893097e+002 1.481261e+002 3.589494e+001
         vertex 2.879364e+002 1.481261e+002 3.570298e+001
         vertex 2.884010e+002 1.481261e+002 3.570912e+001
      endloop
   endfacet
   facet normal 0.000000e+000 -1.000000e+000 0.000000e+000
      outer loop
         vertex 2.893097e+002 1.481261e+002 3.589494e+001
         vertex 2.884010e+002 1.481261e+002 3.570912e+001
         vertex 2.888611e+002 1.481261e+002 3.577345e+001
      endloop
   endfacet
   facet normal -3.198068e-001 7.072011e-001 6.305475e-001
      outer loop
         vertex 2.865003e+002 1.481261e+002 4.272516e+001
         vertex 2.870256e+002 1.493260e+002 4.164622e+001
         vertex 2.869190e+002 1.493260e+002 4.158579e+001
      endloop
   endfacet
   facet normal -3.457428e-001 7.075795e-001 6.162736e-001
      outer loop
         vertex 2.865003e+002 1.481261e+002 4.272516e+001
         vertex 2.869190e+002 1.493260e+002 4.158579e+001
         vertex 2.860962e+002 1.481261e+002 4.249595e+001
      endloop
   endfacet
   facet normal -2.870639e-001 7.075337e-001 6.457479e-001
      outer loop
         vertex 2.870256e+002 1.493260e+002 4.164622e+001
         vertex 2.865003e+002 1.481261e+002 4.272516e+001
         vertex 2.872664e+002 1.493260e+002 4.174527e+001
      endloop
   endfacet
   facet normal -2.597115e-001 7.076395e-001 6.571121e-001
      outer loop
         vertex 2.872664e+002 1.493260e+002 4.174527e+001
         vertex 2.865003e+002 1.481261e+002 4.272516e+001
         vertex 2.869301e+002 1.481261e+002 4.290191e+001
      endloop
   endfacet
   facet normal -2.321473e-001 7.071248e-001 6.678938e-001
      outer loop
         vertex 2.872664e+002 1.493260e+002 4.174527e+001
         vertex 2.869301e+002 1.481261e+002 4.290191e+001
         vertex 2.873159e+002 1.493260e+002 4.176564e+001
      endloop
   endfacet
   facet normal -1.989855e-001 7.077271e-001 6.778842e-001
      outer loop
         vertex 2.873159e+002 1.493260e+002 4.176564e+001
         vertex 2.869301e+002 1.481261e+002 4.290191e+001
         vertex 2.876190e+002 1.493260e+002 4.184774e+001
      endloop
   endfacet
   facet normal -1.703905e-001 7.077271e-001 6.856307e-001
      outer loop
         vertex 2.876190e+002 1.493260e+002 4.184774e+001
         vertex 2.869301e+002 1.481261e+002 4.290191e+001
         vertex 2.873785e+002 1.481261e+002 4.302340e+001
      endloop
   endfacet
   facet normal -1.402598e-001 7.071083e-001 6.930549e-001
      outer loop
         vertex 2.876190e+002 1.493260e+002 4.184774e+001
         vertex 2.873785e+002 1.481261e+002 4.302340e+001
         vertex 2.876341e+002 1.493260e+002 4.184985e+001
      endloop
   endfacet
   facet normal -1.110376e-001 7.076985e-001 6.977346e-001
      outer loop
         vertex 2.876341e+002 1.493260e+002 4.184985e+001
         vertex 2.873785e+002 1.481261e+002 4.302340e+001
         vertex 2.878387e+002 1.481261e+002 4.308773e+001
      endloop
   endfacet
   facet normal -8.169495e-002 7.076682e-001 7.018059e-001
      outer loop
         vertex 2.876341e+002 1.493260e+002 4.184985e+001
         vertex 2.878387e+002 1.481261e+002 4.308773e+001
         vertex 2.879299e+002 1.493260e+002 4.189120e+001
      endloop
   endfacet
   facet normal -4.580821e-002 7.071513e-001 7.055768e-001
      outer loop
         vertex 2.879299e+002 1.493260e+002 4.189120e+001
         vertex 2.878387e+002 1.481261e+002 4.308773e+001
         vertex 2.880141e+002 1.493260e+002 4.189231e+001
      endloop
   endfacet
   facet normal -1.621964e-002 7.076054e-001 7.064216e-001
      outer loop
         vertex 2.880141e+002 1.493260e+002 4.189231e+001
         vertex 2.878387e+002 1.481261e+002 4.308773e+001
         vertex 2.883033e+002 1.481261e+002 4.309387e+001
      endloop
   endfacet
   facet normal 1.339523e-002 7.074392e-001 7.066472e-001
      outer loop
         vertex 2.880141e+002 1.493260e+002 4.189231e+001
         vertex 2.883033e+002 1.481261e+002 4.309387e+001
         vertex 2.882438e+002 1.493260e+002 4.189535e+001
      endloop
   endfacet
   facet normal 4.947366e-002 7.072544e-001 7.052259e-001
      outer loop
         vertex 2.882438e+002 1.493260e+002 4.189535e+001
         vertex 2.883033e+002 1.481261e+002 4.309387e+001
         vertex 2.883960e+002 1.493260e+002 4.187816e+001
      endloop
   endfacet
   facet normal 7.892807e-002 7.075721e-001 7.022194e-001
      outer loop
         vertex 2.883960e+002 1.493260e+002 4.187816e+001
         vertex 2.883033e+002 1.481261e+002 4.309387e+001
         vertex 2.887650e+002 1.481261e+002 4.304174e+001
      endloop
   endfacet
   facet normal 1.083139e-001 7.072695e-001 6.985971e-001
      outer loop
         vertex 2.883960e+002 1.493260e+002 4.187816e+001
         vertex 2.887650e+002 1.481261e+002 4.304174e+001
         vertex 2.885558e+002 1.493260e+002 4.186012e+001
      endloop
   endfacet
   facet normal 1.438155e-001 7.074174e-001 6.920099e-001
      outer loop
         vertex 2.885558e+002 1.493260e+002 4.186012e+001
         vertex 2.887650e+002 1.481261e+002 4.304174e+001
         vertex 2.887716e+002 1.493260e+002 4.180774e+001
      endloop
   endfacet
   facet normal 1.726370e-001 7.075988e-001 6.852010e-001
      outer loop
         vertex 2.887716e+002 1.493260e+002 4.180774e+001
         vertex 2.887650e+002 1.481261e+002 4.304174e+001
         vertex 2.892166e+002 1.481261e+002 4.293214e+001
      endloop
   endfacet
   facet normal 2.012967e-001 7.071598e-001 6.777940e-001
      outer loop
         vertex 2.887716e+002 1.493260e+002 4.180774e+001
         vertex 2.892166e+002 1.481261e+002 4.293214e+001
         vertex 2.888609e+002 1.493260e+002 4.178608e+001
      endloop
   endfacet
   facet normal 2.354660e-001 7.076399e-001 6.661843e-001
      outer loop
         vertex 2.888609e+002 1.493260e+002 4.178608e+001
         vertex 2.892166e+002 1.481261e+002 4.293214e+001
         vertex 2.891329e+002 1.493260e+002 4.168253e+001
      endloop
   endfacet
   facet normal 2.631665e-001 7.076852e-001 6.556867e-001
      outer loop
         vertex 2.891329e+002 1.493260e+002 4.168253e+001
         vertex 2.892166e+002 1.481261e+002 4.293214e+001
         vertex 2.896508e+002 1.481261e+002 4.276682e+001
      endloop
   endfacet
   facet normal 2.906156e-001 7.071101e-001 6.446223e-001
      outer loop
         vertex 2.891329e+002 1.493260e+002 4.168253e+001
         vertex 2.896508e+002 1.481261e+002 4.276682e+001
         vertex 2.891543e+002 1.493260e+002 4.167437e+001
      endloop
   endfacet
   facet normal 3.189895e-001 7.077271e-001 6.303713e-001
      outer loop
         vertex 2.891543e+002 1.493260e+002 4.167437e+001
         vertex 2.896508e+002 1.481261e+002 4.276682e+001
         vertex 2.894314e+002 1.493260e+002 4.152677e+001
      endloop
   endfacet
   facet normal 3.451371e-001 7.077271e-001 6.164436e-001
      outer loop
         vertex 2.894314e+002 1.493260e+002 4.152677e+001
         vertex 2.896508e+002 1.481261e+002 4.276682e+001
         vertex 2.900609e+002 1.481261e+002 4.254838e+001
      endloop
   endfacet
   facet normal 3.746267e-001 7.071200e-001 5.996967e-001
      outer loop
         vertex 2.894314e+002 1.493260e+002 4.152677e+001
         vertex 2.900609e+002 1.481261e+002 4.254838e+001
         vertex 2.894689e+002 1.493260e+002 4.150028e+001
      endloop
   endfacet
   facet normal 3.991006e-001 7.076498e-001 5.830528e-001
      outer loop
         vertex 2.894689e+002 1.493260e+002 4.150028e+001
         vertex 2.900609e+002 1.481261e+002 4.254838e+001
         vertex 2.904404e+002 1.481261e+002 4.228026e+001
      endloop
   endfacet
   facet normal 4.232396e-001 7.075592e-001 5.658871e-001
      outer loop
         vertex 2.894689e+002 1.493260e+002 4.150028e+001
         vertex 2.904404e+002 1.481261e+002 4.228026e+001
         vertex 2.896878e+002 1.493260e+002 4.134561e+001
      endloop
   endfacet
   facet normal 4.518118e-001 7.071897e-001 5.438280e-001
      outer loop
         vertex 2.896878e+002 1.493260e+002 4.134561e+001
         vertex 2.904404e+002 1.481261e+002 4.228026e+001
         vertex 2.897726e+002 1.493260e+002 4.126811e+001
      endloop
   endfacet
   facet normal 4.739212e-001 7.075832e-001 5.241418e-001
      outer loop
         vertex 2.897726e+002 1.493260e+002 4.126811e+001
         vertex 2.904404e+002 1.481261e+002 4.228026e+001
         vertex 2.907833e+002 1.481261e+002 4.196669e+001
      endloop
   endfacet
   facet normal 4.956204e-001 7.073564e-001 5.039914e-001
      outer loop
         vertex 2.897726e+002 1.493260e+002 4.126811e+001
         vertex 2.907833e+002 1.481261e+002 4.196669e+001
         vertex 2.899195e+002 1.493260e+002 4.113374e+001
      endloop
   endfacet
   facet normal 5.207381e-001 7.073194e-001 4.780492e-001
      outer loop
         vertex 2.899195e+002 1.493260e+002 4.113374e+001
         vertex 2.907833e+002 1.481261e+002 4.196669e+001
         vertex 2.900385e+002 1.493260e+002 4.099369e+001
      endloop
   endfacet
   facet normal 5.401076e-001 7.075766e-001 4.556525e-001
      outer loop
         vertex 2.900385e+002 1.493260e+002 4.099369e+001
         vertex 2.907833e+002 1.481261e+002 4.196669e+001
         vertex 2.910842e+002 1.481261e+002 4.161262e+001
      endloop
   endfacet
   facet normal 5.590007e-001 7.072133e-001 4.328597e-001
      outer loop
         vertex 2.900385e+002 1.493260e+002 4.099369e+001
         vertex 2.910842e+002 1.481261e+002 4.161262e+001
         vertex 2.901228e+002 1.493260e+002 4.089450e+001
      endloop
   endfacet
   facet normal 5.801284e-001 7.075090e-001 4.035864e-001
      outer loop
         vertex 2.901228e+002 1.493260e+002 4.089450e+001
         vertex 2.910842e+002 1.481261e+002 4.161262e+001
         vertex 2.902610e+002 1.493260e+002 4.068292e+001
      endloop
   endfacet
   facet normal 5.964289e-001 7.076298e-001 3.788570e-001
      outer loop
         vertex 2.902610e+002 1.493260e+002 4.068292e+001
         vertex 2.910842e+002 1.481261e+002 4.161262e+001
         vertex 2.913383e+002 1.481261e+002 4.122363e+001
      endloop
   endfacet
   facet normal 6.121978e-001 7.071303e-001 3.538087e-001
      outer loop
         vertex 2.902610e+002 1.493260e+002 4.068292e+001
         vertex 2.913383e+002 1.481261e+002 4.122363e+001
         vertex 2.902945e+002 1.493260e+002 4.063167e+001
      endloop
   endfacet
   facet normal 6.285909e-001 7.077271e-001 3.224838e-001
      outer loop
         vertex 2.902945e+002 1.493260e+002 4.063167e+001
         vertex 2.913383e+002 1.481261e+002 4.122363e+001
         vertex 2.904319e+002 1.493260e+002 4.034939e+001
      endloop
   endfacet
   facet normal 6.415582e-001 7.077271e-001 2.958468e-001
      outer loop
         vertex 2.904319e+002 1.493260e+002 4.034939e+001
         vertex 2.913383e+002 1.481261e+002 4.122363e+001
         vertex 2.915417e+002 1.481261e+002 4.080585e+001
      endloop
   endfacet
   facet normal 6.542251e-001 7.071071e-001 2.683079e-001
      outer loop
         vertex 2.904319e+002 1.493260e+002 4.034939e+001
         vertex 2.915417e+002 1.481261e+002 4.080585e+001
         vertex 2.904344e+002 1.493260e+002 4.034215e+001
      endloop
   endfacet
   facet normal 6.643115e-001 7.077124e-001 2.404859e-001
      outer loop
         vertex 2.904344e+002 1.493260e+002 4.034215e+001
         vertex 2.915417e+002 1.481261e+002 4.080585e+001
         vertex 2.916911e+002 1.481261e+002 4.036588e+001
      endloop
   endfacet
   facet normal 6.738235e-001 7.076973e-001 2.124298e-001
      outer loop
         vertex 2.904344e+002 1.493260e+002 4.034215e+001
         vertex 2.916911e+002 1.481261e+002 4.036588e+001
         vertex 2.905329e+002 1.493260e+002 4.005211e+001
      endloop
   endfacet
   facet normal 6.843215e-001 7.071435e-001 1.779103e-001
      outer loop
         vertex 2.905329e+002 1.493260e+002 4.005211e+001
         vertex 2.916911e+002 1.481261e+002 4.036588e+001
         vertex 2.905482e+002 1.493260e+002 3.997713e+001
      endloop
   endfacet
   facet normal 6.907103e-001 7.076128e-001 1.490080e-001
      outer loop
         vertex 2.905482e+002 1.493260e+002 3.997713e+001
         vertex 2.916911e+002 1.481261e+002 4.036588e+001
         vertex 2.917842e+002 1.481261e+002 3.991066e+001
      endloop
   endfacet
   facet normal 6.964962e-001 7.074617e-001 1.199621e-001
      outer loop
         vertex 2.905482e+002 1.493260e+002 3.997713e+001
         vertex 2.917842e+002 1.481261e+002 3.991066e+001
         vertex 2.905958e+002 1.493260e+002 3.974453e+001
      endloop
   endfacet
   facet normal 7.019333e-001 7.072399e-001 8.426884e-002
      outer loop
         vertex 2.905958e+002 1.493260e+002 3.974453e+001
         vertex 2.917842e+002 1.481261e+002 3.991066e+001
         vertex 2.906068e+002 1.493260e+002 3.959946e+001
      endloop
   endfacet
   facet normal 7.045143e-001 7.075729e-001 5.477489e-002
      outer loop
         vertex 2.906068e+002 1.493260e+002 3.959946e+001
         vertex 2.917842e+002 1.481261e+002 3.991066e+001
         vertex 2.918195e+002 1.481261e+002 3.944735e+001
      endloop
   endfacet
   facet normal 7.064776e-001 7.072855e-001 2.523099e-002
      outer loop
         vertex 2.906068e+002 1.493260e+002 3.959946e+001
         vertex 2.918195e+002 1.481261e+002 3.944735e+001
         vertex 2.906196e+002 1.493260e+002 3.943148e+001
      endloop
   endfacet
   facet normal 7.067333e-001 7.073964e-001 -1.087656e-002
      outer loop
         vertex 2.906196e+002 1.493260e+002 3.943148e+001
         vertex 2.918195e+002 1.481261e+002 3.944735e+001
         vertex 2.906090e+002 1.493260e+002 3.921730e+001
      endloop
   endfacet
   facet normal 7.054609e-001 7.075928e-001 -4.046326e-002
      outer loop
         vertex 2.906090e+002 1.493260e+002 3.921730e+001
         vertex 2.918195e+002 1.481261e+002 3.944735e+001
         vertex 2.917965e+002 1.481261e+002 3.898327e+001
      endloop
   endfacet
   facet normal 7.035704e-001 7.071690e-001 -7.000493e-002
      outer loop
         vertex 2.906090e+002 1.493260e+002 3.921730e+001
         vertex 2.917965e+002 1.481261e+002 3.898327e+001
         vertex 2.906041e+002 1.493260e+002 3.911791e+001
      endloop
   endfacet
   facet normal 6.986417e-001 7.076123e-001 -1.057578e-001
      outer loop
         vertex 2.906041e+002 1.493260e+002 3.911791e+001
         vertex 2.917965e+002 1.481261e+002 3.898327e+001
         vertex 2.905547e+002 1.493260e+002 3.883891e+001
      endloop
   endfacet
   facet normal 6.935356e-001 7.076727e-001 -1.349364e-001
      outer loop
         vertex 2.905547e+002 1.493260e+002 3.883891e+001
         vertex 2.917965e+002 1.481261e+002 3.898327e+001
         vertex 2.917155e+002 1.481261e+002 3.852574e+001
      endloop
   endfacet
   facet normal 6.878253e-001 7.071126e-001 -1.639761e-001
      outer loop
         vertex 2.905547e+002 1.493260e+002 3.883891e+001
         vertex 2.917155e+002 1.481261e+002 3.852574e+001
         vertex 2.905493e+002 1.493260e+002 3.880877e+001
      endloop
   endfacet
   facet normal 6.789784e-001 7.077271e-001 -1.952195e-001
      outer loop
         vertex 2.905493e+002 1.493260e+002 3.880877e+001
         vertex 2.917155e+002 1.481261e+002 3.852574e+001
         vertex 2.904563e+002 1.493260e+002 3.850893e+001
      endloop
   endfacet
   facet normal 6.701970e-001 7.077271e-001 -2.235139e-001
      outer loop
         vertex 2.904563e+002 1.493260e+002 3.850893e+001
         vertex 2.917155e+002 1.481261e+002 3.852574e+001
         vertex 2.915778e+002 1.481261e+002 3.808197e+001
      endloop
   endfacet
   facet normal 6.595367e-001 7.071159e-001 -2.549477e-001
      outer loop
         vertex 2.904563e+002 1.493260e+002 3.850893e+001
         vertex 2.915778e+002 1.481261e+002 3.808197e+001
         vertex 2.904404e+002 1.493260e+002 3.847411e+001
      endloop
   endfacet
   facet normal 6.477876e-001 7.076609e-001 -2.821122e-001
      outer loop
         vertex 2.904404e+002 1.493260e+002 3.847411e+001
         vertex 2.915778e+002 1.481261e+002 3.808197e+001
         vertex 2.913855e+002 1.481261e+002 3.765896e+001
      endloop
   endfacet
   facet normal 6.354626e-001 7.075854e-001 -3.090473e-001
      outer loop
         vertex 2.904404e+002 1.493260e+002 3.847411e+001
         vertex 2.913855e+002 1.481261e+002 3.765896e+001
         vertex 2.903264e+002 1.493260e+002 3.822311e+001
      endloop
   endfacet
   facet normal 6.192152e-001 7.071790e-001 -3.412777e-001
      outer loop
         vertex 2.903264e+002 1.493260e+002 3.822311e+001
         vertex 2.913855e+002 1.481261e+002 3.765896e+001
         vertex 2.902701e+002 1.493260e+002 3.813187e+001
      endloop
   endfacet
   facet normal 6.040340e-001 7.075877e-001 -3.666914e-001
      outer loop
         vertex 2.902701e+002 1.493260e+002 3.813187e+001
         vertex 2.913855e+002 1.481261e+002 3.765896e+001
         vertex 2.911417e+002 1.481261e+002 3.726339e+001
      endloop
   endfacet
   facet normal 5.883189e-001 7.073761e-001 -3.917907e-001
      outer loop
         vertex 2.902701e+002 1.493260e+002 3.813187e+001
         vertex 2.911417e+002 1.481261e+002 3.726339e+001
         vertex 2.901617e+002 1.493260e+002 3.795583e+001
      endloop
   endfacet
   facet normal 5.676035e-001 7.073020e-001 -4.213668e-001
      outer loop
         vertex 2.901617e+002 1.493260e+002 3.795583e+001
         vertex 2.911417e+002 1.481261e+002 3.726339e+001
         vertex 2.900512e+002 1.493260e+002 3.781865e+001
      endloop
   endfacet
   facet normal 5.492454e-001 7.075744e-001 -4.445987e-001
      outer loop
         vertex 2.900512e+002 1.493260e+002 3.781865e+001
         vertex 2.911417e+002 1.481261e+002 3.726339e+001
         vertex 2.908503e+002 1.481261e+002 3.690149e+001
      endloop
   endfacet
   facet normal 5.304077e-001 7.072263e-001 -4.674384e-001
      outer loop
         vertex 2.900512e+002 1.493260e+002 3.781865e+001
         vertex 2.908503e+002 1.481261e+002 3.690149e+001
         vertex 2.899648e+002 1.493260e+002 3.771130e+001
      endloop
   endfacet
   facet normal 5.056642e-001 7.074851e-001 -4.937293e-001
      outer loop
         vertex 2.899648e+002 1.493260e+002 3.771130e+001
         vertex 2.908503e+002 1.481261e+002 3.690149e+001
         vertex 2.897883e+002 1.493260e+002 3.754119e+001
      endloop
   endfacet
   facet normal 4.844384e-001 7.076210e-001 -5.143850e-001
      outer loop
         vertex 2.897883e+002 1.493260e+002 3.754119e+001
         vertex 2.908503e+002 1.481261e+002 3.690149e+001
         vertex 2.905158e+002 1.481261e+002 3.657896e+001
      endloop
   endfacet
   facet normal 4.627985e-001 7.071365e-001 -5.345798e-001
      outer loop
         vertex 2.897883e+002 1.493260e+002 3.754119e+001
         vertex 2.905158e+002 1.481261e+002 3.657896e+001
         vertex 2.897387e+002 1.493260e+002 3.749338e+001
      endloop
   endfacet
   facet normal 4.345579e-001 7.077271e-001 -5.570294e-001
      outer loop
         vertex 2.897387e+002 1.493260e+002 3.749338e+001
         vertex 2.905158e+002 1.481261e+002 3.657896e+001
         vertex 2.894872e+002 1.493260e+002 3.730550e+001
      endloop
   endfacet
   facet normal 4.108225e-001 7.077271e-001 -5.747583e-001
      outer loop
         vertex 2.894872e+002 1.493260e+002 3.730550e+001
         vertex 2.905158e+002 1.481261e+002 3.657896e+001
         vertex 2.901436e+002 1.481261e+002 3.630090e+001
      endloop
   endfacet
   facet normal 3.613170e-001 7.077271e-001 -6.071016e-001
      outer loop
         vertex 2.894872e+002 1.493260e+002 3.730550e+001
         vertex 2.901436e+002 1.481261e+002 3.630090e+001
         vertex 2.892141e+002 1.493260e+002 3.715063e+001
      endloop
   endfacet
   facet normal 3.355468e-001 7.077271e-001 -6.217159e-001
      outer loop
         vertex 2.892141e+002 1.493260e+002 3.715063e+001
         vertex 2.901436e+002 1.481261e+002 3.630090e+001
         vertex 2.897394e+002 1.481261e+002 3.607169e+001
      endloop
   endfacet
   facet normal 3.036437e-001 7.071366e-001 -6.385596e-001
      outer loop
         vertex 2.892141e+002 1.493260e+002 3.715063e+001
         vertex 2.897394e+002 1.481261e+002 3.607169e+001
         vertex 2.891504e+002 1.493260e+002 3.712443e+001
      endloop
   endfacet
   facet normal 2.764571e-001 7.076210e-001 -6.502646e-001
      outer loop
         vertex 2.891504e+002 1.493260e+002 3.712443e+001
         vertex 2.897394e+002 1.481261e+002 3.607169e+001
         vertex 2.893097e+002 1.481261e+002 3.589494e+001
      endloop
   endfacet
   facet normal 2.490147e-001 7.074851e-001 -6.614050e-001
      outer loop
         vertex 2.891504e+002 1.493260e+002 3.712443e+001
         vertex 2.893097e+002 1.481261e+002 3.589494e+001
         vertex 2.889238e+002 1.493260e+002 3.703121e+001
      endloop
   endfacet
   facet normal 2.149988e-001 7.072263e-001 -6.735032e-001
      outer loop
         vertex 2.889238e+002 1.493260e+002 3.703121e+001
         vertex 2.893097e+002 1.481261e+002 3.589494e+001
         vertex 2.887908e+002 1.493260e+002 3.699517e+001
      endloop
   endfacet
   facet normal 1.865158e-001 7.075744e-001 -6.815793e-001
      outer loop
         vertex 2.887908e+002 1.493260e+002 3.699517e+001
         vertex 2.893097e+002 1.481261e+002 3.589494e+001
         vertex 2.888611e+002 1.481261e+002 3.577345e+001
      endloop
   endfacet
   facet normal 1.578662e-001 7.073020e-001 -6.890588e-001
      outer loop
         vertex 2.887908e+002 1.493260e+002 3.699517e+001
         vertex 2.888611e+002 1.481261e+002 3.577345e+001
         vertex 2.886207e+002 1.493260e+002 3.694912e+001
      endloop
   endfacet
   facet normal 1.224598e-001 7.073760e-001 -6.961485e-001
      outer loop
         vertex 2.886207e+002 1.493260e+002 3.694912e+001
         vertex 2.888611e+002 1.481261e+002 3.577345e+001
         vertex 2.884160e+002 1.493260e+002 3.692049e+001
      endloop
   endfacet
   facet normal 9.316184e-002 7.075877e-001 -7.004574e-001
      outer loop
         vertex 2.884160e+002 1.493260e+002 3.692049e+001
         vertex 2.888611e+002 1.481261e+002 3.577345e+001
         vertex 2.884010e+002 1.481261e+002 3.570912e+001
      endloop
   endfacet
   facet normal 6.379030e-002 7.071790e-001 -7.041510e-001
      outer loop
         vertex 2.884160e+002 1.493260e+002 3.692049e+001
         vertex 2.884010e+002 1.481261e+002 3.570912e+001
         vertex 2.883098e+002 1.493260e+002 3.690565e+001
      endloop
   endfacet
   facet normal 2.774809e-002 7.075854e-001 -7.060828e-001
      outer loop
         vertex 2.883098e+002 1.493260e+002 3.690565e+001
         vertex 2.884010e+002 1.481261e+002 3.570912e+001
         vertex 2.880341e+002 1.493260e+002 3.690201e+001
      endloop
   endfacet
   facet normal -1.869258e-003 7.076609e-001 -7.065498e-001
      outer loop
         vertex 2.880341e+002 1.493260e+002 3.690201e+001
         vertex 2.884010e+002 1.481261e+002 3.570912e+001
         vertex 2.879364e+002 1.481261e+002 3.570298e+001
      endloop
   endfacet
   facet normal -3.146537e-002 7.071159e-001 -7.063972e-001
      outer loop
         vertex 2.880341e+002 1.493260e+002 3.690201e+001
         vertex 2.879364e+002 1.481261e+002 3.570298e+001
         vertex 2.879959e+002 1.493260e+002 3.690150e+001
      endloop
   endfacet
   facet normal -6.453381e-002 7.077271e-001 -7.035323e-001
      outer loop
         vertex 2.879959e+002 1.493260e+002 3.690150e+001
         vertex 2.879364e+002 1.481261e+002 3.570298e+001
         vertex 2.876839e+002 1.493260e+002 3.693673e+001
      endloop
   endfacet
   facet normal -9.397241e-002 7.077271e-001 -7.002082e-001
      outer loop
         vertex 2.876839e+002 1.493260e+002 3.693673e+001
         vertex 2.879364e+002 1.481261e+002 3.570298e+001
         vertex 2.874747e+002 1.481261e+002 3.575511e+001
      endloop
   endfacet
   facet normal -1.261380e-001 7.071126e-001 -6.957592e-001
      outer loop
         vertex 2.876839e+002 1.493260e+002 3.693673e+001
         vertex 2.874747e+002 1.481261e+002 3.575511e+001
         vertex 2.876542e+002 1.493260e+002 3.694395e+001
      endloop
   endfacet
   facet normal -1.550256e-001 7.076726e-001 -6.893232e-001
      outer loop
         vertex 2.876542e+002 1.493260e+002 3.694395e+001
         vertex 2.874747e+002 1.481261e+002 3.575511e+001
         vertex 2.870231e+002 1.481261e+002 3.586470e+001
      endloop
   endfacet
   facet normal -1.837976e-001 7.076123e-001 -6.822780e-001
      outer loop
         vertex 2.876542e+002 1.493260e+002 3.694395e+001
         vertex 2.870231e+002 1.481261e+002 3.586470e+001
         vertex 2.873788e+002 1.493260e+002 3.701078e+001
      endloop
   endfacet
   facet normal -2.185188e-001 7.071690e-001 -6.724296e-001
      outer loop
         vertex 2.873788e+002 1.493260e+002 3.701078e+001
         vertex 2.870231e+002 1.481261e+002 3.586470e+001
         vertex 2.872858e+002 1.493260e+002 3.704618e+001
      endloop
   endfacet
   facet normal -2.463316e-001 7.075928e-001 -6.622938e-001
      outer loop
         vertex 2.872858e+002 1.493260e+002 3.704618e+001
         vertex 2.870231e+002 1.481261e+002 3.586470e+001
         vertex 2.865889e+002 1.481261e+002 3.603003e+001
      endloop
   endfacet
   facet normal -2.739373e-001 7.073964e-001 -6.515740e-001
      outer loop
         vertex 2.872858e+002 1.493260e+002 3.704618e+001
         vertex 2.865889e+002 1.481261e+002 3.603003e+001
         vertex 2.870854e+002 1.493260e+002 3.712248e+001
      endloop
   endfacet
   facet normal -3.069008e-001 7.072855e-001 -6.368353e-001
      outer loop
         vertex 2.870854e+002 1.493260e+002 3.712248e+001
         vertex 2.865889e+002 1.481261e+002 3.603003e+001
         vertex 2.869367e+002 1.493260e+002 3.720168e+001
      endloop
   endfacet
   facet normal -3.331675e-001 7.075729e-001 -6.231694e-001
      outer loop
         vertex 2.869367e+002 1.493260e+002 3.720168e+001
         vertex 2.865889e+002 1.481261e+002 3.603003e+001
         vertex 2.861788e+002 1.481261e+002 3.624847e+001
      endloop
   endfacet
   facet normal -3.591404e-001 7.072399e-001 -6.089580e-001
      outer loop
         vertex 2.869367e+002 1.493260e+002 3.720168e+001
         vertex 2.861788e+002 1.481261e+002 3.624847e+001
         vertex 2.868083e+002 1.493260e+002 3.727008e+001
      endloop
   endfacet
   facet normal -3.896431e-001 7.074618e-001 -5.896407e-001
      outer loop
         vertex 2.868083e+002 1.493260e+002 3.727008e+001
         vertex 2.861788e+002 1.481261e+002 3.624847e+001
         vertex 2.866144e+002 1.493260e+002 3.740707e+001
      endloop
   endfacet
   facet normal -4.139182e-001 7.076128e-001 -5.726743e-001
      outer loop
         vertex 2.866144e+002 1.493260e+002 3.740707e+001
         vertex 2.861788e+002 1.481261e+002 3.624847e+001
         vertex 2.857993e+002 1.481261e+002 3.651659e+001
      endloop
   endfacet
   facet normal -4.378196e-001 7.071435e-001 -5.552135e-001
      outer loop
         vertex 2.866144e+002 1.493260e+002 3.740707e+001
         vertex 2.857993e+002 1.481261e+002 3.651659e+001
         vertex 2.865519e+002 1.493260e+002 3.745124e+001
      endloop
   endfacet
   facet normal -5.865337e-001 7.076298e-001 -3.940029e-001
      outer loop
         vertex 2.849014e+002 1.481261e+002 3.757322e+001
         vertex 2.860834e+002 1.493260e+002 3.795360e+001
         vertex 2.851555e+002 1.481261e+002 3.718423e+001
      endloop
   endfacet
   facet normal -5.699297e-001 7.071303e-001 -4.185056e-001
      outer loop
         vertex 2.851555e+002 1.481261e+002 3.718423e+001
         vertex 2.860834e+002 1.493260e+002 3.795360e+001
         vertex 2.861169e+002 1.493260e+002 3.790235e+001
      endloop
   endfacet
   facet normal -5.478284e-001 7.077271e-001 -4.461013e-001
      outer loop
         vertex 2.851555e+002 1.481261e+002 3.718423e+001
         vertex 2.861169e+002 1.493260e+002 3.790235e+001
         vertex 2.854564e+002 1.481261e+002 3.683016e+001
      endloop
   endfacet
   facet normal -5.286441e-001 7.077271e-001 -4.686766e-001
      outer loop
         vertex 2.854564e+002 1.481261e+002 3.683016e+001
         vertex 2.861169e+002 1.493260e+002 3.790235e+001
         vertex 2.863203e+002 1.493260e+002 3.766311e+001
      endloop
   endfacet
   facet normal -4.875973e-001 7.077271e-001 -5.112447e-001
      outer loop
         vertex 2.854564e+002 1.481261e+002 3.683016e+001
         vertex 2.863203e+002 1.493260e+002 3.766311e+001
         vertex 2.857993e+002 1.481261e+002 3.651659e+001
      endloop
   endfacet
   facet normal -4.870864e-001 7.077124e-001 -5.117519e-001
      outer loop
         vertex 2.857993e+002 1.481261e+002 3.651659e+001
         vertex 2.863203e+002 1.493260e+002 3.766311e+001
         vertex 2.863259e+002 1.493260e+002 3.765795e+001
      endloop
   endfacet
   facet normal -4.652144e-001 7.076973e-001 -5.317330e-001
      outer loop
         vertex 2.857993e+002 1.481261e+002 3.651659e+001
         vertex 2.863259e+002 1.493260e+002 3.765795e+001
         vertex 2.865519e+002 1.493260e+002 3.745124e+001
      endloop
   endfacet
   facet normal -6.342362e-001 7.075766e-001 -3.115765e-001
      outer loop
         vertex 2.846980e+002 1.481261e+002 3.799099e+001
         vertex 2.858882e+002 1.493260e+002 3.828220e+001
         vertex 2.849014e+002 1.481261e+002 3.757322e+001
      endloop
   endfacet
   facet normal -6.209526e-001 7.072133e-001 -3.380342e-001
      outer loop
         vertex 2.849014e+002 1.481261e+002 3.757322e+001
         vertex 2.858882e+002 1.493260e+002 3.828220e+001
         vertex 2.859452e+002 1.493260e+002 3.816518e+001
      endloop
   endfacet
   facet normal -6.026321e-001 7.075090e-001 -3.691415e-001
      outer loop
         vertex 2.849014e+002 1.481261e+002 3.757322e+001
         vertex 2.859452e+002 1.493260e+002 3.816518e+001
         vertex 2.860834e+002 1.493260e+002 3.795360e+001
      endloop
   endfacet
   facet normal -6.703692e-001 7.075832e-001 -2.234526e-001
      outer loop
         vertex 2.845486e+002 1.481261e+002 3.843097e+001
         vertex 2.857438e+002 1.493260e+002 3.863600e+001
         vertex 2.846980e+002 1.481261e+002 3.799099e+001
      endloop
   endfacet
   facet normal -6.606328e-001 7.073564e-001 -2.514185e-001
      outer loop
         vertex 2.846980e+002 1.481261e+002 3.799099e+001
         vertex 2.857438e+002 1.493260e+002 3.863600e+001
         vertex 2.858078e+002 1.493260e+002 3.844746e+001
      endloop
   endfacet
   facet normal -6.469656e-001 7.073194e-001 -2.848417e-001
      outer loop
         vertex 2.846980e+002 1.481261e+002 3.799099e+001
         vertex 2.858078e+002 1.493260e+002 3.844746e+001
         vertex 2.858882e+002 1.493260e+002 3.828220e+001
      endloop
   endfacet
   facet normal -6.942623e-001 7.076498e-001 -1.312694e-001
      outer loop
         vertex 2.844555e+002 1.481261e+002 3.888619e+001
         vertex 2.856531e+002 1.493260e+002 3.900735e+001
         vertex 2.845486e+002 1.481261e+002 3.843097e+001
      endloop
   endfacet
   facet normal -6.882393e-001 7.075592e-001 -1.602707e-001
      outer loop
         vertex 2.845486e+002 1.481261e+002 3.843097e+001
         vertex 2.856531e+002 1.493260e+002 3.900735e+001
         vertex 2.857068e+002 1.493260e+002 3.874474e+001
      endloop
   endfacet
   facet normal -6.795157e-001 7.071897e-001 -1.952974e-001
      outer loop
         vertex 2.845486e+002 1.481261e+002 3.843097e+001
         vertex 2.857068e+002 1.493260e+002 3.874474e+001
         vertex 2.857438e+002 1.493260e+002 3.863600e+001
      endloop
   endfacet
   facet normal -7.061730e-001 7.076852e-001 2.239225e-002
      outer loop
         vertex 2.844432e+002 1.481261e+002 3.981358e+001
         vertex 2.856212e+002 1.493260e+002 3.938829e+001
         vertex 2.844202e+002 1.481261e+002 3.934950e+001
      endloop
   endfacet
   facet normal -7.070670e-001 7.071101e-001 -7.189394e-003
      outer loop
         vertex 2.844202e+002 1.481261e+002 3.934950e+001
         vertex 2.856212e+002 1.493260e+002 3.938829e+001
         vertex 2.856201e+002 1.493260e+002 3.936537e+001
      endloop
   endfacet
   facet normal -7.054142e-001 7.077271e-001 -3.889806e-002
      outer loop
         vertex 2.844202e+002 1.481261e+002 3.934950e+001
         vertex 2.856201e+002 1.493260e+002 3.936537e+001
         vertex 2.844555e+002 1.481261e+002 3.888619e+001
      endloop
   endfacet
   facet normal -7.031632e-001 7.077271e-001 -6.843808e-002
      outer loop
         vertex 2.844555e+002 1.481261e+002 3.888619e+001
         vertex 2.856201e+002 1.493260e+002 3.936537e+001
         vertex 2.856439e+002 1.493260e+002 3.905232e+001
      endloop
   endfacet
   facet normal -6.996731e-001 7.071200e-001 -1.021710e-001
      outer loop
         vertex 2.844555e+002 1.481261e+002 3.888619e+001
         vertex 2.856439e+002 1.493260e+002 3.905232e+001
         vertex 2.856531e+002 1.493260e+002 3.900735e+001
      endloop
   endfacet
   facet normal -6.968352e-001 7.075988e-001 1.171525e-001
      outer loop
         vertex 2.845243e+002 1.481261e+002 4.027111e+001
         vertex 2.856516e+002 1.493260e+002 3.976938e+001
         vertex 2.844432e+002 1.481261e+002 3.981358e+001
      endloop
   endfacet
   facet normal -7.015647e-001 7.071598e-001 8.793131e-002
      outer loop
         vertex 2.844432e+002 1.481261e+002 3.981358e+001
         vertex 2.856516e+002 1.493260e+002 3.976938e+001
         vertex 2.856357e+002 1.493260e+002 3.967894e+001
      endloop
   endfacet
   facet normal -7.046589e-001 7.076399e-001 5.197644e-002
      outer loop
         vertex 2.844432e+002 1.481261e+002 3.981358e+001
         vertex 2.856357e+002 1.493260e+002 3.967894e+001
         vertex 2.856212e+002 1.493260e+002 3.938829e+001
      endloop
   endfacet
   facet normal -6.747768e-001 7.075721e-001 2.098046e-001
      outer loop
         vertex 2.846620e+002 1.481261e+002 4.071488e+001
         vertex 2.857380e+002 1.493260e+002 4.014166e+001
         vertex 2.845243e+002 1.481261e+002 4.027111e+001
      endloop
   endfacet
   facet normal -6.832640e-001 7.072695e-001 1.814388e-001
      outer loop
         vertex 2.845243e+002 1.481261e+002 4.027111e+001
         vertex 2.857380e+002 1.493260e+002 4.014166e+001
         vertex 2.856904e+002 1.493260e+002 3.998808e+001
      endloop
   endfacet
   facet normal -6.914928e-001 7.074174e-001 1.462815e-001
      outer loop
         vertex 2.845243e+002 1.481261e+002 4.027111e+001
         vertex 2.856904e+002 1.493260e+002 3.998808e+001
         vertex 2.856516e+002 1.493260e+002 3.976938e+001
      endloop
   endfacet
   facet normal -6.404038e-001 7.076054e-001 2.986260e-001
      outer loop
         vertex 2.848542e+002 1.481261e+002 4.113789e+001
         vertex 2.858785e+002 1.493260e+002 4.049709e+001
         vertex 2.846620e+002 1.481261e+002 4.071488e+001
      endloop
   endfacet
   facet normal -6.525069e-001 7.074392e-001 2.715962e-001
      outer loop
         vertex 2.846620e+002 1.481261e+002 4.071488e+001
         vertex 2.858785e+002 1.493260e+002 4.049709e+001
         vertex 2.857834e+002 1.493260e+002 4.028792e+001
      endloop
   endfacet
   facet normal -6.656982e-001 7.072544e-001 2.379858e-001
      outer loop
         vertex 2.846620e+002 1.481261e+002 4.071488e+001
         vertex 2.857834e+002 1.493260e+002 4.028792e+001
         vertex 2.857380e+002 1.493260e+002 4.014166e+001
      endloop
   endfacet
   facet normal -5.943598e-001 7.076985e-001 3.819678e-001
      outer loop
         vertex 2.850980e+002 1.481261e+002 4.153346e+001
         vertex 2.860700e+002 1.493260e+002 4.082799e+001
         vertex 2.848542e+002 1.481261e+002 4.113789e+001
      endloop
   endfacet
   facet normal -6.098753e-001 7.076682e-001 3.567322e-001
      outer loop
         vertex 2.848542e+002 1.481261e+002 4.113789e+001
         vertex 2.860700e+002 1.493260e+002 4.082799e+001
         vertex 2.859134e+002 1.493260e+002 4.057373e+001
      endloop
   endfacet
   facet normal -6.277444e-001 7.071513e-001 3.253829e-001
      outer loop
         vertex 2.848542e+002 1.481261e+002 4.113789e+001
         vertex 2.859134e+002 1.493260e+002 4.057373e+001
         vertex 2.858785e+002 1.493260e+002 4.049709e+001
      endloop
   endfacet
   facet normal -4.974360e-001 7.076395e-001 5.018005e-001
      outer loop
         vertex 2.857239e+002 1.481261e+002 4.221789e+001
         vertex 2.863135e+002 1.493260e+002 4.112272e+001
         vertex 2.853894e+002 1.481261e+002 4.189536e+001
      endloop
   endfacet
   facet normal -5.183823e-001 7.071248e-001 4.808892e-001
      outer loop
         vertex 2.853894e+002 1.481261e+002 4.189536e+001
         vertex 2.863135e+002 1.493260e+002 4.112272e+001
         vertex 2.862750e+002 1.493260e+002 4.108554e+001
      endloop
   endfacet
   facet normal -5.408524e-001 7.077271e-001 4.545338e-001
      outer loop
         vertex 2.853894e+002 1.481261e+002 4.189536e+001
         vertex 2.862750e+002 1.493260e+002 4.108554e+001
         vertex 2.850980e+002 1.481261e+002 4.153346e+001
      endloop
   endfacet
   facet normal -5.594330e-001 7.077271e-001 4.314592e-001
      outer loop
         vertex 2.850980e+002 1.481261e+002 4.153346e+001
         vertex 2.862750e+002 1.493260e+002 4.108554e+001
         vertex 2.860781e+002 1.493260e+002 4.084102e+001
      endloop
   endfacet
   facet normal -5.783355e-001 7.071083e-001 4.068488e-001
      outer loop
         vertex 2.850980e+002 1.481261e+002 4.153346e+001
         vertex 2.860781e+002 1.493260e+002 4.084102e+001
         vertex 2.860700e+002 1.493260e+002 4.082799e+001
      endloop
   endfacet
   facet normal -3.713806e-001 7.073376e-001 6.014566e-001
      outer loop
         vertex 2.869190e+002 1.493260e+002 4.158579e+001
         vertex 2.867525e+002 1.493260e+002 4.149135e+001
         vertex 2.860962e+002 1.481261e+002 4.249595e+001
      endloop
   endfacet
   facet normal -4.016104e-001 7.073376e-001 5.817066e-001
      outer loop
         vertex 2.860962e+002 1.481261e+002 4.249595e+001
         vertex 2.867525e+002 1.493260e+002 4.149135e+001
         vertex 2.865991e+002 1.493260e+002 4.137677e+001
      endloop
   endfacet
   facet normal -4.254782e-001 7.075795e-001 5.641804e-001
      outer loop
         vertex 2.860962e+002 1.481261e+002 4.249595e+001
         vertex 2.865991e+002 1.493260e+002 4.137677e+001
         vertex 2.857239e+002 1.481261e+002 4.221789e+001
      endloop
   endfacet
   facet normal -4.489684e-001 7.072011e-001 5.461630e-001
      outer loop
         vertex 2.857239e+002 1.481261e+002 4.221789e+001
         vertex 2.865991e+002 1.493260e+002 4.137677e+001
         vertex 2.865009e+002 1.493260e+002 4.130347e+001
      endloop
   endfacet
   facet normal -4.760414e-001 7.075337e-001 5.222840e-001
      outer loop
         vertex 2.857239e+002 1.481261e+002 4.221789e+001
         vertex 2.865009e+002 1.493260e+002 4.130347e+001
         vertex 2.863135e+002 1.493260e+002 4.112272e+001
      endloop
   endfacet
endsolid