solid I - G0-1
   facet normal 0.000000e+000 0.000000e+000 1.000000e+000
      outer loop
         vertex 4.307220e+002 7.743012e+001 4.018316e+002
         vertex 4.182220e+002 8.993012e+001 4.018316e+002
         vertex 4.307220e+002 2.743012e+001 4.018316e+002
      endloop
   endfacet
   facet normal 0.000000e+000 0.000000e+000 1.000000e+000
      outer loop
         vertex 4.307220e+002 2.743012e+001 4.018316e+002
         vertex 4.182220e+002 8.993012e+001 4.018316e+002
         vertex 4.182220e+002 1.493012e+001 4.018316e+002
      endloop
   endfacet
   facet normal 0.000000e+000 0.000000e+000 1.000000e+000
      outer loop
         vertex 4.307220e+002 2.743012e+001 4.018316e+002
         vertex 4.182220e+002 1.493012e+001 4.018316e+002
         vertex 4.807220e+002 2.743012e+001 4.018316e+002
      endloop
   endfacet
   facet normal 0.000000e+000 0.000000e+000 1.000000e+000
      outer loop
         vertex 4.807220e+002 2.743012e+001 4.018316e+002
         vertex 4.182220e+002 1.493012e+001 4.018316e+002
         vertex 4.932220e+002 1.493012e+001 4.018316e+002
      endloop
   endfacet
   facet normal 0.000000e+000 0.000000e+000 1.000000e+000
      outer loop
         vertex 4.807220e+002 2.743012e+001 4.018316e+002
         vertex 4.932220e+002 1.493012e+001 4.018316e+002
         vertex 4.807220e+002 7.743012e+001 4.018316e+002
      endloop
   endfacet
   facet normal 0.000000e+000 0.000000e+000 1.000000e+000
      outer loop
         vertex 4.807220e+002 7.743012e+001 4.018316e+002
         vertex 4.932220e+002 1.493012e+001 4.018316e+002
         vertex 4.932220e+002 8.993012e+001 4.018316e+002
      endloop
   endfacet
   facet normal 0.000000e+000 0.000000e+000 1.000000e+000
      outer loop
         vertex 4.807220e+002 7.743012e+001 4.018316e+002
         vertex 4.932220e+002 8.993012e+001 4.018316e+002
         vertex 4.307220e+002 7.743012e+001 4.018316e+002
      endloop
   endfacet
   facet normal 0.000000e+000 0.000000e+000 1.000000e+000
      outer loop
         vertex 4.307220e+002 7.743012e+001 4.018316e+002
         vertex 4.932220e+002 8.993012e+001 4.018316e+002
         vertex 4.182220e+002 8.993012e+001 4.018316e+002
      endloop
   endfacet
   facet normal -1.000000e+000 0.000000e+000 0.000000e+000
      outer loop
         vertex 4.182220e+002 1.493012e+001 4.018316e+002
         vertex 4.182220e+002 8.993012e+001 4.018316e+002
         vertex 4.182220e+002 1.493012e+001 1.018316e+002
      endloop
   endfacet
   facet normal -1.000000e+000 0.000000e+000 0.000000e+000
      outer loop
         vertex 4.182220e+002 1.493012e+001 1.018316e+002
         vertex 4.182220e+002 8.993012e+001 4.018316e+002
         vertex 4.182220e+002 8.993012e+001 1.018316e+002
      endloop
   endfacet
   facet normal 0.000000e+000 -1.000000e+000 0.000000e+000
      outer loop
         vertex 4.932220e+002 1.493012e+001 4.018316e+002
         vertex 4.182220e+002 1.493012e+001 4.018316e+002
         vertex 4.932220e+002 1.493012e+001 1.018316e+002
      endloop
   endfacet
   facet normal 0.000000e+000 -1.000000e+000 0.000000e+000
      outer loop
         vertex 4.932220e+002 1.493012e+001 1.018316e+002
         vertex 4.182220e+002 1.493012e+001 4.018316e+002
         vertex 4.182220e+002 1.493012e+001 1.018316e+002
      endloop
   endfacet
   facet normal 1.000000e+000 0.000000e+000 0.000000e+000
      outer loop
         vertex 4.932220e+002 8.993012e+001 4.018316e+002
         vertex 4.932220e+002 1.493012e+001 4.018316e+002
         vertex 4.932220e+002 8.993012e+001 1.018316e+002
      endloop
   endfacet
   facet normal 1.000000e+000 0.000000e+000 0.000000e+000
      outer loop
         vertex 4.932220e+002 8.993012e+001 1.018316e+002
         vertex 4.932220e+002 1.493012e+001 4.018316e+002
         vertex 4.932220e+002 1.493012e+001 1.018316e+002
      endloop
   endfacet
   facet normal -9.251858e-017 1.000000e+000 0.000000e+000
      outer loop
         vertex 4.182220e+002 8.993012e+001 4.018316e+002
         vertex 4.932220e+002 8.993012e+001 4.018316e+002
         vertex 4.182220e+002 8.993012e+001 1.018316e+002
      endloop
   endfacet
   facet normal -9.251858e-017 1.000000e+000 0.000000e+000
      outer loop
         vertex 4.182220e+002 8.993012e+001 1.018316e+002
         vertex 4.932220e+002 8.993012e+001 4.018316e+002
         vertex 4.932220e+002 8.993012e+001 1.018316e+002
      endloop
   endfacet
   facet normal 0.000000e+000 0.000000e+000 -1.000000e+000
      outer loop
         vertex 4.307220e+002 7.743012e+001 1.018316e+002
         vertex 4.182220e+002 8.993012e+001 1.018316e+002
         vertex 4.932220e+002 8.993012e+001 1.018316e+002
      endloop
   endfacet
   facet normal 0.000000e+000 0.000000e+000 -1.000000e+000
      outer loop
         vertex 4.182220e+002 8.993012e+001 1.018316e+002
         vertex 4.307220e+002 7.743012e+001 1.018316e+002
         vertex 4.182220e+002 1.493012e+001 1.018316e+002
      endloop
   endfacet
   facet normal 0.000000e+000 0.000000e+000 -1.000000e+000
      outer loop
         vertex 4.182220e+002 1.493012e+001 1.018316e+002
         vertex 4.307220e+002 7.743012e+001 1.018316e+002
         vertex 4.307220e+002 2.743012e+001 1.018316e+002
      endloop
   endfacet
   facet normal 0.000000e+000 0.000000e+000 -1.000000e+000
      outer loop
         vertex 4.182220e+002 1.493012e+001 1.018316e+002
         vertex 4.307220e+002 2.743012e+001 1.018316e+002
         vertex 4.932220e+002 1.493012e+001 1.018316e+002
      endloop
   endfacet
   facet normal 0.000000e+000 0.000000e+000 -1.000000e+000
      outer loop
         vertex 4.932220e+002 1.493012e+001 1.018316e+002
         vertex 4.307220e+002 2.743012e+001 1.018316e+002
         vertex 4.807220e+002 2.743012e+001 1.018316e+002
      endloop
   endfacet
   facet normal 0.000000e+000 0.000000e+000 -1.000000e+000
      outer loop
         vertex 4.932220e+002 1.493012e+001 1.018316e+002
         vertex 4.807220e+002 2.743012e+001 1.018316e+002
         vertex 4.932220e+002 8.993012e+001 1.018316e+002
      endloop
   endfacet
   facet normal 0.000000e+000 0.000000e+000 -1.000000e+000
      outer loop
         vertex 4.932220e+002 8.993012e+001 1.018316e+002
         vertex 4.807220e+002 2.743012e+001 1.018316e+002
         vertex 4.807220e+002 7.743012e+001 1.018316e+002
      endloop
   endfacet
   facet normal 0.000000e+000 0.000000e+000 -1.000000e+000
      outer loop
         vertex 4.932220e+002 8.993012e+001 1.018316e+002
         vertex 4.807220e+002 7.743012e+001 1.018316e+002
         vertex 4.307220e+002 7.743012e+001 1.018316e+002
      endloop
   endfacet
   facet normal -1.000000e+000 0.000000e+000 0.000000e+000
      outer loop
         vertex 4.307220e+002 2.743012e+001 4.218316e+002
         vertex 4.307220e+002 7.743012e+001 4.218316e+002
         vertex 4.307220e+002 2.743012e+001 4.018316e+002
      endloop
   endfacet
   facet normal -1.000000e+000 0.000000e+000 0.000000e+000
      outer loop
         vertex 4.307220e+002 2.743012e+001 4.018316e+002
         vertex 4.307220e+002 7.743012e+001 4.218316e+002
         vertex 4.307220e+002 7.743012e+001 4.018316e+002
      endloop
   endfacet
   facet normal 1.387779e-016 -1.000000e+000 0.000000e+000
      outer loop
         vertex 4.807220e+002 2.743012e+001 4.218316e+002
         vertex 4.307220e+002 2.743012e+001 4.218316e+002
         vertex 4.807220e+002 2.743012e+001 4.018316e+002
      endloop
   endfacet
   facet normal 1.387779e-016 -1.000000e+000 0.000000e+000
      outer loop
         vertex 4.807220e+002 2.743012e+001 4.018316e+002
         vertex 4.307220e+002 2.743012e+001 4.218316e+002
         vertex 4.307220e+002 2.743012e+001 4.018316e+002
      endloop
   endfacet
   facet normal 1.000000e+000 0.000000e+000 0.000000e+000
      outer loop
         vertex 4.807220e+002 7.743012e+001 4.218316e+002
         vertex 4.807220e+002 2.743012e+001 4.218316e+002
         vertex 4.807220e+002 7.743012e+001 4.018316e+002
      endloop
   endfacet
   facet normal 1.000000e+000 0.000000e+000 0.000000e+000
      outer loop
         vertex 4.807220e+002 7.743012e+001 4.018316e+002
         vertex 4.807220e+002 2.743012e+001 4.218316e+002
         vertex 4.807220e+002 2.743012e+001 4.018316e+002
      endloop
   endfacet
   facet normal -1.387779e-016 1.000000e+000 0.000000e+000
      outer loop
         vertex 4.307220e+002 7.743012e+001 4.218316e+002
         vertex 4.807220e+002 7.743012e+001 4.218316e+002
         vertex 4.307220e+002 7.743012e+001 4.018316e+002
      endloop
   endfacet
   facet normal -1.387779e-016 1.000000e+000 0.000000e+000
      outer loop
         vertex 4.307220e+002 7.743012e+001 4.018316e+002
         vertex 4.807220e+002 7.743012e+001 4.218316e+002
         vertex 4.807220e+002 7.743012e+001 4.018316e+002
      endloop
   endfacet
   facet normal 0.000000e+000 0.000000e+000 1.000000e+000
      outer loop
         vertex 4.807220e+002 2.743012e+001 4.218316e+002
         vertex 4.807220e+002 7.743012e+001 4.218316e+002
         vertex 4.307220e+002 2.743012e+001 4.218316e+002
      endloop
   endfacet
   facet normal 0.000000e+000 0.000000e+000 1.000000e+000
      outer loop
         vertex 4.307220e+002 2.743012e+001 4.218316e+002
         vertex 4.807220e+002 7.743012e+001 4.218316e+002
         vertex 4.307220e+002 7.743012e+001 4.218316e+002
      endloop
   endfacet
   facet normal -1.000000e+000 0.000000e+000 0.000000e+000
      outer loop
         vertex 4.307220e+002 7.743012e+001 8.183157e+001
         vertex 4.307220e+002 2.743012e+001 8.183157e+001
         vertex 4.307220e+002 7.743012e+001 1.018316e+002
      endloop
   endfacet
   facet normal -1.000000e+000 0.000000e+000 0.000000e+000
      outer loop
         vertex 4.307220e+002 7.743012e+001 1.018316e+002
         vertex 4.307220e+002 2.743012e+001 8.183157e+001
         vertex 4.307220e+002 2.743012e+001 1.018316e+002
      endloop
   endfacet
   facet normal -1.387779e-016 1.000000e+000 0.000000e+000
      outer loop
         vertex 4.807220e+002 7.743012e+001 8.183157e+001
         vertex 4.307220e+002 7.743012e+001 8.183157e+001
         vertex 4.807220e+002 7.743012e+001 1.018316e+002
      endloop
   endfacet
   facet normal -1.387779e-016 1.000000e+000 0.000000e+000
      outer loop
         vertex 4.807220e+002 7.743012e+001 1.018316e+002
         vertex 4.307220e+002 7.743012e+001 8.183157e+001
         vertex 4.307220e+002 7.743012e+001 1.018316e+002
      endloop
   endfacet
   facet normal 1.000000e+000 0.000000e+000 0.000000e+000
      outer loop
         vertex 4.807220e+002 2.743012e+001 8.183157e+001
         vertex 4.807220e+002 7.743012e+001 8.183157e+001
         vertex 4.807220e+002 2.743012e+001 1.018316e+002
      endloop
   endfacet
   facet normal 1.000000e+000 0.000000e+000 0.000000e+000
      outer loop
         vertex 4.807220e+002 2.743012e+001 1.018316e+002
         vertex 4.807220e+002 7.743012e+001 8.183157e+001
         vertex 4.807220e+002 7.743012e+001 1.018316e+002
      endloop
   endfacet
   facet normal 1.387779e-016 -1.000000e+000 0.000000e+000
      outer loop
         vertex 4.307220e+002 2.743012e+001 8.183157e+001
         vertex 4.807220e+002 2.743012e+001 8.183157e+001
         vertex 4.307220e+002 2.743012e+001 1.018316e+002
      endloop
   endfacet
   facet normal 1.387779e-016 -1.000000e+000 0.000000e+000
      outer loop
         vertex 4.307220e+002 2.743012e+001 1.018316e+002
         vertex 4.807220e+002 2.743012e+001 8.183157e+001
         vertex 4.807220e+002 2.743012e+001 1.018316e+002
      endloop
   endfacet
   facet normal 0.000000e+000 0.000000e+000 -1.000000e+000
      outer loop
         vertex 4.807220e+002 7.743012e+001 8.183157e+001
         vertex 4.807220e+002 2.743012e+001 8.183157e+001
         vertex 4.307220e+002 7.743012e+001 8.183157e+001
      endloop
   endfacet
   facet normal 0.000000e+000 0.000000e+000 -1.000000e+000
      outer loop
         vertex 4.307220e+002 7.743012e+001 8.183157e+001
         vertex 4.807220e+002 2.743012e+001 8.183157e+001
         vertex 4.307220e+002 2.743012e+001 8.183157e+001
      endloop
   endfacet
endsolid