solid I - IFJ0-1
   facet normal 0.000000e+000 1.000000e+000 0.000000e+000
      outer loop
         vertex 4.807220e+002 4.274301e+002 7.683158e+001
         vertex 5.057220e+002 4.274301e+002 7.683158e+001
         vertex 4.807220e+002 4.274301e+002 2.683158e+001
      endloop
   endfacet
   facet normal 0.000000e+000 1.000000e+000 0.000000e+000
      outer loop
         vertex 4.807220e+002 4.274301e+002 2.683158e+001
         vertex 5.057220e+002 4.274301e+002 7.683158e+001
         vertex 5.057220e+002 4.274301e+002 2.683158e+001
      endloop
   endfacet
   facet normal 0.000000e+000 1.000000e+000 0.000000e+000
      outer loop
         vertex 4.307220e+002 4.274301e+002 7.683158e+001
         vertex 4.307220e+002 4.274301e+002 1.018316e+002
         vertex 4.807220e+002 4.274301e+002 7.683158e+001
      endloop
   endfacet
   facet normal 0.000000e+000 1.000000e+000 0.000000e+000
      outer loop
         vertex 4.807220e+002 4.274301e+002 7.683158e+001
         vertex 4.307220e+002 4.274301e+002 1.018316e+002
         vertex 4.807220e+002 4.274301e+002 1.018316e+002
      endloop
   endfacet
   facet normal 0.000000e+000 1.000000e+000 0.000000e+000
      outer loop
         vertex 4.307220e+002 4.274301e+002 2.683158e+001
         vertex 4.057220e+002 4.274301e+002 2.683158e+001
         vertex 4.307220e+002 4.274301e+002 7.683158e+001
      endloop
   endfacet
   facet normal 0.000000e+000 1.000000e+000 0.000000e+000
      outer loop
         vertex 4.307220e+002 4.274301e+002 7.683158e+001
         vertex 4.057220e+002 4.274301e+002 2.683158e+001
         vertex 4.057220e+002 4.274301e+002 7.683158e+001
      endloop
   endfacet
   facet normal 0.000000e+000 -1.000000e+000 0.000000e+000
      outer loop
         vertex 4.807220e+002 4.774301e+002 2.683158e+001
         vertex 5.057220e+002 4.774301e+002 2.683158e+001
         vertex 4.807220e+002 4.774301e+002 7.683158e+001
      endloop
   endfacet
   facet normal 0.000000e+000 -1.000000e+000 0.000000e+000
      outer loop
         vertex 4.807220e+002 4.774301e+002 7.683158e+001
         vertex 5.057220e+002 4.774301e+002 2.683158e+001
         vertex 5.057220e+002 4.774301e+002 7.683158e+001
      endloop
   endfacet
   facet normal 0.000000e+000 -1.000000e+000 0.000000e+000
      outer loop
         vertex 4.807220e+002 4.774301e+002 7.683158e+001
         vertex 4.807220e+002 4.774301e+002 1.018316e+002
         vertex 4.307220e+002 4.774301e+002 7.683158e+001
      endloop
   endfacet
   facet normal 0.000000e+000 -1.000000e+000 0.000000e+000
      outer loop
         vertex 4.307220e+002 4.774301e+002 7.683158e+001
         vertex 4.807220e+002 4.774301e+002 1.018316e+002
         vertex 4.307220e+002 4.774301e+002 1.018316e+002
      endloop
   endfacet
   facet normal 0.000000e+000 -1.000000e+000 0.000000e+000
      outer loop
         vertex 4.307220e+002 4.774301e+002 7.683158e+001
         vertex 4.057220e+002 4.774301e+002 7.683158e+001
         vertex 4.307220e+002 4.774301e+002 2.683158e+001
      endloop
   endfacet
   facet normal 0.000000e+000 -1.000000e+000 0.000000e+000
      outer loop
         vertex 4.307220e+002 4.774301e+002 2.683158e+001
         vertex 4.057220e+002 4.774301e+002 7.683158e+001
         vertex 4.057220e+002 4.774301e+002 2.683158e+001
      endloop
   endfacet
   facet normal -1.000000e+000 0.000000e+000 0.000000e+000
      outer loop
         vertex 4.807220e+002 4.774301e+002 2.683158e+001
         vertex 4.807220e+002 4.774301e+002 1.831579e+000
         vertex 4.807220e+002 4.274301e+002 2.683158e+001
      endloop
   endfacet
   facet normal -1.000000e+000 0.000000e+000 0.000000e+000
      outer loop
         vertex 4.807220e+002 4.274301e+002 2.683158e+001
         vertex 4.807220e+002 4.774301e+002 1.831579e+000
         vertex 4.807220e+002 4.274301e+002 1.831579e+000
      endloop
   endfacet
   facet normal 1.000000e+000 0.000000e+000 0.000000e+000
      outer loop
         vertex 4.307220e+002 4.274301e+002 2.683158e+001
         vertex 4.307220e+002 4.274301e+002 1.831579e+000
         vertex 4.307220e+002 4.774301e+002 2.683158e+001
      endloop
   endfacet
   facet normal 1.000000e+000 0.000000e+000 0.000000e+000
      outer loop
         vertex 4.307220e+002 4.774301e+002 2.683158e+001
         vertex 4.307220e+002 4.274301e+002 1.831579e+000
         vertex 4.307220e+002 4.774301e+002 1.831579e+000
      endloop
   endfacet
   facet normal 1.000000e+000 0.000000e+000 0.000000e+000
      outer loop
         vertex 5.057220e+002 4.774301e+002 2.683158e+001
         vertex 5.057220e+002 5.024301e+002 1.831579e+000
         vertex 5.057220e+002 5.024301e+002 1.018316e+002
      endloop
   endfacet
   facet normal 1.000000e+000 0.000000e+000 0.000000e+000
      outer loop
         vertex 5.057220e+002 5.024301e+002 1.831579e+000
         vertex 5.057220e+002 4.774301e+002 2.683158e+001
         vertex 5.057220e+002 4.024301e+002 1.831579e+000
      endloop
   endfacet
   facet normal 1.000000e+000 0.000000e+000 0.000000e+000
      outer loop
         vertex 5.057220e+002 4.024301e+002 1.831579e+000
         vertex 5.057220e+002 4.774301e+002 2.683158e+001
         vertex 5.057220e+002 4.274301e+002 2.683158e+001
      endloop
   endfacet
   facet normal 1.000000e+000 0.000000e+000 0.000000e+000
      outer loop
         vertex 5.057220e+002 4.024301e+002 1.831579e+000
         vertex 5.057220e+002 4.274301e+002 2.683158e+001
         vertex 5.057220e+002 4.024301e+002 1.018316e+002
      endloop
   endfacet
   facet normal 1.000000e+000 0.000000e+000 0.000000e+000
      outer loop
         vertex 5.057220e+002 4.024301e+002 1.018316e+002
         vertex 5.057220e+002 4.274301e+002 2.683158e+001
         vertex 5.057220e+002 4.274301e+002 7.683158e+001
      endloop
   endfacet
   facet normal 1.000000e+000 0.000000e+000 0.000000e+000
      outer loop
         vertex 5.057220e+002 4.024301e+002 1.018316e+002
         vertex 5.057220e+002 4.274301e+002 7.683158e+001
         vertex 5.057220e+002 5.024301e+002 1.018316e+002
      endloop
   endfacet
   facet normal 1.000000e+000 0.000000e+000 0.000000e+000
      outer loop
         vertex 5.057220e+002 5.024301e+002 1.018316e+002
         vertex 5.057220e+002 4.274301e+002 7.683158e+001
         vertex 5.057220e+002 4.774301e+002 7.683158e+001
      endloop
   endfacet
   facet normal 1.000000e+000 0.000000e+000 0.000000e+000
      outer loop
         vertex 5.057220e+002 5.024301e+002 1.018316e+002
         vertex 5.057220e+002 4.774301e+002 7.683158e+001
         vertex 5.057220e+002 4.774301e+002 2.683158e+001
      endloop
   endfacet
   facet normal 0.000000e+000 1.000000e+000 0.000000e+000
      outer loop
         vertex 4.307220e+002 5.024301e+002 2.683158e+001
         vertex 4.057220e+002 5.024301e+002 1.831579e+000
         vertex 4.307220e+002 5.024301e+002 7.683158e+001
      endloop
   endfacet
   facet normal 0.000000e+000 1.000000e+000 0.000000e+000
      outer loop
         vertex 4.307220e+002 5.024301e+002 7.683158e+001
         vertex 4.057220e+002 5.024301e+002 1.831579e+000
         vertex 4.057220e+002 5.024301e+002 1.018316e+002
      endloop
   endfacet
   facet normal 0.000000e+000 1.000000e+000 0.000000e+000
      outer loop
         vertex 4.307220e+002 5.024301e+002 7.683158e+001
         vertex 4.057220e+002 5.024301e+002 1.018316e+002
         vertex 4.807220e+002 5.024301e+002 7.683158e+001
      endloop
   endfacet
   facet normal 0.000000e+000 1.000000e+000 0.000000e+000
      outer loop
         vertex 4.807220e+002 5.024301e+002 7.683158e+001
         vertex 4.057220e+002 5.024301e+002 1.018316e+002
         vertex 5.057220e+002 5.024301e+002 1.018316e+002
      endloop
   endfacet
   facet normal 0.000000e+000 1.000000e+000 0.000000e+000
      outer loop
         vertex 4.807220e+002 5.024301e+002 7.683158e+001
         vertex 5.057220e+002 5.024301e+002 1.018316e+002
         vertex 4.807220e+002 5.024301e+002 2.683158e+001
      endloop
   endfacet
   facet normal 0.000000e+000 1.000000e+000 0.000000e+000
      outer loop
         vertex 4.807220e+002 5.024301e+002 2.683158e+001
         vertex 5.057220e+002 5.024301e+002 1.018316e+002
         vertex 5.057220e+002 5.024301e+002 1.831579e+000
      endloop
   endfacet
   facet normal 0.000000e+000 1.000000e+000 0.000000e+000
      outer loop
         vertex 4.807220e+002 5.024301e+002 2.683158e+001
         vertex 5.057220e+002 5.024301e+002 1.831579e+000
         vertex 4.307220e+002 5.024301e+002 2.683158e+001
      endloop
   endfacet
   facet normal 0.000000e+000 1.000000e+000 0.000000e+000
      outer loop
         vertex 4.307220e+002 5.024301e+002 2.683158e+001
         vertex 5.057220e+002 5.024301e+002 1.831579e+000
         vertex 4.057220e+002 5.024301e+002 1.831579e+000
      endloop
   endfacet
   facet normal -1.000000e+000 0.000000e+000 0.000000e+000
      outer loop
         vertex 4.057220e+002 4.774301e+002 7.683158e+001
         vertex 4.057220e+002 5.024301e+002 1.018316e+002
         vertex 4.057220e+002 4.774301e+002 2.683158e+001
      endloop
   endfacet
   facet normal -1.000000e+000 0.000000e+000 0.000000e+000
      outer loop
         vertex 4.057220e+002 4.774301e+002 2.683158e+001
         vertex 4.057220e+002 5.024301e+002 1.018316e+002
         vertex 4.057220e+002 5.024301e+002 1.831579e+000
      endloop
   endfacet
   facet normal -1.000000e+000 0.000000e+000 0.000000e+000
      outer loop
         vertex 4.057220e+002 4.774301e+002 2.683158e+001
         vertex 4.057220e+002 5.024301e+002 1.831579e+000
         vertex 4.057220e+002 4.274301e+002 2.683158e+001
      endloop
   endfacet
   facet normal -1.000000e+000 0.000000e+000 0.000000e+000
      outer loop
         vertex 4.057220e+002 4.274301e+002 2.683158e+001
         vertex 4.057220e+002 5.024301e+002 1.831579e+000
         vertex 4.057220e+002 4.024301e+002 1.831579e+000
      endloop
   endfacet
   facet normal -1.000000e+000 0.000000e+000 0.000000e+000
      outer loop
         vertex 4.057220e+002 4.274301e+002 2.683158e+001
         vertex 4.057220e+002 4.024301e+002 1.831579e+000
         vertex 4.057220e+002 4.274301e+002 7.683158e+001
      endloop
   endfacet
   facet normal -1.000000e+000 0.000000e+000 0.000000e+000
      outer loop
         vertex 4.057220e+002 4.274301e+002 7.683158e+001
         vertex 4.057220e+002 4.024301e+002 1.831579e+000
         vertex 4.057220e+002 4.024301e+002 1.018316e+002
      endloop
   endfacet
   facet normal -1.000000e+000 0.000000e+000 0.000000e+000
      outer loop
         vertex 4.057220e+002 4.274301e+002 7.683158e+001
         vertex 4.057220e+002 4.024301e+002 1.018316e+002
         vertex 4.057220e+002 4.774301e+002 7.683158e+001
      endloop
   endfacet
   facet normal -1.000000e+000 0.000000e+000 0.000000e+000
      outer loop
         vertex 4.057220e+002 4.774301e+002 7.683158e+001
         vertex 4.057220e+002 4.024301e+002 1.018316e+002
         vertex 4.057220e+002 5.024301e+002 1.018316e+002
      endloop
   endfacet
   facet normal 0.000000e+000 -1.000000e+000 0.000000e+000
      outer loop
         vertex 4.307220e+002 4.024301e+002 7.683158e+001
         vertex 4.057220e+002 4.024301e+002 1.018316e+002
         vertex 4.307220e+002 4.024301e+002 2.683158e+001
      endloop
   endfacet
   facet normal 0.000000e+000 -1.000000e+000 0.000000e+000
      outer loop
         vertex 4.307220e+002 4.024301e+002 2.683158e+001
         vertex 4.057220e+002 4.024301e+002 1.018316e+002
         vertex 4.057220e+002 4.024301e+002 1.831579e+000
      endloop
   endfacet
   facet normal 0.000000e+000 -1.000000e+000 0.000000e+000
      outer loop
         vertex 4.307220e+002 4.024301e+002 2.683158e+001
         vertex 4.057220e+002 4.024301e+002 1.831579e+000
         vertex 4.807220e+002 4.024301e+002 2.683158e+001
      endloop
   endfacet
   facet normal 0.000000e+000 -1.000000e+000 0.000000e+000
      outer loop
         vertex 4.807220e+002 4.024301e+002 2.683158e+001
         vertex 4.057220e+002 4.024301e+002 1.831579e+000
         vertex 5.057220e+002 4.024301e+002 1.831579e+000
      endloop
   endfacet
   facet normal 0.000000e+000 -1.000000e+000 0.000000e+000
      outer loop
         vertex 4.807220e+002 4.024301e+002 2.683158e+001
         vertex 5.057220e+002 4.024301e+002 1.831579e+000
         vertex 4.807220e+002 4.024301e+002 7.683158e+001
      endloop
   endfacet
   facet normal 0.000000e+000 -1.000000e+000 0.000000e+000
      outer loop
         vertex 4.807220e+002 4.024301e+002 7.683158e+001
         vertex 5.057220e+002 4.024301e+002 1.831579e+000
         vertex 5.057220e+002 4.024301e+002 1.018316e+002
      endloop
   endfacet
   facet normal 0.000000e+000 -1.000000e+000 0.000000e+000
      outer loop
         vertex 4.807220e+002 4.024301e+002 7.683158e+001
         vertex 5.057220e+002 4.024301e+002 1.018316e+002
         vertex 4.307220e+002 4.024301e+002 7.683158e+001
      endloop
   endfacet
   facet normal 0.000000e+000 -1.000000e+000 0.000000e+000
      outer loop
         vertex 4.307220e+002 4.024301e+002 7.683158e+001
         vertex 5.057220e+002 4.024301e+002 1.018316e+002
         vertex 4.057220e+002 4.024301e+002 1.018316e+002
      endloop
   endfacet
   facet normal 0.000000e+000 0.000000e+000 1.000000e+000
      outer loop
         vertex 4.807220e+002 4.774301e+002 1.018316e+002
         vertex 5.057220e+002 5.024301e+002 1.018316e+002
         vertex 4.057220e+002 5.024301e+002 1.018316e+002
      endloop
   endfacet
   facet normal 0.000000e+000 0.000000e+000 1.000000e+000
      outer loop
         vertex 5.057220e+002 5.024301e+002 1.018316e+002
         vertex 4.807220e+002 4.774301e+002 1.018316e+002
         vertex 5.057220e+002 4.024301e+002 1.018316e+002
      endloop
   endfacet
   facet normal 0.000000e+000 0.000000e+000 1.000000e+000
      outer loop
         vertex 5.057220e+002 4.024301e+002 1.018316e+002
         vertex 4.807220e+002 4.774301e+002 1.018316e+002
         vertex 4.807220e+002 4.274301e+002 1.018316e+002
      endloop
   endfacet
   facet normal 0.000000e+000 0.000000e+000 1.000000e+000
      outer loop
         vertex 5.057220e+002 4.024301e+002 1.018316e+002
         vertex 4.807220e+002 4.274301e+002 1.018316e+002
         vertex 4.057220e+002 4.024301e+002 1.018316e+002
      endloop
   endfacet
   facet normal 0.000000e+000 0.000000e+000 1.000000e+000
      outer loop
         vertex 4.057220e+002 4.024301e+002 1.018316e+002
         vertex 4.807220e+002 4.274301e+002 1.018316e+002
         vertex 4.307220e+002 4.274301e+002 1.018316e+002
      endloop
   endfacet
   facet normal 0.000000e+000 0.000000e+000 1.000000e+000
      outer loop
         vertex 4.057220e+002 4.024301e+002 1.018316e+002
         vertex 4.307220e+002 4.274301e+002 1.018316e+002
         vertex 4.057220e+002 5.024301e+002 1.018316e+002
      endloop
   endfacet
   facet normal 0.000000e+000 0.000000e+000 1.000000e+000
      outer loop
         vertex 4.057220e+002 5.024301e+002 1.018316e+002
         vertex 4.307220e+002 4.274301e+002 1.018316e+002
         vertex 4.307220e+002 4.774301e+002 1.018316e+002
      endloop
   endfacet
   facet normal 0.000000e+000 0.000000e+000 1.000000e+000
      outer loop
         vertex 4.057220e+002 5.024301e+002 1.018316e+002
         vertex 4.307220e+002 4.774301e+002 1.018316e+002
         vertex 4.807220e+002 4.774301e+002 1.018316e+002
      endloop
   endfacet
   facet normal 0.000000e+000 0.000000e+000 -1.000000e+000
      outer loop
         vertex 4.807220e+002 4.274301e+002 1.831579e+000
         vertex 5.057220e+002 4.024301e+002 1.831579e+000
         vertex 4.307220e+002 4.274301e+002 1.831579e+000
      endloop
   endfacet
   facet normal 0.000000e+000 0.000000e+000 -1.000000e+000
      outer loop
         vertex 4.307220e+002 4.274301e+002 1.831579e+000
         vertex 5.057220e+002 4.024301e+002 1.831579e+000
         vertex 4.057220e+002 4.024301e+002 1.831579e+000
      endloop
   endfacet
   facet normal 0.000000e+000 0.000000e+000 -1.000000e+000
      outer loop
         vertex 4.307220e+002 4.274301e+002 1.831579e+000
         vertex 4.057220e+002 4.024301e+002 1.831579e+000
         vertex 4.307220e+002 4.774301e+002 1.831579e+000
      endloop
   endfacet
   facet normal 0.000000e+000 0.000000e+000 -1.000000e+000
      outer loop
         vertex 4.307220e+002 4.774301e+002 1.831579e+000
         vertex 4.057220e+002 4.024301e+002 1.831579e+000
         vertex 4.057220e+002 5.024301e+002 1.831579e+000
      endloop
   endfacet
   facet normal 0.000000e+000 0.000000e+000 -1.000000e+000
      outer loop
         vertex 4.307220e+002 4.774301e+002 1.831579e+000
         vertex 4.057220e+002 5.024301e+002 1.831579e+000
         vertex 4.807220e+002 4.774301e+002 1.831579e+000
      endloop
   endfacet
   facet normal 0.000000e+000 0.000000e+000 -1.000000e+000
      outer loop
         vertex 4.807220e+002 4.774301e+002 1.831579e+000
         vertex 4.057220e+002 5.024301e+002 1.831579e+000
         vertex 5.057220e+002 5.024301e+002 1.831579e+000
      endloop
   endfacet
   facet normal 0.000000e+000 0.000000e+000 -1.000000e+000
      outer loop
         vertex 4.807220e+002 4.774301e+002 1.831579e+000
         vertex 5.057220e+002 5.024301e+002 1.831579e+000
         vertex 4.807220e+002 4.274301e+002 1.831579e+000
      endloop
   endfacet
   facet normal 0.000000e+000 0.000000e+000 -1.000000e+000
      outer loop
         vertex 4.807220e+002 4.274301e+002 1.831579e+000
         vertex 5.057220e+002 5.024301e+002 1.831579e+000
         vertex 5.057220e+002 4.024301e+002 1.831579e+000
      endloop
   endfacet
   facet normal -1.000000e+000 0.000000e+000 0.000000e+000
      outer loop
         vertex 4.807220e+002 4.274301e+002 7.683158e+001
         vertex 4.807220e+002 4.274301e+002 1.018316e+002
         vertex 4.807220e+002 4.774301e+002 7.683158e+001
      endloop
   endfacet
   facet normal -1.000000e+000 0.000000e+000 0.000000e+000
      outer loop
         vertex 4.807220e+002 4.774301e+002 7.683158e+001
         vertex 4.807220e+002 4.274301e+002 1.018316e+002
         vertex 4.807220e+002 4.774301e+002 1.018316e+002
      endloop
   endfacet
   facet normal 0.000000e+000 1.000000e+000 0.000000e+000
      outer loop
         vertex 4.807220e+002 4.274301e+002 2.683158e+001
         vertex 4.807220e+002 4.274301e+002 1.831579e+000
         vertex 4.307220e+002 4.274301e+002 2.683158e+001
      endloop
   endfacet
   facet normal 0.000000e+000 1.000000e+000 0.000000e+000
      outer loop
         vertex 4.307220e+002 4.274301e+002 2.683158e+001
         vertex 4.807220e+002 4.274301e+002 1.831579e+000
         vertex 4.307220e+002 4.274301e+002 1.831579e+000
      endloop
   endfacet
   facet normal 1.000000e+000 0.000000e+000 0.000000e+000
      outer loop
         vertex 4.307220e+002 4.774301e+002 7.683158e+001
         vertex 4.307220e+002 4.774301e+002 1.018316e+002
         vertex 4.307220e+002 4.274301e+002 7.683158e+001
      endloop
   endfacet
   facet normal 1.000000e+000 0.000000e+000 0.000000e+000
      outer loop
         vertex 4.307220e+002 4.274301e+002 7.683158e+001
         vertex 4.307220e+002 4.774301e+002 1.018316e+002
         vertex 4.307220e+002 4.274301e+002 1.018316e+002
      endloop
   endfacet
   facet normal 0.000000e+000 -1.000000e+000 0.000000e+000
      outer loop
         vertex 4.307220e+002 4.774301e+002 2.683158e+001
         vertex 4.307220e+002 4.774301e+002 1.831579e+000
         vertex 4.807220e+002 4.774301e+002 2.683158e+001
      endloop
   endfacet
   facet normal 0.000000e+000 -1.000000e+000 0.000000e+000
      outer loop
         vertex 4.807220e+002 4.774301e+002 2.683158e+001
         vertex 4.307220e+002 4.774301e+002 1.831579e+000
         vertex 4.807220e+002 4.774301e+002 1.831579e+000
      endloop
   endfacet
   facet normal 0.000000e+000 -1.387779e-016 -1.000000e+000
      outer loop
         vertex 4.057220e+002 4.774301e+002 7.683158e+001
         vertex 4.307220e+002 4.774301e+002 7.683158e+001
         vertex 4.057220e+002 4.274301e+002 7.683158e+001
      endloop
   endfacet
   facet normal 0.000000e+000 -1.387779e-016 -1.000000e+000
      outer loop
         vertex 4.057220e+002 4.274301e+002 7.683158e+001
         vertex 4.307220e+002 4.774301e+002 7.683158e+001
         vertex 4.307220e+002 4.274301e+002 7.683158e+001
      endloop
   endfacet
   facet normal 0.000000e+000 1.387779e-016 1.000000e+000
      outer loop
         vertex 4.057220e+002 4.274301e+002 2.683158e+001
         vertex 4.307220e+002 4.274301e+002 2.683158e+001
         vertex 4.057220e+002 4.774301e+002 2.683158e+001
      endloop
   endfacet
   facet normal 0.000000e+000 1.387779e-016 1.000000e+000
      outer loop
         vertex 4.057220e+002 4.774301e+002 2.683158e+001
         vertex 4.307220e+002 4.274301e+002 2.683158e+001
         vertex 4.307220e+002 4.774301e+002 2.683158e+001
      endloop
   endfacet
   facet normal 0.000000e+000 1.387779e-016 1.000000e+000
      outer loop
         vertex 5.057220e+002 4.774301e+002 2.683158e+001
         vertex 4.807220e+002 4.774301e+002 2.683158e+001
         vertex 5.057220e+002 4.274301e+002 2.683158e+001
      endloop
   endfacet
   facet normal 0.000000e+000 1.387779e-016 1.000000e+000
      outer loop
         vertex 5.057220e+002 4.274301e+002 2.683158e+001
         vertex 4.807220e+002 4.774301e+002 2.683158e+001
         vertex 4.807220e+002 4.274301e+002 2.683158e+001
      endloop
   endfacet
   facet normal 0.000000e+000 -1.387779e-016 -1.000000e+000
      outer loop
         vertex 5.057220e+002 4.274301e+002 7.683158e+001
         vertex 4.807220e+002 4.274301e+002 7.683158e+001
         vertex 5.057220e+002 4.774301e+002 7.683158e+001
      endloop
   endfacet
   facet normal 0.000000e+000 -1.387779e-016 -1.000000e+000
      outer loop
         vertex 5.057220e+002 4.774301e+002 7.683158e+001
         vertex 4.807220e+002 4.274301e+002 7.683158e+001
         vertex 4.807220e+002 4.774301e+002 7.683158e+001
      endloop
   endfacet
   facet normal 0.000000e+000 0.000000e+000 1.000000e+000
      outer loop
         vertex 4.307220e+002 5.024301e+002 2.683158e+001
         vertex 4.307220e+002 4.774301e+002 2.683158e+001
         vertex 4.807220e+002 5.024301e+002 2.683158e+001
      endloop
   endfacet
   facet normal 0.000000e+000 0.000000e+000 1.000000e+000
      outer loop
         vertex 4.807220e+002 5.024301e+002 2.683158e+001
         vertex 4.307220e+002 4.774301e+002 2.683158e+001
         vertex 4.807220e+002 4.774301e+002 2.683158e+001
      endloop
   endfacet
   facet normal 1.000000e+000 0.000000e+000 0.000000e+000
      outer loop
         vertex 4.307220e+002 5.024301e+002 7.683158e+001
         vertex 4.307220e+002 4.774301e+002 7.683158e+001
         vertex 4.307220e+002 5.024301e+002 2.683158e+001
      endloop
   endfacet
   facet normal 1.000000e+000 0.000000e+000 0.000000e+000
      outer loop
         vertex 4.307220e+002 5.024301e+002 2.683158e+001
         vertex 4.307220e+002 4.774301e+002 7.683158e+001
         vertex 4.307220e+002 4.774301e+002 2.683158e+001
      endloop
   endfacet
   facet normal 0.000000e+000 0.000000e+000 -1.000000e+000
      outer loop
         vertex 4.807220e+002 5.024301e+002 7.683158e+001
         vertex 4.807220e+002 4.774301e+002 7.683158e+001
         vertex 4.307220e+002 5.024301e+002 7.683158e+001
      endloop
   endfacet
   facet normal 0.000000e+000 0.000000e+000 -1.000000e+000
      outer loop
         vertex 4.307220e+002 5.024301e+002 7.683158e+001
         vertex 4.807220e+002 4.774301e+002 7.683158e+001
         vertex 4.307220e+002 4.774301e+002 7.683158e+001
      endloop
   endfacet
   facet normal -1.000000e+000 0.000000e+000 0.000000e+000
      outer loop
         vertex 4.807220e+002 5.024301e+002 2.683158e+001
         vertex 4.807220e+002 4.774301e+002 2.683158e+001
         vertex 4.807220e+002 5.024301e+002 7.683158e+001
      endloop
   endfacet
   facet normal -1.000000e+000 0.000000e+000 0.000000e+000
      outer loop
         vertex 4.807220e+002 5.024301e+002 7.683158e+001
         vertex 4.807220e+002 4.774301e+002 2.683158e+001
         vertex 4.807220e+002 4.774301e+002 7.683158e+001
      endloop
   endfacet
   facet normal 0.000000e+000 0.000000e+000 -1.000000e+000
      outer loop
         vertex 4.307220e+002 4.024301e+002 7.683158e+001
         vertex 4.307220e+002 4.274301e+002 7.683158e+001
         vertex 4.807220e+002 4.024301e+002 7.683158e+001
      endloop
   endfacet
   facet normal 0.000000e+000 0.000000e+000 -1.000000e+000
      outer loop
         vertex 4.807220e+002 4.024301e+002 7.683158e+001
         vertex 4.307220e+002 4.274301e+002 7.683158e+001
         vertex 4.807220e+002 4.274301e+002 7.683158e+001
      endloop
   endfacet
   facet normal 0.000000e+000 0.000000e+000 1.000000e+000
      outer loop
         vertex 4.807220e+002 4.024301e+002 2.683158e+001
         vertex 4.807220e+002 4.274301e+002 2.683158e+001
         vertex 4.307220e+002 4.024301e+002 2.683158e+001
      endloop
   endfacet
   facet normal 0.000000e+000 0.000000e+000 1.000000e+000
      outer loop
         vertex 4.307220e+002 4.024301e+002 2.683158e+001
         vertex 4.807220e+002 4.274301e+002 2.683158e+001
         vertex 4.307220e+002 4.274301e+002 2.683158e+001
      endloop
   endfacet
   facet normal 1.000000e+000 0.000000e+000 0.000000e+000
      outer loop
         vertex 4.307220e+002 4.024301e+002 2.683158e+001
         vertex 4.307220e+002 4.274301e+002 2.683158e+001
         vertex 4.307220e+002 4.024301e+002 7.683158e+001
      endloop
   endfacet
   facet normal 1.000000e+000 0.000000e+000 0.000000e+000
      outer loop
         vertex 4.307220e+002 4.024301e+002 7.683158e+001
         vertex 4.307220e+002 4.274301e+002 2.683158e+001
         vertex 4.307220e+002 4.274301e+002 7.683158e+001
      endloop
   endfacet
   facet normal -1.000000e+000 0.000000e+000 0.000000e+000
      outer loop
         vertex 4.807220e+002 4.024301e+002 7.683158e+001
         vertex 4.807220e+002 4.274301e+002 7.683158e+001
         vertex 4.807220e+002 4.024301e+002 2.683158e+001
      endloop
   endfacet
   facet normal -1.000000e+000 0.000000e+000 0.000000e+000
      outer loop
         vertex 4.807220e+002 4.024301e+002 2.683158e+001
         vertex 4.807220e+002 4.274301e+002 7.683158e+001
         vertex 4.807220e+002 4.274301e+002 2.683158e+001
      endloop
   endfacet
endsolid