solid I - A0-1
   facet normal -1.000000e+000 0.000000e+000 0.000000e+000
      outer loop
         vertex 1.057220e+002 4.774301e+002 4.268316e+002
         vertex 1.057220e+002 4.899301e+002 4.143316e+002
         vertex 1.057220e+002 4.274301e+002 4.268316e+002
      endloop
   endfacet
   facet normal -1.000000e+000 0.000000e+000 0.000000e+000
      outer loop
         vertex 1.057220e+002 4.274301e+002 4.268316e+002
         vertex 1.057220e+002 4.899301e+002 4.143316e+002
         vertex 1.057220e+002 4.149301e+002 4.143316e+002
      endloop
   endfacet
   facet normal -1.000000e+000 0.000000e+000 0.000000e+000
      outer loop
         vertex 1.057220e+002 4.274301e+002 4.268316e+002
         vertex 1.057220e+002 4.149301e+002 4.143316e+002
         vertex 1.057220e+002 4.274301e+002 4.768316e+002
      endloop
   endfacet
   facet normal -1.000000e+000 0.000000e+000 0.000000e+000
      outer loop
         vertex 1.057220e+002 4.274301e+002 4.768316e+002
         vertex 1.057220e+002 4.149301e+002 4.143316e+002
         vertex 1.057220e+002 4.149301e+002 4.893316e+002
      endloop
   endfacet
   facet normal -1.000000e+000 0.000000e+000 0.000000e+000
      outer loop
         vertex 1.057220e+002 4.274301e+002 4.768316e+002
         vertex 1.057220e+002 4.149301e+002 4.893316e+002
         vertex 1.057220e+002 4.774301e+002 4.768316e+002
      endloop
   endfacet
   facet normal -1.000000e+000 0.000000e+000 0.000000e+000
      outer loop
         vertex 1.057220e+002 4.774301e+002 4.768316e+002
         vertex 1.057220e+002 4.149301e+002 4.893316e+002
         vertex 1.057220e+002 4.899301e+002 4.893316e+002
      endloop
   endfacet
   facet normal -1.000000e+000 0.000000e+000 0.000000e+000
      outer loop
         vertex 1.057220e+002 4.774301e+002 4.768316e+002
         vertex 1.057220e+002 4.899301e+002 4.893316e+002
         vertex 1.057220e+002 4.774301e+002 4.268316e+002
      endloop
   endfacet
   facet normal -1.000000e+000 0.000000e+000 0.000000e+000
      outer loop
         vertex 1.057220e+002 4.774301e+002 4.268316e+002
         vertex 1.057220e+002 4.899301e+002 4.893316e+002
         vertex 1.057220e+002 4.899301e+002 4.143316e+002
      endloop
   endfacet
   facet normal 0.000000e+000 0.000000e+000 -1.000000e+000
      outer loop
         vertex 1.057220e+002 4.149301e+002 4.143316e+002
         vertex 1.057220e+002 4.899301e+002 4.143316e+002
         vertex 4.057220e+002 4.149301e+002 4.143316e+002
      endloop
   endfacet
   facet normal 0.000000e+000 0.000000e+000 -1.000000e+000
      outer loop
         vertex 4.057220e+002 4.149301e+002 4.143316e+002
         vertex 1.057220e+002 4.899301e+002 4.143316e+002
         vertex 4.057220e+002 4.899301e+002 4.143316e+002
      endloop
   endfacet
   facet normal 0.000000e+000 -1.000000e+000 0.000000e+000
      outer loop
         vertex 1.057220e+002 4.149301e+002 4.893316e+002
         vertex 1.057220e+002 4.149301e+002 4.143316e+002
         vertex 4.057220e+002 4.149301e+002 4.893316e+002
      endloop
   endfacet
   facet normal 0.000000e+000 -1.000000e+000 0.000000e+000
      outer loop
         vertex 4.057220e+002 4.149301e+002 4.893316e+002
         vertex 1.057220e+002 4.149301e+002 4.143316e+002
         vertex 4.057220e+002 4.149301e+002 4.143316e+002
      endloop
   endfacet
   facet normal 0.000000e+000 0.000000e+000 1.000000e+000
      outer loop
         vertex 1.057220e+002 4.899301e+002 4.893316e+002
         vertex 1.057220e+002 4.149301e+002 4.893316e+002
         vertex 4.057220e+002 4.899301e+002 4.893316e+002
      endloop
   endfacet
   facet normal 0.000000e+000 0.000000e+000 1.000000e+000
      outer loop
         vertex 4.057220e+002 4.899301e+002 4.893316e+002
         vertex 1.057220e+002 4.149301e+002 4.893316e+002
         vertex 4.057220e+002 4.149301e+002 4.893316e+002
      endloop
   endfacet
   facet normal 0.000000e+000 1.000000e+000 -9.251858e-017
      outer loop
         vertex 1.057220e+002 4.899301e+002 4.143316e+002
         vertex 1.057220e+002 4.899301e+002 4.893316e+002
         vertex 4.057220e+002 4.899301e+002 4.143316e+002
      endloop
   endfacet
   facet normal 0.000000e+000 1.000000e+000 -9.251858e-017
      outer loop
         vertex 4.057220e+002 4.899301e+002 4.143316e+002
         vertex 1.057220e+002 4.899301e+002 4.893316e+002
         vertex 4.057220e+002 4.899301e+002 4.893316e+002
      endloop
   endfacet
   facet normal 1.000000e+000 0.000000e+000 0.000000e+000
      outer loop
         vertex 4.057220e+002 4.774301e+002 4.268316e+002
         vertex 4.057220e+002 4.899301e+002 4.143316e+002
         vertex 4.057220e+002 4.899301e+002 4.893316e+002
      endloop
   endfacet
   facet normal 1.000000e+000 0.000000e+000 0.000000e+000
      outer loop
         vertex 4.057220e+002 4.899301e+002 4.143316e+002
         vertex 4.057220e+002 4.774301e+002 4.268316e+002
         vertex 4.057220e+002 4.149301e+002 4.143316e+002
      endloop
   endfacet
   facet normal 1.000000e+000 0.000000e+000 0.000000e+000
      outer loop
         vertex 4.057220e+002 4.149301e+002 4.143316e+002
         vertex 4.057220e+002 4.774301e+002 4.268316e+002
         vertex 4.057220e+002 4.274301e+002 4.268316e+002
      endloop
   endfacet
   facet normal 1.000000e+000 0.000000e+000 0.000000e+000
      outer loop
         vertex 4.057220e+002 4.149301e+002 4.143316e+002
         vertex 4.057220e+002 4.274301e+002 4.268316e+002
         vertex 4.057220e+002 4.149301e+002 4.893316e+002
      endloop
   endfacet
   facet normal 1.000000e+000 0.000000e+000 0.000000e+000
      outer loop
         vertex 4.057220e+002 4.149301e+002 4.893316e+002
         vertex 4.057220e+002 4.274301e+002 4.268316e+002
         vertex 4.057220e+002 4.274301e+002 4.768316e+002
      endloop
   endfacet
   facet normal 1.000000e+000 0.000000e+000 0.000000e+000
      outer loop
         vertex 4.057220e+002 4.149301e+002 4.893316e+002
         vertex 4.057220e+002 4.274301e+002 4.768316e+002
         vertex 4.057220e+002 4.899301e+002 4.893316e+002
      endloop
   endfacet
   facet normal 1.000000e+000 0.000000e+000 0.000000e+000
      outer loop
         vertex 4.057220e+002 4.899301e+002 4.893316e+002
         vertex 4.057220e+002 4.274301e+002 4.768316e+002
         vertex 4.057220e+002 4.774301e+002 4.768316e+002
      endloop
   endfacet
   facet normal 1.000000e+000 0.000000e+000 0.000000e+000
      outer loop
         vertex 4.057220e+002 4.899301e+002 4.893316e+002
         vertex 4.057220e+002 4.774301e+002 4.768316e+002
         vertex 4.057220e+002 4.774301e+002 4.268316e+002
      endloop
   endfacet
   facet normal 0.000000e+000 0.000000e+000 -1.000000e+000
      outer loop
         vertex 8.572196e+001 4.274301e+002 4.268316e+002
         vertex 8.572196e+001 4.774301e+002 4.268316e+002
         vertex 1.057220e+002 4.274301e+002 4.268316e+002
      endloop
   endfacet
   facet normal 0.000000e+000 0.000000e+000 -1.000000e+000
      outer loop
         vertex 1.057220e+002 4.274301e+002 4.268316e+002
         vertex 8.572196e+001 4.774301e+002 4.268316e+002
         vertex 1.057220e+002 4.774301e+002 4.268316e+002
      endloop
   endfacet
   facet normal 0.000000e+000 -1.000000e+000 1.387779e-016
      outer loop
         vertex 8.572196e+001 4.274301e+002 4.768316e+002
         vertex 8.572196e+001 4.274301e+002 4.268316e+002
         vertex 1.057220e+002 4.274301e+002 4.768316e+002
      endloop
   endfacet
   facet normal 0.000000e+000 -1.000000e+000 1.387779e-016
      outer loop
         vertex 1.057220e+002 4.274301e+002 4.768316e+002
         vertex 8.572196e+001 4.274301e+002 4.268316e+002
         vertex 1.057220e+002 4.274301e+002 4.268316e+002
      endloop
   endfacet
   facet normal 0.000000e+000 0.000000e+000 1.000000e+000
      outer loop
         vertex 8.572196e+001 4.774301e+002 4.768316e+002
         vertex 8.572196e+001 4.274301e+002 4.768316e+002
         vertex 1.057220e+002 4.774301e+002 4.768316e+002
      endloop
   endfacet
   facet normal 0.000000e+000 0.000000e+000 1.000000e+000
      outer loop
         vertex 1.057220e+002 4.774301e+002 4.768316e+002
         vertex 8.572196e+001 4.274301e+002 4.768316e+002
         vertex 1.057220e+002 4.274301e+002 4.768316e+002
      endloop
   endfacet
   facet normal 0.000000e+000 1.000000e+000 -1.387779e-016
      outer loop
         vertex 8.572196e+001 4.774301e+002 4.268316e+002
         vertex 8.572196e+001 4.774301e+002 4.768316e+002
         vertex 1.057220e+002 4.774301e+002 4.268316e+002
      endloop
   endfacet
   facet normal 0.000000e+000 1.000000e+000 -1.387779e-016
      outer loop
         vertex 1.057220e+002 4.774301e+002 4.268316e+002
         vertex 8.572196e+001 4.774301e+002 4.768316e+002
         vertex 1.057220e+002 4.774301e+002 4.768316e+002
      endloop
   endfacet
   facet normal -1.000000e+000 0.000000e+000 0.000000e+000
      outer loop
         vertex 8.572196e+001 4.274301e+002 4.768316e+002
         vertex 8.572196e+001 4.774301e+002 4.768316e+002
         vertex 8.572196e+001 4.274301e+002 4.268316e+002
      endloop
   endfacet
   facet normal -1.000000e+000 0.000000e+000 0.000000e+000
      outer loop
         vertex 8.572196e+001 4.274301e+002 4.268316e+002
         vertex 8.572196e+001 4.774301e+002 4.768316e+002
         vertex 8.572196e+001 4.774301e+002 4.268316e+002
      endloop
   endfacet
   facet normal 0.000000e+000 0.000000e+000 -1.000000e+000
      outer loop
         vertex 4.257220e+002 4.774301e+002 4.268316e+002
         vertex 4.257220e+002 4.274301e+002 4.268316e+002
         vertex 4.057220e+002 4.774301e+002 4.268316e+002
      endloop
   endfacet
   facet normal 0.000000e+000 0.000000e+000 -1.000000e+000
      outer loop
         vertex 4.057220e+002 4.774301e+002 4.268316e+002
         vertex 4.257220e+002 4.274301e+002 4.268316e+002
         vertex 4.057220e+002 4.274301e+002 4.268316e+002
      endloop
   endfacet
   facet normal 0.000000e+000 1.000000e+000 -1.387779e-016
      outer loop
         vertex 4.257220e+002 4.774301e+002 4.768316e+002
         vertex 4.257220e+002 4.774301e+002 4.268316e+002
         vertex 4.057220e+002 4.774301e+002 4.768316e+002
      endloop
   endfacet
   facet normal 0.000000e+000 1.000000e+000 -1.387779e-016
      outer loop
         vertex 4.057220e+002 4.774301e+002 4.768316e+002
         vertex 4.257220e+002 4.774301e+002 4.268316e+002
         vertex 4.057220e+002 4.774301e+002 4.268316e+002
      endloop
   endfacet
   facet normal 0.000000e+000 0.000000e+000 1.000000e+000
      outer loop
         vertex 4.257220e+002 4.274301e+002 4.768316e+002
         vertex 4.257220e+002 4.774301e+002 4.768316e+002
         vertex 4.057220e+002 4.274301e+002 4.768316e+002
      endloop
   endfacet
   facet normal 0.000000e+000 0.000000e+000 1.000000e+000
      outer loop
         vertex 4.057220e+002 4.274301e+002 4.768316e+002
         vertex 4.257220e+002 4.774301e+002 4.768316e+002
         vertex 4.057220e+002 4.774301e+002 4.768316e+002
      endloop
   endfacet
   facet normal 0.000000e+000 -1.000000e+000 1.387779e-016
      outer loop
         vertex 4.257220e+002 4.274301e+002 4.268316e+002
         vertex 4.257220e+002 4.274301e+002 4.768316e+002
         vertex 4.057220e+002 4.274301e+002 4.268316e+002
      endloop
   endfacet
   facet normal 0.000000e+000 -1.000000e+000 1.387779e-016
      outer loop
         vertex 4.057220e+002 4.274301e+002 4.268316e+002
         vertex 4.257220e+002 4.274301e+002 4.768316e+002
         vertex 4.057220e+002 4.274301e+002 4.768316e+002
      endloop
   endfacet
   facet normal 1.000000e+000 0.000000e+000 0.000000e+000
      outer loop
         vertex 4.257220e+002 4.774301e+002 4.768316e+002
         vertex 4.257220e+002 4.274301e+002 4.768316e+002
         vertex 4.257220e+002 4.774301e+002 4.268316e+002
      endloop
   endfacet
   facet normal 1.000000e+000 0.000000e+000 0.000000e+000
      outer loop
         vertex 4.257220e+002 4.774301e+002 4.268316e+002
         vertex 4.257220e+002 4.274301e+002 4.768316e+002
         vertex 4.257220e+002 4.274301e+002 4.268316e+002
      endloop
   endfacet
endsolid