solid FPM - 300-TableCage-1 400-LidUpper-1 402-SideWall-2
   facet normal 9.326008e-020 5.500414e-002 -9.984861e-001
      outer loop
         vertex 1.314449e+001 1.266855e+003 1.469249e+001
         vertex 1.164449e+001 1.266855e+003 1.469249e+001
         vertex 1.164449e+001 1.268146e+003 1.479945e+001
      endloop
   endfacet
   facet normal 1.979510e-020 1.100083e-001 -9.939307e-001
      outer loop
         vertex 1.314449e+001 1.266855e+003 1.469249e+001
         vertex 1.164449e+001 1.268146e+003 1.479945e+001
         vertex 1.314449e+001 1.268146e+003 1.479945e+001
      endloop
   endfacet
   facet normal -1.266473e-019 2.185177e-001 -9.758330e-001
      outer loop
         vertex 1.314449e+001 1.268146e+003 1.479945e+001
         vertex 1.164449e+001 1.268146e+003 1.479945e+001
         vertex 1.164449e+001 1.269403e+003 1.511741e+001
      endloop
   endfacet
   facet normal -1.996249e-019 2.720230e-001 -9.622908e-001
      outer loop
         vertex 1.314449e+001 1.268146e+003 1.479945e+001
         vertex 1.164449e+001 1.269403e+003 1.511741e+001
         vertex 1.314449e+001 1.269403e+003 1.511741e+001
      endloop
   endfacet
   facet normal -3.431037e-019 3.760768e-001 -9.265885e-001
      outer loop
         vertex 1.314449e+001 1.269403e+003 1.511741e+001
         vertex 1.164449e+001 1.269403e+003 1.511741e+001
         vertex 1.164449e+001 1.270589e+003 1.563770e+001
      endloop
   endfacet
   facet normal -4.136051e-019 4.266252e-001 -9.044285e-001
      outer loop
         vertex 1.314449e+001 1.269403e+003 1.511741e+001
         vertex 1.164449e+001 1.270589e+003 1.563770e+001
         vertex 1.314449e+001 1.270589e+003 1.563770e+001
      endloop
   endfacet
   facet normal -5.502105e-019 5.233877e-001 -8.520947e-001
      outer loop
         vertex 1.314449e+001 1.270589e+003 1.563770e+001
         vertex 1.164449e+001 1.270589e+003 1.563770e+001
         vertex 1.164449e+001 1.271675e+003 1.634613e+001
      endloop
   endfacet
   facet normal -6.163146e-019 5.696018e-001 -8.219208e-001
      outer loop
         vertex 1.314449e+001 1.270589e+003 1.563770e+001
         vertex 1.164449e+001 1.271675e+003 1.634613e+001
         vertex 1.314449e+001 1.271675e+003 1.634613e+001
      endloop
   endfacet
   facet normal -7.423241e-019 6.564364e-001 -7.543814e-001
      outer loop
         vertex 1.314449e+001 1.271675e+003 1.634613e+001
         vertex 1.164449e+001 1.271675e+003 1.634613e+001
         vertex 1.164449e+001 1.272628e+003 1.722342e+001
      endloop
   endfacet
   facet normal -8.022296e-019 6.970569e-001 -7.170158e-001
      outer loop
         vertex 1.314449e+001 1.271675e+003 1.634613e+001
         vertex 1.164449e+001 1.272628e+003 1.722342e+001
         vertex 1.314449e+001 1.272628e+003 1.722342e+001
      endloop
   endfacet
   facet normal -9.142095e-019 7.715973e-001 -6.361113e-001
      outer loop
         vertex 1.314449e+001 1.272628e+003 1.722342e+001
         vertex 1.164449e+001 1.272628e+003 1.722342e+001
         vertex 1.164449e+001 1.273425e+003 1.824564e+001
      endloop
   endfacet
   facet normal -9.662841e-019 8.055173e-001 -5.925723e-001
      outer loop
         vertex 1.314449e+001 1.272628e+003 1.722342e+001
         vertex 1.164449e+001 1.273425e+003 1.824564e+001
         vertex 1.314449e+001 1.273425e+003 1.824564e+001
      endloop
   endfacet
   facet normal -1.033539e-018 8.484389e-001 -5.292933e-001
      outer loop
         vertex 1.314449e+001 1.273425e+003 1.824564e+001
         vertex 1.164449e+001 1.273425e+003 1.824564e+001
         vertex 1.164449e+001 1.293878e+003 5.182937e+001
      endloop
   endfacet
   facet normal -1.051340e-018 8.596009e-001 -5.109661e-001
      outer loop
         vertex 1.314449e+001 1.273425e+003 1.824564e+001
         vertex 1.164449e+001 1.293878e+003 5.182937e+001
         vertex 1.314449e+001 1.293878e+003 5.182937e+001
      endloop
   endfacet
   facet normal -1.085466e-018 8.807229e-001 -4.736319e-001
      outer loop
         vertex 1.314449e+001 1.293878e+003 5.182937e+001
         vertex 1.164449e+001 1.293878e+003 5.182937e+001
         vertex 1.164449e+001 1.312130e+003 8.665898e+001
      endloop
   endfacet
   facet normal -1.101791e-018 8.906831e-001 -4.546248e-001
      outer loop
         vertex 1.314449e+001 1.293878e+003 5.182937e+001
         vertex 1.164449e+001 1.312130e+003 8.665898e+001
         vertex 1.314449e+001 1.312130e+003 8.665898e+001
      endloop
   endfacet
   facet normal -1.132898e-018 9.093603e-001 -4.160094e-001
      outer loop
         vertex 1.314449e+001 1.312130e+003 8.665898e+001
         vertex 1.164449e+001 1.312130e+003 8.665898e+001
         vertex 1.164449e+001 1.328104e+003 1.225903e+002
      endloop
   endfacet
   facet normal -1.147680e-018 9.180774e-001 -3.964012e-001
      outer loop
         vertex 1.314449e+001 1.312130e+003 8.665898e+001
         vertex 1.164449e+001 1.328104e+003 1.225903e+002
         vertex 1.314449e+001 1.328104e+003 1.225903e+002
      endloop
   endfacet
   facet normal -1.175640e-018 9.342325e-001 -3.566645e-001
      outer loop
         vertex 1.314449e+001 1.328104e+003 1.225903e+002
         vertex 1.164449e+001 1.328104e+003 1.225903e+002
         vertex 1.164449e+001 1.341733e+003 1.594746e+002
      endloop
   endfacet
   facet normal -1.188818e-018 9.416705e-001 -3.365362e-001
      outer loop
         vertex 1.314449e+001 1.328104e+003 1.225903e+002
         vertex 1.164449e+001 1.341733e+003 1.594746e+002
         vertex 1.314449e+001 1.341733e+003 1.594746e+002
      endloop
   endfacet
   facet normal -1.213514e-018 9.552366e-001 -2.958429e-001
      outer loop
         vertex 1.314449e+001 1.341733e+003 1.594746e+002
         vertex 1.164449e+001 1.341733e+003 1.594746e+002
         vertex 1.164449e+001 1.352963e+003 1.971591e+002
      endloop
   endfacet
   facet normal -1.225033e-018 9.613647e-001 -2.752779e-001
      outer loop
         vertex 1.314449e+001 1.341733e+003 1.594746e+002
         vertex 1.164449e+001 1.352963e+003 1.971591e+002
         vertex 1.314449e+001 1.352963e+003 1.971591e+002
      endloop
   endfacet
   facet normal -1.246364e-018 9.722856e-001 -2.337963e-001
      outer loop
         vertex 1.314449e+001 1.352963e+003 1.971591e+002
         vertex 1.164449e+001 1.352963e+003 1.971591e+002
         vertex 1.164449e+001 1.361745e+003 2.354877e+002
      endloop
   endfacet
   facet normal -1.256176e-018 9.770784e-001 -2.128798e-001
      outer loop
         vertex 1.314449e+001 1.352963e+003 1.971591e+002
         vertex 1.164449e+001 1.361745e+003 2.354877e+002
         vertex 1.314449e+001 1.361745e+003 2.354877e+002
      endloop
   endfacet
   facet normal -1.274053e-018 9.853089e-001 -1.707817e-001
      outer loop
         vertex 1.314449e+001 1.361745e+003 2.354877e+002
         vertex 1.164449e+001 1.361745e+003 2.354877e+002
         vertex 1.164449e+001 1.368045e+003 2.743019e+002
      endloop
   endfacet
   facet normal -1.282118e-018 9.887466e-001 -1.496003e-001
      outer loop
         vertex 1.314449e+001 1.361745e+003 2.354877e+002
         vertex 1.164449e+001 1.368045e+003 2.743019e+002
         vertex 1.314449e+001 1.368045e+003 2.743019e+002
      endloop
   endfacet
   facet normal -1.296467e-018 9.942526e-001 -1.070600e-001
      outer loop
         vertex 1.314449e+001 1.368045e+003 2.743019e+002
         vertex 1.164449e+001 1.368045e+003 2.743019e+002
         vertex 1.164449e+001 1.371835e+003 3.134408e+002
      endloop
   endfacet
   facet normal -1.302751e-018 9.963209e-001 -8.570130e-002
      outer loop
         vertex 1.314449e+001 1.368045e+003 2.743019e+002
         vertex 1.164449e+001 1.371835e+003 3.134408e+002
         vertex 1.314449e+001 1.371835e+003 3.134408e+002
      endloop
   endfacet
   facet normal -1.313513e-018 9.990796e-001 -4.289505e-002
      outer loop
         vertex 1.314449e+001 1.371835e+003 3.134408e+002
         vertex 1.164449e+001 1.371835e+003 3.134408e+002
         vertex 1.164449e+001 1.373100e+003 3.527425e+002
      endloop
   endfacet
   facet normal -1.317991e-018 9.997700e-001 -2.144753e-002
      outer loop
         vertex 1.314449e+001 1.371835e+003 3.134408e+002
         vertex 1.164449e+001 1.373100e+003 3.527425e+002
         vertex 1.314449e+001 1.373100e+003 3.527425e+002
      endloop
   endfacet
   facet normal -1.325121e-018 9.997700e-001 2.144753e-002
      outer loop
         vertex 1.314449e+001 1.373100e+003 3.527425e+002
         vertex 1.164449e+001 1.373100e+003 3.527425e+002
         vertex 1.164449e+001 1.371835e+003 3.920442e+002
      endloop
   endfacet
   facet normal -1.327773e-018 9.990796e-001 4.289505e-002
      outer loop
         vertex 1.314449e+001 1.373100e+003 3.527425e+002
         vertex 1.164449e+001 1.371835e+003 3.920442e+002
         vertex 1.314449e+001 1.371835e+003 3.920442e+002
      endloop
   endfacet
   facet normal -1.331242e-018 9.963209e-001 8.570130e-002
      outer loop
         vertex 1.314449e+001 1.371835e+003 3.920442e+002
         vertex 1.164449e+001 1.371835e+003 3.920442e+002
         vertex 1.164449e+001 1.368045e+003 4.311831e+002
      endloop
   endfacet
   facet normal -1.332058e-018 9.942526e-001 1.070600e-001
      outer loop
         vertex 1.314449e+001 1.371835e+003 3.920442e+002
         vertex 1.164449e+001 1.368045e+003 4.311831e+002
         vertex 1.314449e+001 1.368045e+003 4.311831e+002
      endloop
   endfacet
   facet normal -1.331851e-018 9.887466e-001 1.496003e-001
      outer loop
         vertex 1.314449e+001 1.368045e+003 4.311831e+002
         vertex 1.164449e+001 1.368045e+003 4.311831e+002
         vertex 1.164449e+001 1.361745e+003 4.699972e+002
      endloop
   endfacet
   facet normal -1.330828e-018 9.853089e-001 1.707817e-001
      outer loop
         vertex 1.314449e+001 1.368045e+003 4.311831e+002
         vertex 1.164449e+001 1.361745e+003 4.699972e+002
         vertex 1.314449e+001 1.361745e+003 4.699972e+002
      endloop
   endfacet
   facet normal -1.326946e-018 9.770784e-001 2.128798e-001
      outer loop
         vertex 1.314449e+001 1.361745e+003 4.699972e+002
         vertex 1.164449e+001 1.361745e+003 4.699972e+002
         vertex 1.164449e+001 1.352963e+003 5.083259e+002
      endloop
   endfacet
   facet normal -1.324087e-018 9.722856e-001 2.337963e-001
      outer loop
         vertex 1.314449e+001 1.361745e+003 4.699972e+002
         vertex 1.164449e+001 1.352963e+003 5.083259e+002
         vertex 1.314449e+001 1.352963e+003 5.083259e+002
      endloop
   endfacet
   facet normal -1.316546e-018 9.613647e-001 2.752779e-001
      outer loop
         vertex 1.314449e+001 1.352963e+003 5.083259e+002
         vertex 1.164449e+001 1.352963e+003 5.083259e+002
         vertex 1.164449e+001 1.341733e+003 5.460104e+002
      endloop
   endfacet
   facet normal -1.311864e-018 9.552366e-001 2.958429e-001
      outer loop
         vertex 1.314449e+001 1.352963e+003 5.083259e+002
         vertex 1.164449e+001 1.341733e+003 5.460104e+002
         vertex 1.314449e+001 1.341733e+003 5.460104e+002
      endloop
   endfacet
   facet normal -1.300696e-018 9.416705e-001 3.365362e-001
      outer loop
         vertex 1.314449e+001 1.341733e+003 5.460104e+002
         vertex 1.164449e+001 1.341733e+003 5.460104e+002
         vertex 1.164449e+001 1.328104e+003 5.828947e+002
      endloop
   endfacet
   facet normal -1.294209e-018 9.342325e-001 3.566645e-001
      outer loop
         vertex 1.314449e+001 1.341733e+003 5.460104e+002
         vertex 1.164449e+001 1.328104e+003 5.828947e+002
         vertex 1.314449e+001 1.328104e+003 5.828947e+002
      endloop
   endfacet
   facet normal -1.279459e-018 9.180774e-001 3.964011e-001
      outer loop
         vertex 1.314449e+001 1.328104e+003 5.828947e+002
         vertex 1.164449e+001 1.328104e+003 5.828947e+002
         vertex 1.164449e+001 1.312130e+003 6.188260e+002
      endloop
   endfacet
   facet normal -1.271196e-018 9.093603e-001 4.160095e-001
      outer loop
         vertex 1.314449e+001 1.328104e+003 5.828947e+002
         vertex 1.164449e+001 1.312130e+003 6.188260e+002
         vertex 1.314449e+001 1.312130e+003 6.188260e+002
      endloop
   endfacet
   facet normal -1.252926e-018 8.906831e-001 4.546248e-001
      outer loop
         vertex 1.314449e+001 1.312130e+003 6.188260e+002
         vertex 1.164449e+001 1.312130e+003 6.188260e+002
         vertex 1.164449e+001 1.293878e+003 6.536556e+002
      endloop
   endfacet
   facet normal -1.242919e-018 8.807229e-001 4.736319e-001
      outer loop
         vertex 1.314449e+001 1.312130e+003 6.188260e+002
         vertex 1.164449e+001 1.293878e+003 6.536556e+002
         vertex 1.314449e+001 1.293878e+003 6.536556e+002
      endloop
   endfacet
   facet normal -1.221204e-018 8.596008e-001 5.109661e-001
      outer loop
         vertex 1.314449e+001 1.293878e+003 6.536556e+002
         vertex 1.164449e+001 1.293878e+003 6.536556e+002
         vertex 1.164449e+001 1.273425e+003 6.872393e+002
      endloop
   endfacet
   facet normal -1.209496e-018 8.484389e-001 5.292933e-001
      outer loop
         vertex 1.314449e+001 1.293878e+003 6.536556e+002
         vertex 1.164449e+001 1.273425e+003 6.872393e+002
         vertex 1.314449e+001 1.273425e+003 6.872393e+002
      endloop
   endfacet
   facet normal -1.163278e-018 8.055173e-001 5.925723e-001
      outer loop
         vertex 1.314449e+001 1.273425e+003 6.872393e+002
         vertex 1.164449e+001 1.273425e+003 6.872393e+002
         vertex 1.164449e+001 1.272628e+003 6.882616e+002
      endloop
   endfacet
   facet normal -1.125678e-018 7.715973e-001 6.361113e-001
      outer loop
         vertex 1.314449e+001 1.273425e+003 6.872393e+002
         vertex 1.164449e+001 1.272628e+003 6.882616e+002
         vertex 1.314449e+001 1.272628e+003 6.882616e+002
      endloop
   endfacet
   facet normal -1.040594e-018 6.970569e-001 7.170158e-001
      outer loop
         vertex 1.314449e+001 1.272628e+003 6.882616e+002
         vertex 1.164449e+001 1.272628e+003 6.882616e+002
         vertex 1.164449e+001 1.271675e+003 6.891389e+002
      endloop
   endfacet
   facet normal -9.931099e-019 6.564364e-001 7.543813e-001
      outer loop
         vertex 1.314449e+001 1.272628e+003 6.882616e+002
         vertex 1.164449e+001 1.271675e+003 6.891389e+002
         vertex 1.314449e+001 1.271675e+003 6.891389e+002
      endloop
   endfacet
   facet normal -8.895530e-019 5.696018e-001 8.219208e-001
      outer loop
         vertex 1.314449e+001 1.271675e+003 6.891389e+002
         vertex 1.164449e+001 1.271675e+003 6.891389e+002
         vertex 1.164449e+001 1.270589e+003 6.898473e+002
      endloop
   endfacet
   facet normal -8.334800e-019 5.233877e-001 8.520947e-001
      outer loop
         vertex 1.314449e+001 1.271675e+003 6.891389e+002
         vertex 1.164449e+001 1.270589e+003 6.898473e+002
         vertex 1.314449e+001 1.270589e+003 6.898473e+002
      endloop
   endfacet
   facet normal -7.142724e-019 4.266251e-001 9.044285e-001
      outer loop
         vertex 1.314449e+001 1.270589e+003 6.898473e+002
         vertex 1.164449e+001 1.270589e+003 6.898473e+002
         vertex 1.164449e+001 1.269403e+003 6.903676e+002
      endloop
   endfacet
   facet normal -6.511379e-019 3.760768e-001 9.265885e-001
      outer loop
         vertex 1.314449e+001 1.270589e+003 6.898473e+002
         vertex 1.164449e+001 1.269403e+003 6.903676e+002
         vertex 1.314449e+001 1.269403e+003 6.903676e+002
      endloop
   endfacet
   facet normal -5.195278e-019 2.720230e-001 9.622908e-001
      outer loop
         vertex 1.314449e+001 1.269403e+003 6.903676e+002
         vertex 1.164449e+001 1.269403e+003 6.903676e+002
         vertex 1.164449e+001 1.268146e+003 6.906855e+002
      endloop
   endfacet
   facet normal -4.510523e-019 2.185177e-001 9.758330e-001
      outer loop
         vertex 1.314449e+001 1.269403e+003 6.903676e+002
         vertex 1.164449e+001 1.268146e+003 6.906855e+002
         vertex 1.314449e+001 1.268146e+003 6.906855e+002
      endloop
   endfacet
   facet normal -3.106262e-019 1.100083e-001 9.939307e-001
      outer loop
         vertex 1.314449e+001 1.268146e+003 6.906855e+002
         vertex 1.164449e+001 1.268146e+003 6.906855e+002
         vertex 1.164449e+001 1.266855e+003 6.907925e+002
      endloop
   endfacet
   facet normal -2.386756e-019 5.500414e-002 9.984861e-001
      outer loop
         vertex 1.314449e+001 1.268146e+003 6.906855e+002
         vertex 1.164449e+001 1.266855e+003 6.907925e+002
         vertex 1.314449e+001 1.266855e+003 6.907925e+002
      endloop
   endfacet
   facet normal -1.662195e-019 1.009102e-015 1.000000e+000
      outer loop
         vertex 1.314449e+001 1.219478e+003 6.907925e+002
         vertex 1.314449e+001 1.266855e+003 6.907925e+002
         vertex 1.164449e+001 1.219478e+003 6.907925e+002
      endloop
   endfacet
   facet normal -1.662195e-019 1.009102e-015 1.000000e+000
      outer loop
         vertex 1.164449e+001 1.219478e+003 6.907925e+002
         vertex 1.314449e+001 1.266855e+003 6.907925e+002
         vertex 1.164449e+001 1.266855e+003 6.907925e+002
      endloop
   endfacet
   facet normal 1.321860e-018 -1.000000e+000 -1.625827e-016
      outer loop
         vertex 1.314449e+001 1.219478e+003 1.469249e+001
         vertex 1.314449e+001 1.219478e+003 6.907925e+002
         vertex 1.164449e+001 1.219478e+003 1.469249e+001
      endloop
   endfacet
   facet normal 1.321860e-018 -1.000000e+000 -1.625827e-016
      outer loop
         vertex 1.164449e+001 1.219478e+003 1.469249e+001
         vertex 1.314449e+001 1.219478e+003 6.907925e+002
         vertex 1.164449e+001 1.219478e+003 6.907925e+002
      endloop
   endfacet
   facet normal 1.662195e-019 1.334267e-015 -1.000000e+000
      outer loop
         vertex 1.314449e+001 1.266855e+003 1.469249e+001
         vertex 1.314449e+001 1.219478e+003 1.469249e+001
         vertex 1.164449e+001 1.266855e+003 1.469249e+001
      endloop
   endfacet
   facet normal 1.662195e-019 1.334267e-015 -1.000000e+000
      outer loop
         vertex 1.164449e+001 1.266855e+003 1.469249e+001
         vertex 1.314449e+001 1.219478e+003 1.469249e+001
         vertex 1.164449e+001 1.219478e+003 1.469249e+001
      endloop
   endfacet
   facet normal 1.000000e+000 1.321860e-018 1.662195e-019
      outer loop
         vertex 1.314449e+001 1.304751e+003 3.332850e+002
         vertex 1.314449e+001 1.219478e+003 1.469249e+001
         vertex 1.314449e+001 1.308378e+003 3.307455e+002
      endloop
   endfacet
   facet normal 1.000000e+000 1.321860e-018 1.662195e-019
      outer loop
         vertex 1.314449e+001 1.308378e+003 3.307455e+002
         vertex 1.314449e+001 1.219478e+003 1.469249e+001
         vertex 1.314449e+001 1.312391e+003 3.288743e+002
      endloop
   endfacet
   facet normal 1.000000e+000 1.321860e-018 1.662195e-019
      outer loop
         vertex 1.314449e+001 1.343075e+003 3.400425e+002
         vertex 1.314449e+001 1.340535e+003 3.364157e+002
         vertex 1.314449e+001 1.371835e+003 3.134408e+002
      endloop
   endfacet
   facet normal 1.000000e+000 1.321860e-018 1.662195e-019
      outer loop
         vertex 1.314449e+001 1.273425e+003 1.824564e+001
         vertex 1.314449e+001 1.293878e+003 5.182937e+001
         vertex 1.314449e+001 1.316667e+003 3.277284e+002
      endloop
   endfacet
   facet normal 1.000000e+000 1.321860e-018 1.662195e-019
      outer loop
         vertex 1.314449e+001 1.316667e+003 3.277284e+002
         vertex 1.314449e+001 1.293878e+003 5.182937e+001
         vertex 1.314449e+001 1.312130e+003 8.665898e+001
      endloop
   endfacet
   facet normal 1.000000e+000 1.321860e-018 1.662195e-019
      outer loop
         vertex 1.314449e+001 1.316667e+003 3.277284e+002
         vertex 1.314449e+001 1.312130e+003 8.665898e+001
         vertex 1.314449e+001 1.321078e+003 3.273425e+002
      endloop
   endfacet
   facet normal 1.000000e+000 1.321860e-018 1.662195e-019
      outer loop
         vertex 1.314449e+001 1.304751e+003 3.332850e+002
         vertex 1.314449e+001 1.301620e+003 3.364157e+002
         vertex 1.314449e+001 1.219478e+003 1.469249e+001
      endloop
   endfacet
   facet normal 1.000000e+000 1.321860e-018 1.662195e-019
      outer loop
         vertex 1.314449e+001 1.219478e+003 1.469249e+001
         vertex 1.314449e+001 1.301620e+003 3.364157e+002
         vertex 1.314449e+001 1.299081e+003 3.400425e+002
      endloop
   endfacet
   facet normal 1.000000e+000 1.321860e-018 1.662195e-019
      outer loop
         vertex 1.314449e+001 1.219478e+003 1.469249e+001
         vertex 1.314449e+001 1.299081e+003 3.400425e+002
         vertex 1.314449e+001 1.297210e+003 3.440552e+002
      endloop
   endfacet
   facet normal 1.000000e+000 1.321860e-018 1.662195e-019
      outer loop
         vertex 1.314449e+001 1.297210e+003 3.614298e+002
         vertex 1.314449e+001 1.299081e+003 3.654425e+002
         vertex 1.314449e+001 1.219478e+003 6.907925e+002
      endloop
   endfacet
   facet normal 1.000000e+000 1.321860e-018 1.662195e-019
      outer loop
         vertex 1.314449e+001 1.219478e+003 6.907925e+002
         vertex 1.314449e+001 1.299081e+003 3.654425e+002
         vertex 1.314449e+001 1.301620e+003 3.690693e+002
      endloop
   endfacet
   facet normal 1.000000e+000 1.321860e-018 1.662195e-019
      outer loop
         vertex 1.314449e+001 1.219478e+003 6.907925e+002
         vertex 1.314449e+001 1.301620e+003 3.690693e+002
         vertex 1.314449e+001 1.304751e+003 3.722000e+002
      endloop
   endfacet
   facet normal 1.000000e+000 1.321860e-018 1.662195e-019
      outer loop
         vertex 1.314449e+001 1.346092e+003 3.571531e+002
         vertex 1.314449e+001 1.373100e+003 3.527425e+002
         vertex 1.314449e+001 1.344946e+003 3.614298e+002
      endloop
   endfacet
   facet normal 1.000000e+000 1.321860e-018 1.662195e-019
      outer loop
         vertex 1.314449e+001 1.344946e+003 3.614298e+002
         vertex 1.314449e+001 1.373100e+003 3.527425e+002
         vertex 1.314449e+001 1.371835e+003 3.920442e+002
      endloop
   endfacet
   facet normal 1.000000e+000 1.321860e-018 1.662195e-019
      outer loop
         vertex 1.314449e+001 1.344946e+003 3.614298e+002
         vertex 1.314449e+001 1.371835e+003 3.920442e+002
         vertex 1.314449e+001 1.343075e+003 3.654425e+002
      endloop
   endfacet
   facet normal 1.000000e+000 1.321860e-018 1.662195e-019
      outer loop
         vertex 1.314449e+001 1.371835e+003 3.134408e+002
         vertex 1.314449e+001 1.340535e+003 3.364157e+002
         vertex 1.314449e+001 1.368045e+003 2.743019e+002
      endloop
   endfacet
   facet normal 1.000000e+000 1.321860e-018 1.662195e-019
      outer loop
         vertex 1.314449e+001 1.312391e+003 3.288743e+002
         vertex 1.314449e+001 1.219478e+003 1.469249e+001
         vertex 1.314449e+001 1.316667e+003 3.277284e+002
      endloop
   endfacet
   facet normal 1.000000e+000 1.321860e-018 1.662195e-019
      outer loop
         vertex 1.314449e+001 1.316667e+003 3.277284e+002
         vertex 1.314449e+001 1.219478e+003 1.469249e+001
         vertex 1.314449e+001 1.266855e+003 1.469249e+001
      endloop
   endfacet
   facet normal 1.000000e+000 1.321860e-018 1.662195e-019
      outer loop
         vertex 1.314449e+001 1.316667e+003 3.277284e+002
         vertex 1.314449e+001 1.266855e+003 1.469249e+001
         vertex 1.314449e+001 1.273425e+003 1.824564e+001
      endloop
   endfacet
   facet normal 1.000000e+000 1.321860e-018 1.662195e-019
      outer loop
         vertex 1.314449e+001 1.273425e+003 1.824564e+001
         vertex 1.314449e+001 1.266855e+003 1.469249e+001
         vertex 1.314449e+001 1.268146e+003 1.479945e+001
      endloop
   endfacet
   facet normal 1.000000e+000 1.321860e-018 1.662195e-019
      outer loop
         vertex 1.314449e+001 1.273425e+003 1.824564e+001
         vertex 1.314449e+001 1.268146e+003 1.479945e+001
         vertex 1.314449e+001 1.269403e+003 1.511741e+001
      endloop
   endfacet
   facet normal 1.000000e+000 1.321860e-018 1.662195e-019
      outer loop
         vertex 1.314449e+001 1.297210e+003 3.440552e+002
         vertex 1.314449e+001 1.296064e+003 3.483318e+002
         vertex 1.314449e+001 1.219478e+003 1.469249e+001
      endloop
   endfacet
   facet normal 1.000000e+000 1.321860e-018 1.662195e-019
      outer loop
         vertex 1.314449e+001 1.219478e+003 1.469249e+001
         vertex 1.314449e+001 1.296064e+003 3.483318e+002
         vertex 1.314449e+001 1.295678e+003 3.527425e+002
      endloop
   endfacet
   facet normal 1.000000e+000 1.321860e-018 1.662195e-019
      outer loop
         vertex 1.314449e+001 1.219478e+003 1.469249e+001
         vertex 1.314449e+001 1.295678e+003 3.527425e+002
         vertex 1.314449e+001 1.219478e+003 6.907925e+002
      endloop
   endfacet
   facet normal 1.000000e+000 1.321860e-018 1.662195e-019
      outer loop
         vertex 1.314449e+001 1.219478e+003 6.907925e+002
         vertex 1.314449e+001 1.295678e+003 3.527425e+002
         vertex 1.314449e+001 1.296064e+003 3.571531e+002
      endloop
   endfacet
   facet normal 1.000000e+000 1.321860e-018 1.662195e-019
      outer loop
         vertex 1.314449e+001 1.219478e+003 6.907925e+002
         vertex 1.314449e+001 1.296064e+003 3.571531e+002
         vertex 1.314449e+001 1.297210e+003 3.614298e+002
      endloop
   endfacet
   facet normal 1.000000e+000 1.321860e-018 1.662195e-019
      outer loop
         vertex 1.314449e+001 1.346092e+003 3.571531e+002
         vertex 1.314449e+001 1.346478e+003 3.527425e+002
         vertex 1.314449e+001 1.373100e+003 3.527425e+002
      endloop
   endfacet
   facet normal 1.000000e+000 1.321860e-018 1.662195e-019
      outer loop
         vertex 1.314449e+001 1.373100e+003 3.527425e+002
         vertex 1.314449e+001 1.346478e+003 3.527425e+002
         vertex 1.314449e+001 1.346092e+003 3.483318e+002
      endloop
   endfacet
   facet normal 1.000000e+000 1.321860e-018 1.662195e-019
      outer loop
         vertex 1.314449e+001 1.373100e+003 3.527425e+002
         vertex 1.314449e+001 1.346092e+003 3.483318e+002
         vertex 1.314449e+001 1.371835e+003 3.134408e+002
      endloop
   endfacet
   facet normal 1.000000e+000 1.321860e-018 1.662195e-019
      outer loop
         vertex 1.314449e+001 1.371835e+003 3.134408e+002
         vertex 1.314449e+001 1.346092e+003 3.483318e+002
         vertex 1.314449e+001 1.344946e+003 3.440552e+002
      endloop
   endfacet
   facet normal 1.000000e+000 1.321860e-018 1.662195e-019
      outer loop
         vertex 1.314449e+001 1.371835e+003 3.134408e+002
         vertex 1.314449e+001 1.344946e+003 3.440552e+002
         vertex 1.314449e+001 1.343075e+003 3.400425e+002
      endloop
   endfacet
   facet normal 1.000000e+000 1.321860e-018 1.662195e-019
      outer loop
         vertex 1.314449e+001 1.312130e+003 8.665898e+001
         vertex 1.314449e+001 1.328104e+003 1.225903e+002
         vertex 1.314449e+001 1.321078e+003 3.273425e+002
      endloop
   endfacet
   facet normal 1.000000e+000 1.321860e-018 1.662195e-019
      outer loop
         vertex 1.314449e+001 1.321078e+003 3.273425e+002
         vertex 1.314449e+001 1.328104e+003 1.225903e+002
         vertex 1.314449e+001 1.341733e+003 1.594746e+002
      endloop
   endfacet
   facet normal 1.000000e+000 1.321860e-018 1.662195e-019
      outer loop
         vertex 1.314449e+001 1.321078e+003 3.273425e+002
         vertex 1.314449e+001 1.341733e+003 1.594746e+002
         vertex 1.314449e+001 1.325488e+003 3.277284e+002
      endloop
   endfacet
   facet normal 1.000000e+000 1.321860e-018 1.662195e-019
      outer loop
         vertex 1.314449e+001 1.325488e+003 3.277284e+002
         vertex 1.314449e+001 1.341733e+003 1.594746e+002
         vertex 1.314449e+001 1.352963e+003 1.971591e+002
      endloop
   endfacet
   facet normal 1.000000e+000 1.321860e-018 1.662195e-019
      outer loop
         vertex 1.314449e+001 1.325488e+003 3.277284e+002
         vertex 1.314449e+001 1.352963e+003 1.971591e+002
         vertex 1.314449e+001 1.329765e+003 3.288743e+002
      endloop
   endfacet
   facet normal 1.000000e+000 1.321860e-018 1.662195e-019
      outer loop
         vertex 1.314449e+001 1.329765e+003 3.288743e+002
         vertex 1.314449e+001 1.352963e+003 1.971591e+002
         vertex 1.314449e+001 1.361745e+003 2.354877e+002
      endloop
   endfacet
   facet normal 1.000000e+000 1.321860e-018 1.662195e-019
      outer loop
         vertex 1.314449e+001 1.329765e+003 3.288743e+002
         vertex 1.314449e+001 1.361745e+003 2.354877e+002
         vertex 1.314449e+001 1.333778e+003 3.307455e+002
      endloop
   endfacet
   facet normal 1.000000e+000 1.321860e-018 1.662195e-019
      outer loop
         vertex 1.314449e+001 1.333778e+003 3.307455e+002
         vertex 1.314449e+001 1.361745e+003 2.354877e+002
         vertex 1.314449e+001 1.368045e+003 2.743019e+002
      endloop
   endfacet
   facet normal 1.000000e+000 1.321860e-018 1.662195e-019
      outer loop
         vertex 1.314449e+001 1.333778e+003 3.307455e+002
         vertex 1.314449e+001 1.368045e+003 2.743019e+002
         vertex 1.314449e+001 1.337405e+003 3.332850e+002
      endloop
   endfacet
   facet normal 1.000000e+000 1.321860e-018 1.662195e-019
      outer loop
         vertex 1.314449e+001 1.337405e+003 3.332850e+002
         vertex 1.314449e+001 1.368045e+003 2.743019e+002
         vertex 1.314449e+001 1.340535e+003 3.364157e+002
      endloop
   endfacet
   facet normal 1.000000e+000 1.321860e-018 1.662195e-019
      outer loop
         vertex 1.314449e+001 1.269403e+003 1.511741e+001
         vertex 1.314449e+001 1.270589e+003 1.563770e+001
         vertex 1.314449e+001 1.273425e+003 1.824564e+001
      endloop
   endfacet
   facet normal 1.000000e+000 1.321860e-018 1.662195e-019
      outer loop
         vertex 1.314449e+001 1.273425e+003 1.824564e+001
         vertex 1.314449e+001 1.270589e+003 1.563770e+001
         vertex 1.314449e+001 1.271675e+003 1.634613e+001
      endloop
   endfacet
   facet normal 1.000000e+000 1.321860e-018 1.662195e-019
      outer loop
         vertex 1.314449e+001 1.273425e+003 1.824564e+001
         vertex 1.314449e+001 1.271675e+003 1.634613e+001
         vertex 1.314449e+001 1.272628e+003 1.722342e+001
      endloop
   endfacet
   facet normal 1.000000e+000 1.321860e-018 1.662195e-019
      outer loop
         vertex 1.314449e+001 1.312130e+003 6.188260e+002
         vertex 1.314449e+001 1.316667e+003 3.777566e+002
         vertex 1.314449e+001 1.328104e+003 5.828947e+002
      endloop
   endfacet
   facet normal 1.000000e+000 1.321860e-018 1.662195e-019
      outer loop
         vertex 1.314449e+001 1.328104e+003 5.828947e+002
         vertex 1.314449e+001 1.316667e+003 3.777566e+002
         vertex 1.314449e+001 1.321078e+003 3.781425e+002
      endloop
   endfacet
   facet normal 1.000000e+000 1.321860e-018 1.662195e-019
      outer loop
         vertex 1.314449e+001 1.328104e+003 5.828947e+002
         vertex 1.314449e+001 1.321078e+003 3.781425e+002
         vertex 1.314449e+001 1.341733e+003 5.460104e+002
      endloop
   endfacet
   facet normal 1.000000e+000 1.321860e-018 1.662195e-019
      outer loop
         vertex 1.314449e+001 1.341733e+003 5.460104e+002
         vertex 1.314449e+001 1.321078e+003 3.781425e+002
         vertex 1.314449e+001 1.352963e+003 5.083259e+002
      endloop
   endfacet
   facet normal 1.000000e+000 1.321860e-018 1.662195e-019
      outer loop
         vertex 1.314449e+001 1.352963e+003 5.083259e+002
         vertex 1.314449e+001 1.321078e+003 3.781425e+002
         vertex 1.314449e+001 1.325488e+003 3.777566e+002
      endloop
   endfacet
   facet normal 1.000000e+000 1.321860e-018 1.662195e-019
      outer loop
         vertex 1.314449e+001 1.352963e+003 5.083259e+002
         vertex 1.314449e+001 1.325488e+003 3.777566e+002
         vertex 1.314449e+001 1.361745e+003 4.699972e+002
      endloop
   endfacet
   facet normal 1.000000e+000 1.321860e-018 1.662195e-019
      outer loop
         vertex 1.314449e+001 1.361745e+003 4.699972e+002
         vertex 1.314449e+001 1.325488e+003 3.777566e+002
         vertex 1.314449e+001 1.329765e+003 3.766107e+002
      endloop
   endfacet
   facet normal 1.000000e+000 1.321860e-018 1.662195e-019
      outer loop
         vertex 1.314449e+001 1.361745e+003 4.699972e+002
         vertex 1.314449e+001 1.329765e+003 3.766107e+002
         vertex 1.314449e+001 1.368045e+003 4.311831e+002
      endloop
   endfacet
   facet normal 1.000000e+000 1.321860e-018 1.662195e-019
      outer loop
         vertex 1.314449e+001 1.329765e+003 3.766107e+002
         vertex 1.314449e+001 1.333778e+003 3.747395e+002
         vertex 1.314449e+001 1.368045e+003 4.311831e+002
      endloop
   endfacet
   facet normal 1.000000e+000 1.321860e-018 1.662195e-019
      outer loop
         vertex 1.314449e+001 1.368045e+003 4.311831e+002
         vertex 1.314449e+001 1.333778e+003 3.747395e+002
         vertex 1.314449e+001 1.337405e+003 3.722000e+002
      endloop
   endfacet
   facet normal 1.000000e+000 1.321860e-018 1.662195e-019
      outer loop
         vertex 1.314449e+001 1.368045e+003 4.311831e+002
         vertex 1.314449e+001 1.337405e+003 3.722000e+002
         vertex 1.314449e+001 1.371835e+003 3.920442e+002
      endloop
   endfacet
   facet normal 1.000000e+000 1.321860e-018 1.662195e-019
      outer loop
         vertex 1.314449e+001 1.371835e+003 3.920442e+002
         vertex 1.314449e+001 1.337405e+003 3.722000e+002
         vertex 1.314449e+001 1.340535e+003 3.690693e+002
      endloop
   endfacet
   facet normal 1.000000e+000 1.321860e-018 1.662195e-019
      outer loop
         vertex 1.314449e+001 1.371835e+003 3.920442e+002
         vertex 1.314449e+001 1.340535e+003 3.690693e+002
         vertex 1.314449e+001 1.343075e+003 3.654425e+002
      endloop
   endfacet
   facet normal 1.000000e+000 1.321860e-018 1.662195e-019
      outer loop
         vertex 1.314449e+001 1.312130e+003 6.188260e+002
         vertex 1.314449e+001 1.293878e+003 6.536556e+002
         vertex 1.314449e+001 1.316667e+003 3.777566e+002
      endloop
   endfacet
   facet normal 1.000000e+000 1.321860e-018 1.662195e-019
      outer loop
         vertex 1.314449e+001 1.316667e+003 3.777566e+002
         vertex 1.314449e+001 1.293878e+003 6.536556e+002
         vertex 1.314449e+001 1.266855e+003 6.907925e+002
      endloop
   endfacet
   facet normal 1.000000e+000 1.321860e-018 1.662195e-019
      outer loop
         vertex 1.314449e+001 1.316667e+003 3.777566e+002
         vertex 1.314449e+001 1.266855e+003 6.907925e+002
         vertex 1.314449e+001 1.312391e+003 3.766107e+002
      endloop
   endfacet
   facet normal 1.000000e+000 1.321860e-018 1.662195e-019
      outer loop
         vertex 1.314449e+001 1.312391e+003 3.766107e+002
         vertex 1.314449e+001 1.266855e+003 6.907925e+002
         vertex 1.314449e+001 1.219478e+003 6.907925e+002
      endloop
   endfacet
   facet normal 1.000000e+000 1.321860e-018 1.662195e-019
      outer loop
         vertex 1.314449e+001 1.312391e+003 3.766107e+002
         vertex 1.314449e+001 1.219478e+003 6.907925e+002
         vertex 1.314449e+001 1.308378e+003 3.747395e+002
      endloop
   endfacet
   facet normal 1.000000e+000 1.321860e-018 1.662195e-019
      outer loop
         vertex 1.314449e+001 1.308378e+003 3.747395e+002
         vertex 1.314449e+001 1.219478e+003 6.907925e+002
         vertex 1.314449e+001 1.304751e+003 3.722000e+002
      endloop
   endfacet
   facet normal 1.000000e+000 1.321860e-018 1.662195e-019
      outer loop
         vertex 1.314449e+001 1.270589e+003 6.898473e+002
         vertex 1.314449e+001 1.269403e+003 6.903676e+002
         vertex 1.314449e+001 1.271675e+003 6.891389e+002
      endloop
   endfacet
   facet normal 1.000000e+000 1.321860e-018 1.662195e-019
      outer loop
         vertex 1.314449e+001 1.271675e+003 6.891389e+002
         vertex 1.314449e+001 1.269403e+003 6.903676e+002
         vertex 1.314449e+001 1.272628e+003 6.882616e+002
      endloop
   endfacet
   facet normal 1.000000e+000 1.321860e-018 1.662195e-019
      outer loop
         vertex 1.314449e+001 1.293878e+003 6.536556e+002
         vertex 1.314449e+001 1.273425e+003 6.872393e+002
         vertex 1.314449e+001 1.266855e+003 6.907925e+002
      endloop
   endfacet
   facet normal 1.000000e+000 1.321860e-018 1.662195e-019
      outer loop
         vertex 1.314449e+001 1.266855e+003 6.907925e+002
         vertex 1.314449e+001 1.273425e+003 6.872393e+002
         vertex 1.314449e+001 1.272628e+003 6.882616e+002
      endloop
   endfacet
   facet normal 1.000000e+000 1.321860e-018 1.662195e-019
      outer loop
         vertex 1.314449e+001 1.266855e+003 6.907925e+002
         vertex 1.314449e+001 1.272628e+003 6.882616e+002
         vertex 1.314449e+001 1.268146e+003 6.906855e+002
      endloop
   endfacet
   facet normal 1.000000e+000 1.321860e-018 1.662195e-019
      outer loop
         vertex 1.314449e+001 1.268146e+003 6.906855e+002
         vertex 1.314449e+001 1.272628e+003 6.882616e+002
         vertex 1.314449e+001 1.269403e+003 6.903676e+002
      endloop
   endfacet
   facet normal -1.000000e+000 -1.321860e-018 -1.662195e-019
      outer loop
         vertex 1.164449e+001 1.308378e+003 3.747395e+002
         vertex 1.164449e+001 1.304751e+003 3.722000e+002
         vertex 1.164449e+001 1.219478e+003 6.907925e+002
      endloop
   endfacet
   facet normal -1.000000e+000 -1.321860e-018 -1.662195e-019
      outer loop
         vertex 1.164449e+001 1.219478e+003 6.907925e+002
         vertex 1.164449e+001 1.304751e+003 3.722000e+002
         vertex 1.164449e+001 1.301620e+003 3.690693e+002
      endloop
   endfacet
   facet normal -1.000000e+000 -1.321860e-018 -1.662195e-019
      outer loop
         vertex 1.164449e+001 1.219478e+003 6.907925e+002
         vertex 1.164449e+001 1.301620e+003 3.690693e+002
         vertex 1.164449e+001 1.299081e+003 3.654425e+002
      endloop
   endfacet
   facet normal -1.000000e+000 -1.321860e-018 -1.662195e-019
      outer loop
         vertex 1.164449e+001 1.219478e+003 6.907925e+002
         vertex 1.164449e+001 1.295678e+003 3.527425e+002
         vertex 1.164449e+001 1.219478e+003 1.469249e+001
      endloop
   endfacet
   facet normal -1.000000e+000 -1.321860e-018 -1.662195e-019
      outer loop
         vertex 1.164449e+001 1.219478e+003 1.469249e+001
         vertex 1.164449e+001 1.295678e+003 3.527425e+002
         vertex 1.164449e+001 1.296064e+003 3.483318e+002
      endloop
   endfacet
   facet normal -1.000000e+000 -1.321860e-018 -1.662195e-019
      outer loop
         vertex 1.164449e+001 1.219478e+003 1.469249e+001
         vertex 1.164449e+001 1.296064e+003 3.483318e+002
         vertex 1.164449e+001 1.297210e+003 3.440552e+002
      endloop
   endfacet
   facet normal -1.000000e+000 -1.321860e-018 -1.662195e-019
      outer loop
         vertex 1.164449e+001 1.297210e+003 3.440552e+002
         vertex 1.164449e+001 1.299081e+003 3.400425e+002
         vertex 1.164449e+001 1.219478e+003 1.469249e+001
      endloop
   endfacet
   facet normal -1.000000e+000 -1.321860e-018 -1.662195e-019
      outer loop
         vertex 1.164449e+001 1.219478e+003 1.469249e+001
         vertex 1.164449e+001 1.299081e+003 3.400425e+002
         vertex 1.164449e+001 1.301620e+003 3.364157e+002
      endloop
   endfacet
   facet normal -1.000000e+000 -1.321860e-018 -1.662195e-019
      outer loop
         vertex 1.164449e+001 1.219478e+003 1.469249e+001
         vertex 1.164449e+001 1.301620e+003 3.364157e+002
         vertex 1.164449e+001 1.304751e+003 3.332850e+002
      endloop
   endfacet
   facet normal -1.000000e+000 -1.321860e-018 -1.662195e-019
      outer loop
         vertex 1.164449e+001 1.299081e+003 3.654425e+002
         vertex 1.164449e+001 1.297210e+003 3.614298e+002
         vertex 1.164449e+001 1.219478e+003 6.907925e+002
      endloop
   endfacet
   facet normal -1.000000e+000 -1.321860e-018 -1.662195e-019
      outer loop
         vertex 1.164449e+001 1.219478e+003 6.907925e+002
         vertex 1.164449e+001 1.297210e+003 3.614298e+002
         vertex 1.164449e+001 1.296064e+003 3.571531e+002
      endloop
   endfacet
   facet normal -1.000000e+000 -1.321860e-018 -1.662195e-019
      outer loop
         vertex 1.164449e+001 1.219478e+003 6.907925e+002
         vertex 1.164449e+001 1.296064e+003 3.571531e+002
         vertex 1.164449e+001 1.295678e+003 3.527425e+002
      endloop
   endfacet
   facet normal -1.000000e+000 -1.321860e-018 -1.662195e-019
      outer loop
         vertex 1.164449e+001 1.304751e+003 3.332850e+002
         vertex 1.164449e+001 1.308378e+003 3.307455e+002
         vertex 1.164449e+001 1.219478e+003 1.469249e+001
      endloop
   endfacet
   facet normal -1.000000e+000 -1.321860e-018 -1.662195e-019
      outer loop
         vertex 1.164449e+001 1.219478e+003 1.469249e+001
         vertex 1.164449e+001 1.308378e+003 3.307455e+002
         vertex 1.164449e+001 1.312391e+003 3.288743e+002
      endloop
   endfacet
   facet normal -1.000000e+000 -1.321860e-018 -1.662195e-019
      outer loop
         vertex 1.164449e+001 1.219478e+003 1.469249e+001
         vertex 1.164449e+001 1.312391e+003 3.288743e+002
         vertex 1.164449e+001 1.266855e+003 1.469249e+001
      endloop
   endfacet
   facet normal -1.000000e+000 -1.321860e-018 -1.662195e-019
      outer loop
         vertex 1.164449e+001 1.266855e+003 1.469249e+001
         vertex 1.164449e+001 1.312391e+003 3.288743e+002
         vertex 1.164449e+001 1.316667e+003 3.277284e+002
      endloop
   endfacet
   facet normal -1.000000e+000 -1.321860e-018 -1.662195e-019
      outer loop
         vertex 1.164449e+001 1.341733e+003 1.594746e+002
         vertex 1.164449e+001 1.328104e+003 1.225903e+002
         vertex 1.164449e+001 1.321078e+003 3.273425e+002
      endloop
   endfacet
   facet normal -1.000000e+000 -1.321860e-018 -1.662195e-019
      outer loop
         vertex 1.164449e+001 1.346092e+003 3.483318e+002
         vertex 1.164449e+001 1.346478e+003 3.527425e+002
         vertex 1.164449e+001 1.373100e+003 3.527425e+002
      endloop
   endfacet
   facet normal -1.000000e+000 -1.321860e-018 -1.662195e-019
      outer loop
         vertex 1.164449e+001 1.373100e+003 3.527425e+002
         vertex 1.164449e+001 1.346478e+003 3.527425e+002
         vertex 1.164449e+001 1.346092e+003 3.571531e+002
      endloop
   endfacet
   facet normal -1.000000e+000 -1.321860e-018 -1.662195e-019
      outer loop
         vertex 1.164449e+001 1.373100e+003 3.527425e+002
         vertex 1.164449e+001 1.346092e+003 3.571531e+002
         vertex 1.164449e+001 1.371835e+003 3.920442e+002
      endloop
   endfacet
   facet normal -1.000000e+000 -1.321860e-018 -1.662195e-019
      outer loop
         vertex 1.164449e+001 1.371835e+003 3.920442e+002
         vertex 1.164449e+001 1.346092e+003 3.571531e+002
         vertex 1.164449e+001 1.344946e+003 3.614298e+002
      endloop
   endfacet
   facet normal -1.000000e+000 -1.321860e-018 -1.662195e-019
      outer loop
         vertex 1.164449e+001 1.344946e+003 3.614298e+002
         vertex 1.164449e+001 1.343075e+003 3.654425e+002
         vertex 1.164449e+001 1.371835e+003 3.920442e+002
      endloop
   endfacet
   facet normal -1.000000e+000 -1.321860e-018 -1.662195e-019
      outer loop
         vertex 1.164449e+001 1.371835e+003 3.920442e+002
         vertex 1.164449e+001 1.343075e+003 3.654425e+002
         vertex 1.164449e+001 1.340535e+003 3.690693e+002
      endloop
   endfacet
   facet normal -1.000000e+000 -1.321860e-018 -1.662195e-019
      outer loop
         vertex 1.164449e+001 1.371835e+003 3.920442e+002
         vertex 1.164449e+001 1.340535e+003 3.690693e+002
         vertex 1.164449e+001 1.368045e+003 4.311831e+002
      endloop
   endfacet
   facet normal -1.000000e+000 -1.321860e-018 -1.662195e-019
      outer loop
         vertex 1.164449e+001 1.273425e+003 6.872393e+002
         vertex 1.164449e+001 1.293878e+003 6.536556e+002
         vertex 1.164449e+001 1.316667e+003 3.777566e+002
      endloop
   endfacet
   facet normal -1.000000e+000 -1.321860e-018 -1.662195e-019
      outer loop
         vertex 1.164449e+001 1.316667e+003 3.777566e+002
         vertex 1.164449e+001 1.293878e+003 6.536556e+002
         vertex 1.164449e+001 1.312130e+003 6.188260e+002
      endloop
   endfacet
   facet normal -1.000000e+000 -1.321860e-018 -1.662195e-019
      outer loop
         vertex 1.164449e+001 1.316667e+003 3.777566e+002
         vertex 1.164449e+001 1.312130e+003 6.188260e+002
         vertex 1.164449e+001 1.321078e+003 3.781425e+002
      endloop
   endfacet
   facet normal -1.000000e+000 -1.321860e-018 -1.662195e-019
      outer loop
         vertex 1.164449e+001 1.272628e+003 6.882616e+002
         vertex 1.164449e+001 1.273425e+003 6.872393e+002
         vertex 1.164449e+001 1.266855e+003 6.907925e+002
      endloop
   endfacet
   facet normal -1.000000e+000 -1.321860e-018 -1.662195e-019
      outer loop
         vertex 1.164449e+001 1.266855e+003 6.907925e+002
         vertex 1.164449e+001 1.273425e+003 6.872393e+002
         vertex 1.164449e+001 1.316667e+003 3.777566e+002
      endloop
   endfacet
   facet normal -1.000000e+000 -1.321860e-018 -1.662195e-019
      outer loop
         vertex 1.164449e+001 1.266855e+003 6.907925e+002
         vertex 1.164449e+001 1.316667e+003 3.777566e+002
         vertex 1.164449e+001 1.219478e+003 6.907925e+002
      endloop
   endfacet
   facet normal -1.000000e+000 -1.321860e-018 -1.662195e-019
      outer loop
         vertex 1.164449e+001 1.219478e+003 6.907925e+002
         vertex 1.164449e+001 1.316667e+003 3.777566e+002
         vertex 1.164449e+001 1.312391e+003 3.766107e+002
      endloop
   endfacet
   facet normal -1.000000e+000 -1.321860e-018 -1.662195e-019
      outer loop
         vertex 1.164449e+001 1.219478e+003 6.907925e+002
         vertex 1.164449e+001 1.312391e+003 3.766107e+002
         vertex 1.164449e+001 1.308378e+003 3.747395e+002
      endloop
   endfacet
   facet normal -1.000000e+000 -1.321860e-018 -1.662195e-019
      outer loop
         vertex 1.164449e+001 1.346092e+003 3.483318e+002
         vertex 1.164449e+001 1.373100e+003 3.527425e+002
         vertex 1.164449e+001 1.344946e+003 3.440552e+002
      endloop
   endfacet
   facet normal -1.000000e+000 -1.321860e-018 -1.662195e-019
      outer loop
         vertex 1.164449e+001 1.344946e+003 3.440552e+002
         vertex 1.164449e+001 1.373100e+003 3.527425e+002
         vertex 1.164449e+001 1.371835e+003 3.134408e+002
      endloop
   endfacet
   facet normal -1.000000e+000 -1.321860e-018 -1.662195e-019
      outer loop
         vertex 1.164449e+001 1.344946e+003 3.440552e+002
         vertex 1.164449e+001 1.371835e+003 3.134408e+002
         vertex 1.164449e+001 1.343075e+003 3.400425e+002
      endloop
   endfacet
   facet normal -1.000000e+000 -1.321860e-018 -1.662195e-019
      outer loop
         vertex 1.164449e+001 1.312130e+003 6.188260e+002
         vertex 1.164449e+001 1.328104e+003 5.828947e+002
         vertex 1.164449e+001 1.321078e+003 3.781425e+002
      endloop
   endfacet
   facet normal -1.000000e+000 -1.321860e-018 -1.662195e-019
      outer loop
         vertex 1.164449e+001 1.321078e+003 3.781425e+002
         vertex 1.164449e+001 1.328104e+003 5.828947e+002
         vertex 1.164449e+001 1.341733e+003 5.460104e+002
      endloop
   endfacet
   facet normal -1.000000e+000 -1.321860e-018 -1.662195e-019
      outer loop
         vertex 1.164449e+001 1.321078e+003 3.781425e+002
         vertex 1.164449e+001 1.341733e+003 5.460104e+002
         vertex 1.164449e+001 1.325488e+003 3.777566e+002
      endloop
   endfacet
   facet normal -1.000000e+000 -1.321860e-018 -1.662195e-019
      outer loop
         vertex 1.164449e+001 1.325488e+003 3.777566e+002
         vertex 1.164449e+001 1.341733e+003 5.460104e+002
         vertex 1.164449e+001 1.352963e+003 5.083259e+002
      endloop
   endfacet
   facet normal -1.000000e+000 -1.321860e-018 -1.662195e-019
      outer loop
         vertex 1.164449e+001 1.325488e+003 3.777566e+002
         vertex 1.164449e+001 1.352963e+003 5.083259e+002
         vertex 1.164449e+001 1.329765e+003 3.766107e+002
      endloop
   endfacet
   facet normal -1.000000e+000 -1.321860e-018 -1.662195e-019
      outer loop
         vertex 1.164449e+001 1.329765e+003 3.766107e+002
         vertex 1.164449e+001 1.352963e+003 5.083259e+002
         vertex 1.164449e+001 1.361745e+003 4.699972e+002
      endloop
   endfacet
   facet normal -1.000000e+000 -1.321860e-018 -1.662195e-019
      outer loop
         vertex 1.164449e+001 1.329765e+003 3.766107e+002
         vertex 1.164449e+001 1.361745e+003 4.699972e+002
         vertex 1.164449e+001 1.333778e+003 3.747395e+002
      endloop
   endfacet
   facet normal -1.000000e+000 -1.321860e-018 -1.662195e-019
      outer loop
         vertex 1.164449e+001 1.333778e+003 3.747395e+002
         vertex 1.164449e+001 1.361745e+003 4.699972e+002
         vertex 1.164449e+001 1.368045e+003 4.311831e+002
      endloop
   endfacet
   facet normal -1.000000e+000 -1.321860e-018 -1.662195e-019
      outer loop
         vertex 1.164449e+001 1.333778e+003 3.747395e+002
         vertex 1.164449e+001 1.368045e+003 4.311831e+002
         vertex 1.164449e+001 1.337405e+003 3.722000e+002
      endloop
   endfacet
   facet normal -1.000000e+000 -1.321860e-018 -1.662195e-019
      outer loop
         vertex 1.164449e+001 1.337405e+003 3.722000e+002
         vertex 1.164449e+001 1.368045e+003 4.311831e+002
         vertex 1.164449e+001 1.340535e+003 3.690693e+002
      endloop
   endfacet
   facet normal -1.000000e+000 -1.321860e-018 -1.662195e-019
      outer loop
         vertex 1.164449e+001 1.321078e+003 3.273425e+002
         vertex 1.164449e+001 1.328104e+003 1.225903e+002
         vertex 1.164449e+001 1.316667e+003 3.277284e+002
      endloop
   endfacet
   facet normal -1.000000e+000 -1.321860e-018 -1.662195e-019
      outer loop
         vertex 1.164449e+001 1.266855e+003 6.907925e+002
         vertex 1.164449e+001 1.268146e+003 6.906855e+002
         vertex 1.164449e+001 1.272628e+003 6.882616e+002
      endloop
   endfacet
   facet normal -1.000000e+000 -1.321860e-018 -1.662195e-019
      outer loop
         vertex 1.164449e+001 1.272628e+003 6.882616e+002
         vertex 1.164449e+001 1.268146e+003 6.906855e+002
         vertex 1.164449e+001 1.269403e+003 6.903676e+002
      endloop
   endfacet
   facet normal -1.000000e+000 -1.321860e-018 -1.662195e-019
      outer loop
         vertex 1.164449e+001 1.272628e+003 6.882616e+002
         vertex 1.164449e+001 1.269403e+003 6.903676e+002
         vertex 1.164449e+001 1.271675e+003 6.891389e+002
      endloop
   endfacet
   facet normal -1.000000e+000 -1.321860e-018 -1.662195e-019
      outer loop
         vertex 1.164449e+001 1.271675e+003 6.891389e+002
         vertex 1.164449e+001 1.269403e+003 6.903676e+002
         vertex 1.164449e+001 1.270589e+003 6.898473e+002
      endloop
   endfacet
   facet normal -1.000000e+000 -1.321860e-018 -1.662195e-019
      outer loop
         vertex 1.164449e+001 1.341733e+003 1.594746e+002
         vertex 1.164449e+001 1.321078e+003 3.273425e+002
         vertex 1.164449e+001 1.352963e+003 1.971591e+002
      endloop
   endfacet
   facet normal -1.000000e+000 -1.321860e-018 -1.662195e-019
      outer loop
         vertex 1.164449e+001 1.352963e+003 1.971591e+002
         vertex 1.164449e+001 1.321078e+003 3.273425e+002
         vertex 1.164449e+001 1.325488e+003 3.277284e+002
      endloop
   endfacet
   facet normal -1.000000e+000 -1.321860e-018 -1.662195e-019
      outer loop
         vertex 1.164449e+001 1.352963e+003 1.971591e+002
         vertex 1.164449e+001 1.325488e+003 3.277284e+002
         vertex 1.164449e+001 1.361745e+003 2.354877e+002
      endloop
   endfacet
   facet normal -1.000000e+000 -1.321860e-018 -1.662195e-019
      outer loop
         vertex 1.164449e+001 1.361745e+003 2.354877e+002
         vertex 1.164449e+001 1.325488e+003 3.277284e+002
         vertex 1.164449e+001 1.329765e+003 3.288743e+002
      endloop
   endfacet
   facet normal -1.000000e+000 -1.321860e-018 -1.662195e-019
      outer loop
         vertex 1.164449e+001 1.361745e+003 2.354877e+002
         vertex 1.164449e+001 1.329765e+003 3.288743e+002
         vertex 1.164449e+001 1.368045e+003 2.743019e+002
      endloop
   endfacet
   facet normal -1.000000e+000 -1.321860e-018 -1.662195e-019
      outer loop
         vertex 1.164449e+001 1.329765e+003 3.288743e+002
         vertex 1.164449e+001 1.333778e+003 3.307455e+002
         vertex 1.164449e+001 1.368045e+003 2.743019e+002
      endloop
   endfacet
   facet normal -1.000000e+000 -1.321860e-018 -1.662195e-019
      outer loop
         vertex 1.164449e+001 1.368045e+003 2.743019e+002
         vertex 1.164449e+001 1.333778e+003 3.307455e+002
         vertex 1.164449e+001 1.337405e+003 3.332850e+002
      endloop
   endfacet
   facet normal -1.000000e+000 -1.321860e-018 -1.662195e-019
      outer loop
         vertex 1.164449e+001 1.368045e+003 2.743019e+002
         vertex 1.164449e+001 1.337405e+003 3.332850e+002
         vertex 1.164449e+001 1.371835e+003 3.134408e+002
      endloop
   endfacet
   facet normal -1.000000e+000 -1.321860e-018 -1.662195e-019
      outer loop
         vertex 1.164449e+001 1.371835e+003 3.134408e+002
         vertex 1.164449e+001 1.337405e+003 3.332850e+002
         vertex 1.164449e+001 1.340535e+003 3.364157e+002
      endloop
   endfacet
   facet normal -1.000000e+000 -1.321860e-018 -1.662195e-019
      outer loop
         vertex 1.164449e+001 1.371835e+003 3.134408e+002
         vertex 1.164449e+001 1.340535e+003 3.364157e+002
         vertex 1.164449e+001 1.343075e+003 3.400425e+002
      endloop
   endfacet
   facet normal -1.000000e+000 -1.321860e-018 -1.662195e-019
      outer loop
         vertex 1.164449e+001 1.328104e+003 1.225903e+002
         vertex 1.164449e+001 1.312130e+003 8.665898e+001
         vertex 1.164449e+001 1.316667e+003 3.277284e+002
      endloop
   endfacet
   facet normal -1.000000e+000 -1.321860e-018 -1.662195e-019
      outer loop
         vertex 1.164449e+001 1.316667e+003 3.277284e+002
         vertex 1.164449e+001 1.312130e+003 8.665898e+001
         vertex 1.164449e+001 1.293878e+003 5.182937e+001
      endloop
   endfacet
   facet normal -1.000000e+000 -1.321860e-018 -1.662195e-019
      outer loop
         vertex 1.164449e+001 1.316667e+003 3.277284e+002
         vertex 1.164449e+001 1.293878e+003 5.182937e+001
         vertex 1.164449e+001 1.266855e+003 1.469249e+001
      endloop
   endfacet
   facet normal -1.000000e+000 -1.321860e-018 -1.662195e-019
      outer loop
         vertex 1.164449e+001 1.266855e+003 1.469249e+001
         vertex 1.164449e+001 1.293878e+003 5.182937e+001
         vertex 1.164449e+001 1.273425e+003 1.824564e+001
      endloop
   endfacet
   facet normal -1.000000e+000 -1.321860e-018 -1.662195e-019
      outer loop
         vertex 1.164449e+001 1.266855e+003 1.469249e+001
         vertex 1.164449e+001 1.273425e+003 1.824564e+001
         vertex 1.164449e+001 1.268146e+003 1.479945e+001
      endloop
   endfacet
   facet normal -1.000000e+000 -1.321860e-018 -1.662195e-019
      outer loop
         vertex 1.164449e+001 1.273425e+003 1.824564e+001
         vertex 1.164449e+001 1.272628e+003 1.722342e+001
         vertex 1.164449e+001 1.271675e+003 1.634613e+001
      endloop
   endfacet
   facet normal -1.000000e+000 -1.321860e-018 -1.662195e-019
      outer loop
         vertex 1.164449e+001 1.271675e+003 1.634613e+001
         vertex 1.164449e+001 1.270589e+003 1.563770e+001
         vertex 1.164449e+001 1.273425e+003 1.824564e+001
      endloop
   endfacet
   facet normal -1.000000e+000 -1.321860e-018 -1.662195e-019
      outer loop
         vertex 1.164449e+001 1.273425e+003 1.824564e+001
         vertex 1.164449e+001 1.270589e+003 1.563770e+001
         vertex 1.164449e+001 1.269403e+003 1.511741e+001
      endloop
   endfacet
   facet normal -1.000000e+000 -1.321860e-018 -1.662195e-019
      outer loop
         vertex 1.164449e+001 1.273425e+003 1.824564e+001
         vertex 1.164449e+001 1.269403e+003 1.511741e+001
         vertex 1.164449e+001 1.268146e+003 1.479945e+001
      endloop
   endfacet
   facet normal -2.427114e-019 5.807914e-002 9.983120e-001
      outer loop
         vertex 1.164449e+001 1.316667e+003 3.277284e+002
         vertex 1.314449e+001 1.321078e+003 3.273425e+002
         vertex 1.164449e+001 1.321078e+003 3.273425e+002
      endloop
   endfacet
   facet normal -8.916642e-020 -5.807914e-002 9.983120e-001
      outer loop
         vertex 1.164449e+001 1.321078e+003 3.273425e+002
         vertex 1.314449e+001 1.321078e+003 3.273425e+002
         vertex 1.314449e+001 1.325488e+003 3.277284e+002
      endloop
   endfacet
   facet normal -1.154932e-020 -1.161583e-001 9.932307e-001
      outer loop
         vertex 1.164449e+001 1.321078e+003 3.273425e+002
         vertex 1.314449e+001 1.325488e+003 3.277284e+002
         vertex 1.164449e+001 1.325488e+003 3.277284e+002
      endloop
   endfacet
   facet normal 1.430157e-019 -2.305519e-001 9.730600e-001
      outer loop
         vertex 1.164449e+001 1.325488e+003 3.277284e+002
         vertex 1.314449e+001 1.325488e+003 3.277284e+002
         vertex 1.314449e+001 1.329765e+003 3.288743e+002
      endloop
   endfacet
   facet normal 2.199637e-019 -2.868663e-001 9.579706e-001
      outer loop
         vertex 1.164449e+001 1.325488e+003 3.277284e+002
         vertex 1.314449e+001 1.329765e+003 3.288743e+002
         vertex 1.164449e+001 1.329765e+003 3.288743e+002
      endloop
   endfacet
   facet normal 3.708524e-019 -3.960194e-001 9.182422e-001
      outer loop
         vertex 1.164449e+001 1.329765e+003 3.288743e+002
         vertex 1.314449e+001 1.329765e+003 3.288743e+002
         vertex 1.314449e+001 1.333778e+003 3.307455e+002
      endloop
   endfacet
   facet normal 4.447932e-019 -4.488580e-001 8.936031e-001
      outer loop
         vertex 1.164449e+001 1.329765e+003 3.288743e+002
         vertex 1.314449e+001 1.333778e+003 3.307455e+002
         vertex 1.164449e+001 1.333778e+003 3.307455e+002
      endloop
   endfacet
   facet normal 5.874209e-019 -5.494540e-001 8.355240e-001
      outer loop
         vertex 1.164449e+001 1.333778e+003 3.307455e+002
         vertex 1.314449e+001 1.333778e+003 3.307455e+002
         vertex 1.314449e+001 1.337405e+003 3.332850e+002
      endloop
   endfacet
   facet normal 6.561079e-019 -5.972114e-001 8.020839e-001
      outer loop
         vertex 1.164449e+001 1.333778e+003 3.307455e+002
         vertex 1.314449e+001 1.337405e+003 3.332850e+002
         vertex 1.164449e+001 1.337405e+003 3.332850e+002
      endloop
   endfacet
   facet normal 7.861409e-019 -6.861938e-001 7.274188e-001
      outer loop
         vertex 1.164449e+001 1.337405e+003 3.332850e+002
         vertex 1.314449e+001 1.337405e+003 3.332850e+002
         vertex 1.314449e+001 1.340535e+003 3.364157e+002
      endloop
   endfacet
   facet normal 8.474870e-019 -7.274188e-001 6.861938e-001
      outer loop
         vertex 1.164449e+001 1.337405e+003 3.332850e+002
         vertex 1.314449e+001 1.340535e+003 3.364157e+002
         vertex 1.164449e+001 1.340535e+003 3.364157e+002
      endloop
   endfacet
   facet normal 9.609744e-019 -8.020839e-001 5.972114e-001
      outer loop
         vertex 1.164449e+001 1.340535e+003 3.364157e+002
         vertex 1.314449e+001 1.340535e+003 3.364157e+002
         vertex 1.314449e+001 1.343075e+003 3.400425e+002
      endloop
   endfacet
   facet normal 1.013116e-018 -8.355240e-001 5.494540e-001
      outer loop
         vertex 1.164449e+001 1.340535e+003 3.364157e+002
         vertex 1.314449e+001 1.343075e+003 3.400425e+002
         vertex 1.164449e+001 1.343075e+003 3.400425e+002
      endloop
   endfacet
   facet normal 1.106609e-018 -8.936031e-001 4.488580e-001
      outer loop
         vertex 1.164449e+001 1.343075e+003 3.400425e+002
         vertex 1.314449e+001 1.343075e+003 3.400425e+002
         vertex 1.314449e+001 1.344946e+003 3.440552e+002
      endloop
   endfacet
   facet normal 1.147961e-018 -9.182422e-001 3.960194e-001
      outer loop
         vertex 1.164449e+001 1.343075e+003 3.400425e+002
         vertex 1.314449e+001 1.344946e+003 3.440552e+002
         vertex 1.164449e+001 1.344946e+003 3.440552e+002
      endloop
   endfacet
   facet normal 1.218620e-018 -9.579706e-001 2.868663e-001
      outer loop
         vertex 1.164449e+001 1.344946e+003 3.440552e+002
         vertex 1.314449e+001 1.344946e+003 3.440552e+002
         vertex 1.314449e+001 1.346092e+003 3.483318e+002
      endloop
   endfacet
   facet normal 1.247927e-018 -9.730600e-001 2.305519e-001
      outer loop
         vertex 1.164449e+001 1.344946e+003 3.440552e+002
         vertex 1.314449e+001 1.346092e+003 3.483318e+002
         vertex 1.164449e+001 1.346092e+003 3.483318e+002
      endloop
   endfacet
   facet normal 1.293604e-018 -9.932307e-001 1.161583e-001
      outer loop
         vertex 1.164449e+001 1.346092e+003 3.483318e+002
         vertex 1.314449e+001 1.346092e+003 3.483318e+002
         vertex 1.314449e+001 1.346478e+003 3.527425e+002
      endloop
   endfacet
   facet normal 1.309975e-018 -9.983120e-001 5.807914e-002
      outer loop
         vertex 1.164449e+001 1.346092e+003 3.483318e+002
         vertex 1.314449e+001 1.346478e+003 3.527425e+002
         vertex 1.164449e+001 1.346478e+003 3.527425e+002
      endloop
   endfacet
   facet normal 1.329283e-018 -9.983120e-001 -5.807914e-002
      outer loop
         vertex 1.164449e+001 1.346478e+003 3.527425e+002
         vertex 1.314449e+001 1.346478e+003 3.527425e+002
         vertex 1.314449e+001 1.346092e+003 3.571531e+002
      endloop
   endfacet
   facet normal 1.332220e-018 -9.932307e-001 -1.161583e-001
      outer loop
         vertex 1.164449e+001 1.346478e+003 3.527425e+002
         vertex 1.314449e+001 1.346092e+003 3.571531e+002
         vertex 1.164449e+001 1.346092e+003 3.571531e+002
      endloop
   endfacet
   facet normal 1.324571e-018 -9.730600e-001 -2.305519e-001
      outer loop
         vertex 1.164449e+001 1.346092e+003 3.571531e+002
         vertex 1.314449e+001 1.346092e+003 3.571531e+002
         vertex 1.314449e+001 1.344946e+003 3.614298e+002
      endloop
   endfacet
   facet normal 1.313986e-018 -9.579706e-001 -2.868663e-001
      outer loop
         vertex 1.164449e+001 1.346092e+003 3.571531e+002
         vertex 1.314449e+001 1.344946e+003 3.614298e+002
         vertex 1.164449e+001 1.344946e+003 3.614298e+002
      endloop
   endfacet
   facet normal 1.279614e-018 -9.182422e-001 -3.960194e-001
      outer loop
         vertex 1.164449e+001 1.344946e+003 3.614298e+002
         vertex 1.314449e+001 1.344946e+003 3.614298e+002
         vertex 1.314449e+001 1.343075e+003 3.654425e+002
      endloop
   endfacet
   facet normal 1.255827e-018 -8.936031e-001 -4.488580e-001
      outer loop
         vertex 1.164449e+001 1.344946e+003 3.614298e+002
         vertex 1.314449e+001 1.343075e+003 3.654425e+002
         vertex 1.164449e+001 1.343075e+003 3.654425e+002
      endloop
   endfacet
   facet normal 1.195776e-018 -8.355240e-001 -5.494540e-001
      outer loop
         vertex 1.164449e+001 1.343075e+003 3.654425e+002
         vertex 1.314449e+001 1.343075e+003 3.654425e+002
         vertex 1.314449e+001 1.340535e+003 3.690693e+002
      endloop
   endfacet
   facet normal 1.159511e-018 -8.020839e-001 -5.972114e-001
      outer loop
         vertex 1.164449e+001 1.343075e+003 3.654425e+002
         vertex 1.314449e+001 1.340535e+003 3.690693e+002
         vertex 1.164449e+001 1.340535e+003 3.690693e+002
      endloop
   endfacet
   facet normal 1.075605e-018 -7.274188e-001 -6.861938e-001
      outer loop
         vertex 1.164449e+001 1.340535e+003 3.690693e+002
         vertex 1.314449e+001 1.340535e+003 3.690693e+002
         vertex 1.314449e+001 1.337405e+003 3.722000e+002
      endloop
   endfacet
   facet normal 1.027963e-018 -6.861938e-001 -7.274188e-001
      outer loop
         vertex 1.164449e+001 1.340535e+003 3.690693e+002
         vertex 1.314449e+001 1.337405e+003 3.722000e+002
         vertex 1.164449e+001 1.337405e+003 3.722000e+002
      endloop
   endfacet
   facet normal 9.227518e-019 -5.972114e-001 -8.020839e-001
      outer loop
         vertex 1.164449e+001 1.337405e+003 3.722000e+002
         vertex 1.314449e+001 1.337405e+003 3.722000e+002
         vertex 1.314449e+001 1.333778e+003 3.747395e+002
      endloop
   endfacet
   facet normal 8.651817e-019 -5.494540e-001 -8.355240e-001
      outer loop
         vertex 1.164449e+001 1.337405e+003 3.722000e+002
         vertex 1.314449e+001 1.333778e+003 3.747395e+002
         vertex 1.164449e+001 1.333778e+003 3.747395e+002
      endloop
   endfacet
   facet normal 7.418617e-019 -4.488580e-001 -8.936031e-001
      outer loop
         vertex 1.164449e+001 1.333778e+003 3.747395e+002
         vertex 1.314449e+001 1.333778e+003 3.747395e+002
         vertex 1.314449e+001 1.329765e+003 3.766107e+002
      endloop
   endfacet
   facet normal 6.761119e-019 -3.960194e-001 -9.182422e-001
      outer loop
         vertex 1.164449e+001 1.333778e+003 3.747395e+002
         vertex 1.314449e+001 1.329765e+003 3.766107e+002
         vertex 1.164449e+001 1.329765e+003 3.766107e+002
      endloop
   endfacet
   facet normal 5.384305e-019 -2.868663e-001 -9.579706e-001
      outer loop
         vertex 1.164449e+001 1.329765e+003 3.766107e+002
         vertex 1.314449e+001 1.329765e+003 3.766107e+002
         vertex 1.314449e+001 1.325488e+003 3.777566e+002
      endloop
   endfacet
   facet normal 4.664988e-019 -2.305519e-001 -9.730600e-001
      outer loop
         vertex 1.164449e+001 1.329765e+003 3.766107e+002
         vertex 1.314449e+001 1.325488e+003 3.777566e+002
         vertex 1.164449e+001 1.325488e+003 3.777566e+002
      endloop
   endfacet
   facet normal 3.186393e-019 -1.161583e-001 -9.932307e-001
      outer loop
         vertex 1.164449e+001 1.325488e+003 3.777566e+002
         vertex 1.314449e+001 1.325488e+003 3.777566e+002
         vertex 1.314449e+001 1.321078e+003 3.781425e+002
      endloop
   endfacet
   facet normal 2.427114e-019 -5.807914e-002 -9.983120e-001
      outer loop
         vertex 1.164449e+001 1.325488e+003 3.777566e+002
         vertex 1.314449e+001 1.321078e+003 3.781425e+002
         vertex 1.164449e+001 1.321078e+003 3.781425e+002
      endloop
   endfacet
   facet normal 8.916642e-020 5.807914e-002 -9.983120e-001
      outer loop
         vertex 1.164449e+001 1.321078e+003 3.781425e+002
         vertex 1.314449e+001 1.321078e+003 3.781425e+002
         vertex 1.314449e+001 1.316667e+003 3.777566e+002
      endloop
   endfacet
   facet normal 1.154932e-020 1.161583e-001 -9.932307e-001
      outer loop
         vertex 1.164449e+001 1.321078e+003 3.781425e+002
         vertex 1.314449e+001 1.316667e+003 3.777566e+002
         vertex 1.164449e+001 1.316667e+003 3.777566e+002
      endloop
   endfacet
   facet normal -1.430157e-019 2.305519e-001 -9.730600e-001
      outer loop
         vertex 1.164449e+001 1.316667e+003 3.777566e+002
         vertex 1.314449e+001 1.316667e+003 3.777566e+002
         vertex 1.314449e+001 1.312391e+003 3.766107e+002
      endloop
   endfacet
   facet normal -2.199637e-019 2.868663e-001 -9.579706e-001
      outer loop
         vertex 1.164449e+001 1.316667e+003 3.777566e+002
         vertex 1.314449e+001 1.312391e+003 3.766107e+002
         vertex 1.164449e+001 1.312391e+003 3.766107e+002
      endloop
   endfacet
   facet normal -3.708524e-019 3.960194e-001 -9.182422e-001
      outer loop
         vertex 1.164449e+001 1.312391e+003 3.766107e+002
         vertex 1.314449e+001 1.312391e+003 3.766107e+002
         vertex 1.314449e+001 1.308378e+003 3.747395e+002
      endloop
   endfacet
   facet normal -4.447932e-019 4.488580e-001 -8.936031e-001
      outer loop
         vertex 1.164449e+001 1.312391e+003 3.766107e+002
         vertex 1.314449e+001 1.308378e+003 3.747395e+002
         vertex 1.164449e+001 1.308378e+003 3.747395e+002
      endloop
   endfacet
   facet normal -5.874209e-019 5.494540e-001 -8.355240e-001
      outer loop
         vertex 1.164449e+001 1.308378e+003 3.747395e+002
         vertex 1.314449e+001 1.308378e+003 3.747395e+002
         vertex 1.314449e+001 1.304751e+003 3.722000e+002
      endloop
   endfacet
   facet normal -6.561079e-019 5.972114e-001 -8.020839e-001
      outer loop
         vertex 1.164449e+001 1.308378e+003 3.747395e+002
         vertex 1.314449e+001 1.304751e+003 3.722000e+002
         vertex 1.164449e+001 1.304751e+003 3.722000e+002
      endloop
   endfacet
   facet normal -7.861409e-019 6.861938e-001 -7.274188e-001
      outer loop
         vertex 1.164449e+001 1.304751e+003 3.722000e+002
         vertex 1.314449e+001 1.304751e+003 3.722000e+002
         vertex 1.314449e+001 1.301620e+003 3.690693e+002
      endloop
   endfacet
   facet normal -8.474870e-019 7.274188e-001 -6.861938e-001
      outer loop
         vertex 1.164449e+001 1.304751e+003 3.722000e+002
         vertex 1.314449e+001 1.301620e+003 3.690693e+002
         vertex 1.164449e+001 1.301620e+003 3.690693e+002
      endloop
   endfacet
   facet normal -9.609744e-019 8.020839e-001 -5.972114e-001
      outer loop
         vertex 1.164449e+001 1.301620e+003 3.690693e+002
         vertex 1.314449e+001 1.301620e+003 3.690693e+002
         vertex 1.314449e+001 1.299081e+003 3.654425e+002
      endloop
   endfacet
   facet normal -1.013116e-018 8.355240e-001 -5.494540e-001
      outer loop
         vertex 1.164449e+001 1.301620e+003 3.690693e+002
         vertex 1.314449e+001 1.299081e+003 3.654425e+002
         vertex 1.164449e+001 1.299081e+003 3.654425e+002
      endloop
   endfacet
   facet normal -1.106609e-018 8.936031e-001 -4.488580e-001
      outer loop
         vertex 1.164449e+001 1.299081e+003 3.654425e+002
         vertex 1.314449e+001 1.299081e+003 3.654425e+002
         vertex 1.314449e+001 1.297210e+003 3.614298e+002
      endloop
   endfacet
   facet normal -1.147961e-018 9.182422e-001 -3.960194e-001
      outer loop
         vertex 1.164449e+001 1.299081e+003 3.654425e+002
         vertex 1.314449e+001 1.297210e+003 3.614298e+002
         vertex 1.164449e+001 1.297210e+003 3.614298e+002
      endloop
   endfacet
   facet normal -1.218620e-018 9.579706e-001 -2.868663e-001
      outer loop
         vertex 1.164449e+001 1.297210e+003 3.614298e+002
         vertex 1.314449e+001 1.297210e+003 3.614298e+002
         vertex 1.314449e+001 1.296064e+003 3.571531e+002
      endloop
   endfacet
   facet normal -1.247927e-018 9.730600e-001 -2.305519e-001
      outer loop
         vertex 1.164449e+001 1.297210e+003 3.614298e+002
         vertex 1.314449e+001 1.296064e+003 3.571531e+002
         vertex 1.164449e+001 1.296064e+003 3.571531e+002
      endloop
   endfacet
   facet normal -1.293604e-018 9.932307e-001 -1.161583e-001
      outer loop
         vertex 1.164449e+001 1.296064e+003 3.571531e+002
         vertex 1.314449e+001 1.296064e+003 3.571531e+002
         vertex 1.314449e+001 1.295678e+003 3.527425e+002
      endloop
   endfacet
   facet normal -1.309975e-018 9.983120e-001 -5.807914e-002
      outer loop
         vertex 1.164449e+001 1.296064e+003 3.571531e+002
         vertex 1.314449e+001 1.295678e+003 3.527425e+002
         vertex 1.164449e+001 1.295678e+003 3.527425e+002
      endloop
   endfacet
   facet normal -1.329283e-018 9.983120e-001 5.807914e-002
      outer loop
         vertex 1.164449e+001 1.295678e+003 3.527425e+002
         vertex 1.314449e+001 1.295678e+003 3.527425e+002
         vertex 1.314449e+001 1.296064e+003 3.483318e+002
      endloop
   endfacet
   facet normal -1.332220e-018 9.932307e-001 1.161583e-001
      outer loop
         vertex 1.164449e+001 1.295678e+003 3.527425e+002
         vertex 1.314449e+001 1.296064e+003 3.483318e+002
         vertex 1.164449e+001 1.296064e+003 3.483318e+002
      endloop
   endfacet
   facet normal -1.324571e-018 9.730600e-001 2.305519e-001
      outer loop
         vertex 1.164449e+001 1.296064e+003 3.483318e+002
         vertex 1.314449e+001 1.296064e+003 3.483318e+002
         vertex 1.314449e+001 1.297210e+003 3.440552e+002
      endloop
   endfacet
   facet normal -1.313986e-018 9.579706e-001 2.868663e-001
      outer loop
         vertex 1.164449e+001 1.296064e+003 3.483318e+002
         vertex 1.314449e+001 1.297210e+003 3.440552e+002
         vertex 1.164449e+001 1.297210e+003 3.440552e+002
      endloop
   endfacet
   facet normal -1.279614e-018 9.182422e-001 3.960194e-001
      outer loop
         vertex 1.164449e+001 1.297210e+003 3.440552e+002
         vertex 1.314449e+001 1.297210e+003 3.440552e+002
         vertex 1.314449e+001 1.299081e+003 3.400425e+002
      endloop
   endfacet
   facet normal -1.255827e-018 8.936031e-001 4.488580e-001
      outer loop
         vertex 1.164449e+001 1.297210e+003 3.440552e+002
         vertex 1.314449e+001 1.299081e+003 3.400425e+002
         vertex 1.164449e+001 1.299081e+003 3.400425e+002
      endloop
   endfacet
   facet normal -1.195776e-018 8.355240e-001 5.494540e-001
      outer loop
         vertex 1.164449e+001 1.299081e+003 3.400425e+002
         vertex 1.314449e+001 1.299081e+003 3.400425e+002
         vertex 1.314449e+001 1.301620e+003 3.364157e+002
      endloop
   endfacet
   facet normal -1.159511e-018 8.020839e-001 5.972114e-001
      outer loop
         vertex 1.164449e+001 1.299081e+003 3.400425e+002
         vertex 1.314449e+001 1.301620e+003 3.364157e+002
         vertex 1.164449e+001 1.301620e+003 3.364157e+002
      endloop
   endfacet
   facet normal -1.075605e-018 7.274188e-001 6.861938e-001
      outer loop
         vertex 1.164449e+001 1.301620e+003 3.364157e+002
         vertex 1.314449e+001 1.301620e+003 3.364157e+002
         vertex 1.314449e+001 1.304751e+003 3.332850e+002
      endloop
   endfacet
   facet normal -1.027963e-018 6.861938e-001 7.274188e-001
      outer loop
         vertex 1.164449e+001 1.301620e+003 3.364157e+002
         vertex 1.314449e+001 1.304751e+003 3.332850e+002
         vertex 1.164449e+001 1.304751e+003 3.332850e+002
      endloop
   endfacet
   facet normal -9.227518e-019 5.972114e-001 8.020839e-001
      outer loop
         vertex 1.164449e+001 1.304751e+003 3.332850e+002
         vertex 1.314449e+001 1.304751e+003 3.332850e+002
         vertex 1.314449e+001 1.308378e+003 3.307455e+002
      endloop
   endfacet
   facet normal -8.651817e-019 5.494540e-001 8.355240e-001
      outer loop
         vertex 1.164449e+001 1.304751e+003 3.332850e+002
         vertex 1.314449e+001 1.308378e+003 3.307455e+002
         vertex 1.164449e+001 1.308378e+003 3.307455e+002
      endloop
   endfacet
   facet normal -7.418617e-019 4.488580e-001 8.936031e-001
      outer loop
         vertex 1.164449e+001 1.308378e+003 3.307455e+002
         vertex 1.314449e+001 1.308378e+003 3.307455e+002
         vertex 1.314449e+001 1.312391e+003 3.288743e+002
      endloop
   endfacet
   facet normal -6.761119e-019 3.960194e-001 9.182422e-001
      outer loop
         vertex 1.164449e+001 1.308378e+003 3.307455e+002
         vertex 1.314449e+001 1.312391e+003 3.288743e+002
         vertex 1.164449e+001 1.312391e+003 3.288743e+002
      endloop
   endfacet
   facet normal -5.384305e-019 2.868663e-001 9.579706e-001
      outer loop
         vertex 1.164449e+001 1.312391e+003 3.288743e+002
         vertex 1.314449e+001 1.312391e+003 3.288743e+002
         vertex 1.314449e+001 1.316667e+003 3.277284e+002
      endloop
   endfacet
   facet normal -4.664988e-019 2.305519e-001 9.730600e-001
      outer loop
         vertex 1.164449e+001 1.312391e+003 3.288743e+002
         vertex 1.314449e+001 1.316667e+003 3.277284e+002
         vertex 1.164449e+001 1.316667e+003 3.277284e+002
      endloop
   endfacet
   facet normal -3.186393e-019 1.161583e-001 9.932307e-001
      outer loop
         vertex 1.164449e+001 1.316667e+003 3.277284e+002
         vertex 1.314449e+001 1.316667e+003 3.277284e+002
         vertex 1.314449e+001 1.321078e+003 3.273425e+002
      endloop
   endfacet
endsolid