solid FPM - SideLow-2 601-PlateCurved-1
   facet normal -5.228807e-002 9.986320e-001 0.000000e+000
      outer loop
         vertex 1.025570e+002 9.638160e+002 5.140425e+002
         vertex 1.025570e+002 9.638160e+002 1.838425e+002
         vertex 9.334221e+001 9.630908e+002 1.838425e+002
      endloop
   endfacet
   facet normal -1.045761e-001 9.945169e-001 0.000000e+000
      outer loop
         vertex 1.025570e+002 9.638160e+002 5.140425e+002
         vertex 9.334221e+001 9.630908e+002 1.838425e+002
         vertex 9.334221e+001 9.630908e+002 5.140425e+002
      endloop
   endfacet
   facet normal -2.078648e-001 9.781576e-001 0.000000e+000
      outer loop
         vertex 9.334221e+001 9.630908e+002 5.140425e+002
         vertex 9.334221e+001 9.630908e+002 1.838425e+002
         vertex 8.435430e+001 9.609330e+002 1.838425e+002
      endloop
   endfacet
   facet normal -2.588654e-001 9.659134e-001 0.000000e+000
      outer loop
         vertex 9.334221e+001 9.630908e+002 5.140425e+002
         vertex 8.435430e+001 9.609330e+002 1.838425e+002
         vertex 8.435430e+001 9.609330e+002 5.140425e+002
      endloop
   endfacet
   facet normal -3.583232e-001 9.335976e-001 0.000000e+000
      outer loop
         vertex 8.435430e+001 9.609330e+002 5.140425e+002
         vertex 8.435430e+001 9.609330e+002 1.838425e+002
         vertex 7.581463e+001 9.573957e+002 1.838425e+002
      endloop
   endfacet
   facet normal -4.067805e-001 9.135259e-001 0.000000e+000
      outer loop
         vertex 8.435430e+001 9.609330e+002 5.140425e+002
         vertex 7.581463e+001 9.573957e+002 1.838425e+002
         vertex 7.581463e+001 9.573957e+002 5.140425e+002
      endloop
   endfacet
   facet normal -4.999584e-001 8.660494e-001 0.000000e+000
      outer loop
         vertex 7.581463e+001 9.573957e+002 5.140425e+002
         vertex 7.581463e+001 9.573957e+002 1.838425e+002
         vertex 6.793340e+001 9.525661e+002 1.838425e+002
      endloop
   endfacet
   facet normal -5.446792e-001 8.386444e-001 0.000000e+000
      outer loop
         vertex 7.581463e+001 9.573957e+002 5.140425e+002
         vertex 6.793340e+001 9.525661e+002 1.838425e+002
         vertex 6.793340e+001 9.525661e+002 5.140425e+002
      endloop
   endfacet
   facet normal -6.292831e-001 7.771761e-001 0.000000e+000
      outer loop
         vertex 6.793340e+001 9.525661e+002 5.140425e+002
         vertex 6.793340e+001 9.525661e+002 1.838425e+002
         vertex 6.090476e+001 9.465630e+002 1.838425e+002
      endloop
   endfacet
   facet normal -6.691663e-001 7.431127e-001 0.000000e+000
      outer loop
         vertex 6.793340e+001 9.525661e+002 5.140425e+002
         vertex 6.090476e+001 9.465630e+002 1.838425e+002
         vertex 6.090476e+001 9.465630e+002 5.140425e+002
      endloop
   endfacet
   facet normal -7.071068e-001 -7.071068e-001 0.000000e+000
      outer loop
         vertex 6.196542e+001 9.455024e+002 5.140425e+002
         vertex 6.090476e+001 9.465630e+002 5.140425e+002
         vertex 6.196542e+001 9.455024e+002 1.838425e+002
      endloop
   endfacet
   facet normal -7.071068e-001 -7.071068e-001 0.000000e+000
      outer loop
         vertex 6.196542e+001 9.455024e+002 1.838425e+002
         vertex 6.090476e+001 9.465630e+002 5.140425e+002
         vertex 6.090476e+001 9.465630e+002 1.838425e+002
      endloop
   endfacet
   facet normal 6.691663e-001 -7.431127e-001 0.000000e+000
      outer loop
         vertex 6.196542e+001 9.455024e+002 5.140425e+002
         vertex 6.196542e+001 9.455024e+002 1.838425e+002
         vertex 6.881507e+001 9.513525e+002 1.838425e+002
      endloop
   endfacet
   facet normal 6.292831e-001 -7.771761e-001 0.000000e+000
      outer loop
         vertex 6.196542e+001 9.455024e+002 5.140425e+002
         vertex 6.881507e+001 9.513525e+002 1.838425e+002
         vertex 6.881507e+001 9.513525e+002 5.140425e+002
      endloop
   endfacet
   facet normal 5.446792e-001 -8.386444e-001 0.000000e+000
      outer loop
         vertex 6.881507e+001 9.513525e+002 5.140425e+002
         vertex 6.881507e+001 9.513525e+002 1.838425e+002
         vertex 7.649561e+001 9.560591e+002 1.838425e+002
      endloop
   endfacet
   facet normal 4.999584e-001 -8.660494e-001 0.000000e+000
      outer loop
         vertex 6.881507e+001 9.513525e+002 5.140425e+002
         vertex 7.649561e+001 9.560591e+002 1.838425e+002
         vertex 7.649561e+001 9.560591e+002 5.140425e+002
      endloop
   endfacet
   facet normal 4.067805e-001 -9.135259e-001 0.000000e+000
      outer loop
         vertex 7.649561e+001 9.560591e+002 5.140425e+002
         vertex 7.649561e+001 9.560591e+002 1.838425e+002
         vertex 8.481779e+001 9.595064e+002 1.838425e+002
      endloop
   endfacet
   facet normal 3.583232e-001 -9.335976e-001 0.000000e+000
      outer loop
         vertex 7.649561e+001 9.560591e+002 5.140425e+002
         vertex 8.481779e+001 9.595064e+002 1.838425e+002
         vertex 8.481779e+001 9.595064e+002 5.140425e+002
      endloop
   endfacet
   facet normal 2.588654e-001 -9.659134e-001 0.000000e+000
      outer loop
         vertex 8.481779e+001 9.595064e+002 5.140425e+002
         vertex 8.481779e+001 9.595064e+002 1.838425e+002
         vertex 9.357687e+001 9.616093e+002 1.838425e+002
      endloop
   endfacet
   facet normal 2.078648e-001 -9.781576e-001 0.000000e+000
      outer loop
         vertex 8.481779e+001 9.595064e+002 5.140425e+002
         vertex 9.357687e+001 9.616093e+002 1.838425e+002
         vertex 9.357687e+001 9.616093e+002 5.140425e+002
      endloop
   endfacet
   facet normal 1.045761e-001 -9.945169e-001 0.000000e+000
      outer loop
         vertex 9.357687e+001 9.616093e+002 5.140425e+002
         vertex 9.357687e+001 9.616093e+002 1.838425e+002
         vertex 1.025570e+002 9.623160e+002 1.838425e+002
      endloop
   endfacet
   facet normal 5.228807e-002 -9.986320e-001 0.000000e+000
      outer loop
         vertex 9.357687e+001 9.616093e+002 5.140425e+002
         vertex 1.025570e+002 9.623160e+002 1.838425e+002
         vertex 1.025570e+002 9.623160e+002 5.140425e+002
      endloop
   endfacet
   facet normal 0.000000e+000 -1.000000e+000 0.000000e+000
      outer loop
         vertex 2.685820e+002 9.623160e+002 5.140425e+002
         vertex 1.025570e+002 9.623160e+002 5.140425e+002
         vertex 2.685820e+002 9.623160e+002 1.838425e+002
      endloop
   endfacet
   facet normal 0.000000e+000 -1.000000e+000 0.000000e+000
      outer loop
         vertex 2.685820e+002 9.623160e+002 1.838425e+002
         vertex 1.025570e+002 9.623160e+002 5.140425e+002
         vertex 1.025570e+002 9.623160e+002 1.838425e+002
      endloop
   endfacet
   facet normal 1.000000e+000 0.000000e+000 0.000000e+000
      outer loop
         vertex 2.685820e+002 9.638160e+002 5.140425e+002
         vertex 2.685820e+002 9.623160e+002 5.140425e+002
         vertex 2.685820e+002 9.638160e+002 1.838425e+002
      endloop
   endfacet
   facet normal 1.000000e+000 0.000000e+000 0.000000e+000
      outer loop
         vertex 2.685820e+002 9.638160e+002 1.838425e+002
         vertex 2.685820e+002 9.623160e+002 5.140425e+002
         vertex 2.685820e+002 9.623160e+002 1.838425e+002
      endloop
   endfacet
   facet normal 0.000000e+000 1.000000e+000 0.000000e+000
      outer loop
         vertex 1.025570e+002 9.638160e+002 5.140425e+002
         vertex 2.685820e+002 9.638160e+002 5.140425e+002
         vertex 1.025570e+002 9.638160e+002 1.838425e+002
      endloop
   endfacet
   facet normal 0.000000e+000 1.000000e+000 0.000000e+000
      outer loop
         vertex 1.025570e+002 9.638160e+002 1.838425e+002
         vertex 2.685820e+002 9.638160e+002 5.140425e+002
         vertex 2.685820e+002 9.638160e+002 1.838425e+002
      endloop
   endfacet
   facet normal 0.000000e+000 0.000000e+000 1.000000e+000
      outer loop
         vertex 2.685820e+002 9.623160e+002 5.140425e+002
         vertex 2.685820e+002 9.638160e+002 5.140425e+002
         vertex 1.025570e+002 9.623160e+002 5.140425e+002
      endloop
   endfacet
   facet normal 0.000000e+000 0.000000e+000 1.000000e+000
      outer loop
         vertex 1.025570e+002 9.623160e+002 5.140425e+002
         vertex 2.685820e+002 9.638160e+002 5.140425e+002
         vertex 1.025570e+002 9.638160e+002 5.140425e+002
      endloop
   endfacet
   facet normal 0.000000e+000 0.000000e+000 1.000000e+000
      outer loop
         vertex 1.025570e+002 9.623160e+002 5.140425e+002
         vertex 1.025570e+002 9.638160e+002 5.140425e+002
         vertex 9.357687e+001 9.616093e+002 5.140425e+002
      endloop
   endfacet
   facet normal 0.000000e+000 0.000000e+000 1.000000e+000
      outer loop
         vertex 9.357687e+001 9.616093e+002 5.140425e+002
         vertex 1.025570e+002 9.638160e+002 5.140425e+002
         vertex 9.334221e+001 9.630908e+002 5.140425e+002
      endloop
   endfacet
   facet normal 0.000000e+000 0.000000e+000 1.000000e+000
      outer loop
         vertex 9.357687e+001 9.616093e+002 5.140425e+002
         vertex 9.334221e+001 9.630908e+002 5.140425e+002
         vertex 8.481779e+001 9.595064e+002 5.140425e+002
      endloop
   endfacet
   facet normal 0.000000e+000 0.000000e+000 1.000000e+000
      outer loop
         vertex 8.481779e+001 9.595064e+002 5.140425e+002
         vertex 9.334221e+001 9.630908e+002 5.140425e+002
         vertex 8.435430e+001 9.609330e+002 5.140425e+002
      endloop
   endfacet
   facet normal 0.000000e+000 0.000000e+000 1.000000e+000
      outer loop
         vertex 8.481779e+001 9.595064e+002 5.140425e+002
         vertex 8.435430e+001 9.609330e+002 5.140425e+002
         vertex 7.649561e+001 9.560591e+002 5.140425e+002
      endloop
   endfacet
   facet normal 0.000000e+000 0.000000e+000 1.000000e+000
      outer loop
         vertex 7.649561e+001 9.560591e+002 5.140425e+002
         vertex 8.435430e+001 9.609330e+002 5.140425e+002
         vertex 7.581463e+001 9.573957e+002 5.140425e+002
      endloop
   endfacet
   facet normal 0.000000e+000 0.000000e+000 1.000000e+000
      outer loop
         vertex 7.649561e+001 9.560591e+002 5.140425e+002
         vertex 7.581463e+001 9.573957e+002 5.140425e+002
         vertex 6.881507e+001 9.513525e+002 5.140425e+002
      endloop
   endfacet
   facet normal 0.000000e+000 0.000000e+000 1.000000e+000
      outer loop
         vertex 6.881507e+001 9.513525e+002 5.140425e+002
         vertex 7.581463e+001 9.573957e+002 5.140425e+002
         vertex 6.793340e+001 9.525661e+002 5.140425e+002
      endloop
   endfacet
   facet normal 0.000000e+000 0.000000e+000 1.000000e+000
      outer loop
         vertex 6.881507e+001 9.513525e+002 5.140425e+002
         vertex 6.793340e+001 9.525661e+002 5.140425e+002
         vertex 6.196542e+001 9.455024e+002 5.140425e+002
      endloop
   endfacet
   facet normal 0.000000e+000 0.000000e+000 1.000000e+000
      outer loop
         vertex 6.196542e+001 9.455024e+002 5.140425e+002
         vertex 6.793340e+001 9.525661e+002 5.140425e+002
         vertex 6.090476e+001 9.465630e+002 5.140425e+002
      endloop
   endfacet
   facet normal 0.000000e+000 0.000000e+000 -1.000000e+000
      outer loop
         vertex 6.196542e+001 9.455024e+002 1.838425e+002
         vertex 6.090476e+001 9.465630e+002 1.838425e+002
         vertex 6.881507e+001 9.513525e+002 1.838425e+002
      endloop
   endfacet
   facet normal 0.000000e+000 0.000000e+000 -1.000000e+000
      outer loop
         vertex 6.881507e+001 9.513525e+002 1.838425e+002
         vertex 6.090476e+001 9.465630e+002 1.838425e+002
         vertex 6.793340e+001 9.525661e+002 1.838425e+002
      endloop
   endfacet
   facet normal 0.000000e+000 0.000000e+000 -1.000000e+000
      outer loop
         vertex 6.881507e+001 9.513525e+002 1.838425e+002
         vertex 6.793340e+001 9.525661e+002 1.838425e+002
         vertex 7.649561e+001 9.560591e+002 1.838425e+002
      endloop
   endfacet
   facet normal 0.000000e+000 0.000000e+000 -1.000000e+000
      outer loop
         vertex 7.649561e+001 9.560591e+002 1.838425e+002
         vertex 6.793340e+001 9.525661e+002 1.838425e+002
         vertex 7.581463e+001 9.573957e+002 1.838425e+002
      endloop
   endfacet
   facet normal 0.000000e+000 0.000000e+000 -1.000000e+000
      outer loop
         vertex 7.649561e+001 9.560591e+002 1.838425e+002
         vertex 7.581463e+001 9.573957e+002 1.838425e+002
         vertex 8.481779e+001 9.595064e+002 1.838425e+002
      endloop
   endfacet
   facet normal 0.000000e+000 0.000000e+000 -1.000000e+000
      outer loop
         vertex 8.481779e+001 9.595064e+002 1.838425e+002
         vertex 7.581463e+001 9.573957e+002 1.838425e+002
         vertex 8.435430e+001 9.609330e+002 1.838425e+002
      endloop
   endfacet
   facet normal 0.000000e+000 0.000000e+000 -1.000000e+000
      outer loop
         vertex 8.481779e+001 9.595064e+002 1.838425e+002
         vertex 8.435430e+001 9.609330e+002 1.838425e+002
         vertex 9.357687e+001 9.616093e+002 1.838425e+002
      endloop
   endfacet
   facet normal 0.000000e+000 0.000000e+000 -1.000000e+000
      outer loop
         vertex 9.357687e+001 9.616093e+002 1.838425e+002
         vertex 8.435430e+001 9.609330e+002 1.838425e+002
         vertex 9.334221e+001 9.630908e+002 1.838425e+002
      endloop
   endfacet
   facet normal 0.000000e+000 0.000000e+000 -1.000000e+000
      outer loop
         vertex 9.357687e+001 9.616093e+002 1.838425e+002
         vertex 9.334221e+001 9.630908e+002 1.838425e+002
         vertex 1.025570e+002 9.623160e+002 1.838425e+002
      endloop
   endfacet
   facet normal 0.000000e+000 0.000000e+000 -1.000000e+000
      outer loop
         vertex 1.025570e+002 9.623160e+002 1.838425e+002
         vertex 9.334221e+001 9.630908e+002 1.838425e+002
         vertex 1.025570e+002 9.638160e+002 1.838425e+002
      endloop
   endfacet
   facet normal 0.000000e+000 0.000000e+000 -1.000000e+000
      outer loop
         vertex 1.025570e+002 9.623160e+002 1.838425e+002
         vertex 1.025570e+002 9.638160e+002 1.838425e+002
         vertex 2.685820e+002 9.623160e+002 1.838425e+002
      endloop
   endfacet
   facet normal 0.000000e+000 0.000000e+000 -1.000000e+000
      outer loop
         vertex 2.685820e+002 9.623160e+002 1.838425e+002
         vertex 1.025570e+002 9.638160e+002 1.838425e+002
         vertex 2.685820e+002 9.638160e+002 1.838425e+002
      endloop
   endfacet
endsolid