solid FPM - SideTop-2 704-PlateBottom-1
   facet normal -1.000000e+000 2.275957e-015 2.151844e-016
      outer loop
         vertex 1.104657e+003 1.170014e+003 5.185925e+002
         vertex 1.104657e+003 1.170014e+003 1.868925e+002
         vertex 1.104657e+003 1.168514e+003 5.185925e+002
      endloop
   endfacet
   facet normal -1.000000e+000 2.275957e-015 2.151844e-016
      outer loop
         vertex 1.104657e+003 1.168514e+003 5.185925e+002
         vertex 1.104657e+003 1.170014e+003 1.868925e+002
         vertex 1.104657e+003 1.168514e+003 1.868925e+002
      endloop
   endfacet
   facet normal 4.783088e-017 -1.402103e-027 1.000000e+000
      outer loop
         vertex 1.230907e+003 1.170014e+003 5.185925e+002
         vertex 1.104657e+003 1.170014e+003 5.185925e+002
         vertex 1.230907e+003 1.168514e+003 5.185925e+002
      endloop
   endfacet
   facet normal 4.783088e-017 -1.402103e-027 1.000000e+000
      outer loop
         vertex 1.230907e+003 1.168514e+003 5.185925e+002
         vertex 1.104657e+003 1.170014e+003 5.185925e+002
         vertex 1.104657e+003 1.168514e+003 5.185925e+002
      endloop
   endfacet
   facet normal 1.000000e+000 -2.275957e-015 -4.783088e-017
      outer loop
         vertex 1.230907e+003 1.170014e+003 1.868925e+002
         vertex 1.230907e+003 1.170014e+003 5.185925e+002
         vertex 1.230907e+003 1.168514e+003 1.868925e+002
      endloop
   endfacet
   facet normal 1.000000e+000 -2.275957e-015 -4.783088e-017
      outer loop
         vertex 1.230907e+003 1.168514e+003 1.868925e+002
         vertex 1.230907e+003 1.170014e+003 5.185925e+002
         vertex 1.230907e+003 1.168514e+003 5.185925e+002
      endloop
   endfacet
   facet normal -4.783088e-017 1.402103e-027 -1.000000e+000
      outer loop
         vertex 1.104657e+003 1.170014e+003 1.868925e+002
         vertex 1.230907e+003 1.170014e+003 1.868925e+002
         vertex 1.104657e+003 1.168514e+003 1.868925e+002
      endloop
   endfacet
   facet normal -4.783088e-017 1.402103e-027 -1.000000e+000
      outer loop
         vertex 1.104657e+003 1.168514e+003 1.868925e+002
         vertex 1.230907e+003 1.170014e+003 1.868925e+002
         vertex 1.230907e+003 1.168514e+003 1.868925e+002
      endloop
   endfacet
   facet normal 2.220446e-015 1.000000e+000 1.402006e-027
      outer loop
         vertex 1.230907e+003 1.170014e+003 5.185925e+002
         vertex 1.230907e+003 1.170014e+003 1.868925e+002
         vertex 1.104657e+003 1.170014e+003 5.185925e+002
      endloop
   endfacet
   facet normal 2.220446e-015 1.000000e+000 1.402006e-027
      outer loop
         vertex 1.104657e+003 1.170014e+003 5.185925e+002
         vertex 1.230907e+003 1.170014e+003 1.868925e+002
         vertex 1.104657e+003 1.170014e+003 1.868925e+002
      endloop
   endfacet
   facet normal -2.220446e-015 -1.000000e+000 -1.402006e-027
      outer loop
         vertex 1.230907e+003 1.168514e+003 1.868925e+002
         vertex 1.230907e+003 1.168514e+003 5.185925e+002
         vertex 1.104657e+003 1.168514e+003 1.868925e+002
      endloop
   endfacet
   facet normal -2.220446e-015 -1.000000e+000 -1.402006e-027
      outer loop
         vertex 1.104657e+003 1.168514e+003 1.868925e+002
         vertex 1.230907e+003 1.168514e+003 5.185925e+002
         vertex 1.104657e+003 1.168514e+003 5.185925e+002
      endloop
   endfacet
endsolid