solid FPM - SideTop-2 701-PlateCurved-1
   facet normal -1.000000e+000 2.275957e-015 4.783088e-017
      outer loop
         vertex 1.230157e+003 1.168514e+003 1.876425e+002
         vertex 1.230157e+003 1.066914e+003 1.876425e+002
         vertex 1.230157e+003 1.168514e+003 5.178425e+002
      endloop
   endfacet
   facet normal -1.000000e+000 2.275957e-015 4.783088e-017
      outer loop
         vertex 1.230157e+003 1.168514e+003 5.178425e+002
         vertex 1.230157e+003 1.066914e+003 1.876425e+002
         vertex 1.230157e+003 1.066914e+003 5.178425e+002
      endloop
   endfacet
   facet normal 2.220446e-015 1.000000e+000 1.402006e-027
      outer loop
         vertex 1.231657e+003 1.168514e+003 1.876425e+002
         vertex 1.230157e+003 1.168514e+003 1.876425e+002
         vertex 1.231657e+003 1.168514e+003 5.178425e+002
      endloop
   endfacet
   facet normal 2.220446e-015 1.000000e+000 1.402006e-027
      outer loop
         vertex 1.231657e+003 1.168514e+003 5.178425e+002
         vertex 1.230157e+003 1.168514e+003 1.876425e+002
         vertex 1.230157e+003 1.168514e+003 5.178425e+002
      endloop
   endfacet
   facet normal 1.000000e+000 -2.275957e-015 -4.783088e-017
      outer loop
         vertex 1.231657e+003 1.066914e+003 1.876425e+002
         vertex 1.231657e+003 1.168514e+003 1.876425e+002
         vertex 1.231657e+003 1.066914e+003 5.178425e+002
      endloop
   endfacet
   facet normal 1.000000e+000 -2.275957e-015 -4.783088e-017
      outer loop
         vertex 1.231657e+003 1.066914e+003 5.178425e+002
         vertex 1.231657e+003 1.168514e+003 1.876425e+002
         vertex 1.231657e+003 1.168514e+003 5.178425e+002
      endloop
   endfacet
   facet normal 9.990494e-001 -4.359168e-002 -4.778541e-017
      outer loop
         vertex 1.231657e+003 1.066914e+003 1.876425e+002
         vertex 1.231657e+003 1.066914e+003 5.178425e+002
         vertex 1.231005e+003 1.056968e+003 5.178425e+002
      endloop
   endfacet
   facet normal 9.961923e-001 -8.718336e-002 -4.764875e-017
      outer loop
         vertex 1.231657e+003 1.066914e+003 1.876425e+002
         vertex 1.231005e+003 1.056968e+003 5.178425e+002
         vertex 1.231005e+003 1.056968e+003 1.876425e+002
      endloop
   endfacet
   facet normal 9.848126e-001 -1.736209e-001 -4.710445e-017
      outer loop
         vertex 1.231005e+003 1.056968e+003 1.876425e+002
         vertex 1.231005e+003 1.056968e+003 5.178425e+002
         vertex 1.229061e+003 1.047192e+003 5.178425e+002
      endloop
   endfacet
   facet normal 9.762900e-001 -2.164667e-001 -4.669681e-017
      outer loop
         vertex 1.231005e+003 1.056968e+003 1.876425e+002
         vertex 1.229061e+003 1.047192e+003 5.178425e+002
         vertex 1.229061e+003 1.047192e+003 1.876425e+002
      endloop
   endfacet
   facet normal 9.537253e-001 -3.006794e-001 -4.561752e-017
      outer loop
         vertex 1.229061e+003 1.047192e+003 1.876425e+002
         vertex 1.229061e+003 1.047192e+003 5.178425e+002
         vertex 1.225857e+003 1.037753e+003 5.178425e+002
      endloop
   endfacet
   facet normal 9.396831e-001 -3.420462e-001 -4.494587e-017
      outer loop
         vertex 1.229061e+003 1.047192e+003 1.876425e+002
         vertex 1.225857e+003 1.037753e+003 5.178425e+002
         vertex 1.225857e+003 1.037753e+003 1.876425e+002
      endloop
   endfacet
   facet normal 9.063195e-001 -4.225931e-001 -4.335006e-017
      outer loop
         vertex 1.225857e+003 1.037753e+003 1.876425e+002
         vertex 1.225857e+003 1.037753e+003 5.178425e+002
         vertex 1.221448e+003 1.028814e+003 5.178425e+002
      endloop
   endfacet
   facet normal 8.869981e-001 -4.617732e-001 -4.242590e-017
      outer loop
         vertex 1.225857e+003 1.037753e+003 1.876425e+002
         vertex 1.221448e+003 1.028814e+003 5.178425e+002
         vertex 1.221448e+003 1.028814e+003 1.876425e+002
      endloop
   endfacet
   facet normal 8.434063e-001 -5.372763e-001 -4.034086e-017
      outer loop
         vertex 1.221448e+003 1.028814e+003 1.876425e+002
         vertex 1.221448e+003 1.028814e+003 5.178425e+002
         vertex 1.215911e+003 1.020526e+003 5.178425e+002
      endloop
   endfacet
   facet normal 8.191361e-001 -5.735992e-001 -3.918000e-017
      outer loop
         vertex 1.221448e+003 1.028814e+003 1.876425e+002
         vertex 1.215911e+003 1.020526e+003 5.178425e+002
         vertex 1.215911e+003 1.020526e+003 1.876425e+002
      endloop
   endfacet
   facet normal 7.660623e-001 -6.427664e-001 -3.664143e-017
      outer loop
         vertex 1.215911e+003 1.020526e+003 1.876425e+002
         vertex 1.215911e+003 1.020526e+003 5.178425e+002
         vertex 1.209339e+003 1.013032e+003 5.178425e+002
      endloop
   endfacet
   facet normal 7.372586e-001 -6.756107e-001 -3.526373e-017
      outer loop
         vertex 1.215911e+003 1.020526e+003 1.876425e+002
         vertex 1.209339e+003 1.013032e+003 5.178425e+002
         vertex 1.209339e+003 1.013032e+003 1.876425e+002
      endloop
   endfacet
   facet normal 6.756107e-001 -7.372586e-001 -3.231505e-017
      outer loop
         vertex 1.209339e+003 1.013032e+003 1.876425e+002
         vertex 1.209339e+003 1.013032e+003 5.178425e+002
         vertex 1.201845e+003 1.006460e+003 5.178425e+002
      endloop
   endfacet
   facet normal 6.427664e-001 -7.660623e-001 -3.074408e-017
      outer loop
         vertex 1.209339e+003 1.013032e+003 1.876425e+002
         vertex 1.201845e+003 1.006460e+003 5.178425e+002
         vertex 1.201845e+003 1.006460e+003 1.876425e+002
      endloop
   endfacet
   facet normal 5.735992e-001 -8.191361e-001 -2.743575e-017
      outer loop
         vertex 1.201845e+003 1.006460e+003 1.876425e+002
         vertex 1.201845e+003 1.006460e+003 5.178425e+002
         vertex 1.193557e+003 1.000923e+003 5.178425e+002
      endloop
   endfacet
   facet normal 5.372762e-001 -8.434064e-001 -2.569839e-017
      outer loop
         vertex 1.201845e+003 1.006460e+003 1.876425e+002
         vertex 1.193557e+003 1.000923e+003 5.178425e+002
         vertex 1.193557e+003 1.000923e+003 1.876425e+002
      endloop
   endfacet
   facet normal 4.617732e-001 -8.869981e-001 -2.208702e-017
      outer loop
         vertex 1.193557e+003 1.000923e+003 1.876425e+002
         vertex 1.193557e+003 1.000923e+003 5.178425e+002
         vertex 1.184618e+003 9.965144e+002 5.178425e+002
      endloop
   endfacet
   facet normal 4.225931e-001 -9.063195e-001 -2.021300e-017
      outer loop
         vertex 1.193557e+003 1.000923e+003 1.876425e+002
         vertex 1.184618e+003 9.965144e+002 5.178425e+002
         vertex 1.184618e+003 9.965144e+002 1.876425e+002
      endloop
   endfacet
   facet normal 3.420462e-001 -9.396831e-001 -1.636037e-017
      outer loop
         vertex 1.184618e+003 9.965144e+002 1.876425e+002
         vertex 1.184618e+003 9.965144e+002 5.178425e+002
         vertex 1.175179e+003 9.933104e+002 5.178425e+002
      endloop
   endfacet
   facet normal 3.006794e-001 -9.537253e-001 -1.438176e-017
      outer loop
         vertex 1.184618e+003 9.965144e+002 1.876425e+002
         vertex 1.175179e+003 9.933104e+002 5.178425e+002
         vertex 1.175179e+003 9.933104e+002 1.876425e+002
      endloop
   endfacet
   facet normal 2.164667e-001 -9.762900e-001 -1.035379e-017
      outer loop
         vertex 1.175179e+003 9.933104e+002 1.876425e+002
         vertex 1.175179e+003 9.933104e+002 5.178425e+002
         vertex 1.165403e+003 9.913659e+002 5.178425e+002
      endloop
   endfacet
   facet normal 1.736209e-001 -9.848126e-001 -8.304438e-018
      outer loop
         vertex 1.175179e+003 9.933104e+002 1.876425e+002
         vertex 1.165403e+003 9.913659e+002 5.178425e+002
         vertex 1.165403e+003 9.913659e+002 1.876425e+002
      endloop
   endfacet
   facet normal 8.718336e-002 -9.961923e-001 -4.170057e-018
      outer loop
         vertex 1.165403e+003 9.913659e+002 1.876425e+002
         vertex 1.165403e+003 9.913659e+002 5.178425e+002
         vertex 1.155457e+003 9.907140e+002 5.178425e+002
      endloop
   endfacet
   facet normal 4.359168e-002 -9.990494e-001 -2.085028e-018
      outer loop
         vertex 1.165403e+003 9.913659e+002 1.876425e+002
         vertex 1.155457e+003 9.907140e+002 5.178425e+002
         vertex 1.155457e+003 9.907140e+002 1.876425e+002
      endloop
   endfacet
   facet normal -3.496764e-017 -1.000000e+000 -1.402111e-027
      outer loop
         vertex 1.104657e+003 9.907140e+002 1.876425e+002
         vertex 1.155457e+003 9.907140e+002 1.876425e+002
         vertex 1.104657e+003 9.907140e+002 5.178425e+002
      endloop
   endfacet
   facet normal -3.496764e-017 -1.000000e+000 -1.402111e-027
      outer loop
         vertex 1.104657e+003 9.907140e+002 5.178425e+002
         vertex 1.155457e+003 9.907140e+002 1.876425e+002
         vertex 1.155457e+003 9.907140e+002 5.178425e+002
      endloop
   endfacet
   facet normal -1.000000e+000 2.275957e-015 4.783088e-017
      outer loop
         vertex 1.104657e+003 9.922141e+002 1.876425e+002
         vertex 1.104657e+003 9.907140e+002 1.876425e+002
         vertex 1.104657e+003 9.922141e+002 5.178425e+002
      endloop
   endfacet
   facet normal -1.000000e+000 2.275957e-015 4.783088e-017
      outer loop
         vertex 1.104657e+003 9.922141e+002 5.178425e+002
         vertex 1.104657e+003 9.907140e+002 1.876425e+002
         vertex 1.104657e+003 9.907140e+002 5.178425e+002
      endloop
   endfacet
   facet normal 3.496764e-017 1.000000e+000 1.402111e-027
      outer loop
         vertex 1.155457e+003 9.922141e+002 1.876425e+002
         vertex 1.104657e+003 9.922141e+002 1.876425e+002
         vertex 1.155457e+003 9.922141e+002 5.178425e+002
      endloop
   endfacet
   facet normal 3.496764e-017 1.000000e+000 1.402111e-027
      outer loop
         vertex 1.155457e+003 9.922141e+002 5.178425e+002
         vertex 1.104657e+003 9.922141e+002 1.876425e+002
         vertex 1.104657e+003 9.922141e+002 5.178425e+002
      endloop
   endfacet
   facet normal -4.754595e-002 9.988691e-001 2.274164e-018
      outer loop
         vertex 1.155457e+003 9.922141e+002 1.876425e+002
         vertex 1.155457e+003 9.922141e+002 5.178425e+002
         vertex 1.166088e+003 9.929744e+002 5.178425e+002
      endloop
   endfacet
   facet normal -9.509189e-002 9.954685e-001 4.548328e-018
      outer loop
         vertex 1.155457e+003 9.922141e+002 1.876425e+002
         vertex 1.166088e+003 9.929744e+002 5.178425e+002
         vertex 1.166088e+003 9.929744e+002 1.876425e+002
      endloop
   endfacet
   facet normal -1.892159e-001 9.819355e-001 9.050362e-018
      outer loop
         vertex 1.166088e+003 9.929744e+002 1.876425e+002
         vertex 1.166088e+003 9.929744e+002 5.178425e+002
         vertex 1.176502e+003 9.952399e+002 5.178425e+002
      endloop
   endfacet
   facet normal -2.357939e-001 9.718031e-001 1.127823e-017
      outer loop
         vertex 1.166088e+003 9.929744e+002 1.876425e+002
         vertex 1.176502e+003 9.952399e+002 5.178425e+002
         vertex 1.176502e+003 9.952399e+002 1.876425e+002
      endloop
   endfacet
   facet normal -3.270339e-001 9.450126e-001 1.564232e-017
      outer loop
         vertex 1.176502e+003 9.952399e+002 1.876425e+002
         vertex 1.176502e+003 9.952399e+002 5.178425e+002
         vertex 1.186489e+003 9.989645e+002 5.178425e+002
      endloop
   endfacet
   facet normal -3.716959e-001 9.283546e-001 1.777854e-017
      outer loop
         vertex 1.176502e+003 9.952399e+002 1.876425e+002
         vertex 1.186489e+003 9.989645e+002 5.178425e+002
         vertex 1.186489e+003 9.989645e+002 1.876425e+002
      endloop
   endfacet
   facet normal -4.581946e-001 8.888519e-001 2.191585e-017
      outer loop
         vertex 1.186489e+003 9.989645e+002 1.876425e+002
         vertex 1.186489e+003 9.989645e+002 5.178425e+002
         vertex 1.195843e+003 1.004072e+003 5.178425e+002
      endloop
   endfacet
   facet normal -5.000312e-001 8.660074e-001 2.391693e-017
      outer loop
         vertex 1.186489e+003 9.989645e+002 1.876425e+002
         vertex 1.195843e+003 1.004072e+003 5.178425e+002
         vertex 1.195843e+003 1.004072e+003 1.876425e+002
      endloop
   endfacet
   facet normal -5.800276e-001 8.145968e-001 2.774323e-017
      outer loop
         vertex 1.195843e+003 1.004072e+003 1.876425e+002
         vertex 1.195843e+003 1.004072e+003 5.178425e+002
         vertex 1.204375e+003 1.010459e+003 5.178425e+002
      endloop
   endfacet
   facet normal -6.181873e-001 7.860308e-001 2.956844e-017
      outer loop
         vertex 1.195843e+003 1.004072e+003 1.876425e+002
         vertex 1.204375e+003 1.010459e+003 5.178425e+002
         vertex 1.204375e+003 1.010459e+003 1.876425e+002
      endloop
   endfacet
   facet normal -6.900530e-001 7.237589e-001 3.300584e-017
      outer loop
         vertex 1.204375e+003 1.010459e+003 1.876425e+002
         vertex 1.204375e+003 1.010459e+003 5.178425e+002
         vertex 1.211911e+003 1.017996e+003 5.178425e+002
      endloop
   endfacet
   facet normal -7.237589e-001 6.900530e-001 3.461802e-017
      outer loop
         vertex 1.204375e+003 1.010459e+003 1.876425e+002
         vertex 1.211911e+003 1.017996e+003 5.178425e+002
         vertex 1.211911e+003 1.017996e+003 1.876425e+002
      endloop
   endfacet
   facet normal -7.860308e-001 6.181873e-001 3.759654e-017
      outer loop
         vertex 1.211911e+003 1.017996e+003 1.876425e+002
         vertex 1.211911e+003 1.017996e+003 5.178425e+002
         vertex 1.218299e+003 1.026528e+003 5.178425e+002
      endloop
   endfacet
   facet normal -8.145968e-001 5.800276e-001 3.896288e-017
      outer loop
         vertex 1.211911e+003 1.017996e+003 1.876425e+002
         vertex 1.218299e+003 1.026528e+003 5.178425e+002
         vertex 1.218299e+003 1.026528e+003 1.876425e+002
      endloop
   endfacet
   facet normal -8.660074e-001 5.000312e-001 4.142189e-017
      outer loop
         vertex 1.218299e+003 1.026528e+003 1.876425e+002
         vertex 1.218299e+003 1.026528e+003 5.178425e+002
         vertex 1.223406e+003 1.035882e+003 5.178425e+002
      endloop
   endfacet
   facet normal -8.888519e-001 4.581946e-001 4.251457e-017
      outer loop
         vertex 1.218299e+003 1.026528e+003 1.876425e+002
         vertex 1.223406e+003 1.035882e+003 5.178425e+002
         vertex 1.223406e+003 1.035882e+003 1.876425e+002
      endloop
   endfacet
   facet normal -9.283546e-001 3.716959e-001 4.440401e-017
      outer loop
         vertex 1.223406e+003 1.035882e+003 1.876425e+002
         vertex 1.223406e+003 1.035882e+003 5.178425e+002
         vertex 1.227131e+003 1.045869e+003 5.178425e+002
      endloop
   endfacet
   facet normal -9.450126e-001 3.270340e-001 4.520078e-017
      outer loop
         vertex 1.223406e+003 1.035882e+003 1.876425e+002
         vertex 1.227131e+003 1.045869e+003 5.178425e+002
         vertex 1.227131e+003 1.045869e+003 1.876425e+002
      endloop
   endfacet
   facet normal -9.718031e-001 2.357939e-001 4.648219e-017
      outer loop
         vertex 1.227131e+003 1.045869e+003 1.876425e+002
         vertex 1.227131e+003 1.045869e+003 5.178425e+002
         vertex 1.229397e+003 1.056283e+003 5.178425e+002
      endloop
   endfacet
   facet normal -9.819355e-001 1.892159e-001 4.696684e-017
      outer loop
         vertex 1.227131e+003 1.045869e+003 1.876425e+002
         vertex 1.229397e+003 1.056283e+003 5.178425e+002
         vertex 1.229397e+003 1.056283e+003 1.876425e+002
      endloop
   endfacet
   facet normal -9.954685e-001 9.509189e-002 4.761413e-017
      outer loop
         vertex 1.229397e+003 1.056283e+003 1.876425e+002
         vertex 1.229397e+003 1.056283e+003 5.178425e+002
         vertex 1.230157e+003 1.066914e+003 5.178425e+002
      endloop
   endfacet
   facet normal -9.988691e-001 4.754595e-002 4.777678e-017
      outer loop
         vertex 1.229397e+003 1.056283e+003 1.876425e+002
         vertex 1.230157e+003 1.066914e+003 5.178425e+002
         vertex 1.230157e+003 1.066914e+003 1.876425e+002
      endloop
   endfacet
   facet normal -4.783088e-017 1.402103e-027 -1.000000e+000
      outer loop
         vertex 1.104657e+003 9.907140e+002 1.876425e+002
         vertex 1.104657e+003 9.922141e+002 1.876425e+002
         vertex 1.155457e+003 9.907140e+002 1.876425e+002
      endloop
   endfacet
   facet normal -4.783088e-017 1.402103e-027 -1.000000e+000
      outer loop
         vertex 1.155457e+003 9.907140e+002 1.876425e+002
         vertex 1.104657e+003 9.922141e+002 1.876425e+002
         vertex 1.155457e+003 9.922141e+002 1.876425e+002
      endloop
   endfacet
   facet normal -4.783088e-017 1.402103e-027 -1.000000e+000
      outer loop
         vertex 1.155457e+003 9.907140e+002 1.876425e+002
         vertex 1.155457e+003 9.922141e+002 1.876425e+002
         vertex 1.165403e+003 9.913659e+002 1.876425e+002
      endloop
   endfacet
   facet normal -4.783088e-017 1.402103e-027 -1.000000e+000
      outer loop
         vertex 1.165403e+003 9.913659e+002 1.876425e+002
         vertex 1.155457e+003 9.922141e+002 1.876425e+002
         vertex 1.166088e+003 9.929744e+002 1.876425e+002
      endloop
   endfacet
   facet normal -4.783088e-017 1.402103e-027 -1.000000e+000
      outer loop
         vertex 1.165403e+003 9.913659e+002 1.876425e+002
         vertex 1.166088e+003 9.929744e+002 1.876425e+002
         vertex 1.175179e+003 9.933104e+002 1.876425e+002
      endloop
   endfacet
   facet normal -4.783088e-017 1.402103e-027 -1.000000e+000
      outer loop
         vertex 1.175179e+003 9.933104e+002 1.876425e+002
         vertex 1.166088e+003 9.929744e+002 1.876425e+002
         vertex 1.176502e+003 9.952399e+002 1.876425e+002
      endloop
   endfacet
   facet normal -4.783088e-017 1.402103e-027 -1.000000e+000
      outer loop
         vertex 1.175179e+003 9.933104e+002 1.876425e+002
         vertex 1.176502e+003 9.952399e+002 1.876425e+002
         vertex 1.184618e+003 9.965144e+002 1.876425e+002
      endloop
   endfacet
   facet normal -4.783088e-017 1.402103e-027 -1.000000e+000
      outer loop
         vertex 1.184618e+003 9.965144e+002 1.876425e+002
         vertex 1.176502e+003 9.952399e+002 1.876425e+002
         vertex 1.186489e+003 9.989645e+002 1.876425e+002
      endloop
   endfacet
   facet normal -4.783088e-017 1.402103e-027 -1.000000e+000
      outer loop
         vertex 1.184618e+003 9.965144e+002 1.876425e+002
         vertex 1.186489e+003 9.989645e+002 1.876425e+002
         vertex 1.193557e+003 1.000923e+003 1.876425e+002
      endloop
   endfacet
   facet normal -4.783088e-017 1.402103e-027 -1.000000e+000
      outer loop
         vertex 1.193557e+003 1.000923e+003 1.876425e+002
         vertex 1.186489e+003 9.989645e+002 1.876425e+002
         vertex 1.195843e+003 1.004072e+003 1.876425e+002
      endloop
   endfacet
   facet normal -4.783088e-017 1.402103e-027 -1.000000e+000
      outer loop
         vertex 1.193557e+003 1.000923e+003 1.876425e+002
         vertex 1.195843e+003 1.004072e+003 1.876425e+002
         vertex 1.201845e+003 1.006460e+003 1.876425e+002
      endloop
   endfacet
   facet normal -4.783088e-017 1.402103e-027 -1.000000e+000
      outer loop
         vertex 1.201845e+003 1.006460e+003 1.876425e+002
         vertex 1.195843e+003 1.004072e+003 1.876425e+002
         vertex 1.204375e+003 1.010459e+003 1.876425e+002
      endloop
   endfacet
   facet normal -4.783088e-017 1.402103e-027 -1.000000e+000
      outer loop
         vertex 1.201845e+003 1.006460e+003 1.876425e+002
         vertex 1.204375e+003 1.010459e+003 1.876425e+002
         vertex 1.209339e+003 1.013032e+003 1.876425e+002
      endloop
   endfacet
   facet normal -4.783088e-017 1.402103e-027 -1.000000e+000
      outer loop
         vertex 1.209339e+003 1.013032e+003 1.876425e+002
         vertex 1.204375e+003 1.010459e+003 1.876425e+002
         vertex 1.211911e+003 1.017996e+003 1.876425e+002
      endloop
   endfacet
   facet normal -4.783088e-017 1.402103e-027 -1.000000e+000
      outer loop
         vertex 1.209339e+003 1.013032e+003 1.876425e+002
         vertex 1.211911e+003 1.017996e+003 1.876425e+002
         vertex 1.215911e+003 1.020526e+003 1.876425e+002
      endloop
   endfacet
   facet normal -4.783088e-017 1.402103e-027 -1.000000e+000
      outer loop
         vertex 1.215911e+003 1.020526e+003 1.876425e+002
         vertex 1.211911e+003 1.017996e+003 1.876425e+002
         vertex 1.218299e+003 1.026528e+003 1.876425e+002
      endloop
   endfacet
   facet normal -4.783088e-017 1.402103e-027 -1.000000e+000
      outer loop
         vertex 1.230157e+003 1.168514e+003 1.876425e+002
         vertex 1.231657e+003 1.168514e+003 1.876425e+002
         vertex 1.230157e+003 1.066914e+003 1.876425e+002
      endloop
   endfacet
   facet normal -4.783088e-017 1.402103e-027 -1.000000e+000
      outer loop
         vertex 1.230157e+003 1.066914e+003 1.876425e+002
         vertex 1.231657e+003 1.168514e+003 1.876425e+002
         vertex 1.231657e+003 1.066914e+003 1.876425e+002
      endloop
   endfacet
   facet normal -4.783088e-017 1.402103e-027 -1.000000e+000
      outer loop
         vertex 1.230157e+003 1.066914e+003 1.876425e+002
         vertex 1.231657e+003 1.066914e+003 1.876425e+002
         vertex 1.229397e+003 1.056283e+003 1.876425e+002
      endloop
   endfacet
   facet normal -4.783088e-017 1.402103e-027 -1.000000e+000
      outer loop
         vertex 1.229397e+003 1.056283e+003 1.876425e+002
         vertex 1.231657e+003 1.066914e+003 1.876425e+002
         vertex 1.231005e+003 1.056968e+003 1.876425e+002
      endloop
   endfacet
   facet normal -4.783088e-017 1.402103e-027 -1.000000e+000
      outer loop
         vertex 1.229397e+003 1.056283e+003 1.876425e+002
         vertex 1.231005e+003 1.056968e+003 1.876425e+002
         vertex 1.227131e+003 1.045869e+003 1.876425e+002
      endloop
   endfacet
   facet normal -4.783088e-017 1.402103e-027 -1.000000e+000
      outer loop
         vertex 1.227131e+003 1.045869e+003 1.876425e+002
         vertex 1.231005e+003 1.056968e+003 1.876425e+002
         vertex 1.229061e+003 1.047192e+003 1.876425e+002
      endloop
   endfacet
   facet normal -4.783088e-017 1.402103e-027 -1.000000e+000
      outer loop
         vertex 1.227131e+003 1.045869e+003 1.876425e+002
         vertex 1.229061e+003 1.047192e+003 1.876425e+002
         vertex 1.223406e+003 1.035882e+003 1.876425e+002
      endloop
   endfacet
   facet normal -4.783088e-017 1.402103e-027 -1.000000e+000
      outer loop
         vertex 1.223406e+003 1.035882e+003 1.876425e+002
         vertex 1.229061e+003 1.047192e+003 1.876425e+002
         vertex 1.225857e+003 1.037753e+003 1.876425e+002
      endloop
   endfacet
   facet normal -4.783088e-017 1.402103e-027 -1.000000e+000
      outer loop
         vertex 1.223406e+003 1.035882e+003 1.876425e+002
         vertex 1.225857e+003 1.037753e+003 1.876425e+002
         vertex 1.218299e+003 1.026528e+003 1.876425e+002
      endloop
   endfacet
   facet normal -4.783088e-017 1.402103e-027 -1.000000e+000
      outer loop
         vertex 1.218299e+003 1.026528e+003 1.876425e+002
         vertex 1.225857e+003 1.037753e+003 1.876425e+002
         vertex 1.221448e+003 1.028814e+003 1.876425e+002
      endloop
   endfacet
   facet normal -4.783088e-017 1.402103e-027 -1.000000e+000
      outer loop
         vertex 1.218299e+003 1.026528e+003 1.876425e+002
         vertex 1.221448e+003 1.028814e+003 1.876425e+002
         vertex 1.215911e+003 1.020526e+003 1.876425e+002
      endloop
   endfacet
   facet normal 4.783088e-017 -1.402103e-027 1.000000e+000
      outer loop
         vertex 1.195843e+003 1.004072e+003 5.178425e+002
         vertex 1.201845e+003 1.006460e+003 5.178425e+002
         vertex 1.204375e+003 1.010459e+003 5.178425e+002
      endloop
   endfacet
   facet normal 4.783088e-017 -1.402103e-027 1.000000e+000
      outer loop
         vertex 1.204375e+003 1.010459e+003 5.178425e+002
         vertex 1.201845e+003 1.006460e+003 5.178425e+002
         vertex 1.209339e+003 1.013032e+003 5.178425e+002
      endloop
   endfacet
   facet normal 4.783088e-017 -1.402103e-027 1.000000e+000
      outer loop
         vertex 1.204375e+003 1.010459e+003 5.178425e+002
         vertex 1.209339e+003 1.013032e+003 5.178425e+002
         vertex 1.211911e+003 1.017996e+003 5.178425e+002
      endloop
   endfacet
   facet normal 4.783088e-017 -1.402103e-027 1.000000e+000
      outer loop
         vertex 1.211911e+003 1.017996e+003 5.178425e+002
         vertex 1.209339e+003 1.013032e+003 5.178425e+002
         vertex 1.215911e+003 1.020526e+003 5.178425e+002
      endloop
   endfacet
   facet normal 4.783088e-017 -1.402103e-027 1.000000e+000
      outer loop
         vertex 1.211911e+003 1.017996e+003 5.178425e+002
         vertex 1.215911e+003 1.020526e+003 5.178425e+002
         vertex 1.218299e+003 1.026528e+003 5.178425e+002
      endloop
   endfacet
   facet normal 4.783088e-017 -1.402103e-027 1.000000e+000
      outer loop
         vertex 1.218299e+003 1.026528e+003 5.178425e+002
         vertex 1.215911e+003 1.020526e+003 5.178425e+002
         vertex 1.221448e+003 1.028814e+003 5.178425e+002
      endloop
   endfacet
   facet normal 4.783088e-017 -1.402103e-027 1.000000e+000
      outer loop
         vertex 1.218299e+003 1.026528e+003 5.178425e+002
         vertex 1.221448e+003 1.028814e+003 5.178425e+002
         vertex 1.223406e+003 1.035882e+003 5.178425e+002
      endloop
   endfacet
   facet normal 4.783088e-017 -1.402103e-027 1.000000e+000
      outer loop
         vertex 1.223406e+003 1.035882e+003 5.178425e+002
         vertex 1.221448e+003 1.028814e+003 5.178425e+002
         vertex 1.225857e+003 1.037753e+003 5.178425e+002
      endloop
   endfacet
   facet normal 4.783088e-017 -1.402103e-027 1.000000e+000
      outer loop
         vertex 1.223406e+003 1.035882e+003 5.178425e+002
         vertex 1.225857e+003 1.037753e+003 5.178425e+002
         vertex 1.227131e+003 1.045869e+003 5.178425e+002
      endloop
   endfacet
   facet normal 4.783088e-017 -1.402103e-027 1.000000e+000
      outer loop
         vertex 1.227131e+003 1.045869e+003 5.178425e+002
         vertex 1.225857e+003 1.037753e+003 5.178425e+002
         vertex 1.229061e+003 1.047192e+003 5.178425e+002
      endloop
   endfacet
   facet normal 4.783088e-017 -1.402103e-027 1.000000e+000
      outer loop
         vertex 1.227131e+003 1.045869e+003 5.178425e+002
         vertex 1.229061e+003 1.047192e+003 5.178425e+002
         vertex 1.229397e+003 1.056283e+003 5.178425e+002
      endloop
   endfacet
   facet normal 4.783088e-017 -1.402103e-027 1.000000e+000
      outer loop
         vertex 1.229397e+003 1.056283e+003 5.178425e+002
         vertex 1.229061e+003 1.047192e+003 5.178425e+002
         vertex 1.231005e+003 1.056968e+003 5.178425e+002
      endloop
   endfacet
   facet normal 4.783088e-017 -1.402103e-027 1.000000e+000
      outer loop
         vertex 1.229397e+003 1.056283e+003 5.178425e+002
         vertex 1.231005e+003 1.056968e+003 5.178425e+002
         vertex 1.230157e+003 1.066914e+003 5.178425e+002
      endloop
   endfacet
   facet normal 4.783088e-017 -1.402103e-027 1.000000e+000
      outer loop
         vertex 1.230157e+003 1.066914e+003 5.178425e+002
         vertex 1.231005e+003 1.056968e+003 5.178425e+002
         vertex 1.231657e+003 1.066914e+003 5.178425e+002
      endloop
   endfacet
   facet normal 4.783088e-017 -1.402103e-027 1.000000e+000
      outer loop
         vertex 1.230157e+003 1.066914e+003 5.178425e+002
         vertex 1.231657e+003 1.066914e+003 5.178425e+002
         vertex 1.230157e+003 1.168514e+003 5.178425e+002
      endloop
   endfacet
   facet normal 4.783088e-017 -1.402103e-027 1.000000e+000
      outer loop
         vertex 1.230157e+003 1.168514e+003 5.178425e+002
         vertex 1.231657e+003 1.066914e+003 5.178425e+002
         vertex 1.231657e+003 1.168514e+003 5.178425e+002
      endloop
   endfacet
   facet normal 4.783088e-017 -1.402103e-027 1.000000e+000
      outer loop
         vertex 1.104657e+003 9.922141e+002 5.178425e+002
         vertex 1.104657e+003 9.907140e+002 5.178425e+002
         vertex 1.155457e+003 9.922141e+002 5.178425e+002
      endloop
   endfacet
   facet normal 4.783088e-017 -1.402103e-027 1.000000e+000
      outer loop
         vertex 1.155457e+003 9.922141e+002 5.178425e+002
         vertex 1.104657e+003 9.907140e+002 5.178425e+002
         vertex 1.155457e+003 9.907140e+002 5.178425e+002
      endloop
   endfacet
   facet normal 4.783088e-017 -1.402103e-027 1.000000e+000
      outer loop
         vertex 1.155457e+003 9.922141e+002 5.178425e+002
         vertex 1.155457e+003 9.907140e+002 5.178425e+002
         vertex 1.166088e+003 9.929744e+002 5.178425e+002
      endloop
   endfacet
   facet normal 4.783088e-017 -1.402103e-027 1.000000e+000
      outer loop
         vertex 1.166088e+003 9.929744e+002 5.178425e+002
         vertex 1.155457e+003 9.907140e+002 5.178425e+002
         vertex 1.165403e+003 9.913659e+002 5.178425e+002
      endloop
   endfacet
   facet normal 4.783088e-017 -1.402103e-027 1.000000e+000
      outer loop
         vertex 1.166088e+003 9.929744e+002 5.178425e+002
         vertex 1.165403e+003 9.913659e+002 5.178425e+002
         vertex 1.176502e+003 9.952399e+002 5.178425e+002
      endloop
   endfacet
   facet normal 4.783088e-017 -1.402103e-027 1.000000e+000
      outer loop
         vertex 1.176502e+003 9.952399e+002 5.178425e+002
         vertex 1.165403e+003 9.913659e+002 5.178425e+002
         vertex 1.175179e+003 9.933104e+002 5.178425e+002
      endloop
   endfacet
   facet normal 4.783088e-017 -1.402103e-027 1.000000e+000
      outer loop
         vertex 1.176502e+003 9.952399e+002 5.178425e+002
         vertex 1.175179e+003 9.933104e+002 5.178425e+002
         vertex 1.186489e+003 9.989645e+002 5.178425e+002
      endloop
   endfacet
   facet normal 4.783088e-017 -1.402103e-027 1.000000e+000
      outer loop
         vertex 1.186489e+003 9.989645e+002 5.178425e+002
         vertex 1.175179e+003 9.933104e+002 5.178425e+002
         vertex 1.184618e+003 9.965144e+002 5.178425e+002
      endloop
   endfacet
   facet normal 4.783088e-017 -1.402103e-027 1.000000e+000
      outer loop
         vertex 1.186489e+003 9.989645e+002 5.178425e+002
         vertex 1.184618e+003 9.965144e+002 5.178425e+002
         vertex 1.195843e+003 1.004072e+003 5.178425e+002
      endloop
   endfacet
   facet normal 4.783088e-017 -1.402103e-027 1.000000e+000
      outer loop
         vertex 1.195843e+003 1.004072e+003 5.178425e+002
         vertex 1.184618e+003 9.965144e+002 5.178425e+002
         vertex 1.193557e+003 1.000923e+003 5.178425e+002
      endloop
   endfacet
   facet normal 4.783088e-017 -1.402103e-027 1.000000e+000
      outer loop
         vertex 1.195843e+003 1.004072e+003 5.178425e+002
         vertex 1.193557e+003 1.000923e+003 5.178425e+002
         vertex 1.201845e+003 1.006460e+003 5.178425e+002
      endloop
   endfacet
endsolid