solid FPM - SideTop-1 701-PlateCurved-1
   facet normal 1.000000e+000 1.323170e-010 -7.512976e-017
      outer loop
         vertex 1.423320e+002 1.168514e+003 5.178425e+002
         vertex 1.423320e+002 1.066914e+003 5.178425e+002
         vertex 1.423320e+002 1.168514e+003 1.876425e+002
      endloop
   endfacet
   facet normal 1.000000e+000 1.323170e-010 -7.512976e-017
      outer loop
         vertex 1.423320e+002 1.168514e+003 1.876425e+002
         vertex 1.423320e+002 1.066914e+003 5.178425e+002
         vertex 1.423320e+002 1.066914e+003 1.876425e+002
      endloop
   endfacet
   facet normal -1.323170e-010 1.000000e+000 8.865240e-018
      outer loop
         vertex 1.408320e+002 1.168514e+003 5.178425e+002
         vertex 1.423320e+002 1.168514e+003 5.178425e+002
         vertex 1.408320e+002 1.168514e+003 1.876425e+002
      endloop
   endfacet
   facet normal -1.323170e-010 1.000000e+000 8.865240e-018
      outer loop
         vertex 1.408320e+002 1.168514e+003 1.876425e+002
         vertex 1.423320e+002 1.168514e+003 5.178425e+002
         vertex 1.423320e+002 1.168514e+003 1.876425e+002
      endloop
   endfacet
   facet normal -1.000000e+000 -1.323170e-010 7.512976e-017
      outer loop
         vertex 1.408320e+002 1.066914e+003 5.178425e+002
         vertex 1.408320e+002 1.168514e+003 5.178425e+002
         vertex 1.408320e+002 1.066914e+003 1.876425e+002
      endloop
   endfacet
   facet normal -1.000000e+000 -1.323170e-010 7.512976e-017
      outer loop
         vertex 1.408320e+002 1.066914e+003 1.876425e+002
         vertex 1.408320e+002 1.168514e+003 5.178425e+002
         vertex 1.408320e+002 1.168514e+003 1.876425e+002
      endloop
   endfacet
   facet normal -9.990494e-001 -4.359168e-002 7.467190e-017
      outer loop
         vertex 1.408320e+002 1.066914e+003 5.178425e+002
         vertex 1.408320e+002 1.066914e+003 1.876425e+002
         vertex 1.414839e+002 1.056968e+003 1.876425e+002
      endloop
   endfacet
   facet normal -9.961923e-001 -8.718336e-002 7.407079e-017
      outer loop
         vertex 1.408320e+002 1.066914e+003 5.178425e+002
         vertex 1.414839e+002 1.056968e+003 1.876425e+002
         vertex 1.414839e+002 1.056968e+003 5.178425e+002
      endloop
   endfacet
   facet normal -9.848126e-001 -1.736209e-001 7.244955e-017
      outer loop
         vertex 1.414839e+002 1.056968e+003 5.178425e+002
         vertex 1.414839e+002 1.056968e+003 1.876425e+002
         vertex 1.434285e+002 1.047192e+003 1.876425e+002
      endloop
   endfacet
   facet normal -9.762900e-001 -2.164667e-001 7.142941e-017
      outer loop
         vertex 1.414839e+002 1.056968e+003 5.178425e+002
         vertex 1.434285e+002 1.047192e+003 1.876425e+002
         vertex 1.434285e+002 1.047192e+003 5.178425e+002
      endloop
   endfacet
   facet normal -9.537253e-001 -3.006794e-001 6.898756e-017
      outer loop
         vertex 1.434285e+002 1.047192e+003 5.178425e+002
         vertex 1.434285e+002 1.047192e+003 1.876425e+002
         vertex 1.466323e+002 1.037753e+003 1.876425e+002
      endloop
   endfacet
   facet normal -9.396831e-001 -3.420462e-001 6.756585e-017
      outer loop
         vertex 1.434285e+002 1.047192e+003 5.178425e+002
         vertex 1.466323e+002 1.037753e+003 1.876425e+002
         vertex 1.466323e+002 1.037753e+003 5.178425e+002
      endloop
   endfacet
   facet normal -9.063195e-001 -4.225931e-001 6.434518e-017
      outer loop
         vertex 1.466323e+002 1.037753e+003 5.178425e+002
         vertex 1.466323e+002 1.037753e+003 1.876425e+002
         vertex 1.510409e+002 1.028814e+003 1.876425e+002
      endloop
   endfacet
   facet normal -8.869981e-001 -4.617732e-001 6.254622e-017
      outer loop
         vertex 1.466323e+002 1.037753e+003 5.178425e+002
         vertex 1.510409e+002 1.028814e+003 1.876425e+002
         vertex 1.510409e+002 1.028814e+003 5.178425e+002
      endloop
   endfacet
   facet normal -8.434063e-001 -5.372763e-001 5.860184e-017
      outer loop
         vertex 1.510409e+002 1.028814e+003 5.178425e+002
         vertex 1.510409e+002 1.028814e+003 1.876425e+002
         vertex 1.565784e+002 1.020526e+003 1.876425e+002
      endloop
   endfacet
   facet normal -8.191361e-001 -5.735992e-001 5.645641e-017
      outer loop
         vertex 1.510409e+002 1.028814e+003 5.178425e+002
         vertex 1.565784e+002 1.020526e+003 1.876425e+002
         vertex 1.565784e+002 1.020526e+003 5.178425e+002
      endloop
   endfacet
   facet normal -7.660623e-001 -6.427664e-001 5.185580e-017
      outer loop
         vertex 1.565784e+002 1.020526e+003 5.178425e+002
         vertex 1.565784e+002 1.020526e+003 1.876425e+002
         vertex 1.631505e+002 1.013032e+003 1.876425e+002
      endloop
   endfacet
   facet normal -7.372586e-001 -6.756107e-001 4.940062e-017
      outer loop
         vertex 1.565784e+002 1.020526e+003 5.178425e+002
         vertex 1.631505e+002 1.013032e+003 1.876425e+002
         vertex 1.631505e+002 1.013032e+003 5.178425e+002
      endloop
   endfacet
   facet normal -6.756107e-001 -7.372586e-001 4.422250e-017
      outer loop
         vertex 1.631505e+002 1.013032e+003 5.178425e+002
         vertex 1.631505e+002 1.013032e+003 1.876425e+002
         vertex 1.706444e+002 1.006460e+003 1.876425e+002
      endloop
   endfacet
   facet normal -6.427664e-001 -7.660623e-001 4.149956e-017
      outer loop
         vertex 1.631505e+002 1.013032e+003 5.178425e+002
         vertex 1.706444e+002 1.006460e+003 1.876425e+002
         vertex 1.706444e+002 1.006460e+003 5.178425e+002
      endloop
   endfacet
   facet normal -5.735992e-001 -8.191361e-001 3.583253e-017
      outer loop
         vertex 1.706444e+002 1.006460e+003 5.178425e+002
         vertex 1.706444e+002 1.006460e+003 1.876425e+002
         vertex 1.789320e+002 1.000923e+003 1.876425e+002
      endloop
   endfacet
   facet normal -5.372762e-001 -8.434064e-001 3.288844e-017
      outer loop
         vertex 1.706444e+002 1.006460e+003 5.178425e+002
         vertex 1.789320e+002 1.000923e+003 1.876425e+002
         vertex 1.789320e+002 1.000923e+003 5.178425e+002
      endloop
   endfacet
   facet normal -4.617732e-001 -8.869981e-001 2.682946e-017
      outer loop
         vertex 1.789320e+002 1.000923e+003 5.178425e+002
         vertex 1.789320e+002 1.000923e+003 1.876425e+002
         vertex 1.878715e+002 9.965144e+002 1.876425e+002
      endloop
   endfacet
   facet normal -4.225931e-001 -9.063195e-001 2.371458e-017
      outer loop
         vertex 1.789320e+002 1.000923e+003 5.178425e+002
         vertex 1.878715e+002 9.965144e+002 1.876425e+002
         vertex 1.878715e+002 9.965144e+002 5.178425e+002
      endloop
   endfacet
   facet normal -3.420462e-001 -9.396831e-001 1.736733e-017
      outer loop
         vertex 1.878715e+002 9.965144e+002 5.178425e+002
         vertex 1.878715e+002 9.965144e+002 1.876425e+002
         vertex 1.973100e+002 9.933104e+002 1.876425e+002
      endloop
   endfacet
   facet normal -3.006794e-001 -9.537253e-001 1.413497e-017
      outer loop
         vertex 1.878715e+002 9.965144e+002 5.178425e+002
         vertex 1.973100e+002 9.933104e+002 1.876425e+002
         vertex 1.973100e+002 9.933104e+002 5.178425e+002
      endloop
   endfacet
   facet normal -2.164667e-001 -9.762900e-001 7.608047e-018
      outer loop
         vertex 1.973100e+002 9.933104e+002 5.178425e+002
         vertex 1.973100e+002 9.933104e+002 1.876425e+002
         vertex 2.070859e+002 9.913659e+002 1.876425e+002
      endloop
   endfacet
   facet normal -1.736209e-001 -9.848126e-001 4.313496e-018
      outer loop
         vertex 1.973100e+002 9.933104e+002 5.178425e+002
         vertex 2.070859e+002 9.913659e+002 1.876425e+002
         vertex 2.070859e+002 9.913659e+002 5.178425e+002
      endloop
   endfacet
   facet normal -8.718336e-002 -9.961923e-001 -2.281417e-018
      outer loop
         vertex 2.070859e+002 9.913659e+002 5.178425e+002
         vertex 2.070859e+002 9.913659e+002 1.876425e+002
         vertex 2.170320e+002 9.907140e+002 1.876425e+002
      endloop
   endfacet
   facet normal -4.359168e-002 -9.990494e-001 -5.581780e-018
      outer loop
         vertex 2.070859e+002 9.913659e+002 5.178425e+002
         vertex 2.170320e+002 9.907140e+002 1.876425e+002
         vertex 2.170320e+002 9.907140e+002 5.178425e+002
      endloop
   endfacet
   facet normal 1.323148e-010 -1.000000e+000 -8.865240e-018
      outer loop
         vertex 2.678320e+002 9.907140e+002 5.178425e+002
         vertex 2.170320e+002 9.907140e+002 5.178425e+002
         vertex 2.678320e+002 9.907140e+002 1.876425e+002
      endloop
   endfacet
   facet normal 1.323148e-010 -1.000000e+000 -8.865240e-018
      outer loop
         vertex 2.678320e+002 9.907140e+002 1.876425e+002
         vertex 2.170320e+002 9.907140e+002 5.178425e+002
         vertex 2.170320e+002 9.907140e+002 1.876425e+002
      endloop
   endfacet
   facet normal 1.000000e+000 1.323170e-010 -7.512976e-017
      outer loop
         vertex 2.678320e+002 9.922141e+002 5.178425e+002
         vertex 2.678320e+002 9.907140e+002 5.178425e+002
         vertex 2.678320e+002 9.922141e+002 1.876425e+002
      endloop
   endfacet
   facet normal 1.000000e+000 1.323170e-010 -7.512976e-017
      outer loop
         vertex 2.678320e+002 9.922141e+002 1.876425e+002
         vertex 2.678320e+002 9.907140e+002 5.178425e+002
         vertex 2.678320e+002 9.907140e+002 1.876425e+002
      endloop
   endfacet
   facet normal -1.323148e-010 1.000000e+000 8.865240e-018
      outer loop
         vertex 2.170320e+002 9.922141e+002 5.178425e+002
         vertex 2.678320e+002 9.922141e+002 5.178425e+002
         vertex 2.170320e+002 9.922141e+002 1.876425e+002
      endloop
   endfacet
   facet normal -1.323148e-010 1.000000e+000 8.865240e-018
      outer loop
         vertex 2.170320e+002 9.922141e+002 1.876425e+002
         vertex 2.678320e+002 9.922141e+002 5.178425e+002
         vertex 2.678320e+002 9.922141e+002 1.876425e+002
      endloop
   endfacet
   facet normal 4.754595e-002 9.988691e-001 5.283097e-018
      outer loop
         vertex 2.170320e+002 9.922141e+002 5.178425e+002
         vertex 2.170320e+002 9.922141e+002 1.876425e+002
         vertex 2.064011e+002 9.929744e+002 1.876425e+002
      endloop
   endfacet
   facet normal 9.509189e-002 9.954685e-001 1.680835e-018
      outer loop
         vertex 2.170320e+002 9.922141e+002 5.178425e+002
         vertex 2.064011e+002 9.929744e+002 1.876425e+002
         vertex 2.064011e+002 9.929744e+002 5.178425e+002
      endloop
   endfacet
   facet normal 1.892159e-001 9.819355e-001 -5.510652e-018
      outer loop
         vertex 2.064011e+002 9.929744e+002 5.178425e+002
         vertex 2.064011e+002 9.929744e+002 1.876425e+002
         vertex 1.959866e+002 9.952399e+002 1.876425e+002
      endloop
   endfacet
   facet normal 2.357939e-001 9.718031e-001 -9.099878e-018
      outer loop
         vertex 2.064011e+002 9.929744e+002 5.178425e+002
         vertex 1.959866e+002 9.952399e+002 1.876425e+002
         vertex 1.959866e+002 9.952399e+002 5.178425e+002
      endloop
   endfacet
   facet normal 3.270339e-001 9.450126e-001 -1.619222e-017
      outer loop
         vertex 1.959866e+002 9.952399e+002 5.178425e+002
         vertex 1.959866e+002 9.952399e+002 1.876425e+002
         vertex 1.860005e+002 9.989645e+002 1.876425e+002
      endloop
   endfacet
   facet normal 3.716959e-001 9.283546e-001 -1.969534e-017
      outer loop
         vertex 1.959866e+002 9.952399e+002 5.178425e+002
         vertex 1.860005e+002 9.989645e+002 1.876425e+002
         vertex 1.860005e+002 9.989645e+002 5.178425e+002
      endloop
   endfacet
   facet normal 4.581946e-001 8.888519e-001 -2.654417e-017
      outer loop
         vertex 1.860005e+002 9.989645e+002 5.178425e+002
         vertex 1.860005e+002 9.989645e+002 1.876425e+002
         vertex 1.766461e+002 1.004072e+003 1.876425e+002
      endloop
   endfacet
   facet normal 5.000312e-001 8.660074e-001 -2.988987e-017
      outer loop
         vertex 1.860005e+002 9.989645e+002 5.178425e+002
         vertex 1.766461e+002 1.004072e+003 1.876425e+002
         vertex 1.766461e+002 1.004072e+003 5.178425e+002
      endloop
   endfacet
   facet normal 5.800276e-001 8.145968e-001 -3.635574e-017
      outer loop
         vertex 1.766461e+002 1.004072e+003 5.178425e+002
         vertex 1.766461e+002 1.004072e+003 1.876425e+002
         vertex 1.681139e+002 1.010459e+003 1.876425e+002
      endloop
   endfacet
   facet normal 6.181873e-001 7.860308e-001 -3.947592e-017
      outer loop
         vertex 1.766461e+002 1.004072e+003 5.178425e+002
         vertex 1.681139e+002 1.010459e+003 1.876425e+002
         vertex 1.681139e+002 1.010459e+003 5.178425e+002
      endloop
   endfacet
   facet normal 6.900530e-001 7.237589e-001 -4.542722e-017
      outer loop
         vertex 1.681139e+002 1.010459e+003 5.178425e+002
         vertex 1.681139e+002 1.010459e+003 1.876425e+002
         vertex 1.605775e+002 1.017996e+003 1.876425e+002
      endloop
   endfacet
   facet normal 7.237589e-001 6.900530e-001 -4.825835e-017
      outer loop
         vertex 1.681139e+002 1.010459e+003 5.178425e+002
         vertex 1.605775e+002 1.017996e+003 1.876425e+002
         vertex 1.605775e+002 1.017996e+003 5.178425e+002
      endloop
   endfacet
   facet normal 7.860308e-001 6.181873e-001 -5.357393e-017
      outer loop
         vertex 1.605775e+002 1.017996e+003 5.178425e+002
         vertex 1.605775e+002 1.017996e+003 1.876425e+002
         vertex 1.541903e+002 1.026528e+003 1.876425e+002
      endloop
   endfacet
   facet normal 8.145968e-001 5.800276e-001 -5.605839e-017
      outer loop
         vertex 1.605775e+002 1.017996e+003 5.178425e+002
         vertex 1.541903e+002 1.026528e+003 1.876425e+002
         vertex 1.541903e+002 1.026528e+003 5.178425e+002
      endloop
   endfacet
   facet normal 8.660074e-001 5.000312e-001 -6.063004e-017
      outer loop
         vertex 1.541903e+002 1.026528e+003 5.178425e+002
         vertex 1.541903e+002 1.026528e+003 1.876425e+002
         vertex 1.490825e+002 1.035882e+003 1.876425e+002
      endloop
   endfacet
   facet normal 8.888519e-001 4.581946e-001 -6.271723e-017
      outer loop
         vertex 1.541903e+002 1.026528e+003 5.178425e+002
         vertex 1.490825e+002 1.035882e+003 1.876425e+002
         vertex 1.490825e+002 1.035882e+003 5.178425e+002
      endloop
   endfacet
   facet normal 9.283546e-001 3.716959e-001 -6.645189e-017
      outer loop
         vertex 1.490825e+002 1.035882e+003 5.178425e+002
         vertex 1.490825e+002 1.035882e+003 1.876425e+002
         vertex 1.453579e+002 1.045869e+003 1.876425e+002
      endloop
   endfacet
   facet normal 9.450126e-001 3.270340e-001 -6.809934e-017
      outer loop
         vertex 1.490825e+002 1.035882e+003 5.178425e+002
         vertex 1.453579e+002 1.045869e+003 1.876425e+002
         vertex 1.453579e+002 1.045869e+003 5.178425e+002
      endloop
   endfacet
   facet normal 9.718031e-001 2.357939e-001 -7.092097e-017
      outer loop
         vertex 1.453579e+002 1.045869e+003 5.178425e+002
         vertex 1.453579e+002 1.045869e+003 1.876425e+002
         vertex 1.430923e+002 1.056283e+003 1.876425e+002
      endloop
   endfacet
   facet normal 9.819355e-001 1.892159e-001 -7.209514e-017
      outer loop
         vertex 1.453579e+002 1.045869e+003 5.178425e+002
         vertex 1.430923e+002 1.056283e+003 1.876425e+002
         vertex 1.430923e+002 1.056283e+003 5.178425e+002
      endloop
   endfacet
   facet normal 9.954685e-001 9.509189e-002 -7.394630e-017
      outer loop
         vertex 1.430923e+002 1.056283e+003 5.178425e+002
         vertex 1.430923e+002 1.056283e+003 1.876425e+002
         vertex 1.423320e+002 1.066914e+003 1.876425e+002
      endloop
   endfacet
   facet normal 9.988691e-001 4.754595e-002 -7.462329e-017
      outer loop
         vertex 1.430923e+002 1.056283e+003 5.178425e+002
         vertex 1.423320e+002 1.066914e+003 1.876425e+002
         vertex 1.423320e+002 1.066914e+003 5.178425e+002
      endloop
   endfacet
   facet normal 7.512976e-017 -8.865240e-018 1.000000e+000
      outer loop
         vertex 2.678320e+002 9.907140e+002 5.178425e+002
         vertex 2.678320e+002 9.922141e+002 5.178425e+002
         vertex 2.170320e+002 9.907140e+002 5.178425e+002
      endloop
   endfacet
   facet normal 7.512976e-017 -8.865240e-018 1.000000e+000
      outer loop
         vertex 2.170320e+002 9.907140e+002 5.178425e+002
         vertex 2.678320e+002 9.922141e+002 5.178425e+002
         vertex 2.170320e+002 9.922141e+002 5.178425e+002
      endloop
   endfacet
   facet normal 7.512976e-017 -8.865240e-018 1.000000e+000
      outer loop
         vertex 2.170320e+002 9.907140e+002 5.178425e+002
         vertex 2.170320e+002 9.922141e+002 5.178425e+002
         vertex 2.070859e+002 9.913659e+002 5.178425e+002
      endloop
   endfacet
   facet normal 7.512976e-017 -8.865240e-018 1.000000e+000
      outer loop
         vertex 2.070859e+002 9.913659e+002 5.178425e+002
         vertex 2.170320e+002 9.922141e+002 5.178425e+002
         vertex 2.064011e+002 9.929744e+002 5.178425e+002
      endloop
   endfacet
   facet normal 7.512976e-017 -8.865240e-018 1.000000e+000
      outer loop
         vertex 2.070859e+002 9.913659e+002 5.178425e+002
         vertex 2.064011e+002 9.929744e+002 5.178425e+002
         vertex 1.973100e+002 9.933104e+002 5.178425e+002
      endloop
   endfacet
   facet normal 7.512976e-017 -8.865240e-018 1.000000e+000
      outer loop
         vertex 1.973100e+002 9.933104e+002 5.178425e+002
         vertex 2.064011e+002 9.929744e+002 5.178425e+002
         vertex 1.959866e+002 9.952399e+002 5.178425e+002
      endloop
   endfacet
   facet normal 7.512976e-017 -8.865240e-018 1.000000e+000
      outer loop
         vertex 1.973100e+002 9.933104e+002 5.178425e+002
         vertex 1.959866e+002 9.952399e+002 5.178425e+002
         vertex 1.878715e+002 9.965144e+002 5.178425e+002
      endloop
   endfacet
   facet normal 7.512976e-017 -8.865240e-018 1.000000e+000
      outer loop
         vertex 1.878715e+002 9.965144e+002 5.178425e+002
         vertex 1.959866e+002 9.952399e+002 5.178425e+002
         vertex 1.860005e+002 9.989645e+002 5.178425e+002
      endloop
   endfacet
   facet normal 7.512976e-017 -8.865240e-018 1.000000e+000
      outer loop
         vertex 1.878715e+002 9.965144e+002 5.178425e+002
         vertex 1.860005e+002 9.989645e+002 5.178425e+002
         vertex 1.789320e+002 1.000923e+003 5.178425e+002
      endloop
   endfacet
   facet normal 7.512976e-017 -8.865240e-018 1.000000e+000
      outer loop
         vertex 1.789320e+002 1.000923e+003 5.178425e+002
         vertex 1.860005e+002 9.989645e+002 5.178425e+002
         vertex 1.766461e+002 1.004072e+003 5.178425e+002
      endloop
   endfacet
   facet normal 7.512976e-017 -8.865240e-018 1.000000e+000
      outer loop
         vertex 1.789320e+002 1.000923e+003 5.178425e+002
         vertex 1.766461e+002 1.004072e+003 5.178425e+002
         vertex 1.706444e+002 1.006460e+003 5.178425e+002
      endloop
   endfacet
   facet normal 7.512976e-017 -8.865240e-018 1.000000e+000
      outer loop
         vertex 1.706444e+002 1.006460e+003 5.178425e+002
         vertex 1.766461e+002 1.004072e+003 5.178425e+002
         vertex 1.681139e+002 1.010459e+003 5.178425e+002
      endloop
   endfacet
   facet normal 7.512976e-017 -8.865240e-018 1.000000e+000
      outer loop
         vertex 1.706444e+002 1.006460e+003 5.178425e+002
         vertex 1.681139e+002 1.010459e+003 5.178425e+002
         vertex 1.631505e+002 1.013032e+003 5.178425e+002
      endloop
   endfacet
   facet normal 7.512976e-017 -8.865240e-018 1.000000e+000
      outer loop
         vertex 1.631505e+002 1.013032e+003 5.178425e+002
         vertex 1.681139e+002 1.010459e+003 5.178425e+002
         vertex 1.605775e+002 1.017996e+003 5.178425e+002
      endloop
   endfacet
   facet normal 7.512976e-017 -8.865240e-018 1.000000e+000
      outer loop
         vertex 1.631505e+002 1.013032e+003 5.178425e+002
         vertex 1.605775e+002 1.017996e+003 5.178425e+002
         vertex 1.565784e+002 1.020526e+003 5.178425e+002
      endloop
   endfacet
   facet normal 7.512976e-017 -8.865240e-018 1.000000e+000
      outer loop
         vertex 1.565784e+002 1.020526e+003 5.178425e+002
         vertex 1.605775e+002 1.017996e+003 5.178425e+002
         vertex 1.541903e+002 1.026528e+003 5.178425e+002
      endloop
   endfacet
   facet normal 7.512976e-017 -8.865240e-018 1.000000e+000
      outer loop
         vertex 1.423320e+002 1.168514e+003 5.178425e+002
         vertex 1.408320e+002 1.168514e+003 5.178425e+002
         vertex 1.423320e+002 1.066914e+003 5.178425e+002
      endloop
   endfacet
   facet normal 7.512976e-017 -8.865240e-018 1.000000e+000
      outer loop
         vertex 1.423320e+002 1.066914e+003 5.178425e+002
         vertex 1.408320e+002 1.168514e+003 5.178425e+002
         vertex 1.408320e+002 1.066914e+003 5.178425e+002
      endloop
   endfacet
   facet normal 7.512976e-017 -8.865240e-018 1.000000e+000
      outer loop
         vertex 1.423320e+002 1.066914e+003 5.178425e+002
         vertex 1.408320e+002 1.066914e+003 5.178425e+002
         vertex 1.430923e+002 1.056283e+003 5.178425e+002
      endloop
   endfacet
   facet normal 7.512976e-017 -8.865240e-018 1.000000e+000
      outer loop
         vertex 1.430923e+002 1.056283e+003 5.178425e+002
         vertex 1.408320e+002 1.066914e+003 5.178425e+002
         vertex 1.414839e+002 1.056968e+003 5.178425e+002
      endloop
   endfacet
   facet normal 7.512976e-017 -8.865240e-018 1.000000e+000
      outer loop
         vertex 1.430923e+002 1.056283e+003 5.178425e+002
         vertex 1.414839e+002 1.056968e+003 5.178425e+002
         vertex 1.453579e+002 1.045869e+003 5.178425e+002
      endloop
   endfacet
   facet normal 7.512976e-017 -8.865240e-018 1.000000e+000
      outer loop
         vertex 1.453579e+002 1.045869e+003 5.178425e+002
         vertex 1.414839e+002 1.056968e+003 5.178425e+002
         vertex 1.434285e+002 1.047192e+003 5.178425e+002
      endloop
   endfacet
   facet normal 7.512976e-017 -8.865240e-018 1.000000e+000
      outer loop
         vertex 1.453579e+002 1.045869e+003 5.178425e+002
         vertex 1.434285e+002 1.047192e+003 5.178425e+002
         vertex 1.490825e+002 1.035882e+003 5.178425e+002
      endloop
   endfacet
   facet normal 7.512976e-017 -8.865240e-018 1.000000e+000
      outer loop
         vertex 1.490825e+002 1.035882e+003 5.178425e+002
         vertex 1.434285e+002 1.047192e+003 5.178425e+002
         vertex 1.466323e+002 1.037753e+003 5.178425e+002
      endloop
   endfacet
   facet normal 7.512976e-017 -8.865240e-018 1.000000e+000
      outer loop
         vertex 1.490825e+002 1.035882e+003 5.178425e+002
         vertex 1.466323e+002 1.037753e+003 5.178425e+002
         vertex 1.541903e+002 1.026528e+003 5.178425e+002
      endloop
   endfacet
   facet normal 7.512976e-017 -8.865240e-018 1.000000e+000
      outer loop
         vertex 1.541903e+002 1.026528e+003 5.178425e+002
         vertex 1.466323e+002 1.037753e+003 5.178425e+002
         vertex 1.510409e+002 1.028814e+003 5.178425e+002
      endloop
   endfacet
   facet normal 7.512976e-017 -8.865240e-018 1.000000e+000
      outer loop
         vertex 1.541903e+002 1.026528e+003 5.178425e+002
         vertex 1.510409e+002 1.028814e+003 5.178425e+002
         vertex 1.565784e+002 1.020526e+003 5.178425e+002
      endloop
   endfacet
   facet normal -7.512976e-017 8.865240e-018 -1.000000e+000
      outer loop
         vertex 1.766461e+002 1.004072e+003 1.876425e+002
         vertex 1.706444e+002 1.006460e+003 1.876425e+002
         vertex 1.681139e+002 1.010459e+003 1.876425e+002
      endloop
   endfacet
   facet normal -7.512976e-017 8.865240e-018 -1.000000e+000
      outer loop
         vertex 1.681139e+002 1.010459e+003 1.876425e+002
         vertex 1.706444e+002 1.006460e+003 1.876425e+002
         vertex 1.631505e+002 1.013032e+003 1.876425e+002
      endloop
   endfacet
   facet normal -7.512976e-017 8.865240e-018 -1.000000e+000
      outer loop
         vertex 1.681139e+002 1.010459e+003 1.876425e+002
         vertex 1.631505e+002 1.013032e+003 1.876425e+002
         vertex 1.605775e+002 1.017996e+003 1.876425e+002
      endloop
   endfacet
   facet normal -7.512976e-017 8.865240e-018 -1.000000e+000
      outer loop
         vertex 1.605775e+002 1.017996e+003 1.876425e+002
         vertex 1.631505e+002 1.013032e+003 1.876425e+002
         vertex 1.565784e+002 1.020526e+003 1.876425e+002
      endloop
   endfacet
   facet normal -7.512976e-017 8.865240e-018 -1.000000e+000
      outer loop
         vertex 1.605775e+002 1.017996e+003 1.876425e+002
         vertex 1.565784e+002 1.020526e+003 1.876425e+002
         vertex 1.541903e+002 1.026528e+003 1.876425e+002
      endloop
   endfacet
   facet normal -7.512976e-017 8.865240e-018 -1.000000e+000
      outer loop
         vertex 1.541903e+002 1.026528e+003 1.876425e+002
         vertex 1.565784e+002 1.020526e+003 1.876425e+002
         vertex 1.510409e+002 1.028814e+003 1.876425e+002
      endloop
   endfacet
   facet normal -7.512976e-017 8.865240e-018 -1.000000e+000
      outer loop
         vertex 1.541903e+002 1.026528e+003 1.876425e+002
         vertex 1.510409e+002 1.028814e+003 1.876425e+002
         vertex 1.490825e+002 1.035882e+003 1.876425e+002
      endloop
   endfacet
   facet normal -7.512976e-017 8.865240e-018 -1.000000e+000
      outer loop
         vertex 1.490825e+002 1.035882e+003 1.876425e+002
         vertex 1.510409e+002 1.028814e+003 1.876425e+002
         vertex 1.466323e+002 1.037753e+003 1.876425e+002
      endloop
   endfacet
   facet normal -7.512976e-017 8.865240e-018 -1.000000e+000
      outer loop
         vertex 1.490825e+002 1.035882e+003 1.876425e+002
         vertex 1.466323e+002 1.037753e+003 1.876425e+002
         vertex 1.453579e+002 1.045869e+003 1.876425e+002
      endloop
   endfacet
   facet normal -7.512976e-017 8.865240e-018 -1.000000e+000
      outer loop
         vertex 1.453579e+002 1.045869e+003 1.876425e+002
         vertex 1.466323e+002 1.037753e+003 1.876425e+002
         vertex 1.434285e+002 1.047192e+003 1.876425e+002
      endloop
   endfacet
   facet normal -7.512976e-017 8.865240e-018 -1.000000e+000
      outer loop
         vertex 1.453579e+002 1.045869e+003 1.876425e+002
         vertex 1.434285e+002 1.047192e+003 1.876425e+002
         vertex 1.430923e+002 1.056283e+003 1.876425e+002
      endloop
   endfacet
   facet normal -7.512976e-017 8.865240e-018 -1.000000e+000
      outer loop
         vertex 1.430923e+002 1.056283e+003 1.876425e+002
         vertex 1.434285e+002 1.047192e+003 1.876425e+002
         vertex 1.414839e+002 1.056968e+003 1.876425e+002
      endloop
   endfacet
   facet normal -7.512976e-017 8.865240e-018 -1.000000e+000
      outer loop
         vertex 1.430923e+002 1.056283e+003 1.876425e+002
         vertex 1.414839e+002 1.056968e+003 1.876425e+002
         vertex 1.423320e+002 1.066914e+003 1.876425e+002
      endloop
   endfacet
   facet normal -7.512976e-017 8.865240e-018 -1.000000e+000
      outer loop
         vertex 1.423320e+002 1.066914e+003 1.876425e+002
         vertex 1.414839e+002 1.056968e+003 1.876425e+002
         vertex 1.408320e+002 1.066914e+003 1.876425e+002
      endloop
   endfacet
   facet normal -7.512976e-017 8.865240e-018 -1.000000e+000
      outer loop
         vertex 1.423320e+002 1.066914e+003 1.876425e+002
         vertex 1.408320e+002 1.066914e+003 1.876425e+002
         vertex 1.423320e+002 1.168514e+003 1.876425e+002
      endloop
   endfacet
   facet normal -7.512976e-017 8.865240e-018 -1.000000e+000
      outer loop
         vertex 1.423320e+002 1.168514e+003 1.876425e+002
         vertex 1.408320e+002 1.066914e+003 1.876425e+002
         vertex 1.408320e+002 1.168514e+003 1.876425e+002
      endloop
   endfacet
   facet normal -7.512976e-017 8.865240e-018 -1.000000e+000
      outer loop
         vertex 2.678320e+002 9.922141e+002 1.876425e+002
         vertex 2.678320e+002 9.907140e+002 1.876425e+002
         vertex 2.170320e+002 9.922141e+002 1.876425e+002
      endloop
   endfacet
   facet normal -7.512976e-017 8.865240e-018 -1.000000e+000
      outer loop
         vertex 2.170320e+002 9.922141e+002 1.876425e+002
         vertex 2.678320e+002 9.907140e+002 1.876425e+002
         vertex 2.170320e+002 9.907140e+002 1.876425e+002
      endloop
   endfacet
   facet normal -7.512976e-017 8.865240e-018 -1.000000e+000
      outer loop
         vertex 2.170320e+002 9.922141e+002 1.876425e+002
         vertex 2.170320e+002 9.907140e+002 1.876425e+002
         vertex 2.064011e+002 9.929744e+002 1.876425e+002
      endloop
   endfacet
   facet normal -7.512976e-017 8.865240e-018 -1.000000e+000
      outer loop
         vertex 2.064011e+002 9.929744e+002 1.876425e+002
         vertex 2.170320e+002 9.907140e+002 1.876425e+002
         vertex 2.070859e+002 9.913659e+002 1.876425e+002
      endloop
   endfacet
   facet normal -7.512976e-017 8.865240e-018 -1.000000e+000
      outer loop
         vertex 2.064011e+002 9.929744e+002 1.876425e+002
         vertex 2.070859e+002 9.913659e+002 1.876425e+002
         vertex 1.959866e+002 9.952399e+002 1.876425e+002
      endloop
   endfacet
   facet normal -7.512976e-017 8.865240e-018 -1.000000e+000
      outer loop
         vertex 1.959866e+002 9.952399e+002 1.876425e+002
         vertex 2.070859e+002 9.913659e+002 1.876425e+002
         vertex 1.973100e+002 9.933104e+002 1.876425e+002
      endloop
   endfacet
   facet normal -7.512976e-017 8.865240e-018 -1.000000e+000
      outer loop
         vertex 1.959866e+002 9.952399e+002 1.876425e+002
         vertex 1.973100e+002 9.933104e+002 1.876425e+002
         vertex 1.860005e+002 9.989645e+002 1.876425e+002
      endloop
   endfacet
   facet normal -7.512976e-017 8.865240e-018 -1.000000e+000
      outer loop
         vertex 1.860005e+002 9.989645e+002 1.876425e+002
         vertex 1.973100e+002 9.933104e+002 1.876425e+002
         vertex 1.878715e+002 9.965144e+002 1.876425e+002
      endloop
   endfacet
   facet normal -7.512976e-017 8.865240e-018 -1.000000e+000
      outer loop
         vertex 1.860005e+002 9.989645e+002 1.876425e+002
         vertex 1.878715e+002 9.965144e+002 1.876425e+002
         vertex 1.766461e+002 1.004072e+003 1.876425e+002
      endloop
   endfacet
   facet normal -7.512976e-017 8.865240e-018 -1.000000e+000
      outer loop
         vertex 1.766461e+002 1.004072e+003 1.876425e+002
         vertex 1.878715e+002 9.965144e+002 1.876425e+002
         vertex 1.789320e+002 1.000923e+003 1.876425e+002
      endloop
   endfacet
   facet normal -7.512976e-017 8.865240e-018 -1.000000e+000
      outer loop
         vertex 1.766461e+002 1.004072e+003 1.876425e+002
         vertex 1.789320e+002 1.000923e+003 1.876425e+002
         vertex 1.706444e+002 1.006460e+003 1.876425e+002
      endloop
   endfacet
endsolid