solid FPM - SideLow-2 103-RodYokes-2
   facet normal -8.944110e-001 -4.472459e-001 0.000000e+000
      outer loop
         vertex 1.864663e+002 7.994952e+002 5.940425e+002
         vertex 1.868158e+002 7.987422e+002 1.114425e+002
         vertex 1.868158e+002 7.987422e+002 5.940425e+002
      endloop
   endfacet
   facet normal -8.365134e-001 -5.479465e-001 0.000000e+000
      outer loop
         vertex 1.868158e+002 7.987422e+002 5.940425e+002
         vertex 1.868158e+002 7.987422e+002 1.114425e+002
         vertex 1.872907e+002 7.980613e+002 1.114425e+002
      endloop
   endfacet
   facet normal -8.031595e-001 -5.957641e-001 0.000000e+000
      outer loop
         vertex 1.868158e+002 7.987422e+002 5.940425e+002
         vertex 1.872907e+002 7.980613e+002 1.114425e+002
         vertex 1.872907e+002 7.980613e+002 5.940425e+002
      endloop
   endfacet
   facet normal -7.286549e-001 -6.848810e-001 0.000000e+000
      outer loop
         vertex 1.872907e+002 7.980613e+002 5.940425e+002
         vertex 1.872907e+002 7.980613e+002 1.114425e+002
         vertex 1.878766e+002 7.974733e+002 1.114425e+002
      endloop
   endfacet
   facet normal -6.875043e-001 -7.261803e-001 0.000000e+000
      outer loop
         vertex 1.872907e+002 7.980613e+002 5.940425e+002
         vertex 1.878766e+002 7.974733e+002 1.114425e+002
         vertex 1.878766e+002 7.974733e+002 5.940425e+002
      endloop
   endfacet
   facet normal -5.986567e-001 -8.010057e-001 0.000000e+000
      outer loop
         vertex 1.878766e+002 7.974733e+002 5.940425e+002
         vertex 1.878766e+002 7.974733e+002 1.114425e+002
         vertex 1.885558e+002 7.969958e+002 1.114425e+002
      endloop
   endfacet
   facet normal -5.509597e-001 -8.345318e-001 0.000000e+000
      outer loop
         vertex 1.878766e+002 7.974733e+002 5.940425e+002
         vertex 1.885558e+002 7.969958e+002 1.114425e+002
         vertex 1.885558e+002 7.969958e+002 5.940425e+002
      endloop
   endfacet
   facet normal -4.504685e-001 -8.927923e-001 0.000000e+000
      outer loop
         vertex 1.885558e+002 7.969958e+002 5.940425e+002
         vertex 1.885558e+002 7.969958e+002 1.114425e+002
         vertex 1.893075e+002 7.966437e+002 1.114425e+002
      endloop
   endfacet
   facet normal -3.976744e-001 -9.175266e-001 0.000000e+000
      outer loop
         vertex 1.885558e+002 7.969958e+002 5.940425e+002
         vertex 1.893075e+002 7.966437e+002 1.114425e+002
         vertex 1.893075e+002 7.966437e+002 5.940425e+002
      endloop
   endfacet
   facet normal -2.885932e-001 -9.574518e-001 0.000000e+000
      outer loop
         vertex 1.893075e+002 7.966437e+002 5.940425e+002
         vertex 1.893075e+002 7.966437e+002 1.114425e+002
         vertex 1.901090e+002 7.964274e+002 1.114425e+002
      endloop
   endfacet
   facet normal -2.323061e-001 -9.726427e-001 0.000000e+000
      outer loop
         vertex 1.893075e+002 7.966437e+002 5.940425e+002
         vertex 1.901090e+002 7.964274e+002 1.114425e+002
         vertex 1.901090e+002 7.964274e+002 5.940425e+002
      endloop
   endfacet
   facet normal -1.179491e-001 -9.930196e-001 0.000000e+000
      outer loop
         vertex 1.901090e+002 7.964274e+002 5.940425e+002
         vertex 1.901090e+002 7.964274e+002 1.114425e+002
         vertex 1.909359e+002 7.963535e+002 1.114425e+002
      endloop
   endfacet
   facet normal -5.987921e-002 -9.982056e-001 0.000000e+000
      outer loop
         vertex 1.901090e+002 7.964274e+002 5.940425e+002
         vertex 1.909359e+002 7.963535e+002 1.114425e+002
         vertex 1.909359e+002 7.963535e+002 5.940425e+002
      endloop
   endfacet
   facet normal 5.627888e-002 -9.984151e-001 0.000000e+000
      outer loop
         vertex 1.909359e+002 7.963535e+002 5.940425e+002
         vertex 1.909359e+002 7.963535e+002 1.114425e+002
         vertex 1.917630e+002 7.964244e+002 1.114425e+002
      endloop
   endfacet
   facet normal 1.143671e-001 -9.934385e-001 0.000000e+000
      outer loop
         vertex 1.909359e+002 7.963535e+002 5.940425e+002
         vertex 1.917630e+002 7.964244e+002 1.114425e+002
         vertex 1.917630e+002 7.964244e+002 5.940425e+002
      endloop
   endfacet
   facet normal 2.287969e-001 -9.734742e-001 0.000000e+000
      outer loop
         vertex 1.917630e+002 7.964244e+002 5.940425e+002
         vertex 1.917630e+002 7.964244e+002 1.114425e+002
         vertex 1.925653e+002 7.966378e+002 1.114425e+002
      endloop
   endfacet
   facet normal 2.851384e-001 -9.584864e-001 0.000000e+000
      outer loop
         vertex 1.917630e+002 7.964244e+002 5.940425e+002
         vertex 1.925653e+002 7.966378e+002 1.114425e+002
         vertex 1.925653e+002 7.966378e+002 5.940425e+002
      endloop
   endfacet
   facet normal 3.943629e-001 -9.189548e-001 0.000000e+000
      outer loop
         vertex 1.925653e+002 7.966378e+002 5.940425e+002
         vertex 1.925653e+002 7.966378e+002 1.114425e+002
         vertex 1.933183e+002 7.969872e+002 1.114425e+002
      endloop
   endfacet
   facet normal 4.472459e-001 -8.944110e-001 0.000000e+000
      outer loop
         vertex 1.925653e+002 7.966378e+002 5.940425e+002
         vertex 1.933183e+002 7.969872e+002 1.114425e+002
         vertex 1.933183e+002 7.969872e+002 5.940425e+002
      endloop
   endfacet
   facet normal 5.479465e-001 -8.365134e-001 0.000000e+000
      outer loop
         vertex 1.933183e+002 7.969872e+002 5.940425e+002
         vertex 1.933183e+002 7.969872e+002 1.114425e+002
         vertex 1.939992e+002 7.974622e+002 1.114425e+002
      endloop
   endfacet
   facet normal 5.957641e-001 -8.031595e-001 0.000000e+000
      outer loop
         vertex 1.933183e+002 7.969872e+002 5.940425e+002
         vertex 1.939992e+002 7.974622e+002 1.114425e+002
         vertex 1.939992e+002 7.974622e+002 5.940425e+002
      endloop
   endfacet
   facet normal 6.848810e-001 -7.286549e-001 0.000000e+000
      outer loop
         vertex 1.939992e+002 7.974622e+002 5.940425e+002
         vertex 1.939992e+002 7.974622e+002 1.114425e+002
         vertex 1.945872e+002 7.980482e+002 1.114425e+002
      endloop
   endfacet
   facet normal 7.261803e-001 -6.875043e-001 0.000000e+000
      outer loop
         vertex 1.939992e+002 7.974622e+002 5.940425e+002
         vertex 1.945872e+002 7.980482e+002 1.114425e+002
         vertex 1.945872e+002 7.980482e+002 5.940425e+002
      endloop
   endfacet
   facet normal 8.010057e-001 -5.986567e-001 0.000000e+000
      outer loop
         vertex 1.945872e+002 7.980482e+002 5.940425e+002
         vertex 1.945872e+002 7.980482e+002 1.114425e+002
         vertex 1.950646e+002 7.987274e+002 1.114425e+002
      endloop
   endfacet
   facet normal 8.345318e-001 -5.509597e-001 0.000000e+000
      outer loop
         vertex 1.945872e+002 7.980482e+002 5.940425e+002
         vertex 1.950646e+002 7.987274e+002 1.114425e+002
         vertex 1.950646e+002 7.987274e+002 5.940425e+002
      endloop
   endfacet
   facet normal 8.927923e-001 -4.504685e-001 0.000000e+000
      outer loop
         vertex 1.950646e+002 7.987274e+002 5.940425e+002
         vertex 1.950646e+002 7.987274e+002 1.114425e+002
         vertex 1.954168e+002 7.994791e+002 1.114425e+002
      endloop
   endfacet
   facet normal 9.175266e-001 -3.976744e-001 0.000000e+000
      outer loop
         vertex 1.950646e+002 7.987274e+002 5.940425e+002
         vertex 1.954168e+002 7.994791e+002 1.114425e+002
         vertex 1.954168e+002 7.994791e+002 5.940425e+002
      endloop
   endfacet
   facet normal 9.574518e-001 -2.885932e-001 0.000000e+000
      outer loop
         vertex 1.954168e+002 7.994791e+002 5.940425e+002
         vertex 1.954168e+002 7.994791e+002 1.114425e+002
         vertex 1.956331e+002 8.002806e+002 1.114425e+002
      endloop
   endfacet
   facet normal 9.726427e-001 -2.323061e-001 0.000000e+000
      outer loop
         vertex 1.954168e+002 7.994791e+002 5.940425e+002
         vertex 1.956331e+002 8.002806e+002 1.114425e+002
         vertex 1.956331e+002 8.002806e+002 5.940425e+002
      endloop
   endfacet
   facet normal 9.930196e-001 -1.179491e-001 0.000000e+000
      outer loop
         vertex 1.956331e+002 8.002806e+002 5.940425e+002
         vertex 1.956331e+002 8.002806e+002 1.114425e+002
         vertex 1.957070e+002 8.011074e+002 1.114425e+002
      endloop
   endfacet
   facet normal 9.982056e-001 -5.987921e-002 0.000000e+000
      outer loop
         vertex 1.956331e+002 8.002806e+002 5.940425e+002
         vertex 1.957070e+002 8.011074e+002 1.114425e+002
         vertex 1.957070e+002 8.011074e+002 5.940425e+002
      endloop
   endfacet
   facet normal 9.984151e-001 5.627888e-002 0.000000e+000
      outer loop
         vertex 1.957070e+002 8.011074e+002 5.940425e+002
         vertex 1.957070e+002 8.011074e+002 1.114425e+002
         vertex 1.956361e+002 8.019346e+002 1.114425e+002
      endloop
   endfacet
   facet normal 9.934385e-001 1.143671e-001 0.000000e+000
      outer loop
         vertex 1.957070e+002 8.011074e+002 5.940425e+002
         vertex 1.956361e+002 8.019346e+002 1.114425e+002
         vertex 1.956361e+002 8.019346e+002 5.940425e+002
      endloop
   endfacet
   facet normal 9.734742e-001 2.287969e-001 0.000000e+000
      outer loop
         vertex 1.956361e+002 8.019346e+002 5.940425e+002
         vertex 1.956361e+002 8.019346e+002 1.114425e+002
         vertex 1.954227e+002 8.027368e+002 1.114425e+002
      endloop
   endfacet
   facet normal 9.584864e-001 2.851384e-001 0.000000e+000
      outer loop
         vertex 1.956361e+002 8.019346e+002 5.940425e+002
         vertex 1.954227e+002 8.027368e+002 1.114425e+002
         vertex 1.954227e+002 8.027368e+002 5.940425e+002
      endloop
   endfacet
   facet normal 9.189548e-001 3.943629e-001 0.000000e+000
      outer loop
         vertex 1.954227e+002 8.027368e+002 5.940425e+002
         vertex 1.954227e+002 8.027368e+002 1.114425e+002
         vertex 1.950732e+002 8.034898e+002 1.114425e+002
      endloop
   endfacet
   facet normal 8.944110e-001 4.472459e-001 0.000000e+000
      outer loop
         vertex 1.954227e+002 8.027368e+002 5.940425e+002
         vertex 1.950732e+002 8.034898e+002 1.114425e+002
         vertex 1.950732e+002 8.034898e+002 5.940425e+002
      endloop
   endfacet
   facet normal 8.365134e-001 5.479465e-001 0.000000e+000
      outer loop
         vertex 1.950732e+002 8.034898e+002 5.940425e+002
         vertex 1.950732e+002 8.034898e+002 1.114425e+002
         vertex 1.945983e+002 8.041707e+002 1.114425e+002
      endloop
   endfacet
   facet normal 8.031595e-001 5.957641e-001 0.000000e+000
      outer loop
         vertex 1.950732e+002 8.034898e+002 5.940425e+002
         vertex 1.945983e+002 8.041707e+002 1.114425e+002
         vertex 1.945983e+002 8.041707e+002 5.940425e+002
      endloop
   endfacet
   facet normal 7.286549e-001 6.848810e-001 0.000000e+000
      outer loop
         vertex 1.945983e+002 8.041707e+002 5.940425e+002
         vertex 1.945983e+002 8.041707e+002 1.114425e+002
         vertex 1.940123e+002 8.047588e+002 1.114425e+002
      endloop
   endfacet
   facet normal 6.875043e-001 7.261803e-001 0.000000e+000
      outer loop
         vertex 1.945983e+002 8.041707e+002 5.940425e+002
         vertex 1.940123e+002 8.047588e+002 1.114425e+002
         vertex 1.940123e+002 8.047588e+002 5.940425e+002
      endloop
   endfacet
   facet normal 5.986567e-001 8.010057e-001 0.000000e+000
      outer loop
         vertex 1.940123e+002 8.047588e+002 5.940425e+002
         vertex 1.940123e+002 8.047588e+002 1.114425e+002
         vertex 1.933332e+002 8.052361e+002 1.114425e+002
      endloop
   endfacet
   facet normal 5.509597e-001 8.345318e-001 0.000000e+000
      outer loop
         vertex 1.940123e+002 8.047588e+002 5.940425e+002
         vertex 1.933332e+002 8.052361e+002 1.114425e+002
         vertex 1.933332e+002 8.052361e+002 5.940425e+002
      endloop
   endfacet
   facet normal 4.504685e-001 8.927923e-001 0.000000e+000
      outer loop
         vertex 1.933332e+002 8.052361e+002 5.940425e+002
         vertex 1.933332e+002 8.052361e+002 1.114425e+002
         vertex 1.925814e+002 8.055884e+002 1.114425e+002
      endloop
   endfacet
   facet normal 3.976744e-001 9.175266e-001 0.000000e+000
      outer loop
         vertex 1.933332e+002 8.052361e+002 5.940425e+002
         vertex 1.925814e+002 8.055884e+002 1.114425e+002
         vertex 1.925814e+002 8.055884e+002 5.940425e+002
      endloop
   endfacet
   facet normal 2.885932e-001 9.574518e-001 0.000000e+000
      outer loop
         vertex 1.925814e+002 8.055884e+002 5.940425e+002
         vertex 1.925814e+002 8.055884e+002 1.114425e+002
         vertex 1.917799e+002 8.058047e+002 1.114425e+002
      endloop
   endfacet
   facet normal 2.323061e-001 9.726427e-001 0.000000e+000
      outer loop
         vertex 1.925814e+002 8.055884e+002 5.940425e+002
         vertex 1.917799e+002 8.058047e+002 1.114425e+002
         vertex 1.917799e+002 8.058047e+002 5.940425e+002
      endloop
   endfacet
   facet normal 1.179491e-001 9.930196e-001 0.000000e+000
      outer loop
         vertex 1.917799e+002 8.058047e+002 5.940425e+002
         vertex 1.917799e+002 8.058047e+002 1.114425e+002
         vertex 1.909531e+002 8.058785e+002 1.114425e+002
      endloop
   endfacet
   facet normal 5.987921e-002 9.982056e-001 0.000000e+000
      outer loop
         vertex 1.917799e+002 8.058047e+002 5.940425e+002
         vertex 1.909531e+002 8.058785e+002 1.114425e+002
         vertex 1.909531e+002 8.058785e+002 5.940425e+002
      endloop
   endfacet
   facet normal -5.627888e-002 9.984151e-001 0.000000e+000
      outer loop
         vertex 1.909531e+002 8.058785e+002 5.940425e+002
         vertex 1.909531e+002 8.058785e+002 1.114425e+002
         vertex 1.901259e+002 8.058077e+002 1.114425e+002
      endloop
   endfacet
   facet normal -1.143671e-001 9.934385e-001 0.000000e+000
      outer loop
         vertex 1.909531e+002 8.058785e+002 5.940425e+002
         vertex 1.901259e+002 8.058077e+002 1.114425e+002
         vertex 1.901259e+002 8.058077e+002 5.940425e+002
      endloop
   endfacet
   facet normal -2.287969e-001 9.734742e-001 0.000000e+000
      outer loop
         vertex 1.901259e+002 8.058077e+002 5.940425e+002
         vertex 1.901259e+002 8.058077e+002 1.114425e+002
         vertex 1.893237e+002 8.055942e+002 1.114425e+002
      endloop
   endfacet
   facet normal -2.851384e-001 9.584864e-001 0.000000e+000
      outer loop
         vertex 1.901259e+002 8.058077e+002 5.940425e+002
         vertex 1.893237e+002 8.055942e+002 1.114425e+002
         vertex 1.893237e+002 8.055942e+002 5.940425e+002
      endloop
   endfacet
   facet normal -3.943629e-001 9.189548e-001 0.000000e+000
      outer loop
         vertex 1.893237e+002 8.055942e+002 5.940425e+002
         vertex 1.893237e+002 8.055942e+002 1.114425e+002
         vertex 1.885707e+002 8.052448e+002 1.114425e+002
      endloop
   endfacet
   facet normal -4.472459e-001 8.944110e-001 0.000000e+000
      outer loop
         vertex 1.893237e+002 8.055942e+002 5.940425e+002
         vertex 1.885707e+002 8.052448e+002 1.114425e+002
         vertex 1.885707e+002 8.052448e+002 5.940425e+002
      endloop
   endfacet
   facet normal -5.479465e-001 8.365134e-001 0.000000e+000
      outer loop
         vertex 1.885707e+002 8.052448e+002 5.940425e+002
         vertex 1.885707e+002 8.052448e+002 1.114425e+002
         vertex 1.878898e+002 8.047698e+002 1.114425e+002
      endloop
   endfacet
   facet normal -5.957641e-001 8.031595e-001 0.000000e+000
      outer loop
         vertex 1.885707e+002 8.052448e+002 5.940425e+002
         vertex 1.878898e+002 8.047698e+002 1.114425e+002
         vertex 1.878898e+002 8.047698e+002 5.940425e+002
      endloop
   endfacet
   facet normal -6.848810e-001 7.286549e-001 0.000000e+000
      outer loop
         vertex 1.878898e+002 8.047698e+002 5.940425e+002
         vertex 1.878898e+002 8.047698e+002 1.114425e+002
         vertex 1.873017e+002 8.041838e+002 1.114425e+002
      endloop
   endfacet
   facet normal -7.261803e-001 6.875043e-001 0.000000e+000
      outer loop
         vertex 1.878898e+002 8.047698e+002 5.940425e+002
         vertex 1.873017e+002 8.041838e+002 1.114425e+002
         vertex 1.873017e+002 8.041838e+002 5.940425e+002
      endloop
   endfacet
   facet normal -8.010057e-001 5.986567e-001 0.000000e+000
      outer loop
         vertex 1.873017e+002 8.041838e+002 5.940425e+002
         vertex 1.873017e+002 8.041838e+002 1.114425e+002
         vertex 1.868243e+002 8.035047e+002 1.114425e+002
      endloop
   endfacet
   facet normal -8.345318e-001 5.509597e-001 0.000000e+000
      outer loop
         vertex 1.873017e+002 8.041838e+002 5.940425e+002
         vertex 1.868243e+002 8.035047e+002 1.114425e+002
         vertex 1.868243e+002 8.035047e+002 5.940425e+002
      endloop
   endfacet
   facet normal -8.927923e-001 4.504685e-001 0.000000e+000
      outer loop
         vertex 1.868243e+002 8.035047e+002 5.940425e+002
         vertex 1.868243e+002 8.035047e+002 1.114425e+002
         vertex 1.864721e+002 8.027530e+002 1.114425e+002
      endloop
   endfacet
   facet normal -9.175266e-001 3.976744e-001 0.000000e+000
      outer loop
         vertex 1.868243e+002 8.035047e+002 5.940425e+002
         vertex 1.864721e+002 8.027530e+002 1.114425e+002
         vertex 1.864721e+002 8.027530e+002 5.940425e+002
      endloop
   endfacet
   facet normal -9.574518e-001 2.885932e-001 0.000000e+000
      outer loop
         vertex 1.864721e+002 8.027530e+002 5.940425e+002
         vertex 1.864721e+002 8.027530e+002 1.114425e+002
         vertex 1.862558e+002 8.019515e+002 1.114425e+002
      endloop
   endfacet
   facet normal -9.726427e-001 2.323061e-001 0.000000e+000
      outer loop
         vertex 1.864721e+002 8.027530e+002 5.940425e+002
         vertex 1.862558e+002 8.019515e+002 1.114425e+002
         vertex 1.862558e+002 8.019515e+002 5.940425e+002
      endloop
   endfacet
   facet normal -9.930196e-001 1.179491e-001 0.000000e+000
      outer loop
         vertex 1.862558e+002 8.019515e+002 5.940425e+002
         vertex 1.862558e+002 8.019515e+002 1.114425e+002
         vertex 1.861820e+002 8.011246e+002 1.114425e+002
      endloop
   endfacet
   facet normal -9.982056e-001 5.987921e-002 0.000000e+000
      outer loop
         vertex 1.862558e+002 8.019515e+002 5.940425e+002
         vertex 1.861820e+002 8.011246e+002 1.114425e+002
         vertex 1.861820e+002 8.011246e+002 5.940425e+002
      endloop
   endfacet
   facet normal -9.984151e-001 -5.627888e-002 0.000000e+000
      outer loop
         vertex 1.861820e+002 8.011246e+002 5.940425e+002
         vertex 1.861820e+002 8.011246e+002 1.114425e+002
         vertex 1.862529e+002 8.002974e+002 1.114425e+002
      endloop
   endfacet
   facet normal -9.934385e-001 -1.143671e-001 0.000000e+000
      outer loop
         vertex 1.861820e+002 8.011246e+002 5.940425e+002
         vertex 1.862529e+002 8.002974e+002 1.114425e+002
         vertex 1.862529e+002 8.002974e+002 5.940425e+002
      endloop
   endfacet
   facet normal -9.734742e-001 -2.287969e-001 0.000000e+000
      outer loop
         vertex 1.862529e+002 8.002974e+002 5.940425e+002
         vertex 1.862529e+002 8.002974e+002 1.114425e+002
         vertex 1.864663e+002 7.994952e+002 1.114425e+002
      endloop
   endfacet
   facet normal -9.584864e-001 -2.851384e-001 0.000000e+000
      outer loop
         vertex 1.862529e+002 8.002974e+002 5.940425e+002
         vertex 1.864663e+002 7.994952e+002 1.114425e+002
         vertex 1.864663e+002 7.994952e+002 5.940425e+002
      endloop
   endfacet
   facet normal -9.189548e-001 -3.943629e-001 0.000000e+000
      outer loop
         vertex 1.864663e+002 7.994952e+002 5.940425e+002
         vertex 1.864663e+002 7.994952e+002 1.114425e+002
         vertex 1.868158e+002 7.987422e+002 1.114425e+002
      endloop
   endfacet
   facet normal 0.000000e+000 0.000000e+000 1.000000e+000
      outer loop
         vertex 1.878766e+002 7.974733e+002 5.940425e+002
         vertex 1.925814e+002 8.055884e+002 5.940425e+002
         vertex 1.872907e+002 7.980613e+002 5.940425e+002
      endloop
   endfacet
   facet normal 0.000000e+000 0.000000e+000 1.000000e+000
      outer loop
         vertex 1.872907e+002 7.980613e+002 5.940425e+002
         vertex 1.925814e+002 8.055884e+002 5.940425e+002
         vertex 1.868158e+002 7.987422e+002 5.940425e+002
      endloop
   endfacet
   facet normal 0.000000e+000 0.000000e+000 1.000000e+000
      outer loop
         vertex 1.940123e+002 8.047588e+002 5.940425e+002
         vertex 1.893075e+002 7.966437e+002 5.940425e+002
         vertex 1.945983e+002 8.041707e+002 5.940425e+002
      endloop
   endfacet
   facet normal 0.000000e+000 0.000000e+000 1.000000e+000
      outer loop
         vertex 1.945983e+002 8.041707e+002 5.940425e+002
         vertex 1.893075e+002 7.966437e+002 5.940425e+002
         vertex 1.950732e+002 8.034898e+002 5.940425e+002
      endloop
   endfacet
   facet normal 0.000000e+000 0.000000e+000 1.000000e+000
      outer loop
         vertex 1.878766e+002 7.974733e+002 5.940425e+002
         vertex 1.885558e+002 7.969958e+002 5.940425e+002
         vertex 1.925814e+002 8.055884e+002 5.940425e+002
      endloop
   endfacet
   facet normal 0.000000e+000 0.000000e+000 1.000000e+000
      outer loop
         vertex 1.925814e+002 8.055884e+002 5.940425e+002
         vertex 1.885558e+002 7.969958e+002 5.940425e+002
         vertex 1.893075e+002 7.966437e+002 5.940425e+002
      endloop
   endfacet
   facet normal 0.000000e+000 0.000000e+000 1.000000e+000
      outer loop
         vertex 1.925814e+002 8.055884e+002 5.940425e+002
         vertex 1.893075e+002 7.966437e+002 5.940425e+002
         vertex 1.933332e+002 8.052361e+002 5.940425e+002
      endloop
   endfacet
   facet normal 0.000000e+000 0.000000e+000 1.000000e+000
      outer loop
         vertex 1.933332e+002 8.052361e+002 5.940425e+002
         vertex 1.893075e+002 7.966437e+002 5.940425e+002
         vertex 1.940123e+002 8.047588e+002 5.940425e+002
      endloop
   endfacet
   facet normal 0.000000e+000 0.000000e+000 1.000000e+000
      outer loop
         vertex 1.893075e+002 7.966437e+002 5.940425e+002
         vertex 1.901090e+002 7.964274e+002 5.940425e+002
         vertex 1.950732e+002 8.034898e+002 5.940425e+002
      endloop
   endfacet
   facet normal 0.000000e+000 0.000000e+000 1.000000e+000
      outer loop
         vertex 1.950732e+002 8.034898e+002 5.940425e+002
         vertex 1.901090e+002 7.964274e+002 5.940425e+002
         vertex 1.909359e+002 7.963535e+002 5.940425e+002
      endloop
   endfacet
   facet normal 0.000000e+000 0.000000e+000 1.000000e+000
      outer loop
         vertex 1.950732e+002 8.034898e+002 5.940425e+002
         vertex 1.909359e+002 7.963535e+002 5.940425e+002
         vertex 1.917630e+002 7.964244e+002 5.940425e+002
      endloop
   endfacet
   facet normal 0.000000e+000 0.000000e+000 1.000000e+000
      outer loop
         vertex 1.956361e+002 8.019346e+002 5.940425e+002
         vertex 1.954227e+002 8.027368e+002 5.940425e+002
         vertex 1.933183e+002 7.969872e+002 5.940425e+002
      endloop
   endfacet
   facet normal 0.000000e+000 0.000000e+000 1.000000e+000
      outer loop
         vertex 1.933183e+002 7.969872e+002 5.940425e+002
         vertex 1.954227e+002 8.027368e+002 5.940425e+002
         vertex 1.950732e+002 8.034898e+002 5.940425e+002
      endloop
   endfacet
   facet normal 0.000000e+000 0.000000e+000 1.000000e+000
      outer loop
         vertex 1.933183e+002 7.969872e+002 5.940425e+002
         vertex 1.950732e+002 8.034898e+002 5.940425e+002
         vertex 1.925653e+002 7.966378e+002 5.940425e+002
      endloop
   endfacet
   facet normal 0.000000e+000 0.000000e+000 1.000000e+000
      outer loop
         vertex 1.925653e+002 7.966378e+002 5.940425e+002
         vertex 1.950732e+002 8.034898e+002 5.940425e+002
         vertex 1.917630e+002 7.964244e+002 5.940425e+002
      endloop
   endfacet
   facet normal 0.000000e+000 0.000000e+000 1.000000e+000
      outer loop
         vertex 1.925814e+002 8.055884e+002 5.940425e+002
         vertex 1.917799e+002 8.058047e+002 5.940425e+002
         vertex 1.868158e+002 7.987422e+002 5.940425e+002
      endloop
   endfacet
   facet normal 0.000000e+000 0.000000e+000 1.000000e+000
      outer loop
         vertex 1.868158e+002 7.987422e+002 5.940425e+002
         vertex 1.917799e+002 8.058047e+002 5.940425e+002
         vertex 1.909531e+002 8.058785e+002 5.940425e+002
      endloop
   endfacet
   facet normal 0.000000e+000 0.000000e+000 1.000000e+000
      outer loop
         vertex 1.868158e+002 7.987422e+002 5.940425e+002
         vertex 1.909531e+002 8.058785e+002 5.940425e+002
         vertex 1.901259e+002 8.058077e+002 5.940425e+002
      endloop
   endfacet
   facet normal 0.000000e+000 0.000000e+000 1.000000e+000
      outer loop
         vertex 1.939992e+002 7.974622e+002 5.940425e+002
         vertex 1.945872e+002 7.980482e+002 5.940425e+002
         vertex 1.933183e+002 7.969872e+002 5.940425e+002
      endloop
   endfacet
   facet normal 0.000000e+000 0.000000e+000 1.000000e+000
      outer loop
         vertex 1.933183e+002 7.969872e+002 5.940425e+002
         vertex 1.945872e+002 7.980482e+002 5.940425e+002
         vertex 1.950646e+002 7.987274e+002 5.940425e+002
      endloop
   endfacet
   facet normal 0.000000e+000 0.000000e+000 1.000000e+000
      outer loop
         vertex 1.933183e+002 7.969872e+002 5.940425e+002
         vertex 1.950646e+002 7.987274e+002 5.940425e+002
         vertex 1.954168e+002 7.994791e+002 5.940425e+002
      endloop
   endfacet
   facet normal 0.000000e+000 0.000000e+000 1.000000e+000
      outer loop
         vertex 1.954168e+002 7.994791e+002 5.940425e+002
         vertex 1.956331e+002 8.002806e+002 5.940425e+002
         vertex 1.933183e+002 7.969872e+002 5.940425e+002
      endloop
   endfacet
   facet normal 0.000000e+000 0.000000e+000 1.000000e+000
      outer loop
         vertex 1.933183e+002 7.969872e+002 5.940425e+002
         vertex 1.956331e+002 8.002806e+002 5.940425e+002
         vertex 1.957070e+002 8.011074e+002 5.940425e+002
      endloop
   endfacet
   facet normal 0.000000e+000 0.000000e+000 1.000000e+000
      outer loop
         vertex 1.933183e+002 7.969872e+002 5.940425e+002
         vertex 1.957070e+002 8.011074e+002 5.940425e+002
         vertex 1.956361e+002 8.019346e+002 5.940425e+002
      endloop
   endfacet
   facet normal 0.000000e+000 0.000000e+000 1.000000e+000
      outer loop
         vertex 1.862529e+002 8.002974e+002 5.940425e+002
         vertex 1.864663e+002 7.994952e+002 5.940425e+002
         vertex 1.885707e+002 8.052448e+002 5.940425e+002
      endloop
   endfacet
   facet normal 0.000000e+000 0.000000e+000 1.000000e+000
      outer loop
         vertex 1.885707e+002 8.052448e+002 5.940425e+002
         vertex 1.864663e+002 7.994952e+002 5.940425e+002
         vertex 1.868158e+002 7.987422e+002 5.940425e+002
      endloop
   endfacet
   facet normal 0.000000e+000 0.000000e+000 1.000000e+000
      outer loop
         vertex 1.885707e+002 8.052448e+002 5.940425e+002
         vertex 1.868158e+002 7.987422e+002 5.940425e+002
         vertex 1.893237e+002 8.055942e+002 5.940425e+002
      endloop
   endfacet
   facet normal 0.000000e+000 0.000000e+000 1.000000e+000
      outer loop
         vertex 1.893237e+002 8.055942e+002 5.940425e+002
         vertex 1.868158e+002 7.987422e+002 5.940425e+002
         vertex 1.901259e+002 8.058077e+002 5.940425e+002
      endloop
   endfacet
   facet normal 0.000000e+000 0.000000e+000 1.000000e+000
      outer loop
         vertex 1.878898e+002 8.047698e+002 5.940425e+002
         vertex 1.873017e+002 8.041838e+002 5.940425e+002
         vertex 1.885707e+002 8.052448e+002 5.940425e+002
      endloop
   endfacet
   facet normal 0.000000e+000 0.000000e+000 1.000000e+000
      outer loop
         vertex 1.885707e+002 8.052448e+002 5.940425e+002
         vertex 1.873017e+002 8.041838e+002 5.940425e+002
         vertex 1.868243e+002 8.035047e+002 5.940425e+002
      endloop
   endfacet
   facet normal 0.000000e+000 0.000000e+000 1.000000e+000
      outer loop
         vertex 1.885707e+002 8.052448e+002 5.940425e+002
         vertex 1.868243e+002 8.035047e+002 5.940425e+002
         vertex 1.864721e+002 8.027530e+002 5.940425e+002
      endloop
   endfacet
   facet normal 0.000000e+000 0.000000e+000 1.000000e+000
      outer loop
         vertex 1.864721e+002 8.027530e+002 5.940425e+002
         vertex 1.862558e+002 8.019515e+002 5.940425e+002
         vertex 1.885707e+002 8.052448e+002 5.940425e+002
      endloop
   endfacet
   facet normal 0.000000e+000 0.000000e+000 1.000000e+000
      outer loop
         vertex 1.885707e+002 8.052448e+002 5.940425e+002
         vertex 1.862558e+002 8.019515e+002 5.940425e+002
         vertex 1.861820e+002 8.011246e+002 5.940425e+002
      endloop
   endfacet
   facet normal 0.000000e+000 0.000000e+000 1.000000e+000
      outer loop
         vertex 1.885707e+002 8.052448e+002 5.940425e+002
         vertex 1.861820e+002 8.011246e+002 5.940425e+002
         vertex 1.862529e+002 8.002974e+002 5.940425e+002
      endloop
   endfacet
   facet normal 0.000000e+000 0.000000e+000 -1.000000e+000
      outer loop
         vertex 1.885558e+002 7.969958e+002 1.114425e+002
         vertex 1.925814e+002 8.055884e+002 1.114425e+002
         vertex 1.893075e+002 7.966437e+002 1.114425e+002
      endloop
   endfacet
   facet normal 0.000000e+000 0.000000e+000 -1.000000e+000
      outer loop
         vertex 1.893075e+002 7.966437e+002 1.114425e+002
         vertex 1.925814e+002 8.055884e+002 1.114425e+002
         vertex 1.933332e+002 8.052361e+002 1.114425e+002
      endloop
   endfacet
   facet normal 0.000000e+000 0.000000e+000 -1.000000e+000
      outer loop
         vertex 1.893075e+002 7.966437e+002 1.114425e+002
         vertex 1.933332e+002 8.052361e+002 1.114425e+002
         vertex 1.940123e+002 8.047588e+002 1.114425e+002
      endloop
   endfacet
   facet normal 0.000000e+000 0.000000e+000 -1.000000e+000
      outer loop
         vertex 1.954227e+002 8.027368e+002 1.114425e+002
         vertex 1.956361e+002 8.019346e+002 1.114425e+002
         vertex 1.933183e+002 7.969872e+002 1.114425e+002
      endloop
   endfacet
   facet normal 0.000000e+000 0.000000e+000 -1.000000e+000
      outer loop
         vertex 1.917630e+002 7.964244e+002 1.114425e+002
         vertex 1.909359e+002 7.963535e+002 1.114425e+002
         vertex 1.950732e+002 8.034898e+002 1.114425e+002
      endloop
   endfacet
   facet normal 0.000000e+000 0.000000e+000 -1.000000e+000
      outer loop
         vertex 1.885558e+002 7.969958e+002 1.114425e+002
         vertex 1.878766e+002 7.974733e+002 1.114425e+002
         vertex 1.925814e+002 8.055884e+002 1.114425e+002
      endloop
   endfacet
   facet normal 0.000000e+000 0.000000e+000 -1.000000e+000
      outer loop
         vertex 1.925814e+002 8.055884e+002 1.114425e+002
         vertex 1.878766e+002 7.974733e+002 1.114425e+002
         vertex 1.872907e+002 7.980613e+002 1.114425e+002
      endloop
   endfacet
   facet normal 0.000000e+000 0.000000e+000 -1.000000e+000
      outer loop
         vertex 1.925814e+002 8.055884e+002 1.114425e+002
         vertex 1.872907e+002 7.980613e+002 1.114425e+002
         vertex 1.868158e+002 7.987422e+002 1.114425e+002
      endloop
   endfacet
   facet normal 0.000000e+000 0.000000e+000 -1.000000e+000
      outer loop
         vertex 1.940123e+002 8.047588e+002 1.114425e+002
         vertex 1.945983e+002 8.041707e+002 1.114425e+002
         vertex 1.893075e+002 7.966437e+002 1.114425e+002
      endloop
   endfacet
   facet normal 0.000000e+000 0.000000e+000 -1.000000e+000
      outer loop
         vertex 1.893075e+002 7.966437e+002 1.114425e+002
         vertex 1.945983e+002 8.041707e+002 1.114425e+002
         vertex 1.950732e+002 8.034898e+002 1.114425e+002
      endloop
   endfacet
   facet normal 0.000000e+000 0.000000e+000 -1.000000e+000
      outer loop
         vertex 1.893075e+002 7.966437e+002 1.114425e+002
         vertex 1.950732e+002 8.034898e+002 1.114425e+002
         vertex 1.901090e+002 7.964274e+002 1.114425e+002
      endloop
   endfacet
   facet normal 0.000000e+000 0.000000e+000 -1.000000e+000
      outer loop
         vertex 1.901090e+002 7.964274e+002 1.114425e+002
         vertex 1.950732e+002 8.034898e+002 1.114425e+002
         vertex 1.909359e+002 7.963535e+002 1.114425e+002
      endloop
   endfacet
   facet normal 0.000000e+000 0.000000e+000 -1.000000e+000
      outer loop
         vertex 1.864663e+002 7.994952e+002 1.114425e+002
         vertex 1.862529e+002 8.002974e+002 1.114425e+002
         vertex 1.885707e+002 8.052448e+002 1.114425e+002
      endloop
   endfacet
   facet normal 0.000000e+000 0.000000e+000 -1.000000e+000
      outer loop
         vertex 1.954227e+002 8.027368e+002 1.114425e+002
         vertex 1.933183e+002 7.969872e+002 1.114425e+002
         vertex 1.950732e+002 8.034898e+002 1.114425e+002
      endloop
   endfacet
   facet normal 0.000000e+000 0.000000e+000 -1.000000e+000
      outer loop
         vertex 1.950732e+002 8.034898e+002 1.114425e+002
         vertex 1.933183e+002 7.969872e+002 1.114425e+002
         vertex 1.925653e+002 7.966378e+002 1.114425e+002
      endloop
   endfacet
   facet normal 0.000000e+000 0.000000e+000 -1.000000e+000
      outer loop
         vertex 1.950732e+002 8.034898e+002 1.114425e+002
         vertex 1.925653e+002 7.966378e+002 1.114425e+002
         vertex 1.917630e+002 7.964244e+002 1.114425e+002
      endloop
   endfacet
   facet normal 0.000000e+000 0.000000e+000 -1.000000e+000
      outer loop
         vertex 1.901259e+002 8.058077e+002 1.114425e+002
         vertex 1.909531e+002 8.058785e+002 1.114425e+002
         vertex 1.868158e+002 7.987422e+002 1.114425e+002
      endloop
   endfacet
   facet normal 0.000000e+000 0.000000e+000 -1.000000e+000
      outer loop
         vertex 1.868158e+002 7.987422e+002 1.114425e+002
         vertex 1.909531e+002 8.058785e+002 1.114425e+002
         vertex 1.917799e+002 8.058047e+002 1.114425e+002
      endloop
   endfacet
   facet normal 0.000000e+000 0.000000e+000 -1.000000e+000
      outer loop
         vertex 1.868158e+002 7.987422e+002 1.114425e+002
         vertex 1.917799e+002 8.058047e+002 1.114425e+002
         vertex 1.925814e+002 8.055884e+002 1.114425e+002
      endloop
   endfacet
   facet normal 0.000000e+000 0.000000e+000 -1.000000e+000
      outer loop
         vertex 1.956361e+002 8.019346e+002 1.114425e+002
         vertex 1.957070e+002 8.011074e+002 1.114425e+002
         vertex 1.933183e+002 7.969872e+002 1.114425e+002
      endloop
   endfacet
   facet normal 0.000000e+000 0.000000e+000 -1.000000e+000
      outer loop
         vertex 1.933183e+002 7.969872e+002 1.114425e+002
         vertex 1.957070e+002 8.011074e+002 1.114425e+002
         vertex 1.956331e+002 8.002806e+002 1.114425e+002
      endloop
   endfacet
   facet normal 0.000000e+000 0.000000e+000 -1.000000e+000
      outer loop
         vertex 1.933183e+002 7.969872e+002 1.114425e+002
         vertex 1.956331e+002 8.002806e+002 1.114425e+002
         vertex 1.954168e+002 7.994791e+002 1.114425e+002
      endloop
   endfacet
   facet normal 0.000000e+000 0.000000e+000 -1.000000e+000
      outer loop
         vertex 1.954168e+002 7.994791e+002 1.114425e+002
         vertex 1.950646e+002 7.987274e+002 1.114425e+002
         vertex 1.933183e+002 7.969872e+002 1.114425e+002
      endloop
   endfacet
   facet normal 0.000000e+000 0.000000e+000 -1.000000e+000
      outer loop
         vertex 1.933183e+002 7.969872e+002 1.114425e+002
         vertex 1.950646e+002 7.987274e+002 1.114425e+002
         vertex 1.945872e+002 7.980482e+002 1.114425e+002
      endloop
   endfacet
   facet normal 0.000000e+000 0.000000e+000 -1.000000e+000
      outer loop
         vertex 1.933183e+002 7.969872e+002 1.114425e+002
         vertex 1.945872e+002 7.980482e+002 1.114425e+002
         vertex 1.939992e+002 7.974622e+002 1.114425e+002
      endloop
   endfacet
   facet normal 0.000000e+000 0.000000e+000 -1.000000e+000
      outer loop
         vertex 1.862529e+002 8.002974e+002 1.114425e+002
         vertex 1.861820e+002 8.011246e+002 1.114425e+002
         vertex 1.885707e+002 8.052448e+002 1.114425e+002
      endloop
   endfacet
   facet normal 0.000000e+000 0.000000e+000 -1.000000e+000
      outer loop
         vertex 1.885707e+002 8.052448e+002 1.114425e+002
         vertex 1.861820e+002 8.011246e+002 1.114425e+002
         vertex 1.862558e+002 8.019515e+002 1.114425e+002
      endloop
   endfacet
   facet normal 0.000000e+000 0.000000e+000 -1.000000e+000
      outer loop
         vertex 1.885707e+002 8.052448e+002 1.114425e+002
         vertex 1.862558e+002 8.019515e+002 1.114425e+002
         vertex 1.864721e+002 8.027530e+002 1.114425e+002
      endloop
   endfacet
   facet normal 0.000000e+000 0.000000e+000 -1.000000e+000
      outer loop
         vertex 1.864721e+002 8.027530e+002 1.114425e+002
         vertex 1.868243e+002 8.035047e+002 1.114425e+002
         vertex 1.885707e+002 8.052448e+002 1.114425e+002
      endloop
   endfacet
   facet normal 0.000000e+000 0.000000e+000 -1.000000e+000
      outer loop
         vertex 1.885707e+002 8.052448e+002 1.114425e+002
         vertex 1.868243e+002 8.035047e+002 1.114425e+002
         vertex 1.873017e+002 8.041838e+002 1.114425e+002
      endloop
   endfacet
   facet normal 0.000000e+000 0.000000e+000 -1.000000e+000
      outer loop
         vertex 1.885707e+002 8.052448e+002 1.114425e+002
         vertex 1.873017e+002 8.041838e+002 1.114425e+002
         vertex 1.878898e+002 8.047698e+002 1.114425e+002
      endloop
   endfacet
   facet normal 0.000000e+000 0.000000e+000 -1.000000e+000
      outer loop
         vertex 1.864663e+002 7.994952e+002 1.114425e+002
         vertex 1.885707e+002 8.052448e+002 1.114425e+002
         vertex 1.868158e+002 7.987422e+002 1.114425e+002
      endloop
   endfacet
   facet normal 0.000000e+000 0.000000e+000 -1.000000e+000
      outer loop
         vertex 1.868158e+002 7.987422e+002 1.114425e+002
         vertex 1.885707e+002 8.052448e+002 1.114425e+002
         vertex 1.893237e+002 8.055942e+002 1.114425e+002
      endloop
   endfacet
   facet normal 0.000000e+000 0.000000e+000 -1.000000e+000
      outer loop
         vertex 1.868158e+002 7.987422e+002 1.114425e+002
         vertex 1.893237e+002 8.055942e+002 1.114425e+002
         vertex 1.901259e+002 8.058077e+002 1.114425e+002
      endloop
   endfacet
endsolid