solid FPM - SideTop-2 703-PlateBack-1
   facet normal -1.000000e+000 2.275957e-015 4.783088e-017
      outer loop
         vertex 1.103907e+003 1.168514e+003 1.876425e+002
         vertex 1.103907e+003 9.922141e+002 1.876425e+002
         vertex 1.103907e+003 1.168514e+003 5.178425e+002
      endloop
   endfacet
   facet normal -1.000000e+000 2.275957e-015 4.783088e-017
      outer loop
         vertex 1.103907e+003 1.168514e+003 5.178425e+002
         vertex 1.103907e+003 9.922141e+002 1.876425e+002
         vertex 1.103907e+003 9.922141e+002 5.178425e+002
      endloop
   endfacet
   facet normal 2.220446e-015 1.000000e+000 1.402006e-027
      outer loop
         vertex 1.105407e+003 1.168514e+003 1.876425e+002
         vertex 1.103907e+003 1.168514e+003 1.876425e+002
         vertex 1.105407e+003 1.168514e+003 5.178425e+002
      endloop
   endfacet
   facet normal 2.220446e-015 1.000000e+000 1.402006e-027
      outer loop
         vertex 1.105407e+003 1.168514e+003 5.178425e+002
         vertex 1.103907e+003 1.168514e+003 1.876425e+002
         vertex 1.103907e+003 1.168514e+003 5.178425e+002
      endloop
   endfacet
   facet normal 1.000000e+000 -2.275957e-015 -4.783088e-017
      outer loop
         vertex 1.105407e+003 9.922141e+002 1.876425e+002
         vertex 1.105407e+003 1.168514e+003 1.876425e+002
         vertex 1.105407e+003 9.922141e+002 5.178425e+002
      endloop
   endfacet
   facet normal 1.000000e+000 -2.275957e-015 -4.783088e-017
      outer loop
         vertex 1.105407e+003 9.922141e+002 5.178425e+002
         vertex 1.105407e+003 1.168514e+003 1.876425e+002
         vertex 1.105407e+003 1.168514e+003 5.178425e+002
      endloop
   endfacet
   facet normal -2.220446e-015 -1.000000e+000 -1.402006e-027
      outer loop
         vertex 1.103907e+003 9.922141e+002 1.876425e+002
         vertex 1.105407e+003 9.922141e+002 1.876425e+002
         vertex 1.103907e+003 9.922141e+002 5.178425e+002
      endloop
   endfacet
   facet normal -2.220446e-015 -1.000000e+000 -1.402006e-027
      outer loop
         vertex 1.103907e+003 9.922141e+002 5.178425e+002
         vertex 1.105407e+003 9.922141e+002 1.876425e+002
         vertex 1.105407e+003 9.922141e+002 5.178425e+002
      endloop
   endfacet
   facet normal -4.783088e-017 1.402103e-027 -1.000000e+000
      outer loop
         vertex 1.105407e+003 1.168514e+003 1.876425e+002
         vertex 1.105407e+003 9.922141e+002 1.876425e+002
         vertex 1.103907e+003 1.168514e+003 1.876425e+002
      endloop
   endfacet
   facet normal -4.783088e-017 1.402103e-027 -1.000000e+000
      outer loop
         vertex 1.103907e+003 1.168514e+003 1.876425e+002
         vertex 1.105407e+003 9.922141e+002 1.876425e+002
         vertex 1.103907e+003 9.922141e+002 1.876425e+002
      endloop
   endfacet
   facet normal 4.783088e-017 -1.402103e-027 1.000000e+000
      outer loop
         vertex 1.105407e+003 9.922141e+002 5.178425e+002
         vertex 1.105407e+003 1.168514e+003 5.178425e+002
         vertex 1.103907e+003 9.922141e+002 5.178425e+002
      endloop
   endfacet
   facet normal 4.783088e-017 -1.402103e-027 1.000000e+000
      outer loop
         vertex 1.103907e+003 9.922141e+002 5.178425e+002
         vertex 1.105407e+003 1.168514e+003 5.178425e+002
         vertex 1.103907e+003 1.168514e+003 5.178425e+002
      endloop
   endfacet
endsolid