solid I - D0-1
   facet normal 0.000000e+000 1.000000e+000 0.000000e+000
      outer loop
         vertex 3.072196e+001 4.024301e+002 4.268316e+002
         vertex 1.822196e+001 4.024301e+002 4.143316e+002
         vertex 3.072196e+001 4.024301e+002 4.768316e+002
      endloop
   endfacet
   facet normal 0.000000e+000 1.000000e+000 0.000000e+000
      outer loop
         vertex 3.072196e+001 4.024301e+002 4.768316e+002
         vertex 1.822196e+001 4.024301e+002 4.143316e+002
         vertex 1.822196e+001 4.024301e+002 4.893316e+002
      endloop
   endfacet
   facet normal 0.000000e+000 1.000000e+000 0.000000e+000
      outer loop
         vertex 3.072196e+001 4.024301e+002 4.768316e+002
         vertex 1.822196e+001 4.024301e+002 4.893316e+002
         vertex 8.072196e+001 4.024301e+002 4.768316e+002
      endloop
   endfacet
   facet normal 0.000000e+000 1.000000e+000 0.000000e+000
      outer loop
         vertex 8.072196e+001 4.024301e+002 4.768316e+002
         vertex 1.822196e+001 4.024301e+002 4.893316e+002
         vertex 9.322196e+001 4.024301e+002 4.893316e+002
      endloop
   endfacet
   facet normal 0.000000e+000 1.000000e+000 0.000000e+000
      outer loop
         vertex 8.072196e+001 4.024301e+002 4.768316e+002
         vertex 9.322196e+001 4.024301e+002 4.893316e+002
         vertex 8.072196e+001 4.024301e+002 4.268316e+002
      endloop
   endfacet
   facet normal 0.000000e+000 1.000000e+000 0.000000e+000
      outer loop
         vertex 8.072196e+001 4.024301e+002 4.268316e+002
         vertex 9.322196e+001 4.024301e+002 4.893316e+002
         vertex 9.322196e+001 4.024301e+002 4.143316e+002
      endloop
   endfacet
   facet normal 0.000000e+000 1.000000e+000 0.000000e+000
      outer loop
         vertex 8.072196e+001 4.024301e+002 4.268316e+002
         vertex 9.322196e+001 4.024301e+002 4.143316e+002
         vertex 3.072196e+001 4.024301e+002 4.268316e+002
      endloop
   endfacet
   facet normal 0.000000e+000 1.000000e+000 0.000000e+000
      outer loop
         vertex 3.072196e+001 4.024301e+002 4.268316e+002
         vertex 9.322196e+001 4.024301e+002 4.143316e+002
         vertex 1.822196e+001 4.024301e+002 4.143316e+002
      endloop
   endfacet
   facet normal -1.000000e+000 0.000000e+000 0.000000e+000
      outer loop
         vertex 1.822196e+001 4.024301e+002 4.893316e+002
         vertex 1.822196e+001 4.024301e+002 4.143316e+002
         vertex 1.822196e+001 1.024301e+002 4.893316e+002
      endloop
   endfacet
   facet normal -1.000000e+000 0.000000e+000 0.000000e+000
      outer loop
         vertex 1.822196e+001 1.024301e+002 4.893316e+002
         vertex 1.822196e+001 4.024301e+002 4.143316e+002
         vertex 1.822196e+001 1.024301e+002 4.143316e+002
      endloop
   endfacet
   facet normal 0.000000e+000 0.000000e+000 1.000000e+000
      outer loop
         vertex 9.322196e+001 4.024301e+002 4.893316e+002
         vertex 1.822196e+001 4.024301e+002 4.893316e+002
         vertex 9.322196e+001 1.024301e+002 4.893316e+002
      endloop
   endfacet
   facet normal 0.000000e+000 0.000000e+000 1.000000e+000
      outer loop
         vertex 9.322196e+001 1.024301e+002 4.893316e+002
         vertex 1.822196e+001 4.024301e+002 4.893316e+002
         vertex 1.822196e+001 1.024301e+002 4.893316e+002
      endloop
   endfacet
   facet normal 1.000000e+000 0.000000e+000 0.000000e+000
      outer loop
         vertex 9.322196e+001 4.024301e+002 4.143316e+002
         vertex 9.322196e+001 4.024301e+002 4.893316e+002
         vertex 9.322196e+001 1.024301e+002 4.143316e+002
      endloop
   endfacet
   facet normal 1.000000e+000 0.000000e+000 0.000000e+000
      outer loop
         vertex 9.322196e+001 1.024301e+002 4.143316e+002
         vertex 9.322196e+001 4.024301e+002 4.893316e+002
         vertex 9.322196e+001 1.024301e+002 4.893316e+002
      endloop
   endfacet
   facet normal -9.251858e-017 0.000000e+000 -1.000000e+000
      outer loop
         vertex 1.822196e+001 4.024301e+002 4.143316e+002
         vertex 9.322196e+001 4.024301e+002 4.143316e+002
         vertex 1.822196e+001 1.024301e+002 4.143316e+002
      endloop
   endfacet
   facet normal -9.251858e-017 0.000000e+000 -1.000000e+000
      outer loop
         vertex 1.822196e+001 1.024301e+002 4.143316e+002
         vertex 9.322196e+001 4.024301e+002 4.143316e+002
         vertex 9.322196e+001 1.024301e+002 4.143316e+002
      endloop
   endfacet
   facet normal 0.000000e+000 -1.000000e+000 0.000000e+000
      outer loop
         vertex 3.072196e+001 1.024301e+002 4.268316e+002
         vertex 1.822196e+001 1.024301e+002 4.143316e+002
         vertex 9.322196e+001 1.024301e+002 4.143316e+002
      endloop
   endfacet
   facet normal 0.000000e+000 -1.000000e+000 0.000000e+000
      outer loop
         vertex 1.822196e+001 1.024301e+002 4.143316e+002
         vertex 3.072196e+001 1.024301e+002 4.268316e+002
         vertex 1.822196e+001 1.024301e+002 4.893316e+002
      endloop
   endfacet
   facet normal 0.000000e+000 -1.000000e+000 0.000000e+000
      outer loop
         vertex 1.822196e+001 1.024301e+002 4.893316e+002
         vertex 3.072196e+001 1.024301e+002 4.268316e+002
         vertex 3.072196e+001 1.024301e+002 4.768316e+002
      endloop
   endfacet
   facet normal 0.000000e+000 -1.000000e+000 0.000000e+000
      outer loop
         vertex 1.822196e+001 1.024301e+002 4.893316e+002
         vertex 3.072196e+001 1.024301e+002 4.768316e+002
         vertex 9.322196e+001 1.024301e+002 4.893316e+002
      endloop
   endfacet
   facet normal 0.000000e+000 -1.000000e+000 0.000000e+000
      outer loop
         vertex 9.322196e+001 1.024301e+002 4.893316e+002
         vertex 3.072196e+001 1.024301e+002 4.768316e+002
         vertex 8.072196e+001 1.024301e+002 4.768316e+002
      endloop
   endfacet
   facet normal 0.000000e+000 -1.000000e+000 0.000000e+000
      outer loop
         vertex 9.322196e+001 1.024301e+002 4.893316e+002
         vertex 8.072196e+001 1.024301e+002 4.768316e+002
         vertex 9.322196e+001 1.024301e+002 4.143316e+002
      endloop
   endfacet
   facet normal 0.000000e+000 -1.000000e+000 0.000000e+000
      outer loop
         vertex 9.322196e+001 1.024301e+002 4.143316e+002
         vertex 8.072196e+001 1.024301e+002 4.768316e+002
         vertex 8.072196e+001 1.024301e+002 4.268316e+002
      endloop
   endfacet
   facet normal 0.000000e+000 -1.000000e+000 0.000000e+000
      outer loop
         vertex 9.322196e+001 1.024301e+002 4.143316e+002
         vertex 8.072196e+001 1.024301e+002 4.268316e+002
         vertex 3.072196e+001 1.024301e+002 4.268316e+002
      endloop
   endfacet
   facet normal -1.000000e+000 0.000000e+000 0.000000e+000
      outer loop
         vertex 3.072196e+001 4.224301e+002 4.768316e+002
         vertex 3.072196e+001 4.224301e+002 4.268316e+002
         vertex 3.072196e+001 4.024301e+002 4.768316e+002
      endloop
   endfacet
   facet normal -1.000000e+000 0.000000e+000 0.000000e+000
      outer loop
         vertex 3.072196e+001 4.024301e+002 4.768316e+002
         vertex 3.072196e+001 4.224301e+002 4.268316e+002
         vertex 3.072196e+001 4.024301e+002 4.268316e+002
      endloop
   endfacet
   facet normal 1.387779e-016 0.000000e+000 1.000000e+000
      outer loop
         vertex 8.072196e+001 4.224301e+002 4.768316e+002
         vertex 3.072196e+001 4.224301e+002 4.768316e+002
         vertex 8.072196e+001 4.024301e+002 4.768316e+002
      endloop
   endfacet
   facet normal 1.387779e-016 0.000000e+000 1.000000e+000
      outer loop
         vertex 8.072196e+001 4.024301e+002 4.768316e+002
         vertex 3.072196e+001 4.224301e+002 4.768316e+002
         vertex 3.072196e+001 4.024301e+002 4.768316e+002
      endloop
   endfacet
   facet normal 1.000000e+000 0.000000e+000 0.000000e+000
      outer loop
         vertex 8.072196e+001 4.224301e+002 4.268316e+002
         vertex 8.072196e+001 4.224301e+002 4.768316e+002
         vertex 8.072196e+001 4.024301e+002 4.268316e+002
      endloop
   endfacet
   facet normal 1.000000e+000 0.000000e+000 0.000000e+000
      outer loop
         vertex 8.072196e+001 4.024301e+002 4.268316e+002
         vertex 8.072196e+001 4.224301e+002 4.768316e+002
         vertex 8.072196e+001 4.024301e+002 4.768316e+002
      endloop
   endfacet
   facet normal -1.387779e-016 0.000000e+000 -1.000000e+000
      outer loop
         vertex 3.072196e+001 4.224301e+002 4.268316e+002
         vertex 8.072196e+001 4.224301e+002 4.268316e+002
         vertex 3.072196e+001 4.024301e+002 4.268316e+002
      endloop
   endfacet
   facet normal -1.387779e-016 0.000000e+000 -1.000000e+000
      outer loop
         vertex 3.072196e+001 4.024301e+002 4.268316e+002
         vertex 8.072196e+001 4.224301e+002 4.268316e+002
         vertex 8.072196e+001 4.024301e+002 4.268316e+002
      endloop
   endfacet
   facet normal 0.000000e+000 1.000000e+000 0.000000e+000
      outer loop
         vertex 8.072196e+001 4.224301e+002 4.768316e+002
         vertex 8.072196e+001 4.224301e+002 4.268316e+002
         vertex 3.072196e+001 4.224301e+002 4.768316e+002
      endloop
   endfacet
   facet normal 0.000000e+000 1.000000e+000 0.000000e+000
      outer loop
         vertex 3.072196e+001 4.224301e+002 4.768316e+002
         vertex 8.072196e+001 4.224301e+002 4.268316e+002
         vertex 3.072196e+001 4.224301e+002 4.268316e+002
      endloop
   endfacet
   facet normal -1.000000e+000 0.000000e+000 0.000000e+000
      outer loop
         vertex 3.072196e+001 8.243012e+001 4.268316e+002
         vertex 3.072196e+001 8.243012e+001 4.768316e+002
         vertex 3.072196e+001 1.024301e+002 4.268316e+002
      endloop
   endfacet
   facet normal -1.000000e+000 0.000000e+000 0.000000e+000
      outer loop
         vertex 3.072196e+001 1.024301e+002 4.268316e+002
         vertex 3.072196e+001 8.243012e+001 4.768316e+002
         vertex 3.072196e+001 1.024301e+002 4.768316e+002
      endloop
   endfacet
   facet normal -1.387779e-016 0.000000e+000 -1.000000e+000
      outer loop
         vertex 8.072196e+001 8.243012e+001 4.268316e+002
         vertex 3.072196e+001 8.243012e+001 4.268316e+002
         vertex 8.072196e+001 1.024301e+002 4.268316e+002
      endloop
   endfacet
   facet normal -1.387779e-016 0.000000e+000 -1.000000e+000
      outer loop
         vertex 8.072196e+001 1.024301e+002 4.268316e+002
         vertex 3.072196e+001 8.243012e+001 4.268316e+002
         vertex 3.072196e+001 1.024301e+002 4.268316e+002
      endloop
   endfacet
   facet normal 1.000000e+000 0.000000e+000 0.000000e+000
      outer loop
         vertex 8.072196e+001 8.243012e+001 4.768316e+002
         vertex 8.072196e+001 8.243012e+001 4.268316e+002
         vertex 8.072196e+001 1.024301e+002 4.768316e+002
      endloop
   endfacet
   facet normal 1.000000e+000 0.000000e+000 0.000000e+000
      outer loop
         vertex 8.072196e+001 1.024301e+002 4.768316e+002
         vertex 8.072196e+001 8.243012e+001 4.268316e+002
         vertex 8.072196e+001 1.024301e+002 4.268316e+002
      endloop
   endfacet
   facet normal 1.387779e-016 0.000000e+000 1.000000e+000
      outer loop
         vertex 3.072196e+001 8.243012e+001 4.768316e+002
         vertex 8.072196e+001 8.243012e+001 4.768316e+002
         vertex 3.072196e+001 1.024301e+002 4.768316e+002
      endloop
   endfacet
   facet normal 1.387779e-016 0.000000e+000 1.000000e+000
      outer loop
         vertex 3.072196e+001 1.024301e+002 4.768316e+002
         vertex 8.072196e+001 8.243012e+001 4.768316e+002
         vertex 8.072196e+001 1.024301e+002 4.768316e+002
      endloop
   endfacet
   facet normal 0.000000e+000 -1.000000e+000 0.000000e+000
      outer loop
         vertex 8.072196e+001 8.243012e+001 4.268316e+002
         vertex 8.072196e+001 8.243012e+001 4.768316e+002
         vertex 3.072196e+001 8.243012e+001 4.268316e+002
      endloop
   endfacet
   facet normal 0.000000e+000 -1.000000e+000 0.000000e+000
      outer loop
         vertex 3.072196e+001 8.243012e+001 4.268316e+002
         vertex 8.072196e+001 8.243012e+001 4.768316e+002
         vertex 3.072196e+001 8.243012e+001 4.768316e+002
      endloop
   endfacet
endsolid