solid I - B0-1
   facet normal 0.000000e+000 1.000000e+000 0.000000e+000
      outer loop
         vertex 4.307220e+002 4.024301e+002 4.268316e+002
         vertex 4.182220e+002 4.024301e+002 4.143316e+002
         vertex 4.307220e+002 4.024301e+002 4.768316e+002
      endloop
   endfacet
   facet normal 0.000000e+000 1.000000e+000 0.000000e+000
      outer loop
         vertex 4.307220e+002 4.024301e+002 4.768316e+002
         vertex 4.182220e+002 4.024301e+002 4.143316e+002
         vertex 4.182220e+002 4.024301e+002 4.893316e+002
      endloop
   endfacet
   facet normal 0.000000e+000 1.000000e+000 0.000000e+000
      outer loop
         vertex 4.307220e+002 4.024301e+002 4.768316e+002
         vertex 4.182220e+002 4.024301e+002 4.893316e+002
         vertex 4.807220e+002 4.024301e+002 4.768316e+002
      endloop
   endfacet
   facet normal 0.000000e+000 1.000000e+000 0.000000e+000
      outer loop
         vertex 4.807220e+002 4.024301e+002 4.768316e+002
         vertex 4.182220e+002 4.024301e+002 4.893316e+002
         vertex 4.932220e+002 4.024301e+002 4.893316e+002
      endloop
   endfacet
   facet normal 0.000000e+000 1.000000e+000 0.000000e+000
      outer loop
         vertex 4.807220e+002 4.024301e+002 4.768316e+002
         vertex 4.932220e+002 4.024301e+002 4.893316e+002
         vertex 4.807220e+002 4.024301e+002 4.268316e+002
      endloop
   endfacet
   facet normal 0.000000e+000 1.000000e+000 0.000000e+000
      outer loop
         vertex 4.807220e+002 4.024301e+002 4.268316e+002
         vertex 4.932220e+002 4.024301e+002 4.893316e+002
         vertex 4.932220e+002 4.024301e+002 4.143316e+002
      endloop
   endfacet
   facet normal 0.000000e+000 1.000000e+000 0.000000e+000
      outer loop
         vertex 4.807220e+002 4.024301e+002 4.268316e+002
         vertex 4.932220e+002 4.024301e+002 4.143316e+002
         vertex 4.307220e+002 4.024301e+002 4.268316e+002
      endloop
   endfacet
   facet normal 0.000000e+000 1.000000e+000 0.000000e+000
      outer loop
         vertex 4.307220e+002 4.024301e+002 4.268316e+002
         vertex 4.932220e+002 4.024301e+002 4.143316e+002
         vertex 4.182220e+002 4.024301e+002 4.143316e+002
      endloop
   endfacet
   facet normal -1.000000e+000 0.000000e+000 0.000000e+000
      outer loop
         vertex 4.182220e+002 4.024301e+002 4.893316e+002
         vertex 4.182220e+002 4.024301e+002 4.143316e+002
         vertex 4.182220e+002 1.024301e+002 4.893316e+002
      endloop
   endfacet
   facet normal -1.000000e+000 0.000000e+000 0.000000e+000
      outer loop
         vertex 4.182220e+002 1.024301e+002 4.893316e+002
         vertex 4.182220e+002 4.024301e+002 4.143316e+002
         vertex 4.182220e+002 1.024301e+002 4.143316e+002
      endloop
   endfacet
   facet normal 0.000000e+000 0.000000e+000 1.000000e+000
      outer loop
         vertex 4.932220e+002 4.024301e+002 4.893316e+002
         vertex 4.182220e+002 4.024301e+002 4.893316e+002
         vertex 4.932220e+002 1.024301e+002 4.893316e+002
      endloop
   endfacet
   facet normal 0.000000e+000 0.000000e+000 1.000000e+000
      outer loop
         vertex 4.932220e+002 1.024301e+002 4.893316e+002
         vertex 4.182220e+002 4.024301e+002 4.893316e+002
         vertex 4.182220e+002 1.024301e+002 4.893316e+002
      endloop
   endfacet
   facet normal 1.000000e+000 0.000000e+000 0.000000e+000
      outer loop
         vertex 4.932220e+002 4.024301e+002 4.143316e+002
         vertex 4.932220e+002 4.024301e+002 4.893316e+002
         vertex 4.932220e+002 1.024301e+002 4.143316e+002
      endloop
   endfacet
   facet normal 1.000000e+000 0.000000e+000 0.000000e+000
      outer loop
         vertex 4.932220e+002 1.024301e+002 4.143316e+002
         vertex 4.932220e+002 4.024301e+002 4.893316e+002
         vertex 4.932220e+002 1.024301e+002 4.893316e+002
      endloop
   endfacet
   facet normal -9.251858e-017 0.000000e+000 -1.000000e+000
      outer loop
         vertex 4.182220e+002 4.024301e+002 4.143316e+002
         vertex 4.932220e+002 4.024301e+002 4.143316e+002
         vertex 4.182220e+002 1.024301e+002 4.143316e+002
      endloop
   endfacet
   facet normal -9.251858e-017 0.000000e+000 -1.000000e+000
      outer loop
         vertex 4.182220e+002 1.024301e+002 4.143316e+002
         vertex 4.932220e+002 4.024301e+002 4.143316e+002
         vertex 4.932220e+002 1.024301e+002 4.143316e+002
      endloop
   endfacet
   facet normal 0.000000e+000 -1.000000e+000 0.000000e+000
      outer loop
         vertex 4.307220e+002 1.024301e+002 4.268316e+002
         vertex 4.182220e+002 1.024301e+002 4.143316e+002
         vertex 4.932220e+002 1.024301e+002 4.143316e+002
      endloop
   endfacet
   facet normal 0.000000e+000 -1.000000e+000 0.000000e+000
      outer loop
         vertex 4.182220e+002 1.024301e+002 4.143316e+002
         vertex 4.307220e+002 1.024301e+002 4.268316e+002
         vertex 4.182220e+002 1.024301e+002 4.893316e+002
      endloop
   endfacet
   facet normal 0.000000e+000 -1.000000e+000 0.000000e+000
      outer loop
         vertex 4.182220e+002 1.024301e+002 4.893316e+002
         vertex 4.307220e+002 1.024301e+002 4.268316e+002
         vertex 4.307220e+002 1.024301e+002 4.768316e+002
      endloop
   endfacet
   facet normal 0.000000e+000 -1.000000e+000 0.000000e+000
      outer loop
         vertex 4.182220e+002 1.024301e+002 4.893316e+002
         vertex 4.307220e+002 1.024301e+002 4.768316e+002
         vertex 4.932220e+002 1.024301e+002 4.893316e+002
      endloop
   endfacet
   facet normal 0.000000e+000 -1.000000e+000 0.000000e+000
      outer loop
         vertex 4.932220e+002 1.024301e+002 4.893316e+002
         vertex 4.307220e+002 1.024301e+002 4.768316e+002
         vertex 4.807220e+002 1.024301e+002 4.768316e+002
      endloop
   endfacet
   facet normal 0.000000e+000 -1.000000e+000 0.000000e+000
      outer loop
         vertex 4.932220e+002 1.024301e+002 4.893316e+002
         vertex 4.807220e+002 1.024301e+002 4.768316e+002
         vertex 4.932220e+002 1.024301e+002 4.143316e+002
      endloop
   endfacet
   facet normal 0.000000e+000 -1.000000e+000 0.000000e+000
      outer loop
         vertex 4.932220e+002 1.024301e+002 4.143316e+002
         vertex 4.807220e+002 1.024301e+002 4.768316e+002
         vertex 4.807220e+002 1.024301e+002 4.268316e+002
      endloop
   endfacet
   facet normal 0.000000e+000 -1.000000e+000 0.000000e+000
      outer loop
         vertex 4.932220e+002 1.024301e+002 4.143316e+002
         vertex 4.807220e+002 1.024301e+002 4.268316e+002
         vertex 4.307220e+002 1.024301e+002 4.268316e+002
      endloop
   endfacet
   facet normal -1.000000e+000 0.000000e+000 0.000000e+000
      outer loop
         vertex 4.307220e+002 4.224301e+002 4.768316e+002
         vertex 4.307220e+002 4.224301e+002 4.268316e+002
         vertex 4.307220e+002 4.024301e+002 4.768316e+002
      endloop
   endfacet
   facet normal -1.000000e+000 0.000000e+000 0.000000e+000
      outer loop
         vertex 4.307220e+002 4.024301e+002 4.768316e+002
         vertex 4.307220e+002 4.224301e+002 4.268316e+002
         vertex 4.307220e+002 4.024301e+002 4.268316e+002
      endloop
   endfacet
   facet normal 1.387779e-016 0.000000e+000 1.000000e+000
      outer loop
         vertex 4.807220e+002 4.224301e+002 4.768316e+002
         vertex 4.307220e+002 4.224301e+002 4.768316e+002
         vertex 4.807220e+002 4.024301e+002 4.768316e+002
      endloop
   endfacet
   facet normal 1.387779e-016 0.000000e+000 1.000000e+000
      outer loop
         vertex 4.807220e+002 4.024301e+002 4.768316e+002
         vertex 4.307220e+002 4.224301e+002 4.768316e+002
         vertex 4.307220e+002 4.024301e+002 4.768316e+002
      endloop
   endfacet
   facet normal 1.000000e+000 0.000000e+000 0.000000e+000
      outer loop
         vertex 4.807220e+002 4.224301e+002 4.268316e+002
         vertex 4.807220e+002 4.224301e+002 4.768316e+002
         vertex 4.807220e+002 4.024301e+002 4.268316e+002
      endloop
   endfacet
   facet normal 1.000000e+000 0.000000e+000 0.000000e+000
      outer loop
         vertex 4.807220e+002 4.024301e+002 4.268316e+002
         vertex 4.807220e+002 4.224301e+002 4.768316e+002
         vertex 4.807220e+002 4.024301e+002 4.768316e+002
      endloop
   endfacet
   facet normal -1.387779e-016 0.000000e+000 -1.000000e+000
      outer loop
         vertex 4.307220e+002 4.224301e+002 4.268316e+002
         vertex 4.807220e+002 4.224301e+002 4.268316e+002
         vertex 4.307220e+002 4.024301e+002 4.268316e+002
      endloop
   endfacet
   facet normal -1.387779e-016 0.000000e+000 -1.000000e+000
      outer loop
         vertex 4.307220e+002 4.024301e+002 4.268316e+002
         vertex 4.807220e+002 4.224301e+002 4.268316e+002
         vertex 4.807220e+002 4.024301e+002 4.268316e+002
      endloop
   endfacet
   facet normal 0.000000e+000 1.000000e+000 0.000000e+000
      outer loop
         vertex 4.807220e+002 4.224301e+002 4.768316e+002
         vertex 4.807220e+002 4.224301e+002 4.268316e+002
         vertex 4.307220e+002 4.224301e+002 4.768316e+002
      endloop
   endfacet
   facet normal 0.000000e+000 1.000000e+000 0.000000e+000
      outer loop
         vertex 4.307220e+002 4.224301e+002 4.768316e+002
         vertex 4.807220e+002 4.224301e+002 4.268316e+002
         vertex 4.307220e+002 4.224301e+002 4.268316e+002
      endloop
   endfacet
   facet normal -1.000000e+000 0.000000e+000 0.000000e+000
      outer loop
         vertex 4.307220e+002 8.243012e+001 4.268316e+002
         vertex 4.307220e+002 8.243012e+001 4.768316e+002
         vertex 4.307220e+002 1.024301e+002 4.268316e+002
      endloop
   endfacet
   facet normal -1.000000e+000 0.000000e+000 0.000000e+000
      outer loop
         vertex 4.307220e+002 1.024301e+002 4.268316e+002
         vertex 4.307220e+002 8.243012e+001 4.768316e+002
         vertex 4.307220e+002 1.024301e+002 4.768316e+002
      endloop
   endfacet
   facet normal -1.387779e-016 0.000000e+000 -1.000000e+000
      outer loop
         vertex 4.807220e+002 8.243012e+001 4.268316e+002
         vertex 4.307220e+002 8.243012e+001 4.268316e+002
         vertex 4.807220e+002 1.024301e+002 4.268316e+002
      endloop
   endfacet
   facet normal -1.387779e-016 0.000000e+000 -1.000000e+000
      outer loop
         vertex 4.807220e+002 1.024301e+002 4.268316e+002
         vertex 4.307220e+002 8.243012e+001 4.268316e+002
         vertex 4.307220e+002 1.024301e+002 4.268316e+002
      endloop
   endfacet
   facet normal 1.000000e+000 0.000000e+000 0.000000e+000
      outer loop
         vertex 4.807220e+002 8.243012e+001 4.768316e+002
         vertex 4.807220e+002 8.243012e+001 4.268316e+002
         vertex 4.807220e+002 1.024301e+002 4.768316e+002
      endloop
   endfacet
   facet normal 1.000000e+000 0.000000e+000 0.000000e+000
      outer loop
         vertex 4.807220e+002 1.024301e+002 4.768316e+002
         vertex 4.807220e+002 8.243012e+001 4.268316e+002
         vertex 4.807220e+002 1.024301e+002 4.268316e+002
      endloop
   endfacet
   facet normal 1.387779e-016 0.000000e+000 1.000000e+000
      outer loop
         vertex 4.307220e+002 8.243012e+001 4.768316e+002
         vertex 4.807220e+002 8.243012e+001 4.768316e+002
         vertex 4.307220e+002 1.024301e+002 4.768316e+002
      endloop
   endfacet
   facet normal 1.387779e-016 0.000000e+000 1.000000e+000
      outer loop
         vertex 4.307220e+002 1.024301e+002 4.768316e+002
         vertex 4.807220e+002 8.243012e+001 4.768316e+002
         vertex 4.807220e+002 1.024301e+002 4.768316e+002
      endloop
   endfacet
   facet normal 0.000000e+000 -1.000000e+000 0.000000e+000
      outer loop
         vertex 4.807220e+002 8.243012e+001 4.268316e+002
         vertex 4.807220e+002 8.243012e+001 4.768316e+002
         vertex 4.307220e+002 8.243012e+001 4.268316e+002
      endloop
   endfacet
   facet normal 0.000000e+000 -1.000000e+000 0.000000e+000
      outer loop
         vertex 4.307220e+002 8.243012e+001 4.268316e+002
         vertex 4.807220e+002 8.243012e+001 4.768316e+002
         vertex 4.307220e+002 8.243012e+001 4.768316e+002
      endloop
   endfacet
endsolid