solid I - BCG0-1
   facet normal 0.000000e+000 1.000000e+000 0.000000e+000
      outer loop
         vertex 4.807220e+002 2.743012e+001 4.768316e+002
         vertex 5.057220e+002 2.743012e+001 4.768316e+002
         vertex 4.807220e+002 2.743012e+001 4.268316e+002
      endloop
   endfacet
   facet normal 0.000000e+000 1.000000e+000 0.000000e+000
      outer loop
         vertex 4.807220e+002 2.743012e+001 4.268316e+002
         vertex 5.057220e+002 2.743012e+001 4.768316e+002
         vertex 5.057220e+002 2.743012e+001 4.268316e+002
      endloop
   endfacet
   facet normal 0.000000e+000 1.000000e+000 0.000000e+000
      outer loop
         vertex 4.307220e+002 2.743012e+001 4.768316e+002
         vertex 4.307220e+002 2.743012e+001 5.018316e+002
         vertex 4.807220e+002 2.743012e+001 4.768316e+002
      endloop
   endfacet
   facet normal 0.000000e+000 1.000000e+000 0.000000e+000
      outer loop
         vertex 4.807220e+002 2.743012e+001 4.768316e+002
         vertex 4.307220e+002 2.743012e+001 5.018316e+002
         vertex 4.807220e+002 2.743012e+001 5.018316e+002
      endloop
   endfacet
   facet normal 0.000000e+000 1.000000e+000 0.000000e+000
      outer loop
         vertex 4.307220e+002 2.743012e+001 4.268316e+002
         vertex 4.057220e+002 2.743012e+001 4.268316e+002
         vertex 4.307220e+002 2.743012e+001 4.768316e+002
      endloop
   endfacet
   facet normal 0.000000e+000 1.000000e+000 0.000000e+000
      outer loop
         vertex 4.307220e+002 2.743012e+001 4.768316e+002
         vertex 4.057220e+002 2.743012e+001 4.268316e+002
         vertex 4.057220e+002 2.743012e+001 4.768316e+002
      endloop
   endfacet
   facet normal 0.000000e+000 -1.000000e+000 0.000000e+000
      outer loop
         vertex 4.807220e+002 7.743012e+001 4.268316e+002
         vertex 5.057220e+002 7.743012e+001 4.268316e+002
         vertex 4.807220e+002 7.743012e+001 4.768316e+002
      endloop
   endfacet
   facet normal 0.000000e+000 -1.000000e+000 0.000000e+000
      outer loop
         vertex 4.807220e+002 7.743012e+001 4.768316e+002
         vertex 5.057220e+002 7.743012e+001 4.268316e+002
         vertex 5.057220e+002 7.743012e+001 4.768316e+002
      endloop
   endfacet
   facet normal 0.000000e+000 -1.000000e+000 0.000000e+000
      outer loop
         vertex 4.807220e+002 7.743012e+001 4.768316e+002
         vertex 4.807220e+002 7.743012e+001 5.018316e+002
         vertex 4.307220e+002 7.743012e+001 4.768316e+002
      endloop
   endfacet
   facet normal 0.000000e+000 -1.000000e+000 0.000000e+000
      outer loop
         vertex 4.307220e+002 7.743012e+001 4.768316e+002
         vertex 4.807220e+002 7.743012e+001 5.018316e+002
         vertex 4.307220e+002 7.743012e+001 5.018316e+002
      endloop
   endfacet
   facet normal 0.000000e+000 -1.000000e+000 0.000000e+000
      outer loop
         vertex 4.307220e+002 7.743012e+001 4.768316e+002
         vertex 4.057220e+002 7.743012e+001 4.768316e+002
         vertex 4.307220e+002 7.743012e+001 4.268316e+002
      endloop
   endfacet
   facet normal 0.000000e+000 -1.000000e+000 0.000000e+000
      outer loop
         vertex 4.307220e+002 7.743012e+001 4.268316e+002
         vertex 4.057220e+002 7.743012e+001 4.768316e+002
         vertex 4.057220e+002 7.743012e+001 4.268316e+002
      endloop
   endfacet
   facet normal -1.000000e+000 0.000000e+000 0.000000e+000
      outer loop
         vertex 4.807220e+002 7.743012e+001 4.268316e+002
         vertex 4.807220e+002 7.743012e+001 4.018316e+002
         vertex 4.807220e+002 2.743012e+001 4.268316e+002
      endloop
   endfacet
   facet normal -1.000000e+000 0.000000e+000 0.000000e+000
      outer loop
         vertex 4.807220e+002 2.743012e+001 4.268316e+002
         vertex 4.807220e+002 7.743012e+001 4.018316e+002
         vertex 4.807220e+002 2.743012e+001 4.018316e+002
      endloop
   endfacet
   facet normal 1.000000e+000 0.000000e+000 0.000000e+000
      outer loop
         vertex 4.307220e+002 2.743012e+001 4.268316e+002
         vertex 4.307220e+002 2.743012e+001 4.018316e+002
         vertex 4.307220e+002 7.743012e+001 4.268316e+002
      endloop
   endfacet
   facet normal 1.000000e+000 0.000000e+000 0.000000e+000
      outer loop
         vertex 4.307220e+002 7.743012e+001 4.268316e+002
         vertex 4.307220e+002 2.743012e+001 4.018316e+002
         vertex 4.307220e+002 7.743012e+001 4.018316e+002
      endloop
   endfacet
   facet normal 1.000000e+000 0.000000e+000 0.000000e+000
      outer loop
         vertex 5.057220e+002 7.743012e+001 4.268316e+002
         vertex 5.057220e+002 1.024301e+002 4.018316e+002
         vertex 5.057220e+002 1.024301e+002 5.018316e+002
      endloop
   endfacet
   facet normal 1.000000e+000 0.000000e+000 0.000000e+000
      outer loop
         vertex 5.057220e+002 1.024301e+002 4.018316e+002
         vertex 5.057220e+002 7.743012e+001 4.268316e+002
         vertex 5.057220e+002 2.430123e+000 4.018316e+002
      endloop
   endfacet
   facet normal 1.000000e+000 0.000000e+000 0.000000e+000
      outer loop
         vertex 5.057220e+002 2.430123e+000 4.018316e+002
         vertex 5.057220e+002 7.743012e+001 4.268316e+002
         vertex 5.057220e+002 2.743012e+001 4.268316e+002
      endloop
   endfacet
   facet normal 1.000000e+000 0.000000e+000 0.000000e+000
      outer loop
         vertex 5.057220e+002 2.430123e+000 4.018316e+002
         vertex 5.057220e+002 2.743012e+001 4.268316e+002
         vertex 5.057220e+002 2.430123e+000 5.018316e+002
      endloop
   endfacet
   facet normal 1.000000e+000 0.000000e+000 0.000000e+000
      outer loop
         vertex 5.057220e+002 2.430123e+000 5.018316e+002
         vertex 5.057220e+002 2.743012e+001 4.268316e+002
         vertex 5.057220e+002 2.743012e+001 4.768316e+002
      endloop
   endfacet
   facet normal 1.000000e+000 0.000000e+000 0.000000e+000
      outer loop
         vertex 5.057220e+002 2.430123e+000 5.018316e+002
         vertex 5.057220e+002 2.743012e+001 4.768316e+002
         vertex 5.057220e+002 1.024301e+002 5.018316e+002
      endloop
   endfacet
   facet normal 1.000000e+000 0.000000e+000 0.000000e+000
      outer loop
         vertex 5.057220e+002 1.024301e+002 5.018316e+002
         vertex 5.057220e+002 2.743012e+001 4.768316e+002
         vertex 5.057220e+002 7.743012e+001 4.768316e+002
      endloop
   endfacet
   facet normal 1.000000e+000 0.000000e+000 0.000000e+000
      outer loop
         vertex 5.057220e+002 1.024301e+002 5.018316e+002
         vertex 5.057220e+002 7.743012e+001 4.768316e+002
         vertex 5.057220e+002 7.743012e+001 4.268316e+002
      endloop
   endfacet
   facet normal 0.000000e+000 1.000000e+000 0.000000e+000
      outer loop
         vertex 4.307220e+002 1.024301e+002 4.268316e+002
         vertex 4.057220e+002 1.024301e+002 4.018316e+002
         vertex 4.307220e+002 1.024301e+002 4.768316e+002
      endloop
   endfacet
   facet normal 0.000000e+000 1.000000e+000 0.000000e+000
      outer loop
         vertex 4.307220e+002 1.024301e+002 4.768316e+002
         vertex 4.057220e+002 1.024301e+002 4.018316e+002
         vertex 4.057220e+002 1.024301e+002 5.018316e+002
      endloop
   endfacet
   facet normal 0.000000e+000 1.000000e+000 0.000000e+000
      outer loop
         vertex 4.307220e+002 1.024301e+002 4.768316e+002
         vertex 4.057220e+002 1.024301e+002 5.018316e+002
         vertex 4.807220e+002 1.024301e+002 4.768316e+002
      endloop
   endfacet
   facet normal 0.000000e+000 1.000000e+000 0.000000e+000
      outer loop
         vertex 4.807220e+002 1.024301e+002 4.768316e+002
         vertex 4.057220e+002 1.024301e+002 5.018316e+002
         vertex 5.057220e+002 1.024301e+002 5.018316e+002
      endloop
   endfacet
   facet normal 0.000000e+000 1.000000e+000 0.000000e+000
      outer loop
         vertex 4.807220e+002 1.024301e+002 4.768316e+002
         vertex 5.057220e+002 1.024301e+002 5.018316e+002
         vertex 4.807220e+002 1.024301e+002 4.268316e+002
      endloop
   endfacet
   facet normal 0.000000e+000 1.000000e+000 0.000000e+000
      outer loop
         vertex 4.807220e+002 1.024301e+002 4.268316e+002
         vertex 5.057220e+002 1.024301e+002 5.018316e+002
         vertex 5.057220e+002 1.024301e+002 4.018316e+002
      endloop
   endfacet
   facet normal 0.000000e+000 1.000000e+000 0.000000e+000
      outer loop
         vertex 4.807220e+002 1.024301e+002 4.268316e+002
         vertex 5.057220e+002 1.024301e+002 4.018316e+002
         vertex 4.307220e+002 1.024301e+002 4.268316e+002
      endloop
   endfacet
   facet normal 0.000000e+000 1.000000e+000 0.000000e+000
      outer loop
         vertex 4.307220e+002 1.024301e+002 4.268316e+002
         vertex 5.057220e+002 1.024301e+002 4.018316e+002
         vertex 4.057220e+002 1.024301e+002 4.018316e+002
      endloop
   endfacet
   facet normal -1.000000e+000 0.000000e+000 0.000000e+000
      outer loop
         vertex 4.057220e+002 7.743012e+001 4.768316e+002
         vertex 4.057220e+002 1.024301e+002 5.018316e+002
         vertex 4.057220e+002 7.743012e+001 4.268316e+002
      endloop
   endfacet
   facet normal -1.000000e+000 0.000000e+000 0.000000e+000
      outer loop
         vertex 4.057220e+002 7.743012e+001 4.268316e+002
         vertex 4.057220e+002 1.024301e+002 5.018316e+002
         vertex 4.057220e+002 1.024301e+002 4.018316e+002
      endloop
   endfacet
   facet normal -1.000000e+000 0.000000e+000 0.000000e+000
      outer loop
         vertex 4.057220e+002 7.743012e+001 4.268316e+002
         vertex 4.057220e+002 1.024301e+002 4.018316e+002
         vertex 4.057220e+002 2.743012e+001 4.268316e+002
      endloop
   endfacet
   facet normal -1.000000e+000 0.000000e+000 0.000000e+000
      outer loop
         vertex 4.057220e+002 2.743012e+001 4.268316e+002
         vertex 4.057220e+002 1.024301e+002 4.018316e+002
         vertex 4.057220e+002 2.430123e+000 4.018316e+002
      endloop
   endfacet
   facet normal -1.000000e+000 0.000000e+000 0.000000e+000
      outer loop
         vertex 4.057220e+002 2.743012e+001 4.268316e+002
         vertex 4.057220e+002 2.430123e+000 4.018316e+002
         vertex 4.057220e+002 2.743012e+001 4.768316e+002
      endloop
   endfacet
   facet normal -1.000000e+000 0.000000e+000 0.000000e+000
      outer loop
         vertex 4.057220e+002 2.743012e+001 4.768316e+002
         vertex 4.057220e+002 2.430123e+000 4.018316e+002
         vertex 4.057220e+002 2.430123e+000 5.018316e+002
      endloop
   endfacet
   facet normal -1.000000e+000 0.000000e+000 0.000000e+000
      outer loop
         vertex 4.057220e+002 2.743012e+001 4.768316e+002
         vertex 4.057220e+002 2.430123e+000 5.018316e+002
         vertex 4.057220e+002 7.743012e+001 4.768316e+002
      endloop
   endfacet
   facet normal -1.000000e+000 0.000000e+000 0.000000e+000
      outer loop
         vertex 4.057220e+002 7.743012e+001 4.768316e+002
         vertex 4.057220e+002 2.430123e+000 5.018316e+002
         vertex 4.057220e+002 1.024301e+002 5.018316e+002
      endloop
   endfacet
   facet normal 0.000000e+000 -1.000000e+000 0.000000e+000
      outer loop
         vertex 4.307220e+002 2.430123e+000 4.768316e+002
         vertex 4.057220e+002 2.430123e+000 5.018316e+002
         vertex 4.307220e+002 2.430123e+000 4.268316e+002
      endloop
   endfacet
   facet normal 0.000000e+000 -1.000000e+000 0.000000e+000
      outer loop
         vertex 4.307220e+002 2.430123e+000 4.268316e+002
         vertex 4.057220e+002 2.430123e+000 5.018316e+002
         vertex 4.057220e+002 2.430123e+000 4.018316e+002
      endloop
   endfacet
   facet normal 0.000000e+000 -1.000000e+000 0.000000e+000
      outer loop
         vertex 4.307220e+002 2.430123e+000 4.268316e+002
         vertex 4.057220e+002 2.430123e+000 4.018316e+002
         vertex 4.807220e+002 2.430123e+000 4.268316e+002
      endloop
   endfacet
   facet normal 0.000000e+000 -1.000000e+000 0.000000e+000
      outer loop
         vertex 4.807220e+002 2.430123e+000 4.268316e+002
         vertex 4.057220e+002 2.430123e+000 4.018316e+002
         vertex 5.057220e+002 2.430123e+000 4.018316e+002
      endloop
   endfacet
   facet normal 0.000000e+000 -1.000000e+000 0.000000e+000
      outer loop
         vertex 4.807220e+002 2.430123e+000 4.268316e+002
         vertex 5.057220e+002 2.430123e+000 4.018316e+002
         vertex 4.807220e+002 2.430123e+000 4.768316e+002
      endloop
   endfacet
   facet normal 0.000000e+000 -1.000000e+000 0.000000e+000
      outer loop
         vertex 4.807220e+002 2.430123e+000 4.768316e+002
         vertex 5.057220e+002 2.430123e+000 4.018316e+002
         vertex 5.057220e+002 2.430123e+000 5.018316e+002
      endloop
   endfacet
   facet normal 0.000000e+000 -1.000000e+000 0.000000e+000
      outer loop
         vertex 4.807220e+002 2.430123e+000 4.768316e+002
         vertex 5.057220e+002 2.430123e+000 5.018316e+002
         vertex 4.307220e+002 2.430123e+000 4.768316e+002
      endloop
   endfacet
   facet normal 0.000000e+000 -1.000000e+000 0.000000e+000
      outer loop
         vertex 4.307220e+002 2.430123e+000 4.768316e+002
         vertex 5.057220e+002 2.430123e+000 5.018316e+002
         vertex 4.057220e+002 2.430123e+000 5.018316e+002
      endloop
   endfacet
   facet normal 0.000000e+000 0.000000e+000 1.000000e+000
      outer loop
         vertex 4.807220e+002 7.743012e+001 5.018316e+002
         vertex 5.057220e+002 1.024301e+002 5.018316e+002
         vertex 4.057220e+002 1.024301e+002 5.018316e+002
      endloop
   endfacet
   facet normal 0.000000e+000 0.000000e+000 1.000000e+000
      outer loop
         vertex 5.057220e+002 1.024301e+002 5.018316e+002
         vertex 4.807220e+002 7.743012e+001 5.018316e+002
         vertex 5.057220e+002 2.430123e+000 5.018316e+002
      endloop
   endfacet
   facet normal 0.000000e+000 0.000000e+000 1.000000e+000
      outer loop
         vertex 5.057220e+002 2.430123e+000 5.018316e+002
         vertex 4.807220e+002 7.743012e+001 5.018316e+002
         vertex 4.807220e+002 2.743012e+001 5.018316e+002
      endloop
   endfacet
   facet normal 0.000000e+000 0.000000e+000 1.000000e+000
      outer loop
         vertex 5.057220e+002 2.430123e+000 5.018316e+002
         vertex 4.807220e+002 2.743012e+001 5.018316e+002
         vertex 4.057220e+002 2.430123e+000 5.018316e+002
      endloop
   endfacet
   facet normal 0.000000e+000 0.000000e+000 1.000000e+000
      outer loop
         vertex 4.057220e+002 2.430123e+000 5.018316e+002
         vertex 4.807220e+002 2.743012e+001 5.018316e+002
         vertex 4.307220e+002 2.743012e+001 5.018316e+002
      endloop
   endfacet
   facet normal 0.000000e+000 0.000000e+000 1.000000e+000
      outer loop
         vertex 4.057220e+002 2.430123e+000 5.018316e+002
         vertex 4.307220e+002 2.743012e+001 5.018316e+002
         vertex 4.057220e+002 1.024301e+002 5.018316e+002
      endloop
   endfacet
   facet normal 0.000000e+000 0.000000e+000 1.000000e+000
      outer loop
         vertex 4.057220e+002 1.024301e+002 5.018316e+002
         vertex 4.307220e+002 2.743012e+001 5.018316e+002
         vertex 4.307220e+002 7.743012e+001 5.018316e+002
      endloop
   endfacet
   facet normal 0.000000e+000 0.000000e+000 1.000000e+000
      outer loop
         vertex 4.057220e+002 1.024301e+002 5.018316e+002
         vertex 4.307220e+002 7.743012e+001 5.018316e+002
         vertex 4.807220e+002 7.743012e+001 5.018316e+002
      endloop
   endfacet
   facet normal 0.000000e+000 0.000000e+000 -1.000000e+000
      outer loop
         vertex 4.807220e+002 2.743012e+001 4.018316e+002
         vertex 5.057220e+002 2.430123e+000 4.018316e+002
         vertex 4.307220e+002 2.743012e+001 4.018316e+002
      endloop
   endfacet
   facet normal 0.000000e+000 0.000000e+000 -1.000000e+000
      outer loop
         vertex 4.307220e+002 2.743012e+001 4.018316e+002
         vertex 5.057220e+002 2.430123e+000 4.018316e+002
         vertex 4.057220e+002 2.430123e+000 4.018316e+002
      endloop
   endfacet
   facet normal 0.000000e+000 0.000000e+000 -1.000000e+000
      outer loop
         vertex 4.307220e+002 2.743012e+001 4.018316e+002
         vertex 4.057220e+002 2.430123e+000 4.018316e+002
         vertex 4.307220e+002 7.743012e+001 4.018316e+002
      endloop
   endfacet
   facet normal 0.000000e+000 0.000000e+000 -1.000000e+000
      outer loop
         vertex 4.307220e+002 7.743012e+001 4.018316e+002
         vertex 4.057220e+002 2.430123e+000 4.018316e+002
         vertex 4.057220e+002 1.024301e+002 4.018316e+002
      endloop
   endfacet
   facet normal 0.000000e+000 0.000000e+000 -1.000000e+000
      outer loop
         vertex 4.307220e+002 7.743012e+001 4.018316e+002
         vertex 4.057220e+002 1.024301e+002 4.018316e+002
         vertex 4.807220e+002 7.743012e+001 4.018316e+002
      endloop
   endfacet
   facet normal 0.000000e+000 0.000000e+000 -1.000000e+000
      outer loop
         vertex 4.807220e+002 7.743012e+001 4.018316e+002
         vertex 4.057220e+002 1.024301e+002 4.018316e+002
         vertex 5.057220e+002 1.024301e+002 4.018316e+002
      endloop
   endfacet
   facet normal 0.000000e+000 0.000000e+000 -1.000000e+000
      outer loop
         vertex 4.807220e+002 7.743012e+001 4.018316e+002
         vertex 5.057220e+002 1.024301e+002 4.018316e+002
         vertex 4.807220e+002 2.743012e+001 4.018316e+002
      endloop
   endfacet
   facet normal 0.000000e+000 0.000000e+000 -1.000000e+000
      outer loop
         vertex 4.807220e+002 2.743012e+001 4.018316e+002
         vertex 5.057220e+002 1.024301e+002 4.018316e+002
         vertex 5.057220e+002 2.430123e+000 4.018316e+002
      endloop
   endfacet
   facet normal -1.000000e+000 0.000000e+000 0.000000e+000
      outer loop
         vertex 4.807220e+002 2.743012e+001 4.768316e+002
         vertex 4.807220e+002 2.743012e+001 5.018316e+002
         vertex 4.807220e+002 7.743012e+001 4.768316e+002
      endloop
   endfacet
   facet normal -1.000000e+000 0.000000e+000 0.000000e+000
      outer loop
         vertex 4.807220e+002 7.743012e+001 4.768316e+002
         vertex 4.807220e+002 2.743012e+001 5.018316e+002
         vertex 4.807220e+002 7.743012e+001 5.018316e+002
      endloop
   endfacet
   facet normal 0.000000e+000 1.000000e+000 0.000000e+000
      outer loop
         vertex 4.807220e+002 2.743012e+001 4.268316e+002
         vertex 4.807220e+002 2.743012e+001 4.018316e+002
         vertex 4.307220e+002 2.743012e+001 4.268316e+002
      endloop
   endfacet
   facet normal 0.000000e+000 1.000000e+000 0.000000e+000
      outer loop
         vertex 4.307220e+002 2.743012e+001 4.268316e+002
         vertex 4.807220e+002 2.743012e+001 4.018316e+002
         vertex 4.307220e+002 2.743012e+001 4.018316e+002
      endloop
   endfacet
   facet normal 1.000000e+000 0.000000e+000 0.000000e+000
      outer loop
         vertex 4.307220e+002 7.743012e+001 4.768316e+002
         vertex 4.307220e+002 7.743012e+001 5.018316e+002
         vertex 4.307220e+002 2.743012e+001 4.768316e+002
      endloop
   endfacet
   facet normal 1.000000e+000 0.000000e+000 0.000000e+000
      outer loop
         vertex 4.307220e+002 2.743012e+001 4.768316e+002
         vertex 4.307220e+002 7.743012e+001 5.018316e+002
         vertex 4.307220e+002 2.743012e+001 5.018316e+002
      endloop
   endfacet
   facet normal 0.000000e+000 -1.000000e+000 0.000000e+000
      outer loop
         vertex 4.307220e+002 7.743012e+001 4.268316e+002
         vertex 4.307220e+002 7.743012e+001 4.018316e+002
         vertex 4.807220e+002 7.743012e+001 4.268316e+002
      endloop
   endfacet
   facet normal 0.000000e+000 -1.000000e+000 0.000000e+000
      outer loop
         vertex 4.807220e+002 7.743012e+001 4.268316e+002
         vertex 4.307220e+002 7.743012e+001 4.018316e+002
         vertex 4.807220e+002 7.743012e+001 4.018316e+002
      endloop
   endfacet
   facet normal 0.000000e+000 -1.387779e-016 -1.000000e+000
      outer loop
         vertex 4.057220e+002 7.743012e+001 4.768316e+002
         vertex 4.307220e+002 7.743012e+001 4.768316e+002
         vertex 4.057220e+002 2.743012e+001 4.768316e+002
      endloop
   endfacet
   facet normal 0.000000e+000 -1.387779e-016 -1.000000e+000
      outer loop
         vertex 4.057220e+002 2.743012e+001 4.768316e+002
         vertex 4.307220e+002 7.743012e+001 4.768316e+002
         vertex 4.307220e+002 2.743012e+001 4.768316e+002
      endloop
   endfacet
   facet normal 0.000000e+000 1.387779e-016 1.000000e+000
      outer loop
         vertex 4.057220e+002 2.743012e+001 4.268316e+002
         vertex 4.307220e+002 2.743012e+001 4.268316e+002
         vertex 4.057220e+002 7.743012e+001 4.268316e+002
      endloop
   endfacet
   facet normal 0.000000e+000 1.387779e-016 1.000000e+000
      outer loop
         vertex 4.057220e+002 7.743012e+001 4.268316e+002
         vertex 4.307220e+002 2.743012e+001 4.268316e+002
         vertex 4.307220e+002 7.743012e+001 4.268316e+002
      endloop
   endfacet
   facet normal 0.000000e+000 1.387779e-016 1.000000e+000
      outer loop
         vertex 5.057220e+002 7.743012e+001 4.268316e+002
         vertex 4.807220e+002 7.743012e+001 4.268316e+002
         vertex 5.057220e+002 2.743012e+001 4.268316e+002
      endloop
   endfacet
   facet normal 0.000000e+000 1.387779e-016 1.000000e+000
      outer loop
         vertex 5.057220e+002 2.743012e+001 4.268316e+002
         vertex 4.807220e+002 7.743012e+001 4.268316e+002
         vertex 4.807220e+002 2.743012e+001 4.268316e+002
      endloop
   endfacet
   facet normal 0.000000e+000 -1.387779e-016 -1.000000e+000
      outer loop
         vertex 5.057220e+002 2.743012e+001 4.768316e+002
         vertex 4.807220e+002 2.743012e+001 4.768316e+002
         vertex 5.057220e+002 7.743012e+001 4.768316e+002
      endloop
   endfacet
   facet normal 0.000000e+000 -1.387779e-016 -1.000000e+000
      outer loop
         vertex 5.057220e+002 7.743012e+001 4.768316e+002
         vertex 4.807220e+002 2.743012e+001 4.768316e+002
         vertex 4.807220e+002 7.743012e+001 4.768316e+002
      endloop
   endfacet
   facet normal 0.000000e+000 0.000000e+000 1.000000e+000
      outer loop
         vertex 4.307220e+002 1.024301e+002 4.268316e+002
         vertex 4.307220e+002 7.743012e+001 4.268316e+002
         vertex 4.807220e+002 1.024301e+002 4.268316e+002
      endloop
   endfacet
   facet normal 0.000000e+000 0.000000e+000 1.000000e+000
      outer loop
         vertex 4.807220e+002 1.024301e+002 4.268316e+002
         vertex 4.307220e+002 7.743012e+001 4.268316e+002
         vertex 4.807220e+002 7.743012e+001 4.268316e+002
      endloop
   endfacet
   facet normal 1.000000e+000 0.000000e+000 0.000000e+000
      outer loop
         vertex 4.307220e+002 1.024301e+002 4.768316e+002
         vertex 4.307220e+002 7.743012e+001 4.768316e+002
         vertex 4.307220e+002 1.024301e+002 4.268316e+002
      endloop
   endfacet
   facet normal 1.000000e+000 0.000000e+000 0.000000e+000
      outer loop
         vertex 4.307220e+002 1.024301e+002 4.268316e+002
         vertex 4.307220e+002 7.743012e+001 4.768316e+002
         vertex 4.307220e+002 7.743012e+001 4.268316e+002
      endloop
   endfacet
   facet normal 0.000000e+000 0.000000e+000 -1.000000e+000
      outer loop
         vertex 4.807220e+002 1.024301e+002 4.768316e+002
         vertex 4.807220e+002 7.743012e+001 4.768316e+002
         vertex 4.307220e+002 1.024301e+002 4.768316e+002
      endloop
   endfacet
   facet normal 0.000000e+000 0.000000e+000 -1.000000e+000
      outer loop
         vertex 4.307220e+002 1.024301e+002 4.768316e+002
         vertex 4.807220e+002 7.743012e+001 4.768316e+002
         vertex 4.307220e+002 7.743012e+001 4.768316e+002
      endloop
   endfacet
   facet normal -1.000000e+000 0.000000e+000 0.000000e+000
      outer loop
         vertex 4.807220e+002 1.024301e+002 4.268316e+002
         vertex 4.807220e+002 7.743012e+001 4.268316e+002
         vertex 4.807220e+002 1.024301e+002 4.768316e+002
      endloop
   endfacet
   facet normal -1.000000e+000 0.000000e+000 0.000000e+000
      outer loop
         vertex 4.807220e+002 1.024301e+002 4.768316e+002
         vertex 4.807220e+002 7.743012e+001 4.268316e+002
         vertex 4.807220e+002 7.743012e+001 4.768316e+002
      endloop
   endfacet
   facet normal 0.000000e+000 0.000000e+000 -1.000000e+000
      outer loop
         vertex 4.307220e+002 2.430123e+000 4.768316e+002
         vertex 4.307220e+002 2.743012e+001 4.768316e+002
         vertex 4.807220e+002 2.430123e+000 4.768316e+002
      endloop
   endfacet
   facet normal 0.000000e+000 0.000000e+000 -1.000000e+000
      outer loop
         vertex 4.807220e+002 2.430123e+000 4.768316e+002
         vertex 4.307220e+002 2.743012e+001 4.768316e+002
         vertex 4.807220e+002 2.743012e+001 4.768316e+002
      endloop
   endfacet
   facet normal 0.000000e+000 0.000000e+000 1.000000e+000
      outer loop
         vertex 4.807220e+002 2.430123e+000 4.268316e+002
         vertex 4.807220e+002 2.743012e+001 4.268316e+002
         vertex 4.307220e+002 2.430123e+000 4.268316e+002
      endloop
   endfacet
   facet normal 0.000000e+000 0.000000e+000 1.000000e+000
      outer loop
         vertex 4.307220e+002 2.430123e+000 4.268316e+002
         vertex 4.807220e+002 2.743012e+001 4.268316e+002
         vertex 4.307220e+002 2.743012e+001 4.268316e+002
      endloop
   endfacet
   facet normal 1.000000e+000 0.000000e+000 0.000000e+000
      outer loop
         vertex 4.307220e+002 2.430123e+000 4.268316e+002
         vertex 4.307220e+002 2.743012e+001 4.268316e+002
         vertex 4.307220e+002 2.430123e+000 4.768316e+002
      endloop
   endfacet
   facet normal 1.000000e+000 0.000000e+000 0.000000e+000
      outer loop
         vertex 4.307220e+002 2.430123e+000 4.768316e+002
         vertex 4.307220e+002 2.743012e+001 4.268316e+002
         vertex 4.307220e+002 2.743012e+001 4.768316e+002
      endloop
   endfacet
   facet normal -1.000000e+000 0.000000e+000 0.000000e+000
      outer loop
         vertex 4.807220e+002 2.430123e+000 4.768316e+002
         vertex 4.807220e+002 2.743012e+001 4.768316e+002
         vertex 4.807220e+002 2.430123e+000 4.268316e+002
      endloop
   endfacet
   facet normal -1.000000e+000 0.000000e+000 0.000000e+000
      outer loop
         vertex 4.807220e+002 2.430123e+000 4.268316e+002
         vertex 4.807220e+002 2.743012e+001 4.768316e+002
         vertex 4.807220e+002 2.743012e+001 4.268316e+002
      endloop
   endfacet
endsolid