solid CubeDouble - IFJ0-1
   facet normal -0.000000e+000 1.224647e-016 1.000000e+000
      outer loop
         vertex 8.590965e+001 2.740447e+001 8.263444e+002
         vertex 1.109096e+002 2.740447e+001 8.263444e+002
         vertex 8.590965e+001 7.740447e+001 8.263444e+002
      endloop
   endfacet
   facet normal -0.000000e+000 1.224647e-016 1.000000e+000
      outer loop
         vertex 8.590965e+001 7.740447e+001 8.263444e+002
         vertex 1.109096e+002 2.740447e+001 8.263444e+002
         vertex 1.109096e+002 7.740447e+001 8.263444e+002
      endloop
   endfacet
   facet normal -0.000000e+000 1.224647e-016 1.000000e+000
      outer loop
         vertex 3.590964e+001 2.740447e+001 8.263444e+002
         vertex 3.590964e+001 2.404471e+000 8.263444e+002
         vertex 8.590965e+001 2.740447e+001 8.263444e+002
      endloop
   endfacet
   facet normal -0.000000e+000 1.224647e-016 1.000000e+000
      outer loop
         vertex 8.590965e+001 2.740447e+001 8.263444e+002
         vertex 3.590964e+001 2.404471e+000 8.263444e+002
         vertex 8.590965e+001 2.404471e+000 8.263444e+002
      endloop
   endfacet
   facet normal -0.000000e+000 1.224647e-016 1.000000e+000
      outer loop
         vertex 3.590964e+001 7.740447e+001 8.263444e+002
         vertex 1.090964e+001 7.740447e+001 8.263444e+002
         vertex 3.590964e+001 2.740447e+001 8.263444e+002
      endloop
   endfacet
   facet normal -0.000000e+000 1.224647e-016 1.000000e+000
      outer loop
         vertex 3.590964e+001 2.740447e+001 8.263444e+002
         vertex 1.090964e+001 7.740447e+001 8.263444e+002
         vertex 1.090964e+001 2.740447e+001 8.263444e+002
      endloop
   endfacet
   facet normal 0.000000e+000 -1.224647e-016 -1.000000e+000
      outer loop
         vertex 8.590965e+001 7.740447e+001 8.763444e+002
         vertex 1.109096e+002 7.740447e+001 8.763444e+002
         vertex 8.590965e+001 2.740447e+001 8.763444e+002
      endloop
   endfacet
   facet normal 0.000000e+000 -1.224647e-016 -1.000000e+000
      outer loop
         vertex 8.590965e+001 2.740447e+001 8.763444e+002
         vertex 1.109096e+002 7.740447e+001 8.763444e+002
         vertex 1.109096e+002 2.740447e+001 8.763444e+002
      endloop
   endfacet
   facet normal 0.000000e+000 -1.224647e-016 -1.000000e+000
      outer loop
         vertex 8.590965e+001 2.740447e+001 8.763444e+002
         vertex 8.590965e+001 2.404471e+000 8.763444e+002
         vertex 3.590964e+001 2.740447e+001 8.763444e+002
      endloop
   endfacet
   facet normal 0.000000e+000 -1.224647e-016 -1.000000e+000
      outer loop
         vertex 3.590964e+001 2.740447e+001 8.763444e+002
         vertex 8.590965e+001 2.404471e+000 8.763444e+002
         vertex 3.590964e+001 2.404471e+000 8.763444e+002
      endloop
   endfacet
   facet normal 0.000000e+000 -1.224647e-016 -1.000000e+000
      outer loop
         vertex 3.590964e+001 2.740447e+001 8.763444e+002
         vertex 1.090964e+001 2.740447e+001 8.763444e+002
         vertex 3.590964e+001 7.740447e+001 8.763444e+002
      endloop
   endfacet
   facet normal 0.000000e+000 -1.224647e-016 -1.000000e+000
      outer loop
         vertex 3.590964e+001 7.740447e+001 8.763444e+002
         vertex 1.090964e+001 2.740447e+001 8.763444e+002
         vertex 1.090964e+001 7.740447e+001 8.763444e+002
      endloop
   endfacet
   facet normal -1.000000e+000 0.000000e+000 -0.000000e+000
      outer loop
         vertex 8.590965e+001 7.740447e+001 8.763444e+002
         vertex 8.590965e+001 1.024045e+002 8.763444e+002
         vertex 8.590965e+001 7.740447e+001 8.263444e+002
      endloop
   endfacet
   facet normal -1.000000e+000 0.000000e+000 -0.000000e+000
      outer loop
         vertex 8.590965e+001 7.740447e+001 8.263444e+002
         vertex 8.590965e+001 1.024045e+002 8.763444e+002
         vertex 8.590965e+001 1.024045e+002 8.263444e+002
      endloop
   endfacet
   facet normal 1.000000e+000 -0.000000e+000 0.000000e+000
      outer loop
         vertex 3.590964e+001 7.740447e+001 8.263444e+002
         vertex 3.590964e+001 1.024045e+002 8.263444e+002
         vertex 3.590964e+001 7.740447e+001 8.763444e+002
      endloop
   endfacet
   facet normal 1.000000e+000 -0.000000e+000 0.000000e+000
      outer loop
         vertex 3.590964e+001 7.740447e+001 8.763444e+002
         vertex 3.590964e+001 1.024045e+002 8.263444e+002
         vertex 3.590964e+001 1.024045e+002 8.763444e+002
      endloop
   endfacet
   facet normal 1.000000e+000 -0.000000e+000 0.000000e+000
      outer loop
         vertex 1.109096e+002 7.740447e+001 8.763444e+002
         vertex 1.109096e+002 1.024045e+002 9.013444e+002
         vertex 1.109096e+002 2.404471e+000 9.013444e+002
      endloop
   endfacet
   facet normal 1.000000e+000 -0.000000e+000 0.000000e+000
      outer loop
         vertex 1.109096e+002 1.024045e+002 9.013444e+002
         vertex 1.109096e+002 7.740447e+001 8.763444e+002
         vertex 1.109096e+002 1.024045e+002 8.013444e+002
      endloop
   endfacet
   facet normal 1.000000e+000 -0.000000e+000 0.000000e+000
      outer loop
         vertex 1.109096e+002 1.024045e+002 8.013444e+002
         vertex 1.109096e+002 7.740447e+001 8.763444e+002
         vertex 1.109096e+002 7.740447e+001 8.263444e+002
      endloop
   endfacet
   facet normal 1.000000e+000 -0.000000e+000 0.000000e+000
      outer loop
         vertex 1.109096e+002 1.024045e+002 8.013444e+002
         vertex 1.109096e+002 7.740447e+001 8.263444e+002
         vertex 1.109096e+002 2.404471e+000 8.013444e+002
      endloop
   endfacet
   facet normal 1.000000e+000 -0.000000e+000 0.000000e+000
      outer loop
         vertex 1.109096e+002 2.404471e+000 8.013444e+002
         vertex 1.109096e+002 7.740447e+001 8.263444e+002
         vertex 1.109096e+002 2.740447e+001 8.263444e+002
      endloop
   endfacet
   facet normal 1.000000e+000 -0.000000e+000 0.000000e+000
      outer loop
         vertex 1.109096e+002 2.404471e+000 8.013444e+002
         vertex 1.109096e+002 2.740447e+001 8.263444e+002
         vertex 1.109096e+002 2.404471e+000 9.013444e+002
      endloop
   endfacet
   facet normal 1.000000e+000 -0.000000e+000 0.000000e+000
      outer loop
         vertex 1.109096e+002 2.404471e+000 9.013444e+002
         vertex 1.109096e+002 2.740447e+001 8.263444e+002
         vertex 1.109096e+002 2.740447e+001 8.763444e+002
      endloop
   endfacet
   facet normal 1.000000e+000 -0.000000e+000 0.000000e+000
      outer loop
         vertex 1.109096e+002 2.404471e+000 9.013444e+002
         vertex 1.109096e+002 2.740447e+001 8.763444e+002
         vertex 1.109096e+002 7.740447e+001 8.763444e+002
      endloop
   endfacet
   facet normal -0.000000e+000 1.224647e-016 1.000000e+000
      outer loop
         vertex 3.590964e+001 7.740447e+001 9.013444e+002
         vertex 1.090964e+001 1.024045e+002 9.013444e+002
         vertex 3.590964e+001 2.740447e+001 9.013444e+002
      endloop
   endfacet
   facet normal -0.000000e+000 1.224647e-016 1.000000e+000
      outer loop
         vertex 3.590964e+001 2.740447e+001 9.013444e+002
         vertex 1.090964e+001 1.024045e+002 9.013444e+002
         vertex 1.090964e+001 2.404471e+000 9.013444e+002
      endloop
   endfacet
   facet normal -0.000000e+000 1.224647e-016 1.000000e+000
      outer loop
         vertex 3.590964e+001 2.740447e+001 9.013444e+002
         vertex 1.090964e+001 2.404471e+000 9.013444e+002
         vertex 8.590965e+001 2.740447e+001 9.013444e+002
      endloop
   endfacet
   facet normal -0.000000e+000 1.224647e-016 1.000000e+000
      outer loop
         vertex 8.590965e+001 2.740447e+001 9.013444e+002
         vertex 1.090964e+001 2.404471e+000 9.013444e+002
         vertex 1.109096e+002 2.404471e+000 9.013444e+002
      endloop
   endfacet
   facet normal -0.000000e+000 1.224647e-016 1.000000e+000
      outer loop
         vertex 8.590965e+001 2.740447e+001 9.013444e+002
         vertex 1.109096e+002 2.404471e+000 9.013444e+002
         vertex 8.590965e+001 7.740447e+001 9.013444e+002
      endloop
   endfacet
   facet normal -0.000000e+000 1.224647e-016 1.000000e+000
      outer loop
         vertex 8.590965e+001 7.740447e+001 9.013444e+002
         vertex 1.109096e+002 2.404471e+000 9.013444e+002
         vertex 1.109096e+002 1.024045e+002 9.013444e+002
      endloop
   endfacet
   facet normal -0.000000e+000 1.224647e-016 1.000000e+000
      outer loop
         vertex 8.590965e+001 7.740447e+001 9.013444e+002
         vertex 1.109096e+002 1.024045e+002 9.013444e+002
         vertex 3.590964e+001 7.740447e+001 9.013444e+002
      endloop
   endfacet
   facet normal -0.000000e+000 1.224647e-016 1.000000e+000
      outer loop
         vertex 3.590964e+001 7.740447e+001 9.013444e+002
         vertex 1.109096e+002 1.024045e+002 9.013444e+002
         vertex 1.090964e+001 1.024045e+002 9.013444e+002
      endloop
   endfacet
   facet normal -1.000000e+000 0.000000e+000 -0.000000e+000
      outer loop
         vertex 1.090964e+001 2.740447e+001 8.763444e+002
         vertex 1.090964e+001 2.404471e+000 9.013444e+002
         vertex 1.090964e+001 7.740447e+001 8.763444e+002
      endloop
   endfacet
   facet normal -1.000000e+000 0.000000e+000 -0.000000e+000
      outer loop
         vertex 1.090964e+001 7.740447e+001 8.763444e+002
         vertex 1.090964e+001 2.404471e+000 9.013444e+002
         vertex 1.090964e+001 1.024045e+002 9.013444e+002
      endloop
   endfacet
   facet normal -1.000000e+000 0.000000e+000 -0.000000e+000
      outer loop
         vertex 1.090964e+001 7.740447e+001 8.763444e+002
         vertex 1.090964e+001 1.024045e+002 9.013444e+002
         vertex 1.090964e+001 7.740447e+001 8.263444e+002
      endloop
   endfacet
   facet normal -1.000000e+000 0.000000e+000 -0.000000e+000
      outer loop
         vertex 1.090964e+001 7.740447e+001 8.263444e+002
         vertex 1.090964e+001 1.024045e+002 9.013444e+002
         vertex 1.090964e+001 1.024045e+002 8.013444e+002
      endloop
   endfacet
   facet normal -1.000000e+000 0.000000e+000 -0.000000e+000
      outer loop
         vertex 1.090964e+001 7.740447e+001 8.263444e+002
         vertex 1.090964e+001 1.024045e+002 8.013444e+002
         vertex 1.090964e+001 2.740447e+001 8.263444e+002
      endloop
   endfacet
   facet normal -1.000000e+000 0.000000e+000 -0.000000e+000
      outer loop
         vertex 1.090964e+001 2.740447e+001 8.263444e+002
         vertex 1.090964e+001 1.024045e+002 8.013444e+002
         vertex 1.090964e+001 2.404471e+000 8.013444e+002
      endloop
   endfacet
   facet normal -1.000000e+000 0.000000e+000 -0.000000e+000
      outer loop
         vertex 1.090964e+001 2.740447e+001 8.263444e+002
         vertex 1.090964e+001 2.404471e+000 8.013444e+002
         vertex 1.090964e+001 2.740447e+001 8.763444e+002
      endloop
   endfacet
   facet normal -1.000000e+000 0.000000e+000 -0.000000e+000
      outer loop
         vertex 1.090964e+001 2.740447e+001 8.763444e+002
         vertex 1.090964e+001 2.404471e+000 8.013444e+002
         vertex 1.090964e+001 2.404471e+000 9.013444e+002
      endloop
   endfacet
   facet normal 0.000000e+000 -1.224647e-016 -1.000000e+000
      outer loop
         vertex 3.590964e+001 2.740447e+001 8.013444e+002
         vertex 1.090964e+001 2.404471e+000 8.013444e+002
         vertex 3.590964e+001 7.740447e+001 8.013444e+002
      endloop
   endfacet
   facet normal 0.000000e+000 -1.224647e-016 -1.000000e+000
      outer loop
         vertex 3.590964e+001 7.740447e+001 8.013444e+002
         vertex 1.090964e+001 2.404471e+000 8.013444e+002
         vertex 1.090964e+001 1.024045e+002 8.013444e+002
      endloop
   endfacet
   facet normal 0.000000e+000 -1.224647e-016 -1.000000e+000
      outer loop
         vertex 3.590964e+001 7.740447e+001 8.013444e+002
         vertex 1.090964e+001 1.024045e+002 8.013444e+002
         vertex 8.590965e+001 7.740447e+001 8.013444e+002
      endloop
   endfacet
   facet normal 0.000000e+000 -1.224647e-016 -1.000000e+000
      outer loop
         vertex 8.590965e+001 7.740447e+001 8.013444e+002
         vertex 1.090964e+001 1.024045e+002 8.013444e+002
         vertex 1.109096e+002 1.024045e+002 8.013444e+002
      endloop
   endfacet
   facet normal 0.000000e+000 -1.224647e-016 -1.000000e+000
      outer loop
         vertex 8.590965e+001 7.740447e+001 8.013444e+002
         vertex 1.109096e+002 1.024045e+002 8.013444e+002
         vertex 8.590965e+001 2.740447e+001 8.013444e+002
      endloop
   endfacet
   facet normal 0.000000e+000 -1.224647e-016 -1.000000e+000
      outer loop
         vertex 8.590965e+001 2.740447e+001 8.013444e+002
         vertex 1.109096e+002 1.024045e+002 8.013444e+002
         vertex 1.109096e+002 2.404471e+000 8.013444e+002
      endloop
   endfacet
   facet normal 0.000000e+000 -1.224647e-016 -1.000000e+000
      outer loop
         vertex 8.590965e+001 2.740447e+001 8.013444e+002
         vertex 1.109096e+002 2.404471e+000 8.013444e+002
         vertex 3.590964e+001 2.740447e+001 8.013444e+002
      endloop
   endfacet
   facet normal 0.000000e+000 -1.224647e-016 -1.000000e+000
      outer loop
         vertex 3.590964e+001 2.740447e+001 8.013444e+002
         vertex 1.109096e+002 2.404471e+000 8.013444e+002
         vertex 1.090964e+001 2.404471e+000 8.013444e+002
      endloop
   endfacet
   facet normal -0.000000e+000 -1.000000e+000 1.224647e-016
      outer loop
         vertex 8.590965e+001 2.404471e+000 8.763444e+002
         vertex 1.109096e+002 2.404471e+000 9.013444e+002
         vertex 1.090964e+001 2.404471e+000 9.013444e+002
      endloop
   endfacet
   facet normal -0.000000e+000 -1.000000e+000 1.224647e-016
      outer loop
         vertex 1.109096e+002 2.404471e+000 9.013444e+002
         vertex 8.590965e+001 2.404471e+000 8.763444e+002
         vertex 1.109096e+002 2.404471e+000 8.013444e+002
      endloop
   endfacet
   facet normal -0.000000e+000 -1.000000e+000 1.224647e-016
      outer loop
         vertex 1.109096e+002 2.404471e+000 8.013444e+002
         vertex 8.590965e+001 2.404471e+000 8.763444e+002
         vertex 8.590965e+001 2.404471e+000 8.263444e+002
      endloop
   endfacet
   facet normal -0.000000e+000 -1.000000e+000 1.224647e-016
      outer loop
         vertex 1.109096e+002 2.404471e+000 8.013444e+002
         vertex 8.590965e+001 2.404471e+000 8.263444e+002
         vertex 1.090964e+001 2.404471e+000 8.013444e+002
      endloop
   endfacet
   facet normal -0.000000e+000 -1.000000e+000 1.224647e-016
      outer loop
         vertex 1.090964e+001 2.404471e+000 8.013444e+002
         vertex 8.590965e+001 2.404471e+000 8.263444e+002
         vertex 3.590964e+001 2.404471e+000 8.263444e+002
      endloop
   endfacet
   facet normal -0.000000e+000 -1.000000e+000 1.224647e-016
      outer loop
         vertex 1.090964e+001 2.404471e+000 8.013444e+002
         vertex 3.590964e+001 2.404471e+000 8.263444e+002
         vertex 1.090964e+001 2.404471e+000 9.013444e+002
      endloop
   endfacet
   facet normal -0.000000e+000 -1.000000e+000 1.224647e-016
      outer loop
         vertex 1.090964e+001 2.404471e+000 9.013444e+002
         vertex 3.590964e+001 2.404471e+000 8.263444e+002
         vertex 3.590964e+001 2.404471e+000 8.763444e+002
      endloop
   endfacet
   facet normal -0.000000e+000 -1.000000e+000 1.224647e-016
      outer loop
         vertex 1.090964e+001 2.404471e+000 9.013444e+002
         vertex 3.590964e+001 2.404471e+000 8.763444e+002
         vertex 8.590965e+001 2.404471e+000 8.763444e+002
      endloop
   endfacet
   facet normal 0.000000e+000 1.000000e+000 -1.224647e-016
      outer loop
         vertex 8.590965e+001 1.024045e+002 8.263444e+002
         vertex 1.109096e+002 1.024045e+002 8.013444e+002
         vertex 3.590964e+001 1.024045e+002 8.263444e+002
      endloop
   endfacet
   facet normal 0.000000e+000 1.000000e+000 -1.224647e-016
      outer loop
         vertex 3.590964e+001 1.024045e+002 8.263444e+002
         vertex 1.109096e+002 1.024045e+002 8.013444e+002
         vertex 1.090964e+001 1.024045e+002 8.013444e+002
      endloop
   endfacet
   facet normal 0.000000e+000 1.000000e+000 -1.224647e-016
      outer loop
         vertex 3.590964e+001 1.024045e+002 8.263444e+002
         vertex 1.090964e+001 1.024045e+002 8.013444e+002
         vertex 3.590964e+001 1.024045e+002 8.763444e+002
      endloop
   endfacet
   facet normal 0.000000e+000 1.000000e+000 -1.224647e-016
      outer loop
         vertex 3.590964e+001 1.024045e+002 8.763444e+002
         vertex 1.090964e+001 1.024045e+002 8.013444e+002
         vertex 1.090964e+001 1.024045e+002 9.013444e+002
      endloop
   endfacet
   facet normal 0.000000e+000 1.000000e+000 -1.224647e-016
      outer loop
         vertex 3.590964e+001 1.024045e+002 8.763444e+002
         vertex 1.090964e+001 1.024045e+002 9.013444e+002
         vertex 8.590965e+001 1.024045e+002 8.763444e+002
      endloop
   endfacet
   facet normal 0.000000e+000 1.000000e+000 -1.224647e-016
      outer loop
         vertex 8.590965e+001 1.024045e+002 8.763444e+002
         vertex 1.090964e+001 1.024045e+002 9.013444e+002
         vertex 1.109096e+002 1.024045e+002 9.013444e+002
      endloop
   endfacet
   facet normal 0.000000e+000 1.000000e+000 -1.224647e-016
      outer loop
         vertex 8.590965e+001 1.024045e+002 8.763444e+002
         vertex 1.109096e+002 1.024045e+002 9.013444e+002
         vertex 8.590965e+001 1.024045e+002 8.263444e+002
      endloop
   endfacet
   facet normal 0.000000e+000 1.000000e+000 -1.224647e-016
      outer loop
         vertex 8.590965e+001 1.024045e+002 8.263444e+002
         vertex 1.109096e+002 1.024045e+002 9.013444e+002
         vertex 1.109096e+002 1.024045e+002 8.013444e+002
      endloop
   endfacet
   facet normal -1.000000e+000 0.000000e+000 -0.000000e+000
      outer loop
         vertex 8.590965e+001 2.740447e+001 8.263444e+002
         vertex 8.590965e+001 2.404471e+000 8.263444e+002
         vertex 8.590965e+001 2.740447e+001 8.763444e+002
      endloop
   endfacet
   facet normal -1.000000e+000 0.000000e+000 -0.000000e+000
      outer loop
         vertex 8.590965e+001 2.740447e+001 8.763444e+002
         vertex 8.590965e+001 2.404471e+000 8.263444e+002
         vertex 8.590965e+001 2.404471e+000 8.763444e+002
      endloop
   endfacet
   facet normal -0.000000e+000 1.224647e-016 1.000000e+000
      outer loop
         vertex 8.590965e+001 7.740447e+001 8.263444e+002
         vertex 8.590965e+001 1.024045e+002 8.263444e+002
         vertex 3.590964e+001 7.740447e+001 8.263444e+002
      endloop
   endfacet
   facet normal -0.000000e+000 1.224647e-016 1.000000e+000
      outer loop
         vertex 3.590964e+001 7.740447e+001 8.263444e+002
         vertex 8.590965e+001 1.024045e+002 8.263444e+002
         vertex 3.590964e+001 1.024045e+002 8.263444e+002
      endloop
   endfacet
   facet normal 1.000000e+000 -0.000000e+000 0.000000e+000
      outer loop
         vertex 3.590964e+001 2.740447e+001 8.763444e+002
         vertex 3.590964e+001 2.404471e+000 8.763444e+002
         vertex 3.590964e+001 2.740447e+001 8.263444e+002
      endloop
   endfacet
   facet normal 1.000000e+000 -0.000000e+000 0.000000e+000
      outer loop
         vertex 3.590964e+001 2.740447e+001 8.263444e+002
         vertex 3.590964e+001 2.404471e+000 8.763444e+002
         vertex 3.590964e+001 2.404471e+000 8.263444e+002
      endloop
   endfacet
   facet normal 0.000000e+000 -1.224647e-016 -1.000000e+000
      outer loop
         vertex 3.590964e+001 7.740447e+001 8.763444e+002
         vertex 3.590964e+001 1.024045e+002 8.763444e+002
         vertex 8.590965e+001 7.740447e+001 8.763444e+002
      endloop
   endfacet
   facet normal 0.000000e+000 -1.224647e-016 -1.000000e+000
      outer loop
         vertex 8.590965e+001 7.740447e+001 8.763444e+002
         vertex 3.590964e+001 1.024045e+002 8.763444e+002
         vertex 8.590965e+001 1.024045e+002 8.763444e+002
      endloop
   endfacet
   facet normal 0.000000e+000 1.000000e+000 -2.612426e-016
      outer loop
         vertex 1.090964e+001 2.740447e+001 8.763444e+002
         vertex 3.590964e+001 2.740447e+001 8.763444e+002
         vertex 1.090964e+001 2.740447e+001 8.263444e+002
      endloop
   endfacet
   facet normal 0.000000e+000 1.000000e+000 -2.612426e-016
      outer loop
         vertex 1.090964e+001 2.740447e+001 8.263444e+002
         vertex 3.590964e+001 2.740447e+001 8.763444e+002
         vertex 3.590964e+001 2.740447e+001 8.263444e+002
      endloop
   endfacet
   facet normal -0.000000e+000 -1.000000e+000 2.612426e-016
      outer loop
         vertex 1.090964e+001 7.740447e+001 8.263444e+002
         vertex 3.590964e+001 7.740447e+001 8.263444e+002
         vertex 1.090964e+001 7.740447e+001 8.763444e+002
      endloop
   endfacet
   facet normal -0.000000e+000 -1.000000e+000 2.612426e-016
      outer loop
         vertex 1.090964e+001 7.740447e+001 8.763444e+002
         vertex 3.590964e+001 7.740447e+001 8.263444e+002
         vertex 3.590964e+001 7.740447e+001 8.763444e+002
      endloop
   endfacet
   facet normal -0.000000e+000 -1.000000e+000 2.612426e-016
      outer loop
         vertex 1.109096e+002 7.740447e+001 8.763444e+002
         vertex 8.590965e+001 7.740447e+001 8.763444e+002
         vertex 1.109096e+002 7.740447e+001 8.263444e+002
      endloop
   endfacet
   facet normal -0.000000e+000 -1.000000e+000 2.612426e-016
      outer loop
         vertex 1.109096e+002 7.740447e+001 8.263444e+002
         vertex 8.590965e+001 7.740447e+001 8.763444e+002
         vertex 8.590965e+001 7.740447e+001 8.263444e+002
      endloop
   endfacet
   facet normal 0.000000e+000 1.000000e+000 -2.612426e-016
      outer loop
         vertex 1.109096e+002 2.740447e+001 8.263444e+002
         vertex 8.590965e+001 2.740447e+001 8.263444e+002
         vertex 1.109096e+002 2.740447e+001 8.763444e+002
      endloop
   endfacet
   facet normal 0.000000e+000 1.000000e+000 -2.612426e-016
      outer loop
         vertex 1.109096e+002 2.740447e+001 8.763444e+002
         vertex 8.590965e+001 2.740447e+001 8.263444e+002
         vertex 8.590965e+001 2.740447e+001 8.763444e+002
      endloop
   endfacet
   facet normal -0.000000e+000 -1.000000e+000 1.224647e-016
      outer loop
         vertex 3.590964e+001 7.740447e+001 9.013444e+002
         vertex 3.590964e+001 7.740447e+001 8.763444e+002
         vertex 8.590965e+001 7.740447e+001 9.013444e+002
      endloop
   endfacet
   facet normal -0.000000e+000 -1.000000e+000 1.224647e-016
      outer loop
         vertex 8.590965e+001 7.740447e+001 9.013444e+002
         vertex 3.590964e+001 7.740447e+001 8.763444e+002
         vertex 8.590965e+001 7.740447e+001 8.763444e+002
      endloop
   endfacet
   facet normal 1.000000e+000 -0.000000e+000 0.000000e+000
      outer loop
         vertex 3.590964e+001 2.740447e+001 9.013444e+002
         vertex 3.590964e+001 2.740447e+001 8.763444e+002
         vertex 3.590964e+001 7.740447e+001 9.013444e+002
      endloop
   endfacet
   facet normal 1.000000e+000 -0.000000e+000 0.000000e+000
      outer loop
         vertex 3.590964e+001 7.740447e+001 9.013444e+002
         vertex 3.590964e+001 2.740447e+001 8.763444e+002
         vertex 3.590964e+001 7.740447e+001 8.763444e+002
      endloop
   endfacet
   facet normal 0.000000e+000 1.000000e+000 -1.224647e-016
      outer loop
         vertex 8.590965e+001 2.740447e+001 9.013444e+002
         vertex 8.590965e+001 2.740447e+001 8.763444e+002
         vertex 3.590964e+001 2.740447e+001 9.013444e+002
      endloop
   endfacet
   facet normal 0.000000e+000 1.000000e+000 -1.224647e-016
      outer loop
         vertex 3.590964e+001 2.740447e+001 9.013444e+002
         vertex 8.590965e+001 2.740447e+001 8.763444e+002
         vertex 3.590964e+001 2.740447e+001 8.763444e+002
      endloop
   endfacet
   facet normal -1.000000e+000 0.000000e+000 -0.000000e+000
      outer loop
         vertex 8.590965e+001 7.740447e+001 9.013444e+002
         vertex 8.590965e+001 7.740447e+001 8.763444e+002
         vertex 8.590965e+001 2.740447e+001 9.013444e+002
      endloop
   endfacet
   facet normal -1.000000e+000 0.000000e+000 -0.000000e+000
      outer loop
         vertex 8.590965e+001 2.740447e+001 9.013444e+002
         vertex 8.590965e+001 7.740447e+001 8.763444e+002
         vertex 8.590965e+001 2.740447e+001 8.763444e+002
      endloop
   endfacet
   facet normal 0.000000e+000 1.000000e+000 -1.224647e-016
      outer loop
         vertex 3.590964e+001 2.740447e+001 8.013444e+002
         vertex 3.590964e+001 2.740447e+001 8.263444e+002
         vertex 8.590965e+001 2.740447e+001 8.013444e+002
      endloop
   endfacet
   facet normal 0.000000e+000 1.000000e+000 -1.224647e-016
      outer loop
         vertex 8.590965e+001 2.740447e+001 8.013444e+002
         vertex 3.590964e+001 2.740447e+001 8.263444e+002
         vertex 8.590965e+001 2.740447e+001 8.263444e+002
      endloop
   endfacet
   facet normal -0.000000e+000 -1.000000e+000 1.224647e-016
      outer loop
         vertex 8.590965e+001 7.740447e+001 8.013444e+002
         vertex 8.590965e+001 7.740447e+001 8.263444e+002
         vertex 3.590964e+001 7.740447e+001 8.013444e+002
      endloop
   endfacet
   facet normal -0.000000e+000 -1.000000e+000 1.224647e-016
      outer loop
         vertex 3.590964e+001 7.740447e+001 8.013444e+002
         vertex 8.590965e+001 7.740447e+001 8.263444e+002
         vertex 3.590964e+001 7.740447e+001 8.263444e+002
      endloop
   endfacet
   facet normal 1.000000e+000 -0.000000e+000 0.000000e+000
      outer loop
         vertex 3.590964e+001 7.740447e+001 8.013444e+002
         vertex 3.590964e+001 7.740447e+001 8.263444e+002
         vertex 3.590964e+001 2.740447e+001 8.013444e+002
      endloop
   endfacet
   facet normal 1.000000e+000 -0.000000e+000 0.000000e+000
      outer loop
         vertex 3.590964e+001 2.740447e+001 8.013444e+002
         vertex 3.590964e+001 7.740447e+001 8.263444e+002
         vertex 3.590964e+001 2.740447e+001 8.263444e+002
      endloop
   endfacet
   facet normal -1.000000e+000 0.000000e+000 -0.000000e+000
      outer loop
         vertex 8.590965e+001 2.740447e+001 8.013444e+002
         vertex 8.590965e+001 2.740447e+001 8.263444e+002
         vertex 8.590965e+001 7.740447e+001 8.013444e+002
      endloop
   endfacet
   facet normal -1.000000e+000 0.000000e+000 -0.000000e+000
      outer loop
         vertex 8.590965e+001 7.740447e+001 8.013444e+002
         vertex 8.590965e+001 2.740447e+001 8.263444e+002
         vertex 8.590965e+001 7.740447e+001 8.263444e+002
      endloop
   endfacet
endsolid