solid CubeDouble - C0-4
   facet normal -1.224647e-016 -1.270359e-033 1.000000e+000
      outer loop
         vertex 8.590965e+001 4.274044e+002 4.013444e+002
         vertex 9.840965e+001 4.149045e+002 4.013444e+002
         vertex 8.590965e+001 4.774045e+002 4.013444e+002
      endloop
   endfacet
   facet normal -1.224647e-016 -1.270359e-033 1.000000e+000
      outer loop
         vertex 8.590965e+001 4.774045e+002 4.013444e+002
         vertex 9.840965e+001 4.149045e+002 4.013444e+002
         vertex 9.840965e+001 4.899044e+002 4.013444e+002
      endloop
   endfacet
   facet normal -1.224647e-016 -1.270359e-033 1.000000e+000
      outer loop
         vertex 8.590965e+001 4.774045e+002 4.013444e+002
         vertex 9.840965e+001 4.899044e+002 4.013444e+002
         vertex 3.590964e+001 4.774045e+002 4.013444e+002
      endloop
   endfacet
   facet normal -1.224647e-016 -1.270359e-033 1.000000e+000
      outer loop
         vertex 3.590964e+001 4.774045e+002 4.013444e+002
         vertex 9.840965e+001 4.899044e+002 4.013444e+002
         vertex 2.340964e+001 4.899044e+002 4.013444e+002
      endloop
   endfacet
   facet normal -1.224647e-016 -1.270359e-033 1.000000e+000
      outer loop
         vertex 3.590964e+001 4.774045e+002 4.013444e+002
         vertex 2.340964e+001 4.899044e+002 4.013444e+002
         vertex 3.590964e+001 4.274044e+002 4.013444e+002
      endloop
   endfacet
   facet normal -1.224647e-016 -1.270359e-033 1.000000e+000
      outer loop
         vertex 3.590964e+001 4.274044e+002 4.013444e+002
         vertex 2.340964e+001 4.899044e+002 4.013444e+002
         vertex 2.340964e+001 4.149045e+002 4.013444e+002
      endloop
   endfacet
   facet normal -1.224647e-016 -1.270359e-033 1.000000e+000
      outer loop
         vertex 3.590964e+001 4.274044e+002 4.013444e+002
         vertex 2.340964e+001 4.149045e+002 4.013444e+002
         vertex 8.590965e+001 4.274044e+002 4.013444e+002
      endloop
   endfacet
   facet normal -1.224647e-016 -1.270359e-033 1.000000e+000
      outer loop
         vertex 8.590965e+001 4.274044e+002 4.013444e+002
         vertex 2.340964e+001 4.149045e+002 4.013444e+002
         vertex 9.840965e+001 4.149045e+002 4.013444e+002
      endloop
   endfacet
   facet normal 1.000000e+000 -1.110223e-016 1.224647e-016
      outer loop
         vertex 9.840965e+001 4.899044e+002 4.013444e+002
         vertex 9.840965e+001 4.149045e+002 4.013444e+002
         vertex 9.840965e+001 4.899044e+002 1.013444e+002
      endloop
   endfacet
   facet normal 1.000000e+000 -1.110223e-016 1.224647e-016
      outer loop
         vertex 9.840965e+001 4.899044e+002 1.013444e+002
         vertex 9.840965e+001 4.149045e+002 4.013444e+002
         vertex 9.840965e+001 4.149045e+002 1.013444e+002
      endloop
   endfacet
   facet normal -1.105146e-032 1.000000e+000 -1.232595e-032
      outer loop
         vertex 2.340964e+001 4.899044e+002 4.013444e+002
         vertex 9.840965e+001 4.899044e+002 4.013444e+002
         vertex 2.340964e+001 4.899044e+002 1.013444e+002
      endloop
   endfacet
   facet normal -1.105146e-032 1.000000e+000 -1.232595e-032
      outer loop
         vertex 2.340964e+001 4.899044e+002 1.013444e+002
         vertex 9.840965e+001 4.899044e+002 4.013444e+002
         vertex 9.840965e+001 4.899044e+002 1.013444e+002
      endloop
   endfacet
   facet normal -1.000000e+000 1.110223e-016 -1.224647e-016
      outer loop
         vertex 2.340964e+001 4.149045e+002 4.013444e+002
         vertex 2.340964e+001 4.899044e+002 4.013444e+002
         vertex 2.340964e+001 4.149045e+002 1.013444e+002
      endloop
   endfacet
   facet normal -1.000000e+000 1.110223e-016 -1.224647e-016
      outer loop
         vertex 2.340964e+001 4.149045e+002 1.013444e+002
         vertex 2.340964e+001 4.899044e+002 4.013444e+002
         vertex 2.340964e+001 4.899044e+002 1.013444e+002
      endloop
   endfacet
   facet normal 9.251858e-017 -1.000000e+000 2.365621e-032
      outer loop
         vertex 9.840965e+001 4.149045e+002 4.013444e+002
         vertex 2.340964e+001 4.149045e+002 4.013444e+002
         vertex 9.840965e+001 4.149045e+002 1.013444e+002
      endloop
   endfacet
   facet normal 9.251858e-017 -1.000000e+000 2.365621e-032
      outer loop
         vertex 9.840965e+001 4.149045e+002 1.013444e+002
         vertex 2.340964e+001 4.149045e+002 4.013444e+002
         vertex 2.340964e+001 4.149045e+002 1.013444e+002
      endloop
   endfacet
   facet normal 1.224647e-016 1.270359e-033 -1.000000e+000
      outer loop
         vertex 8.590965e+001 4.274044e+002 1.013444e+002
         vertex 9.840965e+001 4.149045e+002 1.013444e+002
         vertex 2.340964e+001 4.149045e+002 1.013444e+002
      endloop
   endfacet
   facet normal 1.224647e-016 1.270359e-033 -1.000000e+000
      outer loop
         vertex 9.840965e+001 4.149045e+002 1.013444e+002
         vertex 8.590965e+001 4.274044e+002 1.013444e+002
         vertex 9.840965e+001 4.899044e+002 1.013444e+002
      endloop
   endfacet
   facet normal 1.224647e-016 1.270359e-033 -1.000000e+000
      outer loop
         vertex 9.840965e+001 4.899044e+002 1.013444e+002
         vertex 8.590965e+001 4.274044e+002 1.013444e+002
         vertex 8.590965e+001 4.774045e+002 1.013444e+002
      endloop
   endfacet
   facet normal 1.224647e-016 1.270359e-033 -1.000000e+000
      outer loop
         vertex 9.840965e+001 4.899044e+002 1.013444e+002
         vertex 8.590965e+001 4.774045e+002 1.013444e+002
         vertex 2.340964e+001 4.899044e+002 1.013444e+002
      endloop
   endfacet
   facet normal 1.224647e-016 1.270359e-033 -1.000000e+000
      outer loop
         vertex 2.340964e+001 4.899044e+002 1.013444e+002
         vertex 8.590965e+001 4.774045e+002 1.013444e+002
         vertex 3.590964e+001 4.774045e+002 1.013444e+002
      endloop
   endfacet
   facet normal 1.224647e-016 1.270359e-033 -1.000000e+000
      outer loop
         vertex 2.340964e+001 4.899044e+002 1.013444e+002
         vertex 3.590964e+001 4.774045e+002 1.013444e+002
         vertex 2.340964e+001 4.149045e+002 1.013444e+002
      endloop
   endfacet
   facet normal 1.224647e-016 1.270359e-033 -1.000000e+000
      outer loop
         vertex 2.340964e+001 4.149045e+002 1.013444e+002
         vertex 3.590964e+001 4.774045e+002 1.013444e+002
         vertex 3.590964e+001 4.274044e+002 1.013444e+002
      endloop
   endfacet
   facet normal 1.224647e-016 1.270359e-033 -1.000000e+000
      outer loop
         vertex 2.340964e+001 4.149045e+002 1.013444e+002
         vertex 3.590964e+001 4.274044e+002 1.013444e+002
         vertex 8.590965e+001 4.274044e+002 1.013444e+002
      endloop
   endfacet
   facet normal 1.000000e+000 -1.110223e-016 1.224647e-016
      outer loop
         vertex 8.590965e+001 4.774045e+002 4.213444e+002
         vertex 8.590965e+001 4.274044e+002 4.213444e+002
         vertex 8.590965e+001 4.774045e+002 4.013444e+002
      endloop
   endfacet
   facet normal 1.000000e+000 -1.110223e-016 1.224647e-016
      outer loop
         vertex 8.590965e+001 4.774045e+002 4.013444e+002
         vertex 8.590965e+001 4.274044e+002 4.213444e+002
         vertex 8.590965e+001 4.274044e+002 4.013444e+002
      endloop
   endfacet
   facet normal -1.387779e-016 1.000000e+000 -2.932134e-032
      outer loop
         vertex 3.590964e+001 4.774045e+002 4.213444e+002
         vertex 8.590965e+001 4.774045e+002 4.213444e+002
         vertex 3.590964e+001 4.774045e+002 4.013444e+002
      endloop
   endfacet
   facet normal -1.387779e-016 1.000000e+000 -2.932134e-032
      outer loop
         vertex 3.590964e+001 4.774045e+002 4.013444e+002
         vertex 8.590965e+001 4.774045e+002 4.213444e+002
         vertex 8.590965e+001 4.774045e+002 4.013444e+002
      endloop
   endfacet
   facet normal -1.000000e+000 1.110223e-016 -1.224647e-016
      outer loop
         vertex 3.590964e+001 4.274044e+002 4.213444e+002
         vertex 3.590964e+001 4.774045e+002 4.213444e+002
         vertex 3.590964e+001 4.274044e+002 4.013444e+002
      endloop
   endfacet
   facet normal -1.000000e+000 1.110223e-016 -1.224647e-016
      outer loop
         vertex 3.590964e+001 4.274044e+002 4.013444e+002
         vertex 3.590964e+001 4.774045e+002 4.213444e+002
         vertex 3.590964e+001 4.774045e+002 4.013444e+002
      endloop
   endfacet
   facet normal 1.387779e-016 -1.000000e+000 2.932134e-032
      outer loop
         vertex 8.590965e+001 4.274044e+002 4.213444e+002
         vertex 3.590964e+001 4.274044e+002 4.213444e+002
         vertex 8.590965e+001 4.274044e+002 4.013444e+002
      endloop
   endfacet
   facet normal 1.387779e-016 -1.000000e+000 2.932134e-032
      outer loop
         vertex 8.590965e+001 4.274044e+002 4.013444e+002
         vertex 3.590964e+001 4.274044e+002 4.213444e+002
         vertex 3.590964e+001 4.274044e+002 4.013444e+002
      endloop
   endfacet
   facet normal -1.224647e-016 -1.270359e-033 1.000000e+000
      outer loop
         vertex 3.590964e+001 4.774045e+002 4.213444e+002
         vertex 3.590964e+001 4.274044e+002 4.213444e+002
         vertex 8.590965e+001 4.774045e+002 4.213444e+002
      endloop
   endfacet
   facet normal -1.224647e-016 -1.270359e-033 1.000000e+000
      outer loop
         vertex 8.590965e+001 4.774045e+002 4.213444e+002
         vertex 3.590964e+001 4.274044e+002 4.213444e+002
         vertex 8.590965e+001 4.274044e+002 4.213444e+002
      endloop
   endfacet
   facet normal 1.000000e+000 -1.110223e-016 1.224647e-016
      outer loop
         vertex 8.590965e+001 4.274044e+002 8.134436e+001
         vertex 8.590965e+001 4.774045e+002 8.134436e+001
         vertex 8.590965e+001 4.274044e+002 1.013444e+002
      endloop
   endfacet
   facet normal 1.000000e+000 -1.110223e-016 1.224647e-016
      outer loop
         vertex 8.590965e+001 4.274044e+002 1.013444e+002
         vertex 8.590965e+001 4.774045e+002 8.134436e+001
         vertex 8.590965e+001 4.774045e+002 1.013444e+002
      endloop
   endfacet
   facet normal 1.387779e-016 -1.000000e+000 2.932134e-032
      outer loop
         vertex 3.590964e+001 4.274044e+002 8.134436e+001
         vertex 8.590965e+001 4.274044e+002 8.134436e+001
         vertex 3.590964e+001 4.274044e+002 1.013444e+002
      endloop
   endfacet
   facet normal 1.387779e-016 -1.000000e+000 2.932134e-032
      outer loop
         vertex 3.590964e+001 4.274044e+002 1.013444e+002
         vertex 8.590965e+001 4.274044e+002 8.134436e+001
         vertex 8.590965e+001 4.274044e+002 1.013444e+002
      endloop
   endfacet
   facet normal -1.000000e+000 1.110223e-016 -1.224647e-016
      outer loop
         vertex 3.590964e+001 4.774045e+002 8.134436e+001
         vertex 3.590964e+001 4.274044e+002 8.134436e+001
         vertex 3.590964e+001 4.774045e+002 1.013444e+002
      endloop
   endfacet
   facet normal -1.000000e+000 1.110223e-016 -1.224647e-016
      outer loop
         vertex 3.590964e+001 4.774045e+002 1.013444e+002
         vertex 3.590964e+001 4.274044e+002 8.134436e+001
         vertex 3.590964e+001 4.274044e+002 1.013444e+002
      endloop
   endfacet
   facet normal -1.387779e-016 1.000000e+000 -2.932134e-032
      outer loop
         vertex 8.590965e+001 4.774045e+002 8.134436e+001
         vertex 3.590964e+001 4.774045e+002 8.134436e+001
         vertex 8.590965e+001 4.774045e+002 1.013444e+002
      endloop
   endfacet
   facet normal -1.387779e-016 1.000000e+000 -2.932134e-032
      outer loop
         vertex 8.590965e+001 4.774045e+002 1.013444e+002
         vertex 3.590964e+001 4.774045e+002 8.134436e+001
         vertex 3.590964e+001 4.774045e+002 1.013444e+002
      endloop
   endfacet
   facet normal 1.224647e-016 1.270359e-033 -1.000000e+000
      outer loop
         vertex 3.590964e+001 4.274044e+002 8.134436e+001
         vertex 3.590964e+001 4.774045e+002 8.134436e+001
         vertex 8.590965e+001 4.274044e+002 8.134436e+001
      endloop
   endfacet
   facet normal 1.224647e-016 1.270359e-033 -1.000000e+000
      outer loop
         vertex 8.590965e+001 4.274044e+002 8.134436e+001
         vertex 3.590964e+001 4.774045e+002 8.134436e+001
         vertex 8.590965e+001 4.774045e+002 8.134436e+001
      endloop
   endfacet
endsolid