solid CubeDouble - cube-1 K0-1
   facet normal -1.000000e+000 0.000000e+000 0.000000e+000
      outer loop
         vertex 5.109096e+002 4.774045e+002 4.263444e+002
         vertex 5.109096e+002 4.899044e+002 4.138444e+002
         vertex 5.109096e+002 4.274044e+002 4.263444e+002
      endloop
   endfacet
   facet normal -1.000000e+000 0.000000e+000 0.000000e+000
      outer loop
         vertex 5.109096e+002 4.274044e+002 4.263444e+002
         vertex 5.109096e+002 4.899044e+002 4.138444e+002
         vertex 5.109096e+002 4.149045e+002 4.138444e+002
      endloop
   endfacet
   facet normal -1.000000e+000 0.000000e+000 0.000000e+000
      outer loop
         vertex 5.109096e+002 4.274044e+002 4.263444e+002
         vertex 5.109096e+002 4.149045e+002 4.138444e+002
         vertex 5.109096e+002 4.274044e+002 4.763444e+002
      endloop
   endfacet
   facet normal -1.000000e+000 0.000000e+000 0.000000e+000
      outer loop
         vertex 5.109096e+002 4.274044e+002 4.763444e+002
         vertex 5.109096e+002 4.149045e+002 4.138444e+002
         vertex 5.109096e+002 4.149045e+002 4.888444e+002
      endloop
   endfacet
   facet normal -1.000000e+000 0.000000e+000 0.000000e+000
      outer loop
         vertex 5.109096e+002 4.274044e+002 4.763444e+002
         vertex 5.109096e+002 4.149045e+002 4.888444e+002
         vertex 5.109096e+002 4.774045e+002 4.763444e+002
      endloop
   endfacet
   facet normal -1.000000e+000 0.000000e+000 0.000000e+000
      outer loop
         vertex 5.109096e+002 4.774045e+002 4.763444e+002
         vertex 5.109096e+002 4.149045e+002 4.888444e+002
         vertex 5.109096e+002 4.899044e+002 4.888444e+002
      endloop
   endfacet
   facet normal -1.000000e+000 0.000000e+000 0.000000e+000
      outer loop
         vertex 5.109096e+002 4.774045e+002 4.763444e+002
         vertex 5.109096e+002 4.899044e+002 4.888444e+002
         vertex 5.109096e+002 4.774045e+002 4.263444e+002
      endloop
   endfacet
   facet normal -1.000000e+000 0.000000e+000 0.000000e+000
      outer loop
         vertex 5.109096e+002 4.774045e+002 4.263444e+002
         vertex 5.109096e+002 4.899044e+002 4.888444e+002
         vertex 5.109096e+002 4.899044e+002 4.138444e+002
      endloop
   endfacet
   facet normal 0.000000e+000 0.000000e+000 -1.000000e+000
      outer loop
         vertex 5.109096e+002 4.149045e+002 4.138444e+002
         vertex 5.109096e+002 4.899044e+002 4.138444e+002
         vertex 8.109096e+002 4.149045e+002 4.138444e+002
      endloop
   endfacet
   facet normal 0.000000e+000 0.000000e+000 -1.000000e+000
      outer loop
         vertex 8.109096e+002 4.149045e+002 4.138444e+002
         vertex 5.109096e+002 4.899044e+002 4.138444e+002
         vertex 8.109096e+002 4.899044e+002 4.138444e+002
      endloop
   endfacet
   facet normal 0.000000e+000 -1.000000e+000 0.000000e+000
      outer loop
         vertex 5.109096e+002 4.149045e+002 4.888444e+002
         vertex 5.109096e+002 4.149045e+002 4.138444e+002
         vertex 8.109096e+002 4.149045e+002 4.888444e+002
      endloop
   endfacet
   facet normal 0.000000e+000 -1.000000e+000 0.000000e+000
      outer loop
         vertex 8.109096e+002 4.149045e+002 4.888444e+002
         vertex 5.109096e+002 4.149045e+002 4.138444e+002
         vertex 8.109096e+002 4.149045e+002 4.138444e+002
      endloop
   endfacet
   facet normal 0.000000e+000 0.000000e+000 1.000000e+000
      outer loop
         vertex 5.109096e+002 4.899044e+002 4.888444e+002
         vertex 5.109096e+002 4.149045e+002 4.888444e+002
         vertex 8.109096e+002 4.899044e+002 4.888444e+002
      endloop
   endfacet
   facet normal 0.000000e+000 0.000000e+000 1.000000e+000
      outer loop
         vertex 8.109096e+002 4.899044e+002 4.888444e+002
         vertex 5.109096e+002 4.149045e+002 4.888444e+002
         vertex 8.109096e+002 4.149045e+002 4.888444e+002
      endloop
   endfacet
   facet normal 0.000000e+000 1.000000e+000 -9.251858e-017
      outer loop
         vertex 5.109096e+002 4.899044e+002 4.138444e+002
         vertex 5.109096e+002 4.899044e+002 4.888444e+002
         vertex 8.109096e+002 4.899044e+002 4.138444e+002
      endloop
   endfacet
   facet normal 0.000000e+000 1.000000e+000 -9.251858e-017
      outer loop
         vertex 8.109096e+002 4.899044e+002 4.138444e+002
         vertex 5.109096e+002 4.899044e+002 4.888444e+002
         vertex 8.109096e+002 4.899044e+002 4.888444e+002
      endloop
   endfacet
   facet normal 1.000000e+000 0.000000e+000 0.000000e+000
      outer loop
         vertex 8.109096e+002 4.774045e+002 4.263444e+002
         vertex 8.109096e+002 4.899044e+002 4.138444e+002
         vertex 8.109096e+002 4.899044e+002 4.888444e+002
      endloop
   endfacet
   facet normal 1.000000e+000 0.000000e+000 0.000000e+000
      outer loop
         vertex 8.109096e+002 4.899044e+002 4.138444e+002
         vertex 8.109096e+002 4.774045e+002 4.263444e+002
         vertex 8.109096e+002 4.149045e+002 4.138444e+002
      endloop
   endfacet
   facet normal 1.000000e+000 0.000000e+000 0.000000e+000
      outer loop
         vertex 8.109096e+002 4.149045e+002 4.138444e+002
         vertex 8.109096e+002 4.774045e+002 4.263444e+002
         vertex 8.109096e+002 4.274044e+002 4.263444e+002
      endloop
   endfacet
   facet normal 1.000000e+000 0.000000e+000 0.000000e+000
      outer loop
         vertex 8.109096e+002 4.149045e+002 4.138444e+002
         vertex 8.109096e+002 4.274044e+002 4.263444e+002
         vertex 8.109096e+002 4.149045e+002 4.888444e+002
      endloop
   endfacet
   facet normal 1.000000e+000 0.000000e+000 0.000000e+000
      outer loop
         vertex 8.109096e+002 4.149045e+002 4.888444e+002
         vertex 8.109096e+002 4.274044e+002 4.263444e+002
         vertex 8.109096e+002 4.274044e+002 4.763444e+002
      endloop
   endfacet
   facet normal 1.000000e+000 0.000000e+000 0.000000e+000
      outer loop
         vertex 8.109096e+002 4.149045e+002 4.888444e+002
         vertex 8.109096e+002 4.274044e+002 4.763444e+002
         vertex 8.109096e+002 4.899044e+002 4.888444e+002
      endloop
   endfacet
   facet normal 1.000000e+000 0.000000e+000 0.000000e+000
      outer loop
         vertex 8.109096e+002 4.899044e+002 4.888444e+002
         vertex 8.109096e+002 4.274044e+002 4.763444e+002
         vertex 8.109096e+002 4.774045e+002 4.763444e+002
      endloop
   endfacet
   facet normal 1.000000e+000 0.000000e+000 0.000000e+000
      outer loop
         vertex 8.109096e+002 4.899044e+002 4.888444e+002
         vertex 8.109096e+002 4.774045e+002 4.763444e+002
         vertex 8.109096e+002 4.774045e+002 4.263444e+002
      endloop
   endfacet
   facet normal 0.000000e+000 0.000000e+000 -1.000000e+000
      outer loop
         vertex 4.909096e+002 4.274044e+002 4.263444e+002
         vertex 4.909096e+002 4.774045e+002 4.263444e+002
         vertex 5.109096e+002 4.274044e+002 4.263444e+002
      endloop
   endfacet
   facet normal 0.000000e+000 0.000000e+000 -1.000000e+000
      outer loop
         vertex 5.109096e+002 4.274044e+002 4.263444e+002
         vertex 4.909096e+002 4.774045e+002 4.263444e+002
         vertex 5.109096e+002 4.774045e+002 4.263444e+002
      endloop
   endfacet
   facet normal 0.000000e+000 -1.000000e+000 1.387779e-016
      outer loop
         vertex 4.909096e+002 4.274044e+002 4.763444e+002
         vertex 4.909096e+002 4.274044e+002 4.263444e+002
         vertex 5.109096e+002 4.274044e+002 4.763444e+002
      endloop
   endfacet
   facet normal 0.000000e+000 -1.000000e+000 1.387779e-016
      outer loop
         vertex 5.109096e+002 4.274044e+002 4.763444e+002
         vertex 4.909096e+002 4.274044e+002 4.263444e+002
         vertex 5.109096e+002 4.274044e+002 4.263444e+002
      endloop
   endfacet
   facet normal 0.000000e+000 0.000000e+000 1.000000e+000
      outer loop
         vertex 4.909096e+002 4.774045e+002 4.763444e+002
         vertex 4.909096e+002 4.274044e+002 4.763444e+002
         vertex 5.109096e+002 4.774045e+002 4.763444e+002
      endloop
   endfacet
   facet normal 0.000000e+000 0.000000e+000 1.000000e+000
      outer loop
         vertex 5.109096e+002 4.774045e+002 4.763444e+002
         vertex 4.909096e+002 4.274044e+002 4.763444e+002
         vertex 5.109096e+002 4.274044e+002 4.763444e+002
      endloop
   endfacet
   facet normal 0.000000e+000 1.000000e+000 -1.387779e-016
      outer loop
         vertex 4.909096e+002 4.774045e+002 4.263444e+002
         vertex 4.909096e+002 4.774045e+002 4.763444e+002
         vertex 5.109096e+002 4.774045e+002 4.263444e+002
      endloop
   endfacet
   facet normal 0.000000e+000 1.000000e+000 -1.387779e-016
      outer loop
         vertex 5.109096e+002 4.774045e+002 4.263444e+002
         vertex 4.909096e+002 4.774045e+002 4.763444e+002
         vertex 5.109096e+002 4.774045e+002 4.763444e+002
      endloop
   endfacet
   facet normal -1.000000e+000 0.000000e+000 0.000000e+000
      outer loop
         vertex 4.909096e+002 4.274044e+002 4.763444e+002
         vertex 4.909096e+002 4.774045e+002 4.763444e+002
         vertex 4.909096e+002 4.274044e+002 4.263444e+002
      endloop
   endfacet
   facet normal -1.000000e+000 0.000000e+000 0.000000e+000
      outer loop
         vertex 4.909096e+002 4.274044e+002 4.263444e+002
         vertex 4.909096e+002 4.774045e+002 4.763444e+002
         vertex 4.909096e+002 4.774045e+002 4.263444e+002
      endloop
   endfacet
   facet normal 0.000000e+000 0.000000e+000 -1.000000e+000
      outer loop
         vertex 8.309097e+002 4.774045e+002 4.263444e+002
         vertex 8.309097e+002 4.274044e+002 4.263444e+002
         vertex 8.109096e+002 4.774045e+002 4.263444e+002
      endloop
   endfacet
   facet normal 0.000000e+000 0.000000e+000 -1.000000e+000
      outer loop
         vertex 8.109096e+002 4.774045e+002 4.263444e+002
         vertex 8.309097e+002 4.274044e+002 4.263444e+002
         vertex 8.109096e+002 4.274044e+002 4.263444e+002
      endloop
   endfacet
   facet normal 0.000000e+000 1.000000e+000 -1.387779e-016
      outer loop
         vertex 8.309097e+002 4.774045e+002 4.763444e+002
         vertex 8.309097e+002 4.774045e+002 4.263444e+002
         vertex 8.109096e+002 4.774045e+002 4.763444e+002
      endloop
   endfacet
   facet normal 0.000000e+000 1.000000e+000 -1.387779e-016
      outer loop
         vertex 8.109096e+002 4.774045e+002 4.763444e+002
         vertex 8.309097e+002 4.774045e+002 4.263444e+002
         vertex 8.109096e+002 4.774045e+002 4.263444e+002
      endloop
   endfacet
   facet normal 0.000000e+000 0.000000e+000 1.000000e+000
      outer loop
         vertex 8.309097e+002 4.274044e+002 4.763444e+002
         vertex 8.309097e+002 4.774045e+002 4.763444e+002
         vertex 8.109096e+002 4.274044e+002 4.763444e+002
      endloop
   endfacet
   facet normal 0.000000e+000 0.000000e+000 1.000000e+000
      outer loop
         vertex 8.109096e+002 4.274044e+002 4.763444e+002
         vertex 8.309097e+002 4.774045e+002 4.763444e+002
         vertex 8.109096e+002 4.774045e+002 4.763444e+002
      endloop
   endfacet
   facet normal 0.000000e+000 -1.000000e+000 1.387779e-016
      outer loop
         vertex 8.309097e+002 4.274044e+002 4.263444e+002
         vertex 8.309097e+002 4.274044e+002 4.763444e+002
         vertex 8.109096e+002 4.274044e+002 4.263444e+002
      endloop
   endfacet
   facet normal 0.000000e+000 -1.000000e+000 1.387779e-016
      outer loop
         vertex 8.109096e+002 4.274044e+002 4.263444e+002
         vertex 8.309097e+002 4.274044e+002 4.763444e+002
         vertex 8.109096e+002 4.274044e+002 4.763444e+002
      endloop
   endfacet
   facet normal 1.000000e+000 0.000000e+000 0.000000e+000
      outer loop
         vertex 8.309097e+002 4.774045e+002 4.763444e+002
         vertex 8.309097e+002 4.274044e+002 4.763444e+002
         vertex 8.309097e+002 4.774045e+002 4.263444e+002
      endloop
   endfacet
   facet normal 1.000000e+000 0.000000e+000 0.000000e+000
      outer loop
         vertex 8.309097e+002 4.774045e+002 4.263444e+002
         vertex 8.309097e+002 4.274044e+002 4.763444e+002
         vertex 8.309097e+002 4.274044e+002 4.263444e+002
      endloop
   endfacet
endsolid