solid CubeDouble - ADE0-1
   facet normal 1.105146e-032 -1.000000e+000 1.232595e-032
      outer loop
         vertex 8.590965e+001 4.774045e+002 7.634436e+001
         vertex 8.590965e+001 4.774045e+002 1.013444e+002
         vertex 3.590964e+001 4.774045e+002 7.634436e+001
      endloop
   endfacet
   facet normal 1.105146e-032 -1.000000e+000 1.232595e-032
      outer loop
         vertex 3.590964e+001 4.774045e+002 7.634436e+001
         vertex 8.590965e+001 4.774045e+002 1.013444e+002
         vertex 3.590964e+001 4.774045e+002 1.013444e+002
      endloop
   endfacet
   facet normal 1.105146e-032 -1.000000e+000 1.232595e-032
      outer loop
         vertex 8.590965e+001 4.774045e+002 2.634436e+001
         vertex 1.109096e+002 4.774045e+002 2.634436e+001
         vertex 8.590965e+001 4.774045e+002 7.634436e+001
      endloop
   endfacet
   facet normal 1.105146e-032 -1.000000e+000 1.232595e-032
      outer loop
         vertex 8.590965e+001 4.774045e+002 7.634436e+001
         vertex 1.109096e+002 4.774045e+002 2.634436e+001
         vertex 1.109096e+002 4.774045e+002 7.634436e+001
      endloop
   endfacet
   facet normal 1.105146e-032 -1.000000e+000 1.232595e-032
      outer loop
         vertex 3.590964e+001 4.774045e+002 2.634436e+001
         vertex 3.590964e+001 4.774045e+002 1.344361e+000
         vertex 8.590965e+001 4.774045e+002 2.634436e+001
      endloop
   endfacet
   facet normal 1.105146e-032 -1.000000e+000 1.232595e-032
      outer loop
         vertex 8.590965e+001 4.774045e+002 2.634436e+001
         vertex 3.590964e+001 4.774045e+002 1.344361e+000
         vertex 8.590965e+001 4.774045e+002 1.344361e+000
      endloop
   endfacet
   facet normal -1.105146e-032 1.000000e+000 -1.232595e-032
      outer loop
         vertex 3.590964e+001 4.274044e+002 7.634436e+001
         vertex 3.590964e+001 4.274044e+002 1.013444e+002
         vertex 8.590965e+001 4.274044e+002 7.634436e+001
      endloop
   endfacet
   facet normal -1.105146e-032 1.000000e+000 -1.232595e-032
      outer loop
         vertex 8.590965e+001 4.274044e+002 7.634436e+001
         vertex 3.590964e+001 4.274044e+002 1.013444e+002
         vertex 8.590965e+001 4.274044e+002 1.013444e+002
      endloop
   endfacet
   facet normal -1.105146e-032 1.000000e+000 -1.232595e-032
      outer loop
         vertex 8.590965e+001 4.274044e+002 7.634436e+001
         vertex 1.109096e+002 4.274044e+002 7.634436e+001
         vertex 8.590965e+001 4.274044e+002 2.634436e+001
      endloop
   endfacet
   facet normal -1.105146e-032 1.000000e+000 -1.232595e-032
      outer loop
         vertex 8.590965e+001 4.274044e+002 2.634436e+001
         vertex 1.109096e+002 4.274044e+002 7.634436e+001
         vertex 1.109096e+002 4.274044e+002 2.634436e+001
      endloop
   endfacet
   facet normal -1.105146e-032 1.000000e+000 -1.232595e-032
      outer loop
         vertex 8.590965e+001 4.274044e+002 2.634436e+001
         vertex 8.590965e+001 4.274044e+002 1.344361e+000
         vertex 3.590964e+001 4.274044e+002 2.634436e+001
      endloop
   endfacet
   facet normal -1.105146e-032 1.000000e+000 -1.232595e-032
      outer loop
         vertex 3.590964e+001 4.274044e+002 2.634436e+001
         vertex 8.590965e+001 4.274044e+002 1.344361e+000
         vertex 3.590964e+001 4.274044e+002 1.344361e+000
      endloop
   endfacet
   facet normal 1.224647e-016 1.270359e-033 -1.000000e+000
      outer loop
         vertex 3.590964e+001 4.274044e+002 7.634436e+001
         vertex 1.090964e+001 4.274044e+002 7.634436e+001
         vertex 3.590964e+001 4.774045e+002 7.634436e+001
      endloop
   endfacet
   facet normal 1.224647e-016 1.270359e-033 -1.000000e+000
      outer loop
         vertex 3.590964e+001 4.774045e+002 7.634436e+001
         vertex 1.090964e+001 4.274044e+002 7.634436e+001
         vertex 1.090964e+001 4.774045e+002 7.634436e+001
      endloop
   endfacet
   facet normal -1.224647e-016 -1.270359e-033 1.000000e+000
      outer loop
         vertex 3.590964e+001 4.774045e+002 2.634436e+001
         vertex 1.090964e+001 4.774045e+002 2.634436e+001
         vertex 3.590964e+001 4.274044e+002 2.634436e+001
      endloop
   endfacet
   facet normal -1.224647e-016 -1.270359e-033 1.000000e+000
      outer loop
         vertex 3.590964e+001 4.274044e+002 2.634436e+001
         vertex 1.090964e+001 4.774045e+002 2.634436e+001
         vertex 1.090964e+001 4.274044e+002 2.634436e+001
      endloop
   endfacet
   facet normal -1.224647e-016 -1.270359e-033 1.000000e+000
      outer loop
         vertex 3.590964e+001 4.274044e+002 1.013444e+002
         vertex 1.090964e+001 4.024044e+002 1.013444e+002
         vertex 1.109096e+002 4.024044e+002 1.013444e+002
      endloop
   endfacet
   facet normal -1.224647e-016 -1.270359e-033 1.000000e+000
      outer loop
         vertex 1.090964e+001 4.024044e+002 1.013444e+002
         vertex 3.590964e+001 4.274044e+002 1.013444e+002
         vertex 1.090964e+001 5.024044e+002 1.013444e+002
      endloop
   endfacet
   facet normal -1.224647e-016 -1.270359e-033 1.000000e+000
      outer loop
         vertex 1.090964e+001 5.024044e+002 1.013444e+002
         vertex 3.590964e+001 4.274044e+002 1.013444e+002
         vertex 3.590964e+001 4.774045e+002 1.013444e+002
      endloop
   endfacet
   facet normal -1.224647e-016 -1.270359e-033 1.000000e+000
      outer loop
         vertex 1.090964e+001 5.024044e+002 1.013444e+002
         vertex 3.590964e+001 4.774045e+002 1.013444e+002
         vertex 1.109096e+002 5.024044e+002 1.013444e+002
      endloop
   endfacet
   facet normal -1.224647e-016 -1.270359e-033 1.000000e+000
      outer loop
         vertex 1.109096e+002 5.024044e+002 1.013444e+002
         vertex 3.590964e+001 4.774045e+002 1.013444e+002
         vertex 8.590965e+001 4.774045e+002 1.013444e+002
      endloop
   endfacet
   facet normal -1.224647e-016 -1.270359e-033 1.000000e+000
      outer loop
         vertex 1.109096e+002 5.024044e+002 1.013444e+002
         vertex 8.590965e+001 4.774045e+002 1.013444e+002
         vertex 1.109096e+002 4.024044e+002 1.013444e+002
      endloop
   endfacet
   facet normal -1.224647e-016 -1.270359e-033 1.000000e+000
      outer loop
         vertex 1.109096e+002 4.024044e+002 1.013444e+002
         vertex 8.590965e+001 4.774045e+002 1.013444e+002
         vertex 8.590965e+001 4.274044e+002 1.013444e+002
      endloop
   endfacet
   facet normal -1.224647e-016 -1.270359e-033 1.000000e+000
      outer loop
         vertex 1.109096e+002 4.024044e+002 1.013444e+002
         vertex 8.590965e+001 4.274044e+002 1.013444e+002
         vertex 3.590964e+001 4.274044e+002 1.013444e+002
      endloop
   endfacet
   facet normal 1.105146e-032 -1.000000e+000 1.232595e-032
      outer loop
         vertex 3.590964e+001 4.024044e+002 2.634436e+001
         vertex 1.090964e+001 4.024044e+002 1.344361e+000
         vertex 8.590965e+001 4.024044e+002 2.634436e+001
      endloop
   endfacet
   facet normal 1.105146e-032 -1.000000e+000 1.232595e-032
      outer loop
         vertex 8.590965e+001 4.024044e+002 2.634436e+001
         vertex 1.090964e+001 4.024044e+002 1.344361e+000
         vertex 1.109096e+002 4.024044e+002 1.344361e+000
      endloop
   endfacet
   facet normal 1.105146e-032 -1.000000e+000 1.232595e-032
      outer loop
         vertex 8.590965e+001 4.024044e+002 2.634436e+001
         vertex 1.109096e+002 4.024044e+002 1.344361e+000
         vertex 8.590965e+001 4.024044e+002 7.634436e+001
      endloop
   endfacet
   facet normal 1.105146e-032 -1.000000e+000 1.232595e-032
      outer loop
         vertex 8.590965e+001 4.024044e+002 7.634436e+001
         vertex 1.109096e+002 4.024044e+002 1.344361e+000
         vertex 1.109096e+002 4.024044e+002 1.013444e+002
      endloop
   endfacet
   facet normal 1.105146e-032 -1.000000e+000 1.232595e-032
      outer loop
         vertex 8.590965e+001 4.024044e+002 7.634436e+001
         vertex 1.109096e+002 4.024044e+002 1.013444e+002
         vertex 3.590964e+001 4.024044e+002 7.634436e+001
      endloop
   endfacet
   facet normal 1.105146e-032 -1.000000e+000 1.232595e-032
      outer loop
         vertex 3.590964e+001 4.024044e+002 7.634436e+001
         vertex 1.109096e+002 4.024044e+002 1.013444e+002
         vertex 1.090964e+001 4.024044e+002 1.013444e+002
      endloop
   endfacet
   facet normal 1.105146e-032 -1.000000e+000 1.232595e-032
      outer loop
         vertex 3.590964e+001 4.024044e+002 7.634436e+001
         vertex 1.090964e+001 4.024044e+002 1.013444e+002
         vertex 3.590964e+001 4.024044e+002 2.634436e+001
      endloop
   endfacet
   facet normal 1.105146e-032 -1.000000e+000 1.232595e-032
      outer loop
         vertex 3.590964e+001 4.024044e+002 2.634436e+001
         vertex 1.090964e+001 4.024044e+002 1.013444e+002
         vertex 1.090964e+001 4.024044e+002 1.344361e+000
      endloop
   endfacet
   facet normal 1.224647e-016 1.270359e-033 -1.000000e+000
      outer loop
         vertex 8.590965e+001 4.274044e+002 1.344361e+000
         vertex 1.109096e+002 4.024044e+002 1.344361e+000
         vertex 3.590964e+001 4.274044e+002 1.344361e+000
      endloop
   endfacet
   facet normal 1.224647e-016 1.270359e-033 -1.000000e+000
      outer loop
         vertex 3.590964e+001 4.274044e+002 1.344361e+000
         vertex 1.109096e+002 4.024044e+002 1.344361e+000
         vertex 1.090964e+001 4.024044e+002 1.344361e+000
      endloop
   endfacet
   facet normal 1.224647e-016 1.270359e-033 -1.000000e+000
      outer loop
         vertex 3.590964e+001 4.274044e+002 1.344361e+000
         vertex 1.090964e+001 4.024044e+002 1.344361e+000
         vertex 3.590964e+001 4.774045e+002 1.344361e+000
      endloop
   endfacet
   facet normal 1.224647e-016 1.270359e-033 -1.000000e+000
      outer loop
         vertex 3.590964e+001 4.774045e+002 1.344361e+000
         vertex 1.090964e+001 4.024044e+002 1.344361e+000
         vertex 1.090964e+001 5.024044e+002 1.344361e+000
      endloop
   endfacet
   facet normal 1.224647e-016 1.270359e-033 -1.000000e+000
      outer loop
         vertex 3.590964e+001 4.774045e+002 1.344361e+000
         vertex 1.090964e+001 5.024044e+002 1.344361e+000
         vertex 8.590965e+001 4.774045e+002 1.344361e+000
      endloop
   endfacet
   facet normal 1.224647e-016 1.270359e-033 -1.000000e+000
      outer loop
         vertex 8.590965e+001 4.774045e+002 1.344361e+000
         vertex 1.090964e+001 5.024044e+002 1.344361e+000
         vertex 1.109096e+002 5.024044e+002 1.344361e+000
      endloop
   endfacet
   facet normal 1.224647e-016 1.270359e-033 -1.000000e+000
      outer loop
         vertex 8.590965e+001 4.774045e+002 1.344361e+000
         vertex 1.109096e+002 5.024044e+002 1.344361e+000
         vertex 8.590965e+001 4.274044e+002 1.344361e+000
      endloop
   endfacet
   facet normal 1.224647e-016 1.270359e-033 -1.000000e+000
      outer loop
         vertex 8.590965e+001 4.274044e+002 1.344361e+000
         vertex 1.109096e+002 5.024044e+002 1.344361e+000
         vertex 1.109096e+002 4.024044e+002 1.344361e+000
      endloop
   endfacet
   facet normal -1.105146e-032 1.000000e+000 -1.232595e-032
      outer loop
         vertex 8.590965e+001 5.024044e+002 2.634436e+001
         vertex 1.109096e+002 5.024044e+002 1.344361e+000
         vertex 3.590964e+001 5.024044e+002 2.634436e+001
      endloop
   endfacet
   facet normal -1.105146e-032 1.000000e+000 -1.232595e-032
      outer loop
         vertex 3.590964e+001 5.024044e+002 2.634436e+001
         vertex 1.109096e+002 5.024044e+002 1.344361e+000
         vertex 1.090964e+001 5.024044e+002 1.344361e+000
      endloop
   endfacet
   facet normal -1.105146e-032 1.000000e+000 -1.232595e-032
      outer loop
         vertex 3.590964e+001 5.024044e+002 2.634436e+001
         vertex 1.090964e+001 5.024044e+002 1.344361e+000
         vertex 3.590964e+001 5.024044e+002 7.634436e+001
      endloop
   endfacet
   facet normal -1.105146e-032 1.000000e+000 -1.232595e-032
      outer loop
         vertex 3.590964e+001 5.024044e+002 7.634436e+001
         vertex 1.090964e+001 5.024044e+002 1.344361e+000
         vertex 1.090964e+001 5.024044e+002 1.013444e+002
      endloop
   endfacet
   facet normal -1.105146e-032 1.000000e+000 -1.232595e-032
      outer loop
         vertex 3.590964e+001 5.024044e+002 7.634436e+001
         vertex 1.090964e+001 5.024044e+002 1.013444e+002
         vertex 8.590965e+001 5.024044e+002 7.634436e+001
      endloop
   endfacet
   facet normal -1.105146e-032 1.000000e+000 -1.232595e-032
      outer loop
         vertex 8.590965e+001 5.024044e+002 7.634436e+001
         vertex 1.090964e+001 5.024044e+002 1.013444e+002
         vertex 1.109096e+002 5.024044e+002 1.013444e+002
      endloop
   endfacet
   facet normal -1.105146e-032 1.000000e+000 -1.232595e-032
      outer loop
         vertex 8.590965e+001 5.024044e+002 7.634436e+001
         vertex 1.109096e+002 5.024044e+002 1.013444e+002
         vertex 8.590965e+001 5.024044e+002 2.634436e+001
      endloop
   endfacet
   facet normal -1.105146e-032 1.000000e+000 -1.232595e-032
      outer loop
         vertex 8.590965e+001 5.024044e+002 2.634436e+001
         vertex 1.109096e+002 5.024044e+002 1.013444e+002
         vertex 1.109096e+002 5.024044e+002 1.344361e+000
      endloop
   endfacet
   facet normal 1.000000e+000 -1.110223e-016 1.224647e-016
      outer loop
         vertex 1.109096e+002 4.274044e+002 7.634436e+001
         vertex 1.109096e+002 4.024044e+002 1.013444e+002
         vertex 1.109096e+002 4.024044e+002 1.344361e+000
      endloop
   endfacet
   facet normal 1.000000e+000 -1.110223e-016 1.224647e-016
      outer loop
         vertex 1.109096e+002 4.024044e+002 1.013444e+002
         vertex 1.109096e+002 4.274044e+002 7.634436e+001
         vertex 1.109096e+002 5.024044e+002 1.013444e+002
      endloop
   endfacet
   facet normal 1.000000e+000 -1.110223e-016 1.224647e-016
      outer loop
         vertex 1.109096e+002 5.024044e+002 1.013444e+002
         vertex 1.109096e+002 4.274044e+002 7.634436e+001
         vertex 1.109096e+002 4.774045e+002 7.634436e+001
      endloop
   endfacet
   facet normal 1.000000e+000 -1.110223e-016 1.224647e-016
      outer loop
         vertex 1.109096e+002 5.024044e+002 1.013444e+002
         vertex 1.109096e+002 4.774045e+002 7.634436e+001
         vertex 1.109096e+002 5.024044e+002 1.344361e+000
      endloop
   endfacet
   facet normal 1.000000e+000 -1.110223e-016 1.224647e-016
      outer loop
         vertex 1.109096e+002 5.024044e+002 1.344361e+000
         vertex 1.109096e+002 4.774045e+002 7.634436e+001
         vertex 1.109096e+002 4.774045e+002 2.634436e+001
      endloop
   endfacet
   facet normal 1.000000e+000 -1.110223e-016 1.224647e-016
      outer loop
         vertex 1.109096e+002 5.024044e+002 1.344361e+000
         vertex 1.109096e+002 4.774045e+002 2.634436e+001
         vertex 1.109096e+002 4.024044e+002 1.344361e+000
      endloop
   endfacet
   facet normal 1.000000e+000 -1.110223e-016 1.224647e-016
      outer loop
         vertex 1.109096e+002 4.024044e+002 1.344361e+000
         vertex 1.109096e+002 4.774045e+002 2.634436e+001
         vertex 1.109096e+002 4.274044e+002 2.634436e+001
      endloop
   endfacet
   facet normal 1.000000e+000 -1.110223e-016 1.224647e-016
      outer loop
         vertex 1.109096e+002 4.024044e+002 1.344361e+000
         vertex 1.109096e+002 4.274044e+002 2.634436e+001
         vertex 1.109096e+002 4.274044e+002 7.634436e+001
      endloop
   endfacet
   facet normal -1.000000e+000 1.110223e-016 -1.224647e-016
      outer loop
         vertex 1.090964e+001 4.774045e+002 7.634436e+001
         vertex 1.090964e+001 5.024044e+002 1.013444e+002
         vertex 1.090964e+001 4.774045e+002 2.634436e+001
      endloop
   endfacet
   facet normal -1.000000e+000 1.110223e-016 -1.224647e-016
      outer loop
         vertex 1.090964e+001 4.774045e+002 2.634436e+001
         vertex 1.090964e+001 5.024044e+002 1.013444e+002
         vertex 1.090964e+001 5.024044e+002 1.344361e+000
      endloop
   endfacet
   facet normal -1.000000e+000 1.110223e-016 -1.224647e-016
      outer loop
         vertex 1.090964e+001 4.774045e+002 2.634436e+001
         vertex 1.090964e+001 5.024044e+002 1.344361e+000
         vertex 1.090964e+001 4.274044e+002 2.634436e+001
      endloop
   endfacet
   facet normal -1.000000e+000 1.110223e-016 -1.224647e-016
      outer loop
         vertex 1.090964e+001 4.274044e+002 2.634436e+001
         vertex 1.090964e+001 5.024044e+002 1.344361e+000
         vertex 1.090964e+001 4.024044e+002 1.344361e+000
      endloop
   endfacet
   facet normal -1.000000e+000 1.110223e-016 -1.224647e-016
      outer loop
         vertex 1.090964e+001 4.274044e+002 2.634436e+001
         vertex 1.090964e+001 4.024044e+002 1.344361e+000
         vertex 1.090964e+001 4.274044e+002 7.634436e+001
      endloop
   endfacet
   facet normal -1.000000e+000 1.110223e-016 -1.224647e-016
      outer loop
         vertex 1.090964e+001 4.274044e+002 7.634436e+001
         vertex 1.090964e+001 4.024044e+002 1.344361e+000
         vertex 1.090964e+001 4.024044e+002 1.013444e+002
      endloop
   endfacet
   facet normal -1.000000e+000 1.110223e-016 -1.224647e-016
      outer loop
         vertex 1.090964e+001 4.274044e+002 7.634436e+001
         vertex 1.090964e+001 4.024044e+002 1.013444e+002
         vertex 1.090964e+001 4.774045e+002 7.634436e+001
      endloop
   endfacet
   facet normal -1.000000e+000 1.110223e-016 -1.224647e-016
      outer loop
         vertex 1.090964e+001 4.774045e+002 7.634436e+001
         vertex 1.090964e+001 4.024044e+002 1.013444e+002
         vertex 1.090964e+001 5.024044e+002 1.013444e+002
      endloop
   endfacet
   facet normal 1.224647e-016 1.270359e-033 -1.000000e+000
      outer loop
         vertex 8.590965e+001 4.774045e+002 7.634436e+001
         vertex 1.109096e+002 4.774045e+002 7.634436e+001
         vertex 8.590965e+001 4.274044e+002 7.634436e+001
      endloop
   endfacet
   facet normal 1.224647e-016 1.270359e-033 -1.000000e+000
      outer loop
         vertex 8.590965e+001 4.274044e+002 7.634436e+001
         vertex 1.109096e+002 4.774045e+002 7.634436e+001
         vertex 1.109096e+002 4.274044e+002 7.634436e+001
      endloop
   endfacet
   facet normal 1.105146e-032 -1.000000e+000 1.232595e-032
      outer loop
         vertex 3.590964e+001 4.774045e+002 7.634436e+001
         vertex 1.090964e+001 4.774045e+002 7.634436e+001
         vertex 3.590964e+001 4.774045e+002 2.634436e+001
      endloop
   endfacet
   facet normal 1.105146e-032 -1.000000e+000 1.232595e-032
      outer loop
         vertex 3.590964e+001 4.774045e+002 2.634436e+001
         vertex 1.090964e+001 4.774045e+002 7.634436e+001
         vertex 1.090964e+001 4.774045e+002 2.634436e+001
      endloop
   endfacet
   facet normal -1.224647e-016 -1.270359e-033 1.000000e+000
      outer loop
         vertex 8.590965e+001 4.274044e+002 2.634436e+001
         vertex 1.109096e+002 4.274044e+002 2.634436e+001
         vertex 8.590965e+001 4.774045e+002 2.634436e+001
      endloop
   endfacet
   facet normal -1.224647e-016 -1.270359e-033 1.000000e+000
      outer loop
         vertex 8.590965e+001 4.774045e+002 2.634436e+001
         vertex 1.109096e+002 4.274044e+002 2.634436e+001
         vertex 1.109096e+002 4.774045e+002 2.634436e+001
      endloop
   endfacet
   facet normal -1.105146e-032 1.000000e+000 -1.232595e-032
      outer loop
         vertex 3.590964e+001 4.274044e+002 2.634436e+001
         vertex 1.090964e+001 4.274044e+002 2.634436e+001
         vertex 3.590964e+001 4.274044e+002 7.634436e+001
      endloop
   endfacet
   facet normal -1.105146e-032 1.000000e+000 -1.232595e-032
      outer loop
         vertex 3.590964e+001 4.274044e+002 7.634436e+001
         vertex 1.090964e+001 4.274044e+002 2.634436e+001
         vertex 1.090964e+001 4.274044e+002 7.634436e+001
      endloop
   endfacet
   facet normal -1.000000e+000 2.498002e-016 -1.224647e-016
      outer loop
         vertex 8.590965e+001 4.274044e+002 1.344361e+000
         vertex 8.590965e+001 4.274044e+002 2.634436e+001
         vertex 8.590965e+001 4.774045e+002 1.344361e+000
      endloop
   endfacet
   facet normal -1.000000e+000 2.498002e-016 -1.224647e-016
      outer loop
         vertex 8.590965e+001 4.774045e+002 1.344361e+000
         vertex 8.590965e+001 4.274044e+002 2.634436e+001
         vertex 8.590965e+001 4.774045e+002 2.634436e+001
      endloop
   endfacet
   facet normal 1.000000e+000 -2.498002e-016 1.224647e-016
      outer loop
         vertex 3.590964e+001 4.774045e+002 1.344361e+000
         vertex 3.590964e+001 4.774045e+002 2.634436e+001
         vertex 3.590964e+001 4.274044e+002 1.344361e+000
      endloop
   endfacet
   facet normal 1.000000e+000 -2.498002e-016 1.224647e-016
      outer loop
         vertex 3.590964e+001 4.274044e+002 1.344361e+000
         vertex 3.590964e+001 4.774045e+002 2.634436e+001
         vertex 3.590964e+001 4.274044e+002 2.634436e+001
      endloop
   endfacet
   facet normal 1.000000e+000 -2.498002e-016 1.224647e-016
      outer loop
         vertex 3.590964e+001 4.274044e+002 1.013444e+002
         vertex 3.590964e+001 4.274044e+002 7.634436e+001
         vertex 3.590964e+001 4.774045e+002 1.013444e+002
      endloop
   endfacet
   facet normal 1.000000e+000 -2.498002e-016 1.224647e-016
      outer loop
         vertex 3.590964e+001 4.774045e+002 1.013444e+002
         vertex 3.590964e+001 4.274044e+002 7.634436e+001
         vertex 3.590964e+001 4.774045e+002 7.634436e+001
      endloop
   endfacet
   facet normal -1.000000e+000 2.498002e-016 -1.224647e-016
      outer loop
         vertex 8.590965e+001 4.774045e+002 1.013444e+002
         vertex 8.590965e+001 4.774045e+002 7.634436e+001
         vertex 8.590965e+001 4.274044e+002 1.013444e+002
      endloop
   endfacet
   facet normal -1.000000e+000 2.498002e-016 -1.224647e-016
      outer loop
         vertex 8.590965e+001 4.274044e+002 1.013444e+002
         vertex 8.590965e+001 4.774045e+002 7.634436e+001
         vertex 8.590965e+001 4.274044e+002 7.634436e+001
      endloop
   endfacet
   facet normal 1.000000e+000 -1.110223e-016 1.224647e-016
      outer loop
         vertex 3.590964e+001 4.024044e+002 2.634436e+001
         vertex 3.590964e+001 4.274044e+002 2.634436e+001
         vertex 3.590964e+001 4.024044e+002 7.634436e+001
      endloop
   endfacet
   facet normal 1.000000e+000 -1.110223e-016 1.224647e-016
      outer loop
         vertex 3.590964e+001 4.024044e+002 7.634436e+001
         vertex 3.590964e+001 4.274044e+002 2.634436e+001
         vertex 3.590964e+001 4.274044e+002 7.634436e+001
      endloop
   endfacet
   facet normal -1.224647e-016 -1.270359e-033 1.000000e+000
      outer loop
         vertex 8.590965e+001 4.024044e+002 2.634436e+001
         vertex 8.590965e+001 4.274044e+002 2.634436e+001
         vertex 3.590964e+001 4.024044e+002 2.634436e+001
      endloop
   endfacet
   facet normal -1.224647e-016 -1.270359e-033 1.000000e+000
      outer loop
         vertex 3.590964e+001 4.024044e+002 2.634436e+001
         vertex 8.590965e+001 4.274044e+002 2.634436e+001
         vertex 3.590964e+001 4.274044e+002 2.634436e+001
      endloop
   endfacet
   facet normal -1.000000e+000 1.110223e-016 -1.224647e-016
      outer loop
         vertex 8.590965e+001 4.024044e+002 7.634436e+001
         vertex 8.590965e+001 4.274044e+002 7.634436e+001
         vertex 8.590965e+001 4.024044e+002 2.634436e+001
      endloop
   endfacet
   facet normal -1.000000e+000 1.110223e-016 -1.224647e-016
      outer loop
         vertex 8.590965e+001 4.024044e+002 2.634436e+001
         vertex 8.590965e+001 4.274044e+002 7.634436e+001
         vertex 8.590965e+001 4.274044e+002 2.634436e+001
      endloop
   endfacet
   facet normal 1.224647e-016 1.270359e-033 -1.000000e+000
      outer loop
         vertex 3.590964e+001 4.024044e+002 7.634436e+001
         vertex 3.590964e+001 4.274044e+002 7.634436e+001
         vertex 8.590965e+001 4.024044e+002 7.634436e+001
      endloop
   endfacet
   facet normal 1.224647e-016 1.270359e-033 -1.000000e+000
      outer loop
         vertex 8.590965e+001 4.024044e+002 7.634436e+001
         vertex 3.590964e+001 4.274044e+002 7.634436e+001
         vertex 8.590965e+001 4.274044e+002 7.634436e+001
      endloop
   endfacet
   facet normal -1.000000e+000 1.110223e-016 -1.224647e-016
      outer loop
         vertex 8.590965e+001 5.024044e+002 2.634436e+001
         vertex 8.590965e+001 4.774045e+002 2.634436e+001
         vertex 8.590965e+001 5.024044e+002 7.634436e+001
      endloop
   endfacet
   facet normal -1.000000e+000 1.110223e-016 -1.224647e-016
      outer loop
         vertex 8.590965e+001 5.024044e+002 7.634436e+001
         vertex 8.590965e+001 4.774045e+002 2.634436e+001
         vertex 8.590965e+001 4.774045e+002 7.634436e+001
      endloop
   endfacet
   facet normal 1.000000e+000 -1.110223e-016 1.224647e-016
      outer loop
         vertex 3.590964e+001 5.024044e+002 7.634436e+001
         vertex 3.590964e+001 4.774045e+002 7.634436e+001
         vertex 3.590964e+001 5.024044e+002 2.634436e+001
      endloop
   endfacet
   facet normal 1.000000e+000 -1.110223e-016 1.224647e-016
      outer loop
         vertex 3.590964e+001 5.024044e+002 2.634436e+001
         vertex 3.590964e+001 4.774045e+002 7.634436e+001
         vertex 3.590964e+001 4.774045e+002 2.634436e+001
      endloop
   endfacet
   facet normal -1.224647e-016 -1.270359e-033 1.000000e+000
      outer loop
         vertex 3.590964e+001 5.024044e+002 2.634436e+001
         vertex 3.590964e+001 4.774045e+002 2.634436e+001
         vertex 8.590965e+001 5.024044e+002 2.634436e+001
      endloop
   endfacet
   facet normal -1.224647e-016 -1.270359e-033 1.000000e+000
      outer loop
         vertex 8.590965e+001 5.024044e+002 2.634436e+001
         vertex 3.590964e+001 4.774045e+002 2.634436e+001
         vertex 8.590965e+001 4.774045e+002 2.634436e+001
      endloop
   endfacet
   facet normal 1.224647e-016 1.270359e-033 -1.000000e+000
      outer loop
         vertex 8.590965e+001 5.024044e+002 7.634436e+001
         vertex 8.590965e+001 4.774045e+002 7.634436e+001
         vertex 3.590964e+001 5.024044e+002 7.634436e+001
      endloop
   endfacet
   facet normal 1.224647e-016 1.270359e-033 -1.000000e+000
      outer loop
         vertex 3.590964e+001 5.024044e+002 7.634436e+001
         vertex 8.590965e+001 4.774045e+002 7.634436e+001
         vertex 3.590964e+001 4.774045e+002 7.634436e+001
      endloop
   endfacet
endsolid