solid CubeDouble - H0-3
   facet normal 1.224647e-016 1.000000e+000 -0.000000e+000
      outer loop
         vertex 3.590964e+001 4.024045e+002 4.763444e+002
         vertex 2.340964e+001 4.024045e+002 4.888444e+002
         vertex 8.590965e+001 4.024045e+002 4.763444e+002
      endloop
   endfacet
   facet normal 1.224647e-016 1.000000e+000 -0.000000e+000
      outer loop
         vertex 8.590965e+001 4.024045e+002 4.763444e+002
         vertex 2.340964e+001 4.024045e+002 4.888444e+002
         vertex 9.840965e+001 4.024045e+002 4.888444e+002
      endloop
   endfacet
   facet normal 1.224647e-016 1.000000e+000 -0.000000e+000
      outer loop
         vertex 8.590965e+001 4.024045e+002 4.763444e+002
         vertex 9.840965e+001 4.024045e+002 4.888444e+002
         vertex 8.590965e+001 4.024045e+002 4.263444e+002
      endloop
   endfacet
   facet normal 1.224647e-016 1.000000e+000 -0.000000e+000
      outer loop
         vertex 8.590965e+001 4.024045e+002 4.263444e+002
         vertex 9.840965e+001 4.024045e+002 4.888444e+002
         vertex 9.840965e+001 4.024045e+002 4.138444e+002
      endloop
   endfacet
   facet normal 1.224647e-016 1.000000e+000 -0.000000e+000
      outer loop
         vertex 8.590965e+001 4.024045e+002 4.263444e+002
         vertex 9.840965e+001 4.024045e+002 4.138444e+002
         vertex 3.590964e+001 4.024045e+002 4.263444e+002
      endloop
   endfacet
   facet normal 1.224647e-016 1.000000e+000 -0.000000e+000
      outer loop
         vertex 3.590964e+001 4.024045e+002 4.263444e+002
         vertex 9.840965e+001 4.024045e+002 4.138444e+002
         vertex 2.340964e+001 4.024045e+002 4.138444e+002
      endloop
   endfacet
   facet normal 1.224647e-016 1.000000e+000 -0.000000e+000
      outer loop
         vertex 3.590964e+001 4.024045e+002 4.263444e+002
         vertex 2.340964e+001 4.024045e+002 4.138444e+002
         vertex 3.590964e+001 4.024045e+002 4.763444e+002
      endloop
   endfacet
   facet normal 1.224647e-016 1.000000e+000 -0.000000e+000
      outer loop
         vertex 3.590964e+001 4.024045e+002 4.763444e+002
         vertex 2.340964e+001 4.024045e+002 4.138444e+002
         vertex 2.340964e+001 4.024045e+002 4.888444e+002
      endloop
   endfacet
   facet normal 0.000000e+000 0.000000e+000 1.000000e+000
      outer loop
         vertex 9.840965e+001 4.024045e+002 4.888444e+002
         vertex 2.340964e+001 4.024045e+002 4.888444e+002
         vertex 9.840965e+001 1.024045e+002 4.888444e+002
      endloop
   endfacet
   facet normal 0.000000e+000 0.000000e+000 1.000000e+000
      outer loop
         vertex 9.840965e+001 1.024045e+002 4.888444e+002
         vertex 2.340964e+001 4.024045e+002 4.888444e+002
         vertex 2.340964e+001 1.024045e+002 4.888444e+002
      endloop
   endfacet
   facet normal 1.000000e+000 -1.224647e-016 -0.000000e+000
      outer loop
         vertex 9.840965e+001 4.024045e+002 4.138444e+002
         vertex 9.840965e+001 4.024045e+002 4.888444e+002
         vertex 9.840965e+001 1.024045e+002 4.138444e+002
      endloop
   endfacet
   facet normal 1.000000e+000 -1.224647e-016 -0.000000e+000
      outer loop
         vertex 9.840965e+001 1.024045e+002 4.138444e+002
         vertex 9.840965e+001 4.024045e+002 4.888444e+002
         vertex 9.840965e+001 1.024045e+002 4.888444e+002
      endloop
   endfacet
   facet normal -0.000000e+000 -0.000000e+000 -1.000000e+000
      outer loop
         vertex 2.340964e+001 4.024045e+002 4.138444e+002
         vertex 9.840965e+001 4.024045e+002 4.138444e+002
         vertex 2.340964e+001 1.024045e+002 4.138444e+002
      endloop
   endfacet
   facet normal -0.000000e+000 -0.000000e+000 -1.000000e+000
      outer loop
         vertex 2.340964e+001 1.024045e+002 4.138444e+002
         vertex 9.840965e+001 4.024045e+002 4.138444e+002
         vertex 9.840965e+001 1.024045e+002 4.138444e+002
      endloop
   endfacet
   facet normal -1.000000e+000 1.224647e-016 9.251858e-017
      outer loop
         vertex 2.340964e+001 4.024045e+002 4.888444e+002
         vertex 2.340964e+001 4.024045e+002 4.138444e+002
         vertex 2.340964e+001 1.024045e+002 4.888444e+002
      endloop
   endfacet
   facet normal -1.000000e+000 1.224647e-016 9.251858e-017
      outer loop
         vertex 2.340964e+001 1.024045e+002 4.888444e+002
         vertex 2.340964e+001 4.024045e+002 4.138444e+002
         vertex 2.340964e+001 1.024045e+002 4.138444e+002
      endloop
   endfacet
   facet normal -1.224647e-016 -1.000000e+000 0.000000e+000
      outer loop
         vertex 3.590964e+001 1.024045e+002 4.763444e+002
         vertex 2.340964e+001 1.024045e+002 4.888444e+002
         vertex 2.340964e+001 1.024045e+002 4.138444e+002
      endloop
   endfacet
   facet normal -1.224647e-016 -1.000000e+000 0.000000e+000
      outer loop
         vertex 2.340964e+001 1.024045e+002 4.888444e+002
         vertex 3.590964e+001 1.024045e+002 4.763444e+002
         vertex 9.840965e+001 1.024045e+002 4.888444e+002
      endloop
   endfacet
   facet normal -1.224647e-016 -1.000000e+000 0.000000e+000
      outer loop
         vertex 9.840965e+001 1.024045e+002 4.888444e+002
         vertex 3.590964e+001 1.024045e+002 4.763444e+002
         vertex 8.590965e+001 1.024045e+002 4.763444e+002
      endloop
   endfacet
   facet normal -1.224647e-016 -1.000000e+000 0.000000e+000
      outer loop
         vertex 9.840965e+001 1.024045e+002 4.888444e+002
         vertex 8.590965e+001 1.024045e+002 4.763444e+002
         vertex 9.840965e+001 1.024045e+002 4.138444e+002
      endloop
   endfacet
   facet normal -1.224647e-016 -1.000000e+000 0.000000e+000
      outer loop
         vertex 9.840965e+001 1.024045e+002 4.138444e+002
         vertex 8.590965e+001 1.024045e+002 4.763444e+002
         vertex 8.590965e+001 1.024045e+002 4.263444e+002
      endloop
   endfacet
   facet normal -1.224647e-016 -1.000000e+000 0.000000e+000
      outer loop
         vertex 9.840965e+001 1.024045e+002 4.138444e+002
         vertex 8.590965e+001 1.024045e+002 4.263444e+002
         vertex 2.340964e+001 1.024045e+002 4.138444e+002
      endloop
   endfacet
   facet normal -1.224647e-016 -1.000000e+000 0.000000e+000
      outer loop
         vertex 2.340964e+001 1.024045e+002 4.138444e+002
         vertex 8.590965e+001 1.024045e+002 4.263444e+002
         vertex 3.590964e+001 1.024045e+002 4.263444e+002
      endloop
   endfacet
   facet normal -1.224647e-016 -1.000000e+000 0.000000e+000
      outer loop
         vertex 2.340964e+001 1.024045e+002 4.138444e+002
         vertex 3.590964e+001 1.024045e+002 4.263444e+002
         vertex 3.590964e+001 1.024045e+002 4.763444e+002
      endloop
   endfacet
   facet normal 0.000000e+000 0.000000e+000 1.000000e+000
      outer loop
         vertex 8.590965e+001 4.224045e+002 4.763444e+002
         vertex 3.590964e+001 4.224045e+002 4.763444e+002
         vertex 8.590965e+001 4.024045e+002 4.763444e+002
      endloop
   endfacet
   facet normal 0.000000e+000 0.000000e+000 1.000000e+000
      outer loop
         vertex 8.590965e+001 4.024045e+002 4.763444e+002
         vertex 3.590964e+001 4.224045e+002 4.763444e+002
         vertex 3.590964e+001 4.024045e+002 4.763444e+002
      endloop
   endfacet
   facet normal 1.000000e+000 -1.224647e-016 -1.387779e-016
      outer loop
         vertex 8.590965e+001 4.224045e+002 4.263444e+002
         vertex 8.590965e+001 4.224045e+002 4.763444e+002
         vertex 8.590965e+001 4.024045e+002 4.263444e+002
      endloop
   endfacet
   facet normal 1.000000e+000 -1.224647e-016 -1.387779e-016
      outer loop
         vertex 8.590965e+001 4.024045e+002 4.263444e+002
         vertex 8.590965e+001 4.224045e+002 4.763444e+002
         vertex 8.590965e+001 4.024045e+002 4.763444e+002
      endloop
   endfacet
   facet normal -0.000000e+000 -0.000000e+000 -1.000000e+000
      outer loop
         vertex 3.590964e+001 4.224045e+002 4.263444e+002
         vertex 8.590965e+001 4.224045e+002 4.263444e+002
         vertex 3.590964e+001 4.024045e+002 4.263444e+002
      endloop
   endfacet
   facet normal -0.000000e+000 -0.000000e+000 -1.000000e+000
      outer loop
         vertex 3.590964e+001 4.024045e+002 4.263444e+002
         vertex 8.590965e+001 4.224045e+002 4.263444e+002
         vertex 8.590965e+001 4.024045e+002 4.263444e+002
      endloop
   endfacet
   facet normal -1.000000e+000 1.224647e-016 1.387779e-016
      outer loop
         vertex 3.590964e+001 4.224045e+002 4.763444e+002
         vertex 3.590964e+001 4.224045e+002 4.263444e+002
         vertex 3.590964e+001 4.024045e+002 4.763444e+002
      endloop
   endfacet
   facet normal -1.000000e+000 1.224647e-016 1.387779e-016
      outer loop
         vertex 3.590964e+001 4.024045e+002 4.763444e+002
         vertex 3.590964e+001 4.224045e+002 4.263444e+002
         vertex 3.590964e+001 4.024045e+002 4.263444e+002
      endloop
   endfacet
   facet normal 1.224647e-016 1.000000e+000 -0.000000e+000
      outer loop
         vertex 8.590965e+001 4.224045e+002 4.263444e+002
         vertex 3.590964e+001 4.224045e+002 4.263444e+002
         vertex 8.590965e+001 4.224045e+002 4.763444e+002
      endloop
   endfacet
   facet normal 1.224647e-016 1.000000e+000 -0.000000e+000
      outer loop
         vertex 8.590965e+001 4.224045e+002 4.763444e+002
         vertex 3.590964e+001 4.224045e+002 4.263444e+002
         vertex 3.590964e+001 4.224045e+002 4.763444e+002
      endloop
   endfacet
   facet normal 0.000000e+000 0.000000e+000 1.000000e+000
      outer loop
         vertex 3.590964e+001 8.240447e+001 4.763444e+002
         vertex 8.590965e+001 8.240447e+001 4.763444e+002
         vertex 3.590964e+001 1.024045e+002 4.763444e+002
      endloop
   endfacet
   facet normal 0.000000e+000 0.000000e+000 1.000000e+000
      outer loop
         vertex 3.590964e+001 1.024045e+002 4.763444e+002
         vertex 8.590965e+001 8.240447e+001 4.763444e+002
         vertex 8.590965e+001 1.024045e+002 4.763444e+002
      endloop
   endfacet
   facet normal -1.000000e+000 1.224647e-016 1.387779e-016
      outer loop
         vertex 3.590964e+001 8.240447e+001 4.263444e+002
         vertex 3.590964e+001 8.240447e+001 4.763444e+002
         vertex 3.590964e+001 1.024045e+002 4.263444e+002
      endloop
   endfacet
   facet normal -1.000000e+000 1.224647e-016 1.387779e-016
      outer loop
         vertex 3.590964e+001 1.024045e+002 4.263444e+002
         vertex 3.590964e+001 8.240447e+001 4.763444e+002
         vertex 3.590964e+001 1.024045e+002 4.763444e+002
      endloop
   endfacet
   facet normal -0.000000e+000 -0.000000e+000 -1.000000e+000
      outer loop
         vertex 8.590965e+001 8.240447e+001 4.263444e+002
         vertex 3.590964e+001 8.240447e+001 4.263444e+002
         vertex 8.590965e+001 1.024045e+002 4.263444e+002
      endloop
   endfacet
   facet normal -0.000000e+000 -0.000000e+000 -1.000000e+000
      outer loop
         vertex 8.590965e+001 1.024045e+002 4.263444e+002
         vertex 3.590964e+001 8.240447e+001 4.263444e+002
         vertex 3.590964e+001 1.024045e+002 4.263444e+002
      endloop
   endfacet
   facet normal 1.000000e+000 -1.224647e-016 -1.387779e-016
      outer loop
         vertex 8.590965e+001 8.240447e+001 4.763444e+002
         vertex 8.590965e+001 8.240447e+001 4.263444e+002
         vertex 8.590965e+001 1.024045e+002 4.763444e+002
      endloop
   endfacet
   facet normal 1.000000e+000 -1.224647e-016 -1.387779e-016
      outer loop
         vertex 8.590965e+001 1.024045e+002 4.763444e+002
         vertex 8.590965e+001 8.240447e+001 4.263444e+002
         vertex 8.590965e+001 1.024045e+002 4.263444e+002
      endloop
   endfacet
   facet normal -1.224647e-016 -1.000000e+000 0.000000e+000
      outer loop
         vertex 3.590964e+001 8.240447e+001 4.263444e+002
         vertex 8.590965e+001 8.240447e+001 4.263444e+002
         vertex 3.590964e+001 8.240447e+001 4.763444e+002
      endloop
   endfacet
   facet normal -1.224647e-016 -1.000000e+000 0.000000e+000
      outer loop
         vertex 3.590964e+001 8.240447e+001 4.763444e+002
         vertex 8.590965e+001 8.240447e+001 4.263444e+002
         vertex 8.590965e+001 8.240447e+001 4.763444e+002
      endloop
   endfacet
endsolid