solid CubeDouble - A0-5
   facet normal -0.000000e+000 1.000000e+000 -0.000000e+000
      outer loop
         vertex 8.590965e+001 4.024045e+002 2.634436e+001
         vertex 9.840965e+001 4.024045e+002 1.384436e+001
         vertex 3.590964e+001 4.024045e+002 2.634436e+001
      endloop
   endfacet
   facet normal -0.000000e+000 1.000000e+000 -0.000000e+000
      outer loop
         vertex 3.590964e+001 4.024045e+002 2.634436e+001
         vertex 9.840965e+001 4.024045e+002 1.384436e+001
         vertex 2.340964e+001 4.024045e+002 1.384436e+001
      endloop
   endfacet
   facet normal -0.000000e+000 1.000000e+000 -0.000000e+000
      outer loop
         vertex 3.590964e+001 4.024045e+002 2.634436e+001
         vertex 2.340964e+001 4.024045e+002 1.384436e+001
         vertex 3.590964e+001 4.024045e+002 7.634436e+001
      endloop
   endfacet
   facet normal -0.000000e+000 1.000000e+000 -0.000000e+000
      outer loop
         vertex 3.590964e+001 4.024045e+002 7.634436e+001
         vertex 2.340964e+001 4.024045e+002 1.384436e+001
         vertex 2.340964e+001 4.024045e+002 8.884437e+001
      endloop
   endfacet
   facet normal -0.000000e+000 1.000000e+000 -0.000000e+000
      outer loop
         vertex 3.590964e+001 4.024045e+002 7.634436e+001
         vertex 2.340964e+001 4.024045e+002 8.884437e+001
         vertex 8.590965e+001 4.024045e+002 7.634436e+001
      endloop
   endfacet
   facet normal -0.000000e+000 1.000000e+000 -0.000000e+000
      outer loop
         vertex 8.590965e+001 4.024045e+002 7.634436e+001
         vertex 2.340964e+001 4.024045e+002 8.884437e+001
         vertex 9.840965e+001 4.024045e+002 8.884437e+001
      endloop
   endfacet
   facet normal -0.000000e+000 1.000000e+000 -0.000000e+000
      outer loop
         vertex 8.590965e+001 4.024045e+002 7.634436e+001
         vertex 9.840965e+001 4.024045e+002 8.884437e+001
         vertex 8.590965e+001 4.024045e+002 2.634436e+001
      endloop
   endfacet
   facet normal -0.000000e+000 1.000000e+000 -0.000000e+000
      outer loop
         vertex 8.590965e+001 4.024045e+002 2.634436e+001
         vertex 9.840965e+001 4.024045e+002 8.884437e+001
         vertex 9.840965e+001 4.024045e+002 1.384436e+001
      endloop
   endfacet
   facet normal -1.224647e-016 -0.000000e+000 -1.000000e+000
      outer loop
         vertex 2.340964e+001 4.024045e+002 1.384436e+001
         vertex 9.840965e+001 4.024045e+002 1.384436e+001
         vertex 2.340964e+001 1.024045e+002 1.384436e+001
      endloop
   endfacet
   facet normal -1.224647e-016 -0.000000e+000 -1.000000e+000
      outer loop
         vertex 2.340964e+001 1.024045e+002 1.384436e+001
         vertex 9.840965e+001 4.024045e+002 1.384436e+001
         vertex 9.840965e+001 1.024045e+002 1.384436e+001
      endloop
   endfacet
   facet normal -1.000000e+000 -0.000000e+000 1.224647e-016
      outer loop
         vertex 2.340964e+001 4.024045e+002 8.884437e+001
         vertex 2.340964e+001 4.024045e+002 1.384436e+001
         vertex 2.340964e+001 1.024045e+002 8.884437e+001
      endloop
   endfacet
   facet normal -1.000000e+000 -0.000000e+000 1.224647e-016
      outer loop
         vertex 2.340964e+001 1.024045e+002 8.884437e+001
         vertex 2.340964e+001 4.024045e+002 1.384436e+001
         vertex 2.340964e+001 1.024045e+002 1.384436e+001
      endloop
   endfacet
   facet normal 1.224647e-016 0.000000e+000 1.000000e+000
      outer loop
         vertex 9.840965e+001 4.024045e+002 8.884437e+001
         vertex 2.340964e+001 4.024045e+002 8.884437e+001
         vertex 9.840965e+001 1.024045e+002 8.884437e+001
      endloop
   endfacet
   facet normal 1.224647e-016 0.000000e+000 1.000000e+000
      outer loop
         vertex 9.840965e+001 1.024045e+002 8.884437e+001
         vertex 2.340964e+001 4.024045e+002 8.884437e+001
         vertex 2.340964e+001 1.024045e+002 8.884437e+001
      endloop
   endfacet
   facet normal 1.000000e+000 0.000000e+000 -2.149833e-016
      outer loop
         vertex 9.840965e+001 4.024045e+002 1.384436e+001
         vertex 9.840965e+001 4.024045e+002 8.884437e+001
         vertex 9.840965e+001 1.024045e+002 1.384436e+001
      endloop
   endfacet
   facet normal 1.000000e+000 0.000000e+000 -2.149833e-016
      outer loop
         vertex 9.840965e+001 1.024045e+002 1.384436e+001
         vertex 9.840965e+001 4.024045e+002 8.884437e+001
         vertex 9.840965e+001 1.024045e+002 8.884437e+001
      endloop
   endfacet
   facet normal 0.000000e+000 -1.000000e+000 0.000000e+000
      outer loop
         vertex 8.590965e+001 1.024045e+002 2.634436e+001
         vertex 9.840965e+001 1.024045e+002 1.384436e+001
         vertex 9.840965e+001 1.024045e+002 8.884437e+001
      endloop
   endfacet
   facet normal 0.000000e+000 -1.000000e+000 0.000000e+000
      outer loop
         vertex 9.840965e+001 1.024045e+002 1.384436e+001
         vertex 8.590965e+001 1.024045e+002 2.634436e+001
         vertex 2.340964e+001 1.024045e+002 1.384436e+001
      endloop
   endfacet
   facet normal 0.000000e+000 -1.000000e+000 0.000000e+000
      outer loop
         vertex 2.340964e+001 1.024045e+002 1.384436e+001
         vertex 8.590965e+001 1.024045e+002 2.634436e+001
         vertex 3.590964e+001 1.024045e+002 2.634436e+001
      endloop
   endfacet
   facet normal 0.000000e+000 -1.000000e+000 0.000000e+000
      outer loop
         vertex 2.340964e+001 1.024045e+002 1.384436e+001
         vertex 3.590964e+001 1.024045e+002 2.634436e+001
         vertex 2.340964e+001 1.024045e+002 8.884437e+001
      endloop
   endfacet
   facet normal 0.000000e+000 -1.000000e+000 0.000000e+000
      outer loop
         vertex 2.340964e+001 1.024045e+002 8.884437e+001
         vertex 3.590964e+001 1.024045e+002 2.634436e+001
         vertex 3.590964e+001 1.024045e+002 7.634436e+001
      endloop
   endfacet
   facet normal 0.000000e+000 -1.000000e+000 0.000000e+000
      outer loop
         vertex 2.340964e+001 1.024045e+002 8.884437e+001
         vertex 3.590964e+001 1.024045e+002 7.634436e+001
         vertex 9.840965e+001 1.024045e+002 8.884437e+001
      endloop
   endfacet
   facet normal 0.000000e+000 -1.000000e+000 0.000000e+000
      outer loop
         vertex 9.840965e+001 1.024045e+002 8.884437e+001
         vertex 3.590964e+001 1.024045e+002 7.634436e+001
         vertex 8.590965e+001 1.024045e+002 7.634436e+001
      endloop
   endfacet
   facet normal 0.000000e+000 -1.000000e+000 0.000000e+000
      outer loop
         vertex 9.840965e+001 1.024045e+002 8.884437e+001
         vertex 8.590965e+001 1.024045e+002 7.634436e+001
         vertex 8.590965e+001 1.024045e+002 2.634436e+001
      endloop
   endfacet
   facet normal -1.224647e-016 -0.000000e+000 -1.000000e+000
      outer loop
         vertex 3.590964e+001 4.224045e+002 2.634436e+001
         vertex 8.590965e+001 4.224045e+002 2.634436e+001
         vertex 3.590964e+001 4.024045e+002 2.634436e+001
      endloop
   endfacet
   facet normal -1.224647e-016 -0.000000e+000 -1.000000e+000
      outer loop
         vertex 3.590964e+001 4.024045e+002 2.634436e+001
         vertex 8.590965e+001 4.224045e+002 2.634436e+001
         vertex 8.590965e+001 4.024045e+002 2.634436e+001
      endloop
   endfacet
   facet normal -1.000000e+000 -0.000000e+000 2.612426e-016
      outer loop
         vertex 3.590964e+001 4.224045e+002 7.634436e+001
         vertex 3.590964e+001 4.224045e+002 2.634436e+001
         vertex 3.590964e+001 4.024045e+002 7.634436e+001
      endloop
   endfacet
   facet normal -1.000000e+000 -0.000000e+000 2.612426e-016
      outer loop
         vertex 3.590964e+001 4.024045e+002 7.634436e+001
         vertex 3.590964e+001 4.224045e+002 2.634436e+001
         vertex 3.590964e+001 4.024045e+002 2.634436e+001
      endloop
   endfacet
   facet normal 1.224647e-016 0.000000e+000 1.000000e+000
      outer loop
         vertex 8.590965e+001 4.224045e+002 7.634436e+001
         vertex 3.590964e+001 4.224045e+002 7.634436e+001
         vertex 8.590965e+001 4.024045e+002 7.634436e+001
      endloop
   endfacet
   facet normal 1.224647e-016 0.000000e+000 1.000000e+000
      outer loop
         vertex 8.590965e+001 4.024045e+002 7.634436e+001
         vertex 3.590964e+001 4.224045e+002 7.634436e+001
         vertex 3.590964e+001 4.024045e+002 7.634436e+001
      endloop
   endfacet
   facet normal 1.000000e+000 0.000000e+000 -2.612426e-016
      outer loop
         vertex 8.590965e+001 4.224045e+002 2.634436e+001
         vertex 8.590965e+001 4.224045e+002 7.634436e+001
         vertex 8.590965e+001 4.024045e+002 2.634436e+001
      endloop
   endfacet
   facet normal 1.000000e+000 0.000000e+000 -2.612426e-016
      outer loop
         vertex 8.590965e+001 4.024045e+002 2.634436e+001
         vertex 8.590965e+001 4.224045e+002 7.634436e+001
         vertex 8.590965e+001 4.024045e+002 7.634436e+001
      endloop
   endfacet
   facet normal -0.000000e+000 1.000000e+000 -0.000000e+000
      outer loop
         vertex 3.590964e+001 4.224045e+002 7.634436e+001
         vertex 8.590965e+001 4.224045e+002 7.634436e+001
         vertex 3.590964e+001 4.224045e+002 2.634436e+001
      endloop
   endfacet
   facet normal -0.000000e+000 1.000000e+000 -0.000000e+000
      outer loop
         vertex 3.590964e+001 4.224045e+002 2.634436e+001
         vertex 8.590965e+001 4.224045e+002 7.634436e+001
         vertex 8.590965e+001 4.224045e+002 2.634436e+001
      endloop
   endfacet
   facet normal -1.224647e-016 -0.000000e+000 -1.000000e+000
      outer loop
         vertex 8.590965e+001 8.240447e+001 2.634436e+001
         vertex 3.590964e+001 8.240447e+001 2.634436e+001
         vertex 8.590965e+001 1.024045e+002 2.634436e+001
      endloop
   endfacet
   facet normal -1.224647e-016 -0.000000e+000 -1.000000e+000
      outer loop
         vertex 8.590965e+001 1.024045e+002 2.634436e+001
         vertex 3.590964e+001 8.240447e+001 2.634436e+001
         vertex 3.590964e+001 1.024045e+002 2.634436e+001
      endloop
   endfacet
   facet normal 1.000000e+000 0.000000e+000 -2.612426e-016
      outer loop
         vertex 8.590965e+001 8.240447e+001 7.634436e+001
         vertex 8.590965e+001 8.240447e+001 2.634436e+001
         vertex 8.590965e+001 1.024045e+002 7.634436e+001
      endloop
   endfacet
   facet normal 1.000000e+000 0.000000e+000 -2.612426e-016
      outer loop
         vertex 8.590965e+001 1.024045e+002 7.634436e+001
         vertex 8.590965e+001 8.240447e+001 2.634436e+001
         vertex 8.590965e+001 1.024045e+002 2.634436e+001
      endloop
   endfacet
   facet normal 1.224647e-016 0.000000e+000 1.000000e+000
      outer loop
         vertex 3.590964e+001 8.240447e+001 7.634436e+001
         vertex 8.590965e+001 8.240447e+001 7.634436e+001
         vertex 3.590964e+001 1.024045e+002 7.634436e+001
      endloop
   endfacet
   facet normal 1.224647e-016 0.000000e+000 1.000000e+000
      outer loop
         vertex 3.590964e+001 1.024045e+002 7.634436e+001
         vertex 8.590965e+001 8.240447e+001 7.634436e+001
         vertex 8.590965e+001 1.024045e+002 7.634436e+001
      endloop
   endfacet
   facet normal -1.000000e+000 -0.000000e+000 2.612426e-016
      outer loop
         vertex 3.590964e+001 8.240447e+001 2.634436e+001
         vertex 3.590964e+001 8.240447e+001 7.634436e+001
         vertex 3.590964e+001 1.024045e+002 2.634436e+001
      endloop
   endfacet
   facet normal -1.000000e+000 -0.000000e+000 2.612426e-016
      outer loop
         vertex 3.590964e+001 1.024045e+002 2.634436e+001
         vertex 3.590964e+001 8.240447e+001 7.634436e+001
         vertex 3.590964e+001 1.024045e+002 7.634436e+001
      endloop
   endfacet
   facet normal 0.000000e+000 -1.000000e+000 0.000000e+000
      outer loop
         vertex 8.590965e+001 8.240447e+001 7.634436e+001
         vertex 3.590964e+001 8.240447e+001 7.634436e+001
         vertex 8.590965e+001 8.240447e+001 2.634436e+001
      endloop
   endfacet
   facet normal 0.000000e+000 -1.000000e+000 0.000000e+000
      outer loop
         vertex 8.590965e+001 8.240447e+001 2.634436e+001
         vertex 3.590964e+001 8.240447e+001 7.634436e+001
         vertex 3.590964e+001 8.240447e+001 2.634436e+001
      endloop
   endfacet
endsolid