solid I - CDH0-1
   facet normal 0.000000e+000 1.000000e+000 0.000000e+000
      outer loop
         vertex 8.072196e+001 2.743012e+001 4.768316e+002
         vertex 1.057220e+002 2.743012e+001 4.768316e+002
         vertex 8.072196e+001 2.743012e+001 4.268316e+002
      endloop
   endfacet
   facet normal 0.000000e+000 1.000000e+000 0.000000e+000
      outer loop
         vertex 8.072196e+001 2.743012e+001 4.268316e+002
         vertex 1.057220e+002 2.743012e+001 4.768316e+002
         vertex 1.057220e+002 2.743012e+001 4.268316e+002
      endloop
   endfacet
   facet normal 0.000000e+000 1.000000e+000 0.000000e+000
      outer loop
         vertex 3.072196e+001 2.743012e+001 4.768316e+002
         vertex 3.072196e+001 2.743012e+001 5.018316e+002
         vertex 8.072196e+001 2.743012e+001 4.768316e+002
      endloop
   endfacet
   facet normal 0.000000e+000 1.000000e+000 0.000000e+000
      outer loop
         vertex 8.072196e+001 2.743012e+001 4.768316e+002
         vertex 3.072196e+001 2.743012e+001 5.018316e+002
         vertex 8.072196e+001 2.743012e+001 5.018316e+002
      endloop
   endfacet
   facet normal 0.000000e+000 1.000000e+000 0.000000e+000
      outer loop
         vertex 3.072196e+001 2.743012e+001 4.268316e+002
         vertex 5.721961e+000 2.743012e+001 4.268316e+002
         vertex 3.072196e+001 2.743012e+001 4.768316e+002
      endloop
   endfacet
   facet normal 0.000000e+000 1.000000e+000 0.000000e+000
      outer loop
         vertex 3.072196e+001 2.743012e+001 4.768316e+002
         vertex 5.721961e+000 2.743012e+001 4.268316e+002
         vertex 5.721961e+000 2.743012e+001 4.768316e+002
      endloop
   endfacet
   facet normal 0.000000e+000 -1.000000e+000 0.000000e+000
      outer loop
         vertex 8.072196e+001 7.743012e+001 4.268316e+002
         vertex 1.057220e+002 7.743012e+001 4.268316e+002
         vertex 8.072196e+001 7.743012e+001 4.768316e+002
      endloop
   endfacet
   facet normal 0.000000e+000 -1.000000e+000 0.000000e+000
      outer loop
         vertex 8.072196e+001 7.743012e+001 4.768316e+002
         vertex 1.057220e+002 7.743012e+001 4.268316e+002
         vertex 1.057220e+002 7.743012e+001 4.768316e+002
      endloop
   endfacet
   facet normal 0.000000e+000 -1.000000e+000 0.000000e+000
      outer loop
         vertex 8.072196e+001 7.743012e+001 4.768316e+002
         vertex 8.072196e+001 7.743012e+001 5.018316e+002
         vertex 3.072196e+001 7.743012e+001 4.768316e+002
      endloop
   endfacet
   facet normal 0.000000e+000 -1.000000e+000 0.000000e+000
      outer loop
         vertex 3.072196e+001 7.743012e+001 4.768316e+002
         vertex 8.072196e+001 7.743012e+001 5.018316e+002
         vertex 3.072196e+001 7.743012e+001 5.018316e+002
      endloop
   endfacet
   facet normal 0.000000e+000 -1.000000e+000 0.000000e+000
      outer loop
         vertex 3.072196e+001 7.743012e+001 4.768316e+002
         vertex 5.721961e+000 7.743012e+001 4.768316e+002
         vertex 3.072196e+001 7.743012e+001 4.268316e+002
      endloop
   endfacet
   facet normal 0.000000e+000 -1.000000e+000 0.000000e+000
      outer loop
         vertex 3.072196e+001 7.743012e+001 4.268316e+002
         vertex 5.721961e+000 7.743012e+001 4.768316e+002
         vertex 5.721961e+000 7.743012e+001 4.268316e+002
      endloop
   endfacet
   facet normal -1.000000e+000 0.000000e+000 0.000000e+000
      outer loop
         vertex 8.072196e+001 7.743012e+001 4.268316e+002
         vertex 8.072196e+001 7.743012e+001 4.018316e+002
         vertex 8.072196e+001 2.743012e+001 4.268316e+002
      endloop
   endfacet
   facet normal -1.000000e+000 0.000000e+000 0.000000e+000
      outer loop
         vertex 8.072196e+001 2.743012e+001 4.268316e+002
         vertex 8.072196e+001 7.743012e+001 4.018316e+002
         vertex 8.072196e+001 2.743012e+001 4.018316e+002
      endloop
   endfacet
   facet normal 1.000000e+000 0.000000e+000 0.000000e+000
      outer loop
         vertex 3.072196e+001 2.743012e+001 4.268316e+002
         vertex 3.072196e+001 2.743012e+001 4.018316e+002
         vertex 3.072196e+001 7.743012e+001 4.268316e+002
      endloop
   endfacet
   facet normal 1.000000e+000 0.000000e+000 0.000000e+000
      outer loop
         vertex 3.072196e+001 7.743012e+001 4.268316e+002
         vertex 3.072196e+001 2.743012e+001 4.018316e+002
         vertex 3.072196e+001 7.743012e+001 4.018316e+002
      endloop
   endfacet
   facet normal 1.000000e+000 0.000000e+000 0.000000e+000
      outer loop
         vertex 1.057220e+002 7.743012e+001 4.268316e+002
         vertex 1.057220e+002 1.024301e+002 4.018316e+002
         vertex 1.057220e+002 1.024301e+002 5.018316e+002
      endloop
   endfacet
   facet normal 1.000000e+000 0.000000e+000 0.000000e+000
      outer loop
         vertex 1.057220e+002 1.024301e+002 4.018316e+002
         vertex 1.057220e+002 7.743012e+001 4.268316e+002
         vertex 1.057220e+002 2.430123e+000 4.018316e+002
      endloop
   endfacet
   facet normal 1.000000e+000 0.000000e+000 0.000000e+000
      outer loop
         vertex 1.057220e+002 2.430123e+000 4.018316e+002
         vertex 1.057220e+002 7.743012e+001 4.268316e+002
         vertex 1.057220e+002 2.743012e+001 4.268316e+002
      endloop
   endfacet
   facet normal 1.000000e+000 0.000000e+000 0.000000e+000
      outer loop
         vertex 1.057220e+002 2.430123e+000 4.018316e+002
         vertex 1.057220e+002 2.743012e+001 4.268316e+002
         vertex 1.057220e+002 2.430123e+000 5.018316e+002
      endloop
   endfacet
   facet normal 1.000000e+000 0.000000e+000 0.000000e+000
      outer loop
         vertex 1.057220e+002 2.430123e+000 5.018316e+002
         vertex 1.057220e+002 2.743012e+001 4.268316e+002
         vertex 1.057220e+002 2.743012e+001 4.768316e+002
      endloop
   endfacet
   facet normal 1.000000e+000 0.000000e+000 0.000000e+000
      outer loop
         vertex 1.057220e+002 2.430123e+000 5.018316e+002
         vertex 1.057220e+002 2.743012e+001 4.768316e+002
         vertex 1.057220e+002 1.024301e+002 5.018316e+002
      endloop
   endfacet
   facet normal 1.000000e+000 0.000000e+000 0.000000e+000
      outer loop
         vertex 1.057220e+002 1.024301e+002 5.018316e+002
         vertex 1.057220e+002 2.743012e+001 4.768316e+002
         vertex 1.057220e+002 7.743012e+001 4.768316e+002
      endloop
   endfacet
   facet normal 1.000000e+000 0.000000e+000 0.000000e+000
      outer loop
         vertex 1.057220e+002 1.024301e+002 5.018316e+002
         vertex 1.057220e+002 7.743012e+001 4.768316e+002
         vertex 1.057220e+002 7.743012e+001 4.268316e+002
      endloop
   endfacet
   facet normal 0.000000e+000 1.000000e+000 0.000000e+000
      outer loop
         vertex 3.072196e+001 1.024301e+002 4.268316e+002
         vertex 5.721961e+000 1.024301e+002 4.018316e+002
         vertex 3.072196e+001 1.024301e+002 4.768316e+002
      endloop
   endfacet
   facet normal 0.000000e+000 1.000000e+000 0.000000e+000
      outer loop
         vertex 3.072196e+001 1.024301e+002 4.768316e+002
         vertex 5.721961e+000 1.024301e+002 4.018316e+002
         vertex 5.721961e+000 1.024301e+002 5.018316e+002
      endloop
   endfacet
   facet normal 0.000000e+000 1.000000e+000 0.000000e+000
      outer loop
         vertex 3.072196e+001 1.024301e+002 4.768316e+002
         vertex 5.721961e+000 1.024301e+002 5.018316e+002
         vertex 8.072196e+001 1.024301e+002 4.768316e+002
      endloop
   endfacet
   facet normal 0.000000e+000 1.000000e+000 0.000000e+000
      outer loop
         vertex 8.072196e+001 1.024301e+002 4.768316e+002
         vertex 5.721961e+000 1.024301e+002 5.018316e+002
         vertex 1.057220e+002 1.024301e+002 5.018316e+002
      endloop
   endfacet
   facet normal 0.000000e+000 1.000000e+000 0.000000e+000
      outer loop
         vertex 8.072196e+001 1.024301e+002 4.768316e+002
         vertex 1.057220e+002 1.024301e+002 5.018316e+002
         vertex 8.072196e+001 1.024301e+002 4.268316e+002
      endloop
   endfacet
   facet normal 0.000000e+000 1.000000e+000 0.000000e+000
      outer loop
         vertex 8.072196e+001 1.024301e+002 4.268316e+002
         vertex 1.057220e+002 1.024301e+002 5.018316e+002
         vertex 1.057220e+002 1.024301e+002 4.018316e+002
      endloop
   endfacet
   facet normal 0.000000e+000 1.000000e+000 0.000000e+000
      outer loop
         vertex 8.072196e+001 1.024301e+002 4.268316e+002
         vertex 1.057220e+002 1.024301e+002 4.018316e+002
         vertex 3.072196e+001 1.024301e+002 4.268316e+002
      endloop
   endfacet
   facet normal 0.000000e+000 1.000000e+000 0.000000e+000
      outer loop
         vertex 3.072196e+001 1.024301e+002 4.268316e+002
         vertex 1.057220e+002 1.024301e+002 4.018316e+002
         vertex 5.721961e+000 1.024301e+002 4.018316e+002
      endloop
   endfacet
   facet normal -1.000000e+000 0.000000e+000 0.000000e+000
      outer loop
         vertex 5.721961e+000 7.743012e+001 4.768316e+002
         vertex 5.721961e+000 1.024301e+002 5.018316e+002
         vertex 5.721961e+000 7.743012e+001 4.268316e+002
      endloop
   endfacet
   facet normal -1.000000e+000 0.000000e+000 0.000000e+000
      outer loop
         vertex 5.721961e+000 7.743012e+001 4.268316e+002
         vertex 5.721961e+000 1.024301e+002 5.018316e+002
         vertex 5.721961e+000 1.024301e+002 4.018316e+002
      endloop
   endfacet
   facet normal -1.000000e+000 0.000000e+000 0.000000e+000
      outer loop
         vertex 5.721961e+000 7.743012e+001 4.268316e+002
         vertex 5.721961e+000 1.024301e+002 4.018316e+002
         vertex 5.721961e+000 2.743012e+001 4.268316e+002
      endloop
   endfacet
   facet normal -1.000000e+000 0.000000e+000 0.000000e+000
      outer loop
         vertex 5.721961e+000 2.743012e+001 4.268316e+002
         vertex 5.721961e+000 1.024301e+002 4.018316e+002
         vertex 5.721961e+000 2.430123e+000 4.018316e+002
      endloop
   endfacet
   facet normal -1.000000e+000 0.000000e+000 0.000000e+000
      outer loop
         vertex 5.721961e+000 2.743012e+001 4.268316e+002
         vertex 5.721961e+000 2.430123e+000 4.018316e+002
         vertex 5.721961e+000 2.743012e+001 4.768316e+002
      endloop
   endfacet
   facet normal -1.000000e+000 0.000000e+000 0.000000e+000
      outer loop
         vertex 5.721961e+000 2.743012e+001 4.768316e+002
         vertex 5.721961e+000 2.430123e+000 4.018316e+002
         vertex 5.721961e+000 2.430123e+000 5.018316e+002
      endloop
   endfacet
   facet normal -1.000000e+000 0.000000e+000 0.000000e+000
      outer loop
         vertex 5.721961e+000 2.743012e+001 4.768316e+002
         vertex 5.721961e+000 2.430123e+000 5.018316e+002
         vertex 5.721961e+000 7.743012e+001 4.768316e+002
      endloop
   endfacet
   facet normal -1.000000e+000 0.000000e+000 0.000000e+000
      outer loop
         vertex 5.721961e+000 7.743012e+001 4.768316e+002
         vertex 5.721961e+000 2.430123e+000 5.018316e+002
         vertex 5.721961e+000 1.024301e+002 5.018316e+002
      endloop
   endfacet
   facet normal 0.000000e+000 -1.000000e+000 0.000000e+000
      outer loop
         vertex 3.072196e+001 2.430123e+000 4.768316e+002
         vertex 5.721961e+000 2.430123e+000 5.018316e+002
         vertex 3.072196e+001 2.430123e+000 4.268316e+002
      endloop
   endfacet
   facet normal 0.000000e+000 -1.000000e+000 0.000000e+000
      outer loop
         vertex 3.072196e+001 2.430123e+000 4.268316e+002
         vertex 5.721961e+000 2.430123e+000 5.018316e+002
         vertex 5.721961e+000 2.430123e+000 4.018316e+002
      endloop
   endfacet
   facet normal 0.000000e+000 -1.000000e+000 0.000000e+000
      outer loop
         vertex 3.072196e+001 2.430123e+000 4.268316e+002
         vertex 5.721961e+000 2.430123e+000 4.018316e+002
         vertex 8.072196e+001 2.430123e+000 4.268316e+002
      endloop
   endfacet
   facet normal 0.000000e+000 -1.000000e+000 0.000000e+000
      outer loop
         vertex 8.072196e+001 2.430123e+000 4.268316e+002
         vertex 5.721961e+000 2.430123e+000 4.018316e+002
         vertex 1.057220e+002 2.430123e+000 4.018316e+002
      endloop
   endfacet
   facet normal 0.000000e+000 -1.000000e+000 0.000000e+000
      outer loop
         vertex 8.072196e+001 2.430123e+000 4.268316e+002
         vertex 1.057220e+002 2.430123e+000 4.018316e+002
         vertex 8.072196e+001 2.430123e+000 4.768316e+002
      endloop
   endfacet
   facet normal 0.000000e+000 -1.000000e+000 0.000000e+000
      outer loop
         vertex 8.072196e+001 2.430123e+000 4.768316e+002
         vertex 1.057220e+002 2.430123e+000 4.018316e+002
         vertex 1.057220e+002 2.430123e+000 5.018316e+002
      endloop
   endfacet
   facet normal 0.000000e+000 -1.000000e+000 0.000000e+000
      outer loop
         vertex 8.072196e+001 2.430123e+000 4.768316e+002
         vertex 1.057220e+002 2.430123e+000 5.018316e+002
         vertex 3.072196e+001 2.430123e+000 4.768316e+002
      endloop
   endfacet
   facet normal 0.000000e+000 -1.000000e+000 0.000000e+000
      outer loop
         vertex 3.072196e+001 2.430123e+000 4.768316e+002
         vertex 1.057220e+002 2.430123e+000 5.018316e+002
         vertex 5.721961e+000 2.430123e+000 5.018316e+002
      endloop
   endfacet
   facet normal 0.000000e+000 0.000000e+000 1.000000e+000
      outer loop
         vertex 8.072196e+001 7.743012e+001 5.018316e+002
         vertex 1.057220e+002 1.024301e+002 5.018316e+002
         vertex 5.721961e+000 1.024301e+002 5.018316e+002
      endloop
   endfacet
   facet normal 0.000000e+000 0.000000e+000 1.000000e+000
      outer loop
         vertex 1.057220e+002 1.024301e+002 5.018316e+002
         vertex 8.072196e+001 7.743012e+001 5.018316e+002
         vertex 1.057220e+002 2.430123e+000 5.018316e+002
      endloop
   endfacet
   facet normal 0.000000e+000 0.000000e+000 1.000000e+000
      outer loop
         vertex 1.057220e+002 2.430123e+000 5.018316e+002
         vertex 8.072196e+001 7.743012e+001 5.018316e+002
         vertex 8.072196e+001 2.743012e+001 5.018316e+002
      endloop
   endfacet
   facet normal 0.000000e+000 0.000000e+000 1.000000e+000
      outer loop
         vertex 1.057220e+002 2.430123e+000 5.018316e+002
         vertex 8.072196e+001 2.743012e+001 5.018316e+002
         vertex 5.721961e+000 2.430123e+000 5.018316e+002
      endloop
   endfacet
   facet normal 0.000000e+000 0.000000e+000 1.000000e+000
      outer loop
         vertex 5.721961e+000 2.430123e+000 5.018316e+002
         vertex 8.072196e+001 2.743012e+001 5.018316e+002
         vertex 3.072196e+001 2.743012e+001 5.018316e+002
      endloop
   endfacet
   facet normal 0.000000e+000 0.000000e+000 1.000000e+000
      outer loop
         vertex 5.721961e+000 2.430123e+000 5.018316e+002
         vertex 3.072196e+001 2.743012e+001 5.018316e+002
         vertex 5.721961e+000 1.024301e+002 5.018316e+002
      endloop
   endfacet
   facet normal 0.000000e+000 0.000000e+000 1.000000e+000
      outer loop
         vertex 5.721961e+000 1.024301e+002 5.018316e+002
         vertex 3.072196e+001 2.743012e+001 5.018316e+002
         vertex 3.072196e+001 7.743012e+001 5.018316e+002
      endloop
   endfacet
   facet normal 0.000000e+000 0.000000e+000 1.000000e+000
      outer loop
         vertex 5.721961e+000 1.024301e+002 5.018316e+002
         vertex 3.072196e+001 7.743012e+001 5.018316e+002
         vertex 8.072196e+001 7.743012e+001 5.018316e+002
      endloop
   endfacet
   facet normal 0.000000e+000 0.000000e+000 -1.000000e+000
      outer loop
         vertex 8.072196e+001 2.743012e+001 4.018316e+002
         vertex 1.057220e+002 2.430123e+000 4.018316e+002
         vertex 3.072196e+001 2.743012e+001 4.018316e+002
      endloop
   endfacet
   facet normal 0.000000e+000 0.000000e+000 -1.000000e+000
      outer loop
         vertex 3.072196e+001 2.743012e+001 4.018316e+002
         vertex 1.057220e+002 2.430123e+000 4.018316e+002
         vertex 5.721961e+000 2.430123e+000 4.018316e+002
      endloop
   endfacet
   facet normal 0.000000e+000 0.000000e+000 -1.000000e+000
      outer loop
         vertex 3.072196e+001 2.743012e+001 4.018316e+002
         vertex 5.721961e+000 2.430123e+000 4.018316e+002
         vertex 3.072196e+001 7.743012e+001 4.018316e+002
      endloop
   endfacet
   facet normal 0.000000e+000 0.000000e+000 -1.000000e+000
      outer loop
         vertex 3.072196e+001 7.743012e+001 4.018316e+002
         vertex 5.721961e+000 2.430123e+000 4.018316e+002
         vertex 5.721961e+000 1.024301e+002 4.018316e+002
      endloop
   endfacet
   facet normal 0.000000e+000 0.000000e+000 -1.000000e+000
      outer loop
         vertex 3.072196e+001 7.743012e+001 4.018316e+002
         vertex 5.721961e+000 1.024301e+002 4.018316e+002
         vertex 8.072196e+001 7.743012e+001 4.018316e+002
      endloop
   endfacet
   facet normal 0.000000e+000 0.000000e+000 -1.000000e+000
      outer loop
         vertex 8.072196e+001 7.743012e+001 4.018316e+002
         vertex 5.721961e+000 1.024301e+002 4.018316e+002
         vertex 1.057220e+002 1.024301e+002 4.018316e+002
      endloop
   endfacet
   facet normal 0.000000e+000 0.000000e+000 -1.000000e+000
      outer loop
         vertex 8.072196e+001 7.743012e+001 4.018316e+002
         vertex 1.057220e+002 1.024301e+002 4.018316e+002
         vertex 8.072196e+001 2.743012e+001 4.018316e+002
      endloop
   endfacet
   facet normal 0.000000e+000 0.000000e+000 -1.000000e+000
      outer loop
         vertex 8.072196e+001 2.743012e+001 4.018316e+002
         vertex 1.057220e+002 1.024301e+002 4.018316e+002
         vertex 1.057220e+002 2.430123e+000 4.018316e+002
      endloop
   endfacet
   facet normal -1.000000e+000 0.000000e+000 0.000000e+000
      outer loop
         vertex 8.072196e+001 2.743012e+001 4.768316e+002
         vertex 8.072196e+001 2.743012e+001 5.018316e+002
         vertex 8.072196e+001 7.743012e+001 4.768316e+002
      endloop
   endfacet
   facet normal -1.000000e+000 0.000000e+000 0.000000e+000
      outer loop
         vertex 8.072196e+001 7.743012e+001 4.768316e+002
         vertex 8.072196e+001 2.743012e+001 5.018316e+002
         vertex 8.072196e+001 7.743012e+001 5.018316e+002
      endloop
   endfacet
   facet normal 0.000000e+000 1.000000e+000 0.000000e+000
      outer loop
         vertex 8.072196e+001 2.743012e+001 4.268316e+002
         vertex 8.072196e+001 2.743012e+001 4.018316e+002
         vertex 3.072196e+001 2.743012e+001 4.268316e+002
      endloop
   endfacet
   facet normal 0.000000e+000 1.000000e+000 0.000000e+000
      outer loop
         vertex 3.072196e+001 2.743012e+001 4.268316e+002
         vertex 8.072196e+001 2.743012e+001 4.018316e+002
         vertex 3.072196e+001 2.743012e+001 4.018316e+002
      endloop
   endfacet
   facet normal 1.000000e+000 0.000000e+000 0.000000e+000
      outer loop
         vertex 3.072196e+001 7.743012e+001 4.768316e+002
         vertex 3.072196e+001 7.743012e+001 5.018316e+002
         vertex 3.072196e+001 2.743012e+001 4.768316e+002
      endloop
   endfacet
   facet normal 1.000000e+000 0.000000e+000 0.000000e+000
      outer loop
         vertex 3.072196e+001 2.743012e+001 4.768316e+002
         vertex 3.072196e+001 7.743012e+001 5.018316e+002
         vertex 3.072196e+001 2.743012e+001 5.018316e+002
      endloop
   endfacet
   facet normal 0.000000e+000 -1.000000e+000 0.000000e+000
      outer loop
         vertex 3.072196e+001 7.743012e+001 4.268316e+002
         vertex 3.072196e+001 7.743012e+001 4.018316e+002
         vertex 8.072196e+001 7.743012e+001 4.268316e+002
      endloop
   endfacet
   facet normal 0.000000e+000 -1.000000e+000 0.000000e+000
      outer loop
         vertex 8.072196e+001 7.743012e+001 4.268316e+002
         vertex 3.072196e+001 7.743012e+001 4.018316e+002
         vertex 8.072196e+001 7.743012e+001 4.018316e+002
      endloop
   endfacet
   facet normal 0.000000e+000 -1.387779e-016 -1.000000e+000
      outer loop
         vertex 5.721961e+000 7.743012e+001 4.768316e+002
         vertex 3.072196e+001 7.743012e+001 4.768316e+002
         vertex 5.721961e+000 2.743012e+001 4.768316e+002
      endloop
   endfacet
   facet normal 0.000000e+000 -1.387779e-016 -1.000000e+000
      outer loop
         vertex 5.721961e+000 2.743012e+001 4.768316e+002
         vertex 3.072196e+001 7.743012e+001 4.768316e+002
         vertex 3.072196e+001 2.743012e+001 4.768316e+002
      endloop
   endfacet
   facet normal 0.000000e+000 1.387779e-016 1.000000e+000
      outer loop
         vertex 5.721961e+000 2.743012e+001 4.268316e+002
         vertex 3.072196e+001 2.743012e+001 4.268316e+002
         vertex 5.721961e+000 7.743012e+001 4.268316e+002
      endloop
   endfacet
   facet normal 0.000000e+000 1.387779e-016 1.000000e+000
      outer loop
         vertex 5.721961e+000 7.743012e+001 4.268316e+002
         vertex 3.072196e+001 2.743012e+001 4.268316e+002
         vertex 3.072196e+001 7.743012e+001 4.268316e+002
      endloop
   endfacet
   facet normal 0.000000e+000 1.387779e-016 1.000000e+000
      outer loop
         vertex 1.057220e+002 7.743012e+001 4.268316e+002
         vertex 8.072196e+001 7.743012e+001 4.268316e+002
         vertex 1.057220e+002 2.743012e+001 4.268316e+002
      endloop
   endfacet
   facet normal 0.000000e+000 1.387779e-016 1.000000e+000
      outer loop
         vertex 1.057220e+002 2.743012e+001 4.268316e+002
         vertex 8.072196e+001 7.743012e+001 4.268316e+002
         vertex 8.072196e+001 2.743012e+001 4.268316e+002
      endloop
   endfacet
   facet normal 0.000000e+000 -1.387779e-016 -1.000000e+000
      outer loop
         vertex 1.057220e+002 2.743012e+001 4.768316e+002
         vertex 8.072196e+001 2.743012e+001 4.768316e+002
         vertex 1.057220e+002 7.743012e+001 4.768316e+002
      endloop
   endfacet
   facet normal 0.000000e+000 -1.387779e-016 -1.000000e+000
      outer loop
         vertex 1.057220e+002 7.743012e+001 4.768316e+002
         vertex 8.072196e+001 2.743012e+001 4.768316e+002
         vertex 8.072196e+001 7.743012e+001 4.768316e+002
      endloop
   endfacet
   facet normal 0.000000e+000 0.000000e+000 1.000000e+000
      outer loop
         vertex 3.072196e+001 1.024301e+002 4.268316e+002
         vertex 3.072196e+001 7.743012e+001 4.268316e+002
         vertex 8.072196e+001 1.024301e+002 4.268316e+002
      endloop
   endfacet
   facet normal 0.000000e+000 0.000000e+000 1.000000e+000
      outer loop
         vertex 8.072196e+001 1.024301e+002 4.268316e+002
         vertex 3.072196e+001 7.743012e+001 4.268316e+002
         vertex 8.072196e+001 7.743012e+001 4.268316e+002
      endloop
   endfacet
   facet normal 1.000000e+000 0.000000e+000 0.000000e+000
      outer loop
         vertex 3.072196e+001 1.024301e+002 4.768316e+002
         vertex 3.072196e+001 7.743012e+001 4.768316e+002
         vertex 3.072196e+001 1.024301e+002 4.268316e+002
      endloop
   endfacet
   facet normal 1.000000e+000 0.000000e+000 0.000000e+000
      outer loop
         vertex 3.072196e+001 1.024301e+002 4.268316e+002
         vertex 3.072196e+001 7.743012e+001 4.768316e+002
         vertex 3.072196e+001 7.743012e+001 4.268316e+002
      endloop
   endfacet
   facet normal 0.000000e+000 0.000000e+000 -1.000000e+000
      outer loop
         vertex 8.072196e+001 1.024301e+002 4.768316e+002
         vertex 8.072196e+001 7.743012e+001 4.768316e+002
         vertex 3.072196e+001 1.024301e+002 4.768316e+002
      endloop
   endfacet
   facet normal 0.000000e+000 0.000000e+000 -1.000000e+000
      outer loop
         vertex 3.072196e+001 1.024301e+002 4.768316e+002
         vertex 8.072196e+001 7.743012e+001 4.768316e+002
         vertex 3.072196e+001 7.743012e+001 4.768316e+002
      endloop
   endfacet
   facet normal -1.000000e+000 0.000000e+000 0.000000e+000
      outer loop
         vertex 8.072196e+001 1.024301e+002 4.268316e+002
         vertex 8.072196e+001 7.743012e+001 4.268316e+002
         vertex 8.072196e+001 1.024301e+002 4.768316e+002
      endloop
   endfacet
   facet normal -1.000000e+000 0.000000e+000 0.000000e+000
      outer loop
         vertex 8.072196e+001 1.024301e+002 4.768316e+002
         vertex 8.072196e+001 7.743012e+001 4.268316e+002
         vertex 8.072196e+001 7.743012e+001 4.768316e+002
      endloop
   endfacet
   facet normal 0.000000e+000 0.000000e+000 -1.000000e+000
      outer loop
         vertex 3.072196e+001 2.430123e+000 4.768316e+002
         vertex 3.072196e+001 2.743012e+001 4.768316e+002
         vertex 8.072196e+001 2.430123e+000 4.768316e+002
      endloop
   endfacet
   facet normal 0.000000e+000 0.000000e+000 -1.000000e+000
      outer loop
         vertex 8.072196e+001 2.430123e+000 4.768316e+002
         vertex 3.072196e+001 2.743012e+001 4.768316e+002
         vertex 8.072196e+001 2.743012e+001 4.768316e+002
      endloop
   endfacet
   facet normal 0.000000e+000 0.000000e+000 1.000000e+000
      outer loop
         vertex 8.072196e+001 2.430123e+000 4.268316e+002
         vertex 8.072196e+001 2.743012e+001 4.268316e+002
         vertex 3.072196e+001 2.430123e+000 4.268316e+002
      endloop
   endfacet
   facet normal 0.000000e+000 0.000000e+000 1.000000e+000
      outer loop
         vertex 3.072196e+001 2.430123e+000 4.268316e+002
         vertex 8.072196e+001 2.743012e+001 4.268316e+002
         vertex 3.072196e+001 2.743012e+001 4.268316e+002
      endloop
   endfacet
   facet normal 1.000000e+000 0.000000e+000 0.000000e+000
      outer loop
         vertex 3.072196e+001 2.430123e+000 4.268316e+002
         vertex 3.072196e+001 2.743012e+001 4.268316e+002
         vertex 3.072196e+001 2.430123e+000 4.768316e+002
      endloop
   endfacet
   facet normal 1.000000e+000 0.000000e+000 0.000000e+000
      outer loop
         vertex 3.072196e+001 2.430123e+000 4.768316e+002
         vertex 3.072196e+001 2.743012e+001 4.268316e+002
         vertex 3.072196e+001 2.743012e+001 4.768316e+002
      endloop
   endfacet
   facet normal -1.000000e+000 0.000000e+000 0.000000e+000
      outer loop
         vertex 8.072196e+001 2.430123e+000 4.768316e+002
         vertex 8.072196e+001 2.743012e+001 4.768316e+002
         vertex 8.072196e+001 2.430123e+000 4.268316e+002
      endloop
   endfacet
   facet normal -1.000000e+000 0.000000e+000 0.000000e+000
      outer loop
         vertex 8.072196e+001 2.430123e+000 4.268316e+002
         vertex 8.072196e+001 2.743012e+001 4.768316e+002
         vertex 8.072196e+001 2.743012e+001 4.268316e+002
      endloop
   endfacet
endsolid