solid I - J0-1
   facet normal 0.000000e+000 1.000000e+000 0.000000e+000
      outer loop
         vertex 4.307220e+002 4.024301e+002 2.683158e+001
         vertex 4.182220e+002 4.024301e+002 1.433158e+001
         vertex 4.307220e+002 4.024301e+002 7.683158e+001
      endloop
   endfacet
   facet normal 0.000000e+000 1.000000e+000 0.000000e+000
      outer loop
         vertex 4.307220e+002 4.024301e+002 7.683158e+001
         vertex 4.182220e+002 4.024301e+002 1.433158e+001
         vertex 4.182220e+002 4.024301e+002 8.933158e+001
      endloop
   endfacet
   facet normal 0.000000e+000 1.000000e+000 0.000000e+000
      outer loop
         vertex 4.307220e+002 4.024301e+002 7.683158e+001
         vertex 4.182220e+002 4.024301e+002 8.933158e+001
         vertex 4.807220e+002 4.024301e+002 7.683158e+001
      endloop
   endfacet
   facet normal 0.000000e+000 1.000000e+000 0.000000e+000
      outer loop
         vertex 4.807220e+002 4.024301e+002 7.683158e+001
         vertex 4.182220e+002 4.024301e+002 8.933158e+001
         vertex 4.932220e+002 4.024301e+002 8.933158e+001
      endloop
   endfacet
   facet normal 0.000000e+000 1.000000e+000 0.000000e+000
      outer loop
         vertex 4.807220e+002 4.024301e+002 7.683158e+001
         vertex 4.932220e+002 4.024301e+002 8.933158e+001
         vertex 4.807220e+002 4.024301e+002 2.683158e+001
      endloop
   endfacet
   facet normal 0.000000e+000 1.000000e+000 0.000000e+000
      outer loop
         vertex 4.807220e+002 4.024301e+002 2.683158e+001
         vertex 4.932220e+002 4.024301e+002 8.933158e+001
         vertex 4.932220e+002 4.024301e+002 1.433158e+001
      endloop
   endfacet
   facet normal 0.000000e+000 1.000000e+000 0.000000e+000
      outer loop
         vertex 4.807220e+002 4.024301e+002 2.683158e+001
         vertex 4.932220e+002 4.024301e+002 1.433158e+001
         vertex 4.307220e+002 4.024301e+002 2.683158e+001
      endloop
   endfacet
   facet normal 0.000000e+000 1.000000e+000 0.000000e+000
      outer loop
         vertex 4.307220e+002 4.024301e+002 2.683158e+001
         vertex 4.932220e+002 4.024301e+002 1.433158e+001
         vertex 4.182220e+002 4.024301e+002 1.433158e+001
      endloop
   endfacet
   facet normal -1.000000e+000 0.000000e+000 0.000000e+000
      outer loop
         vertex 4.182220e+002 4.024301e+002 8.933158e+001
         vertex 4.182220e+002 4.024301e+002 1.433158e+001
         vertex 4.182220e+002 1.024301e+002 8.933158e+001
      endloop
   endfacet
   facet normal -1.000000e+000 0.000000e+000 0.000000e+000
      outer loop
         vertex 4.182220e+002 1.024301e+002 8.933158e+001
         vertex 4.182220e+002 4.024301e+002 1.433158e+001
         vertex 4.182220e+002 1.024301e+002 1.433158e+001
      endloop
   endfacet
   facet normal 0.000000e+000 0.000000e+000 1.000000e+000
      outer loop
         vertex 4.932220e+002 4.024301e+002 8.933158e+001
         vertex 4.182220e+002 4.024301e+002 8.933158e+001
         vertex 4.932220e+002 1.024301e+002 8.933158e+001
      endloop
   endfacet
   facet normal 0.000000e+000 0.000000e+000 1.000000e+000
      outer loop
         vertex 4.932220e+002 1.024301e+002 8.933158e+001
         vertex 4.182220e+002 4.024301e+002 8.933158e+001
         vertex 4.182220e+002 1.024301e+002 8.933158e+001
      endloop
   endfacet
   facet normal 1.000000e+000 0.000000e+000 0.000000e+000
      outer loop
         vertex 4.932220e+002 4.024301e+002 1.433158e+001
         vertex 4.932220e+002 4.024301e+002 8.933158e+001
         vertex 4.932220e+002 1.024301e+002 1.433158e+001
      endloop
   endfacet
   facet normal 1.000000e+000 0.000000e+000 0.000000e+000
      outer loop
         vertex 4.932220e+002 1.024301e+002 1.433158e+001
         vertex 4.932220e+002 4.024301e+002 8.933158e+001
         vertex 4.932220e+002 1.024301e+002 8.933158e+001
      endloop
   endfacet
   facet normal -9.251858e-017 0.000000e+000 -1.000000e+000
      outer loop
         vertex 4.182220e+002 4.024301e+002 1.433158e+001
         vertex 4.932220e+002 4.024301e+002 1.433158e+001
         vertex 4.182220e+002 1.024301e+002 1.433158e+001
      endloop
   endfacet
   facet normal -9.251858e-017 0.000000e+000 -1.000000e+000
      outer loop
         vertex 4.182220e+002 1.024301e+002 1.433158e+001
         vertex 4.932220e+002 4.024301e+002 1.433158e+001
         vertex 4.932220e+002 1.024301e+002 1.433158e+001
      endloop
   endfacet
   facet normal 0.000000e+000 -1.000000e+000 0.000000e+000
      outer loop
         vertex 4.307220e+002 1.024301e+002 2.683158e+001
         vertex 4.182220e+002 1.024301e+002 1.433158e+001
         vertex 4.932220e+002 1.024301e+002 1.433158e+001
      endloop
   endfacet
   facet normal 0.000000e+000 -1.000000e+000 0.000000e+000
      outer loop
         vertex 4.182220e+002 1.024301e+002 1.433158e+001
         vertex 4.307220e+002 1.024301e+002 2.683158e+001
         vertex 4.182220e+002 1.024301e+002 8.933158e+001
      endloop
   endfacet
   facet normal 0.000000e+000 -1.000000e+000 0.000000e+000
      outer loop
         vertex 4.182220e+002 1.024301e+002 8.933158e+001
         vertex 4.307220e+002 1.024301e+002 2.683158e+001
         vertex 4.307220e+002 1.024301e+002 7.683158e+001
      endloop
   endfacet
   facet normal 0.000000e+000 -1.000000e+000 0.000000e+000
      outer loop
         vertex 4.182220e+002 1.024301e+002 8.933158e+001
         vertex 4.307220e+002 1.024301e+002 7.683158e+001
         vertex 4.932220e+002 1.024301e+002 8.933158e+001
      endloop
   endfacet
   facet normal 0.000000e+000 -1.000000e+000 0.000000e+000
      outer loop
         vertex 4.932220e+002 1.024301e+002 8.933158e+001
         vertex 4.307220e+002 1.024301e+002 7.683158e+001
         vertex 4.807220e+002 1.024301e+002 7.683158e+001
      endloop
   endfacet
   facet normal 0.000000e+000 -1.000000e+000 0.000000e+000
      outer loop
         vertex 4.932220e+002 1.024301e+002 8.933158e+001
         vertex 4.807220e+002 1.024301e+002 7.683158e+001
         vertex 4.932220e+002 1.024301e+002 1.433158e+001
      endloop
   endfacet
   facet normal 0.000000e+000 -1.000000e+000 0.000000e+000
      outer loop
         vertex 4.932220e+002 1.024301e+002 1.433158e+001
         vertex 4.807220e+002 1.024301e+002 7.683158e+001
         vertex 4.807220e+002 1.024301e+002 2.683158e+001
      endloop
   endfacet
   facet normal 0.000000e+000 -1.000000e+000 0.000000e+000
      outer loop
         vertex 4.932220e+002 1.024301e+002 1.433158e+001
         vertex 4.807220e+002 1.024301e+002 2.683158e+001
         vertex 4.307220e+002 1.024301e+002 2.683158e+001
      endloop
   endfacet
   facet normal -1.000000e+000 0.000000e+000 0.000000e+000
      outer loop
         vertex 4.307220e+002 4.224301e+002 7.683158e+001
         vertex 4.307220e+002 4.224301e+002 2.683158e+001
         vertex 4.307220e+002 4.024301e+002 7.683158e+001
      endloop
   endfacet
   facet normal -1.000000e+000 0.000000e+000 0.000000e+000
      outer loop
         vertex 4.307220e+002 4.024301e+002 7.683158e+001
         vertex 4.307220e+002 4.224301e+002 2.683158e+001
         vertex 4.307220e+002 4.024301e+002 2.683158e+001
      endloop
   endfacet
   facet normal 1.387779e-016 0.000000e+000 1.000000e+000
      outer loop
         vertex 4.807220e+002 4.224301e+002 7.683158e+001
         vertex 4.307220e+002 4.224301e+002 7.683158e+001
         vertex 4.807220e+002 4.024301e+002 7.683158e+001
      endloop
   endfacet
   facet normal 1.387779e-016 0.000000e+000 1.000000e+000
      outer loop
         vertex 4.807220e+002 4.024301e+002 7.683158e+001
         vertex 4.307220e+002 4.224301e+002 7.683158e+001
         vertex 4.307220e+002 4.024301e+002 7.683158e+001
      endloop
   endfacet
   facet normal 1.000000e+000 0.000000e+000 0.000000e+000
      outer loop
         vertex 4.807220e+002 4.224301e+002 2.683158e+001
         vertex 4.807220e+002 4.224301e+002 7.683158e+001
         vertex 4.807220e+002 4.024301e+002 2.683158e+001
      endloop
   endfacet
   facet normal 1.000000e+000 0.000000e+000 0.000000e+000
      outer loop
         vertex 4.807220e+002 4.024301e+002 2.683158e+001
         vertex 4.807220e+002 4.224301e+002 7.683158e+001
         vertex 4.807220e+002 4.024301e+002 7.683158e+001
      endloop
   endfacet
   facet normal -1.387779e-016 0.000000e+000 -1.000000e+000
      outer loop
         vertex 4.307220e+002 4.224301e+002 2.683158e+001
         vertex 4.807220e+002 4.224301e+002 2.683158e+001
         vertex 4.307220e+002 4.024301e+002 2.683158e+001
      endloop
   endfacet
   facet normal -1.387779e-016 0.000000e+000 -1.000000e+000
      outer loop
         vertex 4.307220e+002 4.024301e+002 2.683158e+001
         vertex 4.807220e+002 4.224301e+002 2.683158e+001
         vertex 4.807220e+002 4.024301e+002 2.683158e+001
      endloop
   endfacet
   facet normal 0.000000e+000 1.000000e+000 0.000000e+000
      outer loop
         vertex 4.807220e+002 4.224301e+002 7.683158e+001
         vertex 4.807220e+002 4.224301e+002 2.683158e+001
         vertex 4.307220e+002 4.224301e+002 7.683158e+001
      endloop
   endfacet
   facet normal 0.000000e+000 1.000000e+000 0.000000e+000
      outer loop
         vertex 4.307220e+002 4.224301e+002 7.683158e+001
         vertex 4.807220e+002 4.224301e+002 2.683158e+001
         vertex 4.307220e+002 4.224301e+002 2.683158e+001
      endloop
   endfacet
   facet normal -1.000000e+000 0.000000e+000 0.000000e+000
      outer loop
         vertex 4.307220e+002 8.243012e+001 2.683158e+001
         vertex 4.307220e+002 8.243012e+001 7.683158e+001
         vertex 4.307220e+002 1.024301e+002 2.683158e+001
      endloop
   endfacet
   facet normal -1.000000e+000 0.000000e+000 0.000000e+000
      outer loop
         vertex 4.307220e+002 1.024301e+002 2.683158e+001
         vertex 4.307220e+002 8.243012e+001 7.683158e+001
         vertex 4.307220e+002 1.024301e+002 7.683158e+001
      endloop
   endfacet
   facet normal -1.387779e-016 0.000000e+000 -1.000000e+000
      outer loop
         vertex 4.807220e+002 8.243012e+001 2.683158e+001
         vertex 4.307220e+002 8.243012e+001 2.683158e+001
         vertex 4.807220e+002 1.024301e+002 2.683158e+001
      endloop
   endfacet
   facet normal -1.387779e-016 0.000000e+000 -1.000000e+000
      outer loop
         vertex 4.807220e+002 1.024301e+002 2.683158e+001
         vertex 4.307220e+002 8.243012e+001 2.683158e+001
         vertex 4.307220e+002 1.024301e+002 2.683158e+001
      endloop
   endfacet
   facet normal 1.000000e+000 0.000000e+000 0.000000e+000
      outer loop
         vertex 4.807220e+002 8.243012e+001 7.683158e+001
         vertex 4.807220e+002 8.243012e+001 2.683158e+001
         vertex 4.807220e+002 1.024301e+002 7.683158e+001
      endloop
   endfacet
   facet normal 1.000000e+000 0.000000e+000 0.000000e+000
      outer loop
         vertex 4.807220e+002 1.024301e+002 7.683158e+001
         vertex 4.807220e+002 8.243012e+001 2.683158e+001
         vertex 4.807220e+002 1.024301e+002 2.683158e+001
      endloop
   endfacet
   facet normal 1.387779e-016 0.000000e+000 1.000000e+000
      outer loop
         vertex 4.307220e+002 8.243012e+001 7.683158e+001
         vertex 4.807220e+002 8.243012e+001 7.683158e+001
         vertex 4.307220e+002 1.024301e+002 7.683158e+001
      endloop
   endfacet
   facet normal 1.387779e-016 0.000000e+000 1.000000e+000
      outer loop
         vertex 4.307220e+002 1.024301e+002 7.683158e+001
         vertex 4.807220e+002 8.243012e+001 7.683158e+001
         vertex 4.807220e+002 1.024301e+002 7.683158e+001
      endloop
   endfacet
   facet normal 0.000000e+000 -1.000000e+000 0.000000e+000
      outer loop
         vertex 4.807220e+002 8.243012e+001 2.683158e+001
         vertex 4.807220e+002 8.243012e+001 7.683158e+001
         vertex 4.307220e+002 8.243012e+001 2.683158e+001
      endloop
   endfacet
   facet normal 0.000000e+000 -1.000000e+000 0.000000e+000
      outer loop
         vertex 4.307220e+002 8.243012e+001 2.683158e+001
         vertex 4.807220e+002 8.243012e+001 7.683158e+001
         vertex 4.307220e+002 8.243012e+001 7.683158e+001
      endloop
   endfacet
endsolid