solid I - E0-1
   facet normal 0.000000e+000 0.000000e+000 1.000000e+000
      outer loop
         vertex 3.072196e+001 4.774301e+002 4.018316e+002
         vertex 1.822196e+001 4.899301e+002 4.018316e+002
         vertex 3.072196e+001 4.274301e+002 4.018316e+002
      endloop
   endfacet
   facet normal 0.000000e+000 0.000000e+000 1.000000e+000
      outer loop
         vertex 3.072196e+001 4.274301e+002 4.018316e+002
         vertex 1.822196e+001 4.899301e+002 4.018316e+002
         vertex 1.822196e+001 4.149301e+002 4.018316e+002
      endloop
   endfacet
   facet normal 0.000000e+000 0.000000e+000 1.000000e+000
      outer loop
         vertex 3.072196e+001 4.274301e+002 4.018316e+002
         vertex 1.822196e+001 4.149301e+002 4.018316e+002
         vertex 8.072196e+001 4.274301e+002 4.018316e+002
      endloop
   endfacet
   facet normal 0.000000e+000 0.000000e+000 1.000000e+000
      outer loop
         vertex 8.072196e+001 4.274301e+002 4.018316e+002
         vertex 1.822196e+001 4.149301e+002 4.018316e+002
         vertex 9.322196e+001 4.149301e+002 4.018316e+002
      endloop
   endfacet
   facet normal 0.000000e+000 0.000000e+000 1.000000e+000
      outer loop
         vertex 8.072196e+001 4.274301e+002 4.018316e+002
         vertex 9.322196e+001 4.149301e+002 4.018316e+002
         vertex 8.072196e+001 4.774301e+002 4.018316e+002
      endloop
   endfacet
   facet normal 0.000000e+000 0.000000e+000 1.000000e+000
      outer loop
         vertex 8.072196e+001 4.774301e+002 4.018316e+002
         vertex 9.322196e+001 4.149301e+002 4.018316e+002
         vertex 9.322196e+001 4.899301e+002 4.018316e+002
      endloop
   endfacet
   facet normal 0.000000e+000 0.000000e+000 1.000000e+000
      outer loop
         vertex 8.072196e+001 4.774301e+002 4.018316e+002
         vertex 9.322196e+001 4.899301e+002 4.018316e+002
         vertex 3.072196e+001 4.774301e+002 4.018316e+002
      endloop
   endfacet
   facet normal 0.000000e+000 0.000000e+000 1.000000e+000
      outer loop
         vertex 3.072196e+001 4.774301e+002 4.018316e+002
         vertex 9.322196e+001 4.899301e+002 4.018316e+002
         vertex 1.822196e+001 4.899301e+002 4.018316e+002
      endloop
   endfacet
   facet normal -1.000000e+000 0.000000e+000 0.000000e+000
      outer loop
         vertex 1.822196e+001 4.149301e+002 4.018316e+002
         vertex 1.822196e+001 4.899301e+002 4.018316e+002
         vertex 1.822196e+001 4.149301e+002 1.018316e+002
      endloop
   endfacet
   facet normal -1.000000e+000 0.000000e+000 0.000000e+000
      outer loop
         vertex 1.822196e+001 4.149301e+002 1.018316e+002
         vertex 1.822196e+001 4.899301e+002 4.018316e+002
         vertex 1.822196e+001 4.899301e+002 1.018316e+002
      endloop
   endfacet
   facet normal 0.000000e+000 -1.000000e+000 0.000000e+000
      outer loop
         vertex 9.322196e+001 4.149301e+002 4.018316e+002
         vertex 1.822196e+001 4.149301e+002 4.018316e+002
         vertex 9.322196e+001 4.149301e+002 1.018316e+002
      endloop
   endfacet
   facet normal 0.000000e+000 -1.000000e+000 0.000000e+000
      outer loop
         vertex 9.322196e+001 4.149301e+002 1.018316e+002
         vertex 1.822196e+001 4.149301e+002 4.018316e+002
         vertex 1.822196e+001 4.149301e+002 1.018316e+002
      endloop
   endfacet
   facet normal 1.000000e+000 0.000000e+000 0.000000e+000
      outer loop
         vertex 9.322196e+001 4.899301e+002 4.018316e+002
         vertex 9.322196e+001 4.149301e+002 4.018316e+002
         vertex 9.322196e+001 4.899301e+002 1.018316e+002
      endloop
   endfacet
   facet normal 1.000000e+000 0.000000e+000 0.000000e+000
      outer loop
         vertex 9.322196e+001 4.899301e+002 1.018316e+002
         vertex 9.322196e+001 4.149301e+002 4.018316e+002
         vertex 9.322196e+001 4.149301e+002 1.018316e+002
      endloop
   endfacet
   facet normal -9.251858e-017 1.000000e+000 0.000000e+000
      outer loop
         vertex 1.822196e+001 4.899301e+002 4.018316e+002
         vertex 9.322196e+001 4.899301e+002 4.018316e+002
         vertex 1.822196e+001 4.899301e+002 1.018316e+002
      endloop
   endfacet
   facet normal -9.251858e-017 1.000000e+000 0.000000e+000
      outer loop
         vertex 1.822196e+001 4.899301e+002 1.018316e+002
         vertex 9.322196e+001 4.899301e+002 4.018316e+002
         vertex 9.322196e+001 4.899301e+002 1.018316e+002
      endloop
   endfacet
   facet normal 0.000000e+000 0.000000e+000 -1.000000e+000
      outer loop
         vertex 3.072196e+001 4.774301e+002 1.018316e+002
         vertex 1.822196e+001 4.899301e+002 1.018316e+002
         vertex 9.322196e+001 4.899301e+002 1.018316e+002
      endloop
   endfacet
   facet normal 0.000000e+000 0.000000e+000 -1.000000e+000
      outer loop
         vertex 1.822196e+001 4.899301e+002 1.018316e+002
         vertex 3.072196e+001 4.774301e+002 1.018316e+002
         vertex 1.822196e+001 4.149301e+002 1.018316e+002
      endloop
   endfacet
   facet normal 0.000000e+000 0.000000e+000 -1.000000e+000
      outer loop
         vertex 1.822196e+001 4.149301e+002 1.018316e+002
         vertex 3.072196e+001 4.774301e+002 1.018316e+002
         vertex 3.072196e+001 4.274301e+002 1.018316e+002
      endloop
   endfacet
   facet normal 0.000000e+000 0.000000e+000 -1.000000e+000
      outer loop
         vertex 1.822196e+001 4.149301e+002 1.018316e+002
         vertex 3.072196e+001 4.274301e+002 1.018316e+002
         vertex 9.322196e+001 4.149301e+002 1.018316e+002
      endloop
   endfacet
   facet normal 0.000000e+000 0.000000e+000 -1.000000e+000
      outer loop
         vertex 9.322196e+001 4.149301e+002 1.018316e+002
         vertex 3.072196e+001 4.274301e+002 1.018316e+002
         vertex 8.072196e+001 4.274301e+002 1.018316e+002
      endloop
   endfacet
   facet normal 0.000000e+000 0.000000e+000 -1.000000e+000
      outer loop
         vertex 9.322196e+001 4.149301e+002 1.018316e+002
         vertex 8.072196e+001 4.274301e+002 1.018316e+002
         vertex 9.322196e+001 4.899301e+002 1.018316e+002
      endloop
   endfacet
   facet normal 0.000000e+000 0.000000e+000 -1.000000e+000
      outer loop
         vertex 9.322196e+001 4.899301e+002 1.018316e+002
         vertex 8.072196e+001 4.274301e+002 1.018316e+002
         vertex 8.072196e+001 4.774301e+002 1.018316e+002
      endloop
   endfacet
   facet normal 0.000000e+000 0.000000e+000 -1.000000e+000
      outer loop
         vertex 9.322196e+001 4.899301e+002 1.018316e+002
         vertex 8.072196e+001 4.774301e+002 1.018316e+002
         vertex 3.072196e+001 4.774301e+002 1.018316e+002
      endloop
   endfacet
   facet normal -1.000000e+000 0.000000e+000 0.000000e+000
      outer loop
         vertex 3.072196e+001 4.274301e+002 4.218316e+002
         vertex 3.072196e+001 4.774301e+002 4.218316e+002
         vertex 3.072196e+001 4.274301e+002 4.018316e+002
      endloop
   endfacet
   facet normal -1.000000e+000 0.000000e+000 0.000000e+000
      outer loop
         vertex 3.072196e+001 4.274301e+002 4.018316e+002
         vertex 3.072196e+001 4.774301e+002 4.218316e+002
         vertex 3.072196e+001 4.774301e+002 4.018316e+002
      endloop
   endfacet
   facet normal 1.387779e-016 -1.000000e+000 0.000000e+000
      outer loop
         vertex 8.072196e+001 4.274301e+002 4.218316e+002
         vertex 3.072196e+001 4.274301e+002 4.218316e+002
         vertex 8.072196e+001 4.274301e+002 4.018316e+002
      endloop
   endfacet
   facet normal 1.387779e-016 -1.000000e+000 0.000000e+000
      outer loop
         vertex 8.072196e+001 4.274301e+002 4.018316e+002
         vertex 3.072196e+001 4.274301e+002 4.218316e+002
         vertex 3.072196e+001 4.274301e+002 4.018316e+002
      endloop
   endfacet
   facet normal 1.000000e+000 0.000000e+000 0.000000e+000
      outer loop
         vertex 8.072196e+001 4.774301e+002 4.218316e+002
         vertex 8.072196e+001 4.274301e+002 4.218316e+002
         vertex 8.072196e+001 4.774301e+002 4.018316e+002
      endloop
   endfacet
   facet normal 1.000000e+000 0.000000e+000 0.000000e+000
      outer loop
         vertex 8.072196e+001 4.774301e+002 4.018316e+002
         vertex 8.072196e+001 4.274301e+002 4.218316e+002
         vertex 8.072196e+001 4.274301e+002 4.018316e+002
      endloop
   endfacet
   facet normal -1.387779e-016 1.000000e+000 0.000000e+000
      outer loop
         vertex 3.072196e+001 4.774301e+002 4.218316e+002
         vertex 8.072196e+001 4.774301e+002 4.218316e+002
         vertex 3.072196e+001 4.774301e+002 4.018316e+002
      endloop
   endfacet
   facet normal -1.387779e-016 1.000000e+000 0.000000e+000
      outer loop
         vertex 3.072196e+001 4.774301e+002 4.018316e+002
         vertex 8.072196e+001 4.774301e+002 4.218316e+002
         vertex 8.072196e+001 4.774301e+002 4.018316e+002
      endloop
   endfacet
   facet normal 0.000000e+000 0.000000e+000 1.000000e+000
      outer loop
         vertex 8.072196e+001 4.274301e+002 4.218316e+002
         vertex 8.072196e+001 4.774301e+002 4.218316e+002
         vertex 3.072196e+001 4.274301e+002 4.218316e+002
      endloop
   endfacet
   facet normal 0.000000e+000 0.000000e+000 1.000000e+000
      outer loop
         vertex 3.072196e+001 4.274301e+002 4.218316e+002
         vertex 8.072196e+001 4.774301e+002 4.218316e+002
         vertex 3.072196e+001 4.774301e+002 4.218316e+002
      endloop
   endfacet
   facet normal -1.000000e+000 0.000000e+000 0.000000e+000
      outer loop
         vertex 3.072196e+001 4.774301e+002 8.183157e+001
         vertex 3.072196e+001 4.274301e+002 8.183157e+001
         vertex 3.072196e+001 4.774301e+002 1.018316e+002
      endloop
   endfacet
   facet normal -1.000000e+000 0.000000e+000 0.000000e+000
      outer loop
         vertex 3.072196e+001 4.774301e+002 1.018316e+002
         vertex 3.072196e+001 4.274301e+002 8.183157e+001
         vertex 3.072196e+001 4.274301e+002 1.018316e+002
      endloop
   endfacet
   facet normal -1.387779e-016 1.000000e+000 0.000000e+000
      outer loop
         vertex 8.072196e+001 4.774301e+002 8.183157e+001
         vertex 3.072196e+001 4.774301e+002 8.183157e+001
         vertex 8.072196e+001 4.774301e+002 1.018316e+002
      endloop
   endfacet
   facet normal -1.387779e-016 1.000000e+000 0.000000e+000
      outer loop
         vertex 8.072196e+001 4.774301e+002 1.018316e+002
         vertex 3.072196e+001 4.774301e+002 8.183157e+001
         vertex 3.072196e+001 4.774301e+002 1.018316e+002
      endloop
   endfacet
   facet normal 1.000000e+000 0.000000e+000 0.000000e+000
      outer loop
         vertex 8.072196e+001 4.274301e+002 8.183157e+001
         vertex 8.072196e+001 4.774301e+002 8.183157e+001
         vertex 8.072196e+001 4.274301e+002 1.018316e+002
      endloop
   endfacet
   facet normal 1.000000e+000 0.000000e+000 0.000000e+000
      outer loop
         vertex 8.072196e+001 4.274301e+002 1.018316e+002
         vertex 8.072196e+001 4.774301e+002 8.183157e+001
         vertex 8.072196e+001 4.774301e+002 1.018316e+002
      endloop
   endfacet
   facet normal 1.387779e-016 -1.000000e+000 0.000000e+000
      outer loop
         vertex 3.072196e+001 4.274301e+002 8.183157e+001
         vertex 8.072196e+001 4.274301e+002 8.183157e+001
         vertex 3.072196e+001 4.274301e+002 1.018316e+002
      endloop
   endfacet
   facet normal 1.387779e-016 -1.000000e+000 0.000000e+000
      outer loop
         vertex 3.072196e+001 4.274301e+002 1.018316e+002
         vertex 8.072196e+001 4.274301e+002 8.183157e+001
         vertex 8.072196e+001 4.274301e+002 1.018316e+002
      endloop
   endfacet
   facet normal 0.000000e+000 0.000000e+000 -1.000000e+000
      outer loop
         vertex 8.072196e+001 4.774301e+002 8.183157e+001
         vertex 8.072196e+001 4.274301e+002 8.183157e+001
         vertex 3.072196e+001 4.774301e+002 8.183157e+001
      endloop
   endfacet
   facet normal 0.000000e+000 0.000000e+000 -1.000000e+000
      outer loop
         vertex 3.072196e+001 4.774301e+002 8.183157e+001
         vertex 8.072196e+001 4.274301e+002 8.183157e+001
         vertex 3.072196e+001 4.274301e+002 8.183157e+001
      endloop
   endfacet
endsolid