solid I - H0-1
   facet normal 0.000000e+000 0.000000e+000 1.000000e+000
      outer loop
         vertex 3.072196e+001 7.743012e+001 4.018316e+002
         vertex 1.822196e+001 8.993012e+001 4.018316e+002
         vertex 3.072196e+001 2.743012e+001 4.018316e+002
      endloop
   endfacet
   facet normal 0.000000e+000 0.000000e+000 1.000000e+000
      outer loop
         vertex 3.072196e+001 2.743012e+001 4.018316e+002
         vertex 1.822196e+001 8.993012e+001 4.018316e+002
         vertex 1.822196e+001 1.493012e+001 4.018316e+002
      endloop
   endfacet
   facet normal 0.000000e+000 0.000000e+000 1.000000e+000
      outer loop
         vertex 3.072196e+001 2.743012e+001 4.018316e+002
         vertex 1.822196e+001 1.493012e+001 4.018316e+002
         vertex 8.072196e+001 2.743012e+001 4.018316e+002
      endloop
   endfacet
   facet normal 0.000000e+000 0.000000e+000 1.000000e+000
      outer loop
         vertex 8.072196e+001 2.743012e+001 4.018316e+002
         vertex 1.822196e+001 1.493012e+001 4.018316e+002
         vertex 9.322196e+001 1.493012e+001 4.018316e+002
      endloop
   endfacet
   facet normal 0.000000e+000 0.000000e+000 1.000000e+000
      outer loop
         vertex 8.072196e+001 2.743012e+001 4.018316e+002
         vertex 9.322196e+001 1.493012e+001 4.018316e+002
         vertex 8.072196e+001 7.743012e+001 4.018316e+002
      endloop
   endfacet
   facet normal 0.000000e+000 0.000000e+000 1.000000e+000
      outer loop
         vertex 8.072196e+001 7.743012e+001 4.018316e+002
         vertex 9.322196e+001 1.493012e+001 4.018316e+002
         vertex 9.322196e+001 8.993012e+001 4.018316e+002
      endloop
   endfacet
   facet normal 0.000000e+000 0.000000e+000 1.000000e+000
      outer loop
         vertex 8.072196e+001 7.743012e+001 4.018316e+002
         vertex 9.322196e+001 8.993012e+001 4.018316e+002
         vertex 3.072196e+001 7.743012e+001 4.018316e+002
      endloop
   endfacet
   facet normal 0.000000e+000 0.000000e+000 1.000000e+000
      outer loop
         vertex 3.072196e+001 7.743012e+001 4.018316e+002
         vertex 9.322196e+001 8.993012e+001 4.018316e+002
         vertex 1.822196e+001 8.993012e+001 4.018316e+002
      endloop
   endfacet
   facet normal -1.000000e+000 0.000000e+000 0.000000e+000
      outer loop
         vertex 1.822196e+001 1.493012e+001 4.018316e+002
         vertex 1.822196e+001 8.993012e+001 4.018316e+002
         vertex 1.822196e+001 1.493012e+001 1.018316e+002
      endloop
   endfacet
   facet normal -1.000000e+000 0.000000e+000 0.000000e+000
      outer loop
         vertex 1.822196e+001 1.493012e+001 1.018316e+002
         vertex 1.822196e+001 8.993012e+001 4.018316e+002
         vertex 1.822196e+001 8.993012e+001 1.018316e+002
      endloop
   endfacet
   facet normal 0.000000e+000 -1.000000e+000 0.000000e+000
      outer loop
         vertex 9.322196e+001 1.493012e+001 4.018316e+002
         vertex 1.822196e+001 1.493012e+001 4.018316e+002
         vertex 9.322196e+001 1.493012e+001 1.018316e+002
      endloop
   endfacet
   facet normal 0.000000e+000 -1.000000e+000 0.000000e+000
      outer loop
         vertex 9.322196e+001 1.493012e+001 1.018316e+002
         vertex 1.822196e+001 1.493012e+001 4.018316e+002
         vertex 1.822196e+001 1.493012e+001 1.018316e+002
      endloop
   endfacet
   facet normal 1.000000e+000 0.000000e+000 0.000000e+000
      outer loop
         vertex 9.322196e+001 8.993012e+001 4.018316e+002
         vertex 9.322196e+001 1.493012e+001 4.018316e+002
         vertex 9.322196e+001 8.993012e+001 1.018316e+002
      endloop
   endfacet
   facet normal 1.000000e+000 0.000000e+000 0.000000e+000
      outer loop
         vertex 9.322196e+001 8.993012e+001 1.018316e+002
         vertex 9.322196e+001 1.493012e+001 4.018316e+002
         vertex 9.322196e+001 1.493012e+001 1.018316e+002
      endloop
   endfacet
   facet normal -9.251858e-017 1.000000e+000 0.000000e+000
      outer loop
         vertex 1.822196e+001 8.993012e+001 4.018316e+002
         vertex 9.322196e+001 8.993012e+001 4.018316e+002
         vertex 1.822196e+001 8.993012e+001 1.018316e+002
      endloop
   endfacet
   facet normal -9.251858e-017 1.000000e+000 0.000000e+000
      outer loop
         vertex 1.822196e+001 8.993012e+001 1.018316e+002
         vertex 9.322196e+001 8.993012e+001 4.018316e+002
         vertex 9.322196e+001 8.993012e+001 1.018316e+002
      endloop
   endfacet
   facet normal 0.000000e+000 0.000000e+000 -1.000000e+000
      outer loop
         vertex 3.072196e+001 7.743012e+001 1.018316e+002
         vertex 1.822196e+001 8.993012e+001 1.018316e+002
         vertex 9.322196e+001 8.993012e+001 1.018316e+002
      endloop
   endfacet
   facet normal 0.000000e+000 0.000000e+000 -1.000000e+000
      outer loop
         vertex 1.822196e+001 8.993012e+001 1.018316e+002
         vertex 3.072196e+001 7.743012e+001 1.018316e+002
         vertex 1.822196e+001 1.493012e+001 1.018316e+002
      endloop
   endfacet
   facet normal 0.000000e+000 0.000000e+000 -1.000000e+000
      outer loop
         vertex 1.822196e+001 1.493012e+001 1.018316e+002
         vertex 3.072196e+001 7.743012e+001 1.018316e+002
         vertex 3.072196e+001 2.743012e+001 1.018316e+002
      endloop
   endfacet
   facet normal 0.000000e+000 0.000000e+000 -1.000000e+000
      outer loop
         vertex 1.822196e+001 1.493012e+001 1.018316e+002
         vertex 3.072196e+001 2.743012e+001 1.018316e+002
         vertex 9.322196e+001 1.493012e+001 1.018316e+002
      endloop
   endfacet
   facet normal 0.000000e+000 0.000000e+000 -1.000000e+000
      outer loop
         vertex 9.322196e+001 1.493012e+001 1.018316e+002
         vertex 3.072196e+001 2.743012e+001 1.018316e+002
         vertex 8.072196e+001 2.743012e+001 1.018316e+002
      endloop
   endfacet
   facet normal 0.000000e+000 0.000000e+000 -1.000000e+000
      outer loop
         vertex 9.322196e+001 1.493012e+001 1.018316e+002
         vertex 8.072196e+001 2.743012e+001 1.018316e+002
         vertex 9.322196e+001 8.993012e+001 1.018316e+002
      endloop
   endfacet
   facet normal 0.000000e+000 0.000000e+000 -1.000000e+000
      outer loop
         vertex 9.322196e+001 8.993012e+001 1.018316e+002
         vertex 8.072196e+001 2.743012e+001 1.018316e+002
         vertex 8.072196e+001 7.743012e+001 1.018316e+002
      endloop
   endfacet
   facet normal 0.000000e+000 0.000000e+000 -1.000000e+000
      outer loop
         vertex 9.322196e+001 8.993012e+001 1.018316e+002
         vertex 8.072196e+001 7.743012e+001 1.018316e+002
         vertex 3.072196e+001 7.743012e+001 1.018316e+002
      endloop
   endfacet
   facet normal -1.000000e+000 0.000000e+000 0.000000e+000
      outer loop
         vertex 3.072196e+001 2.743012e+001 4.218316e+002
         vertex 3.072196e+001 7.743012e+001 4.218316e+002
         vertex 3.072196e+001 2.743012e+001 4.018316e+002
      endloop
   endfacet
   facet normal -1.000000e+000 0.000000e+000 0.000000e+000
      outer loop
         vertex 3.072196e+001 2.743012e+001 4.018316e+002
         vertex 3.072196e+001 7.743012e+001 4.218316e+002
         vertex 3.072196e+001 7.743012e+001 4.018316e+002
      endloop
   endfacet
   facet normal 1.387779e-016 -1.000000e+000 0.000000e+000
      outer loop
         vertex 8.072196e+001 2.743012e+001 4.218316e+002
         vertex 3.072196e+001 2.743012e+001 4.218316e+002
         vertex 8.072196e+001 2.743012e+001 4.018316e+002
      endloop
   endfacet
   facet normal 1.387779e-016 -1.000000e+000 0.000000e+000
      outer loop
         vertex 8.072196e+001 2.743012e+001 4.018316e+002
         vertex 3.072196e+001 2.743012e+001 4.218316e+002
         vertex 3.072196e+001 2.743012e+001 4.018316e+002
      endloop
   endfacet
   facet normal 1.000000e+000 0.000000e+000 0.000000e+000
      outer loop
         vertex 8.072196e+001 7.743012e+001 4.218316e+002
         vertex 8.072196e+001 2.743012e+001 4.218316e+002
         vertex 8.072196e+001 7.743012e+001 4.018316e+002
      endloop
   endfacet
   facet normal 1.000000e+000 0.000000e+000 0.000000e+000
      outer loop
         vertex 8.072196e+001 7.743012e+001 4.018316e+002
         vertex 8.072196e+001 2.743012e+001 4.218316e+002
         vertex 8.072196e+001 2.743012e+001 4.018316e+002
      endloop
   endfacet
   facet normal -1.387779e-016 1.000000e+000 0.000000e+000
      outer loop
         vertex 3.072196e+001 7.743012e+001 4.218316e+002
         vertex 8.072196e+001 7.743012e+001 4.218316e+002
         vertex 3.072196e+001 7.743012e+001 4.018316e+002
      endloop
   endfacet
   facet normal -1.387779e-016 1.000000e+000 0.000000e+000
      outer loop
         vertex 3.072196e+001 7.743012e+001 4.018316e+002
         vertex 8.072196e+001 7.743012e+001 4.218316e+002
         vertex 8.072196e+001 7.743012e+001 4.018316e+002
      endloop
   endfacet
   facet normal 0.000000e+000 0.000000e+000 1.000000e+000
      outer loop
         vertex 8.072196e+001 2.743012e+001 4.218316e+002
         vertex 8.072196e+001 7.743012e+001 4.218316e+002
         vertex 3.072196e+001 2.743012e+001 4.218316e+002
      endloop
   endfacet
   facet normal 0.000000e+000 0.000000e+000 1.000000e+000
      outer loop
         vertex 3.072196e+001 2.743012e+001 4.218316e+002
         vertex 8.072196e+001 7.743012e+001 4.218316e+002
         vertex 3.072196e+001 7.743012e+001 4.218316e+002
      endloop
   endfacet
   facet normal -1.000000e+000 0.000000e+000 0.000000e+000
      outer loop
         vertex 3.072196e+001 7.743012e+001 8.183157e+001
         vertex 3.072196e+001 2.743012e+001 8.183157e+001
         vertex 3.072196e+001 7.743012e+001 1.018316e+002
      endloop
   endfacet
   facet normal -1.000000e+000 0.000000e+000 0.000000e+000
      outer loop
         vertex 3.072196e+001 7.743012e+001 1.018316e+002
         vertex 3.072196e+001 2.743012e+001 8.183157e+001
         vertex 3.072196e+001 2.743012e+001 1.018316e+002
      endloop
   endfacet
   facet normal -1.387779e-016 1.000000e+000 0.000000e+000
      outer loop
         vertex 8.072196e+001 7.743012e+001 8.183157e+001
         vertex 3.072196e+001 7.743012e+001 8.183157e+001
         vertex 8.072196e+001 7.743012e+001 1.018316e+002
      endloop
   endfacet
   facet normal -1.387779e-016 1.000000e+000 0.000000e+000
      outer loop
         vertex 8.072196e+001 7.743012e+001 1.018316e+002
         vertex 3.072196e+001 7.743012e+001 8.183157e+001
         vertex 3.072196e+001 7.743012e+001 1.018316e+002
      endloop
   endfacet
   facet normal 1.000000e+000 0.000000e+000 0.000000e+000
      outer loop
         vertex 8.072196e+001 2.743012e+001 8.183157e+001
         vertex 8.072196e+001 7.743012e+001 8.183157e+001
         vertex 8.072196e+001 2.743012e+001 1.018316e+002
      endloop
   endfacet
   facet normal 1.000000e+000 0.000000e+000 0.000000e+000
      outer loop
         vertex 8.072196e+001 2.743012e+001 1.018316e+002
         vertex 8.072196e+001 7.743012e+001 8.183157e+001
         vertex 8.072196e+001 7.743012e+001 1.018316e+002
      endloop
   endfacet
   facet normal 1.387779e-016 -1.000000e+000 0.000000e+000
      outer loop
         vertex 3.072196e+001 2.743012e+001 8.183157e+001
         vertex 8.072196e+001 2.743012e+001 8.183157e+001
         vertex 3.072196e+001 2.743012e+001 1.018316e+002
      endloop
   endfacet
   facet normal 1.387779e-016 -1.000000e+000 0.000000e+000
      outer loop
         vertex 3.072196e+001 2.743012e+001 1.018316e+002
         vertex 8.072196e+001 2.743012e+001 8.183157e+001
         vertex 8.072196e+001 2.743012e+001 1.018316e+002
      endloop
   endfacet
   facet normal 0.000000e+000 0.000000e+000 -1.000000e+000
      outer loop
         vertex 8.072196e+001 7.743012e+001 8.183157e+001
         vertex 8.072196e+001 2.743012e+001 8.183157e+001
         vertex 3.072196e+001 7.743012e+001 8.183157e+001
      endloop
   endfacet
   facet normal 0.000000e+000 0.000000e+000 -1.000000e+000
      outer loop
         vertex 3.072196e+001 7.743012e+001 8.183157e+001
         vertex 8.072196e+001 2.743012e+001 8.183157e+001
         vertex 3.072196e+001 2.743012e+001 8.183157e+001
      endloop
   endfacet
endsolid