solid I - ADE0-1
   facet normal 0.000000e+000 1.000000e+000 0.000000e+000
      outer loop
         vertex 8.072196e+001 4.274301e+002 4.768316e+002
         vertex 1.057220e+002 4.274301e+002 4.768316e+002
         vertex 8.072196e+001 4.274301e+002 4.268316e+002
      endloop
   endfacet
   facet normal 0.000000e+000 1.000000e+000 0.000000e+000
      outer loop
         vertex 8.072196e+001 4.274301e+002 4.268316e+002
         vertex 1.057220e+002 4.274301e+002 4.768316e+002
         vertex 1.057220e+002 4.274301e+002 4.268316e+002
      endloop
   endfacet
   facet normal 0.000000e+000 1.000000e+000 0.000000e+000
      outer loop
         vertex 3.072196e+001 4.274301e+002 4.768316e+002
         vertex 3.072196e+001 4.274301e+002 5.018316e+002
         vertex 8.072196e+001 4.274301e+002 4.768316e+002
      endloop
   endfacet
   facet normal 0.000000e+000 1.000000e+000 0.000000e+000
      outer loop
         vertex 8.072196e+001 4.274301e+002 4.768316e+002
         vertex 3.072196e+001 4.274301e+002 5.018316e+002
         vertex 8.072196e+001 4.274301e+002 5.018316e+002
      endloop
   endfacet
   facet normal 0.000000e+000 1.000000e+000 0.000000e+000
      outer loop
         vertex 3.072196e+001 4.274301e+002 4.268316e+002
         vertex 5.721961e+000 4.274301e+002 4.268316e+002
         vertex 3.072196e+001 4.274301e+002 4.768316e+002
      endloop
   endfacet
   facet normal 0.000000e+000 1.000000e+000 0.000000e+000
      outer loop
         vertex 3.072196e+001 4.274301e+002 4.768316e+002
         vertex 5.721961e+000 4.274301e+002 4.268316e+002
         vertex 5.721961e+000 4.274301e+002 4.768316e+002
      endloop
   endfacet
   facet normal 0.000000e+000 -1.000000e+000 0.000000e+000
      outer loop
         vertex 8.072196e+001 4.774301e+002 4.268316e+002
         vertex 1.057220e+002 4.774301e+002 4.268316e+002
         vertex 8.072196e+001 4.774301e+002 4.768316e+002
      endloop
   endfacet
   facet normal 0.000000e+000 -1.000000e+000 0.000000e+000
      outer loop
         vertex 8.072196e+001 4.774301e+002 4.768316e+002
         vertex 1.057220e+002 4.774301e+002 4.268316e+002
         vertex 1.057220e+002 4.774301e+002 4.768316e+002
      endloop
   endfacet
   facet normal 0.000000e+000 -1.000000e+000 0.000000e+000
      outer loop
         vertex 8.072196e+001 4.774301e+002 4.768316e+002
         vertex 8.072196e+001 4.774301e+002 5.018316e+002
         vertex 3.072196e+001 4.774301e+002 4.768316e+002
      endloop
   endfacet
   facet normal 0.000000e+000 -1.000000e+000 0.000000e+000
      outer loop
         vertex 3.072196e+001 4.774301e+002 4.768316e+002
         vertex 8.072196e+001 4.774301e+002 5.018316e+002
         vertex 3.072196e+001 4.774301e+002 5.018316e+002
      endloop
   endfacet
   facet normal 0.000000e+000 -1.000000e+000 0.000000e+000
      outer loop
         vertex 3.072196e+001 4.774301e+002 4.768316e+002
         vertex 5.721961e+000 4.774301e+002 4.768316e+002
         vertex 3.072196e+001 4.774301e+002 4.268316e+002
      endloop
   endfacet
   facet normal 0.000000e+000 -1.000000e+000 0.000000e+000
      outer loop
         vertex 3.072196e+001 4.774301e+002 4.268316e+002
         vertex 5.721961e+000 4.774301e+002 4.768316e+002
         vertex 5.721961e+000 4.774301e+002 4.268316e+002
      endloop
   endfacet
   facet normal -1.000000e+000 0.000000e+000 0.000000e+000
      outer loop
         vertex 8.072196e+001 4.774301e+002 4.268316e+002
         vertex 8.072196e+001 4.774301e+002 4.018316e+002
         vertex 8.072196e+001 4.274301e+002 4.268316e+002
      endloop
   endfacet
   facet normal -1.000000e+000 0.000000e+000 0.000000e+000
      outer loop
         vertex 8.072196e+001 4.274301e+002 4.268316e+002
         vertex 8.072196e+001 4.774301e+002 4.018316e+002
         vertex 8.072196e+001 4.274301e+002 4.018316e+002
      endloop
   endfacet
   facet normal 1.000000e+000 0.000000e+000 0.000000e+000
      outer loop
         vertex 3.072196e+001 4.274301e+002 4.268316e+002
         vertex 3.072196e+001 4.274301e+002 4.018316e+002
         vertex 3.072196e+001 4.774301e+002 4.268316e+002
      endloop
   endfacet
   facet normal 1.000000e+000 0.000000e+000 0.000000e+000
      outer loop
         vertex 3.072196e+001 4.774301e+002 4.268316e+002
         vertex 3.072196e+001 4.274301e+002 4.018316e+002
         vertex 3.072196e+001 4.774301e+002 4.018316e+002
      endloop
   endfacet
   facet normal 1.000000e+000 0.000000e+000 0.000000e+000
      outer loop
         vertex 1.057220e+002 4.774301e+002 4.268316e+002
         vertex 1.057220e+002 5.024301e+002 4.018316e+002
         vertex 1.057220e+002 5.024301e+002 5.018316e+002
      endloop
   endfacet
   facet normal 1.000000e+000 0.000000e+000 0.000000e+000
      outer loop
         vertex 1.057220e+002 5.024301e+002 4.018316e+002
         vertex 1.057220e+002 4.774301e+002 4.268316e+002
         vertex 1.057220e+002 4.024301e+002 4.018316e+002
      endloop
   endfacet
   facet normal 1.000000e+000 0.000000e+000 0.000000e+000
      outer loop
         vertex 1.057220e+002 4.024301e+002 4.018316e+002
         vertex 1.057220e+002 4.774301e+002 4.268316e+002
         vertex 1.057220e+002 4.274301e+002 4.268316e+002
      endloop
   endfacet
   facet normal 1.000000e+000 0.000000e+000 0.000000e+000
      outer loop
         vertex 1.057220e+002 4.024301e+002 4.018316e+002
         vertex 1.057220e+002 4.274301e+002 4.268316e+002
         vertex 1.057220e+002 4.024301e+002 5.018316e+002
      endloop
   endfacet
   facet normal 1.000000e+000 0.000000e+000 0.000000e+000
      outer loop
         vertex 1.057220e+002 4.024301e+002 5.018316e+002
         vertex 1.057220e+002 4.274301e+002 4.268316e+002
         vertex 1.057220e+002 4.274301e+002 4.768316e+002
      endloop
   endfacet
   facet normal 1.000000e+000 0.000000e+000 0.000000e+000
      outer loop
         vertex 1.057220e+002 4.024301e+002 5.018316e+002
         vertex 1.057220e+002 4.274301e+002 4.768316e+002
         vertex 1.057220e+002 5.024301e+002 5.018316e+002
      endloop
   endfacet
   facet normal 1.000000e+000 0.000000e+000 0.000000e+000
      outer loop
         vertex 1.057220e+002 5.024301e+002 5.018316e+002
         vertex 1.057220e+002 4.274301e+002 4.768316e+002
         vertex 1.057220e+002 4.774301e+002 4.768316e+002
      endloop
   endfacet
   facet normal 1.000000e+000 0.000000e+000 0.000000e+000
      outer loop
         vertex 1.057220e+002 5.024301e+002 5.018316e+002
         vertex 1.057220e+002 4.774301e+002 4.768316e+002
         vertex 1.057220e+002 4.774301e+002 4.268316e+002
      endloop
   endfacet
   facet normal 0.000000e+000 1.000000e+000 0.000000e+000
      outer loop
         vertex 3.072196e+001 5.024301e+002 4.268316e+002
         vertex 5.721961e+000 5.024301e+002 4.018316e+002
         vertex 3.072196e+001 5.024301e+002 4.768316e+002
      endloop
   endfacet
   facet normal 0.000000e+000 1.000000e+000 0.000000e+000
      outer loop
         vertex 3.072196e+001 5.024301e+002 4.768316e+002
         vertex 5.721961e+000 5.024301e+002 4.018316e+002
         vertex 5.721961e+000 5.024301e+002 5.018316e+002
      endloop
   endfacet
   facet normal 0.000000e+000 1.000000e+000 0.000000e+000
      outer loop
         vertex 3.072196e+001 5.024301e+002 4.768316e+002
         vertex 5.721961e+000 5.024301e+002 5.018316e+002
         vertex 8.072196e+001 5.024301e+002 4.768316e+002
      endloop
   endfacet
   facet normal 0.000000e+000 1.000000e+000 0.000000e+000
      outer loop
         vertex 8.072196e+001 5.024301e+002 4.768316e+002
         vertex 5.721961e+000 5.024301e+002 5.018316e+002
         vertex 1.057220e+002 5.024301e+002 5.018316e+002
      endloop
   endfacet
   facet normal 0.000000e+000 1.000000e+000 0.000000e+000
      outer loop
         vertex 8.072196e+001 5.024301e+002 4.768316e+002
         vertex 1.057220e+002 5.024301e+002 5.018316e+002
         vertex 8.072196e+001 5.024301e+002 4.268316e+002
      endloop
   endfacet
   facet normal 0.000000e+000 1.000000e+000 0.000000e+000
      outer loop
         vertex 8.072196e+001 5.024301e+002 4.268316e+002
         vertex 1.057220e+002 5.024301e+002 5.018316e+002
         vertex 1.057220e+002 5.024301e+002 4.018316e+002
      endloop
   endfacet
   facet normal 0.000000e+000 1.000000e+000 0.000000e+000
      outer loop
         vertex 8.072196e+001 5.024301e+002 4.268316e+002
         vertex 1.057220e+002 5.024301e+002 4.018316e+002
         vertex 3.072196e+001 5.024301e+002 4.268316e+002
      endloop
   endfacet
   facet normal 0.000000e+000 1.000000e+000 0.000000e+000
      outer loop
         vertex 3.072196e+001 5.024301e+002 4.268316e+002
         vertex 1.057220e+002 5.024301e+002 4.018316e+002
         vertex 5.721961e+000 5.024301e+002 4.018316e+002
      endloop
   endfacet
   facet normal -1.000000e+000 0.000000e+000 0.000000e+000
      outer loop
         vertex 5.721961e+000 4.774301e+002 4.768316e+002
         vertex 5.721961e+000 5.024301e+002 5.018316e+002
         vertex 5.721961e+000 4.774301e+002 4.268316e+002
      endloop
   endfacet
   facet normal -1.000000e+000 0.000000e+000 0.000000e+000
      outer loop
         vertex 5.721961e+000 4.774301e+002 4.268316e+002
         vertex 5.721961e+000 5.024301e+002 5.018316e+002
         vertex 5.721961e+000 5.024301e+002 4.018316e+002
      endloop
   endfacet
   facet normal -1.000000e+000 0.000000e+000 0.000000e+000
      outer loop
         vertex 5.721961e+000 4.774301e+002 4.268316e+002
         vertex 5.721961e+000 5.024301e+002 4.018316e+002
         vertex 5.721961e+000 4.274301e+002 4.268316e+002
      endloop
   endfacet
   facet normal -1.000000e+000 0.000000e+000 0.000000e+000
      outer loop
         vertex 5.721961e+000 4.274301e+002 4.268316e+002
         vertex 5.721961e+000 5.024301e+002 4.018316e+002
         vertex 5.721961e+000 4.024301e+002 4.018316e+002
      endloop
   endfacet
   facet normal -1.000000e+000 0.000000e+000 0.000000e+000
      outer loop
         vertex 5.721961e+000 4.274301e+002 4.268316e+002
         vertex 5.721961e+000 4.024301e+002 4.018316e+002
         vertex 5.721961e+000 4.274301e+002 4.768316e+002
      endloop
   endfacet
   facet normal -1.000000e+000 0.000000e+000 0.000000e+000
      outer loop
         vertex 5.721961e+000 4.274301e+002 4.768316e+002
         vertex 5.721961e+000 4.024301e+002 4.018316e+002
         vertex 5.721961e+000 4.024301e+002 5.018316e+002
      endloop
   endfacet
   facet normal -1.000000e+000 0.000000e+000 0.000000e+000
      outer loop
         vertex 5.721961e+000 4.274301e+002 4.768316e+002
         vertex 5.721961e+000 4.024301e+002 5.018316e+002
         vertex 5.721961e+000 4.774301e+002 4.768316e+002
      endloop
   endfacet
   facet normal -1.000000e+000 0.000000e+000 0.000000e+000
      outer loop
         vertex 5.721961e+000 4.774301e+002 4.768316e+002
         vertex 5.721961e+000 4.024301e+002 5.018316e+002
         vertex 5.721961e+000 5.024301e+002 5.018316e+002
      endloop
   endfacet
   facet normal 0.000000e+000 -1.000000e+000 0.000000e+000
      outer loop
         vertex 3.072196e+001 4.024301e+002 4.768316e+002
         vertex 5.721961e+000 4.024301e+002 5.018316e+002
         vertex 3.072196e+001 4.024301e+002 4.268316e+002
      endloop
   endfacet
   facet normal 0.000000e+000 -1.000000e+000 0.000000e+000
      outer loop
         vertex 3.072196e+001 4.024301e+002 4.268316e+002
         vertex 5.721961e+000 4.024301e+002 5.018316e+002
         vertex 5.721961e+000 4.024301e+002 4.018316e+002
      endloop
   endfacet
   facet normal 0.000000e+000 -1.000000e+000 0.000000e+000
      outer loop
         vertex 3.072196e+001 4.024301e+002 4.268316e+002
         vertex 5.721961e+000 4.024301e+002 4.018316e+002
         vertex 8.072196e+001 4.024301e+002 4.268316e+002
      endloop
   endfacet
   facet normal 0.000000e+000 -1.000000e+000 0.000000e+000
      outer loop
         vertex 8.072196e+001 4.024301e+002 4.268316e+002
         vertex 5.721961e+000 4.024301e+002 4.018316e+002
         vertex 1.057220e+002 4.024301e+002 4.018316e+002
      endloop
   endfacet
   facet normal 0.000000e+000 -1.000000e+000 0.000000e+000
      outer loop
         vertex 8.072196e+001 4.024301e+002 4.268316e+002
         vertex 1.057220e+002 4.024301e+002 4.018316e+002
         vertex 8.072196e+001 4.024301e+002 4.768316e+002
      endloop
   endfacet
   facet normal 0.000000e+000 -1.000000e+000 0.000000e+000
      outer loop
         vertex 8.072196e+001 4.024301e+002 4.768316e+002
         vertex 1.057220e+002 4.024301e+002 4.018316e+002
         vertex 1.057220e+002 4.024301e+002 5.018316e+002
      endloop
   endfacet
   facet normal 0.000000e+000 -1.000000e+000 0.000000e+000
      outer loop
         vertex 8.072196e+001 4.024301e+002 4.768316e+002
         vertex 1.057220e+002 4.024301e+002 5.018316e+002
         vertex 3.072196e+001 4.024301e+002 4.768316e+002
      endloop
   endfacet
   facet normal 0.000000e+000 -1.000000e+000 0.000000e+000
      outer loop
         vertex 3.072196e+001 4.024301e+002 4.768316e+002
         vertex 1.057220e+002 4.024301e+002 5.018316e+002
         vertex 5.721961e+000 4.024301e+002 5.018316e+002
      endloop
   endfacet
   facet normal 0.000000e+000 0.000000e+000 1.000000e+000
      outer loop
         vertex 8.072196e+001 4.774301e+002 5.018316e+002
         vertex 1.057220e+002 5.024301e+002 5.018316e+002
         vertex 5.721961e+000 5.024301e+002 5.018316e+002
      endloop
   endfacet
   facet normal 0.000000e+000 0.000000e+000 1.000000e+000
      outer loop
         vertex 1.057220e+002 5.024301e+002 5.018316e+002
         vertex 8.072196e+001 4.774301e+002 5.018316e+002
         vertex 1.057220e+002 4.024301e+002 5.018316e+002
      endloop
   endfacet
   facet normal 0.000000e+000 0.000000e+000 1.000000e+000
      outer loop
         vertex 1.057220e+002 4.024301e+002 5.018316e+002
         vertex 8.072196e+001 4.774301e+002 5.018316e+002
         vertex 8.072196e+001 4.274301e+002 5.018316e+002
      endloop
   endfacet
   facet normal 0.000000e+000 0.000000e+000 1.000000e+000
      outer loop
         vertex 1.057220e+002 4.024301e+002 5.018316e+002
         vertex 8.072196e+001 4.274301e+002 5.018316e+002
         vertex 5.721961e+000 4.024301e+002 5.018316e+002
      endloop
   endfacet
   facet normal 0.000000e+000 0.000000e+000 1.000000e+000
      outer loop
         vertex 5.721961e+000 4.024301e+002 5.018316e+002
         vertex 8.072196e+001 4.274301e+002 5.018316e+002
         vertex 3.072196e+001 4.274301e+002 5.018316e+002
      endloop
   endfacet
   facet normal 0.000000e+000 0.000000e+000 1.000000e+000
      outer loop
         vertex 5.721961e+000 4.024301e+002 5.018316e+002
         vertex 3.072196e+001 4.274301e+002 5.018316e+002
         vertex 5.721961e+000 5.024301e+002 5.018316e+002
      endloop
   endfacet
   facet normal 0.000000e+000 0.000000e+000 1.000000e+000
      outer loop
         vertex 5.721961e+000 5.024301e+002 5.018316e+002
         vertex 3.072196e+001 4.274301e+002 5.018316e+002
         vertex 3.072196e+001 4.774301e+002 5.018316e+002
      endloop
   endfacet
   facet normal 0.000000e+000 0.000000e+000 1.000000e+000
      outer loop
         vertex 5.721961e+000 5.024301e+002 5.018316e+002
         vertex 3.072196e+001 4.774301e+002 5.018316e+002
         vertex 8.072196e+001 4.774301e+002 5.018316e+002
      endloop
   endfacet
   facet normal 0.000000e+000 0.000000e+000 -1.000000e+000
      outer loop
         vertex 8.072196e+001 4.274301e+002 4.018316e+002
         vertex 1.057220e+002 4.024301e+002 4.018316e+002
         vertex 3.072196e+001 4.274301e+002 4.018316e+002
      endloop
   endfacet
   facet normal 0.000000e+000 0.000000e+000 -1.000000e+000
      outer loop
         vertex 3.072196e+001 4.274301e+002 4.018316e+002
         vertex 1.057220e+002 4.024301e+002 4.018316e+002
         vertex 5.721961e+000 4.024301e+002 4.018316e+002
      endloop
   endfacet
   facet normal 0.000000e+000 0.000000e+000 -1.000000e+000
      outer loop
         vertex 3.072196e+001 4.274301e+002 4.018316e+002
         vertex 5.721961e+000 4.024301e+002 4.018316e+002
         vertex 3.072196e+001 4.774301e+002 4.018316e+002
      endloop
   endfacet
   facet normal 0.000000e+000 0.000000e+000 -1.000000e+000
      outer loop
         vertex 3.072196e+001 4.774301e+002 4.018316e+002
         vertex 5.721961e+000 4.024301e+002 4.018316e+002
         vertex 5.721961e+000 5.024301e+002 4.018316e+002
      endloop
   endfacet
   facet normal 0.000000e+000 0.000000e+000 -1.000000e+000
      outer loop
         vertex 3.072196e+001 4.774301e+002 4.018316e+002
         vertex 5.721961e+000 5.024301e+002 4.018316e+002
         vertex 8.072196e+001 4.774301e+002 4.018316e+002
      endloop
   endfacet
   facet normal 0.000000e+000 0.000000e+000 -1.000000e+000
      outer loop
         vertex 8.072196e+001 4.774301e+002 4.018316e+002
         vertex 5.721961e+000 5.024301e+002 4.018316e+002
         vertex 1.057220e+002 5.024301e+002 4.018316e+002
      endloop
   endfacet
   facet normal 0.000000e+000 0.000000e+000 -1.000000e+000
      outer loop
         vertex 8.072196e+001 4.774301e+002 4.018316e+002
         vertex 1.057220e+002 5.024301e+002 4.018316e+002
         vertex 8.072196e+001 4.274301e+002 4.018316e+002
      endloop
   endfacet
   facet normal 0.000000e+000 0.000000e+000 -1.000000e+000
      outer loop
         vertex 8.072196e+001 4.274301e+002 4.018316e+002
         vertex 1.057220e+002 5.024301e+002 4.018316e+002
         vertex 1.057220e+002 4.024301e+002 4.018316e+002
      endloop
   endfacet
   facet normal -1.000000e+000 0.000000e+000 0.000000e+000
      outer loop
         vertex 8.072196e+001 4.274301e+002 4.768316e+002
         vertex 8.072196e+001 4.274301e+002 5.018316e+002
         vertex 8.072196e+001 4.774301e+002 4.768316e+002
      endloop
   endfacet
   facet normal -1.000000e+000 0.000000e+000 0.000000e+000
      outer loop
         vertex 8.072196e+001 4.774301e+002 4.768316e+002
         vertex 8.072196e+001 4.274301e+002 5.018316e+002
         vertex 8.072196e+001 4.774301e+002 5.018316e+002
      endloop
   endfacet
   facet normal 0.000000e+000 1.000000e+000 0.000000e+000
      outer loop
         vertex 8.072196e+001 4.274301e+002 4.268316e+002
         vertex 8.072196e+001 4.274301e+002 4.018316e+002
         vertex 3.072196e+001 4.274301e+002 4.268316e+002
      endloop
   endfacet
   facet normal 0.000000e+000 1.000000e+000 0.000000e+000
      outer loop
         vertex 3.072196e+001 4.274301e+002 4.268316e+002
         vertex 8.072196e+001 4.274301e+002 4.018316e+002
         vertex 3.072196e+001 4.274301e+002 4.018316e+002
      endloop
   endfacet
   facet normal 1.000000e+000 0.000000e+000 0.000000e+000
      outer loop
         vertex 3.072196e+001 4.774301e+002 4.768316e+002
         vertex 3.072196e+001 4.774301e+002 5.018316e+002
         vertex 3.072196e+001 4.274301e+002 4.768316e+002
      endloop
   endfacet
   facet normal 1.000000e+000 0.000000e+000 0.000000e+000
      outer loop
         vertex 3.072196e+001 4.274301e+002 4.768316e+002
         vertex 3.072196e+001 4.774301e+002 5.018316e+002
         vertex 3.072196e+001 4.274301e+002 5.018316e+002
      endloop
   endfacet
   facet normal 0.000000e+000 -1.000000e+000 0.000000e+000
      outer loop
         vertex 3.072196e+001 4.774301e+002 4.268316e+002
         vertex 3.072196e+001 4.774301e+002 4.018316e+002
         vertex 8.072196e+001 4.774301e+002 4.268316e+002
      endloop
   endfacet
   facet normal 0.000000e+000 -1.000000e+000 0.000000e+000
      outer loop
         vertex 8.072196e+001 4.774301e+002 4.268316e+002
         vertex 3.072196e+001 4.774301e+002 4.018316e+002
         vertex 8.072196e+001 4.774301e+002 4.018316e+002
      endloop
   endfacet
   facet normal 0.000000e+000 -1.387779e-016 -1.000000e+000
      outer loop
         vertex 5.721961e+000 4.774301e+002 4.768316e+002
         vertex 3.072196e+001 4.774301e+002 4.768316e+002
         vertex 5.721961e+000 4.274301e+002 4.768316e+002
      endloop
   endfacet
   facet normal 0.000000e+000 -1.387779e-016 -1.000000e+000
      outer loop
         vertex 5.721961e+000 4.274301e+002 4.768316e+002
         vertex 3.072196e+001 4.774301e+002 4.768316e+002
         vertex 3.072196e+001 4.274301e+002 4.768316e+002
      endloop
   endfacet
   facet normal 0.000000e+000 1.387779e-016 1.000000e+000
      outer loop
         vertex 5.721961e+000 4.274301e+002 4.268316e+002
         vertex 3.072196e+001 4.274301e+002 4.268316e+002
         vertex 5.721961e+000 4.774301e+002 4.268316e+002
      endloop
   endfacet
   facet normal 0.000000e+000 1.387779e-016 1.000000e+000
      outer loop
         vertex 5.721961e+000 4.774301e+002 4.268316e+002
         vertex 3.072196e+001 4.274301e+002 4.268316e+002
         vertex 3.072196e+001 4.774301e+002 4.268316e+002
      endloop
   endfacet
   facet normal 0.000000e+000 1.387779e-016 1.000000e+000
      outer loop
         vertex 1.057220e+002 4.774301e+002 4.268316e+002
         vertex 8.072196e+001 4.774301e+002 4.268316e+002
         vertex 1.057220e+002 4.274301e+002 4.268316e+002
      endloop
   endfacet
   facet normal 0.000000e+000 1.387779e-016 1.000000e+000
      outer loop
         vertex 1.057220e+002 4.274301e+002 4.268316e+002
         vertex 8.072196e+001 4.774301e+002 4.268316e+002
         vertex 8.072196e+001 4.274301e+002 4.268316e+002
      endloop
   endfacet
   facet normal 0.000000e+000 -1.387779e-016 -1.000000e+000
      outer loop
         vertex 1.057220e+002 4.274301e+002 4.768316e+002
         vertex 8.072196e+001 4.274301e+002 4.768316e+002
         vertex 1.057220e+002 4.774301e+002 4.768316e+002
      endloop
   endfacet
   facet normal 0.000000e+000 -1.387779e-016 -1.000000e+000
      outer loop
         vertex 1.057220e+002 4.774301e+002 4.768316e+002
         vertex 8.072196e+001 4.274301e+002 4.768316e+002
         vertex 8.072196e+001 4.774301e+002 4.768316e+002
      endloop
   endfacet
   facet normal 0.000000e+000 0.000000e+000 1.000000e+000
      outer loop
         vertex 3.072196e+001 5.024301e+002 4.268316e+002
         vertex 3.072196e+001 4.774301e+002 4.268316e+002
         vertex 8.072196e+001 5.024301e+002 4.268316e+002
      endloop
   endfacet
   facet normal 0.000000e+000 0.000000e+000 1.000000e+000
      outer loop
         vertex 8.072196e+001 5.024301e+002 4.268316e+002
         vertex 3.072196e+001 4.774301e+002 4.268316e+002
         vertex 8.072196e+001 4.774301e+002 4.268316e+002
      endloop
   endfacet
   facet normal 1.000000e+000 0.000000e+000 0.000000e+000
      outer loop
         vertex 3.072196e+001 5.024301e+002 4.768316e+002
         vertex 3.072196e+001 4.774301e+002 4.768316e+002
         vertex 3.072196e+001 5.024301e+002 4.268316e+002
      endloop
   endfacet
   facet normal 1.000000e+000 0.000000e+000 0.000000e+000
      outer loop
         vertex 3.072196e+001 5.024301e+002 4.268316e+002
         vertex 3.072196e+001 4.774301e+002 4.768316e+002
         vertex 3.072196e+001 4.774301e+002 4.268316e+002
      endloop
   endfacet
   facet normal 0.000000e+000 0.000000e+000 -1.000000e+000
      outer loop
         vertex 8.072196e+001 5.024301e+002 4.768316e+002
         vertex 8.072196e+001 4.774301e+002 4.768316e+002
         vertex 3.072196e+001 5.024301e+002 4.768316e+002
      endloop
   endfacet
   facet normal 0.000000e+000 0.000000e+000 -1.000000e+000
      outer loop
         vertex 3.072196e+001 5.024301e+002 4.768316e+002
         vertex 8.072196e+001 4.774301e+002 4.768316e+002
         vertex 3.072196e+001 4.774301e+002 4.768316e+002
      endloop
   endfacet
   facet normal -1.000000e+000 0.000000e+000 0.000000e+000
      outer loop
         vertex 8.072196e+001 5.024301e+002 4.268316e+002
         vertex 8.072196e+001 4.774301e+002 4.268316e+002
         vertex 8.072196e+001 5.024301e+002 4.768316e+002
      endloop
   endfacet
   facet normal -1.000000e+000 0.000000e+000 0.000000e+000
      outer loop
         vertex 8.072196e+001 5.024301e+002 4.768316e+002
         vertex 8.072196e+001 4.774301e+002 4.268316e+002
         vertex 8.072196e+001 4.774301e+002 4.768316e+002
      endloop
   endfacet
   facet normal 0.000000e+000 0.000000e+000 -1.000000e+000
      outer loop
         vertex 3.072196e+001 4.024301e+002 4.768316e+002
         vertex 3.072196e+001 4.274301e+002 4.768316e+002
         vertex 8.072196e+001 4.024301e+002 4.768316e+002
      endloop
   endfacet
   facet normal 0.000000e+000 0.000000e+000 -1.000000e+000
      outer loop
         vertex 8.072196e+001 4.024301e+002 4.768316e+002
         vertex 3.072196e+001 4.274301e+002 4.768316e+002
         vertex 8.072196e+001 4.274301e+002 4.768316e+002
      endloop
   endfacet
   facet normal 0.000000e+000 0.000000e+000 1.000000e+000
      outer loop
         vertex 8.072196e+001 4.024301e+002 4.268316e+002
         vertex 8.072196e+001 4.274301e+002 4.268316e+002
         vertex 3.072196e+001 4.024301e+002 4.268316e+002
      endloop
   endfacet
   facet normal 0.000000e+000 0.000000e+000 1.000000e+000
      outer loop
         vertex 3.072196e+001 4.024301e+002 4.268316e+002
         vertex 8.072196e+001 4.274301e+002 4.268316e+002
         vertex 3.072196e+001 4.274301e+002 4.268316e+002
      endloop
   endfacet
   facet normal 1.000000e+000 0.000000e+000 0.000000e+000
      outer loop
         vertex 3.072196e+001 4.024301e+002 4.268316e+002
         vertex 3.072196e+001 4.274301e+002 4.268316e+002
         vertex 3.072196e+001 4.024301e+002 4.768316e+002
      endloop
   endfacet
   facet normal 1.000000e+000 0.000000e+000 0.000000e+000
      outer loop
         vertex 3.072196e+001 4.024301e+002 4.768316e+002
         vertex 3.072196e+001 4.274301e+002 4.268316e+002
         vertex 3.072196e+001 4.274301e+002 4.768316e+002
      endloop
   endfacet
   facet normal -1.000000e+000 0.000000e+000 0.000000e+000
      outer loop
         vertex 8.072196e+001 4.024301e+002 4.768316e+002
         vertex 8.072196e+001 4.274301e+002 4.768316e+002
         vertex 8.072196e+001 4.024301e+002 4.268316e+002
      endloop
   endfacet
   facet normal -1.000000e+000 0.000000e+000 0.000000e+000
      outer loop
         vertex 8.072196e+001 4.024301e+002 4.268316e+002
         vertex 8.072196e+001 4.274301e+002 4.768316e+002
         vertex 8.072196e+001 4.274301e+002 4.268316e+002
      endloop
   endfacet
endsolid