solid CubeDouble - D0-1
   facet normal -9.251858e-017 -1.000000e+000 -1.224647e-016
      outer loop
         vertex 8.359097e+002 1.024045e+002 4.763444e+002
         vertex 8.234096e+002 1.024045e+002 4.888444e+002
         vertex 8.359097e+002 1.024045e+002 4.263444e+002
      endloop
   endfacet
   facet normal -9.251858e-017 -1.000000e+000 -1.224647e-016
      outer loop
         vertex 8.359097e+002 1.024045e+002 4.263444e+002
         vertex 8.234096e+002 1.024045e+002 4.888444e+002
         vertex 8.234096e+002 1.024045e+002 4.138444e+002
      endloop
   endfacet
   facet normal -9.251858e-017 -1.000000e+000 -1.224647e-016
      outer loop
         vertex 8.359097e+002 1.024045e+002 4.263444e+002
         vertex 8.234096e+002 1.024045e+002 4.138444e+002
         vertex 8.859096e+002 1.024045e+002 4.263444e+002
      endloop
   endfacet
   facet normal -9.251858e-017 -1.000000e+000 -1.224647e-016
      outer loop
         vertex 8.859096e+002 1.024045e+002 4.263444e+002
         vertex 8.234096e+002 1.024045e+002 4.138444e+002
         vertex 8.984097e+002 1.024045e+002 4.138444e+002
      endloop
   endfacet
   facet normal -9.251858e-017 -1.000000e+000 -1.224647e-016
      outer loop
         vertex 8.859096e+002 1.024045e+002 4.263444e+002
         vertex 8.984097e+002 1.024045e+002 4.138444e+002
         vertex 8.859096e+002 1.024045e+002 4.763444e+002
      endloop
   endfacet
   facet normal -9.251858e-017 -1.000000e+000 -1.224647e-016
      outer loop
         vertex 8.859096e+002 1.024045e+002 4.763444e+002
         vertex 8.984097e+002 1.024045e+002 4.138444e+002
         vertex 8.984097e+002 1.024045e+002 4.888444e+002
      endloop
   endfacet
   facet normal -9.251858e-017 -1.000000e+000 -1.224647e-016
      outer loop
         vertex 8.859096e+002 1.024045e+002 4.763444e+002
         vertex 8.984097e+002 1.024045e+002 4.888444e+002
         vertex 8.359097e+002 1.024045e+002 4.763444e+002
      endloop
   endfacet
   facet normal -9.251858e-017 -1.000000e+000 -1.224647e-016
      outer loop
         vertex 8.359097e+002 1.024045e+002 4.763444e+002
         vertex 8.984097e+002 1.024045e+002 4.888444e+002
         vertex 8.234096e+002 1.024045e+002 4.888444e+002
      endloop
   endfacet
   facet normal -1.000000e+000 9.251858e-017 9.251858e-017
      outer loop
         vertex 8.234096e+002 1.024045e+002 4.138444e+002
         vertex 8.234096e+002 1.024045e+002 4.888444e+002
         vertex 8.234096e+002 4.024045e+002 4.138444e+002
      endloop
   endfacet
   facet normal -1.000000e+000 9.251858e-017 9.251858e-017
      outer loop
         vertex 8.234096e+002 4.024045e+002 4.138444e+002
         vertex 8.234096e+002 1.024045e+002 4.888444e+002
         vertex 8.234096e+002 4.024045e+002 4.888444e+002
      endloop
   endfacet
   facet normal -9.251858e-017 1.224647e-016 -1.000000e+000
      outer loop
         vertex 8.984097e+002 1.024045e+002 4.138444e+002
         vertex 8.234096e+002 1.024045e+002 4.138444e+002
         vertex 8.984097e+002 4.024045e+002 4.138444e+002
      endloop
   endfacet
   facet normal -9.251858e-017 1.224647e-016 -1.000000e+000
      outer loop
         vertex 8.984097e+002 4.024045e+002 4.138444e+002
         vertex 8.234096e+002 1.024045e+002 4.138444e+002
         vertex 8.234096e+002 4.024045e+002 4.138444e+002
      endloop
   endfacet
   facet normal 1.000000e+000 -9.251858e-017 -9.251858e-017
      outer loop
         vertex 8.984097e+002 1.024045e+002 4.888444e+002
         vertex 8.984097e+002 1.024045e+002 4.138444e+002
         vertex 8.984097e+002 4.024045e+002 4.888444e+002
      endloop
   endfacet
   facet normal 1.000000e+000 -9.251858e-017 -9.251858e-017
      outer loop
         vertex 8.984097e+002 4.024045e+002 4.888444e+002
         vertex 8.984097e+002 1.024045e+002 4.138444e+002
         vertex 8.984097e+002 4.024045e+002 4.138444e+002
      endloop
   endfacet
   facet normal 2.205815e-024 -1.224647e-016 1.000000e+000
      outer loop
         vertex 8.234096e+002 1.024045e+002 4.888444e+002
         vertex 8.984097e+002 1.024045e+002 4.888444e+002
         vertex 8.234096e+002 4.024045e+002 4.888444e+002
      endloop
   endfacet
   facet normal 2.205815e-024 -1.224647e-016 1.000000e+000
      outer loop
         vertex 8.234096e+002 4.024045e+002 4.888444e+002
         vertex 8.984097e+002 1.024045e+002 4.888444e+002
         vertex 8.984097e+002 4.024045e+002 4.888444e+002
      endloop
   endfacet
   facet normal 9.251858e-017 1.000000e+000 1.224647e-016
      outer loop
         vertex 8.359097e+002 4.024045e+002 4.763444e+002
         vertex 8.234096e+002 4.024045e+002 4.888444e+002
         vertex 8.984097e+002 4.024045e+002 4.888444e+002
      endloop
   endfacet
   facet normal 9.251858e-017 1.000000e+000 1.224647e-016
      outer loop
         vertex 8.234096e+002 4.024045e+002 4.888444e+002
         vertex 8.359097e+002 4.024045e+002 4.763444e+002
         vertex 8.234096e+002 4.024045e+002 4.138444e+002
      endloop
   endfacet
   facet normal 9.251858e-017 1.000000e+000 1.224647e-016
      outer loop
         vertex 8.234096e+002 4.024045e+002 4.138444e+002
         vertex 8.359097e+002 4.024045e+002 4.763444e+002
         vertex 8.359097e+002 4.024045e+002 4.263444e+002
      endloop
   endfacet
   facet normal 9.251858e-017 1.000000e+000 1.224647e-016
      outer loop
         vertex 8.234096e+002 4.024045e+002 4.138444e+002
         vertex 8.359097e+002 4.024045e+002 4.263444e+002
         vertex 8.984097e+002 4.024045e+002 4.138444e+002
      endloop
   endfacet
   facet normal 9.251858e-017 1.000000e+000 1.224647e-016
      outer loop
         vertex 8.984097e+002 4.024045e+002 4.138444e+002
         vertex 8.359097e+002 4.024045e+002 4.263444e+002
         vertex 8.859096e+002 4.024045e+002 4.263444e+002
      endloop
   endfacet
   facet normal 9.251858e-017 1.000000e+000 1.224647e-016
      outer loop
         vertex 8.984097e+002 4.024045e+002 4.138444e+002
         vertex 8.859096e+002 4.024045e+002 4.263444e+002
         vertex 8.984097e+002 4.024045e+002 4.888444e+002
      endloop
   endfacet
   facet normal 9.251858e-017 1.000000e+000 1.224647e-016
      outer loop
         vertex 8.984097e+002 4.024045e+002 4.888444e+002
         vertex 8.859096e+002 4.024045e+002 4.263444e+002
         vertex 8.859096e+002 4.024045e+002 4.763444e+002
      endloop
   endfacet
   facet normal 9.251858e-017 1.000000e+000 1.224647e-016
      outer loop
         vertex 8.984097e+002 4.024045e+002 4.888444e+002
         vertex 8.859096e+002 4.024045e+002 4.763444e+002
         vertex 8.359097e+002 4.024045e+002 4.763444e+002
      endloop
   endfacet
   facet normal -1.000000e+000 9.251858e-017 9.251858e-017
      outer loop
         vertex 8.359097e+002 8.240447e+001 4.263444e+002
         vertex 8.359097e+002 8.240447e+001 4.763444e+002
         vertex 8.359097e+002 1.024045e+002 4.263444e+002
      endloop
   endfacet
   facet normal -1.000000e+000 9.251858e-017 9.251858e-017
      outer loop
         vertex 8.359097e+002 1.024045e+002 4.263444e+002
         vertex 8.359097e+002 8.240447e+001 4.763444e+002
         vertex 8.359097e+002 1.024045e+002 4.763444e+002
      endloop
   endfacet
   facet normal 4.625929e-017 1.224647e-016 -1.000000e+000
      outer loop
         vertex 8.859096e+002 8.240447e+001 4.263444e+002
         vertex 8.359097e+002 8.240447e+001 4.263444e+002
         vertex 8.859096e+002 1.024045e+002 4.263444e+002
      endloop
   endfacet
   facet normal 4.625929e-017 1.224647e-016 -1.000000e+000
      outer loop
         vertex 8.859096e+002 1.024045e+002 4.263444e+002
         vertex 8.359097e+002 8.240447e+001 4.263444e+002
         vertex 8.359097e+002 1.024045e+002 4.263444e+002
      endloop
   endfacet
   facet normal 1.000000e+000 -9.251858e-017 -9.251858e-017
      outer loop
         vertex 8.859096e+002 8.240447e+001 4.763444e+002
         vertex 8.859096e+002 8.240447e+001 4.263444e+002
         vertex 8.859096e+002 1.024045e+002 4.763444e+002
      endloop
   endfacet
   facet normal 1.000000e+000 -9.251858e-017 -9.251858e-017
      outer loop
         vertex 8.859096e+002 1.024045e+002 4.763444e+002
         vertex 8.859096e+002 8.240447e+001 4.263444e+002
         vertex 8.859096e+002 1.024045e+002 4.263444e+002
      endloop
   endfacet
   facet normal -4.625929e-017 -1.224647e-016 1.000000e+000
      outer loop
         vertex 8.359097e+002 8.240447e+001 4.763444e+002
         vertex 8.859096e+002 8.240447e+001 4.763444e+002
         vertex 8.359097e+002 1.024045e+002 4.763444e+002
      endloop
   endfacet
   facet normal -4.625929e-017 -1.224647e-016 1.000000e+000
      outer loop
         vertex 8.359097e+002 1.024045e+002 4.763444e+002
         vertex 8.859096e+002 8.240447e+001 4.763444e+002
         vertex 8.859096e+002 1.024045e+002 4.763444e+002
      endloop
   endfacet
   facet normal -9.251858e-017 -1.000000e+000 -1.224647e-016
      outer loop
         vertex 8.859096e+002 8.240447e+001 4.263444e+002
         vertex 8.859096e+002 8.240447e+001 4.763444e+002
         vertex 8.359097e+002 8.240447e+001 4.263444e+002
      endloop
   endfacet
   facet normal -9.251858e-017 -1.000000e+000 -1.224647e-016
      outer loop
         vertex 8.359097e+002 8.240447e+001 4.263444e+002
         vertex 8.859096e+002 8.240447e+001 4.763444e+002
         vertex 8.359097e+002 8.240447e+001 4.763444e+002
      endloop
   endfacet
   facet normal -1.000000e+000 9.251858e-017 9.251858e-017
      outer loop
         vertex 8.359097e+002 4.224045e+002 4.763444e+002
         vertex 8.359097e+002 4.224045e+002 4.263444e+002
         vertex 8.359097e+002 4.024045e+002 4.763444e+002
      endloop
   endfacet
   facet normal -1.000000e+000 9.251858e-017 9.251858e-017
      outer loop
         vertex 8.359097e+002 4.024045e+002 4.763444e+002
         vertex 8.359097e+002 4.224045e+002 4.263444e+002
         vertex 8.359097e+002 4.024045e+002 4.263444e+002
      endloop
   endfacet
   facet normal -4.625929e-017 -1.224647e-016 1.000000e+000
      outer loop
         vertex 8.859096e+002 4.224045e+002 4.763444e+002
         vertex 8.359097e+002 4.224045e+002 4.763444e+002
         vertex 8.859096e+002 4.024045e+002 4.763444e+002
      endloop
   endfacet
   facet normal -4.625929e-017 -1.224647e-016 1.000000e+000
      outer loop
         vertex 8.859096e+002 4.024045e+002 4.763444e+002
         vertex 8.359097e+002 4.224045e+002 4.763444e+002
         vertex 8.359097e+002 4.024045e+002 4.763444e+002
      endloop
   endfacet
   facet normal 1.000000e+000 -9.251858e-017 -9.251858e-017
      outer loop
         vertex 8.859096e+002 4.224045e+002 4.263444e+002
         vertex 8.859096e+002 4.224045e+002 4.763444e+002
         vertex 8.859096e+002 4.024045e+002 4.263444e+002
      endloop
   endfacet
   facet normal 1.000000e+000 -9.251858e-017 -9.251858e-017
      outer loop
         vertex 8.859096e+002 4.024045e+002 4.263444e+002
         vertex 8.859096e+002 4.224045e+002 4.763444e+002
         vertex 8.859096e+002 4.024045e+002 4.763444e+002
      endloop
   endfacet
   facet normal 4.625929e-017 1.224647e-016 -1.000000e+000
      outer loop
         vertex 8.359097e+002 4.224045e+002 4.263444e+002
         vertex 8.859096e+002 4.224045e+002 4.263444e+002
         vertex 8.359097e+002 4.024045e+002 4.263444e+002
      endloop
   endfacet
   facet normal 4.625929e-017 1.224647e-016 -1.000000e+000
      outer loop
         vertex 8.359097e+002 4.024045e+002 4.263444e+002
         vertex 8.859096e+002 4.224045e+002 4.263444e+002
         vertex 8.859096e+002 4.024045e+002 4.263444e+002
      endloop
   endfacet
   facet normal 9.251858e-017 1.000000e+000 1.224647e-016
      outer loop
         vertex 8.859096e+002 4.224045e+002 4.763444e+002
         vertex 8.859096e+002 4.224045e+002 4.263444e+002
         vertex 8.359097e+002 4.224045e+002 4.763444e+002
      endloop
   endfacet
   facet normal 9.251858e-017 1.000000e+000 1.224647e-016
      outer loop
         vertex 8.359097e+002 4.224045e+002 4.763444e+002
         vertex 8.859096e+002 4.224045e+002 4.263444e+002
         vertex 8.359097e+002 4.224045e+002 4.263444e+002
      endloop
   endfacet
endsolid