solid CubeDouble - cube-6 H0-1
   facet normal 0.000000e+000 0.000000e+000 1.000000e+000
      outer loop
         vertex 8.590965e+001 8.774045e+002 8.013444e+002
         vertex 9.840965e+001 8.899045e+002 8.013444e+002
         vertex 3.590964e+001 8.774045e+002 8.013444e+002
      endloop
   endfacet
   facet normal 0.000000e+000 0.000000e+000 1.000000e+000
      outer loop
         vertex 3.590964e+001 8.774045e+002 8.013444e+002
         vertex 9.840965e+001 8.899045e+002 8.013444e+002
         vertex 2.340964e+001 8.899045e+002 8.013444e+002
      endloop
   endfacet
   facet normal 0.000000e+000 0.000000e+000 1.000000e+000
      outer loop
         vertex 3.590964e+001 8.774045e+002 8.013444e+002
         vertex 2.340964e+001 8.899045e+002 8.013444e+002
         vertex 3.590964e+001 8.274045e+002 8.013444e+002
      endloop
   endfacet
   facet normal 0.000000e+000 0.000000e+000 1.000000e+000
      outer loop
         vertex 3.590964e+001 8.274045e+002 8.013444e+002
         vertex 2.340964e+001 8.899045e+002 8.013444e+002
         vertex 2.340964e+001 8.149045e+002 8.013444e+002
      endloop
   endfacet
   facet normal 0.000000e+000 0.000000e+000 1.000000e+000
      outer loop
         vertex 3.590964e+001 8.274045e+002 8.013444e+002
         vertex 2.340964e+001 8.149045e+002 8.013444e+002
         vertex 8.590965e+001 8.274045e+002 8.013444e+002
      endloop
   endfacet
   facet normal 0.000000e+000 0.000000e+000 1.000000e+000
      outer loop
         vertex 8.590965e+001 8.274045e+002 8.013444e+002
         vertex 2.340964e+001 8.149045e+002 8.013444e+002
         vertex 9.840965e+001 8.149045e+002 8.013444e+002
      endloop
   endfacet
   facet normal 0.000000e+000 0.000000e+000 1.000000e+000
      outer loop
         vertex 8.590965e+001 8.274045e+002 8.013444e+002
         vertex 9.840965e+001 8.149045e+002 8.013444e+002
         vertex 8.590965e+001 8.774045e+002 8.013444e+002
      endloop
   endfacet
   facet normal 0.000000e+000 0.000000e+000 1.000000e+000
      outer loop
         vertex 8.590965e+001 8.774045e+002 8.013444e+002
         vertex 9.840965e+001 8.149045e+002 8.013444e+002
         vertex 9.840965e+001 8.899045e+002 8.013444e+002
      endloop
   endfacet
   facet normal 0.000000e+000 1.000000e+000 -0.000000e+000
      outer loop
         vertex 2.340964e+001 8.899045e+002 8.013444e+002
         vertex 9.840965e+001 8.899045e+002 8.013444e+002
         vertex 2.340964e+001 8.899045e+002 5.013444e+002
      endloop
   endfacet
   facet normal 0.000000e+000 1.000000e+000 -0.000000e+000
      outer loop
         vertex 2.340964e+001 8.899045e+002 5.013444e+002
         vertex 9.840965e+001 8.899045e+002 8.013444e+002
         vertex 9.840965e+001 8.899045e+002 5.013444e+002
      endloop
   endfacet
   facet normal -1.000000e+000 0.000000e+000 0.000000e+000
      outer loop
         vertex 2.340964e+001 8.149045e+002 8.013444e+002
         vertex 2.340964e+001 8.899045e+002 8.013444e+002
         vertex 2.340964e+001 8.149045e+002 5.013444e+002
      endloop
   endfacet
   facet normal -1.000000e+000 0.000000e+000 0.000000e+000
      outer loop
         vertex 2.340964e+001 8.149045e+002 5.013444e+002
         vertex 2.340964e+001 8.899045e+002 8.013444e+002
         vertex 2.340964e+001 8.899045e+002 5.013444e+002
      endloop
   endfacet
   facet normal -0.000000e+000 -1.000000e+000 0.000000e+000
      outer loop
         vertex 9.840965e+001 8.149045e+002 8.013444e+002
         vertex 2.340964e+001 8.149045e+002 8.013444e+002
         vertex 9.840965e+001 8.149045e+002 5.013444e+002
      endloop
   endfacet
   facet normal -0.000000e+000 -1.000000e+000 0.000000e+000
      outer loop
         vertex 9.840965e+001 8.149045e+002 5.013444e+002
         vertex 2.340964e+001 8.149045e+002 8.013444e+002
         vertex 2.340964e+001 8.149045e+002 5.013444e+002
      endloop
   endfacet
   facet normal 1.000000e+000 9.251858e-017 -0.000000e+000
      outer loop
         vertex 9.840965e+001 8.899045e+002 8.013444e+002
         vertex 9.840965e+001 8.149045e+002 8.013444e+002
         vertex 9.840965e+001 8.899045e+002 5.013444e+002
      endloop
   endfacet
   facet normal 1.000000e+000 9.251858e-017 -0.000000e+000
      outer loop
         vertex 9.840965e+001 8.899045e+002 5.013444e+002
         vertex 9.840965e+001 8.149045e+002 8.013444e+002
         vertex 9.840965e+001 8.149045e+002 5.013444e+002
      endloop
   endfacet
   facet normal -0.000000e+000 -0.000000e+000 -1.000000e+000
      outer loop
         vertex 8.590965e+001 8.774045e+002 5.013444e+002
         vertex 9.840965e+001 8.899045e+002 5.013444e+002
         vertex 9.840965e+001 8.149045e+002 5.013444e+002
      endloop
   endfacet
   facet normal -0.000000e+000 -0.000000e+000 -1.000000e+000
      outer loop
         vertex 9.840965e+001 8.899045e+002 5.013444e+002
         vertex 8.590965e+001 8.774045e+002 5.013444e+002
         vertex 2.340964e+001 8.899045e+002 5.013444e+002
      endloop
   endfacet
   facet normal -0.000000e+000 -0.000000e+000 -1.000000e+000
      outer loop
         vertex 2.340964e+001 8.899045e+002 5.013444e+002
         vertex 8.590965e+001 8.774045e+002 5.013444e+002
         vertex 3.590964e+001 8.774045e+002 5.013444e+002
      endloop
   endfacet
   facet normal -0.000000e+000 -0.000000e+000 -1.000000e+000
      outer loop
         vertex 2.340964e+001 8.899045e+002 5.013444e+002
         vertex 3.590964e+001 8.774045e+002 5.013444e+002
         vertex 2.340964e+001 8.149045e+002 5.013444e+002
      endloop
   endfacet
   facet normal -0.000000e+000 -0.000000e+000 -1.000000e+000
      outer loop
         vertex 2.340964e+001 8.149045e+002 5.013444e+002
         vertex 3.590964e+001 8.774045e+002 5.013444e+002
         vertex 3.590964e+001 8.274045e+002 5.013444e+002
      endloop
   endfacet
   facet normal -0.000000e+000 -0.000000e+000 -1.000000e+000
      outer loop
         vertex 2.340964e+001 8.149045e+002 5.013444e+002
         vertex 3.590964e+001 8.274045e+002 5.013444e+002
         vertex 9.840965e+001 8.149045e+002 5.013444e+002
      endloop
   endfacet
   facet normal -0.000000e+000 -0.000000e+000 -1.000000e+000
      outer loop
         vertex 9.840965e+001 8.149045e+002 5.013444e+002
         vertex 3.590964e+001 8.274045e+002 5.013444e+002
         vertex 8.590965e+001 8.274045e+002 5.013444e+002
      endloop
   endfacet
   facet normal -0.000000e+000 -0.000000e+000 -1.000000e+000
      outer loop
         vertex 9.840965e+001 8.149045e+002 5.013444e+002
         vertex 8.590965e+001 8.274045e+002 5.013444e+002
         vertex 8.590965e+001 8.774045e+002 5.013444e+002
      endloop
   endfacet
   facet normal 0.000000e+000 1.000000e+000 -0.000000e+000
      outer loop
         vertex 3.590964e+001 8.774045e+002 8.213444e+002
         vertex 8.590965e+001 8.774045e+002 8.213444e+002
         vertex 3.590964e+001 8.774045e+002 8.013444e+002
      endloop
   endfacet
   facet normal 0.000000e+000 1.000000e+000 -0.000000e+000
      outer loop
         vertex 3.590964e+001 8.774045e+002 8.013444e+002
         vertex 8.590965e+001 8.774045e+002 8.213444e+002
         vertex 8.590965e+001 8.774045e+002 8.013444e+002
      endloop
   endfacet
   facet normal -1.000000e+000 -1.387779e-016 0.000000e+000
      outer loop
         vertex 3.590964e+001 8.274045e+002 8.213444e+002
         vertex 3.590964e+001 8.774045e+002 8.213444e+002
         vertex 3.590964e+001 8.274045e+002 8.013444e+002
      endloop
   endfacet
   facet normal -1.000000e+000 -1.387779e-016 0.000000e+000
      outer loop
         vertex 3.590964e+001 8.274045e+002 8.013444e+002
         vertex 3.590964e+001 8.774045e+002 8.213444e+002
         vertex 3.590964e+001 8.774045e+002 8.013444e+002
      endloop
   endfacet
   facet normal -0.000000e+000 -1.000000e+000 0.000000e+000
      outer loop
         vertex 8.590965e+001 8.274045e+002 8.213444e+002
         vertex 3.590964e+001 8.274045e+002 8.213444e+002
         vertex 8.590965e+001 8.274045e+002 8.013444e+002
      endloop
   endfacet
   facet normal -0.000000e+000 -1.000000e+000 0.000000e+000
      outer loop
         vertex 8.590965e+001 8.274045e+002 8.013444e+002
         vertex 3.590964e+001 8.274045e+002 8.213444e+002
         vertex 3.590964e+001 8.274045e+002 8.013444e+002
      endloop
   endfacet
   facet normal 1.000000e+000 1.387779e-016 -0.000000e+000
      outer loop
         vertex 8.590965e+001 8.774045e+002 8.213444e+002
         vertex 8.590965e+001 8.274045e+002 8.213444e+002
         vertex 8.590965e+001 8.774045e+002 8.013444e+002
      endloop
   endfacet
   facet normal 1.000000e+000 1.387779e-016 -0.000000e+000
      outer loop
         vertex 8.590965e+001 8.774045e+002 8.013444e+002
         vertex 8.590965e+001 8.274045e+002 8.213444e+002
         vertex 8.590965e+001 8.274045e+002 8.013444e+002
      endloop
   endfacet
   facet normal 0.000000e+000 0.000000e+000 1.000000e+000
      outer loop
         vertex 3.590964e+001 8.274045e+002 8.213444e+002
         vertex 8.590965e+001 8.274045e+002 8.213444e+002
         vertex 3.590964e+001 8.774045e+002 8.213444e+002
      endloop
   endfacet
   facet normal 0.000000e+000 0.000000e+000 1.000000e+000
      outer loop
         vertex 3.590964e+001 8.774045e+002 8.213444e+002
         vertex 8.590965e+001 8.274045e+002 8.213444e+002
         vertex 8.590965e+001 8.774045e+002 8.213444e+002
      endloop
   endfacet
   facet normal 0.000000e+000 1.000000e+000 -0.000000e+000
      outer loop
         vertex 8.590965e+001 8.774045e+002 4.813444e+002
         vertex 3.590964e+001 8.774045e+002 4.813444e+002
         vertex 8.590965e+001 8.774045e+002 5.013444e+002
      endloop
   endfacet
   facet normal 0.000000e+000 1.000000e+000 -0.000000e+000
      outer loop
         vertex 8.590965e+001 8.774045e+002 5.013444e+002
         vertex 3.590964e+001 8.774045e+002 4.813444e+002
         vertex 3.590964e+001 8.774045e+002 5.013444e+002
      endloop
   endfacet
   facet normal 1.000000e+000 1.387779e-016 -0.000000e+000
      outer loop
         vertex 8.590965e+001 8.274045e+002 4.813444e+002
         vertex 8.590965e+001 8.774045e+002 4.813444e+002
         vertex 8.590965e+001 8.274045e+002 5.013444e+002
      endloop
   endfacet
   facet normal 1.000000e+000 1.387779e-016 -0.000000e+000
      outer loop
         vertex 8.590965e+001 8.274045e+002 5.013444e+002
         vertex 8.590965e+001 8.774045e+002 4.813444e+002
         vertex 8.590965e+001 8.774045e+002 5.013444e+002
      endloop
   endfacet
   facet normal -0.000000e+000 -1.000000e+000 0.000000e+000
      outer loop
         vertex 3.590964e+001 8.274045e+002 4.813444e+002
         vertex 8.590965e+001 8.274045e+002 4.813444e+002
         vertex 3.590964e+001 8.274045e+002 5.013444e+002
      endloop
   endfacet
   facet normal -0.000000e+000 -1.000000e+000 0.000000e+000
      outer loop
         vertex 3.590964e+001 8.274045e+002 5.013444e+002
         vertex 8.590965e+001 8.274045e+002 4.813444e+002
         vertex 8.590965e+001 8.274045e+002 5.013444e+002
      endloop
   endfacet
   facet normal -1.000000e+000 -1.387779e-016 0.000000e+000
      outer loop
         vertex 3.590964e+001 8.774045e+002 4.813444e+002
         vertex 3.590964e+001 8.274045e+002 4.813444e+002
         vertex 3.590964e+001 8.774045e+002 5.013444e+002
      endloop
   endfacet
   facet normal -1.000000e+000 -1.387779e-016 0.000000e+000
      outer loop
         vertex 3.590964e+001 8.774045e+002 5.013444e+002
         vertex 3.590964e+001 8.274045e+002 4.813444e+002
         vertex 3.590964e+001 8.274045e+002 5.013444e+002
      endloop
   endfacet
   facet normal -0.000000e+000 -0.000000e+000 -1.000000e+000
      outer loop
         vertex 8.590965e+001 8.274045e+002 4.813444e+002
         vertex 3.590964e+001 8.274045e+002 4.813444e+002
         vertex 8.590965e+001 8.774045e+002 4.813444e+002
      endloop
   endfacet
   facet normal -0.000000e+000 -0.000000e+000 -1.000000e+000
      outer loop
         vertex 8.590965e+001 8.774045e+002 4.813444e+002
         vertex 3.590964e+001 8.274045e+002 4.813444e+002
         vertex 3.590964e+001 8.774045e+002 4.813444e+002
      endloop
   endfacet
endsolid