solid CubeDouble - cube-1 KHL0-1
   facet normal 0.000000e+000 1.000000e+000 0.000000e+000
      outer loop
         vertex 4.859096e+002 4.274044e+002 4.763444e+002
         vertex 5.109096e+002 4.274044e+002 4.763444e+002
         vertex 4.859096e+002 4.274044e+002 4.263444e+002
      endloop
   endfacet
   facet normal 0.000000e+000 1.000000e+000 0.000000e+000
      outer loop
         vertex 4.859096e+002 4.274044e+002 4.263444e+002
         vertex 5.109096e+002 4.274044e+002 4.763444e+002
         vertex 5.109096e+002 4.274044e+002 4.263444e+002
      endloop
   endfacet
   facet normal 0.000000e+000 1.000000e+000 0.000000e+000
      outer loop
         vertex 4.359096e+002 4.274044e+002 4.763444e+002
         vertex 4.359096e+002 4.274044e+002 5.013444e+002
         vertex 4.859096e+002 4.274044e+002 4.763444e+002
      endloop
   endfacet
   facet normal 0.000000e+000 1.000000e+000 0.000000e+000
      outer loop
         vertex 4.859096e+002 4.274044e+002 4.763444e+002
         vertex 4.359096e+002 4.274044e+002 5.013444e+002
         vertex 4.859096e+002 4.274044e+002 5.013444e+002
      endloop
   endfacet
   facet normal 0.000000e+000 1.000000e+000 0.000000e+000
      outer loop
         vertex 4.359096e+002 4.274044e+002 4.263444e+002
         vertex 4.109097e+002 4.274044e+002 4.263444e+002
         vertex 4.359096e+002 4.274044e+002 4.763444e+002
      endloop
   endfacet
   facet normal 0.000000e+000 1.000000e+000 0.000000e+000
      outer loop
         vertex 4.359096e+002 4.274044e+002 4.763444e+002
         vertex 4.109097e+002 4.274044e+002 4.263444e+002
         vertex 4.109097e+002 4.274044e+002 4.763444e+002
      endloop
   endfacet
   facet normal 0.000000e+000 -1.000000e+000 0.000000e+000
      outer loop
         vertex 4.859096e+002 4.774045e+002 4.263444e+002
         vertex 5.109096e+002 4.774045e+002 4.263444e+002
         vertex 4.859096e+002 4.774045e+002 4.763444e+002
      endloop
   endfacet
   facet normal 0.000000e+000 -1.000000e+000 0.000000e+000
      outer loop
         vertex 4.859096e+002 4.774045e+002 4.763444e+002
         vertex 5.109096e+002 4.774045e+002 4.263444e+002
         vertex 5.109096e+002 4.774045e+002 4.763444e+002
      endloop
   endfacet
   facet normal 0.000000e+000 -1.000000e+000 0.000000e+000
      outer loop
         vertex 4.859096e+002 4.774045e+002 4.763444e+002
         vertex 4.859096e+002 4.774045e+002 5.013444e+002
         vertex 4.359096e+002 4.774045e+002 4.763444e+002
      endloop
   endfacet
   facet normal 0.000000e+000 -1.000000e+000 0.000000e+000
      outer loop
         vertex 4.359096e+002 4.774045e+002 4.763444e+002
         vertex 4.859096e+002 4.774045e+002 5.013444e+002
         vertex 4.359096e+002 4.774045e+002 5.013444e+002
      endloop
   endfacet
   facet normal 0.000000e+000 -1.000000e+000 0.000000e+000
      outer loop
         vertex 4.359096e+002 4.774045e+002 4.763444e+002
         vertex 4.109097e+002 4.774045e+002 4.763444e+002
         vertex 4.359096e+002 4.774045e+002 4.263444e+002
      endloop
   endfacet
   facet normal 0.000000e+000 -1.000000e+000 0.000000e+000
      outer loop
         vertex 4.359096e+002 4.774045e+002 4.263444e+002
         vertex 4.109097e+002 4.774045e+002 4.763444e+002
         vertex 4.109097e+002 4.774045e+002 4.263444e+002
      endloop
   endfacet
   facet normal -1.000000e+000 0.000000e+000 0.000000e+000
      outer loop
         vertex 4.859096e+002 4.774045e+002 4.263444e+002
         vertex 4.859096e+002 4.774045e+002 4.013444e+002
         vertex 4.859096e+002 4.274044e+002 4.263444e+002
      endloop
   endfacet
   facet normal -1.000000e+000 0.000000e+000 0.000000e+000
      outer loop
         vertex 4.859096e+002 4.274044e+002 4.263444e+002
         vertex 4.859096e+002 4.774045e+002 4.013444e+002
         vertex 4.859096e+002 4.274044e+002 4.013444e+002
      endloop
   endfacet
   facet normal 1.000000e+000 0.000000e+000 0.000000e+000
      outer loop
         vertex 4.359096e+002 4.274044e+002 4.263444e+002
         vertex 4.359096e+002 4.274044e+002 4.013444e+002
         vertex 4.359096e+002 4.774045e+002 4.263444e+002
      endloop
   endfacet
   facet normal 1.000000e+000 0.000000e+000 0.000000e+000
      outer loop
         vertex 4.359096e+002 4.774045e+002 4.263444e+002
         vertex 4.359096e+002 4.274044e+002 4.013444e+002
         vertex 4.359096e+002 4.774045e+002 4.013444e+002
      endloop
   endfacet
   facet normal 1.000000e+000 0.000000e+000 0.000000e+000
      outer loop
         vertex 5.109096e+002 4.774045e+002 4.263444e+002
         vertex 5.109096e+002 5.024044e+002 4.013444e+002
         vertex 5.109096e+002 5.024044e+002 5.013444e+002
      endloop
   endfacet
   facet normal 1.000000e+000 0.000000e+000 0.000000e+000
      outer loop
         vertex 5.109096e+002 5.024044e+002 4.013444e+002
         vertex 5.109096e+002 4.774045e+002 4.263444e+002
         vertex 5.109096e+002 4.024044e+002 4.013444e+002
      endloop
   endfacet
   facet normal 1.000000e+000 0.000000e+000 0.000000e+000
      outer loop
         vertex 5.109096e+002 4.024044e+002 4.013444e+002
         vertex 5.109096e+002 4.774045e+002 4.263444e+002
         vertex 5.109096e+002 4.274044e+002 4.263444e+002
      endloop
   endfacet
   facet normal 1.000000e+000 0.000000e+000 0.000000e+000
      outer loop
         vertex 5.109096e+002 4.024044e+002 4.013444e+002
         vertex 5.109096e+002 4.274044e+002 4.263444e+002
         vertex 5.109096e+002 4.024044e+002 5.013444e+002
      endloop
   endfacet
   facet normal 1.000000e+000 0.000000e+000 0.000000e+000
      outer loop
         vertex 5.109096e+002 4.024044e+002 5.013444e+002
         vertex 5.109096e+002 4.274044e+002 4.263444e+002
         vertex 5.109096e+002 4.274044e+002 4.763444e+002
      endloop
   endfacet
   facet normal 1.000000e+000 0.000000e+000 0.000000e+000
      outer loop
         vertex 5.109096e+002 4.024044e+002 5.013444e+002
         vertex 5.109096e+002 4.274044e+002 4.763444e+002
         vertex 5.109096e+002 5.024044e+002 5.013444e+002
      endloop
   endfacet
   facet normal 1.000000e+000 0.000000e+000 0.000000e+000
      outer loop
         vertex 5.109096e+002 5.024044e+002 5.013444e+002
         vertex 5.109096e+002 4.274044e+002 4.763444e+002
         vertex 5.109096e+002 4.774045e+002 4.763444e+002
      endloop
   endfacet
   facet normal 1.000000e+000 0.000000e+000 0.000000e+000
      outer loop
         vertex 5.109096e+002 5.024044e+002 5.013444e+002
         vertex 5.109096e+002 4.774045e+002 4.763444e+002
         vertex 5.109096e+002 4.774045e+002 4.263444e+002
      endloop
   endfacet
   facet normal 0.000000e+000 1.000000e+000 0.000000e+000
      outer loop
         vertex 4.359096e+002 5.024044e+002 4.263444e+002
         vertex 4.109097e+002 5.024044e+002 4.013444e+002
         vertex 4.359096e+002 5.024044e+002 4.763444e+002
      endloop
   endfacet
   facet normal 0.000000e+000 1.000000e+000 0.000000e+000
      outer loop
         vertex 4.359096e+002 5.024044e+002 4.763444e+002
         vertex 4.109097e+002 5.024044e+002 4.013444e+002
         vertex 4.109097e+002 5.024044e+002 5.013444e+002
      endloop
   endfacet
   facet normal 0.000000e+000 1.000000e+000 0.000000e+000
      outer loop
         vertex 4.359096e+002 5.024044e+002 4.763444e+002
         vertex 4.109097e+002 5.024044e+002 5.013444e+002
         vertex 4.859096e+002 5.024044e+002 4.763444e+002
      endloop
   endfacet
   facet normal 0.000000e+000 1.000000e+000 0.000000e+000
      outer loop
         vertex 4.859096e+002 5.024044e+002 4.763444e+002
         vertex 4.109097e+002 5.024044e+002 5.013444e+002
         vertex 5.109096e+002 5.024044e+002 5.013444e+002
      endloop
   endfacet
   facet normal 0.000000e+000 1.000000e+000 0.000000e+000
      outer loop
         vertex 4.859096e+002 5.024044e+002 4.763444e+002
         vertex 5.109096e+002 5.024044e+002 5.013444e+002
         vertex 4.859096e+002 5.024044e+002 4.263444e+002
      endloop
   endfacet
   facet normal 0.000000e+000 1.000000e+000 0.000000e+000
      outer loop
         vertex 4.859096e+002 5.024044e+002 4.263444e+002
         vertex 5.109096e+002 5.024044e+002 5.013444e+002
         vertex 5.109096e+002 5.024044e+002 4.013444e+002
      endloop
   endfacet
   facet normal 0.000000e+000 1.000000e+000 0.000000e+000
      outer loop
         vertex 4.859096e+002 5.024044e+002 4.263444e+002
         vertex 5.109096e+002 5.024044e+002 4.013444e+002
         vertex 4.359096e+002 5.024044e+002 4.263444e+002
      endloop
   endfacet
   facet normal 0.000000e+000 1.000000e+000 0.000000e+000
      outer loop
         vertex 4.359096e+002 5.024044e+002 4.263444e+002
         vertex 5.109096e+002 5.024044e+002 4.013444e+002
         vertex 4.109097e+002 5.024044e+002 4.013444e+002
      endloop
   endfacet
   facet normal -1.000000e+000 0.000000e+000 0.000000e+000
      outer loop
         vertex 4.109097e+002 4.774045e+002 4.763444e+002
         vertex 4.109097e+002 5.024044e+002 5.013444e+002
         vertex 4.109097e+002 4.774045e+002 4.263444e+002
      endloop
   endfacet
   facet normal -1.000000e+000 0.000000e+000 0.000000e+000
      outer loop
         vertex 4.109097e+002 4.774045e+002 4.263444e+002
         vertex 4.109097e+002 5.024044e+002 5.013444e+002
         vertex 4.109097e+002 5.024044e+002 4.013444e+002
      endloop
   endfacet
   facet normal -1.000000e+000 0.000000e+000 0.000000e+000
      outer loop
         vertex 4.109097e+002 4.774045e+002 4.263444e+002
         vertex 4.109097e+002 5.024044e+002 4.013444e+002
         vertex 4.109097e+002 4.274044e+002 4.263444e+002
      endloop
   endfacet
   facet normal -1.000000e+000 0.000000e+000 0.000000e+000
      outer loop
         vertex 4.109097e+002 4.274044e+002 4.263444e+002
         vertex 4.109097e+002 5.024044e+002 4.013444e+002
         vertex 4.109097e+002 4.024044e+002 4.013444e+002
      endloop
   endfacet
   facet normal -1.000000e+000 0.000000e+000 0.000000e+000
      outer loop
         vertex 4.109097e+002 4.274044e+002 4.263444e+002
         vertex 4.109097e+002 4.024044e+002 4.013444e+002
         vertex 4.109097e+002 4.274044e+002 4.763444e+002
      endloop
   endfacet
   facet normal -1.000000e+000 0.000000e+000 0.000000e+000
      outer loop
         vertex 4.109097e+002 4.274044e+002 4.763444e+002
         vertex 4.109097e+002 4.024044e+002 4.013444e+002
         vertex 4.109097e+002 4.024044e+002 5.013444e+002
      endloop
   endfacet
   facet normal -1.000000e+000 0.000000e+000 0.000000e+000
      outer loop
         vertex 4.109097e+002 4.274044e+002 4.763444e+002
         vertex 4.109097e+002 4.024044e+002 5.013444e+002
         vertex 4.109097e+002 4.774045e+002 4.763444e+002
      endloop
   endfacet
   facet normal -1.000000e+000 0.000000e+000 0.000000e+000
      outer loop
         vertex 4.109097e+002 4.774045e+002 4.763444e+002
         vertex 4.109097e+002 4.024044e+002 5.013444e+002
         vertex 4.109097e+002 5.024044e+002 5.013444e+002
      endloop
   endfacet
   facet normal 0.000000e+000 -1.000000e+000 0.000000e+000
      outer loop
         vertex 4.359096e+002 4.024044e+002 4.763444e+002
         vertex 4.109097e+002 4.024044e+002 5.013444e+002
         vertex 4.359096e+002 4.024044e+002 4.263444e+002
      endloop
   endfacet
   facet normal 0.000000e+000 -1.000000e+000 0.000000e+000
      outer loop
         vertex 4.359096e+002 4.024044e+002 4.263444e+002
         vertex 4.109097e+002 4.024044e+002 5.013444e+002
         vertex 4.109097e+002 4.024044e+002 4.013444e+002
      endloop
   endfacet
   facet normal 0.000000e+000 -1.000000e+000 0.000000e+000
      outer loop
         vertex 4.359096e+002 4.024044e+002 4.263444e+002
         vertex 4.109097e+002 4.024044e+002 4.013444e+002
         vertex 4.859096e+002 4.024044e+002 4.263444e+002
      endloop
   endfacet
   facet normal 0.000000e+000 -1.000000e+000 0.000000e+000
      outer loop
         vertex 4.859096e+002 4.024044e+002 4.263444e+002
         vertex 4.109097e+002 4.024044e+002 4.013444e+002
         vertex 5.109096e+002 4.024044e+002 4.013444e+002
      endloop
   endfacet
   facet normal 0.000000e+000 -1.000000e+000 0.000000e+000
      outer loop
         vertex 4.859096e+002 4.024044e+002 4.263444e+002
         vertex 5.109096e+002 4.024044e+002 4.013444e+002
         vertex 4.859096e+002 4.024044e+002 4.763444e+002
      endloop
   endfacet
   facet normal 0.000000e+000 -1.000000e+000 0.000000e+000
      outer loop
         vertex 4.859096e+002 4.024044e+002 4.763444e+002
         vertex 5.109096e+002 4.024044e+002 4.013444e+002
         vertex 5.109096e+002 4.024044e+002 5.013444e+002
      endloop
   endfacet
   facet normal 0.000000e+000 -1.000000e+000 0.000000e+000
      outer loop
         vertex 4.859096e+002 4.024044e+002 4.763444e+002
         vertex 5.109096e+002 4.024044e+002 5.013444e+002
         vertex 4.359096e+002 4.024044e+002 4.763444e+002
      endloop
   endfacet
   facet normal 0.000000e+000 -1.000000e+000 0.000000e+000
      outer loop
         vertex 4.359096e+002 4.024044e+002 4.763444e+002
         vertex 5.109096e+002 4.024044e+002 5.013444e+002
         vertex 4.109097e+002 4.024044e+002 5.013444e+002
      endloop
   endfacet
   facet normal 0.000000e+000 0.000000e+000 1.000000e+000
      outer loop
         vertex 4.859096e+002 4.774045e+002 5.013444e+002
         vertex 5.109096e+002 5.024044e+002 5.013444e+002
         vertex 4.109097e+002 5.024044e+002 5.013444e+002
      endloop
   endfacet
   facet normal 0.000000e+000 0.000000e+000 1.000000e+000
      outer loop
         vertex 5.109096e+002 5.024044e+002 5.013444e+002
         vertex 4.859096e+002 4.774045e+002 5.013444e+002
         vertex 5.109096e+002 4.024044e+002 5.013444e+002
      endloop
   endfacet
   facet normal 0.000000e+000 0.000000e+000 1.000000e+000
      outer loop
         vertex 5.109096e+002 4.024044e+002 5.013444e+002
         vertex 4.859096e+002 4.774045e+002 5.013444e+002
         vertex 4.859096e+002 4.274044e+002 5.013444e+002
      endloop
   endfacet
   facet normal 0.000000e+000 0.000000e+000 1.000000e+000
      outer loop
         vertex 5.109096e+002 4.024044e+002 5.013444e+002
         vertex 4.859096e+002 4.274044e+002 5.013444e+002
         vertex 4.109097e+002 4.024044e+002 5.013444e+002
      endloop
   endfacet
   facet normal 0.000000e+000 0.000000e+000 1.000000e+000
      outer loop
         vertex 4.109097e+002 4.024044e+002 5.013444e+002
         vertex 4.859096e+002 4.274044e+002 5.013444e+002
         vertex 4.359096e+002 4.274044e+002 5.013444e+002
      endloop
   endfacet
   facet normal 0.000000e+000 0.000000e+000 1.000000e+000
      outer loop
         vertex 4.109097e+002 4.024044e+002 5.013444e+002
         vertex 4.359096e+002 4.274044e+002 5.013444e+002
         vertex 4.109097e+002 5.024044e+002 5.013444e+002
      endloop
   endfacet
   facet normal 0.000000e+000 0.000000e+000 1.000000e+000
      outer loop
         vertex 4.109097e+002 5.024044e+002 5.013444e+002
         vertex 4.359096e+002 4.274044e+002 5.013444e+002
         vertex 4.359096e+002 4.774045e+002 5.013444e+002
      endloop
   endfacet
   facet normal 0.000000e+000 0.000000e+000 1.000000e+000
      outer loop
         vertex 4.109097e+002 5.024044e+002 5.013444e+002
         vertex 4.359096e+002 4.774045e+002 5.013444e+002
         vertex 4.859096e+002 4.774045e+002 5.013444e+002
      endloop
   endfacet
   facet normal 0.000000e+000 0.000000e+000 -1.000000e+000
      outer loop
         vertex 4.859096e+002 4.274044e+002 4.013444e+002
         vertex 5.109096e+002 4.024044e+002 4.013444e+002
         vertex 4.359096e+002 4.274044e+002 4.013444e+002
      endloop
   endfacet
   facet normal 0.000000e+000 0.000000e+000 -1.000000e+000
      outer loop
         vertex 4.359096e+002 4.274044e+002 4.013444e+002
         vertex 5.109096e+002 4.024044e+002 4.013444e+002
         vertex 4.109097e+002 4.024044e+002 4.013444e+002
      endloop
   endfacet
   facet normal 0.000000e+000 0.000000e+000 -1.000000e+000
      outer loop
         vertex 4.359096e+002 4.274044e+002 4.013444e+002
         vertex 4.109097e+002 4.024044e+002 4.013444e+002
         vertex 4.359096e+002 4.774045e+002 4.013444e+002
      endloop
   endfacet
   facet normal 0.000000e+000 0.000000e+000 -1.000000e+000
      outer loop
         vertex 4.359096e+002 4.774045e+002 4.013444e+002
         vertex 4.109097e+002 4.024044e+002 4.013444e+002
         vertex 4.109097e+002 5.024044e+002 4.013444e+002
      endloop
   endfacet
   facet normal 0.000000e+000 0.000000e+000 -1.000000e+000
      outer loop
         vertex 4.359096e+002 4.774045e+002 4.013444e+002
         vertex 4.109097e+002 5.024044e+002 4.013444e+002
         vertex 4.859096e+002 4.774045e+002 4.013444e+002
      endloop
   endfacet
   facet normal 0.000000e+000 0.000000e+000 -1.000000e+000
      outer loop
         vertex 4.859096e+002 4.774045e+002 4.013444e+002
         vertex 4.109097e+002 5.024044e+002 4.013444e+002
         vertex 5.109096e+002 5.024044e+002 4.013444e+002
      endloop
   endfacet
   facet normal 0.000000e+000 0.000000e+000 -1.000000e+000
      outer loop
         vertex 4.859096e+002 4.774045e+002 4.013444e+002
         vertex 5.109096e+002 5.024044e+002 4.013444e+002
         vertex 4.859096e+002 4.274044e+002 4.013444e+002
      endloop
   endfacet
   facet normal 0.000000e+000 0.000000e+000 -1.000000e+000
      outer loop
         vertex 4.859096e+002 4.274044e+002 4.013444e+002
         vertex 5.109096e+002 5.024044e+002 4.013444e+002
         vertex 5.109096e+002 4.024044e+002 4.013444e+002
      endloop
   endfacet
   facet normal -1.000000e+000 0.000000e+000 0.000000e+000
      outer loop
         vertex 4.859096e+002 4.274044e+002 4.763444e+002
         vertex 4.859096e+002 4.274044e+002 5.013444e+002
         vertex 4.859096e+002 4.774045e+002 4.763444e+002
      endloop
   endfacet
   facet normal -1.000000e+000 0.000000e+000 0.000000e+000
      outer loop
         vertex 4.859096e+002 4.774045e+002 4.763444e+002
         vertex 4.859096e+002 4.274044e+002 5.013444e+002
         vertex 4.859096e+002 4.774045e+002 5.013444e+002
      endloop
   endfacet
   facet normal 0.000000e+000 1.000000e+000 0.000000e+000
      outer loop
         vertex 4.859096e+002 4.274044e+002 4.263444e+002
         vertex 4.859096e+002 4.274044e+002 4.013444e+002
         vertex 4.359096e+002 4.274044e+002 4.263444e+002
      endloop
   endfacet
   facet normal 0.000000e+000 1.000000e+000 0.000000e+000
      outer loop
         vertex 4.359096e+002 4.274044e+002 4.263444e+002
         vertex 4.859096e+002 4.274044e+002 4.013444e+002
         vertex 4.359096e+002 4.274044e+002 4.013444e+002
      endloop
   endfacet
   facet normal 1.000000e+000 0.000000e+000 0.000000e+000
      outer loop
         vertex 4.359096e+002 4.774045e+002 4.763444e+002
         vertex 4.359096e+002 4.774045e+002 5.013444e+002
         vertex 4.359096e+002 4.274044e+002 4.763444e+002
      endloop
   endfacet
   facet normal 1.000000e+000 0.000000e+000 0.000000e+000
      outer loop
         vertex 4.359096e+002 4.274044e+002 4.763444e+002
         vertex 4.359096e+002 4.774045e+002 5.013444e+002
         vertex 4.359096e+002 4.274044e+002 5.013444e+002
      endloop
   endfacet
   facet normal 0.000000e+000 -1.000000e+000 0.000000e+000
      outer loop
         vertex 4.359096e+002 4.774045e+002 4.263444e+002
         vertex 4.359096e+002 4.774045e+002 4.013444e+002
         vertex 4.859096e+002 4.774045e+002 4.263444e+002
      endloop
   endfacet
   facet normal 0.000000e+000 -1.000000e+000 0.000000e+000
      outer loop
         vertex 4.859096e+002 4.774045e+002 4.263444e+002
         vertex 4.359096e+002 4.774045e+002 4.013444e+002
         vertex 4.859096e+002 4.774045e+002 4.013444e+002
      endloop
   endfacet
   facet normal 0.000000e+000 -1.387779e-016 -1.000000e+000
      outer loop
         vertex 4.109097e+002 4.774045e+002 4.763444e+002
         vertex 4.359096e+002 4.774045e+002 4.763444e+002
         vertex 4.109097e+002 4.274044e+002 4.763444e+002
      endloop
   endfacet
   facet normal 0.000000e+000 -1.387779e-016 -1.000000e+000
      outer loop
         vertex 4.109097e+002 4.274044e+002 4.763444e+002
         vertex 4.359096e+002 4.774045e+002 4.763444e+002
         vertex 4.359096e+002 4.274044e+002 4.763444e+002
      endloop
   endfacet
   facet normal 0.000000e+000 1.387779e-016 1.000000e+000
      outer loop
         vertex 4.109097e+002 4.274044e+002 4.263444e+002
         vertex 4.359096e+002 4.274044e+002 4.263444e+002
         vertex 4.109097e+002 4.774045e+002 4.263444e+002
      endloop
   endfacet
   facet normal 0.000000e+000 1.387779e-016 1.000000e+000
      outer loop
         vertex 4.109097e+002 4.774045e+002 4.263444e+002
         vertex 4.359096e+002 4.274044e+002 4.263444e+002
         vertex 4.359096e+002 4.774045e+002 4.263444e+002
      endloop
   endfacet
   facet normal 0.000000e+000 1.387779e-016 1.000000e+000
      outer loop
         vertex 5.109096e+002 4.774045e+002 4.263444e+002
         vertex 4.859096e+002 4.774045e+002 4.263444e+002
         vertex 5.109096e+002 4.274044e+002 4.263444e+002
      endloop
   endfacet
   facet normal 0.000000e+000 1.387779e-016 1.000000e+000
      outer loop
         vertex 5.109096e+002 4.274044e+002 4.263444e+002
         vertex 4.859096e+002 4.774045e+002 4.263444e+002
         vertex 4.859096e+002 4.274044e+002 4.263444e+002
      endloop
   endfacet
   facet normal 0.000000e+000 -1.387779e-016 -1.000000e+000
      outer loop
         vertex 5.109096e+002 4.274044e+002 4.763444e+002
         vertex 4.859096e+002 4.274044e+002 4.763444e+002
         vertex 5.109096e+002 4.774045e+002 4.763444e+002
      endloop
   endfacet
   facet normal 0.000000e+000 -1.387779e-016 -1.000000e+000
      outer loop
         vertex 5.109096e+002 4.774045e+002 4.763444e+002
         vertex 4.859096e+002 4.274044e+002 4.763444e+002
         vertex 4.859096e+002 4.774045e+002 4.763444e+002
      endloop
   endfacet
   facet normal 0.000000e+000 0.000000e+000 1.000000e+000
      outer loop
         vertex 4.359096e+002 5.024044e+002 4.263444e+002
         vertex 4.359096e+002 4.774045e+002 4.263444e+002
         vertex 4.859096e+002 5.024044e+002 4.263444e+002
      endloop
   endfacet
   facet normal 0.000000e+000 0.000000e+000 1.000000e+000
      outer loop
         vertex 4.859096e+002 5.024044e+002 4.263444e+002
         vertex 4.359096e+002 4.774045e+002 4.263444e+002
         vertex 4.859096e+002 4.774045e+002 4.263444e+002
      endloop
   endfacet
   facet normal 1.000000e+000 0.000000e+000 0.000000e+000
      outer loop
         vertex 4.359096e+002 5.024044e+002 4.763444e+002
         vertex 4.359096e+002 4.774045e+002 4.763444e+002
         vertex 4.359096e+002 5.024044e+002 4.263444e+002
      endloop
   endfacet
   facet normal 1.000000e+000 0.000000e+000 0.000000e+000
      outer loop
         vertex 4.359096e+002 5.024044e+002 4.263444e+002
         vertex 4.359096e+002 4.774045e+002 4.763444e+002
         vertex 4.359096e+002 4.774045e+002 4.263444e+002
      endloop
   endfacet
   facet normal 0.000000e+000 0.000000e+000 -1.000000e+000
      outer loop
         vertex 4.859096e+002 5.024044e+002 4.763444e+002
         vertex 4.859096e+002 4.774045e+002 4.763444e+002
         vertex 4.359096e+002 5.024044e+002 4.763444e+002
      endloop
   endfacet
   facet normal 0.000000e+000 0.000000e+000 -1.000000e+000
      outer loop
         vertex 4.359096e+002 5.024044e+002 4.763444e+002
         vertex 4.859096e+002 4.774045e+002 4.763444e+002
         vertex 4.359096e+002 4.774045e+002 4.763444e+002
      endloop
   endfacet
   facet normal -1.000000e+000 0.000000e+000 0.000000e+000
      outer loop
         vertex 4.859096e+002 5.024044e+002 4.263444e+002
         vertex 4.859096e+002 4.774045e+002 4.263444e+002
         vertex 4.859096e+002 5.024044e+002 4.763444e+002
      endloop
   endfacet
   facet normal -1.000000e+000 0.000000e+000 0.000000e+000
      outer loop
         vertex 4.859096e+002 5.024044e+002 4.763444e+002
         vertex 4.859096e+002 4.774045e+002 4.263444e+002
         vertex 4.859096e+002 4.774045e+002 4.763444e+002
      endloop
   endfacet
   facet normal 0.000000e+000 0.000000e+000 -1.000000e+000
      outer loop
         vertex 4.359096e+002 4.024044e+002 4.763444e+002
         vertex 4.359096e+002 4.274044e+002 4.763444e+002
         vertex 4.859096e+002 4.024044e+002 4.763444e+002
      endloop
   endfacet
   facet normal 0.000000e+000 0.000000e+000 -1.000000e+000
      outer loop
         vertex 4.859096e+002 4.024044e+002 4.763444e+002
         vertex 4.359096e+002 4.274044e+002 4.763444e+002
         vertex 4.859096e+002 4.274044e+002 4.763444e+002
      endloop
   endfacet
   facet normal 0.000000e+000 0.000000e+000 1.000000e+000
      outer loop
         vertex 4.859096e+002 4.024044e+002 4.263444e+002
         vertex 4.859096e+002 4.274044e+002 4.263444e+002
         vertex 4.359096e+002 4.024044e+002 4.263444e+002
      endloop
   endfacet
   facet normal 0.000000e+000 0.000000e+000 1.000000e+000
      outer loop
         vertex 4.359096e+002 4.024044e+002 4.263444e+002
         vertex 4.859096e+002 4.274044e+002 4.263444e+002
         vertex 4.359096e+002 4.274044e+002 4.263444e+002
      endloop
   endfacet
   facet normal 1.000000e+000 0.000000e+000 0.000000e+000
      outer loop
         vertex 4.359096e+002 4.024044e+002 4.263444e+002
         vertex 4.359096e+002 4.274044e+002 4.263444e+002
         vertex 4.359096e+002 4.024044e+002 4.763444e+002
      endloop
   endfacet
   facet normal 1.000000e+000 0.000000e+000 0.000000e+000
      outer loop
         vertex 4.359096e+002 4.024044e+002 4.763444e+002
         vertex 4.359096e+002 4.274044e+002 4.263444e+002
         vertex 4.359096e+002 4.274044e+002 4.763444e+002
      endloop
   endfacet
   facet normal -1.000000e+000 0.000000e+000 0.000000e+000
      outer loop
         vertex 4.859096e+002 4.024044e+002 4.763444e+002
         vertex 4.859096e+002 4.274044e+002 4.763444e+002
         vertex 4.859096e+002 4.024044e+002 4.263444e+002
      endloop
   endfacet
   facet normal -1.000000e+000 0.000000e+000 0.000000e+000
      outer loop
         vertex 4.859096e+002 4.024044e+002 4.263444e+002
         vertex 4.859096e+002 4.274044e+002 4.763444e+002
         vertex 4.859096e+002 4.274044e+002 4.263444e+002
      endloop
   endfacet
endsolid