solid CubeDouble - cube-1 G0-1
   facet normal 0.000000e+000 0.000000e+000 1.000000e+000
      outer loop
         vertex 8.359097e+002 4.774045e+002 8.013444e+002
         vertex 8.234096e+002 4.899044e+002 8.013444e+002
         vertex 8.359097e+002 4.274044e+002 8.013444e+002
      endloop
   endfacet
   facet normal 0.000000e+000 0.000000e+000 1.000000e+000
      outer loop
         vertex 8.359097e+002 4.274044e+002 8.013444e+002
         vertex 8.234096e+002 4.899044e+002 8.013444e+002
         vertex 8.234096e+002 4.149045e+002 8.013444e+002
      endloop
   endfacet
   facet normal 0.000000e+000 0.000000e+000 1.000000e+000
      outer loop
         vertex 8.359097e+002 4.274044e+002 8.013444e+002
         vertex 8.234096e+002 4.149045e+002 8.013444e+002
         vertex 8.859096e+002 4.274044e+002 8.013444e+002
      endloop
   endfacet
   facet normal 0.000000e+000 0.000000e+000 1.000000e+000
      outer loop
         vertex 8.859096e+002 4.274044e+002 8.013444e+002
         vertex 8.234096e+002 4.149045e+002 8.013444e+002
         vertex 8.984097e+002 4.149045e+002 8.013444e+002
      endloop
   endfacet
   facet normal 0.000000e+000 0.000000e+000 1.000000e+000
      outer loop
         vertex 8.859096e+002 4.274044e+002 8.013444e+002
         vertex 8.984097e+002 4.149045e+002 8.013444e+002
         vertex 8.859096e+002 4.774045e+002 8.013444e+002
      endloop
   endfacet
   facet normal 0.000000e+000 0.000000e+000 1.000000e+000
      outer loop
         vertex 8.859096e+002 4.774045e+002 8.013444e+002
         vertex 8.984097e+002 4.149045e+002 8.013444e+002
         vertex 8.984097e+002 4.899044e+002 8.013444e+002
      endloop
   endfacet
   facet normal 0.000000e+000 0.000000e+000 1.000000e+000
      outer loop
         vertex 8.859096e+002 4.774045e+002 8.013444e+002
         vertex 8.984097e+002 4.899044e+002 8.013444e+002
         vertex 8.359097e+002 4.774045e+002 8.013444e+002
      endloop
   endfacet
   facet normal 0.000000e+000 0.000000e+000 1.000000e+000
      outer loop
         vertex 8.359097e+002 4.774045e+002 8.013444e+002
         vertex 8.984097e+002 4.899044e+002 8.013444e+002
         vertex 8.234096e+002 4.899044e+002 8.013444e+002
      endloop
   endfacet
   facet normal -1.000000e+000 0.000000e+000 0.000000e+000
      outer loop
         vertex 8.234096e+002 4.149045e+002 8.013444e+002
         vertex 8.234096e+002 4.899044e+002 8.013444e+002
         vertex 8.234096e+002 4.149045e+002 5.013444e+002
      endloop
   endfacet
   facet normal -1.000000e+000 0.000000e+000 0.000000e+000
      outer loop
         vertex 8.234096e+002 4.149045e+002 5.013444e+002
         vertex 8.234096e+002 4.899044e+002 8.013444e+002
         vertex 8.234096e+002 4.899044e+002 5.013444e+002
      endloop
   endfacet
   facet normal 0.000000e+000 -1.000000e+000 0.000000e+000
      outer loop
         vertex 8.984097e+002 4.149045e+002 8.013444e+002
         vertex 8.234096e+002 4.149045e+002 8.013444e+002
         vertex 8.984097e+002 4.149045e+002 5.013444e+002
      endloop
   endfacet
   facet normal 0.000000e+000 -1.000000e+000 0.000000e+000
      outer loop
         vertex 8.984097e+002 4.149045e+002 5.013444e+002
         vertex 8.234096e+002 4.149045e+002 8.013444e+002
         vertex 8.234096e+002 4.149045e+002 5.013444e+002
      endloop
   endfacet
   facet normal 1.000000e+000 0.000000e+000 0.000000e+000
      outer loop
         vertex 8.984097e+002 4.899044e+002 8.013444e+002
         vertex 8.984097e+002 4.149045e+002 8.013444e+002
         vertex 8.984097e+002 4.899044e+002 5.013444e+002
      endloop
   endfacet
   facet normal 1.000000e+000 0.000000e+000 0.000000e+000
      outer loop
         vertex 8.984097e+002 4.899044e+002 5.013444e+002
         vertex 8.984097e+002 4.149045e+002 8.013444e+002
         vertex 8.984097e+002 4.149045e+002 5.013444e+002
      endloop
   endfacet
   facet normal -9.251858e-017 1.000000e+000 0.000000e+000
      outer loop
         vertex 8.234096e+002 4.899044e+002 8.013444e+002
         vertex 8.984097e+002 4.899044e+002 8.013444e+002
         vertex 8.234096e+002 4.899044e+002 5.013444e+002
      endloop
   endfacet
   facet normal -9.251858e-017 1.000000e+000 0.000000e+000
      outer loop
         vertex 8.234096e+002 4.899044e+002 5.013444e+002
         vertex 8.984097e+002 4.899044e+002 8.013444e+002
         vertex 8.984097e+002 4.899044e+002 5.013444e+002
      endloop
   endfacet
   facet normal 0.000000e+000 0.000000e+000 -1.000000e+000
      outer loop
         vertex 8.359097e+002 4.774045e+002 5.013444e+002
         vertex 8.234096e+002 4.899044e+002 5.013444e+002
         vertex 8.984097e+002 4.899044e+002 5.013444e+002
      endloop
   endfacet
   facet normal 0.000000e+000 0.000000e+000 -1.000000e+000
      outer loop
         vertex 8.234096e+002 4.899044e+002 5.013444e+002
         vertex 8.359097e+002 4.774045e+002 5.013444e+002
         vertex 8.234096e+002 4.149045e+002 5.013444e+002
      endloop
   endfacet
   facet normal 0.000000e+000 0.000000e+000 -1.000000e+000
      outer loop
         vertex 8.234096e+002 4.149045e+002 5.013444e+002
         vertex 8.359097e+002 4.774045e+002 5.013444e+002
         vertex 8.359097e+002 4.274044e+002 5.013444e+002
      endloop
   endfacet
   facet normal 0.000000e+000 0.000000e+000 -1.000000e+000
      outer loop
         vertex 8.234096e+002 4.149045e+002 5.013444e+002
         vertex 8.359097e+002 4.274044e+002 5.013444e+002
         vertex 8.984097e+002 4.149045e+002 5.013444e+002
      endloop
   endfacet
   facet normal 0.000000e+000 0.000000e+000 -1.000000e+000
      outer loop
         vertex 8.984097e+002 4.149045e+002 5.013444e+002
         vertex 8.359097e+002 4.274044e+002 5.013444e+002
         vertex 8.859096e+002 4.274044e+002 5.013444e+002
      endloop
   endfacet
   facet normal 0.000000e+000 0.000000e+000 -1.000000e+000
      outer loop
         vertex 8.984097e+002 4.149045e+002 5.013444e+002
         vertex 8.859096e+002 4.274044e+002 5.013444e+002
         vertex 8.984097e+002 4.899044e+002 5.013444e+002
      endloop
   endfacet
   facet normal 0.000000e+000 0.000000e+000 -1.000000e+000
      outer loop
         vertex 8.984097e+002 4.899044e+002 5.013444e+002
         vertex 8.859096e+002 4.274044e+002 5.013444e+002
         vertex 8.859096e+002 4.774045e+002 5.013444e+002
      endloop
   endfacet
   facet normal 0.000000e+000 0.000000e+000 -1.000000e+000
      outer loop
         vertex 8.984097e+002 4.899044e+002 5.013444e+002
         vertex 8.859096e+002 4.774045e+002 5.013444e+002
         vertex 8.359097e+002 4.774045e+002 5.013444e+002
      endloop
   endfacet
   facet normal -1.000000e+000 0.000000e+000 0.000000e+000
      outer loop
         vertex 8.359097e+002 4.274044e+002 8.213444e+002
         vertex 8.359097e+002 4.774045e+002 8.213444e+002
         vertex 8.359097e+002 4.274044e+002 8.013444e+002
      endloop
   endfacet
   facet normal -1.000000e+000 0.000000e+000 0.000000e+000
      outer loop
         vertex 8.359097e+002 4.274044e+002 8.013444e+002
         vertex 8.359097e+002 4.774045e+002 8.213444e+002
         vertex 8.359097e+002 4.774045e+002 8.013444e+002
      endloop
   endfacet
   facet normal 1.387779e-016 -1.000000e+000 0.000000e+000
      outer loop
         vertex 8.859096e+002 4.274044e+002 8.213444e+002
         vertex 8.359097e+002 4.274044e+002 8.213444e+002
         vertex 8.859096e+002 4.274044e+002 8.013444e+002
      endloop
   endfacet
   facet normal 1.387779e-016 -1.000000e+000 0.000000e+000
      outer loop
         vertex 8.859096e+002 4.274044e+002 8.013444e+002
         vertex 8.359097e+002 4.274044e+002 8.213444e+002
         vertex 8.359097e+002 4.274044e+002 8.013444e+002
      endloop
   endfacet
   facet normal 1.000000e+000 0.000000e+000 0.000000e+000
      outer loop
         vertex 8.859096e+002 4.774045e+002 8.213444e+002
         vertex 8.859096e+002 4.274044e+002 8.213444e+002
         vertex 8.859096e+002 4.774045e+002 8.013444e+002
      endloop
   endfacet
   facet normal 1.000000e+000 0.000000e+000 0.000000e+000
      outer loop
         vertex 8.859096e+002 4.774045e+002 8.013444e+002
         vertex 8.859096e+002 4.274044e+002 8.213444e+002
         vertex 8.859096e+002 4.274044e+002 8.013444e+002
      endloop
   endfacet
   facet normal -1.387779e-016 1.000000e+000 0.000000e+000
      outer loop
         vertex 8.359097e+002 4.774045e+002 8.213444e+002
         vertex 8.859096e+002 4.774045e+002 8.213444e+002
         vertex 8.359097e+002 4.774045e+002 8.013444e+002
      endloop
   endfacet
   facet normal -1.387779e-016 1.000000e+000 0.000000e+000
      outer loop
         vertex 8.359097e+002 4.774045e+002 8.013444e+002
         vertex 8.859096e+002 4.774045e+002 8.213444e+002
         vertex 8.859096e+002 4.774045e+002 8.013444e+002
      endloop
   endfacet
   facet normal 0.000000e+000 0.000000e+000 1.000000e+000
      outer loop
         vertex 8.859096e+002 4.274044e+002 8.213444e+002
         vertex 8.859096e+002 4.774045e+002 8.213444e+002
         vertex 8.359097e+002 4.274044e+002 8.213444e+002
      endloop
   endfacet
   facet normal 0.000000e+000 0.000000e+000 1.000000e+000
      outer loop
         vertex 8.359097e+002 4.274044e+002 8.213444e+002
         vertex 8.859096e+002 4.774045e+002 8.213444e+002
         vertex 8.359097e+002 4.774045e+002 8.213444e+002
      endloop
   endfacet
   facet normal -1.000000e+000 0.000000e+000 0.000000e+000
      outer loop
         vertex 8.359097e+002 4.774045e+002 4.813444e+002
         vertex 8.359097e+002 4.274044e+002 4.813444e+002
         vertex 8.359097e+002 4.774045e+002 5.013444e+002
      endloop
   endfacet
   facet normal -1.000000e+000 0.000000e+000 0.000000e+000
      outer loop
         vertex 8.359097e+002 4.774045e+002 5.013444e+002
         vertex 8.359097e+002 4.274044e+002 4.813444e+002
         vertex 8.359097e+002 4.274044e+002 5.013444e+002
      endloop
   endfacet
   facet normal -1.387779e-016 1.000000e+000 0.000000e+000
      outer loop
         vertex 8.859096e+002 4.774045e+002 4.813444e+002
         vertex 8.359097e+002 4.774045e+002 4.813444e+002
         vertex 8.859096e+002 4.774045e+002 5.013444e+002
      endloop
   endfacet
   facet normal -1.387779e-016 1.000000e+000 0.000000e+000
      outer loop
         vertex 8.859096e+002 4.774045e+002 5.013444e+002
         vertex 8.359097e+002 4.774045e+002 4.813444e+002
         vertex 8.359097e+002 4.774045e+002 5.013444e+002
      endloop
   endfacet
   facet normal 1.000000e+000 0.000000e+000 0.000000e+000
      outer loop
         vertex 8.859096e+002 4.274044e+002 4.813444e+002
         vertex 8.859096e+002 4.774045e+002 4.813444e+002
         vertex 8.859096e+002 4.274044e+002 5.013444e+002
      endloop
   endfacet
   facet normal 1.000000e+000 0.000000e+000 0.000000e+000
      outer loop
         vertex 8.859096e+002 4.274044e+002 5.013444e+002
         vertex 8.859096e+002 4.774045e+002 4.813444e+002
         vertex 8.859096e+002 4.774045e+002 5.013444e+002
      endloop
   endfacet
   facet normal 1.387779e-016 -1.000000e+000 0.000000e+000
      outer loop
         vertex 8.359097e+002 4.274044e+002 4.813444e+002
         vertex 8.859096e+002 4.274044e+002 4.813444e+002
         vertex 8.359097e+002 4.274044e+002 5.013444e+002
      endloop
   endfacet
   facet normal 1.387779e-016 -1.000000e+000 0.000000e+000
      outer loop
         vertex 8.359097e+002 4.274044e+002 5.013444e+002
         vertex 8.859096e+002 4.274044e+002 4.813444e+002
         vertex 8.859096e+002 4.274044e+002 5.013444e+002
      endloop
   endfacet
   facet normal 0.000000e+000 0.000000e+000 -1.000000e+000
      outer loop
         vertex 8.859096e+002 4.774045e+002 4.813444e+002
         vertex 8.859096e+002 4.274044e+002 4.813444e+002
         vertex 8.359097e+002 4.774045e+002 4.813444e+002
      endloop
   endfacet
   facet normal 0.000000e+000 0.000000e+000 -1.000000e+000
      outer loop
         vertex 8.359097e+002 4.774045e+002 4.813444e+002
         vertex 8.859096e+002 4.274044e+002 4.813444e+002
         vertex 8.359097e+002 4.274044e+002 4.813444e+002
      endloop
   endfacet
endsolid