solid CubeDouble - B0-4
   facet normal 1.000000e+000 -1.110223e-016 1.224647e-016
      outer loop
         vertex 4.109097e+002 4.274044e+002 2.634436e+001
         vertex 4.109097e+002 4.149045e+002 1.384436e+001
         vertex 4.109097e+002 4.774045e+002 2.634436e+001
      endloop
   endfacet
   facet normal 1.000000e+000 -1.110223e-016 1.224647e-016
      outer loop
         vertex 4.109097e+002 4.774045e+002 2.634436e+001
         vertex 4.109097e+002 4.149045e+002 1.384436e+001
         vertex 4.109097e+002 4.899044e+002 1.384436e+001
      endloop
   endfacet
   facet normal 1.000000e+000 -1.110223e-016 1.224647e-016
      outer loop
         vertex 4.109097e+002 4.774045e+002 2.634436e+001
         vertex 4.109097e+002 4.899044e+002 1.384436e+001
         vertex 4.109097e+002 4.774045e+002 7.634436e+001
      endloop
   endfacet
   facet normal 1.000000e+000 -1.110223e-016 1.224647e-016
      outer loop
         vertex 4.109097e+002 4.774045e+002 7.634436e+001
         vertex 4.109097e+002 4.899044e+002 1.384436e+001
         vertex 4.109097e+002 4.899044e+002 8.884437e+001
      endloop
   endfacet
   facet normal 1.000000e+000 -1.110223e-016 1.224647e-016
      outer loop
         vertex 4.109097e+002 4.774045e+002 7.634436e+001
         vertex 4.109097e+002 4.899044e+002 8.884437e+001
         vertex 4.109097e+002 4.274044e+002 7.634436e+001
      endloop
   endfacet
   facet normal 1.000000e+000 -1.110223e-016 1.224647e-016
      outer loop
         vertex 4.109097e+002 4.274044e+002 7.634436e+001
         vertex 4.109097e+002 4.899044e+002 8.884437e+001
         vertex 4.109097e+002 4.149045e+002 8.884437e+001
      endloop
   endfacet
   facet normal 1.000000e+000 -1.110223e-016 1.224647e-016
      outer loop
         vertex 4.109097e+002 4.274044e+002 7.634436e+001
         vertex 4.109097e+002 4.149045e+002 8.884437e+001
         vertex 4.109097e+002 4.274044e+002 2.634436e+001
      endloop
   endfacet
   facet normal 1.000000e+000 -1.110223e-016 1.224647e-016
      outer loop
         vertex 4.109097e+002 4.274044e+002 2.634436e+001
         vertex 4.109097e+002 4.149045e+002 8.884437e+001
         vertex 4.109097e+002 4.149045e+002 1.384436e+001
      endloop
   endfacet
   facet normal 1.224647e-016 1.270359e-033 -1.000000e+000
      outer loop
         vertex 4.109097e+002 4.899044e+002 1.384436e+001
         vertex 4.109097e+002 4.149045e+002 1.384436e+001
         vertex 1.109096e+002 4.899044e+002 1.384436e+001
      endloop
   endfacet
   facet normal 1.224647e-016 1.270359e-033 -1.000000e+000
      outer loop
         vertex 1.109096e+002 4.899044e+002 1.384436e+001
         vertex 4.109097e+002 4.149045e+002 1.384436e+001
         vertex 1.109096e+002 4.149045e+002 1.384436e+001
      endloop
   endfacet
   facet normal -1.105146e-032 1.000000e+000 -1.232595e-032
      outer loop
         vertex 4.109097e+002 4.899044e+002 8.884437e+001
         vertex 4.109097e+002 4.899044e+002 1.384436e+001
         vertex 1.109096e+002 4.899044e+002 8.884437e+001
      endloop
   endfacet
   facet normal -1.105146e-032 1.000000e+000 -1.232595e-032
      outer loop
         vertex 1.109096e+002 4.899044e+002 8.884437e+001
         vertex 4.109097e+002 4.899044e+002 1.384436e+001
         vertex 1.109096e+002 4.899044e+002 1.384436e+001
      endloop
   endfacet
   facet normal -1.224647e-016 -1.270359e-033 1.000000e+000
      outer loop
         vertex 4.109097e+002 4.149045e+002 8.884437e+001
         vertex 4.109097e+002 4.899044e+002 8.884437e+001
         vertex 1.109096e+002 4.149045e+002 8.884437e+001
      endloop
   endfacet
   facet normal -1.224647e-016 -1.270359e-033 1.000000e+000
      outer loop
         vertex 1.109096e+002 4.149045e+002 8.884437e+001
         vertex 4.109097e+002 4.899044e+002 8.884437e+001
         vertex 1.109096e+002 4.899044e+002 8.884437e+001
      endloop
   endfacet
   facet normal 2.238172e-032 -1.000000e+000 -9.251858e-017
      outer loop
         vertex 4.109097e+002 4.149045e+002 1.384436e+001
         vertex 4.109097e+002 4.149045e+002 8.884437e+001
         vertex 1.109096e+002 4.149045e+002 1.384436e+001
      endloop
   endfacet
   facet normal 2.238172e-032 -1.000000e+000 -9.251858e-017
      outer loop
         vertex 1.109096e+002 4.149045e+002 1.384436e+001
         vertex 4.109097e+002 4.149045e+002 8.884437e+001
         vertex 1.109096e+002 4.149045e+002 8.884437e+001
      endloop
   endfacet
   facet normal -1.000000e+000 1.110223e-016 -1.224647e-016
      outer loop
         vertex 1.109096e+002 4.274044e+002 2.634436e+001
         vertex 1.109096e+002 4.149045e+002 1.384436e+001
         vertex 1.109096e+002 4.149045e+002 8.884437e+001
      endloop
   endfacet
   facet normal -1.000000e+000 1.110223e-016 -1.224647e-016
      outer loop
         vertex 1.109096e+002 4.149045e+002 1.384436e+001
         vertex 1.109096e+002 4.274044e+002 2.634436e+001
         vertex 1.109096e+002 4.899044e+002 1.384436e+001
      endloop
   endfacet
   facet normal -1.000000e+000 1.110223e-016 -1.224647e-016
      outer loop
         vertex 1.109096e+002 4.899044e+002 1.384436e+001
         vertex 1.109096e+002 4.274044e+002 2.634436e+001
         vertex 1.109096e+002 4.774045e+002 2.634436e+001
      endloop
   endfacet
   facet normal -1.000000e+000 1.110223e-016 -1.224647e-016
      outer loop
         vertex 1.109096e+002 4.899044e+002 1.384436e+001
         vertex 1.109096e+002 4.774045e+002 2.634436e+001
         vertex 1.109096e+002 4.899044e+002 8.884437e+001
      endloop
   endfacet
   facet normal -1.000000e+000 1.110223e-016 -1.224647e-016
      outer loop
         vertex 1.109096e+002 4.899044e+002 8.884437e+001
         vertex 1.109096e+002 4.774045e+002 2.634436e+001
         vertex 1.109096e+002 4.774045e+002 7.634436e+001
      endloop
   endfacet
   facet normal -1.000000e+000 1.110223e-016 -1.224647e-016
      outer loop
         vertex 1.109096e+002 4.899044e+002 8.884437e+001
         vertex 1.109096e+002 4.774045e+002 7.634436e+001
         vertex 1.109096e+002 4.149045e+002 8.884437e+001
      endloop
   endfacet
   facet normal -1.000000e+000 1.110223e-016 -1.224647e-016
      outer loop
         vertex 1.109096e+002 4.149045e+002 8.884437e+001
         vertex 1.109096e+002 4.774045e+002 7.634436e+001
         vertex 1.109096e+002 4.274044e+002 7.634436e+001
      endloop
   endfacet
   facet normal -1.000000e+000 1.110223e-016 -1.224647e-016
      outer loop
         vertex 1.109096e+002 4.149045e+002 8.884437e+001
         vertex 1.109096e+002 4.274044e+002 7.634436e+001
         vertex 1.109096e+002 4.274044e+002 2.634436e+001
      endloop
   endfacet
   facet normal 1.224647e-016 1.270359e-033 -1.000000e+000
      outer loop
         vertex 4.309096e+002 4.774045e+002 2.634436e+001
         vertex 4.309096e+002 4.274044e+002 2.634436e+001
         vertex 4.109097e+002 4.774045e+002 2.634436e+001
      endloop
   endfacet
   facet normal 1.224647e-016 1.270359e-033 -1.000000e+000
      outer loop
         vertex 4.109097e+002 4.774045e+002 2.634436e+001
         vertex 4.309096e+002 4.274044e+002 2.634436e+001
         vertex 4.109097e+002 4.274044e+002 2.634436e+001
      endloop
   endfacet
   facet normal -2.804685e-032 1.000000e+000 1.387779e-016
      outer loop
         vertex 4.309096e+002 4.774045e+002 7.634436e+001
         vertex 4.309096e+002 4.774045e+002 2.634436e+001
         vertex 4.109097e+002 4.774045e+002 7.634436e+001
      endloop
   endfacet
   facet normal -2.804685e-032 1.000000e+000 1.387779e-016
      outer loop
         vertex 4.109097e+002 4.774045e+002 7.634436e+001
         vertex 4.309096e+002 4.774045e+002 2.634436e+001
         vertex 4.109097e+002 4.774045e+002 2.634436e+001
      endloop
   endfacet
   facet normal -1.224647e-016 -1.270359e-033 1.000000e+000
      outer loop
         vertex 4.309096e+002 4.274044e+002 7.634436e+001
         vertex 4.309096e+002 4.774045e+002 7.634436e+001
         vertex 4.109097e+002 4.274044e+002 7.634436e+001
      endloop
   endfacet
   facet normal -1.224647e-016 -1.270359e-033 1.000000e+000
      outer loop
         vertex 4.109097e+002 4.274044e+002 7.634436e+001
         vertex 4.309096e+002 4.774045e+002 7.634436e+001
         vertex 4.109097e+002 4.774045e+002 7.634436e+001
      endloop
   endfacet
   facet normal 2.804685e-032 -1.000000e+000 -1.387779e-016
      outer loop
         vertex 4.309096e+002 4.274044e+002 2.634436e+001
         vertex 4.309096e+002 4.274044e+002 7.634436e+001
         vertex 4.109097e+002 4.274044e+002 2.634436e+001
      endloop
   endfacet
   facet normal 2.804685e-032 -1.000000e+000 -1.387779e-016
      outer loop
         vertex 4.109097e+002 4.274044e+002 2.634436e+001
         vertex 4.309096e+002 4.274044e+002 7.634436e+001
         vertex 4.109097e+002 4.274044e+002 7.634436e+001
      endloop
   endfacet
   facet normal 1.000000e+000 -1.110223e-016 1.224647e-016
      outer loop
         vertex 4.309096e+002 4.774045e+002 7.634436e+001
         vertex 4.309096e+002 4.274044e+002 7.634436e+001
         vertex 4.309096e+002 4.774045e+002 2.634436e+001
      endloop
   endfacet
   facet normal 1.000000e+000 -1.110223e-016 1.224647e-016
      outer loop
         vertex 4.309096e+002 4.774045e+002 2.634436e+001
         vertex 4.309096e+002 4.274044e+002 7.634436e+001
         vertex 4.309096e+002 4.274044e+002 2.634436e+001
      endloop
   endfacet
   facet normal 1.224647e-016 1.270359e-033 -1.000000e+000
      outer loop
         vertex 9.090964e+001 4.274044e+002 2.634436e+001
         vertex 9.090964e+001 4.774045e+002 2.634436e+001
         vertex 1.109096e+002 4.274044e+002 2.634436e+001
      endloop
   endfacet
   facet normal 1.224647e-016 1.270359e-033 -1.000000e+000
      outer loop
         vertex 1.109096e+002 4.274044e+002 2.634436e+001
         vertex 9.090964e+001 4.774045e+002 2.634436e+001
         vertex 1.109096e+002 4.774045e+002 2.634436e+001
      endloop
   endfacet
   facet normal 2.804685e-032 -1.000000e+000 -1.387779e-016
      outer loop
         vertex 9.090964e+001 4.274044e+002 7.634436e+001
         vertex 9.090964e+001 4.274044e+002 2.634436e+001
         vertex 1.109096e+002 4.274044e+002 7.634436e+001
      endloop
   endfacet
   facet normal 2.804685e-032 -1.000000e+000 -1.387779e-016
      outer loop
         vertex 1.109096e+002 4.274044e+002 7.634436e+001
         vertex 9.090964e+001 4.274044e+002 2.634436e+001
         vertex 1.109096e+002 4.274044e+002 2.634436e+001
      endloop
   endfacet
   facet normal -1.224647e-016 -1.270359e-033 1.000000e+000
      outer loop
         vertex 9.090964e+001 4.774045e+002 7.634436e+001
         vertex 9.090964e+001 4.274044e+002 7.634436e+001
         vertex 1.109096e+002 4.774045e+002 7.634436e+001
      endloop
   endfacet
   facet normal -1.224647e-016 -1.270359e-033 1.000000e+000
      outer loop
         vertex 1.109096e+002 4.774045e+002 7.634436e+001
         vertex 9.090964e+001 4.274044e+002 7.634436e+001
         vertex 1.109096e+002 4.274044e+002 7.634436e+001
      endloop
   endfacet
   facet normal -2.804685e-032 1.000000e+000 1.387779e-016
      outer loop
         vertex 9.090964e+001 4.774045e+002 2.634436e+001
         vertex 9.090964e+001 4.774045e+002 7.634436e+001
         vertex 1.109096e+002 4.774045e+002 2.634436e+001
      endloop
   endfacet
   facet normal -2.804685e-032 1.000000e+000 1.387779e-016
      outer loop
         vertex 1.109096e+002 4.774045e+002 2.634436e+001
         vertex 9.090964e+001 4.774045e+002 7.634436e+001
         vertex 1.109096e+002 4.774045e+002 7.634436e+001
      endloop
   endfacet
   facet normal -1.000000e+000 1.110223e-016 -1.224647e-016
      outer loop
         vertex 9.090964e+001 4.274044e+002 7.634436e+001
         vertex 9.090964e+001 4.774045e+002 7.634436e+001
         vertex 9.090964e+001 4.274044e+002 2.634436e+001
      endloop
   endfacet
   facet normal -1.000000e+000 1.110223e-016 -1.224647e-016
      outer loop
         vertex 9.090964e+001 4.274044e+002 2.634436e+001
         vertex 9.090964e+001 4.774045e+002 7.634436e+001
         vertex 9.090964e+001 4.774045e+002 2.634436e+001
      endloop
   endfacet
endsolid