solid I - L0-1
   facet normal 0.000000e+000 1.000000e+000 0.000000e+000
      outer loop
         vertex 3.072196e+001 4.024301e+002 2.683158e+001
         vertex 1.822196e+001 4.024301e+002 1.433158e+001
         vertex 3.072196e+001 4.024301e+002 7.683158e+001
      endloop
   endfacet
   facet normal 0.000000e+000 1.000000e+000 0.000000e+000
      outer loop
         vertex 3.072196e+001 4.024301e+002 7.683158e+001
         vertex 1.822196e+001 4.024301e+002 1.433158e+001
         vertex 1.822196e+001 4.024301e+002 8.933158e+001
      endloop
   endfacet
   facet normal 0.000000e+000 1.000000e+000 0.000000e+000
      outer loop
         vertex 3.072196e+001 4.024301e+002 7.683158e+001
         vertex 1.822196e+001 4.024301e+002 8.933158e+001
         vertex 8.072196e+001 4.024301e+002 7.683158e+001
      endloop
   endfacet
   facet normal 0.000000e+000 1.000000e+000 0.000000e+000
      outer loop
         vertex 8.072196e+001 4.024301e+002 7.683158e+001
         vertex 1.822196e+001 4.024301e+002 8.933158e+001
         vertex 9.322196e+001 4.024301e+002 8.933158e+001
      endloop
   endfacet
   facet normal 0.000000e+000 1.000000e+000 0.000000e+000
      outer loop
         vertex 8.072196e+001 4.024301e+002 7.683158e+001
         vertex 9.322196e+001 4.024301e+002 8.933158e+001
         vertex 8.072196e+001 4.024301e+002 2.683158e+001
      endloop
   endfacet
   facet normal 0.000000e+000 1.000000e+000 0.000000e+000
      outer loop
         vertex 8.072196e+001 4.024301e+002 2.683158e+001
         vertex 9.322196e+001 4.024301e+002 8.933158e+001
         vertex 9.322196e+001 4.024301e+002 1.433158e+001
      endloop
   endfacet
   facet normal 0.000000e+000 1.000000e+000 0.000000e+000
      outer loop
         vertex 8.072196e+001 4.024301e+002 2.683158e+001
         vertex 9.322196e+001 4.024301e+002 1.433158e+001
         vertex 3.072196e+001 4.024301e+002 2.683158e+001
      endloop
   endfacet
   facet normal 0.000000e+000 1.000000e+000 0.000000e+000
      outer loop
         vertex 3.072196e+001 4.024301e+002 2.683158e+001
         vertex 9.322196e+001 4.024301e+002 1.433158e+001
         vertex 1.822196e+001 4.024301e+002 1.433158e+001
      endloop
   endfacet
   facet normal -1.000000e+000 0.000000e+000 1.110223e-016
      outer loop
         vertex 1.822196e+001 4.024301e+002 8.933158e+001
         vertex 1.822196e+001 4.024301e+002 1.433158e+001
         vertex 1.822196e+001 1.024301e+002 8.933158e+001
      endloop
   endfacet
   facet normal -1.000000e+000 0.000000e+000 1.110223e-016
      outer loop
         vertex 1.822196e+001 1.024301e+002 8.933158e+001
         vertex 1.822196e+001 4.024301e+002 1.433158e+001
         vertex 1.822196e+001 1.024301e+002 1.433158e+001
      endloop
   endfacet
   facet normal 1.110223e-016 0.000000e+000 1.000000e+000
      outer loop
         vertex 9.322196e+001 4.024301e+002 8.933158e+001
         vertex 1.822196e+001 4.024301e+002 8.933158e+001
         vertex 9.322196e+001 1.024301e+002 8.933158e+001
      endloop
   endfacet
   facet normal 1.110223e-016 0.000000e+000 1.000000e+000
      outer loop
         vertex 9.322196e+001 1.024301e+002 8.933158e+001
         vertex 1.822196e+001 4.024301e+002 8.933158e+001
         vertex 1.822196e+001 1.024301e+002 8.933158e+001
      endloop
   endfacet
   facet normal 1.000000e+000 0.000000e+000 -1.110223e-016
      outer loop
         vertex 9.322196e+001 4.024301e+002 1.433158e+001
         vertex 9.322196e+001 4.024301e+002 8.933158e+001
         vertex 9.322196e+001 1.024301e+002 1.433158e+001
      endloop
   endfacet
   facet normal 1.000000e+000 0.000000e+000 -1.110223e-016
      outer loop
         vertex 9.322196e+001 1.024301e+002 1.433158e+001
         vertex 9.322196e+001 4.024301e+002 8.933158e+001
         vertex 9.322196e+001 1.024301e+002 8.933158e+001
      endloop
   endfacet
   facet normal -2.035409e-016 0.000000e+000 -1.000000e+000
      outer loop
         vertex 1.822196e+001 4.024301e+002 1.433158e+001
         vertex 9.322196e+001 4.024301e+002 1.433158e+001
         vertex 1.822196e+001 1.024301e+002 1.433158e+001
      endloop
   endfacet
   facet normal -2.035409e-016 0.000000e+000 -1.000000e+000
      outer loop
         vertex 1.822196e+001 1.024301e+002 1.433158e+001
         vertex 9.322196e+001 4.024301e+002 1.433158e+001
         vertex 9.322196e+001 1.024301e+002 1.433158e+001
      endloop
   endfacet
   facet normal 0.000000e+000 -1.000000e+000 -0.000000e+000
      outer loop
         vertex 3.072196e+001 1.024301e+002 2.683158e+001
         vertex 1.822196e+001 1.024301e+002 1.433158e+001
         vertex 9.322196e+001 1.024301e+002 1.433158e+001
      endloop
   endfacet
   facet normal 0.000000e+000 -1.000000e+000 -0.000000e+000
      outer loop
         vertex 1.822196e+001 1.024301e+002 1.433158e+001
         vertex 3.072196e+001 1.024301e+002 2.683158e+001
         vertex 1.822196e+001 1.024301e+002 8.933158e+001
      endloop
   endfacet
   facet normal 0.000000e+000 -1.000000e+000 -0.000000e+000
      outer loop
         vertex 1.822196e+001 1.024301e+002 8.933158e+001
         vertex 3.072196e+001 1.024301e+002 2.683158e+001
         vertex 3.072196e+001 1.024301e+002 7.683158e+001
      endloop
   endfacet
   facet normal 0.000000e+000 -1.000000e+000 -0.000000e+000
      outer loop
         vertex 1.822196e+001 1.024301e+002 8.933158e+001
         vertex 3.072196e+001 1.024301e+002 7.683158e+001
         vertex 9.322196e+001 1.024301e+002 8.933158e+001
      endloop
   endfacet
   facet normal 0.000000e+000 -1.000000e+000 -0.000000e+000
      outer loop
         vertex 9.322196e+001 1.024301e+002 8.933158e+001
         vertex 3.072196e+001 1.024301e+002 7.683158e+001
         vertex 8.072196e+001 1.024301e+002 7.683158e+001
      endloop
   endfacet
   facet normal 0.000000e+000 -1.000000e+000 -0.000000e+000
      outer loop
         vertex 9.322196e+001 1.024301e+002 8.933158e+001
         vertex 8.072196e+001 1.024301e+002 7.683158e+001
         vertex 9.322196e+001 1.024301e+002 1.433158e+001
      endloop
   endfacet
   facet normal 0.000000e+000 -1.000000e+000 -0.000000e+000
      outer loop
         vertex 9.322196e+001 1.024301e+002 1.433158e+001
         vertex 8.072196e+001 1.024301e+002 7.683158e+001
         vertex 8.072196e+001 1.024301e+002 2.683158e+001
      endloop
   endfacet
   facet normal 0.000000e+000 -1.000000e+000 -0.000000e+000
      outer loop
         vertex 9.322196e+001 1.024301e+002 1.433158e+001
         vertex 8.072196e+001 1.024301e+002 2.683158e+001
         vertex 3.072196e+001 1.024301e+002 2.683158e+001
      endloop
   endfacet
   facet normal -1.000000e+000 0.000000e+000 1.110223e-016
      outer loop
         vertex 3.072196e+001 4.224301e+002 7.683158e+001
         vertex 3.072196e+001 4.224301e+002 2.683158e+001
         vertex 3.072196e+001 4.024301e+002 7.683158e+001
      endloop
   endfacet
   facet normal -1.000000e+000 0.000000e+000 1.110223e-016
      outer loop
         vertex 3.072196e+001 4.024301e+002 7.683158e+001
         vertex 3.072196e+001 4.224301e+002 2.683158e+001
         vertex 3.072196e+001 4.024301e+002 2.683158e+001
      endloop
   endfacet
   facet normal 2.498002e-016 0.000000e+000 1.000000e+000
      outer loop
         vertex 8.072196e+001 4.224301e+002 7.683158e+001
         vertex 3.072196e+001 4.224301e+002 7.683158e+001
         vertex 8.072196e+001 4.024301e+002 7.683158e+001
      endloop
   endfacet
   facet normal 2.498002e-016 0.000000e+000 1.000000e+000
      outer loop
         vertex 8.072196e+001 4.024301e+002 7.683158e+001
         vertex 3.072196e+001 4.224301e+002 7.683158e+001
         vertex 3.072196e+001 4.024301e+002 7.683158e+001
      endloop
   endfacet
   facet normal 1.000000e+000 0.000000e+000 -1.110223e-016
      outer loop
         vertex 8.072196e+001 4.224301e+002 2.683158e+001
         vertex 8.072196e+001 4.224301e+002 7.683158e+001
         vertex 8.072196e+001 4.024301e+002 2.683158e+001
      endloop
   endfacet
   facet normal 1.000000e+000 0.000000e+000 -1.110223e-016
      outer loop
         vertex 8.072196e+001 4.024301e+002 2.683158e+001
         vertex 8.072196e+001 4.224301e+002 7.683158e+001
         vertex 8.072196e+001 4.024301e+002 7.683158e+001
      endloop
   endfacet
   facet normal -2.498002e-016 0.000000e+000 -1.000000e+000
      outer loop
         vertex 3.072196e+001 4.224301e+002 2.683158e+001
         vertex 8.072196e+001 4.224301e+002 2.683158e+001
         vertex 3.072196e+001 4.024301e+002 2.683158e+001
      endloop
   endfacet
   facet normal -2.498002e-016 0.000000e+000 -1.000000e+000
      outer loop
         vertex 3.072196e+001 4.024301e+002 2.683158e+001
         vertex 8.072196e+001 4.224301e+002 2.683158e+001
         vertex 8.072196e+001 4.024301e+002 2.683158e+001
      endloop
   endfacet
   facet normal 0.000000e+000 1.000000e+000 0.000000e+000
      outer loop
         vertex 8.072196e+001 4.224301e+002 7.683158e+001
         vertex 8.072196e+001 4.224301e+002 2.683158e+001
         vertex 3.072196e+001 4.224301e+002 7.683158e+001
      endloop
   endfacet
   facet normal 0.000000e+000 1.000000e+000 0.000000e+000
      outer loop
         vertex 3.072196e+001 4.224301e+002 7.683158e+001
         vertex 8.072196e+001 4.224301e+002 2.683158e+001
         vertex 3.072196e+001 4.224301e+002 2.683158e+001
      endloop
   endfacet
   facet normal -1.000000e+000 0.000000e+000 1.110223e-016
      outer loop
         vertex 3.072196e+001 8.243012e+001 2.683158e+001
         vertex 3.072196e+001 8.243012e+001 7.683158e+001
         vertex 3.072196e+001 1.024301e+002 2.683158e+001
      endloop
   endfacet
   facet normal -1.000000e+000 0.000000e+000 1.110223e-016
      outer loop
         vertex 3.072196e+001 1.024301e+002 2.683158e+001
         vertex 3.072196e+001 8.243012e+001 7.683158e+001
         vertex 3.072196e+001 1.024301e+002 7.683158e+001
      endloop
   endfacet
   facet normal -2.498002e-016 0.000000e+000 -1.000000e+000
      outer loop
         vertex 8.072196e+001 8.243012e+001 2.683158e+001
         vertex 3.072196e+001 8.243012e+001 2.683158e+001
         vertex 8.072196e+001 1.024301e+002 2.683158e+001
      endloop
   endfacet
   facet normal -2.498002e-016 0.000000e+000 -1.000000e+000
      outer loop
         vertex 8.072196e+001 1.024301e+002 2.683158e+001
         vertex 3.072196e+001 8.243012e+001 2.683158e+001
         vertex 3.072196e+001 1.024301e+002 2.683158e+001
      endloop
   endfacet
   facet normal 1.000000e+000 0.000000e+000 -1.110223e-016
      outer loop
         vertex 8.072196e+001 8.243012e+001 7.683158e+001
         vertex 8.072196e+001 8.243012e+001 2.683158e+001
         vertex 8.072196e+001 1.024301e+002 7.683158e+001
      endloop
   endfacet
   facet normal 1.000000e+000 0.000000e+000 -1.110223e-016
      outer loop
         vertex 8.072196e+001 1.024301e+002 7.683158e+001
         vertex 8.072196e+001 8.243012e+001 2.683158e+001
         vertex 8.072196e+001 1.024301e+002 2.683158e+001
      endloop
   endfacet
   facet normal 2.498002e-016 0.000000e+000 1.000000e+000
      outer loop
         vertex 3.072196e+001 8.243012e+001 7.683158e+001
         vertex 8.072196e+001 8.243012e+001 7.683158e+001
         vertex 3.072196e+001 1.024301e+002 7.683158e+001
      endloop
   endfacet
   facet normal 2.498002e-016 0.000000e+000 1.000000e+000
      outer loop
         vertex 3.072196e+001 1.024301e+002 7.683158e+001
         vertex 8.072196e+001 8.243012e+001 7.683158e+001
         vertex 8.072196e+001 1.024301e+002 7.683158e+001
      endloop
   endfacet
   facet normal 0.000000e+000 -1.000000e+000 -0.000000e+000
      outer loop
         vertex 8.072196e+001 8.243012e+001 2.683158e+001
         vertex 8.072196e+001 8.243012e+001 7.683158e+001
         vertex 3.072196e+001 8.243012e+001 2.683158e+001
      endloop
   endfacet
   facet normal 0.000000e+000 -1.000000e+000 -0.000000e+000
      outer loop
         vertex 3.072196e+001 8.243012e+001 2.683158e+001
         vertex 8.072196e+001 8.243012e+001 7.683158e+001
         vertex 3.072196e+001 8.243012e+001 7.683158e+001
      endloop
   endfacet
endsolid