solid PumpWithRealBoltsAndNuts - Ext-Pipe
   facet normal -1.462918e-016 5.362497e-002 -9.985611e-001
      outer loop
         vertex 3.341198e+002 1.067199e+002 6.680576e+001
         vertex 2.421199e+002 1.091261e+002 6.700000e+001
         vertex 3.341198e+002 1.091261e+002 6.700000e+001
      endloop
   endfacet
   facet normal -1.404431e-016 -5.362497e-002 -9.985611e-001
      outer loop
         vertex 3.341198e+002 1.091261e+002 6.700000e+001
         vertex 2.421199e+002 1.091261e+002 6.700000e+001
         vertex 2.421199e+002 1.115322e+002 6.680576e+001
      endloop
   endfacet
   facet normal -1.368972e-016 -1.072499e-001 -9.942321e-001
      outer loop
         vertex 3.341198e+002 1.091261e+002 6.700000e+001
         vertex 2.421199e+002 1.115322e+002 6.680576e+001
         vertex 3.341198e+002 1.115322e+002 6.680576e+001
      endloop
   endfacet
   facet normal -1.286542e-016 -2.131110e-001 -9.770280e-001
      outer loop
         vertex 3.341198e+002 1.115322e+002 6.680576e+001
         vertex 2.421199e+002 1.115322e+002 6.680576e+001
         vertex 2.421199e+002 1.138761e+002 6.622805e+001
      endloop
   endfacet
   facet normal -1.239571e-016 -2.653471e-001 -9.641529e-001
      outer loop
         vertex 3.341198e+002 1.115322e+002 6.680576e+001
         vertex 2.421199e+002 1.138761e+002 6.622805e+001
         vertex 3.341198e+002 1.138761e+002 6.622805e+001
      endloop
   endfacet
   facet normal -1.135333e-016 -3.670776e-001 -9.301903e-001
      outer loop
         vertex 3.341198e+002 1.138761e+002 6.622805e+001
         vertex 2.421199e+002 1.138761e+002 6.622805e+001
         vertex 2.421199e+002 1.160969e+002 6.528184e+001
      endloop
   endfacet
   facet normal -1.078066e-016 -4.165719e-001 -9.091028e-001
      outer loop
         vertex 3.341198e+002 1.138761e+002 6.622805e+001
         vertex 2.421199e+002 1.160969e+002 6.528184e+001
         vertex 3.341198e+002 1.160969e+002 6.528184e+001
      endloop
   endfacet
   facet normal -9.547189e-017 -5.115370e-001 -8.592612e-001
      outer loop
         vertex 3.341198e+002 1.160969e+002 6.528184e+001
         vertex 2.421199e+002 1.160969e+002 6.528184e+001
         vertex 2.421199e+002 1.181372e+002 6.399164e+001
      endloop
   endfacet
   facet normal -8.886391e-017 -5.570078e-001 -8.305073e-001
      outer loop
         vertex 3.341198e+002 1.160969e+002 6.528184e+001
         vertex 2.421199e+002 1.181372e+002 6.399164e+001
         vertex 3.341198e+002 1.181372e+002 6.399164e+001
      endloop
   endfacet
   facet normal -7.493782e-017 -6.427480e-001 -7.660777e-001
      outer loop
         vertex 3.341198e+002 1.181372e+002 6.399164e+001
         vertex 2.421199e+002 1.181372e+002 6.399164e+001
         vertex 2.421199e+002 1.199441e+002 6.239087e+001
      endloop
   endfacet
   facet normal -6.761971e-017 -6.830174e-001 -7.304021e-001
      outer loop
         vertex 3.341198e+002 1.181372e+002 6.399164e+001
         vertex 2.421199e+002 1.199441e+002 6.239087e+001
         vertex 3.341198e+002 1.199441e+002 6.239087e+001
      endloop
   endfacet
   facet normal -5.246290e-017 -7.573121e-001 -6.530532e-001
      outer loop
         vertex 3.341198e+002 1.199441e+002 6.239087e+001
         vertex 2.421199e+002 1.199441e+002 6.239087e+001
         vertex 2.421199e+002 1.214708e+002 6.052097e+001
      endloop
   endfacet
   facet normal -4.462419e-017 -7.913373e-001 -6.113799e-001
      outer loop
         vertex 3.341198e+002 1.199441e+002 6.239087e+001
         vertex 2.421199e+002 1.214708e+002 6.052097e+001
         vertex 3.341198e+002 1.214708e+002 6.052097e+001
      endloop
   endfacet
   facet normal -2.862921e-017 -8.522622e-001 -5.231149e-001
      outer loop
         vertex 3.341198e+002 1.214708e+002 6.052097e+001
         vertex 2.421199e+002 1.214708e+002 6.052097e+001
         vertex 2.421199e+002 1.226778e+002 5.843039e+001
      endloop
   endfacet
   facet normal -2.047294e-017 -8.791618e-001 -4.765233e-001
      outer loop
         vertex 3.341198e+002 1.214708e+002 6.052097e+001
         vertex 2.421199e+002 1.226778e+002 5.843039e+001
         vertex 3.341198e+002 1.226778e+002 5.843039e+001
      endloop
   endfacet
   facet normal -4.054049e-018 -9.251391e-001 -3.796283e-001
      outer loop
         vertex 3.341198e+002 1.226778e+002 5.843039e+001
         vertex 2.421199e+002 1.226778e+002 5.843039e+001
         vertex 2.421199e+002 1.235338e+002 5.617326e+001
      endloop
   endfacet
   facet normal 4.208561e-018 -9.442167e-001 -3.293249e-001
      outer loop
         vertex 3.341198e+002 1.226778e+002 5.843039e+001
         vertex 2.421199e+002 1.235338e+002 5.617326e+001
         vertex 3.341198e+002 1.235338e+002 5.617326e+001
      endloop
   endfacet
   facet normal 2.062611e-017 -9.740555e-001 -2.263094e-001
      outer loop
         vertex 3.341198e+002 1.235338e+002 5.617326e+001
         vertex 2.421199e+002 1.235338e+002 5.617326e+001
         vertex 2.421199e+002 1.240167e+002 5.380805e+001
      endloop
   endfacet
   facet normal 2.878106e-017 -9.848167e-001 -1.735972e-001
      outer loop
         vertex 3.341198e+002 1.235338e+002 5.617326e+001
         vertex 2.421199e+002 1.240167e+002 5.380805e+001
         vertex 3.341198e+002 1.240167e+002 5.380805e+001
      endloop
   endfacet
   facet normal 4.477206e-017 -9.977443e-001 -6.712926e-002
      outer loop
         vertex 3.341198e+002 1.240167e+002 5.380805e+001
         vertex 2.421199e+002 1.240167e+002 5.380805e+001
         vertex 2.421199e+002 1.241139e+002 5.139601e+001
      endloop
   endfacet
   facet normal 5.260814e-017 -9.999106e-001 -1.337347e-002
      outer loop
         vertex 3.341198e+002 1.240167e+002 5.380805e+001
         vertex 2.421199e+002 1.241139e+002 5.139601e+001
         vertex 3.341198e+002 1.241139e+002 5.139601e+001
      endloop
   endfacet
   facet normal 6.775845e-017 -9.955921e-001 9.378947e-002
      outer loop
         vertex 3.341198e+002 1.241139e+002 5.139601e+001
         vertex 2.421199e+002 1.241139e+002 5.139601e+001
         vertex 2.421199e+002 1.238229e+002 4.899961e+001
      endloop
   endfacet
   facet normal 7.507270e-017 -9.891073e-001 1.471967e-001
      outer loop
         vertex 3.341198e+002 1.241139e+002 5.139601e+001
         vertex 2.421199e+002 1.238229e+002 4.899961e+001
         vertex 3.341198e+002 1.238229e+002 4.899961e+001
      endloop
   endfacet
   facet normal 8.898994e-017 -9.676545e-001 2.522791e-001
      outer loop
         vertex 3.341198e+002 1.238229e+002 4.899961e+001
         vertex 2.421199e+002 1.238229e+002 4.899961e+001
         vertex 2.421199e+002 1.231513e+002 4.668093e+001
      endloop
   endfacet
   facet normal 9.559292e-017 -9.526865e-001 3.039545e-001
      outer loop
         vertex 3.341198e+002 1.238229e+002 4.899961e+001
         vertex 2.421199e+002 1.231513e+002 4.668093e+001
         vertex 3.341198e+002 1.231513e+002 4.668093e+001
      endloop
   endfacet
   facet normal 1.079166e-016 -9.146552e-001 4.042349e-001
      outer loop
         vertex 3.341198e+002 1.231513e+002 4.668093e+001
         vertex 2.421199e+002 1.231513e+002 4.668093e+001
         vertex 2.421199e+002 1.221164e+002 4.450000e+001
      endloop
   endfacet
   facet normal 1.136373e-016 -8.915918e-001 4.528400e-001
      outer loop
         vertex 3.341198e+002 1.231513e+002 4.668093e+001
         vertex 2.421199e+002 1.221164e+002 4.450000e+001
         vertex 3.341198e+002 1.221164e+002 4.450000e+001
      endloop
   endfacet
   facet normal 1.240483e-016 -8.379669e-001 5.457212e-001
      outer loop
         vertex 3.341198e+002 1.221164e+002 4.450000e+001
         vertex 2.421199e+002 1.221164e+002 4.450000e+001
         vertex 2.421199e+002 1.207451e+002 4.251332e+001
      endloop
   endfacet
   facet normal 1.287386e-016 -8.074053e-001 5.899972e-001
      outer loop
         vertex 3.341198e+002 1.221164e+002 4.450000e+001
         vertex 2.421199e+002 1.207451e+002 4.251332e+001
         vertex 3.341198e+002 1.207451e+002 4.251332e+001
      endloop
   endfacet
   facet normal 1.369672e-016 -7.395756e-001 6.730735e-001
      outer loop
         vertex 3.341198e+002 1.207451e+002 4.251332e+001
         vertex 2.421199e+002 1.207451e+002 4.251332e+001
         vertex 2.421199e+002 1.190729e+002 4.077234e+001
      endloop
   endfacet
   facet normal 1.405056e-016 -7.023074e-001 7.118738e-001
      outer loop
         vertex 3.341198e+002 1.207451e+002 4.251332e+001
         vertex 2.421199e+002 1.190729e+002 4.077234e+001
         vertex 3.341198e+002 1.190729e+002 4.077234e+001
      endloop
   endfacet
   facet normal 1.463388e-016 -6.220297e-001 7.829937e-001
      outer loop
         vertex 3.341198e+002 1.190729e+002 4.077234e+001
         vertex 2.421199e+002 1.190729e+002 4.077234e+001
         vertex 2.421199e+002 1.171430e+002 3.932215e+001
      endloop
   endfacet
   facet normal 1.486336e-016 -5.790201e-001 8.153133e-001
      outer loop
         vertex 3.341198e+002 1.190729e+002 4.077234e+001
         vertex 2.421199e+002 1.171430e+002 3.932215e+001
         vertex 3.341198e+002 1.171430e+002 3.932215e+001
      endloop
   endfacet
   facet normal 1.519202e-016 -4.883735e-001 8.726347e-001
      outer loop
         vertex 3.341198e+002 1.171430e+002 3.932215e+001
         vertex 2.421199e+002 1.171430e+002 3.932215e+001
         vertex 2.421199e+002 1.150056e+002 3.820031e+001
      endloop
   endfacet
   facet normal 1.529120e-016 -4.407364e-001 8.976365e-001
      outer loop
         vertex 3.341198e+002 1.171430e+002 3.932215e+001
         vertex 2.421199e+002 1.150056e+002 3.820031e+001
         vertex 3.341198e+002 1.150056e+002 3.820031e+001
      endloop
   endfacet
   facet normal 1.535670e-016 -3.420688e-001 9.396749e-001
      outer loop
         vertex 3.341198e+002 1.150056e+002 3.820031e+001
         vertex 2.421199e+002 1.150056e+002 3.820031e+001
         vertex 2.421199e+002 1.127158e+002 3.743587e+001
      endloop
   endfacet
   facet normal 1.532301e-016 -2.910380e-001 9.567115e-001
      outer loop
         vertex 3.341198e+002 1.150056e+002 3.820031e+001
         vertex 2.421199e+002 1.127158e+002 3.743587e+001
         vertex 3.341198e+002 1.127158e+002 3.743587e+001
      endloop
   endfacet
   facet normal 1.512364e-016 -1.869046e-001 9.823781e-001
      outer loop
         vertex 3.341198e+002 1.127158e+002 3.743587e+001
         vertex 2.421199e+002 1.127158e+002 3.743587e+001
         vertex 2.421199e+002 1.103331e+002 3.704864e+001
      endloop
   endfacet
   facet normal 1.495796e-016 -1.338019e-001 9.910081e-001
      outer loop
         vertex 3.341198e+002 1.127158e+002 3.743587e+001
         vertex 2.421199e+002 1.103331e+002 3.704864e+001
         vertex 3.341198e+002 1.103331e+002 3.704864e+001
      endloop
   endfacet
   facet normal 1.449890e-016 -2.689971e-002 9.996382e-001
      outer loop
         vertex 3.341198e+002 1.103331e+002 3.704864e+001
         vertex 2.421199e+002 1.103331e+002 3.704864e+001
         vertex 2.421199e+002 1.079191e+002 3.704864e+001
      endloop
   endfacet
   facet normal 1.420552e-016 2.689971e-002 9.996382e-001
      outer loop
         vertex 3.341198e+002 1.103331e+002 3.704864e+001
         vertex 2.421199e+002 1.079191e+002 3.704864e+001
         vertex 3.341198e+002 1.079191e+002 3.704864e+001
      endloop
   endfacet
   facet normal 1.349864e-016 1.338019e-001 9.910081e-001
      outer loop
         vertex 3.341198e+002 1.079191e+002 3.704864e+001
         vertex 2.421199e+002 1.079191e+002 3.704864e+001
         vertex 2.421199e+002 1.055363e+002 3.743587e+001
      endloop
   endfacet
   facet normal 1.308515e-016 1.869046e-001 9.823781e-001
      outer loop
         vertex 3.341198e+002 1.079191e+002 3.704864e+001
         vertex 2.421199e+002 1.055363e+002 3.743587e+001
         vertex 3.341198e+002 1.055363e+002 3.743587e+001
      endloop
   endfacet
   facet normal 1.214877e-016 2.910380e-001 9.567115e-001
      outer loop
         vertex 3.341198e+002 1.055363e+002 3.743587e+001
         vertex 2.421199e+002 1.055363e+002 3.743587e+001
         vertex 2.421199e+002 1.032466e+002 3.820031e+001
      endloop
   endfacet
   facet normal 1.162588e-016 3.420688e-001 9.396749e-001
      outer loop
         vertex 3.341198e+002 1.055363e+002 3.743587e+001
         vertex 2.421199e+002 1.032466e+002 3.820031e+001
         vertex 3.341198e+002 1.032466e+002 3.820031e+001
      endloop
   endfacet
   facet normal 1.048426e-016 4.407365e-001 8.976365e-001
      outer loop
         vertex 3.341198e+002 1.032466e+002 3.820031e+001
         vertex 2.421199e+002 1.032466e+002 3.820031e+001
         vertex 2.421199e+002 1.011091e+002 3.932215e+001
      endloop
   endfacet
   facet normal 9.865515e-017 4.883736e-001 8.726347e-001
      outer loop
         vertex 3.341198e+002 1.032466e+002 3.820031e+001
         vertex 2.421199e+002 1.011091e+002 3.932215e+001
         vertex 3.341198e+002 1.011091e+002 3.932215e+001
      endloop
   endfacet
   facet normal 8.548205e-017 5.790201e-001 8.153133e-001
      outer loop
         vertex 3.341198e+002 1.011091e+002 3.932215e+001
         vertex 2.421199e+002 1.011091e+002 3.932215e+001
         vertex 2.421199e+002 9.917921e+001 4.077234e+001
      endloop
   endfacet
   facet normal 7.849635e-017 6.220297e-001 7.829937e-001
      outer loop
         vertex 3.341198e+002 1.011091e+002 3.932215e+001
         vertex 2.421199e+002 9.917921e+001 4.077234e+001
         vertex 3.341198e+002 9.917921e+001 4.077234e+001
      endloop
   endfacet
   facet normal 6.390758e-017 7.023074e-001 7.118738e-001
      outer loop
         vertex 3.341198e+002 9.917921e+001 4.077234e+001
         vertex 2.421199e+002 9.917921e+001 4.077234e+001
         vertex 2.421199e+002 9.750699e+001 4.251332e+001
      endloop
   endfacet
   facet normal 5.630453e-017 7.395756e-001 6.730735e-001
      outer loop
         vertex 3.341198e+002 9.917921e+001 4.077234e+001
         vertex 2.421199e+002 9.750699e+001 4.251332e+001
         vertex 3.341198e+002 9.750699e+001 4.251332e+001
      endloop
   endfacet
   facet normal 4.067796e-017 8.074053e-001 5.899972e-001
      outer loop
         vertex 3.341198e+002 9.750699e+001 4.251332e+001
         vertex 2.421199e+002 9.750699e+001 4.251332e+001
         vertex 2.421199e+002 9.613567e+001 4.450000e+001
      endloop
   endfacet
   facet normal 3.265445e-017 8.379669e-001 5.457212e-001
      outer loop
         vertex 3.341198e+002 9.750699e+001 4.251332e+001
         vertex 2.421199e+002 9.613567e+001 4.450000e+001
         vertex 3.341198e+002 9.613567e+001 4.450000e+001
      endloop
   endfacet
   facet normal 1.639479e-017 8.915918e-001 4.528400e-001
      outer loop
         vertex 3.341198e+002 9.613567e+001 4.450000e+001
         vertex 2.421199e+002 9.613567e+001 4.450000e+001
         vertex 2.421199e+002 9.510081e+001 4.668093e+001
      endloop
   endfacet
   facet normal 8.158645e-018 9.146552e-001 4.042349e-001
      outer loop
         vertex 3.341198e+002 9.613567e+001 4.450000e+001
         vertex 2.421199e+002 9.510081e+001 4.668093e+001
         vertex 3.341198e+002 9.510081e+001 4.668093e+001
      endloop
   endfacet
   facet normal -8.312990e-018 9.526865e-001 3.039545e-001
      outer loop
         vertex 3.341198e+002 9.510081e+001 4.668093e+001
         vertex 2.421199e+002 9.510081e+001 4.668093e+001
         vertex 2.421199e+002 9.442920e+001 4.899961e+001
      endloop
   endfacet
   facet normal -1.654847e-017 9.676545e-001 2.522791e-001
      outer loop
         vertex 3.341198e+002 9.510081e+001 4.668093e+001
         vertex 2.421199e+002 9.442920e+001 4.899961e+001
         vertex 3.341198e+002 9.442920e+001 4.899961e+001
      endloop
   endfacet
   facet normal -3.280547e-017 9.891073e-001 1.471967e-001
      outer loop
         vertex 3.341198e+002 9.442920e+001 4.899961e+001
         vertex 2.421199e+002 9.442920e+001 4.899961e+001
         vertex 2.421199e+002 9.413822e+001 5.139601e+001
      endloop
   endfacet
   facet normal -4.082699e-017 9.955921e-001 9.378949e-002
      outer loop
         vertex 3.341198e+002 9.442920e+001 4.899961e+001
         vertex 2.421199e+002 9.413822e+001 5.139601e+001
         vertex 3.341198e+002 9.413822e+001 5.139601e+001
      endloop
   endfacet
   facet normal -5.644831e-017 9.999106e-001 -1.337347e-002
      outer loop
         vertex 3.341198e+002 9.413822e+001 5.139601e+001
         vertex 2.421199e+002 9.413822e+001 5.139601e+001
         vertex 2.421199e+002 9.423543e+001 5.380805e+001
      endloop
   endfacet
   facet normal -6.404811e-017 9.977443e-001 -6.712926e-002
      outer loop
         vertex 3.341198e+002 9.413822e+001 5.139601e+001
         vertex 2.421199e+002 9.423543e+001 5.380805e+001
         vertex 3.341198e+002 9.423543e+001 5.380805e+001
      endloop
   endfacet
   facet normal -7.862916e-017 9.848167e-001 -1.735972e-001
      outer loop
         vertex 3.341198e+002 9.423543e+001 5.380805e+001
         vertex 2.421199e+002 9.423543e+001 5.380805e+001
         vertex 2.421199e+002 9.471828e+001 5.617326e+001
      endloop
   endfacet
   facet normal -8.561041e-017 9.740555e-001 -2.263094e-001
      outer loop
         vertex 3.341198e+002 9.423543e+001 5.380805e+001
         vertex 2.421199e+002 9.471828e+001 5.617326e+001
         vertex 3.341198e+002 9.471828e+001 5.617326e+001
      endloop
   endfacet
   facet normal -9.877357e-017 9.442167e-001 -3.293249e-001
      outer loop
         vertex 3.341198e+002 9.471828e+001 5.617326e+001
         vertex 2.421199e+002 9.471828e+001 5.617326e+001
         vertex 2.421199e+002 9.557430e+001 5.843039e+001
      endloop
   endfacet
   facet normal -1.049555e-016 9.251391e-001 -3.796282e-001
      outer loop
         vertex 3.341198e+002 9.471828e+001 5.617326e+001
         vertex 2.421199e+002 9.557430e+001 5.843039e+001
         vertex 3.341198e+002 9.557430e+001 5.843039e+001
      endloop
   endfacet
   facet normal -1.163598e-016 8.791618e-001 -4.765233e-001
      outer loop
         vertex 3.341198e+002 9.557430e+001 5.843039e+001
         vertex 2.421199e+002 9.557430e+001 5.843039e+001
         vertex 2.421199e+002 9.678130e+001 6.052097e+001
      endloop
   endfacet
   facet normal -1.215822e-016 8.522622e-001 -5.231149e-001
      outer loop
         vertex 3.341198e+002 9.557430e+001 5.843039e+001
         vertex 2.421199e+002 9.678130e+001 6.052097e+001
         vertex 3.341198e+002 9.678130e+001 6.052097e+001
      endloop
   endfacet
   facet normal -1.309323e-016 7.913373e-001 -6.113799e-001
      outer loop
         vertex 3.341198e+002 9.678130e+001 6.052097e+001
         vertex 2.421199e+002 9.678130e+001 6.052097e+001
         vertex 2.421199e+002 9.830802e+001 6.239087e+001
      endloop
   endfacet
   facet normal -1.350600e-016 7.573121e-001 -6.530532e-001
      outer loop
         vertex 3.341198e+002 9.678130e+001 6.052097e+001
         vertex 2.421199e+002 9.830802e+001 6.239087e+001
         vertex 3.341198e+002 9.830802e+001 6.239087e+001
      endloop
   endfacet
   facet normal -1.421138e-016 6.830174e-001 -7.304021e-001
      outer loop
         vertex 3.341198e+002 9.830802e+001 6.239087e+001
         vertex 2.421199e+002 9.830802e+001 6.239087e+001
         vertex 2.421199e+002 1.001149e+002 6.399164e+001
      endloop
   endfacet
   facet normal -1.450399e-016 6.427480e-001 -7.660777e-001
      outer loop
         vertex 3.341198e+002 9.830802e+001 6.239087e+001
         vertex 2.421199e+002 1.001149e+002 6.399164e+001
         vertex 3.341198e+002 1.001149e+002 6.399164e+001
      endloop
   endfacet
   facet normal -1.496146e-016 5.570078e-001 -8.305073e-001
      outer loop
         vertex 3.341198e+002 1.001149e+002 6.399164e+001
         vertex 2.421199e+002 1.001149e+002 6.399164e+001
         vertex 2.421199e+002 1.021552e+002 6.528184e+001
      endloop
   endfacet
   facet normal -1.512633e-016 5.115370e-001 -8.592612e-001
      outer loop
         vertex 3.341198e+002 1.001149e+002 6.399164e+001
         vertex 2.421199e+002 1.021552e+002 6.528184e+001
         vertex 3.341198e+002 1.021552e+002 6.528184e+001
      endloop
   endfacet
   facet normal -1.532405e-016 4.165719e-001 -9.091027e-001
      outer loop
         vertex 3.341198e+002 1.021552e+002 6.528184e+001
         vertex 2.421199e+002 1.021552e+002 6.528184e+001
         vertex 2.421199e+002 1.043760e+002 6.622805e+001
      endloop
   endfacet
   facet normal -1.535691e-016 3.670776e-001 -9.301903e-001
      outer loop
         vertex 3.341198e+002 1.021552e+002 6.528184e+001
         vertex 2.421199e+002 1.043760e+002 6.622805e+001
         vertex 3.341198e+002 1.043760e+002 6.622805e+001
      endloop
   endfacet
   facet normal -1.528975e-016 2.653471e-001 -9.641529e-001
      outer loop
         vertex 3.341198e+002 1.043760e+002 6.622805e+001
         vertex 2.421199e+002 1.043760e+002 6.622805e+001
         vertex 2.421199e+002 1.067199e+002 6.680576e+001
      endloop
   endfacet
   facet normal -1.518974e-016 2.131110e-001 -9.770280e-001
      outer loop
         vertex 3.341198e+002 1.043760e+002 6.622805e+001
         vertex 2.421199e+002 1.067199e+002 6.680576e+001
         vertex 3.341198e+002 1.067199e+002 6.680576e+001
      endloop
   endfacet
   facet normal -1.485946e-016 1.072499e-001 -9.942321e-001
      outer loop
         vertex 3.341198e+002 1.067199e+002 6.680576e+001
         vertex 2.421199e+002 1.067199e+002 6.680576e+001
         vertex 2.421199e+002 1.091261e+002 6.700000e+001
      endloop
   endfacet
   facet normal 1.000000e+000 0.000000e+000 -1.435740e-016
      outer loop
         vertex 3.341198e+002 1.079191e+002 3.704864e+001
         vertex 3.341198e+002 1.091261e+002 3.450000e+001
         vertex 3.341198e+002 1.103331e+002 3.704864e+001
      endloop
   endfacet
   facet normal 1.000000e+000 0.000000e+000 -1.435740e-016
      outer loop
         vertex 3.341198e+002 1.103331e+002 3.704864e+001
         vertex 3.341198e+002 1.091261e+002 3.450000e+001
         vertex 3.341198e+002 1.117343e+002 3.469546e+001
      endloop
   endfacet
   facet normal 1.000000e+000 0.000000e+000 -1.435740e-016
      outer loop
         vertex 3.341198e+002 1.103331e+002 3.704864e+001
         vertex 3.341198e+002 1.117343e+002 3.469546e+001
         vertex 3.341198e+002 1.127158e+002 3.743587e+001
      endloop
   endfacet
   facet normal 1.000000e+000 0.000000e+000 -1.435740e-016
      outer loop
         vertex 3.341198e+002 1.127158e+002 3.743587e+001
         vertex 3.341198e+002 1.117343e+002 3.469546e+001
         vertex 3.341198e+002 1.142843e+002 3.527748e+001
      endloop
   endfacet
   facet normal 1.000000e+000 0.000000e+000 -1.435740e-016
      outer loop
         vertex 3.341198e+002 1.127158e+002 3.743587e+001
         vertex 3.341198e+002 1.142843e+002 3.527748e+001
         vertex 3.341198e+002 1.150056e+002 3.820031e+001
      endloop
   endfacet
   facet normal 1.000000e+000 0.000000e+000 -1.435740e-016
      outer loop
         vertex 3.341198e+002 1.150056e+002 3.820031e+001
         vertex 3.341198e+002 1.142843e+002 3.527748e+001
         vertex 3.341198e+002 1.167190e+002 3.623304e+001
      endloop
   endfacet
   facet normal 1.000000e+000 0.000000e+000 -1.435740e-016
      outer loop
         vertex 3.341198e+002 1.150056e+002 3.820031e+001
         vertex 3.341198e+002 1.167190e+002 3.623304e+001
         vertex 3.341198e+002 1.171430e+002 3.932215e+001
      endloop
   endfacet
   facet normal 1.000000e+000 0.000000e+000 -1.435740e-016
      outer loop
         vertex 3.341198e+002 1.171430e+002 3.932215e+001
         vertex 3.341198e+002 1.167190e+002 3.623304e+001
         vertex 3.341198e+002 1.189842e+002 3.754082e+001
      endloop
   endfacet
   facet normal 1.000000e+000 0.000000e+000 -1.435740e-016
      outer loop
         vertex 3.341198e+002 1.171430e+002 3.932215e+001
         vertex 3.341198e+002 1.189842e+002 3.754082e+001
         vertex 3.341198e+002 1.190729e+002 4.077234e+001
      endloop
   endfacet
   facet normal 1.000000e+000 0.000000e+000 -1.435740e-016
      outer loop
         vertex 3.341198e+002 1.190729e+002 4.077234e+001
         vertex 3.341198e+002 1.189842e+002 3.754082e+001
         vertex 3.341198e+002 1.210291e+002 3.917159e+001
      endloop
   endfacet
   facet normal 1.000000e+000 0.000000e+000 -1.435740e-016
      outer loop
         vertex 3.341198e+002 1.190729e+002 4.077234e+001
         vertex 3.341198e+002 1.210291e+002 3.917159e+001
         vertex 3.341198e+002 1.207451e+002 4.251332e+001
      endloop
   endfacet
   facet normal 1.000000e+000 0.000000e+000 -1.435740e-016
      outer loop
         vertex 3.341198e+002 1.207451e+002 4.251332e+001
         vertex 3.341198e+002 1.210291e+002 3.917159e+001
         vertex 3.341198e+002 1.228081e+002 4.108893e+001
      endloop
   endfacet
   facet normal 1.000000e+000 0.000000e+000 -1.435740e-016
      outer loop
         vertex 3.341198e+002 1.207451e+002 4.251332e+001
         vertex 3.341198e+002 1.228081e+002 4.108893e+001
         vertex 3.341198e+002 1.221164e+002 4.450000e+001
      endloop
   endfacet
   facet normal 1.000000e+000 0.000000e+000 -1.435740e-016
      outer loop
         vertex 3.341198e+002 1.221164e+002 4.450000e+001
         vertex 3.341198e+002 1.228081e+002 4.108893e+001
         vertex 3.341198e+002 1.242815e+002 4.325000e+001
      endloop
   endfacet
   facet normal 1.000000e+000 0.000000e+000 -1.435740e-016
      outer loop
         vertex 3.341198e+002 1.221164e+002 4.450000e+001
         vertex 3.341198e+002 1.242815e+002 4.325000e+001
         vertex 3.341198e+002 1.231513e+002 4.668093e+001
      endloop
   endfacet
   facet normal 1.000000e+000 0.000000e+000 -1.435740e-016
      outer loop
         vertex 3.341198e+002 1.231513e+002 4.668093e+001
         vertex 3.341198e+002 1.242815e+002 4.325000e+001
         vertex 3.341198e+002 1.254164e+002 4.560653e+001
      endloop
   endfacet
   facet normal 1.000000e+000 0.000000e+000 -1.435740e-016
      outer loop
         vertex 3.341198e+002 1.231513e+002 4.668093e+001
         vertex 3.341198e+002 1.254164e+002 4.560653e+001
         vertex 3.341198e+002 1.238229e+002 4.899961e+001
      endloop
   endfacet
   facet normal 1.000000e+000 0.000000e+000 -1.435740e-016
      outer loop
         vertex 3.341198e+002 1.238229e+002 4.899961e+001
         vertex 3.341198e+002 1.254164e+002 4.560653e+001
         vertex 3.341198e+002 1.261873e+002 4.810588e+001
      endloop
   endfacet
   facet normal 1.000000e+000 0.000000e+000 -1.435740e-016
      outer loop
         vertex 3.341198e+002 1.238229e+002 4.899961e+001
         vertex 3.341198e+002 1.261873e+002 4.810588e+001
         vertex 3.341198e+002 1.241139e+002 5.139601e+001
      endloop
   endfacet
   facet normal 1.000000e+000 0.000000e+000 -1.435740e-016
      outer loop
         vertex 3.341198e+002 1.241139e+002 5.139601e+001
         vertex 3.341198e+002 1.261873e+002 4.810588e+001
         vertex 3.341198e+002 1.265771e+002 5.069222e+001
      endloop
   endfacet
   facet normal 1.000000e+000 0.000000e+000 -1.435740e-016
      outer loop
         vertex 3.341198e+002 1.241139e+002 5.139601e+001
         vertex 3.341198e+002 1.265771e+002 5.069222e+001
         vertex 3.341198e+002 1.240167e+002 5.380805e+001
      endloop
   endfacet
   facet normal 1.000000e+000 0.000000e+000 -1.435740e-016
      outer loop
         vertex 3.341198e+002 1.240167e+002 5.380805e+001
         vertex 3.341198e+002 1.265771e+002 5.069222e+001
         vertex 3.341198e+002 1.265771e+002 5.330778e+001
      endloop
   endfacet
   facet normal 1.000000e+000 0.000000e+000 -1.435740e-016
      outer loop
         vertex 3.341198e+002 1.240167e+002 5.380805e+001
         vertex 3.341198e+002 1.265771e+002 5.330778e+001
         vertex 3.341198e+002 1.235338e+002 5.617326e+001
      endloop
   endfacet
   facet normal 1.000000e+000 0.000000e+000 -1.435740e-016
      outer loop
         vertex 3.341198e+002 1.235338e+002 5.617326e+001
         vertex 3.341198e+002 1.265771e+002 5.330778e+001
         vertex 3.341198e+002 1.261873e+002 5.589412e+001
      endloop
   endfacet
   facet normal 1.000000e+000 0.000000e+000 -1.435740e-016
      outer loop
         vertex 3.341198e+002 1.235338e+002 5.617326e+001
         vertex 3.341198e+002 1.261873e+002 5.589412e+001
         vertex 3.341198e+002 1.226778e+002 5.843039e+001
      endloop
   endfacet
   facet normal 1.000000e+000 0.000000e+000 -1.435740e-016
      outer loop
         vertex 3.341198e+002 9.678130e+001 6.052097e+001
         vertex 3.341198e+002 9.397061e+001 6.075000e+001
         vertex 3.341198e+002 9.557430e+001 5.843039e+001
      endloop
   endfacet
   facet normal 1.000000e+000 0.000000e+000 -1.435740e-016
      outer loop
         vertex 3.341198e+002 9.557430e+001 5.843039e+001
         vertex 3.341198e+002 9.397061e+001 6.075000e+001
         vertex 3.341198e+002 9.283577e+001 5.839347e+001
      endloop
   endfacet
   facet normal 1.000000e+000 0.000000e+000 -1.435740e-016
      outer loop
         vertex 3.341198e+002 9.557430e+001 5.843039e+001
         vertex 3.341198e+002 9.283577e+001 5.839347e+001
         vertex 3.341198e+002 9.471828e+001 5.617326e+001
      endloop
   endfacet
   facet normal 1.000000e+000 0.000000e+000 -1.435740e-016
      outer loop
         vertex 3.341198e+002 9.471828e+001 5.617326e+001
         vertex 3.341198e+002 9.283577e+001 5.839347e+001
         vertex 3.341198e+002 9.206482e+001 5.589412e+001
      endloop
   endfacet
   facet normal 1.000000e+000 0.000000e+000 -1.435740e-016
      outer loop
         vertex 3.341198e+002 9.471828e+001 5.617326e+001
         vertex 3.341198e+002 9.206482e+001 5.589412e+001
         vertex 3.341198e+002 9.423543e+001 5.380805e+001
      endloop
   endfacet
   facet normal 1.000000e+000 0.000000e+000 -1.435740e-016
      outer loop
         vertex 3.341198e+002 9.423543e+001 5.380805e+001
         vertex 3.341198e+002 9.206482e+001 5.589412e+001
         vertex 3.341198e+002 9.167499e+001 5.330778e+001
      endloop
   endfacet
   facet normal 1.000000e+000 0.000000e+000 -1.435740e-016
      outer loop
         vertex 3.341198e+002 9.423543e+001 5.380805e+001
         vertex 3.341198e+002 9.167499e+001 5.330778e+001
         vertex 3.341198e+002 9.413822e+001 5.139601e+001
      endloop
   endfacet
   facet normal 1.000000e+000 0.000000e+000 -1.435740e-016
      outer loop
         vertex 3.341198e+002 9.413822e+001 5.139601e+001
         vertex 3.341198e+002 9.167499e+001 5.330778e+001
         vertex 3.341198e+002 9.167499e+001 5.069222e+001
      endloop
   endfacet
   facet normal 1.000000e+000 0.000000e+000 -1.435740e-016
      outer loop
         vertex 3.341198e+002 9.413822e+001 5.139601e+001
         vertex 3.341198e+002 9.167499e+001 5.069222e+001
         vertex 3.341198e+002 9.442920e+001 4.899961e+001
      endloop
   endfacet
   facet normal 1.000000e+000 0.000000e+000 -1.435740e-016
      outer loop
         vertex 3.341198e+002 9.442920e+001 4.899961e+001
         vertex 3.341198e+002 9.167499e+001 5.069222e+001
         vertex 3.341198e+002 9.206482e+001 4.810588e+001
      endloop
   endfacet
   facet normal 1.000000e+000 0.000000e+000 -1.435740e-016
      outer loop
         vertex 3.341198e+002 9.442920e+001 4.899961e+001
         vertex 3.341198e+002 9.206482e+001 4.810588e+001
         vertex 3.341198e+002 9.510081e+001 4.668093e+001
      endloop
   endfacet
   facet normal 1.000000e+000 0.000000e+000 -1.435740e-016
      outer loop
         vertex 3.341198e+002 9.510081e+001 4.668093e+001
         vertex 3.341198e+002 9.206482e+001 4.810588e+001
         vertex 3.341198e+002 9.283577e+001 4.560653e+001
      endloop
   endfacet
   facet normal 1.000000e+000 0.000000e+000 -1.435740e-016
      outer loop
         vertex 3.341198e+002 9.510081e+001 4.668093e+001
         vertex 3.341198e+002 9.283577e+001 4.560653e+001
         vertex 3.341198e+002 9.613567e+001 4.450000e+001
      endloop
   endfacet
   facet normal 1.000000e+000 0.000000e+000 -1.435740e-016
      outer loop
         vertex 3.341198e+002 9.613567e+001 4.450000e+001
         vertex 3.341198e+002 9.283577e+001 4.560653e+001
         vertex 3.341198e+002 9.397061e+001 4.325000e+001
      endloop
   endfacet
   facet normal 1.000000e+000 0.000000e+000 -1.435740e-016
      outer loop
         vertex 3.341198e+002 9.613567e+001 4.450000e+001
         vertex 3.341198e+002 9.397061e+001 4.325000e+001
         vertex 3.341198e+002 9.750699e+001 4.251332e+001
      endloop
   endfacet
   facet normal 1.000000e+000 0.000000e+000 -1.435740e-016
      outer loop
         vertex 3.341198e+002 9.750699e+001 4.251332e+001
         vertex 3.341198e+002 9.397061e+001 4.325000e+001
         vertex 3.341198e+002 9.544401e+001 4.108893e+001
      endloop
   endfacet
   facet normal 1.000000e+000 0.000000e+000 -1.435740e-016
      outer loop
         vertex 3.341198e+002 9.750699e+001 4.251332e+001
         vertex 3.341198e+002 9.544401e+001 4.108893e+001
         vertex 3.341198e+002 9.917921e+001 4.077234e+001
      endloop
   endfacet
   facet normal 1.000000e+000 0.000000e+000 -1.435740e-016
      outer loop
         vertex 3.341198e+002 9.917921e+001 4.077234e+001
         vertex 3.341198e+002 9.544401e+001 4.108893e+001
         vertex 3.341198e+002 9.722304e+001 3.917159e+001
      endloop
   endfacet
   facet normal 1.000000e+000 0.000000e+000 -1.435740e-016
      outer loop
         vertex 3.341198e+002 9.917921e+001 4.077234e+001
         vertex 3.341198e+002 9.722304e+001 3.917159e+001
         vertex 3.341198e+002 1.011091e+002 3.932215e+001
      endloop
   endfacet
   facet normal 1.000000e+000 0.000000e+000 -1.435740e-016
      outer loop
         vertex 3.341198e+002 1.011091e+002 3.932215e+001
         vertex 3.341198e+002 9.722304e+001 3.917159e+001
         vertex 3.341198e+002 9.926796e+001 3.754082e+001
      endloop
   endfacet
   facet normal 1.000000e+000 0.000000e+000 -1.435740e-016
      outer loop
         vertex 3.341198e+002 1.011091e+002 3.932215e+001
         vertex 3.341198e+002 9.926796e+001 3.754082e+001
         vertex 3.341198e+002 1.032466e+002 3.820031e+001
      endloop
   endfacet
   facet normal 1.000000e+000 0.000000e+000 -1.435740e-016
      outer loop
         vertex 3.341198e+002 1.032466e+002 3.820031e+001
         vertex 3.341198e+002 9.926796e+001 3.754082e+001
         vertex 3.341198e+002 1.015331e+002 3.623304e+001
      endloop
   endfacet
   facet normal 1.000000e+000 0.000000e+000 -1.435740e-016
      outer loop
         vertex 3.341198e+002 1.032466e+002 3.820031e+001
         vertex 3.341198e+002 1.015331e+002 3.623304e+001
         vertex 3.341198e+002 1.055363e+002 3.743587e+001
      endloop
   endfacet
   facet normal 1.000000e+000 0.000000e+000 -1.435740e-016
      outer loop
         vertex 3.341198e+002 1.055363e+002 3.743587e+001
         vertex 3.341198e+002 1.015331e+002 3.623304e+001
         vertex 3.341198e+002 1.039678e+002 3.527748e+001
      endloop
   endfacet
   facet normal 1.000000e+000 0.000000e+000 -1.435740e-016
      outer loop
         vertex 3.341198e+002 1.055363e+002 3.743587e+001
         vertex 3.341198e+002 1.039678e+002 3.527748e+001
         vertex 3.341198e+002 1.079191e+002 3.704864e+001
      endloop
   endfacet
   facet normal 1.000000e+000 0.000000e+000 -1.435740e-016
      outer loop
         vertex 3.341198e+002 1.079191e+002 3.704864e+001
         vertex 3.341198e+002 1.039678e+002 3.527748e+001
         vertex 3.341198e+002 1.065178e+002 3.469546e+001
      endloop
   endfacet
   facet normal 1.000000e+000 0.000000e+000 -1.435740e-016
      outer loop
         vertex 3.341198e+002 1.079191e+002 3.704864e+001
         vertex 3.341198e+002 1.065178e+002 3.469546e+001
         vertex 3.341198e+002 1.091261e+002 3.450000e+001
      endloop
   endfacet
   facet normal 1.000000e+000 0.000000e+000 -1.435740e-016
      outer loop
         vertex 3.341198e+002 1.261873e+002 5.589412e+001
         vertex 3.341198e+002 1.254164e+002 5.839347e+001
         vertex 3.341198e+002 1.226778e+002 5.843039e+001
      endloop
   endfacet
   facet normal 1.000000e+000 0.000000e+000 -1.435740e-016
      outer loop
         vertex 3.341198e+002 1.226778e+002 5.843039e+001
         vertex 3.341198e+002 1.254164e+002 5.839347e+001
         vertex 3.341198e+002 1.242815e+002 6.075000e+001
      endloop
   endfacet
   facet normal 1.000000e+000 0.000000e+000 -1.435740e-016
      outer loop
         vertex 3.341198e+002 1.226778e+002 5.843039e+001
         vertex 3.341198e+002 1.242815e+002 6.075000e+001
         vertex 3.341198e+002 1.214708e+002 6.052097e+001
      endloop
   endfacet
   facet normal 1.000000e+000 0.000000e+000 -1.435740e-016
      outer loop
         vertex 3.341198e+002 1.214708e+002 6.052097e+001
         vertex 3.341198e+002 1.242815e+002 6.075000e+001
         vertex 3.341198e+002 1.228081e+002 6.291107e+001
      endloop
   endfacet
   facet normal 1.000000e+000 0.000000e+000 -1.435740e-016
      outer loop
         vertex 3.341198e+002 1.214708e+002 6.052097e+001
         vertex 3.341198e+002 1.228081e+002 6.291107e+001
         vertex 3.341198e+002 1.199441e+002 6.239087e+001
      endloop
   endfacet
   facet normal 1.000000e+000 0.000000e+000 -1.435740e-016
      outer loop
         vertex 3.341198e+002 1.199441e+002 6.239087e+001
         vertex 3.341198e+002 1.228081e+002 6.291107e+001
         vertex 3.341198e+002 1.210291e+002 6.482841e+001
      endloop
   endfacet
   facet normal 1.000000e+000 0.000000e+000 -1.435740e-016
      outer loop
         vertex 3.341198e+002 1.199441e+002 6.239087e+001
         vertex 3.341198e+002 1.210291e+002 6.482841e+001
         vertex 3.341198e+002 1.181372e+002 6.399164e+001
      endloop
   endfacet
   facet normal 1.000000e+000 0.000000e+000 -1.435740e-016
      outer loop
         vertex 3.341198e+002 1.181372e+002 6.399164e+001
         vertex 3.341198e+002 1.210291e+002 6.482841e+001
         vertex 3.341198e+002 1.189842e+002 6.645918e+001
      endloop
   endfacet
   facet normal 1.000000e+000 0.000000e+000 -1.435740e-016
      outer loop
         vertex 3.341198e+002 1.181372e+002 6.399164e+001
         vertex 3.341198e+002 1.189842e+002 6.645918e+001
         vertex 3.341198e+002 1.160969e+002 6.528184e+001
      endloop
   endfacet
   facet normal 1.000000e+000 0.000000e+000 -1.435740e-016
      outer loop
         vertex 3.341198e+002 1.160969e+002 6.528184e+001
         vertex 3.341198e+002 1.189842e+002 6.645918e+001
         vertex 3.341198e+002 1.167190e+002 6.776696e+001
      endloop
   endfacet
   facet normal 1.000000e+000 0.000000e+000 -1.435740e-016
      outer loop
         vertex 3.341198e+002 1.160969e+002 6.528184e+001
         vertex 3.341198e+002 1.167190e+002 6.776696e+001
         vertex 3.341198e+002 1.138761e+002 6.622805e+001
      endloop
   endfacet
   facet normal 1.000000e+000 0.000000e+000 -1.435740e-016
      outer loop
         vertex 3.341198e+002 1.138761e+002 6.622805e+001
         vertex 3.341198e+002 1.167190e+002 6.776696e+001
         vertex 3.341198e+002 1.142843e+002 6.872253e+001
      endloop
   endfacet
   facet normal 1.000000e+000 0.000000e+000 -1.435740e-016
      outer loop
         vertex 3.341198e+002 1.138761e+002 6.622805e+001
         vertex 3.341198e+002 1.142843e+002 6.872253e+001
         vertex 3.341198e+002 1.115322e+002 6.680576e+001
      endloop
   endfacet
   facet normal 1.000000e+000 0.000000e+000 -1.435740e-016
      outer loop
         vertex 3.341198e+002 1.115322e+002 6.680576e+001
         vertex 3.341198e+002 1.142843e+002 6.872253e+001
         vertex 3.341198e+002 1.117343e+002 6.930454e+001
      endloop
   endfacet
   facet normal 1.000000e+000 0.000000e+000 -1.435740e-016
      outer loop
         vertex 3.341198e+002 1.115322e+002 6.680576e+001
         vertex 3.341198e+002 1.117343e+002 6.930454e+001
         vertex 3.341198e+002 1.091261e+002 6.700000e+001
      endloop
   endfacet
   facet normal 1.000000e+000 0.000000e+000 -1.435740e-016
      outer loop
         vertex 3.341198e+002 1.091261e+002 6.700000e+001
         vertex 3.341198e+002 1.117343e+002 6.930454e+001
         vertex 3.341198e+002 1.091261e+002 6.950000e+001
      endloop
   endfacet
   facet normal 1.000000e+000 0.000000e+000 -1.435740e-016
      outer loop
         vertex 3.341198e+002 1.091261e+002 6.700000e+001
         vertex 3.341198e+002 1.091261e+002 6.950000e+001
         vertex 3.341198e+002 1.067199e+002 6.680576e+001
      endloop
   endfacet
   facet normal 1.000000e+000 0.000000e+000 -1.435740e-016
      outer loop
         vertex 3.341198e+002 1.067199e+002 6.680576e+001
         vertex 3.341198e+002 1.091261e+002 6.950000e+001
         vertex 3.341198e+002 1.065178e+002 6.930454e+001
      endloop
   endfacet
   facet normal 1.000000e+000 0.000000e+000 -1.435740e-016
      outer loop
         vertex 3.341198e+002 1.067199e+002 6.680576e+001
         vertex 3.341198e+002 1.065178e+002 6.930454e+001
         vertex 3.341198e+002 1.043760e+002 6.622805e+001
      endloop
   endfacet
   facet normal 1.000000e+000 0.000000e+000 -1.435740e-016
      outer loop
         vertex 3.341198e+002 1.043760e+002 6.622805e+001
         vertex 3.341198e+002 1.065178e+002 6.930454e+001
         vertex 3.341198e+002 1.039678e+002 6.872253e+001
      endloop
   endfacet
   facet normal 1.000000e+000 0.000000e+000 -1.435740e-016
      outer loop
         vertex 3.341198e+002 1.043760e+002 6.622805e+001
         vertex 3.341198e+002 1.039678e+002 6.872253e+001
         vertex 3.341198e+002 1.021552e+002 6.528184e+001
      endloop
   endfacet
   facet normal 1.000000e+000 0.000000e+000 -1.435740e-016
      outer loop
         vertex 3.341198e+002 1.021552e+002 6.528184e+001
         vertex 3.341198e+002 1.039678e+002 6.872253e+001
         vertex 3.341198e+002 1.015331e+002 6.776696e+001
      endloop
   endfacet
   facet normal 1.000000e+000 0.000000e+000 -1.435740e-016
      outer loop
         vertex 3.341198e+002 1.021552e+002 6.528184e+001
         vertex 3.341198e+002 1.015331e+002 6.776696e+001
         vertex 3.341198e+002 1.001149e+002 6.399164e+001
      endloop
   endfacet
   facet normal 1.000000e+000 0.000000e+000 -1.435740e-016
      outer loop
         vertex 3.341198e+002 1.001149e+002 6.399164e+001
         vertex 3.341198e+002 1.015331e+002 6.776696e+001
         vertex 3.341198e+002 9.926796e+001 6.645918e+001
      endloop
   endfacet
   facet normal 1.000000e+000 0.000000e+000 -1.435740e-016
      outer loop
         vertex 3.341198e+002 1.001149e+002 6.399164e+001
         vertex 3.341198e+002 9.926796e+001 6.645918e+001
         vertex 3.341198e+002 9.830802e+001 6.239087e+001
      endloop
   endfacet
   facet normal 1.000000e+000 0.000000e+000 -1.435740e-016
      outer loop
         vertex 3.341198e+002 9.830802e+001 6.239087e+001
         vertex 3.341198e+002 9.926796e+001 6.645918e+001
         vertex 3.341198e+002 9.722304e+001 6.482841e+001
      endloop
   endfacet
   facet normal 1.000000e+000 0.000000e+000 -1.435740e-016
      outer loop
         vertex 3.341198e+002 9.830802e+001 6.239087e+001
         vertex 3.341198e+002 9.722304e+001 6.482841e+001
         vertex 3.341198e+002 9.678130e+001 6.052097e+001
      endloop
   endfacet
   facet normal 1.000000e+000 0.000000e+000 -1.435740e-016
      outer loop
         vertex 3.341198e+002 9.678130e+001 6.052097e+001
         vertex 3.341198e+002 9.722304e+001 6.482841e+001
         vertex 3.341198e+002 9.544401e+001 6.291107e+001
      endloop
   endfacet
   facet normal 1.000000e+000 0.000000e+000 -1.435740e-016
      outer loop
         vertex 3.341198e+002 9.678130e+001 6.052097e+001
         vertex 3.341198e+002 9.544401e+001 6.291107e+001
         vertex 3.341198e+002 9.397061e+001 6.075000e+001
      endloop
   endfacet
   facet normal -1.000000e+000 0.000000e+000 1.435740e-016
      outer loop
         vertex 2.421199e+002 9.678130e+001 6.052097e+001
         vertex 2.421199e+002 9.544401e+001 6.291107e+001
         vertex 2.421199e+002 9.830802e+001 6.239087e+001
      endloop
   endfacet
   facet normal -1.000000e+000 0.000000e+000 1.435740e-016
      outer loop
         vertex 2.421199e+002 9.830802e+001 6.239087e+001
         vertex 2.421199e+002 9.544401e+001 6.291107e+001
         vertex 2.421199e+002 9.722304e+001 6.482841e+001
      endloop
   endfacet
   facet normal -1.000000e+000 0.000000e+000 1.435740e-016
      outer loop
         vertex 2.421199e+002 9.830802e+001 6.239087e+001
         vertex 2.421199e+002 9.722304e+001 6.482841e+001
         vertex 2.421199e+002 1.001149e+002 6.399164e+001
      endloop
   endfacet
   facet normal -1.000000e+000 0.000000e+000 1.435740e-016
      outer loop
         vertex 2.421199e+002 1.001149e+002 6.399164e+001
         vertex 2.421199e+002 9.722304e+001 6.482841e+001
         vertex 2.421199e+002 9.926796e+001 6.645918e+001
      endloop
   endfacet
   facet normal -1.000000e+000 0.000000e+000 1.435740e-016
      outer loop
         vertex 2.421199e+002 1.001149e+002 6.399164e+001
         vertex 2.421199e+002 9.926796e+001 6.645918e+001
         vertex 2.421199e+002 1.021552e+002 6.528184e+001
      endloop
   endfacet
   facet normal -1.000000e+000 0.000000e+000 1.435740e-016
      outer loop
         vertex 2.421199e+002 1.021552e+002 6.528184e+001
         vertex 2.421199e+002 9.926796e+001 6.645918e+001
         vertex 2.421199e+002 1.015331e+002 6.776696e+001
      endloop
   endfacet
   facet normal -1.000000e+000 0.000000e+000 1.435740e-016
      outer loop
         vertex 2.421199e+002 1.021552e+002 6.528184e+001
         vertex 2.421199e+002 1.015331e+002 6.776696e+001
         vertex 2.421199e+002 1.043760e+002 6.622805e+001
      endloop
   endfacet
   facet normal -1.000000e+000 0.000000e+000 1.435740e-016
      outer loop
         vertex 2.421199e+002 1.043760e+002 6.622805e+001
         vertex 2.421199e+002 1.015331e+002 6.776696e+001
         vertex 2.421199e+002 1.039678e+002 6.872253e+001
      endloop
   endfacet
   facet normal -1.000000e+000 0.000000e+000 1.435740e-016
      outer loop
         vertex 2.421199e+002 1.043760e+002 6.622805e+001
         vertex 2.421199e+002 1.039678e+002 6.872253e+001
         vertex 2.421199e+002 1.067199e+002 6.680576e+001
      endloop
   endfacet
   facet normal -1.000000e+000 0.000000e+000 1.435740e-016
      outer loop
         vertex 2.421199e+002 1.067199e+002 6.680576e+001
         vertex 2.421199e+002 1.039678e+002 6.872253e+001
         vertex 2.421199e+002 1.065178e+002 6.930454e+001
      endloop
   endfacet
   facet normal -1.000000e+000 0.000000e+000 1.435740e-016
      outer loop
         vertex 2.421199e+002 1.067199e+002 6.680576e+001
         vertex 2.421199e+002 1.065178e+002 6.930454e+001
         vertex 2.421199e+002 1.091261e+002 6.700000e+001
      endloop
   endfacet
   facet normal -1.000000e+000 0.000000e+000 1.435740e-016
      outer loop
         vertex 2.421199e+002 1.091261e+002 6.700000e+001
         vertex 2.421199e+002 1.065178e+002 6.930454e+001
         vertex 2.421199e+002 1.091261e+002 6.950000e+001
      endloop
   endfacet
   facet normal -1.000000e+000 0.000000e+000 1.435740e-016
      outer loop
         vertex 2.421199e+002 1.091261e+002 6.700000e+001
         vertex 2.421199e+002 1.091261e+002 6.950000e+001
         vertex 2.421199e+002 1.115322e+002 6.680576e+001
      endloop
   endfacet
   facet normal -1.000000e+000 0.000000e+000 1.435740e-016
      outer loop
         vertex 2.421199e+002 1.115322e+002 6.680576e+001
         vertex 2.421199e+002 1.091261e+002 6.950000e+001
         vertex 2.421199e+002 1.117343e+002 6.930454e+001
      endloop
   endfacet
   facet normal -1.000000e+000 0.000000e+000 1.435740e-016
      outer loop
         vertex 2.421199e+002 1.115322e+002 6.680576e+001
         vertex 2.421199e+002 1.117343e+002 6.930454e+001
         vertex 2.421199e+002 1.138761e+002 6.622805e+001
      endloop
   endfacet
   facet normal -1.000000e+000 0.000000e+000 1.435740e-016
      outer loop
         vertex 2.421199e+002 1.138761e+002 6.622805e+001
         vertex 2.421199e+002 1.117343e+002 6.930454e+001
         vertex 2.421199e+002 1.142843e+002 6.872253e+001
      endloop
   endfacet
   facet normal -1.000000e+000 0.000000e+000 1.435740e-016
      outer loop
         vertex 2.421199e+002 1.138761e+002 6.622805e+001
         vertex 2.421199e+002 1.142843e+002 6.872253e+001
         vertex 2.421199e+002 1.160969e+002 6.528184e+001
      endloop
   endfacet
   facet normal -1.000000e+000 0.000000e+000 1.435740e-016
      outer loop
         vertex 2.421199e+002 1.160969e+002 6.528184e+001
         vertex 2.421199e+002 1.142843e+002 6.872253e+001
         vertex 2.421199e+002 1.167190e+002 6.776696e+001
      endloop
   endfacet
   facet normal -1.000000e+000 0.000000e+000 1.435740e-016
      outer loop
         vertex 2.421199e+002 1.160969e+002 6.528184e+001
         vertex 2.421199e+002 1.167190e+002 6.776696e+001
         vertex 2.421199e+002 1.181372e+002 6.399164e+001
      endloop
   endfacet
   facet normal -1.000000e+000 0.000000e+000 1.435740e-016
      outer loop
         vertex 2.421199e+002 1.181372e+002 6.399164e+001
         vertex 2.421199e+002 1.167190e+002 6.776696e+001
         vertex 2.421199e+002 1.189842e+002 6.645918e+001
      endloop
   endfacet
   facet normal -1.000000e+000 0.000000e+000 1.435740e-016
      outer loop
         vertex 2.421199e+002 1.181372e+002 6.399164e+001
         vertex 2.421199e+002 1.189842e+002 6.645918e+001
         vertex 2.421199e+002 1.199441e+002 6.239087e+001
      endloop
   endfacet
   facet normal -1.000000e+000 0.000000e+000 1.435740e-016
      outer loop
         vertex 2.421199e+002 1.199441e+002 6.239087e+001
         vertex 2.421199e+002 1.189842e+002 6.645918e+001
         vertex 2.421199e+002 1.210291e+002 6.482841e+001
      endloop
   endfacet
   facet normal -1.000000e+000 0.000000e+000 1.435740e-016
      outer loop
         vertex 2.421199e+002 1.199441e+002 6.239087e+001
         vertex 2.421199e+002 1.210291e+002 6.482841e+001
         vertex 2.421199e+002 1.214708e+002 6.052097e+001
      endloop
   endfacet
   facet normal -1.000000e+000 0.000000e+000 1.435740e-016
      outer loop
         vertex 2.421199e+002 1.214708e+002 6.052097e+001
         vertex 2.421199e+002 1.210291e+002 6.482841e+001
         vertex 2.421199e+002 1.228081e+002 6.291107e+001
      endloop
   endfacet
   facet normal -1.000000e+000 0.000000e+000 1.435740e-016
      outer loop
         vertex 2.421199e+002 1.214708e+002 6.052097e+001
         vertex 2.421199e+002 1.228081e+002 6.291107e+001
         vertex 2.421199e+002 1.226778e+002 5.843039e+001
      endloop
   endfacet
   facet normal -1.000000e+000 0.000000e+000 1.435740e-016
      outer loop
         vertex 2.421199e+002 1.228081e+002 6.291107e+001
         vertex 2.421199e+002 1.242815e+002 6.075000e+001
         vertex 2.421199e+002 1.226778e+002 5.843039e+001
      endloop
   endfacet
   facet normal -1.000000e+000 0.000000e+000 1.435740e-016
      outer loop
         vertex 2.421199e+002 1.226778e+002 5.843039e+001
         vertex 2.421199e+002 1.242815e+002 6.075000e+001
         vertex 2.421199e+002 1.254164e+002 5.839347e+001
      endloop
   endfacet
   facet normal -1.000000e+000 0.000000e+000 1.435740e-016
      outer loop
         vertex 2.421199e+002 1.226778e+002 5.843039e+001
         vertex 2.421199e+002 1.254164e+002 5.839347e+001
         vertex 2.421199e+002 1.235338e+002 5.617326e+001
      endloop
   endfacet
   facet normal -1.000000e+000 0.000000e+000 1.435740e-016
      outer loop
         vertex 2.421199e+002 1.235338e+002 5.617326e+001
         vertex 2.421199e+002 1.254164e+002 5.839347e+001
         vertex 2.421199e+002 1.261873e+002 5.589412e+001
      endloop
   endfacet
   facet normal -1.000000e+000 0.000000e+000 1.435740e-016
      outer loop
         vertex 2.421199e+002 1.235338e+002 5.617326e+001
         vertex 2.421199e+002 1.261873e+002 5.589412e+001
         vertex 2.421199e+002 1.240167e+002 5.380805e+001
      endloop
   endfacet
   facet normal -1.000000e+000 0.000000e+000 1.435740e-016
      outer loop
         vertex 2.421199e+002 1.240167e+002 5.380805e+001
         vertex 2.421199e+002 1.261873e+002 5.589412e+001
         vertex 2.421199e+002 1.265771e+002 5.330778e+001
      endloop
   endfacet
   facet normal -1.000000e+000 0.000000e+000 1.435740e-016
      outer loop
         vertex 2.421199e+002 1.240167e+002 5.380805e+001
         vertex 2.421199e+002 1.265771e+002 5.330778e+001
         vertex 2.421199e+002 1.241139e+002 5.139601e+001
      endloop
   endfacet
   facet normal -1.000000e+000 0.000000e+000 1.435740e-016
      outer loop
         vertex 2.421199e+002 1.241139e+002 5.139601e+001
         vertex 2.421199e+002 1.265771e+002 5.330778e+001
         vertex 2.421199e+002 1.265771e+002 5.069222e+001
      endloop
   endfacet
   facet normal -1.000000e+000 0.000000e+000 1.435740e-016
      outer loop
         vertex 2.421199e+002 1.241139e+002 5.139601e+001
         vertex 2.421199e+002 1.265771e+002 5.069222e+001
         vertex 2.421199e+002 1.238229e+002 4.899961e+001
      endloop
   endfacet
   facet normal -1.000000e+000 0.000000e+000 1.435740e-016
      outer loop
         vertex 2.421199e+002 1.238229e+002 4.899961e+001
         vertex 2.421199e+002 1.265771e+002 5.069222e+001
         vertex 2.421199e+002 1.261873e+002 4.810588e+001
      endloop
   endfacet
   facet normal -1.000000e+000 0.000000e+000 1.435740e-016
      outer loop
         vertex 2.421199e+002 1.238229e+002 4.899961e+001
         vertex 2.421199e+002 1.261873e+002 4.810588e+001
         vertex 2.421199e+002 1.231513e+002 4.668093e+001
      endloop
   endfacet
   facet normal -1.000000e+000 0.000000e+000 1.435740e-016
      outer loop
         vertex 2.421199e+002 1.231513e+002 4.668093e+001
         vertex 2.421199e+002 1.261873e+002 4.810588e+001
         vertex 2.421199e+002 1.254164e+002 4.560653e+001
      endloop
   endfacet
   facet normal -1.000000e+000 0.000000e+000 1.435740e-016
      outer loop
         vertex 2.421199e+002 1.231513e+002 4.668093e+001
         vertex 2.421199e+002 1.254164e+002 4.560653e+001
         vertex 2.421199e+002 1.221164e+002 4.450000e+001
      endloop
   endfacet
   facet normal -1.000000e+000 0.000000e+000 1.435740e-016
      outer loop
         vertex 2.421199e+002 1.221164e+002 4.450000e+001
         vertex 2.421199e+002 1.254164e+002 4.560653e+001
         vertex 2.421199e+002 1.242815e+002 4.325000e+001
      endloop
   endfacet
   facet normal -1.000000e+000 0.000000e+000 1.435740e-016
      outer loop
         vertex 2.421199e+002 1.221164e+002 4.450000e+001
         vertex 2.421199e+002 1.242815e+002 4.325000e+001
         vertex 2.421199e+002 1.207451e+002 4.251332e+001
      endloop
   endfacet
   facet normal -1.000000e+000 0.000000e+000 1.435740e-016
      outer loop
         vertex 2.421199e+002 1.207451e+002 4.251332e+001
         vertex 2.421199e+002 1.242815e+002 4.325000e+001
         vertex 2.421199e+002 1.228081e+002 4.108893e+001
      endloop
   endfacet
   facet normal -1.000000e+000 0.000000e+000 1.435740e-016
      outer loop
         vertex 2.421199e+002 1.207451e+002 4.251332e+001
         vertex 2.421199e+002 1.228081e+002 4.108893e+001
         vertex 2.421199e+002 1.190729e+002 4.077234e+001
      endloop
   endfacet
   facet normal -1.000000e+000 0.000000e+000 1.435740e-016
      outer loop
         vertex 2.421199e+002 1.190729e+002 4.077234e+001
         vertex 2.421199e+002 1.228081e+002 4.108893e+001
         vertex 2.421199e+002 1.210291e+002 3.917159e+001
      endloop
   endfacet
   facet normal -1.000000e+000 0.000000e+000 1.435740e-016
      outer loop
         vertex 2.421199e+002 1.190729e+002 4.077234e+001
         vertex 2.421199e+002 1.210291e+002 3.917159e+001
         vertex 2.421199e+002 1.171430e+002 3.932215e+001
      endloop
   endfacet
   facet normal -1.000000e+000 0.000000e+000 1.435740e-016
      outer loop
         vertex 2.421199e+002 1.171430e+002 3.932215e+001
         vertex 2.421199e+002 1.210291e+002 3.917159e+001
         vertex 2.421199e+002 1.189842e+002 3.754082e+001
      endloop
   endfacet
   facet normal -1.000000e+000 0.000000e+000 1.435740e-016
      outer loop
         vertex 2.421199e+002 1.171430e+002 3.932215e+001
         vertex 2.421199e+002 1.189842e+002 3.754082e+001
         vertex 2.421199e+002 1.150056e+002 3.820031e+001
      endloop
   endfacet
   facet normal -1.000000e+000 0.000000e+000 1.435740e-016
      outer loop
         vertex 2.421199e+002 1.150056e+002 3.820031e+001
         vertex 2.421199e+002 1.189842e+002 3.754082e+001
         vertex 2.421199e+002 1.167190e+002 3.623304e+001
      endloop
   endfacet
   facet normal -1.000000e+000 0.000000e+000 1.435740e-016
      outer loop
         vertex 2.421199e+002 1.150056e+002 3.820031e+001
         vertex 2.421199e+002 1.167190e+002 3.623304e+001
         vertex 2.421199e+002 1.127158e+002 3.743587e+001
      endloop
   endfacet
   facet normal -1.000000e+000 0.000000e+000 1.435740e-016
      outer loop
         vertex 2.421199e+002 1.127158e+002 3.743587e+001
         vertex 2.421199e+002 1.167190e+002 3.623304e+001
         vertex 2.421199e+002 1.142843e+002 3.527748e+001
      endloop
   endfacet
   facet normal -1.000000e+000 0.000000e+000 1.435740e-016
      outer loop
         vertex 2.421199e+002 1.127158e+002 3.743587e+001
         vertex 2.421199e+002 1.142843e+002 3.527748e+001
         vertex 2.421199e+002 1.103331e+002 3.704864e+001
      endloop
   endfacet
   facet normal -1.000000e+000 0.000000e+000 1.435740e-016
      outer loop
         vertex 2.421199e+002 1.103331e+002 3.704864e+001
         vertex 2.421199e+002 1.142843e+002 3.527748e+001
         vertex 2.421199e+002 1.117343e+002 3.469546e+001
      endloop
   endfacet
   facet normal -1.000000e+000 0.000000e+000 1.435740e-016
      outer loop
         vertex 2.421199e+002 1.103331e+002 3.704864e+001
         vertex 2.421199e+002 1.117343e+002 3.469546e+001
         vertex 2.421199e+002 1.079191e+002 3.704864e+001
      endloop
   endfacet
   facet normal -1.000000e+000 0.000000e+000 1.435740e-016
      outer loop
         vertex 2.421199e+002 1.117343e+002 3.469546e+001
         vertex 2.421199e+002 1.091261e+002 3.450000e+001
         vertex 2.421199e+002 1.079191e+002 3.704864e+001
      endloop
   endfacet
   facet normal -1.000000e+000 0.000000e+000 1.435740e-016
      outer loop
         vertex 2.421199e+002 1.079191e+002 3.704864e+001
         vertex 2.421199e+002 1.091261e+002 3.450000e+001
         vertex 2.421199e+002 1.065178e+002 3.469546e+001
      endloop
   endfacet
   facet normal -1.000000e+000 0.000000e+000 1.435740e-016
      outer loop
         vertex 2.421199e+002 1.079191e+002 3.704864e+001
         vertex 2.421199e+002 1.065178e+002 3.469546e+001
         vertex 2.421199e+002 1.055363e+002 3.743587e+001
      endloop
   endfacet
   facet normal -1.000000e+000 0.000000e+000 1.435740e-016
      outer loop
         vertex 2.421199e+002 1.055363e+002 3.743587e+001
         vertex 2.421199e+002 1.065178e+002 3.469546e+001
         vertex 2.421199e+002 1.039678e+002 3.527748e+001
      endloop
   endfacet
   facet normal -1.000000e+000 0.000000e+000 1.435740e-016
      outer loop
         vertex 2.421199e+002 1.055363e+002 3.743587e+001
         vertex 2.421199e+002 1.039678e+002 3.527748e+001
         vertex 2.421199e+002 1.032466e+002 3.820031e+001
      endloop
   endfacet
   facet normal -1.000000e+000 0.000000e+000 1.435740e-016
      outer loop
         vertex 2.421199e+002 1.032466e+002 3.820031e+001
         vertex 2.421199e+002 1.039678e+002 3.527748e+001
         vertex 2.421199e+002 1.015331e+002 3.623304e+001
      endloop
   endfacet
   facet normal -1.000000e+000 0.000000e+000 1.435740e-016
      outer loop
         vertex 2.421199e+002 1.032466e+002 3.820031e+001
         vertex 2.421199e+002 1.015331e+002 3.623304e+001
         vertex 2.421199e+002 1.011091e+002 3.932215e+001
      endloop
   endfacet
   facet normal -1.000000e+000 0.000000e+000 1.435740e-016
      outer loop
         vertex 2.421199e+002 1.011091e+002 3.932215e+001
         vertex 2.421199e+002 1.015331e+002 3.623304e+001
         vertex 2.421199e+002 9.926796e+001 3.754082e+001
      endloop
   endfacet
   facet normal -1.000000e+000 0.000000e+000 1.435740e-016
      outer loop
         vertex 2.421199e+002 1.011091e+002 3.932215e+001
         vertex 2.421199e+002 9.926796e+001 3.754082e+001
         vertex 2.421199e+002 9.917921e+001 4.077234e+001
      endloop
   endfacet
   facet normal -1.000000e+000 0.000000e+000 1.435740e-016
      outer loop
         vertex 2.421199e+002 9.917921e+001 4.077234e+001
         vertex 2.421199e+002 9.926796e+001 3.754082e+001
         vertex 2.421199e+002 9.722304e+001 3.917159e+001
      endloop
   endfacet
   facet normal -1.000000e+000 0.000000e+000 1.435740e-016
      outer loop
         vertex 2.421199e+002 9.917921e+001 4.077234e+001
         vertex 2.421199e+002 9.722304e+001 3.917159e+001
         vertex 2.421199e+002 9.750699e+001 4.251332e+001
      endloop
   endfacet
   facet normal -1.000000e+000 0.000000e+000 1.435740e-016
      outer loop
         vertex 2.421199e+002 9.750699e+001 4.251332e+001
         vertex 2.421199e+002 9.722304e+001 3.917159e+001
         vertex 2.421199e+002 9.544401e+001 4.108893e+001
      endloop
   endfacet
   facet normal -1.000000e+000 0.000000e+000 1.435740e-016
      outer loop
         vertex 2.421199e+002 9.750699e+001 4.251332e+001
         vertex 2.421199e+002 9.544401e+001 4.108893e+001
         vertex 2.421199e+002 9.613567e+001 4.450000e+001
      endloop
   endfacet
   facet normal -1.000000e+000 0.000000e+000 1.435740e-016
      outer loop
         vertex 2.421199e+002 9.613567e+001 4.450000e+001
         vertex 2.421199e+002 9.544401e+001 4.108893e+001
         vertex 2.421199e+002 9.397061e+001 4.325000e+001
      endloop
   endfacet
   facet normal -1.000000e+000 0.000000e+000 1.435740e-016
      outer loop
         vertex 2.421199e+002 9.613567e+001 4.450000e+001
         vertex 2.421199e+002 9.397061e+001 4.325000e+001
         vertex 2.421199e+002 9.510081e+001 4.668093e+001
      endloop
   endfacet
   facet normal -1.000000e+000 0.000000e+000 1.435740e-016
      outer loop
         vertex 2.421199e+002 9.510081e+001 4.668093e+001
         vertex 2.421199e+002 9.397061e+001 4.325000e+001
         vertex 2.421199e+002 9.283577e+001 4.560653e+001
      endloop
   endfacet
   facet normal -1.000000e+000 0.000000e+000 1.435740e-016
      outer loop
         vertex 2.421199e+002 9.510081e+001 4.668093e+001
         vertex 2.421199e+002 9.283577e+001 4.560653e+001
         vertex 2.421199e+002 9.442920e+001 4.899961e+001
      endloop
   endfacet
   facet normal -1.000000e+000 0.000000e+000 1.435740e-016
      outer loop
         vertex 2.421199e+002 9.442920e+001 4.899961e+001
         vertex 2.421199e+002 9.283577e+001 4.560653e+001
         vertex 2.421199e+002 9.206482e+001 4.810588e+001
      endloop
   endfacet
   facet normal -1.000000e+000 0.000000e+000 1.435740e-016
      outer loop
         vertex 2.421199e+002 9.442920e+001 4.899961e+001
         vertex 2.421199e+002 9.206482e+001 4.810588e+001
         vertex 2.421199e+002 9.413822e+001 5.139601e+001
      endloop
   endfacet
   facet normal -1.000000e+000 0.000000e+000 1.435740e-016
      outer loop
         vertex 2.421199e+002 9.413822e+001 5.139601e+001
         vertex 2.421199e+002 9.206482e+001 4.810588e+001
         vertex 2.421199e+002 9.167499e+001 5.069222e+001
      endloop
   endfacet
   facet normal -1.000000e+000 0.000000e+000 1.435740e-016
      outer loop
         vertex 2.421199e+002 9.413822e+001 5.139601e+001
         vertex 2.421199e+002 9.167499e+001 5.069222e+001
         vertex 2.421199e+002 9.423543e+001 5.380805e+001
      endloop
   endfacet
   facet normal -1.000000e+000 0.000000e+000 1.435740e-016
      outer loop
         vertex 2.421199e+002 9.423543e+001 5.380805e+001
         vertex 2.421199e+002 9.167499e+001 5.069222e+001
         vertex 2.421199e+002 9.167499e+001 5.330778e+001
      endloop
   endfacet
   facet normal -1.000000e+000 0.000000e+000 1.435740e-016
      outer loop
         vertex 2.421199e+002 9.423543e+001 5.380805e+001
         vertex 2.421199e+002 9.167499e+001 5.330778e+001
         vertex 2.421199e+002 9.471828e+001 5.617326e+001
      endloop
   endfacet
   facet normal -1.000000e+000 0.000000e+000 1.435740e-016
      outer loop
         vertex 2.421199e+002 9.471828e+001 5.617326e+001
         vertex 2.421199e+002 9.167499e+001 5.330778e+001
         vertex 2.421199e+002 9.206482e+001 5.589412e+001
      endloop
   endfacet
   facet normal -1.000000e+000 0.000000e+000 1.435740e-016
      outer loop
         vertex 2.421199e+002 9.471828e+001 5.617326e+001
         vertex 2.421199e+002 9.206482e+001 5.589412e+001
         vertex 2.421199e+002 9.557430e+001 5.843039e+001
      endloop
   endfacet
   facet normal -1.000000e+000 0.000000e+000 1.435740e-016
      outer loop
         vertex 2.421199e+002 9.557430e+001 5.843039e+001
         vertex 2.421199e+002 9.206482e+001 5.589412e+001
         vertex 2.421199e+002 9.283577e+001 5.839347e+001
      endloop
   endfacet
   facet normal -1.000000e+000 0.000000e+000 1.435740e-016
      outer loop
         vertex 2.421199e+002 9.557430e+001 5.843039e+001
         vertex 2.421199e+002 9.283577e+001 5.839347e+001
         vertex 2.421199e+002 9.678130e+001 6.052097e+001
      endloop
   endfacet
   facet normal -1.000000e+000 0.000000e+000 1.435740e-016
      outer loop
         vertex 2.421199e+002 9.678130e+001 6.052097e+001
         vertex 2.421199e+002 9.283577e+001 5.839347e+001
         vertex 2.421199e+002 9.397061e+001 6.075000e+001
      endloop
   endfacet
   facet normal -1.000000e+000 0.000000e+000 1.435740e-016
      outer loop
         vertex 2.421199e+002 9.678130e+001 6.052097e+001
         vertex 2.421199e+002 9.397061e+001 6.075000e+001
         vertex 2.421199e+002 9.544401e+001 6.291107e+001
      endloop
   endfacet
   facet normal 1.406799e-016 4.980453e-002 9.987590e-001
      outer loop
         vertex 3.341198e+002 1.117343e+002 6.930454e+001
         vertex 2.421199e+002 1.091261e+002 6.950000e+001
         vertex 3.341198e+002 1.091261e+002 6.950000e+001
      endloop
   endfacet
   facet normal 1.461118e-016 -4.980453e-002 9.987590e-001
      outer loop
         vertex 3.341198e+002 1.091261e+002 6.950000e+001
         vertex 2.421199e+002 1.091261e+002 6.950000e+001
         vertex 2.421199e+002 1.065178e+002 6.930454e+001
      endloop
   endfacet
   facet normal 1.482920e-016 -9.960905e-002 9.950266e-001
      outer loop
         vertex 3.341198e+002 1.091261e+002 6.950000e+001
         vertex 2.421199e+002 1.065178e+002 6.930454e+001
         vertex 3.341198e+002 1.065178e+002 6.930454e+001
      endloop
   endfacet
   facet normal 1.515318e-016 -1.981055e-001 9.801807e-001
      outer loop
         vertex 3.341198e+002 1.065178e+002 6.930454e+001
         vertex 2.421199e+002 1.065178e+002 6.930454e+001
         vertex 2.421199e+002 1.039678e+002 6.872253e+001
      endloop
   endfacet
   facet normal 1.525915e-016 -2.467975e-001 9.690670e-001
      outer loop
         vertex 3.341198e+002 1.065178e+002 6.930454e+001
         vertex 2.421199e+002 1.039678e+002 6.872253e+001
         vertex 3.341198e+002 1.039678e+002 6.872253e+001
      endloop
   endfacet
   facet normal 1.535668e-016 -3.419812e-001 9.397067e-001
      outer loop
         vertex 3.341198e+002 1.039678e+002 6.872253e+001
         vertex 2.421199e+002 1.039678e+002 6.872253e+001
         vertex 2.421199e+002 1.015331e+002 6.776696e+001
      endloop
   endfacet
   facet normal 1.534824e-016 -3.884729e-001 9.214601e-001
      outer loop
         vertex 3.341198e+002 1.039678e+002 6.872253e+001
         vertex 2.421199e+002 1.015331e+002 6.776696e+001
         vertex 3.341198e+002 1.015331e+002 6.776696e+001
      endloop
   endfacet
   facet normal 1.521713e-016 -4.782176e-001 8.782414e-001
      outer loop
         vertex 3.341198e+002 1.015331e+002 6.776696e+001
         vertex 2.421199e+002 1.015331e+002 6.776696e+001
         vertex 2.421199e+002 9.926796e+001 6.645918e+001
      endloop
   endfacet
   facet normal 1.509447e-016 -5.214705e-001 8.532693e-001
      outer loop
         vertex 3.341198e+002 1.015331e+002 6.776696e+001
         vertex 2.421199e+002 9.926796e+001 6.645918e+001
         vertex 3.341198e+002 9.926796e+001 6.645918e+001
      endloop
   endfacet
   facet normal 1.473766e-016 -6.037714e-001 7.971576e-001
      outer loop
         vertex 3.341198e+002 9.926796e+001 6.645918e+001
         vertex 2.421199e+002 9.926796e+001 6.645918e+001
         vertex 2.421199e+002 9.722304e+001 6.482841e+001
      endloop
   endfacet
   facet normal 1.450352e-016 -6.428193e-001 7.660179e-001
      outer loop
         vertex 3.341198e+002 9.926796e+001 6.645918e+001
         vertex 2.421199e+002 9.722304e+001 6.482841e+001
         vertex 3.341198e+002 9.722304e+001 6.482841e+001
      endloop
   endfacet
   facet normal 1.392898e-016 -7.158380e-001 6.982664e-001
      outer loop
         vertex 3.341198e+002 9.722304e+001 6.482841e+001
         vertex 2.421199e+002 9.722304e+001 6.482841e+001
         vertex 2.421199e+002 9.544401e+001 6.291107e+001
      endloop
   endfacet
   facet normal 1.358858e-016 -7.498086e-001 6.616548e-001
      outer loop
         vertex 3.341198e+002 9.722304e+001 6.482841e+001
         vertex 2.421199e+002 9.544401e+001 6.291107e+001
         vertex 3.341198e+002 9.544401e+001 6.291107e+001
      endloop
   endfacet
   facet normal 1.280914e-016 -8.119138e-001 5.837772e-001
      outer loop
         vertex 3.341198e+002 9.544401e+001 6.291107e+001
         vertex 2.421199e+002 9.544401e+001 6.291107e+001
         vertex 2.421199e+002 9.397061e+001 6.075000e+001
      endloop
   endfacet
   facet normal 1.237010e-016 -8.400484e-001 5.425115e-001
      outer loop
         vertex 3.341198e+002 9.544401e+001 6.291107e+001
         vertex 2.421199e+002 9.397061e+001 6.075000e+001
         vertex 3.341198e+002 9.397061e+001 6.075000e+001
      endloop
   endfacet
   facet normal 1.140317e-016 -8.898529e-001 4.562475e-001
      outer loop
         vertex 3.341198e+002 9.397061e+001 6.075000e+001
         vertex 2.421199e+002 9.397061e+001 6.075000e+001
         vertex 2.421199e+002 9.283577e+001 5.839347e+001
      endloop
   endfacet
   facet normal 1.087529e-016 -9.115229e-001 4.112494e-001
      outer loop
         vertex 3.341198e+002 9.397061e+001 6.075000e+001
         vertex 2.421199e+002 9.283577e+001 5.839347e+001
         vertex 3.341198e+002 9.283577e+001 5.839347e+001
      endloop
   endfacet
   facet normal 9.742474e-017 -9.479141e-001 3.185259e-001
      outer loop
         vertex 3.341198e+002 9.283577e+001 5.839347e+001
         vertex 2.421199e+002 9.283577e+001 5.839347e+001
         vertex 2.421199e+002 9.206482e+001 5.589412e+001
      endloop
   endfacet
   facet normal 9.137543e-017 -9.626355e-001 2.708006e-001
      outer loop
         vertex 3.341198e+002 9.283577e+001 5.839347e+001
         vertex 2.421199e+002 9.206482e+001 5.589412e+001
         vertex 3.341198e+002 9.206482e+001 5.589412e+001
      endloop
   endfacet
   facet normal 7.864145e-017 -9.848005e-001 1.736889e-001
      outer loop
         vertex 3.341198e+002 9.206482e+001 5.589412e+001
         vertex 2.421199e+002 9.206482e+001 5.589412e+001
         vertex 2.421199e+002 9.167499e+001 5.330778e+001
      endloop
   endfacet
   facet normal 7.195678e-017 -9.922444e-001 1.243026e-001
      outer loop
         vertex 3.341198e+002 9.206482e+001 5.589412e+001
         vertex 2.421199e+002 9.167499e+001 5.330778e+001
         vertex 3.341198e+002 9.167499e+001 5.330778e+001
      endloop
   endfacet
   facet normal 5.810143e-017 -9.996881e-001 2.497209e-002
      outer loop
         vertex 3.341198e+002 9.167499e+001 5.330778e+001
         vertex 2.421199e+002 9.167499e+001 5.330778e+001
         vertex 2.421199e+002 9.167499e+001 5.069222e+001
      endloop
   endfacet
   facet normal 5.093075e-017 -9.996881e-001 -2.497209e-002
      outer loop
         vertex 3.341198e+002 9.167499e+001 5.330778e+001
         vertex 2.421199e+002 9.167499e+001 5.069222e+001
         vertex 3.341198e+002 9.167499e+001 5.069222e+001
      endloop
   endfacet
   facet normal 3.626354e-017 -9.922444e-001 -1.243026e-001
      outer loop
         vertex 3.341198e+002 9.167499e+001 5.069222e+001
         vertex 2.421199e+002 9.167499e+001 5.069222e+001
         vertex 2.421199e+002 9.206482e+001 4.810588e+001
      endloop
   endfacet
   facet normal 2.876701e-017 -9.848005e-001 -1.736889e-001
      outer loop
         vertex 3.341198e+002 9.167499e+001 5.069222e+001
         vertex 2.421199e+002 9.206482e+001 4.810588e+001
         vertex 3.341198e+002 9.206482e+001 4.810588e+001
      endloop
   endfacet
   facet normal 1.361556e-017 -9.626355e-001 -2.708006e-001
      outer loop
         vertex 3.341198e+002 9.206482e+001 4.810588e+001
         vertex 2.421199e+002 9.206482e+001 4.810588e+001
         vertex 2.421199e+002 9.283577e+001 4.560653e+001
      endloop
   endfacet
   facet normal 5.960652e-018 -9.479141e-001 -3.185259e-001
      outer loop
         vertex 3.341198e+002 9.206482e+001 4.810588e+001
         vertex 2.421199e+002 9.283577e+001 4.560653e+001
         vertex 3.341198e+002 9.283577e+001 4.560653e+001
      endloop
   endfacet
   facet normal -9.336555e-018 -9.115229e-001 -4.112494e-001
      outer loop
         vertex 3.341198e+002 9.283577e+001 4.560653e+001
         vertex 2.421199e+002 9.283577e+001 4.560653e+001
         vertex 2.421199e+002 9.397061e+001 4.325000e+001
      endloop
   endfacet
   facet normal -1.697885e-017 -8.898529e-001 -4.562475e-001
      outer loop
         vertex 3.341198e+002 9.283577e+001 4.560653e+001
         vertex 2.421199e+002 9.397061e+001 4.325000e+001
         vertex 3.341198e+002 9.397061e+001 4.325000e+001
      endloop
   endfacet
   facet normal -3.208011e-017 -8.400484e-001 -5.425115e-001
      outer loop
         vertex 3.341198e+002 9.397061e+001 4.325000e+001
         vertex 2.421199e+002 9.397061e+001 4.325000e+001
         vertex 2.421199e+002 9.544401e+001 4.108893e+001
      endloop
   endfacet
   facet normal -3.953907e-017 -8.119138e-001 -5.837773e-001
      outer loop
         vertex 3.341198e+002 9.397061e+001 4.325000e+001
         vertex 2.421199e+002 9.544401e+001 4.108893e+001
         vertex 3.341198e+002 9.544401e+001 4.108893e+001
      endloop
   endfacet
   facet normal -5.410705e-017 -7.498086e-001 -6.616548e-001
      outer loop
         vertex 3.341198e+002 9.544401e+001 4.108893e+001
         vertex 2.421199e+002 9.544401e+001 4.108893e+001
         vertex 2.421199e+002 9.722304e+001 3.917159e+001
      endloop
   endfacet
   facet normal -6.121607e-017 -7.158380e-001 -6.982664e-001
      outer loop
         vertex 3.341198e+002 9.544401e+001 4.108893e+001
         vertex 2.421199e+002 9.722304e+001 3.917159e+001
         vertex 3.341198e+002 9.722304e+001 3.917159e+001
      endloop
   endfacet
   facet normal -7.492533e-017 -6.428193e-001 -7.660179e-001
      outer loop
         vertex 3.341198e+002 9.722304e+001 3.917159e+001
         vertex 2.421199e+002 9.722304e+001 3.917159e+001
         vertex 2.421199e+002 9.926796e+001 3.754082e+001
      endloop
   endfacet
   facet normal -8.152558e-017 -6.037714e-001 -7.971575e-001
      outer loop
         vertex 3.341198e+002 9.722304e+001 3.917159e+001
         vertex 2.421199e+002 9.926796e+001 3.754082e+001
         vertex 3.341198e+002 9.926796e+001 3.754082e+001
      endloop
   endfacet
   facet normal -9.406991e-017 -5.214705e-001 -8.532693e-001
      outer loop
         vertex 3.341198e+002 9.926796e+001 3.754082e+001
         vertex 2.421199e+002 9.926796e+001 3.754082e+001
         vertex 2.421199e+002 1.015331e+002 3.623304e+001
      endloop
   endfacet
   facet normal -1.000140e-016 -4.782176e-001 -8.782414e-001
      outer loop
         vertex 3.341198e+002 9.926796e+001 3.754082e+001
         vertex 2.421199e+002 1.015331e+002 3.623304e+001
         vertex 3.341198e+002 1.015331e+002 3.623304e+001
      endloop
   endfacet
   facet normal -1.111131e-016 -3.884729e-001 -9.214601e-001
      outer loop
         vertex 3.341198e+002 1.015331e+002 3.623304e+001
         vertex 2.421199e+002 1.015331e+002 3.623304e+001
         vertex 2.421199e+002 1.039678e+002 3.527748e+001
      endloop
   endfacet
   facet normal -1.162682e-016 -3.419812e-001 -9.397067e-001
      outer loop
         vertex 3.341198e+002 1.015331e+002 3.623304e+001
         vertex 2.421199e+002 1.039678e+002 3.527748e+001
         vertex 3.341198e+002 1.039678e+002 3.527748e+001
      endloop
   endfacet
   facet normal -1.256742e-016 -2.467975e-001 -9.690670e-001
      outer loop
         vertex 3.341198e+002 1.039678e+002 3.527748e+001
         vertex 2.421199e+002 1.039678e+002 3.527748e+001
         vertex 2.421199e+002 1.065178e+002 3.469546e+001
      endloop
   endfacet
   facet normal -1.299252e-016 -1.981055e-001 -9.801807e-001
      outer loop
         vertex 3.341198e+002 1.039678e+002 3.527748e+001
         vertex 2.421199e+002 1.065178e+002 3.469546e+001
         vertex 3.341198e+002 1.065178e+002 3.469546e+001
      endloop
   endfacet
   facet normal -1.374280e-016 -9.960905e-002 -9.950266e-001
      outer loop
         vertex 3.341198e+002 1.065178e+002 3.469546e+001
         vertex 2.421199e+002 1.065178e+002 3.469546e+001
         vertex 2.421199e+002 1.091261e+002 3.450000e+001
      endloop
   endfacet
   facet normal -1.406799e-016 -4.980453e-002 -9.987590e-001
      outer loop
         vertex 3.341198e+002 1.065178e+002 3.469546e+001
         vertex 2.421199e+002 1.091261e+002 3.450000e+001
         vertex 3.341198e+002 1.091261e+002 3.450000e+001
      endloop
   endfacet
   facet normal -1.461118e-016 4.980453e-002 -9.987590e-001
      outer loop
         vertex 3.341198e+002 1.091261e+002 3.450000e+001
         vertex 2.421199e+002 1.091261e+002 3.450000e+001
         vertex 2.421199e+002 1.117343e+002 3.469546e+001
      endloop
   endfacet
   facet normal -1.482920e-016 9.960905e-002 -9.950266e-001
      outer loop
         vertex 3.341198e+002 1.091261e+002 3.450000e+001
         vertex 2.421199e+002 1.117343e+002 3.469546e+001
         vertex 3.341198e+002 1.117343e+002 3.469546e+001
      endloop
   endfacet
   facet normal -1.515318e-016 1.981055e-001 -9.801807e-001
      outer loop
         vertex 3.341198e+002 1.117343e+002 3.469546e+001
         vertex 2.421199e+002 1.117343e+002 3.469546e+001
         vertex 2.421199e+002 1.142843e+002 3.527748e+001
      endloop
   endfacet
   facet normal -1.525915e-016 2.467975e-001 -9.690670e-001
      outer loop
         vertex 3.341198e+002 1.117343e+002 3.469546e+001
         vertex 2.421199e+002 1.142843e+002 3.527748e+001
         vertex 3.341198e+002 1.142843e+002 3.527748e+001
      endloop
   endfacet
   facet normal -1.535668e-016 3.419812e-001 -9.397067e-001
      outer loop
         vertex 3.341198e+002 1.142843e+002 3.527748e+001
         vertex 2.421199e+002 1.142843e+002 3.527748e+001
         vertex 2.421199e+002 1.167190e+002 3.623304e+001
      endloop
   endfacet
   facet normal -1.534824e-016 3.884729e-001 -9.214601e-001
      outer loop
         vertex 3.341198e+002 1.142843e+002 3.527748e+001
         vertex 2.421199e+002 1.167190e+002 3.623304e+001
         vertex 3.341198e+002 1.167190e+002 3.623304e+001
      endloop
   endfacet
   facet normal -1.521713e-016 4.782176e-001 -8.782414e-001
      outer loop
         vertex 3.341198e+002 1.167190e+002 3.623304e+001
         vertex 2.421199e+002 1.167190e+002 3.623304e+001
         vertex 2.421199e+002 1.189842e+002 3.754082e+001
      endloop
   endfacet
   facet normal -1.509447e-016 5.214705e-001 -8.532693e-001
      outer loop
         vertex 3.341198e+002 1.167190e+002 3.623304e+001
         vertex 2.421199e+002 1.189842e+002 3.754082e+001
         vertex 3.341198e+002 1.189842e+002 3.754082e+001
      endloop
   endfacet
   facet normal -1.473766e-016 6.037714e-001 -7.971576e-001
      outer loop
         vertex 3.341198e+002 1.189842e+002 3.754082e+001
         vertex 2.421199e+002 1.189842e+002 3.754082e+001
         vertex 2.421199e+002 1.210291e+002 3.917159e+001
      endloop
   endfacet
   facet normal -1.450352e-016 6.428193e-001 -7.660179e-001
      outer loop
         vertex 3.341198e+002 1.189842e+002 3.754082e+001
         vertex 2.421199e+002 1.210291e+002 3.917159e+001
         vertex 3.341198e+002 1.210291e+002 3.917159e+001
      endloop
   endfacet
   facet normal -1.392898e-016 7.158380e-001 -6.982664e-001
      outer loop
         vertex 3.341198e+002 1.210291e+002 3.917159e+001
         vertex 2.421199e+002 1.210291e+002 3.917159e+001
         vertex 2.421199e+002 1.228081e+002 4.108893e+001
      endloop
   endfacet
   facet normal -1.358858e-016 7.498086e-001 -6.616548e-001
      outer loop
         vertex 3.341198e+002 1.210291e+002 3.917159e+001
         vertex 2.421199e+002 1.228081e+002 4.108893e+001
         vertex 3.341198e+002 1.228081e+002 4.108893e+001
      endloop
   endfacet
   facet normal -1.280914e-016 8.119138e-001 -5.837772e-001
      outer loop
         vertex 3.341198e+002 1.228081e+002 4.108893e+001
         vertex 2.421199e+002 1.228081e+002 4.108893e+001
         vertex 2.421199e+002 1.242815e+002 4.325000e+001
      endloop
   endfacet
   facet normal -1.237010e-016 8.400484e-001 -5.425115e-001
      outer loop
         vertex 3.341198e+002 1.228081e+002 4.108893e+001
         vertex 2.421199e+002 1.242815e+002 4.325000e+001
         vertex 3.341198e+002 1.242815e+002 4.325000e+001
      endloop
   endfacet
   facet normal -1.140317e-016 8.898529e-001 -4.562475e-001
      outer loop
         vertex 3.341198e+002 1.242815e+002 4.325000e+001
         vertex 2.421199e+002 1.242815e+002 4.325000e+001
         vertex 2.421199e+002 1.254164e+002 4.560653e+001
      endloop
   endfacet
   facet normal -1.087529e-016 9.115229e-001 -4.112494e-001
      outer loop
         vertex 3.341198e+002 1.242815e+002 4.325000e+001
         vertex 2.421199e+002 1.254164e+002 4.560653e+001
         vertex 3.341198e+002 1.254164e+002 4.560653e+001
      endloop
   endfacet
   facet normal -9.742474e-017 9.479141e-001 -3.185259e-001
      outer loop
         vertex 3.341198e+002 1.254164e+002 4.560653e+001
         vertex 2.421199e+002 1.254164e+002 4.560653e+001
         vertex 2.421199e+002 1.261873e+002 4.810588e+001
      endloop
   endfacet
   facet normal -9.137543e-017 9.626355e-001 -2.708006e-001
      outer loop
         vertex 3.341198e+002 1.254164e+002 4.560653e+001
         vertex 2.421199e+002 1.261873e+002 4.810588e+001
         vertex 3.341198e+002 1.261873e+002 4.810588e+001
      endloop
   endfacet
   facet normal -7.864145e-017 9.848005e-001 -1.736889e-001
      outer loop
         vertex 3.341198e+002 1.261873e+002 4.810588e+001
         vertex 2.421199e+002 1.261873e+002 4.810588e+001
         vertex 2.421199e+002 1.265771e+002 5.069222e+001
      endloop
   endfacet
   facet normal -7.195678e-017 9.922444e-001 -1.243026e-001
      outer loop
         vertex 3.341198e+002 1.261873e+002 4.810588e+001
         vertex 2.421199e+002 1.265771e+002 5.069222e+001
         vertex 3.341198e+002 1.265771e+002 5.069222e+001
      endloop
   endfacet
   facet normal -5.810143e-017 9.996881e-001 -2.497209e-002
      outer loop
         vertex 3.341198e+002 1.265771e+002 5.069222e+001
         vertex 2.421199e+002 1.265771e+002 5.069222e+001
         vertex 2.421199e+002 1.265771e+002 5.330778e+001
      endloop
   endfacet
   facet normal -5.093075e-017 9.996881e-001 2.497209e-002
      outer loop
         vertex 3.341198e+002 1.265771e+002 5.069222e+001
         vertex 2.421199e+002 1.265771e+002 5.330778e+001
         vertex 3.341198e+002 1.265771e+002 5.330778e+001
      endloop
   endfacet
   facet normal -3.626354e-017 9.922444e-001 1.243026e-001
      outer loop
         vertex 3.341198e+002 1.265771e+002 5.330778e+001
         vertex 2.421199e+002 1.265771e+002 5.330778e+001
         vertex 2.421199e+002 1.261873e+002 5.589412e+001
      endloop
   endfacet
   facet normal -2.876701e-017 9.848005e-001 1.736889e-001
      outer loop
         vertex 3.341198e+002 1.265771e+002 5.330778e+001
         vertex 2.421199e+002 1.261873e+002 5.589412e+001
         vertex 3.341198e+002 1.261873e+002 5.589412e+001
      endloop
   endfacet
   facet normal -1.361556e-017 9.626355e-001 2.708006e-001
      outer loop
         vertex 3.341198e+002 1.261873e+002 5.589412e+001
         vertex 2.421199e+002 1.261873e+002 5.589412e+001
         vertex 2.421199e+002 1.254164e+002 5.839347e+001
      endloop
   endfacet
   facet normal -5.960652e-018 9.479141e-001 3.185259e-001
      outer loop
         vertex 3.341198e+002 1.261873e+002 5.589412e+001
         vertex 2.421199e+002 1.254164e+002 5.839347e+001
         vertex 3.341198e+002 1.254164e+002 5.839347e+001
      endloop
   endfacet
   facet normal 9.336555e-018 9.115229e-001 4.112494e-001
      outer loop
         vertex 3.341198e+002 1.254164e+002 5.839347e+001
         vertex 2.421199e+002 1.254164e+002 5.839347e+001
         vertex 2.421199e+002 1.242815e+002 6.075000e+001
      endloop
   endfacet
   facet normal 1.697885e-017 8.898529e-001 4.562475e-001
      outer loop
         vertex 3.341198e+002 1.254164e+002 5.839347e+001
         vertex 2.421199e+002 1.242815e+002 6.075000e+001
         vertex 3.341198e+002 1.242815e+002 6.075000e+001
      endloop
   endfacet
   facet normal 3.208011e-017 8.400484e-001 5.425115e-001
      outer loop
         vertex 3.341198e+002 1.242815e+002 6.075000e+001
         vertex 2.421199e+002 1.242815e+002 6.075000e+001
         vertex 2.421199e+002 1.228081e+002 6.291107e+001
      endloop
   endfacet
   facet normal 3.953907e-017 8.119138e-001 5.837773e-001
      outer loop
         vertex 3.341198e+002 1.242815e+002 6.075000e+001
         vertex 2.421199e+002 1.228081e+002 6.291107e+001
         vertex 3.341198e+002 1.228081e+002 6.291107e+001
      endloop
   endfacet
   facet normal 5.410705e-017 7.498086e-001 6.616548e-001
      outer loop
         vertex 3.341198e+002 1.228081e+002 6.291107e+001
         vertex 2.421199e+002 1.228081e+002 6.291107e+001
         vertex 2.421199e+002 1.210291e+002 6.482841e+001
      endloop
   endfacet
   facet normal 6.121607e-017 7.158380e-001 6.982664e-001
      outer loop
         vertex 3.341198e+002 1.228081e+002 6.291107e+001
         vertex 2.421199e+002 1.210291e+002 6.482841e+001
         vertex 3.341198e+002 1.210291e+002 6.482841e+001
      endloop
   endfacet
   facet normal 7.492533e-017 6.428193e-001 7.660179e-001
      outer loop
         vertex 3.341198e+002 1.210291e+002 6.482841e+001
         vertex 2.421199e+002 1.210291e+002 6.482841e+001
         vertex 2.421199e+002 1.189842e+002 6.645918e+001
      endloop
   endfacet
   facet normal 8.152558e-017 6.037714e-001 7.971575e-001
      outer loop
         vertex 3.341198e+002 1.210291e+002 6.482841e+001
         vertex 2.421199e+002 1.189842e+002 6.645918e+001
         vertex 3.341198e+002 1.189842e+002 6.645918e+001
      endloop
   endfacet
   facet normal 9.406991e-017 5.214705e-001 8.532693e-001
      outer loop
         vertex 3.341198e+002 1.189842e+002 6.645918e+001
         vertex 2.421199e+002 1.189842e+002 6.645918e+001
         vertex 2.421199e+002 1.167190e+002 6.776696e+001
      endloop
   endfacet
   facet normal 1.000140e-016 4.782176e-001 8.782414e-001
      outer loop
         vertex 3.341198e+002 1.189842e+002 6.645918e+001
         vertex 2.421199e+002 1.167190e+002 6.776696e+001
         vertex 3.341198e+002 1.167190e+002 6.776696e+001
      endloop
   endfacet
   facet normal 1.111131e-016 3.884729e-001 9.214601e-001
      outer loop
         vertex 3.341198e+002 1.167190e+002 6.776696e+001
         vertex 2.421199e+002 1.167190e+002 6.776696e+001
         vertex 2.421199e+002 1.142843e+002 6.872253e+001
      endloop
   endfacet
   facet normal 1.162682e-016 3.419812e-001 9.397067e-001
      outer loop
         vertex 3.341198e+002 1.167190e+002 6.776696e+001
         vertex 2.421199e+002 1.142843e+002 6.872253e+001
         vertex 3.341198e+002 1.142843e+002 6.872253e+001
      endloop
   endfacet
   facet normal 1.256742e-016 2.467975e-001 9.690670e-001
      outer loop
         vertex 3.341198e+002 1.142843e+002 6.872253e+001
         vertex 2.421199e+002 1.142843e+002 6.872253e+001
         vertex 2.421199e+002 1.117343e+002 6.930454e+001
      endloop
   endfacet
   facet normal 1.299252e-016 1.981055e-001 9.801807e-001
      outer loop
         vertex 3.341198e+002 1.142843e+002 6.872253e+001
         vertex 2.421199e+002 1.117343e+002 6.930454e+001
         vertex 3.341198e+002 1.117343e+002 6.930454e+001
      endloop
   endfacet
   facet normal 1.374280e-016 9.960905e-002 9.950266e-001
      outer loop
         vertex 3.341198e+002 1.117343e+002 6.930454e+001
         vertex 2.421199e+002 1.117343e+002 6.930454e+001
         vertex 2.421199e+002 1.091261e+002 6.950000e+001
      endloop
   endfacet
endsolid