solid PumpAssembly - ScrewLong-1
   facet normal 4.973988e-001 0.000000e+000 -8.675220e-001
      outer loop
         vertex 2.427997e+002 1.441261e+002 6.460075e+001
         vertex 2.432607e+002 1.711261e+002 6.484752e+001
         vertex 2.432607e+002 1.441261e+002 6.484752e+001
      endloop
   endfacet
   facet normal 5.946429e-001 -0.000000e+000 -8.039899e-001
      outer loop
         vertex 2.432607e+002 1.441261e+002 6.484752e+001
         vertex 2.432607e+002 1.711261e+002 6.484752e+001
         vertex 2.436719e+002 1.711261e+002 6.517061e+001
      endloop
   endfacet
   facet normal 6.404858e-001 -0.000000e+000 -7.679700e-001
      outer loop
         vertex 2.432607e+002 1.441261e+002 6.484752e+001
         vertex 2.436719e+002 1.711261e+002 6.517061e+001
         vertex 2.436719e+002 1.441261e+002 6.517061e+001
      endloop
   endfacet
   facet normal 7.252204e-001 -0.000000e+000 -6.885168e-001
      outer loop
         vertex 2.436719e+002 1.441261e+002 6.517061e+001
         vertex 2.436719e+002 1.711261e+002 6.517061e+001
         vertex 2.440207e+002 1.711261e+002 6.556018e+001
      endloop
   endfacet
   facet normal 7.641120e-001 -0.000000e+000 -6.450836e-001
      outer loop
         vertex 2.436719e+002 1.441261e+002 6.517061e+001
         vertex 2.440207e+002 1.711261e+002 6.556018e+001
         vertex 2.440207e+002 1.441261e+002 6.556018e+001
      endloop
   endfacet
   facet normal 8.337623e-001 -0.000000e+000 -5.521235e-001
      outer loop
         vertex 2.440207e+002 1.441261e+002 6.556018e+001
         vertex 2.440207e+002 1.711261e+002 6.556018e+001
         vertex 2.442966e+002 1.711261e+002 6.600442e+001
      endloop
   endfacet
   facet normal 8.645210e-001 -0.000000e+000 -5.025967e-001
      outer loop
         vertex 2.440207e+002 1.441261e+002 6.556018e+001
         vertex 2.442966e+002 1.711261e+002 6.600442e+001
         vertex 2.442966e+002 1.441261e+002 6.600442e+001
      endloop
   endfacet
   facet normal 9.169708e-001 -0.000000e+000 -3.989542e-001
      outer loop
         vertex 2.442966e+002 1.441261e+002 6.600442e+001
         vertex 2.442966e+002 1.711261e+002 6.600442e+001
         vertex 2.444912e+002 1.711261e+002 6.648981e+001
      endloop
   endfacet
   facet normal 9.386620e-001 -0.000000e+000 -3.448386e-001
      outer loop
         vertex 2.442966e+002 1.441261e+002 6.600442e+001
         vertex 2.444912e+002 1.711261e+002 6.648981e+001
         vertex 2.444912e+002 1.441261e+002 6.648981e+001
      endloop
   endfacet
   facet normal 9.723177e-001 -0.000000e+000 -2.336629e-001
      outer loop
         vertex 2.444912e+002 1.441261e+002 6.648981e+001
         vertex 2.444912e+002 1.711261e+002 6.648981e+001
         vertex 2.445985e+002 1.711261e+002 6.700162e+001
      endloop
   endfacet
   facet normal 9.842822e-001 -0.000000e+000 -1.766028e-001
      outer loop
         vertex 2.444912e+002 1.441261e+002 6.648981e+001
         vertex 2.445985e+002 1.711261e+002 6.700162e+001
         vertex 2.445985e+002 1.441261e+002 6.700162e+001
      endloop
   endfacet
   facet normal 9.981211e-001 -0.000000e+000 -6.127184e-002
      outer loop
         vertex 2.445985e+002 1.441261e+002 6.700162e+001
         vertex 2.445985e+002 1.711261e+002 6.700162e+001
         vertex 2.446153e+002 1.711261e+002 6.752428e+001
      endloop
   endfacet
   facet normal 9.999955e-001 -0.000000e+000 -3.001007e-003
      outer loop
         vertex 2.445985e+002 1.441261e+002 6.700162e+001
         vertex 2.446153e+002 1.711261e+002 6.752428e+001
         vertex 2.446153e+002 1.441261e+002 6.752428e+001
      endloop
   endfacet
   facet normal 9.935971e-001 -0.000000e+000 1.129809e-001
      outer loop
         vertex 2.446153e+002 1.441261e+002 6.752428e+001
         vertex 2.446153e+002 1.711261e+002 6.752428e+001
         vertex 2.445411e+002 1.711261e+002 6.804192e+001
      endloop
   endfacet
   facet normal 9.853244e-001 -0.000000e+000 1.706920e-001
      outer loop
         vertex 2.446153e+002 1.441261e+002 6.752428e+001
         vertex 2.445411e+002 1.711261e+002 6.804192e+001
         vertex 2.445411e+002 1.441261e+002 6.804192e+001
      endloop
   endfacet
   facet normal 9.588832e-001 -0.000000e+000 2.838008e-001
      outer loop
         vertex 2.445411e+002 1.441261e+002 6.804192e+001
         vertex 2.445411e+002 1.711261e+002 6.804192e+001
         vertex 2.443781e+002 1.711261e+002 6.853882e+001
      endloop
   endfacet
   facet normal 9.407148e-001 -0.000000e+000 3.391986e-001
      outer loop
         vertex 2.445411e+002 1.441261e+002 6.804192e+001
         vertex 2.443781e+002 1.711261e+002 6.853882e+001
         vertex 2.443781e+002 1.441261e+002 6.853882e+001
      endloop
   endfacet
   facet normal 8.950341e-001 -0.000000e+000 4.459976e-001
      outer loop
         vertex 2.443781e+002 1.441261e+002 6.853882e+001
         vertex 2.443781e+002 1.711261e+002 6.853882e+001
         vertex 2.441314e+002 1.711261e+002 6.899986e+001
      endloop
   endfacet
   facet normal 8.675220e-001 -0.000000e+000 4.973988e-001
      outer loop
         vertex 2.443781e+002 1.441261e+002 6.853882e+001
         vertex 2.441314e+002 1.711261e+002 6.899986e+001
         vertex 2.441314e+002 1.441261e+002 6.899986e+001
      endloop
   endfacet
   facet normal 8.039899e-001 0.000000e+000 5.946429e-001
      outer loop
         vertex 2.441314e+002 1.441261e+002 6.899986e+001
         vertex 2.441314e+002 1.711261e+002 6.899986e+001
         vertex 2.438083e+002 1.711261e+002 6.941106e+001
      endloop
   endfacet
   facet normal 7.679700e-001 0.000000e+000 6.404858e-001
      outer loop
         vertex 2.441314e+002 1.441261e+002 6.899986e+001
         vertex 2.438083e+002 1.711261e+002 6.941106e+001
         vertex 2.438083e+002 1.441261e+002 6.941106e+001
      endloop
   endfacet
   facet normal 6.885168e-001 0.000000e+000 7.252204e-001
      outer loop
         vertex 2.438083e+002 1.441261e+002 6.941106e+001
         vertex 2.438083e+002 1.711261e+002 6.941106e+001
         vertex 2.434187e+002 1.711261e+002 6.975990e+001
      endloop
   endfacet
   facet normal 6.450836e-001 0.000000e+000 7.641120e-001
      outer loop
         vertex 2.438083e+002 1.441261e+002 6.941106e+001
         vertex 2.434187e+002 1.711261e+002 6.975990e+001
         vertex 2.434187e+002 1.441261e+002 6.975990e+001
      endloop
   endfacet
   facet normal 5.521235e-001 0.000000e+000 8.337623e-001
      outer loop
         vertex 2.434187e+002 1.441261e+002 6.975990e+001
         vertex 2.434187e+002 1.711261e+002 6.975990e+001
         vertex 2.429745e+002 1.711261e+002 7.003578e+001
      endloop
   endfacet
   facet normal 5.025967e-001 0.000000e+000 8.645210e-001
      outer loop
         vertex 2.434187e+002 1.441261e+002 6.975990e+001
         vertex 2.429745e+002 1.711261e+002 7.003578e+001
         vertex 2.429745e+002 1.441261e+002 7.003578e+001
      endloop
   endfacet
   facet normal 3.989542e-001 0.000000e+000 9.169708e-001
      outer loop
         vertex 2.429745e+002 1.441261e+002 7.003578e+001
         vertex 2.429745e+002 1.711261e+002 7.003578e+001
         vertex 2.424891e+002 1.711261e+002 7.023035e+001
      endloop
   endfacet
   facet normal 3.448386e-001 0.000000e+000 9.386620e-001
      outer loop
         vertex 2.429745e+002 1.441261e+002 7.003578e+001
         vertex 2.424891e+002 1.711261e+002 7.023035e+001
         vertex 2.424891e+002 1.441261e+002 7.023035e+001
      endloop
   endfacet
   facet normal 2.336629e-001 0.000000e+000 9.723177e-001
      outer loop
         vertex 2.424891e+002 1.441261e+002 7.023035e+001
         vertex 2.424891e+002 1.711261e+002 7.023035e+001
         vertex 2.419773e+002 1.711261e+002 7.033767e+001
      endloop
   endfacet
   facet normal 1.766028e-001 0.000000e+000 9.842822e-001
      outer loop
         vertex 2.424891e+002 1.441261e+002 7.023035e+001
         vertex 2.419773e+002 1.711261e+002 7.033767e+001
         vertex 2.419773e+002 1.441261e+002 7.033767e+001
      endloop
   endfacet
   facet normal 6.127184e-002 0.000000e+000 9.981211e-001
      outer loop
         vertex 2.419773e+002 1.441261e+002 7.033767e+001
         vertex 2.419773e+002 1.711261e+002 7.033767e+001
         vertex 2.414546e+002 1.711261e+002 7.035448e+001
      endloop
   endfacet
   facet normal 3.001007e-003 0.000000e+000 9.999955e-001
      outer loop
         vertex 2.419773e+002 1.441261e+002 7.033767e+001
         vertex 2.414546e+002 1.711261e+002 7.035448e+001
         vertex 2.414546e+002 1.441261e+002 7.035448e+001
      endloop
   endfacet
   facet normal -1.129809e-001 0.000000e+000 9.935971e-001
      outer loop
         vertex 2.414546e+002 1.441261e+002 7.035448e+001
         vertex 2.414546e+002 1.711261e+002 7.035448e+001
         vertex 2.409370e+002 1.711261e+002 7.028027e+001
      endloop
   endfacet
   facet normal -1.706920e-001 0.000000e+000 9.853244e-001
      outer loop
         vertex 2.414546e+002 1.441261e+002 7.035448e+001
         vertex 2.409370e+002 1.711261e+002 7.028027e+001
         vertex 2.409370e+002 1.441261e+002 7.028027e+001
      endloop
   endfacet
   facet normal -2.838008e-001 0.000000e+000 9.588832e-001
      outer loop
         vertex 2.409370e+002 1.441261e+002 7.028027e+001
         vertex 2.409370e+002 1.711261e+002 7.028027e+001
         vertex 2.404401e+002 1.711261e+002 7.011731e+001
      endloop
   endfacet
   facet normal -3.391986e-001 0.000000e+000 9.407148e-001
      outer loop
         vertex 2.409370e+002 1.441261e+002 7.028027e+001
         vertex 2.404401e+002 1.711261e+002 7.011731e+001
         vertex 2.404401e+002 1.441261e+002 7.011731e+001
      endloop
   endfacet
   facet normal -4.459976e-001 0.000000e+000 8.950341e-001
      outer loop
         vertex 2.404401e+002 1.441261e+002 7.011731e+001
         vertex 2.404401e+002 1.711261e+002 7.011731e+001
         vertex 2.399790e+002 1.711261e+002 6.987054e+001
      endloop
   endfacet
   facet normal -4.973988e-001 0.000000e+000 8.675220e-001
      outer loop
         vertex 2.404401e+002 1.441261e+002 7.011731e+001
         vertex 2.399790e+002 1.711261e+002 6.987054e+001
         vertex 2.399790e+002 1.441261e+002 6.987054e+001
      endloop
   endfacet
   facet normal -5.946429e-001 0.000000e+000 8.039899e-001
      outer loop
         vertex 2.399790e+002 1.441261e+002 6.987054e+001
         vertex 2.399790e+002 1.711261e+002 6.987054e+001
         vertex 2.395678e+002 1.711261e+002 6.954746e+001
      endloop
   endfacet
   facet normal -6.404858e-001 0.000000e+000 7.679700e-001
      outer loop
         vertex 2.399790e+002 1.441261e+002 6.987054e+001
         vertex 2.395678e+002 1.711261e+002 6.954746e+001
         vertex 2.395678e+002 1.441261e+002 6.954746e+001
      endloop
   endfacet
   facet normal -7.252204e-001 0.000000e+000 6.885168e-001
      outer loop
         vertex 2.395678e+002 1.441261e+002 6.954746e+001
         vertex 2.395678e+002 1.711261e+002 6.954746e+001
         vertex 2.392190e+002 1.711261e+002 6.915788e+001
      endloop
   endfacet
   facet normal -7.641120e-001 0.000000e+000 6.450836e-001
      outer loop
         vertex 2.395678e+002 1.441261e+002 6.954746e+001
         vertex 2.392190e+002 1.711261e+002 6.915788e+001
         vertex 2.392190e+002 1.441261e+002 6.915788e+001
      endloop
   endfacet
   facet normal -8.337623e-001 0.000000e+000 5.521235e-001
      outer loop
         vertex 2.392190e+002 1.441261e+002 6.915788e+001
         vertex 2.392190e+002 1.711261e+002 6.915788e+001
         vertex 2.389431e+002 1.711261e+002 6.871365e+001
      endloop
   endfacet
   facet normal -8.645210e-001 0.000000e+000 5.025967e-001
      outer loop
         vertex 2.392190e+002 1.441261e+002 6.915788e+001
         vertex 2.389431e+002 1.711261e+002 6.871365e+001
         vertex 2.389431e+002 1.441261e+002 6.871365e+001
      endloop
   endfacet
   facet normal -9.169708e-001 0.000000e+000 3.989542e-001
      outer loop
         vertex 2.389431e+002 1.441261e+002 6.871365e+001
         vertex 2.389431e+002 1.711261e+002 6.871365e+001
         vertex 2.387486e+002 1.711261e+002 6.822825e+001
      endloop
   endfacet
   facet normal -9.386620e-001 0.000000e+000 3.448386e-001
      outer loop
         vertex 2.389431e+002 1.441261e+002 6.871365e+001
         vertex 2.387486e+002 1.711261e+002 6.822825e+001
         vertex 2.387486e+002 1.441261e+002 6.822825e+001
      endloop
   endfacet
   facet normal -9.723177e-001 0.000000e+000 2.336629e-001
      outer loop
         vertex 2.387486e+002 1.441261e+002 6.822825e+001
         vertex 2.387486e+002 1.711261e+002 6.822825e+001
         vertex 2.386412e+002 1.711261e+002 6.771645e+001
      endloop
   endfacet
   facet normal -9.842822e-001 0.000000e+000 1.766028e-001
      outer loop
         vertex 2.387486e+002 1.441261e+002 6.822825e+001
         vertex 2.386412e+002 1.711261e+002 6.771645e+001
         vertex 2.386412e+002 1.441261e+002 6.771645e+001
      endloop
   endfacet
   facet normal -9.981211e-001 0.000000e+000 6.127184e-002
      outer loop
         vertex 2.386412e+002 1.441261e+002 6.771645e+001
         vertex 2.386412e+002 1.711261e+002 6.771645e+001
         vertex 2.386244e+002 1.711261e+002 6.719379e+001
      endloop
   endfacet
   facet normal -9.999955e-001 0.000000e+000 3.001007e-003
      outer loop
         vertex 2.386412e+002 1.441261e+002 6.771645e+001
         vertex 2.386244e+002 1.711261e+002 6.719379e+001
         vertex 2.386244e+002 1.441261e+002 6.719379e+001
      endloop
   endfacet
   facet normal -9.935971e-001 0.000000e+000 -1.129809e-001
      outer loop
         vertex 2.386244e+002 1.441261e+002 6.719379e+001
         vertex 2.386244e+002 1.711261e+002 6.719379e+001
         vertex 2.386986e+002 1.711261e+002 6.667614e+001
      endloop
   endfacet
   facet normal -9.853244e-001 0.000000e+000 -1.706920e-001
      outer loop
         vertex 2.386244e+002 1.441261e+002 6.719379e+001
         vertex 2.386986e+002 1.711261e+002 6.667614e+001
         vertex 2.386986e+002 1.441261e+002 6.667614e+001
      endloop
   endfacet
   facet normal -9.588832e-001 0.000000e+000 -2.838008e-001
      outer loop
         vertex 2.386986e+002 1.441261e+002 6.667614e+001
         vertex 2.386986e+002 1.711261e+002 6.667614e+001
         vertex 2.388616e+002 1.711261e+002 6.617924e+001
      endloop
   endfacet
   facet normal -9.407148e-001 0.000000e+000 -3.391986e-001
      outer loop
         vertex 2.386986e+002 1.441261e+002 6.667614e+001
         vertex 2.388616e+002 1.711261e+002 6.617924e+001
         vertex 2.388616e+002 1.441261e+002 6.617924e+001
      endloop
   endfacet
   facet normal -8.950341e-001 0.000000e+000 -4.459976e-001
      outer loop
         vertex 2.388616e+002 1.441261e+002 6.617924e+001
         vertex 2.388616e+002 1.711261e+002 6.617924e+001
         vertex 2.391084e+002 1.711261e+002 6.571819e+001
      endloop
   endfacet
   facet normal -8.675220e-001 0.000000e+000 -4.973988e-001
      outer loop
         vertex 2.388616e+002 1.441261e+002 6.617924e+001
         vertex 2.391084e+002 1.711261e+002 6.571819e+001
         vertex 2.391084e+002 1.441261e+002 6.571819e+001
      endloop
   endfacet
   facet normal -8.039899e-001 0.000000e+000 -5.946429e-001
      outer loop
         vertex 2.391084e+002 1.441261e+002 6.571819e+001
         vertex 2.391084e+002 1.711261e+002 6.571819e+001
         vertex 2.394314e+002 1.711261e+002 6.530701e+001
      endloop
   endfacet
   facet normal -7.679700e-001 0.000000e+000 -6.404858e-001
      outer loop
         vertex 2.391084e+002 1.441261e+002 6.571819e+001
         vertex 2.394314e+002 1.711261e+002 6.530701e+001
         vertex 2.394314e+002 1.441261e+002 6.530701e+001
      endloop
   endfacet
   facet normal -6.885168e-001 0.000000e+000 -7.252204e-001
      outer loop
         vertex 2.394314e+002 1.441261e+002 6.530701e+001
         vertex 2.394314e+002 1.711261e+002 6.530701e+001
         vertex 2.398210e+002 1.711261e+002 6.495817e+001
      endloop
   endfacet
   facet normal -6.450836e-001 0.000000e+000 -7.641120e-001
      outer loop
         vertex 2.394314e+002 1.441261e+002 6.530701e+001
         vertex 2.398210e+002 1.711261e+002 6.495817e+001
         vertex 2.398210e+002 1.441261e+002 6.495817e+001
      endloop
   endfacet
   facet normal -5.521235e-001 0.000000e+000 -8.337623e-001
      outer loop
         vertex 2.398210e+002 1.441261e+002 6.495817e+001
         vertex 2.398210e+002 1.711261e+002 6.495817e+001
         vertex 2.402652e+002 1.711261e+002 6.468227e+001
      endloop
   endfacet
   facet normal -5.025967e-001 0.000000e+000 -8.645210e-001
      outer loop
         vertex 2.398210e+002 1.441261e+002 6.495817e+001
         vertex 2.402652e+002 1.711261e+002 6.468227e+001
         vertex 2.402652e+002 1.441261e+002 6.468227e+001
      endloop
   endfacet
   facet normal -3.989542e-001 0.000000e+000 -9.169708e-001
      outer loop
         vertex 2.402652e+002 1.441261e+002 6.468227e+001
         vertex 2.402652e+002 1.711261e+002 6.468227e+001
         vertex 2.407506e+002 1.711261e+002 6.448772e+001
      endloop
   endfacet
   facet normal -3.448386e-001 0.000000e+000 -9.386620e-001
      outer loop
         vertex 2.402652e+002 1.441261e+002 6.468227e+001
         vertex 2.407506e+002 1.711261e+002 6.448772e+001
         vertex 2.407506e+002 1.441261e+002 6.448772e+001
      endloop
   endfacet
   facet normal -2.336629e-001 0.000000e+000 -9.723177e-001
      outer loop
         vertex 2.407506e+002 1.441261e+002 6.448772e+001
         vertex 2.407506e+002 1.711261e+002 6.448772e+001
         vertex 2.412625e+002 1.711261e+002 6.438040e+001
      endloop
   endfacet
   facet normal -1.766028e-001 0.000000e+000 -9.842822e-001
      outer loop
         vertex 2.407506e+002 1.441261e+002 6.448772e+001
         vertex 2.412625e+002 1.711261e+002 6.438040e+001
         vertex 2.412625e+002 1.441261e+002 6.438040e+001
      endloop
   endfacet
   facet normal -6.127184e-002 0.000000e+000 -9.981211e-001
      outer loop
         vertex 2.412625e+002 1.441261e+002 6.438040e+001
         vertex 2.412625e+002 1.711261e+002 6.438040e+001
         vertex 2.417851e+002 1.711261e+002 6.436359e+001
      endloop
   endfacet
   facet normal -3.001007e-003 0.000000e+000 -9.999955e-001
      outer loop
         vertex 2.412625e+002 1.441261e+002 6.438040e+001
         vertex 2.417851e+002 1.711261e+002 6.436359e+001
         vertex 2.417851e+002 1.441261e+002 6.436359e+001
      endloop
   endfacet
   facet normal 1.129809e-001 0.000000e+000 -9.935971e-001
      outer loop
         vertex 2.417851e+002 1.441261e+002 6.436359e+001
         vertex 2.417851e+002 1.711261e+002 6.436359e+001
         vertex 2.423028e+002 1.711261e+002 6.443779e+001
      endloop
   endfacet
   facet normal 1.706920e-001 0.000000e+000 -9.853244e-001
      outer loop
         vertex 2.417851e+002 1.441261e+002 6.436359e+001
         vertex 2.423028e+002 1.711261e+002 6.443779e+001
         vertex 2.423028e+002 1.441261e+002 6.443779e+001
      endloop
   endfacet
   facet normal 2.838008e-001 0.000000e+000 -9.588832e-001
      outer loop
         vertex 2.423028e+002 1.441261e+002 6.443779e+001
         vertex 2.423028e+002 1.711261e+002 6.443779e+001
         vertex 2.427997e+002 1.711261e+002 6.460075e+001
      endloop
   endfacet
   facet normal 3.391986e-001 0.000000e+000 -9.407148e-001
      outer loop
         vertex 2.423028e+002 1.441261e+002 6.443779e+001
         vertex 2.427997e+002 1.711261e+002 6.460075e+001
         vertex 2.427997e+002 1.441261e+002 6.460075e+001
      endloop
   endfacet
   facet normal 4.459976e-001 0.000000e+000 -8.950341e-001
      outer loop
         vertex 2.427997e+002 1.441261e+002 6.460075e+001
         vertex 2.427997e+002 1.711261e+002 6.460075e+001
         vertex 2.432607e+002 1.711261e+002 6.484752e+001
      endloop
   endfacet
   facet normal -0.000000e+000 1.000000e+000 0.000000e+000
      outer loop
         vertex 2.438083e+002 1.711261e+002 6.941106e+001
         vertex 2.394314e+002 1.711261e+002 6.530701e+001
         vertex 2.391084e+002 1.711261e+002 6.571819e+001
      endloop
   endfacet
   facet normal -0.000000e+000 1.000000e+000 0.000000e+000
      outer loop
         vertex 2.391084e+002 1.711261e+002 6.571819e+001
         vertex 2.388616e+002 1.711261e+002 6.617924e+001
         vertex 2.438083e+002 1.711261e+002 6.941106e+001
      endloop
   endfacet
   facet normal -0.000000e+000 1.000000e+000 0.000000e+000
      outer loop
         vertex 2.438083e+002 1.711261e+002 6.941106e+001
         vertex 2.388616e+002 1.711261e+002 6.617924e+001
         vertex 2.386986e+002 1.711261e+002 6.667614e+001
      endloop
   endfacet
   facet normal -0.000000e+000 1.000000e+000 0.000000e+000
      outer loop
         vertex 2.438083e+002 1.711261e+002 6.941106e+001
         vertex 2.386986e+002 1.711261e+002 6.667614e+001
         vertex 2.386244e+002 1.711261e+002 6.719379e+001
      endloop
   endfacet
   facet normal -0.000000e+000 1.000000e+000 0.000000e+000
      outer loop
         vertex 2.443781e+002 1.711261e+002 6.853882e+001
         vertex 2.445411e+002 1.711261e+002 6.804192e+001
         vertex 2.427997e+002 1.711261e+002 6.460075e+001
      endloop
   endfacet
   facet normal -0.000000e+000 1.000000e+000 0.000000e+000
      outer loop
         vertex 2.427997e+002 1.711261e+002 6.460075e+001
         vertex 2.445411e+002 1.711261e+002 6.804192e+001
         vertex 2.446153e+002 1.711261e+002 6.752428e+001
      endloop
   endfacet
   facet normal -0.000000e+000 1.000000e+000 0.000000e+000
      outer loop
         vertex 2.423028e+002 1.711261e+002 6.443779e+001
         vertex 2.417851e+002 1.711261e+002 6.436359e+001
         vertex 2.438083e+002 1.711261e+002 6.941106e+001
      endloop
   endfacet
   facet normal -0.000000e+000 1.000000e+000 0.000000e+000
      outer loop
         vertex 2.438083e+002 1.711261e+002 6.941106e+001
         vertex 2.417851e+002 1.711261e+002 6.436359e+001
         vertex 2.412625e+002 1.711261e+002 6.438040e+001
      endloop
   endfacet
   facet normal -0.000000e+000 1.000000e+000 0.000000e+000
      outer loop
         vertex 2.438083e+002 1.711261e+002 6.941106e+001
         vertex 2.412625e+002 1.711261e+002 6.438040e+001
         vertex 2.407506e+002 1.711261e+002 6.448772e+001
      endloop
   endfacet
   facet normal -0.000000e+000 1.000000e+000 0.000000e+000
      outer loop
         vertex 2.407506e+002 1.711261e+002 6.448772e+001
         vertex 2.402652e+002 1.711261e+002 6.468227e+001
         vertex 2.438083e+002 1.711261e+002 6.941106e+001
      endloop
   endfacet
   facet normal -0.000000e+000 1.000000e+000 0.000000e+000
      outer loop
         vertex 2.438083e+002 1.711261e+002 6.941106e+001
         vertex 2.402652e+002 1.711261e+002 6.468227e+001
         vertex 2.398210e+002 1.711261e+002 6.495817e+001
      endloop
   endfacet
   facet normal -0.000000e+000 1.000000e+000 0.000000e+000
      outer loop
         vertex 2.438083e+002 1.711261e+002 6.941106e+001
         vertex 2.398210e+002 1.711261e+002 6.495817e+001
         vertex 2.394314e+002 1.711261e+002 6.530701e+001
      endloop
   endfacet
   facet normal -0.000000e+000 1.000000e+000 0.000000e+000
      outer loop
         vertex 2.423028e+002 1.711261e+002 6.443779e+001
         vertex 2.438083e+002 1.711261e+002 6.941106e+001
         vertex 2.427997e+002 1.711261e+002 6.460075e+001
      endloop
   endfacet
   facet normal -0.000000e+000 1.000000e+000 0.000000e+000
      outer loop
         vertex 2.427997e+002 1.711261e+002 6.460075e+001
         vertex 2.438083e+002 1.711261e+002 6.941106e+001
         vertex 2.441314e+002 1.711261e+002 6.899986e+001
      endloop
   endfacet
   facet normal -0.000000e+000 1.000000e+000 0.000000e+000
      outer loop
         vertex 2.427997e+002 1.711261e+002 6.460075e+001
         vertex 2.441314e+002 1.711261e+002 6.899986e+001
         vertex 2.443781e+002 1.711261e+002 6.853882e+001
      endloop
   endfacet
   facet normal -0.000000e+000 1.000000e+000 0.000000e+000
      outer loop
         vertex 2.386244e+002 1.711261e+002 6.719379e+001
         vertex 2.386412e+002 1.711261e+002 6.771645e+001
         vertex 2.438083e+002 1.711261e+002 6.941106e+001
      endloop
   endfacet
   facet normal -0.000000e+000 1.000000e+000 0.000000e+000
      outer loop
         vertex 2.438083e+002 1.711261e+002 6.941106e+001
         vertex 2.386412e+002 1.711261e+002 6.771645e+001
         vertex 2.387486e+002 1.711261e+002 6.822825e+001
      endloop
   endfacet
   facet normal -0.000000e+000 1.000000e+000 0.000000e+000
      outer loop
         vertex 2.438083e+002 1.711261e+002 6.941106e+001
         vertex 2.387486e+002 1.711261e+002 6.822825e+001
         vertex 2.389431e+002 1.711261e+002 6.871365e+001
      endloop
   endfacet
   facet normal -0.000000e+000 1.000000e+000 0.000000e+000
      outer loop
         vertex 2.389431e+002 1.711261e+002 6.871365e+001
         vertex 2.392190e+002 1.711261e+002 6.915788e+001
         vertex 2.438083e+002 1.711261e+002 6.941106e+001
      endloop
   endfacet
   facet normal -0.000000e+000 1.000000e+000 0.000000e+000
      outer loop
         vertex 2.438083e+002 1.711261e+002 6.941106e+001
         vertex 2.392190e+002 1.711261e+002 6.915788e+001
         vertex 2.395678e+002 1.711261e+002 6.954746e+001
      endloop
   endfacet
   facet normal -0.000000e+000 1.000000e+000 0.000000e+000
      outer loop
         vertex 2.438083e+002 1.711261e+002 6.941106e+001
         vertex 2.395678e+002 1.711261e+002 6.954746e+001
         vertex 2.399790e+002 1.711261e+002 6.987054e+001
      endloop
   endfacet
   facet normal -0.000000e+000 1.000000e+000 0.000000e+000
      outer loop
         vertex 2.399790e+002 1.711261e+002 6.987054e+001
         vertex 2.404401e+002 1.711261e+002 7.011731e+001
         vertex 2.438083e+002 1.711261e+002 6.941106e+001
      endloop
   endfacet
   facet normal -0.000000e+000 1.000000e+000 0.000000e+000
      outer loop
         vertex 2.438083e+002 1.711261e+002 6.941106e+001
         vertex 2.404401e+002 1.711261e+002 7.011731e+001
         vertex 2.409370e+002 1.711261e+002 7.028027e+001
      endloop
   endfacet
   facet normal -0.000000e+000 1.000000e+000 0.000000e+000
      outer loop
         vertex 2.438083e+002 1.711261e+002 6.941106e+001
         vertex 2.409370e+002 1.711261e+002 7.028027e+001
         vertex 2.434187e+002 1.711261e+002 6.975990e+001
      endloop
   endfacet
   facet normal -0.000000e+000 1.000000e+000 0.000000e+000
      outer loop
         vertex 2.409370e+002 1.711261e+002 7.028027e+001
         vertex 2.414546e+002 1.711261e+002 7.035448e+001
         vertex 2.419773e+002 1.711261e+002 7.033767e+001
      endloop
   endfacet
   facet normal -0.000000e+000 1.000000e+000 0.000000e+000
      outer loop
         vertex 2.419773e+002 1.711261e+002 7.033767e+001
         vertex 2.424891e+002 1.711261e+002 7.023035e+001
         vertex 2.409370e+002 1.711261e+002 7.028027e+001
      endloop
   endfacet
   facet normal -0.000000e+000 1.000000e+000 0.000000e+000
      outer loop
         vertex 2.409370e+002 1.711261e+002 7.028027e+001
         vertex 2.424891e+002 1.711261e+002 7.023035e+001
         vertex 2.429745e+002 1.711261e+002 7.003578e+001
      endloop
   endfacet
   facet normal -0.000000e+000 1.000000e+000 0.000000e+000
      outer loop
         vertex 2.409370e+002 1.711261e+002 7.028027e+001
         vertex 2.429745e+002 1.711261e+002 7.003578e+001
         vertex 2.434187e+002 1.711261e+002 6.975990e+001
      endloop
   endfacet
   facet normal -0.000000e+000 1.000000e+000 0.000000e+000
      outer loop
         vertex 2.446153e+002 1.711261e+002 6.752428e+001
         vertex 2.445985e+002 1.711261e+002 6.700162e+001
         vertex 2.427997e+002 1.711261e+002 6.460075e+001
      endloop
   endfacet
   facet normal -0.000000e+000 1.000000e+000 0.000000e+000
      outer loop
         vertex 2.427997e+002 1.711261e+002 6.460075e+001
         vertex 2.445985e+002 1.711261e+002 6.700162e+001
         vertex 2.444912e+002 1.711261e+002 6.648981e+001
      endloop
   endfacet
   facet normal -0.000000e+000 1.000000e+000 0.000000e+000
      outer loop
         vertex 2.427997e+002 1.711261e+002 6.460075e+001
         vertex 2.444912e+002 1.711261e+002 6.648981e+001
         vertex 2.442966e+002 1.711261e+002 6.600442e+001
      endloop
   endfacet
   facet normal -0.000000e+000 1.000000e+000 0.000000e+000
      outer loop
         vertex 2.442966e+002 1.711261e+002 6.600442e+001
         vertex 2.440207e+002 1.711261e+002 6.556018e+001
         vertex 2.427997e+002 1.711261e+002 6.460075e+001
      endloop
   endfacet
   facet normal -0.000000e+000 1.000000e+000 0.000000e+000
      outer loop
         vertex 2.427997e+002 1.711261e+002 6.460075e+001
         vertex 2.440207e+002 1.711261e+002 6.556018e+001
         vertex 2.436719e+002 1.711261e+002 6.517061e+001
      endloop
   endfacet
   facet normal -0.000000e+000 1.000000e+000 0.000000e+000
      outer loop
         vertex 2.427997e+002 1.711261e+002 6.460075e+001
         vertex 2.436719e+002 1.711261e+002 6.517061e+001
         vertex 2.432607e+002 1.711261e+002 6.484752e+001
      endloop
   endfacet
   facet normal -0.000000e+000 1.000000e+000 0.000000e+000
      outer loop
         vertex 2.391560e+002 1.441261e+002 7.051011e+001
         vertex 2.399790e+002 1.441261e+002 6.987054e+001
         vertex 2.395678e+002 1.441261e+002 6.954746e+001
      endloop
   endfacet
   facet normal -0.000000e+000 1.000000e+000 0.000000e+000
      outer loop
         vertex 2.391560e+002 1.441261e+002 7.051011e+001
         vertex 2.394321e+002 1.441261e+002 7.070771e+001
         vertex 2.399790e+002 1.441261e+002 6.987054e+001
      endloop
   endfacet
   facet normal -0.000000e+000 1.000000e+000 0.000000e+000
      outer loop
         vertex 2.399790e+002 1.441261e+002 6.987054e+001
         vertex 2.394321e+002 1.441261e+002 7.070771e+001
         vertex 2.397240e+002 1.441261e+002 7.088118e+001
      endloop
   endfacet
   facet normal -0.000000e+000 1.000000e+000 0.000000e+000
      outer loop
         vertex 2.399790e+002 1.441261e+002 6.987054e+001
         vertex 2.397240e+002 1.441261e+002 7.088118e+001
         vertex 2.404401e+002 1.441261e+002 7.011731e+001
      endloop
   endfacet
   facet normal -0.000000e+000 1.000000e+000 0.000000e+000
      outer loop
         vertex 2.404401e+002 1.441261e+002 7.011731e+001
         vertex 2.397240e+002 1.441261e+002 7.088118e+001
         vertex 2.403465e+002 1.441261e+002 7.115093e+001
      endloop
   endfacet
   facet normal -0.000000e+000 1.000000e+000 0.000000e+000
      outer loop
         vertex 2.404401e+002 1.441261e+002 7.011731e+001
         vertex 2.403465e+002 1.441261e+002 7.115093e+001
         vertex 2.409370e+002 1.441261e+002 7.028027e+001
      endloop
   endfacet
   facet normal -0.000000e+000 1.000000e+000 0.000000e+000
      outer loop
         vertex 2.409370e+002 1.441261e+002 7.028027e+001
         vertex 2.403465e+002 1.441261e+002 7.115093e+001
         vertex 2.410056e+002 1.441261e+002 7.131159e+001
      endloop
   endfacet
   facet normal -0.000000e+000 1.000000e+000 0.000000e+000
      outer loop
         vertex 2.409370e+002 1.441261e+002 7.028027e+001
         vertex 2.410056e+002 1.441261e+002 7.131159e+001
         vertex 2.414546e+002 1.441261e+002 7.035448e+001
      endloop
   endfacet
   facet normal -0.000000e+000 1.000000e+000 0.000000e+000
      outer loop
         vertex 2.414546e+002 1.441261e+002 7.035448e+001
         vertex 2.410056e+002 1.441261e+002 7.131159e+001
         vertex 2.416824e+002 1.441261e+002 7.135854e+001
      endloop
   endfacet
   facet normal -0.000000e+000 1.000000e+000 0.000000e+000
      outer loop
         vertex 2.414546e+002 1.441261e+002 7.035448e+001
         vertex 2.416824e+002 1.441261e+002 7.135854e+001
         vertex 2.419773e+002 1.441261e+002 7.033767e+001
      endloop
   endfacet
   facet normal -0.000000e+000 1.000000e+000 0.000000e+000
      outer loop
         vertex 2.419773e+002 1.441261e+002 7.033767e+001
         vertex 2.416824e+002 1.441261e+002 7.135854e+001
         vertex 2.423575e+002 1.441261e+002 7.129044e+001
      endloop
   endfacet
   facet normal -0.000000e+000 1.000000e+000 0.000000e+000
      outer loop
         vertex 2.419773e+002 1.441261e+002 7.033767e+001
         vertex 2.423575e+002 1.441261e+002 7.129044e+001
         vertex 2.424891e+002 1.441261e+002 7.023035e+001
      endloop
   endfacet
   facet normal -0.000000e+000 1.000000e+000 0.000000e+000
      outer loop
         vertex 2.424891e+002 1.441261e+002 7.023035e+001
         vertex 2.423575e+002 1.441261e+002 7.129044e+001
         vertex 2.430113e+002 1.441261e+002 7.110924e+001
      endloop
   endfacet
   facet normal -0.000000e+000 1.000000e+000 0.000000e+000
      outer loop
         vertex 2.424891e+002 1.441261e+002 7.023035e+001
         vertex 2.430113e+002 1.441261e+002 7.110924e+001
         vertex 2.429745e+002 1.441261e+002 7.003578e+001
      endloop
   endfacet
   facet normal -0.000000e+000 1.000000e+000 0.000000e+000
      outer loop
         vertex 2.429745e+002 1.441261e+002 7.003578e+001
         vertex 2.430113e+002 1.441261e+002 7.110924e+001
         vertex 2.436250e+002 1.441261e+002 7.082014e+001
      endloop
   endfacet
   facet normal -0.000000e+000 1.000000e+000 0.000000e+000
      outer loop
         vertex 2.429745e+002 1.441261e+002 7.003578e+001
         vertex 2.436250e+002 1.441261e+002 7.082014e+001
         vertex 2.434187e+002 1.441261e+002 6.975990e+001
      endloop
   endfacet
   facet normal -0.000000e+000 1.000000e+000 0.000000e+000
      outer loop
         vertex 2.434187e+002 1.441261e+002 6.975990e+001
         vertex 2.436250e+002 1.441261e+002 7.082014e+001
         vertex 2.441811e+002 1.441261e+002 7.043148e+001
      endloop
   endfacet
   facet normal -0.000000e+000 1.000000e+000 0.000000e+000
      outer loop
         vertex 2.434187e+002 1.441261e+002 6.975990e+001
         vertex 2.441811e+002 1.441261e+002 7.043148e+001
         vertex 2.438083e+002 1.441261e+002 6.941106e+001
      endloop
   endfacet
   facet normal -0.000000e+000 1.000000e+000 0.000000e+000
      outer loop
         vertex 2.438083e+002 1.441261e+002 6.941106e+001
         vertex 2.441811e+002 1.441261e+002 7.043148e+001
         vertex 2.446635e+002 1.441261e+002 6.995443e+001
      endloop
   endfacet
   facet normal -0.000000e+000 1.000000e+000 0.000000e+000
      outer loop
         vertex 2.438083e+002 1.441261e+002 6.941106e+001
         vertex 2.446635e+002 1.441261e+002 6.995443e+001
         vertex 2.441314e+002 1.441261e+002 6.899986e+001
      endloop
   endfacet
   facet normal -0.000000e+000 1.000000e+000 0.000000e+000
      outer loop
         vertex 2.441314e+002 1.441261e+002 6.899986e+001
         vertex 2.446635e+002 1.441261e+002 6.995443e+001
         vertex 2.450584e+002 1.441261e+002 6.940272e+001
      endloop
   endfacet
   facet normal -0.000000e+000 1.000000e+000 0.000000e+000
      outer loop
         vertex 2.441314e+002 1.441261e+002 6.899986e+001
         vertex 2.450584e+002 1.441261e+002 6.940272e+001
         vertex 2.443781e+002 1.441261e+002 6.853882e+001
      endloop
   endfacet
   facet normal -0.000000e+000 1.000000e+000 0.000000e+000
      outer loop
         vertex 2.443781e+002 1.441261e+002 6.853882e+001
         vertex 2.450584e+002 1.441261e+002 6.940272e+001
         vertex 2.453543e+002 1.441261e+002 6.879221e+001
      endloop
   endfacet
   facet normal -0.000000e+000 1.000000e+000 0.000000e+000
      outer loop
         vertex 2.443781e+002 1.441261e+002 6.853882e+001
         vertex 2.453543e+002 1.441261e+002 6.879221e+001
         vertex 2.445411e+002 1.441261e+002 6.804192e+001
      endloop
   endfacet
   facet normal -0.000000e+000 1.000000e+000 0.000000e+000
      outer loop
         vertex 2.445411e+002 1.441261e+002 6.804192e+001
         vertex 2.453543e+002 1.441261e+002 6.879221e+001
         vertex 2.455428e+002 1.441261e+002 6.814047e+001
      endloop
   endfacet
   facet normal -0.000000e+000 1.000000e+000 0.000000e+000
      outer loop
         vertex 2.445411e+002 1.441261e+002 6.804192e+001
         vertex 2.455428e+002 1.441261e+002 6.814047e+001
         vertex 2.446153e+002 1.441261e+002 6.752428e+001
      endloop
   endfacet
   facet normal -0.000000e+000 1.000000e+000 0.000000e+000
      outer loop
         vertex 2.446153e+002 1.441261e+002 6.752428e+001
         vertex 2.455428e+002 1.441261e+002 6.814047e+001
         vertex 2.456184e+002 1.441261e+002 6.746626e+001
      endloop
   endfacet
   facet normal -0.000000e+000 1.000000e+000 0.000000e+000
      outer loop
         vertex 2.446153e+002 1.441261e+002 6.752428e+001
         vertex 2.456184e+002 1.441261e+002 6.746626e+001
         vertex 2.445985e+002 1.441261e+002 6.700162e+001
      endloop
   endfacet
   facet normal -0.000000e+000 1.000000e+000 0.000000e+000
      outer loop
         vertex 2.445985e+002 1.441261e+002 6.700162e+001
         vertex 2.456184e+002 1.441261e+002 6.746626e+001
         vertex 2.455790e+002 1.441261e+002 6.678895e+001
      endloop
   endfacet
   facet normal -0.000000e+000 1.000000e+000 0.000000e+000
      outer loop
         vertex 2.445985e+002 1.441261e+002 6.700162e+001
         vertex 2.455790e+002 1.441261e+002 6.678895e+001
         vertex 2.444912e+002 1.441261e+002 6.648981e+001
      endloop
   endfacet
   facet normal -0.000000e+000 1.000000e+000 0.000000e+000
      outer loop
         vertex 2.444912e+002 1.441261e+002 6.648981e+001
         vertex 2.455790e+002 1.441261e+002 6.678895e+001
         vertex 2.454257e+002 1.441261e+002 6.612804e+001
      endloop
   endfacet
   facet normal -0.000000e+000 1.000000e+000 0.000000e+000
      outer loop
         vertex 2.444912e+002 1.441261e+002 6.648981e+001
         vertex 2.454257e+002 1.441261e+002 6.612804e+001
         vertex 2.442966e+002 1.441261e+002 6.600442e+001
      endloop
   endfacet
   facet normal -0.000000e+000 1.000000e+000 0.000000e+000
      outer loop
         vertex 2.442966e+002 1.441261e+002 6.600442e+001
         vertex 2.454257e+002 1.441261e+002 6.612804e+001
         vertex 2.451629e+002 1.441261e+002 6.550256e+001
      endloop
   endfacet
   facet normal -0.000000e+000 1.000000e+000 0.000000e+000
      outer loop
         vertex 2.442966e+002 1.441261e+002 6.600442e+001
         vertex 2.451629e+002 1.441261e+002 6.550256e+001
         vertex 2.440207e+002 1.441261e+002 6.556018e+001
      endloop
   endfacet
   facet normal -0.000000e+000 1.000000e+000 0.000000e+000
      outer loop
         vertex 2.440207e+002 1.441261e+002 6.556018e+001
         vertex 2.451629e+002 1.441261e+002 6.550256e+001
         vertex 2.447982e+002 1.441261e+002 6.493047e+001
      endloop
   endfacet
   facet normal -0.000000e+000 1.000000e+000 0.000000e+000
      outer loop
         vertex 2.440207e+002 1.441261e+002 6.556018e+001
         vertex 2.447982e+002 1.441261e+002 6.493047e+001
         vertex 2.436719e+002 1.441261e+002 6.517061e+001
      endloop
   endfacet
   facet normal -0.000000e+000 1.000000e+000 0.000000e+000
      outer loop
         vertex 2.436719e+002 1.441261e+002 6.517061e+001
         vertex 2.447982e+002 1.441261e+002 6.493047e+001
         vertex 2.443421e+002 1.441261e+002 6.442826e+001
      endloop
   endfacet
   facet normal -0.000000e+000 1.000000e+000 0.000000e+000
      outer loop
         vertex 2.436719e+002 1.441261e+002 6.517061e+001
         vertex 2.443421e+002 1.441261e+002 6.442826e+001
         vertex 2.432607e+002 1.441261e+002 6.484752e+001
      endloop
   endfacet
   facet normal -0.000000e+000 1.000000e+000 0.000000e+000
      outer loop
         vertex 2.432607e+002 1.441261e+002 6.484752e+001
         vertex 2.443421e+002 1.441261e+002 6.442826e+001
         vertex 2.438076e+002 1.441261e+002 6.401036e+001
      endloop
   endfacet
   facet normal -0.000000e+000 1.000000e+000 0.000000e+000
      outer loop
         vertex 2.432607e+002 1.441261e+002 6.484752e+001
         vertex 2.438076e+002 1.441261e+002 6.401036e+001
         vertex 2.427997e+002 1.441261e+002 6.460075e+001
      endloop
   endfacet
   facet normal -0.000000e+000 1.000000e+000 0.000000e+000
      outer loop
         vertex 2.427997e+002 1.441261e+002 6.460075e+001
         vertex 2.438076e+002 1.441261e+002 6.401036e+001
         vertex 2.432102e+002 1.441261e+002 6.368879e+001
      endloop
   endfacet
   facet normal -0.000000e+000 1.000000e+000 0.000000e+000
      outer loop
         vertex 2.427997e+002 1.441261e+002 6.460075e+001
         vertex 2.432102e+002 1.441261e+002 6.368879e+001
         vertex 2.423028e+002 1.441261e+002 6.443779e+001
      endloop
   endfacet
   facet normal -0.000000e+000 1.000000e+000 0.000000e+000
      outer loop
         vertex 2.423028e+002 1.441261e+002 6.443779e+001
         vertex 2.432102e+002 1.441261e+002 6.368879e+001
         vertex 2.425671e+002 1.441261e+002 6.347281e+001
      endloop
   endfacet
   facet normal -0.000000e+000 1.000000e+000 0.000000e+000
      outer loop
         vertex 2.423028e+002 1.441261e+002 6.443779e+001
         vertex 2.425671e+002 1.441261e+002 6.347281e+001
         vertex 2.417851e+002 1.441261e+002 6.436359e+001
      endloop
   endfacet
   facet normal -0.000000e+000 1.000000e+000 0.000000e+000
      outer loop
         vertex 2.417851e+002 1.441261e+002 6.436359e+001
         vertex 2.425671e+002 1.441261e+002 6.347281e+001
         vertex 2.418967e+002 1.441261e+002 6.336863e+001
      endloop
   endfacet
   facet normal -0.000000e+000 1.000000e+000 0.000000e+000
      outer loop
         vertex 2.417851e+002 1.441261e+002 6.436359e+001
         vertex 2.418967e+002 1.441261e+002 6.336863e+001
         vertex 2.412625e+002 1.441261e+002 6.438040e+001
      endloop
   endfacet
   facet normal -0.000000e+000 1.000000e+000 0.000000e+000
      outer loop
         vertex 2.412625e+002 1.441261e+002 6.438040e+001
         vertex 2.418967e+002 1.441261e+002 6.336863e+001
         vertex 2.412183e+002 1.441261e+002 6.337923e+001
      endloop
   endfacet
   facet normal -0.000000e+000 1.000000e+000 0.000000e+000
      outer loop
         vertex 2.412625e+002 1.441261e+002 6.438040e+001
         vertex 2.412183e+002 1.441261e+002 6.337923e+001
         vertex 2.407506e+002 1.441261e+002 6.448772e+001
      endloop
   endfacet
   facet normal -0.000000e+000 1.000000e+000 0.000000e+000
      outer loop
         vertex 2.407506e+002 1.441261e+002 6.448772e+001
         vertex 2.412183e+002 1.441261e+002 6.337923e+001
         vertex 2.405515e+002 1.441261e+002 6.350434e+001
      endloop
   endfacet
   facet normal -0.000000e+000 1.000000e+000 0.000000e+000
      outer loop
         vertex 2.407506e+002 1.441261e+002 6.448772e+001
         vertex 2.405515e+002 1.441261e+002 6.350434e+001
         vertex 2.402652e+002 1.441261e+002 6.468227e+001
      endloop
   endfacet
   facet normal -0.000000e+000 1.000000e+000 0.000000e+000
      outer loop
         vertex 2.402652e+002 1.441261e+002 6.468227e+001
         vertex 2.405515e+002 1.441261e+002 6.350434e+001
         vertex 2.399154e+002 1.441261e+002 6.374034e+001
      endloop
   endfacet
   facet normal -0.000000e+000 1.000000e+000 0.000000e+000
      outer loop
         vertex 2.402652e+002 1.441261e+002 6.468227e+001
         vertex 2.399154e+002 1.441261e+002 6.374034e+001
         vertex 2.398210e+002 1.441261e+002 6.495817e+001
      endloop
   endfacet
   facet normal -0.000000e+000 1.000000e+000 0.000000e+000
      outer loop
         vertex 2.398210e+002 1.441261e+002 6.495817e+001
         vertex 2.399154e+002 1.441261e+002 6.374034e+001
         vertex 2.393284e+002 1.441261e+002 6.408044e+001
      endloop
   endfacet
   facet normal -0.000000e+000 1.000000e+000 0.000000e+000
      outer loop
         vertex 2.398210e+002 1.441261e+002 6.495817e+001
         vertex 2.393284e+002 1.441261e+002 6.408044e+001
         vertex 2.394314e+002 1.441261e+002 6.530701e+001
      endloop
   endfacet
   facet normal -0.000000e+000 1.000000e+000 0.000000e+000
      outer loop
         vertex 2.394314e+002 1.441261e+002 6.530701e+001
         vertex 2.393284e+002 1.441261e+002 6.408044e+001
         vertex 2.388073e+002 1.441261e+002 6.451486e+001
      endloop
   endfacet
   facet normal -0.000000e+000 1.000000e+000 0.000000e+000
      outer loop
         vertex 2.394314e+002 1.441261e+002 6.530701e+001
         vertex 2.388073e+002 1.441261e+002 6.451486e+001
         vertex 2.391084e+002 1.441261e+002 6.571819e+001
      endloop
   endfacet
   facet normal -0.000000e+000 1.000000e+000 0.000000e+000
      outer loop
         vertex 2.391084e+002 1.441261e+002 6.571819e+001
         vertex 2.388073e+002 1.441261e+002 6.451486e+001
         vertex 2.383671e+002 1.441261e+002 6.503111e+001
      endloop
   endfacet
   facet normal -0.000000e+000 1.000000e+000 0.000000e+000
      outer loop
         vertex 2.391084e+002 1.441261e+002 6.571819e+001
         vertex 2.383671e+002 1.441261e+002 6.503111e+001
         vertex 2.388616e+002 1.441261e+002 6.617924e+001
      endloop
   endfacet
   facet normal -0.000000e+000 1.000000e+000 0.000000e+000
      outer loop
         vertex 2.388616e+002 1.441261e+002 6.617924e+001
         vertex 2.383671e+002 1.441261e+002 6.503111e+001
         vertex 2.380204e+002 1.441261e+002 6.561432e+001
      endloop
   endfacet
   facet normal -0.000000e+000 1.000000e+000 0.000000e+000
      outer loop
         vertex 2.388616e+002 1.441261e+002 6.617924e+001
         vertex 2.380204e+002 1.441261e+002 6.561432e+001
         vertex 2.386986e+002 1.441261e+002 6.667614e+001
      endloop
   endfacet
   facet normal -0.000000e+000 1.000000e+000 0.000000e+000
      outer loop
         vertex 2.386986e+002 1.441261e+002 6.667614e+001
         vertex 2.380204e+002 1.441261e+002 6.561432e+001
         vertex 2.377773e+002 1.441261e+002 6.624773e+001
      endloop
   endfacet
   facet normal -0.000000e+000 1.000000e+000 0.000000e+000
      outer loop
         vertex 2.386986e+002 1.441261e+002 6.667614e+001
         vertex 2.377773e+002 1.441261e+002 6.624773e+001
         vertex 2.386244e+002 1.441261e+002 6.719379e+001
      endloop
   endfacet
   facet normal -0.000000e+000 1.000000e+000 0.000000e+000
      outer loop
         vertex 2.386244e+002 1.441261e+002 6.719379e+001
         vertex 2.377773e+002 1.441261e+002 6.624773e+001
         vertex 2.376448e+002 1.441261e+002 6.691310e+001
      endloop
   endfacet
   facet normal -0.000000e+000 1.000000e+000 0.000000e+000
      outer loop
         vertex 2.386244e+002 1.441261e+002 6.719379e+001
         vertex 2.376448e+002 1.441261e+002 6.691310e+001
         vertex 2.386412e+002 1.441261e+002 6.771645e+001
      endloop
   endfacet
   facet normal -0.000000e+000 1.000000e+000 0.000000e+000
      outer loop
         vertex 2.386412e+002 1.441261e+002 6.771645e+001
         vertex 2.376448e+002 1.441261e+002 6.691310e+001
         vertex 2.376266e+002 1.441261e+002 6.759130e+001
      endloop
   endfacet
   facet normal -0.000000e+000 1.000000e+000 0.000000e+000
      outer loop
         vertex 2.386412e+002 1.441261e+002 6.771645e+001
         vertex 2.376266e+002 1.441261e+002 6.759130e+001
         vertex 2.387486e+002 1.441261e+002 6.822825e+001
      endloop
   endfacet
   facet normal -0.000000e+000 1.000000e+000 0.000000e+000
      outer loop
         vertex 2.387486e+002 1.441261e+002 6.822825e+001
         vertex 2.376266e+002 1.441261e+002 6.759130e+001
         vertex 2.377233e+002 1.441261e+002 6.826283e+001
      endloop
   endfacet
   facet normal -0.000000e+000 1.000000e+000 0.000000e+000
      outer loop
         vertex 2.387486e+002 1.441261e+002 6.822825e+001
         vertex 2.377233e+002 1.441261e+002 6.826283e+001
         vertex 2.389431e+002 1.441261e+002 6.871365e+001
      endloop
   endfacet
   facet normal -0.000000e+000 1.000000e+000 0.000000e+000
      outer loop
         vertex 2.389431e+002 1.441261e+002 6.871365e+001
         vertex 2.377233e+002 1.441261e+002 6.826283e+001
         vertex 2.379321e+002 1.441261e+002 6.890834e+001
      endloop
   endfacet
   facet normal -0.000000e+000 1.000000e+000 0.000000e+000
      outer loop
         vertex 2.389431e+002 1.441261e+002 6.871365e+001
         vertex 2.379321e+002 1.441261e+002 6.890834e+001
         vertex 2.392190e+002 1.441261e+002 6.915788e+001
      endloop
   endfacet
   facet normal -0.000000e+000 1.000000e+000 0.000000e+000
      outer loop
         vertex 2.392190e+002 1.441261e+002 6.915788e+001
         vertex 2.379321e+002 1.441261e+002 6.890834e+001
         vertex 2.382470e+002 1.441261e+002 6.950929e+001
      endloop
   endfacet
   facet normal -0.000000e+000 1.000000e+000 0.000000e+000
      outer loop
         vertex 2.392190e+002 1.441261e+002 6.915788e+001
         vertex 2.382470e+002 1.441261e+002 6.950929e+001
         vertex 2.395678e+002 1.441261e+002 6.954746e+001
      endloop
   endfacet
   facet normal -0.000000e+000 1.000000e+000 0.000000e+000
      outer loop
         vertex 2.395678e+002 1.441261e+002 6.954746e+001
         vertex 2.382470e+002 1.441261e+002 6.950929e+001
         vertex 2.386589e+002 1.441261e+002 7.004839e+001
      endloop
   endfacet
   facet normal -0.000000e+000 1.000000e+000 0.000000e+000
      outer loop
         vertex 2.395678e+002 1.441261e+002 6.954746e+001
         vertex 2.386589e+002 1.441261e+002 7.004839e+001
         vertex 2.391560e+002 1.441261e+002 7.051011e+001
      endloop
   endfacet
   facet normal -5.704098e-001 0.000000e+000 8.213602e-001
      outer loop
         vertex 2.391560e+002 1.421261e+002 7.051011e+001
         vertex 2.394321e+002 1.421261e+002 7.070771e+001
         vertex 2.394321e+002 1.441261e+002 7.070771e+001
      endloop
   endfacet
   facet normal -5.230406e-001 0.000000e+000 8.523077e-001
      outer loop
         vertex 2.394321e+002 1.441261e+002 7.070771e+001
         vertex 2.394321e+002 1.421261e+002 7.070771e+001
         vertex 2.397240e+002 1.441261e+002 7.088118e+001
      endloop
   endfacet
   facet normal -5.934371e-001 0.000000e+000 8.048804e-001
      outer loop
         vertex 2.394321e+002 1.441261e+002 7.070771e+001
         vertex 2.391560e+002 1.441261e+002 7.051011e+001
         vertex 2.391560e+002 1.421261e+002 7.051011e+001
      endloop
   endfacet
   facet normal -6.595066e-001 0.000000e+000 7.516987e-001
      outer loop
         vertex 2.391560e+002 1.421261e+002 7.051011e+001
         vertex 2.391560e+002 1.441261e+002 7.051011e+001
         vertex 2.386589e+002 1.441261e+002 7.004839e+001
      endloop
   endfacet
   facet normal -7.010642e-001 0.000000e+000 7.130982e-001
      outer loop
         vertex 2.391560e+002 1.421261e+002 7.051011e+001
         vertex 2.386589e+002 1.441261e+002 7.004839e+001
         vertex 2.386589e+002 1.421261e+002 7.004839e+001
      endloop
   endfacet
   facet normal -7.770579e-001 0.000000e+000 6.294291e-001
      outer loop
         vertex 2.386589e+002 1.421261e+002 7.004839e+001
         vertex 2.386589e+002 1.441261e+002 7.004839e+001
         vertex 2.382470e+002 1.441261e+002 6.950929e+001
      endloop
   endfacet
   facet normal -8.114942e-001 0.000000e+000 5.843605e-001
      outer loop
         vertex 2.386589e+002 1.421261e+002 7.004839e+001
         vertex 2.382470e+002 1.441261e+002 6.950929e+001
         vertex 2.382470e+002 1.421261e+002 6.950929e+001
      endloop
   endfacet
   facet normal -8.722547e-001 0.000000e+000 4.890519e-001
      outer loop
         vertex 2.382470e+002 1.421261e+002 6.950929e+001
         vertex 2.382470e+002 1.441261e+002 6.950929e+001
         vertex 2.379321e+002 1.441261e+002 6.890834e+001
      endloop
   endfacet
   facet normal -8.985790e-001 0.000000e+000 4.388118e-001
      outer loop
         vertex 2.382470e+002 1.421261e+002 6.950929e+001
         vertex 2.379321e+002 1.441261e+002 6.890834e+001
         vertex 2.379321e+002 1.421261e+002 6.890834e+001
      endloop
   endfacet
   facet normal -9.423583e-001 0.000000e+000 3.346056e-001
      outer loop
         vertex 2.379321e+002 1.421261e+002 6.890834e+001
         vertex 2.379321e+002 1.441261e+002 6.890834e+001
         vertex 2.377233e+002 1.441261e+002 6.826283e+001
      endloop
   endfacet
   facet normal -9.598133e-001 0.000000e+000 2.806394e-001
      outer loop
         vertex 2.379321e+002 1.421261e+002 6.890834e+001
         vertex 2.377233e+002 1.441261e+002 6.826283e+001
         vertex 2.377233e+002 1.421261e+002 6.826283e+001
      endloop
   endfacet
   facet normal -9.853519e-001 0.000000e+000 1.705333e-001
      outer loop
         vertex 2.377233e+002 1.421261e+002 6.826283e+001
         vertex 2.377233e+002 1.441261e+002 6.826283e+001
         vertex 2.376266e+002 1.441261e+002 6.759130e+001
      endloop
   endfacet
   facet normal -9.934355e-001 0.000000e+000 1.143934e-001
      outer loop
         vertex 2.377233e+002 1.421261e+002 6.826283e+001
         vertex 2.376266e+002 1.441261e+002 6.759130e+001
         vertex 2.376266e+002 1.421261e+002 6.759130e+001
      endloop
   endfacet
   facet normal -9.999988e-001 0.000000e+000 1.554977e-003
      outer loop
         vertex 2.376266e+002 1.421261e+002 6.759130e+001
         vertex 2.376266e+002 1.441261e+002 6.759130e+001
         vertex 2.376448e+002 1.441261e+002 6.691310e+001
      endloop
   endfacet
   facet normal -9.984784e-001 0.000000e+000 -5.514348e-002
      outer loop
         vertex 2.376266e+002 1.421261e+002 6.759130e+001
         vertex 2.376448e+002 1.441261e+002 6.691310e+001
         vertex 2.376448e+002 1.421261e+002 6.691310e+001
      endloop
   endfacet
   facet normal -9.858775e-001 0.000000e+000 -1.674680e-001
      outer loop
         vertex 2.376448e+002 1.421261e+002 6.691310e+001
         vertex 2.376448e+002 1.441261e+002 6.691310e+001
         vertex 2.377773e+002 1.441261e+002 6.624773e+001
      endloop
   endfacet
   facet normal -9.747970e-001 0.000000e+000 -2.230940e-001
      outer loop
         vertex 2.376448e+002 1.421261e+002 6.691310e+001
         vertex 2.377773e+002 1.441261e+002 6.624773e+001
         vertex 2.377773e+002 1.421261e+002 6.624773e+001
      endloop
   endfacet
   facet normal -9.433944e-001 0.000000e+000 -3.316732e-001
      outer loop
         vertex 2.377773e+002 1.421261e+002 6.624773e+001
         vertex 2.377773e+002 1.441261e+002 6.624773e+001
         vertex 2.380204e+002 1.441261e+002 6.561432e+001
      endloop
   endfacet
   facet normal -9.230723e-001 0.000000e+000 -3.846264e-001
      outer loop
         vertex 2.377773e+002 1.421261e+002 6.624773e+001
         vertex 2.380204e+002 1.441261e+002 6.561432e+001
         vertex 2.380204e+002 1.421261e+002 6.561432e+001
      endloop
   endfacet
   facet normal -8.737714e-001 0.000000e+000 -4.863368e-001
      outer loop
         vertex 2.380204e+002 1.421261e+002 6.561432e+001
         vertex 2.380204e+002 1.441261e+002 6.561432e+001
         vertex 2.383671e+002 1.441261e+002 6.503111e+001
      endloop
   endfacet
   facet normal -8.447926e-001 0.000000e+000 -5.350939e-001
      outer loop
         vertex 2.380204e+002 1.421261e+002 6.561432e+001
         vertex 2.383671e+002 1.441261e+002 6.503111e+001
         vertex 2.383671e+002 1.421261e+002 6.503111e+001
      endloop
   endfacet
   facet normal -7.790117e-001 0.000000e+000 -6.270094e-001
      outer loop
         vertex 2.383671e+002 1.421261e+002 6.503111e+001
         vertex 2.383671e+002 1.441261e+002 6.503111e+001
         vertex 2.388073e+002 1.441261e+002 6.451486e+001
      endloop
   endfacet
   facet normal -7.422097e-001 0.000000e+000 -6.701677e-001
      outer loop
         vertex 2.383671e+002 1.421261e+002 6.503111e+001
         vertex 2.388073e+002 1.441261e+002 6.451486e+001
         vertex 2.388073e+002 1.421261e+002 6.451486e+001
      endloop
   endfacet
   facet normal -6.618412e-001 0.000000e+000 -7.496440e-001
      outer loop
         vertex 2.388073e+002 1.421261e+002 6.451486e+001
         vertex 2.388073e+002 1.441261e+002 6.451486e+001
         vertex 2.393284e+002 1.441261e+002 6.408044e+001
      endloop
   endfacet
   facet normal -6.182748e-001 0.000000e+000 -7.859620e-001
      outer loop
         vertex 2.388073e+002 1.421261e+002 6.451486e+001
         vertex 2.393284e+002 1.441261e+002 6.408044e+001
         vertex 2.393284e+002 1.421261e+002 6.408044e+001
      endloop
   endfacet
   facet normal -5.256308e-001 0.000000e+000 -8.507128e-001
      outer loop
         vertex 2.393284e+002 1.421261e+002 6.408044e+001
         vertex 2.393284e+002 1.441261e+002 6.408044e+001
         vertex 2.399154e+002 1.441261e+002 6.374034e+001
      endloop
   endfacet
   facet normal -4.765533e-001 0.000000e+000 -8.791456e-001
      outer loop
         vertex 2.393284e+002 1.421261e+002 6.408044e+001
         vertex 2.399154e+002 1.441261e+002 6.374034e+001
         vertex 2.399154e+002 1.421261e+002 6.374034e+001
      endloop
   endfacet
   facet normal -3.742989e-001 0.000000e+000 -9.273081e-001
      outer loop
         vertex 2.399154e+002 1.421261e+002 6.374034e+001
         vertex 2.399154e+002 1.441261e+002 6.374034e+001
         vertex 2.405515e+002 1.441261e+002 6.350434e+001
      endloop
   endfacet
   facet normal -3.211221e-001 0.000000e+000 -9.470378e-001
      outer loop
         vertex 2.399154e+002 1.421261e+002 6.374034e+001
         vertex 2.405515e+002 1.441261e+002 6.350434e+001
         vertex 2.405515e+002 1.421261e+002 6.350434e+001
      endloop
   endfacet
   facet normal -2.121991e-001 0.000000e+000 -9.772264e-001
      outer loop
         vertex 2.405515e+002 1.421261e+002 6.350434e+001
         vertex 2.405515e+002 1.441261e+002 6.350434e+001
         vertex 2.412183e+002 1.441261e+002 6.337923e+001
      endloop
   endfacet
   facet normal -1.564528e-001 0.000000e+000 -9.876854e-001
      outer loop
         vertex 2.405515e+002 1.421261e+002 6.350434e+001
         vertex 2.412183e+002 1.441261e+002 6.337923e+001
         vertex 2.412183e+002 1.421261e+002 6.337923e+001
      endloop
   endfacet
   facet normal -4.399477e-002 0.000000e+000 -9.990318e-001
      outer loop
         vertex 2.412183e+002 1.421261e+002 6.337923e+001
         vertex 2.412183e+002 1.441261e+002 6.337923e+001
         vertex 2.418967e+002 1.441261e+002 6.336863e+001
      endloop
   endfacet
   facet normal 1.271714e-002 0.000000e+000 -9.999191e-001
      outer loop
         vertex 2.412183e+002 1.421261e+002 6.337923e+001
         vertex 2.418967e+002 1.441261e+002 6.336863e+001
         vertex 2.418967e+002 1.421261e+002 6.336863e+001
      endloop
   endfacet
   facet normal 1.254753e-001 0.000000e+000 -9.920967e-001
      outer loop
         vertex 2.418967e+002 1.421261e+002 6.336863e+001
         vertex 2.418967e+002 1.441261e+002 6.336863e+001
         vertex 2.425671e+002 1.441261e+002 6.347281e+001
      endloop
   endfacet
   facet normal 1.815214e-001 0.000000e+000 -9.833870e-001
      outer loop
         vertex 2.418967e+002 1.421261e+002 6.336863e+001
         vertex 2.425671e+002 1.441261e+002 6.347281e+001
         vertex 2.425671e+002 1.421261e+002 6.347281e+001
      endloop
   endfacet
   facet normal 2.913356e-001 0.000000e+000 -9.566209e-001
      outer loop
         vertex 2.425671e+002 1.421261e+002 6.347281e+001
         vertex 2.425671e+002 1.441261e+002 6.347281e+001
         vertex 2.432102e+002 1.441261e+002 6.368879e+001
      endloop
   endfacet
   facet normal 3.451036e-001 0.000000e+000 -9.385646e-001
      outer loop
         vertex 2.425671e+002 1.421261e+002 6.347281e+001
         vertex 2.432102e+002 1.441261e+002 6.368879e+001
         vertex 2.432102e+002 1.421261e+002 6.368879e+001
      endloop
   endfacet
   facet normal 4.488147e-001 0.000000e+000 -8.936248e-001
      outer loop
         vertex 2.432102e+002 1.421261e+002 6.368879e+001
         vertex 2.432102e+002 1.441261e+002 6.368879e+001
         vertex 2.438076e+002 1.441261e+002 6.401036e+001
      endloop
   endfacet
   facet normal 4.987578e-001 0.000000e+000 -8.667414e-001
      outer loop
         vertex 2.432102e+002 1.421261e+002 6.368879e+001
         vertex 2.438076e+002 1.441261e+002 6.401036e+001
         vertex 2.438076e+002 1.421261e+002 6.401036e+001
      endloop
   endfacet
   facet normal 5.933822e-001 -0.000000e+000 -8.049209e-001
      outer loop
         vertex 2.438076e+002 1.421261e+002 6.401036e+001
         vertex 2.438076e+002 1.441261e+002 6.401036e+001
         vertex 2.443421e+002 1.441261e+002 6.442826e+001
      endloop
   endfacet
   facet normal 6.380636e-001 -0.000000e+000 -7.699836e-001
      outer loop
         vertex 2.438076e+002 1.421261e+002 6.401036e+001
         vertex 2.443421e+002 1.441261e+002 6.442826e+001
         vertex 2.443421e+002 1.421261e+002 6.442826e+001
      endloop
   endfacet
   facet normal 7.208793e-001 -0.000000e+000 -6.930607e-001
      outer loop
         vertex 2.443421e+002 1.421261e+002 6.442826e+001
         vertex 2.443421e+002 1.441261e+002 6.442826e+001
         vertex 2.447982e+002 1.441261e+002 6.493047e+001
      endloop
   endfacet
   facet normal 7.590135e-001 -0.000000e+000 -6.510749e-001
      outer loop
         vertex 2.443421e+002 1.421261e+002 6.442826e+001
         vertex 2.447982e+002 1.441261e+002 6.493047e+001
         vertex 2.447982e+002 1.421261e+002 6.493047e+001
      endloop
   endfacet
   facet normal 8.276379e-001 -0.000000e+000 -5.612625e-001
      outer loop
         vertex 2.447982e+002 1.421261e+002 6.493047e+001
         vertex 2.447982e+002 1.441261e+002 6.493047e+001
         vertex 2.451629e+002 1.441261e+002 6.550256e+001
      endloop
   endfacet
   facet normal 8.581280e-001 -0.000000e+000 -5.134358e-001
      outer loop
         vertex 2.447982e+002 1.421261e+002 6.493047e+001
         vertex 2.451629e+002 1.441261e+002 6.550256e+001
         vertex 2.451629e+002 1.421261e+002 6.550256e+001
      endloop
   endfacet
   facet normal 9.105869e-001 -0.000000e+000 -4.133177e-001
      outer loop
         vertex 2.451629e+002 1.421261e+002 6.550256e+001
         vertex 2.451629e+002 1.441261e+002 6.550256e+001
         vertex 2.454257e+002 1.441261e+002 6.612804e+001
      endloop
   endfacet
   facet normal 9.325557e-001 -0.000000e+000 -3.610263e-001
      outer loop
         vertex 2.451629e+002 1.421261e+002 6.550256e+001
         vertex 2.454257e+002 1.441261e+002 6.612804e+001
         vertex 2.454257e+002 1.421261e+002 6.612804e+001
      endloop
   endfacet
   facet normal 9.673399e-001 -0.000000e+000 -2.534827e-001
      outer loop
         vertex 2.454257e+002 1.421261e+002 6.612804e+001
         vertex 2.454257e+002 1.441261e+002 6.612804e+001
         vertex 2.455790e+002 1.441261e+002 6.678895e+001
      endloop
   endfacet
   facet normal 9.801554e-001 -0.000000e+000 -1.982305e-001
      outer loop
         vertex 2.454257e+002 1.421261e+002 6.612804e+001
         vertex 2.455790e+002 1.441261e+002 6.678895e+001
         vertex 2.455790e+002 1.421261e+002 6.678895e+001
      endloop
   endfacet
   facet normal 9.962644e-001 -0.000000e+000 -8.635522e-002
      outer loop
         vertex 2.455790e+002 1.421261e+002 6.678895e+001
         vertex 2.455790e+002 1.441261e+002 6.678895e+001
         vertex 2.456184e+002 1.441261e+002 6.746626e+001
      endloop
   endfacet
   facet normal 9.995579e-001 -0.000000e+000 -2.973207e-002
      outer loop
         vertex 2.455790e+002 1.421261e+002 6.678895e+001
         vertex 2.456184e+002 1.441261e+002 6.746626e+001
         vertex 2.456184e+002 1.421261e+002 6.746626e+001
      endloop
   endfacet
   facet normal 9.965281e-001 -0.000000e+000 8.325642e-002
      outer loop
         vertex 2.456184e+002 1.421261e+002 6.746626e+001
         vertex 2.456184e+002 1.441261e+002 6.746626e+001
         vertex 2.455428e+002 1.441261e+002 6.814047e+001
      endloop
   endfacet
   facet normal 9.902049e-001 -0.000000e+000 1.396217e-001
      outer loop
         vertex 2.456184e+002 1.421261e+002 6.746626e+001
         vertex 2.455428e+002 1.441261e+002 6.814047e+001
         vertex 2.455428e+002 1.421261e+002 6.814047e+001
      endloop
   endfacet
   facet normal 9.681236e-001 -0.000000e+000 2.504729e-001
      outer loop
         vertex 2.455428e+002 1.421261e+002 6.814047e+001
         vertex 2.455428e+002 1.441261e+002 6.814047e+001
         vertex 2.453543e+002 1.441261e+002 6.879221e+001
      endloop
   endfacet
   facet normal 9.523655e-001 -0.000000e+000 3.049588e-001
      outer loop
         vertex 2.455428e+002 1.421261e+002 6.814047e+001
         vertex 2.453543e+002 1.441261e+002 6.879221e+001
         vertex 2.453543e+002 1.421261e+002 6.879221e+001
      endloop
   endfacet
   facet normal 9.118679e-001 -0.000000e+000 4.104838e-001
      outer loop
         vertex 2.453543e+002 1.421261e+002 6.879221e+001
         vertex 2.453543e+002 1.441261e+002 6.879221e+001
         vertex 2.450584e+002 1.441261e+002 6.940272e+001
      endloop
   endfacet
   facet normal 8.871284e-001 -0.000000e+000 4.615228e-001
      outer loop
         vertex 2.453543e+002 1.421261e+002 6.879221e+001
         vertex 2.450584e+002 1.441261e+002 6.940272e+001
         vertex 2.450584e+002 1.421261e+002 6.940272e+001
      endloop
   endfacet
   facet normal 8.293794e-001 0.000000e+000 5.586858e-001
      outer loop
         vertex 2.450584e+002 1.421261e+002 6.940272e+001
         vertex 2.450584e+002 1.441261e+002 6.940272e+001
         vertex 2.446635e+002 1.441261e+002 6.995443e+001
      endloop
   endfacet
   facet normal 7.963701e-001 0.000000e+000 6.048096e-001
      outer loop
         vertex 2.450584e+002 1.421261e+002 6.940272e+001
         vertex 2.446635e+002 1.441261e+002 6.995443e+001
         vertex 2.446635e+002 1.421261e+002 6.995443e+001
      endloop
   endfacet
   facet normal 7.230312e-001 0.000000e+000 6.908154e-001
      outer loop
         vertex 2.446635e+002 1.421261e+002 6.995443e+001
         vertex 2.446635e+002 1.441261e+002 6.995443e+001
         vertex 2.441811e+002 1.441261e+002 7.043148e+001
      endloop
   endfacet
   facet normal 6.827016e-001 0.000000e+000 7.306972e-001
      outer loop
         vertex 2.446635e+002 1.421261e+002 6.995443e+001
         vertex 2.441811e+002 1.441261e+002 7.043148e+001
         vertex 2.441811e+002 1.421261e+002 7.043148e+001
      endloop
   endfacet
   facet normal 5.958827e-001 0.000000e+000 8.030715e-001
      outer loop
         vertex 2.441811e+002 1.421261e+002 7.043148e+001
         vertex 2.441811e+002 1.441261e+002 7.043148e+001
         vertex 2.436250e+002 1.441261e+002 7.082014e+001
      endloop
   endfacet
   facet normal 5.493932e-001 0.000000e+000 8.355640e-001
      outer loop
         vertex 2.441811e+002 1.421261e+002 7.043148e+001
         vertex 2.436250e+002 1.441261e+002 7.082014e+001
         vertex 2.436250e+002 1.421261e+002 7.082014e+001
      endloop
   endfacet
   facet normal 4.515917e-001 0.000000e+000 8.922247e-001
      outer loop
         vertex 2.436250e+002 1.421261e+002 7.082014e+001
         vertex 2.436250e+002 1.441261e+002 7.082014e+001
         vertex 2.430113e+002 1.441261e+002 7.110924e+001
      endloop
   endfacet
   facet normal 4.002797e-001 0.000000e+000 9.163930e-001
      outer loop
         vertex 2.436250e+002 1.421261e+002 7.082014e+001
         vertex 2.430113e+002 1.441261e+002 7.110924e+001
         vertex 2.430113e+002 1.421261e+002 7.110924e+001
      endloop
   endfacet
   facet normal 2.943093e-001 0.000000e+000 9.557102e-001
      outer loop
         vertex 2.430113e+002 1.421261e+002 7.110924e+001
         vertex 2.430113e+002 1.441261e+002 7.110924e+001
         vertex 2.423575e+002 1.441261e+002 7.129044e+001
      endloop
   endfacet
   facet normal 2.396508e-001 0.000000e+000 9.708592e-001
      outer loop
         vertex 2.430113e+002 1.421261e+002 7.110924e+001
         vertex 2.423575e+002 1.441261e+002 7.129044e+001
         vertex 2.423575e+002 1.421261e+002 7.129044e+001
      endloop
   endfacet
   facet normal 1.285601e-001 0.000000e+000 9.917017e-001
      outer loop
         vertex 2.423575e+002 1.421261e+002 7.129044e+001
         vertex 2.423575e+002 1.441261e+002 7.129044e+001
         vertex 2.416824e+002 1.441261e+002 7.135854e+001
      endloop
   endfacet
   facet normal 7.212772e-002 0.000000e+000 9.973954e-001
      outer loop
         vertex 2.423575e+002 1.421261e+002 7.129044e+001
         vertex 2.416824e+002 1.441261e+002 7.135854e+001
         vertex 2.416824e+002 1.421261e+002 7.135854e+001
      endloop
   endfacet
   facet normal -4.088751e-002 0.000000e+000 9.991637e-001
      outer loop
         vertex 2.416824e+002 1.421261e+002 7.135854e+001
         vertex 2.416824e+002 1.441261e+002 7.135854e+001
         vertex 2.410056e+002 1.441261e+002 7.131159e+001
      endloop
   endfacet
   facet normal -9.747042e-002 0.000000e+000 9.952384e-001
      outer loop
         vertex 2.416824e+002 1.421261e+002 7.135854e+001
         vertex 2.410056e+002 1.441261e+002 7.131159e+001
         vertex 2.410056e+002 1.421261e+002 7.131159e+001
      endloop
   endfacet
   facet normal -2.091589e-001 0.000000e+000 9.778817e-001
      outer loop
         vertex 2.410056e+002 1.421261e+002 7.131159e+001
         vertex 2.410056e+002 1.441261e+002 7.131159e+001
         vertex 2.403465e+002 1.441261e+002 7.115093e+001
      endloop
   endfacet
   facet normal -2.642645e-001 0.000000e+000 9.644502e-001
      outer loop
         vertex 2.410056e+002 1.421261e+002 7.131159e+001
         vertex 2.403465e+002 1.441261e+002 7.115093e+001
         vertex 2.403465e+002 1.421261e+002 7.115093e+001
      endloop
   endfacet
   facet normal -3.714131e-001 0.000000e+000 9.284677e-001
      outer loop
         vertex 2.403465e+002 1.421261e+002 7.115093e+001
         vertex 2.403465e+002 1.441261e+002 7.115093e+001
         vertex 2.397240e+002 1.441261e+002 7.088118e+001
      endloop
   endfacet
   facet normal -4.234562e-001 0.000000e+000 9.059166e-001
      outer loop
         vertex 2.403465e+002 1.421261e+002 7.115093e+001
         vertex 2.397240e+002 1.441261e+002 7.088118e+001
         vertex 2.397240e+002 1.421261e+002 7.088118e+001
      endloop
   endfacet
   facet normal -4.986987e-001 0.000000e+000 8.667754e-001
      outer loop
         vertex 2.397240e+002 1.421261e+002 7.088118e+001
         vertex 2.397240e+002 1.441261e+002 7.088118e+001
         vertex 2.394321e+002 1.421261e+002 7.070771e+001
      endloop
   endfacet
   facet normal 0.000000e+000 -1.000000e+000 0.000000e+000
      outer loop
         vertex 2.443421e+002 1.421261e+002 6.442826e+001
         vertex 2.397240e+002 1.421261e+002 7.088118e+001
         vertex 2.438076e+002 1.421261e+002 6.401036e+001
      endloop
   endfacet
   facet normal 0.000000e+000 -1.000000e+000 0.000000e+000
      outer loop
         vertex 2.438076e+002 1.421261e+002 6.401036e+001
         vertex 2.397240e+002 1.421261e+002 7.088118e+001
         vertex 2.394321e+002 1.421261e+002 7.070771e+001
      endloop
   endfacet
   facet normal 0.000000e+000 -1.000000e+000 0.000000e+000
      outer loop
         vertex 2.438076e+002 1.421261e+002 6.401036e+001
         vertex 2.394321e+002 1.421261e+002 7.070771e+001
         vertex 2.391560e+002 1.421261e+002 7.051011e+001
      endloop
   endfacet
   facet normal 0.000000e+000 -1.000000e+000 0.000000e+000
      outer loop
         vertex 2.446635e+002 1.421261e+002 6.995443e+001
         vertex 2.441811e+002 1.421261e+002 7.043148e+001
         vertex 2.397240e+002 1.421261e+002 7.088118e+001
      endloop
   endfacet
   facet normal 0.000000e+000 -1.000000e+000 0.000000e+000
      outer loop
         vertex 2.391560e+002 1.421261e+002 7.051011e+001
         vertex 2.386589e+002 1.421261e+002 7.004839e+001
         vertex 2.399154e+002 1.421261e+002 6.374034e+001
      endloop
   endfacet
   facet normal 0.000000e+000 -1.000000e+000 0.000000e+000
      outer loop
         vertex 2.399154e+002 1.421261e+002 6.374034e+001
         vertex 2.386589e+002 1.421261e+002 7.004839e+001
         vertex 2.382470e+002 1.421261e+002 6.950929e+001
      endloop
   endfacet
   facet normal 0.000000e+000 -1.000000e+000 0.000000e+000
      outer loop
         vertex 2.399154e+002 1.421261e+002 6.374034e+001
         vertex 2.405515e+002 1.421261e+002 6.350434e+001
         vertex 2.391560e+002 1.421261e+002 7.051011e+001
      endloop
   endfacet
   facet normal 0.000000e+000 -1.000000e+000 0.000000e+000
      outer loop
         vertex 2.391560e+002 1.421261e+002 7.051011e+001
         vertex 2.405515e+002 1.421261e+002 6.350434e+001
         vertex 2.412183e+002 1.421261e+002 6.337923e+001
      endloop
   endfacet
   facet normal 0.000000e+000 -1.000000e+000 0.000000e+000
      outer loop
         vertex 2.391560e+002 1.421261e+002 7.051011e+001
         vertex 2.412183e+002 1.421261e+002 6.337923e+001
         vertex 2.418967e+002 1.421261e+002 6.336863e+001
      endloop
   endfacet
   facet normal 0.000000e+000 -1.000000e+000 0.000000e+000
      outer loop
         vertex 2.443421e+002 1.421261e+002 6.442826e+001
         vertex 2.447982e+002 1.421261e+002 6.493047e+001
         vertex 2.397240e+002 1.421261e+002 7.088118e+001
      endloop
   endfacet
   facet normal 0.000000e+000 -1.000000e+000 0.000000e+000
      outer loop
         vertex 2.397240e+002 1.421261e+002 7.088118e+001
         vertex 2.447982e+002 1.421261e+002 6.493047e+001
         vertex 2.451629e+002 1.421261e+002 6.550256e+001
      endloop
   endfacet
   facet normal 0.000000e+000 -1.000000e+000 0.000000e+000
      outer loop
         vertex 2.397240e+002 1.421261e+002 7.088118e+001
         vertex 2.451629e+002 1.421261e+002 6.550256e+001
         vertex 2.454257e+002 1.421261e+002 6.612804e+001
      endloop
   endfacet
   facet normal 0.000000e+000 -1.000000e+000 0.000000e+000
      outer loop
         vertex 2.454257e+002 1.421261e+002 6.612804e+001
         vertex 2.455790e+002 1.421261e+002 6.678895e+001
         vertex 2.397240e+002 1.421261e+002 7.088118e+001
      endloop
   endfacet
   facet normal 0.000000e+000 -1.000000e+000 0.000000e+000
      outer loop
         vertex 2.397240e+002 1.421261e+002 7.088118e+001
         vertex 2.455790e+002 1.421261e+002 6.678895e+001
         vertex 2.456184e+002 1.421261e+002 6.746626e+001
      endloop
   endfacet
   facet normal 0.000000e+000 -1.000000e+000 0.000000e+000
      outer loop
         vertex 2.397240e+002 1.421261e+002 7.088118e+001
         vertex 2.456184e+002 1.421261e+002 6.746626e+001
         vertex 2.455428e+002 1.421261e+002 6.814047e+001
      endloop
   endfacet
   facet normal 0.000000e+000 -1.000000e+000 0.000000e+000
      outer loop
         vertex 2.455428e+002 1.421261e+002 6.814047e+001
         vertex 2.453543e+002 1.421261e+002 6.879221e+001
         vertex 2.397240e+002 1.421261e+002 7.088118e+001
      endloop
   endfacet
   facet normal 0.000000e+000 -1.000000e+000 0.000000e+000
      outer loop
         vertex 2.397240e+002 1.421261e+002 7.088118e+001
         vertex 2.453543e+002 1.421261e+002 6.879221e+001
         vertex 2.450584e+002 1.421261e+002 6.940272e+001
      endloop
   endfacet
   facet normal 0.000000e+000 -1.000000e+000 0.000000e+000
      outer loop
         vertex 2.397240e+002 1.421261e+002 7.088118e+001
         vertex 2.450584e+002 1.421261e+002 6.940272e+001
         vertex 2.446635e+002 1.421261e+002 6.995443e+001
      endloop
   endfacet
   facet normal 0.000000e+000 -1.000000e+000 0.000000e+000
      outer loop
         vertex 2.441811e+002 1.421261e+002 7.043148e+001
         vertex 2.436250e+002 1.421261e+002 7.082014e+001
         vertex 2.397240e+002 1.421261e+002 7.088118e+001
      endloop
   endfacet
   facet normal 0.000000e+000 -1.000000e+000 0.000000e+000
      outer loop
         vertex 2.397240e+002 1.421261e+002 7.088118e+001
         vertex 2.436250e+002 1.421261e+002 7.082014e+001
         vertex 2.430113e+002 1.421261e+002 7.110924e+001
      endloop
   endfacet
   facet normal 0.000000e+000 -1.000000e+000 0.000000e+000
      outer loop
         vertex 2.397240e+002 1.421261e+002 7.088118e+001
         vertex 2.430113e+002 1.421261e+002 7.110924e+001
         vertex 2.423575e+002 1.421261e+002 7.129044e+001
      endloop
   endfacet
   facet normal 0.000000e+000 -1.000000e+000 0.000000e+000
      outer loop
         vertex 2.423575e+002 1.421261e+002 7.129044e+001
         vertex 2.416824e+002 1.421261e+002 7.135854e+001
         vertex 2.397240e+002 1.421261e+002 7.088118e+001
      endloop
   endfacet
   facet normal 0.000000e+000 -1.000000e+000 0.000000e+000
      outer loop
         vertex 2.397240e+002 1.421261e+002 7.088118e+001
         vertex 2.416824e+002 1.421261e+002 7.135854e+001
         vertex 2.410056e+002 1.421261e+002 7.131159e+001
      endloop
   endfacet
   facet normal 0.000000e+000 -1.000000e+000 0.000000e+000
      outer loop
         vertex 2.397240e+002 1.421261e+002 7.088118e+001
         vertex 2.410056e+002 1.421261e+002 7.131159e+001
         vertex 2.403465e+002 1.421261e+002 7.115093e+001
      endloop
   endfacet
   facet normal 0.000000e+000 -1.000000e+000 0.000000e+000
      outer loop
         vertex 2.377773e+002 1.421261e+002 6.624773e+001
         vertex 2.399154e+002 1.421261e+002 6.374034e+001
         vertex 2.376448e+002 1.421261e+002 6.691310e+001
      endloop
   endfacet
   facet normal 0.000000e+000 -1.000000e+000 0.000000e+000
      outer loop
         vertex 2.376448e+002 1.421261e+002 6.691310e+001
         vertex 2.399154e+002 1.421261e+002 6.374034e+001
         vertex 2.376266e+002 1.421261e+002 6.759130e+001
      endloop
   endfacet
   facet normal 0.000000e+000 -1.000000e+000 0.000000e+000
      outer loop
         vertex 2.418967e+002 1.421261e+002 6.336863e+001
         vertex 2.425671e+002 1.421261e+002 6.347281e+001
         vertex 2.391560e+002 1.421261e+002 7.051011e+001
      endloop
   endfacet
   facet normal 0.000000e+000 -1.000000e+000 0.000000e+000
      outer loop
         vertex 2.391560e+002 1.421261e+002 7.051011e+001
         vertex 2.425671e+002 1.421261e+002 6.347281e+001
         vertex 2.432102e+002 1.421261e+002 6.368879e+001
      endloop
   endfacet
   facet normal 0.000000e+000 -1.000000e+000 0.000000e+000
      outer loop
         vertex 2.391560e+002 1.421261e+002 7.051011e+001
         vertex 2.432102e+002 1.421261e+002 6.368879e+001
         vertex 2.438076e+002 1.421261e+002 6.401036e+001
      endloop
   endfacet
   facet normal 0.000000e+000 -1.000000e+000 0.000000e+000
      outer loop
         vertex 2.382470e+002 1.421261e+002 6.950929e+001
         vertex 2.379321e+002 1.421261e+002 6.890834e+001
         vertex 2.399154e+002 1.421261e+002 6.374034e+001
      endloop
   endfacet
   facet normal 0.000000e+000 -1.000000e+000 0.000000e+000
      outer loop
         vertex 2.399154e+002 1.421261e+002 6.374034e+001
         vertex 2.379321e+002 1.421261e+002 6.890834e+001
         vertex 2.377233e+002 1.421261e+002 6.826283e+001
      endloop
   endfacet
   facet normal 0.000000e+000 -1.000000e+000 0.000000e+000
      outer loop
         vertex 2.399154e+002 1.421261e+002 6.374034e+001
         vertex 2.377233e+002 1.421261e+002 6.826283e+001
         vertex 2.376266e+002 1.421261e+002 6.759130e+001
      endloop
   endfacet
   facet normal 0.000000e+000 -1.000000e+000 0.000000e+000
      outer loop
         vertex 2.377773e+002 1.421261e+002 6.624773e+001
         vertex 2.380204e+002 1.421261e+002 6.561432e+001
         vertex 2.399154e+002 1.421261e+002 6.374034e+001
      endloop
   endfacet
   facet normal 0.000000e+000 -1.000000e+000 0.000000e+000
      outer loop
         vertex 2.399154e+002 1.421261e+002 6.374034e+001
         vertex 2.380204e+002 1.421261e+002 6.561432e+001
         vertex 2.383671e+002 1.421261e+002 6.503111e+001
      endloop
   endfacet
   facet normal 0.000000e+000 -1.000000e+000 0.000000e+000
      outer loop
         vertex 2.399154e+002 1.421261e+002 6.374034e+001
         vertex 2.383671e+002 1.421261e+002 6.503111e+001
         vertex 2.393284e+002 1.421261e+002 6.408044e+001
      endloop
   endfacet
   facet normal 0.000000e+000 -1.000000e+000 0.000000e+000
      outer loop
         vertex 2.393284e+002 1.421261e+002 6.408044e+001
         vertex 2.383671e+002 1.421261e+002 6.503111e+001
         vertex 2.388073e+002 1.421261e+002 6.451486e+001
      endloop
   endfacet
endsolid