solid PumpAssembly - PumpExtention-2 Pipe-1
   facet normal -1.000000e+000 -1.260404e-016 1.665335e-016
      outer loop
         vertex 2.421199e+002 1.200108e+002 3.203803e+001
         vertex 2.421199e+002 1.208148e+002 2.933508e+001
         vertex 2.421199e+002 1.182142e+002 3.042565e+001
      endloop
   endfacet
   facet normal -1.000000e+000 -1.260404e-016 1.665335e-016
      outer loop
         vertex 2.421199e+002 1.182142e+002 3.042565e+001
         vertex 2.421199e+002 1.208148e+002 2.933508e+001
         vertex 2.421199e+002 1.187431e+002 2.773843e+001
      endloop
   endfacet
   facet normal -1.000000e+000 -1.260404e-016 1.665335e-016
      outer loop
         vertex 2.421199e+002 1.182142e+002 3.042565e+001
         vertex 2.421199e+002 1.187431e+002 2.773843e+001
         vertex 2.421199e+002 1.161823e+002 2.912234e+001
      endloop
   endfacet
   facet normal -1.000000e+000 -1.260404e-016 1.665335e-016
      outer loop
         vertex 2.421199e+002 1.161823e+002 2.912234e+001
         vertex 2.421199e+002 1.187431e+002 2.773843e+001
         vertex 2.421199e+002 1.164566e+002 2.646838e+001
      endloop
   endfacet
   facet normal -1.000000e+000 -1.260404e-016 1.665335e-016
      outer loop
         vertex 2.421199e+002 1.161823e+002 2.912234e+001
         vertex 2.421199e+002 1.164566e+002 2.646838e+001
         vertex 2.421199e+002 1.139676e+002 2.816186e+001
      endloop
   endfacet
   facet normal -1.000000e+000 -1.260404e-016 1.665335e-016
      outer loop
         vertex 2.421199e+002 1.139676e+002 2.816186e+001
         vertex 2.421199e+002 1.164566e+002 2.646838e+001
         vertex 2.421199e+002 1.140064e+002 2.555330e+001
      endloop
   endfacet
   facet normal -1.000000e+000 -1.260404e-016 1.665335e-016
      outer loop
         vertex 2.421199e+002 1.139676e+002 2.816186e+001
         vertex 2.421199e+002 1.140064e+002 2.555330e+001
         vertex 2.421199e+002 1.116275e+002 2.756908e+001
      endloop
   endfacet
   facet normal -1.000000e+000 -1.260404e-016 1.665335e-016
      outer loop
         vertex 2.421199e+002 1.116275e+002 2.756908e+001
         vertex 2.421199e+002 1.140064e+002 2.555330e+001
         vertex 2.421199e+002 1.114471e+002 2.501364e+001
      endloop
   endfacet
   facet normal -1.000000e+000 -1.260404e-016 1.665335e-016
      outer loop
         vertex 2.421199e+002 1.116275e+002 2.756908e+001
         vertex 2.421199e+002 1.114471e+002 2.501364e+001
         vertex 2.421199e+002 1.092226e+002 2.735934e+001
      endloop
   endfacet
   facet normal -1.000000e+000 -1.260404e-016 1.665335e-016
      outer loop
         vertex 2.421199e+002 1.092226e+002 2.735934e+001
         vertex 2.421199e+002 1.114471e+002 2.501364e+001
         vertex 2.421199e+002 1.088360e+002 2.486144e+001
      endloop
   endfacet
   facet normal -1.000000e+000 -1.260404e-016 1.665335e-016
      outer loop
         vertex 2.421199e+002 1.092226e+002 2.735934e+001
         vertex 2.421199e+002 1.088360e+002 2.486144e+001
         vertex 2.421199e+002 1.068153e+002 2.753810e+001
      endloop
   endfacet
   facet normal -1.000000e+000 -1.260404e-016 1.665335e-016
      outer loop
         vertex 2.421199e+002 1.068153e+002 2.753810e+001
         vertex 2.421199e+002 1.088360e+002 2.486144e+001
         vertex 2.421199e+002 1.062313e+002 2.510011e+001
      endloop
   endfacet
   facet normal -1.000000e+000 -1.260404e-016 1.665335e-016
      outer loop
         vertex 2.421199e+002 1.068153e+002 2.753810e+001
         vertex 2.421199e+002 1.062313e+002 2.510011e+001
         vertex 2.421199e+002 1.044677e+002 2.810070e+001
      endloop
   endfacet
   facet normal -1.000000e+000 -1.260404e-016 1.665335e-016
      outer loop
         vertex 2.421199e+002 1.044677e+002 2.810070e+001
         vertex 2.421199e+002 1.062313e+002 2.510011e+001
         vertex 2.421199e+002 1.036913e+002 2.572431e+001
      endloop
   endfacet
   facet normal -1.000000e+000 -1.260404e-016 1.665335e-016
      outer loop
         vertex 2.421199e+002 1.044677e+002 2.810070e+001
         vertex 2.421199e+002 1.036913e+002 2.572431e+001
         vertex 2.421199e+002 1.022409e+002 2.903259e+001
      endloop
   endfacet
   facet normal -1.000000e+000 -1.260404e-016 1.665335e-016
      outer loop
         vertex 2.421199e+002 1.022409e+002 2.903259e+001
         vertex 2.421199e+002 1.036913e+002 2.572431e+001
         vertex 2.421199e+002 1.012728e+002 2.672011e+001
      endloop
   endfacet
   facet normal -1.000000e+000 -1.260404e-016 1.665335e-016
      outer loop
         vertex 2.421199e+002 1.022409e+002 2.903259e+001
         vertex 2.421199e+002 1.012728e+002 2.672011e+001
         vertex 2.421199e+002 1.001923e+002 3.030963e+001
      endloop
   endfacet
   facet normal -1.000000e+000 -1.260404e-016 1.665335e-016
      outer loop
         vertex 2.421199e+002 1.001923e+002 3.030963e+001
         vertex 2.421199e+002 1.012728e+002 2.672011e+001
         vertex 2.421199e+002 9.902963e+001 2.806525e+001
      endloop
   endfacet
   facet normal -1.000000e+000 -1.260404e-016 1.665335e-016
      outer loop
         vertex 2.421199e+002 1.001923e+002 3.030963e+001
         vertex 2.421199e+002 9.902963e+001 2.806525e+001
         vertex 2.421199e+002 9.837514e+001 3.189874e+001
      endloop
   endfacet
   facet normal -1.000000e+000 -1.260404e-016 1.665335e-016
      outer loop
         vertex 2.421199e+002 9.837514e+001 3.189874e+001
         vertex 2.421199e+002 9.902963e+001 2.806525e+001
         vertex 2.421199e+002 9.701202e+001 2.972970e+001
      endloop
   endfacet
   facet normal -1.000000e+000 -1.260404e-016 1.665335e-016
      outer loop
         vertex 2.421199e+002 9.837514e+001 3.189874e+001
         vertex 2.421199e+002 9.701202e+001 2.972970e+001
         vertex 2.421199e+002 9.683641e+001 3.375876e+001
      endloop
   endfacet
   facet normal -1.000000e+000 -1.260404e-016 1.665335e-016
      outer loop
         vertex 2.421199e+002 9.683641e+001 3.375876e+001
         vertex 2.421199e+002 9.701202e+001 2.972970e+001
         vertex 2.421199e+002 9.526501e+001 3.167626e+001
      endloop
   endfacet
   facet normal -1.000000e+000 -1.260404e-016 1.665335e-016
      outer loop
         vertex 2.421199e+002 9.683641e+001 3.375876e+001
         vertex 2.421199e+002 9.526501e+001 3.167626e+001
         vertex 2.421199e+002 9.561598e+001 3.584153e+001
      endloop
   endfacet
   facet normal -1.000000e+000 -1.260404e-016 1.665335e-016
      outer loop
         vertex 2.421199e+002 9.561598e+001 3.584153e+001
         vertex 2.421199e+002 9.526501e+001 3.167626e+001
         vertex 2.421199e+002 9.382765e+001 3.386146e+001
      endloop
   endfacet
   facet normal -1.000000e+000 -1.260404e-016 1.665335e-016
      outer loop
         vertex 2.421199e+002 9.561598e+001 3.584153e+001
         vertex 2.421199e+002 9.382765e+001 3.386146e+001
         vertex 2.421199e+002 9.474545e+001 3.809310e+001
      endloop
   endfacet
   facet normal -1.000000e+000 -1.260404e-016 1.665335e-016
      outer loop
         vertex 2.421199e+002 9.474545e+001 3.809310e+001
         vertex 2.421199e+002 9.382765e+001 3.386146e+001
         vertex 2.421199e+002 9.273203e+001 3.623648e+001
      endloop
   endfacet
   facet normal -1.000000e+000 -1.260404e-016 1.665335e-016
      outer loop
         vertex 2.421199e+002 9.474545e+001 3.809310e+001
         vertex 2.421199e+002 9.273203e+001 3.623648e+001
         vertex 2.421199e+002 9.444882e+001 3.926409e+001
      endloop
   endfacet
   facet normal -1.000000e+000 -1.260404e-016 1.665335e-016
      outer loop
         vertex 2.421199e+002 9.444882e+001 3.926409e+001
         vertex 2.421199e+002 9.273203e+001 3.623648e+001
         vertex 2.421199e+002 9.200262e+001 3.874827e+001
      endloop
   endfacet
   facet normal -1.000000e+000 -1.260404e-016 1.665335e-016
      outer loop
         vertex 2.421199e+002 9.444882e+001 3.926409e+001
         vertex 2.421199e+002 9.200262e+001 3.874827e+001
         vertex 2.421199e+002 9.424737e+001 4.045515e+001
      endloop
   endfacet
   facet normal -1.000000e+000 -1.260404e-016 1.665335e-016
      outer loop
         vertex 2.421199e+002 9.424737e+001 4.045515e+001
         vertex 2.421199e+002 9.200262e+001 3.874827e+001
         vertex 2.421199e+002 9.165571e+001 4.134072e+001
      endloop
   endfacet
   facet normal -1.000000e+000 -1.260404e-016 1.665335e-016
      outer loop
         vertex 2.421199e+002 9.424737e+001 4.045515e+001
         vertex 2.421199e+002 9.165571e+001 4.134072e+001
         vertex 2.421199e+002 9.413464e+001 4.286652e+001
      endloop
   endfacet
   facet normal -1.000000e+000 -1.260404e-016 1.665335e-016
      outer loop
         vertex 2.421199e+002 9.413464e+001 4.286652e+001
         vertex 2.421199e+002 9.165571e+001 4.134072e+001
         vertex 2.421199e+002 9.169907e+001 4.395591e+001
      endloop
   endfacet
   facet normal -1.000000e+000 -1.260404e-016 1.665335e-016
      outer loop
         vertex 2.421199e+002 9.413464e+001 4.286652e+001
         vertex 2.421199e+002 9.169907e+001 4.395591e+001
         vertex 2.421199e+002 9.441019e+001 4.526474e+001
      endloop
   endfacet
   facet normal -1.000000e+000 -1.260404e-016 1.665335e-016
      outer loop
         vertex 2.421199e+002 9.441019e+001 4.526474e+001
         vertex 2.421199e+002 9.169907e+001 4.395591e+001
         vertex 2.421199e+002 9.213171e+001 4.653543e+001
      endloop
   endfacet
   facet normal -1.000000e+000 -1.260404e-016 1.665335e-016
      outer loop
         vertex 2.421199e+002 9.441019e+001 4.526474e+001
         vertex 2.421199e+002 9.213171e+001 4.653543e+001
         vertex 2.421199e+002 9.506686e+001 4.758770e+001
      endloop
   endfacet
   facet normal -1.000000e+000 -1.260404e-016 1.665335e-016
      outer loop
         vertex 2.421199e+002 9.506686e+001 4.758770e+001
         vertex 2.421199e+002 9.213171e+001 4.653543e+001
         vertex 2.421199e+002 9.294398e+001 4.902166e+001
      endloop
   endfacet
   facet normal -1.000000e+000 -1.260404e-016 1.665335e-016
      outer loop
         vertex 2.421199e+002 9.506686e+001 4.758770e+001
         vertex 2.421199e+002 9.294398e+001 4.902166e+001
         vertex 2.421199e+002 9.608766e+001 4.977525e+001
      endloop
   endfacet
   facet normal -1.000000e+000 -1.260404e-016 1.665335e-016
      outer loop
         vertex 2.421199e+002 9.608766e+001 4.977525e+001
         vertex 2.421199e+002 9.294398e+001 4.902166e+001
         vertex 2.421199e+002 9.411774e+001 5.135906e+001
      endloop
   endfacet
   facet normal -1.000000e+000 -1.260404e-016 1.665335e-016
      outer loop
         vertex 2.421199e+002 9.608766e+001 4.977525e+001
         vertex 2.421199e+002 9.411774e+001 5.135906e+001
         vertex 2.421199e+002 9.744615e+001 5.177071e+001
      endloop
   endfacet
   facet normal -1.000000e+000 -1.260404e-016 1.665335e-016
      outer loop
         vertex 2.421199e+002 9.744615e+001 5.177071e+001
         vertex 2.421199e+002 9.411774e+001 5.135906e+001
         vertex 2.421199e+002 9.562675e+001 5.349541e+001
      endloop
   endfacet
   facet normal -1.000000e+000 -1.260404e-016 1.665335e-016
      outer loop
         vertex 2.421199e+002 9.744615e+001 5.177071e+001
         vertex 2.421199e+002 9.562675e+001 5.349541e+001
         vertex 2.421199e+002 9.910714e+001 5.352242e+001
      endloop
   endfacet
   facet normal -1.000000e+000 -1.260404e-016 1.665335e-016
      outer loop
         vertex 2.421199e+002 9.910714e+001 5.352242e+001
         vertex 2.421199e+002 9.562675e+001 5.349541e+001
         vertex 2.421199e+002 9.743732e+001 5.538299e+001
      endloop
   endfacet
   facet normal -1.000000e+000 -1.260404e-016 1.665335e-016
      outer loop
         vertex 2.421199e+002 9.910714e+001 5.352242e+001
         vertex 2.421199e+002 9.743732e+001 5.538299e+001
         vertex 2.421199e+002 1.010276e+002 5.498501e+001
      endloop
   endfacet
   facet normal -1.000000e+000 -1.260404e-016 1.665335e-016
      outer loop
         vertex 2.421199e+002 1.010276e+002 5.498501e+001
         vertex 2.421199e+002 9.743732e+001 5.538299e+001
         vertex 2.421199e+002 9.950900e+001 5.697964e+001
      endloop
   endfacet
   facet normal -1.000000e+000 -1.260404e-016 1.665335e-016
      outer loop
         vertex 2.421199e+002 1.010276e+002 5.498501e+001
         vertex 2.421199e+002 9.950900e+001 5.697964e+001
         vertex 2.421199e+002 1.031578e+002 5.612059e+001
      endloop
   endfacet
   facet normal -1.000000e+000 -1.260404e-016 1.665335e-016
      outer loop
         vertex 2.421199e+002 1.031578e+002 5.612059e+001
         vertex 2.421199e+002 9.950900e+001 5.697964e+001
         vertex 2.421199e+002 1.017955e+002 5.824969e+001
      endloop
   endfacet
   facet normal -1.000000e+000 -1.260404e-016 1.665335e-016
      outer loop
         vertex 2.421199e+002 1.031578e+002 5.612059e+001
         vertex 2.421199e+002 1.017955e+002 5.824969e+001
         vertex 2.421199e+002 1.054426e+002 5.689975e+001
      endloop
   endfacet
   facet normal -1.000000e+000 -1.260404e-016 1.665335e-016
      outer loop
         vertex 2.421199e+002 1.054426e+002 5.689975e+001
         vertex 2.421199e+002 1.017955e+002 5.824969e+001
         vertex 2.421199e+002 1.042458e+002 5.916476e+001
      endloop
   endfacet
   facet normal -1.000000e+000 -1.260404e-016 1.665335e-016
      outer loop
         vertex 2.421199e+002 1.054426e+002 5.689975e+001
         vertex 2.421199e+002 1.042458e+002 5.916476e+001
         vertex 2.421199e+002 1.078228e+002 5.730231e+001
      endloop
   endfacet
   facet normal -1.000000e+000 -1.260404e-016 1.665335e-016
      outer loop
         vertex 2.421199e+002 1.078228e+002 5.730231e+001
         vertex 2.421199e+002 1.042458e+002 5.916476e+001
         vertex 2.421199e+002 1.068050e+002 5.970443e+001
      endloop
   endfacet
   facet normal -1.000000e+000 -1.260404e-016 1.665335e-016
      outer loop
         vertex 2.421199e+002 1.078228e+002 5.730231e+001
         vertex 2.421199e+002 1.068050e+002 5.970443e+001
         vertex 2.421199e+002 1.102368e+002 5.731785e+001
      endloop
   endfacet
   facet normal -1.000000e+000 -1.260404e-016 1.665335e-016
      outer loop
         vertex 2.421199e+002 1.102368e+002 5.731785e+001
         vertex 2.421199e+002 1.068050e+002 5.970443e+001
         vertex 2.421199e+002 1.094162e+002 5.985663e+001
      endloop
   endfacet
   facet normal -1.000000e+000 -1.260404e-016 1.665335e-016
      outer loop
         vertex 2.421199e+002 1.102368e+002 5.731785e+001
         vertex 2.421199e+002 1.094162e+002 5.985663e+001
         vertex 2.421199e+002 1.126220e+002 5.694597e+001
      endloop
   endfacet
   facet normal -1.000000e+000 -1.260404e-016 1.665335e-016
      outer loop
         vertex 2.421199e+002 1.094162e+002 5.985663e+001
         vertex 2.421199e+002 1.120208e+002 5.961796e+001
         vertex 2.421199e+002 1.126220e+002 5.694597e+001
      endloop
   endfacet
   facet normal -1.000000e+000 -1.260404e-016 1.665335e-016
      outer loop
         vertex 2.421199e+002 1.126220e+002 5.694597e+001
         vertex 2.421199e+002 1.120208e+002 5.961796e+001
         vertex 2.421199e+002 1.145608e+002 5.899375e+001
      endloop
   endfacet
   facet normal -1.000000e+000 -1.260404e-016 1.665335e-016
      outer loop
         vertex 2.421199e+002 1.126220e+002 5.694597e+001
         vertex 2.421199e+002 1.145608e+002 5.899375e+001
         vertex 2.421199e+002 1.149166e+002 5.619629e+001
      endloop
   endfacet
   facet normal -1.000000e+000 -1.260404e-016 1.665335e-016
      outer loop
         vertex 2.421199e+002 1.149166e+002 5.619629e+001
         vertex 2.421199e+002 1.145608e+002 5.899375e+001
         vertex 2.421199e+002 1.169793e+002 5.799796e+001
      endloop
   endfacet
   facet normal -1.000000e+000 -1.260404e-016 1.665335e-016
      outer loop
         vertex 2.421199e+002 1.149166e+002 5.619629e+001
         vertex 2.421199e+002 1.169793e+002 5.799796e+001
         vertex 2.421199e+002 1.170613e+002 5.508823e+001
      endloop
   endfacet
   facet normal -1.000000e+000 -1.260404e-016 1.665335e-016
      outer loop
         vertex 2.421199e+002 1.170613e+002 5.508823e+001
         vertex 2.421199e+002 1.169793e+002 5.799796e+001
         vertex 2.421199e+002 1.192225e+002 5.665281e+001
      endloop
   endfacet
   facet normal -1.000000e+000 -1.260404e-016 1.665335e-016
      outer loop
         vertex 2.421199e+002 1.170613e+002 5.508823e+001
         vertex 2.421199e+002 1.192225e+002 5.665281e+001
         vertex 2.421199e+002 1.190004e+002 5.365050e+001
      endloop
   endfacet
   facet normal -1.000000e+000 -1.260404e-016 1.665335e-016
      outer loop
         vertex 2.421199e+002 1.190004e+002 5.365050e+001
         vertex 2.421199e+002 1.192225e+002 5.665281e+001
         vertex 2.421199e+002 1.212401e+002 5.498837e+001
      endloop
   endfacet
   facet normal -1.000000e+000 -1.260404e-016 1.665335e-016
      outer loop
         vertex 2.421199e+002 1.190004e+002 5.365050e+001
         vertex 2.421199e+002 1.212401e+002 5.498837e+001
         vertex 2.421199e+002 1.206838e+002 5.192032e+001
      endloop
   endfacet
   facet normal -1.000000e+000 -1.260404e-016 1.665335e-016
      outer loop
         vertex 2.421199e+002 1.206838e+002 5.192032e+001
         vertex 2.421199e+002 1.212401e+002 5.498837e+001
         vertex 2.421199e+002 1.229871e+002 5.304181e+001
      endloop
   endfacet
   facet normal -1.000000e+000 -1.260404e-016 1.665335e-016
      outer loop
         vertex 2.421199e+002 1.206838e+002 5.192032e+001
         vertex 2.421199e+002 1.229871e+002 5.304181e+001
         vertex 2.421199e+002 1.220679e+002 4.994251e+001
      endloop
   endfacet
   facet normal -1.000000e+000 -1.260404e-016 1.665335e-016
      outer loop
         vertex 2.421199e+002 1.220679e+002 4.994251e+001
         vertex 2.421199e+002 1.229871e+002 5.304181e+001
         vertex 2.421199e+002 1.244245e+002 5.085661e+001
      endloop
   endfacet
   facet normal -1.000000e+000 -1.260404e-016 1.665335e-016
      outer loop
         vertex 2.421199e+002 1.220679e+002 4.994251e+001
         vertex 2.421199e+002 1.244245e+002 5.085661e+001
         vertex 2.421199e+002 1.231168e+002 4.776829e+001
      endloop
   endfacet
   facet normal -1.000000e+000 -1.260404e-016 1.665335e-016
      outer loop
         vertex 2.421199e+002 1.231168e+002 4.776829e+001
         vertex 2.421199e+002 1.244245e+002 5.085661e+001
         vertex 2.421199e+002 1.255201e+002 4.848158e+001
      endloop
   endfacet
   facet normal -1.000000e+000 -1.260404e-016 1.665335e-016
      outer loop
         vertex 2.421199e+002 1.231168e+002 4.776829e+001
         vertex 2.421199e+002 1.255201e+002 4.848158e+001
         vertex 2.421199e+002 1.238033e+002 4.545397e+001
      endloop
   endfacet
   facet normal -1.000000e+000 -1.260404e-016 1.665335e-016
      outer loop
         vertex 2.421199e+002 1.238033e+002 4.545397e+001
         vertex 2.421199e+002 1.255201e+002 4.848158e+001
         vertex 2.421199e+002 1.262495e+002 4.596980e+001
      endloop
   endfacet
   facet normal -1.000000e+000 -1.260404e-016 1.665335e-016
      outer loop
         vertex 2.421199e+002 1.238033e+002 4.545397e+001
         vertex 2.421199e+002 1.262495e+002 4.596980e+001
         vertex 2.421199e+002 1.241097e+002 4.305950e+001
      endloop
   endfacet
   facet normal -1.000000e+000 -1.260404e-016 1.665335e-016
      outer loop
         vertex 2.421199e+002 1.241097e+002 4.305950e+001
         vertex 2.421199e+002 1.262495e+002 4.596980e+001
         vertex 2.421199e+002 1.265964e+002 4.337735e+001
      endloop
   endfacet
   facet normal -1.000000e+000 -1.260404e-016 1.665335e-016
      outer loop
         vertex 2.421199e+002 1.241097e+002 4.305950e+001
         vertex 2.421199e+002 1.265964e+002 4.337735e+001
         vertex 2.421199e+002 1.240280e+002 4.064688e+001
      endloop
   endfacet
   facet normal -1.000000e+000 -1.260404e-016 1.665335e-016
      outer loop
         vertex 2.421199e+002 1.240280e+002 4.064688e+001
         vertex 2.421199e+002 1.265964e+002 4.337735e+001
         vertex 2.421199e+002 1.265530e+002 4.076216e+001
      endloop
   endfacet
   facet normal -1.000000e+000 -1.260404e-016 1.665335e-016
      outer loop
         vertex 2.421199e+002 1.240280e+002 4.064688e+001
         vertex 2.421199e+002 1.265530e+002 4.076216e+001
         vertex 2.421199e+002 1.235604e+002 3.827861e+001
      endloop
   endfacet
   facet normal -1.000000e+000 -1.260404e-016 1.665335e-016
      outer loop
         vertex 2.421199e+002 1.235604e+002 3.827861e+001
         vertex 2.421199e+002 1.265530e+002 4.076216e+001
         vertex 2.421199e+002 1.261204e+002 3.818264e+001
      endloop
   endfacet
   facet normal -1.000000e+000 -1.260404e-016 1.665335e-016
      outer loop
         vertex 2.421199e+002 1.235604e+002 3.827861e+001
         vertex 2.421199e+002 1.261204e+002 3.818264e+001
         vertex 2.421199e+002 1.227189e+002 3.601603e+001
      endloop
   endfacet
   facet normal -1.000000e+000 -1.260404e-016 1.665335e-016
      outer loop
         vertex 2.421199e+002 1.227189e+002 3.601603e+001
         vertex 2.421199e+002 1.261204e+002 3.818264e+001
         vertex 2.421199e+002 1.253081e+002 3.569641e+001
      endloop
   endfacet
   facet normal -1.000000e+000 -1.260404e-016 1.665335e-016
      outer loop
         vertex 2.421199e+002 1.227189e+002 3.601603e+001
         vertex 2.421199e+002 1.253081e+002 3.569641e+001
         vertex 2.421199e+002 1.215254e+002 3.391771e+001
      endloop
   endfacet
   facet normal -1.000000e+000 -1.260404e-016 1.665335e-016
      outer loop
         vertex 2.421199e+002 1.215254e+002 3.391771e+001
         vertex 2.421199e+002 1.253081e+002 3.569641e+001
         vertex 2.421199e+002 1.241344e+002 3.335901e+001
      endloop
   endfacet
   facet normal -1.000000e+000 -1.260404e-016 1.665335e-016
      outer loop
         vertex 2.421199e+002 1.215254e+002 3.391771e+001
         vertex 2.421199e+002 1.241344e+002 3.335901e+001
         vertex 2.421199e+002 1.200108e+002 3.203803e+001
      endloop
   endfacet
   facet normal -1.000000e+000 -1.260404e-016 1.665335e-016
      outer loop
         vertex 2.421199e+002 1.200108e+002 3.203803e+001
         vertex 2.421199e+002 1.241344e+002 3.335901e+001
         vertex 2.421199e+002 1.226254e+002 3.122266e+001
      endloop
   endfacet
   facet normal -1.000000e+000 -1.260404e-016 1.665335e-016
      outer loop
         vertex 2.421199e+002 1.200108e+002 3.203803e+001
         vertex 2.421199e+002 1.226254e+002 3.122266e+001
         vertex 2.421199e+002 1.208148e+002 2.933508e+001
      endloop
   endfacet
   facet normal 1.000000e+000 1.260404e-016 -1.665335e-016
      outer loop
         vertex 3.341198e+002 1.231168e+002 4.776829e+001
         vertex 3.341198e+002 1.238033e+002 4.545397e+001
         vertex 3.341198e+002 1.255201e+002 4.848158e+001
      endloop
   endfacet
   facet normal 1.000000e+000 1.260404e-016 -1.665335e-016
      outer loop
         vertex 3.341198e+002 1.200108e+002 3.203803e+001
         vertex 3.341198e+002 1.226254e+002 3.122266e+001
         vertex 3.341198e+002 1.215254e+002 3.391771e+001
      endloop
   endfacet
   facet normal 1.000000e+000 1.260404e-016 -1.665335e-016
      outer loop
         vertex 3.341198e+002 1.215254e+002 3.391771e+001
         vertex 3.341198e+002 1.226254e+002 3.122266e+001
         vertex 3.341198e+002 1.241344e+002 3.335901e+001
      endloop
   endfacet
   facet normal 1.000000e+000 1.260404e-016 -1.665335e-016
      outer loop
         vertex 3.341198e+002 1.215254e+002 3.391771e+001
         vertex 3.341198e+002 1.241344e+002 3.335901e+001
         vertex 3.341198e+002 1.227189e+002 3.601603e+001
      endloop
   endfacet
   facet normal 1.000000e+000 1.260404e-016 -1.665335e-016
      outer loop
         vertex 3.341198e+002 1.227189e+002 3.601603e+001
         vertex 3.341198e+002 1.241344e+002 3.335901e+001
         vertex 3.341198e+002 1.253081e+002 3.569641e+001
      endloop
   endfacet
   facet normal 1.000000e+000 1.260404e-016 -1.665335e-016
      outer loop
         vertex 3.341198e+002 1.227189e+002 3.601603e+001
         vertex 3.341198e+002 1.253081e+002 3.569641e+001
         vertex 3.341198e+002 1.235604e+002 3.827861e+001
      endloop
   endfacet
   facet normal 1.000000e+000 1.260404e-016 -1.665335e-016
      outer loop
         vertex 3.341198e+002 1.235604e+002 3.827861e+001
         vertex 3.341198e+002 1.253081e+002 3.569641e+001
         vertex 3.341198e+002 1.261204e+002 3.818264e+001
      endloop
   endfacet
   facet normal 1.000000e+000 1.260404e-016 -1.665335e-016
      outer loop
         vertex 3.341198e+002 1.235604e+002 3.827861e+001
         vertex 3.341198e+002 1.261204e+002 3.818264e+001
         vertex 3.341198e+002 1.240280e+002 4.064688e+001
      endloop
   endfacet
   facet normal 1.000000e+000 1.260404e-016 -1.665335e-016
      outer loop
         vertex 3.341198e+002 1.240280e+002 4.064688e+001
         vertex 3.341198e+002 1.261204e+002 3.818264e+001
         vertex 3.341198e+002 1.265530e+002 4.076216e+001
      endloop
   endfacet
   facet normal 1.000000e+000 1.260404e-016 -1.665335e-016
      outer loop
         vertex 3.341198e+002 1.240280e+002 4.064688e+001
         vertex 3.341198e+002 1.265530e+002 4.076216e+001
         vertex 3.341198e+002 1.241097e+002 4.305950e+001
      endloop
   endfacet
   facet normal 1.000000e+000 1.260404e-016 -1.665335e-016
      outer loop
         vertex 3.341198e+002 1.241097e+002 4.305950e+001
         vertex 3.341198e+002 1.265530e+002 4.076216e+001
         vertex 3.341198e+002 1.265964e+002 4.337735e+001
      endloop
   endfacet
   facet normal 1.000000e+000 1.260404e-016 -1.665335e-016
      outer loop
         vertex 3.341198e+002 1.241097e+002 4.305950e+001
         vertex 3.341198e+002 1.265964e+002 4.337735e+001
         vertex 3.341198e+002 1.238033e+002 4.545397e+001
      endloop
   endfacet
   facet normal 1.000000e+000 1.260404e-016 -1.665335e-016
      outer loop
         vertex 3.341198e+002 1.238033e+002 4.545397e+001
         vertex 3.341198e+002 1.265964e+002 4.337735e+001
         vertex 3.341198e+002 1.262495e+002 4.596980e+001
      endloop
   endfacet
   facet normal 1.000000e+000 1.260404e-016 -1.665335e-016
      outer loop
         vertex 3.341198e+002 1.238033e+002 4.545397e+001
         vertex 3.341198e+002 1.262495e+002 4.596980e+001
         vertex 3.341198e+002 1.255201e+002 4.848158e+001
      endloop
   endfacet
   facet normal 1.000000e+000 1.260404e-016 -1.665335e-016
      outer loop
         vertex 3.341198e+002 1.231168e+002 4.776829e+001
         vertex 3.341198e+002 1.255201e+002 4.848158e+001
         vertex 3.341198e+002 1.220679e+002 4.994251e+001
      endloop
   endfacet
   facet normal 1.000000e+000 1.260404e-016 -1.665335e-016
      outer loop
         vertex 3.341198e+002 1.220679e+002 4.994251e+001
         vertex 3.341198e+002 1.255201e+002 4.848158e+001
         vertex 3.341198e+002 1.244245e+002 5.085661e+001
      endloop
   endfacet
   facet normal 1.000000e+000 1.260404e-016 -1.665335e-016
      outer loop
         vertex 3.341198e+002 1.220679e+002 4.994251e+001
         vertex 3.341198e+002 1.244245e+002 5.085661e+001
         vertex 3.341198e+002 1.206838e+002 5.192032e+001
      endloop
   endfacet
   facet normal 1.000000e+000 1.260404e-016 -1.665335e-016
      outer loop
         vertex 3.341198e+002 1.206838e+002 5.192032e+001
         vertex 3.341198e+002 1.244245e+002 5.085661e+001
         vertex 3.341198e+002 1.229871e+002 5.304181e+001
      endloop
   endfacet
   facet normal 1.000000e+000 1.260404e-016 -1.665335e-016
      outer loop
         vertex 3.341198e+002 1.206838e+002 5.192032e+001
         vertex 3.341198e+002 1.229871e+002 5.304181e+001
         vertex 3.341198e+002 1.190004e+002 5.365050e+001
      endloop
   endfacet
   facet normal 1.000000e+000 1.260404e-016 -1.665335e-016
      outer loop
         vertex 3.341198e+002 1.190004e+002 5.365050e+001
         vertex 3.341198e+002 1.229871e+002 5.304181e+001
         vertex 3.341198e+002 1.212401e+002 5.498837e+001
      endloop
   endfacet
   facet normal 1.000000e+000 1.260404e-016 -1.665335e-016
      outer loop
         vertex 3.341198e+002 1.190004e+002 5.365050e+001
         vertex 3.341198e+002 1.212401e+002 5.498837e+001
         vertex 3.341198e+002 1.170613e+002 5.508823e+001
      endloop
   endfacet
   facet normal 1.000000e+000 1.260404e-016 -1.665335e-016
      outer loop
         vertex 3.341198e+002 1.170613e+002 5.508823e+001
         vertex 3.341198e+002 1.212401e+002 5.498837e+001
         vertex 3.341198e+002 1.192225e+002 5.665281e+001
      endloop
   endfacet
   facet normal 1.000000e+000 1.260404e-016 -1.665335e-016
      outer loop
         vertex 3.341198e+002 1.170613e+002 5.508823e+001
         vertex 3.341198e+002 1.192225e+002 5.665281e+001
         vertex 3.341198e+002 1.149166e+002 5.619629e+001
      endloop
   endfacet
   facet normal 1.000000e+000 1.260404e-016 -1.665335e-016
      outer loop
         vertex 3.341198e+002 1.149166e+002 5.619629e+001
         vertex 3.341198e+002 1.192225e+002 5.665281e+001
         vertex 3.341198e+002 1.169793e+002 5.799796e+001
      endloop
   endfacet
   facet normal 1.000000e+000 1.260404e-016 -1.665335e-016
      outer loop
         vertex 3.341198e+002 1.149166e+002 5.619629e+001
         vertex 3.341198e+002 1.169793e+002 5.799796e+001
         vertex 3.341198e+002 1.126220e+002 5.694597e+001
      endloop
   endfacet
   facet normal 1.000000e+000 1.260404e-016 -1.665335e-016
      outer loop
         vertex 3.341198e+002 1.169793e+002 5.799796e+001
         vertex 3.341198e+002 1.145608e+002 5.899375e+001
         vertex 3.341198e+002 1.126220e+002 5.694597e+001
      endloop
   endfacet
   facet normal 1.000000e+000 1.260404e-016 -1.665335e-016
      outer loop
         vertex 3.341198e+002 1.126220e+002 5.694597e+001
         vertex 3.341198e+002 1.145608e+002 5.899375e+001
         vertex 3.341198e+002 1.120208e+002 5.961796e+001
      endloop
   endfacet
   facet normal 1.000000e+000 1.260404e-016 -1.665335e-016
      outer loop
         vertex 3.341198e+002 1.126220e+002 5.694597e+001
         vertex 3.341198e+002 1.120208e+002 5.961796e+001
         vertex 3.341198e+002 1.102368e+002 5.731785e+001
      endloop
   endfacet
   facet normal 1.000000e+000 1.260404e-016 -1.665335e-016
      outer loop
         vertex 3.341198e+002 1.102368e+002 5.731785e+001
         vertex 3.341198e+002 1.120208e+002 5.961796e+001
         vertex 3.341198e+002 1.094162e+002 5.985663e+001
      endloop
   endfacet
   facet normal 1.000000e+000 1.260404e-016 -1.665335e-016
      outer loop
         vertex 3.341198e+002 1.102368e+002 5.731785e+001
         vertex 3.341198e+002 1.094162e+002 5.985663e+001
         vertex 3.341198e+002 1.078228e+002 5.730231e+001
      endloop
   endfacet
   facet normal 1.000000e+000 1.260404e-016 -1.665335e-016
      outer loop
         vertex 3.341198e+002 1.078228e+002 5.730231e+001
         vertex 3.341198e+002 1.094162e+002 5.985663e+001
         vertex 3.341198e+002 1.068050e+002 5.970443e+001
      endloop
   endfacet
   facet normal 1.000000e+000 1.260404e-016 -1.665335e-016
      outer loop
         vertex 3.341198e+002 1.078228e+002 5.730231e+001
         vertex 3.341198e+002 1.068050e+002 5.970443e+001
         vertex 3.341198e+002 1.054426e+002 5.689975e+001
      endloop
   endfacet
   facet normal 1.000000e+000 1.260404e-016 -1.665335e-016
      outer loop
         vertex 3.341198e+002 1.054426e+002 5.689975e+001
         vertex 3.341198e+002 1.068050e+002 5.970443e+001
         vertex 3.341198e+002 1.042458e+002 5.916476e+001
      endloop
   endfacet
   facet normal 1.000000e+000 1.260404e-016 -1.665335e-016
      outer loop
         vertex 3.341198e+002 1.054426e+002 5.689975e+001
         vertex 3.341198e+002 1.042458e+002 5.916476e+001
         vertex 3.341198e+002 1.031578e+002 5.612059e+001
      endloop
   endfacet
   facet normal 1.000000e+000 1.260404e-016 -1.665335e-016
      outer loop
         vertex 3.341198e+002 1.031578e+002 5.612059e+001
         vertex 3.341198e+002 1.042458e+002 5.916476e+001
         vertex 3.341198e+002 1.017955e+002 5.824969e+001
      endloop
   endfacet
   facet normal 1.000000e+000 1.260404e-016 -1.665335e-016
      outer loop
         vertex 3.341198e+002 1.031578e+002 5.612059e+001
         vertex 3.341198e+002 1.017955e+002 5.824969e+001
         vertex 3.341198e+002 1.010276e+002 5.498501e+001
      endloop
   endfacet
   facet normal 1.000000e+000 1.260404e-016 -1.665335e-016
      outer loop
         vertex 3.341198e+002 1.010276e+002 5.498501e+001
         vertex 3.341198e+002 1.017955e+002 5.824969e+001
         vertex 3.341198e+002 9.950900e+001 5.697964e+001
      endloop
   endfacet
   facet normal 1.000000e+000 1.260404e-016 -1.665335e-016
      outer loop
         vertex 3.341198e+002 1.010276e+002 5.498501e+001
         vertex 3.341198e+002 9.950900e+001 5.697964e+001
         vertex 3.341198e+002 9.910714e+001 5.352242e+001
      endloop
   endfacet
   facet normal 1.000000e+000 1.260404e-016 -1.665335e-016
      outer loop
         vertex 3.341198e+002 9.910714e+001 5.352242e+001
         vertex 3.341198e+002 9.950900e+001 5.697964e+001
         vertex 3.341198e+002 9.743732e+001 5.538299e+001
      endloop
   endfacet
   facet normal 1.000000e+000 1.260404e-016 -1.665335e-016
      outer loop
         vertex 3.341198e+002 9.910714e+001 5.352242e+001
         vertex 3.341198e+002 9.743732e+001 5.538299e+001
         vertex 3.341198e+002 9.744615e+001 5.177071e+001
      endloop
   endfacet
   facet normal 1.000000e+000 1.260404e-016 -1.665335e-016
      outer loop
         vertex 3.341198e+002 9.744615e+001 5.177071e+001
         vertex 3.341198e+002 9.743732e+001 5.538299e+001
         vertex 3.341198e+002 9.562675e+001 5.349541e+001
      endloop
   endfacet
   facet normal 1.000000e+000 1.260404e-016 -1.665335e-016
      outer loop
         vertex 3.341198e+002 9.744615e+001 5.177071e+001
         vertex 3.341198e+002 9.562675e+001 5.349541e+001
         vertex 3.341198e+002 9.608766e+001 4.977525e+001
      endloop
   endfacet
   facet normal 1.000000e+000 1.260404e-016 -1.665335e-016
      outer loop
         vertex 3.341198e+002 9.608766e+001 4.977525e+001
         vertex 3.341198e+002 9.562675e+001 5.349541e+001
         vertex 3.341198e+002 9.411774e+001 5.135906e+001
      endloop
   endfacet
   facet normal 1.000000e+000 1.260404e-016 -1.665335e-016
      outer loop
         vertex 3.341198e+002 9.608766e+001 4.977525e+001
         vertex 3.341198e+002 9.411774e+001 5.135906e+001
         vertex 3.341198e+002 9.506686e+001 4.758770e+001
      endloop
   endfacet
   facet normal 1.000000e+000 1.260404e-016 -1.665335e-016
      outer loop
         vertex 3.341198e+002 9.506686e+001 4.758770e+001
         vertex 3.341198e+002 9.411774e+001 5.135906e+001
         vertex 3.341198e+002 9.294398e+001 4.902166e+001
      endloop
   endfacet
   facet normal 1.000000e+000 1.260404e-016 -1.665335e-016
      outer loop
         vertex 3.341198e+002 9.506686e+001 4.758770e+001
         vertex 3.341198e+002 9.294398e+001 4.902166e+001
         vertex 3.341198e+002 9.441019e+001 4.526474e+001
      endloop
   endfacet
   facet normal 1.000000e+000 1.260404e-016 -1.665335e-016
      outer loop
         vertex 3.341198e+002 9.441019e+001 4.526474e+001
         vertex 3.341198e+002 9.294398e+001 4.902166e+001
         vertex 3.341198e+002 9.213171e+001 4.653543e+001
      endloop
   endfacet
   facet normal 1.000000e+000 1.260404e-016 -1.665335e-016
      outer loop
         vertex 3.341198e+002 9.441019e+001 4.526474e+001
         vertex 3.341198e+002 9.213171e+001 4.653543e+001
         vertex 3.341198e+002 9.413464e+001 4.286652e+001
      endloop
   endfacet
   facet normal 1.000000e+000 1.260404e-016 -1.665335e-016
      outer loop
         vertex 3.341198e+002 9.413464e+001 4.286652e+001
         vertex 3.341198e+002 9.213171e+001 4.653543e+001
         vertex 3.341198e+002 9.169907e+001 4.395591e+001
      endloop
   endfacet
   facet normal 1.000000e+000 1.260404e-016 -1.665335e-016
      outer loop
         vertex 3.341198e+002 9.413464e+001 4.286652e+001
         vertex 3.341198e+002 9.169907e+001 4.395591e+001
         vertex 3.341198e+002 9.424737e+001 4.045515e+001
      endloop
   endfacet
   facet normal 1.000000e+000 1.260404e-016 -1.665335e-016
      outer loop
         vertex 3.341198e+002 9.424737e+001 4.045515e+001
         vertex 3.341198e+002 9.169907e+001 4.395591e+001
         vertex 3.341198e+002 9.165571e+001 4.134072e+001
      endloop
   endfacet
   facet normal 1.000000e+000 1.260404e-016 -1.665335e-016
      outer loop
         vertex 3.341198e+002 9.424737e+001 4.045515e+001
         vertex 3.341198e+002 9.165571e+001 4.134072e+001
         vertex 3.341198e+002 9.444882e+001 3.926409e+001
      endloop
   endfacet
   facet normal 1.000000e+000 1.260404e-016 -1.665335e-016
      outer loop
         vertex 3.341198e+002 9.444882e+001 3.926409e+001
         vertex 3.341198e+002 9.165571e+001 4.134072e+001
         vertex 3.341198e+002 9.200262e+001 3.874827e+001
      endloop
   endfacet
   facet normal 1.000000e+000 1.260404e-016 -1.665335e-016
      outer loop
         vertex 3.341198e+002 9.444882e+001 3.926409e+001
         vertex 3.341198e+002 9.200262e+001 3.874827e+001
         vertex 3.341198e+002 9.474545e+001 3.809310e+001
      endloop
   endfacet
   facet normal 1.000000e+000 1.260404e-016 -1.665335e-016
      outer loop
         vertex 3.341198e+002 9.474545e+001 3.809310e+001
         vertex 3.341198e+002 9.200262e+001 3.874827e+001
         vertex 3.341198e+002 9.273203e+001 3.623648e+001
      endloop
   endfacet
   facet normal 1.000000e+000 1.260404e-016 -1.665335e-016
      outer loop
         vertex 3.341198e+002 9.474545e+001 3.809310e+001
         vertex 3.341198e+002 9.273203e+001 3.623648e+001
         vertex 3.341198e+002 9.561598e+001 3.584153e+001
      endloop
   endfacet
   facet normal 1.000000e+000 1.260404e-016 -1.665335e-016
      outer loop
         vertex 3.341198e+002 9.561598e+001 3.584153e+001
         vertex 3.341198e+002 9.273203e+001 3.623648e+001
         vertex 3.341198e+002 9.382765e+001 3.386146e+001
      endloop
   endfacet
   facet normal 1.000000e+000 1.260404e-016 -1.665335e-016
      outer loop
         vertex 3.341198e+002 9.561598e+001 3.584153e+001
         vertex 3.341198e+002 9.382765e+001 3.386146e+001
         vertex 3.341198e+002 9.683641e+001 3.375876e+001
      endloop
   endfacet
   facet normal 1.000000e+000 1.260404e-016 -1.665335e-016
      outer loop
         vertex 3.341198e+002 9.683641e+001 3.375876e+001
         vertex 3.341198e+002 9.382765e+001 3.386146e+001
         vertex 3.341198e+002 9.526501e+001 3.167626e+001
      endloop
   endfacet
   facet normal 1.000000e+000 1.260404e-016 -1.665335e-016
      outer loop
         vertex 3.341198e+002 9.683641e+001 3.375876e+001
         vertex 3.341198e+002 9.526501e+001 3.167626e+001
         vertex 3.341198e+002 9.837514e+001 3.189874e+001
      endloop
   endfacet
   facet normal 1.000000e+000 1.260404e-016 -1.665335e-016
      outer loop
         vertex 3.341198e+002 9.837514e+001 3.189874e+001
         vertex 3.341198e+002 9.526501e+001 3.167626e+001
         vertex 3.341198e+002 9.701202e+001 2.972970e+001
      endloop
   endfacet
   facet normal 1.000000e+000 1.260404e-016 -1.665335e-016
      outer loop
         vertex 3.341198e+002 9.837514e+001 3.189874e+001
         vertex 3.341198e+002 9.701202e+001 2.972970e+001
         vertex 3.341198e+002 1.001923e+002 3.030963e+001
      endloop
   endfacet
   facet normal 1.000000e+000 1.260404e-016 -1.665335e-016
      outer loop
         vertex 3.341198e+002 1.001923e+002 3.030963e+001
         vertex 3.341198e+002 9.701202e+001 2.972970e+001
         vertex 3.341198e+002 9.902963e+001 2.806525e+001
      endloop
   endfacet
   facet normal 1.000000e+000 1.260404e-016 -1.665335e-016
      outer loop
         vertex 3.341198e+002 1.001923e+002 3.030963e+001
         vertex 3.341198e+002 9.902963e+001 2.806525e+001
         vertex 3.341198e+002 1.022409e+002 2.903259e+001
      endloop
   endfacet
   facet normal 1.000000e+000 1.260404e-016 -1.665335e-016
      outer loop
         vertex 3.341198e+002 1.022409e+002 2.903259e+001
         vertex 3.341198e+002 9.902963e+001 2.806525e+001
         vertex 3.341198e+002 1.012728e+002 2.672011e+001
      endloop
   endfacet
   facet normal 1.000000e+000 1.260404e-016 -1.665335e-016
      outer loop
         vertex 3.341198e+002 1.022409e+002 2.903259e+001
         vertex 3.341198e+002 1.012728e+002 2.672011e+001
         vertex 3.341198e+002 1.044677e+002 2.810070e+001
      endloop
   endfacet
   facet normal 1.000000e+000 1.260404e-016 -1.665335e-016
      outer loop
         vertex 3.341198e+002 1.044677e+002 2.810070e+001
         vertex 3.341198e+002 1.012728e+002 2.672011e+001
         vertex 3.341198e+002 1.036913e+002 2.572431e+001
      endloop
   endfacet
   facet normal 1.000000e+000 1.260404e-016 -1.665335e-016
      outer loop
         vertex 3.341198e+002 1.044677e+002 2.810070e+001
         vertex 3.341198e+002 1.036913e+002 2.572431e+001
         vertex 3.341198e+002 1.068153e+002 2.753810e+001
      endloop
   endfacet
   facet normal 1.000000e+000 1.260404e-016 -1.665335e-016
      outer loop
         vertex 3.341198e+002 1.068153e+002 2.753810e+001
         vertex 3.341198e+002 1.036913e+002 2.572431e+001
         vertex 3.341198e+002 1.062313e+002 2.510011e+001
      endloop
   endfacet
   facet normal 1.000000e+000 1.260404e-016 -1.665335e-016
      outer loop
         vertex 3.341198e+002 1.068153e+002 2.753810e+001
         vertex 3.341198e+002 1.062313e+002 2.510011e+001
         vertex 3.341198e+002 1.092226e+002 2.735934e+001
      endloop
   endfacet
   facet normal 1.000000e+000 1.260404e-016 -1.665335e-016
      outer loop
         vertex 3.341198e+002 1.092226e+002 2.735934e+001
         vertex 3.341198e+002 1.062313e+002 2.510011e+001
         vertex 3.341198e+002 1.088360e+002 2.486144e+001
      endloop
   endfacet
   facet normal 1.000000e+000 1.260404e-016 -1.665335e-016
      outer loop
         vertex 3.341198e+002 1.092226e+002 2.735934e+001
         vertex 3.341198e+002 1.088360e+002 2.486144e+001
         vertex 3.341198e+002 1.116275e+002 2.756908e+001
      endloop
   endfacet
   facet normal 1.000000e+000 1.260404e-016 -1.665335e-016
      outer loop
         vertex 3.341198e+002 1.116275e+002 2.756908e+001
         vertex 3.341198e+002 1.088360e+002 2.486144e+001
         vertex 3.341198e+002 1.114471e+002 2.501364e+001
      endloop
   endfacet
   facet normal 1.000000e+000 1.260404e-016 -1.665335e-016
      outer loop
         vertex 3.341198e+002 1.116275e+002 2.756908e+001
         vertex 3.341198e+002 1.114471e+002 2.501364e+001
         vertex 3.341198e+002 1.139676e+002 2.816186e+001
      endloop
   endfacet
   facet normal 1.000000e+000 1.260404e-016 -1.665335e-016
      outer loop
         vertex 3.341198e+002 1.139676e+002 2.816186e+001
         vertex 3.341198e+002 1.114471e+002 2.501364e+001
         vertex 3.341198e+002 1.140064e+002 2.555330e+001
      endloop
   endfacet
   facet normal 1.000000e+000 1.260404e-016 -1.665335e-016
      outer loop
         vertex 3.341198e+002 1.139676e+002 2.816186e+001
         vertex 3.341198e+002 1.140064e+002 2.555330e+001
         vertex 3.341198e+002 1.161823e+002 2.912234e+001
      endloop
   endfacet
   facet normal 1.000000e+000 1.260404e-016 -1.665335e-016
      outer loop
         vertex 3.341198e+002 1.161823e+002 2.912234e+001
         vertex 3.341198e+002 1.140064e+002 2.555330e+001
         vertex 3.341198e+002 1.164566e+002 2.646838e+001
      endloop
   endfacet
   facet normal 1.000000e+000 1.260404e-016 -1.665335e-016
      outer loop
         vertex 3.341198e+002 1.161823e+002 2.912234e+001
         vertex 3.341198e+002 1.164566e+002 2.646838e+001
         vertex 3.341198e+002 1.182142e+002 3.042565e+001
      endloop
   endfacet
   facet normal 1.000000e+000 1.260404e-016 -1.665335e-016
      outer loop
         vertex 3.341198e+002 1.182142e+002 3.042565e+001
         vertex 3.341198e+002 1.164566e+002 2.646838e+001
         vertex 3.341198e+002 1.187431e+002 2.773843e+001
      endloop
   endfacet
   facet normal 1.000000e+000 1.260404e-016 -1.665335e-016
      outer loop
         vertex 3.341198e+002 1.182142e+002 3.042565e+001
         vertex 3.341198e+002 1.187431e+002 2.773843e+001
         vertex 3.341198e+002 1.200108e+002 3.203803e+001
      endloop
   endfacet
   facet normal 1.000000e+000 1.260404e-016 -1.665335e-016
      outer loop
         vertex 3.341198e+002 1.200108e+002 3.203803e+001
         vertex 3.341198e+002 1.187431e+002 2.773843e+001
         vertex 3.341198e+002 1.208148e+002 2.933508e+001
      endloop
   endfacet
   facet normal 1.000000e+000 1.260404e-016 -1.665335e-016
      outer loop
         vertex 3.341198e+002 1.200108e+002 3.203803e+001
         vertex 3.341198e+002 1.208148e+002 2.933508e+001
         vertex 3.341198e+002 1.226254e+002 3.122266e+001
      endloop
   endfacet
   facet normal -4.438343e-017 9.669921e-001 2.548062e-001
      outer loop
         vertex 2.421199e+002 1.255201e+002 4.848158e+001
         vertex 3.341198e+002 1.262495e+002 4.596980e+001
         vertex 2.421199e+002 1.262495e+002 4.596980e+001
      endloop
   endfacet
   facet normal -6.650109e-017 9.875444e-001 1.573405e-001
      outer loop
         vertex 2.421199e+002 1.262495e+002 4.596980e+001
         vertex 3.341198e+002 1.262495e+002 4.596980e+001
         vertex 3.341198e+002 1.265964e+002 4.337735e+001
      endloop
   endfacet
   facet normal -7.735273e-017 9.941685e-001 1.078375e-001
      outer loop
         vertex 2.421199e+002 1.262495e+002 4.596980e+001
         vertex 3.341198e+002 1.265964e+002 4.337735e+001
         vertex 2.421199e+002 1.265964e+002 4.337735e+001
      endloop
   endfacet
   facet normal -9.839923e-017 9.999647e-001 8.397248e-003
      outer loop
         vertex 2.421199e+002 1.265964e+002 4.337735e+001
         vertex 3.341198e+002 1.265964e+002 4.337735e+001
         vertex 3.341198e+002 1.265530e+002 4.076216e+001
      endloop
   endfacet
   facet normal -1.085941e-016 9.991369e-001 -4.154006e-002
      outer loop
         vertex 2.421199e+002 1.265964e+002 4.337735e+001
         vertex 3.341198e+002 1.265530e+002 4.076216e+001
         vertex 2.421199e+002 1.265530e+002 4.076216e+001
      endloop
   endfacet
   facet normal -1.280993e-016 9.900475e-001 -1.407336e-001
      outer loop
         vertex 2.421199e+002 1.265530e+002 4.076216e+001
         vertex 3.341198e+002 1.265530e+002 4.076216e+001
         vertex 3.341198e+002 1.261204e+002 3.818264e+001
      endloop
   endfacet
   facet normal -1.374096e-016 9.817861e-001 -1.899897e-001
      outer loop
         vertex 2.421199e+002 1.265530e+002 4.076216e+001
         vertex 3.341198e+002 1.261204e+002 3.818264e+001
         vertex 2.421199e+002 1.261204e+002 3.818264e+001
      endloop
   endfacet
   facet normal -1.549378e-016 9.580142e-001 -2.867206e-001
      outer loop
         vertex 2.421199e+002 1.261204e+002 3.818264e+001
         vertex 3.341198e+002 1.261204e+002 3.818264e+001
         vertex 3.341198e+002 1.253081e+002 3.569641e+001
      endloop
   endfacet
   facet normal -1.631557e-016 9.425039e-001 -3.341953e-001
      outer loop
         vertex 2.421199e+002 1.261204e+002 3.818264e+001
         vertex 3.341198e+002 1.253081e+002 3.569641e+001
         vertex 2.421199e+002 1.253081e+002 3.569641e+001
      endloop
   endfacet
   facet normal -1.783153e-016 9.045805e-001 -4.263027e-001
      outer loop
         vertex 2.421199e+002 1.253081e+002 3.569641e+001
         vertex 3.341198e+002 1.253081e+002 3.569641e+001
         vertex 3.341198e+002 1.241344e+002 3.335901e+001
      endloop
   endfacet
   facet normal -1.852571e-016 8.821676e-001 -4.709355e-001
      outer loop
         vertex 2.421199e+002 1.253081e+002 3.569641e+001
         vertex 3.341198e+002 1.241344e+002 3.335901e+001
         vertex 2.421199e+002 1.241344e+002 3.335901e+001
      endloop
   endfacet
   facet normal -1.977095e-016 8.309399e-001 -5.563621e-001
      outer loop
         vertex 2.421199e+002 1.241344e+002 3.335901e+001
         vertex 3.341198e+002 1.241344e+002 3.335901e+001
         vertex 3.341198e+002 1.226254e+002 3.122266e+001
      endloop
   endfacet
   facet normal -2.032202e-016 8.021252e-001 -5.971559e-001
      outer loop
         vertex 2.421199e+002 1.241344e+002 3.335901e+001
         vertex 3.341198e+002 1.226254e+002 3.122266e+001
         vertex 2.421199e+002 1.226254e+002 3.122266e+001
      endloop
   endfacet
   facet normal -2.126872e-016 7.387376e-001 -6.739932e-001
      outer loop
         vertex 2.421199e+002 1.226254e+002 3.122266e+001
         vertex 3.341198e+002 1.226254e+002 3.122266e+001
         vertex 3.341198e+002 1.208148e+002 2.933508e+001
      endloop
   endfacet
   facet normal -2.166437e-016 7.041647e-001 -7.100367e-001
      outer loop
         vertex 2.421199e+002 1.226254e+002 3.122266e+001
         vertex 3.341198e+002 1.208148e+002 2.933508e+001
         vertex 2.421199e+002 1.208148e+002 2.933508e+001
      endloop
   endfacet
   facet normal -2.229139e-016 6.300331e-001 -7.765683e-001
      outer loop
         vertex 2.421199e+002 1.208148e+002 2.933508e+001
         vertex 3.341198e+002 1.208148e+002 2.933508e+001
         vertex 3.341198e+002 1.187431e+002 2.773843e+001
      endloop
   endfacet
   facet normal -2.252276e-016 5.904743e-001 -8.070564e-001
      outer loop
         vertex 2.421199e+002 1.208148e+002 2.933508e+001
         vertex 3.341198e+002 1.187431e+002 2.773843e+001
         vertex 2.421199e+002 1.187431e+002 2.773843e+001
      endloop
   endfacet
   facet normal -2.281610e-016 5.072546e-001 -8.617963e-001
      outer loop
         vertex 2.421199e+002 1.187431e+002 2.773843e+001
         vertex 3.341198e+002 1.187431e+002 2.773843e+001
         vertex 3.341198e+002 1.164566e+002 2.646838e+001
      endloop
   endfacet
   facet normal -2.287805e-016 4.635936e-001 -8.860479e-001
      outer loop
         vertex 2.421199e+002 1.187431e+002 2.773843e+001
         vertex 3.341198e+002 1.164566e+002 2.646838e+001
         vertex 2.421199e+002 1.164566e+002 2.646838e+001
      endloop
   endfacet
   facet normal -2.283113e-016 3.731449e-001 -9.277731e-001
      outer loop
         vertex 2.421199e+002 1.164566e+002 2.646838e+001
         vertex 3.341198e+002 1.164566e+002 2.646838e+001
         vertex 3.341198e+002 1.140064e+002 2.555330e+001
      endloop
   endfacet
   facet normal -2.272227e-016 3.263571e-001 -9.452466e-001
      outer loop
         vertex 2.421199e+002 1.164566e+002 2.646838e+001
         vertex 3.341198e+002 1.140064e+002 2.555330e+001
         vertex 2.421199e+002 1.140064e+002 2.555330e+001
      endloop
   endfacet
   facet normal -2.233616e-016 2.306998e-001 -9.730250e-001
      outer loop
         vertex 2.421199e+002 1.140064e+002 2.555330e+001
         vertex 3.341198e+002 1.140064e+002 2.555330e+001
         vertex 3.341198e+002 1.114471e+002 2.501364e+001
      endloop
   endfacet
   facet normal -2.205891e-016 1.818303e-001 -9.833300e-001
      outer loop
         vertex 2.421199e+002 1.140064e+002 2.555330e+001
         vertex 3.341198e+002 1.114471e+002 2.501364e+001
         vertex 2.421199e+002 1.114471e+002 2.501364e+001
      endloop
   endfacet
   facet normal -2.134223e-016 8.310124e-002 -9.965411e-001
      outer loop
         vertex 2.421199e+002 1.114471e+002 2.501364e+001
         vertex 3.341198e+002 1.114471e+002 2.501364e+001
         vertex 3.341198e+002 1.088360e+002 2.486144e+001
      endloop
   endfacet
   facet normal -2.090280e-016 3.324169e-002 -9.994473e-001
      outer loop
         vertex 2.421199e+002 1.114471e+002 2.501364e+001
         vertex 3.341198e+002 1.088360e+002 2.486144e+001
         vertex 2.421199e+002 1.088360e+002 2.486144e+001
      endloop
   endfacet
   facet normal -1.987156e-016 -6.635369e-002 -9.977962e-001
      outer loop
         vertex 2.421199e+002 1.088360e+002 2.486144e+001
         vertex 3.341198e+002 1.088360e+002 2.486144e+001
         vertex 3.341198e+002 1.062313e+002 2.510011e+001
      endloop
   endfacet
   facet normal -1.927975e-016 -1.160895e-001 -9.932387e-001
      outer loop
         vertex 2.421199e+002 1.088360e+002 2.486144e+001
         vertex 3.341198e+002 1.062313e+002 2.510011e+001
         vertex 2.421199e+002 1.062313e+002 2.510011e+001
      endloop
   endfacet
   facet normal -1.795698e-016 -2.143264e-001 -9.767621e-001
      outer loop
         vertex 2.421199e+002 1.062313e+002 2.510011e+001
         vertex 3.341198e+002 1.062313e+002 2.510011e+001
         vertex 3.341198e+002 1.036913e+002 2.572431e+001
      endloop
   endfacet
   facet normal -1.722602e-016 -2.628275e-001 -9.648429e-001
      outer loop
         vertex 2.421199e+002 1.062313e+002 2.510011e+001
         vertex 3.341198e+002 1.036913e+002 2.572431e+001
         vertex 2.421199e+002 1.036913e+002 2.572431e+001
      endloop
   endfacet
   facet normal -1.564128e-016 -3.575114e-001 -9.339088e-001
      outer loop
         vertex 2.421199e+002 1.036913e+002 2.572431e+001
         vertex 3.341198e+002 1.036913e+002 2.572431e+001
         vertex 3.341198e+002 1.012728e+002 2.672011e+001
      endloop
   endfacet
   facet normal -1.478749e-016 -4.036943e-001 -9.148939e-001
      outer loop
         vertex 2.421199e+002 1.036913e+002 2.572431e+001
         vertex 3.341198e+002 1.012728e+002 2.672011e+001
         vertex 2.421199e+002 1.012728e+002 2.672011e+001
      endloop
   endfacet
   facet normal -1.297617e-016 -4.927101e-001 -8.701935e-001
      outer loop
         vertex 2.421199e+002 1.012728e+002 2.672011e+001
         vertex 3.341198e+002 1.012728e+002 2.672011e+001
         vertex 3.341198e+002 9.902963e+001 2.806525e+001
      endloop
   endfacet
   facet normal -1.201864e-016 -5.355431e-001 -8.445079e-001
      outer loop
         vertex 2.421199e+002 1.012728e+002 2.672011e+001
         vertex 3.341198e+002 9.902963e+001 2.806525e+001
         vertex 2.421199e+002 9.902963e+001 2.806525e+001
      endloop
   endfacet
   facet normal -1.002120e-016 -6.169026e-001 -7.870395e-001
      outer loop
         vertex 2.421199e+002 9.902963e+001 2.806525e+001
         vertex 3.341198e+002 9.902963e+001 2.806525e+001
         vertex 3.341198e+002 9.701202e+001 2.972970e+001
      endloop
   endfacet
   facet normal -8.981305e-017 -6.554290e-001 -7.552568e-001
      outer loop
         vertex 2.421199e+002 9.902963e+001 2.806525e+001
         vertex 3.341198e+002 9.701202e+001 2.972970e+001
         vertex 2.421199e+002 9.701202e+001 2.972970e+001
      endloop
   endfacet
   facet normal -6.842376e-017 -7.273145e-001 -6.863043e-001
      outer loop
         vertex 2.421199e+002 9.701202e+001 2.972970e+001
         vertex 3.341198e+002 9.701202e+001 2.972970e+001
         vertex 3.341198e+002 9.526501e+001 3.167626e+001
      endloop
   endfacet
   facet normal -5.743346e-017 -7.606735e-001 -6.491346e-001
      outer loop
         vertex 2.421199e+002 9.701202e+001 2.972970e+001
         vertex 3.341198e+002 9.526501e+001 3.167626e+001
         vertex 2.421199e+002 9.526501e+001 3.167626e+001
      endloop
   endfacet
   facet normal -3.510701e-017 -8.214793e-001 -5.702384e-001
      outer loop
         vertex 2.421199e+002 9.526501e+001 3.167626e+001
         vertex 3.341198e+002 9.526501e+001 3.167626e+001
         vertex 3.341198e+002 9.382765e+001 3.386146e+001
      endloop
   endfacet
   facet normal -2.377088e-017 -8.489259e-001 -5.285118e-001
      outer loop
         vertex 2.421199e+002 9.526501e+001 3.167626e+001
         vertex 3.341198e+002 9.382765e+001 3.386146e+001
         vertex 2.421199e+002 9.382765e+001 3.386146e+001
      endloop
   endfacet
   facet normal -1.006030e-018 -8.972937e-001 -4.414341e-001
      outer loop
         vertex 2.421199e+002 9.382765e+001 3.386146e+001
         vertex 3.341198e+002 9.382765e+001 3.386146e+001
         vertex 3.341198e+002 9.273203e+001 3.623648e+001
      endloop
   endfacet
   facet normal 1.042269e-017 -9.182147e-001 -3.960829e-001
      outer loop
         vertex 2.421199e+002 9.382765e+001 3.386146e+001
         vertex 3.341198e+002 9.273203e+001 3.623648e+001
         vertex 2.421199e+002 9.273203e+001 3.623648e+001
      endloop
   endfacet
   facet normal 3.311742e-017 -9.530640e-001 -3.027689e-001
      outer loop
         vertex 2.421199e+002 9.273203e+001 3.623648e+001
         vertex 3.341198e+002 9.273203e+001 3.623648e+001
         vertex 3.341198e+002 9.200262e+001 3.874827e+001
      endloop
   endfacet
   facet normal 4.438343e-017 -9.669921e-001 -2.548062e-001
      outer loop
         vertex 2.421199e+002 9.273203e+001 3.623648e+001
         vertex 3.341198e+002 9.200262e+001 3.874827e+001
         vertex 2.421199e+002 9.200262e+001 3.874827e+001
      endloop
   endfacet
   facet normal 6.650109e-017 -9.875444e-001 -1.573405e-001
      outer loop
         vertex 2.421199e+002 9.200262e+001 3.874827e+001
         vertex 3.341198e+002 9.200262e+001 3.874827e+001
         vertex 3.341198e+002 9.165571e+001 4.134072e+001
      endloop
   endfacet
   facet normal 7.735273e-017 -9.941685e-001 -1.078375e-001
      outer loop
         vertex 2.421199e+002 9.200262e+001 3.874827e+001
         vertex 3.341198e+002 9.165571e+001 4.134072e+001
         vertex 2.421199e+002 9.165571e+001 4.134072e+001
      endloop
   endfacet
   facet normal 9.839923e-017 -9.999647e-001 -8.397248e-003
      outer loop
         vertex 2.421199e+002 9.165571e+001 4.134072e+001
         vertex 3.341198e+002 9.165571e+001 4.134072e+001
         vertex 3.341198e+002 9.169907e+001 4.395591e+001
      endloop
   endfacet
   facet normal 1.085941e-016 -9.991369e-001 4.154006e-002
      outer loop
         vertex 2.421199e+002 9.165571e+001 4.134072e+001
         vertex 3.341198e+002 9.169907e+001 4.395591e+001
         vertex 2.421199e+002 9.169907e+001 4.395591e+001
      endloop
   endfacet
   facet normal 1.280993e-016 -9.900475e-001 1.407336e-001
      outer loop
         vertex 2.421199e+002 9.169907e+001 4.395591e+001
         vertex 3.341198e+002 9.169907e+001 4.395591e+001
         vertex 3.341198e+002 9.213171e+001 4.653543e+001
      endloop
   endfacet
   facet normal 1.374096e-016 -9.817861e-001 1.899897e-001
      outer loop
         vertex 2.421199e+002 9.169907e+001 4.395591e+001
         vertex 3.341198e+002 9.213171e+001 4.653543e+001
         vertex 2.421199e+002 9.213171e+001 4.653543e+001
      endloop
   endfacet
   facet normal 1.549378e-016 -9.580142e-001 2.867206e-001
      outer loop
         vertex 2.421199e+002 9.213171e+001 4.653543e+001
         vertex 3.341198e+002 9.213171e+001 4.653543e+001
         vertex 3.341198e+002 9.294398e+001 4.902166e+001
      endloop
   endfacet
   facet normal 1.631557e-016 -9.425039e-001 3.341953e-001
      outer loop
         vertex 2.421199e+002 9.213171e+001 4.653543e+001
         vertex 3.341198e+002 9.294398e+001 4.902166e+001
         vertex 2.421199e+002 9.294398e+001 4.902166e+001
      endloop
   endfacet
   facet normal 1.783153e-016 -9.045805e-001 4.263027e-001
      outer loop
         vertex 2.421199e+002 9.294398e+001 4.902166e+001
         vertex 3.341198e+002 9.294398e+001 4.902166e+001
         vertex 3.341198e+002 9.411774e+001 5.135906e+001
      endloop
   endfacet
   facet normal 1.852571e-016 -8.821676e-001 4.709355e-001
      outer loop
         vertex 2.421199e+002 9.294398e+001 4.902166e+001
         vertex 3.341198e+002 9.411774e+001 5.135906e+001
         vertex 2.421199e+002 9.411774e+001 5.135906e+001
      endloop
   endfacet
   facet normal 1.977095e-016 -8.309399e-001 5.563621e-001
      outer loop
         vertex 2.421199e+002 9.411774e+001 5.135906e+001
         vertex 3.341198e+002 9.411774e+001 5.135906e+001
         vertex 3.341198e+002 9.562675e+001 5.349541e+001
      endloop
   endfacet
   facet normal 2.032202e-016 -8.021252e-001 5.971559e-001
      outer loop
         vertex 2.421199e+002 9.411774e+001 5.135906e+001
         vertex 3.341198e+002 9.562675e+001 5.349541e+001
         vertex 2.421199e+002 9.562675e+001 5.349541e+001
      endloop
   endfacet
   facet normal 2.126872e-016 -7.387376e-001 6.739932e-001
      outer loop
         vertex 2.421199e+002 9.562675e+001 5.349541e+001
         vertex 3.341198e+002 9.562675e+001 5.349541e+001
         vertex 3.341198e+002 9.743732e+001 5.538299e+001
      endloop
   endfacet
   facet normal 2.166437e-016 -7.041647e-001 7.100367e-001
      outer loop
         vertex 2.421199e+002 9.562675e+001 5.349541e+001
         vertex 3.341198e+002 9.743732e+001 5.538299e+001
         vertex 2.421199e+002 9.743732e+001 5.538299e+001
      endloop
   endfacet
   facet normal 2.229139e-016 -6.300331e-001 7.765683e-001
      outer loop
         vertex 2.421199e+002 9.743732e+001 5.538299e+001
         vertex 3.341198e+002 9.743732e+001 5.538299e+001
         vertex 3.341198e+002 9.950900e+001 5.697964e+001
      endloop
   endfacet
   facet normal 2.252276e-016 -5.904743e-001 8.070564e-001
      outer loop
         vertex 2.421199e+002 9.743732e+001 5.538299e+001
         vertex 3.341198e+002 9.950900e+001 5.697964e+001
         vertex 2.421199e+002 9.950900e+001 5.697964e+001
      endloop
   endfacet
   facet normal 2.281610e-016 -5.072546e-001 8.617963e-001
      outer loop
         vertex 2.421199e+002 9.950900e+001 5.697964e+001
         vertex 3.341198e+002 9.950900e+001 5.697964e+001
         vertex 3.341198e+002 1.017955e+002 5.824969e+001
      endloop
   endfacet
   facet normal 2.287805e-016 -4.635936e-001 8.860479e-001
      outer loop
         vertex 2.421199e+002 9.950900e+001 5.697964e+001
         vertex 3.341198e+002 1.017955e+002 5.824969e+001
         vertex 2.421199e+002 1.017955e+002 5.824969e+001
      endloop
   endfacet
   facet normal 2.283113e-016 -3.731449e-001 9.277731e-001
      outer loop
         vertex 2.421199e+002 1.017955e+002 5.824969e+001
         vertex 3.341198e+002 1.017955e+002 5.824969e+001
         vertex 3.341198e+002 1.042458e+002 5.916476e+001
      endloop
   endfacet
   facet normal 2.272227e-016 -3.263571e-001 9.452466e-001
      outer loop
         vertex 2.421199e+002 1.017955e+002 5.824969e+001
         vertex 3.341198e+002 1.042458e+002 5.916476e+001
         vertex 2.421199e+002 1.042458e+002 5.916476e+001
      endloop
   endfacet
   facet normal 2.233616e-016 -2.306998e-001 9.730250e-001
      outer loop
         vertex 2.421199e+002 1.042458e+002 5.916476e+001
         vertex 3.341198e+002 1.042458e+002 5.916476e+001
         vertex 3.341198e+002 1.068050e+002 5.970443e+001
      endloop
   endfacet
   facet normal 2.205891e-016 -1.818303e-001 9.833300e-001
      outer loop
         vertex 2.421199e+002 1.042458e+002 5.916476e+001
         vertex 3.341198e+002 1.068050e+002 5.970443e+001
         vertex 2.421199e+002 1.068050e+002 5.970443e+001
      endloop
   endfacet
   facet normal 2.134223e-016 -8.310124e-002 9.965411e-001
      outer loop
         vertex 2.421199e+002 1.068050e+002 5.970443e+001
         vertex 3.341198e+002 1.068050e+002 5.970443e+001
         vertex 3.341198e+002 1.094162e+002 5.985663e+001
      endloop
   endfacet
   facet normal 2.090280e-016 -3.324169e-002 9.994473e-001
      outer loop
         vertex 2.421199e+002 1.068050e+002 5.970443e+001
         vertex 3.341198e+002 1.094162e+002 5.985663e+001
         vertex 2.421199e+002 1.094162e+002 5.985663e+001
      endloop
   endfacet
   facet normal 1.987156e-016 6.635369e-002 9.977962e-001
      outer loop
         vertex 2.421199e+002 1.094162e+002 5.985663e+001
         vertex 3.341198e+002 1.094162e+002 5.985663e+001
         vertex 3.341198e+002 1.120208e+002 5.961796e+001
      endloop
   endfacet
   facet normal 1.927975e-016 1.160895e-001 9.932387e-001
      outer loop
         vertex 2.421199e+002 1.094162e+002 5.985663e+001
         vertex 3.341198e+002 1.120208e+002 5.961796e+001
         vertex 2.421199e+002 1.120208e+002 5.961796e+001
      endloop
   endfacet
   facet normal 1.795698e-016 2.143264e-001 9.767621e-001
      outer loop
         vertex 2.421199e+002 1.120208e+002 5.961796e+001
         vertex 3.341198e+002 1.120208e+002 5.961796e+001
         vertex 3.341198e+002 1.145608e+002 5.899375e+001
      endloop
   endfacet
   facet normal 1.722602e-016 2.628275e-001 9.648429e-001
      outer loop
         vertex 2.421199e+002 1.120208e+002 5.961796e+001
         vertex 3.341198e+002 1.145608e+002 5.899375e+001
         vertex 2.421199e+002 1.145608e+002 5.899375e+001
      endloop
   endfacet
   facet normal 1.564128e-016 3.575114e-001 9.339088e-001
      outer loop
         vertex 2.421199e+002 1.145608e+002 5.899375e+001
         vertex 3.341198e+002 1.145608e+002 5.899375e+001
         vertex 3.341198e+002 1.169793e+002 5.799796e+001
      endloop
   endfacet
   facet normal 1.478749e-016 4.036943e-001 9.148939e-001
      outer loop
         vertex 2.421199e+002 1.145608e+002 5.899375e+001
         vertex 3.341198e+002 1.169793e+002 5.799796e+001
         vertex 2.421199e+002 1.169793e+002 5.799796e+001
      endloop
   endfacet
   facet normal 1.297617e-016 4.927101e-001 8.701935e-001
      outer loop
         vertex 2.421199e+002 1.169793e+002 5.799796e+001
         vertex 3.341198e+002 1.169793e+002 5.799796e+001
         vertex 3.341198e+002 1.192225e+002 5.665281e+001
      endloop
   endfacet
   facet normal 1.201864e-016 5.355431e-001 8.445079e-001
      outer loop
         vertex 2.421199e+002 1.169793e+002 5.799796e+001
         vertex 3.341198e+002 1.192225e+002 5.665281e+001
         vertex 2.421199e+002 1.192225e+002 5.665281e+001
      endloop
   endfacet
   facet normal 1.002120e-016 6.169026e-001 7.870395e-001
      outer loop
         vertex 2.421199e+002 1.192225e+002 5.665281e+001
         vertex 3.341198e+002 1.192225e+002 5.665281e+001
         vertex 3.341198e+002 1.212401e+002 5.498837e+001
      endloop
   endfacet
   facet normal 8.981305e-017 6.554290e-001 7.552568e-001
      outer loop
         vertex 2.421199e+002 1.192225e+002 5.665281e+001
         vertex 3.341198e+002 1.212401e+002 5.498837e+001
         vertex 2.421199e+002 1.212401e+002 5.498837e+001
      endloop
   endfacet
   facet normal 6.842376e-017 7.273145e-001 6.863043e-001
      outer loop
         vertex 2.421199e+002 1.212401e+002 5.498837e+001
         vertex 3.341198e+002 1.212401e+002 5.498837e+001
         vertex 3.341198e+002 1.229871e+002 5.304181e+001
      endloop
   endfacet
   facet normal 5.743346e-017 7.606735e-001 6.491346e-001
      outer loop
         vertex 2.421199e+002 1.212401e+002 5.498837e+001
         vertex 3.341198e+002 1.229871e+002 5.304181e+001
         vertex 2.421199e+002 1.229871e+002 5.304181e+001
      endloop
   endfacet
   facet normal 3.510701e-017 8.214793e-001 5.702384e-001
      outer loop
         vertex 2.421199e+002 1.229871e+002 5.304181e+001
         vertex 3.341198e+002 1.229871e+002 5.304181e+001
         vertex 3.341198e+002 1.244245e+002 5.085661e+001
      endloop
   endfacet
   facet normal 2.377088e-017 8.489259e-001 5.285118e-001
      outer loop
         vertex 2.421199e+002 1.229871e+002 5.304181e+001
         vertex 3.341198e+002 1.244245e+002 5.085661e+001
         vertex 2.421199e+002 1.244245e+002 5.085661e+001
      endloop
   endfacet
   facet normal 1.006030e-018 8.972937e-001 4.414341e-001
      outer loop
         vertex 2.421199e+002 1.244245e+002 5.085661e+001
         vertex 3.341198e+002 1.244245e+002 5.085661e+001
         vertex 3.341198e+002 1.255201e+002 4.848158e+001
      endloop
   endfacet
   facet normal -1.042269e-017 9.182147e-001 3.960829e-001
      outer loop
         vertex 2.421199e+002 1.244245e+002 5.085661e+001
         vertex 3.341198e+002 1.255201e+002 4.848158e+001
         vertex 2.421199e+002 1.255201e+002 4.848158e+001
      endloop
   endfacet
   facet normal -3.311742e-017 9.530640e-001 3.027689e-001
      outer loop
         vertex 2.421199e+002 1.255201e+002 4.848158e+001
         vertex 3.341198e+002 1.255201e+002 4.848158e+001
         vertex 3.341198e+002 1.262495e+002 4.596980e+001
      endloop
   endfacet
   facet normal -4.953113e-017 9.725919e-001 2.325190e-001
      outer loop
         vertex 2.421199e+002 9.474545e+001 3.809310e+001
         vertex 2.421199e+002 9.444882e+001 3.926409e+001
         vertex 3.341198e+002 9.444882e+001 3.926409e+001
      endloop
   endfacet
   facet normal -6.145117e-017 9.836683e-001 1.799911e-001
      outer loop
         vertex 3.341198e+002 9.444882e+001 3.926409e+001
         vertex 2.421199e+002 9.444882e+001 3.926409e+001
         vertex 3.341198e+002 9.424737e+001 4.045515e+001
      endloop
   endfacet
   facet normal -4.351107e-017 9.659953e-001 2.585598e-001
      outer loop
         vertex 3.341198e+002 9.444882e+001 3.926409e+001
         vertex 3.341198e+002 9.474545e+001 3.809310e+001
         vertex 2.421199e+002 9.474545e+001 3.809310e+001
      endloop
   endfacet
   facet normal -2.530202e-017 9.420769e-001 3.353969e-001
      outer loop
         vertex 2.421199e+002 9.474545e+001 3.809310e+001
         vertex 3.341198e+002 9.474545e+001 3.809310e+001
         vertex 3.341198e+002 9.561598e+001 3.584153e+001
      endloop
   endfacet
   facet normal -1.303178e-017 9.226759e-001 3.855764e-001
      outer loop
         vertex 2.421199e+002 9.474545e+001 3.809310e+001
         vertex 3.341198e+002 9.561598e+001 3.584153e+001
         vertex 2.421199e+002 9.561598e+001 3.584153e+001
      endloop
   endfacet
   facet normal 1.151527e-017 8.760758e-001 4.821734e-001
      outer loop
         vertex 2.421199e+002 9.561598e+001 3.584153e+001
         vertex 3.341198e+002 9.561598e+001 3.584153e+001
         vertex 3.341198e+002 9.683641e+001 3.375876e+001
      endloop
   endfacet
   facet normal 2.379209e-017 8.488767e-001 5.285909e-001
      outer loop
         vertex 2.421199e+002 9.561598e+001 3.584153e+001
         vertex 3.341198e+002 9.683641e+001 3.375876e+001
         vertex 2.421199e+002 9.683641e+001 3.375876e+001
      endloop
   endfacet
   facet normal 4.803433e-017 7.873848e-001 6.164618e-001
      outer loop
         vertex 2.421199e+002 9.683641e+001 3.375876e+001
         vertex 3.341198e+002 9.683641e+001 3.375876e+001
         vertex 3.341198e+002 9.837514e+001 3.189874e+001
      endloop
   endfacet
   facet normal 5.999976e-017 7.530921e-001 6.579152e-001
      outer loop
         vertex 2.421199e+002 9.683641e+001 3.375876e+001
         vertex 3.341198e+002 9.837514e+001 3.189874e+001
         vertex 2.421199e+002 9.837514e+001 3.189874e+001
      endloop
   endfacet
   facet normal 8.330932e-017 6.783010e-001 7.347842e-001
      outer loop
         vertex 2.421199e+002 9.837514e+001 3.189874e+001
         vertex 3.341198e+002 9.837514e+001 3.189874e+001
         vertex 3.341198e+002 1.001923e+002 3.030963e+001
      endloop
   endfacet
   facet normal 9.465344e-017 6.378027e-001 7.701998e-001
      outer loop
         vertex 2.421199e+002 9.837514e+001 3.189874e+001
         vertex 3.341198e+002 1.001923e+002 3.030963e+001
         vertex 2.421199e+002 1.001923e+002 3.030963e+001
      endloop
   endfacet
   facet normal 1.164266e-016 5.516495e-001 8.340760e-001
      outer loop
         vertex 2.421199e+002 1.001923e+002 3.030963e+001
         vertex 3.341198e+002 1.001923e+002 3.030963e+001
         vertex 3.341198e+002 1.022409e+002 2.903259e+001
      endloop
   endfacet
   facet normal 1.268557e-016 5.059946e-001 8.625367e-001
      outer loop
         vertex 2.421199e+002 1.001923e+002 3.030963e+001
         vertex 3.341198e+002 1.022409e+002 2.903259e+001
         vertex 2.421199e+002 1.022409e+002 2.903259e+001
      endloop
   endfacet
   facet normal 1.465286e-016 4.107106e-001 9.117658e-001
      outer loop
         vertex 2.421199e+002 1.022409e+002 2.903259e+001
         vertex 3.341198e+002 1.022409e+002 2.903259e+001
         vertex 3.341198e+002 1.044677e+002 2.810070e+001
      endloop
   endfacet
   facet normal 1.557724e-016 3.610815e-001 9.325343e-001
      outer loop
         vertex 2.421199e+002 1.022409e+002 2.903259e+001
         vertex 3.341198e+002 1.044677e+002 2.810070e+001
         vertex 2.421199e+002 1.044677e+002 2.810070e+001
      endloop
   endfacet
   facet normal 1.728355e-016 2.591345e-001 9.658412e-001
      outer loop
         vertex 2.421199e+002 1.044677e+002 2.810070e+001
         vertex 3.341198e+002 1.044677e+002 2.810070e+001
         vertex 3.341198e+002 1.068153e+002 2.753810e+001
      endloop
   endfacet
   facet normal 1.806547e-016 2.068166e-001 9.783797e-001
      outer loop
         vertex 2.421199e+002 1.044677e+002 2.810070e+001
         vertex 3.341198e+002 1.068153e+002 2.753810e+001
         vertex 2.421199e+002 1.068153e+002 2.753810e+001
      endloop
   endfacet
   facet normal 1.946661e-016 1.008469e-001 9.949020e-001
      outer loop
         vertex 2.421199e+002 1.068153e+002 2.753810e+001
         vertex 3.341198e+002 1.068153e+002 2.753810e+001
         vertex 3.341198e+002 1.092226e+002 2.735934e+001
      endloop
   endfacet
   facet normal 2.008582e-016 4.719515e-002 9.988857e-001
      outer loop
         vertex 2.421199e+002 1.068153e+002 2.753810e+001
         vertex 3.341198e+002 1.092226e+002 2.735934e+001
         vertex 2.421199e+002 1.092226e+002 2.735934e+001
      endloop
   endfacet
   facet normal 2.114549e-016 -6.005253e-002 9.981952e-001
      outer loop
         vertex 2.421199e+002 1.092226e+002 2.735934e+001
         vertex 3.341198e+002 1.092226e+002 2.735934e+001
         vertex 3.341198e+002 1.116275e+002 2.756908e+001
      endloop
   endfacet
   facet normal 2.158595e-016 -1.136485e-001 9.935210e-001
      outer loop
         vertex 2.421199e+002 1.092226e+002 2.735934e+001
         vertex 3.341198e+002 1.116275e+002 2.756908e+001
         vertex 2.421199e+002 1.116275e+002 2.756908e+001
      endloop
   endfacet
   facet normal 2.227671e-016 -2.193966e-001 9.756358e-001
      outer loop
         vertex 2.421199e+002 1.116275e+002 2.756908e+001
         vertex 3.341198e+002 1.116275e+002 2.756908e+001
         vertex 3.341198e+002 1.139676e+002 2.816186e+001
      endloop
   endfacet
   facet normal 2.252702e-016 -2.715488e-001 9.624247e-001
      outer loop
         vertex 2.421199e+002 1.116275e+002 2.756908e+001
         vertex 3.341198e+002 1.139676e+002 2.816186e+001
         vertex 2.421199e+002 1.139676e+002 2.816186e+001
      endloop
   endfacet
   facet normal 2.283098e-016 -3.730585e-001 9.278078e-001
      outer loop
         vertex 2.421199e+002 1.139676e+002 2.816186e+001
         vertex 3.341198e+002 1.139676e+002 2.816186e+001
         vertex 3.341198e+002 1.161823e+002 2.912234e+001
      endloop
   endfacet
   facet normal 2.288465e-016 -4.224161e-001 9.064021e-001
      outer loop
         vertex 2.421199e+002 1.139676e+002 2.816186e+001
         vertex 3.341198e+002 1.161823e+002 2.912234e+001
         vertex 2.421199e+002 1.161823e+002 2.912234e+001
      endloop
   endfacet
   facet normal 2.279394e-016 -5.170583e-001 8.559502e-001
      outer loop
         vertex 2.421199e+002 1.161823e+002 2.912234e+001
         vertex 3.341198e+002 1.161823e+002 2.912234e+001
         vertex 3.341198e+002 1.182142e+002 3.042565e+001
      endloop
   endfacet
   facet normal 2.264958e-016 -5.623430e-001 8.269041e-001
      outer loop
         vertex 2.421199e+002 1.161823e+002 2.912234e+001
         vertex 3.341198e+002 1.182142e+002 3.042565e+001
         vertex 2.421199e+002 1.182142e+002 3.042565e+001
      endloop
   endfacet
   facet normal 2.216655e-016 -6.476666e-001 7.619238e-001
      outer loop
         vertex 2.421199e+002 1.182142e+002 3.042565e+001
         vertex 3.341198e+002 1.182142e+002 3.042565e+001
         vertex 3.341198e+002 1.200108e+002 3.203803e+001
      endloop
   endfacet
   facet normal 2.182789e-016 -6.877056e-001 7.259897e-001
      outer loop
         vertex 2.421199e+002 1.182142e+002 3.042565e+001
         vertex 3.341198e+002 1.200108e+002 3.203803e+001
         vertex 2.421199e+002 1.200108e+002 3.203803e+001
      endloop
   endfacet
   facet normal 2.096506e-016 -7.615007e-001 6.481641e-001
      outer loop
         vertex 2.421199e+002 1.200108e+002 3.203803e+001
         vertex 3.341198e+002 1.200108e+002 3.203803e+001
         vertex 3.341198e+002 1.215254e+002 3.391771e+001
      endloop
   endfacet
   facet normal 2.044088e-016 -7.952569e-001 6.062726e-001
      outer loop
         vertex 2.421199e+002 1.200108e+002 3.203803e+001
         vertex 3.341198e+002 1.215254e+002 3.391771e+001
         vertex 2.421199e+002 1.215254e+002 3.391771e+001
      endloop
   endfacet
   facet normal 1.922058e-016 -8.556123e-001 5.176172e-001
      outer loop
         vertex 2.421199e+002 1.215254e+002 3.391771e+001
         vertex 3.341198e+002 1.215254e+002 3.391771e+001
         vertex 3.341198e+002 1.227189e+002 3.601603e+001
      endloop
   endfacet
   facet normal 1.852446e-016 -8.822115e-001 4.708534e-001
      outer loop
         vertex 2.421199e+002 1.215254e+002 3.391771e+001
         vertex 3.341198e+002 1.227189e+002 3.601603e+001
         vertex 2.421199e+002 1.227189e+002 3.601603e+001
      endloop
   endfacet
   facet normal 1.697830e-016 -9.275640e-001 3.736644e-001
      outer loop
         vertex 2.421199e+002 1.227189e+002 3.601603e+001
         vertex 3.341198e+002 1.227189e+002 3.601603e+001
         vertex 3.341198e+002 1.235604e+002 3.827861e+001
      endloop
   endfacet
   facet normal 1.612826e-016 -9.463173e-001 3.232392e-001
      outer loop
         vertex 2.421199e+002 1.227189e+002 3.601603e+001
         vertex 3.341198e+002 1.235604e+002 3.827861e+001
         vertex 2.421199e+002 1.235604e+002 3.827861e+001
      endloop
   endfacet
   facet normal 1.429629e-016 -9.754922e-001 2.200338e-001
      outer loop
         vertex 2.421199e+002 1.235604e+002 3.827861e+001
         vertex 3.341198e+002 1.235604e+002 3.827861e+001
         vertex 3.341198e+002 1.240280e+002 4.064688e+001
      endloop
   endfacet
   facet normal 1.331435e-016 -9.859139e-001 1.672534e-001
      outer loop
         vertex 2.421199e+002 1.235604e+002 3.827861e+001
         vertex 3.341198e+002 1.240280e+002 4.064688e+001
         vertex 2.421199e+002 1.240280e+002 4.064688e+001
      endloop
   endfacet
   facet normal 1.124401e-016 -9.981558e-001 6.070446e-002
      outer loop
         vertex 2.421199e+002 1.240280e+002 4.064688e+001
         vertex 3.341198e+002 1.240280e+002 4.064688e+001
         vertex 3.341198e+002 1.241097e+002 4.305950e+001
      endloop
   endfacet
   facet normal 1.015561e-016 -9.999759e-001 6.935844e-003
      outer loop
         vertex 2.421199e+002 1.240280e+002 4.064688e+001
         vertex 3.341198e+002 1.241097e+002 4.305950e+001
         vertex 2.421199e+002 1.241097e+002 4.305950e+001
      endloop
   endfacet
   facet normal 7.900524e-017 -9.949676e-001 -1.001971e-001
      outer loop
         vertex 2.421199e+002 1.241097e+002 4.305950e+001
         vertex 3.341198e+002 1.241097e+002 4.305950e+001
         vertex 3.341198e+002 1.238033e+002 4.545397e+001
      endloop
   endfacet
   facet normal 6.733841e-017 -9.881391e-001 -1.535614e-001
      outer loop
         vertex 2.421199e+002 1.241097e+002 4.305950e+001
         vertex 3.341198e+002 1.238033e+002 4.545397e+001
         vertex 2.421199e+002 1.238033e+002 4.545397e+001
      endloop
   endfacet
   facet normal 4.352414e-017 -9.660103e-001 -2.585036e-001
      outer loop
         vertex 2.421199e+002 1.238033e+002 4.545397e+001
         vertex 3.341198e+002 1.238033e+002 4.545397e+001
         vertex 3.341198e+002 1.231168e+002 4.776829e+001
      endloop
   endfacet
   facet normal 3.137670e-017 -9.507100e-001 -3.100815e-001
      outer loop
         vertex 2.421199e+002 1.238033e+002 4.545397e+001
         vertex 3.341198e+002 1.231168e+002 4.776829e+001
         vertex 2.421199e+002 1.231168e+002 4.776829e+001
      endloop
   endfacet
   facet normal 6.915796e-018 -9.120338e-001 -4.101150e-001
      outer loop
         vertex 2.421199e+002 1.231168e+002 4.776829e+001
         vertex 3.341198e+002 1.231168e+002 4.776829e+001
         vertex 3.341198e+002 1.220679e+002 4.994251e+001
      endloop
   endfacet
   facet normal -5.397658e-018 -8.886580e-001 -4.585706e-001
      outer loop
         vertex 2.421199e+002 1.231168e+002 4.776829e+001
         vertex 3.341198e+002 1.220679e+002 4.994251e+001
         vertex 2.421199e+002 1.220679e+002 4.994251e+001
      endloop
   endfacet
   facet normal -2.987166e-017 -8.344362e-001 -5.511046e-001
      outer loop
         vertex 2.421199e+002 1.220679e+002 4.994251e+001
         vertex 3.341198e+002 1.220679e+002 4.994251e+001
         vertex 3.341198e+002 1.206838e+002 5.192032e+001
      endloop
   endfacet
   facet normal -4.203221e-017 -8.035902e-001 -5.951830e-001
      outer loop
         vertex 2.421199e+002 1.220679e+002 4.994251e+001
         vertex 3.341198e+002 1.206838e+002 5.192032e+001
         vertex 2.421199e+002 1.206838e+002 5.192032e+001
      endloop
   endfacet
   facet normal -6.588546e-017 -7.352270e-001 -6.778209e-001
      outer loop
         vertex 2.421199e+002 1.206838e+002 5.192032e+001
         vertex 3.341198e+002 1.206838e+002 5.192032e+001
         vertex 3.341198e+002 1.190004e+002 5.365050e+001
      endloop
   endfacet
   facet normal -7.757816e-017 -6.977099e-001 -7.163805e-001
      outer loop
         vertex 2.421199e+002 1.206838e+002 5.192032e+001
         vertex 3.341198e+002 1.190004e+002 5.365050e+001
         vertex 2.421199e+002 1.190004e+002 5.365050e+001
      endloop
   endfacet
   facet normal -1.001929e-016 -6.169759e-001 -7.869821e-001
      outer loop
         vertex 2.421199e+002 1.190004e+002 5.365050e+001
         vertex 3.341198e+002 1.190004e+002 5.365050e+001
         vertex 3.341198e+002 1.170613e+002 5.508823e+001
      endloop
   endfacet
   facet normal -1.111149e-016 -5.737592e-001 -8.190241e-001
      outer loop
         vertex 2.421199e+002 1.190004e+002 5.365050e+001
         vertex 3.341198e+002 1.170613e+002 5.508823e+001
         vertex 2.421199e+002 1.170613e+002 5.508823e+001
      endloop
   endfacet
   facet normal -1.319053e-016 -4.827454e-001 -8.757607e-001
      outer loop
         vertex 2.421199e+002 1.170613e+002 5.508823e+001
         vertex 3.341198e+002 1.170613e+002 5.508823e+001
         vertex 3.341198e+002 1.149166e+002 5.619629e+001
      endloop
   endfacet
   facet normal -1.417738e-016 -4.349484e-001 -9.004554e-001
      outer loop
         vertex 2.421199e+002 1.170613e+002 5.508823e+001
         vertex 3.341198e+002 1.149166e+002 5.619629e+001
         vertex 2.421199e+002 1.149166e+002 5.619629e+001
      endloop
   endfacet
   facet normal -1.602015e-016 -3.360121e-001 -9.418577e-001
      outer loop
         vertex 2.421199e+002 1.149166e+002 5.619629e+001
         vertex 3.341198e+002 1.149166e+002 5.619629e+001
         vertex 3.341198e+002 1.126220e+002 5.694597e+001
      endloop
   endfacet
   facet normal -1.687608e-016 -2.848728e-001 -9.585654e-001
      outer loop
         vertex 2.421199e+002 1.149166e+002 5.619629e+001
         vertex 3.341198e+002 1.126220e+002 5.694597e+001
         vertex 2.421199e+002 1.126220e+002 5.694597e+001
      endloop
   endfacet
   facet normal -1.843485e-016 -1.805763e-001 -9.835610e-001
      outer loop
         vertex 2.421199e+002 1.126220e+002 5.694597e+001
         vertex 3.341198e+002 1.126220e+002 5.694597e+001
         vertex 3.341198e+002 1.102368e+002 5.731785e+001
      endloop
   endfacet
   facet normal -1.913770e-016 -1.274190e-001 -9.918490e-001
      outer loop
         vertex 2.421199e+002 1.126220e+002 5.694597e+001
         vertex 3.341198e+002 1.102368e+002 5.731785e+001
         vertex 2.421199e+002 1.102368e+002 5.731785e+001
      endloop
   endfacet
   facet normal -2.037211e-016 -2.046354e-002 -9.997906e-001
      outer loop
         vertex 2.421199e+002 1.102368e+002 5.731785e+001
         vertex 3.341198e+002 1.102368e+002 5.731785e+001
         vertex 3.341198e+002 1.078228e+002 5.730231e+001
      endloop
   endfacet
   facet normal -2.090367e-016 3.333477e-002 -9.994442e-001
      outer loop
         vertex 2.421199e+002 1.102368e+002 5.731785e+001
         vertex 3.341198e+002 1.078228e+002 5.730231e+001
         vertex 2.421199e+002 1.078228e+002 5.730231e+001
      endloop
   endfacet
   facet normal -2.178173e-016 1.401791e-001 -9.901261e-001
      outer loop
         vertex 2.421199e+002 1.078228e+002 5.730231e+001
         vertex 3.341198e+002 1.078228e+002 5.730231e+001
         vertex 3.341198e+002 1.054426e+002 5.689975e+001
      endloop
   endfacet
   facet normal -2.212824e-016 1.932252e-001 -9.811544e-001
      outer loop
         vertex 2.421199e+002 1.078228e+002 5.730231e+001
         vertex 3.341198e+002 1.054426e+002 5.689975e+001
         vertex 2.421199e+002 1.054426e+002 5.689975e+001
      endloop
   endfacet
   facet normal -2.262722e-016 2.971913e-001 -9.548180e-001
      outer loop
         vertex 2.421199e+002 1.054426e+002 5.689975e+001
         vertex 3.341198e+002 1.054426e+002 5.689975e+001
         vertex 3.341198e+002 1.031578e+002 5.612059e+001
      endloop
   endfacet
   facet normal -2.277970e-016 3.481112e-001 -9.374532e-001
      outer loop
         vertex 2.421199e+002 1.054426e+002 5.689975e+001
         vertex 3.341198e+002 1.031578e+002 5.612059e+001
         vertex 2.421199e+002 1.031578e+002 5.612059e+001
      endloop
   endfacet
   facet normal -2.288668e-016 4.465063e-001 -8.947805e-001
      outer loop
         vertex 2.421199e+002 1.031578e+002 5.612059e+001
         vertex 3.341198e+002 1.031578e+002 5.612059e+001
         vertex 3.341198e+002 1.010276e+002 5.498501e+001
      endloop
   endfacet
   facet normal -2.284118e-016 4.939814e-001 -8.694724e-001
      outer loop
         vertex 2.421199e+002 1.031578e+002 5.612059e+001
         vertex 3.341198e+002 1.010276e+002 5.498501e+001
         vertex 2.421199e+002 1.010276e+002 5.498501e+001
      endloop
   endfacet
   facet normal -2.255338e-016 5.842571e-001 -8.115687e-001
      outer loop
         vertex 2.421199e+002 1.010276e+002 5.498501e+001
         vertex 3.341198e+002 1.010276e+002 5.498501e+001
         vertex 3.341198e+002 9.910714e+001 5.352242e+001
      endloop
   endfacet
   facet normal -2.231108e-016 6.270577e-001 -7.789729e-001
      outer loop
         vertex 2.421199e+002 1.010276e+002 5.498501e+001
         vertex 3.341198e+002 9.910714e+001 5.352242e+001
         vertex 2.421199e+002 9.910714e+001 5.352242e+001
      endloop
   endfacet
   facet normal -2.163596e-016 7.068759e-001 -7.073377e-001
      outer loop
         vertex 2.421199e+002 9.910714e+001 5.352242e+001
         vertex 3.341198e+002 9.910714e+001 5.352242e+001
         vertex 3.341198e+002 9.744615e+001 5.177071e+001
      endloop
   endfacet
   facet normal -2.120314e-016 7.438934e-001 -6.682983e-001
      outer loop
         vertex 2.421199e+002 9.910714e+001 5.352242e+001
         vertex 3.341198e+002 9.744615e+001 5.177071e+001
         vertex 2.421199e+002 9.744615e+001 5.177071e+001
      endloop
   endfacet
   facet normal -2.015819e-016 8.111869e-001 -5.847870e-001
      outer loop
         vertex 2.421199e+002 9.744615e+001 5.177071e+001
         vertex 3.341198e+002 9.744615e+001 5.177071e+001
         vertex 3.341198e+002 9.608766e+001 4.977525e+001
      endloop
   endfacet
   facet normal -1.954605e-016 8.414628e-001 -5.403151e-001
      outer loop
         vertex 2.421199e+002 9.744615e+001 5.177071e+001
         vertex 3.341198e+002 9.608766e+001 4.977525e+001
         vertex 2.421199e+002 9.608766e+001 4.977525e+001
      endloop
   endfacet
   facet normal -1.815832e-016 8.944887e-001 -4.470906e-001
      outer loop
         vertex 2.421199e+002 9.608766e+001 4.977525e+001
         vertex 3.341198e+002 9.608766e+001 4.977525e+001
         vertex 3.341198e+002 9.506686e+001 4.758770e+001
      endloop
   endfacet
   facet normal -1.738273e-016 9.172387e-001 -3.983380e-001
      outer loop
         vertex 2.421199e+002 9.608766e+001 4.977525e+001
         vertex 3.341198e+002 9.506686e+001 4.758770e+001
         vertex 2.421199e+002 9.506686e+001 4.758770e+001
      endloop
   endfacet
   facet normal -1.568817e-016 9.546236e-001 -2.978148e-001
      outer loop
         vertex 2.421199e+002 9.506686e+001 4.758770e+001
         vertex 3.341198e+002 9.506686e+001 4.758770e+001
         vertex 3.341198e+002 9.441019e+001 4.526474e+001
      endloop
   endfacet
   facet normal -1.476920e-016 9.692586e-001 -2.460442e-001
      outer loop
         vertex 2.421199e+002 9.506686e+001 4.758770e+001
         vertex 3.341198e+002 9.441019e+001 4.526474e+001
         vertex 2.421199e+002 9.441019e+001 4.526474e+001
      endloop
   endfacet
   facet normal -1.281170e-016 9.900344e-001 -1.408258e-001
      outer loop
         vertex 2.421199e+002 9.441019e+001 4.526474e+001
         vertex 3.341198e+002 9.441019e+001 4.526474e+001
         vertex 3.341198e+002 9.413464e+001 4.286652e+001
      endloop
   endfacet
   facet normal -1.177316e-016 9.961752e-001 -8.737797e-002
      outer loop
         vertex 2.421199e+002 9.441019e+001 4.526474e+001
         vertex 3.341198e+002 9.413464e+001 4.286652e+001
         vertex 2.421199e+002 9.413464e+001 4.286652e+001
      endloop
   endfacet
   facet normal -9.603409e-017 9.998037e-001 1.981057e-002
      outer loop
         vertex 2.421199e+002 9.413464e+001 4.286652e+001
         vertex 3.341198e+002 9.413464e+001 4.286652e+001
         vertex 3.341198e+002 9.424737e+001 4.045515e+001
      endloop
   endfacet
   facet normal -8.472198e-017 9.972914e-001 7.355130e-002
      outer loop
         vertex 2.421199e+002 9.413464e+001 4.286652e+001
         vertex 3.341198e+002 9.424737e+001 4.045515e+001
         vertex 2.421199e+002 9.424737e+001 4.045515e+001
      endloop
   endfacet
   facet normal -6.735114e-017 9.881480e-001 1.535039e-001
      outer loop
         vertex 2.421199e+002 9.424737e+001 4.045515e+001
         vertex 3.341198e+002 9.424737e+001 4.045515e+001
         vertex 2.421199e+002 9.444882e+001 3.926409e+001
      endloop
   endfacet
endsolid