solid PumpAssembly - Screw1-1
   facet normal -6.381136e-001 -2.106683e-016 7.699422e-001
      outer loop
         vertex 2.864267e+002 1.493260e+002 1.381983e+002
         vertex 2.867525e+002 1.723261e+002 1.384520e+002
         vertex 2.864112e+002 1.493260e+002 1.381815e+002
      endloop
   endfacet
   facet normal -6.404724e-001 -2.110994e-016 7.679812e-001
      outer loop
         vertex 2.864112e+002 1.493260e+002 1.381815e+002
         vertex 2.867525e+002 1.723261e+002 1.384520e+002
         vertex 2.864099e+002 1.723261e+002 1.381827e+002
      endloop
   endfacet
   facet normal -7.209911e-001 -2.252308e-016 6.929443e-001
      outer loop
         vertex 2.864112e+002 1.493260e+002 1.381815e+002
         vertex 2.864099e+002 1.723261e+002 1.381827e+002
         vertex 2.861470e+002 1.493260e+002 1.378946e+002
      endloop
   endfacet
   facet normal -7.601210e-001 -2.316140e-016 6.497815e-001
      outer loop
         vertex 2.861470e+002 1.493260e+002 1.378946e+002
         vertex 2.864099e+002 1.723261e+002 1.381827e+002
         vertex 2.861220e+002 1.493260e+002 1.378562e+002
      endloop
   endfacet
   facet normal -7.640933e-001 -2.322407e-016 6.451057e-001
      outer loop
         vertex 2.861220e+002 1.493260e+002 1.378562e+002
         vertex 2.864099e+002 1.723261e+002 1.381827e+002
         vertex 2.861191e+002 1.723261e+002 1.378581e+002
      endloop
   endfacet
   facet normal -8.286541e-001 -2.417506e-016 5.597610e-001
      outer loop
         vertex 2.861220e+002 1.493260e+002 1.378562e+002
         vertex 2.861191e+002 1.723261e+002 1.378581e+002
         vertex 2.859212e+002 1.493260e+002 1.375489e+002
      endloop
   endfacet
   facet normal -8.598409e-001 -2.457679e-016 5.105621e-001
      outer loop
         vertex 2.859212e+002 1.493260e+002 1.375489e+002
         vertex 2.861191e+002 1.723261e+002 1.378581e+002
         vertex 2.858936e+002 1.493260e+002 1.374860e+002
      endloop
   endfacet
   facet normal -8.645034e-001 -2.463266e-016 5.026269e-001
      outer loop
         vertex 2.858936e+002 1.493260e+002 1.374860e+002
         vertex 2.861191e+002 1.723261e+002 1.378581e+002
         vertex 2.858893e+002 1.723261e+002 1.374879e+002
      endloop
   endfacet
   facet normal -9.120152e-001 -2.511802e-016 4.101564e-001
      outer loop
         vertex 2.858936e+002 1.493260e+002 1.374860e+002
         vertex 2.858893e+002 1.723261e+002 1.374879e+002
         vertex 2.857553e+002 1.493260e+002 1.371708e+002
      endloop
   endfacet
   facet normal -9.343465e-001 -2.527146e-016 3.563659e-001
      outer loop
         vertex 2.857553e+002 1.493260e+002 1.371708e+002
         vertex 2.858893e+002 1.723261e+002 1.374879e+002
         vertex 2.857328e+002 1.493260e+002 1.370819e+002
      endloop
   endfacet
   facet normal -9.386495e-001 -2.529287e-016 3.448727e-001
      outer loop
         vertex 2.857328e+002 1.493260e+002 1.370819e+002
         vertex 2.858893e+002 1.723261e+002 1.374879e+002
         vertex 2.857271e+002 1.723261e+002 1.370834e+002
      endloop
   endfacet
   facet normal -9.686273e-001 -2.532425e-016 2.485178e-001
      outer loop
         vertex 2.857328e+002 1.493260e+002 1.370819e+002
         vertex 2.857271e+002 1.723261e+002 1.370834e+002
         vertex 2.856540e+002 1.493260e+002 1.367705e+002
      endloop
   endfacet
   facet normal -9.814507e-001 -2.522497e-016 1.917148e-001
      outer loop
         vertex 2.856540e+002 1.493260e+002 1.367705e+002
         vertex 2.857271e+002 1.723261e+002 1.370834e+002
         vertex 2.856445e+002 1.493260e+002 1.366563e+002
      endloop
   endfacet
   facet normal -9.842762e-001 -2.518456e-016 1.766360e-001
      outer loop
         vertex 2.856445e+002 1.493260e+002 1.366563e+002
         vertex 2.857271e+002 1.723261e+002 1.370834e+002
         vertex 2.856377e+002 1.723261e+002 1.366569e+002
      endloop
   endfacet
   facet normal -9.968280e-001 -2.478766e-016 7.958686e-002
      outer loop
         vertex 2.856445e+002 1.493260e+002 1.366563e+002
         vertex 2.856377e+002 1.723261e+002 1.366569e+002
         vertex 2.856198e+002 1.493260e+002 1.363591e+002
      endloop
   endfacet
   facet normal -9.997708e-001 -2.443845e-016 2.141014e-002
      outer loop
         vertex 2.856198e+002 1.493260e+002 1.363591e+002
         vertex 2.856377e+002 1.723261e+002 1.366569e+002
         vertex 2.856237e+002 1.723261e+002 1.362213e+002
      endloop
   endfacet
   facet normal -9.993262e-001 -2.400742e-016 -3.670476e-002
      outer loop
         vertex 2.856198e+002 1.493260e+002 1.363591e+002
         vertex 2.856237e+002 1.723261e+002 1.362213e+002
         vertex 2.856312e+002 1.493260e+002 1.362219e+002
      endloop
   endfacet
   facet normal -9.957884e-001 -2.352394e-016 -9.168113e-002
      outer loop
         vertex 2.856312e+002 1.493260e+002 1.362219e+002
         vertex 2.856237e+002 1.723261e+002 1.362213e+002
         vertex 2.856540e+002 1.493260e+002 1.359476e+002
      endloop
   endfacet
   facet normal -9.887634e-001 -2.293529e-016 -1.494891e-001
      outer loop
         vertex 2.856540e+002 1.493260e+002 1.359476e+002
         vertex 2.856237e+002 1.723261e+002 1.362213e+002
         vertex 2.856855e+002 1.723261e+002 1.357900e+002
      endloop
   endfacet
   facet normal -9.784060e-001 -2.227007e-016 -2.066925e-001
      outer loop
         vertex 2.856540e+002 1.493260e+002 1.359476e+002
         vertex 2.856855e+002 1.723261e+002 1.357900e+002
         vertex 2.856934e+002 1.493260e+002 1.357919e+002
      endloop
   endfacet
   facet normal -9.655382e-001 -2.157016e-016 -2.602613e-001
      outer loop
         vertex 2.856934e+002 1.493260e+002 1.357919e+002
         vertex 2.856855e+002 1.723261e+002 1.357900e+002
         vertex 2.857553e+002 1.493260e+002 1.355473e+002
      endloop
   endfacet
   facet normal -9.487578e-001 -2.075950e-016 -3.160042e-001
      outer loop
         vertex 2.857553e+002 1.493260e+002 1.355473e+002
         vertex 2.856855e+002 1.723261e+002 1.357900e+002
         vertex 2.858213e+002 1.723261e+002 1.353759e+002
      endloop
   endfacet
   facet normal -9.287850e-001 -1.987944e-016 -3.706190e-001
      outer loop
         vertex 2.857553e+002 1.493260e+002 1.355473e+002
         vertex 2.858213e+002 1.723261e+002 1.353759e+002
         vertex 2.858290e+002 1.493260e+002 1.353793e+002
      endloop
   endfacet
   facet normal -9.069642e-001 -1.898362e-016 -4.212078e-001
      outer loop
         vertex 2.858290e+002 1.493260e+002 1.353793e+002
         vertex 2.858213e+002 1.723261e+002 1.353759e+002
         vertex 2.859211e+002 1.493260e+002 1.351692e+002
      endloop
   endfacet
   facet normal -8.809274e-001 -1.797487e-016 -4.732514e-001
      outer loop
         vertex 2.859211e+002 1.493260e+002 1.351692e+002
         vertex 2.858213e+002 1.723261e+002 1.353759e+002
         vertex 2.860269e+002 1.723261e+002 1.349917e+002
      endloop
   endfacet
   facet normal -8.519183e-001 -1.690564e-016 -5.236748e-001
      outer loop
         vertex 2.859211e+002 1.493260e+002 1.351692e+002
         vertex 2.860269e+002 1.723261e+002 1.349917e+002
         vertex 2.860341e+002 1.493260e+002 1.349963e+002
      endloop
   endfacet
   facet normal -8.217846e-001 -1.584019e-016 -5.697984e-001
      outer loop
         vertex 2.860341e+002 1.493260e+002 1.349963e+002
         vertex 2.860269e+002 1.723261e+002 1.349917e+002
         vertex 2.861470e+002 1.493260e+002 1.348235e+002
      endloop
   endfacet
   facet normal -7.872615e-001 -1.466309e-016 -6.166193e-001
      outer loop
         vertex 2.861470e+002 1.493260e+002 1.348235e+002
         vertex 2.860269e+002 1.723261e+002 1.349917e+002
         vertex 2.862962e+002 1.723261e+002 1.346490e+002
      endloop
   endfacet
   facet normal -7.500606e-001 -1.343591e-016 -6.613691e-001
      outer loop
         vertex 2.861470e+002 1.493260e+002 1.348235e+002
         vertex 2.862962e+002 1.723261e+002 1.346490e+002
         vertex 2.863024e+002 1.493260e+002 1.346547e+002
      endloop
   endfacet
   facet normal -7.124984e-001 -1.223211e-016 -7.016737e-001
      outer loop
         vertex 2.863024e+002 1.493260e+002 1.346547e+002
         vertex 2.862962e+002 1.723261e+002 1.346490e+002
         vertex 2.864267e+002 1.493260e+002 1.345197e+002
      endloop
   endfacet
   facet normal -6.705070e-001 -1.092127e-016 -7.419032e-001
      outer loop
         vertex 2.864267e+002 1.493260e+002 1.345197e+002
         vertex 2.862962e+002 1.723261e+002 1.346490e+002
         vertex 2.866208e+002 1.723261e+002 1.343583e+002
      endloop
   endfacet
   facet normal -6.262002e-001 -9.572050e-017 -7.796623e-001
      outer loop
         vertex 2.864267e+002 1.493260e+002 1.345197e+002
         vertex 2.866208e+002 1.723261e+002 1.343583e+002
         vertex 2.866258e+002 1.493260e+002 1.343647e+002
      endloop
   endfacet
   facet normal -5.823125e-001 -8.265236e-017 -8.129650e-001
      outer loop
         vertex 2.866258e+002 1.493260e+002 1.343647e+002
         vertex 2.866208e+002 1.723261e+002 1.343583e+002
         vertex 2.867525e+002 1.493260e+002 1.342661e+002
      endloop
   endfacet
   facet normal -5.340880e-001 -6.859152e-017 -8.454289e-001
      outer loop
         vertex 2.867525e+002 1.493260e+002 1.342661e+002
         vertex 2.866208e+002 1.723261e+002 1.343583e+002
         vertex 2.869910e+002 1.723261e+002 1.341284e+002
      endloop
   endfacet
   facet normal -4.839712e-001 -5.427415e-017 -8.750839e-001
      outer loop
         vertex 2.867525e+002 1.493260e+002 1.342661e+002
         vertex 2.869910e+002 1.723261e+002 1.341284e+002
         vertex 2.869946e+002 1.493260e+002 1.341351e+002
      endloop
   endfacet
   facet normal -4.350466e-001 -4.055954e-017 -9.004079e-001
      outer loop
         vertex 2.869946e+002 1.493260e+002 1.341351e+002
         vertex 2.869910e+002 1.723261e+002 1.341284e+002
         vertex 2.871156e+002 1.493260e+002 1.340696e+002
      endloop
   endfacet
   facet normal -3.820053e-001 -2.595868e-017 -9.241601e-001
      outer loop
         vertex 2.871156e+002 1.493260e+002 1.340696e+002
         vertex 2.869910e+002 1.723261e+002 1.341284e+002
         vertex 2.873955e+002 1.723261e+002 1.339663e+002
      endloop
   endfacet
   facet normal -3.275468e-001 -1.123613e-017 -9.448349e-001
      outer loop
         vertex 2.871156e+002 1.493260e+002 1.340696e+002
         vertex 2.873955e+002 1.723261e+002 1.339663e+002
         vertex 2.873977e+002 1.493260e+002 1.339727e+002
      endloop
   endfacet
   facet normal -2.750220e-001 2.722323e-018 -9.614379e-001
      outer loop
         vertex 2.873977e+002 1.493260e+002 1.339727e+002
         vertex 2.873955e+002 1.723261e+002 1.339663e+002
         vertex 2.875061e+002 1.493260e+002 1.339355e+002
      endloop
   endfacet
   facet normal -2.187191e-001 1.743550e-017 -9.757879e-001
      outer loop
         vertex 2.875061e+002 1.493260e+002 1.339355e+002
         vertex 2.873955e+002 1.723261e+002 1.339663e+002
         vertex 2.878220e+002 1.723261e+002 1.338768e+002
      endloop
   endfacet
   facet normal -1.615167e-001 3.213088e-017 -9.868700e-001
      outer loop
         vertex 2.875061e+002 1.493260e+002 1.339355e+002
         vertex 2.878220e+002 1.723261e+002 1.338768e+002
         vertex 2.878230e+002 1.493260e+002 1.338827e+002
      endloop
   endfacet
   facet normal -1.069336e-001 4.592350e-017 -9.942662e-001
      outer loop
         vertex 2.878230e+002 1.493260e+002 1.338827e+002
         vertex 2.878220e+002 1.723261e+002 1.338768e+002
         vertex 2.879134e+002 1.493260e+002 1.338676e+002
      endloop
   endfacet
   facet normal -4.901813e-002 6.031841e-017 -9.987979e-001
      outer loop
         vertex 2.879134e+002 1.493260e+002 1.338676e+002
         vertex 2.878220e+002 1.723261e+002 1.338768e+002
         vertex 2.882576e+002 1.723261e+002 1.338628e+002
      endloop
   endfacet
   facet normal 9.248273e-003 7.455468e-017 -9.999573e-001
      outer loop
         vertex 2.879134e+002 1.493260e+002 1.338676e+002
         vertex 2.882576e+002 1.723261e+002 1.338628e+002
         vertex 2.882576e+002 1.493260e+002 1.338676e+002
      endloop
   endfacet
   facet normal 6.428709e-002 8.777668e-017 -9.979314e-001
      outer loop
         vertex 2.882576e+002 1.493260e+002 1.338676e+002
         vertex 2.882576e+002 1.723261e+002 1.338628e+002
         vertex 2.883263e+002 1.493260e+002 1.338676e+002
      endloop
   endfacet
   facet normal 1.221208e-001 1.014324e-016 -9.925153e-001
      outer loop
         vertex 2.883263e+002 1.493260e+002 1.338676e+002
         vertex 2.882576e+002 1.723261e+002 1.338628e+002
         vertex 2.886889e+002 1.723261e+002 1.339247e+002
      endloop
   endfacet
   facet normal 1.797382e-001 1.147908e-016 -9.837145e-001
      outer loop
         vertex 2.883263e+002 1.493260e+002 1.338676e+002
         vertex 2.886889e+002 1.723261e+002 1.339247e+002
         vertex 2.886884e+002 1.493260e+002 1.339280e+002
      endloop
   endfacet
   facet normal 2.336176e-001 1.270543e-016 -9.723285e-001
      outer loop
         vertex 2.886884e+002 1.493260e+002 1.339280e+002
         vertex 2.886889e+002 1.723261e+002 1.339247e+002
         vertex 2.887336e+002 1.493260e+002 1.339355e+002
      endloop
   endfacet
   facet normal 2.896785e-001 1.395716e-016 -9.571240e-001
      outer loop
         vertex 2.887336e+002 1.493260e+002 1.339355e+002
         vertex 2.886889e+002 1.723261e+002 1.339247e+002
         vertex 2.891030e+002 1.723261e+002 1.340605e+002
      endloop
   endfacet
   facet normal 3.449521e-001 1.516591e-016 -9.386203e-001
      outer loop
         vertex 2.887336e+002 1.493260e+002 1.339355e+002
         vertex 2.891030e+002 1.723261e+002 1.340605e+002
         vertex 2.891024e+002 1.493260e+002 1.340621e+002
      endloop
   endfacet
   facet normal 3.960915e-001 1.626046e-016 -9.182110e-001
      outer loop
         vertex 2.891024e+002 1.493260e+002 1.340621e+002
         vertex 2.891030e+002 1.723261e+002 1.340605e+002
         vertex 2.891241e+002 1.493260e+002 1.340696e+002
      endloop
   endfacet
   facet normal 4.487410e-001 1.736176e-016 -8.936619e-001
      outer loop
         vertex 2.891241e+002 1.493260e+002 1.340696e+002
         vertex 2.891030e+002 1.723261e+002 1.340605e+002
         vertex 2.894872e+002 1.723261e+002 1.342661e+002
      endloop
   endfacet
   facet normal 5.000443e-001 1.840784e-016 -8.659998e-001
      outer loop
         vertex 2.891241e+002 1.493260e+002 1.340696e+002
         vertex 2.894872e+002 1.723261e+002 1.342661e+002
         vertex 2.894872e+002 1.493260e+002 1.342661e+002
      endloop
   endfacet
   facet normal 7.640933e-001 2.322407e-016 -6.451057e-001
      outer loop
         vertex 2.898299e+002 1.723261e+002 1.345353e+002
         vertex 2.901206e+002 1.723261e+002 1.348600e+002
         vertex 2.901178e+002 1.493260e+002 1.348618e+002
      endloop
   endfacet
   facet normal 7.601210e-001 2.316139e-016 -6.497815e-001
      outer loop
         vertex 2.901178e+002 1.493260e+002 1.348618e+002
         vertex 2.900927e+002 1.493260e+002 1.348235e+002
         vertex 2.898299e+002 1.723261e+002 1.345353e+002
      endloop
   endfacet
   facet normal 7.209911e-001 2.252308e-016 -6.929443e-001
      outer loop
         vertex 2.898299e+002 1.723261e+002 1.345353e+002
         vertex 2.900927e+002 1.493260e+002 1.348235e+002
         vertex 2.898286e+002 1.493260e+002 1.345366e+002
      endloop
   endfacet
   facet normal 6.404724e-001 2.110994e-016 -7.679812e-001
      outer loop
         vertex 2.898299e+002 1.723261e+002 1.345353e+002
         vertex 2.898286e+002 1.493260e+002 1.345366e+002
         vertex 2.894872e+002 1.723261e+002 1.342661e+002
      endloop
   endfacet
   facet normal 6.381136e-001 2.106683e-016 -7.699422e-001
      outer loop
         vertex 2.894872e+002 1.723261e+002 1.342661e+002
         vertex 2.898286e+002 1.493260e+002 1.345366e+002
         vertex 2.898131e+002 1.493260e+002 1.345197e+002
      endloop
   endfacet
   facet normal 5.921863e-001 2.021060e-016 -8.058011e-001
      outer loop
         vertex 2.894872e+002 1.723261e+002 1.342661e+002
         vertex 2.898131e+002 1.493260e+002 1.345197e+002
         vertex 2.894872e+002 1.493260e+002 1.342661e+002
      endloop
   endfacet
   facet normal 9.386495e-001 2.529287e-016 -3.448727e-001
      outer loop
         vertex 2.903505e+002 1.723261e+002 1.352302e+002
         vertex 2.905126e+002 1.723261e+002 1.356347e+002
         vertex 2.905069e+002 1.493260e+002 1.356361e+002
      endloop
   endfacet
   facet normal 9.343465e-001 2.527146e-016 -3.563659e-001
      outer loop
         vertex 2.905069e+002 1.493260e+002 1.356361e+002
         vertex 2.904844e+002 1.493260e+002 1.355473e+002
         vertex 2.903505e+002 1.723261e+002 1.352302e+002
      endloop
   endfacet
   facet normal 9.120153e-001 2.511802e-016 -4.101563e-001
      outer loop
         vertex 2.903505e+002 1.723261e+002 1.352302e+002
         vertex 2.904844e+002 1.493260e+002 1.355473e+002
         vertex 2.903461e+002 1.493260e+002 1.352321e+002
      endloop
   endfacet
   facet normal 8.645034e-001 2.463266e-016 -5.026269e-001
      outer loop
         vertex 2.903505e+002 1.723261e+002 1.352302e+002
         vertex 2.903461e+002 1.493260e+002 1.352321e+002
         vertex 2.901206e+002 1.723261e+002 1.348600e+002
      endloop
   endfacet
   facet normal 8.598409e-001 2.457679e-016 -5.105621e-001
      outer loop
         vertex 2.901206e+002 1.723261e+002 1.348600e+002
         vertex 2.903461e+002 1.493260e+002 1.352321e+002
         vertex 2.903185e+002 1.493260e+002 1.351691e+002
      endloop
   endfacet
   facet normal 8.286541e-001 2.417506e-016 -5.597610e-001
      outer loop
         vertex 2.901206e+002 1.723261e+002 1.348600e+002
         vertex 2.903185e+002 1.493260e+002 1.351691e+002
         vertex 2.901178e+002 1.493260e+002 1.348618e+002
      endloop
   endfacet
   facet normal 9.997708e-001 2.443845e-016 -2.141022e-002
      outer loop
         vertex 2.906161e+002 1.723261e+002 1.364967e+002
         vertex 2.906198e+002 1.493260e+002 1.363590e+002
         vertex 2.906021e+002 1.723261e+002 1.360612e+002
      endloop
   endfacet
   facet normal 9.968280e-001 2.478766e-016 -7.958677e-002
      outer loop
         vertex 2.906021e+002 1.723261e+002 1.360612e+002
         vertex 2.906198e+002 1.493260e+002 1.363590e+002
         vertex 2.905952e+002 1.493260e+002 1.360618e+002
      endloop
   endfacet
   facet normal 9.842762e-001 2.518456e-016 -1.766360e-001
      outer loop
         vertex 2.906021e+002 1.723261e+002 1.360612e+002
         vertex 2.905952e+002 1.493260e+002 1.360618e+002
         vertex 2.905126e+002 1.723261e+002 1.356347e+002
      endloop
   endfacet
   facet normal 9.814507e-001 2.522497e-016 -1.917148e-001
      outer loop
         vertex 2.905126e+002 1.723261e+002 1.356347e+002
         vertex 2.905952e+002 1.493260e+002 1.360618e+002
         vertex 2.905858e+002 1.493260e+002 1.359475e+002
      endloop
   endfacet
   facet normal 9.686273e-001 2.532425e-016 -2.485178e-001
      outer loop
         vertex 2.905126e+002 1.723261e+002 1.356347e+002
         vertex 2.905858e+002 1.493260e+002 1.359475e+002
         vertex 2.905069e+002 1.493260e+002 1.356361e+002
      endloop
   endfacet
   facet normal 9.887634e-001 2.293529e-016 1.494891e-001
      outer loop
         vertex 2.905542e+002 1.723261e+002 1.369281e+002
         vertex 2.905858e+002 1.493260e+002 1.367705e+002
         vertex 2.906161e+002 1.723261e+002 1.364967e+002
      endloop
   endfacet
   facet normal 9.957884e-001 2.352394e-016 9.168115e-002
      outer loop
         vertex 2.906161e+002 1.723261e+002 1.364967e+002
         vertex 2.905858e+002 1.493260e+002 1.367705e+002
         vertex 2.906085e+002 1.493260e+002 1.364961e+002
      endloop
   endfacet
   facet normal 9.993262e-001 2.400742e-016 3.670476e-002
      outer loop
         vertex 2.906161e+002 1.723261e+002 1.364967e+002
         vertex 2.906085e+002 1.493260e+002 1.364961e+002
         vertex 2.906198e+002 1.493260e+002 1.363590e+002
      endloop
   endfacet
   facet normal 9.487578e-001 2.075950e-016 3.160042e-001
      outer loop
         vertex 2.904184e+002 1.723261e+002 1.373422e+002
         vertex 2.904844e+002 1.493260e+002 1.371708e+002
         vertex 2.905542e+002 1.723261e+002 1.369281e+002
      endloop
   endfacet
   facet normal 9.655382e-001 2.157016e-016 2.602614e-001
      outer loop
         vertex 2.905542e+002 1.723261e+002 1.369281e+002
         vertex 2.904844e+002 1.493260e+002 1.371708e+002
         vertex 2.905464e+002 1.493260e+002 1.369261e+002
      endloop
   endfacet
   facet normal 9.784060e-001 2.227007e-016 2.066925e-001
      outer loop
         vertex 2.905542e+002 1.723261e+002 1.369281e+002
         vertex 2.905464e+002 1.493260e+002 1.369261e+002
         vertex 2.905858e+002 1.493260e+002 1.367705e+002
      endloop
   endfacet
   facet normal 8.809274e-001 1.797487e-016 4.732514e-001
      outer loop
         vertex 2.902128e+002 1.723261e+002 1.377264e+002
         vertex 2.903185e+002 1.493260e+002 1.375489e+002
         vertex 2.904184e+002 1.723261e+002 1.373422e+002
      endloop
   endfacet
   facet normal 9.069642e-001 1.898362e-016 4.212078e-001
      outer loop
         vertex 2.904184e+002 1.723261e+002 1.373422e+002
         vertex 2.903185e+002 1.493260e+002 1.375489e+002
         vertex 2.904107e+002 1.493260e+002 1.373388e+002
      endloop
   endfacet
   facet normal 9.287850e-001 1.987944e-016 3.706190e-001
      outer loop
         vertex 2.904184e+002 1.723261e+002 1.373422e+002
         vertex 2.904107e+002 1.493260e+002 1.373388e+002
         vertex 2.904844e+002 1.493260e+002 1.371708e+002
      endloop
   endfacet
   facet normal 7.872615e-001 1.466309e-016 6.166193e-001
      outer loop
         vertex 2.899435e+002 1.723261e+002 1.380690e+002
         vertex 2.900927e+002 1.493260e+002 1.378946e+002
         vertex 2.902128e+002 1.723261e+002 1.377264e+002
      endloop
   endfacet
   facet normal 8.217846e-001 1.584019e-016 5.697984e-001
      outer loop
         vertex 2.902128e+002 1.723261e+002 1.377264e+002
         vertex 2.900927e+002 1.493260e+002 1.378946e+002
         vertex 2.902056e+002 1.493260e+002 1.377217e+002
      endloop
   endfacet
   facet normal 8.519183e-001 1.690564e-016 5.236748e-001
      outer loop
         vertex 2.902128e+002 1.723261e+002 1.377264e+002
         vertex 2.902056e+002 1.493260e+002 1.377217e+002
         vertex 2.903185e+002 1.493260e+002 1.375489e+002
      endloop
   endfacet
   facet normal 6.705070e-001 1.092127e-016 7.419032e-001
      outer loop
         vertex 2.896189e+002 1.723261e+002 1.383598e+002
         vertex 2.898131e+002 1.493260e+002 1.381983e+002
         vertex 2.899435e+002 1.723261e+002 1.380690e+002
      endloop
   endfacet
   facet normal 7.124984e-001 1.223211e-016 7.016737e-001
      outer loop
         vertex 2.899435e+002 1.723261e+002 1.380690e+002
         vertex 2.898131e+002 1.493260e+002 1.381983e+002
         vertex 2.899373e+002 1.493260e+002 1.380633e+002
      endloop
   endfacet
   facet normal 7.500606e-001 1.343591e-016 6.613691e-001
      outer loop
         vertex 2.899435e+002 1.723261e+002 1.380690e+002
         vertex 2.899373e+002 1.493260e+002 1.380633e+002
         vertex 2.900927e+002 1.493260e+002 1.378946e+002
      endloop
   endfacet
   facet normal 5.340880e-001 6.859152e-017 8.454289e-001
      outer loop
         vertex 2.892487e+002 1.723261e+002 1.385897e+002
         vertex 2.894872e+002 1.493260e+002 1.384520e+002
         vertex 2.896189e+002 1.723261e+002 1.383598e+002
      endloop
   endfacet
   facet normal 5.823125e-001 8.265236e-017 8.129650e-001
      outer loop
         vertex 2.896189e+002 1.723261e+002 1.383598e+002
         vertex 2.894872e+002 1.493260e+002 1.384520e+002
         vertex 2.896139e+002 1.493260e+002 1.383533e+002
      endloop
   endfacet
   facet normal 6.262001e-001 9.572049e-017 7.796624e-001
      outer loop
         vertex 2.896189e+002 1.723261e+002 1.383598e+002
         vertex 2.896139e+002 1.493260e+002 1.383533e+002
         vertex 2.898131e+002 1.493260e+002 1.381983e+002
      endloop
   endfacet
   facet normal 3.820054e-001 2.595870e-017 9.241601e-001
      outer loop
         vertex 2.888442e+002 1.723261e+002 1.387518e+002
         vertex 2.891241e+002 1.493260e+002 1.386485e+002
         vertex 2.892487e+002 1.723261e+002 1.385897e+002
      endloop
   endfacet
   facet normal 4.350466e-001 4.055954e-017 9.004079e-001
      outer loop
         vertex 2.892487e+002 1.723261e+002 1.385897e+002
         vertex 2.891241e+002 1.493260e+002 1.386485e+002
         vertex 2.892451e+002 1.493260e+002 1.385830e+002
      endloop
   endfacet
   facet normal 4.839712e-001 5.427414e-017 8.750839e-001
      outer loop
         vertex 2.892487e+002 1.723261e+002 1.385897e+002
         vertex 2.892451e+002 1.493260e+002 1.385830e+002
         vertex 2.894872e+002 1.493260e+002 1.384520e+002
      endloop
   endfacet
   facet normal 2.187191e-001 -1.743550e-017 9.757879e-001
      outer loop
         vertex 2.884177e+002 1.723261e+002 1.388412e+002
         vertex 2.887336e+002 1.493260e+002 1.387825e+002
         vertex 2.888442e+002 1.723261e+002 1.387518e+002
      endloop
   endfacet
   facet normal 2.750220e-001 -2.722313e-018 9.614379e-001
      outer loop
         vertex 2.888442e+002 1.723261e+002 1.387518e+002
         vertex 2.887336e+002 1.493260e+002 1.387825e+002
         vertex 2.888420e+002 1.493260e+002 1.387453e+002
      endloop
   endfacet
   facet normal 3.275468e-001 1.123611e-017 9.448349e-001
      outer loop
         vertex 2.888442e+002 1.723261e+002 1.387518e+002
         vertex 2.888420e+002 1.493260e+002 1.387453e+002
         vertex 2.891241e+002 1.493260e+002 1.386485e+002
      endloop
   endfacet
   facet normal 4.901818e-002 -6.031839e-017 9.987979e-001
      outer loop
         vertex 2.879822e+002 1.723261e+002 1.388552e+002
         vertex 2.883263e+002 1.493260e+002 1.388505e+002
         vertex 2.884177e+002 1.723261e+002 1.388412e+002
      endloop
   endfacet
   facet normal 1.069336e-001 -4.592350e-017 9.942662e-001
      outer loop
         vertex 2.884177e+002 1.723261e+002 1.388412e+002
         vertex 2.883263e+002 1.493260e+002 1.388505e+002
         vertex 2.884167e+002 1.493260e+002 1.388354e+002
      endloop
   endfacet
   facet normal 1.615167e-001 -3.213088e-017 9.868700e-001
      outer loop
         vertex 2.884177e+002 1.723261e+002 1.388412e+002
         vertex 2.884167e+002 1.493260e+002 1.388354e+002
         vertex 2.887336e+002 1.493260e+002 1.387825e+002
      endloop
   endfacet
   facet normal -1.221209e-001 -1.014324e-016 9.925153e-001
      outer loop
         vertex 2.875508e+002 1.723261e+002 1.387934e+002
         vertex 2.879134e+002 1.493260e+002 1.388505e+002
         vertex 2.879822e+002 1.723261e+002 1.388552e+002
      endloop
   endfacet
   facet normal -6.428709e-002 -8.777668e-017 9.979314e-001
      outer loop
         vertex 2.879822e+002 1.723261e+002 1.388552e+002
         vertex 2.879134e+002 1.493260e+002 1.388505e+002
         vertex 2.879822e+002 1.493260e+002 1.388505e+002
      endloop
   endfacet
   facet normal -9.248323e-003 -7.455470e-017 9.999572e-001
      outer loop
         vertex 2.879822e+002 1.723261e+002 1.388552e+002
         vertex 2.879822e+002 1.493260e+002 1.388505e+002
         vertex 2.883263e+002 1.493260e+002 1.388505e+002
      endloop
   endfacet
   facet normal -2.896785e-001 -1.395716e-016 9.571240e-001
      outer loop
         vertex 2.871367e+002 1.723261e+002 1.386576e+002
         vertex 2.875062e+002 1.493260e+002 1.387825e+002
         vertex 2.875508e+002 1.723261e+002 1.387934e+002
      endloop
   endfacet
   facet normal -2.336176e-001 -1.270543e-016 9.723285e-001
      outer loop
         vertex 2.875508e+002 1.723261e+002 1.387934e+002
         vertex 2.875062e+002 1.493260e+002 1.387825e+002
         vertex 2.875513e+002 1.493260e+002 1.387901e+002
      endloop
   endfacet
   facet normal -1.797382e-001 -1.147908e-016 9.837145e-001
      outer loop
         vertex 2.875508e+002 1.723261e+002 1.387934e+002
         vertex 2.875513e+002 1.493260e+002 1.387901e+002
         vertex 2.879134e+002 1.493260e+002 1.388505e+002
      endloop
   endfacet
   facet normal -5.921863e-001 -2.021060e-016 8.058011e-001
      outer loop
         vertex 2.864267e+002 1.493260e+002 1.381983e+002
         vertex 2.867525e+002 1.493260e+002 1.384520e+002
         vertex 2.867525e+002 1.723261e+002 1.384520e+002
      endloop
   endfacet
   facet normal -5.000443e-001 -1.840784e-016 8.659998e-001
      outer loop
         vertex 2.867525e+002 1.723261e+002 1.384520e+002
         vertex 2.867525e+002 1.493260e+002 1.384520e+002
         vertex 2.871156e+002 1.493260e+002 1.386485e+002
      endloop
   endfacet
   facet normal -4.487410e-001 -1.736176e-016 8.936619e-001
      outer loop
         vertex 2.867525e+002 1.723261e+002 1.384520e+002
         vertex 2.871156e+002 1.493260e+002 1.386485e+002
         vertex 2.871367e+002 1.723261e+002 1.386576e+002
      endloop
   endfacet
   facet normal -3.960915e-001 -1.626046e-016 9.182110e-001
      outer loop
         vertex 2.871367e+002 1.723261e+002 1.386576e+002
         vertex 2.871156e+002 1.493260e+002 1.386485e+002
         vertex 2.871373e+002 1.493260e+002 1.386559e+002
      endloop
   endfacet
   facet normal -3.449521e-001 -1.516591e-016 9.386203e-001
      outer loop
         vertex 2.871367e+002 1.723261e+002 1.386576e+002
         vertex 2.871373e+002 1.493260e+002 1.386559e+002
         vertex 2.875062e+002 1.493260e+002 1.387825e+002
      endloop
   endfacet
   facet normal -2.428920e-016 1.000000e+000 7.231144e-017
      outer loop
         vertex 2.902128e+002 1.723261e+002 1.377264e+002
         vertex 2.904184e+002 1.723261e+002 1.373422e+002
         vertex 2.862962e+002 1.723261e+002 1.346490e+002
      endloop
   endfacet
   facet normal -2.428920e-016 1.000000e+000 7.231144e-017
      outer loop
         vertex 2.858893e+002 1.723261e+002 1.374879e+002
         vertex 2.861191e+002 1.723261e+002 1.378581e+002
         vertex 2.899435e+002 1.723261e+002 1.380690e+002
      endloop
   endfacet
   facet normal -2.428920e-016 1.000000e+000 7.231144e-017
      outer loop
         vertex 2.858213e+002 1.723261e+002 1.353759e+002
         vertex 2.856855e+002 1.723261e+002 1.357900e+002
         vertex 2.899435e+002 1.723261e+002 1.380690e+002
      endloop
   endfacet
   facet normal -2.428920e-016 1.000000e+000 7.231144e-017
      outer loop
         vertex 2.899435e+002 1.723261e+002 1.380690e+002
         vertex 2.856855e+002 1.723261e+002 1.357900e+002
         vertex 2.856237e+002 1.723261e+002 1.362213e+002
      endloop
   endfacet
   facet normal -2.428920e-016 1.000000e+000 7.231144e-017
      outer loop
         vertex 2.902128e+002 1.723261e+002 1.377264e+002
         vertex 2.862962e+002 1.723261e+002 1.346490e+002
         vertex 2.899435e+002 1.723261e+002 1.380690e+002
      endloop
   endfacet
   facet normal -2.428920e-016 1.000000e+000 7.231144e-017
      outer loop
         vertex 2.899435e+002 1.723261e+002 1.380690e+002
         vertex 2.862962e+002 1.723261e+002 1.346490e+002
         vertex 2.860269e+002 1.723261e+002 1.349917e+002
      endloop
   endfacet
   facet normal -2.428920e-016 1.000000e+000 7.231144e-017
      outer loop
         vertex 2.899435e+002 1.723261e+002 1.380690e+002
         vertex 2.860269e+002 1.723261e+002 1.349917e+002
         vertex 2.858213e+002 1.723261e+002 1.353759e+002
      endloop
   endfacet
   facet normal -2.428920e-016 1.000000e+000 7.231144e-017
      outer loop
         vertex 2.856237e+002 1.723261e+002 1.362213e+002
         vertex 2.856377e+002 1.723261e+002 1.366569e+002
         vertex 2.899435e+002 1.723261e+002 1.380690e+002
      endloop
   endfacet
   facet normal -2.428920e-016 1.000000e+000 7.231144e-017
      outer loop
         vertex 2.899435e+002 1.723261e+002 1.380690e+002
         vertex 2.856377e+002 1.723261e+002 1.366569e+002
         vertex 2.857271e+002 1.723261e+002 1.370834e+002
      endloop
   endfacet
   facet normal -2.428920e-016 1.000000e+000 7.231144e-017
      outer loop
         vertex 2.899435e+002 1.723261e+002 1.380690e+002
         vertex 2.857271e+002 1.723261e+002 1.370834e+002
         vertex 2.858893e+002 1.723261e+002 1.374879e+002
      endloop
   endfacet
   facet normal -2.428920e-016 1.000000e+000 7.231144e-017
      outer loop
         vertex 2.904184e+002 1.723261e+002 1.373422e+002
         vertex 2.905542e+002 1.723261e+002 1.369281e+002
         vertex 2.862962e+002 1.723261e+002 1.346490e+002
      endloop
   endfacet
   facet normal -2.428920e-016 1.000000e+000 7.231144e-017
      outer loop
         vertex 2.862962e+002 1.723261e+002 1.346490e+002
         vertex 2.905542e+002 1.723261e+002 1.369281e+002
         vertex 2.906161e+002 1.723261e+002 1.364967e+002
      endloop
   endfacet
   facet normal -2.428920e-016 1.000000e+000 7.231144e-017
      outer loop
         vertex 2.862962e+002 1.723261e+002 1.346490e+002
         vertex 2.906161e+002 1.723261e+002 1.364967e+002
         vertex 2.906021e+002 1.723261e+002 1.360612e+002
      endloop
   endfacet
   facet normal -2.428920e-016 1.000000e+000 7.231144e-017
      outer loop
         vertex 2.906021e+002 1.723261e+002 1.360612e+002
         vertex 2.905126e+002 1.723261e+002 1.356347e+002
         vertex 2.862962e+002 1.723261e+002 1.346490e+002
      endloop
   endfacet
   facet normal -2.428920e-016 1.000000e+000 7.231144e-017
      outer loop
         vertex 2.862962e+002 1.723261e+002 1.346490e+002
         vertex 2.905126e+002 1.723261e+002 1.356347e+002
         vertex 2.903505e+002 1.723261e+002 1.352302e+002
      endloop
   endfacet
   facet normal -2.428920e-016 1.000000e+000 7.231144e-017
      outer loop
         vertex 2.862962e+002 1.723261e+002 1.346490e+002
         vertex 2.903505e+002 1.723261e+002 1.352302e+002
         vertex 2.901206e+002 1.723261e+002 1.348600e+002
      endloop
   endfacet
   facet normal -2.428920e-016 1.000000e+000 7.231144e-017
      outer loop
         vertex 2.861191e+002 1.723261e+002 1.378581e+002
         vertex 2.864099e+002 1.723261e+002 1.381827e+002
         vertex 2.899435e+002 1.723261e+002 1.380690e+002
      endloop
   endfacet
   facet normal -2.428920e-016 1.000000e+000 7.231144e-017
      outer loop
         vertex 2.899435e+002 1.723261e+002 1.380690e+002
         vertex 2.864099e+002 1.723261e+002 1.381827e+002
         vertex 2.867525e+002 1.723261e+002 1.384520e+002
      endloop
   endfacet
   facet normal -2.428920e-016 1.000000e+000 7.231144e-017
      outer loop
         vertex 2.899435e+002 1.723261e+002 1.380690e+002
         vertex 2.867525e+002 1.723261e+002 1.384520e+002
         vertex 2.871367e+002 1.723261e+002 1.386576e+002
      endloop
   endfacet
   facet normal -2.428920e-016 1.000000e+000 7.231144e-017
      outer loop
         vertex 2.871367e+002 1.723261e+002 1.386576e+002
         vertex 2.875508e+002 1.723261e+002 1.387934e+002
         vertex 2.899435e+002 1.723261e+002 1.380690e+002
      endloop
   endfacet
   facet normal -2.428920e-016 1.000000e+000 7.231144e-017
      outer loop
         vertex 2.899435e+002 1.723261e+002 1.380690e+002
         vertex 2.875508e+002 1.723261e+002 1.387934e+002
         vertex 2.879822e+002 1.723261e+002 1.388552e+002
      endloop
   endfacet
   facet normal -2.428920e-016 1.000000e+000 7.231144e-017
      outer loop
         vertex 2.899435e+002 1.723261e+002 1.380690e+002
         vertex 2.879822e+002 1.723261e+002 1.388552e+002
         vertex 2.884177e+002 1.723261e+002 1.388412e+002
      endloop
   endfacet
   facet normal -2.428920e-016 1.000000e+000 7.231144e-017
      outer loop
         vertex 2.901206e+002 1.723261e+002 1.348600e+002
         vertex 2.898299e+002 1.723261e+002 1.345353e+002
         vertex 2.862962e+002 1.723261e+002 1.346490e+002
      endloop
   endfacet
   facet normal -2.428920e-016 1.000000e+000 7.231144e-017
      outer loop
         vertex 2.862962e+002 1.723261e+002 1.346490e+002
         vertex 2.898299e+002 1.723261e+002 1.345353e+002
         vertex 2.894872e+002 1.723261e+002 1.342661e+002
      endloop
   endfacet
   facet normal -2.428920e-016 1.000000e+000 7.231144e-017
      outer loop
         vertex 2.862962e+002 1.723261e+002 1.346490e+002
         vertex 2.894872e+002 1.723261e+002 1.342661e+002
         vertex 2.891030e+002 1.723261e+002 1.340605e+002
      endloop
   endfacet
   facet normal -2.428920e-016 1.000000e+000 7.231144e-017
      outer loop
         vertex 2.891030e+002 1.723261e+002 1.340605e+002
         vertex 2.886889e+002 1.723261e+002 1.339247e+002
         vertex 2.862962e+002 1.723261e+002 1.346490e+002
      endloop
   endfacet
   facet normal -2.428920e-016 1.000000e+000 7.231144e-017
      outer loop
         vertex 2.862962e+002 1.723261e+002 1.346490e+002
         vertex 2.886889e+002 1.723261e+002 1.339247e+002
         vertex 2.882576e+002 1.723261e+002 1.338628e+002
      endloop
   endfacet
   facet normal -2.428920e-016 1.000000e+000 7.231144e-017
      outer loop
         vertex 2.862962e+002 1.723261e+002 1.346490e+002
         vertex 2.882576e+002 1.723261e+002 1.338628e+002
         vertex 2.878220e+002 1.723261e+002 1.338768e+002
      endloop
   endfacet
   facet normal -2.428920e-016 1.000000e+000 7.231144e-017
      outer loop
         vertex 2.884177e+002 1.723261e+002 1.388412e+002
         vertex 2.888442e+002 1.723261e+002 1.387518e+002
         vertex 2.899435e+002 1.723261e+002 1.380690e+002
      endloop
   endfacet
   facet normal -2.428920e-016 1.000000e+000 7.231144e-017
      outer loop
         vertex 2.899435e+002 1.723261e+002 1.380690e+002
         vertex 2.888442e+002 1.723261e+002 1.387518e+002
         vertex 2.892487e+002 1.723261e+002 1.385897e+002
      endloop
   endfacet
   facet normal -2.428920e-016 1.000000e+000 7.231144e-017
      outer loop
         vertex 2.899435e+002 1.723261e+002 1.380690e+002
         vertex 2.892487e+002 1.723261e+002 1.385897e+002
         vertex 2.896189e+002 1.723261e+002 1.383598e+002
      endloop
   endfacet
   facet normal -2.428920e-016 1.000000e+000 7.231144e-017
      outer loop
         vertex 2.878220e+002 1.723261e+002 1.338768e+002
         vertex 2.873955e+002 1.723261e+002 1.339663e+002
         vertex 2.862962e+002 1.723261e+002 1.346490e+002
      endloop
   endfacet
   facet normal -2.428920e-016 1.000000e+000 7.231144e-017
      outer loop
         vertex 2.862962e+002 1.723261e+002 1.346490e+002
         vertex 2.873955e+002 1.723261e+002 1.339663e+002
         vertex 2.869910e+002 1.723261e+002 1.341284e+002
      endloop
   endfacet
   facet normal -2.428920e-016 1.000000e+000 7.231144e-017
      outer loop
         vertex 2.862962e+002 1.723261e+002 1.346490e+002
         vertex 2.869910e+002 1.723261e+002 1.341284e+002
         vertex 2.866208e+002 1.723261e+002 1.343583e+002
      endloop
   endfacet
   facet normal 2.428920e-016 -1.000000e+000 -7.231144e-017
      outer loop
         vertex 2.896061e+002 1.481261e+002 1.397474e+002
         vertex 2.866336e+002 1.481261e+002 1.329707e+002
         vertex 2.872115e+002 1.481261e+002 1.327722e+002
      endloop
   endfacet
   facet normal 2.428920e-016 -1.000000e+000 -7.231144e-017
      outer loop
         vertex 2.860962e+002 1.481261e+002 1.394566e+002
         vertex 2.856139e+002 1.481261e+002 1.390812e+002
         vertex 2.866336e+002 1.481261e+002 1.329707e+002
      endloop
   endfacet
   facet normal 2.428920e-016 -1.000000e+000 -7.231144e-017
      outer loop
         vertex 2.896061e+002 1.481261e+002 1.397474e+002
         vertex 2.890282e+002 1.481261e+002 1.399458e+002
         vertex 2.866336e+002 1.481261e+002 1.329707e+002
      endloop
   endfacet
   facet normal 2.428920e-016 -1.000000e+000 -7.231144e-017
      outer loop
         vertex 2.866336e+002 1.481261e+002 1.329707e+002
         vertex 2.890282e+002 1.481261e+002 1.399458e+002
         vertex 2.884254e+002 1.481261e+002 1.400464e+002
      endloop
   endfacet
   facet normal 2.428920e-016 -1.000000e+000 -7.231144e-017
      outer loop
         vertex 2.866336e+002 1.481261e+002 1.329707e+002
         vertex 2.884254e+002 1.481261e+002 1.400464e+002
         vertex 2.878144e+002 1.481261e+002 1.400464e+002
      endloop
   endfacet
   facet normal 2.428920e-016 -1.000000e+000 -7.231144e-017
      outer loop
         vertex 2.872115e+002 1.481261e+002 1.327722e+002
         vertex 2.878143e+002 1.481261e+002 1.326717e+002
         vertex 2.896061e+002 1.481261e+002 1.397474e+002
      endloop
   endfacet
   facet normal 2.428920e-016 -1.000000e+000 -7.231144e-017
      outer loop
         vertex 2.896061e+002 1.481261e+002 1.397474e+002
         vertex 2.878143e+002 1.481261e+002 1.326717e+002
         vertex 2.884254e+002 1.481261e+002 1.326717e+002
      endloop
   endfacet
   facet normal 2.428920e-016 -1.000000e+000 -7.231144e-017
      outer loop
         vertex 2.896061e+002 1.481261e+002 1.397474e+002
         vertex 2.884254e+002 1.481261e+002 1.326717e+002
         vertex 2.890281e+002 1.481261e+002 1.327722e+002
      endloop
   endfacet
   facet normal 2.428920e-016 -1.000000e+000 -7.231144e-017
      outer loop
         vertex 2.896061e+002 1.481261e+002 1.397474e+002
         vertex 2.916194e+002 1.481261e+002 1.351576e+002
         vertex 2.917694e+002 1.481261e+002 1.357500e+002
      endloop
   endfacet
   facet normal 2.428920e-016 -1.000000e+000 -7.231144e-017
      outer loop
         vertex 2.878144e+002 1.481261e+002 1.400464e+002
         vertex 2.872116e+002 1.481261e+002 1.399458e+002
         vertex 2.866336e+002 1.481261e+002 1.329707e+002
      endloop
   endfacet
   facet normal 2.428920e-016 -1.000000e+000 -7.231144e-017
      outer loop
         vertex 2.866336e+002 1.481261e+002 1.329707e+002
         vertex 2.872116e+002 1.481261e+002 1.399458e+002
         vertex 2.866336e+002 1.481261e+002 1.397474e+002
      endloop
   endfacet
   facet normal 2.428920e-016 -1.000000e+000 -7.231144e-017
      outer loop
         vertex 2.866336e+002 1.481261e+002 1.329707e+002
         vertex 2.866336e+002 1.481261e+002 1.397474e+002
         vertex 2.860962e+002 1.481261e+002 1.394566e+002
      endloop
   endfacet
   facet normal 2.428920e-016 -1.000000e+000 -7.231144e-017
      outer loop
         vertex 2.848658e+002 1.481261e+002 1.381201e+002
         vertex 2.846203e+002 1.481261e+002 1.375604e+002
         vertex 2.846203e+002 1.481261e+002 1.351577e+002
      endloop
   endfacet
   facet normal 2.428920e-016 -1.000000e+000 -7.231144e-017
      outer loop
         vertex 2.846203e+002 1.481261e+002 1.351577e+002
         vertex 2.846203e+002 1.481261e+002 1.375604e+002
         vertex 2.844703e+002 1.481261e+002 1.369680e+002
      endloop
   endfacet
   facet normal 2.428920e-016 -1.000000e+000 -7.231144e-017
      outer loop
         vertex 2.846203e+002 1.481261e+002 1.351577e+002
         vertex 2.844703e+002 1.481261e+002 1.369680e+002
         vertex 2.844703e+002 1.481261e+002 1.357501e+002
      endloop
   endfacet
   facet normal 2.428920e-016 -1.000000e+000 -7.231144e-017
      outer loop
         vertex 2.844703e+002 1.481261e+002 1.357501e+002
         vertex 2.844703e+002 1.481261e+002 1.369680e+002
         vertex 2.844199e+002 1.481261e+002 1.363591e+002
      endloop
   endfacet
   facet normal 2.428920e-016 -1.000000e+000 -7.231144e-017
      outer loop
         vertex 2.846203e+002 1.481261e+002 1.351577e+002
         vertex 2.848658e+002 1.481261e+002 1.345981e+002
         vertex 2.848658e+002 1.481261e+002 1.381201e+002
      endloop
   endfacet
   facet normal 2.428920e-016 -1.000000e+000 -7.231144e-017
      outer loop
         vertex 2.848658e+002 1.481261e+002 1.381201e+002
         vertex 2.848658e+002 1.481261e+002 1.345981e+002
         vertex 2.852000e+002 1.481261e+002 1.340865e+002
      endloop
   endfacet
   facet normal 2.428920e-016 -1.000000e+000 -7.231144e-017
      outer loop
         vertex 2.848658e+002 1.481261e+002 1.381201e+002
         vertex 2.852000e+002 1.481261e+002 1.340865e+002
         vertex 2.856139e+002 1.481261e+002 1.336369e+002
      endloop
   endfacet
   facet normal 2.428920e-016 -1.000000e+000 -7.231144e-017
      outer loop
         vertex 2.890281e+002 1.481261e+002 1.327722e+002
         vertex 2.896061e+002 1.481261e+002 1.329707e+002
         vertex 2.896061e+002 1.481261e+002 1.397474e+002
      endloop
   endfacet
   facet normal 2.428920e-016 -1.000000e+000 -7.231144e-017
      outer loop
         vertex 2.896061e+002 1.481261e+002 1.397474e+002
         vertex 2.896061e+002 1.481261e+002 1.329707e+002
         vertex 2.901436e+002 1.481261e+002 1.332615e+002
      endloop
   endfacet
   facet normal 2.428920e-016 -1.000000e+000 -7.231144e-017
      outer loop
         vertex 2.896061e+002 1.481261e+002 1.397474e+002
         vertex 2.901436e+002 1.481261e+002 1.332615e+002
         vertex 2.906258e+002 1.481261e+002 1.336368e+002
      endloop
   endfacet
   facet normal 2.428920e-016 -1.000000e+000 -7.231144e-017
      outer loop
         vertex 2.906258e+002 1.481261e+002 1.336368e+002
         vertex 2.910397e+002 1.481261e+002 1.340864e+002
         vertex 2.896061e+002 1.481261e+002 1.397474e+002
      endloop
   endfacet
   facet normal 2.428920e-016 -1.000000e+000 -7.231144e-017
      outer loop
         vertex 2.896061e+002 1.481261e+002 1.397474e+002
         vertex 2.910397e+002 1.481261e+002 1.340864e+002
         vertex 2.913739e+002 1.481261e+002 1.345980e+002
      endloop
   endfacet
   facet normal 2.428920e-016 -1.000000e+000 -7.231144e-017
      outer loop
         vertex 2.896061e+002 1.481261e+002 1.397474e+002
         vertex 2.913739e+002 1.481261e+002 1.345980e+002
         vertex 2.916194e+002 1.481261e+002 1.351576e+002
      endloop
   endfacet
   facet normal 2.428920e-016 -1.000000e+000 -7.231144e-017
      outer loop
         vertex 2.856139e+002 1.481261e+002 1.390812e+002
         vertex 2.852001e+002 1.481261e+002 1.386316e+002
         vertex 2.866336e+002 1.481261e+002 1.329707e+002
      endloop
   endfacet
   facet normal 2.428920e-016 -1.000000e+000 -7.231144e-017
      outer loop
         vertex 2.866336e+002 1.481261e+002 1.329707e+002
         vertex 2.852001e+002 1.481261e+002 1.386316e+002
         vertex 2.848658e+002 1.481261e+002 1.381201e+002
      endloop
   endfacet
   facet normal 2.428920e-016 -1.000000e+000 -7.231144e-017
      outer loop
         vertex 2.866336e+002 1.481261e+002 1.329707e+002
         vertex 2.848658e+002 1.481261e+002 1.381201e+002
         vertex 2.860961e+002 1.481261e+002 1.332615e+002
      endloop
   endfacet
   facet normal 2.428920e-016 -1.000000e+000 -7.231144e-017
      outer loop
         vertex 2.860961e+002 1.481261e+002 1.332615e+002
         vertex 2.848658e+002 1.481261e+002 1.381201e+002
         vertex 2.856139e+002 1.481261e+002 1.336369e+002
      endloop
   endfacet
   facet normal 2.428920e-016 -1.000000e+000 -7.231144e-017
      outer loop
         vertex 2.917694e+002 1.481261e+002 1.357500e+002
         vertex 2.918199e+002 1.481261e+002 1.363590e+002
         vertex 2.896061e+002 1.481261e+002 1.397474e+002
      endloop
   endfacet
   facet normal 2.428920e-016 -1.000000e+000 -7.231144e-017
      outer loop
         vertex 2.896061e+002 1.481261e+002 1.397474e+002
         vertex 2.918199e+002 1.481261e+002 1.363590e+002
         vertex 2.917694e+002 1.481261e+002 1.369680e+002
      endloop
   endfacet
   facet normal 2.428920e-016 -1.000000e+000 -7.231144e-017
      outer loop
         vertex 2.896061e+002 1.481261e+002 1.397474e+002
         vertex 2.917694e+002 1.481261e+002 1.369680e+002
         vertex 2.901436e+002 1.481261e+002 1.394565e+002
      endloop
   endfacet
   facet normal 2.428920e-016 -1.000000e+000 -7.231144e-017
      outer loop
         vertex 2.913739e+002 1.481261e+002 1.381200e+002
         vertex 2.910397e+002 1.481261e+002 1.386316e+002
         vertex 2.906258e+002 1.481261e+002 1.390812e+002
      endloop
   endfacet
   facet normal 2.428920e-016 -1.000000e+000 -7.231144e-017
      outer loop
         vertex 2.901436e+002 1.481261e+002 1.394565e+002
         vertex 2.917694e+002 1.481261e+002 1.369680e+002
         vertex 2.906258e+002 1.481261e+002 1.390812e+002
      endloop
   endfacet
   facet normal 2.428920e-016 -1.000000e+000 -7.231144e-017
      outer loop
         vertex 2.906258e+002 1.481261e+002 1.390812e+002
         vertex 2.917694e+002 1.481261e+002 1.369680e+002
         vertex 2.916194e+002 1.481261e+002 1.375604e+002
      endloop
   endfacet
   facet normal 2.428920e-016 -1.000000e+000 -7.231144e-017
      outer loop
         vertex 2.906258e+002 1.481261e+002 1.390812e+002
         vertex 2.916194e+002 1.481261e+002 1.375604e+002
         vertex 2.913739e+002 1.481261e+002 1.381200e+002
      endloop
   endfacet
   facet normal 1.311758e-001 7.080752e-001 -6.938462e-001
      outer loop
         vertex 2.886884e+002 1.493260e+002 1.339280e+002
         vertex 2.890281e+002 1.481261e+002 1.327722e+002
         vertex 2.884254e+002 1.481261e+002 1.326717e+002
      endloop
   endfacet
   facet normal 1.302261e-002 7.080321e-001 -7.060602e-001
      outer loop
         vertex 2.878143e+002 1.481261e+002 1.326717e+002
         vertex 2.882576e+002 1.493260e+002 1.338676e+002
         vertex 2.884254e+002 1.481261e+002 1.326717e+002
      endloop
   endfacet
   facet normal 5.193605e-002 7.071364e-001 -7.051672e-001
      outer loop
         vertex 2.884254e+002 1.481261e+002 1.326717e+002
         vertex 2.882576e+002 1.493260e+002 1.338676e+002
         vertex 2.883263e+002 1.493260e+002 1.338676e+002
      endloop
   endfacet
   facet normal 9.271026e-002 7.079564e-001 -7.001447e-001
      outer loop
         vertex 2.884254e+002 1.481261e+002 1.326717e+002
         vertex 2.883263e+002 1.493260e+002 1.338676e+002
         vertex 2.886884e+002 1.493260e+002 1.339280e+002
      endloop
   endfacet
   facet normal -1.055160e-001 7.079955e-001 -6.982898e-001
      outer loop
         vertex 2.872115e+002 1.481261e+002 1.327722e+002
         vertex 2.878230e+002 1.493260e+002 1.338827e+002
         vertex 2.878143e+002 1.481261e+002 1.326717e+002
      endloop
   endfacet
   facet normal -6.699133e-002 7.071595e-001 -7.038733e-001
      outer loop
         vertex 2.878143e+002 1.481261e+002 1.326717e+002
         vertex 2.878230e+002 1.493260e+002 1.338827e+002
         vertex 2.879134e+002 1.493260e+002 1.338676e+002
      endloop
   endfacet
   facet normal -2.595009e-002 7.078538e-001 -7.058821e-001
      outer loop
         vertex 2.878143e+002 1.481261e+002 1.326717e+002
         vertex 2.879134e+002 1.493260e+002 1.338676e+002
         vertex 2.882576e+002 1.493260e+002 1.338676e+002
      endloop
   endfacet
   facet normal -2.210819e-001 7.079656e-001 -6.707515e-001
      outer loop
         vertex 2.866336e+002 1.481261e+002 1.329707e+002
         vertex 2.873977e+002 1.493260e+002 1.339727e+002
         vertex 2.872115e+002 1.481261e+002 1.327722e+002
      endloop
   endfacet
   facet normal -1.840161e-001 7.071893e-001 -6.826576e-001
      outer loop
         vertex 2.872115e+002 1.481261e+002 1.327722e+002
         vertex 2.873977e+002 1.493260e+002 1.339727e+002
         vertex 2.875061e+002 1.493260e+002 1.339355e+002
      endloop
   endfacet
   facet normal -1.439133e-001 7.077576e-001 -6.916416e-001
      outer loop
         vertex 2.872115e+002 1.481261e+002 1.327722e+002
         vertex 2.875061e+002 1.493260e+002 1.339355e+002
         vertex 2.878230e+002 1.493260e+002 1.338827e+002
      endloop
   endfacet
   facet normal -3.304001e-001 7.079423e-001 -6.242223e-001
      outer loop
         vertex 2.860961e+002 1.481261e+002 1.332615e+002
         vertex 2.869946e+002 1.493260e+002 1.341351e+002
         vertex 2.866336e+002 1.481261e+002 1.329707e+002
      endloop
   endfacet
   facet normal -2.958237e-001 7.072257e-001 -6.421216e-001
      outer loop
         vertex 2.866336e+002 1.481261e+002 1.329707e+002
         vertex 2.869946e+002 1.493260e+002 1.341351e+002
         vertex 2.871156e+002 1.493260e+002 1.340696e+002
      endloop
   endfacet
   facet normal -2.578371e-001 7.076679e-001 -6.578192e-001
      outer loop
         vertex 2.866336e+002 1.481261e+002 1.329707e+002
         vertex 2.871156e+002 1.493260e+002 1.340696e+002
         vertex 2.873977e+002 1.493260e+002 1.339727e+002
      endloop
   endfacet
   facet normal -4.303728e-001 7.079256e-001 -5.600184e-001
      outer loop
         vertex 2.856139e+002 1.481261e+002 1.336369e+002
         vertex 2.866258e+002 1.493260e+002 1.343647e+002
         vertex 2.860961e+002 1.481261e+002 1.332615e+002
      endloop
   endfacet
   facet normal -3.992468e-001 7.072689e-001 -5.834147e-001
      outer loop
         vertex 2.860961e+002 1.481261e+002 1.332615e+002
         vertex 2.866258e+002 1.493260e+002 1.343647e+002
         vertex 2.867525e+002 1.493260e+002 1.342661e+002
      endloop
   endfacet
   facet normal -3.644928e-001 7.075848e-001 -6.053666e-001
      outer loop
         vertex 2.860961e+002 1.481261e+002 1.332615e+002
         vertex 2.867525e+002 1.493260e+002 1.342661e+002
         vertex 2.869946e+002 1.493260e+002 1.341351e+002
      endloop
   endfacet
   facet normal -5.181664e-001 7.079156e-001 -4.799574e-001
      outer loop
         vertex 2.852000e+002 1.481261e+002 1.340865e+002
         vertex 2.863024e+002 1.493260e+002 1.346547e+002
         vertex 2.856139e+002 1.481261e+002 1.336369e+002
      endloop
   endfacet
   facet normal -4.913564e-001 7.073187e-001 -5.082018e-001
      outer loop
         vertex 2.856139e+002 1.481261e+002 1.336369e+002
         vertex 2.863024e+002 1.493260e+002 1.346547e+002
         vertex 2.864267e+002 1.493260e+002 1.345197e+002
      endloop
   endfacet
   facet normal -4.608563e-001 7.075083e-001 -5.357643e-001
      outer loop
         vertex 2.856139e+002 1.481261e+002 1.336369e+002
         vertex 2.864267e+002 1.493260e+002 1.345197e+002
         vertex 2.866258e+002 1.493260e+002 1.343647e+002
      endloop
   endfacet
   facet normal -5.912929e-001 7.079123e-001 -3.863069e-001
      outer loop
         vertex 2.848658e+002 1.481261e+002 1.345981e+002
         vertex 2.860341e+002 1.493260e+002 1.349963e+002
         vertex 2.852000e+002 1.481261e+002 1.340865e+002
      endloop
   endfacet
   facet normal -5.695446e-001 7.073753e-001 -4.186157e-001
      outer loop
         vertex 2.852000e+002 1.481261e+002 1.340865e+002
         vertex 2.860341e+002 1.493260e+002 1.349963e+002
         vertex 2.861470e+002 1.493260e+002 1.348235e+002
      endloop
   endfacet
   facet normal -5.441948e-001 7.074385e-001 -4.509799e-001
      outer loop
         vertex 2.852000e+002 1.481261e+002 1.340865e+002
         vertex 2.861470e+002 1.493260e+002 1.348235e+002
         vertex 2.863024e+002 1.493260e+002 1.346547e+002
      endloop
   endfacet
   facet normal -6.476799e-001 7.079156e-001 -2.817201e-001
      outer loop
         vertex 2.846203e+002 1.481261e+002 1.351577e+002
         vertex 2.858290e+002 1.493260e+002 1.353793e+002
         vertex 2.848658e+002 1.481261e+002 1.345981e+002
      endloop
   endfacet
   facet normal -6.315989e-001 7.074385e-001 -3.171965e-001
      outer loop
         vertex 2.848658e+002 1.481261e+002 1.345981e+002
         vertex 2.858290e+002 1.493260e+002 1.353793e+002
         vertex 2.859211e+002 1.493260e+002 1.351692e+002
      endloop
   endfacet
   facet normal -6.121440e-001 7.073753e-001 -3.534119e-001
      outer loop
         vertex 2.848658e+002 1.481261e+002 1.345981e+002
         vertex 2.859211e+002 1.493260e+002 1.351692e+002
         vertex 2.860341e+002 1.493260e+002 1.349963e+002
      endloop
   endfacet
   facet normal -6.857303e-001 7.079256e-001 -1.691605e-001
      outer loop
         vertex 2.844703e+002 1.481261e+002 1.357501e+002
         vertex 2.856934e+002 1.493260e+002 1.357919e+002
         vertex 2.846203e+002 1.481261e+002 1.351577e+002
      endloop
   endfacet
   facet normal -6.757645e-001 7.075083e-001 -2.068194e-001
      outer loop
         vertex 2.846203e+002 1.481261e+002 1.351577e+002
         vertex 2.856934e+002 1.493260e+002 1.357919e+002
         vertex 2.857553e+002 1.493260e+002 1.355473e+002
      endloop
   endfacet
   facet normal -6.627757e-001 7.073187e-001 -2.458223e-001
      outer loop
         vertex 2.846203e+002 1.481261e+002 1.351577e+002
         vertex 2.857553e+002 1.493260e+002 1.355473e+002
         vertex 2.858290e+002 1.493260e+002 1.353793e+002
      endloop
   endfacet
   facet normal -7.043669e-001 7.079423e-001 -5.181766e-002
      outer loop
         vertex 2.844199e+002 1.481261e+002 1.363591e+002
         vertex 2.856312e+002 1.493260e+002 1.362219e+002
         vertex 2.844703e+002 1.481261e+002 1.357501e+002
      endloop
   endfacet
   facet normal -7.007945e-001 7.075849e-001 -9.061304e-002
      outer loop
         vertex 2.844703e+002 1.481261e+002 1.357501e+002
         vertex 2.856312e+002 1.493260e+002 1.362219e+002
         vertex 2.856540e+002 1.493260e+002 1.359476e+002
      endloop
   endfacet
   facet normal -6.946525e-001 7.072689e-001 -1.312578e-001
      outer loop
         vertex 2.844703e+002 1.481261e+002 1.357501e+002
         vertex 2.856540e+002 1.493260e+002 1.359476e+002
         vertex 2.856934e+002 1.493260e+002 1.357919e+002
      endloop
   endfacet
   facet normal -7.030632e-001 7.079656e-001 6.698363e-002
      outer loop
         vertex 2.844703e+002 1.481261e+002 1.369680e+002
         vertex 2.856445e+002 1.493260e+002 1.366563e+002
         vertex 2.844199e+002 1.481261e+002 1.363591e+002
      endloop
   endfacet
   facet normal -7.059851e-001 7.076679e-001 2.812939e-002
      outer loop
         vertex 2.844199e+002 1.481261e+002 1.363591e+002
         vertex 2.856445e+002 1.493260e+002 1.366563e+002
         vertex 2.856198e+002 1.493260e+002 1.363591e+002
      endloop
   endfacet
   facet normal -7.068689e-001 7.072257e-001 -1.296331e-002
      outer loop
         vertex 2.844199e+002 1.481261e+002 1.363591e+002
         vertex 2.856198e+002 1.493260e+002 1.363591e+002
         vertex 2.856312e+002 1.493260e+002 1.362219e+002
      endloop
   endfacet
   facet normal -6.818587e-001 7.079955e-001 1.838776e-001
      outer loop
         vertex 2.846203e+002 1.481261e+002 1.375604e+002
         vertex 2.857328e+002 1.493260e+002 1.370819e+002
         vertex 2.844703e+002 1.481261e+002 1.369680e+002
      endloop
   endfacet
   facet normal -6.911949e-001 7.077576e-001 1.460440e-001
      outer loop
         vertex 2.844703e+002 1.481261e+002 1.369680e+002
         vertex 2.857328e+002 1.493260e+002 1.370819e+002
         vertex 2.856540e+002 1.493260e+002 1.367705e+002
      endloop
   endfacet
   facet normal -6.990771e-001 7.071893e-001 1.057100e-001
      outer loop
         vertex 2.844703e+002 1.481261e+002 1.369680e+002
         vertex 2.856540e+002 1.493260e+002 1.367705e+002
         vertex 2.856445e+002 1.493260e+002 1.366563e+002
      endloop
   endfacet
   facet normal -6.413571e-001 7.080321e-001 2.955530e-001
      outer loop
         vertex 2.848658e+002 1.481261e+002 1.381201e+002
         vertex 2.858936e+002 1.493260e+002 1.374860e+002
         vertex 2.846203e+002 1.481261e+002 1.375604e+002
      endloop
   endfacet
   facet normal -6.568496e-001 7.078537e-001 2.597915e-001
      outer loop
         vertex 2.846203e+002 1.481261e+002 1.375604e+002
         vertex 2.858936e+002 1.493260e+002 1.374860e+002
         vertex 2.857553e+002 1.493260e+002 1.371708e+002
      endloop
   endfacet
   facet normal -6.714964e-001 7.071595e-001 2.214003e-001
      outer loop
         vertex 2.846203e+002 1.481261e+002 1.375604e+002
         vertex 2.857553e+002 1.493260e+002 1.371708e+002
         vertex 2.857328e+002 1.493260e+002 1.370819e+002
      endloop
   endfacet
   facet normal -5.827093e-001 7.080752e-001 3.988477e-001
      outer loop
         vertex 2.852001e+002 1.481261e+002 1.386316e+002
         vertex 2.861220e+002 1.493260e+002 1.378562e+002
         vertex 2.848658e+002 1.481261e+002 1.381201e+002
      endloop
   endfacet
   facet normal -6.039290e-001 7.079564e-001 3.661523e-001
      outer loop
         vertex 2.848658e+002 1.481261e+002 1.381201e+002
         vertex 2.861220e+002 1.493260e+002 1.378562e+002
         vertex 2.859212e+002 1.493260e+002 1.375489e+002
      endloop
   endfacet
   facet normal -6.249077e-001 7.071364e-001 3.308301e-001
      outer loop
         vertex 2.848658e+002 1.481261e+002 1.381201e+002
         vertex 2.859212e+002 1.493260e+002 1.375489e+002
         vertex 2.858936e+002 1.493260e+002 1.374860e+002
      endloop
   endfacet
   facet normal -5.075803e-001 7.081248e-001 4.908377e-001
      outer loop
         vertex 2.856139e+002 1.481261e+002 1.390812e+002
         vertex 2.864112e+002 1.493260e+002 1.381815e+002
         vertex 2.852001e+002 1.481261e+002 1.386316e+002
      endloop
   endfacet
   facet normal -5.339390e-001 7.080654e-001 4.621175e-001
      outer loop
         vertex 2.852001e+002 1.481261e+002 1.386316e+002
         vertex 2.864112e+002 1.493260e+002 1.381815e+002
         vertex 2.861470e+002 1.493260e+002 1.378946e+002
      endloop
   endfacet
   facet normal -5.606309e-001 7.071199e-001 4.308996e-001
      outer loop
         vertex 2.852001e+002 1.481261e+002 1.386316e+002
         vertex 2.861470e+002 1.493260e+002 1.378946e+002
         vertex 2.861220e+002 1.493260e+002 1.378562e+002
      endloop
   endfacet
   facet normal -2.455971e-001 7.081248e-001 6.619981e-001
      outer loop
         vertex 2.872116e+002 1.481261e+002 1.399458e+002
         vertex 2.871373e+002 1.493260e+002 1.386559e+002
         vertex 2.866336e+002 1.481261e+002 1.397474e+002
      endloop
   endfacet
   facet normal -2.820644e-001 7.071100e-001 6.484096e-001
      outer loop
         vertex 2.866336e+002 1.481261e+002 1.397474e+002
         vertex 2.871373e+002 1.493260e+002 1.386559e+002
         vertex 2.871156e+002 1.493260e+002 1.386485e+002
      endloop
   endfacet
   facet normal -3.187583e-001 7.081808e-001 6.299787e-001
      outer loop
         vertex 2.866336e+002 1.481261e+002 1.397474e+002
         vertex 2.871156e+002 1.493260e+002 1.386485e+002
         vertex 2.860962e+002 1.481261e+002 1.394566e+002
      endloop
   endfacet
   facet normal -3.530468e-001 7.081808e-001 6.114228e-001
      outer loop
         vertex 2.860962e+002 1.481261e+002 1.394566e+002
         vertex 2.871156e+002 1.493260e+002 1.386485e+002
         vertex 2.867525e+002 1.493260e+002 1.384520e+002
      endloop
   endfacet
   facet normal -4.181020e-001 7.081808e-001 5.689206e-001
      outer loop
         vertex 2.860962e+002 1.481261e+002 1.394566e+002
         vertex 2.867525e+002 1.493260e+002 1.384520e+002
         vertex 2.856139e+002 1.481261e+002 1.390812e+002
      endloop
   endfacet
   facet normal -4.488686e-001 7.081808e-001 5.449742e-001
      outer loop
         vertex 2.856139e+002 1.481261e+002 1.390812e+002
         vertex 2.867525e+002 1.493260e+002 1.384520e+002
         vertex 2.864267e+002 1.493260e+002 1.381983e+002
      endloop
   endfacet
   facet normal -4.804873e-001 7.071100e-001 5.187749e-001
      outer loop
         vertex 2.856139e+002 1.481261e+002 1.390812e+002
         vertex 2.864267e+002 1.493260e+002 1.381983e+002
         vertex 2.864112e+002 1.493260e+002 1.381815e+002
      endloop
   endfacet
   facet normal -1.311758e-001 7.080752e-001 6.938462e-001
      outer loop
         vertex 2.878144e+002 1.481261e+002 1.400464e+002
         vertex 2.875513e+002 1.493260e+002 1.387901e+002
         vertex 2.872116e+002 1.481261e+002 1.399458e+002
      endloop
   endfacet
   facet normal -1.693969e-001 7.071199e-001 6.865028e-001
      outer loop
         vertex 2.872116e+002 1.481261e+002 1.399458e+002
         vertex 2.875513e+002 1.493260e+002 1.387901e+002
         vertex 2.875062e+002 1.493260e+002 1.387825e+002
      endloop
   endfacet
   facet normal -2.087075e-001 7.080654e-001 6.745996e-001
      outer loop
         vertex 2.872116e+002 1.481261e+002 1.399458e+002
         vertex 2.875062e+002 1.493260e+002 1.387825e+002
         vertex 2.871373e+002 1.493260e+002 1.386559e+002
      endloop
   endfacet
   facet normal -1.302261e-002 7.080321e-001 7.060602e-001
      outer loop
         vertex 2.884254e+002 1.481261e+002 1.400464e+002
         vertex 2.879822e+002 1.493260e+002 1.388505e+002
         vertex 2.878144e+002 1.481261e+002 1.400464e+002
      endloop
   endfacet
   facet normal -5.193605e-002 7.071364e-001 7.051672e-001
      outer loop
         vertex 2.878144e+002 1.481261e+002 1.400464e+002
         vertex 2.879822e+002 1.493260e+002 1.388505e+002
         vertex 2.879134e+002 1.493260e+002 1.388505e+002
      endloop
   endfacet
   facet normal -9.271026e-002 7.079564e-001 7.001447e-001
      outer loop
         vertex 2.878144e+002 1.481261e+002 1.400464e+002
         vertex 2.879134e+002 1.493260e+002 1.388505e+002
         vertex 2.875513e+002 1.493260e+002 1.387901e+002
      endloop
   endfacet
   facet normal 1.055160e-001 7.079955e-001 6.982898e-001
      outer loop
         vertex 2.890282e+002 1.481261e+002 1.399458e+002
         vertex 2.884167e+002 1.493260e+002 1.388354e+002
         vertex 2.884254e+002 1.481261e+002 1.400464e+002
      endloop
   endfacet
   facet normal 6.699133e-002 7.071595e-001 7.038733e-001
      outer loop
         vertex 2.884254e+002 1.481261e+002 1.400464e+002
         vertex 2.884167e+002 1.493260e+002 1.388354e+002
         vertex 2.883263e+002 1.493260e+002 1.388505e+002
      endloop
   endfacet
   facet normal 2.595009e-002 7.078538e-001 7.058821e-001
      outer loop
         vertex 2.884254e+002 1.481261e+002 1.400464e+002
         vertex 2.883263e+002 1.493260e+002 1.388505e+002
         vertex 2.879822e+002 1.493260e+002 1.388505e+002
      endloop
   endfacet
   facet normal 2.210819e-001 7.079656e-001 6.707515e-001
      outer loop
         vertex 2.896061e+002 1.481261e+002 1.397474e+002
         vertex 2.888420e+002 1.493260e+002 1.387453e+002
         vertex 2.890282e+002 1.481261e+002 1.399458e+002
      endloop
   endfacet
   facet normal 1.840161e-001 7.071893e-001 6.826576e-001
      outer loop
         vertex 2.890282e+002 1.481261e+002 1.399458e+002
         vertex 2.888420e+002 1.493260e+002 1.387453e+002
         vertex 2.887336e+002 1.493260e+002 1.387825e+002
      endloop
   endfacet
   facet normal 1.439133e-001 7.077576e-001 6.916416e-001
      outer loop
         vertex 2.890282e+002 1.481261e+002 1.399458e+002
         vertex 2.887336e+002 1.493260e+002 1.387825e+002
         vertex 2.884167e+002 1.493260e+002 1.388354e+002
      endloop
   endfacet
   facet normal 3.304001e-001 7.079423e-001 6.242223e-001
      outer loop
         vertex 2.901436e+002 1.481261e+002 1.394565e+002
         vertex 2.892451e+002 1.493260e+002 1.385830e+002
         vertex 2.896061e+002 1.481261e+002 1.397474e+002
      endloop
   endfacet
   facet normal 2.958237e-001 7.072257e-001 6.421216e-001
      outer loop
         vertex 2.896061e+002 1.481261e+002 1.397474e+002
         vertex 2.892451e+002 1.493260e+002 1.385830e+002
         vertex 2.891241e+002 1.493260e+002 1.386485e+002
      endloop
   endfacet
   facet normal 2.578371e-001 7.076679e-001 6.578192e-001
      outer loop
         vertex 2.896061e+002 1.481261e+002 1.397474e+002
         vertex 2.891241e+002 1.493260e+002 1.386485e+002
         vertex 2.888420e+002 1.493260e+002 1.387453e+002
      endloop
   endfacet
   facet normal 4.303728e-001 7.079256e-001 5.600184e-001
      outer loop
         vertex 2.906258e+002 1.481261e+002 1.390812e+002
         vertex 2.896139e+002 1.493260e+002 1.383533e+002
         vertex 2.901436e+002 1.481261e+002 1.394565e+002
      endloop
   endfacet
   facet normal 3.992468e-001 7.072689e-001 5.834147e-001
      outer loop
         vertex 2.901436e+002 1.481261e+002 1.394565e+002
         vertex 2.896139e+002 1.493260e+002 1.383533e+002
         vertex 2.894872e+002 1.493260e+002 1.384520e+002
      endloop
   endfacet
   facet normal 3.644928e-001 7.075848e-001 6.053666e-001
      outer loop
         vertex 2.901436e+002 1.481261e+002 1.394565e+002
         vertex 2.894872e+002 1.493260e+002 1.384520e+002
         vertex 2.892451e+002 1.493260e+002 1.385830e+002
      endloop
   endfacet
   facet normal 5.181664e-001 7.079156e-001 4.799574e-001
      outer loop
         vertex 2.910397e+002 1.481261e+002 1.386316e+002
         vertex 2.899373e+002 1.493260e+002 1.380633e+002
         vertex 2.906258e+002 1.481261e+002 1.390812e+002
      endloop
   endfacet
   facet normal 4.913564e-001 7.073187e-001 5.082018e-001
      outer loop
         vertex 2.906258e+002 1.481261e+002 1.390812e+002
         vertex 2.899373e+002 1.493260e+002 1.380633e+002
         vertex 2.898131e+002 1.493260e+002 1.381983e+002
      endloop
   endfacet
   facet normal 4.608563e-001 7.075083e-001 5.357643e-001
      outer loop
         vertex 2.906258e+002 1.481261e+002 1.390812e+002
         vertex 2.898131e+002 1.493260e+002 1.381983e+002
         vertex 2.896139e+002 1.493260e+002 1.383533e+002
      endloop
   endfacet
   facet normal 5.912929e-001 7.079123e-001 3.863069e-001
      outer loop
         vertex 2.913739e+002 1.481261e+002 1.381200e+002
         vertex 2.902056e+002 1.493260e+002 1.377217e+002
         vertex 2.910397e+002 1.481261e+002 1.386316e+002
      endloop
   endfacet
   facet normal 5.695446e-001 7.073753e-001 4.186157e-001
      outer loop
         vertex 2.910397e+002 1.481261e+002 1.386316e+002
         vertex 2.902056e+002 1.493260e+002 1.377217e+002
         vertex 2.900927e+002 1.493260e+002 1.378946e+002
      endloop
   endfacet
   facet normal 5.441948e-001 7.074385e-001 4.509799e-001
      outer loop
         vertex 2.910397e+002 1.481261e+002 1.386316e+002
         vertex 2.900927e+002 1.493260e+002 1.378946e+002
         vertex 2.899373e+002 1.493260e+002 1.380633e+002
      endloop
   endfacet
   facet normal 6.476799e-001 7.079156e-001 2.817201e-001
      outer loop
         vertex 2.916194e+002 1.481261e+002 1.375604e+002
         vertex 2.904107e+002 1.493260e+002 1.373388e+002
         vertex 2.913739e+002 1.481261e+002 1.381200e+002
      endloop
   endfacet
   facet normal 6.315989e-001 7.074385e-001 3.171965e-001
      outer loop
         vertex 2.913739e+002 1.481261e+002 1.381200e+002
         vertex 2.904107e+002 1.493260e+002 1.373388e+002
         vertex 2.903185e+002 1.493260e+002 1.375489e+002
      endloop
   endfacet
   facet normal 6.121440e-001 7.073753e-001 3.534119e-001
      outer loop
         vertex 2.913739e+002 1.481261e+002 1.381200e+002
         vertex 2.903185e+002 1.493260e+002 1.375489e+002
         vertex 2.902056e+002 1.493260e+002 1.377217e+002
      endloop
   endfacet
   facet normal 6.857303e-001 7.079256e-001 1.691605e-001
      outer loop
         vertex 2.917694e+002 1.481261e+002 1.369680e+002
         vertex 2.905464e+002 1.493260e+002 1.369261e+002
         vertex 2.916194e+002 1.481261e+002 1.375604e+002
      endloop
   endfacet
   facet normal 6.757645e-001 7.075083e-001 2.068194e-001
      outer loop
         vertex 2.916194e+002 1.481261e+002 1.375604e+002
         vertex 2.905464e+002 1.493260e+002 1.369261e+002
         vertex 2.904844e+002 1.493260e+002 1.371708e+002
      endloop
   endfacet
   facet normal 6.627757e-001 7.073187e-001 2.458223e-001
      outer loop
         vertex 2.916194e+002 1.481261e+002 1.375604e+002
         vertex 2.904844e+002 1.493260e+002 1.371708e+002
         vertex 2.904107e+002 1.493260e+002 1.373388e+002
      endloop
   endfacet
   facet normal 7.043669e-001 7.079423e-001 5.181766e-002
      outer loop
         vertex 2.918199e+002 1.481261e+002 1.363590e+002
         vertex 2.906085e+002 1.493260e+002 1.364961e+002
         vertex 2.917694e+002 1.481261e+002 1.369680e+002
      endloop
   endfacet
   facet normal 7.007945e-001 7.075849e-001 9.061304e-002
      outer loop
         vertex 2.917694e+002 1.481261e+002 1.369680e+002
         vertex 2.906085e+002 1.493260e+002 1.364961e+002
         vertex 2.905858e+002 1.493260e+002 1.367705e+002
      endloop
   endfacet
   facet normal 6.946525e-001 7.072689e-001 1.312578e-001
      outer loop
         vertex 2.917694e+002 1.481261e+002 1.369680e+002
         vertex 2.905858e+002 1.493260e+002 1.367705e+002
         vertex 2.905464e+002 1.493260e+002 1.369261e+002
      endloop
   endfacet
   facet normal 7.030632e-001 7.079656e-001 -6.698363e-002
      outer loop
         vertex 2.917694e+002 1.481261e+002 1.357500e+002
         vertex 2.905952e+002 1.493260e+002 1.360618e+002
         vertex 2.918199e+002 1.481261e+002 1.363590e+002
      endloop
   endfacet
   facet normal 7.059851e-001 7.076679e-001 -2.812939e-002
      outer loop
         vertex 2.918199e+002 1.481261e+002 1.363590e+002
         vertex 2.905952e+002 1.493260e+002 1.360618e+002
         vertex 2.906198e+002 1.493260e+002 1.363590e+002
      endloop
   endfacet
   facet normal 7.068689e-001 7.072257e-001 1.296331e-002
      outer loop
         vertex 2.918199e+002 1.481261e+002 1.363590e+002
         vertex 2.906198e+002 1.493260e+002 1.363590e+002
         vertex 2.906085e+002 1.493260e+002 1.364961e+002
      endloop
   endfacet
   facet normal 6.818587e-001 7.079955e-001 -1.838776e-001
      outer loop
         vertex 2.916194e+002 1.481261e+002 1.351576e+002
         vertex 2.905069e+002 1.493260e+002 1.356361e+002
         vertex 2.917694e+002 1.481261e+002 1.357500e+002
      endloop
   endfacet
   facet normal 6.911949e-001 7.077576e-001 -1.460440e-001
      outer loop
         vertex 2.917694e+002 1.481261e+002 1.357500e+002
         vertex 2.905069e+002 1.493260e+002 1.356361e+002
         vertex 2.905858e+002 1.493260e+002 1.359475e+002
      endloop
   endfacet
   facet normal 6.990771e-001 7.071893e-001 -1.057100e-001
      outer loop
         vertex 2.917694e+002 1.481261e+002 1.357500e+002
         vertex 2.905858e+002 1.493260e+002 1.359475e+002
         vertex 2.905952e+002 1.493260e+002 1.360618e+002
      endloop
   endfacet
   facet normal 6.413571e-001 7.080321e-001 -2.955530e-001
      outer loop
         vertex 2.913739e+002 1.481261e+002 1.345980e+002
         vertex 2.903461e+002 1.493260e+002 1.352321e+002
         vertex 2.916194e+002 1.481261e+002 1.351576e+002
      endloop
   endfacet
   facet normal 6.568496e-001 7.078537e-001 -2.597915e-001
      outer loop
         vertex 2.916194e+002 1.481261e+002 1.351576e+002
         vertex 2.903461e+002 1.493260e+002 1.352321e+002
         vertex 2.904844e+002 1.493260e+002 1.355473e+002
      endloop
   endfacet
   facet normal 6.714964e-001 7.071595e-001 -2.214003e-001
      outer loop
         vertex 2.916194e+002 1.481261e+002 1.351576e+002
         vertex 2.904844e+002 1.493260e+002 1.355473e+002
         vertex 2.905069e+002 1.493260e+002 1.356361e+002
      endloop
   endfacet
   facet normal 5.827093e-001 7.080752e-001 -3.988477e-001
      outer loop
         vertex 2.910397e+002 1.481261e+002 1.340864e+002
         vertex 2.901178e+002 1.493260e+002 1.348618e+002
         vertex 2.913739e+002 1.481261e+002 1.345980e+002
      endloop
   endfacet
   facet normal 6.039290e-001 7.079564e-001 -3.661523e-001
      outer loop
         vertex 2.913739e+002 1.481261e+002 1.345980e+002
         vertex 2.901178e+002 1.493260e+002 1.348618e+002
         vertex 2.903185e+002 1.493260e+002 1.351691e+002
      endloop
   endfacet
   facet normal 6.249077e-001 7.071364e-001 -3.308301e-001
      outer loop
         vertex 2.913739e+002 1.481261e+002 1.345980e+002
         vertex 2.903185e+002 1.493260e+002 1.351691e+002
         vertex 2.903461e+002 1.493260e+002 1.352321e+002
      endloop
   endfacet
   facet normal 5.075803e-001 7.081248e-001 -4.908377e-001
      outer loop
         vertex 2.906258e+002 1.481261e+002 1.336368e+002
         vertex 2.898286e+002 1.493260e+002 1.345366e+002
         vertex 2.910397e+002 1.481261e+002 1.340864e+002
      endloop
   endfacet
   facet normal 5.339390e-001 7.080654e-001 -4.621175e-001
      outer loop
         vertex 2.910397e+002 1.481261e+002 1.340864e+002
         vertex 2.898286e+002 1.493260e+002 1.345366e+002
         vertex 2.900927e+002 1.493260e+002 1.348235e+002
      endloop
   endfacet
   facet normal 5.606309e-001 7.071199e-001 -4.308996e-001
      outer loop
         vertex 2.910397e+002 1.481261e+002 1.340864e+002
         vertex 2.900927e+002 1.493260e+002 1.348235e+002
         vertex 2.901178e+002 1.493260e+002 1.348618e+002
      endloop
   endfacet
   facet normal 1.693969e-001 7.071199e-001 -6.865028e-001
      outer loop
         vertex 2.886884e+002 1.493260e+002 1.339280e+002
         vertex 2.887336e+002 1.493260e+002 1.339355e+002
         vertex 2.890281e+002 1.481261e+002 1.327722e+002
      endloop
   endfacet
   facet normal 2.087075e-001 7.080654e-001 -6.745996e-001
      outer loop
         vertex 2.890281e+002 1.481261e+002 1.327722e+002
         vertex 2.887336e+002 1.493260e+002 1.339355e+002
         vertex 2.891024e+002 1.493260e+002 1.340621e+002
      endloop
   endfacet
   facet normal 2.455971e-001 7.081248e-001 -6.619981e-001
      outer loop
         vertex 2.890281e+002 1.481261e+002 1.327722e+002
         vertex 2.891024e+002 1.493260e+002 1.340621e+002
         vertex 2.896061e+002 1.481261e+002 1.329707e+002
      endloop
   endfacet
   facet normal 2.820644e-001 7.071100e-001 -6.484096e-001
      outer loop
         vertex 2.896061e+002 1.481261e+002 1.329707e+002
         vertex 2.891024e+002 1.493260e+002 1.340621e+002
         vertex 2.891241e+002 1.493260e+002 1.340696e+002
      endloop
   endfacet
   facet normal 3.187583e-001 7.081808e-001 -6.299787e-001
      outer loop
         vertex 2.896061e+002 1.481261e+002 1.329707e+002
         vertex 2.891241e+002 1.493260e+002 1.340696e+002
         vertex 2.901436e+002 1.481261e+002 1.332615e+002
      endloop
   endfacet
   facet normal 3.530468e-001 7.081808e-001 -6.114228e-001
      outer loop
         vertex 2.901436e+002 1.481261e+002 1.332615e+002
         vertex 2.891241e+002 1.493260e+002 1.340696e+002
         vertex 2.894872e+002 1.493260e+002 1.342661e+002
      endloop
   endfacet
   facet normal 4.181020e-001 7.081808e-001 -5.689206e-001
      outer loop
         vertex 2.901436e+002 1.481261e+002 1.332615e+002
         vertex 2.894872e+002 1.493260e+002 1.342661e+002
         vertex 2.906258e+002 1.481261e+002 1.336368e+002
      endloop
   endfacet
   facet normal 4.488686e-001 7.081808e-001 -5.449742e-001
      outer loop
         vertex 2.906258e+002 1.481261e+002 1.336368e+002
         vertex 2.894872e+002 1.493260e+002 1.342661e+002
         vertex 2.898131e+002 1.493260e+002 1.345197e+002
      endloop
   endfacet
   facet normal 4.804873e-001 7.071100e-001 -5.187749e-001
      outer loop
         vertex 2.906258e+002 1.481261e+002 1.336368e+002
         vertex 2.898131e+002 1.493260e+002 1.345197e+002
         vertex 2.898286e+002 1.493260e+002 1.345366e+002
      endloop
   endfacet
endsolid