solid 000-UltraSoundMachine_Johnsonville - 300-TableCage-1 311-PlateYoke-4
   facet normal 0.000000e+000 -1.000000e+000 1.589439e-015
      outer loop
         vertex 1.401445e+002 8.255000e+002 9.239250e+001
         vertex 1.401445e+002 8.255000e+002 2.254251e+001
         vertex 1.464945e+002 8.255000e+002 9.239250e+001
      endloop
   endfacet
   facet normal 0.000000e+000 -1.000000e+000 1.589439e-015
      outer loop
         vertex 1.464945e+002 8.255000e+002 9.239250e+001
         vertex 1.401445e+002 8.255000e+002 2.254251e+001
         vertex 1.464945e+002 8.255000e+002 2.254251e+001
      endloop
   endfacet
   facet normal 7.459546e-033 0.000000e+000 1.000000e+000
      outer loop
         vertex 1.401445e+002 9.779000e+002 9.239250e+001
         vertex 1.401445e+002 8.255000e+002 9.239250e+001
         vertex 1.464945e+002 9.779000e+002 9.239250e+001
      endloop
   endfacet
   facet normal 7.459546e-033 0.000000e+000 1.000000e+000
      outer loop
         vertex 1.464945e+002 9.779000e+002 9.239250e+001
         vertex 1.401445e+002 8.255000e+002 9.239250e+001
         vertex 1.464945e+002 8.255000e+002 9.239250e+001
      endloop
   endfacet
   facet normal 0.000000e+000 1.000000e+000 0.000000e+000
      outer loop
         vertex 1.401445e+002 9.779000e+002 2.254251e+001
         vertex 1.401445e+002 9.779000e+002 9.239250e+001
         vertex 1.464945e+002 9.779000e+002 2.254251e+001
      endloop
   endfacet
   facet normal 0.000000e+000 1.000000e+000 0.000000e+000
      outer loop
         vertex 1.464945e+002 9.779000e+002 2.254251e+001
         vertex 1.401445e+002 9.779000e+002 9.239250e+001
         vertex 1.464945e+002 9.779000e+002 9.239250e+001
      endloop
   endfacet
   facet normal -7.459546e-033 3.642464e-016 -1.000000e+000
      outer loop
         vertex 1.401445e+002 8.255000e+002 2.254251e+001
         vertex 1.401445e+002 9.779000e+002 2.254251e+001
         vertex 1.464945e+002 8.255000e+002 2.254251e+001
      endloop
   endfacet
   facet normal -7.459546e-033 3.642464e-016 -1.000000e+000
      outer loop
         vertex 1.464945e+002 8.255000e+002 2.254251e+001
         vertex 1.401445e+002 9.779000e+002 2.254251e+001
         vertex 1.464945e+002 9.779000e+002 2.254251e+001
      endloop
   endfacet
   facet normal -1.000000e+000 0.000000e+000 4.622232e-033
      outer loop
         vertex 1.401445e+002 9.571902e+002 8.181825e+001
         vertex 1.401445e+002 9.572625e+002 8.264524e+001
         vertex 1.401445e+002 9.779000e+002 9.239250e+001
      endloop
   endfacet
   facet normal -1.000000e+000 0.000000e+000 4.622232e-033
      outer loop
         vertex 1.401445e+002 9.779000e+002 9.239250e+001
         vertex 1.401445e+002 9.572625e+002 8.264524e+001
         vertex 1.401445e+002 9.571902e+002 8.347225e+001
      endloop
   endfacet
   facet normal -1.000000e+000 0.000000e+000 4.622232e-033
      outer loop
         vertex 1.401445e+002 8.617253e+002 8.427412e+001
         vertex 1.401445e+002 8.613745e+002 8.502650e+001
         vertex 1.401445e+002 9.480248e+002 8.427412e+001
      endloop
   endfacet
   facet normal -1.000000e+000 0.000000e+000 4.622232e-033
      outer loop
         vertex 1.401445e+002 8.524875e+002 8.264524e+001
         vertex 1.401445e+002 8.255000e+002 9.239250e+001
         vertex 1.401445e+002 8.525599e+002 8.347225e+001
      endloop
   endfacet
   facet normal -1.000000e+000 0.000000e+000 4.622232e-033
      outer loop
         vertex 1.401445e+002 8.525599e+002 8.347225e+001
         vertex 1.401445e+002 8.255000e+002 9.239250e+001
         vertex 1.401445e+002 8.527747e+002 8.427412e+001
      endloop
   endfacet
   facet normal -1.000000e+000 0.000000e+000 4.622232e-033
      outer loop
         vertex 1.401445e+002 8.536017e+002 7.958397e+001
         vertex 1.401445e+002 8.541887e+002 7.899696e+001
         vertex 1.401445e+002 8.255000e+002 2.254251e+001
      endloop
   endfacet
   facet normal -1.000000e+000 0.000000e+000 4.622232e-033
      outer loop
         vertex 1.401445e+002 8.596312e+002 7.852081e+001
         vertex 1.401445e+002 8.603113e+002 7.899696e+001
         vertex 1.401445e+002 9.779000e+002 2.254251e+001
      endloop
   endfacet
   facet normal -1.000000e+000 0.000000e+000 4.622232e-033
      outer loop
         vertex 1.401445e+002 9.571902e+002 8.347225e+001
         vertex 1.401445e+002 9.569753e+002 8.427412e+001
         vertex 1.401445e+002 9.779000e+002 9.239250e+001
      endloop
   endfacet
   facet normal -1.000000e+000 0.000000e+000 4.622232e-033
      outer loop
         vertex 1.401445e+002 9.779000e+002 9.239250e+001
         vertex 1.401445e+002 9.569753e+002 8.427412e+001
         vertex 1.401445e+002 9.566245e+002 8.502650e+001
      endloop
   endfacet
   facet normal -1.000000e+000 0.000000e+000 4.622232e-033
      outer loop
         vertex 1.401445e+002 9.779000e+002 9.239250e+001
         vertex 1.401445e+002 9.566245e+002 8.502650e+001
         vertex 1.401445e+002 9.561483e+002 8.570654e+001
      endloop
   endfacet
   facet normal -1.000000e+000 0.000000e+000 4.622232e-033
      outer loop
         vertex 1.401445e+002 8.524875e+002 8.264524e+001
         vertex 1.401445e+002 8.525599e+002 8.181825e+001
         vertex 1.401445e+002 8.255000e+002 9.239250e+001
      endloop
   endfacet
   facet normal -1.000000e+000 0.000000e+000 4.622232e-033
      outer loop
         vertex 1.401445e+002 8.255000e+002 9.239250e+001
         vertex 1.401445e+002 8.525599e+002 8.181825e+001
         vertex 1.401445e+002 8.527747e+002 8.101637e+001
      endloop
   endfacet
   facet normal -1.000000e+000 0.000000e+000 4.622232e-033
      outer loop
         vertex 1.401445e+002 8.255000e+002 9.239250e+001
         vertex 1.401445e+002 8.527747e+002 8.101637e+001
         vertex 1.401445e+002 8.255000e+002 2.254251e+001
      endloop
   endfacet
   facet normal -1.000000e+000 0.000000e+000 4.622232e-033
      outer loop
         vertex 1.401445e+002 8.255000e+002 2.254251e+001
         vertex 1.401445e+002 8.527747e+002 8.101637e+001
         vertex 1.401445e+002 8.531255e+002 8.026400e+001
      endloop
   endfacet
   facet normal -1.000000e+000 0.000000e+000 4.622232e-033
      outer loop
         vertex 1.401445e+002 8.255000e+002 2.254251e+001
         vertex 1.401445e+002 8.531255e+002 8.026400e+001
         vertex 1.401445e+002 8.536017e+002 7.958397e+001
      endloop
   endfacet
   facet normal -1.000000e+000 0.000000e+000 4.622232e-033
      outer loop
         vertex 1.401445e+002 9.561483e+002 8.570654e+001
         vertex 1.401445e+002 9.555613e+002 8.629352e+001
         vertex 1.401445e+002 9.779000e+002 9.239250e+001
      endloop
   endfacet
   facet normal -1.000000e+000 0.000000e+000 4.622232e-033
      outer loop
         vertex 1.401445e+002 9.779000e+002 9.239250e+001
         vertex 1.401445e+002 9.555613e+002 8.629352e+001
         vertex 1.401445e+002 9.548812e+002 8.676970e+001
      endloop
   endfacet
   facet normal -1.000000e+000 0.000000e+000 4.622232e-033
      outer loop
         vertex 1.401445e+002 9.779000e+002 9.239250e+001
         vertex 1.401445e+002 9.548812e+002 8.676970e+001
         vertex 1.401445e+002 9.541288e+002 8.712053e+001
      endloop
   endfacet
   facet normal -1.000000e+000 0.000000e+000 4.622232e-033
      outer loop
         vertex 1.401445e+002 9.508712e+002 8.712053e+001
         vertex 1.401445e+002 9.501188e+002 8.676970e+001
         vertex 1.401445e+002 8.255000e+002 9.239250e+001
      endloop
   endfacet
   facet normal -1.000000e+000 0.000000e+000 4.622232e-033
      outer loop
         vertex 1.401445e+002 8.255000e+002 9.239250e+001
         vertex 1.401445e+002 9.501188e+002 8.676970e+001
         vertex 1.401445e+002 9.494387e+002 8.629352e+001
      endloop
   endfacet
   facet normal -1.000000e+000 0.000000e+000 4.622232e-033
      outer loop
         vertex 1.401445e+002 9.494387e+002 8.629352e+001
         vertex 1.401445e+002 9.488517e+002 8.570654e+001
         vertex 1.401445e+002 8.255000e+002 9.239250e+001
      endloop
   endfacet
   facet normal -1.000000e+000 0.000000e+000 4.622232e-033
      outer loop
         vertex 1.401445e+002 8.255000e+002 9.239250e+001
         vertex 1.401445e+002 9.488517e+002 8.570654e+001
         vertex 1.401445e+002 9.483756e+002 8.502650e+001
      endloop
   endfacet
   facet normal -1.000000e+000 0.000000e+000 4.622232e-033
      outer loop
         vertex 1.401445e+002 8.255000e+002 9.239250e+001
         vertex 1.401445e+002 9.483756e+002 8.502650e+001
         vertex 1.401445e+002 9.480248e+002 8.427412e+001
      endloop
   endfacet
   facet normal -1.000000e+000 0.000000e+000 4.622232e-033
      outer loop
         vertex 1.401445e+002 8.613745e+002 8.502650e+001
         vertex 1.401445e+002 8.608983e+002 8.570654e+001
         vertex 1.401445e+002 9.480248e+002 8.427412e+001
      endloop
   endfacet
   facet normal -1.000000e+000 0.000000e+000 4.622232e-033
      outer loop
         vertex 1.401445e+002 9.480248e+002 8.427412e+001
         vertex 1.401445e+002 8.608983e+002 8.570654e+001
         vertex 1.401445e+002 8.603113e+002 8.629352e+001
      endloop
   endfacet
   facet normal -1.000000e+000 0.000000e+000 4.622232e-033
      outer loop
         vertex 1.401445e+002 9.480248e+002 8.427412e+001
         vertex 1.401445e+002 8.603113e+002 8.629352e+001
         vertex 1.401445e+002 8.596312e+002 8.676970e+001
      endloop
   endfacet
   facet normal -1.000000e+000 0.000000e+000 4.622232e-033
      outer loop
         vertex 1.401445e+002 8.603113e+002 7.899696e+001
         vertex 1.401445e+002 8.608983e+002 7.958397e+001
         vertex 1.401445e+002 9.779000e+002 2.254251e+001
      endloop
   endfacet
   facet normal -1.000000e+000 0.000000e+000 4.622232e-033
      outer loop
         vertex 1.401445e+002 9.779000e+002 2.254251e+001
         vertex 1.401445e+002 8.608983e+002 7.958397e+001
         vertex 1.401445e+002 8.613745e+002 8.026400e+001
      endloop
   endfacet
   facet normal -1.000000e+000 0.000000e+000 4.622232e-033
      outer loop
         vertex 1.401445e+002 9.779000e+002 2.254251e+001
         vertex 1.401445e+002 8.613745e+002 8.026400e+001
         vertex 1.401445e+002 8.617253e+002 8.101637e+001
      endloop
   endfacet
   facet normal -1.000000e+000 0.000000e+000 4.622232e-033
      outer loop
         vertex 1.401445e+002 8.541887e+002 8.629352e+001
         vertex 1.401445e+002 8.536017e+002 8.570654e+001
         vertex 1.401445e+002 8.255000e+002 9.239250e+001
      endloop
   endfacet
   facet normal -1.000000e+000 0.000000e+000 4.622232e-033
      outer loop
         vertex 1.401445e+002 8.255000e+002 9.239250e+001
         vertex 1.401445e+002 8.536017e+002 8.570654e+001
         vertex 1.401445e+002 8.531255e+002 8.502650e+001
      endloop
   endfacet
   facet normal -1.000000e+000 0.000000e+000 4.622232e-033
      outer loop
         vertex 1.401445e+002 8.255000e+002 9.239250e+001
         vertex 1.401445e+002 8.531255e+002 8.502650e+001
         vertex 1.401445e+002 8.527747e+002 8.427412e+001
      endloop
   endfacet
   facet normal -1.000000e+000 0.000000e+000 4.622232e-033
      outer loop
         vertex 1.401445e+002 8.617253e+002 8.427412e+001
         vertex 1.401445e+002 9.480248e+002 8.427412e+001
         vertex 1.401445e+002 8.619401e+002 8.347225e+001
      endloop
   endfacet
   facet normal -1.000000e+000 0.000000e+000 4.622232e-033
      outer loop
         vertex 1.401445e+002 8.619401e+002 8.347225e+001
         vertex 1.401445e+002 9.480248e+002 8.427412e+001
         vertex 1.401445e+002 9.478099e+002 8.347225e+001
      endloop
   endfacet
   facet normal -1.000000e+000 0.000000e+000 4.622232e-033
      outer loop
         vertex 1.401445e+002 8.619401e+002 8.347225e+001
         vertex 1.401445e+002 9.478099e+002 8.347225e+001
         vertex 1.401445e+002 8.620125e+002 8.264524e+001
      endloop
   endfacet
   facet normal -1.000000e+000 0.000000e+000 4.622232e-033
      outer loop
         vertex 1.401445e+002 8.620125e+002 8.264524e+001
         vertex 1.401445e+002 9.478099e+002 8.347225e+001
         vertex 1.401445e+002 9.477375e+002 8.264524e+001
      endloop
   endfacet
   facet normal -1.000000e+000 0.000000e+000 4.622232e-033
      outer loop
         vertex 1.401445e+002 8.620125e+002 8.264524e+001
         vertex 1.401445e+002 9.477375e+002 8.264524e+001
         vertex 1.401445e+002 8.619401e+002 8.181825e+001
      endloop
   endfacet
   facet normal -1.000000e+000 0.000000e+000 4.622232e-033
      outer loop
         vertex 1.401445e+002 8.619401e+002 8.181825e+001
         vertex 1.401445e+002 9.477375e+002 8.264524e+001
         vertex 1.401445e+002 9.478099e+002 8.181825e+001
      endloop
   endfacet
   facet normal -1.000000e+000 0.000000e+000 4.622232e-033
      outer loop
         vertex 1.401445e+002 8.619401e+002 8.181825e+001
         vertex 1.401445e+002 9.478099e+002 8.181825e+001
         vertex 1.401445e+002 8.617253e+002 8.101637e+001
      endloop
   endfacet
   facet normal -1.000000e+000 0.000000e+000 4.622232e-033
      outer loop
         vertex 1.401445e+002 8.617253e+002 8.101637e+001
         vertex 1.401445e+002 9.478099e+002 8.181825e+001
         vertex 1.401445e+002 9.480248e+002 8.101637e+001
      endloop
   endfacet
   facet normal -1.000000e+000 0.000000e+000 4.622232e-033
      outer loop
         vertex 1.401445e+002 8.617253e+002 8.101637e+001
         vertex 1.401445e+002 9.480248e+002 8.101637e+001
         vertex 1.401445e+002 9.483756e+002 8.026400e+001
      endloop
   endfacet
   facet normal -1.000000e+000 0.000000e+000 4.622232e-033
      outer loop
         vertex 1.401445e+002 9.541288e+002 8.712053e+001
         vertex 1.401445e+002 9.533270e+002 8.733538e+001
         vertex 1.401445e+002 9.779000e+002 9.239250e+001
      endloop
   endfacet
   facet normal -1.000000e+000 0.000000e+000 4.622232e-033
      outer loop
         vertex 1.401445e+002 9.779000e+002 9.239250e+001
         vertex 1.401445e+002 9.533270e+002 8.733538e+001
         vertex 1.401445e+002 9.525001e+002 8.740774e+001
      endloop
   endfacet
   facet normal -1.000000e+000 0.000000e+000 4.622232e-033
      outer loop
         vertex 1.401445e+002 9.779000e+002 9.239250e+001
         vertex 1.401445e+002 9.525001e+002 8.740774e+001
         vertex 1.401445e+002 8.255000e+002 9.239250e+001
      endloop
   endfacet
   facet normal -1.000000e+000 0.000000e+000 4.622232e-033
      outer loop
         vertex 1.401445e+002 8.255000e+002 9.239250e+001
         vertex 1.401445e+002 9.525001e+002 8.740774e+001
         vertex 1.401445e+002 9.516730e+002 8.733538e+001
      endloop
   endfacet
   facet normal -1.000000e+000 0.000000e+000 4.622232e-033
      outer loop
         vertex 1.401445e+002 8.255000e+002 9.239250e+001
         vertex 1.401445e+002 9.516730e+002 8.733538e+001
         vertex 1.401445e+002 9.508712e+002 8.712053e+001
      endloop
   endfacet
   facet normal -1.000000e+000 0.000000e+000 4.622232e-033
      outer loop
         vertex 1.401445e+002 8.541887e+002 7.899696e+001
         vertex 1.401445e+002 8.548688e+002 7.852081e+001
         vertex 1.401445e+002 8.255000e+002 2.254251e+001
      endloop
   endfacet
   facet normal -1.000000e+000 0.000000e+000 4.622232e-033
      outer loop
         vertex 1.401445e+002 8.255000e+002 2.254251e+001
         vertex 1.401445e+002 8.548688e+002 7.852081e+001
         vertex 1.401445e+002 8.556212e+002 7.816998e+001
      endloop
   endfacet
   facet normal -1.000000e+000 0.000000e+000 4.622232e-033
      outer loop
         vertex 1.401445e+002 8.255000e+002 2.254251e+001
         vertex 1.401445e+002 8.556212e+002 7.816998e+001
         vertex 1.401445e+002 8.564230e+002 7.795509e+001
      endloop
   endfacet
   facet normal -1.000000e+000 0.000000e+000 4.622232e-033
      outer loop
         vertex 1.401445e+002 9.483756e+002 8.026400e+001
         vertex 1.401445e+002 9.488517e+002 7.958397e+001
         vertex 1.401445e+002 8.617253e+002 8.101637e+001
      endloop
   endfacet
   facet normal -1.000000e+000 0.000000e+000 4.622232e-033
      outer loop
         vertex 1.401445e+002 8.617253e+002 8.101637e+001
         vertex 1.401445e+002 9.488517e+002 7.958397e+001
         vertex 1.401445e+002 9.494387e+002 7.899696e+001
      endloop
   endfacet
   facet normal -1.000000e+000 0.000000e+000 4.622232e-033
      outer loop
         vertex 1.401445e+002 8.617253e+002 8.101637e+001
         vertex 1.401445e+002 9.494387e+002 7.899696e+001
         vertex 1.401445e+002 9.779000e+002 2.254251e+001
      endloop
   endfacet
   facet normal -1.000000e+000 0.000000e+000 4.622232e-033
      outer loop
         vertex 1.401445e+002 9.779000e+002 2.254251e+001
         vertex 1.401445e+002 9.494387e+002 7.899696e+001
         vertex 1.401445e+002 9.501188e+002 7.852081e+001
      endloop
   endfacet
   facet normal -1.000000e+000 0.000000e+000 4.622232e-033
      outer loop
         vertex 1.401445e+002 9.779000e+002 2.254251e+001
         vertex 1.401445e+002 9.501188e+002 7.852081e+001
         vertex 1.401445e+002 9.508712e+002 7.816998e+001
      endloop
   endfacet
   facet normal -1.000000e+000 0.000000e+000 4.622232e-033
      outer loop
         vertex 1.401445e+002 9.508712e+002 7.816998e+001
         vertex 1.401445e+002 9.516730e+002 7.795509e+001
         vertex 1.401445e+002 9.779000e+002 2.254251e+001
      endloop
   endfacet
   facet normal -1.000000e+000 0.000000e+000 4.622232e-033
      outer loop
         vertex 1.401445e+002 9.779000e+002 2.254251e+001
         vertex 1.401445e+002 9.516730e+002 7.795509e+001
         vertex 1.401445e+002 9.525001e+002 7.788274e+001
      endloop
   endfacet
   facet normal -1.000000e+000 0.000000e+000 4.622232e-033
      outer loop
         vertex 1.401445e+002 9.779000e+002 2.254251e+001
         vertex 1.401445e+002 9.525001e+002 7.788274e+001
         vertex 1.401445e+002 9.533270e+002 7.795509e+001
      endloop
   endfacet
   facet normal -1.000000e+000 0.000000e+000 4.622232e-033
      outer loop
         vertex 1.401445e+002 9.533270e+002 7.795509e+001
         vertex 1.401445e+002 9.541288e+002 7.816998e+001
         vertex 1.401445e+002 9.779000e+002 2.254251e+001
      endloop
   endfacet
   facet normal -1.000000e+000 0.000000e+000 4.622232e-033
      outer loop
         vertex 1.401445e+002 9.779000e+002 2.254251e+001
         vertex 1.401445e+002 9.541288e+002 7.816998e+001
         vertex 1.401445e+002 9.548812e+002 7.852081e+001
      endloop
   endfacet
   facet normal -1.000000e+000 0.000000e+000 4.622232e-033
      outer loop
         vertex 1.401445e+002 9.779000e+002 2.254251e+001
         vertex 1.401445e+002 9.548812e+002 7.852081e+001
         vertex 1.401445e+002 9.555613e+002 7.899696e+001
      endloop
   endfacet
   facet normal -1.000000e+000 0.000000e+000 4.622232e-033
      outer loop
         vertex 1.401445e+002 9.555613e+002 7.899696e+001
         vertex 1.401445e+002 9.561483e+002 7.958397e+001
         vertex 1.401445e+002 9.779000e+002 2.254251e+001
      endloop
   endfacet
   facet normal -1.000000e+000 0.000000e+000 4.622232e-033
      outer loop
         vertex 1.401445e+002 9.779000e+002 2.254251e+001
         vertex 1.401445e+002 9.561483e+002 7.958397e+001
         vertex 1.401445e+002 9.566245e+002 8.026400e+001
      endloop
   endfacet
   facet normal -1.000000e+000 0.000000e+000 4.622232e-033
      outer loop
         vertex 1.401445e+002 9.779000e+002 2.254251e+001
         vertex 1.401445e+002 9.566245e+002 8.026400e+001
         vertex 1.401445e+002 9.779000e+002 9.239250e+001
      endloop
   endfacet
   facet normal -1.000000e+000 0.000000e+000 4.622232e-033
      outer loop
         vertex 1.401445e+002 9.779000e+002 9.239250e+001
         vertex 1.401445e+002 9.566245e+002 8.026400e+001
         vertex 1.401445e+002 9.569753e+002 8.101637e+001
      endloop
   endfacet
   facet normal -1.000000e+000 0.000000e+000 4.622232e-033
      outer loop
         vertex 1.401445e+002 9.779000e+002 9.239250e+001
         vertex 1.401445e+002 9.569753e+002 8.101637e+001
         vertex 1.401445e+002 9.571902e+002 8.181825e+001
      endloop
   endfacet
   facet normal -1.000000e+000 0.000000e+000 4.622232e-033
      outer loop
         vertex 1.401445e+002 8.564230e+002 8.733538e+001
         vertex 1.401445e+002 8.556212e+002 8.712053e+001
         vertex 1.401445e+002 8.255000e+002 9.239250e+001
      endloop
   endfacet
   facet normal -1.000000e+000 0.000000e+000 4.622232e-033
      outer loop
         vertex 1.401445e+002 8.255000e+002 9.239250e+001
         vertex 1.401445e+002 8.556212e+002 8.712053e+001
         vertex 1.401445e+002 8.548688e+002 8.676970e+001
      endloop
   endfacet
   facet normal -1.000000e+000 0.000000e+000 4.622232e-033
      outer loop
         vertex 1.401445e+002 8.255000e+002 9.239250e+001
         vertex 1.401445e+002 8.548688e+002 8.676970e+001
         vertex 1.401445e+002 8.541887e+002 8.629352e+001
      endloop
   endfacet
   facet normal -1.000000e+000 0.000000e+000 4.622232e-033
      outer loop
         vertex 1.401445e+002 8.564230e+002 7.795509e+001
         vertex 1.401445e+002 8.572501e+002 7.788274e+001
         vertex 1.401445e+002 8.255000e+002 2.254251e+001
      endloop
   endfacet
   facet normal -1.000000e+000 0.000000e+000 4.622232e-033
      outer loop
         vertex 1.401445e+002 8.255000e+002 2.254251e+001
         vertex 1.401445e+002 8.572501e+002 7.788274e+001
         vertex 1.401445e+002 8.580770e+002 7.795509e+001
      endloop
   endfacet
   facet normal -1.000000e+000 0.000000e+000 4.622232e-033
      outer loop
         vertex 1.401445e+002 8.255000e+002 2.254251e+001
         vertex 1.401445e+002 8.580770e+002 7.795509e+001
         vertex 1.401445e+002 9.779000e+002 2.254251e+001
      endloop
   endfacet
   facet normal -1.000000e+000 0.000000e+000 4.622232e-033
      outer loop
         vertex 1.401445e+002 9.779000e+002 2.254251e+001
         vertex 1.401445e+002 8.580770e+002 7.795509e+001
         vertex 1.401445e+002 8.588789e+002 7.816998e+001
      endloop
   endfacet
   facet normal -1.000000e+000 0.000000e+000 4.622232e-033
      outer loop
         vertex 1.401445e+002 9.779000e+002 2.254251e+001
         vertex 1.401445e+002 8.588789e+002 7.816998e+001
         vertex 1.401445e+002 8.596312e+002 7.852081e+001
      endloop
   endfacet
   facet normal -1.000000e+000 0.000000e+000 4.622232e-033
      outer loop
         vertex 1.401445e+002 8.596312e+002 8.676970e+001
         vertex 1.401445e+002 8.588789e+002 8.712053e+001
         vertex 1.401445e+002 9.480248e+002 8.427412e+001
      endloop
   endfacet
   facet normal -1.000000e+000 0.000000e+000 4.622232e-033
      outer loop
         vertex 1.401445e+002 9.480248e+002 8.427412e+001
         vertex 1.401445e+002 8.588789e+002 8.712053e+001
         vertex 1.401445e+002 8.580770e+002 8.733538e+001
      endloop
   endfacet
   facet normal -1.000000e+000 0.000000e+000 4.622232e-033
      outer loop
         vertex 1.401445e+002 9.480248e+002 8.427412e+001
         vertex 1.401445e+002 8.580770e+002 8.733538e+001
         vertex 1.401445e+002 8.255000e+002 9.239250e+001
      endloop
   endfacet
   facet normal -1.000000e+000 0.000000e+000 4.622232e-033
      outer loop
         vertex 1.401445e+002 8.255000e+002 9.239250e+001
         vertex 1.401445e+002 8.580770e+002 8.733538e+001
         vertex 1.401445e+002 8.572501e+002 8.740774e+001
      endloop
   endfacet
   facet normal -1.000000e+000 0.000000e+000 4.622232e-033
      outer loop
         vertex 1.401445e+002 8.255000e+002 9.239250e+001
         vertex 1.401445e+002 8.572501e+002 8.740774e+001
         vertex 1.401445e+002 8.564230e+002 8.733538e+001
      endloop
   endfacet
   facet normal 1.000000e+000 0.000000e+000 -4.622232e-033
      outer loop
         vertex 1.464945e+002 8.525599e+002 8.181825e+001
         vertex 1.464945e+002 8.524875e+002 8.264524e+001
         vertex 1.464945e+002 8.255000e+002 9.239250e+001
      endloop
   endfacet
   facet normal 1.000000e+000 0.000000e+000 -4.622232e-033
      outer loop
         vertex 1.464945e+002 8.524875e+002 8.264524e+001
         vertex 1.464945e+002 8.525599e+002 8.347225e+001
         vertex 1.464945e+002 8.255000e+002 9.239250e+001
      endloop
   endfacet
   facet normal 1.000000e+000 0.000000e+000 -4.622232e-033
      outer loop
         vertex 1.464945e+002 8.255000e+002 9.239250e+001
         vertex 1.464945e+002 8.525599e+002 8.347225e+001
         vertex 1.464945e+002 8.527747e+002 8.427412e+001
      endloop
   endfacet
   facet normal 1.000000e+000 0.000000e+000 -4.622232e-033
      outer loop
         vertex 1.464945e+002 8.255000e+002 9.239250e+001
         vertex 1.464945e+002 8.527747e+002 8.427412e+001
         vertex 1.464945e+002 8.531255e+002 8.502650e+001
      endloop
   endfacet
   facet normal 1.000000e+000 0.000000e+000 -4.622232e-033
      outer loop
         vertex 1.464945e+002 8.617253e+002 8.101637e+001
         vertex 1.464945e+002 8.613745e+002 8.026400e+001
         vertex 1.464945e+002 9.779000e+002 2.254251e+001
      endloop
   endfacet
   facet normal 1.000000e+000 0.000000e+000 -4.622232e-033
      outer loop
         vertex 1.464945e+002 9.779000e+002 2.254251e+001
         vertex 1.464945e+002 8.613745e+002 8.026400e+001
         vertex 1.464945e+002 8.608983e+002 7.958397e+001
      endloop
   endfacet
   facet normal 1.000000e+000 0.000000e+000 -4.622232e-033
      outer loop
         vertex 1.464945e+002 8.531255e+002 8.502650e+001
         vertex 1.464945e+002 8.536017e+002 8.570654e+001
         vertex 1.464945e+002 8.255000e+002 9.239250e+001
      endloop
   endfacet
   facet normal 1.000000e+000 0.000000e+000 -4.622232e-033
      outer loop
         vertex 1.464945e+002 8.255000e+002 9.239250e+001
         vertex 1.464945e+002 8.536017e+002 8.570654e+001
         vertex 1.464945e+002 8.541887e+002 8.629352e+001
      endloop
   endfacet
   facet normal 1.000000e+000 0.000000e+000 -4.622232e-033
      outer loop
         vertex 1.464945e+002 8.255000e+002 9.239250e+001
         vertex 1.464945e+002 8.541887e+002 8.629352e+001
         vertex 1.464945e+002 8.548688e+002 8.676970e+001
      endloop
   endfacet
   facet normal 1.000000e+000 0.000000e+000 -4.622232e-033
      outer loop
         vertex 1.464945e+002 9.571902e+002 8.347225e+001
         vertex 1.464945e+002 9.572625e+002 8.264524e+001
         vertex 1.464945e+002 9.779000e+002 9.239250e+001
      endloop
   endfacet
   facet normal 1.000000e+000 0.000000e+000 -4.622232e-033
      outer loop
         vertex 1.464945e+002 8.541887e+002 7.899696e+001
         vertex 1.464945e+002 8.536017e+002 7.958397e+001
         vertex 1.464945e+002 8.255000e+002 2.254251e+001
      endloop
   endfacet
   facet normal 1.000000e+000 0.000000e+000 -4.622232e-033
      outer loop
         vertex 1.464945e+002 8.255000e+002 2.254251e+001
         vertex 1.464945e+002 8.536017e+002 7.958397e+001
         vertex 1.464945e+002 8.531255e+002 8.026400e+001
      endloop
   endfacet
   facet normal 1.000000e+000 0.000000e+000 -4.622232e-033
      outer loop
         vertex 1.464945e+002 8.255000e+002 2.254251e+001
         vertex 1.464945e+002 8.531255e+002 8.026400e+001
         vertex 1.464945e+002 8.255000e+002 9.239250e+001
      endloop
   endfacet
   facet normal 1.000000e+000 0.000000e+000 -4.622232e-033
      outer loop
         vertex 1.464945e+002 8.255000e+002 9.239250e+001
         vertex 1.464945e+002 8.531255e+002 8.026400e+001
         vertex 1.464945e+002 8.527747e+002 8.101637e+001
      endloop
   endfacet
   facet normal 1.000000e+000 0.000000e+000 -4.622232e-033
      outer loop
         vertex 1.464945e+002 8.255000e+002 9.239250e+001
         vertex 1.464945e+002 8.527747e+002 8.101637e+001
         vertex 1.464945e+002 8.525599e+002 8.181825e+001
      endloop
   endfacet
   facet normal 1.000000e+000 0.000000e+000 -4.622232e-033
      outer loop
         vertex 1.464945e+002 9.488517e+002 8.570654e+001
         vertex 1.464945e+002 8.255000e+002 9.239250e+001
         vertex 1.464945e+002 9.483756e+002 8.502650e+001
      endloop
   endfacet
   facet normal 1.000000e+000 0.000000e+000 -4.622232e-033
      outer loop
         vertex 1.464945e+002 9.483756e+002 8.502650e+001
         vertex 1.464945e+002 8.255000e+002 9.239250e+001
         vertex 1.464945e+002 9.480248e+002 8.427412e+001
      endloop
   endfacet
   facet normal 1.000000e+000 0.000000e+000 -4.622232e-033
      outer loop
         vertex 1.464945e+002 8.548688e+002 8.676970e+001
         vertex 1.464945e+002 8.556212e+002 8.712053e+001
         vertex 1.464945e+002 8.255000e+002 9.239250e+001
      endloop
   endfacet
   facet normal 1.000000e+000 0.000000e+000 -4.622232e-033
      outer loop
         vertex 1.464945e+002 8.255000e+002 9.239250e+001
         vertex 1.464945e+002 8.556212e+002 8.712053e+001
         vertex 1.464945e+002 8.564230e+002 8.733538e+001
      endloop
   endfacet
   facet normal 1.000000e+000 0.000000e+000 -4.622232e-033
      outer loop
         vertex 1.464945e+002 8.255000e+002 9.239250e+001
         vertex 1.464945e+002 8.564230e+002 8.733538e+001
         vertex 1.464945e+002 8.572501e+002 8.740774e+001
      endloop
   endfacet
   facet normal 1.000000e+000 0.000000e+000 -4.622232e-033
      outer loop
         vertex 1.464945e+002 9.488517e+002 8.570654e+001
         vertex 1.464945e+002 9.494387e+002 8.629352e+001
         vertex 1.464945e+002 8.255000e+002 9.239250e+001
      endloop
   endfacet
   facet normal 1.000000e+000 0.000000e+000 -4.622232e-033
      outer loop
         vertex 1.464945e+002 8.255000e+002 9.239250e+001
         vertex 1.464945e+002 9.494387e+002 8.629352e+001
         vertex 1.464945e+002 9.501188e+002 8.676970e+001
      endloop
   endfacet
   facet normal 1.000000e+000 0.000000e+000 -4.622232e-033
      outer loop
         vertex 1.464945e+002 8.255000e+002 9.239250e+001
         vertex 1.464945e+002 9.501188e+002 8.676970e+001
         vertex 1.464945e+002 9.508712e+002 8.712053e+001
      endloop
   endfacet
   facet normal 1.000000e+000 0.000000e+000 -4.622232e-033
      outer loop
         vertex 1.464945e+002 9.541288e+002 8.712053e+001
         vertex 1.464945e+002 9.548812e+002 8.676970e+001
         vertex 1.464945e+002 9.779000e+002 9.239250e+001
      endloop
   endfacet
   facet normal 1.000000e+000 0.000000e+000 -4.622232e-033
      outer loop
         vertex 1.464945e+002 9.779000e+002 9.239250e+001
         vertex 1.464945e+002 9.548812e+002 8.676970e+001
         vertex 1.464945e+002 9.555613e+002 8.629352e+001
      endloop
   endfacet
   facet normal 1.000000e+000 0.000000e+000 -4.622232e-033
      outer loop
         vertex 1.464945e+002 9.779000e+002 9.239250e+001
         vertex 1.464945e+002 9.555613e+002 8.629352e+001
         vertex 1.464945e+002 9.561483e+002 8.570654e+001
      endloop
   endfacet
   facet normal 1.000000e+000 0.000000e+000 -4.622232e-033
      outer loop
         vertex 1.464945e+002 9.561483e+002 8.570654e+001
         vertex 1.464945e+002 9.566245e+002 8.502650e+001
         vertex 1.464945e+002 9.779000e+002 9.239250e+001
      endloop
   endfacet
   facet normal 1.000000e+000 0.000000e+000 -4.622232e-033
      outer loop
         vertex 1.464945e+002 9.779000e+002 9.239250e+001
         vertex 1.464945e+002 9.566245e+002 8.502650e+001
         vertex 1.464945e+002 9.569753e+002 8.427412e+001
      endloop
   endfacet
   facet normal 1.000000e+000 0.000000e+000 -4.622232e-033
      outer loop
         vertex 1.464945e+002 9.779000e+002 9.239250e+001
         vertex 1.464945e+002 9.569753e+002 8.427412e+001
         vertex 1.464945e+002 9.571902e+002 8.347225e+001
      endloop
   endfacet
   facet normal 1.000000e+000 0.000000e+000 -4.622232e-033
      outer loop
         vertex 1.464945e+002 8.596312e+002 8.676970e+001
         vertex 1.464945e+002 8.603113e+002 8.629352e+001
         vertex 1.464945e+002 9.477375e+002 8.264524e+001
      endloop
   endfacet
   facet normal 1.000000e+000 0.000000e+000 -4.622232e-033
      outer loop
         vertex 1.464945e+002 8.608983e+002 7.958397e+001
         vertex 1.464945e+002 8.603113e+002 7.899696e+001
         vertex 1.464945e+002 9.779000e+002 2.254251e+001
      endloop
   endfacet
   facet normal 1.000000e+000 0.000000e+000 -4.622232e-033
      outer loop
         vertex 1.464945e+002 9.779000e+002 2.254251e+001
         vertex 1.464945e+002 8.603113e+002 7.899696e+001
         vertex 1.464945e+002 8.596312e+002 7.852081e+001
      endloop
   endfacet
   facet normal 1.000000e+000 0.000000e+000 -4.622232e-033
      outer loop
         vertex 1.464945e+002 9.779000e+002 2.254251e+001
         vertex 1.464945e+002 8.596312e+002 7.852081e+001
         vertex 1.464945e+002 8.255000e+002 2.254251e+001
      endloop
   endfacet
   facet normal 1.000000e+000 0.000000e+000 -4.622232e-033
      outer loop
         vertex 1.464945e+002 8.255000e+002 2.254251e+001
         vertex 1.464945e+002 8.596312e+002 7.852081e+001
         vertex 1.464945e+002 8.588789e+002 7.816998e+001
      endloop
   endfacet
   facet normal 1.000000e+000 0.000000e+000 -4.622232e-033
      outer loop
         vertex 1.464945e+002 8.588789e+002 7.816998e+001
         vertex 1.464945e+002 8.580770e+002 7.795509e+001
         vertex 1.464945e+002 8.255000e+002 2.254251e+001
      endloop
   endfacet
   facet normal 1.000000e+000 0.000000e+000 -4.622232e-033
      outer loop
         vertex 1.464945e+002 8.255000e+002 2.254251e+001
         vertex 1.464945e+002 8.580770e+002 7.795509e+001
         vertex 1.464945e+002 8.572501e+002 7.788274e+001
      endloop
   endfacet
   facet normal 1.000000e+000 0.000000e+000 -4.622232e-033
      outer loop
         vertex 1.464945e+002 8.255000e+002 2.254251e+001
         vertex 1.464945e+002 8.572501e+002 7.788274e+001
         vertex 1.464945e+002 8.564230e+002 7.795509e+001
      endloop
   endfacet
   facet normal 1.000000e+000 0.000000e+000 -4.622232e-033
      outer loop
         vertex 1.464945e+002 8.564230e+002 7.795509e+001
         vertex 1.464945e+002 8.556212e+002 7.816998e+001
         vertex 1.464945e+002 8.255000e+002 2.254251e+001
      endloop
   endfacet
   facet normal 1.000000e+000 0.000000e+000 -4.622232e-033
      outer loop
         vertex 1.464945e+002 8.255000e+002 2.254251e+001
         vertex 1.464945e+002 8.556212e+002 7.816998e+001
         vertex 1.464945e+002 8.548688e+002 7.852081e+001
      endloop
   endfacet
   facet normal 1.000000e+000 0.000000e+000 -4.622232e-033
      outer loop
         vertex 1.464945e+002 8.255000e+002 2.254251e+001
         vertex 1.464945e+002 8.548688e+002 7.852081e+001
         vertex 1.464945e+002 8.541887e+002 7.899696e+001
      endloop
   endfacet
   facet normal 1.000000e+000 0.000000e+000 -4.622232e-033
      outer loop
         vertex 1.464945e+002 9.508712e+002 8.712053e+001
         vertex 1.464945e+002 9.516730e+002 8.733538e+001
         vertex 1.464945e+002 8.255000e+002 9.239250e+001
      endloop
   endfacet
   facet normal 1.000000e+000 0.000000e+000 -4.622232e-033
      outer loop
         vertex 1.464945e+002 8.255000e+002 9.239250e+001
         vertex 1.464945e+002 9.516730e+002 8.733538e+001
         vertex 1.464945e+002 9.525001e+002 8.740774e+001
      endloop
   endfacet
   facet normal 1.000000e+000 0.000000e+000 -4.622232e-033
      outer loop
         vertex 1.464945e+002 8.255000e+002 9.239250e+001
         vertex 1.464945e+002 9.525001e+002 8.740774e+001
         vertex 1.464945e+002 9.779000e+002 9.239250e+001
      endloop
   endfacet
   facet normal 1.000000e+000 0.000000e+000 -4.622232e-033
      outer loop
         vertex 1.464945e+002 9.779000e+002 9.239250e+001
         vertex 1.464945e+002 9.525001e+002 8.740774e+001
         vertex 1.464945e+002 9.533270e+002 8.733538e+001
      endloop
   endfacet
   facet normal 1.000000e+000 0.000000e+000 -4.622232e-033
      outer loop
         vertex 1.464945e+002 9.779000e+002 9.239250e+001
         vertex 1.464945e+002 9.533270e+002 8.733538e+001
         vertex 1.464945e+002 9.541288e+002 8.712053e+001
      endloop
   endfacet
   facet normal 1.000000e+000 0.000000e+000 -4.622232e-033
      outer loop
         vertex 1.464945e+002 9.572625e+002 8.264524e+001
         vertex 1.464945e+002 9.571902e+002 8.181825e+001
         vertex 1.464945e+002 9.779000e+002 9.239250e+001
      endloop
   endfacet
   facet normal 1.000000e+000 0.000000e+000 -4.622232e-033
      outer loop
         vertex 1.464945e+002 9.779000e+002 9.239250e+001
         vertex 1.464945e+002 9.571902e+002 8.181825e+001
         vertex 1.464945e+002 9.569753e+002 8.101637e+001
      endloop
   endfacet
   facet normal 1.000000e+000 0.000000e+000 -4.622232e-033
      outer loop
         vertex 1.464945e+002 9.779000e+002 9.239250e+001
         vertex 1.464945e+002 9.569753e+002 8.101637e+001
         vertex 1.464945e+002 9.779000e+002 2.254251e+001
      endloop
   endfacet
   facet normal 1.000000e+000 0.000000e+000 -4.622232e-033
      outer loop
         vertex 1.464945e+002 9.779000e+002 2.254251e+001
         vertex 1.464945e+002 9.569753e+002 8.101637e+001
         vertex 1.464945e+002 9.566245e+002 8.026400e+001
      endloop
   endfacet
   facet normal 1.000000e+000 0.000000e+000 -4.622232e-033
      outer loop
         vertex 1.464945e+002 9.779000e+002 2.254251e+001
         vertex 1.464945e+002 9.566245e+002 8.026400e+001
         vertex 1.464945e+002 9.561483e+002 7.958397e+001
      endloop
   endfacet
   facet normal 1.000000e+000 0.000000e+000 -4.622232e-033
      outer loop
         vertex 1.464945e+002 9.561483e+002 7.958397e+001
         vertex 1.464945e+002 9.555613e+002 7.899696e+001
         vertex 1.464945e+002 9.779000e+002 2.254251e+001
      endloop
   endfacet
   facet normal 1.000000e+000 0.000000e+000 -4.622232e-033
      outer loop
         vertex 1.464945e+002 9.779000e+002 2.254251e+001
         vertex 1.464945e+002 9.555613e+002 7.899696e+001
         vertex 1.464945e+002 9.548812e+002 7.852081e+001
      endloop
   endfacet
   facet normal 1.000000e+000 0.000000e+000 -4.622232e-033
      outer loop
         vertex 1.464945e+002 9.779000e+002 2.254251e+001
         vertex 1.464945e+002 9.548812e+002 7.852081e+001
         vertex 1.464945e+002 9.541288e+002 7.816998e+001
      endloop
   endfacet
   facet normal 1.000000e+000 0.000000e+000 -4.622232e-033
      outer loop
         vertex 1.464945e+002 9.488517e+002 7.958397e+001
         vertex 1.464945e+002 9.483756e+002 8.026400e+001
         vertex 1.464945e+002 8.617253e+002 8.101637e+001
      endloop
   endfacet
   facet normal 1.000000e+000 0.000000e+000 -4.622232e-033
      outer loop
         vertex 1.464945e+002 8.617253e+002 8.101637e+001
         vertex 1.464945e+002 9.483756e+002 8.026400e+001
         vertex 1.464945e+002 9.480248e+002 8.101637e+001
      endloop
   endfacet
   facet normal 1.000000e+000 0.000000e+000 -4.622232e-033
      outer loop
         vertex 1.464945e+002 8.617253e+002 8.101637e+001
         vertex 1.464945e+002 9.480248e+002 8.101637e+001
         vertex 1.464945e+002 9.478099e+002 8.181825e+001
      endloop
   endfacet
   facet normal 1.000000e+000 0.000000e+000 -4.622232e-033
      outer loop
         vertex 1.464945e+002 8.596312e+002 8.676970e+001
         vertex 1.464945e+002 9.477375e+002 8.264524e+001
         vertex 1.464945e+002 8.588789e+002 8.712053e+001
      endloop
   endfacet
   facet normal 1.000000e+000 0.000000e+000 -4.622232e-033
      outer loop
         vertex 1.464945e+002 8.603113e+002 8.629352e+001
         vertex 1.464945e+002 8.608983e+002 8.570654e+001
         vertex 1.464945e+002 9.477375e+002 8.264524e+001
      endloop
   endfacet
   facet normal 1.000000e+000 0.000000e+000 -4.622232e-033
      outer loop
         vertex 1.464945e+002 9.477375e+002 8.264524e+001
         vertex 1.464945e+002 8.608983e+002 8.570654e+001
         vertex 1.464945e+002 8.613745e+002 8.502650e+001
      endloop
   endfacet
   facet normal 1.000000e+000 0.000000e+000 -4.622232e-033
      outer loop
         vertex 1.464945e+002 9.477375e+002 8.264524e+001
         vertex 1.464945e+002 8.613745e+002 8.502650e+001
         vertex 1.464945e+002 8.617253e+002 8.427412e+001
      endloop
   endfacet
   facet normal 1.000000e+000 0.000000e+000 -4.622232e-033
      outer loop
         vertex 1.464945e+002 9.541288e+002 7.816998e+001
         vertex 1.464945e+002 9.533270e+002 7.795509e+001
         vertex 1.464945e+002 9.779000e+002 2.254251e+001
      endloop
   endfacet
   facet normal 1.000000e+000 0.000000e+000 -4.622232e-033
      outer loop
         vertex 1.464945e+002 9.779000e+002 2.254251e+001
         vertex 1.464945e+002 9.533270e+002 7.795509e+001
         vertex 1.464945e+002 9.525001e+002 7.788274e+001
      endloop
   endfacet
   facet normal 1.000000e+000 0.000000e+000 -4.622232e-033
      outer loop
         vertex 1.464945e+002 9.779000e+002 2.254251e+001
         vertex 1.464945e+002 9.525001e+002 7.788274e+001
         vertex 1.464945e+002 9.516730e+002 7.795509e+001
      endloop
   endfacet
   facet normal 1.000000e+000 0.000000e+000 -4.622232e-033
      outer loop
         vertex 1.464945e+002 9.516730e+002 7.795509e+001
         vertex 1.464945e+002 9.508712e+002 7.816998e+001
         vertex 1.464945e+002 9.779000e+002 2.254251e+001
      endloop
   endfacet
   facet normal 1.000000e+000 0.000000e+000 -4.622232e-033
      outer loop
         vertex 1.464945e+002 9.779000e+002 2.254251e+001
         vertex 1.464945e+002 9.508712e+002 7.816998e+001
         vertex 1.464945e+002 9.501188e+002 7.852081e+001
      endloop
   endfacet
   facet normal 1.000000e+000 0.000000e+000 -4.622232e-033
      outer loop
         vertex 1.464945e+002 9.779000e+002 2.254251e+001
         vertex 1.464945e+002 9.501188e+002 7.852081e+001
         vertex 1.464945e+002 8.617253e+002 8.101637e+001
      endloop
   endfacet
   facet normal 1.000000e+000 0.000000e+000 -4.622232e-033
      outer loop
         vertex 1.464945e+002 8.617253e+002 8.101637e+001
         vertex 1.464945e+002 9.501188e+002 7.852081e+001
         vertex 1.464945e+002 9.494387e+002 7.899696e+001
      endloop
   endfacet
   facet normal 1.000000e+000 0.000000e+000 -4.622232e-033
      outer loop
         vertex 1.464945e+002 8.617253e+002 8.101637e+001
         vertex 1.464945e+002 9.494387e+002 7.899696e+001
         vertex 1.464945e+002 9.488517e+002 7.958397e+001
      endloop
   endfacet
   facet normal 1.000000e+000 0.000000e+000 -4.622232e-033
      outer loop
         vertex 1.464945e+002 9.480248e+002 8.427412e+001
         vertex 1.464945e+002 8.255000e+002 9.239250e+001
         vertex 1.464945e+002 9.478099e+002 8.347225e+001
      endloop
   endfacet
   facet normal 1.000000e+000 0.000000e+000 -4.622232e-033
      outer loop
         vertex 1.464945e+002 9.478099e+002 8.347225e+001
         vertex 1.464945e+002 8.255000e+002 9.239250e+001
         vertex 1.464945e+002 8.572501e+002 8.740774e+001
      endloop
   endfacet
   facet normal 1.000000e+000 0.000000e+000 -4.622232e-033
      outer loop
         vertex 1.464945e+002 9.478099e+002 8.347225e+001
         vertex 1.464945e+002 8.572501e+002 8.740774e+001
         vertex 1.464945e+002 9.477375e+002 8.264524e+001
      endloop
   endfacet
   facet normal 1.000000e+000 0.000000e+000 -4.622232e-033
      outer loop
         vertex 1.464945e+002 9.477375e+002 8.264524e+001
         vertex 1.464945e+002 8.572501e+002 8.740774e+001
         vertex 1.464945e+002 8.580770e+002 8.733538e+001
      endloop
   endfacet
   facet normal 1.000000e+000 0.000000e+000 -4.622232e-033
      outer loop
         vertex 1.464945e+002 9.477375e+002 8.264524e+001
         vertex 1.464945e+002 8.580770e+002 8.733538e+001
         vertex 1.464945e+002 8.588789e+002 8.712053e+001
      endloop
   endfacet
   facet normal 1.000000e+000 0.000000e+000 -4.622232e-033
      outer loop
         vertex 1.464945e+002 8.617253e+002 8.427412e+001
         vertex 1.464945e+002 8.619401e+002 8.347225e+001
         vertex 1.464945e+002 9.477375e+002 8.264524e+001
      endloop
   endfacet
   facet normal 1.000000e+000 0.000000e+000 -4.622232e-033
      outer loop
         vertex 1.464945e+002 9.477375e+002 8.264524e+001
         vertex 1.464945e+002 8.619401e+002 8.347225e+001
         vertex 1.464945e+002 8.620125e+002 8.264524e+001
      endloop
   endfacet
   facet normal 1.000000e+000 0.000000e+000 -4.622232e-033
      outer loop
         vertex 1.464945e+002 9.477375e+002 8.264524e+001
         vertex 1.464945e+002 8.620125e+002 8.264524e+001
         vertex 1.464945e+002 9.478099e+002 8.181825e+001
      endloop
   endfacet
   facet normal 1.000000e+000 0.000000e+000 -4.622232e-033
      outer loop
         vertex 1.464945e+002 9.478099e+002 8.181825e+001
         vertex 1.464945e+002 8.620125e+002 8.264524e+001
         vertex 1.464945e+002 8.619401e+002 8.181825e+001
      endloop
   endfacet
   facet normal 1.000000e+000 0.000000e+000 -4.622232e-033
      outer loop
         vertex 1.464945e+002 9.478099e+002 8.181825e+001
         vertex 1.464945e+002 8.619401e+002 8.181825e+001
         vertex 1.464945e+002 8.617253e+002 8.101637e+001
      endloop
   endfacet
   facet normal -4.332440e-034 -9.983120e-001 -5.807914e-002
      outer loop
         vertex 1.464945e+002 9.571902e+002 8.347225e+001
         vertex 1.401445e+002 9.572625e+002 8.264524e+001
         vertex 1.464945e+002 9.572625e+002 8.264524e+001
      endloop
   endfacet
   facet normal 4.332440e-034 -9.983120e-001 5.807914e-002
      outer loop
         vertex 1.464945e+002 9.572625e+002 8.264524e+001
         vertex 1.401445e+002 9.572625e+002 8.264524e+001
         vertex 1.401445e+002 9.571902e+002 8.181825e+001
      endloop
   endfacet
   facet normal 8.664880e-034 -9.932307e-001 1.161583e-001
      outer loop
         vertex 1.464945e+002 9.572625e+002 8.264524e+001
         vertex 1.401445e+002 9.571902e+002 8.181825e+001
         vertex 1.464945e+002 9.571902e+002 8.181825e+001
      endloop
   endfacet
   facet normal 1.719812e-033 -9.730600e-001 2.305519e-001
      outer loop
         vertex 1.464945e+002 9.571902e+002 8.181825e+001
         vertex 1.401445e+002 9.571902e+002 8.181825e+001
         vertex 1.401445e+002 9.569753e+002 8.101637e+001
      endloop
   endfacet
   facet normal 2.139892e-033 -9.579706e-001 2.868663e-001
      outer loop
         vertex 1.464945e+002 9.571902e+002 8.181825e+001
         vertex 1.401445e+002 9.569753e+002 8.101637e+001
         vertex 1.464945e+002 9.569753e+002 8.101637e+001
      endloop
   endfacet
   facet normal 2.954125e-033 -9.182422e-001 3.960194e-001
      outer loop
         vertex 1.464945e+002 9.569753e+002 8.101637e+001
         vertex 1.401445e+002 9.569753e+002 8.101637e+001
         vertex 1.401445e+002 9.566245e+002 8.026400e+001
      endloop
   endfacet
   facet normal 3.348277e-033 -8.936031e-001 4.488580e-001
      outer loop
         vertex 1.464945e+002 9.569753e+002 8.101637e+001
         vertex 1.401445e+002 9.566245e+002 8.026400e+001
         vertex 1.464945e+002 9.566245e+002 8.026400e+001
      endloop
   endfacet
   facet normal 4.098678e-033 -8.355240e-001 5.494540e-001
      outer loop
         vertex 1.464945e+002 9.566245e+002 8.026400e+001
         vertex 1.401445e+002 9.566245e+002 8.026400e+001
         vertex 1.401445e+002 9.561483e+002 7.958397e+001
      endloop
   endfacet
   facet normal 4.454926e-033 -8.020839e-001 5.972114e-001
      outer loop
         vertex 1.464945e+002 9.566245e+002 8.026400e+001
         vertex 1.401445e+002 9.561483e+002 7.958397e+001
         vertex 1.464945e+002 9.561483e+002 7.958397e+001
      endloop
   endfacet
   facet normal 5.118694e-033 -7.274188e-001 6.861938e-001
      outer loop
         vertex 1.464945e+002 9.561483e+002 7.958397e+001
         vertex 1.401445e+002 9.561483e+002 7.958397e+001
         vertex 1.401445e+002 9.555613e+002 7.899696e+001
      endloop
   endfacet
   facet normal 5.426214e-033 -6.861938e-001 7.274188e-001
      outer loop
         vertex 1.464945e+002 9.561483e+002 7.958397e+001
         vertex 1.401445e+002 9.555613e+002 7.899696e+001
         vertex 1.464945e+002 9.555613e+002 7.899696e+001
      endloop
   endfacet
   facet normal 5.983182e-033 -5.972114e-001 8.020839e-001
      outer loop
         vertex 1.464945e+002 9.555613e+002 7.899696e+001
         vertex 1.401445e+002 9.555613e+002 7.899696e+001
         vertex 1.401445e+002 9.548812e+002 7.852081e+001
      endloop
   endfacet
   facet normal 6.232630e-033 -5.494540e-001 8.355240e-001
      outer loop
         vertex 1.464945e+002 9.555613e+002 7.899696e+001
         vertex 1.401445e+002 9.548812e+002 7.852081e+001
         vertex 1.464945e+002 9.548812e+002 7.852081e+001
      endloop
   endfacet
   facet normal 6.665874e-033 -4.488580e-001 8.936031e-001
      outer loop
         vertex 1.464945e+002 9.548812e+002 7.852081e+001
         vertex 1.401445e+002 9.548812e+002 7.852081e+001
         vertex 1.401445e+002 9.541288e+002 7.816998e+001
      endloop
   endfacet
   facet normal 6.849669e-033 -3.960194e-001 9.182422e-001
      outer loop
         vertex 1.464945e+002 9.548812e+002 7.852081e+001
         vertex 1.401445e+002 9.541288e+002 7.816998e+001
         vertex 1.464945e+002 9.541288e+002 7.816998e+001
      endloop
   endfacet
   facet normal 7.146026e-033 -2.868663e-001 9.579706e-001
      outer loop
         vertex 1.464945e+002 9.541288e+002 7.816998e+001
         vertex 1.401445e+002 9.541288e+002 7.816998e+001
         vertex 1.401445e+002 9.533270e+002 7.795509e+001
      endloop
   endfacet
   facet normal 7.258587e-033 -2.305519e-001 9.730600e-001
      outer loop
         vertex 1.464945e+002 9.541288e+002 7.816998e+001
         vertex 1.401445e+002 9.533270e+002 7.795509e+001
         vertex 1.464945e+002 9.533270e+002 7.795509e+001
      endloop
   endfacet
   facet normal 7.409051e-033 -1.161583e-001 9.932307e-001
      outer loop
         vertex 1.464945e+002 9.533270e+002 7.795509e+001
         vertex 1.401445e+002 9.533270e+002 7.795509e+001
         vertex 1.401445e+002 9.525001e+002 7.788274e+001
      endloop
   endfacet
   facet normal 7.446954e-033 -5.807914e-002 9.983120e-001
      outer loop
         vertex 1.464945e+002 9.533270e+002 7.795509e+001
         vertex 1.401445e+002 9.525001e+002 7.788274e+001
         vertex 1.464945e+002 9.525001e+002 7.788274e+001
      endloop
   endfacet
   facet normal 7.446954e-033 5.807914e-002 9.983120e-001
      outer loop
         vertex 1.464945e+002 9.525001e+002 7.788274e+001
         vertex 1.401445e+002 9.525001e+002 7.788274e+001
         vertex 1.401445e+002 9.516730e+002 7.795509e+001
      endloop
   endfacet
   facet normal 7.409051e-033 1.161583e-001 9.932307e-001
      outer loop
         vertex 1.464945e+002 9.525001e+002 7.788274e+001
         vertex 1.401445e+002 9.516730e+002 7.795509e+001
         vertex 1.464945e+002 9.516730e+002 7.795509e+001
      endloop
   endfacet
   facet normal 7.258587e-033 2.305519e-001 9.730600e-001
      outer loop
         vertex 1.464945e+002 9.516730e+002 7.795509e+001
         vertex 1.401445e+002 9.516730e+002 7.795509e+001
         vertex 1.401445e+002 9.508712e+002 7.816998e+001
      endloop
   endfacet
   facet normal 7.146026e-033 2.868663e-001 9.579706e-001
      outer loop
         vertex 1.464945e+002 9.516730e+002 7.795509e+001
         vertex 1.401445e+002 9.508712e+002 7.816998e+001
         vertex 1.464945e+002 9.508712e+002 7.816998e+001
      endloop
   endfacet
   facet normal 6.849669e-033 3.960194e-001 9.182422e-001
      outer loop
         vertex 1.464945e+002 9.508712e+002 7.816998e+001
         vertex 1.401445e+002 9.508712e+002 7.816998e+001
         vertex 1.401445e+002 9.501188e+002 7.852081e+001
      endloop
   endfacet
   facet normal 6.665874e-033 4.488580e-001 8.936031e-001
      outer loop
         vertex 1.464945e+002 9.508712e+002 7.816998e+001
         vertex 1.401445e+002 9.501188e+002 7.852081e+001
         vertex 1.464945e+002 9.501188e+002 7.852081e+001
      endloop
   endfacet
   facet normal 6.232630e-033 5.494540e-001 8.355240e-001
      outer loop
         vertex 1.464945e+002 9.501188e+002 7.852081e+001
         vertex 1.401445e+002 9.501188e+002 7.852081e+001
         vertex 1.401445e+002 9.494387e+002 7.899696e+001
      endloop
   endfacet
   facet normal 5.983182e-033 5.972114e-001 8.020839e-001
      outer loop
         vertex 1.464945e+002 9.501188e+002 7.852081e+001
         vertex 1.401445e+002 9.494387e+002 7.899696e+001
         vertex 1.464945e+002 9.494387e+002 7.899696e+001
      endloop
   endfacet
   facet normal 5.426214e-033 6.861938e-001 7.274188e-001
      outer loop
         vertex 1.464945e+002 9.494387e+002 7.899696e+001
         vertex 1.401445e+002 9.494387e+002 7.899696e+001
         vertex 1.401445e+002 9.488517e+002 7.958397e+001
      endloop
   endfacet
   facet normal 5.118694e-033 7.274188e-001 6.861938e-001
      outer loop
         vertex 1.464945e+002 9.494387e+002 7.899696e+001
         vertex 1.401445e+002 9.488517e+002 7.958397e+001
         vertex 1.464945e+002 9.488517e+002 7.958397e+001
      endloop
   endfacet
   facet normal 4.454926e-033 8.020839e-001 5.972114e-001
      outer loop
         vertex 1.464945e+002 9.488517e+002 7.958397e+001
         vertex 1.401445e+002 9.488517e+002 7.958397e+001
         vertex 1.401445e+002 9.483756e+002 8.026400e+001
      endloop
   endfacet
   facet normal 4.098678e-033 8.355240e-001 5.494540e-001
      outer loop
         vertex 1.464945e+002 9.488517e+002 7.958397e+001
         vertex 1.401445e+002 9.483756e+002 8.026400e+001
         vertex 1.464945e+002 9.483756e+002 8.026400e+001
      endloop
   endfacet
   facet normal 3.348277e-033 8.936031e-001 4.488580e-001
      outer loop
         vertex 1.464945e+002 9.483756e+002 8.026400e+001
         vertex 1.401445e+002 9.483756e+002 8.026400e+001
         vertex 1.401445e+002 9.480248e+002 8.101637e+001
      endloop
   endfacet
   facet normal 2.954125e-033 9.182422e-001 3.960194e-001
      outer loop
         vertex 1.464945e+002 9.483756e+002 8.026400e+001
         vertex 1.401445e+002 9.480248e+002 8.101637e+001
         vertex 1.464945e+002 9.480248e+002 8.101637e+001
      endloop
   endfacet
   facet normal 2.139892e-033 9.579706e-001 2.868663e-001
      outer loop
         vertex 1.464945e+002 9.480248e+002 8.101637e+001
         vertex 1.401445e+002 9.480248e+002 8.101637e+001
         vertex 1.401445e+002 9.478099e+002 8.181825e+001
      endloop
   endfacet
   facet normal 1.719812e-033 9.730600e-001 2.305519e-001
      outer loop
         vertex 1.464945e+002 9.480248e+002 8.101637e+001
         vertex 1.401445e+002 9.478099e+002 8.181825e+001
         vertex 1.464945e+002 9.478099e+002 8.181825e+001
      endloop
   endfacet
   facet normal 8.664880e-034 9.932307e-001 1.161583e-001
      outer loop
         vertex 1.464945e+002 9.478099e+002 8.181825e+001
         vertex 1.401445e+002 9.478099e+002 8.181825e+001
         vertex 1.401445e+002 9.477375e+002 8.264524e+001
      endloop
   endfacet
   facet normal 4.332440e-034 9.983120e-001 5.807914e-002
      outer loop
         vertex 1.464945e+002 9.478099e+002 8.181825e+001
         vertex 1.401445e+002 9.477375e+002 8.264524e+001
         vertex 1.464945e+002 9.477375e+002 8.264524e+001
      endloop
   endfacet
   facet normal -4.332440e-034 9.983120e-001 -5.807914e-002
      outer loop
         vertex 1.464945e+002 9.477375e+002 8.264524e+001
         vertex 1.401445e+002 9.477375e+002 8.264524e+001
         vertex 1.401445e+002 9.478099e+002 8.347225e+001
      endloop
   endfacet
   facet normal -8.664880e-034 9.932307e-001 -1.161583e-001
      outer loop
         vertex 1.464945e+002 9.477375e+002 8.264524e+001
         vertex 1.401445e+002 9.478099e+002 8.347225e+001
         vertex 1.464945e+002 9.478099e+002 8.347225e+001
      endloop
   endfacet
   facet normal -1.719812e-033 9.730600e-001 -2.305519e-001
      outer loop
         vertex 1.464945e+002 9.478099e+002 8.347225e+001
         vertex 1.401445e+002 9.478099e+002 8.347225e+001
         vertex 1.401445e+002 9.480248e+002 8.427412e+001
      endloop
   endfacet
   facet normal -2.139892e-033 9.579706e-001 -2.868663e-001
      outer loop
         vertex 1.464945e+002 9.478099e+002 8.347225e+001
         vertex 1.401445e+002 9.480248e+002 8.427412e+001
         vertex 1.464945e+002 9.480248e+002 8.427412e+001
      endloop
   endfacet
   facet normal -2.954125e-033 9.182422e-001 -3.960194e-001
      outer loop
         vertex 1.464945e+002 9.480248e+002 8.427412e+001
         vertex 1.401445e+002 9.480248e+002 8.427412e+001
         vertex 1.401445e+002 9.483756e+002 8.502650e+001
      endloop
   endfacet
   facet normal -3.348277e-033 8.936031e-001 -4.488580e-001
      outer loop
         vertex 1.464945e+002 9.480248e+002 8.427412e+001
         vertex 1.401445e+002 9.483756e+002 8.502650e+001
         vertex 1.464945e+002 9.483756e+002 8.502650e+001
      endloop
   endfacet
   facet normal -4.098678e-033 8.355240e-001 -5.494540e-001
      outer loop
         vertex 1.464945e+002 9.483756e+002 8.502650e+001
         vertex 1.401445e+002 9.483756e+002 8.502650e+001
         vertex 1.401445e+002 9.488517e+002 8.570654e+001
      endloop
   endfacet
   facet normal -4.454926e-033 8.020839e-001 -5.972114e-001
      outer loop
         vertex 1.464945e+002 9.483756e+002 8.502650e+001
         vertex 1.401445e+002 9.488517e+002 8.570654e+001
         vertex 1.464945e+002 9.488517e+002 8.570654e+001
      endloop
   endfacet
   facet normal -5.118694e-033 7.274188e-001 -6.861938e-001
      outer loop
         vertex 1.464945e+002 9.488517e+002 8.570654e+001
         vertex 1.401445e+002 9.488517e+002 8.570654e+001
         vertex 1.401445e+002 9.494387e+002 8.629352e+001
      endloop
   endfacet
   facet normal -5.426214e-033 6.861938e-001 -7.274188e-001
      outer loop
         vertex 1.464945e+002 9.488517e+002 8.570654e+001
         vertex 1.401445e+002 9.494387e+002 8.629352e+001
         vertex 1.464945e+002 9.494387e+002 8.629352e+001
      endloop
   endfacet
   facet normal -5.983182e-033 5.972114e-001 -8.020839e-001
      outer loop
         vertex 1.464945e+002 9.494387e+002 8.629352e+001
         vertex 1.401445e+002 9.494387e+002 8.629352e+001
         vertex 1.401445e+002 9.501188e+002 8.676970e+001
      endloop
   endfacet
   facet normal -6.232630e-033 5.494540e-001 -8.355240e-001
      outer loop
         vertex 1.464945e+002 9.494387e+002 8.629352e+001
         vertex 1.401445e+002 9.501188e+002 8.676970e+001
         vertex 1.464945e+002 9.501188e+002 8.676970e+001
      endloop
   endfacet
   facet normal -6.665874e-033 4.488580e-001 -8.936031e-001
      outer loop
         vertex 1.464945e+002 9.501188e+002 8.676970e+001
         vertex 1.401445e+002 9.501188e+002 8.676970e+001
         vertex 1.401445e+002 9.508712e+002 8.712053e+001
      endloop
   endfacet
   facet normal -6.849669e-033 3.960194e-001 -9.182422e-001
      outer loop
         vertex 1.464945e+002 9.501188e+002 8.676970e+001
         vertex 1.401445e+002 9.508712e+002 8.712053e+001
         vertex 1.464945e+002 9.508712e+002 8.712053e+001
      endloop
   endfacet
   facet normal -7.146026e-033 2.868663e-001 -9.579706e-001
      outer loop
         vertex 1.464945e+002 9.508712e+002 8.712053e+001
         vertex 1.401445e+002 9.508712e+002 8.712053e+001
         vertex 1.401445e+002 9.516730e+002 8.733538e+001
      endloop
   endfacet
   facet normal -7.258587e-033 2.305519e-001 -9.730600e-001
      outer loop
         vertex 1.464945e+002 9.508712e+002 8.712053e+001
         vertex 1.401445e+002 9.516730e+002 8.733538e+001
         vertex 1.464945e+002 9.516730e+002 8.733538e+001
      endloop
   endfacet
   facet normal -7.409051e-033 1.161583e-001 -9.932307e-001
      outer loop
         vertex 1.464945e+002 9.516730e+002 8.733538e+001
         vertex 1.401445e+002 9.516730e+002 8.733538e+001
         vertex 1.401445e+002 9.525001e+002 8.740774e+001
      endloop
   endfacet
   facet normal -7.446954e-033 5.807914e-002 -9.983120e-001
      outer loop
         vertex 1.464945e+002 9.516730e+002 8.733538e+001
         vertex 1.401445e+002 9.525001e+002 8.740774e+001
         vertex 1.464945e+002 9.525001e+002 8.740774e+001
      endloop
   endfacet
   facet normal -7.446954e-033 -5.807914e-002 -9.983120e-001
      outer loop
         vertex 1.464945e+002 9.525001e+002 8.740774e+001
         vertex 1.401445e+002 9.525001e+002 8.740774e+001
         vertex 1.401445e+002 9.533270e+002 8.733538e+001
      endloop
   endfacet
   facet normal -7.409051e-033 -1.161583e-001 -9.932307e-001
      outer loop
         vertex 1.464945e+002 9.525001e+002 8.740774e+001
         vertex 1.401445e+002 9.533270e+002 8.733538e+001
         vertex 1.464945e+002 9.533270e+002 8.733538e+001
      endloop
   endfacet
   facet normal -7.258587e-033 -2.305519e-001 -9.730600e-001
      outer loop
         vertex 1.464945e+002 9.533270e+002 8.733538e+001
         vertex 1.401445e+002 9.533270e+002 8.733538e+001
         vertex 1.401445e+002 9.541288e+002 8.712053e+001
      endloop
   endfacet
   facet normal -7.146026e-033 -2.868663e-001 -9.579706e-001
      outer loop
         vertex 1.464945e+002 9.533270e+002 8.733538e+001
         vertex 1.401445e+002 9.541288e+002 8.712053e+001
         vertex 1.464945e+002 9.541288e+002 8.712053e+001
      endloop
   endfacet
   facet normal -6.849669e-033 -3.960194e-001 -9.182422e-001
      outer loop
         vertex 1.464945e+002 9.541288e+002 8.712053e+001
         vertex 1.401445e+002 9.541288e+002 8.712053e+001
         vertex 1.401445e+002 9.548812e+002 8.676970e+001
      endloop
   endfacet
   facet normal -6.665874e-033 -4.488580e-001 -8.936031e-001
      outer loop
         vertex 1.464945e+002 9.541288e+002 8.712053e+001
         vertex 1.401445e+002 9.548812e+002 8.676970e+001
         vertex 1.464945e+002 9.548812e+002 8.676970e+001
      endloop
   endfacet
   facet normal -6.232630e-033 -5.494540e-001 -8.355240e-001
      outer loop
         vertex 1.464945e+002 9.548812e+002 8.676970e+001
         vertex 1.401445e+002 9.548812e+002 8.676970e+001
         vertex 1.401445e+002 9.555613e+002 8.629352e+001
      endloop
   endfacet
   facet normal -5.983182e-033 -5.972114e-001 -8.020839e-001
      outer loop
         vertex 1.464945e+002 9.548812e+002 8.676970e+001
         vertex 1.401445e+002 9.555613e+002 8.629352e+001
         vertex 1.464945e+002 9.555613e+002 8.629352e+001
      endloop
   endfacet
   facet normal -5.426214e-033 -6.861938e-001 -7.274188e-001
      outer loop
         vertex 1.464945e+002 9.555613e+002 8.629352e+001
         vertex 1.401445e+002 9.555613e+002 8.629352e+001
         vertex 1.401445e+002 9.561483e+002 8.570654e+001
      endloop
   endfacet
   facet normal -5.118694e-033 -7.274188e-001 -6.861938e-001
      outer loop
         vertex 1.464945e+002 9.555613e+002 8.629352e+001
         vertex 1.401445e+002 9.561483e+002 8.570654e+001
         vertex 1.464945e+002 9.561483e+002 8.570654e+001
      endloop
   endfacet
   facet normal -4.454926e-033 -8.020839e-001 -5.972114e-001
      outer loop
         vertex 1.464945e+002 9.561483e+002 8.570654e+001
         vertex 1.401445e+002 9.561483e+002 8.570654e+001
         vertex 1.401445e+002 9.566245e+002 8.502650e+001
      endloop
   endfacet
   facet normal -4.098678e-033 -8.355240e-001 -5.494540e-001
      outer loop
         vertex 1.464945e+002 9.561483e+002 8.570654e+001
         vertex 1.401445e+002 9.566245e+002 8.502650e+001
         vertex 1.464945e+002 9.566245e+002 8.502650e+001
      endloop
   endfacet
   facet normal -3.348277e-033 -8.936031e-001 -4.488580e-001
      outer loop
         vertex 1.464945e+002 9.566245e+002 8.502650e+001
         vertex 1.401445e+002 9.566245e+002 8.502650e+001
         vertex 1.401445e+002 9.569753e+002 8.427412e+001
      endloop
   endfacet
   facet normal -2.954125e-033 -9.182422e-001 -3.960194e-001
      outer loop
         vertex 1.464945e+002 9.566245e+002 8.502650e+001
         vertex 1.401445e+002 9.569753e+002 8.427412e+001
         vertex 1.464945e+002 9.569753e+002 8.427412e+001
      endloop
   endfacet
   facet normal -2.139892e-033 -9.579706e-001 -2.868663e-001
      outer loop
         vertex 1.464945e+002 9.569753e+002 8.427412e+001
         vertex 1.401445e+002 9.569753e+002 8.427412e+001
         vertex 1.401445e+002 9.571902e+002 8.347225e+001
      endloop
   endfacet
   facet normal -1.719812e-033 -9.730600e-001 -2.305519e-001
      outer loop
         vertex 1.464945e+002 9.569753e+002 8.427412e+001
         vertex 1.401445e+002 9.571902e+002 8.347225e+001
         vertex 1.464945e+002 9.571902e+002 8.347225e+001
      endloop
   endfacet
   facet normal -8.664880e-034 -9.932307e-001 -1.161583e-001
      outer loop
         vertex 1.464945e+002 9.571902e+002 8.347225e+001
         vertex 1.401445e+002 9.571902e+002 8.347225e+001
         vertex 1.401445e+002 9.572625e+002 8.264524e+001
      endloop
   endfacet
   facet normal -4.332440e-034 -9.983120e-001 -5.807914e-002
      outer loop
         vertex 1.464945e+002 8.619401e+002 8.347225e+001
         vertex 1.401445e+002 8.620125e+002 8.264524e+001
         vertex 1.464945e+002 8.620125e+002 8.264524e+001
      endloop
   endfacet
   facet normal 4.332440e-034 -9.983120e-001 5.807914e-002
      outer loop
         vertex 1.464945e+002 8.620125e+002 8.264524e+001
         vertex 1.401445e+002 8.620125e+002 8.264524e+001
         vertex 1.401445e+002 8.619401e+002 8.181825e+001
      endloop
   endfacet
   facet normal 8.664880e-034 -9.932307e-001 1.161583e-001
      outer loop
         vertex 1.464945e+002 8.620125e+002 8.264524e+001
         vertex 1.401445e+002 8.619401e+002 8.181825e+001
         vertex 1.464945e+002 8.619401e+002 8.181825e+001
      endloop
   endfacet
   facet normal 1.719812e-033 -9.730600e-001 2.305519e-001
      outer loop
         vertex 1.464945e+002 8.619401e+002 8.181825e+001
         vertex 1.401445e+002 8.619401e+002 8.181825e+001
         vertex 1.401445e+002 8.617253e+002 8.101637e+001
      endloop
   endfacet
   facet normal 2.139892e-033 -9.579706e-001 2.868663e-001
      outer loop
         vertex 1.464945e+002 8.619401e+002 8.181825e+001
         vertex 1.401445e+002 8.617253e+002 8.101637e+001
         vertex 1.464945e+002 8.617253e+002 8.101637e+001
      endloop
   endfacet
   facet normal 2.954125e-033 -9.182422e-001 3.960194e-001
      outer loop
         vertex 1.464945e+002 8.617253e+002 8.101637e+001
         vertex 1.401445e+002 8.617253e+002 8.101637e+001
         vertex 1.401445e+002 8.613745e+002 8.026400e+001
      endloop
   endfacet
   facet normal 3.348277e-033 -8.936031e-001 4.488580e-001
      outer loop
         vertex 1.464945e+002 8.617253e+002 8.101637e+001
         vertex 1.401445e+002 8.613745e+002 8.026400e+001
         vertex 1.464945e+002 8.613745e+002 8.026400e+001
      endloop
   endfacet
   facet normal 4.098678e-033 -8.355240e-001 5.494540e-001
      outer loop
         vertex 1.464945e+002 8.613745e+002 8.026400e+001
         vertex 1.401445e+002 8.613745e+002 8.026400e+001
         vertex 1.401445e+002 8.608983e+002 7.958397e+001
      endloop
   endfacet
   facet normal 4.454926e-033 -8.020839e-001 5.972114e-001
      outer loop
         vertex 1.464945e+002 8.613745e+002 8.026400e+001
         vertex 1.401445e+002 8.608983e+002 7.958397e+001
         vertex 1.464945e+002 8.608983e+002 7.958397e+001
      endloop
   endfacet
   facet normal 5.118694e-033 -7.274188e-001 6.861938e-001
      outer loop
         vertex 1.464945e+002 8.608983e+002 7.958397e+001
         vertex 1.401445e+002 8.608983e+002 7.958397e+001
         vertex 1.401445e+002 8.603113e+002 7.899696e+001
      endloop
   endfacet
   facet normal 5.426214e-033 -6.861938e-001 7.274188e-001
      outer loop
         vertex 1.464945e+002 8.608983e+002 7.958397e+001
         vertex 1.401445e+002 8.603113e+002 7.899696e+001
         vertex 1.464945e+002 8.603113e+002 7.899696e+001
      endloop
   endfacet
   facet normal 5.983182e-033 -5.972114e-001 8.020839e-001
      outer loop
         vertex 1.464945e+002 8.603113e+002 7.899696e+001
         vertex 1.401445e+002 8.603113e+002 7.899696e+001
         vertex 1.401445e+002 8.596312e+002 7.852081e+001
      endloop
   endfacet
   facet normal 6.232630e-033 -5.494540e-001 8.355240e-001
      outer loop
         vertex 1.464945e+002 8.603113e+002 7.899696e+001
         vertex 1.401445e+002 8.596312e+002 7.852081e+001
         vertex 1.464945e+002 8.596312e+002 7.852081e+001
      endloop
   endfacet
   facet normal 6.665874e-033 -4.488580e-001 8.936031e-001
      outer loop
         vertex 1.464945e+002 8.596312e+002 7.852081e+001
         vertex 1.401445e+002 8.596312e+002 7.852081e+001
         vertex 1.401445e+002 8.588789e+002 7.816998e+001
      endloop
   endfacet
   facet normal 6.849669e-033 -3.960194e-001 9.182422e-001
      outer loop
         vertex 1.464945e+002 8.596312e+002 7.852081e+001
         vertex 1.401445e+002 8.588789e+002 7.816998e+001
         vertex 1.464945e+002 8.588789e+002 7.816998e+001
      endloop
   endfacet
   facet normal 7.146026e-033 -2.868663e-001 9.579706e-001
      outer loop
         vertex 1.464945e+002 8.588789e+002 7.816998e+001
         vertex 1.401445e+002 8.588789e+002 7.816998e+001
         vertex 1.401445e+002 8.580770e+002 7.795509e+001
      endloop
   endfacet
   facet normal 7.258587e-033 -2.305519e-001 9.730600e-001
      outer loop
         vertex 1.464945e+002 8.588789e+002 7.816998e+001
         vertex 1.401445e+002 8.580770e+002 7.795509e+001
         vertex 1.464945e+002 8.580770e+002 7.795509e+001
      endloop
   endfacet
   facet normal 7.409051e-033 -1.161583e-001 9.932307e-001
      outer loop
         vertex 1.464945e+002 8.580770e+002 7.795509e+001
         vertex 1.401445e+002 8.580770e+002 7.795509e+001
         vertex 1.401445e+002 8.572501e+002 7.788274e+001
      endloop
   endfacet
   facet normal 7.446954e-033 -5.807914e-002 9.983120e-001
      outer loop
         vertex 1.464945e+002 8.580770e+002 7.795509e+001
         vertex 1.401445e+002 8.572501e+002 7.788274e+001
         vertex 1.464945e+002 8.572501e+002 7.788274e+001
      endloop
   endfacet
   facet normal 7.446954e-033 5.807914e-002 9.983120e-001
      outer loop
         vertex 1.464945e+002 8.572501e+002 7.788274e+001
         vertex 1.401445e+002 8.572501e+002 7.788274e+001
         vertex 1.401445e+002 8.564230e+002 7.795509e+001
      endloop
   endfacet
   facet normal 7.409051e-033 1.161583e-001 9.932307e-001
      outer loop
         vertex 1.464945e+002 8.572501e+002 7.788274e+001
         vertex 1.401445e+002 8.564230e+002 7.795509e+001
         vertex 1.464945e+002 8.564230e+002 7.795509e+001
      endloop
   endfacet
   facet normal 7.258587e-033 2.305519e-001 9.730600e-001
      outer loop
         vertex 1.464945e+002 8.564230e+002 7.795509e+001
         vertex 1.401445e+002 8.564230e+002 7.795509e+001
         vertex 1.401445e+002 8.556212e+002 7.816998e+001
      endloop
   endfacet
   facet normal 7.146026e-033 2.868663e-001 9.579706e-001
      outer loop
         vertex 1.464945e+002 8.564230e+002 7.795509e+001
         vertex 1.401445e+002 8.556212e+002 7.816998e+001
         vertex 1.464945e+002 8.556212e+002 7.816998e+001
      endloop
   endfacet
   facet normal 6.849669e-033 3.960194e-001 9.182422e-001
      outer loop
         vertex 1.464945e+002 8.556212e+002 7.816998e+001
         vertex 1.401445e+002 8.556212e+002 7.816998e+001
         vertex 1.401445e+002 8.548688e+002 7.852081e+001
      endloop
   endfacet
   facet normal 6.665874e-033 4.488580e-001 8.936031e-001
      outer loop
         vertex 1.464945e+002 8.556212e+002 7.816998e+001
         vertex 1.401445e+002 8.548688e+002 7.852081e+001
         vertex 1.464945e+002 8.548688e+002 7.852081e+001
      endloop
   endfacet
   facet normal 6.232630e-033 5.494540e-001 8.355240e-001
      outer loop
         vertex 1.464945e+002 8.548688e+002 7.852081e+001
         vertex 1.401445e+002 8.548688e+002 7.852081e+001
         vertex 1.401445e+002 8.541887e+002 7.899696e+001
      endloop
   endfacet
   facet normal 5.983182e-033 5.972114e-001 8.020839e-001
      outer loop
         vertex 1.464945e+002 8.548688e+002 7.852081e+001
         vertex 1.401445e+002 8.541887e+002 7.899696e+001
         vertex 1.464945e+002 8.541887e+002 7.899696e+001
      endloop
   endfacet
   facet normal 5.426214e-033 6.861938e-001 7.274188e-001
      outer loop
         vertex 1.464945e+002 8.541887e+002 7.899696e+001
         vertex 1.401445e+002 8.541887e+002 7.899696e+001
         vertex 1.401445e+002 8.536017e+002 7.958397e+001
      endloop
   endfacet
   facet normal 5.118694e-033 7.274188e-001 6.861938e-001
      outer loop
         vertex 1.464945e+002 8.541887e+002 7.899696e+001
         vertex 1.401445e+002 8.536017e+002 7.958397e+001
         vertex 1.464945e+002 8.536017e+002 7.958397e+001
      endloop
   endfacet
   facet normal 4.454926e-033 8.020839e-001 5.972114e-001
      outer loop
         vertex 1.464945e+002 8.536017e+002 7.958397e+001
         vertex 1.401445e+002 8.536017e+002 7.958397e+001
         vertex 1.401445e+002 8.531255e+002 8.026400e+001
      endloop
   endfacet
   facet normal 4.098678e-033 8.355240e-001 5.494540e-001
      outer loop
         vertex 1.464945e+002 8.536017e+002 7.958397e+001
         vertex 1.401445e+002 8.531255e+002 8.026400e+001
         vertex 1.464945e+002 8.531255e+002 8.026400e+001
      endloop
   endfacet
   facet normal 3.348277e-033 8.936031e-001 4.488580e-001
      outer loop
         vertex 1.464945e+002 8.531255e+002 8.026400e+001
         vertex 1.401445e+002 8.531255e+002 8.026400e+001
         vertex 1.401445e+002 8.527747e+002 8.101637e+001
      endloop
   endfacet
   facet normal 2.954125e-033 9.182422e-001 3.960194e-001
      outer loop
         vertex 1.464945e+002 8.531255e+002 8.026400e+001
         vertex 1.401445e+002 8.527747e+002 8.101637e+001
         vertex 1.464945e+002 8.527747e+002 8.101637e+001
      endloop
   endfacet
   facet normal 2.139892e-033 9.579706e-001 2.868663e-001
      outer loop
         vertex 1.464945e+002 8.527747e+002 8.101637e+001
         vertex 1.401445e+002 8.527747e+002 8.101637e+001
         vertex 1.401445e+002 8.525599e+002 8.181825e+001
      endloop
   endfacet
   facet normal 1.719812e-033 9.730600e-001 2.305519e-001
      outer loop
         vertex 1.464945e+002 8.527747e+002 8.101637e+001
         vertex 1.401445e+002 8.525599e+002 8.181825e+001
         vertex 1.464945e+002 8.525599e+002 8.181825e+001
      endloop
   endfacet
   facet normal 8.664880e-034 9.932307e-001 1.161583e-001
      outer loop
         vertex 1.464945e+002 8.525599e+002 8.181825e+001
         vertex 1.401445e+002 8.525599e+002 8.181825e+001
         vertex 1.401445e+002 8.524875e+002 8.264524e+001
      endloop
   endfacet
   facet normal 4.332440e-034 9.983120e-001 5.807914e-002
      outer loop
         vertex 1.464945e+002 8.525599e+002 8.181825e+001
         vertex 1.401445e+002 8.524875e+002 8.264524e+001
         vertex 1.464945e+002 8.524875e+002 8.264524e+001
      endloop
   endfacet
   facet normal -4.332440e-034 9.983120e-001 -5.807914e-002
      outer loop
         vertex 1.464945e+002 8.524875e+002 8.264524e+001
         vertex 1.401445e+002 8.524875e+002 8.264524e+001
         vertex 1.401445e+002 8.525599e+002 8.347225e+001
      endloop
   endfacet
   facet normal -8.664880e-034 9.932307e-001 -1.161583e-001
      outer loop
         vertex 1.464945e+002 8.524875e+002 8.264524e+001
         vertex 1.401445e+002 8.525599e+002 8.347225e+001
         vertex 1.464945e+002 8.525599e+002 8.347225e+001
      endloop
   endfacet
   facet normal -1.719812e-033 9.730600e-001 -2.305519e-001
      outer loop
         vertex 1.464945e+002 8.525599e+002 8.347225e+001
         vertex 1.401445e+002 8.525599e+002 8.347225e+001
         vertex 1.401445e+002 8.527747e+002 8.427412e+001
      endloop
   endfacet
   facet normal -2.139892e-033 9.579706e-001 -2.868663e-001
      outer loop
         vertex 1.464945e+002 8.525599e+002 8.347225e+001
         vertex 1.401445e+002 8.527747e+002 8.427412e+001
         vertex 1.464945e+002 8.527747e+002 8.427412e+001
      endloop
   endfacet
   facet normal -2.954125e-033 9.182422e-001 -3.960194e-001
      outer loop
         vertex 1.464945e+002 8.527747e+002 8.427412e+001
         vertex 1.401445e+002 8.527747e+002 8.427412e+001
         vertex 1.401445e+002 8.531255e+002 8.502650e+001
      endloop
   endfacet
   facet normal -3.348277e-033 8.936031e-001 -4.488580e-001
      outer loop
         vertex 1.464945e+002 8.527747e+002 8.427412e+001
         vertex 1.401445e+002 8.531255e+002 8.502650e+001
         vertex 1.464945e+002 8.531255e+002 8.502650e+001
      endloop
   endfacet
   facet normal -4.098678e-033 8.355240e-001 -5.494540e-001
      outer loop
         vertex 1.464945e+002 8.531255e+002 8.502650e+001
         vertex 1.401445e+002 8.531255e+002 8.502650e+001
         vertex 1.401445e+002 8.536017e+002 8.570654e+001
      endloop
   endfacet
   facet normal -4.454926e-033 8.020839e-001 -5.972114e-001
      outer loop
         vertex 1.464945e+002 8.531255e+002 8.502650e+001
         vertex 1.401445e+002 8.536017e+002 8.570654e+001
         vertex 1.464945e+002 8.536017e+002 8.570654e+001
      endloop
   endfacet
   facet normal -5.118694e-033 7.274188e-001 -6.861938e-001
      outer loop
         vertex 1.464945e+002 8.536017e+002 8.570654e+001
         vertex 1.401445e+002 8.536017e+002 8.570654e+001
         vertex 1.401445e+002 8.541887e+002 8.629352e+001
      endloop
   endfacet
   facet normal -5.426214e-033 6.861938e-001 -7.274188e-001
      outer loop
         vertex 1.464945e+002 8.536017e+002 8.570654e+001
         vertex 1.401445e+002 8.541887e+002 8.629352e+001
         vertex 1.464945e+002 8.541887e+002 8.629352e+001
      endloop
   endfacet
   facet normal -5.983182e-033 5.972114e-001 -8.020839e-001
      outer loop
         vertex 1.464945e+002 8.541887e+002 8.629352e+001
         vertex 1.401445e+002 8.541887e+002 8.629352e+001
         vertex 1.401445e+002 8.548688e+002 8.676970e+001
      endloop
   endfacet
   facet normal -6.232630e-033 5.494540e-001 -8.355240e-001
      outer loop
         vertex 1.464945e+002 8.541887e+002 8.629352e+001
         vertex 1.401445e+002 8.548688e+002 8.676970e+001
         vertex 1.464945e+002 8.548688e+002 8.676970e+001
      endloop
   endfacet
   facet normal -6.665874e-033 4.488580e-001 -8.936031e-001
      outer loop
         vertex 1.464945e+002 8.548688e+002 8.676970e+001
         vertex 1.401445e+002 8.548688e+002 8.676970e+001
         vertex 1.401445e+002 8.556212e+002 8.712053e+001
      endloop
   endfacet
   facet normal -6.849669e-033 3.960194e-001 -9.182422e-001
      outer loop
         vertex 1.464945e+002 8.548688e+002 8.676970e+001
         vertex 1.401445e+002 8.556212e+002 8.712053e+001
         vertex 1.464945e+002 8.556212e+002 8.712053e+001
      endloop
   endfacet
   facet normal -7.146026e-033 2.868663e-001 -9.579706e-001
      outer loop
         vertex 1.464945e+002 8.556212e+002 8.712053e+001
         vertex 1.401445e+002 8.556212e+002 8.712053e+001
         vertex 1.401445e+002 8.564230e+002 8.733538e+001
      endloop
   endfacet
   facet normal -7.258587e-033 2.305519e-001 -9.730600e-001
      outer loop
         vertex 1.464945e+002 8.556212e+002 8.712053e+001
         vertex 1.401445e+002 8.564230e+002 8.733538e+001
         vertex 1.464945e+002 8.564230e+002 8.733538e+001
      endloop
   endfacet
   facet normal -7.409051e-033 1.161583e-001 -9.932307e-001
      outer loop
         vertex 1.464945e+002 8.564230e+002 8.733538e+001
         vertex 1.401445e+002 8.564230e+002 8.733538e+001
         vertex 1.401445e+002 8.572501e+002 8.740774e+001
      endloop
   endfacet
   facet normal -7.446954e-033 5.807914e-002 -9.983120e-001
      outer loop
         vertex 1.464945e+002 8.564230e+002 8.733538e+001
         vertex 1.401445e+002 8.572501e+002 8.740774e+001
         vertex 1.464945e+002 8.572501e+002 8.740774e+001
      endloop
   endfacet
   facet normal -7.446954e-033 -5.807914e-002 -9.983120e-001
      outer loop
         vertex 1.464945e+002 8.572501e+002 8.740774e+001
         vertex 1.401445e+002 8.572501e+002 8.740774e+001
         vertex 1.401445e+002 8.580770e+002 8.733538e+001
      endloop
   endfacet
   facet normal -7.409051e-033 -1.161583e-001 -9.932307e-001
      outer loop
         vertex 1.464945e+002 8.572501e+002 8.740774e+001
         vertex 1.401445e+002 8.580770e+002 8.733538e+001
         vertex 1.464945e+002 8.580770e+002 8.733538e+001
      endloop
   endfacet
   facet normal -7.258587e-033 -2.305519e-001 -9.730600e-001
      outer loop
         vertex 1.464945e+002 8.580770e+002 8.733538e+001
         vertex 1.401445e+002 8.580770e+002 8.733538e+001
         vertex 1.401445e+002 8.588789e+002 8.712053e+001
      endloop
   endfacet
   facet normal -7.146026e-033 -2.868663e-001 -9.579706e-001
      outer loop
         vertex 1.464945e+002 8.580770e+002 8.733538e+001
         vertex 1.401445e+002 8.588789e+002 8.712053e+001
         vertex 1.464945e+002 8.588789e+002 8.712053e+001
      endloop
   endfacet
   facet normal -6.849669e-033 -3.960194e-001 -9.182422e-001
      outer loop
         vertex 1.464945e+002 8.588789e+002 8.712053e+001
         vertex 1.401445e+002 8.588789e+002 8.712053e+001
         vertex 1.401445e+002 8.596312e+002 8.676970e+001
      endloop
   endfacet
   facet normal -6.665874e-033 -4.488580e-001 -8.936031e-001
      outer loop
         vertex 1.464945e+002 8.588789e+002 8.712053e+001
         vertex 1.401445e+002 8.596312e+002 8.676970e+001
         vertex 1.464945e+002 8.596312e+002 8.676970e+001
      endloop
   endfacet
   facet normal -6.232630e-033 -5.494540e-001 -8.355240e-001
      outer loop
         vertex 1.464945e+002 8.596312e+002 8.676970e+001
         vertex 1.401445e+002 8.596312e+002 8.676970e+001
         vertex 1.401445e+002 8.603113e+002 8.629352e+001
      endloop
   endfacet
   facet normal -5.983182e-033 -5.972114e-001 -8.020839e-001
      outer loop
         vertex 1.464945e+002 8.596312e+002 8.676970e+001
         vertex 1.401445e+002 8.603113e+002 8.629352e+001
         vertex 1.464945e+002 8.603113e+002 8.629352e+001
      endloop
   endfacet
   facet normal -5.426214e-033 -6.861938e-001 -7.274188e-001
      outer loop
         vertex 1.464945e+002 8.603113e+002 8.629352e+001
         vertex 1.401445e+002 8.603113e+002 8.629352e+001
         vertex 1.401445e+002 8.608983e+002 8.570654e+001
      endloop
   endfacet
   facet normal -5.118694e-033 -7.274188e-001 -6.861938e-001
      outer loop
         vertex 1.464945e+002 8.603113e+002 8.629352e+001
         vertex 1.401445e+002 8.608983e+002 8.570654e+001
         vertex 1.464945e+002 8.608983e+002 8.570654e+001
      endloop
   endfacet
   facet normal -4.454926e-033 -8.020839e-001 -5.972114e-001
      outer loop
         vertex 1.464945e+002 8.608983e+002 8.570654e+001
         vertex 1.401445e+002 8.608983e+002 8.570654e+001
         vertex 1.401445e+002 8.613745e+002 8.502650e+001
      endloop
   endfacet
   facet normal -4.098678e-033 -8.355240e-001 -5.494540e-001
      outer loop
         vertex 1.464945e+002 8.608983e+002 8.570654e+001
         vertex 1.401445e+002 8.613745e+002 8.502650e+001
         vertex 1.464945e+002 8.613745e+002 8.502650e+001
      endloop
   endfacet
   facet normal -3.348277e-033 -8.936031e-001 -4.488580e-001
      outer loop
         vertex 1.464945e+002 8.613745e+002 8.502650e+001
         vertex 1.401445e+002 8.613745e+002 8.502650e+001
         vertex 1.401445e+002 8.617253e+002 8.427412e+001
      endloop
   endfacet
   facet normal -2.954125e-033 -9.182422e-001 -3.960194e-001
      outer loop
         vertex 1.464945e+002 8.613745e+002 8.502650e+001
         vertex 1.401445e+002 8.617253e+002 8.427412e+001
         vertex 1.464945e+002 8.617253e+002 8.427412e+001
      endloop
   endfacet
   facet normal -2.139892e-033 -9.579706e-001 -2.868663e-001
      outer loop
         vertex 1.464945e+002 8.617253e+002 8.427412e+001
         vertex 1.401445e+002 8.617253e+002 8.427412e+001
         vertex 1.401445e+002 8.619401e+002 8.347225e+001
      endloop
   endfacet
   facet normal -1.719812e-033 -9.730600e-001 -2.305519e-001
      outer loop
         vertex 1.464945e+002 8.617253e+002 8.427412e+001
         vertex 1.401445e+002 8.619401e+002 8.347225e+001
         vertex 1.464945e+002 8.619401e+002 8.347225e+001
      endloop
   endfacet
   facet normal -8.664880e-034 -9.932307e-001 -1.161583e-001
      outer loop
         vertex 1.464945e+002 8.619401e+002 8.347225e+001
         vertex 1.401445e+002 8.619401e+002 8.347225e+001
         vertex 1.401445e+002 8.620125e+002 8.264524e+001
      endloop
   endfacet
endsolid