solid 000-UltraSoundMachine_Johnsonville - 300-TableCage-1 308-AngleBracketMirror-1
   facet normal -5.606626e-015 5.255189e-016 -1.000000e+000
      outer loop
         vertex 7.941945e+002 6.297581e+002 6.321425e+002
         vertex 7.932878e+002 6.291233e+002 6.321425e+002
         vertex 7.918702e+002 6.591838e+002 6.321425e+002
      endloop
   endfacet
   facet normal -5.606626e-015 5.255189e-016 -1.000000e+000
      outer loop
         vertex 8.028687e+002 6.274339e+002 6.321425e+002
         vertex 8.022339e+002 6.283406e+002 6.321425e+002
         vertex 7.932878e+002 6.574945e+002 6.321425e+002
      endloop
   endfacet
   facet normal -5.606626e-015 5.255189e-016 -1.000000e+000
      outer loop
         vertex 7.925051e+002 6.283406e+002 6.321425e+002
         vertex 7.918702e+002 6.274339e+002 6.321425e+002
         vertex 7.814945e+002 7.683500e+002 6.321425e+002
      endloop
   endfacet
   facet normal -5.606626e-015 5.255189e-016 -1.000000e+000
      outer loop
         vertex 7.814945e+002 7.683500e+002 6.321425e+002
         vertex 7.918702e+002 6.274339e+002 6.321425e+002
         vertex 7.914024e+002 6.264307e+002 6.321425e+002
      endloop
   endfacet
   facet normal -5.606626e-015 5.255189e-016 -1.000000e+000
      outer loop
         vertex 7.910194e+002 6.623589e+002 6.321425e+002
         vertex 7.911160e+002 6.612562e+002 6.321425e+002
         vertex 7.932878e+002 6.291233e+002 6.321425e+002
      endloop
   endfacet
   facet normal -5.606626e-015 5.255189e-016 -1.000000e+000
      outer loop
         vertex 7.932878e+002 6.291233e+002 6.321425e+002
         vertex 7.911160e+002 6.612562e+002 6.321425e+002
         vertex 7.914024e+002 6.601871e+002 6.321425e+002
      endloop
   endfacet
   facet normal -5.606626e-015 5.255189e-016 -1.000000e+000
      outer loop
         vertex 7.932878e+002 6.291233e+002 6.321425e+002
         vertex 7.914024e+002 6.601871e+002 6.321425e+002
         vertex 7.918702e+002 6.591838e+002 6.321425e+002
      endloop
   endfacet
   facet normal -5.606626e-015 5.255189e-016 -1.000000e+000
      outer loop
         vertex 7.951977e+002 6.563918e+002 6.321425e+002
         vertex 7.962668e+002 6.561053e+002 6.321425e+002
         vertex 8.033365e+002 6.264307e+002 6.321425e+002
      endloop
   endfacet
   facet normal -5.606626e-015 5.255189e-016 -1.000000e+000
      outer loop
         vertex 7.962668e+002 6.686124e+002 6.321425e+002
         vertex 7.951977e+002 6.683259e+002 6.321425e+002
         vertex 7.814945e+002 7.683500e+002 6.321425e+002
      endloop
   endfacet
   facet normal -5.606626e-015 5.255189e-016 -1.000000e+000
      outer loop
         vertex 7.814945e+002 7.683500e+002 6.321425e+002
         vertex 7.951977e+002 6.683259e+002 6.321425e+002
         vertex 7.941945e+002 6.678582e+002 6.321425e+002
      endloop
   endfacet
   facet normal -5.606626e-015 5.255189e-016 -1.000000e+000
      outer loop
         vertex 7.814945e+002 7.683500e+002 6.321425e+002
         vertex 7.941945e+002 6.678582e+002 6.321425e+002
         vertex 7.932878e+002 6.672233e+002 6.321425e+002
      endloop
   endfacet
   facet normal -5.606626e-015 5.255189e-016 -1.000000e+000
      outer loop
         vertex 7.932878e+002 6.672233e+002 6.321425e+002
         vertex 7.925051e+002 6.664406e+002 6.321425e+002
         vertex 7.814945e+002 7.683500e+002 6.321425e+002
      endloop
   endfacet
   facet normal -5.606626e-015 5.255189e-016 -1.000000e+000
      outer loop
         vertex 7.814945e+002 7.683500e+002 6.321425e+002
         vertex 7.925051e+002 6.664406e+002 6.321425e+002
         vertex 7.918702e+002 6.655339e+002 6.321425e+002
      endloop
   endfacet
   facet normal -5.606626e-015 5.255189e-016 -1.000000e+000
      outer loop
         vertex 7.814945e+002 7.683500e+002 6.321425e+002
         vertex 7.918702e+002 6.655339e+002 6.321425e+002
         vertex 7.914024e+002 6.645307e+002 6.321425e+002
      endloop
   endfacet
   facet normal -5.606626e-015 5.255189e-016 -1.000000e+000
      outer loop
         vertex 7.995413e+002 6.563918e+002 6.321425e+002
         vertex 8.036230e+002 6.253616e+002 6.321425e+002
         vertex 7.984721e+002 6.561053e+002 6.321425e+002
      endloop
   endfacet
   facet normal -5.606626e-015 5.255189e-016 -1.000000e+000
      outer loop
         vertex 7.984721e+002 6.561053e+002 6.321425e+002
         vertex 8.036230e+002 6.253616e+002 6.321425e+002
         vertex 8.033365e+002 6.264307e+002 6.321425e+002
      endloop
   endfacet
   facet normal -5.606626e-015 5.255189e-016 -1.000000e+000
      outer loop
         vertex 7.984721e+002 6.561053e+002 6.321425e+002
         vertex 8.033365e+002 6.264307e+002 6.321425e+002
         vertex 7.973695e+002 6.560089e+002 6.321425e+002
      endloop
   endfacet
   facet normal -5.606626e-015 5.255189e-016 -1.000000e+000
      outer loop
         vertex 7.973695e+002 6.560089e+002 6.321425e+002
         vertex 8.033365e+002 6.264307e+002 6.321425e+002
         vertex 7.962668e+002 6.561053e+002 6.321425e+002
      endloop
   endfacet
   facet normal -5.606626e-015 5.255189e-016 -1.000000e+000
      outer loop
         vertex 8.022339e+002 6.664406e+002 6.321425e+002
         vertex 8.014512e+002 6.672233e+002 6.321425e+002
         vertex 8.195944e+002 7.683500e+002 6.321425e+002
      endloop
   endfacet
   facet normal -5.606626e-015 5.255189e-016 -1.000000e+000
      outer loop
         vertex 8.195944e+002 7.683500e+002 6.321425e+002
         vertex 8.014512e+002 6.672233e+002 6.321425e+002
         vertex 8.005444e+002 6.678582e+002 6.321425e+002
      endloop
   endfacet
   facet normal -5.606626e-015 5.255189e-016 -1.000000e+000
      outer loop
         vertex 7.914024e+002 6.645307e+002 6.321425e+002
         vertex 7.911160e+002 6.634615e+002 6.321425e+002
         vertex 7.814945e+002 7.683500e+002 6.321425e+002
      endloop
   endfacet
   facet normal -5.606626e-015 5.255189e-016 -1.000000e+000
      outer loop
         vertex 7.814945e+002 7.683500e+002 6.321425e+002
         vertex 7.911160e+002 6.634615e+002 6.321425e+002
         vertex 7.910194e+002 6.623589e+002 6.321425e+002
      endloop
   endfacet
   facet normal -5.606626e-015 5.255189e-016 -1.000000e+000
      outer loop
         vertex 7.814945e+002 7.683500e+002 6.321425e+002
         vertex 7.910194e+002 6.623589e+002 6.321425e+002
         vertex 7.925051e+002 6.283406e+002 6.321425e+002
      endloop
   endfacet
   facet normal -5.606626e-015 5.255189e-016 -1.000000e+000
      outer loop
         vertex 7.925051e+002 6.283406e+002 6.321425e+002
         vertex 7.910194e+002 6.623589e+002 6.321425e+002
         vertex 7.932878e+002 6.291233e+002 6.321425e+002
      endloop
   endfacet
   facet normal -5.606626e-015 5.255189e-016 -1.000000e+000
      outer loop
         vertex 8.022339e+002 6.283406e+002 6.321425e+002
         vertex 8.014512e+002 6.291233e+002 6.321425e+002
         vertex 7.932878e+002 6.574945e+002 6.321425e+002
      endloop
   endfacet
   facet normal -5.606626e-015 5.255189e-016 -1.000000e+000
      outer loop
         vertex 7.932878e+002 6.574945e+002 6.321425e+002
         vertex 8.014512e+002 6.291233e+002 6.321425e+002
         vertex 8.005444e+002 6.297581e+002 6.321425e+002
      endloop
   endfacet
   facet normal -5.606626e-015 5.255189e-016 -1.000000e+000
      outer loop
         vertex 7.932878e+002 6.574945e+002 6.321425e+002
         vertex 8.005444e+002 6.297581e+002 6.321425e+002
         vertex 7.995413e+002 6.302259e+002 6.321425e+002
      endloop
   endfacet
   facet normal -5.606626e-015 5.255189e-016 -1.000000e+000
      outer loop
         vertex 8.028687e+002 6.274339e+002 6.321425e+002
         vertex 7.932878e+002 6.574945e+002 6.321425e+002
         vertex 8.033365e+002 6.264307e+002 6.321425e+002
      endloop
   endfacet
   facet normal -5.606626e-015 5.255189e-016 -1.000000e+000
      outer loop
         vertex 8.033365e+002 6.264307e+002 6.321425e+002
         vertex 7.932878e+002 6.574945e+002 6.321425e+002
         vertex 7.941945e+002 6.568596e+002 6.321425e+002
      endloop
   endfacet
   facet normal -5.606626e-015 5.255189e-016 -1.000000e+000
      outer loop
         vertex 8.033365e+002 6.264307e+002 6.321425e+002
         vertex 7.941945e+002 6.568596e+002 6.321425e+002
         vertex 7.951977e+002 6.563918e+002 6.321425e+002
      endloop
   endfacet
   facet normal -5.606626e-015 5.255189e-016 -1.000000e+000
      outer loop
         vertex 7.995413e+002 6.563918e+002 6.321425e+002
         vertex 8.005444e+002 6.568596e+002 6.321425e+002
         vertex 8.036230e+002 6.253616e+002 6.321425e+002
      endloop
   endfacet
   facet normal -5.606626e-015 5.255189e-016 -1.000000e+000
      outer loop
         vertex 8.036230e+002 6.253616e+002 6.321425e+002
         vertex 8.005444e+002 6.568596e+002 6.321425e+002
         vertex 8.014512e+002 6.574945e+002 6.321425e+002
      endloop
   endfacet
   facet normal -5.606626e-015 5.255189e-016 -1.000000e+000
      outer loop
         vertex 8.036230e+002 6.253616e+002 6.321425e+002
         vertex 8.014512e+002 6.574945e+002 6.321425e+002
         vertex 8.037195e+002 6.242589e+002 6.321425e+002
      endloop
   endfacet
   facet normal -5.606626e-015 5.255189e-016 -1.000000e+000
      outer loop
         vertex 8.037195e+002 6.242589e+002 6.321425e+002
         vertex 8.014512e+002 6.574945e+002 6.321425e+002
         vertex 8.022339e+002 6.582772e+002 6.321425e+002
      endloop
   endfacet
   facet normal -5.606626e-015 5.255189e-016 -1.000000e+000
      outer loop
         vertex 8.036230e+002 6.634615e+002 6.321425e+002
         vertex 8.033365e+002 6.645307e+002 6.321425e+002
         vertex 8.195944e+002 7.683500e+002 6.321425e+002
      endloop
   endfacet
   facet normal -5.606626e-015 5.255189e-016 -1.000000e+000
      outer loop
         vertex 8.195944e+002 7.683500e+002 6.321425e+002
         vertex 8.033365e+002 6.645307e+002 6.321425e+002
         vertex 8.028687e+002 6.655339e+002 6.321425e+002
      endloop
   endfacet
   facet normal -5.606626e-015 5.255189e-016 -1.000000e+000
      outer loop
         vertex 8.195944e+002 7.683500e+002 6.321425e+002
         vertex 8.028687e+002 6.655339e+002 6.321425e+002
         vertex 8.022339e+002 6.664406e+002 6.321425e+002
      endloop
   endfacet
   facet normal -5.606626e-015 5.255189e-016 -1.000000e+000
      outer loop
         vertex 7.914024e+002 6.264307e+002 6.321425e+002
         vertex 7.911160e+002 6.253616e+002 6.321425e+002
         vertex 7.814945e+002 7.683500e+002 6.321425e+002
      endloop
   endfacet
   facet normal -5.606626e-015 5.255189e-016 -1.000000e+000
      outer loop
         vertex 7.814945e+002 7.683500e+002 6.321425e+002
         vertex 7.911160e+002 6.253616e+002 6.321425e+002
         vertex 7.910194e+002 6.242589e+002 6.321425e+002
      endloop
   endfacet
   facet normal -5.606626e-015 5.255189e-016 -1.000000e+000
      outer loop
         vertex 7.814945e+002 7.683500e+002 6.321425e+002
         vertex 7.910194e+002 6.242589e+002 6.321425e+002
         vertex 7.814945e+002 3.492500e+002 6.321425e+002
      endloop
   endfacet
   facet normal -5.606626e-015 5.255189e-016 -1.000000e+000
      outer loop
         vertex 7.910194e+002 6.242589e+002 6.321425e+002
         vertex 7.911160e+002 6.231562e+002 6.321425e+002
         vertex 7.814945e+002 3.492500e+002 6.321425e+002
      endloop
   endfacet
   facet normal -5.606626e-015 5.255189e-016 -1.000000e+000
      outer loop
         vertex 7.814945e+002 3.492500e+002 6.321425e+002
         vertex 7.911160e+002 6.231562e+002 6.321425e+002
         vertex 7.914024e+002 6.220870e+002 6.321425e+002
      endloop
   endfacet
   facet normal -5.606626e-015 5.255189e-016 -1.000000e+000
      outer loop
         vertex 7.814945e+002 3.492500e+002 6.321425e+002
         vertex 7.914024e+002 6.220870e+002 6.321425e+002
         vertex 8.195944e+002 3.492500e+002 6.321425e+002
      endloop
   endfacet
   facet normal -5.606626e-015 5.255189e-016 -1.000000e+000
      outer loop
         vertex 8.033365e+002 6.220870e+002 6.321425e+002
         vertex 8.195944e+002 3.492500e+002 6.321425e+002
         vertex 8.028687e+002 6.210839e+002 6.321425e+002
      endloop
   endfacet
   facet normal -5.606626e-015 5.255189e-016 -1.000000e+000
      outer loop
         vertex 8.028687e+002 6.210839e+002 6.321425e+002
         vertex 8.195944e+002 3.492500e+002 6.321425e+002
         vertex 8.022339e+002 6.201771e+002 6.321425e+002
      endloop
   endfacet
   facet normal -5.606626e-015 5.255189e-016 -1.000000e+000
      outer loop
         vertex 8.005444e+002 6.678582e+002 6.321425e+002
         vertex 7.995413e+002 6.683259e+002 6.321425e+002
         vertex 8.195944e+002 7.683500e+002 6.321425e+002
      endloop
   endfacet
   facet normal -5.606626e-015 5.255189e-016 -1.000000e+000
      outer loop
         vertex 8.195944e+002 7.683500e+002 6.321425e+002
         vertex 7.995413e+002 6.683259e+002 6.321425e+002
         vertex 7.984721e+002 6.686124e+002 6.321425e+002
      endloop
   endfacet
   facet normal -5.606626e-015 5.255189e-016 -1.000000e+000
      outer loop
         vertex 8.195944e+002 7.683500e+002 6.321425e+002
         vertex 7.984721e+002 6.686124e+002 6.321425e+002
         vertex 7.814945e+002 7.683500e+002 6.321425e+002
      endloop
   endfacet
   facet normal -5.606626e-015 5.255189e-016 -1.000000e+000
      outer loop
         vertex 7.814945e+002 7.683500e+002 6.321425e+002
         vertex 7.984721e+002 6.686124e+002 6.321425e+002
         vertex 7.973695e+002 6.687089e+002 6.321425e+002
      endloop
   endfacet
   facet normal -5.606626e-015 5.255189e-016 -1.000000e+000
      outer loop
         vertex 7.814945e+002 7.683500e+002 6.321425e+002
         vertex 7.973695e+002 6.687089e+002 6.321425e+002
         vertex 7.962668e+002 6.686124e+002 6.321425e+002
      endloop
   endfacet
   facet normal -5.606626e-015 5.255189e-016 -1.000000e+000
      outer loop
         vertex 7.995413e+002 6.302259e+002 6.321425e+002
         vertex 7.984721e+002 6.305124e+002 6.321425e+002
         vertex 7.932878e+002 6.574945e+002 6.321425e+002
      endloop
   endfacet
   facet normal -5.606626e-015 5.255189e-016 -1.000000e+000
      outer loop
         vertex 7.932878e+002 6.574945e+002 6.321425e+002
         vertex 7.984721e+002 6.305124e+002 6.321425e+002
         vertex 7.973695e+002 6.306089e+002 6.321425e+002
      endloop
   endfacet
   facet normal -5.606626e-015 5.255189e-016 -1.000000e+000
      outer loop
         vertex 7.932878e+002 6.574945e+002 6.321425e+002
         vertex 7.973695e+002 6.306089e+002 6.321425e+002
         vertex 7.925051e+002 6.582772e+002 6.321425e+002
      endloop
   endfacet
   facet normal -5.606626e-015 5.255189e-016 -1.000000e+000
      outer loop
         vertex 7.925051e+002 6.582772e+002 6.321425e+002
         vertex 7.973695e+002 6.306089e+002 6.321425e+002
         vertex 7.962668e+002 6.305124e+002 6.321425e+002
      endloop
   endfacet
   facet normal -5.606626e-015 5.255189e-016 -1.000000e+000
      outer loop
         vertex 7.925051e+002 6.582772e+002 6.321425e+002
         vertex 7.962668e+002 6.305124e+002 6.321425e+002
         vertex 7.918702e+002 6.591838e+002 6.321425e+002
      endloop
   endfacet
   facet normal -5.606626e-015 5.255189e-016 -1.000000e+000
      outer loop
         vertex 7.918702e+002 6.591838e+002 6.321425e+002
         vertex 7.962668e+002 6.305124e+002 6.321425e+002
         vertex 7.951977e+002 6.302259e+002 6.321425e+002
      endloop
   endfacet
   facet normal -5.606626e-015 5.255189e-016 -1.000000e+000
      outer loop
         vertex 7.918702e+002 6.591838e+002 6.321425e+002
         vertex 7.951977e+002 6.302259e+002 6.321425e+002
         vertex 7.941945e+002 6.297581e+002 6.321425e+002
      endloop
   endfacet
   facet normal -5.606626e-015 5.255189e-016 -1.000000e+000
      outer loop
         vertex 7.914024e+002 6.220870e+002 6.321425e+002
         vertex 7.918702e+002 6.210839e+002 6.321425e+002
         vertex 8.195944e+002 3.492500e+002 6.321425e+002
      endloop
   endfacet
   facet normal -5.606626e-015 5.255189e-016 -1.000000e+000
      outer loop
         vertex 8.195944e+002 3.492500e+002 6.321425e+002
         vertex 7.918702e+002 6.210839e+002 6.321425e+002
         vertex 7.925051e+002 6.201771e+002 6.321425e+002
      endloop
   endfacet
   facet normal -5.606626e-015 5.255189e-016 -1.000000e+000
      outer loop
         vertex 8.195944e+002 3.492500e+002 6.321425e+002
         vertex 7.925051e+002 6.201771e+002 6.321425e+002
         vertex 7.932878e+002 6.193945e+002 6.321425e+002
      endloop
   endfacet
   facet normal -5.606626e-015 5.255189e-016 -1.000000e+000
      outer loop
         vertex 8.033365e+002 6.220870e+002 6.321425e+002
         vertex 8.036230e+002 6.231562e+002 6.321425e+002
         vertex 8.195944e+002 3.492500e+002 6.321425e+002
      endloop
   endfacet
   facet normal -5.606626e-015 5.255189e-016 -1.000000e+000
      outer loop
         vertex 8.195944e+002 3.492500e+002 6.321425e+002
         vertex 8.036230e+002 6.231562e+002 6.321425e+002
         vertex 8.037195e+002 6.242589e+002 6.321425e+002
      endloop
   endfacet
   facet normal -5.606626e-015 5.255189e-016 -1.000000e+000
      outer loop
         vertex 8.195944e+002 3.492500e+002 6.321425e+002
         vertex 8.037195e+002 6.242589e+002 6.321425e+002
         vertex 8.028687e+002 6.591838e+002 6.321425e+002
      endloop
   endfacet
   facet normal -5.606626e-015 5.255189e-016 -1.000000e+000
      outer loop
         vertex 8.028687e+002 6.591838e+002 6.321425e+002
         vertex 8.037195e+002 6.242589e+002 6.321425e+002
         vertex 8.022339e+002 6.582772e+002 6.321425e+002
      endloop
   endfacet
   facet normal -5.606626e-015 5.255189e-016 -1.000000e+000
      outer loop
         vertex 8.028687e+002 6.591838e+002 6.321425e+002
         vertex 8.033365e+002 6.601871e+002 6.321425e+002
         vertex 8.195944e+002 3.492500e+002 6.321425e+002
      endloop
   endfacet
   facet normal -5.606626e-015 5.255189e-016 -1.000000e+000
      outer loop
         vertex 8.195944e+002 3.492500e+002 6.321425e+002
         vertex 8.033365e+002 6.601871e+002 6.321425e+002
         vertex 8.036230e+002 6.612562e+002 6.321425e+002
      endloop
   endfacet
   facet normal -5.606626e-015 5.255189e-016 -1.000000e+000
      outer loop
         vertex 8.195944e+002 3.492500e+002 6.321425e+002
         vertex 8.036230e+002 6.612562e+002 6.321425e+002
         vertex 8.195944e+002 7.683500e+002 6.321425e+002
      endloop
   endfacet
   facet normal -5.606626e-015 5.255189e-016 -1.000000e+000
      outer loop
         vertex 8.195944e+002 7.683500e+002 6.321425e+002
         vertex 8.036230e+002 6.612562e+002 6.321425e+002
         vertex 8.037195e+002 6.623589e+002 6.321425e+002
      endloop
   endfacet
   facet normal -5.606626e-015 5.255189e-016 -1.000000e+000
      outer loop
         vertex 8.195944e+002 7.683500e+002 6.321425e+002
         vertex 8.037195e+002 6.623589e+002 6.321425e+002
         vertex 8.036230e+002 6.634615e+002 6.321425e+002
      endloop
   endfacet
   facet normal -5.606626e-015 5.255189e-016 -1.000000e+000
      outer loop
         vertex 7.932878e+002 6.193945e+002 6.321425e+002
         vertex 7.941945e+002 6.187596e+002 6.321425e+002
         vertex 8.195944e+002 3.492500e+002 6.321425e+002
      endloop
   endfacet
   facet normal -5.606626e-015 5.255189e-016 -1.000000e+000
      outer loop
         vertex 8.195944e+002 3.492500e+002 6.321425e+002
         vertex 7.941945e+002 6.187596e+002 6.321425e+002
         vertex 7.951977e+002 6.182918e+002 6.321425e+002
      endloop
   endfacet
   facet normal -5.606626e-015 5.255189e-016 -1.000000e+000
      outer loop
         vertex 8.195944e+002 3.492500e+002 6.321425e+002
         vertex 7.951977e+002 6.182918e+002 6.321425e+002
         vertex 7.962668e+002 6.180053e+002 6.321425e+002
      endloop
   endfacet
   facet normal -5.606626e-015 5.255189e-016 -1.000000e+000
      outer loop
         vertex 7.962668e+002 6.180053e+002 6.321425e+002
         vertex 7.973695e+002 6.179089e+002 6.321425e+002
         vertex 8.195944e+002 3.492500e+002 6.321425e+002
      endloop
   endfacet
   facet normal -5.606626e-015 5.255189e-016 -1.000000e+000
      outer loop
         vertex 8.195944e+002 3.492500e+002 6.321425e+002
         vertex 7.973695e+002 6.179089e+002 6.321425e+002
         vertex 7.984721e+002 6.180053e+002 6.321425e+002
      endloop
   endfacet
   facet normal -5.606626e-015 5.255189e-016 -1.000000e+000
      outer loop
         vertex 8.195944e+002 3.492500e+002 6.321425e+002
         vertex 7.984721e+002 6.180053e+002 6.321425e+002
         vertex 7.995413e+002 6.182918e+002 6.321425e+002
      endloop
   endfacet
   facet normal -5.606626e-015 5.255189e-016 -1.000000e+000
      outer loop
         vertex 7.995413e+002 6.182918e+002 6.321425e+002
         vertex 8.005444e+002 6.187596e+002 6.321425e+002
         vertex 8.195944e+002 3.492500e+002 6.321425e+002
      endloop
   endfacet
   facet normal -5.606626e-015 5.255189e-016 -1.000000e+000
      outer loop
         vertex 8.195944e+002 3.492500e+002 6.321425e+002
         vertex 8.005444e+002 6.187596e+002 6.321425e+002
         vertex 8.014512e+002 6.193945e+002 6.321425e+002
      endloop
   endfacet
   facet normal -5.606626e-015 5.255189e-016 -1.000000e+000
      outer loop
         vertex 8.195944e+002 3.492500e+002 6.321425e+002
         vertex 8.014512e+002 6.193945e+002 6.321425e+002
         vertex 8.022339e+002 6.201771e+002 6.321425e+002
      endloop
   endfacet
   facet normal -1.000000e+000 -2.382606e-015 -5.884182e-015
      outer loop
         vertex 7.814945e+002 3.492500e+002 6.321425e+002
         vertex 7.814945e+002 3.492500e+002 6.384925e+002
         vertex 7.814945e+002 7.683500e+002 6.321425e+002
      endloop
   endfacet
   facet normal -1.000000e+000 -2.382606e-015 -5.884182e-015
      outer loop
         vertex 7.814945e+002 7.683500e+002 6.321425e+002
         vertex 7.814945e+002 3.492500e+002 6.384925e+002
         vertex 7.814945e+002 7.683500e+002 6.384925e+002
      endloop
   endfacet
   facet normal 5.606626e-015 -5.255189e-016 1.000000e+000
      outer loop
         vertex 8.005444e+002 6.297581e+002 6.384925e+002
         vertex 8.014512e+002 6.291233e+002 6.384925e+002
         vertex 8.028687e+002 6.591838e+002 6.384925e+002
      endloop
   endfacet
   facet normal 5.606626e-015 -5.255189e-016 1.000000e+000
      outer loop
         vertex 8.005444e+002 6.568596e+002 6.384925e+002
         vertex 7.995413e+002 6.563918e+002 6.384925e+002
         vertex 7.914024e+002 6.264307e+002 6.384925e+002
      endloop
   endfacet
   facet normal 5.606626e-015 -5.255189e-016 1.000000e+000
      outer loop
         vertex 8.037195e+002 6.623589e+002 6.384925e+002
         vertex 8.036230e+002 6.612562e+002 6.384925e+002
         vertex 8.014512e+002 6.291233e+002 6.384925e+002
      endloop
   endfacet
   facet normal 5.606626e-015 -5.255189e-016 1.000000e+000
      outer loop
         vertex 8.014512e+002 6.291233e+002 6.384925e+002
         vertex 8.036230e+002 6.612562e+002 6.384925e+002
         vertex 8.033365e+002 6.601871e+002 6.384925e+002
      endloop
   endfacet
   facet normal 5.606626e-015 -5.255189e-016 1.000000e+000
      outer loop
         vertex 8.014512e+002 6.291233e+002 6.384925e+002
         vertex 8.033365e+002 6.601871e+002 6.384925e+002
         vertex 8.028687e+002 6.591838e+002 6.384925e+002
      endloop
   endfacet
   facet normal 5.606626e-015 -5.255189e-016 1.000000e+000
      outer loop
         vertex 8.014512e+002 6.672233e+002 6.384925e+002
         vertex 8.022339e+002 6.664406e+002 6.384925e+002
         vertex 8.132444e+002 7.683500e+002 6.384925e+002
      endloop
   endfacet
   facet normal 5.606626e-015 -5.255189e-016 1.000000e+000
      outer loop
         vertex 8.132444e+002 7.683500e+002 6.384925e+002
         vertex 8.022339e+002 6.664406e+002 6.384925e+002
         vertex 8.028687e+002 6.655339e+002 6.384925e+002
      endloop
   endfacet
   facet normal 5.606626e-015 -5.255189e-016 1.000000e+000
      outer loop
         vertex 8.132444e+002 7.683500e+002 6.384925e+002
         vertex 8.028687e+002 6.655339e+002 6.384925e+002
         vertex 8.033365e+002 6.645307e+002 6.384925e+002
      endloop
   endfacet
   facet normal 5.606626e-015 -5.255189e-016 1.000000e+000
      outer loop
         vertex 8.033365e+002 6.264307e+002 6.384925e+002
         vertex 8.132444e+002 7.683500e+002 6.384925e+002
         vertex 8.028687e+002 6.274339e+002 6.384925e+002
      endloop
   endfacet
   facet normal 5.606626e-015 -5.255189e-016 1.000000e+000
      outer loop
         vertex 8.028687e+002 6.274339e+002 6.384925e+002
         vertex 8.132444e+002 7.683500e+002 6.384925e+002
         vertex 8.022339e+002 6.283406e+002 6.384925e+002
      endloop
   endfacet
   facet normal 5.606626e-015 -5.255189e-016 1.000000e+000
      outer loop
         vertex 8.005444e+002 6.568596e+002 6.384925e+002
         vertex 7.914024e+002 6.264307e+002 6.384925e+002
         vertex 8.014512e+002 6.574945e+002 6.384925e+002
      endloop
   endfacet
   facet normal 5.606626e-015 -5.255189e-016 1.000000e+000
      outer loop
         vertex 8.014512e+002 6.574945e+002 6.384925e+002
         vertex 7.914024e+002 6.264307e+002 6.384925e+002
         vertex 7.918702e+002 6.274339e+002 6.384925e+002
      endloop
   endfacet
   facet normal 5.606626e-015 -5.255189e-016 1.000000e+000
      outer loop
         vertex 8.014512e+002 6.574945e+002 6.384925e+002
         vertex 7.918702e+002 6.274339e+002 6.384925e+002
         vertex 8.022339e+002 6.582772e+002 6.384925e+002
      endloop
   endfacet
   facet normal 5.606626e-015 -5.255189e-016 1.000000e+000
      outer loop
         vertex 7.814945e+002 7.683500e+002 6.384925e+002
         vertex 7.932878e+002 6.672233e+002 6.384925e+002
         vertex 7.941945e+002 6.678582e+002 6.384925e+002
      endloop
   endfacet
   facet normal 5.606626e-015 -5.255189e-016 1.000000e+000
      outer loop
         vertex 8.033365e+002 6.645307e+002 6.384925e+002
         vertex 8.036230e+002 6.634615e+002 6.384925e+002
         vertex 8.132444e+002 7.683500e+002 6.384925e+002
      endloop
   endfacet
   facet normal 5.606626e-015 -5.255189e-016 1.000000e+000
      outer loop
         vertex 8.132444e+002 7.683500e+002 6.384925e+002
         vertex 8.036230e+002 6.634615e+002 6.384925e+002
         vertex 8.037195e+002 6.623589e+002 6.384925e+002
      endloop
   endfacet
   facet normal 5.606626e-015 -5.255189e-016 1.000000e+000
      outer loop
         vertex 8.132444e+002 7.683500e+002 6.384925e+002
         vertex 8.037195e+002 6.623589e+002 6.384925e+002
         vertex 8.022339e+002 6.283406e+002 6.384925e+002
      endloop
   endfacet
   facet normal 5.606626e-015 -5.255189e-016 1.000000e+000
      outer loop
         vertex 8.022339e+002 6.283406e+002 6.384925e+002
         vertex 8.037195e+002 6.623589e+002 6.384925e+002
         vertex 8.014512e+002 6.291233e+002 6.384925e+002
      endloop
   endfacet
   facet normal 5.606626e-015 -5.255189e-016 1.000000e+000
      outer loop
         vertex 7.932878e+002 6.291233e+002 6.384925e+002
         vertex 7.941945e+002 6.297581e+002 6.384925e+002
         vertex 8.028687e+002 6.591838e+002 6.384925e+002
      endloop
   endfacet
   facet normal 5.606626e-015 -5.255189e-016 1.000000e+000
      outer loop
         vertex 7.995413e+002 6.563918e+002 6.384925e+002
         vertex 7.984721e+002 6.561053e+002 6.384925e+002
         vertex 7.914024e+002 6.264307e+002 6.384925e+002
      endloop
   endfacet
   facet normal 5.606626e-015 -5.255189e-016 1.000000e+000
      outer loop
         vertex 7.914024e+002 6.264307e+002 6.384925e+002
         vertex 7.984721e+002 6.561053e+002 6.384925e+002
         vertex 7.973695e+002 6.560089e+002 6.384925e+002
      endloop
   endfacet
   facet normal 5.606626e-015 -5.255189e-016 1.000000e+000
      outer loop
         vertex 7.914024e+002 6.264307e+002 6.384925e+002
         vertex 7.973695e+002 6.560089e+002 6.384925e+002
         vertex 7.911160e+002 6.253616e+002 6.384925e+002
      endloop
   endfacet
   facet normal 5.606626e-015 -5.255189e-016 1.000000e+000
      outer loop
         vertex 7.911160e+002 6.253616e+002 6.384925e+002
         vertex 7.973695e+002 6.560089e+002 6.384925e+002
         vertex 7.962668e+002 6.561053e+002 6.384925e+002
      endloop
   endfacet
   facet normal 5.606626e-015 -5.255189e-016 1.000000e+000
      outer loop
         vertex 7.911160e+002 6.253616e+002 6.384925e+002
         vertex 7.962668e+002 6.561053e+002 6.384925e+002
         vertex 7.951977e+002 6.563918e+002 6.384925e+002
      endloop
   endfacet
   facet normal 5.606626e-015 -5.255189e-016 1.000000e+000
      outer loop
         vertex 7.918702e+002 6.210839e+002 6.384925e+002
         vertex 7.914024e+002 6.220870e+002 6.384925e+002
         vertex 7.814945e+002 3.492500e+002 6.384925e+002
      endloop
   endfacet
   facet normal 5.606626e-015 -5.255189e-016 1.000000e+000
      outer loop
         vertex 8.022339e+002 6.582772e+002 6.384925e+002
         vertex 7.918702e+002 6.274339e+002 6.384925e+002
         vertex 8.028687e+002 6.591838e+002 6.384925e+002
      endloop
   endfacet
   facet normal 5.606626e-015 -5.255189e-016 1.000000e+000
      outer loop
         vertex 8.028687e+002 6.591838e+002 6.384925e+002
         vertex 7.918702e+002 6.274339e+002 6.384925e+002
         vertex 7.925051e+002 6.283406e+002 6.384925e+002
      endloop
   endfacet
   facet normal 5.606626e-015 -5.255189e-016 1.000000e+000
      outer loop
         vertex 8.028687e+002 6.591838e+002 6.384925e+002
         vertex 7.925051e+002 6.283406e+002 6.384925e+002
         vertex 7.932878e+002 6.291233e+002 6.384925e+002
      endloop
   endfacet
   facet normal 5.606626e-015 -5.255189e-016 1.000000e+000
      outer loop
         vertex 7.941945e+002 6.297581e+002 6.384925e+002
         vertex 7.951977e+002 6.302259e+002 6.384925e+002
         vertex 8.028687e+002 6.591838e+002 6.384925e+002
      endloop
   endfacet
   facet normal 5.606626e-015 -5.255189e-016 1.000000e+000
      outer loop
         vertex 8.028687e+002 6.591838e+002 6.384925e+002
         vertex 7.951977e+002 6.302259e+002 6.384925e+002
         vertex 7.962668e+002 6.305124e+002 6.384925e+002
      endloop
   endfacet
   facet normal 5.606626e-015 -5.255189e-016 1.000000e+000
      outer loop
         vertex 8.028687e+002 6.591838e+002 6.384925e+002
         vertex 7.962668e+002 6.305124e+002 6.384925e+002
         vertex 7.973695e+002 6.306089e+002 6.384925e+002
      endloop
   endfacet
   facet normal 5.606626e-015 -5.255189e-016 1.000000e+000
      outer loop
         vertex 8.033365e+002 6.264307e+002 6.384925e+002
         vertex 8.036230e+002 6.253616e+002 6.384925e+002
         vertex 8.132444e+002 7.683500e+002 6.384925e+002
      endloop
   endfacet
   facet normal 5.606626e-015 -5.255189e-016 1.000000e+000
      outer loop
         vertex 8.132444e+002 7.683500e+002 6.384925e+002
         vertex 8.036230e+002 6.253616e+002 6.384925e+002
         vertex 8.037195e+002 6.242589e+002 6.384925e+002
      endloop
   endfacet
   facet normal 5.606626e-015 -5.255189e-016 1.000000e+000
      outer loop
         vertex 8.132444e+002 7.683500e+002 6.384925e+002
         vertex 8.037195e+002 6.242589e+002 6.384925e+002
         vertex 8.132444e+002 3.492500e+002 6.384925e+002
      endloop
   endfacet
   facet normal 5.606626e-015 -5.255189e-016 1.000000e+000
      outer loop
         vertex 8.132444e+002 3.492500e+002 6.384925e+002
         vertex 8.037195e+002 6.242589e+002 6.384925e+002
         vertex 8.036230e+002 6.231562e+002 6.384925e+002
      endloop
   endfacet
   facet normal 5.606626e-015 -5.255189e-016 1.000000e+000
      outer loop
         vertex 8.132444e+002 3.492500e+002 6.384925e+002
         vertex 8.036230e+002 6.231562e+002 6.384925e+002
         vertex 8.033365e+002 6.220870e+002 6.384925e+002
      endloop
   endfacet
   facet normal 5.606626e-015 -5.255189e-016 1.000000e+000
      outer loop
         vertex 7.914024e+002 6.645307e+002 6.384925e+002
         vertex 7.918702e+002 6.655339e+002 6.384925e+002
         vertex 7.814945e+002 7.683500e+002 6.384925e+002
      endloop
   endfacet
   facet normal 5.606626e-015 -5.255189e-016 1.000000e+000
      outer loop
         vertex 7.814945e+002 7.683500e+002 6.384925e+002
         vertex 7.918702e+002 6.655339e+002 6.384925e+002
         vertex 7.925051e+002 6.664406e+002 6.384925e+002
      endloop
   endfacet
   facet normal 5.606626e-015 -5.255189e-016 1.000000e+000
      outer loop
         vertex 7.814945e+002 7.683500e+002 6.384925e+002
         vertex 7.925051e+002 6.664406e+002 6.384925e+002
         vertex 7.932878e+002 6.672233e+002 6.384925e+002
      endloop
   endfacet
   facet normal 5.606626e-015 -5.255189e-016 1.000000e+000
      outer loop
         vertex 7.941945e+002 6.678582e+002 6.384925e+002
         vertex 7.951977e+002 6.683259e+002 6.384925e+002
         vertex 7.814945e+002 7.683500e+002 6.384925e+002
      endloop
   endfacet
   facet normal 5.606626e-015 -5.255189e-016 1.000000e+000
      outer loop
         vertex 7.814945e+002 7.683500e+002 6.384925e+002
         vertex 7.951977e+002 6.683259e+002 6.384925e+002
         vertex 7.962668e+002 6.686124e+002 6.384925e+002
      endloop
   endfacet
   facet normal 5.606626e-015 -5.255189e-016 1.000000e+000
      outer loop
         vertex 7.814945e+002 7.683500e+002 6.384925e+002
         vertex 7.962668e+002 6.686124e+002 6.384925e+002
         vertex 8.132444e+002 7.683500e+002 6.384925e+002
      endloop
   endfacet
   facet normal 5.606626e-015 -5.255189e-016 1.000000e+000
      outer loop
         vertex 8.132444e+002 7.683500e+002 6.384925e+002
         vertex 7.962668e+002 6.686124e+002 6.384925e+002
         vertex 7.973695e+002 6.687089e+002 6.384925e+002
      endloop
   endfacet
   facet normal 5.606626e-015 -5.255189e-016 1.000000e+000
      outer loop
         vertex 8.132444e+002 7.683500e+002 6.384925e+002
         vertex 7.973695e+002 6.687089e+002 6.384925e+002
         vertex 7.984721e+002 6.686124e+002 6.384925e+002
      endloop
   endfacet
   facet normal 5.606626e-015 -5.255189e-016 1.000000e+000
      outer loop
         vertex 7.973695e+002 6.306089e+002 6.384925e+002
         vertex 7.984721e+002 6.305124e+002 6.384925e+002
         vertex 8.028687e+002 6.591838e+002 6.384925e+002
      endloop
   endfacet
   facet normal 5.606626e-015 -5.255189e-016 1.000000e+000
      outer loop
         vertex 8.028687e+002 6.591838e+002 6.384925e+002
         vertex 7.984721e+002 6.305124e+002 6.384925e+002
         vertex 7.995413e+002 6.302259e+002 6.384925e+002
      endloop
   endfacet
   facet normal 5.606626e-015 -5.255189e-016 1.000000e+000
      outer loop
         vertex 8.028687e+002 6.591838e+002 6.384925e+002
         vertex 7.995413e+002 6.302259e+002 6.384925e+002
         vertex 8.005444e+002 6.297581e+002 6.384925e+002
      endloop
   endfacet
   facet normal 5.606626e-015 -5.255189e-016 1.000000e+000
      outer loop
         vertex 7.925051e+002 6.582772e+002 6.384925e+002
         vertex 7.910194e+002 6.242589e+002 6.384925e+002
         vertex 7.932878e+002 6.574945e+002 6.384925e+002
      endloop
   endfacet
   facet normal 5.606626e-015 -5.255189e-016 1.000000e+000
      outer loop
         vertex 7.932878e+002 6.574945e+002 6.384925e+002
         vertex 7.910194e+002 6.242589e+002 6.384925e+002
         vertex 7.911160e+002 6.253616e+002 6.384925e+002
      endloop
   endfacet
   facet normal 5.606626e-015 -5.255189e-016 1.000000e+000
      outer loop
         vertex 7.932878e+002 6.574945e+002 6.384925e+002
         vertex 7.911160e+002 6.253616e+002 6.384925e+002
         vertex 7.941945e+002 6.568596e+002 6.384925e+002
      endloop
   endfacet
   facet normal 5.606626e-015 -5.255189e-016 1.000000e+000
      outer loop
         vertex 7.941945e+002 6.568596e+002 6.384925e+002
         vertex 7.911160e+002 6.253616e+002 6.384925e+002
         vertex 7.951977e+002 6.563918e+002 6.384925e+002
      endloop
   endfacet
   facet normal 5.606626e-015 -5.255189e-016 1.000000e+000
      outer loop
         vertex 7.814945e+002 3.492500e+002 6.384925e+002
         vertex 7.918702e+002 6.591838e+002 6.384925e+002
         vertex 7.914024e+002 6.601871e+002 6.384925e+002
      endloop
   endfacet
   facet normal 5.606626e-015 -5.255189e-016 1.000000e+000
      outer loop
         vertex 7.914024e+002 6.601871e+002 6.384925e+002
         vertex 7.911160e+002 6.612562e+002 6.384925e+002
         vertex 7.814945e+002 3.492500e+002 6.384925e+002
      endloop
   endfacet
   facet normal 5.606626e-015 -5.255189e-016 1.000000e+000
      outer loop
         vertex 7.814945e+002 3.492500e+002 6.384925e+002
         vertex 7.911160e+002 6.612562e+002 6.384925e+002
         vertex 7.910194e+002 6.623589e+002 6.384925e+002
      endloop
   endfacet
   facet normal 5.606626e-015 -5.255189e-016 1.000000e+000
      outer loop
         vertex 7.814945e+002 3.492500e+002 6.384925e+002
         vertex 7.910194e+002 6.623589e+002 6.384925e+002
         vertex 7.814945e+002 7.683500e+002 6.384925e+002
      endloop
   endfacet
   facet normal 5.606626e-015 -5.255189e-016 1.000000e+000
      outer loop
         vertex 7.814945e+002 7.683500e+002 6.384925e+002
         vertex 7.910194e+002 6.623589e+002 6.384925e+002
         vertex 7.911160e+002 6.634615e+002 6.384925e+002
      endloop
   endfacet
   facet normal 5.606626e-015 -5.255189e-016 1.000000e+000
      outer loop
         vertex 7.814945e+002 7.683500e+002 6.384925e+002
         vertex 7.911160e+002 6.634615e+002 6.384925e+002
         vertex 7.914024e+002 6.645307e+002 6.384925e+002
      endloop
   endfacet
   facet normal 5.606626e-015 -5.255189e-016 1.000000e+000
      outer loop
         vertex 7.984721e+002 6.686124e+002 6.384925e+002
         vertex 7.995413e+002 6.683259e+002 6.384925e+002
         vertex 8.132444e+002 7.683500e+002 6.384925e+002
      endloop
   endfacet
   facet normal 5.606626e-015 -5.255189e-016 1.000000e+000
      outer loop
         vertex 8.132444e+002 7.683500e+002 6.384925e+002
         vertex 7.995413e+002 6.683259e+002 6.384925e+002
         vertex 8.005444e+002 6.678582e+002 6.384925e+002
      endloop
   endfacet
   facet normal 5.606626e-015 -5.255189e-016 1.000000e+000
      outer loop
         vertex 8.132444e+002 7.683500e+002 6.384925e+002
         vertex 8.005444e+002 6.678582e+002 6.384925e+002
         vertex 8.014512e+002 6.672233e+002 6.384925e+002
      endloop
   endfacet
   facet normal 5.606626e-015 -5.255189e-016 1.000000e+000
      outer loop
         vertex 7.941945e+002 6.187596e+002 6.384925e+002
         vertex 7.932878e+002 6.193945e+002 6.384925e+002
         vertex 7.814945e+002 3.492500e+002 6.384925e+002
      endloop
   endfacet
   facet normal 5.606626e-015 -5.255189e-016 1.000000e+000
      outer loop
         vertex 7.814945e+002 3.492500e+002 6.384925e+002
         vertex 7.932878e+002 6.193945e+002 6.384925e+002
         vertex 7.925051e+002 6.201771e+002 6.384925e+002
      endloop
   endfacet
   facet normal 5.606626e-015 -5.255189e-016 1.000000e+000
      outer loop
         vertex 7.814945e+002 3.492500e+002 6.384925e+002
         vertex 7.925051e+002 6.201771e+002 6.384925e+002
         vertex 7.918702e+002 6.210839e+002 6.384925e+002
      endloop
   endfacet
   facet normal 5.606626e-015 -5.255189e-016 1.000000e+000
      outer loop
         vertex 7.914024e+002 6.220870e+002 6.384925e+002
         vertex 7.911160e+002 6.231562e+002 6.384925e+002
         vertex 7.814945e+002 3.492500e+002 6.384925e+002
      endloop
   endfacet
   facet normal 5.606626e-015 -5.255189e-016 1.000000e+000
      outer loop
         vertex 7.814945e+002 3.492500e+002 6.384925e+002
         vertex 7.911160e+002 6.231562e+002 6.384925e+002
         vertex 7.910194e+002 6.242589e+002 6.384925e+002
      endloop
   endfacet
   facet normal 5.606626e-015 -5.255189e-016 1.000000e+000
      outer loop
         vertex 7.814945e+002 3.492500e+002 6.384925e+002
         vertex 7.910194e+002 6.242589e+002 6.384925e+002
         vertex 7.918702e+002 6.591838e+002 6.384925e+002
      endloop
   endfacet
   facet normal 5.606626e-015 -5.255189e-016 1.000000e+000
      outer loop
         vertex 7.918702e+002 6.591838e+002 6.384925e+002
         vertex 7.910194e+002 6.242589e+002 6.384925e+002
         vertex 7.925051e+002 6.582772e+002 6.384925e+002
      endloop
   endfacet
   facet normal 5.606626e-015 -5.255189e-016 1.000000e+000
      outer loop
         vertex 7.973695e+002 6.179089e+002 6.384925e+002
         vertex 7.962668e+002 6.180053e+002 6.384925e+002
         vertex 7.814945e+002 3.492500e+002 6.384925e+002
      endloop
   endfacet
   facet normal 5.606626e-015 -5.255189e-016 1.000000e+000
      outer loop
         vertex 7.814945e+002 3.492500e+002 6.384925e+002
         vertex 7.962668e+002 6.180053e+002 6.384925e+002
         vertex 7.951977e+002 6.182918e+002 6.384925e+002
      endloop
   endfacet
   facet normal 5.606626e-015 -5.255189e-016 1.000000e+000
      outer loop
         vertex 7.814945e+002 3.492500e+002 6.384925e+002
         vertex 7.951977e+002 6.182918e+002 6.384925e+002
         vertex 7.941945e+002 6.187596e+002 6.384925e+002
      endloop
   endfacet
   facet normal 5.606626e-015 -5.255189e-016 1.000000e+000
      outer loop
         vertex 8.033365e+002 6.220870e+002 6.384925e+002
         vertex 8.028687e+002 6.210839e+002 6.384925e+002
         vertex 8.132444e+002 3.492500e+002 6.384925e+002
      endloop
   endfacet
   facet normal 5.606626e-015 -5.255189e-016 1.000000e+000
      outer loop
         vertex 8.132444e+002 3.492500e+002 6.384925e+002
         vertex 8.028687e+002 6.210839e+002 6.384925e+002
         vertex 8.022339e+002 6.201771e+002 6.384925e+002
      endloop
   endfacet
   facet normal 5.606626e-015 -5.255189e-016 1.000000e+000
      outer loop
         vertex 8.132444e+002 3.492500e+002 6.384925e+002
         vertex 8.022339e+002 6.201771e+002 6.384925e+002
         vertex 8.014512e+002 6.193945e+002 6.384925e+002
      endloop
   endfacet
   facet normal 5.606626e-015 -5.255189e-016 1.000000e+000
      outer loop
         vertex 8.014512e+002 6.193945e+002 6.384925e+002
         vertex 8.005444e+002 6.187596e+002 6.384925e+002
         vertex 8.132444e+002 3.492500e+002 6.384925e+002
      endloop
   endfacet
   facet normal 5.606626e-015 -5.255189e-016 1.000000e+000
      outer loop
         vertex 8.132444e+002 3.492500e+002 6.384925e+002
         vertex 8.005444e+002 6.187596e+002 6.384925e+002
         vertex 7.995413e+002 6.182918e+002 6.384925e+002
      endloop
   endfacet
   facet normal 5.606626e-015 -5.255189e-016 1.000000e+000
      outer loop
         vertex 8.132444e+002 3.492500e+002 6.384925e+002
         vertex 7.995413e+002 6.182918e+002 6.384925e+002
         vertex 7.814945e+002 3.492500e+002 6.384925e+002
      endloop
   endfacet
   facet normal 5.606626e-015 -5.255189e-016 1.000000e+000
      outer loop
         vertex 7.814945e+002 3.492500e+002 6.384925e+002
         vertex 7.995413e+002 6.182918e+002 6.384925e+002
         vertex 7.984721e+002 6.180053e+002 6.384925e+002
      endloop
   endfacet
   facet normal 5.606626e-015 -5.255189e-016 1.000000e+000
      outer loop
         vertex 7.814945e+002 3.492500e+002 6.384925e+002
         vertex 7.984721e+002 6.180053e+002 6.384925e+002
         vertex 7.973695e+002 6.179089e+002 6.384925e+002
      endloop
   endfacet
   facet normal -1.000000e+000 -2.382606e-015 -5.884182e-015
      outer loop
         vertex 8.132444e+002 3.492500e+002 6.384925e+002
         vertex 8.132444e+002 3.492500e+002 6.702425e+002
         vertex 8.132444e+002 7.683500e+002 6.384925e+002
      endloop
   endfacet
   facet normal -1.000000e+000 -2.382606e-015 -5.884182e-015
      outer loop
         vertex 8.132444e+002 7.683500e+002 6.384925e+002
         vertex 8.132444e+002 3.492500e+002 6.702425e+002
         vertex 8.132444e+002 7.683500e+002 6.702425e+002
      endloop
   endfacet
   facet normal 5.606626e-015 -5.255189e-016 1.000000e+000
      outer loop
         vertex 8.132444e+002 3.492500e+002 6.702425e+002
         vertex 8.195944e+002 3.492500e+002 6.702425e+002
         vertex 8.132444e+002 7.683500e+002 6.702425e+002
      endloop
   endfacet
   facet normal 5.606626e-015 -5.255189e-016 1.000000e+000
      outer loop
         vertex 8.132444e+002 7.683500e+002 6.702425e+002
         vertex 8.195944e+002 3.492500e+002 6.702425e+002
         vertex 8.195944e+002 7.683500e+002 6.702425e+002
      endloop
   endfacet
   facet normal 1.000000e+000 2.382606e-015 5.884182e-015
      outer loop
         vertex 8.195944e+002 3.492500e+002 6.321425e+002
         vertex 8.195944e+002 7.683500e+002 6.321425e+002
         vertex 8.195944e+002 3.492500e+002 6.702425e+002
      endloop
   endfacet
   facet normal 1.000000e+000 2.382606e-015 5.884182e-015
      outer loop
         vertex 8.195944e+002 3.492500e+002 6.702425e+002
         vertex 8.195944e+002 7.683500e+002 6.321425e+002
         vertex 8.195944e+002 7.683500e+002 6.702425e+002
      endloop
   endfacet
   facet normal 2.350141e-015 1.000000e+000 -4.920691e-016
      outer loop
         vertex 8.132444e+002 7.683500e+002 6.702425e+002
         vertex 8.195944e+002 7.683500e+002 6.702425e+002
         vertex 8.132444e+002 7.683500e+002 6.384925e+002
      endloop
   endfacet
   facet normal 2.350141e-015 1.000000e+000 -4.920691e-016
      outer loop
         vertex 8.132444e+002 7.683500e+002 6.384925e+002
         vertex 8.195944e+002 7.683500e+002 6.702425e+002
         vertex 8.195944e+002 7.683500e+002 6.321425e+002
      endloop
   endfacet
   facet normal 2.350141e-015 1.000000e+000 -4.920691e-016
      outer loop
         vertex 8.132444e+002 7.683500e+002 6.384925e+002
         vertex 8.195944e+002 7.683500e+002 6.321425e+002
         vertex 7.814945e+002 7.683500e+002 6.384925e+002
      endloop
   endfacet
   facet normal 2.350141e-015 1.000000e+000 -4.920691e-016
      outer loop
         vertex 7.814945e+002 7.683500e+002 6.384925e+002
         vertex 8.195944e+002 7.683500e+002 6.321425e+002
         vertex 7.814945e+002 7.683500e+002 6.321425e+002
      endloop
   endfacet
   facet normal -2.350141e-015 -1.000000e+000 4.920691e-016
      outer loop
         vertex 7.814945e+002 3.492500e+002 6.384925e+002
         vertex 7.814945e+002 3.492500e+002 6.321425e+002
         vertex 8.132444e+002 3.492500e+002 6.384925e+002
      endloop
   endfacet
   facet normal -2.350141e-015 -1.000000e+000 4.920691e-016
      outer loop
         vertex 8.132444e+002 3.492500e+002 6.384925e+002
         vertex 7.814945e+002 3.492500e+002 6.321425e+002
         vertex 8.195944e+002 3.492500e+002 6.321425e+002
      endloop
   endfacet
   facet normal -2.350141e-015 -1.000000e+000 4.920691e-016
      outer loop
         vertex 8.132444e+002 3.492500e+002 6.384925e+002
         vertex 8.195944e+002 3.492500e+002 6.321425e+002
         vertex 8.132444e+002 3.492500e+002 6.702425e+002
      endloop
   endfacet
   facet normal -2.350141e-015 -1.000000e+000 4.920691e-016
      outer loop
         vertex 8.132444e+002 3.492500e+002 6.702425e+002
         vertex 8.195944e+002 3.492500e+002 6.321425e+002
         vertex 8.195944e+002 3.492500e+002 6.702425e+002
      endloop
   endfacet
   facet normal -5.807914e-002 -9.983120e-001 -2.175846e-016
      outer loop
         vertex 7.984721e+002 6.686124e+002 6.321425e+002
         vertex 7.973695e+002 6.687089e+002 6.384925e+002
         vertex 7.973695e+002 6.687089e+002 6.321425e+002
      endloop
   endfacet
   facet normal 5.807914e-002 -9.983120e-001 -8.430482e-016
      outer loop
         vertex 7.973695e+002 6.687089e+002 6.321425e+002
         vertex 7.973695e+002 6.687089e+002 6.384925e+002
         vertex 7.962668e+002 6.686124e+002 6.384925e+002
      endloop
   endfacet
   facet normal 1.161583e-001 -9.932307e-001 -1.153081e-015
      outer loop
         vertex 7.973695e+002 6.687089e+002 6.321425e+002
         vertex 7.962668e+002 6.686124e+002 6.384925e+002
         vertex 7.962668e+002 6.686124e+002 6.321425e+002
      endloop
   endfacet
   facet normal 2.305519e-001 -9.730600e-001 -1.758328e-015
      outer loop
         vertex 7.962668e+002 6.686124e+002 6.321425e+002
         vertex 7.962668e+002 6.686124e+002 6.384925e+002
         vertex 7.951977e+002 6.683259e+002 6.384925e+002
      endloop
   endfacet
   facet normal 2.868663e-001 -9.579706e-001 -2.053542e-015
      outer loop
         vertex 7.962668e+002 6.686124e+002 6.321425e+002
         vertex 7.951977e+002 6.683259e+002 6.384925e+002
         vertex 7.951977e+002 6.683259e+002 6.321425e+002
      endloop
   endfacet
   facet normal 3.960194e-001 -9.182422e-001 -2.620181e-015
      outer loop
         vertex 7.951977e+002 6.683259e+002 6.321425e+002
         vertex 7.951977e+002 6.683259e+002 6.384925e+002
         vertex 7.941945e+002 6.678582e+002 6.384925e+002
      endloop
   endfacet
   facet normal 4.488580e-001 -8.936031e-001 -2.891606e-015
      outer loop
         vertex 7.951977e+002 6.683259e+002 6.321425e+002
         vertex 7.941945e+002 6.678582e+002 6.384925e+002
         vertex 7.941945e+002 6.678582e+002 6.321425e+002
      endloop
   endfacet
   facet normal 5.494540e-001 -8.355240e-001 -3.402421e-015
      outer loop
         vertex 7.941945e+002 6.678582e+002 6.321425e+002
         vertex 7.941945e+002 6.678582e+002 6.384925e+002
         vertex 7.932878e+002 6.672233e+002 6.384925e+002
      endloop
   endfacet
   facet normal 5.972114e-001 -8.020839e-001 -3.641811e-015
      outer loop
         vertex 7.941945e+002 6.678582e+002 6.321425e+002
         vertex 7.932878e+002 6.672233e+002 6.384925e+002
         vertex 7.932878e+002 6.672233e+002 6.321425e+002
      endloop
   endfacet
   facet normal 6.861938e-001 -7.274188e-001 -4.081280e-015
      outer loop
         vertex 7.932878e+002 6.672233e+002 6.321425e+002
         vertex 7.932878e+002 6.672233e+002 6.384925e+002
         vertex 7.925051e+002 6.664406e+002 6.384925e+002
      endloop
   endfacet
   facet normal 7.274188e-001 -6.861938e-001 -4.281361e-015
      outer loop
         vertex 7.932878e+002 6.672233e+002 6.321425e+002
         vertex 7.925051e+002 6.664406e+002 6.384925e+002
         vertex 7.925051e+002 6.664406e+002 6.321425e+002
      endloop
   endfacet
   facet normal 8.020839e-001 -5.972114e-001 -4.636133e-015
      outer loop
         vertex 7.925051e+002 6.664406e+002 6.321425e+002
         vertex 7.925051e+002 6.664406e+002 6.384925e+002
         vertex 7.918702e+002 6.655339e+002 6.384925e+002
      endloop
   endfacet
   facet normal 8.355240e-001 -5.494540e-001 -4.790824e-015
      outer loop
         vertex 7.925051e+002 6.664406e+002 6.321425e+002
         vertex 7.918702e+002 6.655339e+002 6.384925e+002
         vertex 7.918702e+002 6.655339e+002 6.321425e+002
      endloop
   endfacet
   facet normal 8.936031e-001 -4.488580e-001 -5.050118e-015
      outer loop
         vertex 7.918702e+002 6.655339e+002 6.321425e+002
         vertex 7.918702e+002 6.655339e+002 6.384925e+002
         vertex 7.914024e+002 6.645307e+002 6.384925e+002
      endloop
   endfacet
   facet normal 9.182422e-001 -3.960194e-001 -5.154721e-015
      outer loop
         vertex 7.918702e+002 6.655339e+002 6.321425e+002
         vertex 7.914024e+002 6.645307e+002 6.384925e+002
         vertex 7.914024e+002 6.645307e+002 6.321425e+002
      endloop
   endfacet
   facet normal 9.579706e-001 -2.868663e-001 -5.310659e-015
      outer loop
         vertex 7.914024e+002 6.645307e+002 6.321425e+002
         vertex 7.914024e+002 6.645307e+002 6.384925e+002
         vertex 7.911160e+002 6.634615e+002 6.384925e+002
      endloop
   endfacet
   facet normal 9.730600e-001 -2.305519e-001 -5.361994e-015
      outer loop
         vertex 7.914024e+002 6.645307e+002 6.321425e+002
         vertex 7.911160e+002 6.634615e+002 6.384925e+002
         vertex 7.911160e+002 6.634615e+002 6.321425e+002
      endloop
   endfacet
   facet normal 9.932307e-001 -1.161583e-001 -5.409837e-015
      outer loop
         vertex 7.911160e+002 6.634615e+002 6.321425e+002
         vertex 7.911160e+002 6.634615e+002 6.384925e+002
         vertex 7.910194e+002 6.623589e+002 6.384925e+002
      endloop
   endfacet
   facet normal 9.983120e-001 -5.807914e-002 -5.406345e-015
      outer loop
         vertex 7.911160e+002 6.634615e+002 6.321425e+002
         vertex 7.910194e+002 6.623589e+002 6.384925e+002
         vertex 7.910194e+002 6.623589e+002 6.321425e+002
      endloop
   endfacet
   facet normal 9.983120e-001 5.807914e-002 -5.344640e-015
      outer loop
         vertex 7.910194e+002 6.623589e+002 6.321425e+002
         vertex 7.910194e+002 6.623589e+002 6.384925e+002
         vertex 7.911160e+002 6.612562e+002 6.384925e+002
      endloop
   endfacet
   facet normal 9.932307e-001 1.161583e-001 -5.286427e-015
      outer loop
         vertex 7.910194e+002 6.623589e+002 6.321425e+002
         vertex 7.911160e+002 6.612562e+002 6.384925e+002
         vertex 7.911160e+002 6.612562e+002 6.321425e+002
      endloop
   endfacet
   facet normal 9.730600e-001 2.305519e-001 -5.117050e-015
      outer loop
         vertex 7.911160e+002 6.612562e+002 6.321425e+002
         vertex 7.911160e+002 6.612562e+002 6.384925e+002
         vertex 7.914024e+002 6.601871e+002 6.384925e+002
      endloop
   endfacet
   facet normal 9.579706e-001 2.868663e-001 -5.005884e-015
      outer loop
         vertex 7.911160e+002 6.612562e+002 6.321425e+002
         vertex 7.914024e+002 6.601871e+002 6.384925e+002
         vertex 7.914024e+002 6.601871e+002 6.321425e+002
      endloop
   endfacet
   facet normal 9.182422e-001 3.960194e-001 -4.733979e-015
      outer loop
         vertex 7.914024e+002 6.601871e+002 6.321425e+002
         vertex 7.914024e+002 6.601871e+002 6.384925e+002
         vertex 7.918702e+002 6.591838e+002 6.384925e+002
      endloop
   endfacet
   facet normal 8.936031e-001 4.488580e-001 -4.573240e-015
      outer loop
         vertex 7.914024e+002 6.601871e+002 6.321425e+002
         vertex 7.918702e+002 6.591838e+002 6.384925e+002
         vertex 7.918702e+002 6.591838e+002 6.321425e+002
      endloop
   endfacet
   facet normal 8.355240e-001 5.494540e-001 -4.207070e-015
      outer loop
         vertex 7.918702e+002 6.591838e+002 6.321425e+002
         vertex 7.918702e+002 6.591838e+002 6.384925e+002
         vertex 7.925051e+002 6.582772e+002 6.384925e+002
      endloop
   endfacet
   facet normal 8.020839e-001 5.972114e-001 -4.001640e-015
      outer loop
         vertex 7.918702e+002 6.591838e+002 6.321425e+002
         vertex 7.925051e+002 6.582772e+002 6.384925e+002
         vertex 7.925051e+002 6.582772e+002 6.321425e+002
      endloop
   endfacet
   facet normal 7.274188e-001 6.861938e-001 -3.552330e-015
      outer loop
         vertex 7.925051e+002 6.582772e+002 6.321425e+002
         vertex 7.925051e+002 6.582772e+002 6.384925e+002
         vertex 7.932878e+002 6.574945e+002 6.384925e+002
      endloop
   endfacet
   facet normal 6.861938e-001 7.274188e-001 -3.308452e-015
      outer loop
         vertex 7.925051e+002 6.582772e+002 6.321425e+002
         vertex 7.932878e+002 6.574945e+002 6.384925e+002
         vertex 7.932878e+002 6.574945e+002 6.321425e+002
      endloop
   endfacet
   facet normal 5.972114e-001 8.020839e-001 -2.789656e-015
      outer loop
         vertex 7.932878e+002 6.574945e+002 6.321425e+002
         vertex 7.932878e+002 6.574945e+002 6.384925e+002
         vertex 7.941945e+002 6.568596e+002 6.384925e+002
      endloop
   endfacet
   facet normal 5.494540e-001 8.355240e-001 -2.514739e-015
      outer loop
         vertex 7.932878e+002 6.574945e+002 6.321425e+002
         vertex 7.941945e+002 6.568596e+002 6.384925e+002
         vertex 7.941945e+002 6.568596e+002 6.321425e+002
      endloop
   endfacet
   facet normal 4.488580e-001 8.936031e-001 -1.942219e-015
      outer loop
         vertex 7.941945e+002 6.568596e+002 6.321425e+002
         vertex 7.941945e+002 6.568596e+002 6.384925e+002
         vertex 7.951977e+002 6.563918e+002 6.384925e+002
      endloop
   endfacet
   facet normal 3.960194e-001 9.182422e-001 -1.644617e-015
      outer loop
         vertex 7.941945e+002 6.568596e+002 6.321425e+002
         vertex 7.951977e+002 6.563918e+002 6.384925e+002
         vertex 7.951977e+002 6.563918e+002 6.321425e+002
      endloop
   endfacet
   facet normal 2.868663e-001 9.579706e-001 -1.035768e-015
      outer loop
         vertex 7.951977e+002 6.563918e+002 6.321425e+002
         vertex 7.951977e+002 6.563918e+002 6.384925e+002
         vertex 7.962668e+002 6.561053e+002 6.384925e+002
      endloop
   endfacet
   facet normal 2.305519e-001 9.730600e-001 -7.245230e-016
      outer loop
         vertex 7.951977e+002 6.563918e+002 6.321425e+002
         vertex 7.962668e+002 6.561053e+002 6.384925e+002
         vertex 7.962668e+002 6.561053e+002 6.321425e+002
      endloop
   endfacet
   facet normal 1.161583e-001 9.932307e-001 -9.784653e-017
      outer loop
         vertex 7.962668e+002 6.561053e+002 6.321425e+002
         vertex 7.962668e+002 6.561053e+002 6.384925e+002
         vertex 7.973695e+002 6.560089e+002 6.384925e+002
      endloop
   endfacet
   facet normal 5.807914e-002 9.983120e-001 2.175846e-016
      outer loop
         vertex 7.962668e+002 6.561053e+002 6.321425e+002
         vertex 7.973695e+002 6.560089e+002 6.384925e+002
         vertex 7.973695e+002 6.560089e+002 6.321425e+002
      endloop
   endfacet
   facet normal -5.807914e-002 9.983120e-001 8.430482e-016
      outer loop
         vertex 7.973695e+002 6.560089e+002 6.321425e+002
         vertex 7.973695e+002 6.560089e+002 6.384925e+002
         vertex 7.984721e+002 6.561053e+002 6.384925e+002
      endloop
   endfacet
   facet normal -1.161583e-001 9.932307e-001 1.153081e-015
      outer loop
         vertex 7.973695e+002 6.560089e+002 6.321425e+002
         vertex 7.984721e+002 6.561053e+002 6.384925e+002
         vertex 7.984721e+002 6.561053e+002 6.321425e+002
      endloop
   endfacet
   facet normal -2.305519e-001 9.730600e-001 1.758328e-015
      outer loop
         vertex 7.984721e+002 6.561053e+002 6.321425e+002
         vertex 7.984721e+002 6.561053e+002 6.384925e+002
         vertex 7.995413e+002 6.563918e+002 6.384925e+002
      endloop
   endfacet
   facet normal -2.868663e-001 9.579706e-001 2.053542e-015
      outer loop
         vertex 7.984721e+002 6.561053e+002 6.321425e+002
         vertex 7.995413e+002 6.563918e+002 6.384925e+002
         vertex 7.995413e+002 6.563918e+002 6.321425e+002
      endloop
   endfacet
   facet normal -3.960194e-001 9.182422e-001 2.620181e-015
      outer loop
         vertex 7.995413e+002 6.563918e+002 6.321425e+002
         vertex 7.995413e+002 6.563918e+002 6.384925e+002
         vertex 8.005444e+002 6.568596e+002 6.384925e+002
      endloop
   endfacet
   facet normal -4.488580e-001 8.936031e-001 2.891606e-015
      outer loop
         vertex 7.995413e+002 6.563918e+002 6.321425e+002
         vertex 8.005444e+002 6.568596e+002 6.384925e+002
         vertex 8.005444e+002 6.568596e+002 6.321425e+002
      endloop
   endfacet
   facet normal -5.494540e-001 8.355240e-001 3.402421e-015
      outer loop
         vertex 8.005444e+002 6.568596e+002 6.321425e+002
         vertex 8.005444e+002 6.568596e+002 6.384925e+002
         vertex 8.014512e+002 6.574945e+002 6.384925e+002
      endloop
   endfacet
   facet normal -5.972114e-001 8.020839e-001 3.641811e-015
      outer loop
         vertex 8.005444e+002 6.568596e+002 6.321425e+002
         vertex 8.014512e+002 6.574945e+002 6.384925e+002
         vertex 8.014512e+002 6.574945e+002 6.321425e+002
      endloop
   endfacet
   facet normal -6.861938e-001 7.274188e-001 4.081280e-015
      outer loop
         vertex 8.014512e+002 6.574945e+002 6.321425e+002
         vertex 8.014512e+002 6.574945e+002 6.384925e+002
         vertex 8.022339e+002 6.582772e+002 6.384925e+002
      endloop
   endfacet
   facet normal -7.274188e-001 6.861938e-001 4.281361e-015
      outer loop
         vertex 8.014512e+002 6.574945e+002 6.321425e+002
         vertex 8.022339e+002 6.582772e+002 6.384925e+002
         vertex 8.022339e+002 6.582772e+002 6.321425e+002
      endloop
   endfacet
   facet normal -8.020839e-001 5.972114e-001 4.636133e-015
      outer loop
         vertex 8.022339e+002 6.582772e+002 6.321425e+002
         vertex 8.022339e+002 6.582772e+002 6.384925e+002
         vertex 8.028687e+002 6.591838e+002 6.384925e+002
      endloop
   endfacet
   facet normal -8.355240e-001 5.494540e-001 4.790824e-015
      outer loop
         vertex 8.022339e+002 6.582772e+002 6.321425e+002
         vertex 8.028687e+002 6.591838e+002 6.384925e+002
         vertex 8.028687e+002 6.591838e+002 6.321425e+002
      endloop
   endfacet
   facet normal -8.936031e-001 4.488580e-001 5.050118e-015
      outer loop
         vertex 8.028687e+002 6.591838e+002 6.321425e+002
         vertex 8.028687e+002 6.591838e+002 6.384925e+002
         vertex 8.033365e+002 6.601871e+002 6.384925e+002
      endloop
   endfacet
   facet normal -9.182422e-001 3.960194e-001 5.154721e-015
      outer loop
         vertex 8.028687e+002 6.591838e+002 6.321425e+002
         vertex 8.033365e+002 6.601871e+002 6.384925e+002
         vertex 8.033365e+002 6.601871e+002 6.321425e+002
      endloop
   endfacet
   facet normal -9.579706e-001 2.868663e-001 5.310659e-015
      outer loop
         vertex 8.033365e+002 6.601871e+002 6.321425e+002
         vertex 8.033365e+002 6.601871e+002 6.384925e+002
         vertex 8.036230e+002 6.612562e+002 6.384925e+002
      endloop
   endfacet
   facet normal -9.730600e-001 2.305519e-001 5.361994e-015
      outer loop
         vertex 8.033365e+002 6.601871e+002 6.321425e+002
         vertex 8.036230e+002 6.612562e+002 6.384925e+002
         vertex 8.036230e+002 6.612562e+002 6.321425e+002
      endloop
   endfacet
   facet normal -9.932307e-001 1.161583e-001 5.409837e-015
      outer loop
         vertex 8.036230e+002 6.612562e+002 6.321425e+002
         vertex 8.036230e+002 6.612562e+002 6.384925e+002
         vertex 8.037195e+002 6.623589e+002 6.384925e+002
      endloop
   endfacet
   facet normal -9.983120e-001 5.807914e-002 5.406345e-015
      outer loop
         vertex 8.036230e+002 6.612562e+002 6.321425e+002
         vertex 8.037195e+002 6.623589e+002 6.384925e+002
         vertex 8.037195e+002 6.623589e+002 6.321425e+002
      endloop
   endfacet
   facet normal -9.983120e-001 -5.807914e-002 5.344640e-015
      outer loop
         vertex 8.037195e+002 6.623589e+002 6.321425e+002
         vertex 8.037195e+002 6.623589e+002 6.384925e+002
         vertex 8.036230e+002 6.634615e+002 6.384925e+002
      endloop
   endfacet
   facet normal -9.932307e-001 -1.161583e-001 5.286427e-015
      outer loop
         vertex 8.037195e+002 6.623589e+002 6.321425e+002
         vertex 8.036230e+002 6.634615e+002 6.384925e+002
         vertex 8.036230e+002 6.634615e+002 6.321425e+002
      endloop
   endfacet
   facet normal -9.730600e-001 -2.305519e-001 5.117050e-015
      outer loop
         vertex 8.036230e+002 6.634615e+002 6.321425e+002
         vertex 8.036230e+002 6.634615e+002 6.384925e+002
         vertex 8.033365e+002 6.645307e+002 6.384925e+002
      endloop
   endfacet
   facet normal -9.579706e-001 -2.868663e-001 5.005884e-015
      outer loop
         vertex 8.036230e+002 6.634615e+002 6.321425e+002
         vertex 8.033365e+002 6.645307e+002 6.384925e+002
         vertex 8.033365e+002 6.645307e+002 6.321425e+002
      endloop
   endfacet
   facet normal -9.182422e-001 -3.960194e-001 4.733979e-015
      outer loop
         vertex 8.033365e+002 6.645307e+002 6.321425e+002
         vertex 8.033365e+002 6.645307e+002 6.384925e+002
         vertex 8.028687e+002 6.655339e+002 6.384925e+002
      endloop
   endfacet
   facet normal -8.936031e-001 -4.488580e-001 4.573240e-015
      outer loop
         vertex 8.033365e+002 6.645307e+002 6.321425e+002
         vertex 8.028687e+002 6.655339e+002 6.384925e+002
         vertex 8.028687e+002 6.655339e+002 6.321425e+002
      endloop
   endfacet
   facet normal -8.355240e-001 -5.494540e-001 4.207070e-015
      outer loop
         vertex 8.028687e+002 6.655339e+002 6.321425e+002
         vertex 8.028687e+002 6.655339e+002 6.384925e+002
         vertex 8.022339e+002 6.664406e+002 6.384925e+002
      endloop
   endfacet
   facet normal -8.020839e-001 -5.972114e-001 4.001640e-015
      outer loop
         vertex 8.028687e+002 6.655339e+002 6.321425e+002
         vertex 8.022339e+002 6.664406e+002 6.384925e+002
         vertex 8.022339e+002 6.664406e+002 6.321425e+002
      endloop
   endfacet
   facet normal -7.274188e-001 -6.861938e-001 3.552330e-015
      outer loop
         vertex 8.022339e+002 6.664406e+002 6.321425e+002
         vertex 8.022339e+002 6.664406e+002 6.384925e+002
         vertex 8.014512e+002 6.672233e+002 6.384925e+002
      endloop
   endfacet
   facet normal -6.861938e-001 -7.274188e-001 3.308452e-015
      outer loop
         vertex 8.022339e+002 6.664406e+002 6.321425e+002
         vertex 8.014512e+002 6.672233e+002 6.384925e+002
         vertex 8.014512e+002 6.672233e+002 6.321425e+002
      endloop
   endfacet
   facet normal -5.972114e-001 -8.020839e-001 2.789656e-015
      outer loop
         vertex 8.014512e+002 6.672233e+002 6.321425e+002
         vertex 8.014512e+002 6.672233e+002 6.384925e+002
         vertex 8.005444e+002 6.678582e+002 6.384925e+002
      endloop
   endfacet
   facet normal -5.494540e-001 -8.355240e-001 2.514739e-015
      outer loop
         vertex 8.014512e+002 6.672233e+002 6.321425e+002
         vertex 8.005444e+002 6.678582e+002 6.384925e+002
         vertex 8.005444e+002 6.678582e+002 6.321425e+002
      endloop
   endfacet
   facet normal -4.488580e-001 -8.936031e-001 1.942219e-015
      outer loop
         vertex 8.005444e+002 6.678582e+002 6.321425e+002
         vertex 8.005444e+002 6.678582e+002 6.384925e+002
         vertex 7.995413e+002 6.683259e+002 6.384925e+002
      endloop
   endfacet
   facet normal -3.960194e-001 -9.182422e-001 1.644617e-015
      outer loop
         vertex 8.005444e+002 6.678582e+002 6.321425e+002
         vertex 7.995413e+002 6.683259e+002 6.384925e+002
         vertex 7.995413e+002 6.683259e+002 6.321425e+002
      endloop
   endfacet
   facet normal -2.868663e-001 -9.579706e-001 1.035768e-015
      outer loop
         vertex 7.995413e+002 6.683259e+002 6.321425e+002
         vertex 7.995413e+002 6.683259e+002 6.384925e+002
         vertex 7.984721e+002 6.686124e+002 6.384925e+002
      endloop
   endfacet
   facet normal -2.305519e-001 -9.730600e-001 7.245230e-016
      outer loop
         vertex 7.995413e+002 6.683259e+002 6.321425e+002
         vertex 7.984721e+002 6.686124e+002 6.384925e+002
         vertex 7.984721e+002 6.686124e+002 6.321425e+002
      endloop
   endfacet
   facet normal -1.161583e-001 -9.932307e-001 9.784653e-017
      outer loop
         vertex 7.984721e+002 6.686124e+002 6.321425e+002
         vertex 7.984721e+002 6.686124e+002 6.384925e+002
         vertex 7.973695e+002 6.687089e+002 6.384925e+002
      endloop
   endfacet
   facet normal -5.807914e-002 -9.983120e-001 -2.175846e-016
      outer loop
         vertex 7.984721e+002 6.305124e+002 6.321425e+002
         vertex 7.973695e+002 6.306089e+002 6.384925e+002
         vertex 7.973695e+002 6.306089e+002 6.321425e+002
      endloop
   endfacet
   facet normal 5.807914e-002 -9.983120e-001 -8.430482e-016
      outer loop
         vertex 7.973695e+002 6.306089e+002 6.321425e+002
         vertex 7.973695e+002 6.306089e+002 6.384925e+002
         vertex 7.962668e+002 6.305124e+002 6.384925e+002
      endloop
   endfacet
   facet normal 1.161583e-001 -9.932307e-001 -1.153081e-015
      outer loop
         vertex 7.973695e+002 6.306089e+002 6.321425e+002
         vertex 7.962668e+002 6.305124e+002 6.384925e+002
         vertex 7.962668e+002 6.305124e+002 6.321425e+002
      endloop
   endfacet
   facet normal 2.305519e-001 -9.730600e-001 -1.758328e-015
      outer loop
         vertex 7.962668e+002 6.305124e+002 6.321425e+002
         vertex 7.962668e+002 6.305124e+002 6.384925e+002
         vertex 7.951977e+002 6.302259e+002 6.384925e+002
      endloop
   endfacet
   facet normal 2.868663e-001 -9.579706e-001 -2.053542e-015
      outer loop
         vertex 7.962668e+002 6.305124e+002 6.321425e+002
         vertex 7.951977e+002 6.302259e+002 6.384925e+002
         vertex 7.951977e+002 6.302259e+002 6.321425e+002
      endloop
   endfacet
   facet normal 3.960194e-001 -9.182422e-001 -2.620181e-015
      outer loop
         vertex 7.951977e+002 6.302259e+002 6.321425e+002
         vertex 7.951977e+002 6.302259e+002 6.384925e+002
         vertex 7.941945e+002 6.297581e+002 6.384925e+002
      endloop
   endfacet
   facet normal 4.488580e-001 -8.936031e-001 -2.891606e-015
      outer loop
         vertex 7.951977e+002 6.302259e+002 6.321425e+002
         vertex 7.941945e+002 6.297581e+002 6.384925e+002
         vertex 7.941945e+002 6.297581e+002 6.321425e+002
      endloop
   endfacet
   facet normal 5.494540e-001 -8.355240e-001 -3.402421e-015
      outer loop
         vertex 7.941945e+002 6.297581e+002 6.321425e+002
         vertex 7.941945e+002 6.297581e+002 6.384925e+002
         vertex 7.932878e+002 6.291233e+002 6.384925e+002
      endloop
   endfacet
   facet normal 5.972114e-001 -8.020839e-001 -3.641811e-015
      outer loop
         vertex 7.941945e+002 6.297581e+002 6.321425e+002
         vertex 7.932878e+002 6.291233e+002 6.384925e+002
         vertex 7.932878e+002 6.291233e+002 6.321425e+002
      endloop
   endfacet
   facet normal 6.861938e-001 -7.274188e-001 -4.081280e-015
      outer loop
         vertex 7.932878e+002 6.291233e+002 6.321425e+002
         vertex 7.932878e+002 6.291233e+002 6.384925e+002
         vertex 7.925051e+002 6.283406e+002 6.384925e+002
      endloop
   endfacet
   facet normal 7.274188e-001 -6.861938e-001 -4.281361e-015
      outer loop
         vertex 7.932878e+002 6.291233e+002 6.321425e+002
         vertex 7.925051e+002 6.283406e+002 6.384925e+002
         vertex 7.925051e+002 6.283406e+002 6.321425e+002
      endloop
   endfacet
   facet normal 8.020839e-001 -5.972114e-001 -4.636133e-015
      outer loop
         vertex 7.925051e+002 6.283406e+002 6.321425e+002
         vertex 7.925051e+002 6.283406e+002 6.384925e+002
         vertex 7.918702e+002 6.274339e+002 6.384925e+002
      endloop
   endfacet
   facet normal 8.355240e-001 -5.494540e-001 -4.790824e-015
      outer loop
         vertex 7.925051e+002 6.283406e+002 6.321425e+002
         vertex 7.918702e+002 6.274339e+002 6.384925e+002
         vertex 7.918702e+002 6.274339e+002 6.321425e+002
      endloop
   endfacet
   facet normal 8.936031e-001 -4.488580e-001 -5.050118e-015
      outer loop
         vertex 7.918702e+002 6.274339e+002 6.321425e+002
         vertex 7.918702e+002 6.274339e+002 6.384925e+002
         vertex 7.914024e+002 6.264307e+002 6.384925e+002
      endloop
   endfacet
   facet normal 9.182422e-001 -3.960194e-001 -5.154721e-015
      outer loop
         vertex 7.918702e+002 6.274339e+002 6.321425e+002
         vertex 7.914024e+002 6.264307e+002 6.384925e+002
         vertex 7.914024e+002 6.264307e+002 6.321425e+002
      endloop
   endfacet
   facet normal 9.579706e-001 -2.868663e-001 -5.310659e-015
      outer loop
         vertex 7.914024e+002 6.264307e+002 6.321425e+002
         vertex 7.914024e+002 6.264307e+002 6.384925e+002
         vertex 7.911160e+002 6.253616e+002 6.384925e+002
      endloop
   endfacet
   facet normal 9.730600e-001 -2.305519e-001 -5.361994e-015
      outer loop
         vertex 7.914024e+002 6.264307e+002 6.321425e+002
         vertex 7.911160e+002 6.253616e+002 6.384925e+002
         vertex 7.911160e+002 6.253616e+002 6.321425e+002
      endloop
   endfacet
   facet normal 9.932307e-001 -1.161583e-001 -5.409837e-015
      outer loop
         vertex 7.911160e+002 6.253616e+002 6.321425e+002
         vertex 7.911160e+002 6.253616e+002 6.384925e+002
         vertex 7.910194e+002 6.242589e+002 6.384925e+002
      endloop
   endfacet
   facet normal 9.983120e-001 -5.807914e-002 -5.406345e-015
      outer loop
         vertex 7.911160e+002 6.253616e+002 6.321425e+002
         vertex 7.910194e+002 6.242589e+002 6.384925e+002
         vertex 7.910194e+002 6.242589e+002 6.321425e+002
      endloop
   endfacet
   facet normal 9.983120e-001 5.807914e-002 -5.344640e-015
      outer loop
         vertex 7.910194e+002 6.242589e+002 6.321425e+002
         vertex 7.910194e+002 6.242589e+002 6.384925e+002
         vertex 7.911160e+002 6.231562e+002 6.384925e+002
      endloop
   endfacet
   facet normal 9.932307e-001 1.161583e-001 -5.286427e-015
      outer loop
         vertex 7.910194e+002 6.242589e+002 6.321425e+002
         vertex 7.911160e+002 6.231562e+002 6.384925e+002
         vertex 7.911160e+002 6.231562e+002 6.321425e+002
      endloop
   endfacet
   facet normal 9.730600e-001 2.305519e-001 -5.117050e-015
      outer loop
         vertex 7.911160e+002 6.231562e+002 6.321425e+002
         vertex 7.911160e+002 6.231562e+002 6.384925e+002
         vertex 7.914024e+002 6.220870e+002 6.384925e+002
      endloop
   endfacet
   facet normal 9.579706e-001 2.868663e-001 -5.005884e-015
      outer loop
         vertex 7.911160e+002 6.231562e+002 6.321425e+002
         vertex 7.914024e+002 6.220870e+002 6.384925e+002
         vertex 7.914024e+002 6.220870e+002 6.321425e+002
      endloop
   endfacet
   facet normal 9.182422e-001 3.960194e-001 -4.733979e-015
      outer loop
         vertex 7.914024e+002 6.220870e+002 6.321425e+002
         vertex 7.914024e+002 6.220870e+002 6.384925e+002
         vertex 7.918702e+002 6.210839e+002 6.384925e+002
      endloop
   endfacet
   facet normal 8.936031e-001 4.488580e-001 -4.573240e-015
      outer loop
         vertex 7.914024e+002 6.220870e+002 6.321425e+002
         vertex 7.918702e+002 6.210839e+002 6.384925e+002
         vertex 7.918702e+002 6.210839e+002 6.321425e+002
      endloop
   endfacet
   facet normal 8.355240e-001 5.494540e-001 -4.207070e-015
      outer loop
         vertex 7.918702e+002 6.210839e+002 6.321425e+002
         vertex 7.918702e+002 6.210839e+002 6.384925e+002
         vertex 7.925051e+002 6.201771e+002 6.384925e+002
      endloop
   endfacet
   facet normal 8.020839e-001 5.972114e-001 -4.001640e-015
      outer loop
         vertex 7.918702e+002 6.210839e+002 6.321425e+002
         vertex 7.925051e+002 6.201771e+002 6.384925e+002
         vertex 7.925051e+002 6.201771e+002 6.321425e+002
      endloop
   endfacet
   facet normal 7.274188e-001 6.861938e-001 -3.552330e-015
      outer loop
         vertex 7.925051e+002 6.201771e+002 6.321425e+002
         vertex 7.925051e+002 6.201771e+002 6.384925e+002
         vertex 7.932878e+002 6.193945e+002 6.384925e+002
      endloop
   endfacet
   facet normal 6.861938e-001 7.274188e-001 -3.308452e-015
      outer loop
         vertex 7.925051e+002 6.201771e+002 6.321425e+002
         vertex 7.932878e+002 6.193945e+002 6.384925e+002
         vertex 7.932878e+002 6.193945e+002 6.321425e+002
      endloop
   endfacet
   facet normal 5.972114e-001 8.020839e-001 -2.789656e-015
      outer loop
         vertex 7.932878e+002 6.193945e+002 6.321425e+002
         vertex 7.932878e+002 6.193945e+002 6.384925e+002
         vertex 7.941945e+002 6.187596e+002 6.384925e+002
      endloop
   endfacet
   facet normal 5.494540e-001 8.355240e-001 -2.514739e-015
      outer loop
         vertex 7.932878e+002 6.193945e+002 6.321425e+002
         vertex 7.941945e+002 6.187596e+002 6.384925e+002
         vertex 7.941945e+002 6.187596e+002 6.321425e+002
      endloop
   endfacet
   facet normal 4.488580e-001 8.936031e-001 -1.942219e-015
      outer loop
         vertex 7.941945e+002 6.187596e+002 6.321425e+002
         vertex 7.941945e+002 6.187596e+002 6.384925e+002
         vertex 7.951977e+002 6.182918e+002 6.384925e+002
      endloop
   endfacet
   facet normal 3.960194e-001 9.182422e-001 -1.644617e-015
      outer loop
         vertex 7.941945e+002 6.187596e+002 6.321425e+002
         vertex 7.951977e+002 6.182918e+002 6.384925e+002
         vertex 7.951977e+002 6.182918e+002 6.321425e+002
      endloop
   endfacet
   facet normal 2.868663e-001 9.579706e-001 -1.035768e-015
      outer loop
         vertex 7.951977e+002 6.182918e+002 6.321425e+002
         vertex 7.951977e+002 6.182918e+002 6.384925e+002
         vertex 7.962668e+002 6.180053e+002 6.384925e+002
      endloop
   endfacet
   facet normal 2.305519e-001 9.730600e-001 -7.245230e-016
      outer loop
         vertex 7.951977e+002 6.182918e+002 6.321425e+002
         vertex 7.962668e+002 6.180053e+002 6.384925e+002
         vertex 7.962668e+002 6.180053e+002 6.321425e+002
      endloop
   endfacet
   facet normal 1.161583e-001 9.932307e-001 -9.784653e-017
      outer loop
         vertex 7.962668e+002 6.180053e+002 6.321425e+002
         vertex 7.962668e+002 6.180053e+002 6.384925e+002
         vertex 7.973695e+002 6.179089e+002 6.384925e+002
      endloop
   endfacet
   facet normal 5.807914e-002 9.983120e-001 2.175846e-016
      outer loop
         vertex 7.962668e+002 6.180053e+002 6.321425e+002
         vertex 7.973695e+002 6.179089e+002 6.384925e+002
         vertex 7.973695e+002 6.179089e+002 6.321425e+002
      endloop
   endfacet
   facet normal -5.807914e-002 9.983120e-001 8.430482e-016
      outer loop
         vertex 7.973695e+002 6.179089e+002 6.321425e+002
         vertex 7.973695e+002 6.179089e+002 6.384925e+002
         vertex 7.984721e+002 6.180053e+002 6.384925e+002
      endloop
   endfacet
   facet normal -1.161583e-001 9.932307e-001 1.153081e-015
      outer loop
         vertex 7.973695e+002 6.179089e+002 6.321425e+002
         vertex 7.984721e+002 6.180053e+002 6.384925e+002
         vertex 7.984721e+002 6.180053e+002 6.321425e+002
      endloop
   endfacet
   facet normal -2.305519e-001 9.730600e-001 1.758328e-015
      outer loop
         vertex 7.984721e+002 6.180053e+002 6.321425e+002
         vertex 7.984721e+002 6.180053e+002 6.384925e+002
         vertex 7.995413e+002 6.182918e+002 6.384925e+002
      endloop
   endfacet
   facet normal -2.868663e-001 9.579706e-001 2.053542e-015
      outer loop
         vertex 7.984721e+002 6.180053e+002 6.321425e+002
         vertex 7.995413e+002 6.182918e+002 6.384925e+002
         vertex 7.995413e+002 6.182918e+002 6.321425e+002
      endloop
   endfacet
   facet normal -3.960194e-001 9.182422e-001 2.620181e-015
      outer loop
         vertex 7.995413e+002 6.182918e+002 6.321425e+002
         vertex 7.995413e+002 6.182918e+002 6.384925e+002
         vertex 8.005444e+002 6.187596e+002 6.384925e+002
      endloop
   endfacet
   facet normal -4.488580e-001 8.936031e-001 2.891606e-015
      outer loop
         vertex 7.995413e+002 6.182918e+002 6.321425e+002
         vertex 8.005444e+002 6.187596e+002 6.384925e+002
         vertex 8.005444e+002 6.187596e+002 6.321425e+002
      endloop
   endfacet
   facet normal -5.494540e-001 8.355240e-001 3.402421e-015
      outer loop
         vertex 8.005444e+002 6.187596e+002 6.321425e+002
         vertex 8.005444e+002 6.187596e+002 6.384925e+002
         vertex 8.014512e+002 6.193945e+002 6.384925e+002
      endloop
   endfacet
   facet normal -5.972114e-001 8.020839e-001 3.641811e-015
      outer loop
         vertex 8.005444e+002 6.187596e+002 6.321425e+002
         vertex 8.014512e+002 6.193945e+002 6.384925e+002
         vertex 8.014512e+002 6.193945e+002 6.321425e+002
      endloop
   endfacet
   facet normal -6.861938e-001 7.274188e-001 4.081280e-015
      outer loop
         vertex 8.014512e+002 6.193945e+002 6.321425e+002
         vertex 8.014512e+002 6.193945e+002 6.384925e+002
         vertex 8.022339e+002 6.201771e+002 6.384925e+002
      endloop
   endfacet
   facet normal -7.274188e-001 6.861938e-001 4.281361e-015
      outer loop
         vertex 8.014512e+002 6.193945e+002 6.321425e+002
         vertex 8.022339e+002 6.201771e+002 6.384925e+002
         vertex 8.022339e+002 6.201771e+002 6.321425e+002
      endloop
   endfacet
   facet normal -8.020839e-001 5.972114e-001 4.636133e-015
      outer loop
         vertex 8.022339e+002 6.201771e+002 6.321425e+002
         vertex 8.022339e+002 6.201771e+002 6.384925e+002
         vertex 8.028687e+002 6.210839e+002 6.384925e+002
      endloop
   endfacet
   facet normal -8.355240e-001 5.494540e-001 4.790824e-015
      outer loop
         vertex 8.022339e+002 6.201771e+002 6.321425e+002
         vertex 8.028687e+002 6.210839e+002 6.384925e+002
         vertex 8.028687e+002 6.210839e+002 6.321425e+002
      endloop
   endfacet
   facet normal -8.936031e-001 4.488580e-001 5.050118e-015
      outer loop
         vertex 8.028687e+002 6.210839e+002 6.321425e+002
         vertex 8.028687e+002 6.210839e+002 6.384925e+002
         vertex 8.033365e+002 6.220870e+002 6.384925e+002
      endloop
   endfacet
   facet normal -9.182422e-001 3.960194e-001 5.154721e-015
      outer loop
         vertex 8.028687e+002 6.210839e+002 6.321425e+002
         vertex 8.033365e+002 6.220870e+002 6.384925e+002
         vertex 8.033365e+002 6.220870e+002 6.321425e+002
      endloop
   endfacet
   facet normal -9.579706e-001 2.868663e-001 5.310659e-015
      outer loop
         vertex 8.033365e+002 6.220870e+002 6.321425e+002
         vertex 8.033365e+002 6.220870e+002 6.384925e+002
         vertex 8.036230e+002 6.231562e+002 6.384925e+002
      endloop
   endfacet
   facet normal -9.730600e-001 2.305519e-001 5.361994e-015
      outer loop
         vertex 8.033365e+002 6.220870e+002 6.321425e+002
         vertex 8.036230e+002 6.231562e+002 6.384925e+002
         vertex 8.036230e+002 6.231562e+002 6.321425e+002
      endloop
   endfacet
   facet normal -9.932307e-001 1.161583e-001 5.409837e-015
      outer loop
         vertex 8.036230e+002 6.231562e+002 6.321425e+002
         vertex 8.036230e+002 6.231562e+002 6.384925e+002
         vertex 8.037195e+002 6.242589e+002 6.384925e+002
      endloop
   endfacet
   facet normal -9.983120e-001 5.807914e-002 5.406345e-015
      outer loop
         vertex 8.036230e+002 6.231562e+002 6.321425e+002
         vertex 8.037195e+002 6.242589e+002 6.384925e+002
         vertex 8.037195e+002 6.242589e+002 6.321425e+002
      endloop
   endfacet
   facet normal -9.983120e-001 -5.807914e-002 5.344640e-015
      outer loop
         vertex 8.037195e+002 6.242589e+002 6.321425e+002
         vertex 8.037195e+002 6.242589e+002 6.384925e+002
         vertex 8.036230e+002 6.253616e+002 6.384925e+002
      endloop
   endfacet
   facet normal -9.932307e-001 -1.161583e-001 5.286427e-015
      outer loop
         vertex 8.037195e+002 6.242589e+002 6.321425e+002
         vertex 8.036230e+002 6.253616e+002 6.384925e+002
         vertex 8.036230e+002 6.253616e+002 6.321425e+002
      endloop
   endfacet
   facet normal -9.730600e-001 -2.305519e-001 5.117050e-015
      outer loop
         vertex 8.036230e+002 6.253616e+002 6.321425e+002
         vertex 8.036230e+002 6.253616e+002 6.384925e+002
         vertex 8.033365e+002 6.264307e+002 6.384925e+002
      endloop
   endfacet
   facet normal -9.579706e-001 -2.868663e-001 5.005884e-015
      outer loop
         vertex 8.036230e+002 6.253616e+002 6.321425e+002
         vertex 8.033365e+002 6.264307e+002 6.384925e+002
         vertex 8.033365e+002 6.264307e+002 6.321425e+002
      endloop
   endfacet
   facet normal -9.182422e-001 -3.960194e-001 4.733979e-015
      outer loop
         vertex 8.033365e+002 6.264307e+002 6.321425e+002
         vertex 8.033365e+002 6.264307e+002 6.384925e+002
         vertex 8.028687e+002 6.274339e+002 6.384925e+002
      endloop
   endfacet
   facet normal -8.936031e-001 -4.488580e-001 4.573240e-015
      outer loop
         vertex 8.033365e+002 6.264307e+002 6.321425e+002
         vertex 8.028687e+002 6.274339e+002 6.384925e+002
         vertex 8.028687e+002 6.274339e+002 6.321425e+002
      endloop
   endfacet
   facet normal -8.355240e-001 -5.494540e-001 4.207070e-015
      outer loop
         vertex 8.028687e+002 6.274339e+002 6.321425e+002
         vertex 8.028687e+002 6.274339e+002 6.384925e+002
         vertex 8.022339e+002 6.283406e+002 6.384925e+002
      endloop
   endfacet
   facet normal -8.020839e-001 -5.972114e-001 4.001640e-015
      outer loop
         vertex 8.028687e+002 6.274339e+002 6.321425e+002
         vertex 8.022339e+002 6.283406e+002 6.384925e+002
         vertex 8.022339e+002 6.283406e+002 6.321425e+002
      endloop
   endfacet
   facet normal -7.274188e-001 -6.861938e-001 3.552330e-015
      outer loop
         vertex 8.022339e+002 6.283406e+002 6.321425e+002
         vertex 8.022339e+002 6.283406e+002 6.384925e+002
         vertex 8.014512e+002 6.291233e+002 6.384925e+002
      endloop
   endfacet
   facet normal -6.861938e-001 -7.274188e-001 3.308452e-015
      outer loop
         vertex 8.022339e+002 6.283406e+002 6.321425e+002
         vertex 8.014512e+002 6.291233e+002 6.384925e+002
         vertex 8.014512e+002 6.291233e+002 6.321425e+002
      endloop
   endfacet
   facet normal -5.972114e-001 -8.020839e-001 2.789656e-015
      outer loop
         vertex 8.014512e+002 6.291233e+002 6.321425e+002
         vertex 8.014512e+002 6.291233e+002 6.384925e+002
         vertex 8.005444e+002 6.297581e+002 6.384925e+002
      endloop
   endfacet
   facet normal -5.494540e-001 -8.355240e-001 2.514739e-015
      outer loop
         vertex 8.014512e+002 6.291233e+002 6.321425e+002
         vertex 8.005444e+002 6.297581e+002 6.384925e+002
         vertex 8.005444e+002 6.297581e+002 6.321425e+002
      endloop
   endfacet
   facet normal -4.488580e-001 -8.936031e-001 1.942219e-015
      outer loop
         vertex 8.005444e+002 6.297581e+002 6.321425e+002
         vertex 8.005444e+002 6.297581e+002 6.384925e+002
         vertex 7.995413e+002 6.302259e+002 6.384925e+002
      endloop
   endfacet
   facet normal -3.960194e-001 -9.182422e-001 1.644617e-015
      outer loop
         vertex 8.005444e+002 6.297581e+002 6.321425e+002
         vertex 7.995413e+002 6.302259e+002 6.384925e+002
         vertex 7.995413e+002 6.302259e+002 6.321425e+002
      endloop
   endfacet
   facet normal -2.868663e-001 -9.579706e-001 1.035768e-015
      outer loop
         vertex 7.995413e+002 6.302259e+002 6.321425e+002
         vertex 7.995413e+002 6.302259e+002 6.384925e+002
         vertex 7.984721e+002 6.305124e+002 6.384925e+002
      endloop
   endfacet
   facet normal -2.305519e-001 -9.730600e-001 7.245230e-016
      outer loop
         vertex 7.995413e+002 6.302259e+002 6.321425e+002
         vertex 7.984721e+002 6.305124e+002 6.384925e+002
         vertex 7.984721e+002 6.305124e+002 6.321425e+002
      endloop
   endfacet
   facet normal -1.161583e-001 -9.932307e-001 9.784653e-017
      outer loop
         vertex 7.984721e+002 6.305124e+002 6.321425e+002
         vertex 7.984721e+002 6.305124e+002 6.384925e+002
         vertex 7.973695e+002 6.306089e+002 6.384925e+002
      endloop
   endfacet
endsolid