solid 000-UltraSoundMachine_Johnsonville - 300-TableCage-1 308-AngleBracketMirror-2
   facet normal 5.412337e-015 5.166029e-016 1.000000e+000
      outer loop
         vertex 5.782945e+002 6.297581e+002 7.334250e+001
         vertex 5.792012e+002 6.291233e+002 7.334250e+001
         vertex 5.806187e+002 6.591838e+002 7.334250e+001
      endloop
   endfacet
   facet normal 5.412337e-015 5.166029e-016 1.000000e+000
      outer loop
         vertex 5.696202e+002 6.274339e+002 7.334250e+001
         vertex 5.702551e+002 6.283406e+002 7.334250e+001
         vertex 5.792012e+002 6.574945e+002 7.334250e+001
      endloop
   endfacet
   facet normal 5.412337e-015 5.166029e-016 1.000000e+000
      outer loop
         vertex 5.799839e+002 6.283406e+002 7.334250e+001
         vertex 5.806187e+002 6.274339e+002 7.334250e+001
         vertex 5.909945e+002 7.683500e+002 7.334250e+001
      endloop
   endfacet
   facet normal 5.412337e-015 5.166029e-016 1.000000e+000
      outer loop
         vertex 5.909945e+002 7.683500e+002 7.334250e+001
         vertex 5.806187e+002 6.274339e+002 7.334250e+001
         vertex 5.810865e+002 6.264307e+002 7.334250e+001
      endloop
   endfacet
   facet normal 5.412337e-015 5.166029e-016 1.000000e+000
      outer loop
         vertex 5.814695e+002 6.623589e+002 7.334250e+001
         vertex 5.813730e+002 6.612562e+002 7.334250e+001
         vertex 5.792012e+002 6.291233e+002 7.334250e+001
      endloop
   endfacet
   facet normal 5.412337e-015 5.166029e-016 1.000000e+000
      outer loop
         vertex 5.792012e+002 6.291233e+002 7.334250e+001
         vertex 5.813730e+002 6.612562e+002 7.334250e+001
         vertex 5.810865e+002 6.601871e+002 7.334250e+001
      endloop
   endfacet
   facet normal 5.412337e-015 5.166029e-016 1.000000e+000
      outer loop
         vertex 5.792012e+002 6.291233e+002 7.334250e+001
         vertex 5.810865e+002 6.601871e+002 7.334250e+001
         vertex 5.806187e+002 6.591838e+002 7.334250e+001
      endloop
   endfacet
   facet normal 5.412337e-015 5.166029e-016 1.000000e+000
      outer loop
         vertex 5.772913e+002 6.563918e+002 7.334250e+001
         vertex 5.762222e+002 6.561053e+002 7.334250e+001
         vertex 5.691525e+002 6.264307e+002 7.334250e+001
      endloop
   endfacet
   facet normal 5.412337e-015 5.166029e-016 1.000000e+000
      outer loop
         vertex 5.762222e+002 6.686124e+002 7.334250e+001
         vertex 5.772913e+002 6.683259e+002 7.334250e+001
         vertex 5.909945e+002 7.683500e+002 7.334250e+001
      endloop
   endfacet
   facet normal 5.412337e-015 5.166029e-016 1.000000e+000
      outer loop
         vertex 5.909945e+002 7.683500e+002 7.334250e+001
         vertex 5.772913e+002 6.683259e+002 7.334250e+001
         vertex 5.782945e+002 6.678582e+002 7.334250e+001
      endloop
   endfacet
   facet normal 5.412337e-015 5.166029e-016 1.000000e+000
      outer loop
         vertex 5.909945e+002 7.683500e+002 7.334250e+001
         vertex 5.782945e+002 6.678582e+002 7.334250e+001
         vertex 5.792012e+002 6.672233e+002 7.334250e+001
      endloop
   endfacet
   facet normal 5.412337e-015 5.166029e-016 1.000000e+000
      outer loop
         vertex 5.792012e+002 6.672233e+002 7.334250e+001
         vertex 5.799839e+002 6.664406e+002 7.334250e+001
         vertex 5.909945e+002 7.683500e+002 7.334250e+001
      endloop
   endfacet
   facet normal 5.412337e-015 5.166029e-016 1.000000e+000
      outer loop
         vertex 5.909945e+002 7.683500e+002 7.334250e+001
         vertex 5.799839e+002 6.664406e+002 7.334250e+001
         vertex 5.806187e+002 6.655339e+002 7.334250e+001
      endloop
   endfacet
   facet normal 5.412337e-015 5.166029e-016 1.000000e+000
      outer loop
         vertex 5.909945e+002 7.683500e+002 7.334250e+001
         vertex 5.806187e+002 6.655339e+002 7.334250e+001
         vertex 5.810865e+002 6.645307e+002 7.334250e+001
      endloop
   endfacet
   facet normal 5.412337e-015 5.166029e-016 1.000000e+000
      outer loop
         vertex 5.729477e+002 6.563918e+002 7.334250e+001
         vertex 5.688660e+002 6.253616e+002 7.334250e+001
         vertex 5.740168e+002 6.561053e+002 7.334250e+001
      endloop
   endfacet
   facet normal 5.412337e-015 5.166029e-016 1.000000e+000
      outer loop
         vertex 5.740168e+002 6.561053e+002 7.334250e+001
         vertex 5.688660e+002 6.253616e+002 7.334250e+001
         vertex 5.691525e+002 6.264307e+002 7.334250e+001
      endloop
   endfacet
   facet normal 5.412337e-015 5.166029e-016 1.000000e+000
      outer loop
         vertex 5.740168e+002 6.561053e+002 7.334250e+001
         vertex 5.691525e+002 6.264307e+002 7.334250e+001
         vertex 5.751195e+002 6.560089e+002 7.334250e+001
      endloop
   endfacet
   facet normal 5.412337e-015 5.166029e-016 1.000000e+000
      outer loop
         vertex 5.751195e+002 6.560089e+002 7.334250e+001
         vertex 5.691525e+002 6.264307e+002 7.334250e+001
         vertex 5.762222e+002 6.561053e+002 7.334250e+001
      endloop
   endfacet
   facet normal 5.412337e-015 5.166029e-016 1.000000e+000
      outer loop
         vertex 5.702551e+002 6.664406e+002 7.334250e+001
         vertex 5.710378e+002 6.672233e+002 7.334250e+001
         vertex 5.528945e+002 7.683500e+002 7.334250e+001
      endloop
   endfacet
   facet normal 5.412337e-015 5.166029e-016 1.000000e+000
      outer loop
         vertex 5.528945e+002 7.683500e+002 7.334250e+001
         vertex 5.710378e+002 6.672233e+002 7.334250e+001
         vertex 5.719445e+002 6.678582e+002 7.334250e+001
      endloop
   endfacet
   facet normal 5.412337e-015 5.166029e-016 1.000000e+000
      outer loop
         vertex 5.810865e+002 6.645307e+002 7.334250e+001
         vertex 5.813730e+002 6.634615e+002 7.334250e+001
         vertex 5.909945e+002 7.683500e+002 7.334250e+001
      endloop
   endfacet
   facet normal 5.412337e-015 5.166029e-016 1.000000e+000
      outer loop
         vertex 5.909945e+002 7.683500e+002 7.334250e+001
         vertex 5.813730e+002 6.634615e+002 7.334250e+001
         vertex 5.814695e+002 6.623589e+002 7.334250e+001
      endloop
   endfacet
   facet normal 5.412337e-015 5.166029e-016 1.000000e+000
      outer loop
         vertex 5.909945e+002 7.683500e+002 7.334250e+001
         vertex 5.814695e+002 6.623589e+002 7.334250e+001
         vertex 5.799839e+002 6.283406e+002 7.334250e+001
      endloop
   endfacet
   facet normal 5.412337e-015 5.166029e-016 1.000000e+000
      outer loop
         vertex 5.799839e+002 6.283406e+002 7.334250e+001
         vertex 5.814695e+002 6.623589e+002 7.334250e+001
         vertex 5.792012e+002 6.291233e+002 7.334250e+001
      endloop
   endfacet
   facet normal 5.412337e-015 5.166029e-016 1.000000e+000
      outer loop
         vertex 5.702551e+002 6.283406e+002 7.334250e+001
         vertex 5.710378e+002 6.291233e+002 7.334250e+001
         vertex 5.792012e+002 6.574945e+002 7.334250e+001
      endloop
   endfacet
   facet normal 5.412337e-015 5.166029e-016 1.000000e+000
      outer loop
         vertex 5.792012e+002 6.574945e+002 7.334250e+001
         vertex 5.710378e+002 6.291233e+002 7.334250e+001
         vertex 5.719445e+002 6.297581e+002 7.334250e+001
      endloop
   endfacet
   facet normal 5.412337e-015 5.166029e-016 1.000000e+000
      outer loop
         vertex 5.792012e+002 6.574945e+002 7.334250e+001
         vertex 5.719445e+002 6.297581e+002 7.334250e+001
         vertex 5.729477e+002 6.302259e+002 7.334250e+001
      endloop
   endfacet
   facet normal 5.412337e-015 5.166029e-016 1.000000e+000
      outer loop
         vertex 5.696202e+002 6.274339e+002 7.334250e+001
         vertex 5.792012e+002 6.574945e+002 7.334250e+001
         vertex 5.691525e+002 6.264307e+002 7.334250e+001
      endloop
   endfacet
   facet normal 5.412337e-015 5.166029e-016 1.000000e+000
      outer loop
         vertex 5.691525e+002 6.264307e+002 7.334250e+001
         vertex 5.792012e+002 6.574945e+002 7.334250e+001
         vertex 5.782945e+002 6.568596e+002 7.334250e+001
      endloop
   endfacet
   facet normal 5.412337e-015 5.166029e-016 1.000000e+000
      outer loop
         vertex 5.691525e+002 6.264307e+002 7.334250e+001
         vertex 5.782945e+002 6.568596e+002 7.334250e+001
         vertex 5.772913e+002 6.563918e+002 7.334250e+001
      endloop
   endfacet
   facet normal 5.412337e-015 5.166029e-016 1.000000e+000
      outer loop
         vertex 5.729477e+002 6.563918e+002 7.334250e+001
         vertex 5.719445e+002 6.568596e+002 7.334250e+001
         vertex 5.688660e+002 6.253616e+002 7.334250e+001
      endloop
   endfacet
   facet normal 5.412337e-015 5.166029e-016 1.000000e+000
      outer loop
         vertex 5.688660e+002 6.253616e+002 7.334250e+001
         vertex 5.719445e+002 6.568596e+002 7.334250e+001
         vertex 5.710378e+002 6.574945e+002 7.334250e+001
      endloop
   endfacet
   facet normal 5.412337e-015 5.166029e-016 1.000000e+000
      outer loop
         vertex 5.688660e+002 6.253616e+002 7.334250e+001
         vertex 5.710378e+002 6.574945e+002 7.334250e+001
         vertex 5.687695e+002 6.242589e+002 7.334250e+001
      endloop
   endfacet
   facet normal 5.412337e-015 5.166029e-016 1.000000e+000
      outer loop
         vertex 5.687695e+002 6.242589e+002 7.334250e+001
         vertex 5.710378e+002 6.574945e+002 7.334250e+001
         vertex 5.702551e+002 6.582772e+002 7.334250e+001
      endloop
   endfacet
   facet normal 5.412337e-015 5.166029e-016 1.000000e+000
      outer loop
         vertex 5.688660e+002 6.634615e+002 7.334250e+001
         vertex 5.691525e+002 6.645307e+002 7.334250e+001
         vertex 5.528945e+002 7.683500e+002 7.334250e+001
      endloop
   endfacet
   facet normal 5.412337e-015 5.166029e-016 1.000000e+000
      outer loop
         vertex 5.528945e+002 7.683500e+002 7.334250e+001
         vertex 5.691525e+002 6.645307e+002 7.334250e+001
         vertex 5.696202e+002 6.655339e+002 7.334250e+001
      endloop
   endfacet
   facet normal 5.412337e-015 5.166029e-016 1.000000e+000
      outer loop
         vertex 5.528945e+002 7.683500e+002 7.334250e+001
         vertex 5.696202e+002 6.655339e+002 7.334250e+001
         vertex 5.702551e+002 6.664406e+002 7.334250e+001
      endloop
   endfacet
   facet normal 5.412337e-015 5.166029e-016 1.000000e+000
      outer loop
         vertex 5.810865e+002 6.264307e+002 7.334250e+001
         vertex 5.813730e+002 6.253616e+002 7.334250e+001
         vertex 5.909945e+002 7.683500e+002 7.334250e+001
      endloop
   endfacet
   facet normal 5.412337e-015 5.166029e-016 1.000000e+000
      outer loop
         vertex 5.909945e+002 7.683500e+002 7.334250e+001
         vertex 5.813730e+002 6.253616e+002 7.334250e+001
         vertex 5.814695e+002 6.242589e+002 7.334250e+001
      endloop
   endfacet
   facet normal 5.412337e-015 5.166029e-016 1.000000e+000
      outer loop
         vertex 5.909945e+002 7.683500e+002 7.334250e+001
         vertex 5.814695e+002 6.242589e+002 7.334250e+001
         vertex 5.909945e+002 3.492500e+002 7.334250e+001
      endloop
   endfacet
   facet normal 5.412337e-015 5.166029e-016 1.000000e+000
      outer loop
         vertex 5.814695e+002 6.242589e+002 7.334250e+001
         vertex 5.813730e+002 6.231562e+002 7.334250e+001
         vertex 5.909945e+002 3.492500e+002 7.334250e+001
      endloop
   endfacet
   facet normal 5.412337e-015 5.166029e-016 1.000000e+000
      outer loop
         vertex 5.909945e+002 3.492500e+002 7.334250e+001
         vertex 5.813730e+002 6.231562e+002 7.334250e+001
         vertex 5.810865e+002 6.220870e+002 7.334250e+001
      endloop
   endfacet
   facet normal 5.412337e-015 5.166029e-016 1.000000e+000
      outer loop
         vertex 5.909945e+002 3.492500e+002 7.334250e+001
         vertex 5.810865e+002 6.220870e+002 7.334250e+001
         vertex 5.528945e+002 3.492500e+002 7.334250e+001
      endloop
   endfacet
   facet normal 5.412337e-015 5.166029e-016 1.000000e+000
      outer loop
         vertex 5.691525e+002 6.220870e+002 7.334250e+001
         vertex 5.528945e+002 3.492500e+002 7.334250e+001
         vertex 5.696202e+002 6.210839e+002 7.334250e+001
      endloop
   endfacet
   facet normal 5.412337e-015 5.166029e-016 1.000000e+000
      outer loop
         vertex 5.696202e+002 6.210839e+002 7.334250e+001
         vertex 5.528945e+002 3.492500e+002 7.334250e+001
         vertex 5.702551e+002 6.201771e+002 7.334250e+001
      endloop
   endfacet
   facet normal 5.412337e-015 5.166029e-016 1.000000e+000
      outer loop
         vertex 5.719445e+002 6.678582e+002 7.334250e+001
         vertex 5.729477e+002 6.683259e+002 7.334250e+001
         vertex 5.528945e+002 7.683500e+002 7.334250e+001
      endloop
   endfacet
   facet normal 5.412337e-015 5.166029e-016 1.000000e+000
      outer loop
         vertex 5.528945e+002 7.683500e+002 7.334250e+001
         vertex 5.729477e+002 6.683259e+002 7.334250e+001
         vertex 5.740168e+002 6.686124e+002 7.334250e+001
      endloop
   endfacet
   facet normal 5.412337e-015 5.166029e-016 1.000000e+000
      outer loop
         vertex 5.528945e+002 7.683500e+002 7.334250e+001
         vertex 5.740168e+002 6.686124e+002 7.334250e+001
         vertex 5.909945e+002 7.683500e+002 7.334250e+001
      endloop
   endfacet
   facet normal 5.412337e-015 5.166029e-016 1.000000e+000
      outer loop
         vertex 5.909945e+002 7.683500e+002 7.334250e+001
         vertex 5.740168e+002 6.686124e+002 7.334250e+001
         vertex 5.751195e+002 6.687089e+002 7.334250e+001
      endloop
   endfacet
   facet normal 5.412337e-015 5.166029e-016 1.000000e+000
      outer loop
         vertex 5.909945e+002 7.683500e+002 7.334250e+001
         vertex 5.751195e+002 6.687089e+002 7.334250e+001
         vertex 5.762222e+002 6.686124e+002 7.334250e+001
      endloop
   endfacet
   facet normal 5.412337e-015 5.166029e-016 1.000000e+000
      outer loop
         vertex 5.729477e+002 6.302259e+002 7.334250e+001
         vertex 5.740168e+002 6.305124e+002 7.334250e+001
         vertex 5.792012e+002 6.574945e+002 7.334250e+001
      endloop
   endfacet
   facet normal 5.412337e-015 5.166029e-016 1.000000e+000
      outer loop
         vertex 5.792012e+002 6.574945e+002 7.334250e+001
         vertex 5.740168e+002 6.305124e+002 7.334250e+001
         vertex 5.751195e+002 6.306089e+002 7.334250e+001
      endloop
   endfacet
   facet normal 5.412337e-015 5.166029e-016 1.000000e+000
      outer loop
         vertex 5.792012e+002 6.574945e+002 7.334250e+001
         vertex 5.751195e+002 6.306089e+002 7.334250e+001
         vertex 5.799839e+002 6.582772e+002 7.334250e+001
      endloop
   endfacet
   facet normal 5.412337e-015 5.166029e-016 1.000000e+000
      outer loop
         vertex 5.799839e+002 6.582772e+002 7.334250e+001
         vertex 5.751195e+002 6.306089e+002 7.334250e+001
         vertex 5.762222e+002 6.305124e+002 7.334250e+001
      endloop
   endfacet
   facet normal 5.412337e-015 5.166029e-016 1.000000e+000
      outer loop
         vertex 5.799839e+002 6.582772e+002 7.334250e+001
         vertex 5.762222e+002 6.305124e+002 7.334250e+001
         vertex 5.806187e+002 6.591838e+002 7.334250e+001
      endloop
   endfacet
   facet normal 5.412337e-015 5.166029e-016 1.000000e+000
      outer loop
         vertex 5.806187e+002 6.591838e+002 7.334250e+001
         vertex 5.762222e+002 6.305124e+002 7.334250e+001
         vertex 5.772913e+002 6.302259e+002 7.334250e+001
      endloop
   endfacet
   facet normal 5.412337e-015 5.166029e-016 1.000000e+000
      outer loop
         vertex 5.806187e+002 6.591838e+002 7.334250e+001
         vertex 5.772913e+002 6.302259e+002 7.334250e+001
         vertex 5.782945e+002 6.297581e+002 7.334250e+001
      endloop
   endfacet
   facet normal 5.412337e-015 5.166029e-016 1.000000e+000
      outer loop
         vertex 5.810865e+002 6.220870e+002 7.334250e+001
         vertex 5.806187e+002 6.210839e+002 7.334250e+001
         vertex 5.528945e+002 3.492500e+002 7.334250e+001
      endloop
   endfacet
   facet normal 5.412337e-015 5.166029e-016 1.000000e+000
      outer loop
         vertex 5.528945e+002 3.492500e+002 7.334250e+001
         vertex 5.806187e+002 6.210839e+002 7.334250e+001
         vertex 5.799839e+002 6.201771e+002 7.334250e+001
      endloop
   endfacet
   facet normal 5.412337e-015 5.166029e-016 1.000000e+000
      outer loop
         vertex 5.528945e+002 3.492500e+002 7.334250e+001
         vertex 5.799839e+002 6.201771e+002 7.334250e+001
         vertex 5.792012e+002 6.193945e+002 7.334250e+001
      endloop
   endfacet
   facet normal 5.412337e-015 5.166029e-016 1.000000e+000
      outer loop
         vertex 5.691525e+002 6.220870e+002 7.334250e+001
         vertex 5.688660e+002 6.231562e+002 7.334250e+001
         vertex 5.528945e+002 3.492500e+002 7.334250e+001
      endloop
   endfacet
   facet normal 5.412337e-015 5.166029e-016 1.000000e+000
      outer loop
         vertex 5.528945e+002 3.492500e+002 7.334250e+001
         vertex 5.688660e+002 6.231562e+002 7.334250e+001
         vertex 5.687695e+002 6.242589e+002 7.334250e+001
      endloop
   endfacet
   facet normal 5.412337e-015 5.166029e-016 1.000000e+000
      outer loop
         vertex 5.528945e+002 3.492500e+002 7.334250e+001
         vertex 5.687695e+002 6.242589e+002 7.334250e+001
         vertex 5.696202e+002 6.591838e+002 7.334250e+001
      endloop
   endfacet
   facet normal 5.412337e-015 5.166029e-016 1.000000e+000
      outer loop
         vertex 5.696202e+002 6.591838e+002 7.334250e+001
         vertex 5.687695e+002 6.242589e+002 7.334250e+001
         vertex 5.702551e+002 6.582772e+002 7.334250e+001
      endloop
   endfacet
   facet normal 5.412337e-015 5.166029e-016 1.000000e+000
      outer loop
         vertex 5.696202e+002 6.591838e+002 7.334250e+001
         vertex 5.691525e+002 6.601871e+002 7.334250e+001
         vertex 5.528945e+002 3.492500e+002 7.334250e+001
      endloop
   endfacet
   facet normal 5.412337e-015 5.166029e-016 1.000000e+000
      outer loop
         vertex 5.528945e+002 3.492500e+002 7.334250e+001
         vertex 5.691525e+002 6.601871e+002 7.334250e+001
         vertex 5.688660e+002 6.612562e+002 7.334250e+001
      endloop
   endfacet
   facet normal 5.412337e-015 5.166029e-016 1.000000e+000
      outer loop
         vertex 5.528945e+002 3.492500e+002 7.334250e+001
         vertex 5.688660e+002 6.612562e+002 7.334250e+001
         vertex 5.528945e+002 7.683500e+002 7.334250e+001
      endloop
   endfacet
   facet normal 5.412337e-015 5.166029e-016 1.000000e+000
      outer loop
         vertex 5.528945e+002 7.683500e+002 7.334250e+001
         vertex 5.688660e+002 6.612562e+002 7.334250e+001
         vertex 5.687695e+002 6.623589e+002 7.334250e+001
      endloop
   endfacet
   facet normal 5.412337e-015 5.166029e-016 1.000000e+000
      outer loop
         vertex 5.528945e+002 7.683500e+002 7.334250e+001
         vertex 5.687695e+002 6.623589e+002 7.334250e+001
         vertex 5.688660e+002 6.634615e+002 7.334250e+001
      endloop
   endfacet
   facet normal 5.412337e-015 5.166029e-016 1.000000e+000
      outer loop
         vertex 5.792012e+002 6.193945e+002 7.334250e+001
         vertex 5.782945e+002 6.187596e+002 7.334250e+001
         vertex 5.528945e+002 3.492500e+002 7.334250e+001
      endloop
   endfacet
   facet normal 5.412337e-015 5.166029e-016 1.000000e+000
      outer loop
         vertex 5.528945e+002 3.492500e+002 7.334250e+001
         vertex 5.782945e+002 6.187596e+002 7.334250e+001
         vertex 5.772913e+002 6.182918e+002 7.334250e+001
      endloop
   endfacet
   facet normal 5.412337e-015 5.166029e-016 1.000000e+000
      outer loop
         vertex 5.528945e+002 3.492500e+002 7.334250e+001
         vertex 5.772913e+002 6.182918e+002 7.334250e+001
         vertex 5.762222e+002 6.180053e+002 7.334250e+001
      endloop
   endfacet
   facet normal 5.412337e-015 5.166029e-016 1.000000e+000
      outer loop
         vertex 5.762222e+002 6.180053e+002 7.334250e+001
         vertex 5.751195e+002 6.179089e+002 7.334250e+001
         vertex 5.528945e+002 3.492500e+002 7.334250e+001
      endloop
   endfacet
   facet normal 5.412337e-015 5.166029e-016 1.000000e+000
      outer loop
         vertex 5.528945e+002 3.492500e+002 7.334250e+001
         vertex 5.751195e+002 6.179089e+002 7.334250e+001
         vertex 5.740168e+002 6.180053e+002 7.334250e+001
      endloop
   endfacet
   facet normal 5.412337e-015 5.166029e-016 1.000000e+000
      outer loop
         vertex 5.528945e+002 3.492500e+002 7.334250e+001
         vertex 5.740168e+002 6.180053e+002 7.334250e+001
         vertex 5.729477e+002 6.182918e+002 7.334250e+001
      endloop
   endfacet
   facet normal 5.412337e-015 5.166029e-016 1.000000e+000
      outer loop
         vertex 5.729477e+002 6.182918e+002 7.334250e+001
         vertex 5.719445e+002 6.187596e+002 7.334250e+001
         vertex 5.528945e+002 3.492500e+002 7.334250e+001
      endloop
   endfacet
   facet normal 5.412337e-015 5.166029e-016 1.000000e+000
      outer loop
         vertex 5.528945e+002 3.492500e+002 7.334250e+001
         vertex 5.719445e+002 6.187596e+002 7.334250e+001
         vertex 5.710378e+002 6.193945e+002 7.334250e+001
      endloop
   endfacet
   facet normal 5.412337e-015 5.166029e-016 1.000000e+000
      outer loop
         vertex 5.528945e+002 3.492500e+002 7.334250e+001
         vertex 5.710378e+002 6.193945e+002 7.334250e+001
         vertex 5.702551e+002 6.201771e+002 7.334250e+001
      endloop
   endfacet
   facet normal 1.000000e+000 -2.386603e-015 5.828671e-015
      outer loop
         vertex 5.909945e+002 3.492500e+002 7.334250e+001
         vertex 5.909945e+002 3.492500e+002 6.699249e+001
         vertex 5.909945e+002 7.683500e+002 7.334250e+001
      endloop
   endfacet
   facet normal 1.000000e+000 -2.386603e-015 5.828671e-015
      outer loop
         vertex 5.909945e+002 7.683500e+002 7.334250e+001
         vertex 5.909945e+002 3.492500e+002 6.699249e+001
         vertex 5.909945e+002 7.683500e+002 6.699249e+001
      endloop
   endfacet
   facet normal -5.412337e-015 -5.166029e-016 -1.000000e+000
      outer loop
         vertex 5.719445e+002 6.297581e+002 6.699249e+001
         vertex 5.710378e+002 6.291233e+002 6.699249e+001
         vertex 5.696202e+002 6.591838e+002 6.699249e+001
      endloop
   endfacet
   facet normal -5.412337e-015 -5.166029e-016 -1.000000e+000
      outer loop
         vertex 5.719445e+002 6.568596e+002 6.699249e+001
         vertex 5.729477e+002 6.563918e+002 6.699249e+001
         vertex 5.810865e+002 6.264307e+002 6.699249e+001
      endloop
   endfacet
   facet normal -5.412337e-015 -5.166029e-016 -1.000000e+000
      outer loop
         vertex 5.687695e+002 6.623589e+002 6.699249e+001
         vertex 5.688660e+002 6.612562e+002 6.699249e+001
         vertex 5.710378e+002 6.291233e+002 6.699249e+001
      endloop
   endfacet
   facet normal -5.412337e-015 -5.166029e-016 -1.000000e+000
      outer loop
         vertex 5.710378e+002 6.291233e+002 6.699249e+001
         vertex 5.688660e+002 6.612562e+002 6.699249e+001
         vertex 5.691525e+002 6.601871e+002 6.699249e+001
      endloop
   endfacet
   facet normal -5.412337e-015 -5.166029e-016 -1.000000e+000
      outer loop
         vertex 5.710378e+002 6.291233e+002 6.699249e+001
         vertex 5.691525e+002 6.601871e+002 6.699249e+001
         vertex 5.696202e+002 6.591838e+002 6.699249e+001
      endloop
   endfacet
   facet normal -5.412337e-015 -5.166029e-016 -1.000000e+000
      outer loop
         vertex 5.710378e+002 6.672233e+002 6.699249e+001
         vertex 5.702551e+002 6.664406e+002 6.699249e+001
         vertex 5.592445e+002 7.683500e+002 6.699249e+001
      endloop
   endfacet
   facet normal -5.412337e-015 -5.166029e-016 -1.000000e+000
      outer loop
         vertex 5.592445e+002 7.683500e+002 6.699249e+001
         vertex 5.702551e+002 6.664406e+002 6.699249e+001
         vertex 5.696202e+002 6.655339e+002 6.699249e+001
      endloop
   endfacet
   facet normal -5.412337e-015 -5.166029e-016 -1.000000e+000
      outer loop
         vertex 5.592445e+002 7.683500e+002 6.699249e+001
         vertex 5.696202e+002 6.655339e+002 6.699249e+001
         vertex 5.691525e+002 6.645307e+002 6.699249e+001
      endloop
   endfacet
   facet normal -5.412337e-015 -5.166029e-016 -1.000000e+000
      outer loop
         vertex 5.691525e+002 6.264307e+002 6.699249e+001
         vertex 5.592445e+002 7.683500e+002 6.699249e+001
         vertex 5.696202e+002 6.274339e+002 6.699249e+001
      endloop
   endfacet
   facet normal -5.412337e-015 -5.166029e-016 -1.000000e+000
      outer loop
         vertex 5.696202e+002 6.274339e+002 6.699249e+001
         vertex 5.592445e+002 7.683500e+002 6.699249e+001
         vertex 5.702551e+002 6.283406e+002 6.699249e+001
      endloop
   endfacet
   facet normal -5.412337e-015 -5.166029e-016 -1.000000e+000
      outer loop
         vertex 5.719445e+002 6.568596e+002 6.699249e+001
         vertex 5.810865e+002 6.264307e+002 6.699249e+001
         vertex 5.710378e+002 6.574945e+002 6.699249e+001
      endloop
   endfacet
   facet normal -5.412337e-015 -5.166029e-016 -1.000000e+000
      outer loop
         vertex 5.710378e+002 6.574945e+002 6.699249e+001
         vertex 5.810865e+002 6.264307e+002 6.699249e+001
         vertex 5.806187e+002 6.274339e+002 6.699249e+001
      endloop
   endfacet
   facet normal -5.412337e-015 -5.166029e-016 -1.000000e+000
      outer loop
         vertex 5.710378e+002 6.574945e+002 6.699249e+001
         vertex 5.806187e+002 6.274339e+002 6.699249e+001
         vertex 5.702551e+002 6.582772e+002 6.699249e+001
      endloop
   endfacet
   facet normal -5.412337e-015 -5.166029e-016 -1.000000e+000
      outer loop
         vertex 5.909945e+002 7.683500e+002 6.699249e+001
         vertex 5.792012e+002 6.672233e+002 6.699249e+001
         vertex 5.782945e+002 6.678582e+002 6.699249e+001
      endloop
   endfacet
   facet normal -5.412337e-015 -5.166029e-016 -1.000000e+000
      outer loop
         vertex 5.691525e+002 6.645307e+002 6.699249e+001
         vertex 5.688660e+002 6.634615e+002 6.699249e+001
         vertex 5.592445e+002 7.683500e+002 6.699249e+001
      endloop
   endfacet
   facet normal -5.412337e-015 -5.166029e-016 -1.000000e+000
      outer loop
         vertex 5.592445e+002 7.683500e+002 6.699249e+001
         vertex 5.688660e+002 6.634615e+002 6.699249e+001
         vertex 5.687695e+002 6.623589e+002 6.699249e+001
      endloop
   endfacet
   facet normal -5.412337e-015 -5.166029e-016 -1.000000e+000
      outer loop
         vertex 5.592445e+002 7.683500e+002 6.699249e+001
         vertex 5.687695e+002 6.623589e+002 6.699249e+001
         vertex 5.702551e+002 6.283406e+002 6.699249e+001
      endloop
   endfacet
   facet normal -5.412337e-015 -5.166029e-016 -1.000000e+000
      outer loop
         vertex 5.702551e+002 6.283406e+002 6.699249e+001
         vertex 5.687695e+002 6.623589e+002 6.699249e+001
         vertex 5.710378e+002 6.291233e+002 6.699249e+001
      endloop
   endfacet
   facet normal -5.412337e-015 -5.166029e-016 -1.000000e+000
      outer loop
         vertex 5.792012e+002 6.291233e+002 6.699249e+001
         vertex 5.782945e+002 6.297581e+002 6.699249e+001
         vertex 5.696202e+002 6.591838e+002 6.699249e+001
      endloop
   endfacet
   facet normal -5.412337e-015 -5.166029e-016 -1.000000e+000
      outer loop
         vertex 5.729477e+002 6.563918e+002 6.699249e+001
         vertex 5.740168e+002 6.561053e+002 6.699249e+001
         vertex 5.810865e+002 6.264307e+002 6.699249e+001
      endloop
   endfacet
   facet normal -5.412337e-015 -5.166029e-016 -1.000000e+000
      outer loop
         vertex 5.810865e+002 6.264307e+002 6.699249e+001
         vertex 5.740168e+002 6.561053e+002 6.699249e+001
         vertex 5.751195e+002 6.560089e+002 6.699249e+001
      endloop
   endfacet
   facet normal -5.412337e-015 -5.166029e-016 -1.000000e+000
      outer loop
         vertex 5.810865e+002 6.264307e+002 6.699249e+001
         vertex 5.751195e+002 6.560089e+002 6.699249e+001
         vertex 5.813730e+002 6.253616e+002 6.699249e+001
      endloop
   endfacet
   facet normal -5.412337e-015 -5.166029e-016 -1.000000e+000
      outer loop
         vertex 5.813730e+002 6.253616e+002 6.699249e+001
         vertex 5.751195e+002 6.560089e+002 6.699249e+001
         vertex 5.762222e+002 6.561053e+002 6.699249e+001
      endloop
   endfacet
   facet normal -5.412337e-015 -5.166029e-016 -1.000000e+000
      outer loop
         vertex 5.813730e+002 6.253616e+002 6.699249e+001
         vertex 5.762222e+002 6.561053e+002 6.699249e+001
         vertex 5.772913e+002 6.563918e+002 6.699249e+001
      endloop
   endfacet
   facet normal -5.412337e-015 -5.166029e-016 -1.000000e+000
      outer loop
         vertex 5.806187e+002 6.210839e+002 6.699249e+001
         vertex 5.810865e+002 6.220870e+002 6.699249e+001
         vertex 5.909945e+002 3.492500e+002 6.699249e+001
      endloop
   endfacet
   facet normal -5.412337e-015 -5.166029e-016 -1.000000e+000
      outer loop
         vertex 5.702551e+002 6.582772e+002 6.699249e+001
         vertex 5.806187e+002 6.274339e+002 6.699249e+001
         vertex 5.696202e+002 6.591838e+002 6.699249e+001
      endloop
   endfacet
   facet normal -5.412337e-015 -5.166029e-016 -1.000000e+000
      outer loop
         vertex 5.696202e+002 6.591838e+002 6.699249e+001
         vertex 5.806187e+002 6.274339e+002 6.699249e+001
         vertex 5.799839e+002 6.283406e+002 6.699249e+001
      endloop
   endfacet
   facet normal -5.412337e-015 -5.166029e-016 -1.000000e+000
      outer loop
         vertex 5.696202e+002 6.591838e+002 6.699249e+001
         vertex 5.799839e+002 6.283406e+002 6.699249e+001
         vertex 5.792012e+002 6.291233e+002 6.699249e+001
      endloop
   endfacet
   facet normal -5.412337e-015 -5.166029e-016 -1.000000e+000
      outer loop
         vertex 5.782945e+002 6.297581e+002 6.699249e+001
         vertex 5.772913e+002 6.302259e+002 6.699249e+001
         vertex 5.696202e+002 6.591838e+002 6.699249e+001
      endloop
   endfacet
   facet normal -5.412337e-015 -5.166029e-016 -1.000000e+000
      outer loop
         vertex 5.696202e+002 6.591838e+002 6.699249e+001
         vertex 5.772913e+002 6.302259e+002 6.699249e+001
         vertex 5.762222e+002 6.305124e+002 6.699249e+001
      endloop
   endfacet
   facet normal -5.412337e-015 -5.166029e-016 -1.000000e+000
      outer loop
         vertex 5.696202e+002 6.591838e+002 6.699249e+001
         vertex 5.762222e+002 6.305124e+002 6.699249e+001
         vertex 5.751195e+002 6.306089e+002 6.699249e+001
      endloop
   endfacet
   facet normal -5.412337e-015 -5.166029e-016 -1.000000e+000
      outer loop
         vertex 5.691525e+002 6.264307e+002 6.699249e+001
         vertex 5.688660e+002 6.253616e+002 6.699249e+001
         vertex 5.592445e+002 7.683500e+002 6.699249e+001
      endloop
   endfacet
   facet normal -5.412337e-015 -5.166029e-016 -1.000000e+000
      outer loop
         vertex 5.592445e+002 7.683500e+002 6.699249e+001
         vertex 5.688660e+002 6.253616e+002 6.699249e+001
         vertex 5.687695e+002 6.242589e+002 6.699249e+001
      endloop
   endfacet
   facet normal -5.412337e-015 -5.166029e-016 -1.000000e+000
      outer loop
         vertex 5.592445e+002 7.683500e+002 6.699249e+001
         vertex 5.687695e+002 6.242589e+002 6.699249e+001
         vertex 5.592445e+002 3.492500e+002 6.699249e+001
      endloop
   endfacet
   facet normal -5.412337e-015 -5.166029e-016 -1.000000e+000
      outer loop
         vertex 5.592445e+002 3.492500e+002 6.699249e+001
         vertex 5.687695e+002 6.242589e+002 6.699249e+001
         vertex 5.688660e+002 6.231562e+002 6.699249e+001
      endloop
   endfacet
   facet normal -5.412337e-015 -5.166029e-016 -1.000000e+000
      outer loop
         vertex 5.592445e+002 3.492500e+002 6.699249e+001
         vertex 5.688660e+002 6.231562e+002 6.699249e+001
         vertex 5.691525e+002 6.220870e+002 6.699249e+001
      endloop
   endfacet
   facet normal -5.412337e-015 -5.166029e-016 -1.000000e+000
      outer loop
         vertex 5.810865e+002 6.645307e+002 6.699249e+001
         vertex 5.806187e+002 6.655339e+002 6.699249e+001
         vertex 5.909945e+002 7.683500e+002 6.699249e+001
      endloop
   endfacet
   facet normal -5.412337e-015 -5.166029e-016 -1.000000e+000
      outer loop
         vertex 5.909945e+002 7.683500e+002 6.699249e+001
         vertex 5.806187e+002 6.655339e+002 6.699249e+001
         vertex 5.799839e+002 6.664406e+002 6.699249e+001
      endloop
   endfacet
   facet normal -5.412337e-015 -5.166029e-016 -1.000000e+000
      outer loop
         vertex 5.909945e+002 7.683500e+002 6.699249e+001
         vertex 5.799839e+002 6.664406e+002 6.699249e+001
         vertex 5.792012e+002 6.672233e+002 6.699249e+001
      endloop
   endfacet
   facet normal -5.412337e-015 -5.166029e-016 -1.000000e+000
      outer loop
         vertex 5.782945e+002 6.678582e+002 6.699249e+001
         vertex 5.772913e+002 6.683259e+002 6.699249e+001
         vertex 5.909945e+002 7.683500e+002 6.699249e+001
      endloop
   endfacet
   facet normal -5.412337e-015 -5.166029e-016 -1.000000e+000
      outer loop
         vertex 5.909945e+002 7.683500e+002 6.699249e+001
         vertex 5.772913e+002 6.683259e+002 6.699249e+001
         vertex 5.762222e+002 6.686124e+002 6.699249e+001
      endloop
   endfacet
   facet normal -5.412337e-015 -5.166029e-016 -1.000000e+000
      outer loop
         vertex 5.909945e+002 7.683500e+002 6.699249e+001
         vertex 5.762222e+002 6.686124e+002 6.699249e+001
         vertex 5.592445e+002 7.683500e+002 6.699249e+001
      endloop
   endfacet
   facet normal -5.412337e-015 -5.166029e-016 -1.000000e+000
      outer loop
         vertex 5.592445e+002 7.683500e+002 6.699249e+001
         vertex 5.762222e+002 6.686124e+002 6.699249e+001
         vertex 5.751195e+002 6.687089e+002 6.699249e+001
      endloop
   endfacet
   facet normal -5.412337e-015 -5.166029e-016 -1.000000e+000
      outer loop
         vertex 5.592445e+002 7.683500e+002 6.699249e+001
         vertex 5.751195e+002 6.687089e+002 6.699249e+001
         vertex 5.740168e+002 6.686124e+002 6.699249e+001
      endloop
   endfacet
   facet normal -5.412337e-015 -5.166029e-016 -1.000000e+000
      outer loop
         vertex 5.751195e+002 6.306089e+002 6.699249e+001
         vertex 5.740168e+002 6.305124e+002 6.699249e+001
         vertex 5.696202e+002 6.591838e+002 6.699249e+001
      endloop
   endfacet
   facet normal -5.412337e-015 -5.166029e-016 -1.000000e+000
      outer loop
         vertex 5.696202e+002 6.591838e+002 6.699249e+001
         vertex 5.740168e+002 6.305124e+002 6.699249e+001
         vertex 5.729477e+002 6.302259e+002 6.699249e+001
      endloop
   endfacet
   facet normal -5.412337e-015 -5.166029e-016 -1.000000e+000
      outer loop
         vertex 5.696202e+002 6.591838e+002 6.699249e+001
         vertex 5.729477e+002 6.302259e+002 6.699249e+001
         vertex 5.719445e+002 6.297581e+002 6.699249e+001
      endloop
   endfacet
   facet normal -5.412337e-015 -5.166029e-016 -1.000000e+000
      outer loop
         vertex 5.799839e+002 6.582772e+002 6.699249e+001
         vertex 5.814695e+002 6.242589e+002 6.699249e+001
         vertex 5.792012e+002 6.574945e+002 6.699249e+001
      endloop
   endfacet
   facet normal -5.412337e-015 -5.166029e-016 -1.000000e+000
      outer loop
         vertex 5.792012e+002 6.574945e+002 6.699249e+001
         vertex 5.814695e+002 6.242589e+002 6.699249e+001
         vertex 5.813730e+002 6.253616e+002 6.699249e+001
      endloop
   endfacet
   facet normal -5.412337e-015 -5.166029e-016 -1.000000e+000
      outer loop
         vertex 5.792012e+002 6.574945e+002 6.699249e+001
         vertex 5.813730e+002 6.253616e+002 6.699249e+001
         vertex 5.782945e+002 6.568596e+002 6.699249e+001
      endloop
   endfacet
   facet normal -5.412337e-015 -5.166029e-016 -1.000000e+000
      outer loop
         vertex 5.782945e+002 6.568596e+002 6.699249e+001
         vertex 5.813730e+002 6.253616e+002 6.699249e+001
         vertex 5.772913e+002 6.563918e+002 6.699249e+001
      endloop
   endfacet
   facet normal -5.412337e-015 -5.166029e-016 -1.000000e+000
      outer loop
         vertex 5.909945e+002 3.492500e+002 6.699249e+001
         vertex 5.806187e+002 6.591838e+002 6.699249e+001
         vertex 5.810865e+002 6.601871e+002 6.699249e+001
      endloop
   endfacet
   facet normal -5.412337e-015 -5.166029e-016 -1.000000e+000
      outer loop
         vertex 5.810865e+002 6.601871e+002 6.699249e+001
         vertex 5.813730e+002 6.612562e+002 6.699249e+001
         vertex 5.909945e+002 3.492500e+002 6.699249e+001
      endloop
   endfacet
   facet normal -5.412337e-015 -5.166029e-016 -1.000000e+000
      outer loop
         vertex 5.909945e+002 3.492500e+002 6.699249e+001
         vertex 5.813730e+002 6.612562e+002 6.699249e+001
         vertex 5.814695e+002 6.623589e+002 6.699249e+001
      endloop
   endfacet
   facet normal -5.412337e-015 -5.166029e-016 -1.000000e+000
      outer loop
         vertex 5.909945e+002 3.492500e+002 6.699249e+001
         vertex 5.814695e+002 6.623589e+002 6.699249e+001
         vertex 5.909945e+002 7.683500e+002 6.699249e+001
      endloop
   endfacet
   facet normal -5.412337e-015 -5.166029e-016 -1.000000e+000
      outer loop
         vertex 5.909945e+002 7.683500e+002 6.699249e+001
         vertex 5.814695e+002 6.623589e+002 6.699249e+001
         vertex 5.813730e+002 6.634615e+002 6.699249e+001
      endloop
   endfacet
   facet normal -5.412337e-015 -5.166029e-016 -1.000000e+000
      outer loop
         vertex 5.909945e+002 7.683500e+002 6.699249e+001
         vertex 5.813730e+002 6.634615e+002 6.699249e+001
         vertex 5.810865e+002 6.645307e+002 6.699249e+001
      endloop
   endfacet
   facet normal -5.412337e-015 -5.166029e-016 -1.000000e+000
      outer loop
         vertex 5.740168e+002 6.686124e+002 6.699249e+001
         vertex 5.729477e+002 6.683259e+002 6.699249e+001
         vertex 5.592445e+002 7.683500e+002 6.699249e+001
      endloop
   endfacet
   facet normal -5.412337e-015 -5.166029e-016 -1.000000e+000
      outer loop
         vertex 5.592445e+002 7.683500e+002 6.699249e+001
         vertex 5.729477e+002 6.683259e+002 6.699249e+001
         vertex 5.719445e+002 6.678582e+002 6.699249e+001
      endloop
   endfacet
   facet normal -5.412337e-015 -5.166029e-016 -1.000000e+000
      outer loop
         vertex 5.592445e+002 7.683500e+002 6.699249e+001
         vertex 5.719445e+002 6.678582e+002 6.699249e+001
         vertex 5.710378e+002 6.672233e+002 6.699249e+001
      endloop
   endfacet
   facet normal -5.412337e-015 -5.166029e-016 -1.000000e+000
      outer loop
         vertex 5.782945e+002 6.187596e+002 6.699249e+001
         vertex 5.792012e+002 6.193945e+002 6.699249e+001
         vertex 5.909945e+002 3.492500e+002 6.699249e+001
      endloop
   endfacet
   facet normal -5.412337e-015 -5.166029e-016 -1.000000e+000
      outer loop
         vertex 5.909945e+002 3.492500e+002 6.699249e+001
         vertex 5.792012e+002 6.193945e+002 6.699249e+001
         vertex 5.799839e+002 6.201771e+002 6.699249e+001
      endloop
   endfacet
   facet normal -5.412337e-015 -5.166029e-016 -1.000000e+000
      outer loop
         vertex 5.909945e+002 3.492500e+002 6.699249e+001
         vertex 5.799839e+002 6.201771e+002 6.699249e+001
         vertex 5.806187e+002 6.210839e+002 6.699249e+001
      endloop
   endfacet
   facet normal -5.412337e-015 -5.166029e-016 -1.000000e+000
      outer loop
         vertex 5.810865e+002 6.220870e+002 6.699249e+001
         vertex 5.813730e+002 6.231562e+002 6.699249e+001
         vertex 5.909945e+002 3.492500e+002 6.699249e+001
      endloop
   endfacet
   facet normal -5.412337e-015 -5.166029e-016 -1.000000e+000
      outer loop
         vertex 5.909945e+002 3.492500e+002 6.699249e+001
         vertex 5.813730e+002 6.231562e+002 6.699249e+001
         vertex 5.814695e+002 6.242589e+002 6.699249e+001
      endloop
   endfacet
   facet normal -5.412337e-015 -5.166029e-016 -1.000000e+000
      outer loop
         vertex 5.909945e+002 3.492500e+002 6.699249e+001
         vertex 5.814695e+002 6.242589e+002 6.699249e+001
         vertex 5.806187e+002 6.591838e+002 6.699249e+001
      endloop
   endfacet
   facet normal -5.412337e-015 -5.166029e-016 -1.000000e+000
      outer loop
         vertex 5.806187e+002 6.591838e+002 6.699249e+001
         vertex 5.814695e+002 6.242589e+002 6.699249e+001
         vertex 5.799839e+002 6.582772e+002 6.699249e+001
      endloop
   endfacet
   facet normal -5.412337e-015 -5.166029e-016 -1.000000e+000
      outer loop
         vertex 5.751195e+002 6.179089e+002 6.699249e+001
         vertex 5.762222e+002 6.180053e+002 6.699249e+001
         vertex 5.909945e+002 3.492500e+002 6.699249e+001
      endloop
   endfacet
   facet normal -5.412337e-015 -5.166029e-016 -1.000000e+000
      outer loop
         vertex 5.909945e+002 3.492500e+002 6.699249e+001
         vertex 5.762222e+002 6.180053e+002 6.699249e+001
         vertex 5.772913e+002 6.182918e+002 6.699249e+001
      endloop
   endfacet
   facet normal -5.412337e-015 -5.166029e-016 -1.000000e+000
      outer loop
         vertex 5.909945e+002 3.492500e+002 6.699249e+001
         vertex 5.772913e+002 6.182918e+002 6.699249e+001
         vertex 5.782945e+002 6.187596e+002 6.699249e+001
      endloop
   endfacet
   facet normal -5.412337e-015 -5.166029e-016 -1.000000e+000
      outer loop
         vertex 5.691525e+002 6.220870e+002 6.699249e+001
         vertex 5.696202e+002 6.210839e+002 6.699249e+001
         vertex 5.592445e+002 3.492500e+002 6.699249e+001
      endloop
   endfacet
   facet normal -5.412337e-015 -5.166029e-016 -1.000000e+000
      outer loop
         vertex 5.592445e+002 3.492500e+002 6.699249e+001
         vertex 5.696202e+002 6.210839e+002 6.699249e+001
         vertex 5.702551e+002 6.201771e+002 6.699249e+001
      endloop
   endfacet
   facet normal -5.412337e-015 -5.166029e-016 -1.000000e+000
      outer loop
         vertex 5.592445e+002 3.492500e+002 6.699249e+001
         vertex 5.702551e+002 6.201771e+002 6.699249e+001
         vertex 5.710378e+002 6.193945e+002 6.699249e+001
      endloop
   endfacet
   facet normal -5.412337e-015 -5.166029e-016 -1.000000e+000
      outer loop
         vertex 5.710378e+002 6.193945e+002 6.699249e+001
         vertex 5.719445e+002 6.187596e+002 6.699249e+001
         vertex 5.592445e+002 3.492500e+002 6.699249e+001
      endloop
   endfacet
   facet normal -5.412337e-015 -5.166029e-016 -1.000000e+000
      outer loop
         vertex 5.592445e+002 3.492500e+002 6.699249e+001
         vertex 5.719445e+002 6.187596e+002 6.699249e+001
         vertex 5.729477e+002 6.182918e+002 6.699249e+001
      endloop
   endfacet
   facet normal -5.412337e-015 -5.166029e-016 -1.000000e+000
      outer loop
         vertex 5.592445e+002 3.492500e+002 6.699249e+001
         vertex 5.729477e+002 6.182918e+002 6.699249e+001
         vertex 5.909945e+002 3.492500e+002 6.699249e+001
      endloop
   endfacet
   facet normal -5.412337e-015 -5.166029e-016 -1.000000e+000
      outer loop
         vertex 5.909945e+002 3.492500e+002 6.699249e+001
         vertex 5.729477e+002 6.182918e+002 6.699249e+001
         vertex 5.740168e+002 6.180053e+002 6.699249e+001
      endloop
   endfacet
   facet normal -5.412337e-015 -5.166029e-016 -1.000000e+000
      outer loop
         vertex 5.909945e+002 3.492500e+002 6.699249e+001
         vertex 5.740168e+002 6.180053e+002 6.699249e+001
         vertex 5.751195e+002 6.179089e+002 6.699249e+001
      endloop
   endfacet
   facet normal 1.000000e+000 -2.386603e-015 5.828671e-015
      outer loop
         vertex 5.592445e+002 3.492500e+002 6.699249e+001
         vertex 5.592445e+002 3.492500e+002 3.524250e+001
         vertex 5.592445e+002 7.683500e+002 6.699249e+001
      endloop
   endfacet
   facet normal 1.000000e+000 -2.386603e-015 5.828671e-015
      outer loop
         vertex 5.592445e+002 7.683500e+002 6.699249e+001
         vertex 5.592445e+002 3.492500e+002 3.524250e+001
         vertex 5.592445e+002 7.683500e+002 3.524250e+001
      endloop
   endfacet
   facet normal -5.412337e-015 -5.166029e-016 -1.000000e+000
      outer loop
         vertex 5.592445e+002 3.492500e+002 3.524250e+001
         vertex 5.528945e+002 3.492500e+002 3.524250e+001
         vertex 5.592445e+002 7.683500e+002 3.524250e+001
      endloop
   endfacet
   facet normal -5.412337e-015 -5.166029e-016 -1.000000e+000
      outer loop
         vertex 5.592445e+002 7.683500e+002 3.524250e+001
         vertex 5.528945e+002 3.492500e+002 3.524250e+001
         vertex 5.528945e+002 7.683500e+002 3.524250e+001
      endloop
   endfacet
   facet normal -1.000000e+000 2.386603e-015 -5.828671e-015
      outer loop
         vertex 5.528945e+002 3.492500e+002 7.334250e+001
         vertex 5.528945e+002 7.683500e+002 7.334250e+001
         vertex 5.528945e+002 3.492500e+002 3.524250e+001
      endloop
   endfacet
   facet normal -1.000000e+000 2.386603e-015 -5.828671e-015
      outer loop
         vertex 5.528945e+002 3.492500e+002 3.524250e+001
         vertex 5.528945e+002 7.683500e+002 7.334250e+001
         vertex 5.528945e+002 7.683500e+002 3.524250e+001
      endloop
   endfacet
   facet normal -2.323830e-015 1.000000e+000 5.295378e-016
      outer loop
         vertex 5.592445e+002 7.683500e+002 3.524250e+001
         vertex 5.528945e+002 7.683500e+002 3.524250e+001
         vertex 5.592445e+002 7.683500e+002 6.699249e+001
      endloop
   endfacet
   facet normal -2.323830e-015 1.000000e+000 5.295378e-016
      outer loop
         vertex 5.592445e+002 7.683500e+002 6.699249e+001
         vertex 5.528945e+002 7.683500e+002 3.524250e+001
         vertex 5.528945e+002 7.683500e+002 7.334250e+001
      endloop
   endfacet
   facet normal -2.323830e-015 1.000000e+000 5.295378e-016
      outer loop
         vertex 5.592445e+002 7.683500e+002 6.699249e+001
         vertex 5.528945e+002 7.683500e+002 7.334250e+001
         vertex 5.909945e+002 7.683500e+002 6.699249e+001
      endloop
   endfacet
   facet normal -2.323830e-015 1.000000e+000 5.295378e-016
      outer loop
         vertex 5.909945e+002 7.683500e+002 6.699249e+001
         vertex 5.528945e+002 7.683500e+002 7.334250e+001
         vertex 5.909945e+002 7.683500e+002 7.334250e+001
      endloop
   endfacet
   facet normal 2.323830e-015 -1.000000e+000 -5.295378e-016
      outer loop
         vertex 5.909945e+002 3.492500e+002 6.699249e+001
         vertex 5.909945e+002 3.492500e+002 7.334250e+001
         vertex 5.592445e+002 3.492500e+002 6.699249e+001
      endloop
   endfacet
   facet normal 2.323830e-015 -1.000000e+000 -5.295378e-016
      outer loop
         vertex 5.592445e+002 3.492500e+002 6.699249e+001
         vertex 5.909945e+002 3.492500e+002 7.334250e+001
         vertex 5.528945e+002 3.492500e+002 7.334250e+001
      endloop
   endfacet
   facet normal 2.323830e-015 -1.000000e+000 -5.295378e-016
      outer loop
         vertex 5.592445e+002 3.492500e+002 6.699249e+001
         vertex 5.528945e+002 3.492500e+002 7.334250e+001
         vertex 5.592445e+002 3.492500e+002 3.524250e+001
      endloop
   endfacet
   facet normal 2.323830e-015 -1.000000e+000 -5.295378e-016
      outer loop
         vertex 5.592445e+002 3.492500e+002 3.524250e+001
         vertex 5.528945e+002 3.492500e+002 7.334250e+001
         vertex 5.528945e+002 3.492500e+002 3.524250e+001
      endloop
   endfacet
   facet normal 5.807914e-002 -9.983120e-001 1.769551e-016
      outer loop
         vertex 5.740168e+002 6.686124e+002 7.334250e+001
         vertex 5.751195e+002 6.687089e+002 6.699249e+001
         vertex 5.751195e+002 6.687089e+002 7.334250e+001
      endloop
   endfacet
   facet normal -5.807914e-002 -9.983120e-001 8.088668e-016
      outer loop
         vertex 5.751195e+002 6.687089e+002 7.334250e+001
         vertex 5.751195e+002 6.687089e+002 6.699249e+001
         vertex 5.762222e+002 6.686124e+002 6.699249e+001
      endloop
   endfacet
   facet normal -1.161583e-001 -9.932307e-001 1.122314e-015
      outer loop
         vertex 5.751195e+002 6.687089e+002 7.334250e+001
         vertex 5.762222e+002 6.686124e+002 6.699249e+001
         vertex 5.762222e+002 6.686124e+002 7.334250e+001
      endloop
   endfacet
   facet normal -2.305519e-001 -9.730600e-001 1.734666e-015
      outer loop
         vertex 5.762222e+002 6.686124e+002 7.334250e+001
         vertex 5.762222e+002 6.686124e+002 6.699249e+001
         vertex 5.772913e+002 6.683259e+002 6.699249e+001
      endloop
   endfacet
   facet normal -2.868663e-001 -9.579706e-001 2.033572e-015
      outer loop
         vertex 5.762222e+002 6.686124e+002 7.334250e+001
         vertex 5.772913e+002 6.683259e+002 6.699249e+001
         vertex 5.772913e+002 6.683259e+002 7.334250e+001
      endloop
   endfacet
   facet normal -3.960194e-001 -9.182422e-001 2.607759e-015
      outer loop
         vertex 5.772913e+002 6.683259e+002 7.334250e+001
         vertex 5.772913e+002 6.683259e+002 6.699249e+001
         vertex 5.782945e+002 6.678582e+002 6.699249e+001
      endloop
   endfacet
   facet normal -4.488580e-001 -8.936031e-001 2.883041e-015
      outer loop
         vertex 5.772913e+002 6.683259e+002 7.334250e+001
         vertex 5.782945e+002 6.678582e+002 6.699249e+001
         vertex 5.782945e+002 6.678582e+002 7.334250e+001
      endloop
   endfacet
   facet normal -5.494540e-001 -8.355240e-001 3.401616e-015
      outer loop
         vertex 5.782945e+002 6.678582e+002 7.334250e+001
         vertex 5.782945e+002 6.678582e+002 6.699249e+001
         vertex 5.792012e+002 6.672233e+002 6.699249e+001
      endloop
   endfacet
   facet normal -5.972114e-001 -8.020839e-001 3.644910e-015
      outer loop
         vertex 5.782945e+002 6.678582e+002 7.334250e+001
         vertex 5.792012e+002 6.672233e+002 6.699249e+001
         vertex 5.792012e+002 6.672233e+002 7.334250e+001
      endloop
   endfacet
   facet normal -6.861938e-001 -7.274188e-001 4.092117e-015
      outer loop
         vertex 5.792012e+002 6.672233e+002 7.334250e+001
         vertex 5.792012e+002 6.672233e+002 6.699249e+001
         vertex 5.799839e+002 6.664406e+002 6.699249e+001
      endloop
   endfacet
   facet normal -7.274188e-001 -6.861938e-001 4.296030e-015
      outer loop
         vertex 5.792012e+002 6.672233e+002 7.334250e+001
         vertex 5.799839e+002 6.664406e+002 6.699249e+001
         vertex 5.799839e+002 6.664406e+002 7.334250e+001
      endloop
   endfacet
   facet normal -8.020839e-001 -5.972114e-001 4.658281e-015
      outer loop
         vertex 5.799839e+002 6.664406e+002 7.334250e+001
         vertex 5.799839e+002 6.664406e+002 6.699249e+001
         vertex 5.806187e+002 6.655339e+002 6.699249e+001
      endloop
   endfacet
   facet normal -8.355240e-001 -5.494540e-001 4.816618e-015
      outer loop
         vertex 5.799839e+002 6.664406e+002 7.334250e+001
         vertex 5.806187e+002 6.655339e+002 6.699249e+001
         vertex 5.806187e+002 6.655339e+002 7.334250e+001
      endloop
   endfacet
   facet normal -8.936031e-001 -4.488580e-001 5.082905e-015
      outer loop
         vertex 5.806187e+002 6.655339e+002 7.334250e+001
         vertex 5.806187e+002 6.655339e+002 6.699249e+001
         vertex 5.810865e+002 6.645307e+002 6.699249e+001
      endloop
   endfacet
   facet normal -9.182422e-001 -3.960194e-001 5.190855e-015
      outer loop
         vertex 5.806187e+002 6.655339e+002 7.334250e+001
         vertex 5.810865e+002 6.645307e+002 6.699249e+001
         vertex 5.810865e+002 6.645307e+002 7.334250e+001
      endloop
   endfacet
   facet normal -9.579706e-001 -2.868663e-001 5.353088e-015
      outer loop
         vertex 5.810865e+002 6.645307e+002 7.334250e+001
         vertex 5.810865e+002 6.645307e+002 6.699249e+001
         vertex 5.813730e+002 6.634615e+002 6.699249e+001
      endloop
   endfacet
   facet normal -9.730600e-001 -2.305519e-001 5.407372e-015
      outer loop
         vertex 5.810865e+002 6.645307e+002 7.334250e+001
         vertex 5.813730e+002 6.634615e+002 6.699249e+001
         vertex 5.813730e+002 6.634615e+002 7.334250e+001
      endloop
   endfacet
   facet normal -9.932307e-001 -1.161583e-001 5.460620e-015
      outer loop
         vertex 5.813730e+002 6.634615e+002 7.334250e+001
         vertex 5.813730e+002 6.634615e+002 6.699249e+001
         vertex 5.814695e+002 6.623589e+002 6.699249e+001
      endloop
   endfacet
   facet normal -9.983120e-001 -5.807914e-002 5.459586e-015
      outer loop
         vertex 5.813730e+002 6.634615e+002 7.334250e+001
         vertex 5.814695e+002 6.623589e+002 6.699249e+001
         vertex 5.814695e+002 6.623589e+002 7.334250e+001
      endloop
   endfacet
   facet normal -9.983120e-001 5.807914e-002 5.402234e-015
      outer loop
         vertex 5.814695e+002 6.623589e+002 7.334250e+001
         vertex 5.814695e+002 6.623589e+002 6.699249e+001
         vertex 5.813730e+002 6.612562e+002 6.699249e+001
      endloop
   endfacet
   facet normal -9.932307e-001 1.161583e-001 5.345915e-015
      outer loop
         vertex 5.814695e+002 6.623589e+002 7.334250e+001
         vertex 5.813730e+002 6.612562e+002 6.699249e+001
         vertex 5.813730e+002 6.612562e+002 7.334250e+001
      endloop
   endfacet
   facet normal -9.730600e-001 2.305519e-001 5.179704e-015
      outer loop
         vertex 5.813730e+002 6.612562e+002 7.334250e+001
         vertex 5.813730e+002 6.612562e+002 6.699249e+001
         vertex 5.810865e+002 6.601871e+002 6.699249e+001
      endloop
   endfacet
   facet normal -9.579706e-001 2.868663e-001 5.069811e-015
      outer loop
         vertex 5.813730e+002 6.612562e+002 7.334250e+001
         vertex 5.810865e+002 6.601871e+002 6.699249e+001
         vertex 5.810865e+002 6.601871e+002 7.334250e+001
      endloop
   endfacet
   facet normal -9.182422e-001 3.960194e-001 4.799790e-015
      outer loop
         vertex 5.810865e+002 6.601871e+002 7.334250e+001
         vertex 5.810865e+002 6.601871e+002 6.699249e+001
         vertex 5.806187e+002 6.591838e+002 6.699249e+001
      endloop
   endfacet
   facet normal -8.936031e-001 4.488580e-001 4.639663e-015
      outer loop
         vertex 5.810865e+002 6.601871e+002 7.334250e+001
         vertex 5.806187e+002 6.591838e+002 6.699249e+001
         vertex 5.806187e+002 6.591838e+002 7.334250e+001
      endloop
   endfacet
   facet normal -8.355240e-001 5.494540e-001 4.274038e-015
      outer loop
         vertex 5.806187e+002 6.591838e+002 7.334250e+001
         vertex 5.806187e+002 6.591838e+002 6.699249e+001
         vertex 5.799839e+002 6.582772e+002 6.699249e+001
      endloop
   endfacet
   facet normal -8.020839e-001 5.972114e-001 4.068541e-015
      outer loop
         vertex 5.806187e+002 6.591838e+002 7.334250e+001
         vertex 5.799839e+002 6.582772e+002 6.699249e+001
         vertex 5.799839e+002 6.582772e+002 7.334250e+001
      endloop
   endfacet
   facet normal -7.274188e-001 6.861938e-001 3.618421e-015
      outer loop
         vertex 5.799839e+002 6.582772e+002 7.334250e+001
         vertex 5.799839e+002 6.582772e+002 6.699249e+001
         vertex 5.792012e+002 6.574945e+002 6.699249e+001
      endloop
   endfacet
   facet normal -6.861938e-001 7.274188e-001 3.373799e-015
      outer loop
         vertex 5.799839e+002 6.582772e+002 7.334250e+001
         vertex 5.792012e+002 6.574945e+002 6.699249e+001
         vertex 5.792012e+002 6.574945e+002 7.334250e+001
      endloop
   endfacet
   facet normal -5.972114e-001 8.020839e-001 2.852861e-015
      outer loop
         vertex 5.792012e+002 6.574945e+002 7.334250e+001
         vertex 5.792012e+002 6.574945e+002 6.699249e+001
         vertex 5.782945e+002 6.568596e+002 6.699249e+001
      endloop
   endfacet
   facet normal -5.494540e-001 8.355240e-001 2.576546e-015
      outer loop
         vertex 5.792012e+002 6.574945e+002 7.334250e+001
         vertex 5.782945e+002 6.568596e+002 6.699249e+001
         vertex 5.782945e+002 6.568596e+002 7.334250e+001
      endloop
   endfacet
   facet normal -4.488580e-001 8.936031e-001 2.000618e-015
      outer loop
         vertex 5.782945e+002 6.568596e+002 7.334250e+001
         vertex 5.782945e+002 6.568596e+002 6.699249e+001
         vertex 5.772913e+002 6.563918e+002 6.699249e+001
      endloop
   endfacet
   facet normal -3.960194e-001 9.182422e-001 1.701005e-015
      outer loop
         vertex 5.782945e+002 6.568596e+002 7.334250e+001
         vertex 5.772913e+002 6.563918e+002 6.699249e+001
         vertex 5.772913e+002 6.563918e+002 7.334250e+001
      endloop
   endfacet
   facet normal -2.868663e-001 9.579706e-001 1.087586e-015
      outer loop
         vertex 5.772913e+002 6.563918e+002 7.334250e+001
         vertex 5.772913e+002 6.563918e+002 6.699249e+001
         vertex 5.762222e+002 6.561053e+002 6.699249e+001
      endloop
   endfacet
   facet normal -2.305519e-001 9.730600e-001 7.737805e-016
      outer loop
         vertex 5.772913e+002 6.563918e+002 7.334250e+001
         vertex 5.762222e+002 6.561053e+002 6.699249e+001
         vertex 5.762222e+002 6.561053e+002 7.334250e+001
      endloop
   endfacet
   facet normal -1.161583e-001 9.932307e-001 1.415097e-016
      outer loop
         vertex 5.762222e+002 6.561053e+002 7.334250e+001
         vertex 5.762222e+002 6.561053e+002 6.699249e+001
         vertex 5.751195e+002 6.560089e+002 6.699249e+001
      endloop
   endfacet
   facet normal -5.807914e-002 9.983120e-001 -1.769551e-016
      outer loop
         vertex 5.762222e+002 6.561053e+002 7.334250e+001
         vertex 5.751195e+002 6.560089e+002 6.699249e+001
         vertex 5.751195e+002 6.560089e+002 7.334250e+001
      endloop
   endfacet
   facet normal 5.807914e-002 9.983120e-001 -8.088668e-016
      outer loop
         vertex 5.751195e+002 6.560089e+002 7.334250e+001
         vertex 5.751195e+002 6.560089e+002 6.699249e+001
         vertex 5.740168e+002 6.561053e+002 6.699249e+001
      endloop
   endfacet
   facet normal 1.161583e-001 9.932307e-001 -1.122314e-015
      outer loop
         vertex 5.751195e+002 6.560089e+002 7.334250e+001
         vertex 5.740168e+002 6.561053e+002 6.699249e+001
         vertex 5.740168e+002 6.561053e+002 7.334250e+001
      endloop
   endfacet
   facet normal 2.305519e-001 9.730600e-001 -1.734666e-015
      outer loop
         vertex 5.740168e+002 6.561053e+002 7.334250e+001
         vertex 5.740168e+002 6.561053e+002 6.699249e+001
         vertex 5.729477e+002 6.563918e+002 6.699249e+001
      endloop
   endfacet
   facet normal 2.868663e-001 9.579706e-001 -2.033572e-015
      outer loop
         vertex 5.740168e+002 6.561053e+002 7.334250e+001
         vertex 5.729477e+002 6.563918e+002 6.699249e+001
         vertex 5.729477e+002 6.563918e+002 7.334250e+001
      endloop
   endfacet
   facet normal 3.960194e-001 9.182422e-001 -2.607759e-015
      outer loop
         vertex 5.729477e+002 6.563918e+002 7.334250e+001
         vertex 5.729477e+002 6.563918e+002 6.699249e+001
         vertex 5.719445e+002 6.568596e+002 6.699249e+001
      endloop
   endfacet
   facet normal 4.488580e-001 8.936031e-001 -2.883041e-015
      outer loop
         vertex 5.729477e+002 6.563918e+002 7.334250e+001
         vertex 5.719445e+002 6.568596e+002 6.699249e+001
         vertex 5.719445e+002 6.568596e+002 7.334250e+001
      endloop
   endfacet
   facet normal 5.494540e-001 8.355240e-001 -3.401616e-015
      outer loop
         vertex 5.719445e+002 6.568596e+002 7.334250e+001
         vertex 5.719445e+002 6.568596e+002 6.699249e+001
         vertex 5.710378e+002 6.574945e+002 6.699249e+001
      endloop
   endfacet
   facet normal 5.972114e-001 8.020839e-001 -3.644910e-015
      outer loop
         vertex 5.719445e+002 6.568596e+002 7.334250e+001
         vertex 5.710378e+002 6.574945e+002 6.699249e+001
         vertex 5.710378e+002 6.574945e+002 7.334250e+001
      endloop
   endfacet
   facet normal 6.861938e-001 7.274188e-001 -4.092117e-015
      outer loop
         vertex 5.710378e+002 6.574945e+002 7.334250e+001
         vertex 5.710378e+002 6.574945e+002 6.699249e+001
         vertex 5.702551e+002 6.582772e+002 6.699249e+001
      endloop
   endfacet
   facet normal 7.274188e-001 6.861938e-001 -4.296030e-015
      outer loop
         vertex 5.710378e+002 6.574945e+002 7.334250e+001
         vertex 5.702551e+002 6.582772e+002 6.699249e+001
         vertex 5.702551e+002 6.582772e+002 7.334250e+001
      endloop
   endfacet
   facet normal 8.020839e-001 5.972114e-001 -4.658281e-015
      outer loop
         vertex 5.702551e+002 6.582772e+002 7.334250e+001
         vertex 5.702551e+002 6.582772e+002 6.699249e+001
         vertex 5.696202e+002 6.591838e+002 6.699249e+001
      endloop
   endfacet
   facet normal 8.355240e-001 5.494540e-001 -4.816618e-015
      outer loop
         vertex 5.702551e+002 6.582772e+002 7.334250e+001
         vertex 5.696202e+002 6.591838e+002 6.699249e+001
         vertex 5.696202e+002 6.591838e+002 7.334250e+001
      endloop
   endfacet
   facet normal 8.936031e-001 4.488580e-001 -5.082905e-015
      outer loop
         vertex 5.696202e+002 6.591838e+002 7.334250e+001
         vertex 5.696202e+002 6.591838e+002 6.699249e+001
         vertex 5.691525e+002 6.601871e+002 6.699249e+001
      endloop
   endfacet
   facet normal 9.182422e-001 3.960194e-001 -5.190855e-015
      outer loop
         vertex 5.696202e+002 6.591838e+002 7.334250e+001
         vertex 5.691525e+002 6.601871e+002 6.699249e+001
         vertex 5.691525e+002 6.601871e+002 7.334250e+001
      endloop
   endfacet
   facet normal 9.579706e-001 2.868663e-001 -5.353088e-015
      outer loop
         vertex 5.691525e+002 6.601871e+002 7.334250e+001
         vertex 5.691525e+002 6.601871e+002 6.699249e+001
         vertex 5.688660e+002 6.612562e+002 6.699249e+001
      endloop
   endfacet
   facet normal 9.730600e-001 2.305519e-001 -5.407372e-015
      outer loop
         vertex 5.691525e+002 6.601871e+002 7.334250e+001
         vertex 5.688660e+002 6.612562e+002 6.699249e+001
         vertex 5.688660e+002 6.612562e+002 7.334250e+001
      endloop
   endfacet
   facet normal 9.932307e-001 1.161583e-001 -5.460620e-015
      outer loop
         vertex 5.688660e+002 6.612562e+002 7.334250e+001
         vertex 5.688660e+002 6.612562e+002 6.699249e+001
         vertex 5.687695e+002 6.623589e+002 6.699249e+001
      endloop
   endfacet
   facet normal 9.983120e-001 5.807914e-002 -5.459586e-015
      outer loop
         vertex 5.688660e+002 6.612562e+002 7.334250e+001
         vertex 5.687695e+002 6.623589e+002 6.699249e+001
         vertex 5.687695e+002 6.623589e+002 7.334250e+001
      endloop
   endfacet
   facet normal 9.983120e-001 -5.807914e-002 -5.402234e-015
      outer loop
         vertex 5.687695e+002 6.623589e+002 7.334250e+001
         vertex 5.687695e+002 6.623589e+002 6.699249e+001
         vertex 5.688660e+002 6.634615e+002 6.699249e+001
      endloop
   endfacet
   facet normal 9.932307e-001 -1.161583e-001 -5.345915e-015
      outer loop
         vertex 5.687695e+002 6.623589e+002 7.334250e+001
         vertex 5.688660e+002 6.634615e+002 6.699249e+001
         vertex 5.688660e+002 6.634615e+002 7.334250e+001
      endloop
   endfacet
   facet normal 9.730600e-001 -2.305519e-001 -5.179704e-015
      outer loop
         vertex 5.688660e+002 6.634615e+002 7.334250e+001
         vertex 5.688660e+002 6.634615e+002 6.699249e+001
         vertex 5.691525e+002 6.645307e+002 6.699249e+001
      endloop
   endfacet
   facet normal 9.579706e-001 -2.868663e-001 -5.069811e-015
      outer loop
         vertex 5.688660e+002 6.634615e+002 7.334250e+001
         vertex 5.691525e+002 6.645307e+002 6.699249e+001
         vertex 5.691525e+002 6.645307e+002 7.334250e+001
      endloop
   endfacet
   facet normal 9.182422e-001 -3.960194e-001 -4.799790e-015
      outer loop
         vertex 5.691525e+002 6.645307e+002 7.334250e+001
         vertex 5.691525e+002 6.645307e+002 6.699249e+001
         vertex 5.696202e+002 6.655339e+002 6.699249e+001
      endloop
   endfacet
   facet normal 8.936031e-001 -4.488580e-001 -4.639663e-015
      outer loop
         vertex 5.691525e+002 6.645307e+002 7.334250e+001
         vertex 5.696202e+002 6.655339e+002 6.699249e+001
         vertex 5.696202e+002 6.655339e+002 7.334250e+001
      endloop
   endfacet
   facet normal 8.355240e-001 -5.494540e-001 -4.274038e-015
      outer loop
         vertex 5.696202e+002 6.655339e+002 7.334250e+001
         vertex 5.696202e+002 6.655339e+002 6.699249e+001
         vertex 5.702551e+002 6.664406e+002 6.699249e+001
      endloop
   endfacet
   facet normal 8.020839e-001 -5.972114e-001 -4.068541e-015
      outer loop
         vertex 5.696202e+002 6.655339e+002 7.334250e+001
         vertex 5.702551e+002 6.664406e+002 6.699249e+001
         vertex 5.702551e+002 6.664406e+002 7.334250e+001
      endloop
   endfacet
   facet normal 7.274188e-001 -6.861938e-001 -3.618421e-015
      outer loop
         vertex 5.702551e+002 6.664406e+002 7.334250e+001
         vertex 5.702551e+002 6.664406e+002 6.699249e+001
         vertex 5.710378e+002 6.672233e+002 6.699249e+001
      endloop
   endfacet
   facet normal 6.861938e-001 -7.274188e-001 -3.373799e-015
      outer loop
         vertex 5.702551e+002 6.664406e+002 7.334250e+001
         vertex 5.710378e+002 6.672233e+002 6.699249e+001
         vertex 5.710378e+002 6.672233e+002 7.334250e+001
      endloop
   endfacet
   facet normal 5.972114e-001 -8.020839e-001 -2.852861e-015
      outer loop
         vertex 5.710378e+002 6.672233e+002 7.334250e+001
         vertex 5.710378e+002 6.672233e+002 6.699249e+001
         vertex 5.719445e+002 6.678582e+002 6.699249e+001
      endloop
   endfacet
   facet normal 5.494540e-001 -8.355240e-001 -2.576546e-015
      outer loop
         vertex 5.710378e+002 6.672233e+002 7.334250e+001
         vertex 5.719445e+002 6.678582e+002 6.699249e+001
         vertex 5.719445e+002 6.678582e+002 7.334250e+001
      endloop
   endfacet
   facet normal 4.488580e-001 -8.936031e-001 -2.000618e-015
      outer loop
         vertex 5.719445e+002 6.678582e+002 7.334250e+001
         vertex 5.719445e+002 6.678582e+002 6.699249e+001
         vertex 5.729477e+002 6.683259e+002 6.699249e+001
      endloop
   endfacet
   facet normal 3.960194e-001 -9.182422e-001 -1.701005e-015
      outer loop
         vertex 5.719445e+002 6.678582e+002 7.334250e+001
         vertex 5.729477e+002 6.683259e+002 6.699249e+001
         vertex 5.729477e+002 6.683259e+002 7.334250e+001
      endloop
   endfacet
   facet normal 2.868663e-001 -9.579706e-001 -1.087586e-015
      outer loop
         vertex 5.729477e+002 6.683259e+002 7.334250e+001
         vertex 5.729477e+002 6.683259e+002 6.699249e+001
         vertex 5.740168e+002 6.686124e+002 6.699249e+001
      endloop
   endfacet
   facet normal 2.305519e-001 -9.730600e-001 -7.737805e-016
      outer loop
         vertex 5.729477e+002 6.683259e+002 7.334250e+001
         vertex 5.740168e+002 6.686124e+002 6.699249e+001
         vertex 5.740168e+002 6.686124e+002 7.334250e+001
      endloop
   endfacet
   facet normal 1.161583e-001 -9.932307e-001 -1.415097e-016
      outer loop
         vertex 5.740168e+002 6.686124e+002 7.334250e+001
         vertex 5.740168e+002 6.686124e+002 6.699249e+001
         vertex 5.751195e+002 6.687089e+002 6.699249e+001
      endloop
   endfacet
   facet normal 5.807914e-002 -9.983120e-001 1.769551e-016
      outer loop
         vertex 5.740168e+002 6.305124e+002 7.334250e+001
         vertex 5.751195e+002 6.306089e+002 6.699249e+001
         vertex 5.751195e+002 6.306089e+002 7.334250e+001
      endloop
   endfacet
   facet normal -5.807914e-002 -9.983120e-001 8.088668e-016
      outer loop
         vertex 5.751195e+002 6.306089e+002 7.334250e+001
         vertex 5.751195e+002 6.306089e+002 6.699249e+001
         vertex 5.762222e+002 6.305124e+002 6.699249e+001
      endloop
   endfacet
   facet normal -1.161583e-001 -9.932307e-001 1.122314e-015
      outer loop
         vertex 5.751195e+002 6.306089e+002 7.334250e+001
         vertex 5.762222e+002 6.305124e+002 6.699249e+001
         vertex 5.762222e+002 6.305124e+002 7.334250e+001
      endloop
   endfacet
   facet normal -2.305519e-001 -9.730600e-001 1.734666e-015
      outer loop
         vertex 5.762222e+002 6.305124e+002 7.334250e+001
         vertex 5.762222e+002 6.305124e+002 6.699249e+001
         vertex 5.772913e+002 6.302259e+002 6.699249e+001
      endloop
   endfacet
   facet normal -2.868663e-001 -9.579706e-001 2.033572e-015
      outer loop
         vertex 5.762222e+002 6.305124e+002 7.334250e+001
         vertex 5.772913e+002 6.302259e+002 6.699249e+001
         vertex 5.772913e+002 6.302259e+002 7.334250e+001
      endloop
   endfacet
   facet normal -3.960194e-001 -9.182422e-001 2.607759e-015
      outer loop
         vertex 5.772913e+002 6.302259e+002 7.334250e+001
         vertex 5.772913e+002 6.302259e+002 6.699249e+001
         vertex 5.782945e+002 6.297581e+002 6.699249e+001
      endloop
   endfacet
   facet normal -4.488580e-001 -8.936031e-001 2.883041e-015
      outer loop
         vertex 5.772913e+002 6.302259e+002 7.334250e+001
         vertex 5.782945e+002 6.297581e+002 6.699249e+001
         vertex 5.782945e+002 6.297581e+002 7.334250e+001
      endloop
   endfacet
   facet normal -5.494540e-001 -8.355240e-001 3.401616e-015
      outer loop
         vertex 5.782945e+002 6.297581e+002 7.334250e+001
         vertex 5.782945e+002 6.297581e+002 6.699249e+001
         vertex 5.792012e+002 6.291233e+002 6.699249e+001
      endloop
   endfacet
   facet normal -5.972114e-001 -8.020839e-001 3.644910e-015
      outer loop
         vertex 5.782945e+002 6.297581e+002 7.334250e+001
         vertex 5.792012e+002 6.291233e+002 6.699249e+001
         vertex 5.792012e+002 6.291233e+002 7.334250e+001
      endloop
   endfacet
   facet normal -6.861938e-001 -7.274188e-001 4.092117e-015
      outer loop
         vertex 5.792012e+002 6.291233e+002 7.334250e+001
         vertex 5.792012e+002 6.291233e+002 6.699249e+001
         vertex 5.799839e+002 6.283406e+002 6.699249e+001
      endloop
   endfacet
   facet normal -7.274188e-001 -6.861938e-001 4.296030e-015
      outer loop
         vertex 5.792012e+002 6.291233e+002 7.334250e+001
         vertex 5.799839e+002 6.283406e+002 6.699249e+001
         vertex 5.799839e+002 6.283406e+002 7.334250e+001
      endloop
   endfacet
   facet normal -8.020839e-001 -5.972114e-001 4.658281e-015
      outer loop
         vertex 5.799839e+002 6.283406e+002 7.334250e+001
         vertex 5.799839e+002 6.283406e+002 6.699249e+001
         vertex 5.806187e+002 6.274339e+002 6.699249e+001
      endloop
   endfacet
   facet normal -8.355240e-001 -5.494540e-001 4.816618e-015
      outer loop
         vertex 5.799839e+002 6.283406e+002 7.334250e+001
         vertex 5.806187e+002 6.274339e+002 6.699249e+001
         vertex 5.806187e+002 6.274339e+002 7.334250e+001
      endloop
   endfacet
   facet normal -8.936031e-001 -4.488580e-001 5.082905e-015
      outer loop
         vertex 5.806187e+002 6.274339e+002 7.334250e+001
         vertex 5.806187e+002 6.274339e+002 6.699249e+001
         vertex 5.810865e+002 6.264307e+002 6.699249e+001
      endloop
   endfacet
   facet normal -9.182422e-001 -3.960194e-001 5.190855e-015
      outer loop
         vertex 5.806187e+002 6.274339e+002 7.334250e+001
         vertex 5.810865e+002 6.264307e+002 6.699249e+001
         vertex 5.810865e+002 6.264307e+002 7.334250e+001
      endloop
   endfacet
   facet normal -9.579706e-001 -2.868663e-001 5.353088e-015
      outer loop
         vertex 5.810865e+002 6.264307e+002 7.334250e+001
         vertex 5.810865e+002 6.264307e+002 6.699249e+001
         vertex 5.813730e+002 6.253616e+002 6.699249e+001
      endloop
   endfacet
   facet normal -9.730600e-001 -2.305519e-001 5.407372e-015
      outer loop
         vertex 5.810865e+002 6.264307e+002 7.334250e+001
         vertex 5.813730e+002 6.253616e+002 6.699249e+001
         vertex 5.813730e+002 6.253616e+002 7.334250e+001
      endloop
   endfacet
   facet normal -9.932307e-001 -1.161583e-001 5.460620e-015
      outer loop
         vertex 5.813730e+002 6.253616e+002 7.334250e+001
         vertex 5.813730e+002 6.253616e+002 6.699249e+001
         vertex 5.814695e+002 6.242589e+002 6.699249e+001
      endloop
   endfacet
   facet normal -9.983120e-001 -5.807914e-002 5.459586e-015
      outer loop
         vertex 5.813730e+002 6.253616e+002 7.334250e+001
         vertex 5.814695e+002 6.242589e+002 6.699249e+001
         vertex 5.814695e+002 6.242589e+002 7.334250e+001
      endloop
   endfacet
   facet normal -9.983120e-001 5.807914e-002 5.402234e-015
      outer loop
         vertex 5.814695e+002 6.242589e+002 7.334250e+001
         vertex 5.814695e+002 6.242589e+002 6.699249e+001
         vertex 5.813730e+002 6.231562e+002 6.699249e+001
      endloop
   endfacet
   facet normal -9.932307e-001 1.161583e-001 5.345915e-015
      outer loop
         vertex 5.814695e+002 6.242589e+002 7.334250e+001
         vertex 5.813730e+002 6.231562e+002 6.699249e+001
         vertex 5.813730e+002 6.231562e+002 7.334250e+001
      endloop
   endfacet
   facet normal -9.730600e-001 2.305519e-001 5.179704e-015
      outer loop
         vertex 5.813730e+002 6.231562e+002 7.334250e+001
         vertex 5.813730e+002 6.231562e+002 6.699249e+001
         vertex 5.810865e+002 6.220870e+002 6.699249e+001
      endloop
   endfacet
   facet normal -9.579706e-001 2.868663e-001 5.069811e-015
      outer loop
         vertex 5.813730e+002 6.231562e+002 7.334250e+001
         vertex 5.810865e+002 6.220870e+002 6.699249e+001
         vertex 5.810865e+002 6.220870e+002 7.334250e+001
      endloop
   endfacet
   facet normal -9.182422e-001 3.960194e-001 4.799790e-015
      outer loop
         vertex 5.810865e+002 6.220870e+002 7.334250e+001
         vertex 5.810865e+002 6.220870e+002 6.699249e+001
         vertex 5.806187e+002 6.210839e+002 6.699249e+001
      endloop
   endfacet
   facet normal -8.936031e-001 4.488580e-001 4.639663e-015
      outer loop
         vertex 5.810865e+002 6.220870e+002 7.334250e+001
         vertex 5.806187e+002 6.210839e+002 6.699249e+001
         vertex 5.806187e+002 6.210839e+002 7.334250e+001
      endloop
   endfacet
   facet normal -8.355240e-001 5.494540e-001 4.274038e-015
      outer loop
         vertex 5.806187e+002 6.210839e+002 7.334250e+001
         vertex 5.806187e+002 6.210839e+002 6.699249e+001
         vertex 5.799839e+002 6.201771e+002 6.699249e+001
      endloop
   endfacet
   facet normal -8.020839e-001 5.972114e-001 4.068541e-015
      outer loop
         vertex 5.806187e+002 6.210839e+002 7.334250e+001
         vertex 5.799839e+002 6.201771e+002 6.699249e+001
         vertex 5.799839e+002 6.201771e+002 7.334250e+001
      endloop
   endfacet
   facet normal -7.274188e-001 6.861938e-001 3.618421e-015
      outer loop
         vertex 5.799839e+002 6.201771e+002 7.334250e+001
         vertex 5.799839e+002 6.201771e+002 6.699249e+001
         vertex 5.792012e+002 6.193945e+002 6.699249e+001
      endloop
   endfacet
   facet normal -6.861938e-001 7.274188e-001 3.373799e-015
      outer loop
         vertex 5.799839e+002 6.201771e+002 7.334250e+001
         vertex 5.792012e+002 6.193945e+002 6.699249e+001
         vertex 5.792012e+002 6.193945e+002 7.334250e+001
      endloop
   endfacet
   facet normal -5.972114e-001 8.020839e-001 2.852861e-015
      outer loop
         vertex 5.792012e+002 6.193945e+002 7.334250e+001
         vertex 5.792012e+002 6.193945e+002 6.699249e+001
         vertex 5.782945e+002 6.187596e+002 6.699249e+001
      endloop
   endfacet
   facet normal -5.494540e-001 8.355240e-001 2.576546e-015
      outer loop
         vertex 5.792012e+002 6.193945e+002 7.334250e+001
         vertex 5.782945e+002 6.187596e+002 6.699249e+001
         vertex 5.782945e+002 6.187596e+002 7.334250e+001
      endloop
   endfacet
   facet normal -4.488580e-001 8.936031e-001 2.000618e-015
      outer loop
         vertex 5.782945e+002 6.187596e+002 7.334250e+001
         vertex 5.782945e+002 6.187596e+002 6.699249e+001
         vertex 5.772913e+002 6.182918e+002 6.699249e+001
      endloop
   endfacet
   facet normal -3.960194e-001 9.182422e-001 1.701005e-015
      outer loop
         vertex 5.782945e+002 6.187596e+002 7.334250e+001
         vertex 5.772913e+002 6.182918e+002 6.699249e+001
         vertex 5.772913e+002 6.182918e+002 7.334250e+001
      endloop
   endfacet
   facet normal -2.868663e-001 9.579706e-001 1.087586e-015
      outer loop
         vertex 5.772913e+002 6.182918e+002 7.334250e+001
         vertex 5.772913e+002 6.182918e+002 6.699249e+001
         vertex 5.762222e+002 6.180053e+002 6.699249e+001
      endloop
   endfacet
   facet normal -2.305519e-001 9.730600e-001 7.737805e-016
      outer loop
         vertex 5.772913e+002 6.182918e+002 7.334250e+001
         vertex 5.762222e+002 6.180053e+002 6.699249e+001
         vertex 5.762222e+002 6.180053e+002 7.334250e+001
      endloop
   endfacet
   facet normal -1.161583e-001 9.932307e-001 1.415097e-016
      outer loop
         vertex 5.762222e+002 6.180053e+002 7.334250e+001
         vertex 5.762222e+002 6.180053e+002 6.699249e+001
         vertex 5.751195e+002 6.179089e+002 6.699249e+001
      endloop
   endfacet
   facet normal -5.807914e-002 9.983120e-001 -1.769551e-016
      outer loop
         vertex 5.762222e+002 6.180053e+002 7.334250e+001
         vertex 5.751195e+002 6.179089e+002 6.699249e+001
         vertex 5.751195e+002 6.179089e+002 7.334250e+001
      endloop
   endfacet
   facet normal 5.807914e-002 9.983120e-001 -8.088668e-016
      outer loop
         vertex 5.751195e+002 6.179089e+002 7.334250e+001
         vertex 5.751195e+002 6.179089e+002 6.699249e+001
         vertex 5.740168e+002 6.180053e+002 6.699249e+001
      endloop
   endfacet
   facet normal 1.161583e-001 9.932307e-001 -1.122314e-015
      outer loop
         vertex 5.751195e+002 6.179089e+002 7.334250e+001
         vertex 5.740168e+002 6.180053e+002 6.699249e+001
         vertex 5.740168e+002 6.180053e+002 7.334250e+001
      endloop
   endfacet
   facet normal 2.305519e-001 9.730600e-001 -1.734666e-015
      outer loop
         vertex 5.740168e+002 6.180053e+002 7.334250e+001
         vertex 5.740168e+002 6.180053e+002 6.699249e+001
         vertex 5.729477e+002 6.182918e+002 6.699249e+001
      endloop
   endfacet
   facet normal 2.868663e-001 9.579706e-001 -2.033572e-015
      outer loop
         vertex 5.740168e+002 6.180053e+002 7.334250e+001
         vertex 5.729477e+002 6.182918e+002 6.699249e+001
         vertex 5.729477e+002 6.182918e+002 7.334250e+001
      endloop
   endfacet
   facet normal 3.960194e-001 9.182422e-001 -2.607759e-015
      outer loop
         vertex 5.729477e+002 6.182918e+002 7.334250e+001
         vertex 5.729477e+002 6.182918e+002 6.699249e+001
         vertex 5.719445e+002 6.187596e+002 6.699249e+001
      endloop
   endfacet
   facet normal 4.488580e-001 8.936031e-001 -2.883041e-015
      outer loop
         vertex 5.729477e+002 6.182918e+002 7.334250e+001
         vertex 5.719445e+002 6.187596e+002 6.699249e+001
         vertex 5.719445e+002 6.187596e+002 7.334250e+001
      endloop
   endfacet
   facet normal 5.494540e-001 8.355240e-001 -3.401616e-015
      outer loop
         vertex 5.719445e+002 6.187596e+002 7.334250e+001
         vertex 5.719445e+002 6.187596e+002 6.699249e+001
         vertex 5.710378e+002 6.193945e+002 6.699249e+001
      endloop
   endfacet
   facet normal 5.972114e-001 8.020839e-001 -3.644910e-015
      outer loop
         vertex 5.719445e+002 6.187596e+002 7.334250e+001
         vertex 5.710378e+002 6.193945e+002 6.699249e+001
         vertex 5.710378e+002 6.193945e+002 7.334250e+001
      endloop
   endfacet
   facet normal 6.861938e-001 7.274188e-001 -4.092117e-015
      outer loop
         vertex 5.710378e+002 6.193945e+002 7.334250e+001
         vertex 5.710378e+002 6.193945e+002 6.699249e+001
         vertex 5.702551e+002 6.201771e+002 6.699249e+001
      endloop
   endfacet
   facet normal 7.274188e-001 6.861938e-001 -4.296030e-015
      outer loop
         vertex 5.710378e+002 6.193945e+002 7.334250e+001
         vertex 5.702551e+002 6.201771e+002 6.699249e+001
         vertex 5.702551e+002 6.201771e+002 7.334250e+001
      endloop
   endfacet
   facet normal 8.020839e-001 5.972114e-001 -4.658281e-015
      outer loop
         vertex 5.702551e+002 6.201771e+002 7.334250e+001
         vertex 5.702551e+002 6.201771e+002 6.699249e+001
         vertex 5.696202e+002 6.210839e+002 6.699249e+001
      endloop
   endfacet
   facet normal 8.355240e-001 5.494540e-001 -4.816618e-015
      outer loop
         vertex 5.702551e+002 6.201771e+002 7.334250e+001
         vertex 5.696202e+002 6.210839e+002 6.699249e+001
         vertex 5.696202e+002 6.210839e+002 7.334250e+001
      endloop
   endfacet
   facet normal 8.936031e-001 4.488580e-001 -5.082905e-015
      outer loop
         vertex 5.696202e+002 6.210839e+002 7.334250e+001
         vertex 5.696202e+002 6.210839e+002 6.699249e+001
         vertex 5.691525e+002 6.220870e+002 6.699249e+001
      endloop
   endfacet
   facet normal 9.182422e-001 3.960194e-001 -5.190855e-015
      outer loop
         vertex 5.696202e+002 6.210839e+002 7.334250e+001
         vertex 5.691525e+002 6.220870e+002 6.699249e+001
         vertex 5.691525e+002 6.220870e+002 7.334250e+001
      endloop
   endfacet
   facet normal 9.579706e-001 2.868663e-001 -5.353088e-015
      outer loop
         vertex 5.691525e+002 6.220870e+002 7.334250e+001
         vertex 5.691525e+002 6.220870e+002 6.699249e+001
         vertex 5.688660e+002 6.231562e+002 6.699249e+001
      endloop
   endfacet
   facet normal 9.730600e-001 2.305519e-001 -5.407372e-015
      outer loop
         vertex 5.691525e+002 6.220870e+002 7.334250e+001
         vertex 5.688660e+002 6.231562e+002 6.699249e+001
         vertex 5.688660e+002 6.231562e+002 7.334250e+001
      endloop
   endfacet
   facet normal 9.932307e-001 1.161583e-001 -5.460620e-015
      outer loop
         vertex 5.688660e+002 6.231562e+002 7.334250e+001
         vertex 5.688660e+002 6.231562e+002 6.699249e+001
         vertex 5.687695e+002 6.242589e+002 6.699249e+001
      endloop
   endfacet
   facet normal 9.983120e-001 5.807914e-002 -5.459586e-015
      outer loop
         vertex 5.688660e+002 6.231562e+002 7.334250e+001
         vertex 5.687695e+002 6.242589e+002 6.699249e+001
         vertex 5.687695e+002 6.242589e+002 7.334250e+001
      endloop
   endfacet
   facet normal 9.983120e-001 -5.807914e-002 -5.402234e-015
      outer loop
         vertex 5.687695e+002 6.242589e+002 7.334250e+001
         vertex 5.687695e+002 6.242589e+002 6.699249e+001
         vertex 5.688660e+002 6.253616e+002 6.699249e+001
      endloop
   endfacet
   facet normal 9.932307e-001 -1.161583e-001 -5.345915e-015
      outer loop
         vertex 5.687695e+002 6.242589e+002 7.334250e+001
         vertex 5.688660e+002 6.253616e+002 6.699249e+001
         vertex 5.688660e+002 6.253616e+002 7.334250e+001
      endloop
   endfacet
   facet normal 9.730600e-001 -2.305519e-001 -5.179704e-015
      outer loop
         vertex 5.688660e+002 6.253616e+002 7.334250e+001
         vertex 5.688660e+002 6.253616e+002 6.699249e+001
         vertex 5.691525e+002 6.264307e+002 6.699249e+001
      endloop
   endfacet
   facet normal 9.579706e-001 -2.868663e-001 -5.069811e-015
      outer loop
         vertex 5.688660e+002 6.253616e+002 7.334250e+001
         vertex 5.691525e+002 6.264307e+002 6.699249e+001
         vertex 5.691525e+002 6.264307e+002 7.334250e+001
      endloop
   endfacet
   facet normal 9.182422e-001 -3.960194e-001 -4.799790e-015
      outer loop
         vertex 5.691525e+002 6.264307e+002 7.334250e+001
         vertex 5.691525e+002 6.264307e+002 6.699249e+001
         vertex 5.696202e+002 6.274339e+002 6.699249e+001
      endloop
   endfacet
   facet normal 8.936031e-001 -4.488580e-001 -4.639663e-015
      outer loop
         vertex 5.691525e+002 6.264307e+002 7.334250e+001
         vertex 5.696202e+002 6.274339e+002 6.699249e+001
         vertex 5.696202e+002 6.274339e+002 7.334250e+001
      endloop
   endfacet
   facet normal 8.355240e-001 -5.494540e-001 -4.274038e-015
      outer loop
         vertex 5.696202e+002 6.274339e+002 7.334250e+001
         vertex 5.696202e+002 6.274339e+002 6.699249e+001
         vertex 5.702551e+002 6.283406e+002 6.699249e+001
      endloop
   endfacet
   facet normal 8.020839e-001 -5.972114e-001 -4.068541e-015
      outer loop
         vertex 5.696202e+002 6.274339e+002 7.334250e+001
         vertex 5.702551e+002 6.283406e+002 6.699249e+001
         vertex 5.702551e+002 6.283406e+002 7.334250e+001
      endloop
   endfacet
   facet normal 7.274188e-001 -6.861938e-001 -3.618421e-015
      outer loop
         vertex 5.702551e+002 6.283406e+002 7.334250e+001
         vertex 5.702551e+002 6.283406e+002 6.699249e+001
         vertex 5.710378e+002 6.291233e+002 6.699249e+001
      endloop
   endfacet
   facet normal 6.861938e-001 -7.274188e-001 -3.373799e-015
      outer loop
         vertex 5.702551e+002 6.283406e+002 7.334250e+001
         vertex 5.710378e+002 6.291233e+002 6.699249e+001
         vertex 5.710378e+002 6.291233e+002 7.334250e+001
      endloop
   endfacet
   facet normal 5.972114e-001 -8.020839e-001 -2.852861e-015
      outer loop
         vertex 5.710378e+002 6.291233e+002 7.334250e+001
         vertex 5.710378e+002 6.291233e+002 6.699249e+001
         vertex 5.719445e+002 6.297581e+002 6.699249e+001
      endloop
   endfacet
   facet normal 5.494540e-001 -8.355240e-001 -2.576546e-015
      outer loop
         vertex 5.710378e+002 6.291233e+002 7.334250e+001
         vertex 5.719445e+002 6.297581e+002 6.699249e+001
         vertex 5.719445e+002 6.297581e+002 7.334250e+001
      endloop
   endfacet
   facet normal 4.488580e-001 -8.936031e-001 -2.000618e-015
      outer loop
         vertex 5.719445e+002 6.297581e+002 7.334250e+001
         vertex 5.719445e+002 6.297581e+002 6.699249e+001
         vertex 5.729477e+002 6.302259e+002 6.699249e+001
      endloop
   endfacet
   facet normal 3.960194e-001 -9.182422e-001 -1.701005e-015
      outer loop
         vertex 5.719445e+002 6.297581e+002 7.334250e+001
         vertex 5.729477e+002 6.302259e+002 6.699249e+001
         vertex 5.729477e+002 6.302259e+002 7.334250e+001
      endloop
   endfacet
   facet normal 2.868663e-001 -9.579706e-001 -1.087586e-015
      outer loop
         vertex 5.729477e+002 6.302259e+002 7.334250e+001
         vertex 5.729477e+002 6.302259e+002 6.699249e+001
         vertex 5.740168e+002 6.305124e+002 6.699249e+001
      endloop
   endfacet
   facet normal 2.305519e-001 -9.730600e-001 -7.737805e-016
      outer loop
         vertex 5.729477e+002 6.302259e+002 7.334250e+001
         vertex 5.740168e+002 6.305124e+002 6.699249e+001
         vertex 5.740168e+002 6.305124e+002 7.334250e+001
      endloop
   endfacet
   facet normal 1.161583e-001 -9.932307e-001 -1.415097e-016
      outer loop
         vertex 5.740168e+002 6.305124e+002 7.334250e+001
         vertex 5.740168e+002 6.305124e+002 6.699249e+001
         vertex 5.751195e+002 6.306089e+002 6.699249e+001
      endloop
   endfacet
endsolid