solid 000-UltraSoundMachine_Johnsonville - 700-LipTop-2 103-RodYokes-1
   facet normal 9.983120e-001 5.807914e-002 -9.444377e-016
      outer loop
         vertex 1.135197e+003 1.154127e+003 1.114425e+002
         vertex 1.135270e+003 1.153300e+003 5.940425e+002
         vertex 1.135270e+003 1.153300e+003 1.114425e+002
      endloop
   endfacet
   facet normal 9.983120e-001 -5.807914e-002 -8.464797e-016
      outer loop
         vertex 1.135270e+003 1.153300e+003 1.114425e+002
         vertex 1.135270e+003 1.153300e+003 5.940425e+002
         vertex 1.135197e+003 1.152473e+003 5.940425e+002
      endloop
   endfacet
   facet normal 9.932307e-001 -1.161583e-001 -7.929429e-016
      outer loop
         vertex 1.135270e+003 1.153300e+003 1.114425e+002
         vertex 1.135197e+003 1.152473e+003 5.940425e+002
         vertex 1.135197e+003 1.152473e+003 1.114425e+002
      endloop
   endfacet
   facet normal 9.730600e-001 -2.305519e-001 -6.783805e-016
      outer loop
         vertex 1.135197e+003 1.152473e+003 1.114425e+002
         vertex 1.135197e+003 1.152473e+003 5.940425e+002
         vertex 1.134982e+003 1.151671e+003 5.940425e+002
      endloop
   endfacet
   facet normal 9.579706e-001 -2.868663e-001 -6.173549e-016
      outer loop
         vertex 1.135197e+003 1.152473e+003 1.114425e+002
         vertex 1.134982e+003 1.151671e+003 5.940425e+002
         vertex 1.134982e+003 1.151671e+003 1.114425e+002
      endloop
   endfacet
   facet normal 9.182422e-001 -3.960194e-001 -4.896691e-016
      outer loop
         vertex 1.134982e+003 1.151671e+003 1.114425e+002
         vertex 1.134982e+003 1.151671e+003 5.940425e+002
         vertex 1.134631e+003 1.150919e+003 5.940425e+002
      endloop
   endfacet
   facet normal 8.936031e-001 -4.488580e-001 -4.230089e-016
      outer loop
         vertex 1.134982e+003 1.151671e+003 1.114425e+002
         vertex 1.134631e+003 1.150919e+003 5.940425e+002
         vertex 1.134631e+003 1.150919e+003 1.114425e+002
      endloop
   endfacet
   facet normal 8.355240e-001 -5.494540e-001 -2.860793e-016
      outer loop
         vertex 1.134631e+003 1.150919e+003 1.114425e+002
         vertex 1.134631e+003 1.150919e+003 5.940425e+002
         vertex 1.134155e+003 1.150239e+003 5.940425e+002
      endloop
   endfacet
   facet normal 8.020839e-001 -5.972114e-001 -2.158100e-016
      outer loop
         vertex 1.134631e+003 1.150919e+003 1.114425e+002
         vertex 1.134155e+003 1.150239e+003 5.940425e+002
         vertex 1.134155e+003 1.150239e+003 1.114425e+002
      endloop
   endfacet
   facet normal 7.274188e-001 -6.861938e-001 -7.379726e-017
      outer loop
         vertex 1.134155e+003 1.150239e+003 1.114425e+002
         vertex 1.134155e+003 1.150239e+003 5.940425e+002
         vertex 1.133568e+003 1.149652e+003 5.940425e+002
      endloop
   endfacet
   facet normal 6.861938e-001 -7.274188e-001 -2.053861e-018
      outer loop
         vertex 1.134155e+003 1.150239e+003 1.114425e+002
         vertex 1.133568e+003 1.149652e+003 5.940425e+002
         vertex 1.133568e+003 1.149652e+003 1.114425e+002
      endloop
   endfacet
   facet normal 5.972114e-001 -8.020839e-001 1.407271e-016
      outer loop
         vertex 1.133568e+003 1.149652e+003 1.114425e+002
         vertex 1.133568e+003 1.149652e+003 5.940425e+002
         vertex 1.132888e+003 1.149176e+003 5.940425e+002
      endloop
   endfacet
   facet normal 5.494540e-001 -8.355240e-001 2.117647e-016
      outer loop
         vertex 1.133568e+003 1.149652e+003 1.114425e+002
         vertex 1.132888e+003 1.149176e+003 5.940425e+002
         vertex 1.132888e+003 1.149176e+003 1.114425e+002
      endloop
   endfacet
   facet normal 4.488580e-001 -8.936031e-001 3.509756e-016
      outer loop
         vertex 1.132888e+003 1.149176e+003 1.114425e+002
         vertex 1.132888e+003 1.149176e+003 5.940425e+002
         vertex 1.132136e+003 1.148825e+003 5.940425e+002
      endloop
   endfacet
   facet normal 3.960194e-001 -9.182422e-001 4.191489e-016
      outer loop
         vertex 1.132888e+003 1.149176e+003 1.114425e+002
         vertex 1.132136e+003 1.148825e+003 5.940425e+002
         vertex 1.132136e+003 1.148825e+003 1.114425e+002
      endloop
   endfacet
   facet normal 2.868663e-001 -9.579706e-001 5.505599e-016
      outer loop
         vertex 1.132136e+003 1.148825e+003 1.114425e+002
         vertex 1.132136e+003 1.148825e+003 5.940425e+002
         vertex 1.131334e+003 1.148610e+003 5.940425e+002
      endloop
   endfacet
   facet normal 2.305519e-001 -9.730600e-001 6.137976e-016
      outer loop
         vertex 1.132136e+003 1.148825e+003 1.114425e+002
         vertex 1.131334e+003 1.148610e+003 5.940425e+002
         vertex 1.131334e+003 1.148610e+003 1.114425e+002
      endloop
   endfacet
   facet normal 1.161583e-001 -9.932307e-001 7.334157e-016
      outer loop
         vertex 1.131334e+003 1.148610e+003 1.114425e+002
         vertex 1.131334e+003 1.148610e+003 5.940425e+002
         vertex 1.130507e+003 1.148537e+003 5.940425e+002
      endloop
   endfacet
   facet normal 5.807914e-002 -9.983120e-001 7.897962e-016
      outer loop
         vertex 1.131334e+003 1.148610e+003 1.114425e+002
         vertex 1.130507e+003 1.148537e+003 5.940425e+002
         vertex 1.130507e+003 1.148537e+003 1.114425e+002
      endloop
   endfacet
   facet normal -5.807914e-002 -9.983120e-001 8.939871e-016
      outer loop
         vertex 1.130507e+003 1.148537e+003 1.114425e+002
         vertex 1.130507e+003 1.148537e+003 5.940425e+002
         vertex 1.129680e+003 1.148610e+003 5.940425e+002
      endloop
   endfacet
   facet normal -1.161583e-001 -9.932307e-001 9.417973e-016
      outer loop
         vertex 1.130507e+003 1.148537e+003 1.114425e+002
         vertex 1.129680e+003 1.148610e+003 5.940425e+002
         vertex 1.129680e+003 1.148610e+003 1.114425e+002
      endloop
   endfacet
   facet normal -2.305519e-001 -9.730600e-001 1.027395e-015
      outer loop
         vertex 1.129680e+003 1.148610e+003 1.114425e+002
         vertex 1.129680e+003 1.148610e+003 5.940425e+002
         vertex 1.128878e+003 1.148825e+003 5.940425e+002
      endloop
   endfacet
   facet normal -2.868663e-001 -9.579706e-001 1.065182e-015
      outer loop
         vertex 1.129680e+003 1.148610e+003 1.114425e+002
         vertex 1.128878e+003 1.148825e+003 5.940425e+002
         vertex 1.128878e+003 1.148825e+003 1.114425e+002
      endloop
   endfacet
   facet normal -3.960194e-001 -9.182422e-001 1.129586e-015
      outer loop
         vertex 1.128878e+003 1.148825e+003 1.114425e+002
         vertex 1.128878e+003 1.148825e+003 5.940425e+002
         vertex 1.128126e+003 1.149176e+003 5.940425e+002
      endloop
   endfacet
   facet normal -4.488580e-001 -8.936031e-001 1.156203e-015
      outer loop
         vertex 1.128878e+003 1.148825e+003 1.114425e+002
         vertex 1.128126e+003 1.149176e+003 5.940425e+002
         vertex 1.128126e+003 1.149176e+003 1.114425e+002
      endloop
   endfacet
   facet normal -5.494540e-001 -8.355240e-001 1.197455e-015
      outer loop
         vertex 1.128126e+003 1.149176e+003 1.114425e+002
         vertex 1.128126e+003 1.149176e+003 5.940425e+002
         vertex 1.127446e+003 1.149652e+003 5.940425e+002
      endloop
   endfacet
   facet normal -5.972114e-001 -8.020839e-001 1.212092e-015
      outer loop
         vertex 1.128126e+003 1.149176e+003 1.114425e+002
         vertex 1.127446e+003 1.149652e+003 5.940425e+002
         vertex 1.127446e+003 1.149652e+003 1.114425e+002
      endloop
   endfacet
   facet normal -6.861938e-001 -7.274188e-001 1.228940e-015
      outer loop
         vertex 1.127446e+003 1.149652e+003 1.114425e+002
         vertex 1.127446e+003 1.149652e+003 5.940425e+002
         vertex 1.126859e+003 1.150239e+003 5.940425e+002
      endloop
   endfacet
   facet normal -7.274188e-001 -6.861938e-001 1.231153e-015
      outer loop
         vertex 1.127446e+003 1.149652e+003 1.114425e+002
         vertex 1.126859e+003 1.150239e+003 5.940425e+002
         vertex 1.126859e+003 1.150239e+003 1.114425e+002
      endloop
   endfacet
   facet normal -8.020839e-001 -5.972114e-001 1.223085e-015
      outer loop
         vertex 1.126859e+003 1.150239e+003 1.114425e+002
         vertex 1.126859e+003 1.150239e+003 5.940425e+002
         vertex 1.126383e+003 1.150919e+003 5.940425e+002
      endloop
   endfacet
   facet normal -8.355240e-001 -5.494540e-001 1.212805e-015
      outer loop
         vertex 1.126859e+003 1.150239e+003 1.114425e+002
         vertex 1.126383e+003 1.150919e+003 5.940425e+002
         vertex 1.126383e+003 1.150919e+003 1.114425e+002
      endloop
   endfacet
   facet normal -8.936031e-001 -4.488580e-001 1.180066e-015
      outer loop
         vertex 1.126383e+003 1.150919e+003 1.114425e+002
         vertex 1.126383e+003 1.150919e+003 5.940425e+002
         vertex 1.126032e+003 1.151671e+003 5.940425e+002
      endloop
   endfacet
   facet normal -9.182422e-001 -3.960194e-001 1.157607e-015
      outer loop
         vertex 1.126383e+003 1.150919e+003 1.114425e+002
         vertex 1.126032e+003 1.151671e+003 5.940425e+002
         vertex 1.126032e+003 1.151671e+003 1.114425e+002
      endloop
   endfacet
   facet normal -9.579706e-001 -2.868663e-001 1.101192e-015
      outer loop
         vertex 1.126032e+003 1.151671e+003 1.114425e+002
         vertex 1.126032e+003 1.151671e+003 5.940425e+002
         vertex 1.125817e+003 1.152473e+003 5.940425e+002
      endloop
   endfacet
   facet normal -9.730600e-001 -2.305519e-001 1.067236e-015
      outer loop
         vertex 1.126032e+003 1.151671e+003 1.114425e+002
         vertex 1.125817e+003 1.152473e+003 5.940425e+002
         vertex 1.125817e+003 1.152473e+003 1.114425e+002
      endloop
   endfacet
   facet normal -9.932307e-001 -1.161583e-001 9.888590e-016
      outer loop
         vertex 1.125817e+003 1.152473e+003 1.114425e+002
         vertex 1.125817e+003 1.152473e+003 5.940425e+002
         vertex 1.125745e+003 1.153300e+003 5.940425e+002
      endloop
   endfacet
   facet normal -9.983120e-001 -5.807914e-002 9.444377e-016
      outer loop
         vertex 1.125817e+003 1.152473e+003 1.114425e+002
         vertex 1.125745e+003 1.153300e+003 5.940425e+002
         vertex 1.125745e+003 1.153300e+003 1.114425e+002
      endloop
   endfacet
   facet normal -9.983120e-001 5.807914e-002 8.464797e-016
      outer loop
         vertex 1.125745e+003 1.153300e+003 1.114425e+002
         vertex 1.125745e+003 1.153300e+003 5.940425e+002
         vertex 1.125817e+003 1.154127e+003 5.940425e+002
      endloop
   endfacet
   facet normal -9.932307e-001 1.161583e-001 7.929429e-016
      outer loop
         vertex 1.125745e+003 1.153300e+003 1.114425e+002
         vertex 1.125817e+003 1.154127e+003 5.940425e+002
         vertex 1.125817e+003 1.154127e+003 1.114425e+002
      endloop
   endfacet
   facet normal -9.730600e-001 2.305519e-001 6.783805e-016
      outer loop
         vertex 1.125817e+003 1.154127e+003 1.114425e+002
         vertex 1.125817e+003 1.154127e+003 5.940425e+002
         vertex 1.126032e+003 1.154929e+003 5.940425e+002
      endloop
   endfacet
   facet normal -9.579706e-001 2.868663e-001 6.173549e-016
      outer loop
         vertex 1.125817e+003 1.154127e+003 1.114425e+002
         vertex 1.126032e+003 1.154929e+003 5.940425e+002
         vertex 1.126032e+003 1.154929e+003 1.114425e+002
      endloop
   endfacet
   facet normal -9.182422e-001 3.960194e-001 4.896691e-016
      outer loop
         vertex 1.126032e+003 1.154929e+003 1.114425e+002
         vertex 1.126032e+003 1.154929e+003 5.940425e+002
         vertex 1.126383e+003 1.155681e+003 5.940425e+002
      endloop
   endfacet
   facet normal -8.936031e-001 4.488580e-001 4.230089e-016
      outer loop
         vertex 1.126032e+003 1.154929e+003 1.114425e+002
         vertex 1.126383e+003 1.155681e+003 5.940425e+002
         vertex 1.126383e+003 1.155681e+003 1.114425e+002
      endloop
   endfacet
   facet normal -8.355240e-001 5.494540e-001 2.860793e-016
      outer loop
         vertex 1.126383e+003 1.155681e+003 1.114425e+002
         vertex 1.126383e+003 1.155681e+003 5.940425e+002
         vertex 1.126859e+003 1.156361e+003 5.940425e+002
      endloop
   endfacet
   facet normal -8.020839e-001 5.972114e-001 2.158100e-016
      outer loop
         vertex 1.126383e+003 1.155681e+003 1.114425e+002
         vertex 1.126859e+003 1.156361e+003 5.940425e+002
         vertex 1.126859e+003 1.156361e+003 1.114425e+002
      endloop
   endfacet
   facet normal -7.274188e-001 6.861938e-001 7.379726e-017
      outer loop
         vertex 1.126859e+003 1.156361e+003 1.114425e+002
         vertex 1.126859e+003 1.156361e+003 5.940425e+002
         vertex 1.127446e+003 1.156948e+003 5.940425e+002
      endloop
   endfacet
   facet normal -6.861938e-001 7.274188e-001 2.053861e-018
      outer loop
         vertex 1.126859e+003 1.156361e+003 1.114425e+002
         vertex 1.127446e+003 1.156948e+003 5.940425e+002
         vertex 1.127446e+003 1.156948e+003 1.114425e+002
      endloop
   endfacet
   facet normal -5.972114e-001 8.020839e-001 -1.407271e-016
      outer loop
         vertex 1.127446e+003 1.156948e+003 1.114425e+002
         vertex 1.127446e+003 1.156948e+003 5.940425e+002
         vertex 1.128126e+003 1.157424e+003 5.940425e+002
      endloop
   endfacet
   facet normal -5.494540e-001 8.355240e-001 -2.117647e-016
      outer loop
         vertex 1.127446e+003 1.156948e+003 1.114425e+002
         vertex 1.128126e+003 1.157424e+003 5.940425e+002
         vertex 1.128126e+003 1.157424e+003 1.114425e+002
      endloop
   endfacet
   facet normal -4.488580e-001 8.936031e-001 -3.509756e-016
      outer loop
         vertex 1.128126e+003 1.157424e+003 1.114425e+002
         vertex 1.128126e+003 1.157424e+003 5.940425e+002
         vertex 1.128878e+003 1.157775e+003 5.940425e+002
      endloop
   endfacet
   facet normal -3.960194e-001 9.182422e-001 -4.191489e-016
      outer loop
         vertex 1.128126e+003 1.157424e+003 1.114425e+002
         vertex 1.128878e+003 1.157775e+003 5.940425e+002
         vertex 1.128878e+003 1.157775e+003 1.114425e+002
      endloop
   endfacet
   facet normal -2.868663e-001 9.579706e-001 -5.505599e-016
      outer loop
         vertex 1.128878e+003 1.157775e+003 1.114425e+002
         vertex 1.128878e+003 1.157775e+003 5.940425e+002
         vertex 1.129680e+003 1.157990e+003 5.940425e+002
      endloop
   endfacet
   facet normal -2.305519e-001 9.730600e-001 -6.137976e-016
      outer loop
         vertex 1.128878e+003 1.157775e+003 1.114425e+002
         vertex 1.129680e+003 1.157990e+003 5.940425e+002
         vertex 1.129680e+003 1.157990e+003 1.114425e+002
      endloop
   endfacet
   facet normal -1.161583e-001 9.932307e-001 -7.334157e-016
      outer loop
         vertex 1.129680e+003 1.157990e+003 1.114425e+002
         vertex 1.129680e+003 1.157990e+003 5.940425e+002
         vertex 1.130507e+003 1.158063e+003 5.940425e+002
      endloop
   endfacet
   facet normal -5.807914e-002 9.983120e-001 -7.897962e-016
      outer loop
         vertex 1.129680e+003 1.157990e+003 1.114425e+002
         vertex 1.130507e+003 1.158063e+003 5.940425e+002
         vertex 1.130507e+003 1.158063e+003 1.114425e+002
      endloop
   endfacet
   facet normal 5.807914e-002 9.983120e-001 -8.939871e-016
      outer loop
         vertex 1.130507e+003 1.158063e+003 1.114425e+002
         vertex 1.130507e+003 1.158063e+003 5.940425e+002
         vertex 1.131334e+003 1.157990e+003 5.940425e+002
      endloop
   endfacet
   facet normal 1.161583e-001 9.932307e-001 -9.417973e-016
      outer loop
         vertex 1.130507e+003 1.158063e+003 1.114425e+002
         vertex 1.131334e+003 1.157990e+003 5.940425e+002
         vertex 1.131334e+003 1.157990e+003 1.114425e+002
      endloop
   endfacet
   facet normal 2.305519e-001 9.730600e-001 -1.027395e-015
      outer loop
         vertex 1.131334e+003 1.157990e+003 1.114425e+002
         vertex 1.131334e+003 1.157990e+003 5.940425e+002
         vertex 1.132136e+003 1.157775e+003 5.940425e+002
      endloop
   endfacet
   facet normal 2.868663e-001 9.579706e-001 -1.065182e-015
      outer loop
         vertex 1.131334e+003 1.157990e+003 1.114425e+002
         vertex 1.132136e+003 1.157775e+003 5.940425e+002
         vertex 1.132136e+003 1.157775e+003 1.114425e+002
      endloop
   endfacet
   facet normal 3.960194e-001 9.182422e-001 -1.129586e-015
      outer loop
         vertex 1.132136e+003 1.157775e+003 1.114425e+002
         vertex 1.132136e+003 1.157775e+003 5.940425e+002
         vertex 1.132888e+003 1.157424e+003 5.940425e+002
      endloop
   endfacet
   facet normal 4.488580e-001 8.936031e-001 -1.156203e-015
      outer loop
         vertex 1.132136e+003 1.157775e+003 1.114425e+002
         vertex 1.132888e+003 1.157424e+003 5.940425e+002
         vertex 1.132888e+003 1.157424e+003 1.114425e+002
      endloop
   endfacet
   facet normal 5.494540e-001 8.355240e-001 -1.197455e-015
      outer loop
         vertex 1.132888e+003 1.157424e+003 1.114425e+002
         vertex 1.132888e+003 1.157424e+003 5.940425e+002
         vertex 1.133568e+003 1.156948e+003 5.940425e+002
      endloop
   endfacet
   facet normal 5.972114e-001 8.020839e-001 -1.212092e-015
      outer loop
         vertex 1.132888e+003 1.157424e+003 1.114425e+002
         vertex 1.133568e+003 1.156948e+003 5.940425e+002
         vertex 1.133568e+003 1.156948e+003 1.114425e+002
      endloop
   endfacet
   facet normal 6.861938e-001 7.274188e-001 -1.228940e-015
      outer loop
         vertex 1.133568e+003 1.156948e+003 1.114425e+002
         vertex 1.133568e+003 1.156948e+003 5.940425e+002
         vertex 1.134155e+003 1.156361e+003 5.940425e+002
      endloop
   endfacet
   facet normal 7.274188e-001 6.861938e-001 -1.231153e-015
      outer loop
         vertex 1.133568e+003 1.156948e+003 1.114425e+002
         vertex 1.134155e+003 1.156361e+003 5.940425e+002
         vertex 1.134155e+003 1.156361e+003 1.114425e+002
      endloop
   endfacet
   facet normal 8.020839e-001 5.972114e-001 -1.223085e-015
      outer loop
         vertex 1.134155e+003 1.156361e+003 1.114425e+002
         vertex 1.134155e+003 1.156361e+003 5.940425e+002
         vertex 1.134631e+003 1.155681e+003 5.940425e+002
      endloop
   endfacet
   facet normal 8.355240e-001 5.494540e-001 -1.212805e-015
      outer loop
         vertex 1.134155e+003 1.156361e+003 1.114425e+002
         vertex 1.134631e+003 1.155681e+003 5.940425e+002
         vertex 1.134631e+003 1.155681e+003 1.114425e+002
      endloop
   endfacet
   facet normal 8.936031e-001 4.488580e-001 -1.180066e-015
      outer loop
         vertex 1.134631e+003 1.155681e+003 1.114425e+002
         vertex 1.134631e+003 1.155681e+003 5.940425e+002
         vertex 1.134982e+003 1.154929e+003 5.940425e+002
      endloop
   endfacet
   facet normal 9.182422e-001 3.960194e-001 -1.157607e-015
      outer loop
         vertex 1.134631e+003 1.155681e+003 1.114425e+002
         vertex 1.134982e+003 1.154929e+003 5.940425e+002
         vertex 1.134982e+003 1.154929e+003 1.114425e+002
      endloop
   endfacet
   facet normal 9.579706e-001 2.868663e-001 -1.101192e-015
      outer loop
         vertex 1.134982e+003 1.154929e+003 1.114425e+002
         vertex 1.134982e+003 1.154929e+003 5.940425e+002
         vertex 1.135197e+003 1.154127e+003 5.940425e+002
      endloop
   endfacet
   facet normal 9.730600e-001 2.305519e-001 -1.067236e-015
      outer loop
         vertex 1.134982e+003 1.154929e+003 1.114425e+002
         vertex 1.135197e+003 1.154127e+003 5.940425e+002
         vertex 1.135197e+003 1.154127e+003 1.114425e+002
      endloop
   endfacet
   facet normal 9.932307e-001 1.161583e-001 -9.888590e-016
      outer loop
         vertex 1.135197e+003 1.154127e+003 1.114425e+002
         vertex 1.135197e+003 1.154127e+003 5.940425e+002
         vertex 1.135270e+003 1.153300e+003 5.940425e+002
      endloop
   endfacet
   facet normal -8.969728e-016 -8.433152e-016 -1.000000e+000
      outer loop
         vertex 1.134982e+003 1.151671e+003 1.114425e+002
         vertex 1.126859e+003 1.156361e+003 1.114425e+002
         vertex 1.135197e+003 1.152473e+003 1.114425e+002
      endloop
   endfacet
   facet normal -8.969728e-016 -8.433152e-016 -1.000000e+000
      outer loop
         vertex 1.135197e+003 1.152473e+003 1.114425e+002
         vertex 1.126859e+003 1.156361e+003 1.114425e+002
         vertex 1.135270e+003 1.153300e+003 1.114425e+002
      endloop
   endfacet
   facet normal -8.969728e-016 -8.433152e-016 -1.000000e+000
      outer loop
         vertex 1.126032e+003 1.154929e+003 1.114425e+002
         vertex 1.134155e+003 1.150239e+003 1.114425e+002
         vertex 1.125817e+003 1.154127e+003 1.114425e+002
      endloop
   endfacet
   facet normal -8.969728e-016 -8.433152e-016 -1.000000e+000
      outer loop
         vertex 1.125817e+003 1.154127e+003 1.114425e+002
         vertex 1.134155e+003 1.150239e+003 1.114425e+002
         vertex 1.125745e+003 1.153300e+003 1.114425e+002
      endloop
   endfacet
   facet normal -8.969728e-016 -8.433152e-016 -1.000000e+000
      outer loop
         vertex 1.134982e+003 1.151671e+003 1.114425e+002
         vertex 1.134631e+003 1.150919e+003 1.114425e+002
         vertex 1.126859e+003 1.156361e+003 1.114425e+002
      endloop
   endfacet
   facet normal -8.969728e-016 -8.433152e-016 -1.000000e+000
      outer loop
         vertex 1.126859e+003 1.156361e+003 1.114425e+002
         vertex 1.134631e+003 1.150919e+003 1.114425e+002
         vertex 1.134155e+003 1.150239e+003 1.114425e+002
      endloop
   endfacet
   facet normal -8.969728e-016 -8.433152e-016 -1.000000e+000
      outer loop
         vertex 1.126859e+003 1.156361e+003 1.114425e+002
         vertex 1.134155e+003 1.150239e+003 1.114425e+002
         vertex 1.126383e+003 1.155681e+003 1.114425e+002
      endloop
   endfacet
   facet normal -8.969728e-016 -8.433152e-016 -1.000000e+000
      outer loop
         vertex 1.126383e+003 1.155681e+003 1.114425e+002
         vertex 1.134155e+003 1.150239e+003 1.114425e+002
         vertex 1.126032e+003 1.154929e+003 1.114425e+002
      endloop
   endfacet
   facet normal -8.969728e-016 -8.433152e-016 -1.000000e+000
      outer loop
         vertex 1.134155e+003 1.150239e+003 1.114425e+002
         vertex 1.133568e+003 1.149652e+003 1.114425e+002
         vertex 1.125745e+003 1.153300e+003 1.114425e+002
      endloop
   endfacet
   facet normal -8.969728e-016 -8.433152e-016 -1.000000e+000
      outer loop
         vertex 1.125745e+003 1.153300e+003 1.114425e+002
         vertex 1.133568e+003 1.149652e+003 1.114425e+002
         vertex 1.132888e+003 1.149176e+003 1.114425e+002
      endloop
   endfacet
   facet normal -8.969728e-016 -8.433152e-016 -1.000000e+000
      outer loop
         vertex 1.125745e+003 1.153300e+003 1.114425e+002
         vertex 1.132888e+003 1.149176e+003 1.114425e+002
         vertex 1.132136e+003 1.148825e+003 1.114425e+002
      endloop
   endfacet
   facet normal -8.969728e-016 -8.433152e-016 -1.000000e+000
      outer loop
         vertex 1.126032e+003 1.151671e+003 1.114425e+002
         vertex 1.125817e+003 1.152473e+003 1.114425e+002
         vertex 1.130507e+003 1.148537e+003 1.114425e+002
      endloop
   endfacet
   facet normal -8.969728e-016 -8.433152e-016 -1.000000e+000
      outer loop
         vertex 1.130507e+003 1.148537e+003 1.114425e+002
         vertex 1.125817e+003 1.152473e+003 1.114425e+002
         vertex 1.125745e+003 1.153300e+003 1.114425e+002
      endloop
   endfacet
   facet normal -8.969728e-016 -8.433152e-016 -1.000000e+000
      outer loop
         vertex 1.130507e+003 1.148537e+003 1.114425e+002
         vertex 1.125745e+003 1.153300e+003 1.114425e+002
         vertex 1.131334e+003 1.148610e+003 1.114425e+002
      endloop
   endfacet
   facet normal -8.969728e-016 -8.433152e-016 -1.000000e+000
      outer loop
         vertex 1.131334e+003 1.148610e+003 1.114425e+002
         vertex 1.125745e+003 1.153300e+003 1.114425e+002
         vertex 1.132136e+003 1.148825e+003 1.114425e+002
      endloop
   endfacet
   facet normal -8.969728e-016 -8.433152e-016 -1.000000e+000
      outer loop
         vertex 1.126859e+003 1.156361e+003 1.114425e+002
         vertex 1.127446e+003 1.156948e+003 1.114425e+002
         vertex 1.135270e+003 1.153300e+003 1.114425e+002
      endloop
   endfacet
   facet normal -8.969728e-016 -8.433152e-016 -1.000000e+000
      outer loop
         vertex 1.135270e+003 1.153300e+003 1.114425e+002
         vertex 1.127446e+003 1.156948e+003 1.114425e+002
         vertex 1.128126e+003 1.157424e+003 1.114425e+002
      endloop
   endfacet
   facet normal -8.969728e-016 -8.433152e-016 -1.000000e+000
      outer loop
         vertex 1.135270e+003 1.153300e+003 1.114425e+002
         vertex 1.128126e+003 1.157424e+003 1.114425e+002
         vertex 1.128878e+003 1.157775e+003 1.114425e+002
      endloop
   endfacet
   facet normal -8.969728e-016 -8.433152e-016 -1.000000e+000
      outer loop
         vertex 1.129680e+003 1.148610e+003 1.114425e+002
         vertex 1.128878e+003 1.148825e+003 1.114425e+002
         vertex 1.130507e+003 1.148537e+003 1.114425e+002
      endloop
   endfacet
   facet normal -8.969728e-016 -8.433152e-016 -1.000000e+000
      outer loop
         vertex 1.130507e+003 1.148537e+003 1.114425e+002
         vertex 1.128878e+003 1.148825e+003 1.114425e+002
         vertex 1.128126e+003 1.149176e+003 1.114425e+002
      endloop
   endfacet
   facet normal -8.969728e-016 -8.433152e-016 -1.000000e+000
      outer loop
         vertex 1.130507e+003 1.148537e+003 1.114425e+002
         vertex 1.128126e+003 1.149176e+003 1.114425e+002
         vertex 1.127446e+003 1.149652e+003 1.114425e+002
      endloop
   endfacet
   facet normal -8.969728e-016 -8.433152e-016 -1.000000e+000
      outer loop
         vertex 1.127446e+003 1.149652e+003 1.114425e+002
         vertex 1.126859e+003 1.150239e+003 1.114425e+002
         vertex 1.130507e+003 1.148537e+003 1.114425e+002
      endloop
   endfacet
   facet normal -8.969728e-016 -8.433152e-016 -1.000000e+000
      outer loop
         vertex 1.130507e+003 1.148537e+003 1.114425e+002
         vertex 1.126859e+003 1.150239e+003 1.114425e+002
         vertex 1.126383e+003 1.150919e+003 1.114425e+002
      endloop
   endfacet
   facet normal -8.969728e-016 -8.433152e-016 -1.000000e+000
      outer loop
         vertex 1.130507e+003 1.148537e+003 1.114425e+002
         vertex 1.126383e+003 1.150919e+003 1.114425e+002
         vertex 1.126032e+003 1.151671e+003 1.114425e+002
      endloop
   endfacet
   facet normal -8.969728e-016 -8.433152e-016 -1.000000e+000
      outer loop
         vertex 1.134982e+003 1.154929e+003 1.114425e+002
         vertex 1.135197e+003 1.154127e+003 1.114425e+002
         vertex 1.130507e+003 1.158063e+003 1.114425e+002
      endloop
   endfacet
   facet normal -8.969728e-016 -8.433152e-016 -1.000000e+000
      outer loop
         vertex 1.130507e+003 1.158063e+003 1.114425e+002
         vertex 1.135197e+003 1.154127e+003 1.114425e+002
         vertex 1.135270e+003 1.153300e+003 1.114425e+002
      endloop
   endfacet
   facet normal -8.969728e-016 -8.433152e-016 -1.000000e+000
      outer loop
         vertex 1.130507e+003 1.158063e+003 1.114425e+002
         vertex 1.135270e+003 1.153300e+003 1.114425e+002
         vertex 1.129680e+003 1.157990e+003 1.114425e+002
      endloop
   endfacet
   facet normal -8.969728e-016 -8.433152e-016 -1.000000e+000
      outer loop
         vertex 1.129680e+003 1.157990e+003 1.114425e+002
         vertex 1.135270e+003 1.153300e+003 1.114425e+002
         vertex 1.128878e+003 1.157775e+003 1.114425e+002
      endloop
   endfacet
   facet normal -8.969728e-016 -8.433152e-016 -1.000000e+000
      outer loop
         vertex 1.131334e+003 1.157990e+003 1.114425e+002
         vertex 1.132136e+003 1.157775e+003 1.114425e+002
         vertex 1.130507e+003 1.158063e+003 1.114425e+002
      endloop
   endfacet
   facet normal -8.969728e-016 -8.433152e-016 -1.000000e+000
      outer loop
         vertex 1.130507e+003 1.158063e+003 1.114425e+002
         vertex 1.132136e+003 1.157775e+003 1.114425e+002
         vertex 1.132888e+003 1.157424e+003 1.114425e+002
      endloop
   endfacet
   facet normal -8.969728e-016 -8.433152e-016 -1.000000e+000
      outer loop
         vertex 1.130507e+003 1.158063e+003 1.114425e+002
         vertex 1.132888e+003 1.157424e+003 1.114425e+002
         vertex 1.133568e+003 1.156948e+003 1.114425e+002
      endloop
   endfacet
   facet normal -8.969728e-016 -8.433152e-016 -1.000000e+000
      outer loop
         vertex 1.133568e+003 1.156948e+003 1.114425e+002
         vertex 1.134155e+003 1.156361e+003 1.114425e+002
         vertex 1.130507e+003 1.158063e+003 1.114425e+002
      endloop
   endfacet
   facet normal -8.969728e-016 -8.433152e-016 -1.000000e+000
      outer loop
         vertex 1.130507e+003 1.158063e+003 1.114425e+002
         vertex 1.134155e+003 1.156361e+003 1.114425e+002
         vertex 1.134631e+003 1.155681e+003 1.114425e+002
      endloop
   endfacet
   facet normal -8.969728e-016 -8.433152e-016 -1.000000e+000
      outer loop
         vertex 1.130507e+003 1.158063e+003 1.114425e+002
         vertex 1.134631e+003 1.155681e+003 1.114425e+002
         vertex 1.134982e+003 1.154929e+003 1.114425e+002
      endloop
   endfacet
   facet normal 8.969728e-016 8.433152e-016 1.000000e+000
      outer loop
         vertex 1.134631e+003 1.150919e+003 5.940425e+002
         vertex 1.126859e+003 1.156361e+003 5.940425e+002
         vertex 1.134155e+003 1.150239e+003 5.940425e+002
      endloop
   endfacet
   facet normal 8.969728e-016 8.433152e-016 1.000000e+000
      outer loop
         vertex 1.134155e+003 1.150239e+003 5.940425e+002
         vertex 1.126859e+003 1.156361e+003 5.940425e+002
         vertex 1.126383e+003 1.155681e+003 5.940425e+002
      endloop
   endfacet
   facet normal 8.969728e-016 8.433152e-016 1.000000e+000
      outer loop
         vertex 1.134155e+003 1.150239e+003 5.940425e+002
         vertex 1.126383e+003 1.155681e+003 5.940425e+002
         vertex 1.126032e+003 1.154929e+003 5.940425e+002
      endloop
   endfacet
   facet normal 8.969728e-016 8.433152e-016 1.000000e+000
      outer loop
         vertex 1.125817e+003 1.152473e+003 5.940425e+002
         vertex 1.126032e+003 1.151671e+003 5.940425e+002
         vertex 1.130507e+003 1.148537e+003 5.940425e+002
      endloop
   endfacet
   facet normal 8.969728e-016 8.433152e-016 1.000000e+000
      outer loop
         vertex 1.132136e+003 1.148825e+003 5.940425e+002
         vertex 1.132888e+003 1.149176e+003 5.940425e+002
         vertex 1.125745e+003 1.153300e+003 5.940425e+002
      endloop
   endfacet
   facet normal 8.969728e-016 8.433152e-016 1.000000e+000
      outer loop
         vertex 1.134631e+003 1.150919e+003 5.940425e+002
         vertex 1.134982e+003 1.151671e+003 5.940425e+002
         vertex 1.126859e+003 1.156361e+003 5.940425e+002
      endloop
   endfacet
   facet normal 8.969728e-016 8.433152e-016 1.000000e+000
      outer loop
         vertex 1.126859e+003 1.156361e+003 5.940425e+002
         vertex 1.134982e+003 1.151671e+003 5.940425e+002
         vertex 1.135197e+003 1.152473e+003 5.940425e+002
      endloop
   endfacet
   facet normal 8.969728e-016 8.433152e-016 1.000000e+000
      outer loop
         vertex 1.126859e+003 1.156361e+003 5.940425e+002
         vertex 1.135197e+003 1.152473e+003 5.940425e+002
         vertex 1.135270e+003 1.153300e+003 5.940425e+002
      endloop
   endfacet
   facet normal 8.969728e-016 8.433152e-016 1.000000e+000
      outer loop
         vertex 1.126032e+003 1.154929e+003 5.940425e+002
         vertex 1.125817e+003 1.154127e+003 5.940425e+002
         vertex 1.134155e+003 1.150239e+003 5.940425e+002
      endloop
   endfacet
   facet normal 8.969728e-016 8.433152e-016 1.000000e+000
      outer loop
         vertex 1.134155e+003 1.150239e+003 5.940425e+002
         vertex 1.125817e+003 1.154127e+003 5.940425e+002
         vertex 1.125745e+003 1.153300e+003 5.940425e+002
      endloop
   endfacet
   facet normal 8.969728e-016 8.433152e-016 1.000000e+000
      outer loop
         vertex 1.134155e+003 1.150239e+003 5.940425e+002
         vertex 1.125745e+003 1.153300e+003 5.940425e+002
         vertex 1.133568e+003 1.149652e+003 5.940425e+002
      endloop
   endfacet
   facet normal 8.969728e-016 8.433152e-016 1.000000e+000
      outer loop
         vertex 1.133568e+003 1.149652e+003 5.940425e+002
         vertex 1.125745e+003 1.153300e+003 5.940425e+002
         vertex 1.132888e+003 1.149176e+003 5.940425e+002
      endloop
   endfacet
   facet normal 8.969728e-016 8.433152e-016 1.000000e+000
      outer loop
         vertex 1.135197e+003 1.154127e+003 5.940425e+002
         vertex 1.134982e+003 1.154929e+003 5.940425e+002
         vertex 1.130507e+003 1.158063e+003 5.940425e+002
      endloop
   endfacet
   facet normal 8.969728e-016 8.433152e-016 1.000000e+000
      outer loop
         vertex 1.125817e+003 1.152473e+003 5.940425e+002
         vertex 1.130507e+003 1.148537e+003 5.940425e+002
         vertex 1.125745e+003 1.153300e+003 5.940425e+002
      endloop
   endfacet
   facet normal 8.969728e-016 8.433152e-016 1.000000e+000
      outer loop
         vertex 1.125745e+003 1.153300e+003 5.940425e+002
         vertex 1.130507e+003 1.148537e+003 5.940425e+002
         vertex 1.131334e+003 1.148610e+003 5.940425e+002
      endloop
   endfacet
   facet normal 8.969728e-016 8.433152e-016 1.000000e+000
      outer loop
         vertex 1.125745e+003 1.153300e+003 5.940425e+002
         vertex 1.131334e+003 1.148610e+003 5.940425e+002
         vertex 1.132136e+003 1.148825e+003 5.940425e+002
      endloop
   endfacet
   facet normal 8.969728e-016 8.433152e-016 1.000000e+000
      outer loop
         vertex 1.128878e+003 1.157775e+003 5.940425e+002
         vertex 1.128126e+003 1.157424e+003 5.940425e+002
         vertex 1.135270e+003 1.153300e+003 5.940425e+002
      endloop
   endfacet
   facet normal 8.969728e-016 8.433152e-016 1.000000e+000
      outer loop
         vertex 1.135270e+003 1.153300e+003 5.940425e+002
         vertex 1.128126e+003 1.157424e+003 5.940425e+002
         vertex 1.127446e+003 1.156948e+003 5.940425e+002
      endloop
   endfacet
   facet normal 8.969728e-016 8.433152e-016 1.000000e+000
      outer loop
         vertex 1.135270e+003 1.153300e+003 5.940425e+002
         vertex 1.127446e+003 1.156948e+003 5.940425e+002
         vertex 1.126859e+003 1.156361e+003 5.940425e+002
      endloop
   endfacet
   facet normal 8.969728e-016 8.433152e-016 1.000000e+000
      outer loop
         vertex 1.126032e+003 1.151671e+003 5.940425e+002
         vertex 1.126383e+003 1.150919e+003 5.940425e+002
         vertex 1.130507e+003 1.148537e+003 5.940425e+002
      endloop
   endfacet
   facet normal 8.969728e-016 8.433152e-016 1.000000e+000
      outer loop
         vertex 1.130507e+003 1.148537e+003 5.940425e+002
         vertex 1.126383e+003 1.150919e+003 5.940425e+002
         vertex 1.126859e+003 1.150239e+003 5.940425e+002
      endloop
   endfacet
   facet normal 8.969728e-016 8.433152e-016 1.000000e+000
      outer loop
         vertex 1.130507e+003 1.148537e+003 5.940425e+002
         vertex 1.126859e+003 1.150239e+003 5.940425e+002
         vertex 1.127446e+003 1.149652e+003 5.940425e+002
      endloop
   endfacet
   facet normal 8.969728e-016 8.433152e-016 1.000000e+000
      outer loop
         vertex 1.127446e+003 1.149652e+003 5.940425e+002
         vertex 1.128126e+003 1.149176e+003 5.940425e+002
         vertex 1.130507e+003 1.148537e+003 5.940425e+002
      endloop
   endfacet
   facet normal 8.969728e-016 8.433152e-016 1.000000e+000
      outer loop
         vertex 1.130507e+003 1.148537e+003 5.940425e+002
         vertex 1.128126e+003 1.149176e+003 5.940425e+002
         vertex 1.128878e+003 1.148825e+003 5.940425e+002
      endloop
   endfacet
   facet normal 8.969728e-016 8.433152e-016 1.000000e+000
      outer loop
         vertex 1.130507e+003 1.148537e+003 5.940425e+002
         vertex 1.128878e+003 1.148825e+003 5.940425e+002
         vertex 1.129680e+003 1.148610e+003 5.940425e+002
      endloop
   endfacet
   facet normal 8.969728e-016 8.433152e-016 1.000000e+000
      outer loop
         vertex 1.134982e+003 1.154929e+003 5.940425e+002
         vertex 1.134631e+003 1.155681e+003 5.940425e+002
         vertex 1.130507e+003 1.158063e+003 5.940425e+002
      endloop
   endfacet
   facet normal 8.969728e-016 8.433152e-016 1.000000e+000
      outer loop
         vertex 1.130507e+003 1.158063e+003 5.940425e+002
         vertex 1.134631e+003 1.155681e+003 5.940425e+002
         vertex 1.134155e+003 1.156361e+003 5.940425e+002
      endloop
   endfacet
   facet normal 8.969728e-016 8.433152e-016 1.000000e+000
      outer loop
         vertex 1.130507e+003 1.158063e+003 5.940425e+002
         vertex 1.134155e+003 1.156361e+003 5.940425e+002
         vertex 1.133568e+003 1.156948e+003 5.940425e+002
      endloop
   endfacet
   facet normal 8.969728e-016 8.433152e-016 1.000000e+000
      outer loop
         vertex 1.133568e+003 1.156948e+003 5.940425e+002
         vertex 1.132888e+003 1.157424e+003 5.940425e+002
         vertex 1.130507e+003 1.158063e+003 5.940425e+002
      endloop
   endfacet
   facet normal 8.969728e-016 8.433152e-016 1.000000e+000
      outer loop
         vertex 1.130507e+003 1.158063e+003 5.940425e+002
         vertex 1.132888e+003 1.157424e+003 5.940425e+002
         vertex 1.132136e+003 1.157775e+003 5.940425e+002
      endloop
   endfacet
   facet normal 8.969728e-016 8.433152e-016 1.000000e+000
      outer loop
         vertex 1.130507e+003 1.158063e+003 5.940425e+002
         vertex 1.132136e+003 1.157775e+003 5.940425e+002
         vertex 1.131334e+003 1.157990e+003 5.940425e+002
      endloop
   endfacet
   facet normal 8.969728e-016 8.433152e-016 1.000000e+000
      outer loop
         vertex 1.135197e+003 1.154127e+003 5.940425e+002
         vertex 1.130507e+003 1.158063e+003 5.940425e+002
         vertex 1.135270e+003 1.153300e+003 5.940425e+002
      endloop
   endfacet
   facet normal 8.969728e-016 8.433152e-016 1.000000e+000
      outer loop
         vertex 1.135270e+003 1.153300e+003 5.940425e+002
         vertex 1.130507e+003 1.158063e+003 5.940425e+002
         vertex 1.129680e+003 1.157990e+003 5.940425e+002
      endloop
   endfacet
   facet normal 8.969728e-016 8.433152e-016 1.000000e+000
      outer loop
         vertex 1.135270e+003 1.153300e+003 5.940425e+002
         vertex 1.129680e+003 1.157990e+003 5.940425e+002
         vertex 1.128878e+003 1.157775e+003 5.940425e+002
      endloop
   endfacet
endsolid