solid FPM - 700-LipTop-2 704-PlateBottom-1
   facet normal -1.000000e+000 1.411317e-031 1.064326e-015
      outer loop
         vertex 1.104419e+003 1.169900e+003 5.185925e+002
         vertex 1.104419e+003 1.169900e+003 1.868925e+002
         vertex 1.104419e+003 1.168400e+003 5.185925e+002
      endloop
   endfacet
   facet normal -1.000000e+000 1.411317e-031 1.064326e-015
      outer loop
         vertex 1.104419e+003 1.168400e+003 5.185925e+002
         vertex 1.104419e+003 1.169900e+003 1.868925e+002
         vertex 1.104419e+003 1.168400e+003 1.868925e+002
      endloop
   endfacet
   facet normal 8.969728e-016 8.433152e-016 1.000000e+000
      outer loop
         vertex 1.230670e+003 1.169900e+003 5.185925e+002
         vertex 1.104419e+003 1.169900e+003 5.185925e+002
         vertex 1.230670e+003 1.168400e+003 5.185925e+002
      endloop
   endfacet
   facet normal 8.969728e-016 8.433152e-016 1.000000e+000
      outer loop
         vertex 1.230670e+003 1.168400e+003 5.185925e+002
         vertex 1.104419e+003 1.169900e+003 5.185925e+002
         vertex 1.104419e+003 1.168400e+003 5.185925e+002
      endloop
   endfacet
   facet normal 1.000000e+000 0.000000e+000 -8.969728e-016
      outer loop
         vertex 1.230670e+003 1.169900e+003 1.868925e+002
         vertex 1.230670e+003 1.169900e+003 5.185925e+002
         vertex 1.230670e+003 1.168400e+003 1.868925e+002
      endloop
   endfacet
   facet normal 1.000000e+000 0.000000e+000 -8.969728e-016
      outer loop
         vertex 1.230670e+003 1.168400e+003 1.868925e+002
         vertex 1.230670e+003 1.169900e+003 5.185925e+002
         vertex 1.230670e+003 1.168400e+003 5.185925e+002
      endloop
   endfacet
   facet normal -8.969728e-016 -8.433152e-016 -1.000000e+000
      outer loop
         vertex 1.104419e+003 1.169900e+003 1.868925e+002
         vertex 1.230670e+003 1.169900e+003 1.868925e+002
         vertex 1.104419e+003 1.168400e+003 1.868925e+002
      endloop
   endfacet
   facet normal -8.969728e-016 -8.433152e-016 -1.000000e+000
      outer loop
         vertex 1.104419e+003 1.168400e+003 1.868925e+002
         vertex 1.230670e+003 1.169900e+003 1.868925e+002
         vertex 1.230670e+003 1.168400e+003 1.868925e+002
      endloop
   endfacet
   facet normal -1.891077e-031 1.000000e+000 -8.433152e-016
      outer loop
         vertex 1.230670e+003 1.169900e+003 5.185925e+002
         vertex 1.230670e+003 1.169900e+003 1.868925e+002
         vertex 1.104419e+003 1.169900e+003 5.185925e+002
      endloop
   endfacet
   facet normal -1.891077e-031 1.000000e+000 -8.433152e-016
      outer loop
         vertex 1.104419e+003 1.169900e+003 5.185925e+002
         vertex 1.230670e+003 1.169900e+003 1.868925e+002
         vertex 1.104419e+003 1.169900e+003 1.868925e+002
      endloop
   endfacet
   facet normal 1.891077e-031 -1.000000e+000 8.433152e-016
      outer loop
         vertex 1.230670e+003 1.168400e+003 1.868925e+002
         vertex 1.230670e+003 1.168400e+003 5.185925e+002
         vertex 1.104419e+003 1.168400e+003 1.868925e+002
      endloop
   endfacet
   facet normal 1.891077e-031 -1.000000e+000 8.433152e-016
      outer loop
         vertex 1.104419e+003 1.168400e+003 1.868925e+002
         vertex 1.230670e+003 1.168400e+003 5.185925e+002
         vertex 1.104419e+003 1.168400e+003 5.185925e+002
      endloop
   endfacet
endsolid