solid FPM - 600-LipLower-1 605-PlateCurveCover-1
   facet normal 0.000000e+000 1.000000e+000 -0.000000e+000
      outer loop
         vertex 2.680695e+002 7.892800e+002 1.876425e+002
         vertex 1.918695e+002 7.892800e+002 1.876425e+002
         vertex 2.680695e+002 7.892800e+002 5.178425e+002
      endloop
   endfacet
   facet normal 0.000000e+000 1.000000e+000 -0.000000e+000
      outer loop
         vertex 2.680695e+002 7.892800e+002 5.178425e+002
         vertex 1.918695e+002 7.892800e+002 1.876425e+002
         vertex 1.918695e+002 7.892800e+002 5.178425e+002
      endloop
   endfacet
   facet normal 1.000000e+000 0.000000e+000 1.681137e-016
      outer loop
         vertex 2.680695e+002 7.877800e+002 1.876425e+002
         vertex 2.680695e+002 7.892800e+002 1.876425e+002
         vertex 2.680695e+002 7.877800e+002 5.178425e+002
      endloop
   endfacet
   facet normal 1.000000e+000 0.000000e+000 1.681137e-016
      outer loop
         vertex 2.680695e+002 7.877800e+002 5.178425e+002
         vertex 2.680695e+002 7.892800e+002 1.876425e+002
         vertex 2.680695e+002 7.892800e+002 5.178425e+002
      endloop
   endfacet
   facet normal 0.000000e+000 -1.000000e+000 0.000000e+000
      outer loop
         vertex 1.918695e+002 7.877800e+002 1.876425e+002
         vertex 2.680695e+002 7.877800e+002 1.876425e+002
         vertex 1.918695e+002 7.877800e+002 5.178425e+002
      endloop
   endfacet
   facet normal 0.000000e+000 -1.000000e+000 0.000000e+000
      outer loop
         vertex 1.918695e+002 7.877800e+002 5.178425e+002
         vertex 2.680695e+002 7.877800e+002 1.876425e+002
         vertex 2.680695e+002 7.877800e+002 5.178425e+002
      endloop
   endfacet
   facet normal -5.807914e-002 -9.983120e-001 -9.763900e-018
      outer loop
         vertex 1.918695e+002 7.877800e+002 1.876425e+002
         vertex 1.918695e+002 7.877800e+002 5.178425e+002
         vertex 1.873286e+002 7.881772e+002 5.178425e+002
      endloop
   endfacet
   facet normal -1.161583e-001 -9.932307e-001 -1.952780e-017
      outer loop
         vertex 1.918695e+002 7.877800e+002 1.876425e+002
         vertex 1.873286e+002 7.881772e+002 5.178425e+002
         vertex 1.873286e+002 7.881772e+002 1.876425e+002
      endloop
   endfacet
   facet normal -2.305519e-001 -9.730600e-001 -3.875893e-017
      outer loop
         vertex 1.873286e+002 7.881772e+002 1.876425e+002
         vertex 1.873286e+002 7.881772e+002 5.178425e+002
         vertex 1.829257e+002 7.893571e+002 5.178425e+002
      endloop
   endfacet
   facet normal -2.868663e-001 -9.579706e-001 -4.822616e-017
      outer loop
         vertex 1.873286e+002 7.881772e+002 1.876425e+002
         vertex 1.829257e+002 7.893571e+002 5.178425e+002
         vertex 1.829257e+002 7.893571e+002 1.876425e+002
      endloop
   endfacet
   facet normal -3.960194e-001 -9.182422e-001 -6.657629e-017
      outer loop
         vertex 1.829257e+002 7.893571e+002 1.876425e+002
         vertex 1.829257e+002 7.893571e+002 5.178425e+002
         vertex 1.787945e+002 7.912834e+002 5.178425e+002
      endloop
   endfacet
   facet normal -4.488580e-001 -8.936031e-001 -7.545919e-017
      outer loop
         vertex 1.829257e+002 7.893571e+002 1.876425e+002
         vertex 1.787945e+002 7.912834e+002 5.178425e+002
         vertex 1.787945e+002 7.912834e+002 1.876425e+002
      endloop
   endfacet
   facet normal -5.494540e-001 -8.355240e-001 -9.237076e-017
      outer loop
         vertex 1.787945e+002 7.912834e+002 1.876425e+002
         vertex 1.787945e+002 7.912834e+002 5.178425e+002
         vertex 1.750606e+002 7.938979e+002 5.178425e+002
      endloop
   endfacet
   facet normal -5.972114e-001 -8.020839e-001 -1.003994e-016
      outer loop
         vertex 1.787945e+002 7.912834e+002 1.876425e+002
         vertex 1.750606e+002 7.938979e+002 5.178425e+002
         vertex 1.750606e+002 7.938979e+002 1.876425e+002
      endloop
   endfacet
   facet normal -6.861938e-001 -7.274188e-001 -1.153586e-016
      outer loop
         vertex 1.750606e+002 7.938979e+002 1.876425e+002
         vertex 1.750606e+002 7.938979e+002 5.178425e+002
         vertex 1.718374e+002 7.971211e+002 5.178425e+002
      endloop
   endfacet
   facet normal -7.274188e-001 -6.861938e-001 -1.222891e-016
      outer loop
         vertex 1.750606e+002 7.938979e+002 1.876425e+002
         vertex 1.718374e+002 7.971211e+002 5.178425e+002
         vertex 1.718374e+002 7.971211e+002 1.876425e+002
      endloop
   endfacet
   facet normal -8.020839e-001 -5.972114e-001 -1.348413e-016
      outer loop
         vertex 1.718374e+002 7.971211e+002 1.876425e+002
         vertex 1.718374e+002 7.971211e+002 5.178425e+002
         vertex 1.692229e+002 8.008550e+002 5.178425e+002
      endloop
   endfacet
   facet normal -8.355240e-001 -5.494540e-001 -1.404630e-016
      outer loop
         vertex 1.718374e+002 7.971211e+002 1.876425e+002
         vertex 1.692229e+002 8.008550e+002 5.178425e+002
         vertex 1.692229e+002 8.008550e+002 1.876425e+002
      endloop
   endfacet
   facet normal -8.936031e-001 -4.488580e-001 -1.502269e-016
      outer loop
         vertex 1.692229e+002 8.008550e+002 1.876425e+002
         vertex 1.692229e+002 8.008550e+002 5.178425e+002
         vertex 1.672965e+002 8.049862e+002 5.178425e+002
      endloop
   endfacet
   facet normal -9.182422e-001 -3.960194e-001 -1.543691e-016
      outer loop
         vertex 1.692229e+002 8.008550e+002 1.876425e+002
         vertex 1.672965e+002 8.049862e+002 5.178425e+002
         vertex 1.672965e+002 8.049862e+002 1.876425e+002
      endloop
   endfacet
   facet normal -9.579706e-001 -2.868663e-001 -1.610480e-016
      outer loop
         vertex 1.672965e+002 8.049862e+002 1.876425e+002
         vertex 1.672965e+002 8.049862e+002 5.178425e+002
         vertex 1.661168e+002 8.093891e+002 5.178425e+002
      endloop
   endfacet
   facet normal -9.730600e-001 -2.305519e-001 -1.635847e-016
      outer loop
         vertex 1.672965e+002 8.049862e+002 1.876425e+002
         vertex 1.661168e+002 8.093891e+002 5.178425e+002
         vertex 1.661168e+002 8.093891e+002 1.876425e+002
      endloop
   endfacet
   facet normal -9.932307e-001 -1.161583e-001 -1.669757e-016
      outer loop
         vertex 1.661168e+002 8.093891e+002 1.876425e+002
         vertex 1.661168e+002 8.093891e+002 5.178425e+002
         vertex 1.657195e+002 8.139300e+002 5.178425e+002
      endloop
   endfacet
   facet normal -9.983120e-001 -5.807914e-002 -1.678299e-016
      outer loop
         vertex 1.661168e+002 8.093891e+002 1.876425e+002
         vertex 1.657195e+002 8.139300e+002 5.178425e+002
         vertex 1.657195e+002 8.139300e+002 1.876425e+002
      endloop
   endfacet
   facet normal -1.000000e+000 1.218755e-015 -1.681137e-016
      outer loop
         vertex 1.657195e+002 9.050248e+002 1.876425e+002
         vertex 1.657195e+002 8.139300e+002 1.876425e+002
         vertex 1.657195e+002 9.050248e+002 5.178425e+002
      endloop
   endfacet
   facet normal -1.000000e+000 1.218755e-015 -1.681137e-016
      outer loop
         vertex 1.657195e+002 9.050248e+002 5.178425e+002
         vertex 1.657195e+002 8.139300e+002 1.876425e+002
         vertex 1.657195e+002 8.139300e+002 5.178425e+002
      endloop
   endfacet
   facet normal -9.989520e-001 -4.576975e-002 -1.679375e-016
      outer loop
         vertex 1.657195e+002 9.050248e+002 1.876425e+002
         vertex 1.657195e+002 9.050248e+002 5.178425e+002
         vertex 1.651189e+002 9.137496e+002 5.178425e+002
      endloop
   endfacet
   facet normal -9.958014e-001 -9.153949e-002 -1.674079e-016
      outer loop
         vertex 1.657195e+002 9.050248e+002 1.876425e+002
         vertex 1.651189e+002 9.137496e+002 5.178425e+002
         vertex 1.651189e+002 9.137496e+002 1.876425e+002
      endloop
   endfacet
   facet normal -9.832586e-001 -1.822156e-001 -1.652993e-016
      outer loop
         vertex 1.651189e+002 9.137496e+002 1.876425e+002
         vertex 1.651189e+002 9.137496e+002 5.178425e+002
         vertex 1.633285e+002 9.223099e+002 5.178425e+002
      endloop
   endfacet
   facet normal -9.738663e-001 -2.271220e-001 -1.637203e-016
      outer loop
         vertex 1.651189e+002 9.137496e+002 1.876425e+002
         vertex 1.633285e+002 9.223099e+002 5.178425e+002
         vertex 1.633285e+002 9.223099e+002 1.876425e+002
      endloop
   endfacet
   facet normal -9.490172e-001 -3.152242e-001 -1.595428e-016
      outer loop
         vertex 1.633285e+002 9.223099e+002 1.876425e+002
         vertex 1.633285e+002 9.223099e+002 5.178425e+002
         vertex 1.603821e+002 9.305441e+002 5.178425e+002
      endloop
   endfacet
   facet normal -9.335604e-001 -3.584200e-001 -1.569443e-016
      outer loop
         vertex 1.633285e+002 9.223099e+002 1.876425e+002
         vertex 1.603821e+002 9.305441e+002 5.178425e+002
         vertex 1.603821e+002 9.305441e+002 1.876425e+002
      endloop
   endfacet
   facet normal -8.968738e-001 -4.422865e-001 -1.507768e-016
      outer loop
         vertex 1.603821e+002 9.305441e+002 1.876425e+002
         vertex 1.603821e+002 9.305441e+002 5.178425e+002
         vertex 1.563352e+002 9.382969e+002 5.178425e+002
      endloop
   endfacet
   facet normal -8.756440e-001 -4.829570e-001 -1.472078e-016
      outer loop
         vertex 1.603821e+002 9.305441e+002 1.876425e+002
         vertex 1.563352e+002 9.382969e+002 5.178425e+002
         vertex 1.563352e+002 9.382969e+002 1.876425e+002
      endloop
   endfacet
   facet normal -8.278120e-001 -5.610055e-001 -1.391666e-016
      outer loop
         vertex 1.563352e+002 9.382969e+002 1.876425e+002
         vertex 1.563352e+002 9.382969e+002 5.178425e+002
         vertex 1.512641e+002 9.454220e+002 5.178425e+002
      endloop
   endfacet
   facet normal -8.012098e-001 -5.983835e-001 -1.346944e-016
      outer loop
         vertex 1.563352e+002 9.382969e+002 1.876425e+002
         vertex 1.512641e+002 9.454220e+002 5.178425e+002
         vertex 1.512641e+002 9.454220e+002 1.876425e+002
      endloop
   endfacet
   facet normal -7.431346e-001 -6.691419e-001 -1.249311e-016
      outer loop
         vertex 1.512641e+002 9.454220e+002 1.876425e+002
         vertex 1.512641e+002 9.454220e+002 5.178425e+002
         vertex 1.452646e+002 9.517851e+002 5.178425e+002
      endloop
   endfacet
   facet normal -7.116617e-001 -7.025223e-001 -1.196401e-016
      outer loop
         vertex 1.512641e+002 9.454220e+002 1.876425e+002
         vertex 1.452646e+002 9.517851e+002 5.178425e+002
         vertex 1.452646e+002 9.517851e+002 1.876425e+002
      endloop
   endfacet
   facet normal -6.444389e-001 -7.646559e-001 -1.083390e-016
      outer loop
         vertex 1.452646e+002 9.517851e+002 1.876425e+002
         vertex 1.452646e+002 9.517851e+002 5.178425e+002
         vertex 1.384498e+002 9.572662e+002 5.178425e+002
      endloop
   endfacet
   facet normal -6.086890e-001 -7.934090e-001 -1.023290e-016
      outer loop
         vertex 1.452646e+002 9.517851e+002 1.876425e+002
         vertex 1.384498e+002 9.572662e+002 5.178425e+002
         vertex 1.384498e+002 9.572662e+002 1.876425e+002
      endloop
   endfacet
   facet normal -5.335866e-001 -8.457454e-001 -8.970322e-017
      outer loop
         vertex 1.384498e+002 9.572662e+002 1.876425e+002
         vertex 1.384498e+002 9.572662e+002 5.178425e+002
         vertex 1.309483e+002 9.617617e+002 5.178425e+002
      endloop
   endfacet
   facet normal -4.942341e-001 -8.693289e-001 -8.308753e-017
      outer loop
         vertex 1.384498e+002 9.572662e+002 1.876425e+002
         vertex 1.309483e+002 9.617617e+002 5.178425e+002
         vertex 1.309483e+002 9.617617e+002 1.876425e+002
      endloop
   endfacet
   facet normal -8.910388e-001 4.539272e-001 -1.497958e-016
      outer loop
         vertex 1.316292e+002 9.630983e+002 1.876425e+002
         vertex 1.309483e+002 9.617617e+002 1.876425e+002
         vertex 1.316292e+002 9.630983e+002 5.178425e+002
      endloop
   endfacet
   facet normal -8.910388e-001 4.539272e-001 -1.497958e-016
      outer loop
         vertex 1.316292e+002 9.630983e+002 5.178425e+002
         vertex 1.309483e+002 9.617617e+002 1.876425e+002
         vertex 1.309483e+002 9.617617e+002 5.178425e+002
      endloop
   endfacet
   facet normal 4.942341e-001 8.693289e-001 8.308753e-017
      outer loop
         vertex 1.316292e+002 9.630983e+002 1.876425e+002
         vertex 1.316292e+002 9.630983e+002 5.178425e+002
         vertex 1.393074e+002 9.584968e+002 5.178425e+002
      endloop
   endfacet
   facet normal 5.335866e-001 8.457454e-001 8.970322e-017
      outer loop
         vertex 1.316292e+002 9.630983e+002 1.876425e+002
         vertex 1.393074e+002 9.584968e+002 5.178425e+002
         vertex 1.393074e+002 9.584968e+002 1.876425e+002
      endloop
   endfacet
   facet normal 6.086890e-001 7.934090e-001 1.023290e-016
      outer loop
         vertex 1.393074e+002 9.584968e+002 1.876425e+002
         vertex 1.393074e+002 9.584968e+002 5.178425e+002
         vertex 1.462828e+002 9.528867e+002 5.178425e+002
      endloop
   endfacet
   facet normal 6.444389e-001 7.646559e-001 1.083390e-016
      outer loop
         vertex 1.393074e+002 9.584968e+002 1.876425e+002
         vertex 1.462828e+002 9.528867e+002 5.178425e+002
         vertex 1.462828e+002 9.528867e+002 1.876425e+002
      endloop
   endfacet
   facet normal 7.116617e-001 7.025223e-001 1.196401e-016
      outer loop
         vertex 1.462828e+002 9.528867e+002 1.876425e+002
         vertex 1.462828e+002 9.528867e+002 5.178425e+002
         vertex 1.524236e+002 9.463737e+002 5.178425e+002
      endloop
   endfacet
   facet normal 7.431346e-001 6.691419e-001 1.249311e-016
      outer loop
         vertex 1.462828e+002 9.528867e+002 1.876425e+002
         vertex 1.524236e+002 9.463737e+002 5.178425e+002
         vertex 1.524236e+002 9.463737e+002 1.876425e+002
      endloop
   endfacet
   facet normal 8.012097e-001 5.983835e-001 1.346944e-016
      outer loop
         vertex 1.524236e+002 9.463737e+002 1.876425e+002
         vertex 1.524236e+002 9.463737e+002 5.178425e+002
         vertex 1.576141e+002 9.390806e+002 5.178425e+002
      endloop
   endfacet
   facet normal 8.278120e-001 5.610055e-001 1.391666e-016
      outer loop
         vertex 1.524236e+002 9.463737e+002 1.876425e+002
         vertex 1.576141e+002 9.390806e+002 5.178425e+002
         vertex 1.576141e+002 9.390806e+002 1.876425e+002
      endloop
   endfacet
   facet normal 8.756440e-001 4.829570e-001 1.472078e-016
      outer loop
         vertex 1.576141e+002 9.390806e+002 1.876425e+002
         vertex 1.576141e+002 9.390806e+002 5.178425e+002
         vertex 1.617563e+002 9.311453e+002 5.178425e+002
      endloop
   endfacet
   facet normal 8.968738e-001 4.422865e-001 1.507768e-016
      outer loop
         vertex 1.576141e+002 9.390806e+002 1.876425e+002
         vertex 1.617563e+002 9.311453e+002 5.178425e+002
         vertex 1.617563e+002 9.311453e+002 1.876425e+002
      endloop
   endfacet
   facet normal 9.335604e-001 3.584200e-001 1.569443e-016
      outer loop
         vertex 1.617563e+002 9.311453e+002 1.876425e+002
         vertex 1.617563e+002 9.311453e+002 5.178425e+002
         vertex 1.647722e+002 9.227171e+002 5.178425e+002
      endloop
   endfacet
   facet normal 9.490172e-001 3.152242e-001 1.595428e-016
      outer loop
         vertex 1.617563e+002 9.311453e+002 1.876425e+002
         vertex 1.647722e+002 9.227171e+002 5.178425e+002
         vertex 1.647722e+002 9.227171e+002 1.876425e+002
      endloop
   endfacet
   facet normal 9.738663e-001 2.271220e-001 1.637203e-016
      outer loop
         vertex 1.647722e+002 9.227171e+002 1.876425e+002
         vertex 1.647722e+002 9.227171e+002 5.178425e+002
         vertex 1.666048e+002 9.139551e+002 5.178425e+002
      endloop
   endfacet
   facet normal 9.832586e-001 1.822156e-001 1.652993e-016
      outer loop
         vertex 1.647722e+002 9.227171e+002 1.876425e+002
         vertex 1.666048e+002 9.139551e+002 5.178425e+002
         vertex 1.666048e+002 9.139551e+002 1.876425e+002
      endloop
   endfacet
   facet normal 9.958014e-001 9.153949e-002 1.674079e-016
      outer loop
         vertex 1.666048e+002 9.139551e+002 1.876425e+002
         vertex 1.666048e+002 9.139551e+002 5.178425e+002
         vertex 1.672195e+002 9.050248e+002 5.178425e+002
      endloop
   endfacet
   facet normal 9.989520e-001 4.576975e-002 1.679375e-016
      outer loop
         vertex 1.666048e+002 9.139551e+002 1.876425e+002
         vertex 1.672195e+002 9.050248e+002 5.178425e+002
         vertex 1.672195e+002 9.050248e+002 1.876425e+002
      endloop
   endfacet
   facet normal 1.000000e+000 -1.218755e-015 1.681137e-016
      outer loop
         vertex 1.672195e+002 8.139300e+002 1.876425e+002
         vertex 1.672195e+002 9.050248e+002 1.876425e+002
         vertex 1.672195e+002 8.139300e+002 5.178425e+002
      endloop
   endfacet
   facet normal 1.000000e+000 -1.218755e-015 1.681137e-016
      outer loop
         vertex 1.672195e+002 8.139300e+002 5.178425e+002
         vertex 1.672195e+002 9.050248e+002 1.876425e+002
         vertex 1.672195e+002 9.050248e+002 5.178425e+002
      endloop
   endfacet
   facet normal 9.983120e-001 5.807914e-002 1.678299e-016
      outer loop
         vertex 1.672195e+002 8.139300e+002 1.876425e+002
         vertex 1.672195e+002 8.139300e+002 5.178425e+002
         vertex 1.675940e+002 8.096496e+002 5.178425e+002
      endloop
   endfacet
   facet normal 9.932307e-001 1.161583e-001 1.669757e-016
      outer loop
         vertex 1.672195e+002 8.139300e+002 1.876425e+002
         vertex 1.675940e+002 8.096496e+002 5.178425e+002
         vertex 1.675940e+002 8.096496e+002 1.876425e+002
      endloop
   endfacet
   facet normal 9.730600e-001 2.305519e-001 1.635847e-016
      outer loop
         vertex 1.675940e+002 8.096496e+002 1.876425e+002
         vertex 1.675940e+002 8.096496e+002 5.178425e+002
         vertex 1.687061e+002 8.054992e+002 5.178425e+002
      endloop
   endfacet
   facet normal 9.579706e-001 2.868663e-001 1.610480e-016
      outer loop
         vertex 1.675940e+002 8.096496e+002 1.876425e+002
         vertex 1.687061e+002 8.054992e+002 5.178425e+002
         vertex 1.687061e+002 8.054992e+002 1.876425e+002
      endloop
   endfacet
   facet normal 9.182422e-001 3.960194e-001 1.543691e-016
      outer loop
         vertex 1.687061e+002 8.054992e+002 1.876425e+002
         vertex 1.687061e+002 8.054992e+002 5.178425e+002
         vertex 1.705220e+002 8.016050e+002 5.178425e+002
      endloop
   endfacet
   facet normal 8.936031e-001 4.488580e-001 1.502269e-016
      outer loop
         vertex 1.687061e+002 8.054992e+002 1.876425e+002
         vertex 1.705220e+002 8.016050e+002 5.178425e+002
         vertex 1.705220e+002 8.016050e+002 1.876425e+002
      endloop
   endfacet
   facet normal 8.355240e-001 5.494540e-001 1.404630e-016
      outer loop
         vertex 1.705220e+002 8.016050e+002 1.876425e+002
         vertex 1.705220e+002 8.016050e+002 5.178425e+002
         vertex 1.729865e+002 7.980853e+002 5.178425e+002
      endloop
   endfacet
   facet normal 8.020839e-001 5.972114e-001 1.348413e-016
      outer loop
         vertex 1.705220e+002 8.016050e+002 1.876425e+002
         vertex 1.729865e+002 7.980853e+002 5.178425e+002
         vertex 1.729865e+002 7.980853e+002 1.876425e+002
      endloop
   endfacet
   facet normal 7.274188e-001 6.861938e-001 1.222891e-016
      outer loop
         vertex 1.729865e+002 7.980853e+002 1.876425e+002
         vertex 1.729865e+002 7.980853e+002 5.178425e+002
         vertex 1.760248e+002 7.950470e+002 5.178425e+002
      endloop
   endfacet
   facet normal 6.861938e-001 7.274188e-001 1.153586e-016
      outer loop
         vertex 1.729865e+002 7.980853e+002 1.876425e+002
         vertex 1.760248e+002 7.950470e+002 5.178425e+002
         vertex 1.760248e+002 7.950470e+002 1.876425e+002
      endloop
   endfacet
   facet normal 5.972114e-001 8.020839e-001 1.003994e-016
      outer loop
         vertex 1.760248e+002 7.950470e+002 1.876425e+002
         vertex 1.760248e+002 7.950470e+002 5.178425e+002
         vertex 1.795445e+002 7.925825e+002 5.178425e+002
      endloop
   endfacet
   facet normal 5.494540e-001 8.355240e-001 9.237076e-017
      outer loop
         vertex 1.760248e+002 7.950470e+002 1.876425e+002
         vertex 1.795445e+002 7.925825e+002 5.178425e+002
         vertex 1.795445e+002 7.925825e+002 1.876425e+002
      endloop
   endfacet
   facet normal 4.488580e-001 8.936031e-001 7.545919e-017
      outer loop
         vertex 1.795445e+002 7.925825e+002 1.876425e+002
         vertex 1.795445e+002 7.925825e+002 5.178425e+002
         vertex 1.834387e+002 7.907666e+002 5.178425e+002
      endloop
   endfacet
   facet normal 3.960194e-001 9.182422e-001 6.657629e-017
      outer loop
         vertex 1.795445e+002 7.925825e+002 1.876425e+002
         vertex 1.834387e+002 7.907666e+002 5.178425e+002
         vertex 1.834387e+002 7.907666e+002 1.876425e+002
      endloop
   endfacet
   facet normal 2.868663e-001 9.579706e-001 4.822616e-017
      outer loop
         vertex 1.834387e+002 7.907666e+002 1.876425e+002
         vertex 1.834387e+002 7.907666e+002 5.178425e+002
         vertex 1.875891e+002 7.896545e+002 5.178425e+002
      endloop
   endfacet
   facet normal 2.305519e-001 9.730600e-001 3.875893e-017
      outer loop
         vertex 1.834387e+002 7.907666e+002 1.876425e+002
         vertex 1.875891e+002 7.896545e+002 5.178425e+002
         vertex 1.875891e+002 7.896545e+002 1.876425e+002
      endloop
   endfacet
   facet normal 1.161583e-001 9.932307e-001 1.952780e-017
      outer loop
         vertex 1.875891e+002 7.896545e+002 1.876425e+002
         vertex 1.875891e+002 7.896545e+002 5.178425e+002
         vertex 1.918695e+002 7.892800e+002 5.178425e+002
      endloop
   endfacet
   facet normal 5.807914e-002 9.983120e-001 9.763900e-018
      outer loop
         vertex 1.875891e+002 7.896545e+002 1.876425e+002
         vertex 1.918695e+002 7.892800e+002 5.178425e+002
         vertex 1.918695e+002 7.892800e+002 1.876425e+002
      endloop
   endfacet
   facet normal 1.681137e-016 0.000000e+000 -1.000000e+000
      outer loop
         vertex 1.309483e+002 9.617617e+002 1.876425e+002
         vertex 1.316292e+002 9.630983e+002 1.876425e+002
         vertex 1.384498e+002 9.572662e+002 1.876425e+002
      endloop
   endfacet
   facet normal 1.681137e-016 0.000000e+000 -1.000000e+000
      outer loop
         vertex 1.384498e+002 9.572662e+002 1.876425e+002
         vertex 1.316292e+002 9.630983e+002 1.876425e+002
         vertex 1.393074e+002 9.584968e+002 1.876425e+002
      endloop
   endfacet
   facet normal 1.681137e-016 0.000000e+000 -1.000000e+000
      outer loop
         vertex 1.384498e+002 9.572662e+002 1.876425e+002
         vertex 1.393074e+002 9.584968e+002 1.876425e+002
         vertex 1.452646e+002 9.517851e+002 1.876425e+002
      endloop
   endfacet
   facet normal 1.681137e-016 0.000000e+000 -1.000000e+000
      outer loop
         vertex 1.452646e+002 9.517851e+002 1.876425e+002
         vertex 1.393074e+002 9.584968e+002 1.876425e+002
         vertex 1.462828e+002 9.528867e+002 1.876425e+002
      endloop
   endfacet
   facet normal 1.681137e-016 0.000000e+000 -1.000000e+000
      outer loop
         vertex 1.452646e+002 9.517851e+002 1.876425e+002
         vertex 1.462828e+002 9.528867e+002 1.876425e+002
         vertex 1.512641e+002 9.454220e+002 1.876425e+002
      endloop
   endfacet
   facet normal 1.681137e-016 0.000000e+000 -1.000000e+000
      outer loop
         vertex 1.512641e+002 9.454220e+002 1.876425e+002
         vertex 1.462828e+002 9.528867e+002 1.876425e+002
         vertex 1.524236e+002 9.463737e+002 1.876425e+002
      endloop
   endfacet
   facet normal 1.681137e-016 0.000000e+000 -1.000000e+000
      outer loop
         vertex 1.512641e+002 9.454220e+002 1.876425e+002
         vertex 1.524236e+002 9.463737e+002 1.876425e+002
         vertex 1.563352e+002 9.382969e+002 1.876425e+002
      endloop
   endfacet
   facet normal 1.681137e-016 0.000000e+000 -1.000000e+000
      outer loop
         vertex 1.563352e+002 9.382969e+002 1.876425e+002
         vertex 1.524236e+002 9.463737e+002 1.876425e+002
         vertex 1.576141e+002 9.390806e+002 1.876425e+002
      endloop
   endfacet
   facet normal 1.681137e-016 0.000000e+000 -1.000000e+000
      outer loop
         vertex 1.563352e+002 9.382969e+002 1.876425e+002
         vertex 1.576141e+002 9.390806e+002 1.876425e+002
         vertex 1.603821e+002 9.305441e+002 1.876425e+002
      endloop
   endfacet
   facet normal 1.681137e-016 0.000000e+000 -1.000000e+000
      outer loop
         vertex 1.603821e+002 9.305441e+002 1.876425e+002
         vertex 1.576141e+002 9.390806e+002 1.876425e+002
         vertex 1.617563e+002 9.311453e+002 1.876425e+002
      endloop
   endfacet
   facet normal 1.681137e-016 0.000000e+000 -1.000000e+000
      outer loop
         vertex 1.603821e+002 9.305441e+002 1.876425e+002
         vertex 1.617563e+002 9.311453e+002 1.876425e+002
         vertex 1.633285e+002 9.223099e+002 1.876425e+002
      endloop
   endfacet
   facet normal 1.681137e-016 0.000000e+000 -1.000000e+000
      outer loop
         vertex 1.633285e+002 9.223099e+002 1.876425e+002
         vertex 1.617563e+002 9.311453e+002 1.876425e+002
         vertex 1.647722e+002 9.227171e+002 1.876425e+002
      endloop
   endfacet
   facet normal 1.681137e-016 0.000000e+000 -1.000000e+000
      outer loop
         vertex 1.633285e+002 9.223099e+002 1.876425e+002
         vertex 1.647722e+002 9.227171e+002 1.876425e+002
         vertex 1.651189e+002 9.137496e+002 1.876425e+002
      endloop
   endfacet
   facet normal 1.681137e-016 0.000000e+000 -1.000000e+000
      outer loop
         vertex 1.651189e+002 9.137496e+002 1.876425e+002
         vertex 1.647722e+002 9.227171e+002 1.876425e+002
         vertex 1.666048e+002 9.139551e+002 1.876425e+002
      endloop
   endfacet
   facet normal 1.681137e-016 0.000000e+000 -1.000000e+000
      outer loop
         vertex 1.651189e+002 9.137496e+002 1.876425e+002
         vertex 1.666048e+002 9.139551e+002 1.876425e+002
         vertex 1.657195e+002 9.050248e+002 1.876425e+002
      endloop
   endfacet
   facet normal 1.681137e-016 0.000000e+000 -1.000000e+000
      outer loop
         vertex 1.657195e+002 9.050248e+002 1.876425e+002
         vertex 1.666048e+002 9.139551e+002 1.876425e+002
         vertex 1.672195e+002 9.050248e+002 1.876425e+002
      endloop
   endfacet
   facet normal 1.681137e-016 0.000000e+000 -1.000000e+000
      outer loop
         vertex 1.657195e+002 9.050248e+002 1.876425e+002
         vertex 1.672195e+002 9.050248e+002 1.876425e+002
         vertex 1.657195e+002 8.139300e+002 1.876425e+002
      endloop
   endfacet
   facet normal 1.681137e-016 0.000000e+000 -1.000000e+000
      outer loop
         vertex 1.657195e+002 8.139300e+002 1.876425e+002
         vertex 1.672195e+002 9.050248e+002 1.876425e+002
         vertex 1.672195e+002 8.139300e+002 1.876425e+002
      endloop
   endfacet
   facet normal 1.681137e-016 0.000000e+000 -1.000000e+000
      outer loop
         vertex 1.657195e+002 8.139300e+002 1.876425e+002
         vertex 1.672195e+002 8.139300e+002 1.876425e+002
         vertex 1.661168e+002 8.093891e+002 1.876425e+002
      endloop
   endfacet
   facet normal 1.681137e-016 0.000000e+000 -1.000000e+000
      outer loop
         vertex 1.661168e+002 8.093891e+002 1.876425e+002
         vertex 1.672195e+002 8.139300e+002 1.876425e+002
         vertex 1.675940e+002 8.096496e+002 1.876425e+002
      endloop
   endfacet
   facet normal 1.681137e-016 0.000000e+000 -1.000000e+000
      outer loop
         vertex 1.661168e+002 8.093891e+002 1.876425e+002
         vertex 1.675940e+002 8.096496e+002 1.876425e+002
         vertex 1.672965e+002 8.049862e+002 1.876425e+002
      endloop
   endfacet
   facet normal 1.681137e-016 0.000000e+000 -1.000000e+000
      outer loop
         vertex 1.672965e+002 8.049862e+002 1.876425e+002
         vertex 1.675940e+002 8.096496e+002 1.876425e+002
         vertex 1.687061e+002 8.054992e+002 1.876425e+002
      endloop
   endfacet
   facet normal 1.681137e-016 0.000000e+000 -1.000000e+000
      outer loop
         vertex 1.672965e+002 8.049862e+002 1.876425e+002
         vertex 1.687061e+002 8.054992e+002 1.876425e+002
         vertex 1.692229e+002 8.008550e+002 1.876425e+002
      endloop
   endfacet
   facet normal 1.681137e-016 0.000000e+000 -1.000000e+000
      outer loop
         vertex 1.692229e+002 8.008550e+002 1.876425e+002
         vertex 1.687061e+002 8.054992e+002 1.876425e+002
         vertex 1.705220e+002 8.016050e+002 1.876425e+002
      endloop
   endfacet
   facet normal 1.681137e-016 0.000000e+000 -1.000000e+000
      outer loop
         vertex 1.692229e+002 8.008550e+002 1.876425e+002
         vertex 1.705220e+002 8.016050e+002 1.876425e+002
         vertex 1.718374e+002 7.971211e+002 1.876425e+002
      endloop
   endfacet
   facet normal 1.681137e-016 0.000000e+000 -1.000000e+000
      outer loop
         vertex 1.718374e+002 7.971211e+002 1.876425e+002
         vertex 1.705220e+002 8.016050e+002 1.876425e+002
         vertex 1.729865e+002 7.980853e+002 1.876425e+002
      endloop
   endfacet
   facet normal 1.681137e-016 0.000000e+000 -1.000000e+000
      outer loop
         vertex 1.718374e+002 7.971211e+002 1.876425e+002
         vertex 1.729865e+002 7.980853e+002 1.876425e+002
         vertex 1.750606e+002 7.938979e+002 1.876425e+002
      endloop
   endfacet
   facet normal 1.681137e-016 0.000000e+000 -1.000000e+000
      outer loop
         vertex 1.750606e+002 7.938979e+002 1.876425e+002
         vertex 1.729865e+002 7.980853e+002 1.876425e+002
         vertex 1.760248e+002 7.950470e+002 1.876425e+002
      endloop
   endfacet
   facet normal 1.681137e-016 0.000000e+000 -1.000000e+000
      outer loop
         vertex 1.750606e+002 7.938979e+002 1.876425e+002
         vertex 1.760248e+002 7.950470e+002 1.876425e+002
         vertex 1.787945e+002 7.912834e+002 1.876425e+002
      endloop
   endfacet
   facet normal 1.681137e-016 0.000000e+000 -1.000000e+000
      outer loop
         vertex 1.787945e+002 7.912834e+002 1.876425e+002
         vertex 1.760248e+002 7.950470e+002 1.876425e+002
         vertex 1.795445e+002 7.925825e+002 1.876425e+002
      endloop
   endfacet
   facet normal 1.681137e-016 0.000000e+000 -1.000000e+000
      outer loop
         vertex 1.787945e+002 7.912834e+002 1.876425e+002
         vertex 1.795445e+002 7.925825e+002 1.876425e+002
         vertex 1.829257e+002 7.893571e+002 1.876425e+002
      endloop
   endfacet
   facet normal 1.681137e-016 0.000000e+000 -1.000000e+000
      outer loop
         vertex 1.829257e+002 7.893571e+002 1.876425e+002
         vertex 1.795445e+002 7.925825e+002 1.876425e+002
         vertex 1.834387e+002 7.907666e+002 1.876425e+002
      endloop
   endfacet
   facet normal 1.681137e-016 0.000000e+000 -1.000000e+000
      outer loop
         vertex 1.829257e+002 7.893571e+002 1.876425e+002
         vertex 1.834387e+002 7.907666e+002 1.876425e+002
         vertex 1.873286e+002 7.881772e+002 1.876425e+002
      endloop
   endfacet
   facet normal 1.681137e-016 0.000000e+000 -1.000000e+000
      outer loop
         vertex 1.873286e+002 7.881772e+002 1.876425e+002
         vertex 1.834387e+002 7.907666e+002 1.876425e+002
         vertex 1.875891e+002 7.896545e+002 1.876425e+002
      endloop
   endfacet
   facet normal 1.681137e-016 0.000000e+000 -1.000000e+000
      outer loop
         vertex 1.873286e+002 7.881772e+002 1.876425e+002
         vertex 1.875891e+002 7.896545e+002 1.876425e+002
         vertex 1.918695e+002 7.877800e+002 1.876425e+002
      endloop
   endfacet
   facet normal 1.681137e-016 0.000000e+000 -1.000000e+000
      outer loop
         vertex 1.918695e+002 7.877800e+002 1.876425e+002
         vertex 1.875891e+002 7.896545e+002 1.876425e+002
         vertex 1.918695e+002 7.892800e+002 1.876425e+002
      endloop
   endfacet
   facet normal 1.681137e-016 0.000000e+000 -1.000000e+000
      outer loop
         vertex 1.918695e+002 7.877800e+002 1.876425e+002
         vertex 1.918695e+002 7.892800e+002 1.876425e+002
         vertex 2.680695e+002 7.877800e+002 1.876425e+002
      endloop
   endfacet
   facet normal 1.681137e-016 0.000000e+000 -1.000000e+000
      outer loop
         vertex 2.680695e+002 7.877800e+002 1.876425e+002
         vertex 1.918695e+002 7.892800e+002 1.876425e+002
         vertex 2.680695e+002 7.892800e+002 1.876425e+002
      endloop
   endfacet
   facet normal -1.681137e-016 -0.000000e+000 1.000000e+000
      outer loop
         vertex 2.680695e+002 7.877800e+002 5.178425e+002
         vertex 2.680695e+002 7.892800e+002 5.178425e+002
         vertex 1.918695e+002 7.877800e+002 5.178425e+002
      endloop
   endfacet
   facet normal -1.681137e-016 -0.000000e+000 1.000000e+000
      outer loop
         vertex 1.918695e+002 7.877800e+002 5.178425e+002
         vertex 2.680695e+002 7.892800e+002 5.178425e+002
         vertex 1.918695e+002 7.892800e+002 5.178425e+002
      endloop
   endfacet
   facet normal -1.681137e-016 -0.000000e+000 1.000000e+000
      outer loop
         vertex 1.918695e+002 7.877800e+002 5.178425e+002
         vertex 1.918695e+002 7.892800e+002 5.178425e+002
         vertex 1.873286e+002 7.881772e+002 5.178425e+002
      endloop
   endfacet
   facet normal -1.681137e-016 -0.000000e+000 1.000000e+000
      outer loop
         vertex 1.873286e+002 7.881772e+002 5.178425e+002
         vertex 1.918695e+002 7.892800e+002 5.178425e+002
         vertex 1.875891e+002 7.896545e+002 5.178425e+002
      endloop
   endfacet
   facet normal -1.681137e-016 -0.000000e+000 1.000000e+000
      outer loop
         vertex 1.873286e+002 7.881772e+002 5.178425e+002
         vertex 1.875891e+002 7.896545e+002 5.178425e+002
         vertex 1.829257e+002 7.893571e+002 5.178425e+002
      endloop
   endfacet
   facet normal -1.681137e-016 -0.000000e+000 1.000000e+000
      outer loop
         vertex 1.829257e+002 7.893571e+002 5.178425e+002
         vertex 1.875891e+002 7.896545e+002 5.178425e+002
         vertex 1.834387e+002 7.907666e+002 5.178425e+002
      endloop
   endfacet
   facet normal -1.681137e-016 -0.000000e+000 1.000000e+000
      outer loop
         vertex 1.829257e+002 7.893571e+002 5.178425e+002
         vertex 1.834387e+002 7.907666e+002 5.178425e+002
         vertex 1.787945e+002 7.912834e+002 5.178425e+002
      endloop
   endfacet
   facet normal -1.681137e-016 -0.000000e+000 1.000000e+000
      outer loop
         vertex 1.787945e+002 7.912834e+002 5.178425e+002
         vertex 1.834387e+002 7.907666e+002 5.178425e+002
         vertex 1.795445e+002 7.925825e+002 5.178425e+002
      endloop
   endfacet
   facet normal -1.681137e-016 -0.000000e+000 1.000000e+000
      outer loop
         vertex 1.787945e+002 7.912834e+002 5.178425e+002
         vertex 1.795445e+002 7.925825e+002 5.178425e+002
         vertex 1.750606e+002 7.938979e+002 5.178425e+002
      endloop
   endfacet
   facet normal -1.681137e-016 -0.000000e+000 1.000000e+000
      outer loop
         vertex 1.750606e+002 7.938979e+002 5.178425e+002
         vertex 1.795445e+002 7.925825e+002 5.178425e+002
         vertex 1.760248e+002 7.950470e+002 5.178425e+002
      endloop
   endfacet
   facet normal -1.681137e-016 -0.000000e+000 1.000000e+000
      outer loop
         vertex 1.750606e+002 7.938979e+002 5.178425e+002
         vertex 1.760248e+002 7.950470e+002 5.178425e+002
         vertex 1.718374e+002 7.971211e+002 5.178425e+002
      endloop
   endfacet
   facet normal -1.681137e-016 -0.000000e+000 1.000000e+000
      outer loop
         vertex 1.718374e+002 7.971211e+002 5.178425e+002
         vertex 1.760248e+002 7.950470e+002 5.178425e+002
         vertex 1.729865e+002 7.980853e+002 5.178425e+002
      endloop
   endfacet
   facet normal -1.681137e-016 -0.000000e+000 1.000000e+000
      outer loop
         vertex 1.718374e+002 7.971211e+002 5.178425e+002
         vertex 1.729865e+002 7.980853e+002 5.178425e+002
         vertex 1.692229e+002 8.008550e+002 5.178425e+002
      endloop
   endfacet
   facet normal -1.681137e-016 -0.000000e+000 1.000000e+000
      outer loop
         vertex 1.692229e+002 8.008550e+002 5.178425e+002
         vertex 1.729865e+002 7.980853e+002 5.178425e+002
         vertex 1.705220e+002 8.016050e+002 5.178425e+002
      endloop
   endfacet
   facet normal -1.681137e-016 -0.000000e+000 1.000000e+000
      outer loop
         vertex 1.692229e+002 8.008550e+002 5.178425e+002
         vertex 1.705220e+002 8.016050e+002 5.178425e+002
         vertex 1.672965e+002 8.049862e+002 5.178425e+002
      endloop
   endfacet
   facet normal -1.681137e-016 -0.000000e+000 1.000000e+000
      outer loop
         vertex 1.672965e+002 8.049862e+002 5.178425e+002
         vertex 1.705220e+002 8.016050e+002 5.178425e+002
         vertex 1.687061e+002 8.054992e+002 5.178425e+002
      endloop
   endfacet
   facet normal -1.681137e-016 -0.000000e+000 1.000000e+000
      outer loop
         vertex 1.672965e+002 8.049862e+002 5.178425e+002
         vertex 1.687061e+002 8.054992e+002 5.178425e+002
         vertex 1.661168e+002 8.093891e+002 5.178425e+002
      endloop
   endfacet
   facet normal -1.681137e-016 -0.000000e+000 1.000000e+000
      outer loop
         vertex 1.661168e+002 8.093891e+002 5.178425e+002
         vertex 1.687061e+002 8.054992e+002 5.178425e+002
         vertex 1.675940e+002 8.096496e+002 5.178425e+002
      endloop
   endfacet
   facet normal -1.681137e-016 -0.000000e+000 1.000000e+000
      outer loop
         vertex 1.661168e+002 8.093891e+002 5.178425e+002
         vertex 1.675940e+002 8.096496e+002 5.178425e+002
         vertex 1.657195e+002 8.139300e+002 5.178425e+002
      endloop
   endfacet
   facet normal -1.681137e-016 -0.000000e+000 1.000000e+000
      outer loop
         vertex 1.657195e+002 8.139300e+002 5.178425e+002
         vertex 1.675940e+002 8.096496e+002 5.178425e+002
         vertex 1.672195e+002 8.139300e+002 5.178425e+002
      endloop
   endfacet
   facet normal -1.681137e-016 -0.000000e+000 1.000000e+000
      outer loop
         vertex 1.657195e+002 8.139300e+002 5.178425e+002
         vertex 1.672195e+002 8.139300e+002 5.178425e+002
         vertex 1.657195e+002 9.050248e+002 5.178425e+002
      endloop
   endfacet
   facet normal -1.681137e-016 -0.000000e+000 1.000000e+000
      outer loop
         vertex 1.657195e+002 9.050248e+002 5.178425e+002
         vertex 1.672195e+002 8.139300e+002 5.178425e+002
         vertex 1.672195e+002 9.050248e+002 5.178425e+002
      endloop
   endfacet
   facet normal -1.681137e-016 -0.000000e+000 1.000000e+000
      outer loop
         vertex 1.657195e+002 9.050248e+002 5.178425e+002
         vertex 1.672195e+002 9.050248e+002 5.178425e+002
         vertex 1.651189e+002 9.137496e+002 5.178425e+002
      endloop
   endfacet
   facet normal -1.681137e-016 -0.000000e+000 1.000000e+000
      outer loop
         vertex 1.651189e+002 9.137496e+002 5.178425e+002
         vertex 1.672195e+002 9.050248e+002 5.178425e+002
         vertex 1.666048e+002 9.139551e+002 5.178425e+002
      endloop
   endfacet
   facet normal -1.681137e-016 -0.000000e+000 1.000000e+000
      outer loop
         vertex 1.651189e+002 9.137496e+002 5.178425e+002
         vertex 1.666048e+002 9.139551e+002 5.178425e+002
         vertex 1.633285e+002 9.223099e+002 5.178425e+002
      endloop
   endfacet
   facet normal -1.681137e-016 -0.000000e+000 1.000000e+000
      outer loop
         vertex 1.633285e+002 9.223099e+002 5.178425e+002
         vertex 1.666048e+002 9.139551e+002 5.178425e+002
         vertex 1.647722e+002 9.227171e+002 5.178425e+002
      endloop
   endfacet
   facet normal -1.681137e-016 -0.000000e+000 1.000000e+000
      outer loop
         vertex 1.633285e+002 9.223099e+002 5.178425e+002
         vertex 1.647722e+002 9.227171e+002 5.178425e+002
         vertex 1.603821e+002 9.305441e+002 5.178425e+002
      endloop
   endfacet
   facet normal -1.681137e-016 -0.000000e+000 1.000000e+000
      outer loop
         vertex 1.603821e+002 9.305441e+002 5.178425e+002
         vertex 1.647722e+002 9.227171e+002 5.178425e+002
         vertex 1.617563e+002 9.311453e+002 5.178425e+002
      endloop
   endfacet
   facet normal -1.681137e-016 -0.000000e+000 1.000000e+000
      outer loop
         vertex 1.603821e+002 9.305441e+002 5.178425e+002
         vertex 1.617563e+002 9.311453e+002 5.178425e+002
         vertex 1.563352e+002 9.382969e+002 5.178425e+002
      endloop
   endfacet
   facet normal -1.681137e-016 -0.000000e+000 1.000000e+000
      outer loop
         vertex 1.563352e+002 9.382969e+002 5.178425e+002
         vertex 1.617563e+002 9.311453e+002 5.178425e+002
         vertex 1.576141e+002 9.390806e+002 5.178425e+002
      endloop
   endfacet
   facet normal -1.681137e-016 -0.000000e+000 1.000000e+000
      outer loop
         vertex 1.563352e+002 9.382969e+002 5.178425e+002
         vertex 1.576141e+002 9.390806e+002 5.178425e+002
         vertex 1.512641e+002 9.454220e+002 5.178425e+002
      endloop
   endfacet
   facet normal -1.681137e-016 -0.000000e+000 1.000000e+000
      outer loop
         vertex 1.512641e+002 9.454220e+002 5.178425e+002
         vertex 1.576141e+002 9.390806e+002 5.178425e+002
         vertex 1.524236e+002 9.463737e+002 5.178425e+002
      endloop
   endfacet
   facet normal -1.681137e-016 -0.000000e+000 1.000000e+000
      outer loop
         vertex 1.512641e+002 9.454220e+002 5.178425e+002
         vertex 1.524236e+002 9.463737e+002 5.178425e+002
         vertex 1.452646e+002 9.517851e+002 5.178425e+002
      endloop
   endfacet
   facet normal -1.681137e-016 -0.000000e+000 1.000000e+000
      outer loop
         vertex 1.452646e+002 9.517851e+002 5.178425e+002
         vertex 1.524236e+002 9.463737e+002 5.178425e+002
         vertex 1.462828e+002 9.528867e+002 5.178425e+002
      endloop
   endfacet
   facet normal -1.681137e-016 -0.000000e+000 1.000000e+000
      outer loop
         vertex 1.452646e+002 9.517851e+002 5.178425e+002
         vertex 1.462828e+002 9.528867e+002 5.178425e+002
         vertex 1.384498e+002 9.572662e+002 5.178425e+002
      endloop
   endfacet
   facet normal -1.681137e-016 -0.000000e+000 1.000000e+000
      outer loop
         vertex 1.384498e+002 9.572662e+002 5.178425e+002
         vertex 1.462828e+002 9.528867e+002 5.178425e+002
         vertex 1.393074e+002 9.584968e+002 5.178425e+002
      endloop
   endfacet
   facet normal -1.681137e-016 -0.000000e+000 1.000000e+000
      outer loop
         vertex 1.384498e+002 9.572662e+002 5.178425e+002
         vertex 1.393074e+002 9.584968e+002 5.178425e+002
         vertex 1.309483e+002 9.617617e+002 5.178425e+002
      endloop
   endfacet
   facet normal -1.681137e-016 -0.000000e+000 1.000000e+000
      outer loop
         vertex 1.309483e+002 9.617617e+002 5.178425e+002
         vertex 1.393074e+002 9.584968e+002 5.178425e+002
         vertex 1.316292e+002 9.630983e+002 5.178425e+002
      endloop
   endfacet
endsolid