solid FPM - 600-LipLower-1 601-PlateCurved-1
   facet normal -5.228807e-002 9.986320e-001 0.000000e+000
      outer loop
         vertex 1.020445e+002 9.639300e+002 5.178425e+002
         vertex 1.020445e+002 9.639300e+002 1.876425e+002
         vertex 9.282970e+001 9.632048e+002 1.876425e+002
      endloop
   endfacet
   facet normal -1.045761e-001 9.945169e-001 0.000000e+000
      outer loop
         vertex 1.020445e+002 9.639300e+002 5.178425e+002
         vertex 9.282970e+001 9.632048e+002 1.876425e+002
         vertex 9.282970e+001 9.632048e+002 5.178425e+002
      endloop
   endfacet
   facet normal -2.078648e-001 9.781576e-001 0.000000e+000
      outer loop
         vertex 9.282970e+001 9.632048e+002 5.178425e+002
         vertex 9.282970e+001 9.632048e+002 1.876425e+002
         vertex 8.384180e+001 9.610470e+002 1.876425e+002
      endloop
   endfacet
   facet normal -2.588654e-001 9.659134e-001 0.000000e+000
      outer loop
         vertex 9.282970e+001 9.632048e+002 5.178425e+002
         vertex 8.384180e+001 9.610470e+002 1.876425e+002
         vertex 8.384180e+001 9.610470e+002 5.178425e+002
      endloop
   endfacet
   facet normal -3.583232e-001 9.335976e-001 0.000000e+000
      outer loop
         vertex 8.384180e+001 9.610470e+002 5.178425e+002
         vertex 8.384180e+001 9.610470e+002 1.876425e+002
         vertex 7.530212e+001 9.575097e+002 1.876425e+002
      endloop
   endfacet
   facet normal -4.067805e-001 9.135259e-001 0.000000e+000
      outer loop
         vertex 8.384180e+001 9.610470e+002 5.178425e+002
         vertex 7.530212e+001 9.575097e+002 1.876425e+002
         vertex 7.530212e+001 9.575097e+002 5.178425e+002
      endloop
   endfacet
   facet normal -4.999584e-001 8.660494e-001 0.000000e+000
      outer loop
         vertex 7.530212e+001 9.575097e+002 5.178425e+002
         vertex 7.530212e+001 9.575097e+002 1.876425e+002
         vertex 6.742090e+001 9.526801e+002 1.876425e+002
      endloop
   endfacet
   facet normal -5.446792e-001 8.386444e-001 0.000000e+000
      outer loop
         vertex 7.530212e+001 9.575097e+002 5.178425e+002
         vertex 6.742090e+001 9.526801e+002 1.876425e+002
         vertex 6.742090e+001 9.526801e+002 5.178425e+002
      endloop
   endfacet
   facet normal -6.292831e-001 7.771761e-001 0.000000e+000
      outer loop
         vertex 6.742090e+001 9.526801e+002 5.178425e+002
         vertex 6.742090e+001 9.526801e+002 1.876425e+002
         vertex 6.039226e+001 9.466771e+002 1.876425e+002
      endloop
   endfacet
   facet normal -6.691663e-001 7.431127e-001 0.000000e+000
      outer loop
         vertex 6.742090e+001 9.526801e+002 5.178425e+002
         vertex 6.039226e+001 9.466771e+002 1.876425e+002
         vertex 6.039226e+001 9.466771e+002 5.178425e+002
      endloop
   endfacet
   facet normal -7.071068e-001 -7.071068e-001 0.000000e+000
      outer loop
         vertex 6.145293e+001 9.456164e+002 5.178425e+002
         vertex 6.039226e+001 9.466771e+002 5.178425e+002
         vertex 6.145293e+001 9.456164e+002 1.876425e+002
      endloop
   endfacet
   facet normal -7.071068e-001 -7.071068e-001 0.000000e+000
      outer loop
         vertex 6.145293e+001 9.456164e+002 1.876425e+002
         vertex 6.039226e+001 9.466771e+002 5.178425e+002
         vertex 6.039226e+001 9.466771e+002 1.876425e+002
      endloop
   endfacet
   facet normal 6.691663e-001 -7.431127e-001 0.000000e+000
      outer loop
         vertex 6.145293e+001 9.456164e+002 5.178425e+002
         vertex 6.145293e+001 9.456164e+002 1.876425e+002
         vertex 6.830257e+001 9.514666e+002 1.876425e+002
      endloop
   endfacet
   facet normal 6.292831e-001 -7.771761e-001 0.000000e+000
      outer loop
         vertex 6.145293e+001 9.456164e+002 5.178425e+002
         vertex 6.830257e+001 9.514666e+002 1.876425e+002
         vertex 6.830257e+001 9.514666e+002 5.178425e+002
      endloop
   endfacet
   facet normal 5.446792e-001 -8.386444e-001 0.000000e+000
      outer loop
         vertex 6.830257e+001 9.514666e+002 5.178425e+002
         vertex 6.830257e+001 9.514666e+002 1.876425e+002
         vertex 7.598311e+001 9.561732e+002 1.876425e+002
      endloop
   endfacet
   facet normal 4.999584e-001 -8.660494e-001 0.000000e+000
      outer loop
         vertex 6.830257e+001 9.514666e+002 5.178425e+002
         vertex 7.598311e+001 9.561732e+002 1.876425e+002
         vertex 7.598311e+001 9.561732e+002 5.178425e+002
      endloop
   endfacet
   facet normal 4.067805e-001 -9.135259e-001 0.000000e+000
      outer loop
         vertex 7.598311e+001 9.561732e+002 5.178425e+002
         vertex 7.598311e+001 9.561732e+002 1.876425e+002
         vertex 8.430528e+001 9.596204e+002 1.876425e+002
      endloop
   endfacet
   facet normal 3.583232e-001 -9.335976e-001 0.000000e+000
      outer loop
         vertex 7.598311e+001 9.561732e+002 5.178425e+002
         vertex 8.430528e+001 9.596204e+002 1.876425e+002
         vertex 8.430528e+001 9.596204e+002 5.178425e+002
      endloop
   endfacet
   facet normal 2.588654e-001 -9.659134e-001 0.000000e+000
      outer loop
         vertex 8.430528e+001 9.596204e+002 5.178425e+002
         vertex 8.430528e+001 9.596204e+002 1.876425e+002
         vertex 9.306437e+001 9.617233e+002 1.876425e+002
      endloop
   endfacet
   facet normal 2.078648e-001 -9.781576e-001 0.000000e+000
      outer loop
         vertex 8.430528e+001 9.596204e+002 5.178425e+002
         vertex 9.306437e+001 9.617233e+002 1.876425e+002
         vertex 9.306437e+001 9.617233e+002 5.178425e+002
      endloop
   endfacet
   facet normal 1.045761e-001 -9.945169e-001 0.000000e+000
      outer loop
         vertex 9.306437e+001 9.617233e+002 5.178425e+002
         vertex 9.306437e+001 9.617233e+002 1.876425e+002
         vertex 1.020445e+002 9.624300e+002 1.876425e+002
      endloop
   endfacet
   facet normal 5.228807e-002 -9.986320e-001 0.000000e+000
      outer loop
         vertex 9.306437e+001 9.617233e+002 5.178425e+002
         vertex 1.020445e+002 9.624300e+002 1.876425e+002
         vertex 1.020445e+002 9.624300e+002 5.178425e+002
      endloop
   endfacet
   facet normal 0.000000e+000 -1.000000e+000 0.000000e+000
      outer loop
         vertex 2.680695e+002 9.624300e+002 5.178425e+002
         vertex 1.020445e+002 9.624300e+002 5.178425e+002
         vertex 2.680695e+002 9.624300e+002 1.876425e+002
      endloop
   endfacet
   facet normal 0.000000e+000 -1.000000e+000 0.000000e+000
      outer loop
         vertex 2.680695e+002 9.624300e+002 1.876425e+002
         vertex 1.020445e+002 9.624300e+002 5.178425e+002
         vertex 1.020445e+002 9.624300e+002 1.876425e+002
      endloop
   endfacet
   facet normal 1.000000e+000 0.000000e+000 0.000000e+000
      outer loop
         vertex 2.680695e+002 9.639300e+002 5.178425e+002
         vertex 2.680695e+002 9.624300e+002 5.178425e+002
         vertex 2.680695e+002 9.639300e+002 1.876425e+002
      endloop
   endfacet
   facet normal 1.000000e+000 0.000000e+000 0.000000e+000
      outer loop
         vertex 2.680695e+002 9.639300e+002 1.876425e+002
         vertex 2.680695e+002 9.624300e+002 5.178425e+002
         vertex 2.680695e+002 9.624300e+002 1.876425e+002
      endloop
   endfacet
   facet normal 0.000000e+000 1.000000e+000 0.000000e+000
      outer loop
         vertex 1.020445e+002 9.639300e+002 5.178425e+002
         vertex 2.680695e+002 9.639300e+002 5.178425e+002
         vertex 1.020445e+002 9.639300e+002 1.876425e+002
      endloop
   endfacet
   facet normal 0.000000e+000 1.000000e+000 0.000000e+000
      outer loop
         vertex 1.020445e+002 9.639300e+002 1.876425e+002
         vertex 2.680695e+002 9.639300e+002 5.178425e+002
         vertex 2.680695e+002 9.639300e+002 1.876425e+002
      endloop
   endfacet
   facet normal 0.000000e+000 0.000000e+000 1.000000e+000
      outer loop
         vertex 2.680695e+002 9.624300e+002 5.178425e+002
         vertex 2.680695e+002 9.639300e+002 5.178425e+002
         vertex 1.020445e+002 9.624300e+002 5.178425e+002
      endloop
   endfacet
   facet normal 0.000000e+000 0.000000e+000 1.000000e+000
      outer loop
         vertex 1.020445e+002 9.624300e+002 5.178425e+002
         vertex 2.680695e+002 9.639300e+002 5.178425e+002
         vertex 1.020445e+002 9.639300e+002 5.178425e+002
      endloop
   endfacet
   facet normal 0.000000e+000 0.000000e+000 1.000000e+000
      outer loop
         vertex 1.020445e+002 9.624300e+002 5.178425e+002
         vertex 1.020445e+002 9.639300e+002 5.178425e+002
         vertex 9.306437e+001 9.617233e+002 5.178425e+002
      endloop
   endfacet
   facet normal 0.000000e+000 0.000000e+000 1.000000e+000
      outer loop
         vertex 9.306437e+001 9.617233e+002 5.178425e+002
         vertex 1.020445e+002 9.639300e+002 5.178425e+002
         vertex 9.282970e+001 9.632048e+002 5.178425e+002
      endloop
   endfacet
   facet normal 0.000000e+000 0.000000e+000 1.000000e+000
      outer loop
         vertex 9.306437e+001 9.617233e+002 5.178425e+002
         vertex 9.282970e+001 9.632048e+002 5.178425e+002
         vertex 8.430528e+001 9.596204e+002 5.178425e+002
      endloop
   endfacet
   facet normal 0.000000e+000 0.000000e+000 1.000000e+000
      outer loop
         vertex 8.430528e+001 9.596204e+002 5.178425e+002
         vertex 9.282970e+001 9.632048e+002 5.178425e+002
         vertex 8.384180e+001 9.610470e+002 5.178425e+002
      endloop
   endfacet
   facet normal 0.000000e+000 0.000000e+000 1.000000e+000
      outer loop
         vertex 8.430528e+001 9.596204e+002 5.178425e+002
         vertex 8.384180e+001 9.610470e+002 5.178425e+002
         vertex 7.598311e+001 9.561732e+002 5.178425e+002
      endloop
   endfacet
   facet normal 0.000000e+000 0.000000e+000 1.000000e+000
      outer loop
         vertex 7.598311e+001 9.561732e+002 5.178425e+002
         vertex 8.384180e+001 9.610470e+002 5.178425e+002
         vertex 7.530212e+001 9.575097e+002 5.178425e+002
      endloop
   endfacet
   facet normal 0.000000e+000 0.000000e+000 1.000000e+000
      outer loop
         vertex 7.598311e+001 9.561732e+002 5.178425e+002
         vertex 7.530212e+001 9.575097e+002 5.178425e+002
         vertex 6.830257e+001 9.514666e+002 5.178425e+002
      endloop
   endfacet
   facet normal 0.000000e+000 0.000000e+000 1.000000e+000
      outer loop
         vertex 6.830257e+001 9.514666e+002 5.178425e+002
         vertex 7.530212e+001 9.575097e+002 5.178425e+002
         vertex 6.742090e+001 9.526801e+002 5.178425e+002
      endloop
   endfacet
   facet normal 0.000000e+000 0.000000e+000 1.000000e+000
      outer loop
         vertex 6.830257e+001 9.514666e+002 5.178425e+002
         vertex 6.742090e+001 9.526801e+002 5.178425e+002
         vertex 6.145293e+001 9.456164e+002 5.178425e+002
      endloop
   endfacet
   facet normal 0.000000e+000 0.000000e+000 1.000000e+000
      outer loop
         vertex 6.145293e+001 9.456164e+002 5.178425e+002
         vertex 6.742090e+001 9.526801e+002 5.178425e+002
         vertex 6.039226e+001 9.466771e+002 5.178425e+002
      endloop
   endfacet
   facet normal 0.000000e+000 0.000000e+000 -1.000000e+000
      outer loop
         vertex 6.145293e+001 9.456164e+002 1.876425e+002
         vertex 6.039226e+001 9.466771e+002 1.876425e+002
         vertex 6.830257e+001 9.514666e+002 1.876425e+002
      endloop
   endfacet
   facet normal 0.000000e+000 0.000000e+000 -1.000000e+000
      outer loop
         vertex 6.830257e+001 9.514666e+002 1.876425e+002
         vertex 6.039226e+001 9.466771e+002 1.876425e+002
         vertex 6.742090e+001 9.526801e+002 1.876425e+002
      endloop
   endfacet
   facet normal 0.000000e+000 0.000000e+000 -1.000000e+000
      outer loop
         vertex 6.830257e+001 9.514666e+002 1.876425e+002
         vertex 6.742090e+001 9.526801e+002 1.876425e+002
         vertex 7.598311e+001 9.561732e+002 1.876425e+002
      endloop
   endfacet
   facet normal 0.000000e+000 0.000000e+000 -1.000000e+000
      outer loop
         vertex 7.598311e+001 9.561732e+002 1.876425e+002
         vertex 6.742090e+001 9.526801e+002 1.876425e+002
         vertex 7.530212e+001 9.575097e+002 1.876425e+002
      endloop
   endfacet
   facet normal 0.000000e+000 0.000000e+000 -1.000000e+000
      outer loop
         vertex 7.598311e+001 9.561732e+002 1.876425e+002
         vertex 7.530212e+001 9.575097e+002 1.876425e+002
         vertex 8.430528e+001 9.596204e+002 1.876425e+002
      endloop
   endfacet
   facet normal 0.000000e+000 0.000000e+000 -1.000000e+000
      outer loop
         vertex 8.430528e+001 9.596204e+002 1.876425e+002
         vertex 7.530212e+001 9.575097e+002 1.876425e+002
         vertex 8.384180e+001 9.610470e+002 1.876425e+002
      endloop
   endfacet
   facet normal 0.000000e+000 0.000000e+000 -1.000000e+000
      outer loop
         vertex 8.430528e+001 9.596204e+002 1.876425e+002
         vertex 8.384180e+001 9.610470e+002 1.876425e+002
         vertex 9.306437e+001 9.617233e+002 1.876425e+002
      endloop
   endfacet
   facet normal 0.000000e+000 0.000000e+000 -1.000000e+000
      outer loop
         vertex 9.306437e+001 9.617233e+002 1.876425e+002
         vertex 8.384180e+001 9.610470e+002 1.876425e+002
         vertex 9.282970e+001 9.632048e+002 1.876425e+002
      endloop
   endfacet
   facet normal 0.000000e+000 0.000000e+000 -1.000000e+000
      outer loop
         vertex 9.306437e+001 9.617233e+002 1.876425e+002
         vertex 9.282970e+001 9.632048e+002 1.876425e+002
         vertex 1.020445e+002 9.624300e+002 1.876425e+002
      endloop
   endfacet
   facet normal 0.000000e+000 0.000000e+000 -1.000000e+000
      outer loop
         vertex 1.020445e+002 9.624300e+002 1.876425e+002
         vertex 9.282970e+001 9.632048e+002 1.876425e+002
         vertex 1.020445e+002 9.639300e+002 1.876425e+002
      endloop
   endfacet
   facet normal 0.000000e+000 0.000000e+000 -1.000000e+000
      outer loop
         vertex 1.020445e+002 9.624300e+002 1.876425e+002
         vertex 1.020445e+002 9.639300e+002 1.876425e+002
         vertex 2.680695e+002 9.624300e+002 1.876425e+002
      endloop
   endfacet
   facet normal 0.000000e+000 0.000000e+000 -1.000000e+000
      outer loop
         vertex 2.680695e+002 9.624300e+002 1.876425e+002
         vertex 1.020445e+002 9.639300e+002 1.876425e+002
         vertex 2.680695e+002 9.639300e+002 1.876425e+002
      endloop
   endfacet
endsolid