solid FPM - 300-TableCage-1 311-PlateYoke-3
   facet normal 6.340735e-019 -1.000000e+000 1.589439e-015
      outer loop
         vertex 1.225995e+003 8.255000e+002 9.239250e+001
         vertex 1.225995e+003 8.255000e+002 2.254251e+001
         vertex 1.232344e+003 8.255000e+002 9.239250e+001
      endloop
   endfacet
   facet normal 6.340735e-019 -1.000000e+000 1.589439e-015
      outer loop
         vertex 1.232344e+003 8.255000e+002 9.239250e+001
         vertex 1.225995e+003 8.255000e+002 2.254251e+001
         vertex 1.232344e+003 8.255000e+002 2.254251e+001
      endloop
   endfacet
   facet normal 1.644330e-017 0.000000e+000 1.000000e+000
      outer loop
         vertex 1.225995e+003 9.779000e+002 9.239250e+001
         vertex 1.225995e+003 8.255000e+002 9.239250e+001
         vertex 1.232344e+003 9.779000e+002 9.239250e+001
      endloop
   endfacet
   facet normal 1.644330e-017 0.000000e+000 1.000000e+000
      outer loop
         vertex 1.232344e+003 9.779000e+002 9.239250e+001
         vertex 1.225995e+003 8.255000e+002 9.239250e+001
         vertex 1.232344e+003 8.255000e+002 9.239250e+001
      endloop
   endfacet
   facet normal -6.340735e-019 1.000000e+000 0.000000e+000
      outer loop
         vertex 1.225995e+003 9.779000e+002 2.254251e+001
         vertex 1.225995e+003 9.779000e+002 9.239250e+001
         vertex 1.232344e+003 9.779000e+002 2.254251e+001
      endloop
   endfacet
   facet normal -6.340735e-019 1.000000e+000 0.000000e+000
      outer loop
         vertex 1.232344e+003 9.779000e+002 2.254251e+001
         vertex 1.225995e+003 9.779000e+002 9.239250e+001
         vertex 1.232344e+003 9.779000e+002 9.239250e+001
      endloop
   endfacet
   facet normal -1.644330e-017 3.642464e-016 -1.000000e+000
      outer loop
         vertex 1.225995e+003 8.255000e+002 2.254251e+001
         vertex 1.225995e+003 9.779000e+002 2.254251e+001
         vertex 1.232344e+003 8.255000e+002 2.254251e+001
      endloop
   endfacet
   facet normal -1.644330e-017 3.642464e-016 -1.000000e+000
      outer loop
         vertex 1.232344e+003 8.255000e+002 2.254251e+001
         vertex 1.225995e+003 9.779000e+002 2.254251e+001
         vertex 1.232344e+003 9.779000e+002 2.254251e+001
      endloop
   endfacet
   facet normal -1.000000e+000 -6.340735e-019 1.644330e-017
      outer loop
         vertex 1.225995e+003 9.571902e+002 8.181825e+001
         vertex 1.225995e+003 9.572625e+002 8.264524e+001
         vertex 1.225995e+003 9.779000e+002 9.239250e+001
      endloop
   endfacet
   facet normal -1.000000e+000 -6.340735e-019 1.644330e-017
      outer loop
         vertex 1.225995e+003 9.779000e+002 9.239250e+001
         vertex 1.225995e+003 9.572625e+002 8.264524e+001
         vertex 1.225995e+003 9.571902e+002 8.347225e+001
      endloop
   endfacet
   facet normal -1.000000e+000 -6.340735e-019 1.644330e-017
      outer loop
         vertex 1.225995e+003 8.617253e+002 8.427412e+001
         vertex 1.225995e+003 8.613745e+002 8.502650e+001
         vertex 1.225995e+003 9.480248e+002 8.427412e+001
      endloop
   endfacet
   facet normal -1.000000e+000 -6.340735e-019 1.644330e-017
      outer loop
         vertex 1.225995e+003 8.524875e+002 8.264524e+001
         vertex 1.225995e+003 8.255000e+002 9.239250e+001
         vertex 1.225995e+003 8.525599e+002 8.347225e+001
      endloop
   endfacet
   facet normal -1.000000e+000 -6.340735e-019 1.644330e-017
      outer loop
         vertex 1.225995e+003 8.525599e+002 8.347225e+001
         vertex 1.225995e+003 8.255000e+002 9.239250e+001
         vertex 1.225995e+003 8.527747e+002 8.427412e+001
      endloop
   endfacet
   facet normal -1.000000e+000 -6.340735e-019 1.644330e-017
      outer loop
         vertex 1.225995e+003 8.536017e+002 7.958397e+001
         vertex 1.225995e+003 8.541887e+002 7.899696e+001
         vertex 1.225995e+003 8.255000e+002 2.254251e+001
      endloop
   endfacet
   facet normal -1.000000e+000 -6.340735e-019 1.644330e-017
      outer loop
         vertex 1.225995e+003 8.596312e+002 7.852081e+001
         vertex 1.225995e+003 8.603113e+002 7.899696e+001
         vertex 1.225995e+003 9.779000e+002 2.254251e+001
      endloop
   endfacet
   facet normal -1.000000e+000 -6.340735e-019 1.644330e-017
      outer loop
         vertex 1.225995e+003 9.571902e+002 8.347225e+001
         vertex 1.225995e+003 9.569753e+002 8.427412e+001
         vertex 1.225995e+003 9.779000e+002 9.239250e+001
      endloop
   endfacet
   facet normal -1.000000e+000 -6.340735e-019 1.644330e-017
      outer loop
         vertex 1.225995e+003 9.779000e+002 9.239250e+001
         vertex 1.225995e+003 9.569753e+002 8.427412e+001
         vertex 1.225995e+003 9.566245e+002 8.502650e+001
      endloop
   endfacet
   facet normal -1.000000e+000 -6.340735e-019 1.644330e-017
      outer loop
         vertex 1.225995e+003 9.779000e+002 9.239250e+001
         vertex 1.225995e+003 9.566245e+002 8.502650e+001
         vertex 1.225995e+003 9.561483e+002 8.570654e+001
      endloop
   endfacet
   facet normal -1.000000e+000 -6.340735e-019 1.644330e-017
      outer loop
         vertex 1.225995e+003 8.524875e+002 8.264524e+001
         vertex 1.225995e+003 8.525599e+002 8.181825e+001
         vertex 1.225995e+003 8.255000e+002 9.239250e+001
      endloop
   endfacet
   facet normal -1.000000e+000 -6.340735e-019 1.644330e-017
      outer loop
         vertex 1.225995e+003 8.255000e+002 9.239250e+001
         vertex 1.225995e+003 8.525599e+002 8.181825e+001
         vertex 1.225995e+003 8.527747e+002 8.101637e+001
      endloop
   endfacet
   facet normal -1.000000e+000 -6.340735e-019 1.644330e-017
      outer loop
         vertex 1.225995e+003 8.255000e+002 9.239250e+001
         vertex 1.225995e+003 8.527747e+002 8.101637e+001
         vertex 1.225995e+003 8.255000e+002 2.254251e+001
      endloop
   endfacet
   facet normal -1.000000e+000 -6.340735e-019 1.644330e-017
      outer loop
         vertex 1.225995e+003 8.255000e+002 2.254251e+001
         vertex 1.225995e+003 8.527747e+002 8.101637e+001
         vertex 1.225995e+003 8.531255e+002 8.026400e+001
      endloop
   endfacet
   facet normal -1.000000e+000 -6.340735e-019 1.644330e-017
      outer loop
         vertex 1.225995e+003 8.255000e+002 2.254251e+001
         vertex 1.225995e+003 8.531255e+002 8.026400e+001
         vertex 1.225995e+003 8.536017e+002 7.958397e+001
      endloop
   endfacet
   facet normal -1.000000e+000 -6.340735e-019 1.644330e-017
      outer loop
         vertex 1.225995e+003 9.561483e+002 8.570654e+001
         vertex 1.225995e+003 9.555613e+002 8.629352e+001
         vertex 1.225995e+003 9.779000e+002 9.239250e+001
      endloop
   endfacet
   facet normal -1.000000e+000 -6.340735e-019 1.644330e-017
      outer loop
         vertex 1.225995e+003 9.779000e+002 9.239250e+001
         vertex 1.225995e+003 9.555613e+002 8.629352e+001
         vertex 1.225995e+003 9.548812e+002 8.676970e+001
      endloop
   endfacet
   facet normal -1.000000e+000 -6.340735e-019 1.644330e-017
      outer loop
         vertex 1.225995e+003 9.779000e+002 9.239250e+001
         vertex 1.225995e+003 9.548812e+002 8.676970e+001
         vertex 1.225995e+003 9.541288e+002 8.712053e+001
      endloop
   endfacet
   facet normal -1.000000e+000 -6.340735e-019 1.644330e-017
      outer loop
         vertex 1.225995e+003 9.508712e+002 8.712053e+001
         vertex 1.225995e+003 9.501188e+002 8.676970e+001
         vertex 1.225995e+003 8.255000e+002 9.239250e+001
      endloop
   endfacet
   facet normal -1.000000e+000 -6.340735e-019 1.644330e-017
      outer loop
         vertex 1.225995e+003 8.255000e+002 9.239250e+001
         vertex 1.225995e+003 9.501188e+002 8.676970e+001
         vertex 1.225995e+003 9.494387e+002 8.629352e+001
      endloop
   endfacet
   facet normal -1.000000e+000 -6.340735e-019 1.644330e-017
      outer loop
         vertex 1.225995e+003 9.494387e+002 8.629352e+001
         vertex 1.225995e+003 9.488517e+002 8.570654e+001
         vertex 1.225995e+003 8.255000e+002 9.239250e+001
      endloop
   endfacet
   facet normal -1.000000e+000 -6.340735e-019 1.644330e-017
      outer loop
         vertex 1.225995e+003 8.255000e+002 9.239250e+001
         vertex 1.225995e+003 9.488517e+002 8.570654e+001
         vertex 1.225995e+003 9.483756e+002 8.502650e+001
      endloop
   endfacet
   facet normal -1.000000e+000 -6.340735e-019 1.644330e-017
      outer loop
         vertex 1.225995e+003 8.255000e+002 9.239250e+001
         vertex 1.225995e+003 9.483756e+002 8.502650e+001
         vertex 1.225995e+003 9.480248e+002 8.427412e+001
      endloop
   endfacet
   facet normal -1.000000e+000 -6.340735e-019 1.644330e-017
      outer loop
         vertex 1.225995e+003 8.613745e+002 8.502650e+001
         vertex 1.225995e+003 8.608983e+002 8.570654e+001
         vertex 1.225995e+003 9.480248e+002 8.427412e+001
      endloop
   endfacet
   facet normal -1.000000e+000 -6.340735e-019 1.644330e-017
      outer loop
         vertex 1.225995e+003 9.480248e+002 8.427412e+001
         vertex 1.225995e+003 8.608983e+002 8.570654e+001
         vertex 1.225995e+003 8.603113e+002 8.629352e+001
      endloop
   endfacet
   facet normal -1.000000e+000 -6.340735e-019 1.644330e-017
      outer loop
         vertex 1.225995e+003 9.480248e+002 8.427412e+001
         vertex 1.225995e+003 8.603113e+002 8.629352e+001
         vertex 1.225995e+003 8.596312e+002 8.676970e+001
      endloop
   endfacet
   facet normal -1.000000e+000 -6.340735e-019 1.644330e-017
      outer loop
         vertex 1.225995e+003 8.603113e+002 7.899696e+001
         vertex 1.225995e+003 8.608983e+002 7.958397e+001
         vertex 1.225995e+003 9.779000e+002 2.254251e+001
      endloop
   endfacet
   facet normal -1.000000e+000 -6.340735e-019 1.644330e-017
      outer loop
         vertex 1.225995e+003 9.779000e+002 2.254251e+001
         vertex 1.225995e+003 8.608983e+002 7.958397e+001
         vertex 1.225995e+003 8.613745e+002 8.026400e+001
      endloop
   endfacet
   facet normal -1.000000e+000 -6.340735e-019 1.644330e-017
      outer loop
         vertex 1.225995e+003 9.779000e+002 2.254251e+001
         vertex 1.225995e+003 8.613745e+002 8.026400e+001
         vertex 1.225995e+003 8.617253e+002 8.101637e+001
      endloop
   endfacet
   facet normal -1.000000e+000 -6.340735e-019 1.644330e-017
      outer loop
         vertex 1.225995e+003 8.541887e+002 8.629352e+001
         vertex 1.225995e+003 8.536017e+002 8.570654e+001
         vertex 1.225995e+003 8.255000e+002 9.239250e+001
      endloop
   endfacet
   facet normal -1.000000e+000 -6.340735e-019 1.644330e-017
      outer loop
         vertex 1.225995e+003 8.255000e+002 9.239250e+001
         vertex 1.225995e+003 8.536017e+002 8.570654e+001
         vertex 1.225995e+003 8.531255e+002 8.502650e+001
      endloop
   endfacet
   facet normal -1.000000e+000 -6.340735e-019 1.644330e-017
      outer loop
         vertex 1.225995e+003 8.255000e+002 9.239250e+001
         vertex 1.225995e+003 8.531255e+002 8.502650e+001
         vertex 1.225995e+003 8.527747e+002 8.427412e+001
      endloop
   endfacet
   facet normal -1.000000e+000 -6.340735e-019 1.644330e-017
      outer loop
         vertex 1.225995e+003 8.617253e+002 8.427412e+001
         vertex 1.225995e+003 9.480248e+002 8.427412e+001
         vertex 1.225995e+003 8.619401e+002 8.347225e+001
      endloop
   endfacet
   facet normal -1.000000e+000 -6.340735e-019 1.644330e-017
      outer loop
         vertex 1.225995e+003 8.619401e+002 8.347225e+001
         vertex 1.225995e+003 9.480248e+002 8.427412e+001
         vertex 1.225995e+003 9.478099e+002 8.347225e+001
      endloop
   endfacet
   facet normal -1.000000e+000 -6.340735e-019 1.644330e-017
      outer loop
         vertex 1.225995e+003 8.619401e+002 8.347225e+001
         vertex 1.225995e+003 9.478099e+002 8.347225e+001
         vertex 1.225995e+003 8.620125e+002 8.264524e+001
      endloop
   endfacet
   facet normal -1.000000e+000 -6.340735e-019 1.644330e-017
      outer loop
         vertex 1.225995e+003 8.620125e+002 8.264524e+001
         vertex 1.225995e+003 9.478099e+002 8.347225e+001
         vertex 1.225995e+003 9.477375e+002 8.264524e+001
      endloop
   endfacet
   facet normal -1.000000e+000 -6.340735e-019 1.644330e-017
      outer loop
         vertex 1.225995e+003 8.620125e+002 8.264524e+001
         vertex 1.225995e+003 9.477375e+002 8.264524e+001
         vertex 1.225995e+003 8.619401e+002 8.181825e+001
      endloop
   endfacet
   facet normal -1.000000e+000 -6.340735e-019 1.644330e-017
      outer loop
         vertex 1.225995e+003 8.619401e+002 8.181825e+001
         vertex 1.225995e+003 9.477375e+002 8.264524e+001
         vertex 1.225995e+003 9.478099e+002 8.181825e+001
      endloop
   endfacet
   facet normal -1.000000e+000 -6.340735e-019 1.644330e-017
      outer loop
         vertex 1.225995e+003 8.619401e+002 8.181825e+001
         vertex 1.225995e+003 9.478099e+002 8.181825e+001
         vertex 1.225995e+003 8.617253e+002 8.101637e+001
      endloop
   endfacet
   facet normal -1.000000e+000 -6.340735e-019 1.644330e-017
      outer loop
         vertex 1.225995e+003 8.617253e+002 8.101637e+001
         vertex 1.225995e+003 9.478099e+002 8.181825e+001
         vertex 1.225995e+003 9.480248e+002 8.101637e+001
      endloop
   endfacet
   facet normal -1.000000e+000 -6.340735e-019 1.644330e-017
      outer loop
         vertex 1.225995e+003 8.617253e+002 8.101637e+001
         vertex 1.225995e+003 9.480248e+002 8.101637e+001
         vertex 1.225995e+003 9.483756e+002 8.026400e+001
      endloop
   endfacet
   facet normal -1.000000e+000 -6.340735e-019 1.644330e-017
      outer loop
         vertex 1.225995e+003 9.541288e+002 8.712053e+001
         vertex 1.225995e+003 9.533270e+002 8.733538e+001
         vertex 1.225995e+003 9.779000e+002 9.239250e+001
      endloop
   endfacet
   facet normal -1.000000e+000 -6.340735e-019 1.644330e-017
      outer loop
         vertex 1.225995e+003 9.779000e+002 9.239250e+001
         vertex 1.225995e+003 9.533270e+002 8.733538e+001
         vertex 1.225995e+003 9.525001e+002 8.740774e+001
      endloop
   endfacet
   facet normal -1.000000e+000 -6.340735e-019 1.644330e-017
      outer loop
         vertex 1.225995e+003 9.779000e+002 9.239250e+001
         vertex 1.225995e+003 9.525001e+002 8.740774e+001
         vertex 1.225995e+003 8.255000e+002 9.239250e+001
      endloop
   endfacet
   facet normal -1.000000e+000 -6.340735e-019 1.644330e-017
      outer loop
         vertex 1.225995e+003 8.255000e+002 9.239250e+001
         vertex 1.225995e+003 9.525001e+002 8.740774e+001
         vertex 1.225995e+003 9.516730e+002 8.733538e+001
      endloop
   endfacet
   facet normal -1.000000e+000 -6.340735e-019 1.644330e-017
      outer loop
         vertex 1.225995e+003 8.255000e+002 9.239250e+001
         vertex 1.225995e+003 9.516730e+002 8.733538e+001
         vertex 1.225995e+003 9.508712e+002 8.712053e+001
      endloop
   endfacet
   facet normal -1.000000e+000 -6.340735e-019 1.644330e-017
      outer loop
         vertex 1.225995e+003 8.541887e+002 7.899696e+001
         vertex 1.225995e+003 8.548688e+002 7.852081e+001
         vertex 1.225995e+003 8.255000e+002 2.254251e+001
      endloop
   endfacet
   facet normal -1.000000e+000 -6.340735e-019 1.644330e-017
      outer loop
         vertex 1.225995e+003 8.255000e+002 2.254251e+001
         vertex 1.225995e+003 8.548688e+002 7.852081e+001
         vertex 1.225995e+003 8.556212e+002 7.816998e+001
      endloop
   endfacet
   facet normal -1.000000e+000 -6.340735e-019 1.644330e-017
      outer loop
         vertex 1.225995e+003 8.255000e+002 2.254251e+001
         vertex 1.225995e+003 8.556212e+002 7.816998e+001
         vertex 1.225995e+003 8.564230e+002 7.795509e+001
      endloop
   endfacet
   facet normal -1.000000e+000 -6.340735e-019 1.644330e-017
      outer loop
         vertex 1.225995e+003 9.483756e+002 8.026400e+001
         vertex 1.225995e+003 9.488517e+002 7.958397e+001
         vertex 1.225995e+003 8.617253e+002 8.101637e+001
      endloop
   endfacet
   facet normal -1.000000e+000 -6.340735e-019 1.644330e-017
      outer loop
         vertex 1.225995e+003 8.617253e+002 8.101637e+001
         vertex 1.225995e+003 9.488517e+002 7.958397e+001
         vertex 1.225995e+003 9.494387e+002 7.899696e+001
      endloop
   endfacet
   facet normal -1.000000e+000 -6.340735e-019 1.644330e-017
      outer loop
         vertex 1.225995e+003 8.617253e+002 8.101637e+001
         vertex 1.225995e+003 9.494387e+002 7.899696e+001
         vertex 1.225995e+003 9.779000e+002 2.254251e+001
      endloop
   endfacet
   facet normal -1.000000e+000 -6.340735e-019 1.644330e-017
      outer loop
         vertex 1.225995e+003 9.779000e+002 2.254251e+001
         vertex 1.225995e+003 9.494387e+002 7.899696e+001
         vertex 1.225995e+003 9.501188e+002 7.852081e+001
      endloop
   endfacet
   facet normal -1.000000e+000 -6.340735e-019 1.644330e-017
      outer loop
         vertex 1.225995e+003 9.779000e+002 2.254251e+001
         vertex 1.225995e+003 9.501188e+002 7.852081e+001
         vertex 1.225995e+003 9.508712e+002 7.816998e+001
      endloop
   endfacet
   facet normal -1.000000e+000 -6.340735e-019 1.644330e-017
      outer loop
         vertex 1.225995e+003 9.508712e+002 7.816998e+001
         vertex 1.225995e+003 9.516730e+002 7.795509e+001
         vertex 1.225995e+003 9.779000e+002 2.254251e+001
      endloop
   endfacet
   facet normal -1.000000e+000 -6.340735e-019 1.644330e-017
      outer loop
         vertex 1.225995e+003 9.779000e+002 2.254251e+001
         vertex 1.225995e+003 9.516730e+002 7.795509e+001
         vertex 1.225995e+003 9.525001e+002 7.788274e+001
      endloop
   endfacet
   facet normal -1.000000e+000 -6.340735e-019 1.644330e-017
      outer loop
         vertex 1.225995e+003 9.779000e+002 2.254251e+001
         vertex 1.225995e+003 9.525001e+002 7.788274e+001
         vertex 1.225995e+003 9.533270e+002 7.795509e+001
      endloop
   endfacet
   facet normal -1.000000e+000 -6.340735e-019 1.644330e-017
      outer loop
         vertex 1.225995e+003 9.533270e+002 7.795509e+001
         vertex 1.225995e+003 9.541288e+002 7.816998e+001
         vertex 1.225995e+003 9.779000e+002 2.254251e+001
      endloop
   endfacet
   facet normal -1.000000e+000 -6.340735e-019 1.644330e-017
      outer loop
         vertex 1.225995e+003 9.779000e+002 2.254251e+001
         vertex 1.225995e+003 9.541288e+002 7.816998e+001
         vertex 1.225995e+003 9.548812e+002 7.852081e+001
      endloop
   endfacet
   facet normal -1.000000e+000 -6.340735e-019 1.644330e-017
      outer loop
         vertex 1.225995e+003 9.779000e+002 2.254251e+001
         vertex 1.225995e+003 9.548812e+002 7.852081e+001
         vertex 1.225995e+003 9.555613e+002 7.899696e+001
      endloop
   endfacet
   facet normal -1.000000e+000 -6.340735e-019 1.644330e-017
      outer loop
         vertex 1.225995e+003 9.555613e+002 7.899696e+001
         vertex 1.225995e+003 9.561483e+002 7.958397e+001
         vertex 1.225995e+003 9.779000e+002 2.254251e+001
      endloop
   endfacet
   facet normal -1.000000e+000 -6.340735e-019 1.644330e-017
      outer loop
         vertex 1.225995e+003 9.779000e+002 2.254251e+001
         vertex 1.225995e+003 9.561483e+002 7.958397e+001
         vertex 1.225995e+003 9.566245e+002 8.026400e+001
      endloop
   endfacet
   facet normal -1.000000e+000 -6.340735e-019 1.644330e-017
      outer loop
         vertex 1.225995e+003 9.779000e+002 2.254251e+001
         vertex 1.225995e+003 9.566245e+002 8.026400e+001
         vertex 1.225995e+003 9.779000e+002 9.239250e+001
      endloop
   endfacet
   facet normal -1.000000e+000 -6.340735e-019 1.644330e-017
      outer loop
         vertex 1.225995e+003 9.779000e+002 9.239250e+001
         vertex 1.225995e+003 9.566245e+002 8.026400e+001
         vertex 1.225995e+003 9.569753e+002 8.101637e+001
      endloop
   endfacet
   facet normal -1.000000e+000 -6.340735e-019 1.644330e-017
      outer loop
         vertex 1.225995e+003 9.779000e+002 9.239250e+001
         vertex 1.225995e+003 9.569753e+002 8.101637e+001
         vertex 1.225995e+003 9.571902e+002 8.181825e+001
      endloop
   endfacet
   facet normal -1.000000e+000 -6.340735e-019 1.644330e-017
      outer loop
         vertex 1.225995e+003 8.564230e+002 8.733538e+001
         vertex 1.225995e+003 8.556212e+002 8.712053e+001
         vertex 1.225995e+003 8.255000e+002 9.239250e+001
      endloop
   endfacet
   facet normal -1.000000e+000 -6.340735e-019 1.644330e-017
      outer loop
         vertex 1.225995e+003 8.255000e+002 9.239250e+001
         vertex 1.225995e+003 8.556212e+002 8.712053e+001
         vertex 1.225995e+003 8.548688e+002 8.676970e+001
      endloop
   endfacet
   facet normal -1.000000e+000 -6.340735e-019 1.644330e-017
      outer loop
         vertex 1.225995e+003 8.255000e+002 9.239250e+001
         vertex 1.225995e+003 8.548688e+002 8.676970e+001
         vertex 1.225995e+003 8.541887e+002 8.629352e+001
      endloop
   endfacet
   facet normal -1.000000e+000 -6.340735e-019 1.644330e-017
      outer loop
         vertex 1.225995e+003 8.564230e+002 7.795509e+001
         vertex 1.225995e+003 8.572501e+002 7.788274e+001
         vertex 1.225995e+003 8.255000e+002 2.254251e+001
      endloop
   endfacet
   facet normal -1.000000e+000 -6.340735e-019 1.644330e-017
      outer loop
         vertex 1.225995e+003 8.255000e+002 2.254251e+001
         vertex 1.225995e+003 8.572501e+002 7.788274e+001
         vertex 1.225995e+003 8.580770e+002 7.795509e+001
      endloop
   endfacet
   facet normal -1.000000e+000 -6.340735e-019 1.644330e-017
      outer loop
         vertex 1.225995e+003 8.255000e+002 2.254251e+001
         vertex 1.225995e+003 8.580770e+002 7.795509e+001
         vertex 1.225995e+003 9.779000e+002 2.254251e+001
      endloop
   endfacet
   facet normal -1.000000e+000 -6.340735e-019 1.644330e-017
      outer loop
         vertex 1.225995e+003 9.779000e+002 2.254251e+001
         vertex 1.225995e+003 8.580770e+002 7.795509e+001
         vertex 1.225995e+003 8.588789e+002 7.816998e+001
      endloop
   endfacet
   facet normal -1.000000e+000 -6.340735e-019 1.644330e-017
      outer loop
         vertex 1.225995e+003 9.779000e+002 2.254251e+001
         vertex 1.225995e+003 8.588789e+002 7.816998e+001
         vertex 1.225995e+003 8.596312e+002 7.852081e+001
      endloop
   endfacet
   facet normal -1.000000e+000 -6.340735e-019 1.644330e-017
      outer loop
         vertex 1.225995e+003 8.596312e+002 8.676970e+001
         vertex 1.225995e+003 8.588789e+002 8.712053e+001
         vertex 1.225995e+003 9.480248e+002 8.427412e+001
      endloop
   endfacet
   facet normal -1.000000e+000 -6.340735e-019 1.644330e-017
      outer loop
         vertex 1.225995e+003 9.480248e+002 8.427412e+001
         vertex 1.225995e+003 8.588789e+002 8.712053e+001
         vertex 1.225995e+003 8.580770e+002 8.733538e+001
      endloop
   endfacet
   facet normal -1.000000e+000 -6.340735e-019 1.644330e-017
      outer loop
         vertex 1.225995e+003 9.480248e+002 8.427412e+001
         vertex 1.225995e+003 8.580770e+002 8.733538e+001
         vertex 1.225995e+003 8.255000e+002 9.239250e+001
      endloop
   endfacet
   facet normal -1.000000e+000 -6.340735e-019 1.644330e-017
      outer loop
         vertex 1.225995e+003 8.255000e+002 9.239250e+001
         vertex 1.225995e+003 8.580770e+002 8.733538e+001
         vertex 1.225995e+003 8.572501e+002 8.740774e+001
      endloop
   endfacet
   facet normal -1.000000e+000 -6.340735e-019 1.644330e-017
      outer loop
         vertex 1.225995e+003 8.255000e+002 9.239250e+001
         vertex 1.225995e+003 8.572501e+002 8.740774e+001
         vertex 1.225995e+003 8.564230e+002 8.733538e+001
      endloop
   endfacet
   facet normal 1.000000e+000 6.340735e-019 -1.644330e-017
      outer loop
         vertex 1.232344e+003 8.525599e+002 8.181825e+001
         vertex 1.232344e+003 8.524875e+002 8.264524e+001
         vertex 1.232344e+003 8.255000e+002 9.239250e+001
      endloop
   endfacet
   facet normal 1.000000e+000 6.340735e-019 -1.644330e-017
      outer loop
         vertex 1.232344e+003 8.524875e+002 8.264524e+001
         vertex 1.232344e+003 8.525599e+002 8.347225e+001
         vertex 1.232344e+003 8.255000e+002 9.239250e+001
      endloop
   endfacet
   facet normal 1.000000e+000 6.340735e-019 -1.644330e-017
      outer loop
         vertex 1.232344e+003 8.255000e+002 9.239250e+001
         vertex 1.232344e+003 8.525599e+002 8.347225e+001
         vertex 1.232344e+003 8.527747e+002 8.427412e+001
      endloop
   endfacet
   facet normal 1.000000e+000 6.340735e-019 -1.644330e-017
      outer loop
         vertex 1.232344e+003 8.255000e+002 9.239250e+001
         vertex 1.232344e+003 8.527747e+002 8.427412e+001
         vertex 1.232344e+003 8.531255e+002 8.502650e+001
      endloop
   endfacet
   facet normal 1.000000e+000 6.340735e-019 -1.644330e-017
      outer loop
         vertex 1.232344e+003 8.617253e+002 8.101637e+001
         vertex 1.232344e+003 8.613745e+002 8.026400e+001
         vertex 1.232344e+003 9.779000e+002 2.254251e+001
      endloop
   endfacet
   facet normal 1.000000e+000 6.340735e-019 -1.644330e-017
      outer loop
         vertex 1.232344e+003 9.779000e+002 2.254251e+001
         vertex 1.232344e+003 8.613745e+002 8.026400e+001
         vertex 1.232344e+003 8.608983e+002 7.958397e+001
      endloop
   endfacet
   facet normal 1.000000e+000 6.340735e-019 -1.644330e-017
      outer loop
         vertex 1.232344e+003 8.531255e+002 8.502650e+001
         vertex 1.232344e+003 8.536017e+002 8.570654e+001
         vertex 1.232344e+003 8.255000e+002 9.239250e+001
      endloop
   endfacet
   facet normal 1.000000e+000 6.340735e-019 -1.644330e-017
      outer loop
         vertex 1.232344e+003 8.255000e+002 9.239250e+001
         vertex 1.232344e+003 8.536017e+002 8.570654e+001
         vertex 1.232344e+003 8.541887e+002 8.629352e+001
      endloop
   endfacet
   facet normal 1.000000e+000 6.340735e-019 -1.644330e-017
      outer loop
         vertex 1.232344e+003 8.255000e+002 9.239250e+001
         vertex 1.232344e+003 8.541887e+002 8.629352e+001
         vertex 1.232344e+003 8.548688e+002 8.676970e+001
      endloop
   endfacet
   facet normal 1.000000e+000 6.340735e-019 -1.644330e-017
      outer loop
         vertex 1.232344e+003 9.571902e+002 8.347225e+001
         vertex 1.232344e+003 9.572625e+002 8.264524e+001
         vertex 1.232344e+003 9.779000e+002 9.239250e+001
      endloop
   endfacet
   facet normal 1.000000e+000 6.340735e-019 -1.644330e-017
      outer loop
         vertex 1.232344e+003 8.541887e+002 7.899696e+001
         vertex 1.232344e+003 8.536017e+002 7.958397e+001
         vertex 1.232344e+003 8.255000e+002 2.254251e+001
      endloop
   endfacet
   facet normal 1.000000e+000 6.340735e-019 -1.644330e-017
      outer loop
         vertex 1.232344e+003 8.255000e+002 2.254251e+001
         vertex 1.232344e+003 8.536017e+002 7.958397e+001
         vertex 1.232344e+003 8.531255e+002 8.026400e+001
      endloop
   endfacet
   facet normal 1.000000e+000 6.340735e-019 -1.644330e-017
      outer loop
         vertex 1.232344e+003 8.255000e+002 2.254251e+001
         vertex 1.232344e+003 8.531255e+002 8.026400e+001
         vertex 1.232344e+003 8.255000e+002 9.239250e+001
      endloop
   endfacet
   facet normal 1.000000e+000 6.340735e-019 -1.644330e-017
      outer loop
         vertex 1.232344e+003 8.255000e+002 9.239250e+001
         vertex 1.232344e+003 8.531255e+002 8.026400e+001
         vertex 1.232344e+003 8.527747e+002 8.101637e+001
      endloop
   endfacet
   facet normal 1.000000e+000 6.340735e-019 -1.644330e-017
      outer loop
         vertex 1.232344e+003 8.255000e+002 9.239250e+001
         vertex 1.232344e+003 8.527747e+002 8.101637e+001
         vertex 1.232344e+003 8.525599e+002 8.181825e+001
      endloop
   endfacet
   facet normal 1.000000e+000 6.340735e-019 -1.644330e-017
      outer loop
         vertex 1.232344e+003 9.488517e+002 8.570654e+001
         vertex 1.232344e+003 8.255000e+002 9.239250e+001
         vertex 1.232344e+003 9.483756e+002 8.502650e+001
      endloop
   endfacet
   facet normal 1.000000e+000 6.340735e-019 -1.644330e-017
      outer loop
         vertex 1.232344e+003 9.483756e+002 8.502650e+001
         vertex 1.232344e+003 8.255000e+002 9.239250e+001
         vertex 1.232344e+003 9.480248e+002 8.427412e+001
      endloop
   endfacet
   facet normal 1.000000e+000 6.340735e-019 -1.644330e-017
      outer loop
         vertex 1.232344e+003 8.548688e+002 8.676970e+001
         vertex 1.232344e+003 8.556212e+002 8.712053e+001
         vertex 1.232344e+003 8.255000e+002 9.239250e+001
      endloop
   endfacet
   facet normal 1.000000e+000 6.340735e-019 -1.644330e-017
      outer loop
         vertex 1.232344e+003 8.255000e+002 9.239250e+001
         vertex 1.232344e+003 8.556212e+002 8.712053e+001
         vertex 1.232344e+003 8.564230e+002 8.733538e+001
      endloop
   endfacet
   facet normal 1.000000e+000 6.340735e-019 -1.644330e-017
      outer loop
         vertex 1.232344e+003 8.255000e+002 9.239250e+001
         vertex 1.232344e+003 8.564230e+002 8.733538e+001
         vertex 1.232344e+003 8.572501e+002 8.740774e+001
      endloop
   endfacet
   facet normal 1.000000e+000 6.340735e-019 -1.644330e-017
      outer loop
         vertex 1.232344e+003 9.488517e+002 8.570654e+001
         vertex 1.232344e+003 9.494387e+002 8.629352e+001
         vertex 1.232344e+003 8.255000e+002 9.239250e+001
      endloop
   endfacet
   facet normal 1.000000e+000 6.340735e-019 -1.644330e-017
      outer loop
         vertex 1.232344e+003 8.255000e+002 9.239250e+001
         vertex 1.232344e+003 9.494387e+002 8.629352e+001
         vertex 1.232344e+003 9.501188e+002 8.676970e+001
      endloop
   endfacet
   facet normal 1.000000e+000 6.340735e-019 -1.644330e-017
      outer loop
         vertex 1.232344e+003 8.255000e+002 9.239250e+001
         vertex 1.232344e+003 9.501188e+002 8.676970e+001
         vertex 1.232344e+003 9.508712e+002 8.712053e+001
      endloop
   endfacet
   facet normal 1.000000e+000 6.340735e-019 -1.644330e-017
      outer loop
         vertex 1.232344e+003 9.541288e+002 8.712053e+001
         vertex 1.232344e+003 9.548812e+002 8.676970e+001
         vertex 1.232344e+003 9.779000e+002 9.239250e+001
      endloop
   endfacet
   facet normal 1.000000e+000 6.340735e-019 -1.644330e-017
      outer loop
         vertex 1.232344e+003 9.779000e+002 9.239250e+001
         vertex 1.232344e+003 9.548812e+002 8.676970e+001
         vertex 1.232344e+003 9.555613e+002 8.629352e+001
      endloop
   endfacet
   facet normal 1.000000e+000 6.340735e-019 -1.644330e-017
      outer loop
         vertex 1.232344e+003 9.779000e+002 9.239250e+001
         vertex 1.232344e+003 9.555613e+002 8.629352e+001
         vertex 1.232344e+003 9.561483e+002 8.570654e+001
      endloop
   endfacet
   facet normal 1.000000e+000 6.340735e-019 -1.644330e-017
      outer loop
         vertex 1.232344e+003 9.561483e+002 8.570654e+001
         vertex 1.232344e+003 9.566245e+002 8.502650e+001
         vertex 1.232344e+003 9.779000e+002 9.239250e+001
      endloop
   endfacet
   facet normal 1.000000e+000 6.340735e-019 -1.644330e-017
      outer loop
         vertex 1.232344e+003 9.779000e+002 9.239250e+001
         vertex 1.232344e+003 9.566245e+002 8.502650e+001
         vertex 1.232344e+003 9.569753e+002 8.427412e+001
      endloop
   endfacet
   facet normal 1.000000e+000 6.340735e-019 -1.644330e-017
      outer loop
         vertex 1.232344e+003 9.779000e+002 9.239250e+001
         vertex 1.232344e+003 9.569753e+002 8.427412e+001
         vertex 1.232344e+003 9.571902e+002 8.347225e+001
      endloop
   endfacet
   facet normal 1.000000e+000 6.340735e-019 -1.644330e-017
      outer loop
         vertex 1.232344e+003 8.596312e+002 8.676970e+001
         vertex 1.232344e+003 8.603113e+002 8.629352e+001
         vertex 1.232344e+003 9.477375e+002 8.264524e+001
      endloop
   endfacet
   facet normal 1.000000e+000 6.340735e-019 -1.644330e-017
      outer loop
         vertex 1.232344e+003 8.608983e+002 7.958397e+001
         vertex 1.232344e+003 8.603113e+002 7.899696e+001
         vertex 1.232344e+003 9.779000e+002 2.254251e+001
      endloop
   endfacet
   facet normal 1.000000e+000 6.340735e-019 -1.644330e-017
      outer loop
         vertex 1.232344e+003 9.779000e+002 2.254251e+001
         vertex 1.232344e+003 8.603113e+002 7.899696e+001
         vertex 1.232344e+003 8.596312e+002 7.852081e+001
      endloop
   endfacet
   facet normal 1.000000e+000 6.340735e-019 -1.644330e-017
      outer loop
         vertex 1.232344e+003 9.779000e+002 2.254251e+001
         vertex 1.232344e+003 8.596312e+002 7.852081e+001
         vertex 1.232344e+003 8.255000e+002 2.254251e+001
      endloop
   endfacet
   facet normal 1.000000e+000 6.340735e-019 -1.644330e-017
      outer loop
         vertex 1.232344e+003 8.255000e+002 2.254251e+001
         vertex 1.232344e+003 8.596312e+002 7.852081e+001
         vertex 1.232344e+003 8.588789e+002 7.816998e+001
      endloop
   endfacet
   facet normal 1.000000e+000 6.340735e-019 -1.644330e-017
      outer loop
         vertex 1.232344e+003 8.588789e+002 7.816998e+001
         vertex 1.232344e+003 8.580770e+002 7.795509e+001
         vertex 1.232344e+003 8.255000e+002 2.254251e+001
      endloop
   endfacet
   facet normal 1.000000e+000 6.340735e-019 -1.644330e-017
      outer loop
         vertex 1.232344e+003 8.255000e+002 2.254251e+001
         vertex 1.232344e+003 8.580770e+002 7.795509e+001
         vertex 1.232344e+003 8.572501e+002 7.788274e+001
      endloop
   endfacet
   facet normal 1.000000e+000 6.340735e-019 -1.644330e-017
      outer loop
         vertex 1.232344e+003 8.255000e+002 2.254251e+001
         vertex 1.232344e+003 8.572501e+002 7.788274e+001
         vertex 1.232344e+003 8.564230e+002 7.795509e+001
      endloop
   endfacet
   facet normal 1.000000e+000 6.340735e-019 -1.644330e-017
      outer loop
         vertex 1.232344e+003 8.564230e+002 7.795509e+001
         vertex 1.232344e+003 8.556212e+002 7.816998e+001
         vertex 1.232344e+003 8.255000e+002 2.254251e+001
      endloop
   endfacet
   facet normal 1.000000e+000 6.340735e-019 -1.644330e-017
      outer loop
         vertex 1.232344e+003 8.255000e+002 2.254251e+001
         vertex 1.232344e+003 8.556212e+002 7.816998e+001
         vertex 1.232344e+003 8.548688e+002 7.852081e+001
      endloop
   endfacet
   facet normal 1.000000e+000 6.340735e-019 -1.644330e-017
      outer loop
         vertex 1.232344e+003 8.255000e+002 2.254251e+001
         vertex 1.232344e+003 8.548688e+002 7.852081e+001
         vertex 1.232344e+003 8.541887e+002 7.899696e+001
      endloop
   endfacet
   facet normal 1.000000e+000 6.340735e-019 -1.644330e-017
      outer loop
         vertex 1.232344e+003 9.508712e+002 8.712053e+001
         vertex 1.232344e+003 9.516730e+002 8.733538e+001
         vertex 1.232344e+003 8.255000e+002 9.239250e+001
      endloop
   endfacet
   facet normal 1.000000e+000 6.340735e-019 -1.644330e-017
      outer loop
         vertex 1.232344e+003 8.255000e+002 9.239250e+001
         vertex 1.232344e+003 9.516730e+002 8.733538e+001
         vertex 1.232344e+003 9.525001e+002 8.740774e+001
      endloop
   endfacet
   facet normal 1.000000e+000 6.340735e-019 -1.644330e-017
      outer loop
         vertex 1.232344e+003 8.255000e+002 9.239250e+001
         vertex 1.232344e+003 9.525001e+002 8.740774e+001
         vertex 1.232344e+003 9.779000e+002 9.239250e+001
      endloop
   endfacet
   facet normal 1.000000e+000 6.340735e-019 -1.644330e-017
      outer loop
         vertex 1.232344e+003 9.779000e+002 9.239250e+001
         vertex 1.232344e+003 9.525001e+002 8.740774e+001
         vertex 1.232344e+003 9.533270e+002 8.733538e+001
      endloop
   endfacet
   facet normal 1.000000e+000 6.340735e-019 -1.644330e-017
      outer loop
         vertex 1.232344e+003 9.779000e+002 9.239250e+001
         vertex 1.232344e+003 9.533270e+002 8.733538e+001
         vertex 1.232344e+003 9.541288e+002 8.712053e+001
      endloop
   endfacet
   facet normal 1.000000e+000 6.340735e-019 -1.644330e-017
      outer loop
         vertex 1.232344e+003 9.572625e+002 8.264524e+001
         vertex 1.232344e+003 9.571902e+002 8.181825e+001
         vertex 1.232344e+003 9.779000e+002 9.239250e+001
      endloop
   endfacet
   facet normal 1.000000e+000 6.340735e-019 -1.644330e-017
      outer loop
         vertex 1.232344e+003 9.779000e+002 9.239250e+001
         vertex 1.232344e+003 9.571902e+002 8.181825e+001
         vertex 1.232344e+003 9.569753e+002 8.101637e+001
      endloop
   endfacet
   facet normal 1.000000e+000 6.340735e-019 -1.644330e-017
      outer loop
         vertex 1.232344e+003 9.779000e+002 9.239250e+001
         vertex 1.232344e+003 9.569753e+002 8.101637e+001
         vertex 1.232344e+003 9.779000e+002 2.254251e+001
      endloop
   endfacet
   facet normal 1.000000e+000 6.340735e-019 -1.644330e-017
      outer loop
         vertex 1.232344e+003 9.779000e+002 2.254251e+001
         vertex 1.232344e+003 9.569753e+002 8.101637e+001
         vertex 1.232344e+003 9.566245e+002 8.026400e+001
      endloop
   endfacet
   facet normal 1.000000e+000 6.340735e-019 -1.644330e-017
      outer loop
         vertex 1.232344e+003 9.779000e+002 2.254251e+001
         vertex 1.232344e+003 9.566245e+002 8.026400e+001
         vertex 1.232344e+003 9.561483e+002 7.958397e+001
      endloop
   endfacet
   facet normal 1.000000e+000 6.340735e-019 -1.644330e-017
      outer loop
         vertex 1.232344e+003 9.561483e+002 7.958397e+001
         vertex 1.232344e+003 9.555613e+002 7.899696e+001
         vertex 1.232344e+003 9.779000e+002 2.254251e+001
      endloop
   endfacet
   facet normal 1.000000e+000 6.340735e-019 -1.644330e-017
      outer loop
         vertex 1.232344e+003 9.779000e+002 2.254251e+001
         vertex 1.232344e+003 9.555613e+002 7.899696e+001
         vertex 1.232344e+003 9.548812e+002 7.852081e+001
      endloop
   endfacet
   facet normal 1.000000e+000 6.340735e-019 -1.644330e-017
      outer loop
         vertex 1.232344e+003 9.779000e+002 2.254251e+001
         vertex 1.232344e+003 9.548812e+002 7.852081e+001
         vertex 1.232344e+003 9.541288e+002 7.816998e+001
      endloop
   endfacet
   facet normal 1.000000e+000 6.340735e-019 -1.644330e-017
      outer loop
         vertex 1.232344e+003 9.488517e+002 7.958397e+001
         vertex 1.232344e+003 9.483756e+002 8.026400e+001
         vertex 1.232344e+003 8.617253e+002 8.101637e+001
      endloop
   endfacet
   facet normal 1.000000e+000 6.340735e-019 -1.644330e-017
      outer loop
         vertex 1.232344e+003 8.617253e+002 8.101637e+001
         vertex 1.232344e+003 9.483756e+002 8.026400e+001
         vertex 1.232344e+003 9.480248e+002 8.101637e+001
      endloop
   endfacet
   facet normal 1.000000e+000 6.340735e-019 -1.644330e-017
      outer loop
         vertex 1.232344e+003 8.617253e+002 8.101637e+001
         vertex 1.232344e+003 9.480248e+002 8.101637e+001
         vertex 1.232344e+003 9.478099e+002 8.181825e+001
      endloop
   endfacet
   facet normal 1.000000e+000 6.340735e-019 -1.644330e-017
      outer loop
         vertex 1.232344e+003 8.596312e+002 8.676970e+001
         vertex 1.232344e+003 9.477375e+002 8.264524e+001
         vertex 1.232344e+003 8.588789e+002 8.712053e+001
      endloop
   endfacet
   facet normal 1.000000e+000 6.340735e-019 -1.644330e-017
      outer loop
         vertex 1.232344e+003 8.603113e+002 8.629352e+001
         vertex 1.232344e+003 8.608983e+002 8.570654e+001
         vertex 1.232344e+003 9.477375e+002 8.264524e+001
      endloop
   endfacet
   facet normal 1.000000e+000 6.340735e-019 -1.644330e-017
      outer loop
         vertex 1.232344e+003 9.477375e+002 8.264524e+001
         vertex 1.232344e+003 8.608983e+002 8.570654e+001
         vertex 1.232344e+003 8.613745e+002 8.502650e+001
      endloop
   endfacet
   facet normal 1.000000e+000 6.340735e-019 -1.644330e-017
      outer loop
         vertex 1.232344e+003 9.477375e+002 8.264524e+001
         vertex 1.232344e+003 8.613745e+002 8.502650e+001
         vertex 1.232344e+003 8.617253e+002 8.427412e+001
      endloop
   endfacet
   facet normal 1.000000e+000 6.340735e-019 -1.644330e-017
      outer loop
         vertex 1.232344e+003 9.541288e+002 7.816998e+001
         vertex 1.232344e+003 9.533270e+002 7.795509e+001
         vertex 1.232344e+003 9.779000e+002 2.254251e+001
      endloop
   endfacet
   facet normal 1.000000e+000 6.340735e-019 -1.644330e-017
      outer loop
         vertex 1.232344e+003 9.779000e+002 2.254251e+001
         vertex 1.232344e+003 9.533270e+002 7.795509e+001
         vertex 1.232344e+003 9.525001e+002 7.788274e+001
      endloop
   endfacet
   facet normal 1.000000e+000 6.340735e-019 -1.644330e-017
      outer loop
         vertex 1.232344e+003 9.779000e+002 2.254251e+001
         vertex 1.232344e+003 9.525001e+002 7.788274e+001
         vertex 1.232344e+003 9.516730e+002 7.795509e+001
      endloop
   endfacet
   facet normal 1.000000e+000 6.340735e-019 -1.644330e-017
      outer loop
         vertex 1.232344e+003 9.516730e+002 7.795509e+001
         vertex 1.232344e+003 9.508712e+002 7.816998e+001
         vertex 1.232344e+003 9.779000e+002 2.254251e+001
      endloop
   endfacet
   facet normal 1.000000e+000 6.340735e-019 -1.644330e-017
      outer loop
         vertex 1.232344e+003 9.779000e+002 2.254251e+001
         vertex 1.232344e+003 9.508712e+002 7.816998e+001
         vertex 1.232344e+003 9.501188e+002 7.852081e+001
      endloop
   endfacet
   facet normal 1.000000e+000 6.340735e-019 -1.644330e-017
      outer loop
         vertex 1.232344e+003 9.779000e+002 2.254251e+001
         vertex 1.232344e+003 9.501188e+002 7.852081e+001
         vertex 1.232344e+003 8.617253e+002 8.101637e+001
      endloop
   endfacet
   facet normal 1.000000e+000 6.340735e-019 -1.644330e-017
      outer loop
         vertex 1.232344e+003 8.617253e+002 8.101637e+001
         vertex 1.232344e+003 9.501188e+002 7.852081e+001
         vertex 1.232344e+003 9.494387e+002 7.899696e+001
      endloop
   endfacet
   facet normal 1.000000e+000 6.340735e-019 -1.644330e-017
      outer loop
         vertex 1.232344e+003 8.617253e+002 8.101637e+001
         vertex 1.232344e+003 9.494387e+002 7.899696e+001
         vertex 1.232344e+003 9.488517e+002 7.958397e+001
      endloop
   endfacet
   facet normal 1.000000e+000 6.340735e-019 -1.644330e-017
      outer loop
         vertex 1.232344e+003 9.480248e+002 8.427412e+001
         vertex 1.232344e+003 8.255000e+002 9.239250e+001
         vertex 1.232344e+003 9.478099e+002 8.347225e+001
      endloop
   endfacet
   facet normal 1.000000e+000 6.340735e-019 -1.644330e-017
      outer loop
         vertex 1.232344e+003 9.478099e+002 8.347225e+001
         vertex 1.232344e+003 8.255000e+002 9.239250e+001
         vertex 1.232344e+003 8.572501e+002 8.740774e+001
      endloop
   endfacet
   facet normal 1.000000e+000 6.340735e-019 -1.644330e-017
      outer loop
         vertex 1.232344e+003 9.478099e+002 8.347225e+001
         vertex 1.232344e+003 8.572501e+002 8.740774e+001
         vertex 1.232344e+003 9.477375e+002 8.264524e+001
      endloop
   endfacet
   facet normal 1.000000e+000 6.340735e-019 -1.644330e-017
      outer loop
         vertex 1.232344e+003 9.477375e+002 8.264524e+001
         vertex 1.232344e+003 8.572501e+002 8.740774e+001
         vertex 1.232344e+003 8.580770e+002 8.733538e+001
      endloop
   endfacet
   facet normal 1.000000e+000 6.340735e-019 -1.644330e-017
      outer loop
         vertex 1.232344e+003 9.477375e+002 8.264524e+001
         vertex 1.232344e+003 8.580770e+002 8.733538e+001
         vertex 1.232344e+003 8.588789e+002 8.712053e+001
      endloop
   endfacet
   facet normal 1.000000e+000 6.340735e-019 -1.644330e-017
      outer loop
         vertex 1.232344e+003 8.617253e+002 8.427412e+001
         vertex 1.232344e+003 8.619401e+002 8.347225e+001
         vertex 1.232344e+003 9.477375e+002 8.264524e+001
      endloop
   endfacet
   facet normal 1.000000e+000 6.340735e-019 -1.644330e-017
      outer loop
         vertex 1.232344e+003 9.477375e+002 8.264524e+001
         vertex 1.232344e+003 8.619401e+002 8.347225e+001
         vertex 1.232344e+003 8.620125e+002 8.264524e+001
      endloop
   endfacet
   facet normal 1.000000e+000 6.340735e-019 -1.644330e-017
      outer loop
         vertex 1.232344e+003 9.477375e+002 8.264524e+001
         vertex 1.232344e+003 8.620125e+002 8.264524e+001
         vertex 1.232344e+003 9.478099e+002 8.181825e+001
      endloop
   endfacet
   facet normal 1.000000e+000 6.340735e-019 -1.644330e-017
      outer loop
         vertex 1.232344e+003 9.478099e+002 8.181825e+001
         vertex 1.232344e+003 8.620125e+002 8.264524e+001
         vertex 1.232344e+003 8.619401e+002 8.181825e+001
      endloop
   endfacet
   facet normal 1.000000e+000 6.340735e-019 -1.644330e-017
      outer loop
         vertex 1.232344e+003 9.478099e+002 8.181825e+001
         vertex 1.232344e+003 8.619401e+002 8.181825e+001
         vertex 1.232344e+003 8.617253e+002 8.101637e+001
      endloop
   endfacet
   facet normal -3.220096e-019 -9.983120e-001 -5.807914e-002
      outer loop
         vertex 1.232344e+003 9.571902e+002 8.347225e+001
         vertex 1.225995e+003 9.572625e+002 8.264524e+001
         vertex 1.232344e+003 9.572625e+002 8.264524e+001
      endloop
   endfacet
   facet normal 1.588016e-018 -9.983120e-001 5.807914e-002
      outer loop
         vertex 1.232344e+003 9.572625e+002 8.264524e+001
         vertex 1.225995e+003 9.572625e+002 8.264524e+001
         vertex 1.225995e+003 9.571902e+002 8.181825e+001
      endloop
   endfacet
   facet normal 2.539807e-018 -9.932307e-001 1.161583e-001
      outer loop
         vertex 1.232344e+003 9.572625e+002 8.264524e+001
         vertex 1.225995e+003 9.571902e+002 8.181825e+001
         vertex 1.232344e+003 9.571902e+002 8.181825e+001
      endloop
   endfacet
   facet normal 4.408026e-018 -9.730600e-001 2.305519e-001
      outer loop
         vertex 1.232344e+003 9.571902e+002 8.181825e+001
         vertex 1.225995e+003 9.571902e+002 8.181825e+001
         vertex 1.225995e+003 9.569753e+002 8.101637e+001
      endloop
   endfacet
   facet normal 5.324453e-018 -9.579706e-001 2.868663e-001
      outer loop
         vertex 1.232344e+003 9.571902e+002 8.181825e+001
         vertex 1.225995e+003 9.569753e+002 8.101637e+001
         vertex 1.232344e+003 9.569753e+002 8.101637e+001
      endloop
   endfacet
   facet normal 7.094099e-018 -9.182422e-001 3.960194e-001
      outer loop
         vertex 1.232344e+003 9.569753e+002 8.101637e+001
         vertex 1.225995e+003 9.569753e+002 8.101637e+001
         vertex 1.225995e+003 9.566245e+002 8.026400e+001
      endloop
   endfacet
   facet normal 7.947318e-018 -8.936031e-001 4.488580e-001
      outer loop
         vertex 1.232344e+003 9.569753e+002 8.101637e+001
         vertex 1.225995e+003 9.566245e+002 8.026400e+001
         vertex 1.232344e+003 9.566245e+002 8.026400e+001
      endloop
   endfacet
   facet normal 9.564622e-018 -8.355240e-001 5.494540e-001
      outer loop
         vertex 1.232344e+003 9.566245e+002 8.026400e+001
         vertex 1.225995e+003 9.566245e+002 8.026400e+001
         vertex 1.225995e+003 9.561483e+002 7.958397e+001
      endloop
   endfacet
   facet normal 1.032871e-017 -8.020839e-001 5.972114e-001
      outer loop
         vertex 1.232344e+003 9.566245e+002 8.026400e+001
         vertex 1.225995e+003 9.561483e+002 7.958397e+001
         vertex 1.232344e+003 9.561483e+002 7.958397e+001
      endloop
   endfacet
   facet normal 1.174453e-017 -7.274188e-001 6.861938e-001
      outer loop
         vertex 1.232344e+003 9.561483e+002 7.958397e+001
         vertex 1.225995e+003 9.561483e+002 7.958397e+001
         vertex 1.225995e+003 9.555613e+002 7.899696e+001
      endloop
   endfacet
   facet normal 1.239626e-017 -6.861938e-001 7.274188e-001
      outer loop
         vertex 1.232344e+003 9.561483e+002 7.958397e+001
         vertex 1.225995e+003 9.555613e+002 7.899696e+001
         vertex 1.232344e+003 9.555613e+002 7.899696e+001
      endloop
   endfacet
   facet normal 1.356758e-017 -5.972114e-001 8.020839e-001
      outer loop
         vertex 1.232344e+003 9.555613e+002 7.899696e+001
         vertex 1.225995e+003 9.555613e+002 7.899696e+001
         vertex 1.225995e+003 9.548812e+002 7.852081e+001
      endloop
   endfacet
   facet normal 1.408717e-017 -5.494540e-001 8.355240e-001
      outer loop
         vertex 1.232344e+003 9.555613e+002 7.899696e+001
         vertex 1.225995e+003 9.548812e+002 7.852081e+001
         vertex 1.232344e+003 9.548812e+002 7.852081e+001
      endloop
   endfacet
   facet normal 1.497839e-017 -4.488580e-001 8.936031e-001
      outer loop
         vertex 1.232344e+003 9.548812e+002 7.852081e+001
         vertex 1.225995e+003 9.548812e+002 7.852081e+001
         vertex 1.225995e+003 9.541288e+002 7.816998e+001
      endloop
   endfacet
   facet normal 1.535004e-017 -3.960194e-001 9.182422e-001
      outer loop
         vertex 1.232344e+003 9.548812e+002 7.852081e+001
         vertex 1.225995e+003 9.541288e+002 7.816998e+001
         vertex 1.232344e+003 9.541288e+002 7.816998e+001
      endloop
   endfacet
   facet normal 1.593410e-017 -2.868663e-001 9.579706e-001
      outer loop
         vertex 1.232344e+003 9.541288e+002 7.816998e+001
         vertex 1.225995e+003 9.541288e+002 7.816998e+001
         vertex 1.225995e+003 9.533270e+002 7.795509e+001
      endloop
   endfacet
   facet normal 1.614651e-017 -2.305519e-001 9.730600e-001
      outer loop
         vertex 1.232344e+003 9.541288e+002 7.816998e+001
         vertex 1.225995e+003 9.533270e+002 7.795509e+001
         vertex 1.232344e+003 9.533270e+002 7.795509e+001
      endloop
   endfacet
   facet normal 1.640565e-017 -1.161583e-001 9.932307e-001
      outer loop
         vertex 1.232344e+003 9.533270e+002 7.795509e+001
         vertex 1.225995e+003 9.533270e+002 7.795509e+001
         vertex 1.225995e+003 9.525001e+002 7.788274e+001
      endloop
   endfacet
   facet normal 1.645237e-017 -5.807914e-002 9.983120e-001
      outer loop
         vertex 1.232344e+003 9.533270e+002 7.795509e+001
         vertex 1.225995e+003 9.525001e+002 7.788274e+001
         vertex 1.232344e+003 9.525001e+002 7.788274e+001
      endloop
   endfacet
   facet normal 1.637872e-017 5.807914e-002 9.983120e-001
      outer loop
         vertex 1.232344e+003 9.525001e+002 7.788274e+001
         vertex 1.225995e+003 9.525001e+002 7.788274e+001
         vertex 1.225995e+003 9.516730e+002 7.795509e+001
      endloop
   endfacet
   facet normal 1.625834e-017 1.161583e-001 9.932307e-001
      outer loop
         vertex 1.232344e+003 9.525001e+002 7.788274e+001
         vertex 1.225995e+003 9.516730e+002 7.795509e+001
         vertex 1.232344e+003 9.516730e+002 7.795509e+001
      endloop
   endfacet
   facet normal 1.585413e-017 2.305519e-001 9.730600e-001
      outer loop
         vertex 1.232344e+003 9.516730e+002 7.795509e+001
         vertex 1.225995e+003 9.516730e+002 7.795509e+001
         vertex 1.225995e+003 9.508712e+002 7.816998e+001
      endloop
   endfacet
   facet normal 1.557031e-017 2.868663e-001 9.579706e-001
      outer loop
         vertex 1.232344e+003 9.516730e+002 7.795509e+001
         vertex 1.225995e+003 9.508712e+002 7.816998e+001
         vertex 1.232344e+003 9.508712e+002 7.816998e+001
      endloop
   endfacet
   facet normal 1.484783e-017 3.960194e-001 9.182422e-001
      outer loop
         vertex 1.232344e+003 9.508712e+002 7.816998e+001
         vertex 1.225995e+003 9.508712e+002 7.816998e+001
         vertex 1.225995e+003 9.501188e+002 7.852081e+001
      endloop
   endfacet
   facet normal 1.440918e-017 4.488580e-001 8.936031e-001
      outer loop
         vertex 1.232344e+003 9.508712e+002 7.816998e+001
         vertex 1.225995e+003 9.501188e+002 7.852081e+001
         vertex 1.232344e+003 9.501188e+002 7.852081e+001
      endloop
   endfacet
   facet normal 1.339038e-017 5.494540e-001 8.355240e-001
      outer loop
         vertex 1.232344e+003 9.501188e+002 7.852081e+001
         vertex 1.225995e+003 9.501188e+002 7.852081e+001
         vertex 1.225995e+003 9.494387e+002 7.899696e+001
      endloop
   endfacet
   facet normal 1.281023e-017 5.972114e-001 8.020839e-001
      outer loop
         vertex 1.232344e+003 9.501188e+002 7.852081e+001
         vertex 1.225995e+003 9.494387e+002 7.899696e+001
         vertex 1.232344e+003 9.494387e+002 7.899696e+001
      endloop
   endfacet
   facet normal 1.152607e-017 6.861938e-001 7.274188e-001
      outer loop
         vertex 1.232344e+003 9.494387e+002 7.899696e+001
         vertex 1.225995e+003 9.494387e+002 7.899696e+001
         vertex 1.225995e+003 9.488517e+002 7.958397e+001
      endloop
   endfacet
   facet normal 1.082206e-017 7.274188e-001 6.861938e-001
      outer loop
         vertex 1.232344e+003 9.494387e+002 7.899696e+001
         vertex 1.225995e+003 9.488517e+002 7.958397e+001
         vertex 1.232344e+003 9.488517e+002 7.958397e+001
      endloop
   endfacet
   facet normal 9.311547e-018 8.020839e-001 5.972114e-001
      outer loop
         vertex 1.232344e+003 9.488517e+002 7.958397e+001
         vertex 1.225995e+003 9.488517e+002 7.958397e+001
         vertex 1.225995e+003 9.483756e+002 8.026400e+001
      endloop
   endfacet
   facet normal 8.505055e-018 8.355240e-001 5.494540e-001
      outer loop
         vertex 1.232344e+003 9.488517e+002 7.958397e+001
         vertex 1.225995e+003 9.483756e+002 8.026400e+001
         vertex 1.232344e+003 9.483756e+002 8.026400e+001
      endloop
   endfacet
   facet normal 6.814098e-018 8.936031e-001 4.488580e-001
      outer loop
         vertex 1.232344e+003 9.483756e+002 8.026400e+001
         vertex 1.225995e+003 9.483756e+002 8.026400e+001
         vertex 1.225995e+003 9.480248e+002 8.101637e+001
      endloop
   endfacet
   facet normal 5.929634e-018 9.182422e-001 3.960194e-001
      outer loop
         vertex 1.232344e+003 9.483756e+002 8.026400e+001
         vertex 1.225995e+003 9.480248e+002 8.101637e+001
         vertex 1.232344e+003 9.480248e+002 8.101637e+001
      endloop
   endfacet
   facet normal 4.109605e-018 9.579706e-001 2.868663e-001
      outer loop
         vertex 1.232344e+003 9.480248e+002 8.101637e+001
         vertex 1.225995e+003 9.480248e+002 8.101637e+001
         vertex 1.225995e+003 9.478099e+002 8.181825e+001
      endloop
   endfacet
   facet normal 3.174042e-018 9.730600e-001 2.305519e-001
      outer loop
         vertex 1.232344e+003 9.480248e+002 8.101637e+001
         vertex 1.225995e+003 9.478099e+002 8.181825e+001
         vertex 1.232344e+003 9.478099e+002 8.181825e+001
      endloop
   endfacet
   facet normal 1.280244e-018 9.932307e-001 1.161583e-001
      outer loop
         vertex 1.232344e+003 9.478099e+002 8.181825e+001
         vertex 1.225995e+003 9.478099e+002 8.181825e+001
         vertex 1.225995e+003 9.477375e+002 8.264524e+001
      endloop
   endfacet
   facet normal 3.220096e-019 9.983120e-001 5.807914e-002
      outer loop
         vertex 1.232344e+003 9.478099e+002 8.181825e+001
         vertex 1.225995e+003 9.477375e+002 8.264524e+001
         vertex 1.232344e+003 9.477375e+002 8.264524e+001
      endloop
   endfacet
   facet normal -1.588016e-018 9.983120e-001 -5.807914e-002
      outer loop
         vertex 1.232344e+003 9.477375e+002 8.264524e+001
         vertex 1.225995e+003 9.477375e+002 8.264524e+001
         vertex 1.225995e+003 9.478099e+002 8.347225e+001
      endloop
   endfacet
   facet normal -2.539807e-018 9.932307e-001 -1.161583e-001
      outer loop
         vertex 1.232344e+003 9.477375e+002 8.264524e+001
         vertex 1.225995e+003 9.478099e+002 8.347225e+001
         vertex 1.232344e+003 9.478099e+002 8.347225e+001
      endloop
   endfacet
   facet normal -4.408026e-018 9.730600e-001 -2.305519e-001
      outer loop
         vertex 1.232344e+003 9.478099e+002 8.347225e+001
         vertex 1.225995e+003 9.478099e+002 8.347225e+001
         vertex 1.225995e+003 9.480248e+002 8.427412e+001
      endloop
   endfacet
   facet normal -5.324453e-018 9.579706e-001 -2.868663e-001
      outer loop
         vertex 1.232344e+003 9.478099e+002 8.347225e+001
         vertex 1.225995e+003 9.480248e+002 8.427412e+001
         vertex 1.232344e+003 9.480248e+002 8.427412e+001
      endloop
   endfacet
   facet normal -7.094099e-018 9.182422e-001 -3.960194e-001
      outer loop
         vertex 1.232344e+003 9.480248e+002 8.427412e+001
         vertex 1.225995e+003 9.480248e+002 8.427412e+001
         vertex 1.225995e+003 9.483756e+002 8.502650e+001
      endloop
   endfacet
   facet normal -7.947318e-018 8.936031e-001 -4.488580e-001
      outer loop
         vertex 1.232344e+003 9.480248e+002 8.427412e+001
         vertex 1.225995e+003 9.483756e+002 8.502650e+001
         vertex 1.232344e+003 9.483756e+002 8.502650e+001
      endloop
   endfacet
   facet normal -9.564622e-018 8.355240e-001 -5.494540e-001
      outer loop
         vertex 1.232344e+003 9.483756e+002 8.502650e+001
         vertex 1.225995e+003 9.483756e+002 8.502650e+001
         vertex 1.225995e+003 9.488517e+002 8.570654e+001
      endloop
   endfacet
   facet normal -1.032871e-017 8.020839e-001 -5.972114e-001
      outer loop
         vertex 1.232344e+003 9.483756e+002 8.502650e+001
         vertex 1.225995e+003 9.488517e+002 8.570654e+001
         vertex 1.232344e+003 9.488517e+002 8.570654e+001
      endloop
   endfacet
   facet normal -1.174453e-017 7.274188e-001 -6.861938e-001
      outer loop
         vertex 1.232344e+003 9.488517e+002 8.570654e+001
         vertex 1.225995e+003 9.488517e+002 8.570654e+001
         vertex 1.225995e+003 9.494387e+002 8.629352e+001
      endloop
   endfacet
   facet normal -1.239626e-017 6.861938e-001 -7.274188e-001
      outer loop
         vertex 1.232344e+003 9.488517e+002 8.570654e+001
         vertex 1.225995e+003 9.494387e+002 8.629352e+001
         vertex 1.232344e+003 9.494387e+002 8.629352e+001
      endloop
   endfacet
   facet normal -1.356758e-017 5.972114e-001 -8.020839e-001
      outer loop
         vertex 1.232344e+003 9.494387e+002 8.629352e+001
         vertex 1.225995e+003 9.494387e+002 8.629352e+001
         vertex 1.225995e+003 9.501188e+002 8.676970e+001
      endloop
   endfacet
   facet normal -1.408717e-017 5.494540e-001 -8.355240e-001
      outer loop
         vertex 1.232344e+003 9.494387e+002 8.629352e+001
         vertex 1.225995e+003 9.501188e+002 8.676970e+001
         vertex 1.232344e+003 9.501188e+002 8.676970e+001
      endloop
   endfacet
   facet normal -1.497839e-017 4.488580e-001 -8.936031e-001
      outer loop
         vertex 1.232344e+003 9.501188e+002 8.676970e+001
         vertex 1.225995e+003 9.501188e+002 8.676970e+001
         vertex 1.225995e+003 9.508712e+002 8.712053e+001
      endloop
   endfacet
   facet normal -1.535004e-017 3.960194e-001 -9.182422e-001
      outer loop
         vertex 1.232344e+003 9.501188e+002 8.676970e+001
         vertex 1.225995e+003 9.508712e+002 8.712053e+001
         vertex 1.232344e+003 9.508712e+002 8.712053e+001
      endloop
   endfacet
   facet normal -1.593410e-017 2.868663e-001 -9.579706e-001
      outer loop
         vertex 1.232344e+003 9.508712e+002 8.712053e+001
         vertex 1.225995e+003 9.508712e+002 8.712053e+001
         vertex 1.225995e+003 9.516730e+002 8.733538e+001
      endloop
   endfacet
   facet normal -1.614651e-017 2.305519e-001 -9.730600e-001
      outer loop
         vertex 1.232344e+003 9.508712e+002 8.712053e+001
         vertex 1.225995e+003 9.516730e+002 8.733538e+001
         vertex 1.232344e+003 9.516730e+002 8.733538e+001
      endloop
   endfacet
   facet normal -1.640565e-017 1.161583e-001 -9.932307e-001
      outer loop
         vertex 1.232344e+003 9.516730e+002 8.733538e+001
         vertex 1.225995e+003 9.516730e+002 8.733538e+001
         vertex 1.225995e+003 9.525001e+002 8.740774e+001
      endloop
   endfacet
   facet normal -1.645237e-017 5.807914e-002 -9.983120e-001
      outer loop
         vertex 1.232344e+003 9.516730e+002 8.733538e+001
         vertex 1.225995e+003 9.525001e+002 8.740774e+001
         vertex 1.232344e+003 9.525001e+002 8.740774e+001
      endloop
   endfacet
   facet normal -1.637872e-017 -5.807914e-002 -9.983120e-001
      outer loop
         vertex 1.232344e+003 9.525001e+002 8.740774e+001
         vertex 1.225995e+003 9.525001e+002 8.740774e+001
         vertex 1.225995e+003 9.533270e+002 8.733538e+001
      endloop
   endfacet
   facet normal -1.625834e-017 -1.161583e-001 -9.932307e-001
      outer loop
         vertex 1.232344e+003 9.525001e+002 8.740774e+001
         vertex 1.225995e+003 9.533270e+002 8.733538e+001
         vertex 1.232344e+003 9.533270e+002 8.733538e+001
      endloop
   endfacet
   facet normal -1.585413e-017 -2.305519e-001 -9.730600e-001
      outer loop
         vertex 1.232344e+003 9.533270e+002 8.733538e+001
         vertex 1.225995e+003 9.533270e+002 8.733538e+001
         vertex 1.225995e+003 9.541288e+002 8.712053e+001
      endloop
   endfacet
   facet normal -1.557031e-017 -2.868663e-001 -9.579706e-001
      outer loop
         vertex 1.232344e+003 9.533270e+002 8.733538e+001
         vertex 1.225995e+003 9.541288e+002 8.712053e+001
         vertex 1.232344e+003 9.541288e+002 8.712053e+001
      endloop
   endfacet
   facet normal -1.484783e-017 -3.960194e-001 -9.182422e-001
      outer loop
         vertex 1.232344e+003 9.541288e+002 8.712053e+001
         vertex 1.225995e+003 9.541288e+002 8.712053e+001
         vertex 1.225995e+003 9.548812e+002 8.676970e+001
      endloop
   endfacet
   facet normal -1.440918e-017 -4.488580e-001 -8.936031e-001
      outer loop
         vertex 1.232344e+003 9.541288e+002 8.712053e+001
         vertex 1.225995e+003 9.548812e+002 8.676970e+001
         vertex 1.232344e+003 9.548812e+002 8.676970e+001
      endloop
   endfacet
   facet normal -1.339038e-017 -5.494540e-001 -8.355240e-001
      outer loop
         vertex 1.232344e+003 9.548812e+002 8.676970e+001
         vertex 1.225995e+003 9.548812e+002 8.676970e+001
         vertex 1.225995e+003 9.555613e+002 8.629352e+001
      endloop
   endfacet
   facet normal -1.281023e-017 -5.972114e-001 -8.020839e-001
      outer loop
         vertex 1.232344e+003 9.548812e+002 8.676970e+001
         vertex 1.225995e+003 9.555613e+002 8.629352e+001
         vertex 1.232344e+003 9.555613e+002 8.629352e+001
      endloop
   endfacet
   facet normal -1.152607e-017 -6.861938e-001 -7.274188e-001
      outer loop
         vertex 1.232344e+003 9.555613e+002 8.629352e+001
         vertex 1.225995e+003 9.555613e+002 8.629352e+001
         vertex 1.225995e+003 9.561483e+002 8.570654e+001
      endloop
   endfacet
   facet normal -1.082206e-017 -7.274188e-001 -6.861938e-001
      outer loop
         vertex 1.232344e+003 9.555613e+002 8.629352e+001
         vertex 1.225995e+003 9.561483e+002 8.570654e+001
         vertex 1.232344e+003 9.561483e+002 8.570654e+001
      endloop
   endfacet
   facet normal -9.311547e-018 -8.020839e-001 -5.972114e-001
      outer loop
         vertex 1.232344e+003 9.561483e+002 8.570654e+001
         vertex 1.225995e+003 9.561483e+002 8.570654e+001
         vertex 1.225995e+003 9.566245e+002 8.502650e+001
      endloop
   endfacet
   facet normal -8.505055e-018 -8.355240e-001 -5.494540e-001
      outer loop
         vertex 1.232344e+003 9.561483e+002 8.570654e+001
         vertex 1.225995e+003 9.566245e+002 8.502650e+001
         vertex 1.232344e+003 9.566245e+002 8.502650e+001
      endloop
   endfacet
   facet normal -6.814098e-018 -8.936031e-001 -4.488580e-001
      outer loop
         vertex 1.232344e+003 9.566245e+002 8.502650e+001
         vertex 1.225995e+003 9.566245e+002 8.502650e+001
         vertex 1.225995e+003 9.569753e+002 8.427412e+001
      endloop
   endfacet
   facet normal -5.929634e-018 -9.182422e-001 -3.960194e-001
      outer loop
         vertex 1.232344e+003 9.566245e+002 8.502650e+001
         vertex 1.225995e+003 9.569753e+002 8.427412e+001
         vertex 1.232344e+003 9.569753e+002 8.427412e+001
      endloop
   endfacet
   facet normal -4.109605e-018 -9.579706e-001 -2.868663e-001
      outer loop
         vertex 1.232344e+003 9.569753e+002 8.427412e+001
         vertex 1.225995e+003 9.569753e+002 8.427412e+001
         vertex 1.225995e+003 9.571902e+002 8.347225e+001
      endloop
   endfacet
   facet normal -3.174042e-018 -9.730600e-001 -2.305519e-001
      outer loop
         vertex 1.232344e+003 9.569753e+002 8.427412e+001
         vertex 1.225995e+003 9.571902e+002 8.347225e+001
         vertex 1.232344e+003 9.571902e+002 8.347225e+001
      endloop
   endfacet
   facet normal -1.280244e-018 -9.932307e-001 -1.161583e-001
      outer loop
         vertex 1.232344e+003 9.571902e+002 8.347225e+001
         vertex 1.225995e+003 9.571902e+002 8.347225e+001
         vertex 1.225995e+003 9.572625e+002 8.264524e+001
      endloop
   endfacet
   facet normal -3.220096e-019 -9.983120e-001 -5.807914e-002
      outer loop
         vertex 1.232344e+003 8.619401e+002 8.347225e+001
         vertex 1.225995e+003 8.620125e+002 8.264524e+001
         vertex 1.232344e+003 8.620125e+002 8.264524e+001
      endloop
   endfacet
   facet normal 1.588016e-018 -9.983120e-001 5.807914e-002
      outer loop
         vertex 1.232344e+003 8.620125e+002 8.264524e+001
         vertex 1.225995e+003 8.620125e+002 8.264524e+001
         vertex 1.225995e+003 8.619401e+002 8.181825e+001
      endloop
   endfacet
   facet normal 2.539807e-018 -9.932307e-001 1.161583e-001
      outer loop
         vertex 1.232344e+003 8.620125e+002 8.264524e+001
         vertex 1.225995e+003 8.619401e+002 8.181825e+001
         vertex 1.232344e+003 8.619401e+002 8.181825e+001
      endloop
   endfacet
   facet normal 4.408026e-018 -9.730600e-001 2.305519e-001
      outer loop
         vertex 1.232344e+003 8.619401e+002 8.181825e+001
         vertex 1.225995e+003 8.619401e+002 8.181825e+001
         vertex 1.225995e+003 8.617253e+002 8.101637e+001
      endloop
   endfacet
   facet normal 5.324453e-018 -9.579706e-001 2.868663e-001
      outer loop
         vertex 1.232344e+003 8.619401e+002 8.181825e+001
         vertex 1.225995e+003 8.617253e+002 8.101637e+001
         vertex 1.232344e+003 8.617253e+002 8.101637e+001
      endloop
   endfacet
   facet normal 7.094099e-018 -9.182422e-001 3.960194e-001
      outer loop
         vertex 1.232344e+003 8.617253e+002 8.101637e+001
         vertex 1.225995e+003 8.617253e+002 8.101637e+001
         vertex 1.225995e+003 8.613745e+002 8.026400e+001
      endloop
   endfacet
   facet normal 7.947318e-018 -8.936031e-001 4.488580e-001
      outer loop
         vertex 1.232344e+003 8.617253e+002 8.101637e+001
         vertex 1.225995e+003 8.613745e+002 8.026400e+001
         vertex 1.232344e+003 8.613745e+002 8.026400e+001
      endloop
   endfacet
   facet normal 9.564622e-018 -8.355240e-001 5.494540e-001
      outer loop
         vertex 1.232344e+003 8.613745e+002 8.026400e+001
         vertex 1.225995e+003 8.613745e+002 8.026400e+001
         vertex 1.225995e+003 8.608983e+002 7.958397e+001
      endloop
   endfacet
   facet normal 1.032871e-017 -8.020839e-001 5.972114e-001
      outer loop
         vertex 1.232344e+003 8.613745e+002 8.026400e+001
         vertex 1.225995e+003 8.608983e+002 7.958397e+001
         vertex 1.232344e+003 8.608983e+002 7.958397e+001
      endloop
   endfacet
   facet normal 1.174453e-017 -7.274188e-001 6.861938e-001
      outer loop
         vertex 1.232344e+003 8.608983e+002 7.958397e+001
         vertex 1.225995e+003 8.608983e+002 7.958397e+001
         vertex 1.225995e+003 8.603113e+002 7.899696e+001
      endloop
   endfacet
   facet normal 1.239626e-017 -6.861938e-001 7.274188e-001
      outer loop
         vertex 1.232344e+003 8.608983e+002 7.958397e+001
         vertex 1.225995e+003 8.603113e+002 7.899696e+001
         vertex 1.232344e+003 8.603113e+002 7.899696e+001
      endloop
   endfacet
   facet normal 1.356758e-017 -5.972114e-001 8.020839e-001
      outer loop
         vertex 1.232344e+003 8.603113e+002 7.899696e+001
         vertex 1.225995e+003 8.603113e+002 7.899696e+001
         vertex 1.225995e+003 8.596312e+002 7.852081e+001
      endloop
   endfacet
   facet normal 1.408717e-017 -5.494540e-001 8.355240e-001
      outer loop
         vertex 1.232344e+003 8.603113e+002 7.899696e+001
         vertex 1.225995e+003 8.596312e+002 7.852081e+001
         vertex 1.232344e+003 8.596312e+002 7.852081e+001
      endloop
   endfacet
   facet normal 1.497839e-017 -4.488580e-001 8.936031e-001
      outer loop
         vertex 1.232344e+003 8.596312e+002 7.852081e+001
         vertex 1.225995e+003 8.596312e+002 7.852081e+001
         vertex 1.225995e+003 8.588789e+002 7.816998e+001
      endloop
   endfacet
   facet normal 1.535004e-017 -3.960194e-001 9.182422e-001
      outer loop
         vertex 1.232344e+003 8.596312e+002 7.852081e+001
         vertex 1.225995e+003 8.588789e+002 7.816998e+001
         vertex 1.232344e+003 8.588789e+002 7.816998e+001
      endloop
   endfacet
   facet normal 1.593410e-017 -2.868663e-001 9.579706e-001
      outer loop
         vertex 1.232344e+003 8.588789e+002 7.816998e+001
         vertex 1.225995e+003 8.588789e+002 7.816998e+001
         vertex 1.225995e+003 8.580770e+002 7.795509e+001
      endloop
   endfacet
   facet normal 1.614651e-017 -2.305519e-001 9.730600e-001
      outer loop
         vertex 1.232344e+003 8.588789e+002 7.816998e+001
         vertex 1.225995e+003 8.580770e+002 7.795509e+001
         vertex 1.232344e+003 8.580770e+002 7.795509e+001
      endloop
   endfacet
   facet normal 1.640565e-017 -1.161583e-001 9.932307e-001
      outer loop
         vertex 1.232344e+003 8.580770e+002 7.795509e+001
         vertex 1.225995e+003 8.580770e+002 7.795509e+001
         vertex 1.225995e+003 8.572501e+002 7.788274e+001
      endloop
   endfacet
   facet normal 1.645237e-017 -5.807914e-002 9.983120e-001
      outer loop
         vertex 1.232344e+003 8.580770e+002 7.795509e+001
         vertex 1.225995e+003 8.572501e+002 7.788274e+001
         vertex 1.232344e+003 8.572501e+002 7.788274e+001
      endloop
   endfacet
   facet normal 1.637872e-017 5.807914e-002 9.983120e-001
      outer loop
         vertex 1.232344e+003 8.572501e+002 7.788274e+001
         vertex 1.225995e+003 8.572501e+002 7.788274e+001
         vertex 1.225995e+003 8.564230e+002 7.795509e+001
      endloop
   endfacet
   facet normal 1.625834e-017 1.161583e-001 9.932307e-001
      outer loop
         vertex 1.232344e+003 8.572501e+002 7.788274e+001
         vertex 1.225995e+003 8.564230e+002 7.795509e+001
         vertex 1.232344e+003 8.564230e+002 7.795509e+001
      endloop
   endfacet
   facet normal 1.585413e-017 2.305519e-001 9.730600e-001
      outer loop
         vertex 1.232344e+003 8.564230e+002 7.795509e+001
         vertex 1.225995e+003 8.564230e+002 7.795509e+001
         vertex 1.225995e+003 8.556212e+002 7.816998e+001
      endloop
   endfacet
   facet normal 1.557031e-017 2.868663e-001 9.579706e-001
      outer loop
         vertex 1.232344e+003 8.564230e+002 7.795509e+001
         vertex 1.225995e+003 8.556212e+002 7.816998e+001
         vertex 1.232344e+003 8.556212e+002 7.816998e+001
      endloop
   endfacet
   facet normal 1.484783e-017 3.960194e-001 9.182422e-001
      outer loop
         vertex 1.232344e+003 8.556212e+002 7.816998e+001
         vertex 1.225995e+003 8.556212e+002 7.816998e+001
         vertex 1.225995e+003 8.548688e+002 7.852081e+001
      endloop
   endfacet
   facet normal 1.440918e-017 4.488580e-001 8.936031e-001
      outer loop
         vertex 1.232344e+003 8.556212e+002 7.816998e+001
         vertex 1.225995e+003 8.548688e+002 7.852081e+001
         vertex 1.232344e+003 8.548688e+002 7.852081e+001
      endloop
   endfacet
   facet normal 1.339038e-017 5.494540e-001 8.355240e-001
      outer loop
         vertex 1.232344e+003 8.548688e+002 7.852081e+001
         vertex 1.225995e+003 8.548688e+002 7.852081e+001
         vertex 1.225995e+003 8.541887e+002 7.899696e+001
      endloop
   endfacet
   facet normal 1.281023e-017 5.972114e-001 8.020839e-001
      outer loop
         vertex 1.232344e+003 8.548688e+002 7.852081e+001
         vertex 1.225995e+003 8.541887e+002 7.899696e+001
         vertex 1.232344e+003 8.541887e+002 7.899696e+001
      endloop
   endfacet
   facet normal 1.152607e-017 6.861938e-001 7.274188e-001
      outer loop
         vertex 1.232344e+003 8.541887e+002 7.899696e+001
         vertex 1.225995e+003 8.541887e+002 7.899696e+001
         vertex 1.225995e+003 8.536017e+002 7.958397e+001
      endloop
   endfacet
   facet normal 1.082206e-017 7.274188e-001 6.861938e-001
      outer loop
         vertex 1.232344e+003 8.541887e+002 7.899696e+001
         vertex 1.225995e+003 8.536017e+002 7.958397e+001
         vertex 1.232344e+003 8.536017e+002 7.958397e+001
      endloop
   endfacet
   facet normal 9.311547e-018 8.020839e-001 5.972114e-001
      outer loop
         vertex 1.232344e+003 8.536017e+002 7.958397e+001
         vertex 1.225995e+003 8.536017e+002 7.958397e+001
         vertex 1.225995e+003 8.531255e+002 8.026400e+001
      endloop
   endfacet
   facet normal 8.505055e-018 8.355240e-001 5.494540e-001
      outer loop
         vertex 1.232344e+003 8.536017e+002 7.958397e+001
         vertex 1.225995e+003 8.531255e+002 8.026400e+001
         vertex 1.232344e+003 8.531255e+002 8.026400e+001
      endloop
   endfacet
   facet normal 6.814098e-018 8.936031e-001 4.488580e-001
      outer loop
         vertex 1.232344e+003 8.531255e+002 8.026400e+001
         vertex 1.225995e+003 8.531255e+002 8.026400e+001
         vertex 1.225995e+003 8.527747e+002 8.101637e+001
      endloop
   endfacet
   facet normal 5.929634e-018 9.182422e-001 3.960194e-001
      outer loop
         vertex 1.232344e+003 8.531255e+002 8.026400e+001
         vertex 1.225995e+003 8.527747e+002 8.101637e+001
         vertex 1.232344e+003 8.527747e+002 8.101637e+001
      endloop
   endfacet
   facet normal 4.109605e-018 9.579706e-001 2.868663e-001
      outer loop
         vertex 1.232344e+003 8.527747e+002 8.101637e+001
         vertex 1.225995e+003 8.527747e+002 8.101637e+001
         vertex 1.225995e+003 8.525599e+002 8.181825e+001
      endloop
   endfacet
   facet normal 3.174042e-018 9.730600e-001 2.305519e-001
      outer loop
         vertex 1.232344e+003 8.527747e+002 8.101637e+001
         vertex 1.225995e+003 8.525599e+002 8.181825e+001
         vertex 1.232344e+003 8.525599e+002 8.181825e+001
      endloop
   endfacet
   facet normal 1.280244e-018 9.932307e-001 1.161583e-001
      outer loop
         vertex 1.232344e+003 8.525599e+002 8.181825e+001
         vertex 1.225995e+003 8.525599e+002 8.181825e+001
         vertex 1.225995e+003 8.524875e+002 8.264524e+001
      endloop
   endfacet
   facet normal 3.220096e-019 9.983120e-001 5.807914e-002
      outer loop
         vertex 1.232344e+003 8.525599e+002 8.181825e+001
         vertex 1.225995e+003 8.524875e+002 8.264524e+001
         vertex 1.232344e+003 8.524875e+002 8.264524e+001
      endloop
   endfacet
   facet normal -1.588016e-018 9.983120e-001 -5.807914e-002
      outer loop
         vertex 1.232344e+003 8.524875e+002 8.264524e+001
         vertex 1.225995e+003 8.524875e+002 8.264524e+001
         vertex 1.225995e+003 8.525599e+002 8.347225e+001
      endloop
   endfacet
   facet normal -2.539807e-018 9.932307e-001 -1.161583e-001
      outer loop
         vertex 1.232344e+003 8.524875e+002 8.264524e+001
         vertex 1.225995e+003 8.525599e+002 8.347225e+001
         vertex 1.232344e+003 8.525599e+002 8.347225e+001
      endloop
   endfacet
   facet normal -4.408026e-018 9.730600e-001 -2.305519e-001
      outer loop
         vertex 1.232344e+003 8.525599e+002 8.347225e+001
         vertex 1.225995e+003 8.525599e+002 8.347225e+001
         vertex 1.225995e+003 8.527747e+002 8.427412e+001
      endloop
   endfacet
   facet normal -5.324453e-018 9.579706e-001 -2.868663e-001
      outer loop
         vertex 1.232344e+003 8.525599e+002 8.347225e+001
         vertex 1.225995e+003 8.527747e+002 8.427412e+001
         vertex 1.232344e+003 8.527747e+002 8.427412e+001
      endloop
   endfacet
   facet normal -7.094099e-018 9.182422e-001 -3.960194e-001
      outer loop
         vertex 1.232344e+003 8.527747e+002 8.427412e+001
         vertex 1.225995e+003 8.527747e+002 8.427412e+001
         vertex 1.225995e+003 8.531255e+002 8.502650e+001
      endloop
   endfacet
   facet normal -7.947318e-018 8.936031e-001 -4.488580e-001
      outer loop
         vertex 1.232344e+003 8.527747e+002 8.427412e+001
         vertex 1.225995e+003 8.531255e+002 8.502650e+001
         vertex 1.232344e+003 8.531255e+002 8.502650e+001
      endloop
   endfacet
   facet normal -9.564622e-018 8.355240e-001 -5.494540e-001
      outer loop
         vertex 1.232344e+003 8.531255e+002 8.502650e+001
         vertex 1.225995e+003 8.531255e+002 8.502650e+001
         vertex 1.225995e+003 8.536017e+002 8.570654e+001
      endloop
   endfacet
   facet normal -1.032871e-017 8.020839e-001 -5.972114e-001
      outer loop
         vertex 1.232344e+003 8.531255e+002 8.502650e+001
         vertex 1.225995e+003 8.536017e+002 8.570654e+001
         vertex 1.232344e+003 8.536017e+002 8.570654e+001
      endloop
   endfacet
   facet normal -1.174453e-017 7.274188e-001 -6.861938e-001
      outer loop
         vertex 1.232344e+003 8.536017e+002 8.570654e+001
         vertex 1.225995e+003 8.536017e+002 8.570654e+001
         vertex 1.225995e+003 8.541887e+002 8.629352e+001
      endloop
   endfacet
   facet normal -1.239626e-017 6.861938e-001 -7.274188e-001
      outer loop
         vertex 1.232344e+003 8.536017e+002 8.570654e+001
         vertex 1.225995e+003 8.541887e+002 8.629352e+001
         vertex 1.232344e+003 8.541887e+002 8.629352e+001
      endloop
   endfacet
   facet normal -1.356758e-017 5.972114e-001 -8.020839e-001
      outer loop
         vertex 1.232344e+003 8.541887e+002 8.629352e+001
         vertex 1.225995e+003 8.541887e+002 8.629352e+001
         vertex 1.225995e+003 8.548688e+002 8.676970e+001
      endloop
   endfacet
   facet normal -1.408717e-017 5.494540e-001 -8.355240e-001
      outer loop
         vertex 1.232344e+003 8.541887e+002 8.629352e+001
         vertex 1.225995e+003 8.548688e+002 8.676970e+001
         vertex 1.232344e+003 8.548688e+002 8.676970e+001
      endloop
   endfacet
   facet normal -1.497839e-017 4.488580e-001 -8.936031e-001
      outer loop
         vertex 1.232344e+003 8.548688e+002 8.676970e+001
         vertex 1.225995e+003 8.548688e+002 8.676970e+001
         vertex 1.225995e+003 8.556212e+002 8.712053e+001
      endloop
   endfacet
   facet normal -1.535004e-017 3.960194e-001 -9.182422e-001
      outer loop
         vertex 1.232344e+003 8.548688e+002 8.676970e+001
         vertex 1.225995e+003 8.556212e+002 8.712053e+001
         vertex 1.232344e+003 8.556212e+002 8.712053e+001
      endloop
   endfacet
   facet normal -1.593410e-017 2.868663e-001 -9.579706e-001
      outer loop
         vertex 1.232344e+003 8.556212e+002 8.712053e+001
         vertex 1.225995e+003 8.556212e+002 8.712053e+001
         vertex 1.225995e+003 8.564230e+002 8.733538e+001
      endloop
   endfacet
   facet normal -1.614651e-017 2.305519e-001 -9.730600e-001
      outer loop
         vertex 1.232344e+003 8.556212e+002 8.712053e+001
         vertex 1.225995e+003 8.564230e+002 8.733538e+001
         vertex 1.232344e+003 8.564230e+002 8.733538e+001
      endloop
   endfacet
   facet normal -1.640565e-017 1.161583e-001 -9.932307e-001
      outer loop
         vertex 1.232344e+003 8.564230e+002 8.733538e+001
         vertex 1.225995e+003 8.564230e+002 8.733538e+001
         vertex 1.225995e+003 8.572501e+002 8.740774e+001
      endloop
   endfacet
   facet normal -1.645237e-017 5.807914e-002 -9.983120e-001
      outer loop
         vertex 1.232344e+003 8.564230e+002 8.733538e+001
         vertex 1.225995e+003 8.572501e+002 8.740774e+001
         vertex 1.232344e+003 8.572501e+002 8.740774e+001
      endloop
   endfacet
   facet normal -1.637872e-017 -5.807914e-002 -9.983120e-001
      outer loop
         vertex 1.232344e+003 8.572501e+002 8.740774e+001
         vertex 1.225995e+003 8.572501e+002 8.740774e+001
         vertex 1.225995e+003 8.580770e+002 8.733538e+001
      endloop
   endfacet
   facet normal -1.625834e-017 -1.161583e-001 -9.932307e-001
      outer loop
         vertex 1.232344e+003 8.572501e+002 8.740774e+001
         vertex 1.225995e+003 8.580770e+002 8.733538e+001
         vertex 1.232344e+003 8.580770e+002 8.733538e+001
      endloop
   endfacet
   facet normal -1.585413e-017 -2.305519e-001 -9.730600e-001
      outer loop
         vertex 1.232344e+003 8.580770e+002 8.733538e+001
         vertex 1.225995e+003 8.580770e+002 8.733538e+001
         vertex 1.225995e+003 8.588789e+002 8.712053e+001
      endloop
   endfacet
   facet normal -1.557031e-017 -2.868663e-001 -9.579706e-001
      outer loop
         vertex 1.232344e+003 8.580770e+002 8.733538e+001
         vertex 1.225995e+003 8.588789e+002 8.712053e+001
         vertex 1.232344e+003 8.588789e+002 8.712053e+001
      endloop
   endfacet
   facet normal -1.484783e-017 -3.960194e-001 -9.182422e-001
      outer loop
         vertex 1.232344e+003 8.588789e+002 8.712053e+001
         vertex 1.225995e+003 8.588789e+002 8.712053e+001
         vertex 1.225995e+003 8.596312e+002 8.676970e+001
      endloop
   endfacet
   facet normal -1.440918e-017 -4.488580e-001 -8.936031e-001
      outer loop
         vertex 1.232344e+003 8.588789e+002 8.712053e+001
         vertex 1.225995e+003 8.596312e+002 8.676970e+001
         vertex 1.232344e+003 8.596312e+002 8.676970e+001
      endloop
   endfacet
   facet normal -1.339038e-017 -5.494540e-001 -8.355240e-001
      outer loop
         vertex 1.232344e+003 8.596312e+002 8.676970e+001
         vertex 1.225995e+003 8.596312e+002 8.676970e+001
         vertex 1.225995e+003 8.603113e+002 8.629352e+001
      endloop
   endfacet
   facet normal -1.281023e-017 -5.972114e-001 -8.020839e-001
      outer loop
         vertex 1.232344e+003 8.596312e+002 8.676970e+001
         vertex 1.225995e+003 8.603113e+002 8.629352e+001
         vertex 1.232344e+003 8.603113e+002 8.629352e+001
      endloop
   endfacet
   facet normal -1.152607e-017 -6.861938e-001 -7.274188e-001
      outer loop
         vertex 1.232344e+003 8.603113e+002 8.629352e+001
         vertex 1.225995e+003 8.603113e+002 8.629352e+001
         vertex 1.225995e+003 8.608983e+002 8.570654e+001
      endloop
   endfacet
   facet normal -1.082206e-017 -7.274188e-001 -6.861938e-001
      outer loop
         vertex 1.232344e+003 8.603113e+002 8.629352e+001
         vertex 1.225995e+003 8.608983e+002 8.570654e+001
         vertex 1.232344e+003 8.608983e+002 8.570654e+001
      endloop
   endfacet
   facet normal -9.311547e-018 -8.020839e-001 -5.972114e-001
      outer loop
         vertex 1.232344e+003 8.608983e+002 8.570654e+001
         vertex 1.225995e+003 8.608983e+002 8.570654e+001
         vertex 1.225995e+003 8.613745e+002 8.502650e+001
      endloop
   endfacet
   facet normal -8.505055e-018 -8.355240e-001 -5.494540e-001
      outer loop
         vertex 1.232344e+003 8.608983e+002 8.570654e+001
         vertex 1.225995e+003 8.613745e+002 8.502650e+001
         vertex 1.232344e+003 8.613745e+002 8.502650e+001
      endloop
   endfacet
   facet normal -6.814098e-018 -8.936031e-001 -4.488580e-001
      outer loop
         vertex 1.232344e+003 8.613745e+002 8.502650e+001
         vertex 1.225995e+003 8.613745e+002 8.502650e+001
         vertex 1.225995e+003 8.617253e+002 8.427412e+001
      endloop
   endfacet
   facet normal -5.929634e-018 -9.182422e-001 -3.960194e-001
      outer loop
         vertex 1.232344e+003 8.613745e+002 8.502650e+001
         vertex 1.225995e+003 8.617253e+002 8.427412e+001
         vertex 1.232344e+003 8.617253e+002 8.427412e+001
      endloop
   endfacet
   facet normal -4.109605e-018 -9.579706e-001 -2.868663e-001
      outer loop
         vertex 1.232344e+003 8.617253e+002 8.427412e+001
         vertex 1.225995e+003 8.617253e+002 8.427412e+001
         vertex 1.225995e+003 8.619401e+002 8.347225e+001
      endloop
   endfacet
   facet normal -3.174042e-018 -9.730600e-001 -2.305519e-001
      outer loop
         vertex 1.232344e+003 8.617253e+002 8.427412e+001
         vertex 1.225995e+003 8.619401e+002 8.347225e+001
         vertex 1.232344e+003 8.619401e+002 8.347225e+001
      endloop
   endfacet
   facet normal -1.280244e-018 -9.932307e-001 -1.161583e-001
      outer loop
         vertex 1.232344e+003 8.619401e+002 8.347225e+001
         vertex 1.225995e+003 8.619401e+002 8.347225e+001
         vertex 1.225995e+003 8.620125e+002 8.264524e+001
      endloop
   endfacet
endsolid