solid CubeDouble - C0-6
   facet normal 0.000000e+000 -1.000000e+000 0.000000e+000
      outer loop
         vertex 3.590964e+001 5.024044e+002 7.634436e+001
         vertex 2.340964e+001 5.024044e+002 8.884437e+001
         vertex 3.590964e+001 5.024044e+002 2.634436e+001
      endloop
   endfacet
   facet normal 0.000000e+000 -1.000000e+000 0.000000e+000
      outer loop
         vertex 3.590964e+001 5.024044e+002 2.634436e+001
         vertex 2.340964e+001 5.024044e+002 8.884437e+001
         vertex 2.340964e+001 5.024044e+002 1.384436e+001
      endloop
   endfacet
   facet normal 0.000000e+000 -1.000000e+000 0.000000e+000
      outer loop
         vertex 3.590964e+001 5.024044e+002 2.634436e+001
         vertex 2.340964e+001 5.024044e+002 1.384436e+001
         vertex 8.590965e+001 5.024044e+002 2.634436e+001
      endloop
   endfacet
   facet normal 0.000000e+000 -1.000000e+000 0.000000e+000
      outer loop
         vertex 8.590965e+001 5.024044e+002 2.634436e+001
         vertex 2.340964e+001 5.024044e+002 1.384436e+001
         vertex 9.840965e+001 5.024044e+002 1.384436e+001
      endloop
   endfacet
   facet normal 0.000000e+000 -1.000000e+000 0.000000e+000
      outer loop
         vertex 8.590965e+001 5.024044e+002 2.634436e+001
         vertex 9.840965e+001 5.024044e+002 1.384436e+001
         vertex 8.590965e+001 5.024044e+002 7.634436e+001
      endloop
   endfacet
   facet normal 0.000000e+000 -1.000000e+000 0.000000e+000
      outer loop
         vertex 8.590965e+001 5.024044e+002 7.634436e+001
         vertex 9.840965e+001 5.024044e+002 1.384436e+001
         vertex 9.840965e+001 5.024044e+002 8.884437e+001
      endloop
   endfacet
   facet normal 0.000000e+000 -1.000000e+000 0.000000e+000
      outer loop
         vertex 8.590965e+001 5.024044e+002 7.634436e+001
         vertex 9.840965e+001 5.024044e+002 8.884437e+001
         vertex 3.590964e+001 5.024044e+002 7.634436e+001
      endloop
   endfacet
   facet normal 0.000000e+000 -1.000000e+000 0.000000e+000
      outer loop
         vertex 3.590964e+001 5.024044e+002 7.634436e+001
         vertex 9.840965e+001 5.024044e+002 8.884437e+001
         vertex 2.340964e+001 5.024044e+002 8.884437e+001
      endloop
   endfacet
   facet normal -1.000000e+000 0.000000e+000 0.000000e+000
      outer loop
         vertex 2.340964e+001 5.024044e+002 1.384436e+001
         vertex 2.340964e+001 5.024044e+002 8.884437e+001
         vertex 2.340964e+001 8.024045e+002 1.384436e+001
      endloop
   endfacet
   facet normal -1.000000e+000 0.000000e+000 0.000000e+000
      outer loop
         vertex 2.340964e+001 8.024045e+002 1.384436e+001
         vertex 2.340964e+001 5.024044e+002 8.884437e+001
         vertex 2.340964e+001 8.024045e+002 8.884437e+001
      endloop
   endfacet
   facet normal 0.000000e+000 0.000000e+000 -1.000000e+000
      outer loop
         vertex 9.840965e+001 5.024044e+002 1.384436e+001
         vertex 2.340964e+001 5.024044e+002 1.384436e+001
         vertex 9.840965e+001 8.024045e+002 1.384436e+001
      endloop
   endfacet
   facet normal 0.000000e+000 0.000000e+000 -1.000000e+000
      outer loop
         vertex 9.840965e+001 8.024045e+002 1.384436e+001
         vertex 2.340964e+001 5.024044e+002 1.384436e+001
         vertex 2.340964e+001 8.024045e+002 1.384436e+001
      endloop
   endfacet
   facet normal 1.000000e+000 0.000000e+000 0.000000e+000
      outer loop
         vertex 9.840965e+001 5.024044e+002 8.884437e+001
         vertex 9.840965e+001 5.024044e+002 1.384436e+001
         vertex 9.840965e+001 8.024045e+002 8.884437e+001
      endloop
   endfacet
   facet normal 1.000000e+000 0.000000e+000 0.000000e+000
      outer loop
         vertex 9.840965e+001 8.024045e+002 8.884437e+001
         vertex 9.840965e+001 5.024044e+002 1.384436e+001
         vertex 9.840965e+001 8.024045e+002 1.384436e+001
      endloop
   endfacet
   facet normal -9.251858e-017 0.000000e+000 1.000000e+000
      outer loop
         vertex 2.340964e+001 5.024044e+002 8.884437e+001
         vertex 9.840965e+001 5.024044e+002 8.884437e+001
         vertex 2.340964e+001 8.024045e+002 8.884437e+001
      endloop
   endfacet
   facet normal -9.251858e-017 0.000000e+000 1.000000e+000
      outer loop
         vertex 2.340964e+001 8.024045e+002 8.884437e+001
         vertex 9.840965e+001 5.024044e+002 8.884437e+001
         vertex 9.840965e+001 8.024045e+002 8.884437e+001
      endloop
   endfacet
   facet normal 0.000000e+000 1.000000e+000 0.000000e+000
      outer loop
         vertex 3.590964e+001 8.024045e+002 7.634436e+001
         vertex 2.340964e+001 8.024045e+002 8.884437e+001
         vertex 9.840965e+001 8.024045e+002 8.884437e+001
      endloop
   endfacet
   facet normal 0.000000e+000 1.000000e+000 0.000000e+000
      outer loop
         vertex 2.340964e+001 8.024045e+002 8.884437e+001
         vertex 3.590964e+001 8.024045e+002 7.634436e+001
         vertex 2.340964e+001 8.024045e+002 1.384436e+001
      endloop
   endfacet
   facet normal 0.000000e+000 1.000000e+000 0.000000e+000
      outer loop
         vertex 2.340964e+001 8.024045e+002 1.384436e+001
         vertex 3.590964e+001 8.024045e+002 7.634436e+001
         vertex 3.590964e+001 8.024045e+002 2.634436e+001
      endloop
   endfacet
   facet normal 0.000000e+000 1.000000e+000 0.000000e+000
      outer loop
         vertex 2.340964e+001 8.024045e+002 1.384436e+001
         vertex 3.590964e+001 8.024045e+002 2.634436e+001
         vertex 9.840965e+001 8.024045e+002 1.384436e+001
      endloop
   endfacet
   facet normal 0.000000e+000 1.000000e+000 0.000000e+000
      outer loop
         vertex 9.840965e+001 8.024045e+002 1.384436e+001
         vertex 3.590964e+001 8.024045e+002 2.634436e+001
         vertex 8.590965e+001 8.024045e+002 2.634436e+001
      endloop
   endfacet
   facet normal 0.000000e+000 1.000000e+000 0.000000e+000
      outer loop
         vertex 9.840965e+001 8.024045e+002 1.384436e+001
         vertex 8.590965e+001 8.024045e+002 2.634436e+001
         vertex 9.840965e+001 8.024045e+002 8.884437e+001
      endloop
   endfacet
   facet normal 0.000000e+000 1.000000e+000 0.000000e+000
      outer loop
         vertex 9.840965e+001 8.024045e+002 8.884437e+001
         vertex 8.590965e+001 8.024045e+002 2.634436e+001
         vertex 8.590965e+001 8.024045e+002 7.634436e+001
      endloop
   endfacet
   facet normal 0.000000e+000 1.000000e+000 0.000000e+000
      outer loop
         vertex 9.840965e+001 8.024045e+002 8.884437e+001
         vertex 8.590965e+001 8.024045e+002 7.634436e+001
         vertex 3.590964e+001 8.024045e+002 7.634436e+001
      endloop
   endfacet
   facet normal -1.000000e+000 0.000000e+000 0.000000e+000
      outer loop
         vertex 3.590964e+001 4.824045e+002 2.634436e+001
         vertex 3.590964e+001 4.824045e+002 7.634436e+001
         vertex 3.590964e+001 5.024044e+002 2.634436e+001
      endloop
   endfacet
   facet normal -1.000000e+000 0.000000e+000 0.000000e+000
      outer loop
         vertex 3.590964e+001 5.024044e+002 2.634436e+001
         vertex 3.590964e+001 4.824045e+002 7.634436e+001
         vertex 3.590964e+001 5.024044e+002 7.634436e+001
      endloop
   endfacet
   facet normal 1.387779e-016 0.000000e+000 -1.000000e+000
      outer loop
         vertex 8.590965e+001 4.824045e+002 2.634436e+001
         vertex 3.590964e+001 4.824045e+002 2.634436e+001
         vertex 8.590965e+001 5.024044e+002 2.634436e+001
      endloop
   endfacet
   facet normal 1.387779e-016 0.000000e+000 -1.000000e+000
      outer loop
         vertex 8.590965e+001 5.024044e+002 2.634436e+001
         vertex 3.590964e+001 4.824045e+002 2.634436e+001
         vertex 3.590964e+001 5.024044e+002 2.634436e+001
      endloop
   endfacet
   facet normal 1.000000e+000 0.000000e+000 0.000000e+000
      outer loop
         vertex 8.590965e+001 4.824045e+002 7.634436e+001
         vertex 8.590965e+001 4.824045e+002 2.634436e+001
         vertex 8.590965e+001 5.024044e+002 7.634436e+001
      endloop
   endfacet
   facet normal 1.000000e+000 0.000000e+000 0.000000e+000
      outer loop
         vertex 8.590965e+001 5.024044e+002 7.634436e+001
         vertex 8.590965e+001 4.824045e+002 2.634436e+001
         vertex 8.590965e+001 5.024044e+002 2.634436e+001
      endloop
   endfacet
   facet normal -1.387779e-016 0.000000e+000 1.000000e+000
      outer loop
         vertex 3.590964e+001 4.824045e+002 7.634436e+001
         vertex 8.590965e+001 4.824045e+002 7.634436e+001
         vertex 3.590964e+001 5.024044e+002 7.634436e+001
      endloop
   endfacet
   facet normal -1.387779e-016 0.000000e+000 1.000000e+000
      outer loop
         vertex 3.590964e+001 5.024044e+002 7.634436e+001
         vertex 8.590965e+001 4.824045e+002 7.634436e+001
         vertex 8.590965e+001 5.024044e+002 7.634436e+001
      endloop
   endfacet
   facet normal 0.000000e+000 -1.000000e+000 0.000000e+000
      outer loop
         vertex 8.590965e+001 4.824045e+002 2.634436e+001
         vertex 8.590965e+001 4.824045e+002 7.634436e+001
         vertex 3.590964e+001 4.824045e+002 2.634436e+001
      endloop
   endfacet
   facet normal 0.000000e+000 -1.000000e+000 0.000000e+000
      outer loop
         vertex 3.590964e+001 4.824045e+002 2.634436e+001
         vertex 8.590965e+001 4.824045e+002 7.634436e+001
         vertex 3.590964e+001 4.824045e+002 7.634436e+001
      endloop
   endfacet
   facet normal -1.000000e+000 0.000000e+000 0.000000e+000
      outer loop
         vertex 3.590964e+001 8.224045e+002 7.634436e+001
         vertex 3.590964e+001 8.224045e+002 2.634436e+001
         vertex 3.590964e+001 8.024045e+002 7.634436e+001
      endloop
   endfacet
   facet normal -1.000000e+000 0.000000e+000 0.000000e+000
      outer loop
         vertex 3.590964e+001 8.024045e+002 7.634436e+001
         vertex 3.590964e+001 8.224045e+002 2.634436e+001
         vertex 3.590964e+001 8.024045e+002 2.634436e+001
      endloop
   endfacet
   facet normal -1.387779e-016 0.000000e+000 1.000000e+000
      outer loop
         vertex 8.590965e+001 8.224045e+002 7.634436e+001
         vertex 3.590964e+001 8.224045e+002 7.634436e+001
         vertex 8.590965e+001 8.024045e+002 7.634436e+001
      endloop
   endfacet
   facet normal -1.387779e-016 0.000000e+000 1.000000e+000
      outer loop
         vertex 8.590965e+001 8.024045e+002 7.634436e+001
         vertex 3.590964e+001 8.224045e+002 7.634436e+001
         vertex 3.590964e+001 8.024045e+002 7.634436e+001
      endloop
   endfacet
   facet normal 1.000000e+000 0.000000e+000 0.000000e+000
      outer loop
         vertex 8.590965e+001 8.224045e+002 2.634436e+001
         vertex 8.590965e+001 8.224045e+002 7.634436e+001
         vertex 8.590965e+001 8.024045e+002 2.634436e+001
      endloop
   endfacet
   facet normal 1.000000e+000 0.000000e+000 0.000000e+000
      outer loop
         vertex 8.590965e+001 8.024045e+002 2.634436e+001
         vertex 8.590965e+001 8.224045e+002 7.634436e+001
         vertex 8.590965e+001 8.024045e+002 7.634436e+001
      endloop
   endfacet
   facet normal 1.387779e-016 0.000000e+000 -1.000000e+000
      outer loop
         vertex 3.590964e+001 8.224045e+002 2.634436e+001
         vertex 8.590965e+001 8.224045e+002 2.634436e+001
         vertex 3.590964e+001 8.024045e+002 2.634436e+001
      endloop
   endfacet
   facet normal 1.387779e-016 0.000000e+000 -1.000000e+000
      outer loop
         vertex 3.590964e+001 8.024045e+002 2.634436e+001
         vertex 8.590965e+001 8.224045e+002 2.634436e+001
         vertex 8.590965e+001 8.024045e+002 2.634436e+001
      endloop
   endfacet
   facet normal 0.000000e+000 1.000000e+000 0.000000e+000
      outer loop
         vertex 8.590965e+001 8.224045e+002 7.634436e+001
         vertex 8.590965e+001 8.224045e+002 2.634436e+001
         vertex 3.590964e+001 8.224045e+002 7.634436e+001
      endloop
   endfacet
   facet normal 0.000000e+000 1.000000e+000 0.000000e+000
      outer loop
         vertex 3.590964e+001 8.224045e+002 7.634436e+001
         vertex 8.590965e+001 8.224045e+002 2.634436e+001
         vertex 3.590964e+001 8.224045e+002 2.634436e+001
      endloop
   endfacet
endsolid