solid CubeDouble - cube-4 BCG0-1
   facet normal 0.000000e+000 0.000000e+000 1.000000e+000
      outer loop
         vertex 8.859096e+002 4.274044e+002 2.634436e+001
         vertex 9.109097e+002 4.274044e+002 2.634436e+001
         vertex 8.859096e+002 4.774045e+002 2.634436e+001
      endloop
   endfacet
   facet normal 0.000000e+000 0.000000e+000 1.000000e+000
      outer loop
         vertex 8.859096e+002 4.774045e+002 2.634436e+001
         vertex 9.109097e+002 4.274044e+002 2.634436e+001
         vertex 9.109097e+002 4.774045e+002 2.634436e+001
      endloop
   endfacet
   facet normal 0.000000e+000 0.000000e+000 1.000000e+000
      outer loop
         vertex 8.359097e+002 4.274044e+002 2.634436e+001
         vertex 8.359097e+002 4.024044e+002 2.634436e+001
         vertex 8.859096e+002 4.274044e+002 2.634436e+001
      endloop
   endfacet
   facet normal 0.000000e+000 0.000000e+000 1.000000e+000
      outer loop
         vertex 8.859096e+002 4.274044e+002 2.634436e+001
         vertex 8.359097e+002 4.024044e+002 2.634436e+001
         vertex 8.859096e+002 4.024044e+002 2.634436e+001
      endloop
   endfacet
   facet normal 0.000000e+000 0.000000e+000 1.000000e+000
      outer loop
         vertex 8.359097e+002 4.774045e+002 2.634436e+001
         vertex 8.109096e+002 4.774045e+002 2.634436e+001
         vertex 8.359097e+002 4.274044e+002 2.634436e+001
      endloop
   endfacet
   facet normal 0.000000e+000 0.000000e+000 1.000000e+000
      outer loop
         vertex 8.359097e+002 4.274044e+002 2.634436e+001
         vertex 8.109096e+002 4.774045e+002 2.634436e+001
         vertex 8.109096e+002 4.274044e+002 2.634436e+001
      endloop
   endfacet
   facet normal 0.000000e+000 0.000000e+000 -1.000000e+000
      outer loop
         vertex 8.859096e+002 4.774045e+002 7.634436e+001
         vertex 9.109097e+002 4.774045e+002 7.634436e+001
         vertex 8.859096e+002 4.274044e+002 7.634436e+001
      endloop
   endfacet
   facet normal 0.000000e+000 0.000000e+000 -1.000000e+000
      outer loop
         vertex 8.859096e+002 4.274044e+002 7.634436e+001
         vertex 9.109097e+002 4.774045e+002 7.634436e+001
         vertex 9.109097e+002 4.274044e+002 7.634436e+001
      endloop
   endfacet
   facet normal 0.000000e+000 0.000000e+000 -1.000000e+000
      outer loop
         vertex 8.859096e+002 4.274044e+002 7.634436e+001
         vertex 8.859096e+002 4.024044e+002 7.634436e+001
         vertex 8.359097e+002 4.274044e+002 7.634436e+001
      endloop
   endfacet
   facet normal 0.000000e+000 0.000000e+000 -1.000000e+000
      outer loop
         vertex 8.359097e+002 4.274044e+002 7.634436e+001
         vertex 8.859096e+002 4.024044e+002 7.634436e+001
         vertex 8.359097e+002 4.024044e+002 7.634436e+001
      endloop
   endfacet
   facet normal 0.000000e+000 0.000000e+000 -1.000000e+000
      outer loop
         vertex 8.359097e+002 4.274044e+002 7.634436e+001
         vertex 8.109096e+002 4.274044e+002 7.634436e+001
         vertex 8.359097e+002 4.774045e+002 7.634436e+001
      endloop
   endfacet
   facet normal 0.000000e+000 0.000000e+000 -1.000000e+000
      outer loop
         vertex 8.359097e+002 4.774045e+002 7.634436e+001
         vertex 8.109096e+002 4.274044e+002 7.634436e+001
         vertex 8.109096e+002 4.774045e+002 7.634436e+001
      endloop
   endfacet
   facet normal -1.000000e+000 0.000000e+000 0.000000e+000
      outer loop
         vertex 8.859096e+002 4.774045e+002 7.634436e+001
         vertex 8.859096e+002 5.024044e+002 7.634436e+001
         vertex 8.859096e+002 4.774045e+002 2.634436e+001
      endloop
   endfacet
   facet normal -1.000000e+000 0.000000e+000 0.000000e+000
      outer loop
         vertex 8.859096e+002 4.774045e+002 2.634436e+001
         vertex 8.859096e+002 5.024044e+002 7.634436e+001
         vertex 8.859096e+002 5.024044e+002 2.634436e+001
      endloop
   endfacet
   facet normal 1.000000e+000 0.000000e+000 0.000000e+000
      outer loop
         vertex 8.359097e+002 4.774045e+002 2.634436e+001
         vertex 8.359097e+002 5.024044e+002 2.634436e+001
         vertex 8.359097e+002 4.774045e+002 7.634436e+001
      endloop
   endfacet
   facet normal 1.000000e+000 0.000000e+000 0.000000e+000
      outer loop
         vertex 8.359097e+002 4.774045e+002 7.634436e+001
         vertex 8.359097e+002 5.024044e+002 2.634436e+001
         vertex 8.359097e+002 5.024044e+002 7.634436e+001
      endloop
   endfacet
   facet normal 1.000000e+000 0.000000e+000 0.000000e+000
      outer loop
         vertex 9.109097e+002 4.774045e+002 7.634436e+001
         vertex 9.109097e+002 5.024044e+002 1.013444e+002
         vertex 9.109097e+002 4.024044e+002 1.013444e+002
      endloop
   endfacet
   facet normal 1.000000e+000 0.000000e+000 0.000000e+000
      outer loop
         vertex 9.109097e+002 5.024044e+002 1.013444e+002
         vertex 9.109097e+002 4.774045e+002 7.634436e+001
         vertex 9.109097e+002 5.024044e+002 1.344361e+000
      endloop
   endfacet
   facet normal 1.000000e+000 0.000000e+000 0.000000e+000
      outer loop
         vertex 9.109097e+002 5.024044e+002 1.344361e+000
         vertex 9.109097e+002 4.774045e+002 7.634436e+001
         vertex 9.109097e+002 4.774045e+002 2.634436e+001
      endloop
   endfacet
   facet normal 1.000000e+000 0.000000e+000 0.000000e+000
      outer loop
         vertex 9.109097e+002 5.024044e+002 1.344361e+000
         vertex 9.109097e+002 4.774045e+002 2.634436e+001
         vertex 9.109097e+002 4.024044e+002 1.344361e+000
      endloop
   endfacet
   facet normal 1.000000e+000 0.000000e+000 0.000000e+000
      outer loop
         vertex 9.109097e+002 4.024044e+002 1.344361e+000
         vertex 9.109097e+002 4.774045e+002 2.634436e+001
         vertex 9.109097e+002 4.274044e+002 2.634436e+001
      endloop
   endfacet
   facet normal 1.000000e+000 0.000000e+000 0.000000e+000
      outer loop
         vertex 9.109097e+002 4.024044e+002 1.344361e+000
         vertex 9.109097e+002 4.274044e+002 2.634436e+001
         vertex 9.109097e+002 4.024044e+002 1.013444e+002
      endloop
   endfacet
   facet normal 1.000000e+000 0.000000e+000 0.000000e+000
      outer loop
         vertex 9.109097e+002 4.024044e+002 1.013444e+002
         vertex 9.109097e+002 4.274044e+002 2.634436e+001
         vertex 9.109097e+002 4.274044e+002 7.634436e+001
      endloop
   endfacet
   facet normal 1.000000e+000 0.000000e+000 0.000000e+000
      outer loop
         vertex 9.109097e+002 4.024044e+002 1.013444e+002
         vertex 9.109097e+002 4.274044e+002 7.634436e+001
         vertex 9.109097e+002 4.774045e+002 7.634436e+001
      endloop
   endfacet
   facet normal 0.000000e+000 0.000000e+000 1.000000e+000
      outer loop
         vertex 8.359097e+002 4.774045e+002 1.013444e+002
         vertex 8.109096e+002 5.024044e+002 1.013444e+002
         vertex 8.359097e+002 4.274044e+002 1.013444e+002
      endloop
   endfacet
   facet normal 0.000000e+000 0.000000e+000 1.000000e+000
      outer loop
         vertex 8.359097e+002 4.274044e+002 1.013444e+002
         vertex 8.109096e+002 5.024044e+002 1.013444e+002
         vertex 8.109096e+002 4.024044e+002 1.013444e+002
      endloop
   endfacet
   facet normal 0.000000e+000 0.000000e+000 1.000000e+000
      outer loop
         vertex 8.359097e+002 4.274044e+002 1.013444e+002
         vertex 8.109096e+002 4.024044e+002 1.013444e+002
         vertex 8.859096e+002 4.274044e+002 1.013444e+002
      endloop
   endfacet
   facet normal 0.000000e+000 0.000000e+000 1.000000e+000
      outer loop
         vertex 8.859096e+002 4.274044e+002 1.013444e+002
         vertex 8.109096e+002 4.024044e+002 1.013444e+002
         vertex 9.109097e+002 4.024044e+002 1.013444e+002
      endloop
   endfacet
   facet normal 0.000000e+000 0.000000e+000 1.000000e+000
      outer loop
         vertex 8.859096e+002 4.274044e+002 1.013444e+002
         vertex 9.109097e+002 4.024044e+002 1.013444e+002
         vertex 8.859096e+002 4.774045e+002 1.013444e+002
      endloop
   endfacet
   facet normal 0.000000e+000 0.000000e+000 1.000000e+000
      outer loop
         vertex 8.859096e+002 4.774045e+002 1.013444e+002
         vertex 9.109097e+002 4.024044e+002 1.013444e+002
         vertex 9.109097e+002 5.024044e+002 1.013444e+002
      endloop
   endfacet
   facet normal 0.000000e+000 0.000000e+000 1.000000e+000
      outer loop
         vertex 8.859096e+002 4.774045e+002 1.013444e+002
         vertex 9.109097e+002 5.024044e+002 1.013444e+002
         vertex 8.359097e+002 4.774045e+002 1.013444e+002
      endloop
   endfacet
   facet normal 0.000000e+000 0.000000e+000 1.000000e+000
      outer loop
         vertex 8.359097e+002 4.774045e+002 1.013444e+002
         vertex 9.109097e+002 5.024044e+002 1.013444e+002
         vertex 8.109096e+002 5.024044e+002 1.013444e+002
      endloop
   endfacet
   facet normal -1.000000e+000 0.000000e+000 0.000000e+000
      outer loop
         vertex 8.109096e+002 4.274044e+002 7.634436e+001
         vertex 8.109096e+002 4.024044e+002 1.013444e+002
         vertex 8.109096e+002 4.774045e+002 7.634436e+001
      endloop
   endfacet
   facet normal -1.000000e+000 0.000000e+000 0.000000e+000
      outer loop
         vertex 8.109096e+002 4.774045e+002 7.634436e+001
         vertex 8.109096e+002 4.024044e+002 1.013444e+002
         vertex 8.109096e+002 5.024044e+002 1.013444e+002
      endloop
   endfacet
   facet normal -1.000000e+000 0.000000e+000 0.000000e+000
      outer loop
         vertex 8.109096e+002 4.774045e+002 7.634436e+001
         vertex 8.109096e+002 5.024044e+002 1.013444e+002
         vertex 8.109096e+002 4.774045e+002 2.634436e+001
      endloop
   endfacet
   facet normal -1.000000e+000 0.000000e+000 0.000000e+000
      outer loop
         vertex 8.109096e+002 4.774045e+002 2.634436e+001
         vertex 8.109096e+002 5.024044e+002 1.013444e+002
         vertex 8.109096e+002 5.024044e+002 1.344361e+000
      endloop
   endfacet
   facet normal -1.000000e+000 0.000000e+000 0.000000e+000
      outer loop
         vertex 8.109096e+002 4.774045e+002 2.634436e+001
         vertex 8.109096e+002 5.024044e+002 1.344361e+000
         vertex 8.109096e+002 4.274044e+002 2.634436e+001
      endloop
   endfacet
   facet normal -1.000000e+000 0.000000e+000 0.000000e+000
      outer loop
         vertex 8.109096e+002 4.274044e+002 2.634436e+001
         vertex 8.109096e+002 5.024044e+002 1.344361e+000
         vertex 8.109096e+002 4.024044e+002 1.344361e+000
      endloop
   endfacet
   facet normal -1.000000e+000 0.000000e+000 0.000000e+000
      outer loop
         vertex 8.109096e+002 4.274044e+002 2.634436e+001
         vertex 8.109096e+002 4.024044e+002 1.344361e+000
         vertex 8.109096e+002 4.274044e+002 7.634436e+001
      endloop
   endfacet
   facet normal -1.000000e+000 0.000000e+000 0.000000e+000
      outer loop
         vertex 8.109096e+002 4.274044e+002 7.634436e+001
         vertex 8.109096e+002 4.024044e+002 1.344361e+000
         vertex 8.109096e+002 4.024044e+002 1.013444e+002
      endloop
   endfacet
   facet normal 0.000000e+000 0.000000e+000 -1.000000e+000
      outer loop
         vertex 8.359097e+002 4.274044e+002 1.344361e+000
         vertex 8.109096e+002 4.024044e+002 1.344361e+000
         vertex 8.359097e+002 4.774045e+002 1.344361e+000
      endloop
   endfacet
   facet normal 0.000000e+000 0.000000e+000 -1.000000e+000
      outer loop
         vertex 8.359097e+002 4.774045e+002 1.344361e+000
         vertex 8.109096e+002 4.024044e+002 1.344361e+000
         vertex 8.109096e+002 5.024044e+002 1.344361e+000
      endloop
   endfacet
   facet normal 0.000000e+000 0.000000e+000 -1.000000e+000
      outer loop
         vertex 8.359097e+002 4.774045e+002 1.344361e+000
         vertex 8.109096e+002 5.024044e+002 1.344361e+000
         vertex 8.859096e+002 4.774045e+002 1.344361e+000
      endloop
   endfacet
   facet normal 0.000000e+000 0.000000e+000 -1.000000e+000
      outer loop
         vertex 8.859096e+002 4.774045e+002 1.344361e+000
         vertex 8.109096e+002 5.024044e+002 1.344361e+000
         vertex 9.109097e+002 5.024044e+002 1.344361e+000
      endloop
   endfacet
   facet normal 0.000000e+000 0.000000e+000 -1.000000e+000
      outer loop
         vertex 8.859096e+002 4.774045e+002 1.344361e+000
         vertex 9.109097e+002 5.024044e+002 1.344361e+000
         vertex 8.859096e+002 4.274044e+002 1.344361e+000
      endloop
   endfacet
   facet normal 0.000000e+000 0.000000e+000 -1.000000e+000
      outer loop
         vertex 8.859096e+002 4.274044e+002 1.344361e+000
         vertex 9.109097e+002 5.024044e+002 1.344361e+000
         vertex 9.109097e+002 4.024044e+002 1.344361e+000
      endloop
   endfacet
   facet normal 0.000000e+000 0.000000e+000 -1.000000e+000
      outer loop
         vertex 8.859096e+002 4.274044e+002 1.344361e+000
         vertex 9.109097e+002 4.024044e+002 1.344361e+000
         vertex 8.359097e+002 4.274044e+002 1.344361e+000
      endloop
   endfacet
   facet normal 0.000000e+000 0.000000e+000 -1.000000e+000
      outer loop
         vertex 8.359097e+002 4.274044e+002 1.344361e+000
         vertex 9.109097e+002 4.024044e+002 1.344361e+000
         vertex 8.109096e+002 4.024044e+002 1.344361e+000
      endloop
   endfacet
   facet normal 0.000000e+000 -1.000000e+000 0.000000e+000
      outer loop
         vertex 8.859096e+002 4.024044e+002 7.634436e+001
         vertex 9.109097e+002 4.024044e+002 1.013444e+002
         vertex 8.109096e+002 4.024044e+002 1.013444e+002
      endloop
   endfacet
   facet normal 0.000000e+000 -1.000000e+000 0.000000e+000
      outer loop
         vertex 9.109097e+002 4.024044e+002 1.013444e+002
         vertex 8.859096e+002 4.024044e+002 7.634436e+001
         vertex 9.109097e+002 4.024044e+002 1.344361e+000
      endloop
   endfacet
   facet normal 0.000000e+000 -1.000000e+000 0.000000e+000
      outer loop
         vertex 9.109097e+002 4.024044e+002 1.344361e+000
         vertex 8.859096e+002 4.024044e+002 7.634436e+001
         vertex 8.859096e+002 4.024044e+002 2.634436e+001
      endloop
   endfacet
   facet normal 0.000000e+000 -1.000000e+000 0.000000e+000
      outer loop
         vertex 9.109097e+002 4.024044e+002 1.344361e+000
         vertex 8.859096e+002 4.024044e+002 2.634436e+001
         vertex 8.109096e+002 4.024044e+002 1.344361e+000
      endloop
   endfacet
   facet normal 0.000000e+000 -1.000000e+000 0.000000e+000
      outer loop
         vertex 8.109096e+002 4.024044e+002 1.344361e+000
         vertex 8.859096e+002 4.024044e+002 2.634436e+001
         vertex 8.359097e+002 4.024044e+002 2.634436e+001
      endloop
   endfacet
   facet normal 0.000000e+000 -1.000000e+000 0.000000e+000
      outer loop
         vertex 8.109096e+002 4.024044e+002 1.344361e+000
         vertex 8.359097e+002 4.024044e+002 2.634436e+001
         vertex 8.109096e+002 4.024044e+002 1.013444e+002
      endloop
   endfacet
   facet normal 0.000000e+000 -1.000000e+000 0.000000e+000
      outer loop
         vertex 8.109096e+002 4.024044e+002 1.013444e+002
         vertex 8.359097e+002 4.024044e+002 2.634436e+001
         vertex 8.359097e+002 4.024044e+002 7.634436e+001
      endloop
   endfacet
   facet normal 0.000000e+000 -1.000000e+000 0.000000e+000
      outer loop
         vertex 8.109096e+002 4.024044e+002 1.013444e+002
         vertex 8.359097e+002 4.024044e+002 7.634436e+001
         vertex 8.859096e+002 4.024044e+002 7.634436e+001
      endloop
   endfacet
   facet normal 0.000000e+000 1.000000e+000 0.000000e+000
      outer loop
         vertex 8.859096e+002 5.024044e+002 2.634436e+001
         vertex 9.109097e+002 5.024044e+002 1.344361e+000
         vertex 8.359097e+002 5.024044e+002 2.634436e+001
      endloop
   endfacet
   facet normal 0.000000e+000 1.000000e+000 0.000000e+000
      outer loop
         vertex 8.359097e+002 5.024044e+002 2.634436e+001
         vertex 9.109097e+002 5.024044e+002 1.344361e+000
         vertex 8.109096e+002 5.024044e+002 1.344361e+000
      endloop
   endfacet
   facet normal 0.000000e+000 1.000000e+000 0.000000e+000
      outer loop
         vertex 8.359097e+002 5.024044e+002 2.634436e+001
         vertex 8.109096e+002 5.024044e+002 1.344361e+000
         vertex 8.359097e+002 5.024044e+002 7.634436e+001
      endloop
   endfacet
   facet normal 0.000000e+000 1.000000e+000 0.000000e+000
      outer loop
         vertex 8.359097e+002 5.024044e+002 7.634436e+001
         vertex 8.109096e+002 5.024044e+002 1.344361e+000
         vertex 8.109096e+002 5.024044e+002 1.013444e+002
      endloop
   endfacet
   facet normal 0.000000e+000 1.000000e+000 0.000000e+000
      outer loop
         vertex 8.359097e+002 5.024044e+002 7.634436e+001
         vertex 8.109096e+002 5.024044e+002 1.013444e+002
         vertex 8.859096e+002 5.024044e+002 7.634436e+001
      endloop
   endfacet
   facet normal 0.000000e+000 1.000000e+000 0.000000e+000
      outer loop
         vertex 8.859096e+002 5.024044e+002 7.634436e+001
         vertex 8.109096e+002 5.024044e+002 1.013444e+002
         vertex 9.109097e+002 5.024044e+002 1.013444e+002
      endloop
   endfacet
   facet normal 0.000000e+000 1.000000e+000 0.000000e+000
      outer loop
         vertex 8.859096e+002 5.024044e+002 7.634436e+001
         vertex 9.109097e+002 5.024044e+002 1.013444e+002
         vertex 8.859096e+002 5.024044e+002 2.634436e+001
      endloop
   endfacet
   facet normal 0.000000e+000 1.000000e+000 0.000000e+000
      outer loop
         vertex 8.859096e+002 5.024044e+002 2.634436e+001
         vertex 9.109097e+002 5.024044e+002 1.013444e+002
         vertex 9.109097e+002 5.024044e+002 1.344361e+000
      endloop
   endfacet
   facet normal -1.000000e+000 0.000000e+000 0.000000e+000
      outer loop
         vertex 8.859096e+002 4.274044e+002 2.634436e+001
         vertex 8.859096e+002 4.024044e+002 2.634436e+001
         vertex 8.859096e+002 4.274044e+002 7.634436e+001
      endloop
   endfacet
   facet normal -1.000000e+000 0.000000e+000 0.000000e+000
      outer loop
         vertex 8.859096e+002 4.274044e+002 7.634436e+001
         vertex 8.859096e+002 4.024044e+002 2.634436e+001
         vertex 8.859096e+002 4.024044e+002 7.634436e+001
      endloop
   endfacet
   facet normal 0.000000e+000 0.000000e+000 1.000000e+000
      outer loop
         vertex 8.859096e+002 4.774045e+002 2.634436e+001
         vertex 8.859096e+002 5.024044e+002 2.634436e+001
         vertex 8.359097e+002 4.774045e+002 2.634436e+001
      endloop
   endfacet
   facet normal 0.000000e+000 0.000000e+000 1.000000e+000
      outer loop
         vertex 8.359097e+002 4.774045e+002 2.634436e+001
         vertex 8.859096e+002 5.024044e+002 2.634436e+001
         vertex 8.359097e+002 5.024044e+002 2.634436e+001
      endloop
   endfacet
   facet normal 1.000000e+000 0.000000e+000 0.000000e+000
      outer loop
         vertex 8.359097e+002 4.274044e+002 7.634436e+001
         vertex 8.359097e+002 4.024044e+002 7.634436e+001
         vertex 8.359097e+002 4.274044e+002 2.634436e+001
      endloop
   endfacet
   facet normal 1.000000e+000 0.000000e+000 0.000000e+000
      outer loop
         vertex 8.359097e+002 4.274044e+002 2.634436e+001
         vertex 8.359097e+002 4.024044e+002 7.634436e+001
         vertex 8.359097e+002 4.024044e+002 2.634436e+001
      endloop
   endfacet
   facet normal 0.000000e+000 0.000000e+000 -1.000000e+000
      outer loop
         vertex 8.359097e+002 4.774045e+002 7.634436e+001
         vertex 8.359097e+002 5.024044e+002 7.634436e+001
         vertex 8.859096e+002 4.774045e+002 7.634436e+001
      endloop
   endfacet
   facet normal 0.000000e+000 0.000000e+000 -1.000000e+000
      outer loop
         vertex 8.859096e+002 4.774045e+002 7.634436e+001
         vertex 8.359097e+002 5.024044e+002 7.634436e+001
         vertex 8.859096e+002 5.024044e+002 7.634436e+001
      endloop
   endfacet
   facet normal 0.000000e+000 1.000000e+000 -1.387779e-016
      outer loop
         vertex 8.109096e+002 4.274044e+002 7.634436e+001
         vertex 8.359097e+002 4.274044e+002 7.634436e+001
         vertex 8.109096e+002 4.274044e+002 2.634436e+001
      endloop
   endfacet
   facet normal 0.000000e+000 1.000000e+000 -1.387779e-016
      outer loop
         vertex 8.109096e+002 4.274044e+002 2.634436e+001
         vertex 8.359097e+002 4.274044e+002 7.634436e+001
         vertex 8.359097e+002 4.274044e+002 2.634436e+001
      endloop
   endfacet
   facet normal 0.000000e+000 -1.000000e+000 1.387779e-016
      outer loop
         vertex 8.109096e+002 4.774045e+002 2.634436e+001
         vertex 8.359097e+002 4.774045e+002 2.634436e+001
         vertex 8.109096e+002 4.774045e+002 7.634436e+001
      endloop
   endfacet
   facet normal 0.000000e+000 -1.000000e+000 1.387779e-016
      outer loop
         vertex 8.109096e+002 4.774045e+002 7.634436e+001
         vertex 8.359097e+002 4.774045e+002 2.634436e+001
         vertex 8.359097e+002 4.774045e+002 7.634436e+001
      endloop
   endfacet
   facet normal 0.000000e+000 -1.000000e+000 1.387779e-016
      outer loop
         vertex 9.109097e+002 4.774045e+002 7.634436e+001
         vertex 8.859096e+002 4.774045e+002 7.634436e+001
         vertex 9.109097e+002 4.774045e+002 2.634436e+001
      endloop
   endfacet
   facet normal 0.000000e+000 -1.000000e+000 1.387779e-016
      outer loop
         vertex 9.109097e+002 4.774045e+002 2.634436e+001
         vertex 8.859096e+002 4.774045e+002 7.634436e+001
         vertex 8.859096e+002 4.774045e+002 2.634436e+001
      endloop
   endfacet
   facet normal 0.000000e+000 1.000000e+000 -1.387779e-016
      outer loop
         vertex 9.109097e+002 4.274044e+002 2.634436e+001
         vertex 8.859096e+002 4.274044e+002 2.634436e+001
         vertex 9.109097e+002 4.274044e+002 7.634436e+001
      endloop
   endfacet
   facet normal 0.000000e+000 1.000000e+000 -1.387779e-016
      outer loop
         vertex 9.109097e+002 4.274044e+002 7.634436e+001
         vertex 8.859096e+002 4.274044e+002 2.634436e+001
         vertex 8.859096e+002 4.274044e+002 7.634436e+001
      endloop
   endfacet
   facet normal 0.000000e+000 -1.000000e+000 0.000000e+000
      outer loop
         vertex 8.359097e+002 4.774045e+002 1.013444e+002
         vertex 8.359097e+002 4.774045e+002 7.634436e+001
         vertex 8.859096e+002 4.774045e+002 1.013444e+002
      endloop
   endfacet
   facet normal 0.000000e+000 -1.000000e+000 0.000000e+000
      outer loop
         vertex 8.859096e+002 4.774045e+002 1.013444e+002
         vertex 8.359097e+002 4.774045e+002 7.634436e+001
         vertex 8.859096e+002 4.774045e+002 7.634436e+001
      endloop
   endfacet
   facet normal 1.000000e+000 0.000000e+000 0.000000e+000
      outer loop
         vertex 8.359097e+002 4.274044e+002 1.013444e+002
         vertex 8.359097e+002 4.274044e+002 7.634436e+001
         vertex 8.359097e+002 4.774045e+002 1.013444e+002
      endloop
   endfacet
   facet normal 1.000000e+000 0.000000e+000 0.000000e+000
      outer loop
         vertex 8.359097e+002 4.774045e+002 1.013444e+002
         vertex 8.359097e+002 4.274044e+002 7.634436e+001
         vertex 8.359097e+002 4.774045e+002 7.634436e+001
      endloop
   endfacet
   facet normal 0.000000e+000 1.000000e+000 0.000000e+000
      outer loop
         vertex 8.859096e+002 4.274044e+002 1.013444e+002
         vertex 8.859096e+002 4.274044e+002 7.634436e+001
         vertex 8.359097e+002 4.274044e+002 1.013444e+002
      endloop
   endfacet
   facet normal 0.000000e+000 1.000000e+000 0.000000e+000
      outer loop
         vertex 8.359097e+002 4.274044e+002 1.013444e+002
         vertex 8.859096e+002 4.274044e+002 7.634436e+001
         vertex 8.359097e+002 4.274044e+002 7.634436e+001
      endloop
   endfacet
   facet normal -1.000000e+000 0.000000e+000 0.000000e+000
      outer loop
         vertex 8.859096e+002 4.774045e+002 1.013444e+002
         vertex 8.859096e+002 4.774045e+002 7.634436e+001
         vertex 8.859096e+002 4.274044e+002 1.013444e+002
      endloop
   endfacet
   facet normal -1.000000e+000 0.000000e+000 0.000000e+000
      outer loop
         vertex 8.859096e+002 4.274044e+002 1.013444e+002
         vertex 8.859096e+002 4.774045e+002 7.634436e+001
         vertex 8.859096e+002 4.274044e+002 7.634436e+001
      endloop
   endfacet
   facet normal 0.000000e+000 1.000000e+000 0.000000e+000
      outer loop
         vertex 8.359097e+002 4.274044e+002 1.344361e+000
         vertex 8.359097e+002 4.274044e+002 2.634436e+001
         vertex 8.859096e+002 4.274044e+002 1.344361e+000
      endloop
   endfacet
   facet normal 0.000000e+000 1.000000e+000 0.000000e+000
      outer loop
         vertex 8.859096e+002 4.274044e+002 1.344361e+000
         vertex 8.359097e+002 4.274044e+002 2.634436e+001
         vertex 8.859096e+002 4.274044e+002 2.634436e+001
      endloop
   endfacet
   facet normal 0.000000e+000 -1.000000e+000 0.000000e+000
      outer loop
         vertex 8.859096e+002 4.774045e+002 1.344361e+000
         vertex 8.859096e+002 4.774045e+002 2.634436e+001
         vertex 8.359097e+002 4.774045e+002 1.344361e+000
      endloop
   endfacet
   facet normal 0.000000e+000 -1.000000e+000 0.000000e+000
      outer loop
         vertex 8.359097e+002 4.774045e+002 1.344361e+000
         vertex 8.859096e+002 4.774045e+002 2.634436e+001
         vertex 8.359097e+002 4.774045e+002 2.634436e+001
      endloop
   endfacet
   facet normal 1.000000e+000 0.000000e+000 0.000000e+000
      outer loop
         vertex 8.359097e+002 4.774045e+002 1.344361e+000
         vertex 8.359097e+002 4.774045e+002 2.634436e+001
         vertex 8.359097e+002 4.274044e+002 1.344361e+000
      endloop
   endfacet
   facet normal 1.000000e+000 0.000000e+000 0.000000e+000
      outer loop
         vertex 8.359097e+002 4.274044e+002 1.344361e+000
         vertex 8.359097e+002 4.774045e+002 2.634436e+001
         vertex 8.359097e+002 4.274044e+002 2.634436e+001
      endloop
   endfacet
   facet normal -1.000000e+000 0.000000e+000 0.000000e+000
      outer loop
         vertex 8.859096e+002 4.274044e+002 1.344361e+000
         vertex 8.859096e+002 4.274044e+002 2.634436e+001
         vertex 8.859096e+002 4.774045e+002 1.344361e+000
      endloop
   endfacet
   facet normal -1.000000e+000 0.000000e+000 0.000000e+000
      outer loop
         vertex 8.859096e+002 4.774045e+002 1.344361e+000
         vertex 8.859096e+002 4.274044e+002 2.634436e+001
         vertex 8.859096e+002 4.774045e+002 2.634436e+001
      endloop
   endfacet
endsolid