solid CubeDouble - cube-1 BCG0-1
   facet normal 0.000000e+000 1.000000e+000 0.000000e+000
      outer loop
         vertex 8.859096e+002 4.274044e+002 8.763444e+002
         vertex 9.109097e+002 4.274044e+002 8.763444e+002
         vertex 8.859096e+002 4.274044e+002 8.263444e+002
      endloop
   endfacet
   facet normal 0.000000e+000 1.000000e+000 0.000000e+000
      outer loop
         vertex 8.859096e+002 4.274044e+002 8.263444e+002
         vertex 9.109097e+002 4.274044e+002 8.763444e+002
         vertex 9.109097e+002 4.274044e+002 8.263444e+002
      endloop
   endfacet
   facet normal 0.000000e+000 1.000000e+000 0.000000e+000
      outer loop
         vertex 8.359097e+002 4.274044e+002 8.763444e+002
         vertex 8.359097e+002 4.274044e+002 9.013444e+002
         vertex 8.859096e+002 4.274044e+002 8.763444e+002
      endloop
   endfacet
   facet normal 0.000000e+000 1.000000e+000 0.000000e+000
      outer loop
         vertex 8.859096e+002 4.274044e+002 8.763444e+002
         vertex 8.359097e+002 4.274044e+002 9.013444e+002
         vertex 8.859096e+002 4.274044e+002 9.013444e+002
      endloop
   endfacet
   facet normal 0.000000e+000 1.000000e+000 0.000000e+000
      outer loop
         vertex 8.359097e+002 4.274044e+002 8.263444e+002
         vertex 8.109096e+002 4.274044e+002 8.263444e+002
         vertex 8.359097e+002 4.274044e+002 8.763444e+002
      endloop
   endfacet
   facet normal 0.000000e+000 1.000000e+000 0.000000e+000
      outer loop
         vertex 8.359097e+002 4.274044e+002 8.763444e+002
         vertex 8.109096e+002 4.274044e+002 8.263444e+002
         vertex 8.109096e+002 4.274044e+002 8.763444e+002
      endloop
   endfacet
   facet normal 0.000000e+000 -1.000000e+000 0.000000e+000
      outer loop
         vertex 8.859096e+002 4.774045e+002 8.263444e+002
         vertex 9.109097e+002 4.774045e+002 8.263444e+002
         vertex 8.859096e+002 4.774045e+002 8.763444e+002
      endloop
   endfacet
   facet normal 0.000000e+000 -1.000000e+000 0.000000e+000
      outer loop
         vertex 8.859096e+002 4.774045e+002 8.763444e+002
         vertex 9.109097e+002 4.774045e+002 8.263444e+002
         vertex 9.109097e+002 4.774045e+002 8.763444e+002
      endloop
   endfacet
   facet normal 0.000000e+000 -1.000000e+000 0.000000e+000
      outer loop
         vertex 8.859096e+002 4.774045e+002 8.763444e+002
         vertex 8.859096e+002 4.774045e+002 9.013444e+002
         vertex 8.359097e+002 4.774045e+002 8.763444e+002
      endloop
   endfacet
   facet normal 0.000000e+000 -1.000000e+000 0.000000e+000
      outer loop
         vertex 8.359097e+002 4.774045e+002 8.763444e+002
         vertex 8.859096e+002 4.774045e+002 9.013444e+002
         vertex 8.359097e+002 4.774045e+002 9.013444e+002
      endloop
   endfacet
   facet normal 0.000000e+000 -1.000000e+000 0.000000e+000
      outer loop
         vertex 8.359097e+002 4.774045e+002 8.763444e+002
         vertex 8.109096e+002 4.774045e+002 8.763444e+002
         vertex 8.359097e+002 4.774045e+002 8.263444e+002
      endloop
   endfacet
   facet normal 0.000000e+000 -1.000000e+000 0.000000e+000
      outer loop
         vertex 8.359097e+002 4.774045e+002 8.263444e+002
         vertex 8.109096e+002 4.774045e+002 8.763444e+002
         vertex 8.109096e+002 4.774045e+002 8.263444e+002
      endloop
   endfacet
   facet normal -1.000000e+000 0.000000e+000 0.000000e+000
      outer loop
         vertex 8.859096e+002 4.774045e+002 8.263444e+002
         vertex 8.859096e+002 4.774045e+002 8.013444e+002
         vertex 8.859096e+002 4.274044e+002 8.263444e+002
      endloop
   endfacet
   facet normal -1.000000e+000 0.000000e+000 0.000000e+000
      outer loop
         vertex 8.859096e+002 4.274044e+002 8.263444e+002
         vertex 8.859096e+002 4.774045e+002 8.013444e+002
         vertex 8.859096e+002 4.274044e+002 8.013444e+002
      endloop
   endfacet
   facet normal 1.000000e+000 0.000000e+000 0.000000e+000
      outer loop
         vertex 8.359097e+002 4.274044e+002 8.263444e+002
         vertex 8.359097e+002 4.274044e+002 8.013444e+002
         vertex 8.359097e+002 4.774045e+002 8.263444e+002
      endloop
   endfacet
   facet normal 1.000000e+000 0.000000e+000 0.000000e+000
      outer loop
         vertex 8.359097e+002 4.774045e+002 8.263444e+002
         vertex 8.359097e+002 4.274044e+002 8.013444e+002
         vertex 8.359097e+002 4.774045e+002 8.013444e+002
      endloop
   endfacet
   facet normal 1.000000e+000 0.000000e+000 0.000000e+000
      outer loop
         vertex 9.109097e+002 4.774045e+002 8.263444e+002
         vertex 9.109097e+002 5.024044e+002 8.013444e+002
         vertex 9.109097e+002 5.024044e+002 9.013444e+002
      endloop
   endfacet
   facet normal 1.000000e+000 0.000000e+000 0.000000e+000
      outer loop
         vertex 9.109097e+002 5.024044e+002 8.013444e+002
         vertex 9.109097e+002 4.774045e+002 8.263444e+002
         vertex 9.109097e+002 4.024044e+002 8.013444e+002
      endloop
   endfacet
   facet normal 1.000000e+000 0.000000e+000 0.000000e+000
      outer loop
         vertex 9.109097e+002 4.024044e+002 8.013444e+002
         vertex 9.109097e+002 4.774045e+002 8.263444e+002
         vertex 9.109097e+002 4.274044e+002 8.263444e+002
      endloop
   endfacet
   facet normal 1.000000e+000 0.000000e+000 0.000000e+000
      outer loop
         vertex 9.109097e+002 4.024044e+002 8.013444e+002
         vertex 9.109097e+002 4.274044e+002 8.263444e+002
         vertex 9.109097e+002 4.024044e+002 9.013444e+002
      endloop
   endfacet
   facet normal 1.000000e+000 0.000000e+000 0.000000e+000
      outer loop
         vertex 9.109097e+002 4.024044e+002 9.013444e+002
         vertex 9.109097e+002 4.274044e+002 8.263444e+002
         vertex 9.109097e+002 4.274044e+002 8.763444e+002
      endloop
   endfacet
   facet normal 1.000000e+000 0.000000e+000 0.000000e+000
      outer loop
         vertex 9.109097e+002 4.024044e+002 9.013444e+002
         vertex 9.109097e+002 4.274044e+002 8.763444e+002
         vertex 9.109097e+002 5.024044e+002 9.013444e+002
      endloop
   endfacet
   facet normal 1.000000e+000 0.000000e+000 0.000000e+000
      outer loop
         vertex 9.109097e+002 5.024044e+002 9.013444e+002
         vertex 9.109097e+002 4.274044e+002 8.763444e+002
         vertex 9.109097e+002 4.774045e+002 8.763444e+002
      endloop
   endfacet
   facet normal 1.000000e+000 0.000000e+000 0.000000e+000
      outer loop
         vertex 9.109097e+002 5.024044e+002 9.013444e+002
         vertex 9.109097e+002 4.774045e+002 8.763444e+002
         vertex 9.109097e+002 4.774045e+002 8.263444e+002
      endloop
   endfacet
   facet normal 0.000000e+000 1.000000e+000 0.000000e+000
      outer loop
         vertex 8.359097e+002 5.024044e+002 8.263444e+002
         vertex 8.109096e+002 5.024044e+002 8.013444e+002
         vertex 8.359097e+002 5.024044e+002 8.763444e+002
      endloop
   endfacet
   facet normal 0.000000e+000 1.000000e+000 0.000000e+000
      outer loop
         vertex 8.359097e+002 5.024044e+002 8.763444e+002
         vertex 8.109096e+002 5.024044e+002 8.013444e+002
         vertex 8.109096e+002 5.024044e+002 9.013444e+002
      endloop
   endfacet
   facet normal 0.000000e+000 1.000000e+000 0.000000e+000
      outer loop
         vertex 8.359097e+002 5.024044e+002 8.763444e+002
         vertex 8.109096e+002 5.024044e+002 9.013444e+002
         vertex 8.859096e+002 5.024044e+002 8.763444e+002
      endloop
   endfacet
   facet normal 0.000000e+000 1.000000e+000 0.000000e+000
      outer loop
         vertex 8.859096e+002 5.024044e+002 8.763444e+002
         vertex 8.109096e+002 5.024044e+002 9.013444e+002
         vertex 9.109097e+002 5.024044e+002 9.013444e+002
      endloop
   endfacet
   facet normal 0.000000e+000 1.000000e+000 0.000000e+000
      outer loop
         vertex 8.859096e+002 5.024044e+002 8.763444e+002
         vertex 9.109097e+002 5.024044e+002 9.013444e+002
         vertex 8.859096e+002 5.024044e+002 8.263444e+002
      endloop
   endfacet
   facet normal 0.000000e+000 1.000000e+000 0.000000e+000
      outer loop
         vertex 8.859096e+002 5.024044e+002 8.263444e+002
         vertex 9.109097e+002 5.024044e+002 9.013444e+002
         vertex 9.109097e+002 5.024044e+002 8.013444e+002
      endloop
   endfacet
   facet normal 0.000000e+000 1.000000e+000 0.000000e+000
      outer loop
         vertex 8.859096e+002 5.024044e+002 8.263444e+002
         vertex 9.109097e+002 5.024044e+002 8.013444e+002
         vertex 8.359097e+002 5.024044e+002 8.263444e+002
      endloop
   endfacet
   facet normal 0.000000e+000 1.000000e+000 0.000000e+000
      outer loop
         vertex 8.359097e+002 5.024044e+002 8.263444e+002
         vertex 9.109097e+002 5.024044e+002 8.013444e+002
         vertex 8.109096e+002 5.024044e+002 8.013444e+002
      endloop
   endfacet
   facet normal -1.000000e+000 0.000000e+000 0.000000e+000
      outer loop
         vertex 8.109096e+002 4.774045e+002 8.763444e+002
         vertex 8.109096e+002 5.024044e+002 9.013444e+002
         vertex 8.109096e+002 4.774045e+002 8.263444e+002
      endloop
   endfacet
   facet normal -1.000000e+000 0.000000e+000 0.000000e+000
      outer loop
         vertex 8.109096e+002 4.774045e+002 8.263444e+002
         vertex 8.109096e+002 5.024044e+002 9.013444e+002
         vertex 8.109096e+002 5.024044e+002 8.013444e+002
      endloop
   endfacet
   facet normal -1.000000e+000 0.000000e+000 0.000000e+000
      outer loop
         vertex 8.109096e+002 4.774045e+002 8.263444e+002
         vertex 8.109096e+002 5.024044e+002 8.013444e+002
         vertex 8.109096e+002 4.274044e+002 8.263444e+002
      endloop
   endfacet
   facet normal -1.000000e+000 0.000000e+000 0.000000e+000
      outer loop
         vertex 8.109096e+002 4.274044e+002 8.263444e+002
         vertex 8.109096e+002 5.024044e+002 8.013444e+002
         vertex 8.109096e+002 4.024044e+002 8.013444e+002
      endloop
   endfacet
   facet normal -1.000000e+000 0.000000e+000 0.000000e+000
      outer loop
         vertex 8.109096e+002 4.274044e+002 8.263444e+002
         vertex 8.109096e+002 4.024044e+002 8.013444e+002
         vertex 8.109096e+002 4.274044e+002 8.763444e+002
      endloop
   endfacet
   facet normal -1.000000e+000 0.000000e+000 0.000000e+000
      outer loop
         vertex 8.109096e+002 4.274044e+002 8.763444e+002
         vertex 8.109096e+002 4.024044e+002 8.013444e+002
         vertex 8.109096e+002 4.024044e+002 9.013444e+002
      endloop
   endfacet
   facet normal -1.000000e+000 0.000000e+000 0.000000e+000
      outer loop
         vertex 8.109096e+002 4.274044e+002 8.763444e+002
         vertex 8.109096e+002 4.024044e+002 9.013444e+002
         vertex 8.109096e+002 4.774045e+002 8.763444e+002
      endloop
   endfacet
   facet normal -1.000000e+000 0.000000e+000 0.000000e+000
      outer loop
         vertex 8.109096e+002 4.774045e+002 8.763444e+002
         vertex 8.109096e+002 4.024044e+002 9.013444e+002
         vertex 8.109096e+002 5.024044e+002 9.013444e+002
      endloop
   endfacet
   facet normal 0.000000e+000 -1.000000e+000 0.000000e+000
      outer loop
         vertex 8.359097e+002 4.024044e+002 8.763444e+002
         vertex 8.109096e+002 4.024044e+002 9.013444e+002
         vertex 8.359097e+002 4.024044e+002 8.263444e+002
      endloop
   endfacet
   facet normal 0.000000e+000 -1.000000e+000 0.000000e+000
      outer loop
         vertex 8.359097e+002 4.024044e+002 8.263444e+002
         vertex 8.109096e+002 4.024044e+002 9.013444e+002
         vertex 8.109096e+002 4.024044e+002 8.013444e+002
      endloop
   endfacet
   facet normal 0.000000e+000 -1.000000e+000 0.000000e+000
      outer loop
         vertex 8.359097e+002 4.024044e+002 8.263444e+002
         vertex 8.109096e+002 4.024044e+002 8.013444e+002
         vertex 8.859096e+002 4.024044e+002 8.263444e+002
      endloop
   endfacet
   facet normal 0.000000e+000 -1.000000e+000 0.000000e+000
      outer loop
         vertex 8.859096e+002 4.024044e+002 8.263444e+002
         vertex 8.109096e+002 4.024044e+002 8.013444e+002
         vertex 9.109097e+002 4.024044e+002 8.013444e+002
      endloop
   endfacet
   facet normal 0.000000e+000 -1.000000e+000 0.000000e+000
      outer loop
         vertex 8.859096e+002 4.024044e+002 8.263444e+002
         vertex 9.109097e+002 4.024044e+002 8.013444e+002
         vertex 8.859096e+002 4.024044e+002 8.763444e+002
      endloop
   endfacet
   facet normal 0.000000e+000 -1.000000e+000 0.000000e+000
      outer loop
         vertex 8.859096e+002 4.024044e+002 8.763444e+002
         vertex 9.109097e+002 4.024044e+002 8.013444e+002
         vertex 9.109097e+002 4.024044e+002 9.013444e+002
      endloop
   endfacet
   facet normal 0.000000e+000 -1.000000e+000 0.000000e+000
      outer loop
         vertex 8.859096e+002 4.024044e+002 8.763444e+002
         vertex 9.109097e+002 4.024044e+002 9.013444e+002
         vertex 8.359097e+002 4.024044e+002 8.763444e+002
      endloop
   endfacet
   facet normal 0.000000e+000 -1.000000e+000 0.000000e+000
      outer loop
         vertex 8.359097e+002 4.024044e+002 8.763444e+002
         vertex 9.109097e+002 4.024044e+002 9.013444e+002
         vertex 8.109096e+002 4.024044e+002 9.013444e+002
      endloop
   endfacet
   facet normal 0.000000e+000 0.000000e+000 1.000000e+000
      outer loop
         vertex 8.859096e+002 4.774045e+002 9.013444e+002
         vertex 9.109097e+002 5.024044e+002 9.013444e+002
         vertex 8.109096e+002 5.024044e+002 9.013444e+002
      endloop
   endfacet
   facet normal 0.000000e+000 0.000000e+000 1.000000e+000
      outer loop
         vertex 9.109097e+002 5.024044e+002 9.013444e+002
         vertex 8.859096e+002 4.774045e+002 9.013444e+002
         vertex 9.109097e+002 4.024044e+002 9.013444e+002
      endloop
   endfacet
   facet normal 0.000000e+000 0.000000e+000 1.000000e+000
      outer loop
         vertex 9.109097e+002 4.024044e+002 9.013444e+002
         vertex 8.859096e+002 4.774045e+002 9.013444e+002
         vertex 8.859096e+002 4.274044e+002 9.013444e+002
      endloop
   endfacet
   facet normal 0.000000e+000 0.000000e+000 1.000000e+000
      outer loop
         vertex 9.109097e+002 4.024044e+002 9.013444e+002
         vertex 8.859096e+002 4.274044e+002 9.013444e+002
         vertex 8.109096e+002 4.024044e+002 9.013444e+002
      endloop
   endfacet
   facet normal 0.000000e+000 0.000000e+000 1.000000e+000
      outer loop
         vertex 8.109096e+002 4.024044e+002 9.013444e+002
         vertex 8.859096e+002 4.274044e+002 9.013444e+002
         vertex 8.359097e+002 4.274044e+002 9.013444e+002
      endloop
   endfacet
   facet normal 0.000000e+000 0.000000e+000 1.000000e+000
      outer loop
         vertex 8.109096e+002 4.024044e+002 9.013444e+002
         vertex 8.359097e+002 4.274044e+002 9.013444e+002
         vertex 8.109096e+002 5.024044e+002 9.013444e+002
      endloop
   endfacet
   facet normal 0.000000e+000 0.000000e+000 1.000000e+000
      outer loop
         vertex 8.109096e+002 5.024044e+002 9.013444e+002
         vertex 8.359097e+002 4.274044e+002 9.013444e+002
         vertex 8.359097e+002 4.774045e+002 9.013444e+002
      endloop
   endfacet
   facet normal 0.000000e+000 0.000000e+000 1.000000e+000
      outer loop
         vertex 8.109096e+002 5.024044e+002 9.013444e+002
         vertex 8.359097e+002 4.774045e+002 9.013444e+002
         vertex 8.859096e+002 4.774045e+002 9.013444e+002
      endloop
   endfacet
   facet normal 0.000000e+000 0.000000e+000 -1.000000e+000
      outer loop
         vertex 8.859096e+002 4.274044e+002 8.013444e+002
         vertex 9.109097e+002 4.024044e+002 8.013444e+002
         vertex 8.359097e+002 4.274044e+002 8.013444e+002
      endloop
   endfacet
   facet normal 0.000000e+000 0.000000e+000 -1.000000e+000
      outer loop
         vertex 8.359097e+002 4.274044e+002 8.013444e+002
         vertex 9.109097e+002 4.024044e+002 8.013444e+002
         vertex 8.109096e+002 4.024044e+002 8.013444e+002
      endloop
   endfacet
   facet normal 0.000000e+000 0.000000e+000 -1.000000e+000
      outer loop
         vertex 8.359097e+002 4.274044e+002 8.013444e+002
         vertex 8.109096e+002 4.024044e+002 8.013444e+002
         vertex 8.359097e+002 4.774045e+002 8.013444e+002
      endloop
   endfacet
   facet normal 0.000000e+000 0.000000e+000 -1.000000e+000
      outer loop
         vertex 8.359097e+002 4.774045e+002 8.013444e+002
         vertex 8.109096e+002 4.024044e+002 8.013444e+002
         vertex 8.109096e+002 5.024044e+002 8.013444e+002
      endloop
   endfacet
   facet normal 0.000000e+000 0.000000e+000 -1.000000e+000
      outer loop
         vertex 8.359097e+002 4.774045e+002 8.013444e+002
         vertex 8.109096e+002 5.024044e+002 8.013444e+002
         vertex 8.859096e+002 4.774045e+002 8.013444e+002
      endloop
   endfacet
   facet normal 0.000000e+000 0.000000e+000 -1.000000e+000
      outer loop
         vertex 8.859096e+002 4.774045e+002 8.013444e+002
         vertex 8.109096e+002 5.024044e+002 8.013444e+002
         vertex 9.109097e+002 5.024044e+002 8.013444e+002
      endloop
   endfacet
   facet normal 0.000000e+000 0.000000e+000 -1.000000e+000
      outer loop
         vertex 8.859096e+002 4.774045e+002 8.013444e+002
         vertex 9.109097e+002 5.024044e+002 8.013444e+002
         vertex 8.859096e+002 4.274044e+002 8.013444e+002
      endloop
   endfacet
   facet normal 0.000000e+000 0.000000e+000 -1.000000e+000
      outer loop
         vertex 8.859096e+002 4.274044e+002 8.013444e+002
         vertex 9.109097e+002 5.024044e+002 8.013444e+002
         vertex 9.109097e+002 4.024044e+002 8.013444e+002
      endloop
   endfacet
   facet normal -1.000000e+000 0.000000e+000 0.000000e+000
      outer loop
         vertex 8.859096e+002 4.274044e+002 8.763444e+002
         vertex 8.859096e+002 4.274044e+002 9.013444e+002
         vertex 8.859096e+002 4.774045e+002 8.763444e+002
      endloop
   endfacet
   facet normal -1.000000e+000 0.000000e+000 0.000000e+000
      outer loop
         vertex 8.859096e+002 4.774045e+002 8.763444e+002
         vertex 8.859096e+002 4.274044e+002 9.013444e+002
         vertex 8.859096e+002 4.774045e+002 9.013444e+002
      endloop
   endfacet
   facet normal 0.000000e+000 1.000000e+000 0.000000e+000
      outer loop
         vertex 8.859096e+002 4.274044e+002 8.263444e+002
         vertex 8.859096e+002 4.274044e+002 8.013444e+002
         vertex 8.359097e+002 4.274044e+002 8.263444e+002
      endloop
   endfacet
   facet normal 0.000000e+000 1.000000e+000 0.000000e+000
      outer loop
         vertex 8.359097e+002 4.274044e+002 8.263444e+002
         vertex 8.859096e+002 4.274044e+002 8.013444e+002
         vertex 8.359097e+002 4.274044e+002 8.013444e+002
      endloop
   endfacet
   facet normal 1.000000e+000 0.000000e+000 0.000000e+000
      outer loop
         vertex 8.359097e+002 4.774045e+002 8.763444e+002
         vertex 8.359097e+002 4.774045e+002 9.013444e+002
         vertex 8.359097e+002 4.274044e+002 8.763444e+002
      endloop
   endfacet
   facet normal 1.000000e+000 0.000000e+000 0.000000e+000
      outer loop
         vertex 8.359097e+002 4.274044e+002 8.763444e+002
         vertex 8.359097e+002 4.774045e+002 9.013444e+002
         vertex 8.359097e+002 4.274044e+002 9.013444e+002
      endloop
   endfacet
   facet normal 0.000000e+000 -1.000000e+000 0.000000e+000
      outer loop
         vertex 8.359097e+002 4.774045e+002 8.263444e+002
         vertex 8.359097e+002 4.774045e+002 8.013444e+002
         vertex 8.859096e+002 4.774045e+002 8.263444e+002
      endloop
   endfacet
   facet normal 0.000000e+000 -1.000000e+000 0.000000e+000
      outer loop
         vertex 8.859096e+002 4.774045e+002 8.263444e+002
         vertex 8.359097e+002 4.774045e+002 8.013444e+002
         vertex 8.859096e+002 4.774045e+002 8.013444e+002
      endloop
   endfacet
   facet normal 0.000000e+000 -1.387779e-016 -1.000000e+000
      outer loop
         vertex 8.109096e+002 4.774045e+002 8.763444e+002
         vertex 8.359097e+002 4.774045e+002 8.763444e+002
         vertex 8.109096e+002 4.274044e+002 8.763444e+002
      endloop
   endfacet
   facet normal 0.000000e+000 -1.387779e-016 -1.000000e+000
      outer loop
         vertex 8.109096e+002 4.274044e+002 8.763444e+002
         vertex 8.359097e+002 4.774045e+002 8.763444e+002
         vertex 8.359097e+002 4.274044e+002 8.763444e+002
      endloop
   endfacet
   facet normal 0.000000e+000 1.387779e-016 1.000000e+000
      outer loop
         vertex 8.109096e+002 4.274044e+002 8.263444e+002
         vertex 8.359097e+002 4.274044e+002 8.263444e+002
         vertex 8.109096e+002 4.774045e+002 8.263444e+002
      endloop
   endfacet
   facet normal 0.000000e+000 1.387779e-016 1.000000e+000
      outer loop
         vertex 8.109096e+002 4.774045e+002 8.263444e+002
         vertex 8.359097e+002 4.274044e+002 8.263444e+002
         vertex 8.359097e+002 4.774045e+002 8.263444e+002
      endloop
   endfacet
   facet normal 0.000000e+000 1.387779e-016 1.000000e+000
      outer loop
         vertex 9.109097e+002 4.774045e+002 8.263444e+002
         vertex 8.859096e+002 4.774045e+002 8.263444e+002
         vertex 9.109097e+002 4.274044e+002 8.263444e+002
      endloop
   endfacet
   facet normal 0.000000e+000 1.387779e-016 1.000000e+000
      outer loop
         vertex 9.109097e+002 4.274044e+002 8.263444e+002
         vertex 8.859096e+002 4.774045e+002 8.263444e+002
         vertex 8.859096e+002 4.274044e+002 8.263444e+002
      endloop
   endfacet
   facet normal 0.000000e+000 -1.387779e-016 -1.000000e+000
      outer loop
         vertex 9.109097e+002 4.274044e+002 8.763444e+002
         vertex 8.859096e+002 4.274044e+002 8.763444e+002
         vertex 9.109097e+002 4.774045e+002 8.763444e+002
      endloop
   endfacet
   facet normal 0.000000e+000 -1.387779e-016 -1.000000e+000
      outer loop
         vertex 9.109097e+002 4.774045e+002 8.763444e+002
         vertex 8.859096e+002 4.274044e+002 8.763444e+002
         vertex 8.859096e+002 4.774045e+002 8.763444e+002
      endloop
   endfacet
   facet normal 0.000000e+000 0.000000e+000 1.000000e+000
      outer loop
         vertex 8.359097e+002 5.024044e+002 8.263444e+002
         vertex 8.359097e+002 4.774045e+002 8.263444e+002
         vertex 8.859096e+002 5.024044e+002 8.263444e+002
      endloop
   endfacet
   facet normal 0.000000e+000 0.000000e+000 1.000000e+000
      outer loop
         vertex 8.859096e+002 5.024044e+002 8.263444e+002
         vertex 8.359097e+002 4.774045e+002 8.263444e+002
         vertex 8.859096e+002 4.774045e+002 8.263444e+002
      endloop
   endfacet
   facet normal 1.000000e+000 0.000000e+000 0.000000e+000
      outer loop
         vertex 8.359097e+002 5.024044e+002 8.763444e+002
         vertex 8.359097e+002 4.774045e+002 8.763444e+002
         vertex 8.359097e+002 5.024044e+002 8.263444e+002
      endloop
   endfacet
   facet normal 1.000000e+000 0.000000e+000 0.000000e+000
      outer loop
         vertex 8.359097e+002 5.024044e+002 8.263444e+002
         vertex 8.359097e+002 4.774045e+002 8.763444e+002
         vertex 8.359097e+002 4.774045e+002 8.263444e+002
      endloop
   endfacet
   facet normal 0.000000e+000 0.000000e+000 -1.000000e+000
      outer loop
         vertex 8.859096e+002 5.024044e+002 8.763444e+002
         vertex 8.859096e+002 4.774045e+002 8.763444e+002
         vertex 8.359097e+002 5.024044e+002 8.763444e+002
      endloop
   endfacet
   facet normal 0.000000e+000 0.000000e+000 -1.000000e+000
      outer loop
         vertex 8.359097e+002 5.024044e+002 8.763444e+002
         vertex 8.859096e+002 4.774045e+002 8.763444e+002
         vertex 8.359097e+002 4.774045e+002 8.763444e+002
      endloop
   endfacet
   facet normal -1.000000e+000 0.000000e+000 0.000000e+000
      outer loop
         vertex 8.859096e+002 5.024044e+002 8.263444e+002
         vertex 8.859096e+002 4.774045e+002 8.263444e+002
         vertex 8.859096e+002 5.024044e+002 8.763444e+002
      endloop
   endfacet
   facet normal -1.000000e+000 0.000000e+000 0.000000e+000
      outer loop
         vertex 8.859096e+002 5.024044e+002 8.763444e+002
         vertex 8.859096e+002 4.774045e+002 8.263444e+002
         vertex 8.859096e+002 4.774045e+002 8.763444e+002
      endloop
   endfacet
   facet normal 0.000000e+000 0.000000e+000 -1.000000e+000
      outer loop
         vertex 8.359097e+002 4.024044e+002 8.763444e+002
         vertex 8.359097e+002 4.274044e+002 8.763444e+002
         vertex 8.859096e+002 4.024044e+002 8.763444e+002
      endloop
   endfacet
   facet normal 0.000000e+000 0.000000e+000 -1.000000e+000
      outer loop
         vertex 8.859096e+002 4.024044e+002 8.763444e+002
         vertex 8.359097e+002 4.274044e+002 8.763444e+002
         vertex 8.859096e+002 4.274044e+002 8.763444e+002
      endloop
   endfacet
   facet normal 0.000000e+000 0.000000e+000 1.000000e+000
      outer loop
         vertex 8.859096e+002 4.024044e+002 8.263444e+002
         vertex 8.859096e+002 4.274044e+002 8.263444e+002
         vertex 8.359097e+002 4.024044e+002 8.263444e+002
      endloop
   endfacet
   facet normal 0.000000e+000 0.000000e+000 1.000000e+000
      outer loop
         vertex 8.359097e+002 4.024044e+002 8.263444e+002
         vertex 8.859096e+002 4.274044e+002 8.263444e+002
         vertex 8.359097e+002 4.274044e+002 8.263444e+002
      endloop
   endfacet
   facet normal 1.000000e+000 0.000000e+000 0.000000e+000
      outer loop
         vertex 8.359097e+002 4.024044e+002 8.263444e+002
         vertex 8.359097e+002 4.274044e+002 8.263444e+002
         vertex 8.359097e+002 4.024044e+002 8.763444e+002
      endloop
   endfacet
   facet normal 1.000000e+000 0.000000e+000 0.000000e+000
      outer loop
         vertex 8.359097e+002 4.024044e+002 8.763444e+002
         vertex 8.359097e+002 4.274044e+002 8.263444e+002
         vertex 8.359097e+002 4.274044e+002 8.763444e+002
      endloop
   endfacet
   facet normal -1.000000e+000 0.000000e+000 0.000000e+000
      outer loop
         vertex 8.859096e+002 4.024044e+002 8.763444e+002
         vertex 8.859096e+002 4.274044e+002 8.763444e+002
         vertex 8.859096e+002 4.024044e+002 8.263444e+002
      endloop
   endfacet
   facet normal -1.000000e+000 0.000000e+000 0.000000e+000
      outer loop
         vertex 8.859096e+002 4.024044e+002 8.263444e+002
         vertex 8.859096e+002 4.274044e+002 8.763444e+002
         vertex 8.859096e+002 4.274044e+002 8.263444e+002
      endloop
   endfacet
endsolid