solid CubeDouble - C0-2
   facet normal -1.000000e+000 0.000000e+000 0.000000e+000
      outer loop
         vertex 1.109096e+002 7.740447e+001 4.263444e+002
         vertex 1.109096e+002 8.990447e+001 4.138444e+002
         vertex 1.109096e+002 2.740447e+001 4.263444e+002
      endloop
   endfacet
   facet normal -1.000000e+000 0.000000e+000 0.000000e+000
      outer loop
         vertex 1.109096e+002 2.740447e+001 4.263444e+002
         vertex 1.109096e+002 8.990447e+001 4.138444e+002
         vertex 1.109096e+002 1.490447e+001 4.138444e+002
      endloop
   endfacet
   facet normal -1.000000e+000 0.000000e+000 0.000000e+000
      outer loop
         vertex 1.109096e+002 2.740447e+001 4.263444e+002
         vertex 1.109096e+002 1.490447e+001 4.138444e+002
         vertex 1.109096e+002 2.740447e+001 4.763444e+002
      endloop
   endfacet
   facet normal -1.000000e+000 0.000000e+000 0.000000e+000
      outer loop
         vertex 1.109096e+002 2.740447e+001 4.763444e+002
         vertex 1.109096e+002 1.490447e+001 4.138444e+002
         vertex 1.109096e+002 1.490447e+001 4.888444e+002
      endloop
   endfacet
   facet normal -1.000000e+000 0.000000e+000 0.000000e+000
      outer loop
         vertex 1.109096e+002 2.740447e+001 4.763444e+002
         vertex 1.109096e+002 1.490447e+001 4.888444e+002
         vertex 1.109096e+002 7.740447e+001 4.763444e+002
      endloop
   endfacet
   facet normal -1.000000e+000 0.000000e+000 0.000000e+000
      outer loop
         vertex 1.109096e+002 7.740447e+001 4.763444e+002
         vertex 1.109096e+002 1.490447e+001 4.888444e+002
         vertex 1.109096e+002 8.990447e+001 4.888444e+002
      endloop
   endfacet
   facet normal -1.000000e+000 0.000000e+000 0.000000e+000
      outer loop
         vertex 1.109096e+002 7.740447e+001 4.763444e+002
         vertex 1.109096e+002 8.990447e+001 4.888444e+002
         vertex 1.109096e+002 7.740447e+001 4.263444e+002
      endloop
   endfacet
   facet normal -1.000000e+000 0.000000e+000 0.000000e+000
      outer loop
         vertex 1.109096e+002 7.740447e+001 4.263444e+002
         vertex 1.109096e+002 8.990447e+001 4.888444e+002
         vertex 1.109096e+002 8.990447e+001 4.138444e+002
      endloop
   endfacet
   facet normal 0.000000e+000 0.000000e+000 -1.000000e+000
      outer loop
         vertex 1.109096e+002 1.490447e+001 4.138444e+002
         vertex 1.109096e+002 8.990447e+001 4.138444e+002
         vertex 4.109097e+002 1.490447e+001 4.138444e+002
      endloop
   endfacet
   facet normal 0.000000e+000 0.000000e+000 -1.000000e+000
      outer loop
         vertex 4.109097e+002 1.490447e+001 4.138444e+002
         vertex 1.109096e+002 8.990447e+001 4.138444e+002
         vertex 4.109097e+002 8.990447e+001 4.138444e+002
      endloop
   endfacet
   facet normal 0.000000e+000 -1.000000e+000 0.000000e+000
      outer loop
         vertex 1.109096e+002 1.490447e+001 4.888444e+002
         vertex 1.109096e+002 1.490447e+001 4.138444e+002
         vertex 4.109097e+002 1.490447e+001 4.888444e+002
      endloop
   endfacet
   facet normal 0.000000e+000 -1.000000e+000 0.000000e+000
      outer loop
         vertex 4.109097e+002 1.490447e+001 4.888444e+002
         vertex 1.109096e+002 1.490447e+001 4.138444e+002
         vertex 4.109097e+002 1.490447e+001 4.138444e+002
      endloop
   endfacet
   facet normal 0.000000e+000 0.000000e+000 1.000000e+000
      outer loop
         vertex 1.109096e+002 8.990447e+001 4.888444e+002
         vertex 1.109096e+002 1.490447e+001 4.888444e+002
         vertex 4.109097e+002 8.990447e+001 4.888444e+002
      endloop
   endfacet
   facet normal 0.000000e+000 0.000000e+000 1.000000e+000
      outer loop
         vertex 4.109097e+002 8.990447e+001 4.888444e+002
         vertex 1.109096e+002 1.490447e+001 4.888444e+002
         vertex 4.109097e+002 1.490447e+001 4.888444e+002
      endloop
   endfacet
   facet normal 0.000000e+000 1.000000e+000 -9.251858e-017
      outer loop
         vertex 1.109096e+002 8.990447e+001 4.138444e+002
         vertex 1.109096e+002 8.990447e+001 4.888444e+002
         vertex 4.109097e+002 8.990447e+001 4.138444e+002
      endloop
   endfacet
   facet normal 0.000000e+000 1.000000e+000 -9.251858e-017
      outer loop
         vertex 4.109097e+002 8.990447e+001 4.138444e+002
         vertex 1.109096e+002 8.990447e+001 4.888444e+002
         vertex 4.109097e+002 8.990447e+001 4.888444e+002
      endloop
   endfacet
   facet normal 1.000000e+000 0.000000e+000 0.000000e+000
      outer loop
         vertex 4.109097e+002 7.740447e+001 4.263444e+002
         vertex 4.109097e+002 8.990447e+001 4.138444e+002
         vertex 4.109097e+002 8.990447e+001 4.888444e+002
      endloop
   endfacet
   facet normal 1.000000e+000 0.000000e+000 0.000000e+000
      outer loop
         vertex 4.109097e+002 8.990447e+001 4.138444e+002
         vertex 4.109097e+002 7.740447e+001 4.263444e+002
         vertex 4.109097e+002 1.490447e+001 4.138444e+002
      endloop
   endfacet
   facet normal 1.000000e+000 0.000000e+000 0.000000e+000
      outer loop
         vertex 4.109097e+002 1.490447e+001 4.138444e+002
         vertex 4.109097e+002 7.740447e+001 4.263444e+002
         vertex 4.109097e+002 2.740447e+001 4.263444e+002
      endloop
   endfacet
   facet normal 1.000000e+000 0.000000e+000 0.000000e+000
      outer loop
         vertex 4.109097e+002 1.490447e+001 4.138444e+002
         vertex 4.109097e+002 2.740447e+001 4.263444e+002
         vertex 4.109097e+002 1.490447e+001 4.888444e+002
      endloop
   endfacet
   facet normal 1.000000e+000 0.000000e+000 0.000000e+000
      outer loop
         vertex 4.109097e+002 1.490447e+001 4.888444e+002
         vertex 4.109097e+002 2.740447e+001 4.263444e+002
         vertex 4.109097e+002 2.740447e+001 4.763444e+002
      endloop
   endfacet
   facet normal 1.000000e+000 0.000000e+000 0.000000e+000
      outer loop
         vertex 4.109097e+002 1.490447e+001 4.888444e+002
         vertex 4.109097e+002 2.740447e+001 4.763444e+002
         vertex 4.109097e+002 8.990447e+001 4.888444e+002
      endloop
   endfacet
   facet normal 1.000000e+000 0.000000e+000 0.000000e+000
      outer loop
         vertex 4.109097e+002 8.990447e+001 4.888444e+002
         vertex 4.109097e+002 2.740447e+001 4.763444e+002
         vertex 4.109097e+002 7.740447e+001 4.763444e+002
      endloop
   endfacet
   facet normal 1.000000e+000 0.000000e+000 0.000000e+000
      outer loop
         vertex 4.109097e+002 8.990447e+001 4.888444e+002
         vertex 4.109097e+002 7.740447e+001 4.763444e+002
         vertex 4.109097e+002 7.740447e+001 4.263444e+002
      endloop
   endfacet
   facet normal 0.000000e+000 0.000000e+000 -1.000000e+000
      outer loop
         vertex 9.090964e+001 2.740447e+001 4.263444e+002
         vertex 9.090964e+001 7.740447e+001 4.263444e+002
         vertex 1.109096e+002 2.740447e+001 4.263444e+002
      endloop
   endfacet
   facet normal 0.000000e+000 0.000000e+000 -1.000000e+000
      outer loop
         vertex 1.109096e+002 2.740447e+001 4.263444e+002
         vertex 9.090964e+001 7.740447e+001 4.263444e+002
         vertex 1.109096e+002 7.740447e+001 4.263444e+002
      endloop
   endfacet
   facet normal 0.000000e+000 -1.000000e+000 1.387779e-016
      outer loop
         vertex 9.090964e+001 2.740447e+001 4.763444e+002
         vertex 9.090964e+001 2.740447e+001 4.263444e+002
         vertex 1.109096e+002 2.740447e+001 4.763444e+002
      endloop
   endfacet
   facet normal 0.000000e+000 -1.000000e+000 1.387779e-016
      outer loop
         vertex 1.109096e+002 2.740447e+001 4.763444e+002
         vertex 9.090964e+001 2.740447e+001 4.263444e+002
         vertex 1.109096e+002 2.740447e+001 4.263444e+002
      endloop
   endfacet
   facet normal 0.000000e+000 0.000000e+000 1.000000e+000
      outer loop
         vertex 9.090964e+001 7.740447e+001 4.763444e+002
         vertex 9.090964e+001 2.740447e+001 4.763444e+002
         vertex 1.109096e+002 7.740447e+001 4.763444e+002
      endloop
   endfacet
   facet normal 0.000000e+000 0.000000e+000 1.000000e+000
      outer loop
         vertex 1.109096e+002 7.740447e+001 4.763444e+002
         vertex 9.090964e+001 2.740447e+001 4.763444e+002
         vertex 1.109096e+002 2.740447e+001 4.763444e+002
      endloop
   endfacet
   facet normal 0.000000e+000 1.000000e+000 -1.387779e-016
      outer loop
         vertex 9.090964e+001 7.740447e+001 4.263444e+002
         vertex 9.090964e+001 7.740447e+001 4.763444e+002
         vertex 1.109096e+002 7.740447e+001 4.263444e+002
      endloop
   endfacet
   facet normal 0.000000e+000 1.000000e+000 -1.387779e-016
      outer loop
         vertex 1.109096e+002 7.740447e+001 4.263444e+002
         vertex 9.090964e+001 7.740447e+001 4.763444e+002
         vertex 1.109096e+002 7.740447e+001 4.763444e+002
      endloop
   endfacet
   facet normal -1.000000e+000 0.000000e+000 0.000000e+000
      outer loop
         vertex 9.090964e+001 2.740447e+001 4.763444e+002
         vertex 9.090964e+001 7.740447e+001 4.763444e+002
         vertex 9.090964e+001 2.740447e+001 4.263444e+002
      endloop
   endfacet
   facet normal -1.000000e+000 0.000000e+000 0.000000e+000
      outer loop
         vertex 9.090964e+001 2.740447e+001 4.263444e+002
         vertex 9.090964e+001 7.740447e+001 4.763444e+002
         vertex 9.090964e+001 7.740447e+001 4.263444e+002
      endloop
   endfacet
   facet normal 0.000000e+000 0.000000e+000 -1.000000e+000
      outer loop
         vertex 4.309096e+002 7.740447e+001 4.263444e+002
         vertex 4.309096e+002 2.740447e+001 4.263444e+002
         vertex 4.109097e+002 7.740447e+001 4.263444e+002
      endloop
   endfacet
   facet normal 0.000000e+000 0.000000e+000 -1.000000e+000
      outer loop
         vertex 4.109097e+002 7.740447e+001 4.263444e+002
         vertex 4.309096e+002 2.740447e+001 4.263444e+002
         vertex 4.109097e+002 2.740447e+001 4.263444e+002
      endloop
   endfacet
   facet normal 0.000000e+000 1.000000e+000 -1.387779e-016
      outer loop
         vertex 4.309096e+002 7.740447e+001 4.763444e+002
         vertex 4.309096e+002 7.740447e+001 4.263444e+002
         vertex 4.109097e+002 7.740447e+001 4.763444e+002
      endloop
   endfacet
   facet normal 0.000000e+000 1.000000e+000 -1.387779e-016
      outer loop
         vertex 4.109097e+002 7.740447e+001 4.763444e+002
         vertex 4.309096e+002 7.740447e+001 4.263444e+002
         vertex 4.109097e+002 7.740447e+001 4.263444e+002
      endloop
   endfacet
   facet normal 0.000000e+000 0.000000e+000 1.000000e+000
      outer loop
         vertex 4.309096e+002 2.740447e+001 4.763444e+002
         vertex 4.309096e+002 7.740447e+001 4.763444e+002
         vertex 4.109097e+002 2.740447e+001 4.763444e+002
      endloop
   endfacet
   facet normal 0.000000e+000 0.000000e+000 1.000000e+000
      outer loop
         vertex 4.109097e+002 2.740447e+001 4.763444e+002
         vertex 4.309096e+002 7.740447e+001 4.763444e+002
         vertex 4.109097e+002 7.740447e+001 4.763444e+002
      endloop
   endfacet
   facet normal 0.000000e+000 -1.000000e+000 1.387779e-016
      outer loop
         vertex 4.309096e+002 2.740447e+001 4.263444e+002
         vertex 4.309096e+002 2.740447e+001 4.763444e+002
         vertex 4.109097e+002 2.740447e+001 4.263444e+002
      endloop
   endfacet
   facet normal 0.000000e+000 -1.000000e+000 1.387779e-016
      outer loop
         vertex 4.109097e+002 2.740447e+001 4.263444e+002
         vertex 4.309096e+002 2.740447e+001 4.763444e+002
         vertex 4.109097e+002 2.740447e+001 4.763444e+002
      endloop
   endfacet
   facet normal 1.000000e+000 0.000000e+000 0.000000e+000
      outer loop
         vertex 4.309096e+002 7.740447e+001 4.763444e+002
         vertex 4.309096e+002 2.740447e+001 4.763444e+002
         vertex 4.309096e+002 7.740447e+001 4.263444e+002
      endloop
   endfacet
   facet normal 1.000000e+000 0.000000e+000 0.000000e+000
      outer loop
         vertex 4.309096e+002 7.740447e+001 4.263444e+002
         vertex 4.309096e+002 2.740447e+001 4.763444e+002
         vertex 4.309096e+002 2.740447e+001 4.263444e+002
      endloop
   endfacet
endsolid