solid CubeDouble - cube-6 GKJ0-1
   facet normal 1.000000e+000 -0.000000e+000 -0.000000e+000
      outer loop
         vertex 3.590964e+001 4.274044e+002 4.763444e+002
         vertex 3.590964e+001 4.024044e+002 4.763444e+002
         vertex 3.590964e+001 4.274044e+002 4.263444e+002
      endloop
   endfacet
   facet normal 1.000000e+000 -0.000000e+000 -0.000000e+000
      outer loop
         vertex 3.590964e+001 4.274044e+002 4.263444e+002
         vertex 3.590964e+001 4.024044e+002 4.763444e+002
         vertex 3.590964e+001 4.024044e+002 4.263444e+002
      endloop
   endfacet
   facet normal 1.000000e+000 -0.000000e+000 -0.000000e+000
      outer loop
         vertex 3.590964e+001 4.774045e+002 4.763444e+002
         vertex 3.590964e+001 4.774045e+002 5.013444e+002
         vertex 3.590964e+001 4.274044e+002 4.763444e+002
      endloop
   endfacet
   facet normal 1.000000e+000 -0.000000e+000 -0.000000e+000
      outer loop
         vertex 3.590964e+001 4.274044e+002 4.763444e+002
         vertex 3.590964e+001 4.774045e+002 5.013444e+002
         vertex 3.590964e+001 4.274044e+002 5.013444e+002
      endloop
   endfacet
   facet normal 1.000000e+000 -0.000000e+000 -0.000000e+000
      outer loop
         vertex 3.590964e+001 4.774045e+002 4.263444e+002
         vertex 3.590964e+001 5.024044e+002 4.263444e+002
         vertex 3.590964e+001 4.774045e+002 4.763444e+002
      endloop
   endfacet
   facet normal 1.000000e+000 -0.000000e+000 -0.000000e+000
      outer loop
         vertex 3.590964e+001 4.774045e+002 4.763444e+002
         vertex 3.590964e+001 5.024044e+002 4.263444e+002
         vertex 3.590964e+001 5.024044e+002 4.763444e+002
      endloop
   endfacet
   facet normal -1.000000e+000 0.000000e+000 0.000000e+000
      outer loop
         vertex 8.590965e+001 4.274044e+002 4.263444e+002
         vertex 8.590965e+001 4.024044e+002 4.263444e+002
         vertex 8.590965e+001 4.274044e+002 4.763444e+002
      endloop
   endfacet
   facet normal -1.000000e+000 0.000000e+000 0.000000e+000
      outer loop
         vertex 8.590965e+001 4.274044e+002 4.763444e+002
         vertex 8.590965e+001 4.024044e+002 4.263444e+002
         vertex 8.590965e+001 4.024044e+002 4.763444e+002
      endloop
   endfacet
   facet normal -1.000000e+000 0.000000e+000 0.000000e+000
      outer loop
         vertex 8.590965e+001 4.274044e+002 4.763444e+002
         vertex 8.590965e+001 4.274044e+002 5.013444e+002
         vertex 8.590965e+001 4.774045e+002 4.763444e+002
      endloop
   endfacet
   facet normal -1.000000e+000 0.000000e+000 0.000000e+000
      outer loop
         vertex 8.590965e+001 4.774045e+002 4.763444e+002
         vertex 8.590965e+001 4.274044e+002 5.013444e+002
         vertex 8.590965e+001 4.774045e+002 5.013444e+002
      endloop
   endfacet
   facet normal -1.000000e+000 0.000000e+000 0.000000e+000
      outer loop
         vertex 8.590965e+001 4.774045e+002 4.763444e+002
         vertex 8.590965e+001 5.024044e+002 4.763444e+002
         vertex 8.590965e+001 4.774045e+002 4.263444e+002
      endloop
   endfacet
   facet normal -1.000000e+000 0.000000e+000 0.000000e+000
      outer loop
         vertex 8.590965e+001 4.774045e+002 4.263444e+002
         vertex 8.590965e+001 5.024044e+002 4.763444e+002
         vertex 8.590965e+001 5.024044e+002 4.263444e+002
      endloop
   endfacet
   facet normal 0.000000e+000 1.000000e+000 -0.000000e+000
      outer loop
         vertex 8.590965e+001 4.274044e+002 4.263444e+002
         vertex 8.590965e+001 4.274044e+002 4.013444e+002
         vertex 3.590964e+001 4.274044e+002 4.263444e+002
      endloop
   endfacet
   facet normal 0.000000e+000 1.000000e+000 -0.000000e+000
      outer loop
         vertex 3.590964e+001 4.274044e+002 4.263444e+002
         vertex 8.590965e+001 4.274044e+002 4.013444e+002
         vertex 3.590964e+001 4.274044e+002 4.013444e+002
      endloop
   endfacet
   facet normal -0.000000e+000 -1.000000e+000 0.000000e+000
      outer loop
         vertex 3.590964e+001 4.774045e+002 4.263444e+002
         vertex 3.590964e+001 4.774045e+002 4.013444e+002
         vertex 8.590965e+001 4.774045e+002 4.263444e+002
      endloop
   endfacet
   facet normal -0.000000e+000 -1.000000e+000 0.000000e+000
      outer loop
         vertex 8.590965e+001 4.774045e+002 4.263444e+002
         vertex 3.590964e+001 4.774045e+002 4.013444e+002
         vertex 8.590965e+001 4.774045e+002 4.013444e+002
      endloop
   endfacet
   facet normal -0.000000e+000 -1.000000e+000 0.000000e+000
      outer loop
         vertex 8.590965e+001 4.024044e+002 4.263444e+002
         vertex 1.109096e+002 4.024044e+002 4.013444e+002
         vertex 1.109096e+002 4.024044e+002 5.013444e+002
      endloop
   endfacet
   facet normal -0.000000e+000 -1.000000e+000 0.000000e+000
      outer loop
         vertex 1.109096e+002 4.024044e+002 4.013444e+002
         vertex 8.590965e+001 4.024044e+002 4.263444e+002
         vertex 1.090964e+001 4.024044e+002 4.013444e+002
      endloop
   endfacet
   facet normal -0.000000e+000 -1.000000e+000 0.000000e+000
      outer loop
         vertex 1.090964e+001 4.024044e+002 4.013444e+002
         vertex 8.590965e+001 4.024044e+002 4.263444e+002
         vertex 3.590964e+001 4.024044e+002 4.263444e+002
      endloop
   endfacet
   facet normal -0.000000e+000 -1.000000e+000 0.000000e+000
      outer loop
         vertex 1.090964e+001 4.024044e+002 4.013444e+002
         vertex 3.590964e+001 4.024044e+002 4.263444e+002
         vertex 1.090964e+001 4.024044e+002 5.013444e+002
      endloop
   endfacet
   facet normal -0.000000e+000 -1.000000e+000 0.000000e+000
      outer loop
         vertex 1.090964e+001 4.024044e+002 5.013444e+002
         vertex 3.590964e+001 4.024044e+002 4.263444e+002
         vertex 3.590964e+001 4.024044e+002 4.763444e+002
      endloop
   endfacet
   facet normal -0.000000e+000 -1.000000e+000 0.000000e+000
      outer loop
         vertex 1.090964e+001 4.024044e+002 5.013444e+002
         vertex 3.590964e+001 4.024044e+002 4.763444e+002
         vertex 1.109096e+002 4.024044e+002 5.013444e+002
      endloop
   endfacet
   facet normal -0.000000e+000 -1.000000e+000 0.000000e+000
      outer loop
         vertex 1.109096e+002 4.024044e+002 5.013444e+002
         vertex 3.590964e+001 4.024044e+002 4.763444e+002
         vertex 8.590965e+001 4.024044e+002 4.763444e+002
      endloop
   endfacet
   facet normal -0.000000e+000 -1.000000e+000 0.000000e+000
      outer loop
         vertex 1.109096e+002 4.024044e+002 5.013444e+002
         vertex 8.590965e+001 4.024044e+002 4.763444e+002
         vertex 8.590965e+001 4.024044e+002 4.263444e+002
      endloop
   endfacet
   facet normal 1.000000e+000 -0.000000e+000 -0.000000e+000
      outer loop
         vertex 1.109096e+002 4.774045e+002 4.263444e+002
         vertex 1.109096e+002 5.024044e+002 4.013444e+002
         vertex 1.109096e+002 4.774045e+002 4.763444e+002
      endloop
   endfacet
   facet normal 1.000000e+000 -0.000000e+000 -0.000000e+000
      outer loop
         vertex 1.109096e+002 4.774045e+002 4.763444e+002
         vertex 1.109096e+002 5.024044e+002 4.013444e+002
         vertex 1.109096e+002 5.024044e+002 5.013444e+002
      endloop
   endfacet
   facet normal 1.000000e+000 -0.000000e+000 -0.000000e+000
      outer loop
         vertex 1.109096e+002 4.774045e+002 4.763444e+002
         vertex 1.109096e+002 5.024044e+002 5.013444e+002
         vertex 1.109096e+002 4.274044e+002 4.763444e+002
      endloop
   endfacet
   facet normal 1.000000e+000 -0.000000e+000 -0.000000e+000
      outer loop
         vertex 1.109096e+002 4.274044e+002 4.763444e+002
         vertex 1.109096e+002 5.024044e+002 5.013444e+002
         vertex 1.109096e+002 4.024044e+002 5.013444e+002
      endloop
   endfacet
   facet normal 1.000000e+000 -0.000000e+000 -0.000000e+000
      outer loop
         vertex 1.109096e+002 4.274044e+002 4.763444e+002
         vertex 1.109096e+002 4.024044e+002 5.013444e+002
         vertex 1.109096e+002 4.274044e+002 4.263444e+002
      endloop
   endfacet
   facet normal 1.000000e+000 -0.000000e+000 -0.000000e+000
      outer loop
         vertex 1.109096e+002 4.274044e+002 4.263444e+002
         vertex 1.109096e+002 4.024044e+002 5.013444e+002
         vertex 1.109096e+002 4.024044e+002 4.013444e+002
      endloop
   endfacet
   facet normal 1.000000e+000 -0.000000e+000 -0.000000e+000
      outer loop
         vertex 1.109096e+002 4.274044e+002 4.263444e+002
         vertex 1.109096e+002 4.024044e+002 4.013444e+002
         vertex 1.109096e+002 4.774045e+002 4.263444e+002
      endloop
   endfacet
   facet normal 1.000000e+000 -0.000000e+000 -0.000000e+000
      outer loop
         vertex 1.109096e+002 4.774045e+002 4.263444e+002
         vertex 1.109096e+002 4.024044e+002 4.013444e+002
         vertex 1.109096e+002 5.024044e+002 4.013444e+002
      endloop
   endfacet
   facet normal 0.000000e+000 1.000000e+000 -0.000000e+000
      outer loop
         vertex 8.590965e+001 5.024044e+002 4.763444e+002
         vertex 1.109096e+002 5.024044e+002 5.013444e+002
         vertex 8.590965e+001 5.024044e+002 4.263444e+002
      endloop
   endfacet
   facet normal 0.000000e+000 1.000000e+000 -0.000000e+000
      outer loop
         vertex 8.590965e+001 5.024044e+002 4.263444e+002
         vertex 1.109096e+002 5.024044e+002 5.013444e+002
         vertex 1.109096e+002 5.024044e+002 4.013444e+002
      endloop
   endfacet
   facet normal 0.000000e+000 1.000000e+000 -0.000000e+000
      outer loop
         vertex 8.590965e+001 5.024044e+002 4.263444e+002
         vertex 1.109096e+002 5.024044e+002 4.013444e+002
         vertex 3.590964e+001 5.024044e+002 4.263444e+002
      endloop
   endfacet
   facet normal 0.000000e+000 1.000000e+000 -0.000000e+000
      outer loop
         vertex 3.590964e+001 5.024044e+002 4.263444e+002
         vertex 1.109096e+002 5.024044e+002 4.013444e+002
         vertex 1.090964e+001 5.024044e+002 4.013444e+002
      endloop
   endfacet
   facet normal 0.000000e+000 1.000000e+000 -0.000000e+000
      outer loop
         vertex 3.590964e+001 5.024044e+002 4.263444e+002
         vertex 1.090964e+001 5.024044e+002 4.013444e+002
         vertex 3.590964e+001 5.024044e+002 4.763444e+002
      endloop
   endfacet
   facet normal 0.000000e+000 1.000000e+000 -0.000000e+000
      outer loop
         vertex 3.590964e+001 5.024044e+002 4.763444e+002
         vertex 1.090964e+001 5.024044e+002 4.013444e+002
         vertex 1.090964e+001 5.024044e+002 5.013444e+002
      endloop
   endfacet
   facet normal 0.000000e+000 1.000000e+000 -0.000000e+000
      outer loop
         vertex 3.590964e+001 5.024044e+002 4.763444e+002
         vertex 1.090964e+001 5.024044e+002 5.013444e+002
         vertex 8.590965e+001 5.024044e+002 4.763444e+002
      endloop
   endfacet
   facet normal 0.000000e+000 1.000000e+000 -0.000000e+000
      outer loop
         vertex 8.590965e+001 5.024044e+002 4.763444e+002
         vertex 1.090964e+001 5.024044e+002 5.013444e+002
         vertex 1.109096e+002 5.024044e+002 5.013444e+002
      endloop
   endfacet
   facet normal -1.000000e+000 0.000000e+000 0.000000e+000
      outer loop
         vertex 1.090964e+001 4.774045e+002 4.763444e+002
         vertex 1.090964e+001 5.024044e+002 5.013444e+002
         vertex 1.090964e+001 4.774045e+002 4.263444e+002
      endloop
   endfacet
   facet normal -1.000000e+000 0.000000e+000 0.000000e+000
      outer loop
         vertex 1.090964e+001 4.774045e+002 4.263444e+002
         vertex 1.090964e+001 5.024044e+002 5.013444e+002
         vertex 1.090964e+001 5.024044e+002 4.013444e+002
      endloop
   endfacet
   facet normal -1.000000e+000 0.000000e+000 0.000000e+000
      outer loop
         vertex 1.090964e+001 4.774045e+002 4.263444e+002
         vertex 1.090964e+001 5.024044e+002 4.013444e+002
         vertex 1.090964e+001 4.274044e+002 4.263444e+002
      endloop
   endfacet
   facet normal -1.000000e+000 0.000000e+000 0.000000e+000
      outer loop
         vertex 1.090964e+001 4.274044e+002 4.263444e+002
         vertex 1.090964e+001 5.024044e+002 4.013444e+002
         vertex 1.090964e+001 4.024044e+002 4.013444e+002
      endloop
   endfacet
   facet normal -1.000000e+000 0.000000e+000 0.000000e+000
      outer loop
         vertex 1.090964e+001 4.274044e+002 4.263444e+002
         vertex 1.090964e+001 4.024044e+002 4.013444e+002
         vertex 1.090964e+001 4.274044e+002 4.763444e+002
      endloop
   endfacet
   facet normal -1.000000e+000 0.000000e+000 0.000000e+000
      outer loop
         vertex 1.090964e+001 4.274044e+002 4.763444e+002
         vertex 1.090964e+001 4.024044e+002 4.013444e+002
         vertex 1.090964e+001 4.024044e+002 5.013444e+002
      endloop
   endfacet
   facet normal -1.000000e+000 0.000000e+000 0.000000e+000
      outer loop
         vertex 1.090964e+001 4.274044e+002 4.763444e+002
         vertex 1.090964e+001 4.024044e+002 5.013444e+002
         vertex 1.090964e+001 4.774045e+002 4.763444e+002
      endloop
   endfacet
   facet normal -1.000000e+000 0.000000e+000 0.000000e+000
      outer loop
         vertex 1.090964e+001 4.774045e+002 4.763444e+002
         vertex 1.090964e+001 4.024044e+002 5.013444e+002
         vertex 1.090964e+001 5.024044e+002 5.013444e+002
      endloop
   endfacet
   facet normal 0.000000e+000 0.000000e+000 1.000000e+000
      outer loop
         vertex 8.590965e+001 4.274044e+002 5.013444e+002
         vertex 1.109096e+002 4.024044e+002 5.013444e+002
         vertex 1.109096e+002 5.024044e+002 5.013444e+002
      endloop
   endfacet
   facet normal 0.000000e+000 0.000000e+000 1.000000e+000
      outer loop
         vertex 1.109096e+002 4.024044e+002 5.013444e+002
         vertex 8.590965e+001 4.274044e+002 5.013444e+002
         vertex 1.090964e+001 4.024044e+002 5.013444e+002
      endloop
   endfacet
   facet normal 0.000000e+000 0.000000e+000 1.000000e+000
      outer loop
         vertex 1.090964e+001 4.024044e+002 5.013444e+002
         vertex 8.590965e+001 4.274044e+002 5.013444e+002
         vertex 3.590964e+001 4.274044e+002 5.013444e+002
      endloop
   endfacet
   facet normal 0.000000e+000 0.000000e+000 1.000000e+000
      outer loop
         vertex 1.090964e+001 4.024044e+002 5.013444e+002
         vertex 3.590964e+001 4.274044e+002 5.013444e+002
         vertex 1.090964e+001 5.024044e+002 5.013444e+002
      endloop
   endfacet
   facet normal 0.000000e+000 0.000000e+000 1.000000e+000
      outer loop
         vertex 1.090964e+001 5.024044e+002 5.013444e+002
         vertex 3.590964e+001 4.274044e+002 5.013444e+002
         vertex 3.590964e+001 4.774045e+002 5.013444e+002
      endloop
   endfacet
   facet normal 0.000000e+000 0.000000e+000 1.000000e+000
      outer loop
         vertex 1.090964e+001 5.024044e+002 5.013444e+002
         vertex 3.590964e+001 4.774045e+002 5.013444e+002
         vertex 1.109096e+002 5.024044e+002 5.013444e+002
      endloop
   endfacet
   facet normal 0.000000e+000 0.000000e+000 1.000000e+000
      outer loop
         vertex 1.109096e+002 5.024044e+002 5.013444e+002
         vertex 3.590964e+001 4.774045e+002 5.013444e+002
         vertex 8.590965e+001 4.774045e+002 5.013444e+002
      endloop
   endfacet
   facet normal 0.000000e+000 0.000000e+000 1.000000e+000
      outer loop
         vertex 1.109096e+002 5.024044e+002 5.013444e+002
         vertex 8.590965e+001 4.774045e+002 5.013444e+002
         vertex 8.590965e+001 4.274044e+002 5.013444e+002
      endloop
   endfacet
   facet normal -0.000000e+000 -0.000000e+000 -1.000000e+000
      outer loop
         vertex 3.590964e+001 4.274044e+002 4.013444e+002
         vertex 1.090964e+001 4.024044e+002 4.013444e+002
         vertex 3.590964e+001 4.774045e+002 4.013444e+002
      endloop
   endfacet
   facet normal -0.000000e+000 -0.000000e+000 -1.000000e+000
      outer loop
         vertex 3.590964e+001 4.774045e+002 4.013444e+002
         vertex 1.090964e+001 4.024044e+002 4.013444e+002
         vertex 1.090964e+001 5.024044e+002 4.013444e+002
      endloop
   endfacet
   facet normal -0.000000e+000 -0.000000e+000 -1.000000e+000
      outer loop
         vertex 3.590964e+001 4.774045e+002 4.013444e+002
         vertex 1.090964e+001 5.024044e+002 4.013444e+002
         vertex 8.590965e+001 4.774045e+002 4.013444e+002
      endloop
   endfacet
   facet normal -0.000000e+000 -0.000000e+000 -1.000000e+000
      outer loop
         vertex 8.590965e+001 4.774045e+002 4.013444e+002
         vertex 1.090964e+001 5.024044e+002 4.013444e+002
         vertex 1.109096e+002 5.024044e+002 4.013444e+002
      endloop
   endfacet
   facet normal -0.000000e+000 -0.000000e+000 -1.000000e+000
      outer loop
         vertex 8.590965e+001 4.774045e+002 4.013444e+002
         vertex 1.109096e+002 5.024044e+002 4.013444e+002
         vertex 8.590965e+001 4.274044e+002 4.013444e+002
      endloop
   endfacet
   facet normal -0.000000e+000 -0.000000e+000 -1.000000e+000
      outer loop
         vertex 8.590965e+001 4.274044e+002 4.013444e+002
         vertex 1.109096e+002 5.024044e+002 4.013444e+002
         vertex 1.109096e+002 4.024044e+002 4.013444e+002
      endloop
   endfacet
   facet normal -0.000000e+000 -0.000000e+000 -1.000000e+000
      outer loop
         vertex 8.590965e+001 4.274044e+002 4.013444e+002
         vertex 1.109096e+002 4.024044e+002 4.013444e+002
         vertex 3.590964e+001 4.274044e+002 4.013444e+002
      endloop
   endfacet
   facet normal -0.000000e+000 -0.000000e+000 -1.000000e+000
      outer loop
         vertex 3.590964e+001 4.274044e+002 4.013444e+002
         vertex 1.109096e+002 4.024044e+002 4.013444e+002
         vertex 1.090964e+001 4.024044e+002 4.013444e+002
      endloop
   endfacet
   facet normal 0.000000e+000 1.000000e+000 -0.000000e+000
      outer loop
         vertex 3.590964e+001 4.274044e+002 4.763444e+002
         vertex 3.590964e+001 4.274044e+002 5.013444e+002
         vertex 8.590965e+001 4.274044e+002 4.763444e+002
      endloop
   endfacet
   facet normal 0.000000e+000 1.000000e+000 -0.000000e+000
      outer loop
         vertex 8.590965e+001 4.274044e+002 4.763444e+002
         vertex 3.590964e+001 4.274044e+002 5.013444e+002
         vertex 8.590965e+001 4.274044e+002 5.013444e+002
      endloop
   endfacet
   facet normal 1.000000e+000 -0.000000e+000 -0.000000e+000
      outer loop
         vertex 3.590964e+001 4.274044e+002 4.263444e+002
         vertex 3.590964e+001 4.274044e+002 4.013444e+002
         vertex 3.590964e+001 4.774045e+002 4.263444e+002
      endloop
   endfacet
   facet normal 1.000000e+000 -0.000000e+000 -0.000000e+000
      outer loop
         vertex 3.590964e+001 4.774045e+002 4.263444e+002
         vertex 3.590964e+001 4.274044e+002 4.013444e+002
         vertex 3.590964e+001 4.774045e+002 4.013444e+002
      endloop
   endfacet
   facet normal -0.000000e+000 -1.000000e+000 0.000000e+000
      outer loop
         vertex 8.590965e+001 4.774045e+002 4.763444e+002
         vertex 8.590965e+001 4.774045e+002 5.013444e+002
         vertex 3.590964e+001 4.774045e+002 4.763444e+002
      endloop
   endfacet
   facet normal -0.000000e+000 -1.000000e+000 0.000000e+000
      outer loop
         vertex 3.590964e+001 4.774045e+002 4.763444e+002
         vertex 8.590965e+001 4.774045e+002 5.013444e+002
         vertex 3.590964e+001 4.774045e+002 5.013444e+002
      endloop
   endfacet
   facet normal -1.000000e+000 0.000000e+000 0.000000e+000
      outer loop
         vertex 8.590965e+001 4.774045e+002 4.263444e+002
         vertex 8.590965e+001 4.774045e+002 4.013444e+002
         vertex 8.590965e+001 4.274044e+002 4.263444e+002
      endloop
   endfacet
   facet normal -1.000000e+000 0.000000e+000 0.000000e+000
      outer loop
         vertex 8.590965e+001 4.274044e+002 4.263444e+002
         vertex 8.590965e+001 4.774045e+002 4.013444e+002
         vertex 8.590965e+001 4.274044e+002 4.013444e+002
      endloop
   endfacet
   facet normal -1.387779e-016 -0.000000e+000 -1.000000e+000
      outer loop
         vertex 8.590965e+001 5.024044e+002 4.763444e+002
         vertex 8.590965e+001 4.774045e+002 4.763444e+002
         vertex 3.590964e+001 5.024044e+002 4.763444e+002
      endloop
   endfacet
   facet normal -1.387779e-016 -0.000000e+000 -1.000000e+000
      outer loop
         vertex 3.590964e+001 5.024044e+002 4.763444e+002
         vertex 8.590965e+001 4.774045e+002 4.763444e+002
         vertex 3.590964e+001 4.774045e+002 4.763444e+002
      endloop
   endfacet
   facet normal 1.387779e-016 0.000000e+000 1.000000e+000
      outer loop
         vertex 3.590964e+001 5.024044e+002 4.263444e+002
         vertex 3.590964e+001 4.774045e+002 4.263444e+002
         vertex 8.590965e+001 5.024044e+002 4.263444e+002
      endloop
   endfacet
   facet normal 1.387779e-016 0.000000e+000 1.000000e+000
      outer loop
         vertex 8.590965e+001 5.024044e+002 4.263444e+002
         vertex 3.590964e+001 4.774045e+002 4.263444e+002
         vertex 8.590965e+001 4.774045e+002 4.263444e+002
      endloop
   endfacet
   facet normal 1.387779e-016 0.000000e+000 1.000000e+000
      outer loop
         vertex 8.590965e+001 4.024044e+002 4.263444e+002
         vertex 8.590965e+001 4.274044e+002 4.263444e+002
         vertex 3.590964e+001 4.024044e+002 4.263444e+002
      endloop
   endfacet
   facet normal 1.387779e-016 0.000000e+000 1.000000e+000
      outer loop
         vertex 3.590964e+001 4.024044e+002 4.263444e+002
         vertex 8.590965e+001 4.274044e+002 4.263444e+002
         vertex 3.590964e+001 4.274044e+002 4.263444e+002
      endloop
   endfacet
   facet normal -1.387779e-016 -0.000000e+000 -1.000000e+000
      outer loop
         vertex 3.590964e+001 4.024044e+002 4.763444e+002
         vertex 3.590964e+001 4.274044e+002 4.763444e+002
         vertex 8.590965e+001 4.024044e+002 4.763444e+002
      endloop
   endfacet
   facet normal -1.387779e-016 -0.000000e+000 -1.000000e+000
      outer loop
         vertex 8.590965e+001 4.024044e+002 4.763444e+002
         vertex 3.590964e+001 4.274044e+002 4.763444e+002
         vertex 8.590965e+001 4.274044e+002 4.763444e+002
      endloop
   endfacet
   facet normal 0.000000e+000 0.000000e+000 1.000000e+000
      outer loop
         vertex 1.109096e+002 4.774045e+002 4.263444e+002
         vertex 8.590965e+001 4.774045e+002 4.263444e+002
         vertex 1.109096e+002 4.274044e+002 4.263444e+002
      endloop
   endfacet
   facet normal 0.000000e+000 0.000000e+000 1.000000e+000
      outer loop
         vertex 1.109096e+002 4.274044e+002 4.263444e+002
         vertex 8.590965e+001 4.774045e+002 4.263444e+002
         vertex 8.590965e+001 4.274044e+002 4.263444e+002
      endloop
   endfacet
   facet normal -0.000000e+000 -1.000000e+000 0.000000e+000
      outer loop
         vertex 1.109096e+002 4.774045e+002 4.763444e+002
         vertex 8.590965e+001 4.774045e+002 4.763444e+002
         vertex 1.109096e+002 4.774045e+002 4.263444e+002
      endloop
   endfacet
   facet normal -0.000000e+000 -1.000000e+000 0.000000e+000
      outer loop
         vertex 1.109096e+002 4.774045e+002 4.263444e+002
         vertex 8.590965e+001 4.774045e+002 4.763444e+002
         vertex 8.590965e+001 4.774045e+002 4.263444e+002
      endloop
   endfacet
   facet normal -0.000000e+000 -0.000000e+000 -1.000000e+000
      outer loop
         vertex 1.109096e+002 4.274044e+002 4.763444e+002
         vertex 8.590965e+001 4.274044e+002 4.763444e+002
         vertex 1.109096e+002 4.774045e+002 4.763444e+002
      endloop
   endfacet
   facet normal -0.000000e+000 -0.000000e+000 -1.000000e+000
      outer loop
         vertex 1.109096e+002 4.774045e+002 4.763444e+002
         vertex 8.590965e+001 4.274044e+002 4.763444e+002
         vertex 8.590965e+001 4.774045e+002 4.763444e+002
      endloop
   endfacet
   facet normal 0.000000e+000 1.000000e+000 -0.000000e+000
      outer loop
         vertex 1.109096e+002 4.274044e+002 4.263444e+002
         vertex 8.590965e+001 4.274044e+002 4.263444e+002
         vertex 1.109096e+002 4.274044e+002 4.763444e+002
      endloop
   endfacet
   facet normal 0.000000e+000 1.000000e+000 -0.000000e+000
      outer loop
         vertex 1.109096e+002 4.274044e+002 4.763444e+002
         vertex 8.590965e+001 4.274044e+002 4.263444e+002
         vertex 8.590965e+001 4.274044e+002 4.763444e+002
      endloop
   endfacet
   facet normal -0.000000e+000 -0.000000e+000 -1.000000e+000
      outer loop
         vertex 1.090964e+001 4.774045e+002 4.763444e+002
         vertex 3.590964e+001 4.774045e+002 4.763444e+002
         vertex 1.090964e+001 4.274044e+002 4.763444e+002
      endloop
   endfacet
   facet normal -0.000000e+000 -0.000000e+000 -1.000000e+000
      outer loop
         vertex 1.090964e+001 4.274044e+002 4.763444e+002
         vertex 3.590964e+001 4.774045e+002 4.763444e+002
         vertex 3.590964e+001 4.274044e+002 4.763444e+002
      endloop
   endfacet
   facet normal 0.000000e+000 0.000000e+000 1.000000e+000
      outer loop
         vertex 1.090964e+001 4.274044e+002 4.263444e+002
         vertex 3.590964e+001 4.274044e+002 4.263444e+002
         vertex 1.090964e+001 4.774045e+002 4.263444e+002
      endloop
   endfacet
   facet normal 0.000000e+000 0.000000e+000 1.000000e+000
      outer loop
         vertex 1.090964e+001 4.774045e+002 4.263444e+002
         vertex 3.590964e+001 4.274044e+002 4.263444e+002
         vertex 3.590964e+001 4.774045e+002 4.263444e+002
      endloop
   endfacet
   facet normal -0.000000e+000 -1.000000e+000 0.000000e+000
      outer loop
         vertex 1.090964e+001 4.774045e+002 4.263444e+002
         vertex 3.590964e+001 4.774045e+002 4.263444e+002
         vertex 1.090964e+001 4.774045e+002 4.763444e+002
      endloop
   endfacet
   facet normal -0.000000e+000 -1.000000e+000 0.000000e+000
      outer loop
         vertex 1.090964e+001 4.774045e+002 4.763444e+002
         vertex 3.590964e+001 4.774045e+002 4.263444e+002
         vertex 3.590964e+001 4.774045e+002 4.763444e+002
      endloop
   endfacet
   facet normal 0.000000e+000 1.000000e+000 -0.000000e+000
      outer loop
         vertex 1.090964e+001 4.274044e+002 4.763444e+002
         vertex 3.590964e+001 4.274044e+002 4.763444e+002
         vertex 1.090964e+001 4.274044e+002 4.263444e+002
      endloop
   endfacet
   facet normal 0.000000e+000 1.000000e+000 -0.000000e+000
      outer loop
         vertex 1.090964e+001 4.274044e+002 4.263444e+002
         vertex 3.590964e+001 4.274044e+002 4.763444e+002
         vertex 3.590964e+001 4.274044e+002 4.263444e+002
      endloop
   endfacet
endsolid