solid CubeDouble - A0-4
   facet normal 0.000000e+000 1.000000e+000 -1.224647e-016
      outer loop
         vertex 4.859096e+002 4.024045e+002 7.634436e+001
         vertex 4.984096e+002 4.024045e+002 8.884437e+001
         vertex 4.859096e+002 4.024045e+002 2.634436e+001
      endloop
   endfacet
   facet normal 0.000000e+000 1.000000e+000 -1.224647e-016
      outer loop
         vertex 4.859096e+002 4.024045e+002 2.634436e+001
         vertex 4.984096e+002 4.024045e+002 8.884437e+001
         vertex 4.984096e+002 4.024045e+002 1.384436e+001
      endloop
   endfacet
   facet normal 0.000000e+000 1.000000e+000 -1.224647e-016
      outer loop
         vertex 4.859096e+002 4.024045e+002 2.634436e+001
         vertex 4.984096e+002 4.024045e+002 1.384436e+001
         vertex 4.359096e+002 4.024045e+002 2.634436e+001
      endloop
   endfacet
   facet normal 0.000000e+000 1.000000e+000 -1.224647e-016
      outer loop
         vertex 4.359096e+002 4.024045e+002 2.634436e+001
         vertex 4.984096e+002 4.024045e+002 1.384436e+001
         vertex 4.234096e+002 4.024045e+002 1.384436e+001
      endloop
   endfacet
   facet normal 0.000000e+000 1.000000e+000 -1.224647e-016
      outer loop
         vertex 4.359096e+002 4.024045e+002 2.634436e+001
         vertex 4.234096e+002 4.024045e+002 1.384436e+001
         vertex 4.359096e+002 4.024045e+002 7.634436e+001
      endloop
   endfacet
   facet normal 0.000000e+000 1.000000e+000 -1.224647e-016
      outer loop
         vertex 4.359096e+002 4.024045e+002 7.634436e+001
         vertex 4.234096e+002 4.024045e+002 1.384436e+001
         vertex 4.234096e+002 4.024045e+002 8.884437e+001
      endloop
   endfacet
   facet normal 0.000000e+000 1.000000e+000 -1.224647e-016
      outer loop
         vertex 4.359096e+002 4.024045e+002 7.634436e+001
         vertex 4.234096e+002 4.024045e+002 8.884437e+001
         vertex 4.859096e+002 4.024045e+002 7.634436e+001
      endloop
   endfacet
   facet normal 0.000000e+000 1.000000e+000 -1.224647e-016
      outer loop
         vertex 4.859096e+002 4.024045e+002 7.634436e+001
         vertex 4.234096e+002 4.024045e+002 8.884437e+001
         vertex 4.984096e+002 4.024045e+002 8.884437e+001
      endloop
   endfacet
   facet normal 1.000000e+000 0.000000e+000 0.000000e+000
      outer loop
         vertex 4.984096e+002 4.024045e+002 1.384436e+001
         vertex 4.984096e+002 4.024045e+002 8.884437e+001
         vertex 4.984096e+002 1.024045e+002 1.384436e+001
      endloop
   endfacet
   facet normal 1.000000e+000 0.000000e+000 0.000000e+000
      outer loop
         vertex 4.984096e+002 1.024045e+002 1.384436e+001
         vertex 4.984096e+002 4.024045e+002 8.884437e+001
         vertex 4.984096e+002 1.024045e+002 8.884437e+001
      endloop
   endfacet
   facet normal 1.110223e-016 -1.224647e-016 -1.000000e+000
      outer loop
         vertex 4.234096e+002 4.024045e+002 1.384436e+001
         vertex 4.984096e+002 4.024045e+002 1.384436e+001
         vertex 4.234096e+002 1.024045e+002 1.384436e+001
      endloop
   endfacet
   facet normal 1.110223e-016 -1.224647e-016 -1.000000e+000
      outer loop
         vertex 4.234096e+002 1.024045e+002 1.384436e+001
         vertex 4.984096e+002 4.024045e+002 1.384436e+001
         vertex 4.984096e+002 1.024045e+002 1.384436e+001
      endloop
   endfacet
   facet normal -1.000000e+000 0.000000e+000 0.000000e+000
      outer loop
         vertex 4.234096e+002 4.024045e+002 8.884437e+001
         vertex 4.234096e+002 4.024045e+002 1.384436e+001
         vertex 4.234096e+002 1.024045e+002 8.884437e+001
      endloop
   endfacet
   facet normal -1.000000e+000 0.000000e+000 0.000000e+000
      outer loop
         vertex 4.234096e+002 1.024045e+002 8.884437e+001
         vertex 4.234096e+002 4.024045e+002 1.384436e+001
         vertex 4.234096e+002 1.024045e+002 1.384436e+001
      endloop
   endfacet
   facet normal -1.850372e-017 1.224647e-016 1.000000e+000
      outer loop
         vertex 4.984096e+002 4.024045e+002 8.884437e+001
         vertex 4.234096e+002 4.024045e+002 8.884437e+001
         vertex 4.984096e+002 1.024045e+002 8.884437e+001
      endloop
   endfacet
   facet normal -1.850372e-017 1.224647e-016 1.000000e+000
      outer loop
         vertex 4.984096e+002 1.024045e+002 8.884437e+001
         vertex 4.234096e+002 4.024045e+002 8.884437e+001
         vertex 4.234096e+002 1.024045e+002 8.884437e+001
      endloop
   endfacet
   facet normal -0.000000e+000 -1.000000e+000 1.224647e-016
      outer loop
         vertex 4.859096e+002 1.024045e+002 7.634436e+001
         vertex 4.984096e+002 1.024045e+002 8.884437e+001
         vertex 4.234096e+002 1.024045e+002 8.884437e+001
      endloop
   endfacet
   facet normal -0.000000e+000 -1.000000e+000 1.224647e-016
      outer loop
         vertex 4.984096e+002 1.024045e+002 8.884437e+001
         vertex 4.859096e+002 1.024045e+002 7.634436e+001
         vertex 4.984096e+002 1.024045e+002 1.384436e+001
      endloop
   endfacet
   facet normal -0.000000e+000 -1.000000e+000 1.224647e-016
      outer loop
         vertex 4.984096e+002 1.024045e+002 1.384436e+001
         vertex 4.859096e+002 1.024045e+002 7.634436e+001
         vertex 4.859096e+002 1.024045e+002 2.634436e+001
      endloop
   endfacet
   facet normal -0.000000e+000 -1.000000e+000 1.224647e-016
      outer loop
         vertex 4.984096e+002 1.024045e+002 1.384436e+001
         vertex 4.859096e+002 1.024045e+002 2.634436e+001
         vertex 4.234096e+002 1.024045e+002 1.384436e+001
      endloop
   endfacet
   facet normal -0.000000e+000 -1.000000e+000 1.224647e-016
      outer loop
         vertex 4.234096e+002 1.024045e+002 1.384436e+001
         vertex 4.859096e+002 1.024045e+002 2.634436e+001
         vertex 4.359096e+002 1.024045e+002 2.634436e+001
      endloop
   endfacet
   facet normal -0.000000e+000 -1.000000e+000 1.224647e-016
      outer loop
         vertex 4.234096e+002 1.024045e+002 1.384436e+001
         vertex 4.359096e+002 1.024045e+002 2.634436e+001
         vertex 4.234096e+002 1.024045e+002 8.884437e+001
      endloop
   endfacet
   facet normal -0.000000e+000 -1.000000e+000 1.224647e-016
      outer loop
         vertex 4.234096e+002 1.024045e+002 8.884437e+001
         vertex 4.359096e+002 1.024045e+002 2.634436e+001
         vertex 4.359096e+002 1.024045e+002 7.634436e+001
      endloop
   endfacet
   facet normal -0.000000e+000 -1.000000e+000 1.224647e-016
      outer loop
         vertex 4.234096e+002 1.024045e+002 8.884437e+001
         vertex 4.359096e+002 1.024045e+002 7.634436e+001
         vertex 4.859096e+002 1.024045e+002 7.634436e+001
      endloop
   endfacet
   facet normal 1.000000e+000 0.000000e+000 0.000000e+000
      outer loop
         vertex 4.859096e+002 4.224045e+002 2.634436e+001
         vertex 4.859096e+002 4.224045e+002 7.634436e+001
         vertex 4.859096e+002 4.024045e+002 2.634436e+001
      endloop
   endfacet
   facet normal 1.000000e+000 0.000000e+000 0.000000e+000
      outer loop
         vertex 4.859096e+002 4.024045e+002 2.634436e+001
         vertex 4.859096e+002 4.224045e+002 7.634436e+001
         vertex 4.859096e+002 4.024045e+002 7.634436e+001
      endloop
   endfacet
   facet normal -2.775558e-017 -1.224647e-016 -1.000000e+000
      outer loop
         vertex 4.359096e+002 4.224045e+002 2.634436e+001
         vertex 4.859096e+002 4.224045e+002 2.634436e+001
         vertex 4.359096e+002 4.024045e+002 2.634436e+001
      endloop
   endfacet
   facet normal -2.775558e-017 -1.224647e-016 -1.000000e+000
      outer loop
         vertex 4.359096e+002 4.024045e+002 2.634436e+001
         vertex 4.859096e+002 4.224045e+002 2.634436e+001
         vertex 4.859096e+002 4.024045e+002 2.634436e+001
      endloop
   endfacet
   facet normal -1.000000e+000 0.000000e+000 0.000000e+000
      outer loop
         vertex 4.359096e+002 4.224045e+002 7.634436e+001
         vertex 4.359096e+002 4.224045e+002 2.634436e+001
         vertex 4.359096e+002 4.024045e+002 7.634436e+001
      endloop
   endfacet
   facet normal -1.000000e+000 0.000000e+000 0.000000e+000
      outer loop
         vertex 4.359096e+002 4.024045e+002 7.634436e+001
         vertex 4.359096e+002 4.224045e+002 2.634436e+001
         vertex 4.359096e+002 4.024045e+002 2.634436e+001
      endloop
   endfacet
   facet normal 2.775558e-017 1.224647e-016 1.000000e+000
      outer loop
         vertex 4.859096e+002 4.224045e+002 7.634436e+001
         vertex 4.359096e+002 4.224045e+002 7.634436e+001
         vertex 4.859096e+002 4.024045e+002 7.634436e+001
      endloop
   endfacet
   facet normal 2.775558e-017 1.224647e-016 1.000000e+000
      outer loop
         vertex 4.859096e+002 4.024045e+002 7.634436e+001
         vertex 4.359096e+002 4.224045e+002 7.634436e+001
         vertex 4.359096e+002 4.024045e+002 7.634436e+001
      endloop
   endfacet
   facet normal 0.000000e+000 1.000000e+000 -1.224647e-016
      outer loop
         vertex 4.359096e+002 4.224045e+002 2.634436e+001
         vertex 4.359096e+002 4.224045e+002 7.634436e+001
         vertex 4.859096e+002 4.224045e+002 2.634436e+001
      endloop
   endfacet
   facet normal 0.000000e+000 1.000000e+000 -1.224647e-016
      outer loop
         vertex 4.859096e+002 4.224045e+002 2.634436e+001
         vertex 4.359096e+002 4.224045e+002 7.634436e+001
         vertex 4.859096e+002 4.224045e+002 7.634436e+001
      endloop
   endfacet
   facet normal 1.000000e+000 0.000000e+000 0.000000e+000
      outer loop
         vertex 4.859096e+002 8.240447e+001 7.634436e+001
         vertex 4.859096e+002 8.240447e+001 2.634436e+001
         vertex 4.859096e+002 1.024045e+002 7.634436e+001
      endloop
   endfacet
   facet normal 1.000000e+000 0.000000e+000 0.000000e+000
      outer loop
         vertex 4.859096e+002 1.024045e+002 7.634436e+001
         vertex 4.859096e+002 8.240447e+001 2.634436e+001
         vertex 4.859096e+002 1.024045e+002 2.634436e+001
      endloop
   endfacet
   facet normal 2.775558e-017 1.224647e-016 1.000000e+000
      outer loop
         vertex 4.359096e+002 8.240447e+001 7.634436e+001
         vertex 4.859096e+002 8.240447e+001 7.634436e+001
         vertex 4.359096e+002 1.024045e+002 7.634436e+001
      endloop
   endfacet
   facet normal 2.775558e-017 1.224647e-016 1.000000e+000
      outer loop
         vertex 4.359096e+002 1.024045e+002 7.634436e+001
         vertex 4.859096e+002 8.240447e+001 7.634436e+001
         vertex 4.859096e+002 1.024045e+002 7.634436e+001
      endloop
   endfacet
   facet normal -1.000000e+000 0.000000e+000 0.000000e+000
      outer loop
         vertex 4.359096e+002 8.240447e+001 2.634436e+001
         vertex 4.359096e+002 8.240447e+001 7.634436e+001
         vertex 4.359096e+002 1.024045e+002 2.634436e+001
      endloop
   endfacet
   facet normal -1.000000e+000 0.000000e+000 0.000000e+000
      outer loop
         vertex 4.359096e+002 1.024045e+002 2.634436e+001
         vertex 4.359096e+002 8.240447e+001 7.634436e+001
         vertex 4.359096e+002 1.024045e+002 7.634436e+001
      endloop
   endfacet
   facet normal -2.775558e-017 -1.224647e-016 -1.000000e+000
      outer loop
         vertex 4.859096e+002 8.240447e+001 2.634436e+001
         vertex 4.359096e+002 8.240447e+001 2.634436e+001
         vertex 4.859096e+002 1.024045e+002 2.634436e+001
      endloop
   endfacet
   facet normal -2.775558e-017 -1.224647e-016 -1.000000e+000
      outer loop
         vertex 4.859096e+002 1.024045e+002 2.634436e+001
         vertex 4.359096e+002 8.240447e+001 2.634436e+001
         vertex 4.359096e+002 1.024045e+002 2.634436e+001
      endloop
   endfacet
   facet normal -0.000000e+000 -1.000000e+000 1.224647e-016
      outer loop
         vertex 4.359096e+002 8.240447e+001 7.634436e+001
         vertex 4.359096e+002 8.240447e+001 2.634436e+001
         vertex 4.859096e+002 8.240447e+001 7.634436e+001
      endloop
   endfacet
   facet normal -0.000000e+000 -1.000000e+000 1.224647e-016
      outer loop
         vertex 4.859096e+002 8.240447e+001 7.634436e+001
         vertex 4.359096e+002 8.240447e+001 2.634436e+001
         vertex 4.859096e+002 8.240447e+001 2.634436e+001
      endloop
   endfacet
endsolid