solid CubeDouble - cube-2 CDH0-1
   facet normal 0.000000e+000 -1.000000e+000 -2.449294e-016
      outer loop
         vertex 4.859096e+002 8.774045e+002 4.263444e+002
         vertex 5.109096e+002 8.774045e+002 4.263444e+002
         vertex 4.859096e+002 8.774045e+002 4.763444e+002
      endloop
   endfacet
   facet normal 0.000000e+000 -1.000000e+000 -2.449294e-016
      outer loop
         vertex 4.859096e+002 8.774045e+002 4.763444e+002
         vertex 5.109096e+002 8.774045e+002 4.263444e+002
         vertex 5.109096e+002 8.774045e+002 4.763444e+002
      endloop
   endfacet
   facet normal 0.000000e+000 -1.000000e+000 -2.449294e-016
      outer loop
         vertex 4.359096e+002 8.774045e+002 4.263444e+002
         vertex 4.359096e+002 8.774045e+002 4.013444e+002
         vertex 4.859096e+002 8.774045e+002 4.263444e+002
      endloop
   endfacet
   facet normal 0.000000e+000 -1.000000e+000 -2.449294e-016
      outer loop
         vertex 4.859096e+002 8.774045e+002 4.263444e+002
         vertex 4.359096e+002 8.774045e+002 4.013444e+002
         vertex 4.859096e+002 8.774045e+002 4.013444e+002
      endloop
   endfacet
   facet normal 0.000000e+000 -1.000000e+000 -2.449294e-016
      outer loop
         vertex 4.359096e+002 8.774045e+002 4.763444e+002
         vertex 4.109097e+002 8.774045e+002 4.763444e+002
         vertex 4.359096e+002 8.774045e+002 4.263444e+002
      endloop
   endfacet
   facet normal 0.000000e+000 -1.000000e+000 -2.449294e-016
      outer loop
         vertex 4.359096e+002 8.774045e+002 4.263444e+002
         vertex 4.109097e+002 8.774045e+002 4.763444e+002
         vertex 4.109097e+002 8.774045e+002 4.263444e+002
      endloop
   endfacet
   facet normal 0.000000e+000 1.000000e+000 2.449294e-016
      outer loop
         vertex 4.859096e+002 8.274045e+002 4.763444e+002
         vertex 5.109096e+002 8.274045e+002 4.763444e+002
         vertex 4.859096e+002 8.274045e+002 4.263444e+002
      endloop
   endfacet
   facet normal 0.000000e+000 1.000000e+000 2.449294e-016
      outer loop
         vertex 4.859096e+002 8.274045e+002 4.263444e+002
         vertex 5.109096e+002 8.274045e+002 4.763444e+002
         vertex 5.109096e+002 8.274045e+002 4.263444e+002
      endloop
   endfacet
   facet normal 0.000000e+000 1.000000e+000 2.449294e-016
      outer loop
         vertex 4.859096e+002 8.274045e+002 4.263444e+002
         vertex 4.859096e+002 8.274045e+002 4.013444e+002
         vertex 4.359096e+002 8.274045e+002 4.263444e+002
      endloop
   endfacet
   facet normal 0.000000e+000 1.000000e+000 2.449294e-016
      outer loop
         vertex 4.359096e+002 8.274045e+002 4.263444e+002
         vertex 4.859096e+002 8.274045e+002 4.013444e+002
         vertex 4.359096e+002 8.274045e+002 4.013444e+002
      endloop
   endfacet
   facet normal 0.000000e+000 1.000000e+000 2.449294e-016
      outer loop
         vertex 4.359096e+002 8.274045e+002 4.263444e+002
         vertex 4.109097e+002 8.274045e+002 4.263444e+002
         vertex 4.359096e+002 8.274045e+002 4.763444e+002
      endloop
   endfacet
   facet normal 0.000000e+000 1.000000e+000 2.449294e-016
      outer loop
         vertex 4.359096e+002 8.274045e+002 4.763444e+002
         vertex 4.109097e+002 8.274045e+002 4.263444e+002
         vertex 4.109097e+002 8.274045e+002 4.763444e+002
      endloop
   endfacet
   facet normal -1.000000e+000 0.000000e+000 -0.000000e+000
      outer loop
         vertex 4.859096e+002 8.274045e+002 4.763444e+002
         vertex 4.859096e+002 8.274045e+002 5.013444e+002
         vertex 4.859096e+002 8.774045e+002 4.763444e+002
      endloop
   endfacet
   facet normal -1.000000e+000 0.000000e+000 -0.000000e+000
      outer loop
         vertex 4.859096e+002 8.774045e+002 4.763444e+002
         vertex 4.859096e+002 8.274045e+002 5.013444e+002
         vertex 4.859096e+002 8.774045e+002 5.013444e+002
      endloop
   endfacet
   facet normal 1.000000e+000 0.000000e+000 0.000000e+000
      outer loop
         vertex 4.359096e+002 8.774045e+002 4.763444e+002
         vertex 4.359096e+002 8.774045e+002 5.013444e+002
         vertex 4.359096e+002 8.274045e+002 4.763444e+002
      endloop
   endfacet
   facet normal 1.000000e+000 0.000000e+000 0.000000e+000
      outer loop
         vertex 4.359096e+002 8.274045e+002 4.763444e+002
         vertex 4.359096e+002 8.774045e+002 5.013444e+002
         vertex 4.359096e+002 8.274045e+002 5.013444e+002
      endloop
   endfacet
   facet normal 1.000000e+000 0.000000e+000 0.000000e+000
      outer loop
         vertex 5.109096e+002 8.274045e+002 4.763444e+002
         vertex 5.109096e+002 8.024045e+002 5.013444e+002
         vertex 5.109096e+002 8.024045e+002 4.013444e+002
      endloop
   endfacet
   facet normal 1.000000e+000 0.000000e+000 0.000000e+000
      outer loop
         vertex 5.109096e+002 8.024045e+002 5.013444e+002
         vertex 5.109096e+002 8.274045e+002 4.763444e+002
         vertex 5.109096e+002 9.024045e+002 5.013444e+002
      endloop
   endfacet
   facet normal 1.000000e+000 0.000000e+000 0.000000e+000
      outer loop
         vertex 5.109096e+002 9.024045e+002 5.013444e+002
         vertex 5.109096e+002 8.274045e+002 4.763444e+002
         vertex 5.109096e+002 8.774045e+002 4.763444e+002
      endloop
   endfacet
   facet normal 1.000000e+000 0.000000e+000 0.000000e+000
      outer loop
         vertex 5.109096e+002 9.024045e+002 5.013444e+002
         vertex 5.109096e+002 8.774045e+002 4.763444e+002
         vertex 5.109096e+002 9.024045e+002 4.013444e+002
      endloop
   endfacet
   facet normal 1.000000e+000 0.000000e+000 0.000000e+000
      outer loop
         vertex 5.109096e+002 9.024045e+002 4.013444e+002
         vertex 5.109096e+002 8.774045e+002 4.763444e+002
         vertex 5.109096e+002 8.774045e+002 4.263444e+002
      endloop
   endfacet
   facet normal 1.000000e+000 0.000000e+000 0.000000e+000
      outer loop
         vertex 5.109096e+002 9.024045e+002 4.013444e+002
         vertex 5.109096e+002 8.774045e+002 4.263444e+002
         vertex 5.109096e+002 8.024045e+002 4.013444e+002
      endloop
   endfacet
   facet normal 1.000000e+000 0.000000e+000 0.000000e+000
      outer loop
         vertex 5.109096e+002 8.024045e+002 4.013444e+002
         vertex 5.109096e+002 8.774045e+002 4.263444e+002
         vertex 5.109096e+002 8.274045e+002 4.263444e+002
      endloop
   endfacet
   facet normal 1.000000e+000 0.000000e+000 0.000000e+000
      outer loop
         vertex 5.109096e+002 8.024045e+002 4.013444e+002
         vertex 5.109096e+002 8.274045e+002 4.263444e+002
         vertex 5.109096e+002 8.274045e+002 4.763444e+002
      endloop
   endfacet
   facet normal 0.000000e+000 -1.000000e+000 -2.449294e-016
      outer loop
         vertex 4.359096e+002 8.024045e+002 4.763444e+002
         vertex 4.109097e+002 8.024045e+002 5.013444e+002
         vertex 4.359096e+002 8.024045e+002 4.263444e+002
      endloop
   endfacet
   facet normal 0.000000e+000 -1.000000e+000 -2.449294e-016
      outer loop
         vertex 4.359096e+002 8.024045e+002 4.263444e+002
         vertex 4.109097e+002 8.024045e+002 5.013444e+002
         vertex 4.109097e+002 8.024045e+002 4.013444e+002
      endloop
   endfacet
   facet normal 0.000000e+000 -1.000000e+000 -2.449294e-016
      outer loop
         vertex 4.359096e+002 8.024045e+002 4.263444e+002
         vertex 4.109097e+002 8.024045e+002 4.013444e+002
         vertex 4.859096e+002 8.024045e+002 4.263444e+002
      endloop
   endfacet
   facet normal 0.000000e+000 -1.000000e+000 -2.449294e-016
      outer loop
         vertex 4.859096e+002 8.024045e+002 4.263444e+002
         vertex 4.109097e+002 8.024045e+002 4.013444e+002
         vertex 5.109096e+002 8.024045e+002 4.013444e+002
      endloop
   endfacet
   facet normal 0.000000e+000 -1.000000e+000 -2.449294e-016
      outer loop
         vertex 4.859096e+002 8.024045e+002 4.263444e+002
         vertex 5.109096e+002 8.024045e+002 4.013444e+002
         vertex 4.859096e+002 8.024045e+002 4.763444e+002
      endloop
   endfacet
   facet normal 0.000000e+000 -1.000000e+000 -2.449294e-016
      outer loop
         vertex 4.859096e+002 8.024045e+002 4.763444e+002
         vertex 5.109096e+002 8.024045e+002 4.013444e+002
         vertex 5.109096e+002 8.024045e+002 5.013444e+002
      endloop
   endfacet
   facet normal 0.000000e+000 -1.000000e+000 -2.449294e-016
      outer loop
         vertex 4.859096e+002 8.024045e+002 4.763444e+002
         vertex 5.109096e+002 8.024045e+002 5.013444e+002
         vertex 4.359096e+002 8.024045e+002 4.763444e+002
      endloop
   endfacet
   facet normal 0.000000e+000 -1.000000e+000 -2.449294e-016
      outer loop
         vertex 4.359096e+002 8.024045e+002 4.763444e+002
         vertex 5.109096e+002 8.024045e+002 5.013444e+002
         vertex 4.109097e+002 8.024045e+002 5.013444e+002
      endloop
   endfacet
   facet normal -1.000000e+000 0.000000e+000 -0.000000e+000
      outer loop
         vertex 4.109097e+002 8.274045e+002 4.263444e+002
         vertex 4.109097e+002 8.024045e+002 4.013444e+002
         vertex 4.109097e+002 8.274045e+002 4.763444e+002
      endloop
   endfacet
   facet normal -1.000000e+000 0.000000e+000 -0.000000e+000
      outer loop
         vertex 4.109097e+002 8.274045e+002 4.763444e+002
         vertex 4.109097e+002 8.024045e+002 4.013444e+002
         vertex 4.109097e+002 8.024045e+002 5.013444e+002
      endloop
   endfacet
   facet normal -1.000000e+000 0.000000e+000 -0.000000e+000
      outer loop
         vertex 4.109097e+002 8.274045e+002 4.763444e+002
         vertex 4.109097e+002 8.024045e+002 5.013444e+002
         vertex 4.109097e+002 8.774045e+002 4.763444e+002
      endloop
   endfacet
   facet normal -1.000000e+000 0.000000e+000 -0.000000e+000
      outer loop
         vertex 4.109097e+002 8.774045e+002 4.763444e+002
         vertex 4.109097e+002 8.024045e+002 5.013444e+002
         vertex 4.109097e+002 9.024045e+002 5.013444e+002
      endloop
   endfacet
   facet normal -1.000000e+000 0.000000e+000 -0.000000e+000
      outer loop
         vertex 4.109097e+002 8.774045e+002 4.763444e+002
         vertex 4.109097e+002 9.024045e+002 5.013444e+002
         vertex 4.109097e+002 8.774045e+002 4.263444e+002
      endloop
   endfacet
   facet normal -1.000000e+000 0.000000e+000 -0.000000e+000
      outer loop
         vertex 4.109097e+002 8.774045e+002 4.263444e+002
         vertex 4.109097e+002 9.024045e+002 5.013444e+002
         vertex 4.109097e+002 9.024045e+002 4.013444e+002
      endloop
   endfacet
   facet normal -1.000000e+000 0.000000e+000 -0.000000e+000
      outer loop
         vertex 4.109097e+002 8.774045e+002 4.263444e+002
         vertex 4.109097e+002 9.024045e+002 4.013444e+002
         vertex 4.109097e+002 8.274045e+002 4.263444e+002
      endloop
   endfacet
   facet normal -1.000000e+000 0.000000e+000 -0.000000e+000
      outer loop
         vertex 4.109097e+002 8.274045e+002 4.263444e+002
         vertex 4.109097e+002 9.024045e+002 4.013444e+002
         vertex 4.109097e+002 8.024045e+002 4.013444e+002
      endloop
   endfacet
   facet normal 0.000000e+000 1.000000e+000 2.449294e-016
      outer loop
         vertex 4.359096e+002 9.024045e+002 4.263444e+002
         vertex 4.109097e+002 9.024045e+002 4.013444e+002
         vertex 4.359096e+002 9.024045e+002 4.763444e+002
      endloop
   endfacet
   facet normal 0.000000e+000 1.000000e+000 2.449294e-016
      outer loop
         vertex 4.359096e+002 9.024045e+002 4.763444e+002
         vertex 4.109097e+002 9.024045e+002 4.013444e+002
         vertex 4.109097e+002 9.024045e+002 5.013444e+002
      endloop
   endfacet
   facet normal 0.000000e+000 1.000000e+000 2.449294e-016
      outer loop
         vertex 4.359096e+002 9.024045e+002 4.763444e+002
         vertex 4.109097e+002 9.024045e+002 5.013444e+002
         vertex 4.859096e+002 9.024045e+002 4.763444e+002
      endloop
   endfacet
   facet normal 0.000000e+000 1.000000e+000 2.449294e-016
      outer loop
         vertex 4.859096e+002 9.024045e+002 4.763444e+002
         vertex 4.109097e+002 9.024045e+002 5.013444e+002
         vertex 5.109096e+002 9.024045e+002 5.013444e+002
      endloop
   endfacet
   facet normal 0.000000e+000 1.000000e+000 2.449294e-016
      outer loop
         vertex 4.859096e+002 9.024045e+002 4.763444e+002
         vertex 5.109096e+002 9.024045e+002 5.013444e+002
         vertex 4.859096e+002 9.024045e+002 4.263444e+002
      endloop
   endfacet
   facet normal 0.000000e+000 1.000000e+000 2.449294e-016
      outer loop
         vertex 4.859096e+002 9.024045e+002 4.263444e+002
         vertex 5.109096e+002 9.024045e+002 5.013444e+002
         vertex 5.109096e+002 9.024045e+002 4.013444e+002
      endloop
   endfacet
   facet normal 0.000000e+000 1.000000e+000 2.449294e-016
      outer loop
         vertex 4.859096e+002 9.024045e+002 4.263444e+002
         vertex 5.109096e+002 9.024045e+002 4.013444e+002
         vertex 4.359096e+002 9.024045e+002 4.263444e+002
      endloop
   endfacet
   facet normal 0.000000e+000 1.000000e+000 2.449294e-016
      outer loop
         vertex 4.359096e+002 9.024045e+002 4.263444e+002
         vertex 5.109096e+002 9.024045e+002 4.013444e+002
         vertex 4.109097e+002 9.024045e+002 4.013444e+002
      endloop
   endfacet
   facet normal 0.000000e+000 2.449294e-016 -1.000000e+000
      outer loop
         vertex 4.859096e+002 8.274045e+002 4.013444e+002
         vertex 5.109096e+002 8.024045e+002 4.013444e+002
         vertex 4.109097e+002 8.024045e+002 4.013444e+002
      endloop
   endfacet
   facet normal 0.000000e+000 2.449294e-016 -1.000000e+000
      outer loop
         vertex 5.109096e+002 8.024045e+002 4.013444e+002
         vertex 4.859096e+002 8.274045e+002 4.013444e+002
         vertex 5.109096e+002 9.024045e+002 4.013444e+002
      endloop
   endfacet
   facet normal 0.000000e+000 2.449294e-016 -1.000000e+000
      outer loop
         vertex 5.109096e+002 9.024045e+002 4.013444e+002
         vertex 4.859096e+002 8.274045e+002 4.013444e+002
         vertex 4.859096e+002 8.774045e+002 4.013444e+002
      endloop
   endfacet
   facet normal 0.000000e+000 2.449294e-016 -1.000000e+000
      outer loop
         vertex 5.109096e+002 9.024045e+002 4.013444e+002
         vertex 4.859096e+002 8.774045e+002 4.013444e+002
         vertex 4.109097e+002 9.024045e+002 4.013444e+002
      endloop
   endfacet
   facet normal 0.000000e+000 2.449294e-016 -1.000000e+000
      outer loop
         vertex 4.109097e+002 9.024045e+002 4.013444e+002
         vertex 4.859096e+002 8.774045e+002 4.013444e+002
         vertex 4.359096e+002 8.774045e+002 4.013444e+002
      endloop
   endfacet
   facet normal 0.000000e+000 2.449294e-016 -1.000000e+000
      outer loop
         vertex 4.109097e+002 9.024045e+002 4.013444e+002
         vertex 4.359096e+002 8.774045e+002 4.013444e+002
         vertex 4.109097e+002 8.024045e+002 4.013444e+002
      endloop
   endfacet
   facet normal 0.000000e+000 2.449294e-016 -1.000000e+000
      outer loop
         vertex 4.109097e+002 8.024045e+002 4.013444e+002
         vertex 4.359096e+002 8.774045e+002 4.013444e+002
         vertex 4.359096e+002 8.274045e+002 4.013444e+002
      endloop
   endfacet
   facet normal 0.000000e+000 2.449294e-016 -1.000000e+000
      outer loop
         vertex 4.109097e+002 8.024045e+002 4.013444e+002
         vertex 4.359096e+002 8.274045e+002 4.013444e+002
         vertex 4.859096e+002 8.274045e+002 4.013444e+002
      endloop
   endfacet
   facet normal 0.000000e+000 -2.449294e-016 1.000000e+000
      outer loop
         vertex 4.859096e+002 8.774045e+002 5.013444e+002
         vertex 5.109096e+002 9.024045e+002 5.013444e+002
         vertex 4.359096e+002 8.774045e+002 5.013444e+002
      endloop
   endfacet
   facet normal 0.000000e+000 -2.449294e-016 1.000000e+000
      outer loop
         vertex 4.359096e+002 8.774045e+002 5.013444e+002
         vertex 5.109096e+002 9.024045e+002 5.013444e+002
         vertex 4.109097e+002 9.024045e+002 5.013444e+002
      endloop
   endfacet
   facet normal 0.000000e+000 -2.449294e-016 1.000000e+000
      outer loop
         vertex 4.359096e+002 8.774045e+002 5.013444e+002
         vertex 4.109097e+002 9.024045e+002 5.013444e+002
         vertex 4.359096e+002 8.274045e+002 5.013444e+002
      endloop
   endfacet
   facet normal 0.000000e+000 -2.449294e-016 1.000000e+000
      outer loop
         vertex 4.359096e+002 8.274045e+002 5.013444e+002
         vertex 4.109097e+002 9.024045e+002 5.013444e+002
         vertex 4.109097e+002 8.024045e+002 5.013444e+002
      endloop
   endfacet
   facet normal 0.000000e+000 -2.449294e-016 1.000000e+000
      outer loop
         vertex 4.359096e+002 8.274045e+002 5.013444e+002
         vertex 4.109097e+002 8.024045e+002 5.013444e+002
         vertex 4.859096e+002 8.274045e+002 5.013444e+002
      endloop
   endfacet
   facet normal 0.000000e+000 -2.449294e-016 1.000000e+000
      outer loop
         vertex 4.859096e+002 8.274045e+002 5.013444e+002
         vertex 4.109097e+002 8.024045e+002 5.013444e+002
         vertex 5.109096e+002 8.024045e+002 5.013444e+002
      endloop
   endfacet
   facet normal 0.000000e+000 -2.449294e-016 1.000000e+000
      outer loop
         vertex 4.859096e+002 8.274045e+002 5.013444e+002
         vertex 5.109096e+002 8.024045e+002 5.013444e+002
         vertex 4.859096e+002 8.774045e+002 5.013444e+002
      endloop
   endfacet
   facet normal 0.000000e+000 -2.449294e-016 1.000000e+000
      outer loop
         vertex 4.859096e+002 8.774045e+002 5.013444e+002
         vertex 5.109096e+002 8.024045e+002 5.013444e+002
         vertex 5.109096e+002 9.024045e+002 5.013444e+002
      endloop
   endfacet
   facet normal -1.000000e+000 0.000000e+000 -0.000000e+000
      outer loop
         vertex 4.859096e+002 8.774045e+002 4.263444e+002
         vertex 4.859096e+002 8.774045e+002 4.013444e+002
         vertex 4.859096e+002 8.274045e+002 4.263444e+002
      endloop
   endfacet
   facet normal -1.000000e+000 0.000000e+000 -0.000000e+000
      outer loop
         vertex 4.859096e+002 8.274045e+002 4.263444e+002
         vertex 4.859096e+002 8.774045e+002 4.013444e+002
         vertex 4.859096e+002 8.274045e+002 4.013444e+002
      endloop
   endfacet
   facet normal 0.000000e+000 -1.000000e+000 -2.449294e-016
      outer loop
         vertex 4.859096e+002 8.774045e+002 4.763444e+002
         vertex 4.859096e+002 8.774045e+002 5.013444e+002
         vertex 4.359096e+002 8.774045e+002 4.763444e+002
      endloop
   endfacet
   facet normal 0.000000e+000 -1.000000e+000 -2.449294e-016
      outer loop
         vertex 4.359096e+002 8.774045e+002 4.763444e+002
         vertex 4.859096e+002 8.774045e+002 5.013444e+002
         vertex 4.359096e+002 8.774045e+002 5.013444e+002
      endloop
   endfacet
   facet normal 1.000000e+000 0.000000e+000 0.000000e+000
      outer loop
         vertex 4.359096e+002 8.274045e+002 4.263444e+002
         vertex 4.359096e+002 8.274045e+002 4.013444e+002
         vertex 4.359096e+002 8.774045e+002 4.263444e+002
      endloop
   endfacet
   facet normal 1.000000e+000 0.000000e+000 0.000000e+000
      outer loop
         vertex 4.359096e+002 8.774045e+002 4.263444e+002
         vertex 4.359096e+002 8.274045e+002 4.013444e+002
         vertex 4.359096e+002 8.774045e+002 4.013444e+002
      endloop
   endfacet
   facet normal 0.000000e+000 1.000000e+000 2.449294e-016
      outer loop
         vertex 4.359096e+002 8.274045e+002 4.763444e+002
         vertex 4.359096e+002 8.274045e+002 5.013444e+002
         vertex 4.859096e+002 8.274045e+002 4.763444e+002
      endloop
   endfacet
   facet normal 0.000000e+000 1.000000e+000 2.449294e-016
      outer loop
         vertex 4.859096e+002 8.274045e+002 4.763444e+002
         vertex 4.359096e+002 8.274045e+002 5.013444e+002
         vertex 4.859096e+002 8.274045e+002 5.013444e+002
      endloop
   endfacet
   facet normal 0.000000e+000 -1.061515e-016 1.000000e+000
      outer loop
         vertex 4.109097e+002 8.274045e+002 4.263444e+002
         vertex 4.359096e+002 8.274045e+002 4.263444e+002
         vertex 4.109097e+002 8.774045e+002 4.263444e+002
      endloop
   endfacet
   facet normal 0.000000e+000 -1.061515e-016 1.000000e+000
      outer loop
         vertex 4.109097e+002 8.774045e+002 4.263444e+002
         vertex 4.359096e+002 8.274045e+002 4.263444e+002
         vertex 4.359096e+002 8.774045e+002 4.263444e+002
      endloop
   endfacet
   facet normal 0.000000e+000 1.061515e-016 -1.000000e+000
      outer loop
         vertex 4.109097e+002 8.774045e+002 4.763444e+002
         vertex 4.359096e+002 8.774045e+002 4.763444e+002
         vertex 4.109097e+002 8.274045e+002 4.763444e+002
      endloop
   endfacet
   facet normal 0.000000e+000 1.061515e-016 -1.000000e+000
      outer loop
         vertex 4.109097e+002 8.274045e+002 4.763444e+002
         vertex 4.359096e+002 8.774045e+002 4.763444e+002
         vertex 4.359096e+002 8.274045e+002 4.763444e+002
      endloop
   endfacet
   facet normal 0.000000e+000 1.061515e-016 -1.000000e+000
      outer loop
         vertex 5.109096e+002 8.274045e+002 4.763444e+002
         vertex 4.859096e+002 8.274045e+002 4.763444e+002
         vertex 5.109096e+002 8.774045e+002 4.763444e+002
      endloop
   endfacet
   facet normal 0.000000e+000 1.061515e-016 -1.000000e+000
      outer loop
         vertex 5.109096e+002 8.774045e+002 4.763444e+002
         vertex 4.859096e+002 8.274045e+002 4.763444e+002
         vertex 4.859096e+002 8.774045e+002 4.763444e+002
      endloop
   endfacet
   facet normal 0.000000e+000 -1.061515e-016 1.000000e+000
      outer loop
         vertex 5.109096e+002 8.774045e+002 4.263444e+002
         vertex 4.859096e+002 8.774045e+002 4.263444e+002
         vertex 5.109096e+002 8.274045e+002 4.263444e+002
      endloop
   endfacet
   facet normal 0.000000e+000 -1.061515e-016 1.000000e+000
      outer loop
         vertex 5.109096e+002 8.274045e+002 4.263444e+002
         vertex 4.859096e+002 8.774045e+002 4.263444e+002
         vertex 4.859096e+002 8.274045e+002 4.263444e+002
      endloop
   endfacet
   facet normal 0.000000e+000 2.449294e-016 -1.000000e+000
      outer loop
         vertex 4.359096e+002 8.024045e+002 4.763444e+002
         vertex 4.359096e+002 8.274045e+002 4.763444e+002
         vertex 4.859096e+002 8.024045e+002 4.763444e+002
      endloop
   endfacet
   facet normal 0.000000e+000 2.449294e-016 -1.000000e+000
      outer loop
         vertex 4.859096e+002 8.024045e+002 4.763444e+002
         vertex 4.359096e+002 8.274045e+002 4.763444e+002
         vertex 4.859096e+002 8.274045e+002 4.763444e+002
      endloop
   endfacet
   facet normal 1.000000e+000 0.000000e+000 0.000000e+000
      outer loop
         vertex 4.359096e+002 8.024045e+002 4.263444e+002
         vertex 4.359096e+002 8.274045e+002 4.263444e+002
         vertex 4.359096e+002 8.024045e+002 4.763444e+002
      endloop
   endfacet
   facet normal 1.000000e+000 0.000000e+000 0.000000e+000
      outer loop
         vertex 4.359096e+002 8.024045e+002 4.763444e+002
         vertex 4.359096e+002 8.274045e+002 4.263444e+002
         vertex 4.359096e+002 8.274045e+002 4.763444e+002
      endloop
   endfacet
   facet normal 0.000000e+000 -2.449294e-016 1.000000e+000
      outer loop
         vertex 4.859096e+002 8.024045e+002 4.263444e+002
         vertex 4.859096e+002 8.274045e+002 4.263444e+002
         vertex 4.359096e+002 8.024045e+002 4.263444e+002
      endloop
   endfacet
   facet normal 0.000000e+000 -2.449294e-016 1.000000e+000
      outer loop
         vertex 4.359096e+002 8.024045e+002 4.263444e+002
         vertex 4.859096e+002 8.274045e+002 4.263444e+002
         vertex 4.359096e+002 8.274045e+002 4.263444e+002
      endloop
   endfacet
   facet normal -1.000000e+000 0.000000e+000 -0.000000e+000
      outer loop
         vertex 4.859096e+002 8.024045e+002 4.763444e+002
         vertex 4.859096e+002 8.274045e+002 4.763444e+002
         vertex 4.859096e+002 8.024045e+002 4.263444e+002
      endloop
   endfacet
   facet normal -1.000000e+000 0.000000e+000 -0.000000e+000
      outer loop
         vertex 4.859096e+002 8.024045e+002 4.263444e+002
         vertex 4.859096e+002 8.274045e+002 4.763444e+002
         vertex 4.859096e+002 8.274045e+002 4.263444e+002
      endloop
   endfacet
   facet normal 0.000000e+000 -2.449294e-016 1.000000e+000
      outer loop
         vertex 4.359096e+002 9.024045e+002 4.263444e+002
         vertex 4.359096e+002 8.774045e+002 4.263444e+002
         vertex 4.859096e+002 9.024045e+002 4.263444e+002
      endloop
   endfacet
   facet normal 0.000000e+000 -2.449294e-016 1.000000e+000
      outer loop
         vertex 4.859096e+002 9.024045e+002 4.263444e+002
         vertex 4.359096e+002 8.774045e+002 4.263444e+002
         vertex 4.859096e+002 8.774045e+002 4.263444e+002
      endloop
   endfacet
   facet normal 0.000000e+000 2.449294e-016 -1.000000e+000
      outer loop
         vertex 4.859096e+002 9.024045e+002 4.763444e+002
         vertex 4.859096e+002 8.774045e+002 4.763444e+002
         vertex 4.359096e+002 9.024045e+002 4.763444e+002
      endloop
   endfacet
   facet normal 0.000000e+000 2.449294e-016 -1.000000e+000
      outer loop
         vertex 4.359096e+002 9.024045e+002 4.763444e+002
         vertex 4.859096e+002 8.774045e+002 4.763444e+002
         vertex 4.359096e+002 8.774045e+002 4.763444e+002
      endloop
   endfacet
   facet normal 1.000000e+000 0.000000e+000 0.000000e+000
      outer loop
         vertex 4.359096e+002 9.024045e+002 4.763444e+002
         vertex 4.359096e+002 8.774045e+002 4.763444e+002
         vertex 4.359096e+002 9.024045e+002 4.263444e+002
      endloop
   endfacet
   facet normal 1.000000e+000 0.000000e+000 0.000000e+000
      outer loop
         vertex 4.359096e+002 9.024045e+002 4.263444e+002
         vertex 4.359096e+002 8.774045e+002 4.763444e+002
         vertex 4.359096e+002 8.774045e+002 4.263444e+002
      endloop
   endfacet
   facet normal -1.000000e+000 0.000000e+000 -0.000000e+000
      outer loop
         vertex 4.859096e+002 9.024045e+002 4.263444e+002
         vertex 4.859096e+002 8.774045e+002 4.263444e+002
         vertex 4.859096e+002 9.024045e+002 4.763444e+002
      endloop
   endfacet
   facet normal -1.000000e+000 0.000000e+000 -0.000000e+000
      outer loop
         vertex 4.859096e+002 9.024045e+002 4.763444e+002
         vertex 4.859096e+002 8.774045e+002 4.263444e+002
         vertex 4.859096e+002 8.774045e+002 4.763444e+002
      endloop
   endfacet
endsolid