solid FPM - 600-LipLower-1 103-RodYokes-1
   facet normal -9.983120e-001 5.807914e-002 0.000000e+000
      outer loop
         vertex 2.368168e+002 8.020569e+002 5.940425e+002
         vertex 2.367445e+002 8.012300e+002 1.114425e+002
         vertex 2.367445e+002 8.012300e+002 5.940425e+002
      endloop
   endfacet
   facet normal -9.983120e-001 -5.807914e-002 0.000000e+000
      outer loop
         vertex 2.367445e+002 8.012300e+002 5.940425e+002
         vertex 2.367445e+002 8.012300e+002 1.114425e+002
         vertex 2.368168e+002 8.004030e+002 1.114425e+002
      endloop
   endfacet
   facet normal -9.932307e-001 -1.161583e-001 0.000000e+000
      outer loop
         vertex 2.367445e+002 8.012300e+002 5.940425e+002
         vertex 2.368168e+002 8.004030e+002 1.114425e+002
         vertex 2.368168e+002 8.004030e+002 5.940425e+002
      endloop
   endfacet
   facet normal -9.730600e-001 -2.305519e-001 0.000000e+000
      outer loop
         vertex 2.368168e+002 8.004030e+002 5.940425e+002
         vertex 2.368168e+002 8.004030e+002 1.114425e+002
         vertex 2.370317e+002 7.996011e+002 1.114425e+002
      endloop
   endfacet
   facet normal -9.579706e-001 -2.868663e-001 0.000000e+000
      outer loop
         vertex 2.368168e+002 8.004030e+002 5.940425e+002
         vertex 2.370317e+002 7.996011e+002 1.114425e+002
         vertex 2.370317e+002 7.996011e+002 5.940425e+002
      endloop
   endfacet
   facet normal -9.182422e-001 -3.960194e-001 0.000000e+000
      outer loop
         vertex 2.370317e+002 7.996011e+002 5.940425e+002
         vertex 2.370317e+002 7.996011e+002 1.114425e+002
         vertex 2.373826e+002 7.988488e+002 1.114425e+002
      endloop
   endfacet
   facet normal -8.936031e-001 -4.488580e-001 0.000000e+000
      outer loop
         vertex 2.370317e+002 7.996011e+002 5.940425e+002
         vertex 2.373826e+002 7.988488e+002 1.114425e+002
         vertex 2.373826e+002 7.988488e+002 5.940425e+002
      endloop
   endfacet
   facet normal -8.355240e-001 -5.494540e-001 0.000000e+000
      outer loop
         vertex 2.373826e+002 7.988488e+002 5.940425e+002
         vertex 2.373826e+002 7.988488e+002 1.114425e+002
         vertex 2.378587e+002 7.981687e+002 1.114425e+002
      endloop
   endfacet
   facet normal -8.020839e-001 -5.972114e-001 0.000000e+000
      outer loop
         vertex 2.373826e+002 7.988488e+002 5.940425e+002
         vertex 2.378587e+002 7.981687e+002 1.114425e+002
         vertex 2.378587e+002 7.981687e+002 5.940425e+002
      endloop
   endfacet
   facet normal -7.274188e-001 -6.861938e-001 0.000000e+000
      outer loop
         vertex 2.378587e+002 7.981687e+002 5.940425e+002
         vertex 2.378587e+002 7.981687e+002 1.114425e+002
         vertex 2.384457e+002 7.975817e+002 1.114425e+002
      endloop
   endfacet
   facet normal -6.861938e-001 -7.274188e-001 0.000000e+000
      outer loop
         vertex 2.378587e+002 7.981687e+002 5.940425e+002
         vertex 2.384457e+002 7.975817e+002 1.114425e+002
         vertex 2.384457e+002 7.975817e+002 5.940425e+002
      endloop
   endfacet
   facet normal -5.972114e-001 -8.020839e-001 0.000000e+000
      outer loop
         vertex 2.384457e+002 7.975817e+002 5.940425e+002
         vertex 2.384457e+002 7.975817e+002 1.114425e+002
         vertex 2.391257e+002 7.971055e+002 1.114425e+002
      endloop
   endfacet
   facet normal -5.494540e-001 -8.355240e-001 0.000000e+000
      outer loop
         vertex 2.384457e+002 7.975817e+002 5.940425e+002
         vertex 2.391257e+002 7.971055e+002 1.114425e+002
         vertex 2.391257e+002 7.971055e+002 5.940425e+002
      endloop
   endfacet
   facet normal -4.488580e-001 -8.936031e-001 0.000000e+000
      outer loop
         vertex 2.391257e+002 7.971055e+002 5.940425e+002
         vertex 2.391257e+002 7.971055e+002 1.114425e+002
         vertex 2.398781e+002 7.967547e+002 1.114425e+002
      endloop
   endfacet
   facet normal -3.960194e-001 -9.182422e-001 0.000000e+000
      outer loop
         vertex 2.391257e+002 7.971055e+002 5.940425e+002
         vertex 2.398781e+002 7.967547e+002 1.114425e+002
         vertex 2.398781e+002 7.967547e+002 5.940425e+002
      endloop
   endfacet
   facet normal -2.868663e-001 -9.579706e-001 0.000000e+000
      outer loop
         vertex 2.398781e+002 7.967547e+002 5.940425e+002
         vertex 2.398781e+002 7.967547e+002 1.114425e+002
         vertex 2.406800e+002 7.965399e+002 1.114425e+002
      endloop
   endfacet
   facet normal -2.305519e-001 -9.730600e-001 0.000000e+000
      outer loop
         vertex 2.398781e+002 7.967547e+002 5.940425e+002
         vertex 2.406800e+002 7.965399e+002 1.114425e+002
         vertex 2.406800e+002 7.965399e+002 5.940425e+002
      endloop
   endfacet
   facet normal -1.161583e-001 -9.932307e-001 0.000000e+000
      outer loop
         vertex 2.406800e+002 7.965399e+002 5.940425e+002
         vertex 2.406800e+002 7.965399e+002 1.114425e+002
         vertex 2.415070e+002 7.964675e+002 1.114425e+002
      endloop
   endfacet
   facet normal -5.807914e-002 -9.983120e-001 0.000000e+000
      outer loop
         vertex 2.406800e+002 7.965399e+002 5.940425e+002
         vertex 2.415070e+002 7.964675e+002 1.114425e+002
         vertex 2.415070e+002 7.964675e+002 5.940425e+002
      endloop
   endfacet
   facet normal 5.807914e-002 -9.983120e-001 0.000000e+000
      outer loop
         vertex 2.415070e+002 7.964675e+002 5.940425e+002
         vertex 2.415070e+002 7.964675e+002 1.114425e+002
         vertex 2.423340e+002 7.965399e+002 1.114425e+002
      endloop
   endfacet
   facet normal 1.161583e-001 -9.932307e-001 0.000000e+000
      outer loop
         vertex 2.415070e+002 7.964675e+002 5.940425e+002
         vertex 2.423340e+002 7.965399e+002 1.114425e+002
         vertex 2.423340e+002 7.965399e+002 5.940425e+002
      endloop
   endfacet
   facet normal 2.305519e-001 -9.730600e-001 0.000000e+000
      outer loop
         vertex 2.423340e+002 7.965399e+002 5.940425e+002
         vertex 2.423340e+002 7.965399e+002 1.114425e+002
         vertex 2.431358e+002 7.967547e+002 1.114425e+002
      endloop
   endfacet
   facet normal 2.868663e-001 -9.579706e-001 0.000000e+000
      outer loop
         vertex 2.423340e+002 7.965399e+002 5.940425e+002
         vertex 2.431358e+002 7.967547e+002 1.114425e+002
         vertex 2.431358e+002 7.967547e+002 5.940425e+002
      endloop
   endfacet
   facet normal 3.960194e-001 -9.182422e-001 0.000000e+000
      outer loop
         vertex 2.431358e+002 7.967547e+002 5.940425e+002
         vertex 2.431358e+002 7.967547e+002 1.114425e+002
         vertex 2.438882e+002 7.971055e+002 1.114425e+002
      endloop
   endfacet
   facet normal 4.488580e-001 -8.936031e-001 0.000000e+000
      outer loop
         vertex 2.431358e+002 7.967547e+002 5.940425e+002
         vertex 2.438882e+002 7.971055e+002 1.114425e+002
         vertex 2.438882e+002 7.971055e+002 5.940425e+002
      endloop
   endfacet
   facet normal 5.494540e-001 -8.355240e-001 0.000000e+000
      outer loop
         vertex 2.438882e+002 7.971055e+002 5.940425e+002
         vertex 2.438882e+002 7.971055e+002 1.114425e+002
         vertex 2.445683e+002 7.975817e+002 1.114425e+002
      endloop
   endfacet
   facet normal 5.972114e-001 -8.020839e-001 0.000000e+000
      outer loop
         vertex 2.438882e+002 7.971055e+002 5.940425e+002
         vertex 2.445683e+002 7.975817e+002 1.114425e+002
         vertex 2.445683e+002 7.975817e+002 5.940425e+002
      endloop
   endfacet
   facet normal 6.861938e-001 -7.274188e-001 0.000000e+000
      outer loop
         vertex 2.445683e+002 7.975817e+002 5.940425e+002
         vertex 2.445683e+002 7.975817e+002 1.114425e+002
         vertex 2.451553e+002 7.981687e+002 1.114425e+002
      endloop
   endfacet
   facet normal 7.274188e-001 -6.861938e-001 0.000000e+000
      outer loop
         vertex 2.445683e+002 7.975817e+002 5.940425e+002
         vertex 2.451553e+002 7.981687e+002 1.114425e+002
         vertex 2.451553e+002 7.981687e+002 5.940425e+002
      endloop
   endfacet
   facet normal 8.020839e-001 -5.972114e-001 0.000000e+000
      outer loop
         vertex 2.451553e+002 7.981687e+002 5.940425e+002
         vertex 2.451553e+002 7.981687e+002 1.114425e+002
         vertex 2.456314e+002 7.988488e+002 1.114425e+002
      endloop
   endfacet
   facet normal 8.355240e-001 -5.494540e-001 0.000000e+000
      outer loop
         vertex 2.451553e+002 7.981687e+002 5.940425e+002
         vertex 2.456314e+002 7.988488e+002 1.114425e+002
         vertex 2.456314e+002 7.988488e+002 5.940425e+002
      endloop
   endfacet
   facet normal 8.936031e-001 -4.488580e-001 0.000000e+000
      outer loop
         vertex 2.456314e+002 7.988488e+002 5.940425e+002
         vertex 2.456314e+002 7.988488e+002 1.114425e+002
         vertex 2.459823e+002 7.996011e+002 1.114425e+002
      endloop
   endfacet
   facet normal 9.182422e-001 -3.960194e-001 0.000000e+000
      outer loop
         vertex 2.456314e+002 7.988488e+002 5.940425e+002
         vertex 2.459823e+002 7.996011e+002 1.114425e+002
         vertex 2.459823e+002 7.996011e+002 5.940425e+002
      endloop
   endfacet
   facet normal 9.579706e-001 -2.868663e-001 0.000000e+000
      outer loop
         vertex 2.459823e+002 7.996011e+002 5.940425e+002
         vertex 2.459823e+002 7.996011e+002 1.114425e+002
         vertex 2.461971e+002 8.004030e+002 1.114425e+002
      endloop
   endfacet
   facet normal 9.730600e-001 -2.305519e-001 0.000000e+000
      outer loop
         vertex 2.459823e+002 7.996011e+002 5.940425e+002
         vertex 2.461971e+002 8.004030e+002 1.114425e+002
         vertex 2.461971e+002 8.004030e+002 5.940425e+002
      endloop
   endfacet
   facet normal 9.932307e-001 -1.161583e-001 0.000000e+000
      outer loop
         vertex 2.461971e+002 8.004030e+002 5.940425e+002
         vertex 2.461971e+002 8.004030e+002 1.114425e+002
         vertex 2.462695e+002 8.012300e+002 1.114425e+002
      endloop
   endfacet
   facet normal 9.983120e-001 -5.807914e-002 0.000000e+000
      outer loop
         vertex 2.461971e+002 8.004030e+002 5.940425e+002
         vertex 2.462695e+002 8.012300e+002 1.114425e+002
         vertex 2.462695e+002 8.012300e+002 5.940425e+002
      endloop
   endfacet
   facet normal 9.983120e-001 5.807914e-002 0.000000e+000
      outer loop
         vertex 2.462695e+002 8.012300e+002 5.940425e+002
         vertex 2.462695e+002 8.012300e+002 1.114425e+002
         vertex 2.461971e+002 8.020569e+002 1.114425e+002
      endloop
   endfacet
   facet normal 9.932307e-001 1.161583e-001 0.000000e+000
      outer loop
         vertex 2.462695e+002 8.012300e+002 5.940425e+002
         vertex 2.461971e+002 8.020569e+002 1.114425e+002
         vertex 2.461971e+002 8.020569e+002 5.940425e+002
      endloop
   endfacet
   facet normal 9.730600e-001 2.305519e-001 0.000000e+000
      outer loop
         vertex 2.461971e+002 8.020569e+002 5.940425e+002
         vertex 2.461971e+002 8.020569e+002 1.114425e+002
         vertex 2.459823e+002 8.028589e+002 1.114425e+002
      endloop
   endfacet
   facet normal 9.579706e-001 2.868663e-001 0.000000e+000
      outer loop
         vertex 2.461971e+002 8.020569e+002 5.940425e+002
         vertex 2.459823e+002 8.028589e+002 1.114425e+002
         vertex 2.459823e+002 8.028589e+002 5.940425e+002
      endloop
   endfacet
   facet normal 9.182422e-001 3.960194e-001 0.000000e+000
      outer loop
         vertex 2.459823e+002 8.028589e+002 5.940425e+002
         vertex 2.459823e+002 8.028589e+002 1.114425e+002
         vertex 2.456314e+002 8.036112e+002 1.114425e+002
      endloop
   endfacet
   facet normal 8.936031e-001 4.488580e-001 0.000000e+000
      outer loop
         vertex 2.459823e+002 8.028589e+002 5.940425e+002
         vertex 2.456314e+002 8.036112e+002 1.114425e+002
         vertex 2.456314e+002 8.036112e+002 5.940425e+002
      endloop
   endfacet
   facet normal 8.355240e-001 5.494540e-001 0.000000e+000
      outer loop
         vertex 2.456314e+002 8.036112e+002 5.940425e+002
         vertex 2.456314e+002 8.036112e+002 1.114425e+002
         vertex 2.451553e+002 8.042913e+002 1.114425e+002
      endloop
   endfacet
   facet normal 8.020839e-001 5.972114e-001 0.000000e+000
      outer loop
         vertex 2.456314e+002 8.036112e+002 5.940425e+002
         vertex 2.451553e+002 8.042913e+002 1.114425e+002
         vertex 2.451553e+002 8.042913e+002 5.940425e+002
      endloop
   endfacet
   facet normal 7.274188e-001 6.861938e-001 0.000000e+000
      outer loop
         vertex 2.451553e+002 8.042913e+002 5.940425e+002
         vertex 2.451553e+002 8.042913e+002 1.114425e+002
         vertex 2.445683e+002 8.048783e+002 1.114425e+002
      endloop
   endfacet
   facet normal 6.861938e-001 7.274188e-001 0.000000e+000
      outer loop
         vertex 2.451553e+002 8.042913e+002 5.940425e+002
         vertex 2.445683e+002 8.048783e+002 1.114425e+002
         vertex 2.445683e+002 8.048783e+002 5.940425e+002
      endloop
   endfacet
   facet normal 5.972114e-001 8.020839e-001 0.000000e+000
      outer loop
         vertex 2.445683e+002 8.048783e+002 5.940425e+002
         vertex 2.445683e+002 8.048783e+002 1.114425e+002
         vertex 2.438882e+002 8.053544e+002 1.114425e+002
      endloop
   endfacet
   facet normal 5.494540e-001 8.355240e-001 0.000000e+000
      outer loop
         vertex 2.445683e+002 8.048783e+002 5.940425e+002
         vertex 2.438882e+002 8.053544e+002 1.114425e+002
         vertex 2.438882e+002 8.053544e+002 5.940425e+002
      endloop
   endfacet
   facet normal 4.488580e-001 8.936031e-001 0.000000e+000
      outer loop
         vertex 2.438882e+002 8.053544e+002 5.940425e+002
         vertex 2.438882e+002 8.053544e+002 1.114425e+002
         vertex 2.431358e+002 8.057053e+002 1.114425e+002
      endloop
   endfacet
   facet normal 3.960194e-001 9.182422e-001 0.000000e+000
      outer loop
         vertex 2.438882e+002 8.053544e+002 5.940425e+002
         vertex 2.431358e+002 8.057053e+002 1.114425e+002
         vertex 2.431358e+002 8.057053e+002 5.940425e+002
      endloop
   endfacet
   facet normal 2.868663e-001 9.579706e-001 0.000000e+000
      outer loop
         vertex 2.431358e+002 8.057053e+002 5.940425e+002
         vertex 2.431358e+002 8.057053e+002 1.114425e+002
         vertex 2.423340e+002 8.059201e+002 1.114425e+002
      endloop
   endfacet
   facet normal 2.305519e-001 9.730600e-001 0.000000e+000
      outer loop
         vertex 2.431358e+002 8.057053e+002 5.940425e+002
         vertex 2.423340e+002 8.059201e+002 1.114425e+002
         vertex 2.423340e+002 8.059201e+002 5.940425e+002
      endloop
   endfacet
   facet normal 1.161583e-001 9.932307e-001 0.000000e+000
      outer loop
         vertex 2.423340e+002 8.059201e+002 5.940425e+002
         vertex 2.423340e+002 8.059201e+002 1.114425e+002
         vertex 2.415070e+002 8.059925e+002 1.114425e+002
      endloop
   endfacet
   facet normal 5.807914e-002 9.983120e-001 0.000000e+000
      outer loop
         vertex 2.423340e+002 8.059201e+002 5.940425e+002
         vertex 2.415070e+002 8.059925e+002 1.114425e+002
         vertex 2.415070e+002 8.059925e+002 5.940425e+002
      endloop
   endfacet
   facet normal -5.807914e-002 9.983120e-001 0.000000e+000
      outer loop
         vertex 2.415070e+002 8.059925e+002 5.940425e+002
         vertex 2.415070e+002 8.059925e+002 1.114425e+002
         vertex 2.406800e+002 8.059201e+002 1.114425e+002
      endloop
   endfacet
   facet normal -1.161583e-001 9.932307e-001 0.000000e+000
      outer loop
         vertex 2.415070e+002 8.059925e+002 5.940425e+002
         vertex 2.406800e+002 8.059201e+002 1.114425e+002
         vertex 2.406800e+002 8.059201e+002 5.940425e+002
      endloop
   endfacet
   facet normal -2.305519e-001 9.730600e-001 0.000000e+000
      outer loop
         vertex 2.406800e+002 8.059201e+002 5.940425e+002
         vertex 2.406800e+002 8.059201e+002 1.114425e+002
         vertex 2.398781e+002 8.057053e+002 1.114425e+002
      endloop
   endfacet
   facet normal -2.868663e-001 9.579706e-001 0.000000e+000
      outer loop
         vertex 2.406800e+002 8.059201e+002 5.940425e+002
         vertex 2.398781e+002 8.057053e+002 1.114425e+002
         vertex 2.398781e+002 8.057053e+002 5.940425e+002
      endloop
   endfacet
   facet normal -3.960194e-001 9.182422e-001 0.000000e+000
      outer loop
         vertex 2.398781e+002 8.057053e+002 5.940425e+002
         vertex 2.398781e+002 8.057053e+002 1.114425e+002
         vertex 2.391257e+002 8.053544e+002 1.114425e+002
      endloop
   endfacet
   facet normal -4.488580e-001 8.936031e-001 0.000000e+000
      outer loop
         vertex 2.398781e+002 8.057053e+002 5.940425e+002
         vertex 2.391257e+002 8.053544e+002 1.114425e+002
         vertex 2.391257e+002 8.053544e+002 5.940425e+002
      endloop
   endfacet
   facet normal -5.494540e-001 8.355240e-001 0.000000e+000
      outer loop
         vertex 2.391257e+002 8.053544e+002 5.940425e+002
         vertex 2.391257e+002 8.053544e+002 1.114425e+002
         vertex 2.384457e+002 8.048783e+002 1.114425e+002
      endloop
   endfacet
   facet normal -5.972114e-001 8.020839e-001 0.000000e+000
      outer loop
         vertex 2.391257e+002 8.053544e+002 5.940425e+002
         vertex 2.384457e+002 8.048783e+002 1.114425e+002
         vertex 2.384457e+002 8.048783e+002 5.940425e+002
      endloop
   endfacet
   facet normal -6.861938e-001 7.274188e-001 0.000000e+000
      outer loop
         vertex 2.384457e+002 8.048783e+002 5.940425e+002
         vertex 2.384457e+002 8.048783e+002 1.114425e+002
         vertex 2.378587e+002 8.042913e+002 1.114425e+002
      endloop
   endfacet
   facet normal -7.274188e-001 6.861938e-001 0.000000e+000
      outer loop
         vertex 2.384457e+002 8.048783e+002 5.940425e+002
         vertex 2.378587e+002 8.042913e+002 1.114425e+002
         vertex 2.378587e+002 8.042913e+002 5.940425e+002
      endloop
   endfacet
   facet normal -8.020839e-001 5.972114e-001 0.000000e+000
      outer loop
         vertex 2.378587e+002 8.042913e+002 5.940425e+002
         vertex 2.378587e+002 8.042913e+002 1.114425e+002
         vertex 2.373826e+002 8.036112e+002 1.114425e+002
      endloop
   endfacet
   facet normal -8.355240e-001 5.494540e-001 0.000000e+000
      outer loop
         vertex 2.378587e+002 8.042913e+002 5.940425e+002
         vertex 2.373826e+002 8.036112e+002 1.114425e+002
         vertex 2.373826e+002 8.036112e+002 5.940425e+002
      endloop
   endfacet
   facet normal -8.936031e-001 4.488580e-001 0.000000e+000
      outer loop
         vertex 2.373826e+002 8.036112e+002 5.940425e+002
         vertex 2.373826e+002 8.036112e+002 1.114425e+002
         vertex 2.370317e+002 8.028589e+002 1.114425e+002
      endloop
   endfacet
   facet normal -9.182422e-001 3.960194e-001 0.000000e+000
      outer loop
         vertex 2.373826e+002 8.036112e+002 5.940425e+002
         vertex 2.370317e+002 8.028589e+002 1.114425e+002
         vertex 2.370317e+002 8.028589e+002 5.940425e+002
      endloop
   endfacet
   facet normal -9.579706e-001 2.868663e-001 0.000000e+000
      outer loop
         vertex 2.370317e+002 8.028589e+002 5.940425e+002
         vertex 2.370317e+002 8.028589e+002 1.114425e+002
         vertex 2.368168e+002 8.020569e+002 1.114425e+002
      endloop
   endfacet
   facet normal -9.730600e-001 2.305519e-001 0.000000e+000
      outer loop
         vertex 2.370317e+002 8.028589e+002 5.940425e+002
         vertex 2.368168e+002 8.020569e+002 1.114425e+002
         vertex 2.368168e+002 8.020569e+002 5.940425e+002
      endloop
   endfacet
   facet normal -9.932307e-001 1.161583e-001 0.000000e+000
      outer loop
         vertex 2.368168e+002 8.020569e+002 5.940425e+002
         vertex 2.368168e+002 8.020569e+002 1.114425e+002
         vertex 2.367445e+002 8.012300e+002 1.114425e+002
      endloop
   endfacet
   facet normal 0.000000e+000 0.000000e+000 1.000000e+000
      outer loop
         vertex 2.370317e+002 7.996011e+002 5.940425e+002
         vertex 2.451553e+002 8.042913e+002 5.940425e+002
         vertex 2.368168e+002 8.004030e+002 5.940425e+002
      endloop
   endfacet
   facet normal 0.000000e+000 0.000000e+000 1.000000e+000
      outer loop
         vertex 2.368168e+002 8.004030e+002 5.940425e+002
         vertex 2.451553e+002 8.042913e+002 5.940425e+002
         vertex 2.367445e+002 8.012300e+002 5.940425e+002
      endloop
   endfacet
   facet normal 0.000000e+000 0.000000e+000 1.000000e+000
      outer loop
         vertex 2.459823e+002 8.028589e+002 5.940425e+002
         vertex 2.378587e+002 7.981687e+002 5.940425e+002
         vertex 2.461971e+002 8.020569e+002 5.940425e+002
      endloop
   endfacet
   facet normal 0.000000e+000 0.000000e+000 1.000000e+000
      outer loop
         vertex 2.461971e+002 8.020569e+002 5.940425e+002
         vertex 2.378587e+002 7.981687e+002 5.940425e+002
         vertex 2.462695e+002 8.012300e+002 5.940425e+002
      endloop
   endfacet
   facet normal 0.000000e+000 0.000000e+000 1.000000e+000
      outer loop
         vertex 2.370317e+002 7.996011e+002 5.940425e+002
         vertex 2.373826e+002 7.988488e+002 5.940425e+002
         vertex 2.451553e+002 8.042913e+002 5.940425e+002
      endloop
   endfacet
   facet normal 0.000000e+000 0.000000e+000 1.000000e+000
      outer loop
         vertex 2.451553e+002 8.042913e+002 5.940425e+002
         vertex 2.373826e+002 7.988488e+002 5.940425e+002
         vertex 2.378587e+002 7.981687e+002 5.940425e+002
      endloop
   endfacet
   facet normal 0.000000e+000 0.000000e+000 1.000000e+000
      outer loop
         vertex 2.451553e+002 8.042913e+002 5.940425e+002
         vertex 2.378587e+002 7.981687e+002 5.940425e+002
         vertex 2.456314e+002 8.036112e+002 5.940425e+002
      endloop
   endfacet
   facet normal 0.000000e+000 0.000000e+000 1.000000e+000
      outer loop
         vertex 2.456314e+002 8.036112e+002 5.940425e+002
         vertex 2.378587e+002 7.981687e+002 5.940425e+002
         vertex 2.459823e+002 8.028589e+002 5.940425e+002
      endloop
   endfacet
   facet normal 0.000000e+000 0.000000e+000 1.000000e+000
      outer loop
         vertex 2.378587e+002 7.981687e+002 5.940425e+002
         vertex 2.384457e+002 7.975817e+002 5.940425e+002
         vertex 2.462695e+002 8.012300e+002 5.940425e+002
      endloop
   endfacet
   facet normal 0.000000e+000 0.000000e+000 1.000000e+000
      outer loop
         vertex 2.462695e+002 8.012300e+002 5.940425e+002
         vertex 2.384457e+002 7.975817e+002 5.940425e+002
         vertex 2.391257e+002 7.971055e+002 5.940425e+002
      endloop
   endfacet
   facet normal 0.000000e+000 0.000000e+000 1.000000e+000
      outer loop
         vertex 2.462695e+002 8.012300e+002 5.940425e+002
         vertex 2.391257e+002 7.971055e+002 5.940425e+002
         vertex 2.398781e+002 7.967547e+002 5.940425e+002
      endloop
   endfacet
   facet normal 0.000000e+000 0.000000e+000 1.000000e+000
      outer loop
         vertex 2.459823e+002 7.996011e+002 5.940425e+002
         vertex 2.461971e+002 8.004030e+002 5.940425e+002
         vertex 2.415070e+002 7.964675e+002 5.940425e+002
      endloop
   endfacet
   facet normal 0.000000e+000 0.000000e+000 1.000000e+000
      outer loop
         vertex 2.415070e+002 7.964675e+002 5.940425e+002
         vertex 2.461971e+002 8.004030e+002 5.940425e+002
         vertex 2.462695e+002 8.012300e+002 5.940425e+002
      endloop
   endfacet
   facet normal 0.000000e+000 0.000000e+000 1.000000e+000
      outer loop
         vertex 2.415070e+002 7.964675e+002 5.940425e+002
         vertex 2.462695e+002 8.012300e+002 5.940425e+002
         vertex 2.406800e+002 7.965399e+002 5.940425e+002
      endloop
   endfacet
   facet normal 0.000000e+000 0.000000e+000 1.000000e+000
      outer loop
         vertex 2.406800e+002 7.965399e+002 5.940425e+002
         vertex 2.462695e+002 8.012300e+002 5.940425e+002
         vertex 2.398781e+002 7.967547e+002 5.940425e+002
      endloop
   endfacet
   facet normal 0.000000e+000 0.000000e+000 1.000000e+000
      outer loop
         vertex 2.451553e+002 8.042913e+002 5.940425e+002
         vertex 2.445683e+002 8.048783e+002 5.940425e+002
         vertex 2.367445e+002 8.012300e+002 5.940425e+002
      endloop
   endfacet
   facet normal 0.000000e+000 0.000000e+000 1.000000e+000
      outer loop
         vertex 2.367445e+002 8.012300e+002 5.940425e+002
         vertex 2.445683e+002 8.048783e+002 5.940425e+002
         vertex 2.438882e+002 8.053544e+002 5.940425e+002
      endloop
   endfacet
   facet normal 0.000000e+000 0.000000e+000 1.000000e+000
      outer loop
         vertex 2.367445e+002 8.012300e+002 5.940425e+002
         vertex 2.438882e+002 8.053544e+002 5.940425e+002
         vertex 2.431358e+002 8.057053e+002 5.940425e+002
      endloop
   endfacet
   facet normal 0.000000e+000 0.000000e+000 1.000000e+000
      outer loop
         vertex 2.423340e+002 7.965399e+002 5.940425e+002
         vertex 2.431358e+002 7.967547e+002 5.940425e+002
         vertex 2.415070e+002 7.964675e+002 5.940425e+002
      endloop
   endfacet
   facet normal 0.000000e+000 0.000000e+000 1.000000e+000
      outer loop
         vertex 2.415070e+002 7.964675e+002 5.940425e+002
         vertex 2.431358e+002 7.967547e+002 5.940425e+002
         vertex 2.438882e+002 7.971055e+002 5.940425e+002
      endloop
   endfacet
   facet normal 0.000000e+000 0.000000e+000 1.000000e+000
      outer loop
         vertex 2.415070e+002 7.964675e+002 5.940425e+002
         vertex 2.438882e+002 7.971055e+002 5.940425e+002
         vertex 2.445683e+002 7.975817e+002 5.940425e+002
      endloop
   endfacet
   facet normal 0.000000e+000 0.000000e+000 1.000000e+000
      outer loop
         vertex 2.445683e+002 7.975817e+002 5.940425e+002
         vertex 2.451553e+002 7.981687e+002 5.940425e+002
         vertex 2.415070e+002 7.964675e+002 5.940425e+002
      endloop
   endfacet
   facet normal 0.000000e+000 0.000000e+000 1.000000e+000
      outer loop
         vertex 2.415070e+002 7.964675e+002 5.940425e+002
         vertex 2.451553e+002 7.981687e+002 5.940425e+002
         vertex 2.456314e+002 7.988488e+002 5.940425e+002
      endloop
   endfacet
   facet normal 0.000000e+000 0.000000e+000 1.000000e+000
      outer loop
         vertex 2.415070e+002 7.964675e+002 5.940425e+002
         vertex 2.456314e+002 7.988488e+002 5.940425e+002
         vertex 2.459823e+002 7.996011e+002 5.940425e+002
      endloop
   endfacet
   facet normal 0.000000e+000 0.000000e+000 1.000000e+000
      outer loop
         vertex 2.370317e+002 8.028589e+002 5.940425e+002
         vertex 2.368168e+002 8.020569e+002 5.940425e+002
         vertex 2.415070e+002 8.059925e+002 5.940425e+002
      endloop
   endfacet
   facet normal 0.000000e+000 0.000000e+000 1.000000e+000
      outer loop
         vertex 2.415070e+002 8.059925e+002 5.940425e+002
         vertex 2.368168e+002 8.020569e+002 5.940425e+002
         vertex 2.367445e+002 8.012300e+002 5.940425e+002
      endloop
   endfacet
   facet normal 0.000000e+000 0.000000e+000 1.000000e+000
      outer loop
         vertex 2.415070e+002 8.059925e+002 5.940425e+002
         vertex 2.367445e+002 8.012300e+002 5.940425e+002
         vertex 2.423340e+002 8.059201e+002 5.940425e+002
      endloop
   endfacet
   facet normal 0.000000e+000 0.000000e+000 1.000000e+000
      outer loop
         vertex 2.423340e+002 8.059201e+002 5.940425e+002
         vertex 2.367445e+002 8.012300e+002 5.940425e+002
         vertex 2.431358e+002 8.057053e+002 5.940425e+002
      endloop
   endfacet
   facet normal 0.000000e+000 0.000000e+000 1.000000e+000
      outer loop
         vertex 2.406800e+002 8.059201e+002 5.940425e+002
         vertex 2.398781e+002 8.057053e+002 5.940425e+002
         vertex 2.415070e+002 8.059925e+002 5.940425e+002
      endloop
   endfacet
   facet normal 0.000000e+000 0.000000e+000 1.000000e+000
      outer loop
         vertex 2.415070e+002 8.059925e+002 5.940425e+002
         vertex 2.398781e+002 8.057053e+002 5.940425e+002
         vertex 2.391257e+002 8.053544e+002 5.940425e+002
      endloop
   endfacet
   facet normal 0.000000e+000 0.000000e+000 1.000000e+000
      outer loop
         vertex 2.415070e+002 8.059925e+002 5.940425e+002
         vertex 2.391257e+002 8.053544e+002 5.940425e+002
         vertex 2.384457e+002 8.048783e+002 5.940425e+002
      endloop
   endfacet
   facet normal 0.000000e+000 0.000000e+000 1.000000e+000
      outer loop
         vertex 2.384457e+002 8.048783e+002 5.940425e+002
         vertex 2.378587e+002 8.042913e+002 5.940425e+002
         vertex 2.415070e+002 8.059925e+002 5.940425e+002
      endloop
   endfacet
   facet normal 0.000000e+000 0.000000e+000 1.000000e+000
      outer loop
         vertex 2.415070e+002 8.059925e+002 5.940425e+002
         vertex 2.378587e+002 8.042913e+002 5.940425e+002
         vertex 2.373826e+002 8.036112e+002 5.940425e+002
      endloop
   endfacet
   facet normal 0.000000e+000 0.000000e+000 1.000000e+000
      outer loop
         vertex 2.415070e+002 8.059925e+002 5.940425e+002
         vertex 2.373826e+002 8.036112e+002 5.940425e+002
         vertex 2.370317e+002 8.028589e+002 5.940425e+002
      endloop
   endfacet
   facet normal 0.000000e+000 0.000000e+000 -1.000000e+000
      outer loop
         vertex 2.373826e+002 7.988488e+002 1.114425e+002
         vertex 2.451553e+002 8.042913e+002 1.114425e+002
         vertex 2.378587e+002 7.981687e+002 1.114425e+002
      endloop
   endfacet
   facet normal 0.000000e+000 0.000000e+000 -1.000000e+000
      outer loop
         vertex 2.378587e+002 7.981687e+002 1.114425e+002
         vertex 2.451553e+002 8.042913e+002 1.114425e+002
         vertex 2.456314e+002 8.036112e+002 1.114425e+002
      endloop
   endfacet
   facet normal 0.000000e+000 0.000000e+000 -1.000000e+000
      outer loop
         vertex 2.378587e+002 7.981687e+002 1.114425e+002
         vertex 2.456314e+002 8.036112e+002 1.114425e+002
         vertex 2.459823e+002 8.028589e+002 1.114425e+002
      endloop
   endfacet
   facet normal 0.000000e+000 0.000000e+000 -1.000000e+000
      outer loop
         vertex 2.461971e+002 8.004030e+002 1.114425e+002
         vertex 2.459823e+002 7.996011e+002 1.114425e+002
         vertex 2.415070e+002 7.964675e+002 1.114425e+002
      endloop
   endfacet
   facet normal 0.000000e+000 0.000000e+000 -1.000000e+000
      outer loop
         vertex 2.398781e+002 7.967547e+002 1.114425e+002
         vertex 2.391257e+002 7.971055e+002 1.114425e+002
         vertex 2.462695e+002 8.012300e+002 1.114425e+002
      endloop
   endfacet
   facet normal 0.000000e+000 0.000000e+000 -1.000000e+000
      outer loop
         vertex 2.373826e+002 7.988488e+002 1.114425e+002
         vertex 2.370317e+002 7.996011e+002 1.114425e+002
         vertex 2.451553e+002 8.042913e+002 1.114425e+002
      endloop
   endfacet
   facet normal 0.000000e+000 0.000000e+000 -1.000000e+000
      outer loop
         vertex 2.451553e+002 8.042913e+002 1.114425e+002
         vertex 2.370317e+002 7.996011e+002 1.114425e+002
         vertex 2.368168e+002 8.004030e+002 1.114425e+002
      endloop
   endfacet
   facet normal 0.000000e+000 0.000000e+000 -1.000000e+000
      outer loop
         vertex 2.451553e+002 8.042913e+002 1.114425e+002
         vertex 2.368168e+002 8.004030e+002 1.114425e+002
         vertex 2.367445e+002 8.012300e+002 1.114425e+002
      endloop
   endfacet
   facet normal 0.000000e+000 0.000000e+000 -1.000000e+000
      outer loop
         vertex 2.459823e+002 8.028589e+002 1.114425e+002
         vertex 2.461971e+002 8.020569e+002 1.114425e+002
         vertex 2.378587e+002 7.981687e+002 1.114425e+002
      endloop
   endfacet
   facet normal 0.000000e+000 0.000000e+000 -1.000000e+000
      outer loop
         vertex 2.378587e+002 7.981687e+002 1.114425e+002
         vertex 2.461971e+002 8.020569e+002 1.114425e+002
         vertex 2.462695e+002 8.012300e+002 1.114425e+002
      endloop
   endfacet
   facet normal 0.000000e+000 0.000000e+000 -1.000000e+000
      outer loop
         vertex 2.378587e+002 7.981687e+002 1.114425e+002
         vertex 2.462695e+002 8.012300e+002 1.114425e+002
         vertex 2.384457e+002 7.975817e+002 1.114425e+002
      endloop
   endfacet
   facet normal 0.000000e+000 0.000000e+000 -1.000000e+000
      outer loop
         vertex 2.384457e+002 7.975817e+002 1.114425e+002
         vertex 2.462695e+002 8.012300e+002 1.114425e+002
         vertex 2.391257e+002 7.971055e+002 1.114425e+002
      endloop
   endfacet
   facet normal 0.000000e+000 0.000000e+000 -1.000000e+000
      outer loop
         vertex 2.368168e+002 8.020569e+002 1.114425e+002
         vertex 2.370317e+002 8.028589e+002 1.114425e+002
         vertex 2.415070e+002 8.059925e+002 1.114425e+002
      endloop
   endfacet
   facet normal 0.000000e+000 0.000000e+000 -1.000000e+000
      outer loop
         vertex 2.461971e+002 8.004030e+002 1.114425e+002
         vertex 2.415070e+002 7.964675e+002 1.114425e+002
         vertex 2.462695e+002 8.012300e+002 1.114425e+002
      endloop
   endfacet
   facet normal 0.000000e+000 0.000000e+000 -1.000000e+000
      outer loop
         vertex 2.462695e+002 8.012300e+002 1.114425e+002
         vertex 2.415070e+002 7.964675e+002 1.114425e+002
         vertex 2.406800e+002 7.965399e+002 1.114425e+002
      endloop
   endfacet
   facet normal 0.000000e+000 0.000000e+000 -1.000000e+000
      outer loop
         vertex 2.462695e+002 8.012300e+002 1.114425e+002
         vertex 2.406800e+002 7.965399e+002 1.114425e+002
         vertex 2.398781e+002 7.967547e+002 1.114425e+002
      endloop
   endfacet
   facet normal 0.000000e+000 0.000000e+000 -1.000000e+000
      outer loop
         vertex 2.431358e+002 8.057053e+002 1.114425e+002
         vertex 2.438882e+002 8.053544e+002 1.114425e+002
         vertex 2.367445e+002 8.012300e+002 1.114425e+002
      endloop
   endfacet
   facet normal 0.000000e+000 0.000000e+000 -1.000000e+000
      outer loop
         vertex 2.367445e+002 8.012300e+002 1.114425e+002
         vertex 2.438882e+002 8.053544e+002 1.114425e+002
         vertex 2.445683e+002 8.048783e+002 1.114425e+002
      endloop
   endfacet
   facet normal 0.000000e+000 0.000000e+000 -1.000000e+000
      outer loop
         vertex 2.367445e+002 8.012300e+002 1.114425e+002
         vertex 2.445683e+002 8.048783e+002 1.114425e+002
         vertex 2.451553e+002 8.042913e+002 1.114425e+002
      endloop
   endfacet
   facet normal 0.000000e+000 0.000000e+000 -1.000000e+000
      outer loop
         vertex 2.459823e+002 7.996011e+002 1.114425e+002
         vertex 2.456314e+002 7.988488e+002 1.114425e+002
         vertex 2.415070e+002 7.964675e+002 1.114425e+002
      endloop
   endfacet
   facet normal 0.000000e+000 0.000000e+000 -1.000000e+000
      outer loop
         vertex 2.415070e+002 7.964675e+002 1.114425e+002
         vertex 2.456314e+002 7.988488e+002 1.114425e+002
         vertex 2.451553e+002 7.981687e+002 1.114425e+002
      endloop
   endfacet
   facet normal 0.000000e+000 0.000000e+000 -1.000000e+000
      outer loop
         vertex 2.415070e+002 7.964675e+002 1.114425e+002
         vertex 2.451553e+002 7.981687e+002 1.114425e+002
         vertex 2.445683e+002 7.975817e+002 1.114425e+002
      endloop
   endfacet
   facet normal 0.000000e+000 0.000000e+000 -1.000000e+000
      outer loop
         vertex 2.445683e+002 7.975817e+002 1.114425e+002
         vertex 2.438882e+002 7.971055e+002 1.114425e+002
         vertex 2.415070e+002 7.964675e+002 1.114425e+002
      endloop
   endfacet
   facet normal 0.000000e+000 0.000000e+000 -1.000000e+000
      outer loop
         vertex 2.415070e+002 7.964675e+002 1.114425e+002
         vertex 2.438882e+002 7.971055e+002 1.114425e+002
         vertex 2.431358e+002 7.967547e+002 1.114425e+002
      endloop
   endfacet
   facet normal 0.000000e+000 0.000000e+000 -1.000000e+000
      outer loop
         vertex 2.415070e+002 7.964675e+002 1.114425e+002
         vertex 2.431358e+002 7.967547e+002 1.114425e+002
         vertex 2.423340e+002 7.965399e+002 1.114425e+002
      endloop
   endfacet
   facet normal 0.000000e+000 0.000000e+000 -1.000000e+000
      outer loop
         vertex 2.370317e+002 8.028589e+002 1.114425e+002
         vertex 2.373826e+002 8.036112e+002 1.114425e+002
         vertex 2.415070e+002 8.059925e+002 1.114425e+002
      endloop
   endfacet
   facet normal 0.000000e+000 0.000000e+000 -1.000000e+000
      outer loop
         vertex 2.415070e+002 8.059925e+002 1.114425e+002
         vertex 2.373826e+002 8.036112e+002 1.114425e+002
         vertex 2.378587e+002 8.042913e+002 1.114425e+002
      endloop
   endfacet
   facet normal 0.000000e+000 0.000000e+000 -1.000000e+000
      outer loop
         vertex 2.415070e+002 8.059925e+002 1.114425e+002
         vertex 2.378587e+002 8.042913e+002 1.114425e+002
         vertex 2.384457e+002 8.048783e+002 1.114425e+002
      endloop
   endfacet
   facet normal 0.000000e+000 0.000000e+000 -1.000000e+000
      outer loop
         vertex 2.384457e+002 8.048783e+002 1.114425e+002
         vertex 2.391257e+002 8.053544e+002 1.114425e+002
         vertex 2.415070e+002 8.059925e+002 1.114425e+002
      endloop
   endfacet
   facet normal 0.000000e+000 0.000000e+000 -1.000000e+000
      outer loop
         vertex 2.415070e+002 8.059925e+002 1.114425e+002
         vertex 2.391257e+002 8.053544e+002 1.114425e+002
         vertex 2.398781e+002 8.057053e+002 1.114425e+002
      endloop
   endfacet
   facet normal 0.000000e+000 0.000000e+000 -1.000000e+000
      outer loop
         vertex 2.415070e+002 8.059925e+002 1.114425e+002
         vertex 2.398781e+002 8.057053e+002 1.114425e+002
         vertex 2.406800e+002 8.059201e+002 1.114425e+002
      endloop
   endfacet
   facet normal 0.000000e+000 0.000000e+000 -1.000000e+000
      outer loop
         vertex 2.368168e+002 8.020569e+002 1.114425e+002
         vertex 2.415070e+002 8.059925e+002 1.114425e+002
         vertex 2.367445e+002 8.012300e+002 1.114425e+002
      endloop
   endfacet
   facet normal 0.000000e+000 0.000000e+000 -1.000000e+000
      outer loop
         vertex 2.367445e+002 8.012300e+002 1.114425e+002
         vertex 2.415070e+002 8.059925e+002 1.114425e+002
         vertex 2.423340e+002 8.059201e+002 1.114425e+002
      endloop
   endfacet
   facet normal 0.000000e+000 0.000000e+000 -1.000000e+000
      outer loop
         vertex 2.367445e+002 8.012300e+002 1.114425e+002
         vertex 2.423340e+002 8.059201e+002 1.114425e+002
         vertex 2.431358e+002 8.057053e+002 1.114425e+002
      endloop
   endfacet
endsolid