solid FPM - 600-LipLower-1 103-RodYokes-2
   facet normal -9.983120e-001 5.807914e-002 0.000000e+000
      outer loop
         vertex 1.864918e+002 8.020569e+002 5.940425e+002
         vertex 1.864195e+002 8.012300e+002 1.114425e+002
         vertex 1.864195e+002 8.012300e+002 5.940425e+002
      endloop
   endfacet
   facet normal -9.983120e-001 -5.807914e-002 0.000000e+000
      outer loop
         vertex 1.864195e+002 8.012300e+002 5.940425e+002
         vertex 1.864195e+002 8.012300e+002 1.114425e+002
         vertex 1.864918e+002 8.004030e+002 1.114425e+002
      endloop
   endfacet
   facet normal -9.932307e-001 -1.161583e-001 0.000000e+000
      outer loop
         vertex 1.864195e+002 8.012300e+002 5.940425e+002
         vertex 1.864918e+002 8.004030e+002 1.114425e+002
         vertex 1.864918e+002 8.004030e+002 5.940425e+002
      endloop
   endfacet
   facet normal -9.730600e-001 -2.305519e-001 0.000000e+000
      outer loop
         vertex 1.864918e+002 8.004030e+002 5.940425e+002
         vertex 1.864918e+002 8.004030e+002 1.114425e+002
         vertex 1.867067e+002 7.996011e+002 1.114425e+002
      endloop
   endfacet
   facet normal -9.579706e-001 -2.868663e-001 0.000000e+000
      outer loop
         vertex 1.864918e+002 8.004030e+002 5.940425e+002
         vertex 1.867067e+002 7.996011e+002 1.114425e+002
         vertex 1.867067e+002 7.996011e+002 5.940425e+002
      endloop
   endfacet
   facet normal -9.182422e-001 -3.960194e-001 0.000000e+000
      outer loop
         vertex 1.867067e+002 7.996011e+002 5.940425e+002
         vertex 1.867067e+002 7.996011e+002 1.114425e+002
         vertex 1.870575e+002 7.988488e+002 1.114425e+002
      endloop
   endfacet
   facet normal -8.936031e-001 -4.488580e-001 0.000000e+000
      outer loop
         vertex 1.867067e+002 7.996011e+002 5.940425e+002
         vertex 1.870575e+002 7.988488e+002 1.114425e+002
         vertex 1.870575e+002 7.988488e+002 5.940425e+002
      endloop
   endfacet
   facet normal -8.355240e-001 -5.494540e-001 0.000000e+000
      outer loop
         vertex 1.870575e+002 7.988488e+002 5.940425e+002
         vertex 1.870575e+002 7.988488e+002 1.114425e+002
         vertex 1.875337e+002 7.981687e+002 1.114425e+002
      endloop
   endfacet
   facet normal -8.020839e-001 -5.972114e-001 0.000000e+000
      outer loop
         vertex 1.870575e+002 7.988488e+002 5.940425e+002
         vertex 1.875337e+002 7.981687e+002 1.114425e+002
         vertex 1.875337e+002 7.981687e+002 5.940425e+002
      endloop
   endfacet
   facet normal -7.274188e-001 -6.861938e-001 0.000000e+000
      outer loop
         vertex 1.875337e+002 7.981687e+002 5.940425e+002
         vertex 1.875337e+002 7.981687e+002 1.114425e+002
         vertex 1.881207e+002 7.975817e+002 1.114425e+002
      endloop
   endfacet
   facet normal -6.861938e-001 -7.274188e-001 0.000000e+000
      outer loop
         vertex 1.875337e+002 7.981687e+002 5.940425e+002
         vertex 1.881207e+002 7.975817e+002 1.114425e+002
         vertex 1.881207e+002 7.975817e+002 5.940425e+002
      endloop
   endfacet
   facet normal -5.972114e-001 -8.020839e-001 0.000000e+000
      outer loop
         vertex 1.881207e+002 7.975817e+002 5.940425e+002
         vertex 1.881207e+002 7.975817e+002 1.114425e+002
         vertex 1.888007e+002 7.971055e+002 1.114425e+002
      endloop
   endfacet
   facet normal -5.494540e-001 -8.355240e-001 0.000000e+000
      outer loop
         vertex 1.881207e+002 7.975817e+002 5.940425e+002
         vertex 1.888007e+002 7.971055e+002 1.114425e+002
         vertex 1.888007e+002 7.971055e+002 5.940425e+002
      endloop
   endfacet
   facet normal -4.488580e-001 -8.936031e-001 0.000000e+000
      outer loop
         vertex 1.888007e+002 7.971055e+002 5.940425e+002
         vertex 1.888007e+002 7.971055e+002 1.114425e+002
         vertex 1.895531e+002 7.967547e+002 1.114425e+002
      endloop
   endfacet
   facet normal -3.960194e-001 -9.182422e-001 0.000000e+000
      outer loop
         vertex 1.888007e+002 7.971055e+002 5.940425e+002
         vertex 1.895531e+002 7.967547e+002 1.114425e+002
         vertex 1.895531e+002 7.967547e+002 5.940425e+002
      endloop
   endfacet
   facet normal -2.868663e-001 -9.579706e-001 0.000000e+000
      outer loop
         vertex 1.895531e+002 7.967547e+002 5.940425e+002
         vertex 1.895531e+002 7.967547e+002 1.114425e+002
         vertex 1.903550e+002 7.965399e+002 1.114425e+002
      endloop
   endfacet
   facet normal -2.305519e-001 -9.730600e-001 0.000000e+000
      outer loop
         vertex 1.895531e+002 7.967547e+002 5.940425e+002
         vertex 1.903550e+002 7.965399e+002 1.114425e+002
         vertex 1.903550e+002 7.965399e+002 5.940425e+002
      endloop
   endfacet
   facet normal -1.161583e-001 -9.932307e-001 0.000000e+000
      outer loop
         vertex 1.903550e+002 7.965399e+002 5.940425e+002
         vertex 1.903550e+002 7.965399e+002 1.114425e+002
         vertex 1.911820e+002 7.964675e+002 1.114425e+002
      endloop
   endfacet
   facet normal -5.807914e-002 -9.983120e-001 0.000000e+000
      outer loop
         vertex 1.903550e+002 7.965399e+002 5.940425e+002
         vertex 1.911820e+002 7.964675e+002 1.114425e+002
         vertex 1.911820e+002 7.964675e+002 5.940425e+002
      endloop
   endfacet
   facet normal 5.807914e-002 -9.983120e-001 0.000000e+000
      outer loop
         vertex 1.911820e+002 7.964675e+002 5.940425e+002
         vertex 1.911820e+002 7.964675e+002 1.114425e+002
         vertex 1.920090e+002 7.965399e+002 1.114425e+002
      endloop
   endfacet
   facet normal 1.161583e-001 -9.932307e-001 0.000000e+000
      outer loop
         vertex 1.911820e+002 7.964675e+002 5.940425e+002
         vertex 1.920090e+002 7.965399e+002 1.114425e+002
         vertex 1.920090e+002 7.965399e+002 5.940425e+002
      endloop
   endfacet
   facet normal 2.305519e-001 -9.730600e-001 0.000000e+000
      outer loop
         vertex 1.920090e+002 7.965399e+002 5.940425e+002
         vertex 1.920090e+002 7.965399e+002 1.114425e+002
         vertex 1.928109e+002 7.967547e+002 1.114425e+002
      endloop
   endfacet
   facet normal 2.868663e-001 -9.579706e-001 0.000000e+000
      outer loop
         vertex 1.920090e+002 7.965399e+002 5.940425e+002
         vertex 1.928109e+002 7.967547e+002 1.114425e+002
         vertex 1.928109e+002 7.967547e+002 5.940425e+002
      endloop
   endfacet
   facet normal 3.960194e-001 -9.182422e-001 0.000000e+000
      outer loop
         vertex 1.928109e+002 7.967547e+002 5.940425e+002
         vertex 1.928109e+002 7.967547e+002 1.114425e+002
         vertex 1.935632e+002 7.971055e+002 1.114425e+002
      endloop
   endfacet
   facet normal 4.488580e-001 -8.936031e-001 0.000000e+000
      outer loop
         vertex 1.928109e+002 7.967547e+002 5.940425e+002
         vertex 1.935632e+002 7.971055e+002 1.114425e+002
         vertex 1.935632e+002 7.971055e+002 5.940425e+002
      endloop
   endfacet
   facet normal 5.494540e-001 -8.355240e-001 0.000000e+000
      outer loop
         vertex 1.935632e+002 7.971055e+002 5.940425e+002
         vertex 1.935632e+002 7.971055e+002 1.114425e+002
         vertex 1.942433e+002 7.975817e+002 1.114425e+002
      endloop
   endfacet
   facet normal 5.972114e-001 -8.020839e-001 0.000000e+000
      outer loop
         vertex 1.935632e+002 7.971055e+002 5.940425e+002
         vertex 1.942433e+002 7.975817e+002 1.114425e+002
         vertex 1.942433e+002 7.975817e+002 5.940425e+002
      endloop
   endfacet
   facet normal 6.861938e-001 -7.274188e-001 0.000000e+000
      outer loop
         vertex 1.942433e+002 7.975817e+002 5.940425e+002
         vertex 1.942433e+002 7.975817e+002 1.114425e+002
         vertex 1.948303e+002 7.981687e+002 1.114425e+002
      endloop
   endfacet
   facet normal 7.274188e-001 -6.861938e-001 0.000000e+000
      outer loop
         vertex 1.942433e+002 7.975817e+002 5.940425e+002
         vertex 1.948303e+002 7.981687e+002 1.114425e+002
         vertex 1.948303e+002 7.981687e+002 5.940425e+002
      endloop
   endfacet
   facet normal 8.020839e-001 -5.972114e-001 0.000000e+000
      outer loop
         vertex 1.948303e+002 7.981687e+002 5.940425e+002
         vertex 1.948303e+002 7.981687e+002 1.114425e+002
         vertex 1.953064e+002 7.988488e+002 1.114425e+002
      endloop
   endfacet
   facet normal 8.355240e-001 -5.494540e-001 0.000000e+000
      outer loop
         vertex 1.948303e+002 7.981687e+002 5.940425e+002
         vertex 1.953064e+002 7.988488e+002 1.114425e+002
         vertex 1.953064e+002 7.988488e+002 5.940425e+002
      endloop
   endfacet
   facet normal 8.936031e-001 -4.488580e-001 0.000000e+000
      outer loop
         vertex 1.953064e+002 7.988488e+002 5.940425e+002
         vertex 1.953064e+002 7.988488e+002 1.114425e+002
         vertex 1.956573e+002 7.996011e+002 1.114425e+002
      endloop
   endfacet
   facet normal 9.182422e-001 -3.960194e-001 0.000000e+000
      outer loop
         vertex 1.953064e+002 7.988488e+002 5.940425e+002
         vertex 1.956573e+002 7.996011e+002 1.114425e+002
         vertex 1.956573e+002 7.996011e+002 5.940425e+002
      endloop
   endfacet
   facet normal 9.579706e-001 -2.868663e-001 0.000000e+000
      outer loop
         vertex 1.956573e+002 7.996011e+002 5.940425e+002
         vertex 1.956573e+002 7.996011e+002 1.114425e+002
         vertex 1.958721e+002 8.004030e+002 1.114425e+002
      endloop
   endfacet
   facet normal 9.730600e-001 -2.305519e-001 0.000000e+000
      outer loop
         vertex 1.956573e+002 7.996011e+002 5.940425e+002
         vertex 1.958721e+002 8.004030e+002 1.114425e+002
         vertex 1.958721e+002 8.004030e+002 5.940425e+002
      endloop
   endfacet
   facet normal 9.932307e-001 -1.161583e-001 0.000000e+000
      outer loop
         vertex 1.958721e+002 8.004030e+002 5.940425e+002
         vertex 1.958721e+002 8.004030e+002 1.114425e+002
         vertex 1.959445e+002 8.012300e+002 1.114425e+002
      endloop
   endfacet
   facet normal 9.983120e-001 -5.807914e-002 0.000000e+000
      outer loop
         vertex 1.958721e+002 8.004030e+002 5.940425e+002
         vertex 1.959445e+002 8.012300e+002 1.114425e+002
         vertex 1.959445e+002 8.012300e+002 5.940425e+002
      endloop
   endfacet
   facet normal 9.983120e-001 5.807914e-002 0.000000e+000
      outer loop
         vertex 1.959445e+002 8.012300e+002 5.940425e+002
         vertex 1.959445e+002 8.012300e+002 1.114425e+002
         vertex 1.958721e+002 8.020569e+002 1.114425e+002
      endloop
   endfacet
   facet normal 9.932307e-001 1.161583e-001 0.000000e+000
      outer loop
         vertex 1.959445e+002 8.012300e+002 5.940425e+002
         vertex 1.958721e+002 8.020569e+002 1.114425e+002
         vertex 1.958721e+002 8.020569e+002 5.940425e+002
      endloop
   endfacet
   facet normal 9.730600e-001 2.305519e-001 0.000000e+000
      outer loop
         vertex 1.958721e+002 8.020569e+002 5.940425e+002
         vertex 1.958721e+002 8.020569e+002 1.114425e+002
         vertex 1.956573e+002 8.028589e+002 1.114425e+002
      endloop
   endfacet
   facet normal 9.579706e-001 2.868663e-001 0.000000e+000
      outer loop
         vertex 1.958721e+002 8.020569e+002 5.940425e+002
         vertex 1.956573e+002 8.028589e+002 1.114425e+002
         vertex 1.956573e+002 8.028589e+002 5.940425e+002
      endloop
   endfacet
   facet normal 9.182422e-001 3.960194e-001 0.000000e+000
      outer loop
         vertex 1.956573e+002 8.028589e+002 5.940425e+002
         vertex 1.956573e+002 8.028589e+002 1.114425e+002
         vertex 1.953064e+002 8.036112e+002 1.114425e+002
      endloop
   endfacet
   facet normal 8.936031e-001 4.488580e-001 0.000000e+000
      outer loop
         vertex 1.956573e+002 8.028589e+002 5.940425e+002
         vertex 1.953064e+002 8.036112e+002 1.114425e+002
         vertex 1.953064e+002 8.036112e+002 5.940425e+002
      endloop
   endfacet
   facet normal 8.355240e-001 5.494540e-001 0.000000e+000
      outer loop
         vertex 1.953064e+002 8.036112e+002 5.940425e+002
         vertex 1.953064e+002 8.036112e+002 1.114425e+002
         vertex 1.948303e+002 8.042913e+002 1.114425e+002
      endloop
   endfacet
   facet normal 8.020839e-001 5.972114e-001 0.000000e+000
      outer loop
         vertex 1.953064e+002 8.036112e+002 5.940425e+002
         vertex 1.948303e+002 8.042913e+002 1.114425e+002
         vertex 1.948303e+002 8.042913e+002 5.940425e+002
      endloop
   endfacet
   facet normal 7.274188e-001 6.861938e-001 0.000000e+000
      outer loop
         vertex 1.948303e+002 8.042913e+002 5.940425e+002
         vertex 1.948303e+002 8.042913e+002 1.114425e+002
         vertex 1.942433e+002 8.048783e+002 1.114425e+002
      endloop
   endfacet
   facet normal 6.861938e-001 7.274188e-001 0.000000e+000
      outer loop
         vertex 1.948303e+002 8.042913e+002 5.940425e+002
         vertex 1.942433e+002 8.048783e+002 1.114425e+002
         vertex 1.942433e+002 8.048783e+002 5.940425e+002
      endloop
   endfacet
   facet normal 5.972114e-001 8.020839e-001 0.000000e+000
      outer loop
         vertex 1.942433e+002 8.048783e+002 5.940425e+002
         vertex 1.942433e+002 8.048783e+002 1.114425e+002
         vertex 1.935632e+002 8.053544e+002 1.114425e+002
      endloop
   endfacet
   facet normal 5.494540e-001 8.355240e-001 0.000000e+000
      outer loop
         vertex 1.942433e+002 8.048783e+002 5.940425e+002
         vertex 1.935632e+002 8.053544e+002 1.114425e+002
         vertex 1.935632e+002 8.053544e+002 5.940425e+002
      endloop
   endfacet
   facet normal 4.488580e-001 8.936031e-001 0.000000e+000
      outer loop
         vertex 1.935632e+002 8.053544e+002 5.940425e+002
         vertex 1.935632e+002 8.053544e+002 1.114425e+002
         vertex 1.928109e+002 8.057053e+002 1.114425e+002
      endloop
   endfacet
   facet normal 3.960194e-001 9.182422e-001 0.000000e+000
      outer loop
         vertex 1.935632e+002 8.053544e+002 5.940425e+002
         vertex 1.928109e+002 8.057053e+002 1.114425e+002
         vertex 1.928109e+002 8.057053e+002 5.940425e+002
      endloop
   endfacet
   facet normal 2.868663e-001 9.579706e-001 0.000000e+000
      outer loop
         vertex 1.928109e+002 8.057053e+002 5.940425e+002
         vertex 1.928109e+002 8.057053e+002 1.114425e+002
         vertex 1.920090e+002 8.059201e+002 1.114425e+002
      endloop
   endfacet
   facet normal 2.305519e-001 9.730600e-001 0.000000e+000
      outer loop
         vertex 1.928109e+002 8.057053e+002 5.940425e+002
         vertex 1.920090e+002 8.059201e+002 1.114425e+002
         vertex 1.920090e+002 8.059201e+002 5.940425e+002
      endloop
   endfacet
   facet normal 1.161583e-001 9.932307e-001 0.000000e+000
      outer loop
         vertex 1.920090e+002 8.059201e+002 5.940425e+002
         vertex 1.920090e+002 8.059201e+002 1.114425e+002
         vertex 1.911820e+002 8.059925e+002 1.114425e+002
      endloop
   endfacet
   facet normal 5.807914e-002 9.983120e-001 0.000000e+000
      outer loop
         vertex 1.920090e+002 8.059201e+002 5.940425e+002
         vertex 1.911820e+002 8.059925e+002 1.114425e+002
         vertex 1.911820e+002 8.059925e+002 5.940425e+002
      endloop
   endfacet
   facet normal -5.807914e-002 9.983120e-001 0.000000e+000
      outer loop
         vertex 1.911820e+002 8.059925e+002 5.940425e+002
         vertex 1.911820e+002 8.059925e+002 1.114425e+002
         vertex 1.903550e+002 8.059201e+002 1.114425e+002
      endloop
   endfacet
   facet normal -1.161583e-001 9.932307e-001 0.000000e+000
      outer loop
         vertex 1.911820e+002 8.059925e+002 5.940425e+002
         vertex 1.903550e+002 8.059201e+002 1.114425e+002
         vertex 1.903550e+002 8.059201e+002 5.940425e+002
      endloop
   endfacet
   facet normal -2.305519e-001 9.730600e-001 0.000000e+000
      outer loop
         vertex 1.903550e+002 8.059201e+002 5.940425e+002
         vertex 1.903550e+002 8.059201e+002 1.114425e+002
         vertex 1.895531e+002 8.057053e+002 1.114425e+002
      endloop
   endfacet
   facet normal -2.868663e-001 9.579706e-001 0.000000e+000
      outer loop
         vertex 1.903550e+002 8.059201e+002 5.940425e+002
         vertex 1.895531e+002 8.057053e+002 1.114425e+002
         vertex 1.895531e+002 8.057053e+002 5.940425e+002
      endloop
   endfacet
   facet normal -3.960194e-001 9.182422e-001 0.000000e+000
      outer loop
         vertex 1.895531e+002 8.057053e+002 5.940425e+002
         vertex 1.895531e+002 8.057053e+002 1.114425e+002
         vertex 1.888007e+002 8.053544e+002 1.114425e+002
      endloop
   endfacet
   facet normal -4.488580e-001 8.936031e-001 0.000000e+000
      outer loop
         vertex 1.895531e+002 8.057053e+002 5.940425e+002
         vertex 1.888007e+002 8.053544e+002 1.114425e+002
         vertex 1.888007e+002 8.053544e+002 5.940425e+002
      endloop
   endfacet
   facet normal -5.494540e-001 8.355240e-001 0.000000e+000
      outer loop
         vertex 1.888007e+002 8.053544e+002 5.940425e+002
         vertex 1.888007e+002 8.053544e+002 1.114425e+002
         vertex 1.881207e+002 8.048783e+002 1.114425e+002
      endloop
   endfacet
   facet normal -5.972114e-001 8.020839e-001 0.000000e+000
      outer loop
         vertex 1.888007e+002 8.053544e+002 5.940425e+002
         vertex 1.881207e+002 8.048783e+002 1.114425e+002
         vertex 1.881207e+002 8.048783e+002 5.940425e+002
      endloop
   endfacet
   facet normal -6.861938e-001 7.274188e-001 0.000000e+000
      outer loop
         vertex 1.881207e+002 8.048783e+002 5.940425e+002
         vertex 1.881207e+002 8.048783e+002 1.114425e+002
         vertex 1.875337e+002 8.042913e+002 1.114425e+002
      endloop
   endfacet
   facet normal -7.274188e-001 6.861938e-001 0.000000e+000
      outer loop
         vertex 1.881207e+002 8.048783e+002 5.940425e+002
         vertex 1.875337e+002 8.042913e+002 1.114425e+002
         vertex 1.875337e+002 8.042913e+002 5.940425e+002
      endloop
   endfacet
   facet normal -8.020839e-001 5.972114e-001 0.000000e+000
      outer loop
         vertex 1.875337e+002 8.042913e+002 5.940425e+002
         vertex 1.875337e+002 8.042913e+002 1.114425e+002
         vertex 1.870575e+002 8.036112e+002 1.114425e+002
      endloop
   endfacet
   facet normal -8.355240e-001 5.494540e-001 0.000000e+000
      outer loop
         vertex 1.875337e+002 8.042913e+002 5.940425e+002
         vertex 1.870575e+002 8.036112e+002 1.114425e+002
         vertex 1.870575e+002 8.036112e+002 5.940425e+002
      endloop
   endfacet
   facet normal -8.936031e-001 4.488580e-001 0.000000e+000
      outer loop
         vertex 1.870575e+002 8.036112e+002 5.940425e+002
         vertex 1.870575e+002 8.036112e+002 1.114425e+002
         vertex 1.867067e+002 8.028589e+002 1.114425e+002
      endloop
   endfacet
   facet normal -9.182422e-001 3.960194e-001 0.000000e+000
      outer loop
         vertex 1.870575e+002 8.036112e+002 5.940425e+002
         vertex 1.867067e+002 8.028589e+002 1.114425e+002
         vertex 1.867067e+002 8.028589e+002 5.940425e+002
      endloop
   endfacet
   facet normal -9.579706e-001 2.868663e-001 0.000000e+000
      outer loop
         vertex 1.867067e+002 8.028589e+002 5.940425e+002
         vertex 1.867067e+002 8.028589e+002 1.114425e+002
         vertex 1.864918e+002 8.020569e+002 1.114425e+002
      endloop
   endfacet
   facet normal -9.730600e-001 2.305519e-001 0.000000e+000
      outer loop
         vertex 1.867067e+002 8.028589e+002 5.940425e+002
         vertex 1.864918e+002 8.020569e+002 1.114425e+002
         vertex 1.864918e+002 8.020569e+002 5.940425e+002
      endloop
   endfacet
   facet normal -9.932307e-001 1.161583e-001 0.000000e+000
      outer loop
         vertex 1.864918e+002 8.020569e+002 5.940425e+002
         vertex 1.864918e+002 8.020569e+002 1.114425e+002
         vertex 1.864195e+002 8.012300e+002 1.114425e+002
      endloop
   endfacet
   facet normal 0.000000e+000 0.000000e+000 1.000000e+000
      outer loop
         vertex 1.867067e+002 7.996011e+002 5.940425e+002
         vertex 1.948303e+002 8.042913e+002 5.940425e+002
         vertex 1.864918e+002 8.004030e+002 5.940425e+002
      endloop
   endfacet
   facet normal 0.000000e+000 0.000000e+000 1.000000e+000
      outer loop
         vertex 1.864918e+002 8.004030e+002 5.940425e+002
         vertex 1.948303e+002 8.042913e+002 5.940425e+002
         vertex 1.864195e+002 8.012300e+002 5.940425e+002
      endloop
   endfacet
   facet normal 0.000000e+000 0.000000e+000 1.000000e+000
      outer loop
         vertex 1.956573e+002 8.028589e+002 5.940425e+002
         vertex 1.875337e+002 7.981687e+002 5.940425e+002
         vertex 1.958721e+002 8.020569e+002 5.940425e+002
      endloop
   endfacet
   facet normal 0.000000e+000 0.000000e+000 1.000000e+000
      outer loop
         vertex 1.958721e+002 8.020569e+002 5.940425e+002
         vertex 1.875337e+002 7.981687e+002 5.940425e+002
         vertex 1.959445e+002 8.012300e+002 5.940425e+002
      endloop
   endfacet
   facet normal 0.000000e+000 0.000000e+000 1.000000e+000
      outer loop
         vertex 1.867067e+002 7.996011e+002 5.940425e+002
         vertex 1.870575e+002 7.988488e+002 5.940425e+002
         vertex 1.948303e+002 8.042913e+002 5.940425e+002
      endloop
   endfacet
   facet normal 0.000000e+000 0.000000e+000 1.000000e+000
      outer loop
         vertex 1.948303e+002 8.042913e+002 5.940425e+002
         vertex 1.870575e+002 7.988488e+002 5.940425e+002
         vertex 1.875337e+002 7.981687e+002 5.940425e+002
      endloop
   endfacet
   facet normal 0.000000e+000 0.000000e+000 1.000000e+000
      outer loop
         vertex 1.948303e+002 8.042913e+002 5.940425e+002
         vertex 1.875337e+002 7.981687e+002 5.940425e+002
         vertex 1.953064e+002 8.036112e+002 5.940425e+002
      endloop
   endfacet
   facet normal 0.000000e+000 0.000000e+000 1.000000e+000
      outer loop
         vertex 1.953064e+002 8.036112e+002 5.940425e+002
         vertex 1.875337e+002 7.981687e+002 5.940425e+002
         vertex 1.956573e+002 8.028589e+002 5.940425e+002
      endloop
   endfacet
   facet normal 0.000000e+000 0.000000e+000 1.000000e+000
      outer loop
         vertex 1.875337e+002 7.981687e+002 5.940425e+002
         vertex 1.881207e+002 7.975817e+002 5.940425e+002
         vertex 1.959445e+002 8.012300e+002 5.940425e+002
      endloop
   endfacet
   facet normal 0.000000e+000 0.000000e+000 1.000000e+000
      outer loop
         vertex 1.959445e+002 8.012300e+002 5.940425e+002
         vertex 1.881207e+002 7.975817e+002 5.940425e+002
         vertex 1.888007e+002 7.971055e+002 5.940425e+002
      endloop
   endfacet
   facet normal 0.000000e+000 0.000000e+000 1.000000e+000
      outer loop
         vertex 1.959445e+002 8.012300e+002 5.940425e+002
         vertex 1.888007e+002 7.971055e+002 5.940425e+002
         vertex 1.895531e+002 7.967547e+002 5.940425e+002
      endloop
   endfacet
   facet normal 0.000000e+000 0.000000e+000 1.000000e+000
      outer loop
         vertex 1.956573e+002 7.996011e+002 5.940425e+002
         vertex 1.958721e+002 8.004030e+002 5.940425e+002
         vertex 1.911820e+002 7.964675e+002 5.940425e+002
      endloop
   endfacet
   facet normal 0.000000e+000 0.000000e+000 1.000000e+000
      outer loop
         vertex 1.911820e+002 7.964675e+002 5.940425e+002
         vertex 1.958721e+002 8.004030e+002 5.940425e+002
         vertex 1.959445e+002 8.012300e+002 5.940425e+002
      endloop
   endfacet
   facet normal 0.000000e+000 0.000000e+000 1.000000e+000
      outer loop
         vertex 1.911820e+002 7.964675e+002 5.940425e+002
         vertex 1.959445e+002 8.012300e+002 5.940425e+002
         vertex 1.903550e+002 7.965399e+002 5.940425e+002
      endloop
   endfacet
   facet normal 0.000000e+000 0.000000e+000 1.000000e+000
      outer loop
         vertex 1.903550e+002 7.965399e+002 5.940425e+002
         vertex 1.959445e+002 8.012300e+002 5.940425e+002
         vertex 1.895531e+002 7.967547e+002 5.940425e+002
      endloop
   endfacet
   facet normal 0.000000e+000 0.000000e+000 1.000000e+000
      outer loop
         vertex 1.948303e+002 8.042913e+002 5.940425e+002
         vertex 1.942433e+002 8.048783e+002 5.940425e+002
         vertex 1.864195e+002 8.012300e+002 5.940425e+002
      endloop
   endfacet
   facet normal 0.000000e+000 0.000000e+000 1.000000e+000
      outer loop
         vertex 1.864195e+002 8.012300e+002 5.940425e+002
         vertex 1.942433e+002 8.048783e+002 5.940425e+002
         vertex 1.935632e+002 8.053544e+002 5.940425e+002
      endloop
   endfacet
   facet normal 0.000000e+000 0.000000e+000 1.000000e+000
      outer loop
         vertex 1.864195e+002 8.012300e+002 5.940425e+002
         vertex 1.935632e+002 8.053544e+002 5.940425e+002
         vertex 1.928109e+002 8.057053e+002 5.940425e+002
      endloop
   endfacet
   facet normal 0.000000e+000 0.000000e+000 1.000000e+000
      outer loop
         vertex 1.920090e+002 7.965399e+002 5.940425e+002
         vertex 1.928109e+002 7.967547e+002 5.940425e+002
         vertex 1.911820e+002 7.964675e+002 5.940425e+002
      endloop
   endfacet
   facet normal 0.000000e+000 0.000000e+000 1.000000e+000
      outer loop
         vertex 1.911820e+002 7.964675e+002 5.940425e+002
         vertex 1.928109e+002 7.967547e+002 5.940425e+002
         vertex 1.935632e+002 7.971055e+002 5.940425e+002
      endloop
   endfacet
   facet normal 0.000000e+000 0.000000e+000 1.000000e+000
      outer loop
         vertex 1.911820e+002 7.964675e+002 5.940425e+002
         vertex 1.935632e+002 7.971055e+002 5.940425e+002
         vertex 1.942433e+002 7.975817e+002 5.940425e+002
      endloop
   endfacet
   facet normal 0.000000e+000 0.000000e+000 1.000000e+000
      outer loop
         vertex 1.942433e+002 7.975817e+002 5.940425e+002
         vertex 1.948303e+002 7.981687e+002 5.940425e+002
         vertex 1.911820e+002 7.964675e+002 5.940425e+002
      endloop
   endfacet
   facet normal 0.000000e+000 0.000000e+000 1.000000e+000
      outer loop
         vertex 1.911820e+002 7.964675e+002 5.940425e+002
         vertex 1.948303e+002 7.981687e+002 5.940425e+002
         vertex 1.953064e+002 7.988488e+002 5.940425e+002
      endloop
   endfacet
   facet normal 0.000000e+000 0.000000e+000 1.000000e+000
      outer loop
         vertex 1.911820e+002 7.964675e+002 5.940425e+002
         vertex 1.953064e+002 7.988488e+002 5.940425e+002
         vertex 1.956573e+002 7.996011e+002 5.940425e+002
      endloop
   endfacet
   facet normal 0.000000e+000 0.000000e+000 1.000000e+000
      outer loop
         vertex 1.867067e+002 8.028589e+002 5.940425e+002
         vertex 1.864918e+002 8.020569e+002 5.940425e+002
         vertex 1.911820e+002 8.059925e+002 5.940425e+002
      endloop
   endfacet
   facet normal 0.000000e+000 0.000000e+000 1.000000e+000
      outer loop
         vertex 1.911820e+002 8.059925e+002 5.940425e+002
         vertex 1.864918e+002 8.020569e+002 5.940425e+002
         vertex 1.864195e+002 8.012300e+002 5.940425e+002
      endloop
   endfacet
   facet normal 0.000000e+000 0.000000e+000 1.000000e+000
      outer loop
         vertex 1.911820e+002 8.059925e+002 5.940425e+002
         vertex 1.864195e+002 8.012300e+002 5.940425e+002
         vertex 1.920090e+002 8.059201e+002 5.940425e+002
      endloop
   endfacet
   facet normal 0.000000e+000 0.000000e+000 1.000000e+000
      outer loop
         vertex 1.920090e+002 8.059201e+002 5.940425e+002
         vertex 1.864195e+002 8.012300e+002 5.940425e+002
         vertex 1.928109e+002 8.057053e+002 5.940425e+002
      endloop
   endfacet
   facet normal 0.000000e+000 0.000000e+000 1.000000e+000
      outer loop
         vertex 1.903550e+002 8.059201e+002 5.940425e+002
         vertex 1.895531e+002 8.057053e+002 5.940425e+002
         vertex 1.911820e+002 8.059925e+002 5.940425e+002
      endloop
   endfacet
   facet normal 0.000000e+000 0.000000e+000 1.000000e+000
      outer loop
         vertex 1.911820e+002 8.059925e+002 5.940425e+002
         vertex 1.895531e+002 8.057053e+002 5.940425e+002
         vertex 1.888007e+002 8.053544e+002 5.940425e+002
      endloop
   endfacet
   facet normal 0.000000e+000 0.000000e+000 1.000000e+000
      outer loop
         vertex 1.911820e+002 8.059925e+002 5.940425e+002
         vertex 1.888007e+002 8.053544e+002 5.940425e+002
         vertex 1.881207e+002 8.048783e+002 5.940425e+002
      endloop
   endfacet
   facet normal 0.000000e+000 0.000000e+000 1.000000e+000
      outer loop
         vertex 1.881207e+002 8.048783e+002 5.940425e+002
         vertex 1.875337e+002 8.042913e+002 5.940425e+002
         vertex 1.911820e+002 8.059925e+002 5.940425e+002
      endloop
   endfacet
   facet normal 0.000000e+000 0.000000e+000 1.000000e+000
      outer loop
         vertex 1.911820e+002 8.059925e+002 5.940425e+002
         vertex 1.875337e+002 8.042913e+002 5.940425e+002
         vertex 1.870575e+002 8.036112e+002 5.940425e+002
      endloop
   endfacet
   facet normal 0.000000e+000 0.000000e+000 1.000000e+000
      outer loop
         vertex 1.911820e+002 8.059925e+002 5.940425e+002
         vertex 1.870575e+002 8.036112e+002 5.940425e+002
         vertex 1.867067e+002 8.028589e+002 5.940425e+002
      endloop
   endfacet
   facet normal 0.000000e+000 0.000000e+000 -1.000000e+000
      outer loop
         vertex 1.870575e+002 7.988488e+002 1.114425e+002
         vertex 1.948303e+002 8.042913e+002 1.114425e+002
         vertex 1.875337e+002 7.981687e+002 1.114425e+002
      endloop
   endfacet
   facet normal 0.000000e+000 0.000000e+000 -1.000000e+000
      outer loop
         vertex 1.875337e+002 7.981687e+002 1.114425e+002
         vertex 1.948303e+002 8.042913e+002 1.114425e+002
         vertex 1.953064e+002 8.036112e+002 1.114425e+002
      endloop
   endfacet
   facet normal 0.000000e+000 0.000000e+000 -1.000000e+000
      outer loop
         vertex 1.875337e+002 7.981687e+002 1.114425e+002
         vertex 1.953064e+002 8.036112e+002 1.114425e+002
         vertex 1.956573e+002 8.028589e+002 1.114425e+002
      endloop
   endfacet
   facet normal 0.000000e+000 0.000000e+000 -1.000000e+000
      outer loop
         vertex 1.958721e+002 8.004030e+002 1.114425e+002
         vertex 1.956573e+002 7.996011e+002 1.114425e+002
         vertex 1.911820e+002 7.964675e+002 1.114425e+002
      endloop
   endfacet
   facet normal 0.000000e+000 0.000000e+000 -1.000000e+000
      outer loop
         vertex 1.895531e+002 7.967547e+002 1.114425e+002
         vertex 1.888007e+002 7.971055e+002 1.114425e+002
         vertex 1.959445e+002 8.012300e+002 1.114425e+002
      endloop
   endfacet
   facet normal 0.000000e+000 0.000000e+000 -1.000000e+000
      outer loop
         vertex 1.870575e+002 7.988488e+002 1.114425e+002
         vertex 1.867067e+002 7.996011e+002 1.114425e+002
         vertex 1.948303e+002 8.042913e+002 1.114425e+002
      endloop
   endfacet
   facet normal 0.000000e+000 0.000000e+000 -1.000000e+000
      outer loop
         vertex 1.948303e+002 8.042913e+002 1.114425e+002
         vertex 1.867067e+002 7.996011e+002 1.114425e+002
         vertex 1.864918e+002 8.004030e+002 1.114425e+002
      endloop
   endfacet
   facet normal 0.000000e+000 0.000000e+000 -1.000000e+000
      outer loop
         vertex 1.948303e+002 8.042913e+002 1.114425e+002
         vertex 1.864918e+002 8.004030e+002 1.114425e+002
         vertex 1.864195e+002 8.012300e+002 1.114425e+002
      endloop
   endfacet
   facet normal 0.000000e+000 0.000000e+000 -1.000000e+000
      outer loop
         vertex 1.956573e+002 8.028589e+002 1.114425e+002
         vertex 1.958721e+002 8.020569e+002 1.114425e+002
         vertex 1.875337e+002 7.981687e+002 1.114425e+002
      endloop
   endfacet
   facet normal 0.000000e+000 0.000000e+000 -1.000000e+000
      outer loop
         vertex 1.875337e+002 7.981687e+002 1.114425e+002
         vertex 1.958721e+002 8.020569e+002 1.114425e+002
         vertex 1.959445e+002 8.012300e+002 1.114425e+002
      endloop
   endfacet
   facet normal 0.000000e+000 0.000000e+000 -1.000000e+000
      outer loop
         vertex 1.875337e+002 7.981687e+002 1.114425e+002
         vertex 1.959445e+002 8.012300e+002 1.114425e+002
         vertex 1.881207e+002 7.975817e+002 1.114425e+002
      endloop
   endfacet
   facet normal 0.000000e+000 0.000000e+000 -1.000000e+000
      outer loop
         vertex 1.881207e+002 7.975817e+002 1.114425e+002
         vertex 1.959445e+002 8.012300e+002 1.114425e+002
         vertex 1.888007e+002 7.971055e+002 1.114425e+002
      endloop
   endfacet
   facet normal 0.000000e+000 0.000000e+000 -1.000000e+000
      outer loop
         vertex 1.864918e+002 8.020569e+002 1.114425e+002
         vertex 1.867067e+002 8.028589e+002 1.114425e+002
         vertex 1.911820e+002 8.059925e+002 1.114425e+002
      endloop
   endfacet
   facet normal 0.000000e+000 0.000000e+000 -1.000000e+000
      outer loop
         vertex 1.958721e+002 8.004030e+002 1.114425e+002
         vertex 1.911820e+002 7.964675e+002 1.114425e+002
         vertex 1.959445e+002 8.012300e+002 1.114425e+002
      endloop
   endfacet
   facet normal 0.000000e+000 0.000000e+000 -1.000000e+000
      outer loop
         vertex 1.959445e+002 8.012300e+002 1.114425e+002
         vertex 1.911820e+002 7.964675e+002 1.114425e+002
         vertex 1.903550e+002 7.965399e+002 1.114425e+002
      endloop
   endfacet
   facet normal 0.000000e+000 0.000000e+000 -1.000000e+000
      outer loop
         vertex 1.959445e+002 8.012300e+002 1.114425e+002
         vertex 1.903550e+002 7.965399e+002 1.114425e+002
         vertex 1.895531e+002 7.967547e+002 1.114425e+002
      endloop
   endfacet
   facet normal 0.000000e+000 0.000000e+000 -1.000000e+000
      outer loop
         vertex 1.928109e+002 8.057053e+002 1.114425e+002
         vertex 1.935632e+002 8.053544e+002 1.114425e+002
         vertex 1.864195e+002 8.012300e+002 1.114425e+002
      endloop
   endfacet
   facet normal 0.000000e+000 0.000000e+000 -1.000000e+000
      outer loop
         vertex 1.864195e+002 8.012300e+002 1.114425e+002
         vertex 1.935632e+002 8.053544e+002 1.114425e+002
         vertex 1.942433e+002 8.048783e+002 1.114425e+002
      endloop
   endfacet
   facet normal 0.000000e+000 0.000000e+000 -1.000000e+000
      outer loop
         vertex 1.864195e+002 8.012300e+002 1.114425e+002
         vertex 1.942433e+002 8.048783e+002 1.114425e+002
         vertex 1.948303e+002 8.042913e+002 1.114425e+002
      endloop
   endfacet
   facet normal 0.000000e+000 0.000000e+000 -1.000000e+000
      outer loop
         vertex 1.956573e+002 7.996011e+002 1.114425e+002
         vertex 1.953064e+002 7.988488e+002 1.114425e+002
         vertex 1.911820e+002 7.964675e+002 1.114425e+002
      endloop
   endfacet
   facet normal 0.000000e+000 0.000000e+000 -1.000000e+000
      outer loop
         vertex 1.911820e+002 7.964675e+002 1.114425e+002
         vertex 1.953064e+002 7.988488e+002 1.114425e+002
         vertex 1.948303e+002 7.981687e+002 1.114425e+002
      endloop
   endfacet
   facet normal 0.000000e+000 0.000000e+000 -1.000000e+000
      outer loop
         vertex 1.911820e+002 7.964675e+002 1.114425e+002
         vertex 1.948303e+002 7.981687e+002 1.114425e+002
         vertex 1.942433e+002 7.975817e+002 1.114425e+002
      endloop
   endfacet
   facet normal 0.000000e+000 0.000000e+000 -1.000000e+000
      outer loop
         vertex 1.942433e+002 7.975817e+002 1.114425e+002
         vertex 1.935632e+002 7.971055e+002 1.114425e+002
         vertex 1.911820e+002 7.964675e+002 1.114425e+002
      endloop
   endfacet
   facet normal 0.000000e+000 0.000000e+000 -1.000000e+000
      outer loop
         vertex 1.911820e+002 7.964675e+002 1.114425e+002
         vertex 1.935632e+002 7.971055e+002 1.114425e+002
         vertex 1.928109e+002 7.967547e+002 1.114425e+002
      endloop
   endfacet
   facet normal 0.000000e+000 0.000000e+000 -1.000000e+000
      outer loop
         vertex 1.911820e+002 7.964675e+002 1.114425e+002
         vertex 1.928109e+002 7.967547e+002 1.114425e+002
         vertex 1.920090e+002 7.965399e+002 1.114425e+002
      endloop
   endfacet
   facet normal 0.000000e+000 0.000000e+000 -1.000000e+000
      outer loop
         vertex 1.867067e+002 8.028589e+002 1.114425e+002
         vertex 1.870575e+002 8.036112e+002 1.114425e+002
         vertex 1.911820e+002 8.059925e+002 1.114425e+002
      endloop
   endfacet
   facet normal 0.000000e+000 0.000000e+000 -1.000000e+000
      outer loop
         vertex 1.911820e+002 8.059925e+002 1.114425e+002
         vertex 1.870575e+002 8.036112e+002 1.114425e+002
         vertex 1.875337e+002 8.042913e+002 1.114425e+002
      endloop
   endfacet
   facet normal 0.000000e+000 0.000000e+000 -1.000000e+000
      outer loop
         vertex 1.911820e+002 8.059925e+002 1.114425e+002
         vertex 1.875337e+002 8.042913e+002 1.114425e+002
         vertex 1.881207e+002 8.048783e+002 1.114425e+002
      endloop
   endfacet
   facet normal 0.000000e+000 0.000000e+000 -1.000000e+000
      outer loop
         vertex 1.881207e+002 8.048783e+002 1.114425e+002
         vertex 1.888007e+002 8.053544e+002 1.114425e+002
         vertex 1.911820e+002 8.059925e+002 1.114425e+002
      endloop
   endfacet
   facet normal 0.000000e+000 0.000000e+000 -1.000000e+000
      outer loop
         vertex 1.911820e+002 8.059925e+002 1.114425e+002
         vertex 1.888007e+002 8.053544e+002 1.114425e+002
         vertex 1.895531e+002 8.057053e+002 1.114425e+002
      endloop
   endfacet
   facet normal 0.000000e+000 0.000000e+000 -1.000000e+000
      outer loop
         vertex 1.911820e+002 8.059925e+002 1.114425e+002
         vertex 1.895531e+002 8.057053e+002 1.114425e+002
         vertex 1.903550e+002 8.059201e+002 1.114425e+002
      endloop
   endfacet
   facet normal 0.000000e+000 0.000000e+000 -1.000000e+000
      outer loop
         vertex 1.864918e+002 8.020569e+002 1.114425e+002
         vertex 1.911820e+002 8.059925e+002 1.114425e+002
         vertex 1.864195e+002 8.012300e+002 1.114425e+002
      endloop
   endfacet
   facet normal 0.000000e+000 0.000000e+000 -1.000000e+000
      outer loop
         vertex 1.864195e+002 8.012300e+002 1.114425e+002
         vertex 1.911820e+002 8.059925e+002 1.114425e+002
         vertex 1.920090e+002 8.059201e+002 1.114425e+002
      endloop
   endfacet
   facet normal 0.000000e+000 0.000000e+000 -1.000000e+000
      outer loop
         vertex 1.864195e+002 8.012300e+002 1.114425e+002
         vertex 1.920090e+002 8.059201e+002 1.114425e+002
         vertex 1.928109e+002 8.057053e+002 1.114425e+002
      endloop
   endfacet
endsolid