solid FPM - 700-LipTop-1 703-PlateBack-1
   facet normal 1.000000e+000 0.000000e+000 0.000000e+000
      outer loop
         vertex 2.688195e+002 1.168400e+003 5.178425e+002
         vertex 2.688195e+002 9.921000e+002 5.178425e+002
         vertex 2.688195e+002 1.168400e+003 1.876425e+002
      endloop
   endfacet
   facet normal 1.000000e+000 0.000000e+000 0.000000e+000
      outer loop
         vertex 2.688195e+002 1.168400e+003 1.876425e+002
         vertex 2.688195e+002 9.921000e+002 5.178425e+002
         vertex 2.688195e+002 9.921000e+002 1.876425e+002
      endloop
   endfacet
   facet normal 0.000000e+000 1.000000e+000 0.000000e+000
      outer loop
         vertex 2.673195e+002 1.168400e+003 5.178425e+002
         vertex 2.688195e+002 1.168400e+003 5.178425e+002
         vertex 2.673195e+002 1.168400e+003 1.876425e+002
      endloop
   endfacet
   facet normal 0.000000e+000 1.000000e+000 0.000000e+000
      outer loop
         vertex 2.673195e+002 1.168400e+003 1.876425e+002
         vertex 2.688195e+002 1.168400e+003 5.178425e+002
         vertex 2.688195e+002 1.168400e+003 1.876425e+002
      endloop
   endfacet
   facet normal -1.000000e+000 0.000000e+000 0.000000e+000
      outer loop
         vertex 2.673195e+002 9.921000e+002 5.178425e+002
         vertex 2.673195e+002 1.168400e+003 5.178425e+002
         vertex 2.673195e+002 9.921000e+002 1.876425e+002
      endloop
   endfacet
   facet normal -1.000000e+000 0.000000e+000 0.000000e+000
      outer loop
         vertex 2.673195e+002 9.921000e+002 1.876425e+002
         vertex 2.673195e+002 1.168400e+003 5.178425e+002
         vertex 2.673195e+002 1.168400e+003 1.876425e+002
      endloop
   endfacet
   facet normal 0.000000e+000 -1.000000e+000 0.000000e+000
      outer loop
         vertex 2.688195e+002 9.921000e+002 5.178425e+002
         vertex 2.673195e+002 9.921000e+002 5.178425e+002
         vertex 2.688195e+002 9.921000e+002 1.876425e+002
      endloop
   endfacet
   facet normal 0.000000e+000 -1.000000e+000 0.000000e+000
      outer loop
         vertex 2.688195e+002 9.921000e+002 1.876425e+002
         vertex 2.673195e+002 9.921000e+002 5.178425e+002
         vertex 2.673195e+002 9.921000e+002 1.876425e+002
      endloop
   endfacet
   facet normal 0.000000e+000 0.000000e+000 1.000000e+000
      outer loop
         vertex 2.673195e+002 1.168400e+003 5.178425e+002
         vertex 2.673195e+002 9.921000e+002 5.178425e+002
         vertex 2.688195e+002 1.168400e+003 5.178425e+002
      endloop
   endfacet
   facet normal 0.000000e+000 0.000000e+000 1.000000e+000
      outer loop
         vertex 2.688195e+002 1.168400e+003 5.178425e+002
         vertex 2.673195e+002 9.921000e+002 5.178425e+002
         vertex 2.688195e+002 9.921000e+002 5.178425e+002
      endloop
   endfacet
   facet normal 0.000000e+000 0.000000e+000 -1.000000e+000
      outer loop
         vertex 2.673195e+002 9.921000e+002 1.876425e+002
         vertex 2.673195e+002 1.168400e+003 1.876425e+002
         vertex 2.688195e+002 9.921000e+002 1.876425e+002
      endloop
   endfacet
   facet normal 0.000000e+000 0.000000e+000 -1.000000e+000
      outer loop
         vertex 2.688195e+002 9.921000e+002 1.876425e+002
         vertex 2.673195e+002 1.168400e+003 1.876425e+002
         vertex 2.688195e+002 1.168400e+003 1.876425e+002
      endloop
   endfacet
endsolid