solid CubeDouble - F0-1
   facet normal 0.000000e+000 1.000000e+000 1.224647e-016
      outer loop
         vertex 4.359096e+002 8.024045e+002 4.263444e+002
         vertex 4.234096e+002 8.024045e+002 4.138444e+002
         vertex 4.359096e+002 8.024045e+002 4.763444e+002
      endloop
   endfacet
   facet normal 0.000000e+000 1.000000e+000 1.224647e-016
      outer loop
         vertex 4.359096e+002 8.024045e+002 4.763444e+002
         vertex 4.234096e+002 8.024045e+002 4.138444e+002
         vertex 4.234096e+002 8.024045e+002 4.888444e+002
      endloop
   endfacet
   facet normal 0.000000e+000 1.000000e+000 1.224647e-016
      outer loop
         vertex 4.359096e+002 8.024045e+002 4.763444e+002
         vertex 4.234096e+002 8.024045e+002 4.888444e+002
         vertex 4.859096e+002 8.024045e+002 4.763444e+002
      endloop
   endfacet
   facet normal 0.000000e+000 1.000000e+000 1.224647e-016
      outer loop
         vertex 4.859096e+002 8.024045e+002 4.763444e+002
         vertex 4.234096e+002 8.024045e+002 4.888444e+002
         vertex 4.984096e+002 8.024045e+002 4.888444e+002
      endloop
   endfacet
   facet normal 0.000000e+000 1.000000e+000 1.224647e-016
      outer loop
         vertex 4.859096e+002 8.024045e+002 4.763444e+002
         vertex 4.984096e+002 8.024045e+002 4.888444e+002
         vertex 4.859096e+002 8.024045e+002 4.263444e+002
      endloop
   endfacet
   facet normal 0.000000e+000 1.000000e+000 1.224647e-016
      outer loop
         vertex 4.859096e+002 8.024045e+002 4.263444e+002
         vertex 4.984096e+002 8.024045e+002 4.888444e+002
         vertex 4.984096e+002 8.024045e+002 4.138444e+002
      endloop
   endfacet
   facet normal 0.000000e+000 1.000000e+000 1.224647e-016
      outer loop
         vertex 4.859096e+002 8.024045e+002 4.263444e+002
         vertex 4.984096e+002 8.024045e+002 4.138444e+002
         vertex 4.359096e+002 8.024045e+002 4.263444e+002
      endloop
   endfacet
   facet normal 0.000000e+000 1.000000e+000 1.224647e-016
      outer loop
         vertex 4.359096e+002 8.024045e+002 4.263444e+002
         vertex 4.984096e+002 8.024045e+002 4.138444e+002
         vertex 4.234096e+002 8.024045e+002 4.138444e+002
      endloop
   endfacet
   facet normal -1.000000e+000 0.000000e+000 0.000000e+000
      outer loop
         vertex 4.234096e+002 8.024045e+002 4.888444e+002
         vertex 4.234096e+002 8.024045e+002 4.138444e+002
         vertex 4.234096e+002 5.024044e+002 4.888444e+002
      endloop
   endfacet
   facet normal -1.000000e+000 0.000000e+000 0.000000e+000
      outer loop
         vertex 4.234096e+002 5.024044e+002 4.888444e+002
         vertex 4.234096e+002 8.024045e+002 4.138444e+002
         vertex 4.234096e+002 5.024044e+002 4.138444e+002
      endloop
   endfacet
   facet normal 0.000000e+000 -1.224647e-016 1.000000e+000
      outer loop
         vertex 4.984096e+002 8.024045e+002 4.888444e+002
         vertex 4.234096e+002 8.024045e+002 4.888444e+002
         vertex 4.984096e+002 5.024044e+002 4.888444e+002
      endloop
   endfacet
   facet normal 0.000000e+000 -1.224647e-016 1.000000e+000
      outer loop
         vertex 4.984096e+002 5.024044e+002 4.888444e+002
         vertex 4.234096e+002 8.024045e+002 4.888444e+002
         vertex 4.234096e+002 5.024044e+002 4.888444e+002
      endloop
   endfacet
   facet normal 1.000000e+000 0.000000e+000 0.000000e+000
      outer loop
         vertex 4.984096e+002 8.024045e+002 4.138444e+002
         vertex 4.984096e+002 8.024045e+002 4.888444e+002
         vertex 4.984096e+002 5.024044e+002 4.138444e+002
      endloop
   endfacet
   facet normal 1.000000e+000 0.000000e+000 0.000000e+000
      outer loop
         vertex 4.984096e+002 5.024044e+002 4.138444e+002
         vertex 4.984096e+002 8.024045e+002 4.888444e+002
         vertex 4.984096e+002 5.024044e+002 4.888444e+002
      endloop
   endfacet
   facet normal -9.251858e-017 1.224647e-016 -1.000000e+000
      outer loop
         vertex 4.234096e+002 8.024045e+002 4.138444e+002
         vertex 4.984096e+002 8.024045e+002 4.138444e+002
         vertex 4.234096e+002 5.024044e+002 4.138444e+002
      endloop
   endfacet
   facet normal -9.251858e-017 1.224647e-016 -1.000000e+000
      outer loop
         vertex 4.234096e+002 5.024044e+002 4.138444e+002
         vertex 4.984096e+002 8.024045e+002 4.138444e+002
         vertex 4.984096e+002 5.024044e+002 4.138444e+002
      endloop
   endfacet
   facet normal 0.000000e+000 -1.000000e+000 -1.224647e-016
      outer loop
         vertex 4.359096e+002 5.024044e+002 4.263444e+002
         vertex 4.234096e+002 5.024044e+002 4.138444e+002
         vertex 4.984096e+002 5.024044e+002 4.138444e+002
      endloop
   endfacet
   facet normal 0.000000e+000 -1.000000e+000 -1.224647e-016
      outer loop
         vertex 4.234096e+002 5.024044e+002 4.138444e+002
         vertex 4.359096e+002 5.024044e+002 4.263444e+002
         vertex 4.234096e+002 5.024044e+002 4.888444e+002
      endloop
   endfacet
   facet normal 0.000000e+000 -1.000000e+000 -1.224647e-016
      outer loop
         vertex 4.234096e+002 5.024044e+002 4.888444e+002
         vertex 4.359096e+002 5.024044e+002 4.263444e+002
         vertex 4.359096e+002 5.024044e+002 4.763444e+002
      endloop
   endfacet
   facet normal 0.000000e+000 -1.000000e+000 -1.224647e-016
      outer loop
         vertex 4.234096e+002 5.024044e+002 4.888444e+002
         vertex 4.359096e+002 5.024044e+002 4.763444e+002
         vertex 4.984096e+002 5.024044e+002 4.888444e+002
      endloop
   endfacet
   facet normal 0.000000e+000 -1.000000e+000 -1.224647e-016
      outer loop
         vertex 4.984096e+002 5.024044e+002 4.888444e+002
         vertex 4.359096e+002 5.024044e+002 4.763444e+002
         vertex 4.859096e+002 5.024044e+002 4.763444e+002
      endloop
   endfacet
   facet normal 0.000000e+000 -1.000000e+000 -1.224647e-016
      outer loop
         vertex 4.984096e+002 5.024044e+002 4.888444e+002
         vertex 4.859096e+002 5.024044e+002 4.763444e+002
         vertex 4.984096e+002 5.024044e+002 4.138444e+002
      endloop
   endfacet
   facet normal 0.000000e+000 -1.000000e+000 -1.224647e-016
      outer loop
         vertex 4.984096e+002 5.024044e+002 4.138444e+002
         vertex 4.859096e+002 5.024044e+002 4.763444e+002
         vertex 4.859096e+002 5.024044e+002 4.263444e+002
      endloop
   endfacet
   facet normal 0.000000e+000 -1.000000e+000 -1.224647e-016
      outer loop
         vertex 4.984096e+002 5.024044e+002 4.138444e+002
         vertex 4.859096e+002 5.024044e+002 4.263444e+002
         vertex 4.359096e+002 5.024044e+002 4.263444e+002
      endloop
   endfacet
   facet normal -1.000000e+000 0.000000e+000 0.000000e+000
      outer loop
         vertex 4.359096e+002 8.224045e+002 4.763444e+002
         vertex 4.359096e+002 8.224045e+002 4.263444e+002
         vertex 4.359096e+002 8.024045e+002 4.763444e+002
      endloop
   endfacet
   facet normal -1.000000e+000 0.000000e+000 0.000000e+000
      outer loop
         vertex 4.359096e+002 8.024045e+002 4.763444e+002
         vertex 4.359096e+002 8.224045e+002 4.263444e+002
         vertex 4.359096e+002 8.024045e+002 4.263444e+002
      endloop
   endfacet
   facet normal 1.387779e-016 -1.224647e-016 1.000000e+000
      outer loop
         vertex 4.859096e+002 8.224045e+002 4.763444e+002
         vertex 4.359096e+002 8.224045e+002 4.763444e+002
         vertex 4.859096e+002 8.024045e+002 4.763444e+002
      endloop
   endfacet
   facet normal 1.387779e-016 -1.224647e-016 1.000000e+000
      outer loop
         vertex 4.859096e+002 8.024045e+002 4.763444e+002
         vertex 4.359096e+002 8.224045e+002 4.763444e+002
         vertex 4.359096e+002 8.024045e+002 4.763444e+002
      endloop
   endfacet
   facet normal 1.000000e+000 0.000000e+000 0.000000e+000
      outer loop
         vertex 4.859096e+002 8.224045e+002 4.263444e+002
         vertex 4.859096e+002 8.224045e+002 4.763444e+002
         vertex 4.859096e+002 8.024045e+002 4.263444e+002
      endloop
   endfacet
   facet normal 1.000000e+000 0.000000e+000 0.000000e+000
      outer loop
         vertex 4.859096e+002 8.024045e+002 4.263444e+002
         vertex 4.859096e+002 8.224045e+002 4.763444e+002
         vertex 4.859096e+002 8.024045e+002 4.763444e+002
      endloop
   endfacet
   facet normal -1.387779e-016 1.224647e-016 -1.000000e+000
      outer loop
         vertex 4.359096e+002 8.224045e+002 4.263444e+002
         vertex 4.859096e+002 8.224045e+002 4.263444e+002
         vertex 4.359096e+002 8.024045e+002 4.263444e+002
      endloop
   endfacet
   facet normal -1.387779e-016 1.224647e-016 -1.000000e+000
      outer loop
         vertex 4.359096e+002 8.024045e+002 4.263444e+002
         vertex 4.859096e+002 8.224045e+002 4.263444e+002
         vertex 4.859096e+002 8.024045e+002 4.263444e+002
      endloop
   endfacet
   facet normal 0.000000e+000 1.000000e+000 1.224647e-016
      outer loop
         vertex 4.859096e+002 8.224045e+002 4.763444e+002
         vertex 4.859096e+002 8.224045e+002 4.263444e+002
         vertex 4.359096e+002 8.224045e+002 4.763444e+002
      endloop
   endfacet
   facet normal 0.000000e+000 1.000000e+000 1.224647e-016
      outer loop
         vertex 4.359096e+002 8.224045e+002 4.763444e+002
         vertex 4.859096e+002 8.224045e+002 4.263444e+002
         vertex 4.359096e+002 8.224045e+002 4.263444e+002
      endloop
   endfacet
   facet normal -1.000000e+000 0.000000e+000 0.000000e+000
      outer loop
         vertex 4.359096e+002 4.824045e+002 4.263444e+002
         vertex 4.359096e+002 4.824045e+002 4.763444e+002
         vertex 4.359096e+002 5.024044e+002 4.263444e+002
      endloop
   endfacet
   facet normal -1.000000e+000 0.000000e+000 0.000000e+000
      outer loop
         vertex 4.359096e+002 5.024044e+002 4.263444e+002
         vertex 4.359096e+002 4.824045e+002 4.763444e+002
         vertex 4.359096e+002 5.024044e+002 4.763444e+002
      endloop
   endfacet
   facet normal -1.387779e-016 1.224647e-016 -1.000000e+000
      outer loop
         vertex 4.859096e+002 4.824045e+002 4.263444e+002
         vertex 4.359096e+002 4.824045e+002 4.263444e+002
         vertex 4.859096e+002 5.024044e+002 4.263444e+002
      endloop
   endfacet
   facet normal -1.387779e-016 1.224647e-016 -1.000000e+000
      outer loop
         vertex 4.859096e+002 5.024044e+002 4.263444e+002
         vertex 4.359096e+002 4.824045e+002 4.263444e+002
         vertex 4.359096e+002 5.024044e+002 4.263444e+002
      endloop
   endfacet
   facet normal 1.000000e+000 0.000000e+000 0.000000e+000
      outer loop
         vertex 4.859096e+002 4.824045e+002 4.763444e+002
         vertex 4.859096e+002 4.824045e+002 4.263444e+002
         vertex 4.859096e+002 5.024044e+002 4.763444e+002
      endloop
   endfacet
   facet normal 1.000000e+000 0.000000e+000 0.000000e+000
      outer loop
         vertex 4.859096e+002 5.024044e+002 4.763444e+002
         vertex 4.859096e+002 4.824045e+002 4.263444e+002
         vertex 4.859096e+002 5.024044e+002 4.263444e+002
      endloop
   endfacet
   facet normal 1.387779e-016 -1.224647e-016 1.000000e+000
      outer loop
         vertex 4.359096e+002 4.824045e+002 4.763444e+002
         vertex 4.859096e+002 4.824045e+002 4.763444e+002
         vertex 4.359096e+002 5.024044e+002 4.763444e+002
      endloop
   endfacet
   facet normal 1.387779e-016 -1.224647e-016 1.000000e+000
      outer loop
         vertex 4.359096e+002 5.024044e+002 4.763444e+002
         vertex 4.859096e+002 4.824045e+002 4.763444e+002
         vertex 4.859096e+002 5.024044e+002 4.763444e+002
      endloop
   endfacet
   facet normal 0.000000e+000 -1.000000e+000 -1.224647e-016
      outer loop
         vertex 4.859096e+002 4.824045e+002 4.263444e+002
         vertex 4.859096e+002 4.824045e+002 4.763444e+002
         vertex 4.359096e+002 4.824045e+002 4.263444e+002
      endloop
   endfacet
   facet normal 0.000000e+000 -1.000000e+000 -1.224647e-016
      outer loop
         vertex 4.359096e+002 4.824045e+002 4.263444e+002
         vertex 4.859096e+002 4.824045e+002 4.763444e+002
         vertex 4.359096e+002 4.824045e+002 4.763444e+002
      endloop
   endfacet
endsolid