solid CubeDouble - cube-3 KHL0-1
   facet normal 0.000000e+000 1.000000e+000 0.000000e+000
      outer loop
         vertex 4.859096e+002 2.740447e+001 4.763444e+002
         vertex 5.109096e+002 2.740447e+001 4.763444e+002
         vertex 4.859096e+002 2.740447e+001 4.263444e+002
      endloop
   endfacet
   facet normal 0.000000e+000 1.000000e+000 0.000000e+000
      outer loop
         vertex 4.859096e+002 2.740447e+001 4.263444e+002
         vertex 5.109096e+002 2.740447e+001 4.763444e+002
         vertex 5.109096e+002 2.740447e+001 4.263444e+002
      endloop
   endfacet
   facet normal 0.000000e+000 1.000000e+000 0.000000e+000
      outer loop
         vertex 4.359096e+002 2.740447e+001 4.763444e+002
         vertex 4.359096e+002 2.740447e+001 5.013444e+002
         vertex 4.859096e+002 2.740447e+001 4.763444e+002
      endloop
   endfacet
   facet normal 0.000000e+000 1.000000e+000 0.000000e+000
      outer loop
         vertex 4.859096e+002 2.740447e+001 4.763444e+002
         vertex 4.359096e+002 2.740447e+001 5.013444e+002
         vertex 4.859096e+002 2.740447e+001 5.013444e+002
      endloop
   endfacet
   facet normal 0.000000e+000 1.000000e+000 0.000000e+000
      outer loop
         vertex 4.359096e+002 2.740447e+001 4.263444e+002
         vertex 4.109097e+002 2.740447e+001 4.263444e+002
         vertex 4.359096e+002 2.740447e+001 4.763444e+002
      endloop
   endfacet
   facet normal 0.000000e+000 1.000000e+000 0.000000e+000
      outer loop
         vertex 4.359096e+002 2.740447e+001 4.763444e+002
         vertex 4.109097e+002 2.740447e+001 4.263444e+002
         vertex 4.109097e+002 2.740447e+001 4.763444e+002
      endloop
   endfacet
   facet normal 0.000000e+000 -1.000000e+000 0.000000e+000
      outer loop
         vertex 4.859096e+002 7.740447e+001 4.263444e+002
         vertex 5.109096e+002 7.740447e+001 4.263444e+002
         vertex 4.859096e+002 7.740447e+001 4.763444e+002
      endloop
   endfacet
   facet normal 0.000000e+000 -1.000000e+000 0.000000e+000
      outer loop
         vertex 4.859096e+002 7.740447e+001 4.763444e+002
         vertex 5.109096e+002 7.740447e+001 4.263444e+002
         vertex 5.109096e+002 7.740447e+001 4.763444e+002
      endloop
   endfacet
   facet normal 0.000000e+000 -1.000000e+000 0.000000e+000
      outer loop
         vertex 4.859096e+002 7.740447e+001 4.763444e+002
         vertex 4.859096e+002 7.740447e+001 5.013444e+002
         vertex 4.359096e+002 7.740447e+001 4.763444e+002
      endloop
   endfacet
   facet normal 0.000000e+000 -1.000000e+000 0.000000e+000
      outer loop
         vertex 4.359096e+002 7.740447e+001 4.763444e+002
         vertex 4.859096e+002 7.740447e+001 5.013444e+002
         vertex 4.359096e+002 7.740447e+001 5.013444e+002
      endloop
   endfacet
   facet normal 0.000000e+000 -1.000000e+000 0.000000e+000
      outer loop
         vertex 4.359096e+002 7.740447e+001 4.763444e+002
         vertex 4.109097e+002 7.740447e+001 4.763444e+002
         vertex 4.359096e+002 7.740447e+001 4.263444e+002
      endloop
   endfacet
   facet normal 0.000000e+000 -1.000000e+000 0.000000e+000
      outer loop
         vertex 4.359096e+002 7.740447e+001 4.263444e+002
         vertex 4.109097e+002 7.740447e+001 4.763444e+002
         vertex 4.109097e+002 7.740447e+001 4.263444e+002
      endloop
   endfacet
   facet normal -1.000000e+000 0.000000e+000 0.000000e+000
      outer loop
         vertex 4.859096e+002 7.740447e+001 4.263444e+002
         vertex 4.859096e+002 7.740447e+001 4.013444e+002
         vertex 4.859096e+002 2.740447e+001 4.263444e+002
      endloop
   endfacet
   facet normal -1.000000e+000 0.000000e+000 0.000000e+000
      outer loop
         vertex 4.859096e+002 2.740447e+001 4.263444e+002
         vertex 4.859096e+002 7.740447e+001 4.013444e+002
         vertex 4.859096e+002 2.740447e+001 4.013444e+002
      endloop
   endfacet
   facet normal 1.000000e+000 0.000000e+000 0.000000e+000
      outer loop
         vertex 4.359096e+002 2.740447e+001 4.263444e+002
         vertex 4.359096e+002 2.740447e+001 4.013444e+002
         vertex 4.359096e+002 7.740447e+001 4.263444e+002
      endloop
   endfacet
   facet normal 1.000000e+000 0.000000e+000 0.000000e+000
      outer loop
         vertex 4.359096e+002 7.740447e+001 4.263444e+002
         vertex 4.359096e+002 2.740447e+001 4.013444e+002
         vertex 4.359096e+002 7.740447e+001 4.013444e+002
      endloop
   endfacet
   facet normal 1.000000e+000 0.000000e+000 0.000000e+000
      outer loop
         vertex 5.109096e+002 7.740447e+001 4.263444e+002
         vertex 5.109096e+002 1.024045e+002 4.013444e+002
         vertex 5.109096e+002 1.024045e+002 5.013444e+002
      endloop
   endfacet
   facet normal 1.000000e+000 0.000000e+000 0.000000e+000
      outer loop
         vertex 5.109096e+002 1.024045e+002 4.013444e+002
         vertex 5.109096e+002 7.740447e+001 4.263444e+002
         vertex 5.109096e+002 2.404471e+000 4.013444e+002
      endloop
   endfacet
   facet normal 1.000000e+000 0.000000e+000 0.000000e+000
      outer loop
         vertex 5.109096e+002 2.404471e+000 4.013444e+002
         vertex 5.109096e+002 7.740447e+001 4.263444e+002
         vertex 5.109096e+002 2.740447e+001 4.263444e+002
      endloop
   endfacet
   facet normal 1.000000e+000 0.000000e+000 0.000000e+000
      outer loop
         vertex 5.109096e+002 2.404471e+000 4.013444e+002
         vertex 5.109096e+002 2.740447e+001 4.263444e+002
         vertex 5.109096e+002 2.404471e+000 5.013444e+002
      endloop
   endfacet
   facet normal 1.000000e+000 0.000000e+000 0.000000e+000
      outer loop
         vertex 5.109096e+002 2.404471e+000 5.013444e+002
         vertex 5.109096e+002 2.740447e+001 4.263444e+002
         vertex 5.109096e+002 2.740447e+001 4.763444e+002
      endloop
   endfacet
   facet normal 1.000000e+000 0.000000e+000 0.000000e+000
      outer loop
         vertex 5.109096e+002 2.404471e+000 5.013444e+002
         vertex 5.109096e+002 2.740447e+001 4.763444e+002
         vertex 5.109096e+002 1.024045e+002 5.013444e+002
      endloop
   endfacet
   facet normal 1.000000e+000 0.000000e+000 0.000000e+000
      outer loop
         vertex 5.109096e+002 1.024045e+002 5.013444e+002
         vertex 5.109096e+002 2.740447e+001 4.763444e+002
         vertex 5.109096e+002 7.740447e+001 4.763444e+002
      endloop
   endfacet
   facet normal 1.000000e+000 0.000000e+000 0.000000e+000
      outer loop
         vertex 5.109096e+002 1.024045e+002 5.013444e+002
         vertex 5.109096e+002 7.740447e+001 4.763444e+002
         vertex 5.109096e+002 7.740447e+001 4.263444e+002
      endloop
   endfacet
   facet normal 0.000000e+000 1.000000e+000 0.000000e+000
      outer loop
         vertex 4.359096e+002 1.024045e+002 4.263444e+002
         vertex 4.109097e+002 1.024045e+002 4.013444e+002
         vertex 4.359096e+002 1.024045e+002 4.763444e+002
      endloop
   endfacet
   facet normal 0.000000e+000 1.000000e+000 0.000000e+000
      outer loop
         vertex 4.359096e+002 1.024045e+002 4.763444e+002
         vertex 4.109097e+002 1.024045e+002 4.013444e+002
         vertex 4.109097e+002 1.024045e+002 5.013444e+002
      endloop
   endfacet
   facet normal 0.000000e+000 1.000000e+000 0.000000e+000
      outer loop
         vertex 4.359096e+002 1.024045e+002 4.763444e+002
         vertex 4.109097e+002 1.024045e+002 5.013444e+002
         vertex 4.859096e+002 1.024045e+002 4.763444e+002
      endloop
   endfacet
   facet normal 0.000000e+000 1.000000e+000 0.000000e+000
      outer loop
         vertex 4.859096e+002 1.024045e+002 4.763444e+002
         vertex 4.109097e+002 1.024045e+002 5.013444e+002
         vertex 5.109096e+002 1.024045e+002 5.013444e+002
      endloop
   endfacet
   facet normal 0.000000e+000 1.000000e+000 0.000000e+000
      outer loop
         vertex 4.859096e+002 1.024045e+002 4.763444e+002
         vertex 5.109096e+002 1.024045e+002 5.013444e+002
         vertex 4.859096e+002 1.024045e+002 4.263444e+002
      endloop
   endfacet
   facet normal 0.000000e+000 1.000000e+000 0.000000e+000
      outer loop
         vertex 4.859096e+002 1.024045e+002 4.263444e+002
         vertex 5.109096e+002 1.024045e+002 5.013444e+002
         vertex 5.109096e+002 1.024045e+002 4.013444e+002
      endloop
   endfacet
   facet normal 0.000000e+000 1.000000e+000 0.000000e+000
      outer loop
         vertex 4.859096e+002 1.024045e+002 4.263444e+002
         vertex 5.109096e+002 1.024045e+002 4.013444e+002
         vertex 4.359096e+002 1.024045e+002 4.263444e+002
      endloop
   endfacet
   facet normal 0.000000e+000 1.000000e+000 0.000000e+000
      outer loop
         vertex 4.359096e+002 1.024045e+002 4.263444e+002
         vertex 5.109096e+002 1.024045e+002 4.013444e+002
         vertex 4.109097e+002 1.024045e+002 4.013444e+002
      endloop
   endfacet
   facet normal -1.000000e+000 0.000000e+000 0.000000e+000
      outer loop
         vertex 4.109097e+002 7.740447e+001 4.763444e+002
         vertex 4.109097e+002 1.024045e+002 5.013444e+002
         vertex 4.109097e+002 7.740447e+001 4.263444e+002
      endloop
   endfacet
   facet normal -1.000000e+000 0.000000e+000 0.000000e+000
      outer loop
         vertex 4.109097e+002 7.740447e+001 4.263444e+002
         vertex 4.109097e+002 1.024045e+002 5.013444e+002
         vertex 4.109097e+002 1.024045e+002 4.013444e+002
      endloop
   endfacet
   facet normal -1.000000e+000 0.000000e+000 0.000000e+000
      outer loop
         vertex 4.109097e+002 7.740447e+001 4.263444e+002
         vertex 4.109097e+002 1.024045e+002 4.013444e+002
         vertex 4.109097e+002 2.740447e+001 4.263444e+002
      endloop
   endfacet
   facet normal -1.000000e+000 0.000000e+000 0.000000e+000
      outer loop
         vertex 4.109097e+002 2.740447e+001 4.263444e+002
         vertex 4.109097e+002 1.024045e+002 4.013444e+002
         vertex 4.109097e+002 2.404471e+000 4.013444e+002
      endloop
   endfacet
   facet normal -1.000000e+000 0.000000e+000 0.000000e+000
      outer loop
         vertex 4.109097e+002 2.740447e+001 4.263444e+002
         vertex 4.109097e+002 2.404471e+000 4.013444e+002
         vertex 4.109097e+002 2.740447e+001 4.763444e+002
      endloop
   endfacet
   facet normal -1.000000e+000 0.000000e+000 0.000000e+000
      outer loop
         vertex 4.109097e+002 2.740447e+001 4.763444e+002
         vertex 4.109097e+002 2.404471e+000 4.013444e+002
         vertex 4.109097e+002 2.404471e+000 5.013444e+002
      endloop
   endfacet
   facet normal -1.000000e+000 0.000000e+000 0.000000e+000
      outer loop
         vertex 4.109097e+002 2.740447e+001 4.763444e+002
         vertex 4.109097e+002 2.404471e+000 5.013444e+002
         vertex 4.109097e+002 7.740447e+001 4.763444e+002
      endloop
   endfacet
   facet normal -1.000000e+000 0.000000e+000 0.000000e+000
      outer loop
         vertex 4.109097e+002 7.740447e+001 4.763444e+002
         vertex 4.109097e+002 2.404471e+000 5.013444e+002
         vertex 4.109097e+002 1.024045e+002 5.013444e+002
      endloop
   endfacet
   facet normal 0.000000e+000 -1.000000e+000 0.000000e+000
      outer loop
         vertex 4.359096e+002 2.404471e+000 4.763444e+002
         vertex 4.109097e+002 2.404471e+000 5.013444e+002
         vertex 4.359096e+002 2.404471e+000 4.263444e+002
      endloop
   endfacet
   facet normal 0.000000e+000 -1.000000e+000 0.000000e+000
      outer loop
         vertex 4.359096e+002 2.404471e+000 4.263444e+002
         vertex 4.109097e+002 2.404471e+000 5.013444e+002
         vertex 4.109097e+002 2.404471e+000 4.013444e+002
      endloop
   endfacet
   facet normal 0.000000e+000 -1.000000e+000 0.000000e+000
      outer loop
         vertex 4.359096e+002 2.404471e+000 4.263444e+002
         vertex 4.109097e+002 2.404471e+000 4.013444e+002
         vertex 4.859096e+002 2.404471e+000 4.263444e+002
      endloop
   endfacet
   facet normal 0.000000e+000 -1.000000e+000 0.000000e+000
      outer loop
         vertex 4.859096e+002 2.404471e+000 4.263444e+002
         vertex 4.109097e+002 2.404471e+000 4.013444e+002
         vertex 5.109096e+002 2.404471e+000 4.013444e+002
      endloop
   endfacet
   facet normal 0.000000e+000 -1.000000e+000 0.000000e+000
      outer loop
         vertex 4.859096e+002 2.404471e+000 4.263444e+002
         vertex 5.109096e+002 2.404471e+000 4.013444e+002
         vertex 4.859096e+002 2.404471e+000 4.763444e+002
      endloop
   endfacet
   facet normal 0.000000e+000 -1.000000e+000 0.000000e+000
      outer loop
         vertex 4.859096e+002 2.404471e+000 4.763444e+002
         vertex 5.109096e+002 2.404471e+000 4.013444e+002
         vertex 5.109096e+002 2.404471e+000 5.013444e+002
      endloop
   endfacet
   facet normal 0.000000e+000 -1.000000e+000 0.000000e+000
      outer loop
         vertex 4.859096e+002 2.404471e+000 4.763444e+002
         vertex 5.109096e+002 2.404471e+000 5.013444e+002
         vertex 4.359096e+002 2.404471e+000 4.763444e+002
      endloop
   endfacet
   facet normal 0.000000e+000 -1.000000e+000 0.000000e+000
      outer loop
         vertex 4.359096e+002 2.404471e+000 4.763444e+002
         vertex 5.109096e+002 2.404471e+000 5.013444e+002
         vertex 4.109097e+002 2.404471e+000 5.013444e+002
      endloop
   endfacet
   facet normal 0.000000e+000 0.000000e+000 1.000000e+000
      outer loop
         vertex 4.859096e+002 7.740447e+001 5.013444e+002
         vertex 5.109096e+002 1.024045e+002 5.013444e+002
         vertex 4.109097e+002 1.024045e+002 5.013444e+002
      endloop
   endfacet
   facet normal 0.000000e+000 0.000000e+000 1.000000e+000
      outer loop
         vertex 5.109096e+002 1.024045e+002 5.013444e+002
         vertex 4.859096e+002 7.740447e+001 5.013444e+002
         vertex 5.109096e+002 2.404471e+000 5.013444e+002
      endloop
   endfacet
   facet normal 0.000000e+000 0.000000e+000 1.000000e+000
      outer loop
         vertex 5.109096e+002 2.404471e+000 5.013444e+002
         vertex 4.859096e+002 7.740447e+001 5.013444e+002
         vertex 4.859096e+002 2.740447e+001 5.013444e+002
      endloop
   endfacet
   facet normal 0.000000e+000 0.000000e+000 1.000000e+000
      outer loop
         vertex 5.109096e+002 2.404471e+000 5.013444e+002
         vertex 4.859096e+002 2.740447e+001 5.013444e+002
         vertex 4.109097e+002 2.404471e+000 5.013444e+002
      endloop
   endfacet
   facet normal 0.000000e+000 0.000000e+000 1.000000e+000
      outer loop
         vertex 4.109097e+002 2.404471e+000 5.013444e+002
         vertex 4.859096e+002 2.740447e+001 5.013444e+002
         vertex 4.359096e+002 2.740447e+001 5.013444e+002
      endloop
   endfacet
   facet normal 0.000000e+000 0.000000e+000 1.000000e+000
      outer loop
         vertex 4.109097e+002 2.404471e+000 5.013444e+002
         vertex 4.359096e+002 2.740447e+001 5.013444e+002
         vertex 4.109097e+002 1.024045e+002 5.013444e+002
      endloop
   endfacet
   facet normal 0.000000e+000 0.000000e+000 1.000000e+000
      outer loop
         vertex 4.109097e+002 1.024045e+002 5.013444e+002
         vertex 4.359096e+002 2.740447e+001 5.013444e+002
         vertex 4.359096e+002 7.740447e+001 5.013444e+002
      endloop
   endfacet
   facet normal 0.000000e+000 0.000000e+000 1.000000e+000
      outer loop
         vertex 4.109097e+002 1.024045e+002 5.013444e+002
         vertex 4.359096e+002 7.740447e+001 5.013444e+002
         vertex 4.859096e+002 7.740447e+001 5.013444e+002
      endloop
   endfacet
   facet normal 0.000000e+000 0.000000e+000 -1.000000e+000
      outer loop
         vertex 4.859096e+002 2.740447e+001 4.013444e+002
         vertex 5.109096e+002 2.404471e+000 4.013444e+002
         vertex 4.359096e+002 2.740447e+001 4.013444e+002
      endloop
   endfacet
   facet normal 0.000000e+000 0.000000e+000 -1.000000e+000
      outer loop
         vertex 4.359096e+002 2.740447e+001 4.013444e+002
         vertex 5.109096e+002 2.404471e+000 4.013444e+002
         vertex 4.109097e+002 2.404471e+000 4.013444e+002
      endloop
   endfacet
   facet normal 0.000000e+000 0.000000e+000 -1.000000e+000
      outer loop
         vertex 4.359096e+002 2.740447e+001 4.013444e+002
         vertex 4.109097e+002 2.404471e+000 4.013444e+002
         vertex 4.359096e+002 7.740447e+001 4.013444e+002
      endloop
   endfacet
   facet normal 0.000000e+000 0.000000e+000 -1.000000e+000
      outer loop
         vertex 4.359096e+002 7.740447e+001 4.013444e+002
         vertex 4.109097e+002 2.404471e+000 4.013444e+002
         vertex 4.109097e+002 1.024045e+002 4.013444e+002
      endloop
   endfacet
   facet normal 0.000000e+000 0.000000e+000 -1.000000e+000
      outer loop
         vertex 4.359096e+002 7.740447e+001 4.013444e+002
         vertex 4.109097e+002 1.024045e+002 4.013444e+002
         vertex 4.859096e+002 7.740447e+001 4.013444e+002
      endloop
   endfacet
   facet normal 0.000000e+000 0.000000e+000 -1.000000e+000
      outer loop
         vertex 4.859096e+002 7.740447e+001 4.013444e+002
         vertex 4.109097e+002 1.024045e+002 4.013444e+002
         vertex 5.109096e+002 1.024045e+002 4.013444e+002
      endloop
   endfacet
   facet normal 0.000000e+000 0.000000e+000 -1.000000e+000
      outer loop
         vertex 4.859096e+002 7.740447e+001 4.013444e+002
         vertex 5.109096e+002 1.024045e+002 4.013444e+002
         vertex 4.859096e+002 2.740447e+001 4.013444e+002
      endloop
   endfacet
   facet normal 0.000000e+000 0.000000e+000 -1.000000e+000
      outer loop
         vertex 4.859096e+002 2.740447e+001 4.013444e+002
         vertex 5.109096e+002 1.024045e+002 4.013444e+002
         vertex 5.109096e+002 2.404471e+000 4.013444e+002
      endloop
   endfacet
   facet normal -1.000000e+000 0.000000e+000 0.000000e+000
      outer loop
         vertex 4.859096e+002 2.740447e+001 4.763444e+002
         vertex 4.859096e+002 2.740447e+001 5.013444e+002
         vertex 4.859096e+002 7.740447e+001 4.763444e+002
      endloop
   endfacet
   facet normal -1.000000e+000 0.000000e+000 0.000000e+000
      outer loop
         vertex 4.859096e+002 7.740447e+001 4.763444e+002
         vertex 4.859096e+002 2.740447e+001 5.013444e+002
         vertex 4.859096e+002 7.740447e+001 5.013444e+002
      endloop
   endfacet
   facet normal 0.000000e+000 1.000000e+000 0.000000e+000
      outer loop
         vertex 4.859096e+002 2.740447e+001 4.263444e+002
         vertex 4.859096e+002 2.740447e+001 4.013444e+002
         vertex 4.359096e+002 2.740447e+001 4.263444e+002
      endloop
   endfacet
   facet normal 0.000000e+000 1.000000e+000 0.000000e+000
      outer loop
         vertex 4.359096e+002 2.740447e+001 4.263444e+002
         vertex 4.859096e+002 2.740447e+001 4.013444e+002
         vertex 4.359096e+002 2.740447e+001 4.013444e+002
      endloop
   endfacet
   facet normal 1.000000e+000 0.000000e+000 0.000000e+000
      outer loop
         vertex 4.359096e+002 7.740447e+001 4.763444e+002
         vertex 4.359096e+002 7.740447e+001 5.013444e+002
         vertex 4.359096e+002 2.740447e+001 4.763444e+002
      endloop
   endfacet
   facet normal 1.000000e+000 0.000000e+000 0.000000e+000
      outer loop
         vertex 4.359096e+002 2.740447e+001 4.763444e+002
         vertex 4.359096e+002 7.740447e+001 5.013444e+002
         vertex 4.359096e+002 2.740447e+001 5.013444e+002
      endloop
   endfacet
   facet normal 0.000000e+000 -1.000000e+000 0.000000e+000
      outer loop
         vertex 4.359096e+002 7.740447e+001 4.263444e+002
         vertex 4.359096e+002 7.740447e+001 4.013444e+002
         vertex 4.859096e+002 7.740447e+001 4.263444e+002
      endloop
   endfacet
   facet normal 0.000000e+000 -1.000000e+000 0.000000e+000
      outer loop
         vertex 4.859096e+002 7.740447e+001 4.263444e+002
         vertex 4.359096e+002 7.740447e+001 4.013444e+002
         vertex 4.859096e+002 7.740447e+001 4.013444e+002
      endloop
   endfacet
   facet normal 0.000000e+000 -1.387779e-016 -1.000000e+000
      outer loop
         vertex 4.109097e+002 7.740447e+001 4.763444e+002
         vertex 4.359096e+002 7.740447e+001 4.763444e+002
         vertex 4.109097e+002 2.740447e+001 4.763444e+002
      endloop
   endfacet
   facet normal 0.000000e+000 -1.387779e-016 -1.000000e+000
      outer loop
         vertex 4.109097e+002 2.740447e+001 4.763444e+002
         vertex 4.359096e+002 7.740447e+001 4.763444e+002
         vertex 4.359096e+002 2.740447e+001 4.763444e+002
      endloop
   endfacet
   facet normal 0.000000e+000 1.387779e-016 1.000000e+000
      outer loop
         vertex 4.109097e+002 2.740447e+001 4.263444e+002
         vertex 4.359096e+002 2.740447e+001 4.263444e+002
         vertex 4.109097e+002 7.740447e+001 4.263444e+002
      endloop
   endfacet
   facet normal 0.000000e+000 1.387779e-016 1.000000e+000
      outer loop
         vertex 4.109097e+002 7.740447e+001 4.263444e+002
         vertex 4.359096e+002 2.740447e+001 4.263444e+002
         vertex 4.359096e+002 7.740447e+001 4.263444e+002
      endloop
   endfacet
   facet normal 0.000000e+000 1.387779e-016 1.000000e+000
      outer loop
         vertex 5.109096e+002 7.740447e+001 4.263444e+002
         vertex 4.859096e+002 7.740447e+001 4.263444e+002
         vertex 5.109096e+002 2.740447e+001 4.263444e+002
      endloop
   endfacet
   facet normal 0.000000e+000 1.387779e-016 1.000000e+000
      outer loop
         vertex 5.109096e+002 2.740447e+001 4.263444e+002
         vertex 4.859096e+002 7.740447e+001 4.263444e+002
         vertex 4.859096e+002 2.740447e+001 4.263444e+002
      endloop
   endfacet
   facet normal 0.000000e+000 -1.387779e-016 -1.000000e+000
      outer loop
         vertex 5.109096e+002 2.740447e+001 4.763444e+002
         vertex 4.859096e+002 2.740447e+001 4.763444e+002
         vertex 5.109096e+002 7.740447e+001 4.763444e+002
      endloop
   endfacet
   facet normal 0.000000e+000 -1.387779e-016 -1.000000e+000
      outer loop
         vertex 5.109096e+002 7.740447e+001 4.763444e+002
         vertex 4.859096e+002 2.740447e+001 4.763444e+002
         vertex 4.859096e+002 7.740447e+001 4.763444e+002
      endloop
   endfacet
   facet normal 0.000000e+000 0.000000e+000 1.000000e+000
      outer loop
         vertex 4.359096e+002 1.024045e+002 4.263444e+002
         vertex 4.359096e+002 7.740447e+001 4.263444e+002
         vertex 4.859096e+002 1.024045e+002 4.263444e+002
      endloop
   endfacet
   facet normal 0.000000e+000 0.000000e+000 1.000000e+000
      outer loop
         vertex 4.859096e+002 1.024045e+002 4.263444e+002
         vertex 4.359096e+002 7.740447e+001 4.263444e+002
         vertex 4.859096e+002 7.740447e+001 4.263444e+002
      endloop
   endfacet
   facet normal 1.000000e+000 0.000000e+000 0.000000e+000
      outer loop
         vertex 4.359096e+002 1.024045e+002 4.763444e+002
         vertex 4.359096e+002 7.740447e+001 4.763444e+002
         vertex 4.359096e+002 1.024045e+002 4.263444e+002
      endloop
   endfacet
   facet normal 1.000000e+000 0.000000e+000 0.000000e+000
      outer loop
         vertex 4.359096e+002 1.024045e+002 4.263444e+002
         vertex 4.359096e+002 7.740447e+001 4.763444e+002
         vertex 4.359096e+002 7.740447e+001 4.263444e+002
      endloop
   endfacet
   facet normal 0.000000e+000 0.000000e+000 -1.000000e+000
      outer loop
         vertex 4.859096e+002 1.024045e+002 4.763444e+002
         vertex 4.859096e+002 7.740447e+001 4.763444e+002
         vertex 4.359096e+002 1.024045e+002 4.763444e+002
      endloop
   endfacet
   facet normal 0.000000e+000 0.000000e+000 -1.000000e+000
      outer loop
         vertex 4.359096e+002 1.024045e+002 4.763444e+002
         vertex 4.859096e+002 7.740447e+001 4.763444e+002
         vertex 4.359096e+002 7.740447e+001 4.763444e+002
      endloop
   endfacet
   facet normal -1.000000e+000 0.000000e+000 0.000000e+000
      outer loop
         vertex 4.859096e+002 1.024045e+002 4.263444e+002
         vertex 4.859096e+002 7.740447e+001 4.263444e+002
         vertex 4.859096e+002 1.024045e+002 4.763444e+002
      endloop
   endfacet
   facet normal -1.000000e+000 0.000000e+000 0.000000e+000
      outer loop
         vertex 4.859096e+002 1.024045e+002 4.763444e+002
         vertex 4.859096e+002 7.740447e+001 4.263444e+002
         vertex 4.859096e+002 7.740447e+001 4.763444e+002
      endloop
   endfacet
   facet normal 0.000000e+000 0.000000e+000 -1.000000e+000
      outer loop
         vertex 4.359096e+002 2.404471e+000 4.763444e+002
         vertex 4.359096e+002 2.740447e+001 4.763444e+002
         vertex 4.859096e+002 2.404471e+000 4.763444e+002
      endloop
   endfacet
   facet normal 0.000000e+000 0.000000e+000 -1.000000e+000
      outer loop
         vertex 4.859096e+002 2.404471e+000 4.763444e+002
         vertex 4.359096e+002 2.740447e+001 4.763444e+002
         vertex 4.859096e+002 2.740447e+001 4.763444e+002
      endloop
   endfacet
   facet normal 0.000000e+000 0.000000e+000 1.000000e+000
      outer loop
         vertex 4.859096e+002 2.404471e+000 4.263444e+002
         vertex 4.859096e+002 2.740447e+001 4.263444e+002
         vertex 4.359096e+002 2.404471e+000 4.263444e+002
      endloop
   endfacet
   facet normal 0.000000e+000 0.000000e+000 1.000000e+000
      outer loop
         vertex 4.359096e+002 2.404471e+000 4.263444e+002
         vertex 4.859096e+002 2.740447e+001 4.263444e+002
         vertex 4.359096e+002 2.740447e+001 4.263444e+002
      endloop
   endfacet
   facet normal 1.000000e+000 0.000000e+000 0.000000e+000
      outer loop
         vertex 4.359096e+002 2.404471e+000 4.263444e+002
         vertex 4.359096e+002 2.740447e+001 4.263444e+002
         vertex 4.359096e+002 2.404471e+000 4.763444e+002
      endloop
   endfacet
   facet normal 1.000000e+000 0.000000e+000 0.000000e+000
      outer loop
         vertex 4.359096e+002 2.404471e+000 4.763444e+002
         vertex 4.359096e+002 2.740447e+001 4.263444e+002
         vertex 4.359096e+002 2.740447e+001 4.763444e+002
      endloop
   endfacet
   facet normal -1.000000e+000 0.000000e+000 0.000000e+000
      outer loop
         vertex 4.859096e+002 2.404471e+000 4.763444e+002
         vertex 4.859096e+002 2.740447e+001 4.763444e+002
         vertex 4.859096e+002 2.404471e+000 4.263444e+002
      endloop
   endfacet
   facet normal -1.000000e+000 0.000000e+000 0.000000e+000
      outer loop
         vertex 4.859096e+002 2.404471e+000 4.263444e+002
         vertex 4.859096e+002 2.740447e+001 4.763444e+002
         vertex 4.859096e+002 2.740447e+001 4.263444e+002
      endloop
   endfacet
endsolid