solid CubeDouble - B0-6
   facet normal -1.000000e+000 -1.232595e-032 1.779758e-016
      outer loop
         vertex 5.109096e+002 7.740447e+001 2.634436e+001
         vertex 5.109096e+002 8.990447e+001 1.384436e+001
         vertex 5.109096e+002 2.740447e+001 2.634436e+001
      endloop
   endfacet
   facet normal -1.000000e+000 -1.232595e-032 1.779758e-016
      outer loop
         vertex 5.109096e+002 2.740447e+001 2.634436e+001
         vertex 5.109096e+002 8.990447e+001 1.384436e+001
         vertex 5.109096e+002 1.490447e+001 1.384436e+001
      endloop
   endfacet
   facet normal -1.000000e+000 -1.232595e-032 1.779758e-016
      outer loop
         vertex 5.109096e+002 2.740447e+001 2.634436e+001
         vertex 5.109096e+002 1.490447e+001 1.384436e+001
         vertex 5.109096e+002 2.740447e+001 7.634436e+001
      endloop
   endfacet
   facet normal -1.000000e+000 -1.232595e-032 1.779758e-016
      outer loop
         vertex 5.109096e+002 2.740447e+001 7.634436e+001
         vertex 5.109096e+002 1.490447e+001 1.384436e+001
         vertex 5.109096e+002 1.490447e+001 8.884437e+001
      endloop
   endfacet
   facet normal -1.000000e+000 -1.232595e-032 1.779758e-016
      outer loop
         vertex 5.109096e+002 2.740447e+001 7.634436e+001
         vertex 5.109096e+002 1.490447e+001 8.884437e+001
         vertex 5.109096e+002 7.740447e+001 7.634436e+001
      endloop
   endfacet
   facet normal -1.000000e+000 -1.232595e-032 1.779758e-016
      outer loop
         vertex 5.109096e+002 7.740447e+001 7.634436e+001
         vertex 5.109096e+002 1.490447e+001 8.884437e+001
         vertex 5.109096e+002 8.990447e+001 8.884437e+001
      endloop
   endfacet
   facet normal -1.000000e+000 -1.232595e-032 1.779758e-016
      outer loop
         vertex 5.109096e+002 7.740447e+001 7.634436e+001
         vertex 5.109096e+002 8.990447e+001 8.884437e+001
         vertex 5.109096e+002 7.740447e+001 2.634436e+001
      endloop
   endfacet
   facet normal -1.000000e+000 -1.232595e-032 1.779758e-016
      outer loop
         vertex 5.109096e+002 7.740447e+001 2.634436e+001
         vertex 5.109096e+002 8.990447e+001 8.884437e+001
         vertex 5.109096e+002 8.990447e+001 1.384436e+001
      endloop
   endfacet
   facet normal -1.779758e-016 -0.000000e+000 -1.000000e+000
      outer loop
         vertex 5.109096e+002 1.490447e+001 1.384436e+001
         vertex 5.109096e+002 8.990447e+001 1.384436e+001
         vertex 8.109096e+002 1.490447e+001 1.384436e+001
      endloop
   endfacet
   facet normal -1.779758e-016 -0.000000e+000 -1.000000e+000
      outer loop
         vertex 8.109096e+002 1.490447e+001 1.384436e+001
         vertex 5.109096e+002 8.990447e+001 1.384436e+001
         vertex 8.109096e+002 8.990447e+001 1.384436e+001
      endloop
   endfacet
   facet normal 1.232595e-032 -1.000000e+000 -0.000000e+000
      outer loop
         vertex 5.109096e+002 1.490447e+001 8.884437e+001
         vertex 5.109096e+002 1.490447e+001 1.384436e+001
         vertex 8.109096e+002 1.490447e+001 8.884437e+001
      endloop
   endfacet
   facet normal 1.232595e-032 -1.000000e+000 -0.000000e+000
      outer loop
         vertex 8.109096e+002 1.490447e+001 8.884437e+001
         vertex 5.109096e+002 1.490447e+001 1.384436e+001
         vertex 8.109096e+002 1.490447e+001 1.384436e+001
      endloop
   endfacet
   facet normal 1.779758e-016 0.000000e+000 1.000000e+000
      outer loop
         vertex 5.109096e+002 8.990447e+001 8.884437e+001
         vertex 5.109096e+002 1.490447e+001 8.884437e+001
         vertex 8.109096e+002 8.990447e+001 8.884437e+001
      endloop
   endfacet
   facet normal 1.779758e-016 0.000000e+000 1.000000e+000
      outer loop
         vertex 8.109096e+002 8.990447e+001 8.884437e+001
         vertex 5.109096e+002 1.490447e+001 8.884437e+001
         vertex 8.109096e+002 1.490447e+001 8.884437e+001
      endloop
   endfacet
   facet normal -2.879202e-032 1.000000e+000 -9.251858e-017
      outer loop
         vertex 5.109096e+002 8.990447e+001 1.384436e+001
         vertex 5.109096e+002 8.990447e+001 8.884437e+001
         vertex 8.109096e+002 8.990447e+001 1.384436e+001
      endloop
   endfacet
   facet normal -2.879202e-032 1.000000e+000 -9.251858e-017
      outer loop
         vertex 8.109096e+002 8.990447e+001 1.384436e+001
         vertex 5.109096e+002 8.990447e+001 8.884437e+001
         vertex 8.109096e+002 8.990447e+001 8.884437e+001
      endloop
   endfacet
   facet normal 1.000000e+000 1.232595e-032 -1.779758e-016
      outer loop
         vertex 8.109096e+002 7.740447e+001 2.634436e+001
         vertex 8.109096e+002 8.990447e+001 1.384436e+001
         vertex 8.109096e+002 8.990447e+001 8.884437e+001
      endloop
   endfacet
   facet normal 1.000000e+000 1.232595e-032 -1.779758e-016
      outer loop
         vertex 8.109096e+002 8.990447e+001 1.384436e+001
         vertex 8.109096e+002 7.740447e+001 2.634436e+001
         vertex 8.109096e+002 1.490447e+001 1.384436e+001
      endloop
   endfacet
   facet normal 1.000000e+000 1.232595e-032 -1.779758e-016
      outer loop
         vertex 8.109096e+002 1.490447e+001 1.384436e+001
         vertex 8.109096e+002 7.740447e+001 2.634436e+001
         vertex 8.109096e+002 2.740447e+001 2.634436e+001
      endloop
   endfacet
   facet normal 1.000000e+000 1.232595e-032 -1.779758e-016
      outer loop
         vertex 8.109096e+002 1.490447e+001 1.384436e+001
         vertex 8.109096e+002 2.740447e+001 2.634436e+001
         vertex 8.109096e+002 1.490447e+001 8.884437e+001
      endloop
   endfacet
   facet normal 1.000000e+000 1.232595e-032 -1.779758e-016
      outer loop
         vertex 8.109096e+002 1.490447e+001 8.884437e+001
         vertex 8.109096e+002 2.740447e+001 2.634436e+001
         vertex 8.109096e+002 2.740447e+001 7.634436e+001
      endloop
   endfacet
   facet normal 1.000000e+000 1.232595e-032 -1.779758e-016
      outer loop
         vertex 8.109096e+002 1.490447e+001 8.884437e+001
         vertex 8.109096e+002 2.740447e+001 7.634436e+001
         vertex 8.109096e+002 8.990447e+001 8.884437e+001
      endloop
   endfacet
   facet normal 1.000000e+000 1.232595e-032 -1.779758e-016
      outer loop
         vertex 8.109096e+002 8.990447e+001 8.884437e+001
         vertex 8.109096e+002 2.740447e+001 7.634436e+001
         vertex 8.109096e+002 7.740447e+001 7.634436e+001
      endloop
   endfacet
   facet normal 1.000000e+000 1.232595e-032 -1.779758e-016
      outer loop
         vertex 8.109096e+002 8.990447e+001 8.884437e+001
         vertex 8.109096e+002 7.740447e+001 7.634436e+001
         vertex 8.109096e+002 7.740447e+001 2.634436e+001
      endloop
   endfacet
   facet normal -1.779758e-016 -0.000000e+000 -1.000000e+000
      outer loop
         vertex 4.909096e+002 2.740447e+001 2.634436e+001
         vertex 4.909096e+002 7.740447e+001 2.634436e+001
         vertex 5.109096e+002 2.740447e+001 2.634436e+001
      endloop
   endfacet
   facet normal -1.779758e-016 -0.000000e+000 -1.000000e+000
      outer loop
         vertex 5.109096e+002 2.740447e+001 2.634436e+001
         vertex 4.909096e+002 7.740447e+001 2.634436e+001
         vertex 5.109096e+002 7.740447e+001 2.634436e+001
      endloop
   endfacet
   facet normal 3.702506e-032 -1.000000e+000 1.387779e-016
      outer loop
         vertex 4.909096e+002 2.740447e+001 7.634436e+001
         vertex 4.909096e+002 2.740447e+001 2.634436e+001
         vertex 5.109096e+002 2.740447e+001 7.634436e+001
      endloop
   endfacet
   facet normal 3.702506e-032 -1.000000e+000 1.387779e-016
      outer loop
         vertex 5.109096e+002 2.740447e+001 7.634436e+001
         vertex 4.909096e+002 2.740447e+001 2.634436e+001
         vertex 5.109096e+002 2.740447e+001 2.634436e+001
      endloop
   endfacet
   facet normal 1.779758e-016 0.000000e+000 1.000000e+000
      outer loop
         vertex 4.909096e+002 7.740447e+001 7.634436e+001
         vertex 4.909096e+002 2.740447e+001 7.634436e+001
         vertex 5.109096e+002 7.740447e+001 7.634436e+001
      endloop
   endfacet
   facet normal 1.779758e-016 0.000000e+000 1.000000e+000
      outer loop
         vertex 5.109096e+002 7.740447e+001 7.634436e+001
         vertex 4.909096e+002 2.740447e+001 7.634436e+001
         vertex 5.109096e+002 2.740447e+001 7.634436e+001
      endloop
   endfacet
   facet normal -3.702506e-032 1.000000e+000 -1.387779e-016
      outer loop
         vertex 4.909096e+002 7.740447e+001 2.634436e+001
         vertex 4.909096e+002 7.740447e+001 7.634436e+001
         vertex 5.109096e+002 7.740447e+001 2.634436e+001
      endloop
   endfacet
   facet normal -3.702506e-032 1.000000e+000 -1.387779e-016
      outer loop
         vertex 5.109096e+002 7.740447e+001 2.634436e+001
         vertex 4.909096e+002 7.740447e+001 7.634436e+001
         vertex 5.109096e+002 7.740447e+001 7.634436e+001
      endloop
   endfacet
   facet normal -1.000000e+000 -1.232595e-032 1.779758e-016
      outer loop
         vertex 4.909096e+002 2.740447e+001 7.634436e+001
         vertex 4.909096e+002 7.740447e+001 7.634436e+001
         vertex 4.909096e+002 2.740447e+001 2.634436e+001
      endloop
   endfacet
   facet normal -1.000000e+000 -1.232595e-032 1.779758e-016
      outer loop
         vertex 4.909096e+002 2.740447e+001 2.634436e+001
         vertex 4.909096e+002 7.740447e+001 7.634436e+001
         vertex 4.909096e+002 7.740447e+001 2.634436e+001
      endloop
   endfacet
   facet normal -1.779758e-016 -0.000000e+000 -1.000000e+000
      outer loop
         vertex 8.309097e+002 7.740447e+001 2.634436e+001
         vertex 8.309097e+002 2.740447e+001 2.634436e+001
         vertex 8.109096e+002 7.740447e+001 2.634436e+001
      endloop
   endfacet
   facet normal -1.779758e-016 -0.000000e+000 -1.000000e+000
      outer loop
         vertex 8.109096e+002 7.740447e+001 2.634436e+001
         vertex 8.309097e+002 2.740447e+001 2.634436e+001
         vertex 8.109096e+002 2.740447e+001 2.634436e+001
      endloop
   endfacet
   facet normal -3.702506e-032 1.000000e+000 -1.387779e-016
      outer loop
         vertex 8.309097e+002 7.740447e+001 7.634436e+001
         vertex 8.309097e+002 7.740447e+001 2.634436e+001
         vertex 8.109096e+002 7.740447e+001 7.634436e+001
      endloop
   endfacet
   facet normal -3.702506e-032 1.000000e+000 -1.387779e-016
      outer loop
         vertex 8.109096e+002 7.740447e+001 7.634436e+001
         vertex 8.309097e+002 7.740447e+001 2.634436e+001
         vertex 8.109096e+002 7.740447e+001 2.634436e+001
      endloop
   endfacet
   facet normal 1.779758e-016 0.000000e+000 1.000000e+000
      outer loop
         vertex 8.309097e+002 2.740447e+001 7.634436e+001
         vertex 8.309097e+002 7.740447e+001 7.634436e+001
         vertex 8.109096e+002 2.740447e+001 7.634436e+001
      endloop
   endfacet
   facet normal 1.779758e-016 0.000000e+000 1.000000e+000
      outer loop
         vertex 8.109096e+002 2.740447e+001 7.634436e+001
         vertex 8.309097e+002 7.740447e+001 7.634436e+001
         vertex 8.109096e+002 7.740447e+001 7.634436e+001
      endloop
   endfacet
   facet normal 3.702506e-032 -1.000000e+000 1.387779e-016
      outer loop
         vertex 8.309097e+002 2.740447e+001 2.634436e+001
         vertex 8.309097e+002 2.740447e+001 7.634436e+001
         vertex 8.109096e+002 2.740447e+001 2.634436e+001
      endloop
   endfacet
   facet normal 3.702506e-032 -1.000000e+000 1.387779e-016
      outer loop
         vertex 8.109096e+002 2.740447e+001 2.634436e+001
         vertex 8.309097e+002 2.740447e+001 7.634436e+001
         vertex 8.109096e+002 2.740447e+001 7.634436e+001
      endloop
   endfacet
   facet normal 1.000000e+000 1.232595e-032 -1.779758e-016
      outer loop
         vertex 8.309097e+002 7.740447e+001 7.634436e+001
         vertex 8.309097e+002 2.740447e+001 7.634436e+001
         vertex 8.309097e+002 7.740447e+001 2.634436e+001
      endloop
   endfacet
   facet normal 1.000000e+000 1.232595e-032 -1.779758e-016
      outer loop
         vertex 8.309097e+002 7.740447e+001 2.634436e+001
         vertex 8.309097e+002 2.740447e+001 7.634436e+001
         vertex 8.309097e+002 2.740447e+001 2.634436e+001
      endloop
   endfacet
endsolid