solid CubeDouble - A0-3
   facet normal -1.000000e+000 0.000000e+000 0.000000e+000
      outer loop
         vertex 1.109096e+002 4.774045e+002 8.263444e+002
         vertex 1.109096e+002 4.899044e+002 8.138444e+002
         vertex 1.109096e+002 4.274044e+002 8.263444e+002
      endloop
   endfacet
   facet normal -1.000000e+000 0.000000e+000 0.000000e+000
      outer loop
         vertex 1.109096e+002 4.274044e+002 8.263444e+002
         vertex 1.109096e+002 4.899044e+002 8.138444e+002
         vertex 1.109096e+002 4.149045e+002 8.138444e+002
      endloop
   endfacet
   facet normal -1.000000e+000 0.000000e+000 0.000000e+000
      outer loop
         vertex 1.109096e+002 4.274044e+002 8.263444e+002
         vertex 1.109096e+002 4.149045e+002 8.138444e+002
         vertex 1.109096e+002 4.274044e+002 8.763444e+002
      endloop
   endfacet
   facet normal -1.000000e+000 0.000000e+000 0.000000e+000
      outer loop
         vertex 1.109096e+002 4.274044e+002 8.763444e+002
         vertex 1.109096e+002 4.149045e+002 8.138444e+002
         vertex 1.109096e+002 4.149045e+002 8.888444e+002
      endloop
   endfacet
   facet normal -1.000000e+000 0.000000e+000 0.000000e+000
      outer loop
         vertex 1.109096e+002 4.274044e+002 8.763444e+002
         vertex 1.109096e+002 4.149045e+002 8.888444e+002
         vertex 1.109096e+002 4.774045e+002 8.763444e+002
      endloop
   endfacet
   facet normal -1.000000e+000 0.000000e+000 0.000000e+000
      outer loop
         vertex 1.109096e+002 4.774045e+002 8.763444e+002
         vertex 1.109096e+002 4.149045e+002 8.888444e+002
         vertex 1.109096e+002 4.899044e+002 8.888444e+002
      endloop
   endfacet
   facet normal -1.000000e+000 0.000000e+000 0.000000e+000
      outer loop
         vertex 1.109096e+002 4.774045e+002 8.763444e+002
         vertex 1.109096e+002 4.899044e+002 8.888444e+002
         vertex 1.109096e+002 4.774045e+002 8.263444e+002
      endloop
   endfacet
   facet normal -1.000000e+000 0.000000e+000 0.000000e+000
      outer loop
         vertex 1.109096e+002 4.774045e+002 8.263444e+002
         vertex 1.109096e+002 4.899044e+002 8.888444e+002
         vertex 1.109096e+002 4.899044e+002 8.138444e+002
      endloop
   endfacet
   facet normal 0.000000e+000 0.000000e+000 -1.000000e+000
      outer loop
         vertex 1.109096e+002 4.149045e+002 8.138444e+002
         vertex 1.109096e+002 4.899044e+002 8.138444e+002
         vertex 4.109097e+002 4.149045e+002 8.138444e+002
      endloop
   endfacet
   facet normal 0.000000e+000 0.000000e+000 -1.000000e+000
      outer loop
         vertex 4.109097e+002 4.149045e+002 8.138444e+002
         vertex 1.109096e+002 4.899044e+002 8.138444e+002
         vertex 4.109097e+002 4.899044e+002 8.138444e+002
      endloop
   endfacet
   facet normal 0.000000e+000 -1.000000e+000 0.000000e+000
      outer loop
         vertex 1.109096e+002 4.149045e+002 8.888444e+002
         vertex 1.109096e+002 4.149045e+002 8.138444e+002
         vertex 4.109097e+002 4.149045e+002 8.888444e+002
      endloop
   endfacet
   facet normal 0.000000e+000 -1.000000e+000 0.000000e+000
      outer loop
         vertex 4.109097e+002 4.149045e+002 8.888444e+002
         vertex 1.109096e+002 4.149045e+002 8.138444e+002
         vertex 4.109097e+002 4.149045e+002 8.138444e+002
      endloop
   endfacet
   facet normal 0.000000e+000 0.000000e+000 1.000000e+000
      outer loop
         vertex 1.109096e+002 4.899044e+002 8.888444e+002
         vertex 1.109096e+002 4.149045e+002 8.888444e+002
         vertex 4.109097e+002 4.899044e+002 8.888444e+002
      endloop
   endfacet
   facet normal 0.000000e+000 0.000000e+000 1.000000e+000
      outer loop
         vertex 4.109097e+002 4.899044e+002 8.888444e+002
         vertex 1.109096e+002 4.149045e+002 8.888444e+002
         vertex 4.109097e+002 4.149045e+002 8.888444e+002
      endloop
   endfacet
   facet normal 0.000000e+000 1.000000e+000 -9.251858e-017
      outer loop
         vertex 1.109096e+002 4.899044e+002 8.138444e+002
         vertex 1.109096e+002 4.899044e+002 8.888444e+002
         vertex 4.109097e+002 4.899044e+002 8.138444e+002
      endloop
   endfacet
   facet normal 0.000000e+000 1.000000e+000 -9.251858e-017
      outer loop
         vertex 4.109097e+002 4.899044e+002 8.138444e+002
         vertex 1.109096e+002 4.899044e+002 8.888444e+002
         vertex 4.109097e+002 4.899044e+002 8.888444e+002
      endloop
   endfacet
   facet normal 1.000000e+000 0.000000e+000 0.000000e+000
      outer loop
         vertex 4.109097e+002 4.774045e+002 8.263444e+002
         vertex 4.109097e+002 4.899044e+002 8.138444e+002
         vertex 4.109097e+002 4.899044e+002 8.888444e+002
      endloop
   endfacet
   facet normal 1.000000e+000 0.000000e+000 0.000000e+000
      outer loop
         vertex 4.109097e+002 4.899044e+002 8.138444e+002
         vertex 4.109097e+002 4.774045e+002 8.263444e+002
         vertex 4.109097e+002 4.149045e+002 8.138444e+002
      endloop
   endfacet
   facet normal 1.000000e+000 0.000000e+000 0.000000e+000
      outer loop
         vertex 4.109097e+002 4.149045e+002 8.138444e+002
         vertex 4.109097e+002 4.774045e+002 8.263444e+002
         vertex 4.109097e+002 4.274044e+002 8.263444e+002
      endloop
   endfacet
   facet normal 1.000000e+000 0.000000e+000 0.000000e+000
      outer loop
         vertex 4.109097e+002 4.149045e+002 8.138444e+002
         vertex 4.109097e+002 4.274044e+002 8.263444e+002
         vertex 4.109097e+002 4.149045e+002 8.888444e+002
      endloop
   endfacet
   facet normal 1.000000e+000 0.000000e+000 0.000000e+000
      outer loop
         vertex 4.109097e+002 4.149045e+002 8.888444e+002
         vertex 4.109097e+002 4.274044e+002 8.263444e+002
         vertex 4.109097e+002 4.274044e+002 8.763444e+002
      endloop
   endfacet
   facet normal 1.000000e+000 0.000000e+000 0.000000e+000
      outer loop
         vertex 4.109097e+002 4.149045e+002 8.888444e+002
         vertex 4.109097e+002 4.274044e+002 8.763444e+002
         vertex 4.109097e+002 4.899044e+002 8.888444e+002
      endloop
   endfacet
   facet normal 1.000000e+000 0.000000e+000 0.000000e+000
      outer loop
         vertex 4.109097e+002 4.899044e+002 8.888444e+002
         vertex 4.109097e+002 4.274044e+002 8.763444e+002
         vertex 4.109097e+002 4.774045e+002 8.763444e+002
      endloop
   endfacet
   facet normal 1.000000e+000 0.000000e+000 0.000000e+000
      outer loop
         vertex 4.109097e+002 4.899044e+002 8.888444e+002
         vertex 4.109097e+002 4.774045e+002 8.763444e+002
         vertex 4.109097e+002 4.774045e+002 8.263444e+002
      endloop
   endfacet
   facet normal 0.000000e+000 0.000000e+000 -1.000000e+000
      outer loop
         vertex 9.090964e+001 4.274044e+002 8.263444e+002
         vertex 9.090964e+001 4.774045e+002 8.263444e+002
         vertex 1.109096e+002 4.274044e+002 8.263444e+002
      endloop
   endfacet
   facet normal 0.000000e+000 0.000000e+000 -1.000000e+000
      outer loop
         vertex 1.109096e+002 4.274044e+002 8.263444e+002
         vertex 9.090964e+001 4.774045e+002 8.263444e+002
         vertex 1.109096e+002 4.774045e+002 8.263444e+002
      endloop
   endfacet
   facet normal 0.000000e+000 -1.000000e+000 1.387779e-016
      outer loop
         vertex 9.090964e+001 4.274044e+002 8.763444e+002
         vertex 9.090964e+001 4.274044e+002 8.263444e+002
         vertex 1.109096e+002 4.274044e+002 8.763444e+002
      endloop
   endfacet
   facet normal 0.000000e+000 -1.000000e+000 1.387779e-016
      outer loop
         vertex 1.109096e+002 4.274044e+002 8.763444e+002
         vertex 9.090964e+001 4.274044e+002 8.263444e+002
         vertex 1.109096e+002 4.274044e+002 8.263444e+002
      endloop
   endfacet
   facet normal 0.000000e+000 0.000000e+000 1.000000e+000
      outer loop
         vertex 9.090964e+001 4.774045e+002 8.763444e+002
         vertex 9.090964e+001 4.274044e+002 8.763444e+002
         vertex 1.109096e+002 4.774045e+002 8.763444e+002
      endloop
   endfacet
   facet normal 0.000000e+000 0.000000e+000 1.000000e+000
      outer loop
         vertex 1.109096e+002 4.774045e+002 8.763444e+002
         vertex 9.090964e+001 4.274044e+002 8.763444e+002
         vertex 1.109096e+002 4.274044e+002 8.763444e+002
      endloop
   endfacet
   facet normal 0.000000e+000 1.000000e+000 -1.387779e-016
      outer loop
         vertex 9.090964e+001 4.774045e+002 8.263444e+002
         vertex 9.090964e+001 4.774045e+002 8.763444e+002
         vertex 1.109096e+002 4.774045e+002 8.263444e+002
      endloop
   endfacet
   facet normal 0.000000e+000 1.000000e+000 -1.387779e-016
      outer loop
         vertex 1.109096e+002 4.774045e+002 8.263444e+002
         vertex 9.090964e+001 4.774045e+002 8.763444e+002
         vertex 1.109096e+002 4.774045e+002 8.763444e+002
      endloop
   endfacet
   facet normal -1.000000e+000 0.000000e+000 0.000000e+000
      outer loop
         vertex 9.090964e+001 4.274044e+002 8.763444e+002
         vertex 9.090964e+001 4.774045e+002 8.763444e+002
         vertex 9.090964e+001 4.274044e+002 8.263444e+002
      endloop
   endfacet
   facet normal -1.000000e+000 0.000000e+000 0.000000e+000
      outer loop
         vertex 9.090964e+001 4.274044e+002 8.263444e+002
         vertex 9.090964e+001 4.774045e+002 8.763444e+002
         vertex 9.090964e+001 4.774045e+002 8.263444e+002
      endloop
   endfacet
   facet normal 0.000000e+000 0.000000e+000 -1.000000e+000
      outer loop
         vertex 4.309096e+002 4.774045e+002 8.263444e+002
         vertex 4.309096e+002 4.274044e+002 8.263444e+002
         vertex 4.109097e+002 4.774045e+002 8.263444e+002
      endloop
   endfacet
   facet normal 0.000000e+000 0.000000e+000 -1.000000e+000
      outer loop
         vertex 4.109097e+002 4.774045e+002 8.263444e+002
         vertex 4.309096e+002 4.274044e+002 8.263444e+002
         vertex 4.109097e+002 4.274044e+002 8.263444e+002
      endloop
   endfacet
   facet normal 0.000000e+000 1.000000e+000 -1.387779e-016
      outer loop
         vertex 4.309096e+002 4.774045e+002 8.763444e+002
         vertex 4.309096e+002 4.774045e+002 8.263444e+002
         vertex 4.109097e+002 4.774045e+002 8.763444e+002
      endloop
   endfacet
   facet normal 0.000000e+000 1.000000e+000 -1.387779e-016
      outer loop
         vertex 4.109097e+002 4.774045e+002 8.763444e+002
         vertex 4.309096e+002 4.774045e+002 8.263444e+002
         vertex 4.109097e+002 4.774045e+002 8.263444e+002
      endloop
   endfacet
   facet normal 0.000000e+000 0.000000e+000 1.000000e+000
      outer loop
         vertex 4.309096e+002 4.274044e+002 8.763444e+002
         vertex 4.309096e+002 4.774045e+002 8.763444e+002
         vertex 4.109097e+002 4.274044e+002 8.763444e+002
      endloop
   endfacet
   facet normal 0.000000e+000 0.000000e+000 1.000000e+000
      outer loop
         vertex 4.109097e+002 4.274044e+002 8.763444e+002
         vertex 4.309096e+002 4.774045e+002 8.763444e+002
         vertex 4.109097e+002 4.774045e+002 8.763444e+002
      endloop
   endfacet
   facet normal 0.000000e+000 -1.000000e+000 1.387779e-016
      outer loop
         vertex 4.309096e+002 4.274044e+002 8.263444e+002
         vertex 4.309096e+002 4.274044e+002 8.763444e+002
         vertex 4.109097e+002 4.274044e+002 8.263444e+002
      endloop
   endfacet
   facet normal 0.000000e+000 -1.000000e+000 1.387779e-016
      outer loop
         vertex 4.109097e+002 4.274044e+002 8.263444e+002
         vertex 4.309096e+002 4.274044e+002 8.763444e+002
         vertex 4.109097e+002 4.274044e+002 8.763444e+002
      endloop
   endfacet
   facet normal 1.000000e+000 0.000000e+000 0.000000e+000
      outer loop
         vertex 4.309096e+002 4.774045e+002 8.763444e+002
         vertex 4.309096e+002 4.274044e+002 8.763444e+002
         vertex 4.309096e+002 4.774045e+002 8.263444e+002
      endloop
   endfacet
   facet normal 1.000000e+000 0.000000e+000 0.000000e+000
      outer loop
         vertex 4.309096e+002 4.774045e+002 8.263444e+002
         vertex 4.309096e+002 4.274044e+002 8.763444e+002
         vertex 4.309096e+002 4.274044e+002 8.263444e+002
      endloop
   endfacet
endsolid