solid CubeDouble - GKJ0-1
   facet normal 0.000000e+000 1.000000e+000 0.000000e+000
      outer loop
         vertex 8.859096e+002 2.740447e+001 7.634436e+001
         vertex 9.109097e+002 2.740447e+001 7.634436e+001
         vertex 8.859096e+002 2.740447e+001 2.634436e+001
      endloop
   endfacet
   facet normal 0.000000e+000 1.000000e+000 0.000000e+000
      outer loop
         vertex 8.859096e+002 2.740447e+001 2.634436e+001
         vertex 9.109097e+002 2.740447e+001 7.634436e+001
         vertex 9.109097e+002 2.740447e+001 2.634436e+001
      endloop
   endfacet
   facet normal 0.000000e+000 1.000000e+000 0.000000e+000
      outer loop
         vertex 8.359097e+002 2.740447e+001 7.634436e+001
         vertex 8.359097e+002 2.740447e+001 1.013444e+002
         vertex 8.859096e+002 2.740447e+001 7.634436e+001
      endloop
   endfacet
   facet normal 0.000000e+000 1.000000e+000 0.000000e+000
      outer loop
         vertex 8.859096e+002 2.740447e+001 7.634436e+001
         vertex 8.359097e+002 2.740447e+001 1.013444e+002
         vertex 8.859096e+002 2.740447e+001 1.013444e+002
      endloop
   endfacet
   facet normal 0.000000e+000 1.000000e+000 0.000000e+000
      outer loop
         vertex 8.359097e+002 2.740447e+001 2.634436e+001
         vertex 8.109096e+002 2.740447e+001 2.634436e+001
         vertex 8.359097e+002 2.740447e+001 7.634436e+001
      endloop
   endfacet
   facet normal 0.000000e+000 1.000000e+000 0.000000e+000
      outer loop
         vertex 8.359097e+002 2.740447e+001 7.634436e+001
         vertex 8.109096e+002 2.740447e+001 2.634436e+001
         vertex 8.109096e+002 2.740447e+001 7.634436e+001
      endloop
   endfacet
   facet normal 0.000000e+000 -1.000000e+000 0.000000e+000
      outer loop
         vertex 8.859096e+002 7.740447e+001 2.634436e+001
         vertex 9.109097e+002 7.740447e+001 2.634436e+001
         vertex 8.859096e+002 7.740447e+001 7.634436e+001
      endloop
   endfacet
   facet normal 0.000000e+000 -1.000000e+000 0.000000e+000
      outer loop
         vertex 8.859096e+002 7.740447e+001 7.634436e+001
         vertex 9.109097e+002 7.740447e+001 2.634436e+001
         vertex 9.109097e+002 7.740447e+001 7.634436e+001
      endloop
   endfacet
   facet normal 0.000000e+000 -1.000000e+000 0.000000e+000
      outer loop
         vertex 8.859096e+002 7.740447e+001 7.634436e+001
         vertex 8.859096e+002 7.740447e+001 1.013444e+002
         vertex 8.359097e+002 7.740447e+001 7.634436e+001
      endloop
   endfacet
   facet normal 0.000000e+000 -1.000000e+000 0.000000e+000
      outer loop
         vertex 8.359097e+002 7.740447e+001 7.634436e+001
         vertex 8.859096e+002 7.740447e+001 1.013444e+002
         vertex 8.359097e+002 7.740447e+001 1.013444e+002
      endloop
   endfacet
   facet normal 0.000000e+000 -1.000000e+000 0.000000e+000
      outer loop
         vertex 8.359097e+002 7.740447e+001 7.634436e+001
         vertex 8.109096e+002 7.740447e+001 7.634436e+001
         vertex 8.359097e+002 7.740447e+001 2.634436e+001
      endloop
   endfacet
   facet normal 0.000000e+000 -1.000000e+000 0.000000e+000
      outer loop
         vertex 8.359097e+002 7.740447e+001 2.634436e+001
         vertex 8.109096e+002 7.740447e+001 7.634436e+001
         vertex 8.109096e+002 7.740447e+001 2.634436e+001
      endloop
   endfacet
   facet normal -1.000000e+000 0.000000e+000 0.000000e+000
      outer loop
         vertex 8.859096e+002 7.740447e+001 2.634436e+001
         vertex 8.859096e+002 7.740447e+001 1.344361e+000
         vertex 8.859096e+002 2.740447e+001 2.634436e+001
      endloop
   endfacet
   facet normal -1.000000e+000 0.000000e+000 0.000000e+000
      outer loop
         vertex 8.859096e+002 2.740447e+001 2.634436e+001
         vertex 8.859096e+002 7.740447e+001 1.344361e+000
         vertex 8.859096e+002 2.740447e+001 1.344361e+000
      endloop
   endfacet
   facet normal 1.000000e+000 0.000000e+000 0.000000e+000
      outer loop
         vertex 8.359097e+002 2.740447e+001 2.634436e+001
         vertex 8.359097e+002 2.740447e+001 1.344361e+000
         vertex 8.359097e+002 7.740447e+001 2.634436e+001
      endloop
   endfacet
   facet normal 1.000000e+000 0.000000e+000 0.000000e+000
      outer loop
         vertex 8.359097e+002 7.740447e+001 2.634436e+001
         vertex 8.359097e+002 2.740447e+001 1.344361e+000
         vertex 8.359097e+002 7.740447e+001 1.344361e+000
      endloop
   endfacet
   facet normal 1.000000e+000 0.000000e+000 0.000000e+000
      outer loop
         vertex 9.109097e+002 7.740447e+001 2.634436e+001
         vertex 9.109097e+002 1.024045e+002 1.344361e+000
         vertex 9.109097e+002 1.024045e+002 1.013444e+002
      endloop
   endfacet
   facet normal 1.000000e+000 0.000000e+000 0.000000e+000
      outer loop
         vertex 9.109097e+002 1.024045e+002 1.344361e+000
         vertex 9.109097e+002 7.740447e+001 2.634436e+001
         vertex 9.109097e+002 2.404471e+000 1.344361e+000
      endloop
   endfacet
   facet normal 1.000000e+000 0.000000e+000 0.000000e+000
      outer loop
         vertex 9.109097e+002 2.404471e+000 1.344361e+000
         vertex 9.109097e+002 7.740447e+001 2.634436e+001
         vertex 9.109097e+002 2.740447e+001 2.634436e+001
      endloop
   endfacet
   facet normal 1.000000e+000 0.000000e+000 0.000000e+000
      outer loop
         vertex 9.109097e+002 2.404471e+000 1.344361e+000
         vertex 9.109097e+002 2.740447e+001 2.634436e+001
         vertex 9.109097e+002 2.404471e+000 1.013444e+002
      endloop
   endfacet
   facet normal 1.000000e+000 0.000000e+000 0.000000e+000
      outer loop
         vertex 9.109097e+002 2.404471e+000 1.013444e+002
         vertex 9.109097e+002 2.740447e+001 2.634436e+001
         vertex 9.109097e+002 2.740447e+001 7.634436e+001
      endloop
   endfacet
   facet normal 1.000000e+000 0.000000e+000 0.000000e+000
      outer loop
         vertex 9.109097e+002 2.404471e+000 1.013444e+002
         vertex 9.109097e+002 2.740447e+001 7.634436e+001
         vertex 9.109097e+002 1.024045e+002 1.013444e+002
      endloop
   endfacet
   facet normal 1.000000e+000 0.000000e+000 0.000000e+000
      outer loop
         vertex 9.109097e+002 1.024045e+002 1.013444e+002
         vertex 9.109097e+002 2.740447e+001 7.634436e+001
         vertex 9.109097e+002 7.740447e+001 7.634436e+001
      endloop
   endfacet
   facet normal 1.000000e+000 0.000000e+000 0.000000e+000
      outer loop
         vertex 9.109097e+002 1.024045e+002 1.013444e+002
         vertex 9.109097e+002 7.740447e+001 7.634436e+001
         vertex 9.109097e+002 7.740447e+001 2.634436e+001
      endloop
   endfacet
   facet normal 0.000000e+000 1.000000e+000 0.000000e+000
      outer loop
         vertex 8.359097e+002 1.024045e+002 2.634436e+001
         vertex 8.109096e+002 1.024045e+002 1.344361e+000
         vertex 8.359097e+002 1.024045e+002 7.634436e+001
      endloop
   endfacet
   facet normal 0.000000e+000 1.000000e+000 0.000000e+000
      outer loop
         vertex 8.359097e+002 1.024045e+002 7.634436e+001
         vertex 8.109096e+002 1.024045e+002 1.344361e+000
         vertex 8.109096e+002 1.024045e+002 1.013444e+002
      endloop
   endfacet
   facet normal 0.000000e+000 1.000000e+000 0.000000e+000
      outer loop
         vertex 8.359097e+002 1.024045e+002 7.634436e+001
         vertex 8.109096e+002 1.024045e+002 1.013444e+002
         vertex 8.859096e+002 1.024045e+002 7.634436e+001
      endloop
   endfacet
   facet normal 0.000000e+000 1.000000e+000 0.000000e+000
      outer loop
         vertex 8.859096e+002 1.024045e+002 7.634436e+001
         vertex 8.109096e+002 1.024045e+002 1.013444e+002
         vertex 9.109097e+002 1.024045e+002 1.013444e+002
      endloop
   endfacet
   facet normal 0.000000e+000 1.000000e+000 0.000000e+000
      outer loop
         vertex 8.859096e+002 1.024045e+002 7.634436e+001
         vertex 9.109097e+002 1.024045e+002 1.013444e+002
         vertex 8.859096e+002 1.024045e+002 2.634436e+001
      endloop
   endfacet
   facet normal 0.000000e+000 1.000000e+000 0.000000e+000
      outer loop
         vertex 8.859096e+002 1.024045e+002 2.634436e+001
         vertex 9.109097e+002 1.024045e+002 1.013444e+002
         vertex 9.109097e+002 1.024045e+002 1.344361e+000
      endloop
   endfacet
   facet normal 0.000000e+000 1.000000e+000 0.000000e+000
      outer loop
         vertex 8.859096e+002 1.024045e+002 2.634436e+001
         vertex 9.109097e+002 1.024045e+002 1.344361e+000
         vertex 8.359097e+002 1.024045e+002 2.634436e+001
      endloop
   endfacet
   facet normal 0.000000e+000 1.000000e+000 0.000000e+000
      outer loop
         vertex 8.359097e+002 1.024045e+002 2.634436e+001
         vertex 9.109097e+002 1.024045e+002 1.344361e+000
         vertex 8.109096e+002 1.024045e+002 1.344361e+000
      endloop
   endfacet
   facet normal -1.000000e+000 0.000000e+000 0.000000e+000
      outer loop
         vertex 8.109096e+002 7.740447e+001 7.634436e+001
         vertex 8.109096e+002 1.024045e+002 1.013444e+002
         vertex 8.109096e+002 7.740447e+001 2.634436e+001
      endloop
   endfacet
   facet normal -1.000000e+000 0.000000e+000 0.000000e+000
      outer loop
         vertex 8.109096e+002 7.740447e+001 2.634436e+001
         vertex 8.109096e+002 1.024045e+002 1.013444e+002
         vertex 8.109096e+002 1.024045e+002 1.344361e+000
      endloop
   endfacet
   facet normal -1.000000e+000 0.000000e+000 0.000000e+000
      outer loop
         vertex 8.109096e+002 7.740447e+001 2.634436e+001
         vertex 8.109096e+002 1.024045e+002 1.344361e+000
         vertex 8.109096e+002 2.740447e+001 2.634436e+001
      endloop
   endfacet
   facet normal -1.000000e+000 0.000000e+000 0.000000e+000
      outer loop
         vertex 8.109096e+002 2.740447e+001 2.634436e+001
         vertex 8.109096e+002 1.024045e+002 1.344361e+000
         vertex 8.109096e+002 2.404471e+000 1.344361e+000
      endloop
   endfacet
   facet normal -1.000000e+000 0.000000e+000 0.000000e+000
      outer loop
         vertex 8.109096e+002 2.740447e+001 2.634436e+001
         vertex 8.109096e+002 2.404471e+000 1.344361e+000
         vertex 8.109096e+002 2.740447e+001 7.634436e+001
      endloop
   endfacet
   facet normal -1.000000e+000 0.000000e+000 0.000000e+000
      outer loop
         vertex 8.109096e+002 2.740447e+001 7.634436e+001
         vertex 8.109096e+002 2.404471e+000 1.344361e+000
         vertex 8.109096e+002 2.404471e+000 1.013444e+002
      endloop
   endfacet
   facet normal -1.000000e+000 0.000000e+000 0.000000e+000
      outer loop
         vertex 8.109096e+002 2.740447e+001 7.634436e+001
         vertex 8.109096e+002 2.404471e+000 1.013444e+002
         vertex 8.109096e+002 7.740447e+001 7.634436e+001
      endloop
   endfacet
   facet normal -1.000000e+000 0.000000e+000 0.000000e+000
      outer loop
         vertex 8.109096e+002 7.740447e+001 7.634436e+001
         vertex 8.109096e+002 2.404471e+000 1.013444e+002
         vertex 8.109096e+002 1.024045e+002 1.013444e+002
      endloop
   endfacet
   facet normal 0.000000e+000 -1.000000e+000 0.000000e+000
      outer loop
         vertex 8.359097e+002 2.404471e+000 7.634436e+001
         vertex 8.109096e+002 2.404471e+000 1.013444e+002
         vertex 8.359097e+002 2.404471e+000 2.634436e+001
      endloop
   endfacet
   facet normal 0.000000e+000 -1.000000e+000 0.000000e+000
      outer loop
         vertex 8.359097e+002 2.404471e+000 2.634436e+001
         vertex 8.109096e+002 2.404471e+000 1.013444e+002
         vertex 8.109096e+002 2.404471e+000 1.344361e+000
      endloop
   endfacet
   facet normal 0.000000e+000 -1.000000e+000 0.000000e+000
      outer loop
         vertex 8.359097e+002 2.404471e+000 2.634436e+001
         vertex 8.109096e+002 2.404471e+000 1.344361e+000
         vertex 8.859096e+002 2.404471e+000 2.634436e+001
      endloop
   endfacet
   facet normal 0.000000e+000 -1.000000e+000 0.000000e+000
      outer loop
         vertex 8.859096e+002 2.404471e+000 2.634436e+001
         vertex 8.109096e+002 2.404471e+000 1.344361e+000
         vertex 9.109097e+002 2.404471e+000 1.344361e+000
      endloop
   endfacet
   facet normal 0.000000e+000 -1.000000e+000 0.000000e+000
      outer loop
         vertex 8.859096e+002 2.404471e+000 2.634436e+001
         vertex 9.109097e+002 2.404471e+000 1.344361e+000
         vertex 8.859096e+002 2.404471e+000 7.634436e+001
      endloop
   endfacet
   facet normal 0.000000e+000 -1.000000e+000 0.000000e+000
      outer loop
         vertex 8.859096e+002 2.404471e+000 7.634436e+001
         vertex 9.109097e+002 2.404471e+000 1.344361e+000
         vertex 9.109097e+002 2.404471e+000 1.013444e+002
      endloop
   endfacet
   facet normal 0.000000e+000 -1.000000e+000 0.000000e+000
      outer loop
         vertex 8.859096e+002 2.404471e+000 7.634436e+001
         vertex 9.109097e+002 2.404471e+000 1.013444e+002
         vertex 8.359097e+002 2.404471e+000 7.634436e+001
      endloop
   endfacet
   facet normal 0.000000e+000 -1.000000e+000 0.000000e+000
      outer loop
         vertex 8.359097e+002 2.404471e+000 7.634436e+001
         vertex 9.109097e+002 2.404471e+000 1.013444e+002
         vertex 8.109096e+002 2.404471e+000 1.013444e+002
      endloop
   endfacet
   facet normal 0.000000e+000 0.000000e+000 1.000000e+000
      outer loop
         vertex 8.859096e+002 7.740447e+001 1.013444e+002
         vertex 9.109097e+002 1.024045e+002 1.013444e+002
         vertex 8.109096e+002 1.024045e+002 1.013444e+002
      endloop
   endfacet
   facet normal 0.000000e+000 0.000000e+000 1.000000e+000
      outer loop
         vertex 9.109097e+002 1.024045e+002 1.013444e+002
         vertex 8.859096e+002 7.740447e+001 1.013444e+002
         vertex 9.109097e+002 2.404471e+000 1.013444e+002
      endloop
   endfacet
   facet normal 0.000000e+000 0.000000e+000 1.000000e+000
      outer loop
         vertex 9.109097e+002 2.404471e+000 1.013444e+002
         vertex 8.859096e+002 7.740447e+001 1.013444e+002
         vertex 8.859096e+002 2.740447e+001 1.013444e+002
      endloop
   endfacet
   facet normal 0.000000e+000 0.000000e+000 1.000000e+000
      outer loop
         vertex 9.109097e+002 2.404471e+000 1.013444e+002
         vertex 8.859096e+002 2.740447e+001 1.013444e+002
         vertex 8.109096e+002 2.404471e+000 1.013444e+002
      endloop
   endfacet
   facet normal 0.000000e+000 0.000000e+000 1.000000e+000
      outer loop
         vertex 8.109096e+002 2.404471e+000 1.013444e+002
         vertex 8.859096e+002 2.740447e+001 1.013444e+002
         vertex 8.359097e+002 2.740447e+001 1.013444e+002
      endloop
   endfacet
   facet normal 0.000000e+000 0.000000e+000 1.000000e+000
      outer loop
         vertex 8.109096e+002 2.404471e+000 1.013444e+002
         vertex 8.359097e+002 2.740447e+001 1.013444e+002
         vertex 8.109096e+002 1.024045e+002 1.013444e+002
      endloop
   endfacet
   facet normal 0.000000e+000 0.000000e+000 1.000000e+000
      outer loop
         vertex 8.109096e+002 1.024045e+002 1.013444e+002
         vertex 8.359097e+002 2.740447e+001 1.013444e+002
         vertex 8.359097e+002 7.740447e+001 1.013444e+002
      endloop
   endfacet
   facet normal 0.000000e+000 0.000000e+000 1.000000e+000
      outer loop
         vertex 8.109096e+002 1.024045e+002 1.013444e+002
         vertex 8.359097e+002 7.740447e+001 1.013444e+002
         vertex 8.859096e+002 7.740447e+001 1.013444e+002
      endloop
   endfacet
   facet normal 0.000000e+000 0.000000e+000 -1.000000e+000
      outer loop
         vertex 8.859096e+002 2.740447e+001 1.344361e+000
         vertex 9.109097e+002 2.404471e+000 1.344361e+000
         vertex 8.359097e+002 2.740447e+001 1.344361e+000
      endloop
   endfacet
   facet normal 0.000000e+000 0.000000e+000 -1.000000e+000
      outer loop
         vertex 8.359097e+002 2.740447e+001 1.344361e+000
         vertex 9.109097e+002 2.404471e+000 1.344361e+000
         vertex 8.109096e+002 2.404471e+000 1.344361e+000
      endloop
   endfacet
   facet normal 0.000000e+000 0.000000e+000 -1.000000e+000
      outer loop
         vertex 8.359097e+002 2.740447e+001 1.344361e+000
         vertex 8.109096e+002 2.404471e+000 1.344361e+000
         vertex 8.359097e+002 7.740447e+001 1.344361e+000
      endloop
   endfacet
   facet normal 0.000000e+000 0.000000e+000 -1.000000e+000
      outer loop
         vertex 8.359097e+002 7.740447e+001 1.344361e+000
         vertex 8.109096e+002 2.404471e+000 1.344361e+000
         vertex 8.109096e+002 1.024045e+002 1.344361e+000
      endloop
   endfacet
   facet normal 0.000000e+000 0.000000e+000 -1.000000e+000
      outer loop
         vertex 8.359097e+002 7.740447e+001 1.344361e+000
         vertex 8.109096e+002 1.024045e+002 1.344361e+000
         vertex 8.859096e+002 7.740447e+001 1.344361e+000
      endloop
   endfacet
   facet normal 0.000000e+000 0.000000e+000 -1.000000e+000
      outer loop
         vertex 8.859096e+002 7.740447e+001 1.344361e+000
         vertex 8.109096e+002 1.024045e+002 1.344361e+000
         vertex 9.109097e+002 1.024045e+002 1.344361e+000
      endloop
   endfacet
   facet normal 0.000000e+000 0.000000e+000 -1.000000e+000
      outer loop
         vertex 8.859096e+002 7.740447e+001 1.344361e+000
         vertex 9.109097e+002 1.024045e+002 1.344361e+000
         vertex 8.859096e+002 2.740447e+001 1.344361e+000
      endloop
   endfacet
   facet normal 0.000000e+000 0.000000e+000 -1.000000e+000
      outer loop
         vertex 8.859096e+002 2.740447e+001 1.344361e+000
         vertex 9.109097e+002 1.024045e+002 1.344361e+000
         vertex 9.109097e+002 2.404471e+000 1.344361e+000
      endloop
   endfacet
   facet normal -1.000000e+000 0.000000e+000 0.000000e+000
      outer loop
         vertex 8.859096e+002 2.740447e+001 7.634436e+001
         vertex 8.859096e+002 2.740447e+001 1.013444e+002
         vertex 8.859096e+002 7.740447e+001 7.634436e+001
      endloop
   endfacet
   facet normal -1.000000e+000 0.000000e+000 0.000000e+000
      outer loop
         vertex 8.859096e+002 7.740447e+001 7.634436e+001
         vertex 8.859096e+002 2.740447e+001 1.013444e+002
         vertex 8.859096e+002 7.740447e+001 1.013444e+002
      endloop
   endfacet
   facet normal 0.000000e+000 1.000000e+000 0.000000e+000
      outer loop
         vertex 8.859096e+002 2.740447e+001 2.634436e+001
         vertex 8.859096e+002 2.740447e+001 1.344361e+000
         vertex 8.359097e+002 2.740447e+001 2.634436e+001
      endloop
   endfacet
   facet normal 0.000000e+000 1.000000e+000 0.000000e+000
      outer loop
         vertex 8.359097e+002 2.740447e+001 2.634436e+001
         vertex 8.859096e+002 2.740447e+001 1.344361e+000
         vertex 8.359097e+002 2.740447e+001 1.344361e+000
      endloop
   endfacet
   facet normal 1.000000e+000 0.000000e+000 0.000000e+000
      outer loop
         vertex 8.359097e+002 7.740447e+001 7.634436e+001
         vertex 8.359097e+002 7.740447e+001 1.013444e+002
         vertex 8.359097e+002 2.740447e+001 7.634436e+001
      endloop
   endfacet
   facet normal 1.000000e+000 0.000000e+000 0.000000e+000
      outer loop
         vertex 8.359097e+002 2.740447e+001 7.634436e+001
         vertex 8.359097e+002 7.740447e+001 1.013444e+002
         vertex 8.359097e+002 2.740447e+001 1.013444e+002
      endloop
   endfacet
   facet normal 0.000000e+000 -1.000000e+000 0.000000e+000
      outer loop
         vertex 8.359097e+002 7.740447e+001 2.634436e+001
         vertex 8.359097e+002 7.740447e+001 1.344361e+000
         vertex 8.859096e+002 7.740447e+001 2.634436e+001
      endloop
   endfacet
   facet normal 0.000000e+000 -1.000000e+000 0.000000e+000
      outer loop
         vertex 8.859096e+002 7.740447e+001 2.634436e+001
         vertex 8.359097e+002 7.740447e+001 1.344361e+000
         vertex 8.859096e+002 7.740447e+001 1.344361e+000
      endloop
   endfacet
   facet normal 0.000000e+000 -1.387779e-016 -1.000000e+000
      outer loop
         vertex 8.109096e+002 7.740447e+001 7.634436e+001
         vertex 8.359097e+002 7.740447e+001 7.634436e+001
         vertex 8.109096e+002 2.740447e+001 7.634436e+001
      endloop
   endfacet
   facet normal 0.000000e+000 -1.387779e-016 -1.000000e+000
      outer loop
         vertex 8.109096e+002 2.740447e+001 7.634436e+001
         vertex 8.359097e+002 7.740447e+001 7.634436e+001
         vertex 8.359097e+002 2.740447e+001 7.634436e+001
      endloop
   endfacet
   facet normal 0.000000e+000 1.387779e-016 1.000000e+000
      outer loop
         vertex 8.109096e+002 2.740447e+001 2.634436e+001
         vertex 8.359097e+002 2.740447e+001 2.634436e+001
         vertex 8.109096e+002 7.740447e+001 2.634436e+001
      endloop
   endfacet
   facet normal 0.000000e+000 1.387779e-016 1.000000e+000
      outer loop
         vertex 8.109096e+002 7.740447e+001 2.634436e+001
         vertex 8.359097e+002 2.740447e+001 2.634436e+001
         vertex 8.359097e+002 7.740447e+001 2.634436e+001
      endloop
   endfacet
   facet normal 0.000000e+000 1.387779e-016 1.000000e+000
      outer loop
         vertex 9.109097e+002 7.740447e+001 2.634436e+001
         vertex 8.859096e+002 7.740447e+001 2.634436e+001
         vertex 9.109097e+002 2.740447e+001 2.634436e+001
      endloop
   endfacet
   facet normal 0.000000e+000 1.387779e-016 1.000000e+000
      outer loop
         vertex 9.109097e+002 2.740447e+001 2.634436e+001
         vertex 8.859096e+002 7.740447e+001 2.634436e+001
         vertex 8.859096e+002 2.740447e+001 2.634436e+001
      endloop
   endfacet
   facet normal 0.000000e+000 -1.387779e-016 -1.000000e+000
      outer loop
         vertex 9.109097e+002 2.740447e+001 7.634436e+001
         vertex 8.859096e+002 2.740447e+001 7.634436e+001
         vertex 9.109097e+002 7.740447e+001 7.634436e+001
      endloop
   endfacet
   facet normal 0.000000e+000 -1.387779e-016 -1.000000e+000
      outer loop
         vertex 9.109097e+002 7.740447e+001 7.634436e+001
         vertex 8.859096e+002 2.740447e+001 7.634436e+001
         vertex 8.859096e+002 7.740447e+001 7.634436e+001
      endloop
   endfacet
   facet normal 0.000000e+000 0.000000e+000 1.000000e+000
      outer loop
         vertex 8.359097e+002 1.024045e+002 2.634436e+001
         vertex 8.359097e+002 7.740447e+001 2.634436e+001
         vertex 8.859096e+002 1.024045e+002 2.634436e+001
      endloop
   endfacet
   facet normal 0.000000e+000 0.000000e+000 1.000000e+000
      outer loop
         vertex 8.859096e+002 1.024045e+002 2.634436e+001
         vertex 8.359097e+002 7.740447e+001 2.634436e+001
         vertex 8.859096e+002 7.740447e+001 2.634436e+001
      endloop
   endfacet
   facet normal 1.000000e+000 0.000000e+000 0.000000e+000
      outer loop
         vertex 8.359097e+002 1.024045e+002 7.634436e+001
         vertex 8.359097e+002 7.740447e+001 7.634436e+001
         vertex 8.359097e+002 1.024045e+002 2.634436e+001
      endloop
   endfacet
   facet normal 1.000000e+000 0.000000e+000 0.000000e+000
      outer loop
         vertex 8.359097e+002 1.024045e+002 2.634436e+001
         vertex 8.359097e+002 7.740447e+001 7.634436e+001
         vertex 8.359097e+002 7.740447e+001 2.634436e+001
      endloop
   endfacet
   facet normal 0.000000e+000 0.000000e+000 -1.000000e+000
      outer loop
         vertex 8.859096e+002 1.024045e+002 7.634436e+001
         vertex 8.859096e+002 7.740447e+001 7.634436e+001
         vertex 8.359097e+002 1.024045e+002 7.634436e+001
      endloop
   endfacet
   facet normal 0.000000e+000 0.000000e+000 -1.000000e+000
      outer loop
         vertex 8.359097e+002 1.024045e+002 7.634436e+001
         vertex 8.859096e+002 7.740447e+001 7.634436e+001
         vertex 8.359097e+002 7.740447e+001 7.634436e+001
      endloop
   endfacet
   facet normal -1.000000e+000 0.000000e+000 0.000000e+000
      outer loop
         vertex 8.859096e+002 1.024045e+002 2.634436e+001
         vertex 8.859096e+002 7.740447e+001 2.634436e+001
         vertex 8.859096e+002 1.024045e+002 7.634436e+001
      endloop
   endfacet
   facet normal -1.000000e+000 0.000000e+000 0.000000e+000
      outer loop
         vertex 8.859096e+002 1.024045e+002 7.634436e+001
         vertex 8.859096e+002 7.740447e+001 2.634436e+001
         vertex 8.859096e+002 7.740447e+001 7.634436e+001
      endloop
   endfacet
   facet normal 0.000000e+000 0.000000e+000 -1.000000e+000
      outer loop
         vertex 8.359097e+002 2.404471e+000 7.634436e+001
         vertex 8.359097e+002 2.740447e+001 7.634436e+001
         vertex 8.859096e+002 2.404471e+000 7.634436e+001
      endloop
   endfacet
   facet normal 0.000000e+000 0.000000e+000 -1.000000e+000
      outer loop
         vertex 8.859096e+002 2.404471e+000 7.634436e+001
         vertex 8.359097e+002 2.740447e+001 7.634436e+001
         vertex 8.859096e+002 2.740447e+001 7.634436e+001
      endloop
   endfacet
   facet normal 0.000000e+000 0.000000e+000 1.000000e+000
      outer loop
         vertex 8.859096e+002 2.404471e+000 2.634436e+001
         vertex 8.859096e+002 2.740447e+001 2.634436e+001
         vertex 8.359097e+002 2.404471e+000 2.634436e+001
      endloop
   endfacet
   facet normal 0.000000e+000 0.000000e+000 1.000000e+000
      outer loop
         vertex 8.359097e+002 2.404471e+000 2.634436e+001
         vertex 8.859096e+002 2.740447e+001 2.634436e+001
         vertex 8.359097e+002 2.740447e+001 2.634436e+001
      endloop
   endfacet
   facet normal 1.000000e+000 0.000000e+000 0.000000e+000
      outer loop
         vertex 8.359097e+002 2.404471e+000 2.634436e+001
         vertex 8.359097e+002 2.740447e+001 2.634436e+001
         vertex 8.359097e+002 2.404471e+000 7.634436e+001
      endloop
   endfacet
   facet normal 1.000000e+000 0.000000e+000 0.000000e+000
      outer loop
         vertex 8.359097e+002 2.404471e+000 7.634436e+001
         vertex 8.359097e+002 2.740447e+001 2.634436e+001
         vertex 8.359097e+002 2.740447e+001 7.634436e+001
      endloop
   endfacet
   facet normal -1.000000e+000 0.000000e+000 0.000000e+000
      outer loop
         vertex 8.859096e+002 2.404471e+000 7.634436e+001
         vertex 8.859096e+002 2.740447e+001 7.634436e+001
         vertex 8.859096e+002 2.404471e+000 2.634436e+001
      endloop
   endfacet
   facet normal -1.000000e+000 0.000000e+000 0.000000e+000
      outer loop
         vertex 8.859096e+002 2.404471e+000 2.634436e+001
         vertex 8.859096e+002 2.740447e+001 7.634436e+001
         vertex 8.859096e+002 2.740447e+001 2.634436e+001
      endloop
   endfacet
endsolid