solid CubeDouble - cube-3 BCG0-1
   facet normal 0.000000e+000 1.000000e+000 0.000000e+000
      outer loop
         vertex 8.859096e+002 2.740447e+001 8.763444e+002
         vertex 9.109097e+002 2.740447e+001 8.763444e+002
         vertex 8.859096e+002 2.740447e+001 8.263444e+002
      endloop
   endfacet
   facet normal 0.000000e+000 1.000000e+000 0.000000e+000
      outer loop
         vertex 8.859096e+002 2.740447e+001 8.263444e+002
         vertex 9.109097e+002 2.740447e+001 8.763444e+002
         vertex 9.109097e+002 2.740447e+001 8.263444e+002
      endloop
   endfacet
   facet normal 0.000000e+000 1.000000e+000 0.000000e+000
      outer loop
         vertex 8.359097e+002 2.740447e+001 8.763444e+002
         vertex 8.359097e+002 2.740447e+001 9.013444e+002
         vertex 8.859096e+002 2.740447e+001 8.763444e+002
      endloop
   endfacet
   facet normal 0.000000e+000 1.000000e+000 0.000000e+000
      outer loop
         vertex 8.859096e+002 2.740447e+001 8.763444e+002
         vertex 8.359097e+002 2.740447e+001 9.013444e+002
         vertex 8.859096e+002 2.740447e+001 9.013444e+002
      endloop
   endfacet
   facet normal 0.000000e+000 1.000000e+000 0.000000e+000
      outer loop
         vertex 8.359097e+002 2.740447e+001 8.263444e+002
         vertex 8.109096e+002 2.740447e+001 8.263444e+002
         vertex 8.359097e+002 2.740447e+001 8.763444e+002
      endloop
   endfacet
   facet normal 0.000000e+000 1.000000e+000 0.000000e+000
      outer loop
         vertex 8.359097e+002 2.740447e+001 8.763444e+002
         vertex 8.109096e+002 2.740447e+001 8.263444e+002
         vertex 8.109096e+002 2.740447e+001 8.763444e+002
      endloop
   endfacet
   facet normal 0.000000e+000 -1.000000e+000 0.000000e+000
      outer loop
         vertex 8.859096e+002 7.740447e+001 8.263444e+002
         vertex 9.109097e+002 7.740447e+001 8.263444e+002
         vertex 8.859096e+002 7.740447e+001 8.763444e+002
      endloop
   endfacet
   facet normal 0.000000e+000 -1.000000e+000 0.000000e+000
      outer loop
         vertex 8.859096e+002 7.740447e+001 8.763444e+002
         vertex 9.109097e+002 7.740447e+001 8.263444e+002
         vertex 9.109097e+002 7.740447e+001 8.763444e+002
      endloop
   endfacet
   facet normal 0.000000e+000 -1.000000e+000 0.000000e+000
      outer loop
         vertex 8.859096e+002 7.740447e+001 8.763444e+002
         vertex 8.859096e+002 7.740447e+001 9.013444e+002
         vertex 8.359097e+002 7.740447e+001 8.763444e+002
      endloop
   endfacet
   facet normal 0.000000e+000 -1.000000e+000 0.000000e+000
      outer loop
         vertex 8.359097e+002 7.740447e+001 8.763444e+002
         vertex 8.859096e+002 7.740447e+001 9.013444e+002
         vertex 8.359097e+002 7.740447e+001 9.013444e+002
      endloop
   endfacet
   facet normal 0.000000e+000 -1.000000e+000 0.000000e+000
      outer loop
         vertex 8.359097e+002 7.740447e+001 8.763444e+002
         vertex 8.109096e+002 7.740447e+001 8.763444e+002
         vertex 8.359097e+002 7.740447e+001 8.263444e+002
      endloop
   endfacet
   facet normal 0.000000e+000 -1.000000e+000 0.000000e+000
      outer loop
         vertex 8.359097e+002 7.740447e+001 8.263444e+002
         vertex 8.109096e+002 7.740447e+001 8.763444e+002
         vertex 8.109096e+002 7.740447e+001 8.263444e+002
      endloop
   endfacet
   facet normal -1.000000e+000 0.000000e+000 0.000000e+000
      outer loop
         vertex 8.859096e+002 7.740447e+001 8.263444e+002
         vertex 8.859096e+002 7.740447e+001 8.013444e+002
         vertex 8.859096e+002 2.740447e+001 8.263444e+002
      endloop
   endfacet
   facet normal -1.000000e+000 0.000000e+000 0.000000e+000
      outer loop
         vertex 8.859096e+002 2.740447e+001 8.263444e+002
         vertex 8.859096e+002 7.740447e+001 8.013444e+002
         vertex 8.859096e+002 2.740447e+001 8.013444e+002
      endloop
   endfacet
   facet normal 1.000000e+000 0.000000e+000 0.000000e+000
      outer loop
         vertex 8.359097e+002 2.740447e+001 8.263444e+002
         vertex 8.359097e+002 2.740447e+001 8.013444e+002
         vertex 8.359097e+002 7.740447e+001 8.263444e+002
      endloop
   endfacet
   facet normal 1.000000e+000 0.000000e+000 0.000000e+000
      outer loop
         vertex 8.359097e+002 7.740447e+001 8.263444e+002
         vertex 8.359097e+002 2.740447e+001 8.013444e+002
         vertex 8.359097e+002 7.740447e+001 8.013444e+002
      endloop
   endfacet
   facet normal 1.000000e+000 0.000000e+000 0.000000e+000
      outer loop
         vertex 9.109097e+002 7.740447e+001 8.263444e+002
         vertex 9.109097e+002 1.024045e+002 8.013444e+002
         vertex 9.109097e+002 1.024045e+002 9.013444e+002
      endloop
   endfacet
   facet normal 1.000000e+000 0.000000e+000 0.000000e+000
      outer loop
         vertex 9.109097e+002 1.024045e+002 8.013444e+002
         vertex 9.109097e+002 7.740447e+001 8.263444e+002
         vertex 9.109097e+002 2.404471e+000 8.013444e+002
      endloop
   endfacet
   facet normal 1.000000e+000 0.000000e+000 0.000000e+000
      outer loop
         vertex 9.109097e+002 2.404471e+000 8.013444e+002
         vertex 9.109097e+002 7.740447e+001 8.263444e+002
         vertex 9.109097e+002 2.740447e+001 8.263444e+002
      endloop
   endfacet
   facet normal 1.000000e+000 0.000000e+000 0.000000e+000
      outer loop
         vertex 9.109097e+002 2.404471e+000 8.013444e+002
         vertex 9.109097e+002 2.740447e+001 8.263444e+002
         vertex 9.109097e+002 2.404471e+000 9.013444e+002
      endloop
   endfacet
   facet normal 1.000000e+000 0.000000e+000 0.000000e+000
      outer loop
         vertex 9.109097e+002 2.404471e+000 9.013444e+002
         vertex 9.109097e+002 2.740447e+001 8.263444e+002
         vertex 9.109097e+002 2.740447e+001 8.763444e+002
      endloop
   endfacet
   facet normal 1.000000e+000 0.000000e+000 0.000000e+000
      outer loop
         vertex 9.109097e+002 2.404471e+000 9.013444e+002
         vertex 9.109097e+002 2.740447e+001 8.763444e+002
         vertex 9.109097e+002 1.024045e+002 9.013444e+002
      endloop
   endfacet
   facet normal 1.000000e+000 0.000000e+000 0.000000e+000
      outer loop
         vertex 9.109097e+002 1.024045e+002 9.013444e+002
         vertex 9.109097e+002 2.740447e+001 8.763444e+002
         vertex 9.109097e+002 7.740447e+001 8.763444e+002
      endloop
   endfacet
   facet normal 1.000000e+000 0.000000e+000 0.000000e+000
      outer loop
         vertex 9.109097e+002 1.024045e+002 9.013444e+002
         vertex 9.109097e+002 7.740447e+001 8.763444e+002
         vertex 9.109097e+002 7.740447e+001 8.263444e+002
      endloop
   endfacet
   facet normal 0.000000e+000 1.000000e+000 0.000000e+000
      outer loop
         vertex 8.359097e+002 1.024045e+002 8.263444e+002
         vertex 8.109096e+002 1.024045e+002 8.013444e+002
         vertex 8.359097e+002 1.024045e+002 8.763444e+002
      endloop
   endfacet
   facet normal 0.000000e+000 1.000000e+000 0.000000e+000
      outer loop
         vertex 8.359097e+002 1.024045e+002 8.763444e+002
         vertex 8.109096e+002 1.024045e+002 8.013444e+002
         vertex 8.109096e+002 1.024045e+002 9.013444e+002
      endloop
   endfacet
   facet normal 0.000000e+000 1.000000e+000 0.000000e+000
      outer loop
         vertex 8.359097e+002 1.024045e+002 8.763444e+002
         vertex 8.109096e+002 1.024045e+002 9.013444e+002
         vertex 8.859096e+002 1.024045e+002 8.763444e+002
      endloop
   endfacet
   facet normal 0.000000e+000 1.000000e+000 0.000000e+000
      outer loop
         vertex 8.859096e+002 1.024045e+002 8.763444e+002
         vertex 8.109096e+002 1.024045e+002 9.013444e+002
         vertex 9.109097e+002 1.024045e+002 9.013444e+002
      endloop
   endfacet
   facet normal 0.000000e+000 1.000000e+000 0.000000e+000
      outer loop
         vertex 8.859096e+002 1.024045e+002 8.763444e+002
         vertex 9.109097e+002 1.024045e+002 9.013444e+002
         vertex 8.859096e+002 1.024045e+002 8.263444e+002
      endloop
   endfacet
   facet normal 0.000000e+000 1.000000e+000 0.000000e+000
      outer loop
         vertex 8.859096e+002 1.024045e+002 8.263444e+002
         vertex 9.109097e+002 1.024045e+002 9.013444e+002
         vertex 9.109097e+002 1.024045e+002 8.013444e+002
      endloop
   endfacet
   facet normal 0.000000e+000 1.000000e+000 0.000000e+000
      outer loop
         vertex 8.859096e+002 1.024045e+002 8.263444e+002
         vertex 9.109097e+002 1.024045e+002 8.013444e+002
         vertex 8.359097e+002 1.024045e+002 8.263444e+002
      endloop
   endfacet
   facet normal 0.000000e+000 1.000000e+000 0.000000e+000
      outer loop
         vertex 8.359097e+002 1.024045e+002 8.263444e+002
         vertex 9.109097e+002 1.024045e+002 8.013444e+002
         vertex 8.109096e+002 1.024045e+002 8.013444e+002
      endloop
   endfacet
   facet normal -1.000000e+000 0.000000e+000 0.000000e+000
      outer loop
         vertex 8.109096e+002 7.740447e+001 8.763444e+002
         vertex 8.109096e+002 1.024045e+002 9.013444e+002
         vertex 8.109096e+002 7.740447e+001 8.263444e+002
      endloop
   endfacet
   facet normal -1.000000e+000 0.000000e+000 0.000000e+000
      outer loop
         vertex 8.109096e+002 7.740447e+001 8.263444e+002
         vertex 8.109096e+002 1.024045e+002 9.013444e+002
         vertex 8.109096e+002 1.024045e+002 8.013444e+002
      endloop
   endfacet
   facet normal -1.000000e+000 0.000000e+000 0.000000e+000
      outer loop
         vertex 8.109096e+002 7.740447e+001 8.263444e+002
         vertex 8.109096e+002 1.024045e+002 8.013444e+002
         vertex 8.109096e+002 2.740447e+001 8.263444e+002
      endloop
   endfacet
   facet normal -1.000000e+000 0.000000e+000 0.000000e+000
      outer loop
         vertex 8.109096e+002 2.740447e+001 8.263444e+002
         vertex 8.109096e+002 1.024045e+002 8.013444e+002
         vertex 8.109096e+002 2.404471e+000 8.013444e+002
      endloop
   endfacet
   facet normal -1.000000e+000 0.000000e+000 0.000000e+000
      outer loop
         vertex 8.109096e+002 2.740447e+001 8.263444e+002
         vertex 8.109096e+002 2.404471e+000 8.013444e+002
         vertex 8.109096e+002 2.740447e+001 8.763444e+002
      endloop
   endfacet
   facet normal -1.000000e+000 0.000000e+000 0.000000e+000
      outer loop
         vertex 8.109096e+002 2.740447e+001 8.763444e+002
         vertex 8.109096e+002 2.404471e+000 8.013444e+002
         vertex 8.109096e+002 2.404471e+000 9.013444e+002
      endloop
   endfacet
   facet normal -1.000000e+000 0.000000e+000 0.000000e+000
      outer loop
         vertex 8.109096e+002 2.740447e+001 8.763444e+002
         vertex 8.109096e+002 2.404471e+000 9.013444e+002
         vertex 8.109096e+002 7.740447e+001 8.763444e+002
      endloop
   endfacet
   facet normal -1.000000e+000 0.000000e+000 0.000000e+000
      outer loop
         vertex 8.109096e+002 7.740447e+001 8.763444e+002
         vertex 8.109096e+002 2.404471e+000 9.013444e+002
         vertex 8.109096e+002 1.024045e+002 9.013444e+002
      endloop
   endfacet
   facet normal 0.000000e+000 -1.000000e+000 0.000000e+000
      outer loop
         vertex 8.359097e+002 2.404471e+000 8.763444e+002
         vertex 8.109096e+002 2.404471e+000 9.013444e+002
         vertex 8.359097e+002 2.404471e+000 8.263444e+002
      endloop
   endfacet
   facet normal 0.000000e+000 -1.000000e+000 0.000000e+000
      outer loop
         vertex 8.359097e+002 2.404471e+000 8.263444e+002
         vertex 8.109096e+002 2.404471e+000 9.013444e+002
         vertex 8.109096e+002 2.404471e+000 8.013444e+002
      endloop
   endfacet
   facet normal 0.000000e+000 -1.000000e+000 0.000000e+000
      outer loop
         vertex 8.359097e+002 2.404471e+000 8.263444e+002
         vertex 8.109096e+002 2.404471e+000 8.013444e+002
         vertex 8.859096e+002 2.404471e+000 8.263444e+002
      endloop
   endfacet
   facet normal 0.000000e+000 -1.000000e+000 0.000000e+000
      outer loop
         vertex 8.859096e+002 2.404471e+000 8.263444e+002
         vertex 8.109096e+002 2.404471e+000 8.013444e+002
         vertex 9.109097e+002 2.404471e+000 8.013444e+002
      endloop
   endfacet
   facet normal 0.000000e+000 -1.000000e+000 0.000000e+000
      outer loop
         vertex 8.859096e+002 2.404471e+000 8.263444e+002
         vertex 9.109097e+002 2.404471e+000 8.013444e+002
         vertex 8.859096e+002 2.404471e+000 8.763444e+002
      endloop
   endfacet
   facet normal 0.000000e+000 -1.000000e+000 0.000000e+000
      outer loop
         vertex 8.859096e+002 2.404471e+000 8.763444e+002
         vertex 9.109097e+002 2.404471e+000 8.013444e+002
         vertex 9.109097e+002 2.404471e+000 9.013444e+002
      endloop
   endfacet
   facet normal 0.000000e+000 -1.000000e+000 0.000000e+000
      outer loop
         vertex 8.859096e+002 2.404471e+000 8.763444e+002
         vertex 9.109097e+002 2.404471e+000 9.013444e+002
         vertex 8.359097e+002 2.404471e+000 8.763444e+002
      endloop
   endfacet
   facet normal 0.000000e+000 -1.000000e+000 0.000000e+000
      outer loop
         vertex 8.359097e+002 2.404471e+000 8.763444e+002
         vertex 9.109097e+002 2.404471e+000 9.013444e+002
         vertex 8.109096e+002 2.404471e+000 9.013444e+002
      endloop
   endfacet
   facet normal 0.000000e+000 0.000000e+000 1.000000e+000
      outer loop
         vertex 8.859096e+002 7.740447e+001 9.013444e+002
         vertex 9.109097e+002 1.024045e+002 9.013444e+002
         vertex 8.109096e+002 1.024045e+002 9.013444e+002
      endloop
   endfacet
   facet normal 0.000000e+000 0.000000e+000 1.000000e+000
      outer loop
         vertex 9.109097e+002 1.024045e+002 9.013444e+002
         vertex 8.859096e+002 7.740447e+001 9.013444e+002
         vertex 9.109097e+002 2.404471e+000 9.013444e+002
      endloop
   endfacet
   facet normal 0.000000e+000 0.000000e+000 1.000000e+000
      outer loop
         vertex 9.109097e+002 2.404471e+000 9.013444e+002
         vertex 8.859096e+002 7.740447e+001 9.013444e+002
         vertex 8.859096e+002 2.740447e+001 9.013444e+002
      endloop
   endfacet
   facet normal 0.000000e+000 0.000000e+000 1.000000e+000
      outer loop
         vertex 9.109097e+002 2.404471e+000 9.013444e+002
         vertex 8.859096e+002 2.740447e+001 9.013444e+002
         vertex 8.109096e+002 2.404471e+000 9.013444e+002
      endloop
   endfacet
   facet normal 0.000000e+000 0.000000e+000 1.000000e+000
      outer loop
         vertex 8.109096e+002 2.404471e+000 9.013444e+002
         vertex 8.859096e+002 2.740447e+001 9.013444e+002
         vertex 8.359097e+002 2.740447e+001 9.013444e+002
      endloop
   endfacet
   facet normal 0.000000e+000 0.000000e+000 1.000000e+000
      outer loop
         vertex 8.109096e+002 2.404471e+000 9.013444e+002
         vertex 8.359097e+002 2.740447e+001 9.013444e+002
         vertex 8.109096e+002 1.024045e+002 9.013444e+002
      endloop
   endfacet
   facet normal 0.000000e+000 0.000000e+000 1.000000e+000
      outer loop
         vertex 8.109096e+002 1.024045e+002 9.013444e+002
         vertex 8.359097e+002 2.740447e+001 9.013444e+002
         vertex 8.359097e+002 7.740447e+001 9.013444e+002
      endloop
   endfacet
   facet normal 0.000000e+000 0.000000e+000 1.000000e+000
      outer loop
         vertex 8.109096e+002 1.024045e+002 9.013444e+002
         vertex 8.359097e+002 7.740447e+001 9.013444e+002
         vertex 8.859096e+002 7.740447e+001 9.013444e+002
      endloop
   endfacet
   facet normal 0.000000e+000 0.000000e+000 -1.000000e+000
      outer loop
         vertex 8.859096e+002 2.740447e+001 8.013444e+002
         vertex 9.109097e+002 2.404471e+000 8.013444e+002
         vertex 8.359097e+002 2.740447e+001 8.013444e+002
      endloop
   endfacet
   facet normal 0.000000e+000 0.000000e+000 -1.000000e+000
      outer loop
         vertex 8.359097e+002 2.740447e+001 8.013444e+002
         vertex 9.109097e+002 2.404471e+000 8.013444e+002
         vertex 8.109096e+002 2.404471e+000 8.013444e+002
      endloop
   endfacet
   facet normal 0.000000e+000 0.000000e+000 -1.000000e+000
      outer loop
         vertex 8.359097e+002 2.740447e+001 8.013444e+002
         vertex 8.109096e+002 2.404471e+000 8.013444e+002
         vertex 8.359097e+002 7.740447e+001 8.013444e+002
      endloop
   endfacet
   facet normal 0.000000e+000 0.000000e+000 -1.000000e+000
      outer loop
         vertex 8.359097e+002 7.740447e+001 8.013444e+002
         vertex 8.109096e+002 2.404471e+000 8.013444e+002
         vertex 8.109096e+002 1.024045e+002 8.013444e+002
      endloop
   endfacet
   facet normal 0.000000e+000 0.000000e+000 -1.000000e+000
      outer loop
         vertex 8.359097e+002 7.740447e+001 8.013444e+002
         vertex 8.109096e+002 1.024045e+002 8.013444e+002
         vertex 8.859096e+002 7.740447e+001 8.013444e+002
      endloop
   endfacet
   facet normal 0.000000e+000 0.000000e+000 -1.000000e+000
      outer loop
         vertex 8.859096e+002 7.740447e+001 8.013444e+002
         vertex 8.109096e+002 1.024045e+002 8.013444e+002
         vertex 9.109097e+002 1.024045e+002 8.013444e+002
      endloop
   endfacet
   facet normal 0.000000e+000 0.000000e+000 -1.000000e+000
      outer loop
         vertex 8.859096e+002 7.740447e+001 8.013444e+002
         vertex 9.109097e+002 1.024045e+002 8.013444e+002
         vertex 8.859096e+002 2.740447e+001 8.013444e+002
      endloop
   endfacet
   facet normal 0.000000e+000 0.000000e+000 -1.000000e+000
      outer loop
         vertex 8.859096e+002 2.740447e+001 8.013444e+002
         vertex 9.109097e+002 1.024045e+002 8.013444e+002
         vertex 9.109097e+002 2.404471e+000 8.013444e+002
      endloop
   endfacet
   facet normal -1.000000e+000 0.000000e+000 0.000000e+000
      outer loop
         vertex 8.859096e+002 2.740447e+001 8.763444e+002
         vertex 8.859096e+002 2.740447e+001 9.013444e+002
         vertex 8.859096e+002 7.740447e+001 8.763444e+002
      endloop
   endfacet
   facet normal -1.000000e+000 0.000000e+000 0.000000e+000
      outer loop
         vertex 8.859096e+002 7.740447e+001 8.763444e+002
         vertex 8.859096e+002 2.740447e+001 9.013444e+002
         vertex 8.859096e+002 7.740447e+001 9.013444e+002
      endloop
   endfacet
   facet normal 0.000000e+000 1.000000e+000 0.000000e+000
      outer loop
         vertex 8.859096e+002 2.740447e+001 8.263444e+002
         vertex 8.859096e+002 2.740447e+001 8.013444e+002
         vertex 8.359097e+002 2.740447e+001 8.263444e+002
      endloop
   endfacet
   facet normal 0.000000e+000 1.000000e+000 0.000000e+000
      outer loop
         vertex 8.359097e+002 2.740447e+001 8.263444e+002
         vertex 8.859096e+002 2.740447e+001 8.013444e+002
         vertex 8.359097e+002 2.740447e+001 8.013444e+002
      endloop
   endfacet
   facet normal 1.000000e+000 0.000000e+000 0.000000e+000
      outer loop
         vertex 8.359097e+002 7.740447e+001 8.763444e+002
         vertex 8.359097e+002 7.740447e+001 9.013444e+002
         vertex 8.359097e+002 2.740447e+001 8.763444e+002
      endloop
   endfacet
   facet normal 1.000000e+000 0.000000e+000 0.000000e+000
      outer loop
         vertex 8.359097e+002 2.740447e+001 8.763444e+002
         vertex 8.359097e+002 7.740447e+001 9.013444e+002
         vertex 8.359097e+002 2.740447e+001 9.013444e+002
      endloop
   endfacet
   facet normal 0.000000e+000 -1.000000e+000 0.000000e+000
      outer loop
         vertex 8.359097e+002 7.740447e+001 8.263444e+002
         vertex 8.359097e+002 7.740447e+001 8.013444e+002
         vertex 8.859096e+002 7.740447e+001 8.263444e+002
      endloop
   endfacet
   facet normal 0.000000e+000 -1.000000e+000 0.000000e+000
      outer loop
         vertex 8.859096e+002 7.740447e+001 8.263444e+002
         vertex 8.359097e+002 7.740447e+001 8.013444e+002
         vertex 8.859096e+002 7.740447e+001 8.013444e+002
      endloop
   endfacet
   facet normal 0.000000e+000 -1.387779e-016 -1.000000e+000
      outer loop
         vertex 8.109096e+002 7.740447e+001 8.763444e+002
         vertex 8.359097e+002 7.740447e+001 8.763444e+002
         vertex 8.109096e+002 2.740447e+001 8.763444e+002
      endloop
   endfacet
   facet normal 0.000000e+000 -1.387779e-016 -1.000000e+000
      outer loop
         vertex 8.109096e+002 2.740447e+001 8.763444e+002
         vertex 8.359097e+002 7.740447e+001 8.763444e+002
         vertex 8.359097e+002 2.740447e+001 8.763444e+002
      endloop
   endfacet
   facet normal 0.000000e+000 1.387779e-016 1.000000e+000
      outer loop
         vertex 8.109096e+002 2.740447e+001 8.263444e+002
         vertex 8.359097e+002 2.740447e+001 8.263444e+002
         vertex 8.109096e+002 7.740447e+001 8.263444e+002
      endloop
   endfacet
   facet normal 0.000000e+000 1.387779e-016 1.000000e+000
      outer loop
         vertex 8.109096e+002 7.740447e+001 8.263444e+002
         vertex 8.359097e+002 2.740447e+001 8.263444e+002
         vertex 8.359097e+002 7.740447e+001 8.263444e+002
      endloop
   endfacet
   facet normal 0.000000e+000 1.387779e-016 1.000000e+000
      outer loop
         vertex 9.109097e+002 7.740447e+001 8.263444e+002
         vertex 8.859096e+002 7.740447e+001 8.263444e+002
         vertex 9.109097e+002 2.740447e+001 8.263444e+002
      endloop
   endfacet
   facet normal 0.000000e+000 1.387779e-016 1.000000e+000
      outer loop
         vertex 9.109097e+002 2.740447e+001 8.263444e+002
         vertex 8.859096e+002 7.740447e+001 8.263444e+002
         vertex 8.859096e+002 2.740447e+001 8.263444e+002
      endloop
   endfacet
   facet normal 0.000000e+000 -1.387779e-016 -1.000000e+000
      outer loop
         vertex 9.109097e+002 2.740447e+001 8.763444e+002
         vertex 8.859096e+002 2.740447e+001 8.763444e+002
         vertex 9.109097e+002 7.740447e+001 8.763444e+002
      endloop
   endfacet
   facet normal 0.000000e+000 -1.387779e-016 -1.000000e+000
      outer loop
         vertex 9.109097e+002 7.740447e+001 8.763444e+002
         vertex 8.859096e+002 2.740447e+001 8.763444e+002
         vertex 8.859096e+002 7.740447e+001 8.763444e+002
      endloop
   endfacet
   facet normal 0.000000e+000 0.000000e+000 1.000000e+000
      outer loop
         vertex 8.359097e+002 1.024045e+002 8.263444e+002
         vertex 8.359097e+002 7.740447e+001 8.263444e+002
         vertex 8.859096e+002 1.024045e+002 8.263444e+002
      endloop
   endfacet
   facet normal 0.000000e+000 0.000000e+000 1.000000e+000
      outer loop
         vertex 8.859096e+002 1.024045e+002 8.263444e+002
         vertex 8.359097e+002 7.740447e+001 8.263444e+002
         vertex 8.859096e+002 7.740447e+001 8.263444e+002
      endloop
   endfacet
   facet normal 1.000000e+000 0.000000e+000 0.000000e+000
      outer loop
         vertex 8.359097e+002 1.024045e+002 8.763444e+002
         vertex 8.359097e+002 7.740447e+001 8.763444e+002
         vertex 8.359097e+002 1.024045e+002 8.263444e+002
      endloop
   endfacet
   facet normal 1.000000e+000 0.000000e+000 0.000000e+000
      outer loop
         vertex 8.359097e+002 1.024045e+002 8.263444e+002
         vertex 8.359097e+002 7.740447e+001 8.763444e+002
         vertex 8.359097e+002 7.740447e+001 8.263444e+002
      endloop
   endfacet
   facet normal 0.000000e+000 0.000000e+000 -1.000000e+000
      outer loop
         vertex 8.859096e+002 1.024045e+002 8.763444e+002
         vertex 8.859096e+002 7.740447e+001 8.763444e+002
         vertex 8.359097e+002 1.024045e+002 8.763444e+002
      endloop
   endfacet
   facet normal 0.000000e+000 0.000000e+000 -1.000000e+000
      outer loop
         vertex 8.359097e+002 1.024045e+002 8.763444e+002
         vertex 8.859096e+002 7.740447e+001 8.763444e+002
         vertex 8.359097e+002 7.740447e+001 8.763444e+002
      endloop
   endfacet
   facet normal -1.000000e+000 0.000000e+000 0.000000e+000
      outer loop
         vertex 8.859096e+002 1.024045e+002 8.263444e+002
         vertex 8.859096e+002 7.740447e+001 8.263444e+002
         vertex 8.859096e+002 1.024045e+002 8.763444e+002
      endloop
   endfacet
   facet normal -1.000000e+000 0.000000e+000 0.000000e+000
      outer loop
         vertex 8.859096e+002 1.024045e+002 8.763444e+002
         vertex 8.859096e+002 7.740447e+001 8.263444e+002
         vertex 8.859096e+002 7.740447e+001 8.763444e+002
      endloop
   endfacet
   facet normal 0.000000e+000 0.000000e+000 -1.000000e+000
      outer loop
         vertex 8.359097e+002 2.404471e+000 8.763444e+002
         vertex 8.359097e+002 2.740447e+001 8.763444e+002
         vertex 8.859096e+002 2.404471e+000 8.763444e+002
      endloop
   endfacet
   facet normal 0.000000e+000 0.000000e+000 -1.000000e+000
      outer loop
         vertex 8.859096e+002 2.404471e+000 8.763444e+002
         vertex 8.359097e+002 2.740447e+001 8.763444e+002
         vertex 8.859096e+002 2.740447e+001 8.763444e+002
      endloop
   endfacet
   facet normal 0.000000e+000 0.000000e+000 1.000000e+000
      outer loop
         vertex 8.859096e+002 2.404471e+000 8.263444e+002
         vertex 8.859096e+002 2.740447e+001 8.263444e+002
         vertex 8.359097e+002 2.404471e+000 8.263444e+002
      endloop
   endfacet
   facet normal 0.000000e+000 0.000000e+000 1.000000e+000
      outer loop
         vertex 8.359097e+002 2.404471e+000 8.263444e+002
         vertex 8.859096e+002 2.740447e+001 8.263444e+002
         vertex 8.359097e+002 2.740447e+001 8.263444e+002
      endloop
   endfacet
   facet normal 1.000000e+000 0.000000e+000 0.000000e+000
      outer loop
         vertex 8.359097e+002 2.404471e+000 8.263444e+002
         vertex 8.359097e+002 2.740447e+001 8.263444e+002
         vertex 8.359097e+002 2.404471e+000 8.763444e+002
      endloop
   endfacet
   facet normal 1.000000e+000 0.000000e+000 0.000000e+000
      outer loop
         vertex 8.359097e+002 2.404471e+000 8.763444e+002
         vertex 8.359097e+002 2.740447e+001 8.263444e+002
         vertex 8.359097e+002 2.740447e+001 8.763444e+002
      endloop
   endfacet
   facet normal -1.000000e+000 0.000000e+000 0.000000e+000
      outer loop
         vertex 8.859096e+002 2.404471e+000 8.763444e+002
         vertex 8.859096e+002 2.740447e+001 8.763444e+002
         vertex 8.859096e+002 2.404471e+000 8.263444e+002
      endloop
   endfacet
   facet normal -1.000000e+000 0.000000e+000 0.000000e+000
      outer loop
         vertex 8.859096e+002 2.404471e+000 8.263444e+002
         vertex 8.859096e+002 2.740447e+001 8.763444e+002
         vertex 8.859096e+002 2.740447e+001 8.263444e+002
      endloop
   endfacet
endsolid