solid CubeDouble - cube-6 C0-1
   facet normal 0.000000e+000 1.000000e+000 -0.000000e+000
      outer loop
         vertex 8.590965e+001 8.024045e+002 8.263444e+002
         vertex 9.840965e+001 8.024045e+002 8.138444e+002
         vertex 3.590964e+001 8.024045e+002 8.263444e+002
      endloop
   endfacet
   facet normal 0.000000e+000 1.000000e+000 -0.000000e+000
      outer loop
         vertex 3.590964e+001 8.024045e+002 8.263444e+002
         vertex 9.840965e+001 8.024045e+002 8.138444e+002
         vertex 2.340964e+001 8.024045e+002 8.138444e+002
      endloop
   endfacet
   facet normal 0.000000e+000 1.000000e+000 -0.000000e+000
      outer loop
         vertex 3.590964e+001 8.024045e+002 8.263444e+002
         vertex 2.340964e+001 8.024045e+002 8.138444e+002
         vertex 3.590964e+001 8.024045e+002 8.763444e+002
      endloop
   endfacet
   facet normal 0.000000e+000 1.000000e+000 -0.000000e+000
      outer loop
         vertex 3.590964e+001 8.024045e+002 8.763444e+002
         vertex 2.340964e+001 8.024045e+002 8.138444e+002
         vertex 2.340964e+001 8.024045e+002 8.888444e+002
      endloop
   endfacet
   facet normal 0.000000e+000 1.000000e+000 -0.000000e+000
      outer loop
         vertex 3.590964e+001 8.024045e+002 8.763444e+002
         vertex 2.340964e+001 8.024045e+002 8.888444e+002
         vertex 8.590965e+001 8.024045e+002 8.763444e+002
      endloop
   endfacet
   facet normal 0.000000e+000 1.000000e+000 -0.000000e+000
      outer loop
         vertex 8.590965e+001 8.024045e+002 8.763444e+002
         vertex 2.340964e+001 8.024045e+002 8.888444e+002
         vertex 9.840965e+001 8.024045e+002 8.888444e+002
      endloop
   endfacet
   facet normal 0.000000e+000 1.000000e+000 -0.000000e+000
      outer loop
         vertex 8.590965e+001 8.024045e+002 8.763444e+002
         vertex 9.840965e+001 8.024045e+002 8.888444e+002
         vertex 8.590965e+001 8.024045e+002 8.263444e+002
      endloop
   endfacet
   facet normal 0.000000e+000 1.000000e+000 -0.000000e+000
      outer loop
         vertex 8.590965e+001 8.024045e+002 8.263444e+002
         vertex 9.840965e+001 8.024045e+002 8.888444e+002
         vertex 9.840965e+001 8.024045e+002 8.138444e+002
      endloop
   endfacet
   facet normal -0.000000e+000 -0.000000e+000 -1.000000e+000
      outer loop
         vertex 2.340964e+001 8.024045e+002 8.138444e+002
         vertex 9.840965e+001 8.024045e+002 8.138444e+002
         vertex 2.340964e+001 5.024044e+002 8.138444e+002
      endloop
   endfacet
   facet normal -0.000000e+000 -0.000000e+000 -1.000000e+000
      outer loop
         vertex 2.340964e+001 5.024044e+002 8.138444e+002
         vertex 9.840965e+001 8.024045e+002 8.138444e+002
         vertex 9.840965e+001 5.024044e+002 8.138444e+002
      endloop
   endfacet
   facet normal -1.000000e+000 0.000000e+000 0.000000e+000
      outer loop
         vertex 2.340964e+001 8.024045e+002 8.888444e+002
         vertex 2.340964e+001 8.024045e+002 8.138444e+002
         vertex 2.340964e+001 5.024044e+002 8.888444e+002
      endloop
   endfacet
   facet normal -1.000000e+000 0.000000e+000 0.000000e+000
      outer loop
         vertex 2.340964e+001 5.024044e+002 8.888444e+002
         vertex 2.340964e+001 8.024045e+002 8.138444e+002
         vertex 2.340964e+001 5.024044e+002 8.138444e+002
      endloop
   endfacet
   facet normal 0.000000e+000 0.000000e+000 1.000000e+000
      outer loop
         vertex 9.840965e+001 8.024045e+002 8.888444e+002
         vertex 2.340964e+001 8.024045e+002 8.888444e+002
         vertex 9.840965e+001 5.024044e+002 8.888444e+002
      endloop
   endfacet
   facet normal 0.000000e+000 0.000000e+000 1.000000e+000
      outer loop
         vertex 9.840965e+001 5.024044e+002 8.888444e+002
         vertex 2.340964e+001 8.024045e+002 8.888444e+002
         vertex 2.340964e+001 5.024044e+002 8.888444e+002
      endloop
   endfacet
   facet normal 1.000000e+000 -0.000000e+000 -9.251858e-017
      outer loop
         vertex 9.840965e+001 8.024045e+002 8.138444e+002
         vertex 9.840965e+001 8.024045e+002 8.888444e+002
         vertex 9.840965e+001 5.024044e+002 8.138444e+002
      endloop
   endfacet
   facet normal 1.000000e+000 -0.000000e+000 -9.251858e-017
      outer loop
         vertex 9.840965e+001 5.024044e+002 8.138444e+002
         vertex 9.840965e+001 8.024045e+002 8.888444e+002
         vertex 9.840965e+001 5.024044e+002 8.888444e+002
      endloop
   endfacet
   facet normal -0.000000e+000 -1.000000e+000 0.000000e+000
      outer loop
         vertex 8.590965e+001 5.024044e+002 8.263444e+002
         vertex 9.840965e+001 5.024044e+002 8.138444e+002
         vertex 9.840965e+001 5.024044e+002 8.888444e+002
      endloop
   endfacet
   facet normal -0.000000e+000 -1.000000e+000 0.000000e+000
      outer loop
         vertex 9.840965e+001 5.024044e+002 8.138444e+002
         vertex 8.590965e+001 5.024044e+002 8.263444e+002
         vertex 2.340964e+001 5.024044e+002 8.138444e+002
      endloop
   endfacet
   facet normal -0.000000e+000 -1.000000e+000 0.000000e+000
      outer loop
         vertex 2.340964e+001 5.024044e+002 8.138444e+002
         vertex 8.590965e+001 5.024044e+002 8.263444e+002
         vertex 3.590964e+001 5.024044e+002 8.263444e+002
      endloop
   endfacet
   facet normal -0.000000e+000 -1.000000e+000 0.000000e+000
      outer loop
         vertex 2.340964e+001 5.024044e+002 8.138444e+002
         vertex 3.590964e+001 5.024044e+002 8.263444e+002
         vertex 2.340964e+001 5.024044e+002 8.888444e+002
      endloop
   endfacet
   facet normal -0.000000e+000 -1.000000e+000 0.000000e+000
      outer loop
         vertex 2.340964e+001 5.024044e+002 8.888444e+002
         vertex 3.590964e+001 5.024044e+002 8.263444e+002
         vertex 3.590964e+001 5.024044e+002 8.763444e+002
      endloop
   endfacet
   facet normal -0.000000e+000 -1.000000e+000 0.000000e+000
      outer loop
         vertex 2.340964e+001 5.024044e+002 8.888444e+002
         vertex 3.590964e+001 5.024044e+002 8.763444e+002
         vertex 9.840965e+001 5.024044e+002 8.888444e+002
      endloop
   endfacet
   facet normal -0.000000e+000 -1.000000e+000 0.000000e+000
      outer loop
         vertex 9.840965e+001 5.024044e+002 8.888444e+002
         vertex 3.590964e+001 5.024044e+002 8.763444e+002
         vertex 8.590965e+001 5.024044e+002 8.763444e+002
      endloop
   endfacet
   facet normal -0.000000e+000 -1.000000e+000 0.000000e+000
      outer loop
         vertex 9.840965e+001 5.024044e+002 8.888444e+002
         vertex 8.590965e+001 5.024044e+002 8.763444e+002
         vertex 8.590965e+001 5.024044e+002 8.263444e+002
      endloop
   endfacet
   facet normal -0.000000e+000 -0.000000e+000 -1.000000e+000
      outer loop
         vertex 3.590964e+001 8.224045e+002 8.263444e+002
         vertex 8.590965e+001 8.224045e+002 8.263444e+002
         vertex 3.590964e+001 8.024045e+002 8.263444e+002
      endloop
   endfacet
   facet normal -0.000000e+000 -0.000000e+000 -1.000000e+000
      outer loop
         vertex 3.590964e+001 8.024045e+002 8.263444e+002
         vertex 8.590965e+001 8.224045e+002 8.263444e+002
         vertex 8.590965e+001 8.024045e+002 8.263444e+002
      endloop
   endfacet
   facet normal -1.000000e+000 0.000000e+000 1.387779e-016
      outer loop
         vertex 3.590964e+001 8.224045e+002 8.763444e+002
         vertex 3.590964e+001 8.224045e+002 8.263444e+002
         vertex 3.590964e+001 8.024045e+002 8.763444e+002
      endloop
   endfacet
   facet normal -1.000000e+000 0.000000e+000 1.387779e-016
      outer loop
         vertex 3.590964e+001 8.024045e+002 8.763444e+002
         vertex 3.590964e+001 8.224045e+002 8.263444e+002
         vertex 3.590964e+001 8.024045e+002 8.263444e+002
      endloop
   endfacet
   facet normal 0.000000e+000 0.000000e+000 1.000000e+000
      outer loop
         vertex 8.590965e+001 8.224045e+002 8.763444e+002
         vertex 3.590964e+001 8.224045e+002 8.763444e+002
         vertex 8.590965e+001 8.024045e+002 8.763444e+002
      endloop
   endfacet
   facet normal 0.000000e+000 0.000000e+000 1.000000e+000
      outer loop
         vertex 8.590965e+001 8.024045e+002 8.763444e+002
         vertex 3.590964e+001 8.224045e+002 8.763444e+002
         vertex 3.590964e+001 8.024045e+002 8.763444e+002
      endloop
   endfacet
   facet normal 1.000000e+000 -0.000000e+000 -1.387779e-016
      outer loop
         vertex 8.590965e+001 8.224045e+002 8.263444e+002
         vertex 8.590965e+001 8.224045e+002 8.763444e+002
         vertex 8.590965e+001 8.024045e+002 8.263444e+002
      endloop
   endfacet
   facet normal 1.000000e+000 -0.000000e+000 -1.387779e-016
      outer loop
         vertex 8.590965e+001 8.024045e+002 8.263444e+002
         vertex 8.590965e+001 8.224045e+002 8.763444e+002
         vertex 8.590965e+001 8.024045e+002 8.763444e+002
      endloop
   endfacet
   facet normal 0.000000e+000 1.000000e+000 -0.000000e+000
      outer loop
         vertex 3.590964e+001 8.224045e+002 8.763444e+002
         vertex 8.590965e+001 8.224045e+002 8.763444e+002
         vertex 3.590964e+001 8.224045e+002 8.263444e+002
      endloop
   endfacet
   facet normal 0.000000e+000 1.000000e+000 -0.000000e+000
      outer loop
         vertex 3.590964e+001 8.224045e+002 8.263444e+002
         vertex 8.590965e+001 8.224045e+002 8.763444e+002
         vertex 8.590965e+001 8.224045e+002 8.263444e+002
      endloop
   endfacet
   facet normal -0.000000e+000 -0.000000e+000 -1.000000e+000
      outer loop
         vertex 8.590965e+001 4.824045e+002 8.263444e+002
         vertex 3.590964e+001 4.824045e+002 8.263444e+002
         vertex 8.590965e+001 5.024044e+002 8.263444e+002
      endloop
   endfacet
   facet normal -0.000000e+000 -0.000000e+000 -1.000000e+000
      outer loop
         vertex 8.590965e+001 5.024044e+002 8.263444e+002
         vertex 3.590964e+001 4.824045e+002 8.263444e+002
         vertex 3.590964e+001 5.024044e+002 8.263444e+002
      endloop
   endfacet
   facet normal 1.000000e+000 -0.000000e+000 -1.387779e-016
      outer loop
         vertex 8.590965e+001 4.824045e+002 8.763444e+002
         vertex 8.590965e+001 4.824045e+002 8.263444e+002
         vertex 8.590965e+001 5.024044e+002 8.763444e+002
      endloop
   endfacet
   facet normal 1.000000e+000 -0.000000e+000 -1.387779e-016
      outer loop
         vertex 8.590965e+001 5.024044e+002 8.763444e+002
         vertex 8.590965e+001 4.824045e+002 8.263444e+002
         vertex 8.590965e+001 5.024044e+002 8.263444e+002
      endloop
   endfacet
   facet normal 0.000000e+000 0.000000e+000 1.000000e+000
      outer loop
         vertex 3.590964e+001 4.824045e+002 8.763444e+002
         vertex 8.590965e+001 4.824045e+002 8.763444e+002
         vertex 3.590964e+001 5.024044e+002 8.763444e+002
      endloop
   endfacet
   facet normal 0.000000e+000 0.000000e+000 1.000000e+000
      outer loop
         vertex 3.590964e+001 5.024044e+002 8.763444e+002
         vertex 8.590965e+001 4.824045e+002 8.763444e+002
         vertex 8.590965e+001 5.024044e+002 8.763444e+002
      endloop
   endfacet
   facet normal -1.000000e+000 0.000000e+000 1.387779e-016
      outer loop
         vertex 3.590964e+001 4.824045e+002 8.263444e+002
         vertex 3.590964e+001 4.824045e+002 8.763444e+002
         vertex 3.590964e+001 5.024044e+002 8.263444e+002
      endloop
   endfacet
   facet normal -1.000000e+000 0.000000e+000 1.387779e-016
      outer loop
         vertex 3.590964e+001 5.024044e+002 8.263444e+002
         vertex 3.590964e+001 4.824045e+002 8.763444e+002
         vertex 3.590964e+001 5.024044e+002 8.763444e+002
      endloop
   endfacet
   facet normal -0.000000e+000 -1.000000e+000 0.000000e+000
      outer loop
         vertex 8.590965e+001 4.824045e+002 8.763444e+002
         vertex 3.590964e+001 4.824045e+002 8.763444e+002
         vertex 8.590965e+001 4.824045e+002 8.263444e+002
      endloop
   endfacet
   facet normal -0.000000e+000 -1.000000e+000 0.000000e+000
      outer loop
         vertex 8.590965e+001 4.824045e+002 8.263444e+002
         vertex 3.590964e+001 4.824045e+002 8.763444e+002
         vertex 3.590964e+001 4.824045e+002 8.263444e+002
      endloop
   endfacet
endsolid