solid CubeDouble - B0-5
   facet normal 1.000000e+000 -1.386670e-032 -1.779758e-016
      outer loop
         vertex 4.109097e+002 7.740447e+001 7.634436e+001
         vertex 4.109097e+002 8.990447e+001 8.884437e+001
         vertex 4.109097e+002 2.740447e+001 7.634436e+001
      endloop
   endfacet
   facet normal 1.000000e+000 -1.386670e-032 -1.779758e-016
      outer loop
         vertex 4.109097e+002 2.740447e+001 7.634436e+001
         vertex 4.109097e+002 8.990447e+001 8.884437e+001
         vertex 4.109097e+002 1.490447e+001 8.884437e+001
      endloop
   endfacet
   facet normal 1.000000e+000 -1.386670e-032 -1.779758e-016
      outer loop
         vertex 4.109097e+002 2.740447e+001 7.634436e+001
         vertex 4.109097e+002 1.490447e+001 8.884437e+001
         vertex 4.109097e+002 2.740447e+001 2.634436e+001
      endloop
   endfacet
   facet normal 1.000000e+000 -1.386670e-032 -1.779758e-016
      outer loop
         vertex 4.109097e+002 2.740447e+001 2.634436e+001
         vertex 4.109097e+002 1.490447e+001 8.884437e+001
         vertex 4.109097e+002 1.490447e+001 1.384436e+001
      endloop
   endfacet
   facet normal 1.000000e+000 -1.386670e-032 -1.779758e-016
      outer loop
         vertex 4.109097e+002 2.740447e+001 2.634436e+001
         vertex 4.109097e+002 1.490447e+001 1.384436e+001
         vertex 4.109097e+002 7.740447e+001 2.634436e+001
      endloop
   endfacet
   facet normal 1.000000e+000 -1.386670e-032 -1.779758e-016
      outer loop
         vertex 4.109097e+002 7.740447e+001 2.634436e+001
         vertex 4.109097e+002 1.490447e+001 1.384436e+001
         vertex 4.109097e+002 8.990447e+001 1.384436e+001
      endloop
   endfacet
   facet normal 1.000000e+000 -1.386670e-032 -1.779758e-016
      outer loop
         vertex 4.109097e+002 7.740447e+001 2.634436e+001
         vertex 4.109097e+002 8.990447e+001 1.384436e+001
         vertex 4.109097e+002 7.740447e+001 7.634436e+001
      endloop
   endfacet
   facet normal 1.000000e+000 -1.386670e-032 -1.779758e-016
      outer loop
         vertex 4.109097e+002 7.740447e+001 7.634436e+001
         vertex 4.109097e+002 8.990447e+001 1.384436e+001
         vertex 4.109097e+002 8.990447e+001 8.884437e+001
      endloop
   endfacet
   facet normal 1.779758e-016 0.000000e+000 1.000000e+000
      outer loop
         vertex 4.109097e+002 1.490447e+001 8.884437e+001
         vertex 4.109097e+002 8.990447e+001 8.884437e+001
         vertex 1.109096e+002 1.490447e+001 8.884437e+001
      endloop
   endfacet
   facet normal 1.779758e-016 0.000000e+000 1.000000e+000
      outer loop
         vertex 1.109096e+002 1.490447e+001 8.884437e+001
         vertex 4.109097e+002 8.990447e+001 8.884437e+001
         vertex 1.109096e+002 8.990447e+001 8.884437e+001
      endloop
   endfacet
   facet normal 1.975929e-032 -1.000000e+000 1.110223e-016
      outer loop
         vertex 4.109097e+002 1.490447e+001 1.384436e+001
         vertex 4.109097e+002 1.490447e+001 8.884437e+001
         vertex 1.109096e+002 1.490447e+001 1.384436e+001
      endloop
   endfacet
   facet normal 1.975929e-032 -1.000000e+000 1.110223e-016
      outer loop
         vertex 1.109096e+002 1.490447e+001 1.384436e+001
         vertex 4.109097e+002 1.490447e+001 8.884437e+001
         vertex 1.109096e+002 1.490447e+001 8.884437e+001
      endloop
   endfacet
   facet normal -1.779758e-016 -0.000000e+000 -1.000000e+000
      outer loop
         vertex 4.109097e+002 8.990447e+001 1.384436e+001
         vertex 4.109097e+002 1.490447e+001 1.384436e+001
         vertex 1.109096e+002 8.990447e+001 1.384436e+001
      endloop
   endfacet
   facet normal -1.779758e-016 -0.000000e+000 -1.000000e+000
      outer loop
         vertex 1.109096e+002 8.990447e+001 1.384436e+001
         vertex 4.109097e+002 1.490447e+001 1.384436e+001
         vertex 1.109096e+002 1.490447e+001 1.384436e+001
      endloop
   endfacet
   facet normal -3.293215e-033 1.000000e+000 -1.850372e-017
      outer loop
         vertex 4.109097e+002 8.990447e+001 8.884437e+001
         vertex 4.109097e+002 8.990447e+001 1.384436e+001
         vertex 1.109096e+002 8.990447e+001 8.884437e+001
      endloop
   endfacet
   facet normal -3.293215e-033 1.000000e+000 -1.850372e-017
      outer loop
         vertex 1.109096e+002 8.990447e+001 8.884437e+001
         vertex 4.109097e+002 8.990447e+001 1.384436e+001
         vertex 1.109096e+002 8.990447e+001 1.384436e+001
      endloop
   endfacet
   facet normal -1.000000e+000 1.386670e-032 1.779758e-016
      outer loop
         vertex 1.109096e+002 7.740447e+001 7.634436e+001
         vertex 1.109096e+002 8.990447e+001 8.884437e+001
         vertex 1.109096e+002 8.990447e+001 1.384436e+001
      endloop
   endfacet
   facet normal -1.000000e+000 1.386670e-032 1.779758e-016
      outer loop
         vertex 1.109096e+002 8.990447e+001 8.884437e+001
         vertex 1.109096e+002 7.740447e+001 7.634436e+001
         vertex 1.109096e+002 1.490447e+001 8.884437e+001
      endloop
   endfacet
   facet normal -1.000000e+000 1.386670e-032 1.779758e-016
      outer loop
         vertex 1.109096e+002 1.490447e+001 8.884437e+001
         vertex 1.109096e+002 7.740447e+001 7.634436e+001
         vertex 1.109096e+002 2.740447e+001 7.634436e+001
      endloop
   endfacet
   facet normal -1.000000e+000 1.386670e-032 1.779758e-016
      outer loop
         vertex 1.109096e+002 1.490447e+001 8.884437e+001
         vertex 1.109096e+002 2.740447e+001 7.634436e+001
         vertex 1.109096e+002 1.490447e+001 1.384436e+001
      endloop
   endfacet
   facet normal -1.000000e+000 1.386670e-032 1.779758e-016
      outer loop
         vertex 1.109096e+002 1.490447e+001 1.384436e+001
         vertex 1.109096e+002 2.740447e+001 7.634436e+001
         vertex 1.109096e+002 2.740447e+001 2.634436e+001
      endloop
   endfacet
   facet normal -1.000000e+000 1.386670e-032 1.779758e-016
      outer loop
         vertex 1.109096e+002 1.490447e+001 1.384436e+001
         vertex 1.109096e+002 2.740447e+001 2.634436e+001
         vertex 1.109096e+002 8.990447e+001 1.384436e+001
      endloop
   endfacet
   facet normal -1.000000e+000 1.386670e-032 1.779758e-016
      outer loop
         vertex 1.109096e+002 8.990447e+001 1.384436e+001
         vertex 1.109096e+002 2.740447e+001 2.634436e+001
         vertex 1.109096e+002 7.740447e+001 2.634436e+001
      endloop
   endfacet
   facet normal -1.000000e+000 1.386670e-032 1.779758e-016
      outer loop
         vertex 1.109096e+002 8.990447e+001 1.384436e+001
         vertex 1.109096e+002 7.740447e+001 2.634436e+001
         vertex 1.109096e+002 7.740447e+001 7.634436e+001
      endloop
   endfacet
   facet normal 1.779758e-016 0.000000e+000 1.000000e+000
      outer loop
         vertex 4.309096e+002 2.740447e+001 7.634436e+001
         vertex 4.309096e+002 7.740447e+001 7.634436e+001
         vertex 4.109097e+002 2.740447e+001 7.634436e+001
      endloop
   endfacet
   facet normal 1.779758e-016 0.000000e+000 1.000000e+000
      outer loop
         vertex 4.109097e+002 2.740447e+001 7.634436e+001
         vertex 4.309096e+002 7.740447e+001 7.634436e+001
         vertex 4.109097e+002 7.740447e+001 7.634436e+001
      endloop
   endfacet
   facet normal -4.939822e-033 -1.000000e+000 -2.775558e-017
      outer loop
         vertex 4.309096e+002 2.740447e+001 2.634436e+001
         vertex 4.309096e+002 2.740447e+001 7.634436e+001
         vertex 4.109097e+002 2.740447e+001 2.634436e+001
      endloop
   endfacet
   facet normal -4.939822e-033 -1.000000e+000 -2.775558e-017
      outer loop
         vertex 4.109097e+002 2.740447e+001 2.634436e+001
         vertex 4.309096e+002 2.740447e+001 7.634436e+001
         vertex 4.109097e+002 2.740447e+001 7.634436e+001
      endloop
   endfacet
   facet normal -1.779758e-016 -0.000000e+000 -1.000000e+000
      outer loop
         vertex 4.309096e+002 7.740447e+001 2.634436e+001
         vertex 4.309096e+002 2.740447e+001 2.634436e+001
         vertex 4.109097e+002 7.740447e+001 2.634436e+001
      endloop
   endfacet
   facet normal -1.779758e-016 -0.000000e+000 -1.000000e+000
      outer loop
         vertex 4.109097e+002 7.740447e+001 2.634436e+001
         vertex 4.309096e+002 2.740447e+001 2.634436e+001
         vertex 4.109097e+002 2.740447e+001 2.634436e+001
      endloop
   endfacet
   facet normal 4.939822e-033 1.000000e+000 2.775558e-017
      outer loop
         vertex 4.309096e+002 7.740447e+001 7.634436e+001
         vertex 4.309096e+002 7.740447e+001 2.634436e+001
         vertex 4.109097e+002 7.740447e+001 7.634436e+001
      endloop
   endfacet
   facet normal 4.939822e-033 1.000000e+000 2.775558e-017
      outer loop
         vertex 4.109097e+002 7.740447e+001 7.634436e+001
         vertex 4.309096e+002 7.740447e+001 2.634436e+001
         vertex 4.109097e+002 7.740447e+001 2.634436e+001
      endloop
   endfacet
   facet normal 1.000000e+000 -1.386670e-032 -1.779758e-016
      outer loop
         vertex 4.309096e+002 2.740447e+001 2.634436e+001
         vertex 4.309096e+002 7.740447e+001 2.634436e+001
         vertex 4.309096e+002 2.740447e+001 7.634436e+001
      endloop
   endfacet
   facet normal 1.000000e+000 -1.386670e-032 -1.779758e-016
      outer loop
         vertex 4.309096e+002 2.740447e+001 7.634436e+001
         vertex 4.309096e+002 7.740447e+001 2.634436e+001
         vertex 4.309096e+002 7.740447e+001 7.634436e+001
      endloop
   endfacet
   facet normal 1.779758e-016 0.000000e+000 1.000000e+000
      outer loop
         vertex 9.090964e+001 7.740447e+001 7.634436e+001
         vertex 9.090964e+001 2.740447e+001 7.634436e+001
         vertex 1.109096e+002 7.740447e+001 7.634436e+001
      endloop
   endfacet
   facet normal 1.779758e-016 0.000000e+000 1.000000e+000
      outer loop
         vertex 1.109096e+002 7.740447e+001 7.634436e+001
         vertex 9.090964e+001 2.740447e+001 7.634436e+001
         vertex 1.109096e+002 2.740447e+001 7.634436e+001
      endloop
   endfacet
   facet normal 4.939822e-033 1.000000e+000 2.775558e-017
      outer loop
         vertex 9.090964e+001 7.740447e+001 2.634436e+001
         vertex 9.090964e+001 7.740447e+001 7.634436e+001
         vertex 1.109096e+002 7.740447e+001 2.634436e+001
      endloop
   endfacet
   facet normal 4.939822e-033 1.000000e+000 2.775558e-017
      outer loop
         vertex 1.109096e+002 7.740447e+001 2.634436e+001
         vertex 9.090964e+001 7.740447e+001 7.634436e+001
         vertex 1.109096e+002 7.740447e+001 7.634436e+001
      endloop
   endfacet
   facet normal -1.779758e-016 -0.000000e+000 -1.000000e+000
      outer loop
         vertex 9.090964e+001 2.740447e+001 2.634436e+001
         vertex 9.090964e+001 7.740447e+001 2.634436e+001
         vertex 1.109096e+002 2.740447e+001 2.634436e+001
      endloop
   endfacet
   facet normal -1.779758e-016 -0.000000e+000 -1.000000e+000
      outer loop
         vertex 1.109096e+002 2.740447e+001 2.634436e+001
         vertex 9.090964e+001 7.740447e+001 2.634436e+001
         vertex 1.109096e+002 7.740447e+001 2.634436e+001
      endloop
   endfacet
   facet normal -4.939822e-033 -1.000000e+000 -2.775558e-017
      outer loop
         vertex 9.090964e+001 2.740447e+001 7.634436e+001
         vertex 9.090964e+001 2.740447e+001 2.634436e+001
         vertex 1.109096e+002 2.740447e+001 7.634436e+001
      endloop
   endfacet
   facet normal -4.939822e-033 -1.000000e+000 -2.775558e-017
      outer loop
         vertex 1.109096e+002 2.740447e+001 7.634436e+001
         vertex 9.090964e+001 2.740447e+001 2.634436e+001
         vertex 1.109096e+002 2.740447e+001 2.634436e+001
      endloop
   endfacet
   facet normal -1.000000e+000 1.386670e-032 1.779758e-016
      outer loop
         vertex 9.090964e+001 7.740447e+001 2.634436e+001
         vertex 9.090964e+001 2.740447e+001 2.634436e+001
         vertex 9.090964e+001 7.740447e+001 7.634436e+001
      endloop
   endfacet
   facet normal -1.000000e+000 1.386670e-032 1.779758e-016
      outer loop
         vertex 9.090964e+001 7.740447e+001 7.634436e+001
         vertex 9.090964e+001 2.740447e+001 2.634436e+001
         vertex 9.090964e+001 2.740447e+001 7.634436e+001
      endloop
   endfacet
endsolid