solid CubeDouble - A0-6
   facet normal 0.000000e+000 0.000000e+000 1.000000e+000
      outer loop
         vertex 3.590964e+001 7.740447e+001 8.013444e+002
         vertex 2.340964e+001 8.990447e+001 8.013444e+002
         vertex 3.590964e+001 2.740447e+001 8.013444e+002
      endloop
   endfacet
   facet normal 0.000000e+000 0.000000e+000 1.000000e+000
      outer loop
         vertex 3.590964e+001 2.740447e+001 8.013444e+002
         vertex 2.340964e+001 8.990447e+001 8.013444e+002
         vertex 2.340964e+001 1.490447e+001 8.013444e+002
      endloop
   endfacet
   facet normal 0.000000e+000 0.000000e+000 1.000000e+000
      outer loop
         vertex 3.590964e+001 2.740447e+001 8.013444e+002
         vertex 2.340964e+001 1.490447e+001 8.013444e+002
         vertex 8.590965e+001 2.740447e+001 8.013444e+002
      endloop
   endfacet
   facet normal 0.000000e+000 0.000000e+000 1.000000e+000
      outer loop
         vertex 8.590965e+001 2.740447e+001 8.013444e+002
         vertex 2.340964e+001 1.490447e+001 8.013444e+002
         vertex 9.840965e+001 1.490447e+001 8.013444e+002
      endloop
   endfacet
   facet normal 0.000000e+000 0.000000e+000 1.000000e+000
      outer loop
         vertex 8.590965e+001 2.740447e+001 8.013444e+002
         vertex 9.840965e+001 1.490447e+001 8.013444e+002
         vertex 8.590965e+001 7.740447e+001 8.013444e+002
      endloop
   endfacet
   facet normal 0.000000e+000 0.000000e+000 1.000000e+000
      outer loop
         vertex 8.590965e+001 7.740447e+001 8.013444e+002
         vertex 9.840965e+001 1.490447e+001 8.013444e+002
         vertex 9.840965e+001 8.990447e+001 8.013444e+002
      endloop
   endfacet
   facet normal 0.000000e+000 0.000000e+000 1.000000e+000
      outer loop
         vertex 8.590965e+001 7.740447e+001 8.013444e+002
         vertex 9.840965e+001 8.990447e+001 8.013444e+002
         vertex 3.590964e+001 7.740447e+001 8.013444e+002
      endloop
   endfacet
   facet normal 0.000000e+000 0.000000e+000 1.000000e+000
      outer loop
         vertex 3.590964e+001 7.740447e+001 8.013444e+002
         vertex 9.840965e+001 8.990447e+001 8.013444e+002
         vertex 2.340964e+001 8.990447e+001 8.013444e+002
      endloop
   endfacet
   facet normal -1.000000e+000 0.000000e+000 0.000000e+000
      outer loop
         vertex 2.340964e+001 1.490447e+001 8.013444e+002
         vertex 2.340964e+001 8.990447e+001 8.013444e+002
         vertex 2.340964e+001 1.490447e+001 5.013444e+002
      endloop
   endfacet
   facet normal -1.000000e+000 0.000000e+000 0.000000e+000
      outer loop
         vertex 2.340964e+001 1.490447e+001 5.013444e+002
         vertex 2.340964e+001 8.990447e+001 8.013444e+002
         vertex 2.340964e+001 8.990447e+001 5.013444e+002
      endloop
   endfacet
   facet normal 0.000000e+000 -1.000000e+000 0.000000e+000
      outer loop
         vertex 9.840965e+001 1.490447e+001 8.013444e+002
         vertex 2.340964e+001 1.490447e+001 8.013444e+002
         vertex 9.840965e+001 1.490447e+001 5.013444e+002
      endloop
   endfacet
   facet normal 0.000000e+000 -1.000000e+000 0.000000e+000
      outer loop
         vertex 9.840965e+001 1.490447e+001 5.013444e+002
         vertex 2.340964e+001 1.490447e+001 8.013444e+002
         vertex 2.340964e+001 1.490447e+001 5.013444e+002
      endloop
   endfacet
   facet normal 1.000000e+000 0.000000e+000 0.000000e+000
      outer loop
         vertex 9.840965e+001 8.990447e+001 8.013444e+002
         vertex 9.840965e+001 1.490447e+001 8.013444e+002
         vertex 9.840965e+001 8.990447e+001 5.013444e+002
      endloop
   endfacet
   facet normal 1.000000e+000 0.000000e+000 0.000000e+000
      outer loop
         vertex 9.840965e+001 8.990447e+001 5.013444e+002
         vertex 9.840965e+001 1.490447e+001 8.013444e+002
         vertex 9.840965e+001 1.490447e+001 5.013444e+002
      endloop
   endfacet
   facet normal -9.251858e-017 1.000000e+000 0.000000e+000
      outer loop
         vertex 2.340964e+001 8.990447e+001 8.013444e+002
         vertex 9.840965e+001 8.990447e+001 8.013444e+002
         vertex 2.340964e+001 8.990447e+001 5.013444e+002
      endloop
   endfacet
   facet normal -9.251858e-017 1.000000e+000 0.000000e+000
      outer loop
         vertex 2.340964e+001 8.990447e+001 5.013444e+002
         vertex 9.840965e+001 8.990447e+001 8.013444e+002
         vertex 9.840965e+001 8.990447e+001 5.013444e+002
      endloop
   endfacet
   facet normal 0.000000e+000 0.000000e+000 -1.000000e+000
      outer loop
         vertex 3.590964e+001 7.740447e+001 5.013444e+002
         vertex 2.340964e+001 8.990447e+001 5.013444e+002
         vertex 9.840965e+001 8.990447e+001 5.013444e+002
      endloop
   endfacet
   facet normal 0.000000e+000 0.000000e+000 -1.000000e+000
      outer loop
         vertex 2.340964e+001 8.990447e+001 5.013444e+002
         vertex 3.590964e+001 7.740447e+001 5.013444e+002
         vertex 2.340964e+001 1.490447e+001 5.013444e+002
      endloop
   endfacet
   facet normal 0.000000e+000 0.000000e+000 -1.000000e+000
      outer loop
         vertex 2.340964e+001 1.490447e+001 5.013444e+002
         vertex 3.590964e+001 7.740447e+001 5.013444e+002
         vertex 3.590964e+001 2.740447e+001 5.013444e+002
      endloop
   endfacet
   facet normal 0.000000e+000 0.000000e+000 -1.000000e+000
      outer loop
         vertex 2.340964e+001 1.490447e+001 5.013444e+002
         vertex 3.590964e+001 2.740447e+001 5.013444e+002
         vertex 9.840965e+001 1.490447e+001 5.013444e+002
      endloop
   endfacet
   facet normal 0.000000e+000 0.000000e+000 -1.000000e+000
      outer loop
         vertex 9.840965e+001 1.490447e+001 5.013444e+002
         vertex 3.590964e+001 2.740447e+001 5.013444e+002
         vertex 8.590965e+001 2.740447e+001 5.013444e+002
      endloop
   endfacet
   facet normal 0.000000e+000 0.000000e+000 -1.000000e+000
      outer loop
         vertex 9.840965e+001 1.490447e+001 5.013444e+002
         vertex 8.590965e+001 2.740447e+001 5.013444e+002
         vertex 9.840965e+001 8.990447e+001 5.013444e+002
      endloop
   endfacet
   facet normal 0.000000e+000 0.000000e+000 -1.000000e+000
      outer loop
         vertex 9.840965e+001 8.990447e+001 5.013444e+002
         vertex 8.590965e+001 2.740447e+001 5.013444e+002
         vertex 8.590965e+001 7.740447e+001 5.013444e+002
      endloop
   endfacet
   facet normal 0.000000e+000 0.000000e+000 -1.000000e+000
      outer loop
         vertex 9.840965e+001 8.990447e+001 5.013444e+002
         vertex 8.590965e+001 7.740447e+001 5.013444e+002
         vertex 3.590964e+001 7.740447e+001 5.013444e+002
      endloop
   endfacet
   facet normal -1.000000e+000 0.000000e+000 0.000000e+000
      outer loop
         vertex 3.590964e+001 2.740447e+001 8.213444e+002
         vertex 3.590964e+001 7.740447e+001 8.213444e+002
         vertex 3.590964e+001 2.740447e+001 8.013444e+002
      endloop
   endfacet
   facet normal -1.000000e+000 0.000000e+000 0.000000e+000
      outer loop
         vertex 3.590964e+001 2.740447e+001 8.013444e+002
         vertex 3.590964e+001 7.740447e+001 8.213444e+002
         vertex 3.590964e+001 7.740447e+001 8.013444e+002
      endloop
   endfacet
   facet normal 1.387779e-016 -1.000000e+000 0.000000e+000
      outer loop
         vertex 8.590965e+001 2.740447e+001 8.213444e+002
         vertex 3.590964e+001 2.740447e+001 8.213444e+002
         vertex 8.590965e+001 2.740447e+001 8.013444e+002
      endloop
   endfacet
   facet normal 1.387779e-016 -1.000000e+000 0.000000e+000
      outer loop
         vertex 8.590965e+001 2.740447e+001 8.013444e+002
         vertex 3.590964e+001 2.740447e+001 8.213444e+002
         vertex 3.590964e+001 2.740447e+001 8.013444e+002
      endloop
   endfacet
   facet normal 1.000000e+000 0.000000e+000 0.000000e+000
      outer loop
         vertex 8.590965e+001 7.740447e+001 8.213444e+002
         vertex 8.590965e+001 2.740447e+001 8.213444e+002
         vertex 8.590965e+001 7.740447e+001 8.013444e+002
      endloop
   endfacet
   facet normal 1.000000e+000 0.000000e+000 0.000000e+000
      outer loop
         vertex 8.590965e+001 7.740447e+001 8.013444e+002
         vertex 8.590965e+001 2.740447e+001 8.213444e+002
         vertex 8.590965e+001 2.740447e+001 8.013444e+002
      endloop
   endfacet
   facet normal -1.387779e-016 1.000000e+000 0.000000e+000
      outer loop
         vertex 3.590964e+001 7.740447e+001 8.213444e+002
         vertex 8.590965e+001 7.740447e+001 8.213444e+002
         vertex 3.590964e+001 7.740447e+001 8.013444e+002
      endloop
   endfacet
   facet normal -1.387779e-016 1.000000e+000 0.000000e+000
      outer loop
         vertex 3.590964e+001 7.740447e+001 8.013444e+002
         vertex 8.590965e+001 7.740447e+001 8.213444e+002
         vertex 8.590965e+001 7.740447e+001 8.013444e+002
      endloop
   endfacet
   facet normal 0.000000e+000 0.000000e+000 1.000000e+000
      outer loop
         vertex 8.590965e+001 2.740447e+001 8.213444e+002
         vertex 8.590965e+001 7.740447e+001 8.213444e+002
         vertex 3.590964e+001 2.740447e+001 8.213444e+002
      endloop
   endfacet
   facet normal 0.000000e+000 0.000000e+000 1.000000e+000
      outer loop
         vertex 3.590964e+001 2.740447e+001 8.213444e+002
         vertex 8.590965e+001 7.740447e+001 8.213444e+002
         vertex 3.590964e+001 7.740447e+001 8.213444e+002
      endloop
   endfacet
   facet normal -1.000000e+000 0.000000e+000 0.000000e+000
      outer loop
         vertex 3.590964e+001 7.740447e+001 4.813444e+002
         vertex 3.590964e+001 2.740447e+001 4.813444e+002
         vertex 3.590964e+001 7.740447e+001 5.013444e+002
      endloop
   endfacet
   facet normal -1.000000e+000 0.000000e+000 0.000000e+000
      outer loop
         vertex 3.590964e+001 7.740447e+001 5.013444e+002
         vertex 3.590964e+001 2.740447e+001 4.813444e+002
         vertex 3.590964e+001 2.740447e+001 5.013444e+002
      endloop
   endfacet
   facet normal -1.387779e-016 1.000000e+000 0.000000e+000
      outer loop
         vertex 8.590965e+001 7.740447e+001 4.813444e+002
         vertex 3.590964e+001 7.740447e+001 4.813444e+002
         vertex 8.590965e+001 7.740447e+001 5.013444e+002
      endloop
   endfacet
   facet normal -1.387779e-016 1.000000e+000 0.000000e+000
      outer loop
         vertex 8.590965e+001 7.740447e+001 5.013444e+002
         vertex 3.590964e+001 7.740447e+001 4.813444e+002
         vertex 3.590964e+001 7.740447e+001 5.013444e+002
      endloop
   endfacet
   facet normal 1.000000e+000 0.000000e+000 0.000000e+000
      outer loop
         vertex 8.590965e+001 2.740447e+001 4.813444e+002
         vertex 8.590965e+001 7.740447e+001 4.813444e+002
         vertex 8.590965e+001 2.740447e+001 5.013444e+002
      endloop
   endfacet
   facet normal 1.000000e+000 0.000000e+000 0.000000e+000
      outer loop
         vertex 8.590965e+001 2.740447e+001 5.013444e+002
         vertex 8.590965e+001 7.740447e+001 4.813444e+002
         vertex 8.590965e+001 7.740447e+001 5.013444e+002
      endloop
   endfacet
   facet normal 1.387779e-016 -1.000000e+000 0.000000e+000
      outer loop
         vertex 3.590964e+001 2.740447e+001 4.813444e+002
         vertex 8.590965e+001 2.740447e+001 4.813444e+002
         vertex 3.590964e+001 2.740447e+001 5.013444e+002
      endloop
   endfacet
   facet normal 1.387779e-016 -1.000000e+000 0.000000e+000
      outer loop
         vertex 3.590964e+001 2.740447e+001 5.013444e+002
         vertex 8.590965e+001 2.740447e+001 4.813444e+002
         vertex 8.590965e+001 2.740447e+001 5.013444e+002
      endloop
   endfacet
   facet normal 0.000000e+000 0.000000e+000 -1.000000e+000
      outer loop
         vertex 8.590965e+001 7.740447e+001 4.813444e+002
         vertex 8.590965e+001 2.740447e+001 4.813444e+002
         vertex 3.590964e+001 7.740447e+001 4.813444e+002
      endloop
   endfacet
   facet normal 0.000000e+000 0.000000e+000 -1.000000e+000
      outer loop
         vertex 3.590964e+001 7.740447e+001 4.813444e+002
         vertex 8.590965e+001 2.740447e+001 4.813444e+002
         vertex 3.590964e+001 2.740447e+001 4.813444e+002
      endloop
   endfacet
endsolid