solid 000-UltraSoundMachine_Johnsonville - 300-TableCage-1 308-AngleBracket-1
   facet normal -2.775558e-017 2.775558e-017 -1.000000e+000
      outer loop
         vertex 5.719445e+002 6.297581e+002 6.321425e+002
         vertex 5.710378e+002 6.291233e+002 6.321425e+002
         vertex 5.528945e+002 7.683500e+002 6.321425e+002
      endloop
   endfacet
   facet normal -2.775558e-017 2.775558e-017 -1.000000e+000
      outer loop
         vertex 5.696202e+002 6.591838e+002 6.321425e+002
         vertex 5.792012e+002 6.291233e+002 6.321425e+002
         vertex 5.691525e+002 6.601871e+002 6.321425e+002
      endloop
   endfacet
   facet normal -2.775558e-017 2.775558e-017 -1.000000e+000
      outer loop
         vertex 5.691525e+002 6.601871e+002 6.321425e+002
         vertex 5.792012e+002 6.291233e+002 6.321425e+002
         vertex 5.782945e+002 6.297581e+002 6.321425e+002
      endloop
   endfacet
   facet normal -2.775558e-017 2.775558e-017 -1.000000e+000
      outer loop
         vertex 5.691525e+002 6.601871e+002 6.321425e+002
         vertex 5.782945e+002 6.297581e+002 6.321425e+002
         vertex 5.772913e+002 6.302259e+002 6.321425e+002
      endloop
   endfacet
   facet normal -2.775558e-017 2.775558e-017 -1.000000e+000
      outer loop
         vertex 5.710378e+002 6.193945e+002 6.321425e+002
         vertex 5.719445e+002 6.187596e+002 6.321425e+002
         vertex 5.528945e+002 3.492500e+002 6.321425e+002
      endloop
   endfacet
   facet normal -2.775558e-017 2.775558e-017 -1.000000e+000
      outer loop
         vertex 5.528945e+002 3.492500e+002 6.321425e+002
         vertex 5.719445e+002 6.187596e+002 6.321425e+002
         vertex 5.729477e+002 6.182918e+002 6.321425e+002
      endloop
   endfacet
   facet normal -2.775558e-017 2.775558e-017 -1.000000e+000
      outer loop
         vertex 5.528945e+002 3.492500e+002 6.321425e+002
         vertex 5.729477e+002 6.182918e+002 6.321425e+002
         vertex 5.909945e+002 3.492500e+002 6.321425e+002
      endloop
   endfacet
   facet normal -2.775558e-017 2.775558e-017 -1.000000e+000
      outer loop
         vertex 5.696202e+002 6.591838e+002 6.321425e+002
         vertex 5.702551e+002 6.582772e+002 6.321425e+002
         vertex 5.792012e+002 6.291233e+002 6.321425e+002
      endloop
   endfacet
   facet normal -2.775558e-017 2.775558e-017 -1.000000e+000
      outer loop
         vertex 5.792012e+002 6.291233e+002 6.321425e+002
         vertex 5.702551e+002 6.582772e+002 6.321425e+002
         vertex 5.710378e+002 6.574945e+002 6.321425e+002
      endloop
   endfacet
   facet normal -2.775558e-017 2.775558e-017 -1.000000e+000
      outer loop
         vertex 5.792012e+002 6.291233e+002 6.321425e+002
         vertex 5.710378e+002 6.574945e+002 6.321425e+002
         vertex 5.719445e+002 6.568596e+002 6.321425e+002
      endloop
   endfacet
   facet normal -2.775558e-017 2.775558e-017 -1.000000e+000
      outer loop
         vertex 5.729477e+002 6.182918e+002 6.321425e+002
         vertex 5.740168e+002 6.180053e+002 6.321425e+002
         vertex 5.909945e+002 3.492500e+002 6.321425e+002
      endloop
   endfacet
   facet normal -2.775558e-017 2.775558e-017 -1.000000e+000
      outer loop
         vertex 5.909945e+002 3.492500e+002 6.321425e+002
         vertex 5.740168e+002 6.180053e+002 6.321425e+002
         vertex 5.751195e+002 6.179089e+002 6.321425e+002
      endloop
   endfacet
   facet normal -2.775558e-017 2.775558e-017 -1.000000e+000
      outer loop
         vertex 5.909945e+002 3.492500e+002 6.321425e+002
         vertex 5.751195e+002 6.179089e+002 6.321425e+002
         vertex 5.762222e+002 6.180053e+002 6.321425e+002
      endloop
   endfacet
   facet normal -2.775558e-017 2.775558e-017 -1.000000e+000
      outer loop
         vertex 5.691525e+002 6.220870e+002 6.321425e+002
         vertex 5.696202e+002 6.210839e+002 6.321425e+002
         vertex 5.528945e+002 3.492500e+002 6.321425e+002
      endloop
   endfacet
   facet normal -2.775558e-017 2.775558e-017 -1.000000e+000
      outer loop
         vertex 5.528945e+002 3.492500e+002 6.321425e+002
         vertex 5.696202e+002 6.210839e+002 6.321425e+002
         vertex 5.702551e+002 6.201771e+002 6.321425e+002
      endloop
   endfacet
   facet normal -2.775558e-017 2.775558e-017 -1.000000e+000
      outer loop
         vertex 5.528945e+002 3.492500e+002 6.321425e+002
         vertex 5.702551e+002 6.201771e+002 6.321425e+002
         vertex 5.710378e+002 6.193945e+002 6.321425e+002
      endloop
   endfacet
   facet normal -2.775558e-017 2.775558e-017 -1.000000e+000
      outer loop
         vertex 5.710378e+002 6.291233e+002 6.321425e+002
         vertex 5.702551e+002 6.283406e+002 6.321425e+002
         vertex 5.528945e+002 7.683500e+002 6.321425e+002
      endloop
   endfacet
   facet normal -2.775558e-017 2.775558e-017 -1.000000e+000
      outer loop
         vertex 5.528945e+002 7.683500e+002 6.321425e+002
         vertex 5.702551e+002 6.283406e+002 6.321425e+002
         vertex 5.696202e+002 6.274339e+002 6.321425e+002
      endloop
   endfacet
   facet normal -2.775558e-017 2.775558e-017 -1.000000e+000
      outer loop
         vertex 5.528945e+002 7.683500e+002 6.321425e+002
         vertex 5.696202e+002 6.274339e+002 6.321425e+002
         vertex 5.691525e+002 6.264307e+002 6.321425e+002
      endloop
   endfacet
   facet normal -2.775558e-017 2.775558e-017 -1.000000e+000
      outer loop
         vertex 5.691525e+002 6.264307e+002 6.321425e+002
         vertex 5.688660e+002 6.253616e+002 6.321425e+002
         vertex 5.528945e+002 7.683500e+002 6.321425e+002
      endloop
   endfacet
   facet normal -2.775558e-017 2.775558e-017 -1.000000e+000
      outer loop
         vertex 5.528945e+002 7.683500e+002 6.321425e+002
         vertex 5.688660e+002 6.253616e+002 6.321425e+002
         vertex 5.687695e+002 6.242589e+002 6.321425e+002
      endloop
   endfacet
   facet normal -2.775558e-017 2.775558e-017 -1.000000e+000
      outer loop
         vertex 5.528945e+002 7.683500e+002 6.321425e+002
         vertex 5.687695e+002 6.242589e+002 6.321425e+002
         vertex 5.528945e+002 3.492500e+002 6.321425e+002
      endloop
   endfacet
   facet normal -2.775558e-017 2.775558e-017 -1.000000e+000
      outer loop
         vertex 5.528945e+002 3.492500e+002 6.321425e+002
         vertex 5.687695e+002 6.242589e+002 6.321425e+002
         vertex 5.688660e+002 6.231562e+002 6.321425e+002
      endloop
   endfacet
   facet normal -2.775558e-017 2.775558e-017 -1.000000e+000
      outer loop
         vertex 5.528945e+002 3.492500e+002 6.321425e+002
         vertex 5.688660e+002 6.231562e+002 6.321425e+002
         vertex 5.691525e+002 6.220870e+002 6.321425e+002
      endloop
   endfacet
   facet normal -2.775558e-017 2.775558e-017 -1.000000e+000
      outer loop
         vertex 5.810865e+002 6.264307e+002 6.321425e+002
         vertex 5.806187e+002 6.274339e+002 6.321425e+002
         vertex 5.751195e+002 6.560089e+002 6.321425e+002
      endloop
   endfacet
   facet normal -2.775558e-017 2.775558e-017 -1.000000e+000
      outer loop
         vertex 5.751195e+002 6.560089e+002 6.321425e+002
         vertex 5.806187e+002 6.274339e+002 6.321425e+002
         vertex 5.799839e+002 6.283406e+002 6.321425e+002
      endloop
   endfacet
   facet normal -2.775558e-017 2.775558e-017 -1.000000e+000
      outer loop
         vertex 5.751195e+002 6.560089e+002 6.321425e+002
         vertex 5.799839e+002 6.283406e+002 6.321425e+002
         vertex 5.740168e+002 6.561053e+002 6.321425e+002
      endloop
   endfacet
   facet normal -2.775558e-017 2.775558e-017 -1.000000e+000
      outer loop
         vertex 5.740168e+002 6.561053e+002 6.321425e+002
         vertex 5.799839e+002 6.283406e+002 6.321425e+002
         vertex 5.792012e+002 6.291233e+002 6.321425e+002
      endloop
   endfacet
   facet normal -2.775558e-017 2.775558e-017 -1.000000e+000
      outer loop
         vertex 5.740168e+002 6.561053e+002 6.321425e+002
         vertex 5.792012e+002 6.291233e+002 6.321425e+002
         vertex 5.729477e+002 6.563918e+002 6.321425e+002
      endloop
   endfacet
   facet normal -2.775558e-017 2.775558e-017 -1.000000e+000
      outer loop
         vertex 5.729477e+002 6.563918e+002 6.321425e+002
         vertex 5.792012e+002 6.291233e+002 6.321425e+002
         vertex 5.719445e+002 6.568596e+002 6.321425e+002
      endloop
   endfacet
   facet normal -2.775558e-017 2.775558e-017 -1.000000e+000
      outer loop
         vertex 5.762222e+002 6.180053e+002 6.321425e+002
         vertex 5.772913e+002 6.182918e+002 6.321425e+002
         vertex 5.909945e+002 3.492500e+002 6.321425e+002
      endloop
   endfacet
   facet normal -2.775558e-017 2.775558e-017 -1.000000e+000
      outer loop
         vertex 5.909945e+002 3.492500e+002 6.321425e+002
         vertex 5.772913e+002 6.182918e+002 6.321425e+002
         vertex 5.782945e+002 6.187596e+002 6.321425e+002
      endloop
   endfacet
   facet normal -2.775558e-017 2.775558e-017 -1.000000e+000
      outer loop
         vertex 5.909945e+002 3.492500e+002 6.321425e+002
         vertex 5.782945e+002 6.187596e+002 6.321425e+002
         vertex 5.792012e+002 6.193945e+002 6.321425e+002
      endloop
   endfacet
   facet normal -2.775558e-017 2.775558e-017 -1.000000e+000
      outer loop
         vertex 5.772913e+002 6.302259e+002 6.321425e+002
         vertex 5.762222e+002 6.305124e+002 6.321425e+002
         vertex 5.691525e+002 6.601871e+002 6.321425e+002
      endloop
   endfacet
   facet normal -2.775558e-017 2.775558e-017 -1.000000e+000
      outer loop
         vertex 5.691525e+002 6.601871e+002 6.321425e+002
         vertex 5.762222e+002 6.305124e+002 6.321425e+002
         vertex 5.751195e+002 6.306089e+002 6.321425e+002
      endloop
   endfacet
   facet normal -2.775558e-017 2.775558e-017 -1.000000e+000
      outer loop
         vertex 5.691525e+002 6.601871e+002 6.321425e+002
         vertex 5.751195e+002 6.306089e+002 6.321425e+002
         vertex 5.688660e+002 6.612562e+002 6.321425e+002
      endloop
   endfacet
   facet normal -2.775558e-017 2.775558e-017 -1.000000e+000
      outer loop
         vertex 5.688660e+002 6.612562e+002 6.321425e+002
         vertex 5.751195e+002 6.306089e+002 6.321425e+002
         vertex 5.740168e+002 6.305124e+002 6.321425e+002
      endloop
   endfacet
   facet normal -2.775558e-017 2.775558e-017 -1.000000e+000
      outer loop
         vertex 5.688660e+002 6.612562e+002 6.321425e+002
         vertex 5.740168e+002 6.305124e+002 6.321425e+002
         vertex 5.729477e+002 6.302259e+002 6.321425e+002
      endloop
   endfacet
   facet normal -2.775558e-017 2.775558e-017 -1.000000e+000
      outer loop
         vertex 5.792012e+002 6.193945e+002 6.321425e+002
         vertex 5.799839e+002 6.201771e+002 6.321425e+002
         vertex 5.909945e+002 3.492500e+002 6.321425e+002
      endloop
   endfacet
   facet normal -2.775558e-017 2.775558e-017 -1.000000e+000
      outer loop
         vertex 5.909945e+002 3.492500e+002 6.321425e+002
         vertex 5.799839e+002 6.201771e+002 6.321425e+002
         vertex 5.806187e+002 6.210839e+002 6.321425e+002
      endloop
   endfacet
   facet normal -2.775558e-017 2.775558e-017 -1.000000e+000
      outer loop
         vertex 5.909945e+002 3.492500e+002 6.321425e+002
         vertex 5.806187e+002 6.210839e+002 6.321425e+002
         vertex 5.810865e+002 6.220870e+002 6.321425e+002
      endloop
   endfacet
   facet normal -2.775558e-017 2.775558e-017 -1.000000e+000
      outer loop
         vertex 5.528945e+002 7.683500e+002 6.321425e+002
         vertex 5.729477e+002 6.683259e+002 6.321425e+002
         vertex 5.719445e+002 6.678582e+002 6.321425e+002
      endloop
   endfacet
   facet normal -2.775558e-017 2.775558e-017 -1.000000e+000
      outer loop
         vertex 5.687695e+002 6.623589e+002 6.321425e+002
         vertex 5.688660e+002 6.612562e+002 6.321425e+002
         vertex 5.528945e+002 7.683500e+002 6.321425e+002
      endloop
   endfacet
   facet normal -2.775558e-017 2.775558e-017 -1.000000e+000
      outer loop
         vertex 5.528945e+002 7.683500e+002 6.321425e+002
         vertex 5.688660e+002 6.612562e+002 6.321425e+002
         vertex 5.729477e+002 6.302259e+002 6.321425e+002
      endloop
   endfacet
   facet normal -2.775558e-017 2.775558e-017 -1.000000e+000
      outer loop
         vertex 5.528945e+002 7.683500e+002 6.321425e+002
         vertex 5.729477e+002 6.302259e+002 6.321425e+002
         vertex 5.719445e+002 6.297581e+002 6.321425e+002
      endloop
   endfacet
   facet normal -2.775558e-017 2.775558e-017 -1.000000e+000
      outer loop
         vertex 5.810865e+002 6.220870e+002 6.321425e+002
         vertex 5.813730e+002 6.231562e+002 6.321425e+002
         vertex 5.909945e+002 3.492500e+002 6.321425e+002
      endloop
   endfacet
   facet normal -2.775558e-017 2.775558e-017 -1.000000e+000
      outer loop
         vertex 5.909945e+002 3.492500e+002 6.321425e+002
         vertex 5.813730e+002 6.231562e+002 6.321425e+002
         vertex 5.814695e+002 6.242589e+002 6.321425e+002
      endloop
   endfacet
   facet normal -2.775558e-017 2.775558e-017 -1.000000e+000
      outer loop
         vertex 5.909945e+002 3.492500e+002 6.321425e+002
         vertex 5.814695e+002 6.242589e+002 6.321425e+002
         vertex 5.909945e+002 7.683500e+002 6.321425e+002
      endloop
   endfacet
   facet normal -2.775558e-017 2.775558e-017 -1.000000e+000
      outer loop
         vertex 5.909945e+002 7.683500e+002 6.321425e+002
         vertex 5.814695e+002 6.242589e+002 6.321425e+002
         vertex 5.814695e+002 6.623589e+002 6.321425e+002
      endloop
   endfacet
   facet normal -2.775558e-017 2.775558e-017 -1.000000e+000
      outer loop
         vertex 5.909945e+002 7.683500e+002 6.321425e+002
         vertex 5.814695e+002 6.623589e+002 6.321425e+002
         vertex 5.813730e+002 6.634615e+002 6.321425e+002
      endloop
   endfacet
   facet normal -2.775558e-017 2.775558e-017 -1.000000e+000
      outer loop
         vertex 5.719445e+002 6.678582e+002 6.321425e+002
         vertex 5.710378e+002 6.672233e+002 6.321425e+002
         vertex 5.528945e+002 7.683500e+002 6.321425e+002
      endloop
   endfacet
   facet normal -2.775558e-017 2.775558e-017 -1.000000e+000
      outer loop
         vertex 5.528945e+002 7.683500e+002 6.321425e+002
         vertex 5.710378e+002 6.672233e+002 6.321425e+002
         vertex 5.702551e+002 6.664406e+002 6.321425e+002
      endloop
   endfacet
   facet normal -2.775558e-017 2.775558e-017 -1.000000e+000
      outer loop
         vertex 5.528945e+002 7.683500e+002 6.321425e+002
         vertex 5.702551e+002 6.664406e+002 6.321425e+002
         vertex 5.696202e+002 6.655339e+002 6.321425e+002
      endloop
   endfacet
   facet normal -2.775558e-017 2.775558e-017 -1.000000e+000
      outer loop
         vertex 5.813730e+002 6.634615e+002 6.321425e+002
         vertex 5.810865e+002 6.645307e+002 6.321425e+002
         vertex 5.909945e+002 7.683500e+002 6.321425e+002
      endloop
   endfacet
   facet normal -2.775558e-017 2.775558e-017 -1.000000e+000
      outer loop
         vertex 5.909945e+002 7.683500e+002 6.321425e+002
         vertex 5.810865e+002 6.645307e+002 6.321425e+002
         vertex 5.806187e+002 6.655339e+002 6.321425e+002
      endloop
   endfacet
   facet normal -2.775558e-017 2.775558e-017 -1.000000e+000
      outer loop
         vertex 5.909945e+002 7.683500e+002 6.321425e+002
         vertex 5.806187e+002 6.655339e+002 6.321425e+002
         vertex 5.799839e+002 6.664406e+002 6.321425e+002
      endloop
   endfacet
   facet normal -2.775558e-017 2.775558e-017 -1.000000e+000
      outer loop
         vertex 5.696202e+002 6.655339e+002 6.321425e+002
         vertex 5.691525e+002 6.645307e+002 6.321425e+002
         vertex 5.528945e+002 7.683500e+002 6.321425e+002
      endloop
   endfacet
   facet normal -2.775558e-017 2.775558e-017 -1.000000e+000
      outer loop
         vertex 5.528945e+002 7.683500e+002 6.321425e+002
         vertex 5.691525e+002 6.645307e+002 6.321425e+002
         vertex 5.688660e+002 6.634615e+002 6.321425e+002
      endloop
   endfacet
   facet normal -2.775558e-017 2.775558e-017 -1.000000e+000
      outer loop
         vertex 5.528945e+002 7.683500e+002 6.321425e+002
         vertex 5.688660e+002 6.634615e+002 6.321425e+002
         vertex 5.687695e+002 6.623589e+002 6.321425e+002
      endloop
   endfacet
   facet normal -2.775558e-017 2.775558e-017 -1.000000e+000
      outer loop
         vertex 5.810865e+002 6.264307e+002 6.321425e+002
         vertex 5.751195e+002 6.560089e+002 6.321425e+002
         vertex 5.813730e+002 6.253616e+002 6.321425e+002
      endloop
   endfacet
   facet normal -2.775558e-017 2.775558e-017 -1.000000e+000
      outer loop
         vertex 5.813730e+002 6.253616e+002 6.321425e+002
         vertex 5.751195e+002 6.560089e+002 6.321425e+002
         vertex 5.762222e+002 6.561053e+002 6.321425e+002
      endloop
   endfacet
   facet normal -2.775558e-017 2.775558e-017 -1.000000e+000
      outer loop
         vertex 5.813730e+002 6.253616e+002 6.321425e+002
         vertex 5.762222e+002 6.561053e+002 6.321425e+002
         vertex 5.772913e+002 6.563918e+002 6.321425e+002
      endloop
   endfacet
   facet normal -2.775558e-017 2.775558e-017 -1.000000e+000
      outer loop
         vertex 5.772913e+002 6.563918e+002 6.321425e+002
         vertex 5.782945e+002 6.568596e+002 6.321425e+002
         vertex 5.813730e+002 6.253616e+002 6.321425e+002
      endloop
   endfacet
   facet normal -2.775558e-017 2.775558e-017 -1.000000e+000
      outer loop
         vertex 5.813730e+002 6.253616e+002 6.321425e+002
         vertex 5.782945e+002 6.568596e+002 6.321425e+002
         vertex 5.792012e+002 6.574945e+002 6.321425e+002
      endloop
   endfacet
   facet normal -2.775558e-017 2.775558e-017 -1.000000e+000
      outer loop
         vertex 5.813730e+002 6.253616e+002 6.321425e+002
         vertex 5.792012e+002 6.574945e+002 6.321425e+002
         vertex 5.814695e+002 6.242589e+002 6.321425e+002
      endloop
   endfacet
   facet normal -2.775558e-017 2.775558e-017 -1.000000e+000
      outer loop
         vertex 5.814695e+002 6.242589e+002 6.321425e+002
         vertex 5.792012e+002 6.574945e+002 6.321425e+002
         vertex 5.799839e+002 6.582772e+002 6.321425e+002
      endloop
   endfacet
   facet normal -2.775558e-017 2.775558e-017 -1.000000e+000
      outer loop
         vertex 5.814695e+002 6.242589e+002 6.321425e+002
         vertex 5.799839e+002 6.582772e+002 6.321425e+002
         vertex 5.806187e+002 6.591838e+002 6.321425e+002
      endloop
   endfacet
   facet normal -2.775558e-017 2.775558e-017 -1.000000e+000
      outer loop
         vertex 5.806187e+002 6.591838e+002 6.321425e+002
         vertex 5.810865e+002 6.601871e+002 6.321425e+002
         vertex 5.814695e+002 6.242589e+002 6.321425e+002
      endloop
   endfacet
   facet normal -2.775558e-017 2.775558e-017 -1.000000e+000
      outer loop
         vertex 5.814695e+002 6.242589e+002 6.321425e+002
         vertex 5.810865e+002 6.601871e+002 6.321425e+002
         vertex 5.813730e+002 6.612562e+002 6.321425e+002
      endloop
   endfacet
   facet normal -2.775558e-017 2.775558e-017 -1.000000e+000
      outer loop
         vertex 5.814695e+002 6.242589e+002 6.321425e+002
         vertex 5.813730e+002 6.612562e+002 6.321425e+002
         vertex 5.814695e+002 6.623589e+002 6.321425e+002
      endloop
   endfacet
   facet normal -2.775558e-017 2.775558e-017 -1.000000e+000
      outer loop
         vertex 5.799839e+002 6.664406e+002 6.321425e+002
         vertex 5.792012e+002 6.672233e+002 6.321425e+002
         vertex 5.909945e+002 7.683500e+002 6.321425e+002
      endloop
   endfacet
   facet normal -2.775558e-017 2.775558e-017 -1.000000e+000
      outer loop
         vertex 5.909945e+002 7.683500e+002 6.321425e+002
         vertex 5.792012e+002 6.672233e+002 6.321425e+002
         vertex 5.782945e+002 6.678582e+002 6.321425e+002
      endloop
   endfacet
   facet normal -2.775558e-017 2.775558e-017 -1.000000e+000
      outer loop
         vertex 5.909945e+002 7.683500e+002 6.321425e+002
         vertex 5.782945e+002 6.678582e+002 6.321425e+002
         vertex 5.772913e+002 6.683259e+002 6.321425e+002
      endloop
   endfacet
   facet normal -2.775558e-017 2.775558e-017 -1.000000e+000
      outer loop
         vertex 5.772913e+002 6.683259e+002 6.321425e+002
         vertex 5.762222e+002 6.686124e+002 6.321425e+002
         vertex 5.909945e+002 7.683500e+002 6.321425e+002
      endloop
   endfacet
   facet normal -2.775558e-017 2.775558e-017 -1.000000e+000
      outer loop
         vertex 5.909945e+002 7.683500e+002 6.321425e+002
         vertex 5.762222e+002 6.686124e+002 6.321425e+002
         vertex 5.751195e+002 6.687089e+002 6.321425e+002
      endloop
   endfacet
   facet normal -2.775558e-017 2.775558e-017 -1.000000e+000
      outer loop
         vertex 5.909945e+002 7.683500e+002 6.321425e+002
         vertex 5.751195e+002 6.687089e+002 6.321425e+002
         vertex 5.528945e+002 7.683500e+002 6.321425e+002
      endloop
   endfacet
   facet normal -2.775558e-017 2.775558e-017 -1.000000e+000
      outer loop
         vertex 5.528945e+002 7.683500e+002 6.321425e+002
         vertex 5.751195e+002 6.687089e+002 6.321425e+002
         vertex 5.740168e+002 6.686124e+002 6.321425e+002
      endloop
   endfacet
   facet normal -2.775558e-017 2.775558e-017 -1.000000e+000
      outer loop
         vertex 5.528945e+002 7.683500e+002 6.321425e+002
         vertex 5.740168e+002 6.686124e+002 6.321425e+002
         vertex 5.729477e+002 6.683259e+002 6.321425e+002
      endloop
   endfacet
   facet normal 1.000000e+000 -8.326673e-017 1.942890e-016
      outer loop
         vertex 5.909945e+002 3.492500e+002 6.384925e+002
         vertex 5.909945e+002 3.492500e+002 6.321425e+002
         vertex 5.909945e+002 7.683500e+002 6.384925e+002
      endloop
   endfacet
   facet normal 1.000000e+000 -8.326673e-017 1.942890e-016
      outer loop
         vertex 5.909945e+002 7.683500e+002 6.384925e+002
         vertex 5.909945e+002 3.492500e+002 6.321425e+002
         vertex 5.909945e+002 7.683500e+002 6.321425e+002
      endloop
   endfacet
   facet normal 2.775558e-017 -2.775558e-017 1.000000e+000
      outer loop
         vertex 5.762222e+002 6.305124e+002 6.384925e+002
         vertex 5.772913e+002 6.302259e+002 6.384925e+002
         vertex 5.813730e+002 6.612562e+002 6.384925e+002
      endloop
   endfacet
   facet normal 2.775558e-017 -2.775558e-017 1.000000e+000
      outer loop
         vertex 5.719445e+002 6.187596e+002 6.384925e+002
         vertex 5.710378e+002 6.193945e+002 6.384925e+002
         vertex 5.592445e+002 3.492500e+002 6.384925e+002
      endloop
   endfacet
   facet normal 2.775558e-017 -2.775558e-017 1.000000e+000
      outer loop
         vertex 5.772913e+002 6.302259e+002 6.384925e+002
         vertex 5.782945e+002 6.297581e+002 6.384925e+002
         vertex 5.813730e+002 6.612562e+002 6.384925e+002
      endloop
   endfacet
   facet normal 2.775558e-017 -2.775558e-017 1.000000e+000
      outer loop
         vertex 5.813730e+002 6.612562e+002 6.384925e+002
         vertex 5.782945e+002 6.297581e+002 6.384925e+002
         vertex 5.792012e+002 6.291233e+002 6.384925e+002
      endloop
   endfacet
   facet normal 2.775558e-017 -2.775558e-017 1.000000e+000
      outer loop
         vertex 5.813730e+002 6.612562e+002 6.384925e+002
         vertex 5.792012e+002 6.291233e+002 6.384925e+002
         vertex 5.814695e+002 6.623589e+002 6.384925e+002
      endloop
   endfacet
   facet normal 2.775558e-017 -2.775558e-017 1.000000e+000
      outer loop
         vertex 5.751195e+002 6.179089e+002 6.384925e+002
         vertex 5.740168e+002 6.180053e+002 6.384925e+002
         vertex 5.592445e+002 3.492500e+002 6.384925e+002
      endloop
   endfacet
   facet normal 2.775558e-017 -2.775558e-017 1.000000e+000
      outer loop
         vertex 5.592445e+002 3.492500e+002 6.384925e+002
         vertex 5.740168e+002 6.180053e+002 6.384925e+002
         vertex 5.729477e+002 6.182918e+002 6.384925e+002
      endloop
   endfacet
   facet normal 2.775558e-017 -2.775558e-017 1.000000e+000
      outer loop
         vertex 5.592445e+002 3.492500e+002 6.384925e+002
         vertex 5.729477e+002 6.182918e+002 6.384925e+002
         vertex 5.719445e+002 6.187596e+002 6.384925e+002
      endloop
   endfacet
   facet normal 2.775558e-017 -2.775558e-017 1.000000e+000
      outer loop
         vertex 5.691525e+002 6.264307e+002 6.384925e+002
         vertex 5.696202e+002 6.274339e+002 6.384925e+002
         vertex 5.592445e+002 7.683500e+002 6.384925e+002
      endloop
   endfacet
   facet normal 2.775558e-017 -2.775558e-017 1.000000e+000
      outer loop
         vertex 5.592445e+002 7.683500e+002 6.384925e+002
         vertex 5.696202e+002 6.274339e+002 6.384925e+002
         vertex 5.702551e+002 6.283406e+002 6.384925e+002
      endloop
   endfacet
   facet normal 2.775558e-017 -2.775558e-017 1.000000e+000
      outer loop
         vertex 5.592445e+002 7.683500e+002 6.384925e+002
         vertex 5.702551e+002 6.283406e+002 6.384925e+002
         vertex 5.710378e+002 6.291233e+002 6.384925e+002
      endloop
   endfacet
   facet normal 2.775558e-017 -2.775558e-017 1.000000e+000
      outer loop
         vertex 5.806187e+002 6.591838e+002 6.384925e+002
         vertex 5.799839e+002 6.582772e+002 6.384925e+002
         vertex 5.751195e+002 6.306089e+002 6.384925e+002
      endloop
   endfacet
   facet normal 2.775558e-017 -2.775558e-017 1.000000e+000
      outer loop
         vertex 5.909945e+002 7.683500e+002 6.384925e+002
         vertex 5.772913e+002 6.683259e+002 6.384925e+002
         vertex 5.782945e+002 6.678582e+002 6.384925e+002
      endloop
   endfacet
   facet normal 2.775558e-017 -2.775558e-017 1.000000e+000
      outer loop
         vertex 5.782945e+002 6.678582e+002 6.384925e+002
         vertex 5.792012e+002 6.672233e+002 6.384925e+002
         vertex 5.909945e+002 7.683500e+002 6.384925e+002
      endloop
   endfacet
   facet normal 2.775558e-017 -2.775558e-017 1.000000e+000
      outer loop
         vertex 5.909945e+002 7.683500e+002 6.384925e+002
         vertex 5.792012e+002 6.672233e+002 6.384925e+002
         vertex 5.799839e+002 6.664406e+002 6.384925e+002
      endloop
   endfacet
   facet normal 2.775558e-017 -2.775558e-017 1.000000e+000
      outer loop
         vertex 5.909945e+002 7.683500e+002 6.384925e+002
         vertex 5.799839e+002 6.664406e+002 6.384925e+002
         vertex 5.806187e+002 6.655339e+002 6.384925e+002
      endloop
   endfacet
   facet normal 2.775558e-017 -2.775558e-017 1.000000e+000
      outer loop
         vertex 5.792012e+002 6.193945e+002 6.384925e+002
         vertex 5.782945e+002 6.187596e+002 6.384925e+002
         vertex 5.909945e+002 3.492500e+002 6.384925e+002
      endloop
   endfacet
   facet normal 2.775558e-017 -2.775558e-017 1.000000e+000
      outer loop
         vertex 5.909945e+002 3.492500e+002 6.384925e+002
         vertex 5.782945e+002 6.187596e+002 6.384925e+002
         vertex 5.772913e+002 6.182918e+002 6.384925e+002
      endloop
   endfacet
   facet normal 2.775558e-017 -2.775558e-017 1.000000e+000
      outer loop
         vertex 5.909945e+002 3.492500e+002 6.384925e+002
         vertex 5.772913e+002 6.182918e+002 6.384925e+002
         vertex 5.592445e+002 3.492500e+002 6.384925e+002
      endloop
   endfacet
   facet normal 2.775558e-017 -2.775558e-017 1.000000e+000
      outer loop
         vertex 5.592445e+002 3.492500e+002 6.384925e+002
         vertex 5.772913e+002 6.182918e+002 6.384925e+002
         vertex 5.762222e+002 6.180053e+002 6.384925e+002
      endloop
   endfacet
   facet normal 2.775558e-017 -2.775558e-017 1.000000e+000
      outer loop
         vertex 5.592445e+002 3.492500e+002 6.384925e+002
         vertex 5.762222e+002 6.180053e+002 6.384925e+002
         vertex 5.751195e+002 6.179089e+002 6.384925e+002
      endloop
   endfacet
   facet normal 2.775558e-017 -2.775558e-017 1.000000e+000
      outer loop
         vertex 5.710378e+002 6.193945e+002 6.384925e+002
         vertex 5.702551e+002 6.201771e+002 6.384925e+002
         vertex 5.592445e+002 3.492500e+002 6.384925e+002
      endloop
   endfacet
   facet normal 2.775558e-017 -2.775558e-017 1.000000e+000
      outer loop
         vertex 5.592445e+002 3.492500e+002 6.384925e+002
         vertex 5.702551e+002 6.201771e+002 6.384925e+002
         vertex 5.696202e+002 6.210839e+002 6.384925e+002
      endloop
   endfacet
   facet normal 2.775558e-017 -2.775558e-017 1.000000e+000
      outer loop
         vertex 5.592445e+002 3.492500e+002 6.384925e+002
         vertex 5.696202e+002 6.210839e+002 6.384925e+002
         vertex 5.691525e+002 6.220870e+002 6.384925e+002
      endloop
   endfacet
   facet normal 2.775558e-017 -2.775558e-017 1.000000e+000
      outer loop
         vertex 5.691525e+002 6.220870e+002 6.384925e+002
         vertex 5.688660e+002 6.231562e+002 6.384925e+002
         vertex 5.592445e+002 3.492500e+002 6.384925e+002
      endloop
   endfacet
   facet normal 2.775558e-017 -2.775558e-017 1.000000e+000
      outer loop
         vertex 5.592445e+002 3.492500e+002 6.384925e+002
         vertex 5.688660e+002 6.231562e+002 6.384925e+002
         vertex 5.687695e+002 6.242589e+002 6.384925e+002
      endloop
   endfacet
   facet normal 2.775558e-017 -2.775558e-017 1.000000e+000
      outer loop
         vertex 5.592445e+002 3.492500e+002 6.384925e+002
         vertex 5.687695e+002 6.242589e+002 6.384925e+002
         vertex 5.592445e+002 7.683500e+002 6.384925e+002
      endloop
   endfacet
   facet normal 2.775558e-017 -2.775558e-017 1.000000e+000
      outer loop
         vertex 5.592445e+002 7.683500e+002 6.384925e+002
         vertex 5.687695e+002 6.242589e+002 6.384925e+002
         vertex 5.688660e+002 6.253616e+002 6.384925e+002
      endloop
   endfacet
   facet normal 2.775558e-017 -2.775558e-017 1.000000e+000
      outer loop
         vertex 5.592445e+002 7.683500e+002 6.384925e+002
         vertex 5.688660e+002 6.253616e+002 6.384925e+002
         vertex 5.691525e+002 6.264307e+002 6.384925e+002
      endloop
   endfacet
   facet normal 2.775558e-017 -2.775558e-017 1.000000e+000
      outer loop
         vertex 5.806187e+002 6.655339e+002 6.384925e+002
         vertex 5.810865e+002 6.645307e+002 6.384925e+002
         vertex 5.909945e+002 7.683500e+002 6.384925e+002
      endloop
   endfacet
   facet normal 2.775558e-017 -2.775558e-017 1.000000e+000
      outer loop
         vertex 5.909945e+002 7.683500e+002 6.384925e+002
         vertex 5.810865e+002 6.645307e+002 6.384925e+002
         vertex 5.813730e+002 6.634615e+002 6.384925e+002
      endloop
   endfacet
   facet normal 2.775558e-017 -2.775558e-017 1.000000e+000
      outer loop
         vertex 5.909945e+002 7.683500e+002 6.384925e+002
         vertex 5.813730e+002 6.634615e+002 6.384925e+002
         vertex 5.814695e+002 6.623589e+002 6.384925e+002
      endloop
   endfacet
   facet normal 2.775558e-017 -2.775558e-017 1.000000e+000
      outer loop
         vertex 5.909945e+002 7.683500e+002 6.384925e+002
         vertex 5.814695e+002 6.242589e+002 6.384925e+002
         vertex 5.909945e+002 3.492500e+002 6.384925e+002
      endloop
   endfacet
   facet normal 2.775558e-017 -2.775558e-017 1.000000e+000
      outer loop
         vertex 5.909945e+002 3.492500e+002 6.384925e+002
         vertex 5.814695e+002 6.242589e+002 6.384925e+002
         vertex 5.813730e+002 6.231562e+002 6.384925e+002
      endloop
   endfacet
   facet normal 2.775558e-017 -2.775558e-017 1.000000e+000
      outer loop
         vertex 5.909945e+002 3.492500e+002 6.384925e+002
         vertex 5.813730e+002 6.231562e+002 6.384925e+002
         vertex 5.810865e+002 6.220870e+002 6.384925e+002
      endloop
   endfacet
   facet normal 2.775558e-017 -2.775558e-017 1.000000e+000
      outer loop
         vertex 5.688660e+002 6.634615e+002 6.384925e+002
         vertex 5.592445e+002 7.683500e+002 6.384925e+002
         vertex 5.687695e+002 6.623589e+002 6.384925e+002
      endloop
   endfacet
   facet normal 2.775558e-017 -2.775558e-017 1.000000e+000
      outer loop
         vertex 5.687695e+002 6.623589e+002 6.384925e+002
         vertex 5.592445e+002 7.683500e+002 6.384925e+002
         vertex 5.710378e+002 6.291233e+002 6.384925e+002
      endloop
   endfacet
   facet normal 2.775558e-017 -2.775558e-017 1.000000e+000
      outer loop
         vertex 5.687695e+002 6.623589e+002 6.384925e+002
         vertex 5.710378e+002 6.291233e+002 6.384925e+002
         vertex 5.688660e+002 6.612562e+002 6.384925e+002
      endloop
   endfacet
   facet normal 2.775558e-017 -2.775558e-017 1.000000e+000
      outer loop
         vertex 5.688660e+002 6.634615e+002 6.384925e+002
         vertex 5.691525e+002 6.645307e+002 6.384925e+002
         vertex 5.592445e+002 7.683500e+002 6.384925e+002
      endloop
   endfacet
   facet normal 2.775558e-017 -2.775558e-017 1.000000e+000
      outer loop
         vertex 5.592445e+002 7.683500e+002 6.384925e+002
         vertex 5.691525e+002 6.645307e+002 6.384925e+002
         vertex 5.696202e+002 6.655339e+002 6.384925e+002
      endloop
   endfacet
   facet normal 2.775558e-017 -2.775558e-017 1.000000e+000
      outer loop
         vertex 5.592445e+002 7.683500e+002 6.384925e+002
         vertex 5.696202e+002 6.655339e+002 6.384925e+002
         vertex 5.702551e+002 6.664406e+002 6.384925e+002
      endloop
   endfacet
   facet normal 2.775558e-017 -2.775558e-017 1.000000e+000
      outer loop
         vertex 5.762222e+002 6.305124e+002 6.384925e+002
         vertex 5.813730e+002 6.612562e+002 6.384925e+002
         vertex 5.751195e+002 6.306089e+002 6.384925e+002
      endloop
   endfacet
   facet normal 2.775558e-017 -2.775558e-017 1.000000e+000
      outer loop
         vertex 5.751195e+002 6.306089e+002 6.384925e+002
         vertex 5.813730e+002 6.612562e+002 6.384925e+002
         vertex 5.810865e+002 6.601871e+002 6.384925e+002
      endloop
   endfacet
   facet normal 2.775558e-017 -2.775558e-017 1.000000e+000
      outer loop
         vertex 5.751195e+002 6.306089e+002 6.384925e+002
         vertex 5.810865e+002 6.601871e+002 6.384925e+002
         vertex 5.806187e+002 6.591838e+002 6.384925e+002
      endloop
   endfacet
   facet normal 2.775558e-017 -2.775558e-017 1.000000e+000
      outer loop
         vertex 5.719445e+002 6.568596e+002 6.384925e+002
         vertex 5.710378e+002 6.574945e+002 6.384925e+002
         vertex 5.729477e+002 6.302259e+002 6.384925e+002
      endloop
   endfacet
   facet normal 2.775558e-017 -2.775558e-017 1.000000e+000
      outer loop
         vertex 5.729477e+002 6.302259e+002 6.384925e+002
         vertex 5.710378e+002 6.574945e+002 6.384925e+002
         vertex 5.702551e+002 6.582772e+002 6.384925e+002
      endloop
   endfacet
   facet normal 2.775558e-017 -2.775558e-017 1.000000e+000
      outer loop
         vertex 5.729477e+002 6.302259e+002 6.384925e+002
         vertex 5.702551e+002 6.582772e+002 6.384925e+002
         vertex 5.696202e+002 6.591838e+002 6.384925e+002
      endloop
   endfacet
   facet normal 2.775558e-017 -2.775558e-017 1.000000e+000
      outer loop
         vertex 5.806187e+002 6.274339e+002 6.384925e+002
         vertex 5.810865e+002 6.264307e+002 6.384925e+002
         vertex 5.909945e+002 7.683500e+002 6.384925e+002
      endloop
   endfacet
   facet normal 2.775558e-017 -2.775558e-017 1.000000e+000
      outer loop
         vertex 5.909945e+002 7.683500e+002 6.384925e+002
         vertex 5.810865e+002 6.264307e+002 6.384925e+002
         vertex 5.813730e+002 6.253616e+002 6.384925e+002
      endloop
   endfacet
   facet normal 2.775558e-017 -2.775558e-017 1.000000e+000
      outer loop
         vertex 5.909945e+002 7.683500e+002 6.384925e+002
         vertex 5.813730e+002 6.253616e+002 6.384925e+002
         vertex 5.814695e+002 6.242589e+002 6.384925e+002
      endloop
   endfacet
   facet normal 2.775558e-017 -2.775558e-017 1.000000e+000
      outer loop
         vertex 5.810865e+002 6.220870e+002 6.384925e+002
         vertex 5.806187e+002 6.210839e+002 6.384925e+002
         vertex 5.909945e+002 3.492500e+002 6.384925e+002
      endloop
   endfacet
   facet normal 2.775558e-017 -2.775558e-017 1.000000e+000
      outer loop
         vertex 5.909945e+002 3.492500e+002 6.384925e+002
         vertex 5.806187e+002 6.210839e+002 6.384925e+002
         vertex 5.799839e+002 6.201771e+002 6.384925e+002
      endloop
   endfacet
   facet normal 2.775558e-017 -2.775558e-017 1.000000e+000
      outer loop
         vertex 5.909945e+002 3.492500e+002 6.384925e+002
         vertex 5.799839e+002 6.201771e+002 6.384925e+002
         vertex 5.792012e+002 6.193945e+002 6.384925e+002
      endloop
   endfacet
   facet normal 2.775558e-017 -2.775558e-017 1.000000e+000
      outer loop
         vertex 5.702551e+002 6.664406e+002 6.384925e+002
         vertex 5.710378e+002 6.672233e+002 6.384925e+002
         vertex 5.592445e+002 7.683500e+002 6.384925e+002
      endloop
   endfacet
   facet normal 2.775558e-017 -2.775558e-017 1.000000e+000
      outer loop
         vertex 5.592445e+002 7.683500e+002 6.384925e+002
         vertex 5.710378e+002 6.672233e+002 6.384925e+002
         vertex 5.719445e+002 6.678582e+002 6.384925e+002
      endloop
   endfacet
   facet normal 2.775558e-017 -2.775558e-017 1.000000e+000
      outer loop
         vertex 5.592445e+002 7.683500e+002 6.384925e+002
         vertex 5.719445e+002 6.678582e+002 6.384925e+002
         vertex 5.729477e+002 6.683259e+002 6.384925e+002
      endloop
   endfacet
   facet normal 2.775558e-017 -2.775558e-017 1.000000e+000
      outer loop
         vertex 5.729477e+002 6.683259e+002 6.384925e+002
         vertex 5.740168e+002 6.686124e+002 6.384925e+002
         vertex 5.592445e+002 7.683500e+002 6.384925e+002
      endloop
   endfacet
   facet normal 2.775558e-017 -2.775558e-017 1.000000e+000
      outer loop
         vertex 5.592445e+002 7.683500e+002 6.384925e+002
         vertex 5.740168e+002 6.686124e+002 6.384925e+002
         vertex 5.751195e+002 6.687089e+002 6.384925e+002
      endloop
   endfacet
   facet normal 2.775558e-017 -2.775558e-017 1.000000e+000
      outer loop
         vertex 5.592445e+002 7.683500e+002 6.384925e+002
         vertex 5.751195e+002 6.687089e+002 6.384925e+002
         vertex 5.909945e+002 7.683500e+002 6.384925e+002
      endloop
   endfacet
   facet normal 2.775558e-017 -2.775558e-017 1.000000e+000
      outer loop
         vertex 5.909945e+002 7.683500e+002 6.384925e+002
         vertex 5.751195e+002 6.687089e+002 6.384925e+002
         vertex 5.762222e+002 6.686124e+002 6.384925e+002
      endloop
   endfacet
   facet normal 2.775558e-017 -2.775558e-017 1.000000e+000
      outer loop
         vertex 5.909945e+002 7.683500e+002 6.384925e+002
         vertex 5.762222e+002 6.686124e+002 6.384925e+002
         vertex 5.772913e+002 6.683259e+002 6.384925e+002
      endloop
   endfacet
   facet normal 2.775558e-017 -2.775558e-017 1.000000e+000
      outer loop
         vertex 5.799839e+002 6.582772e+002 6.384925e+002
         vertex 5.792012e+002 6.574945e+002 6.384925e+002
         vertex 5.751195e+002 6.306089e+002 6.384925e+002
      endloop
   endfacet
   facet normal 2.775558e-017 -2.775558e-017 1.000000e+000
      outer loop
         vertex 5.751195e+002 6.306089e+002 6.384925e+002
         vertex 5.792012e+002 6.574945e+002 6.384925e+002
         vertex 5.782945e+002 6.568596e+002 6.384925e+002
      endloop
   endfacet
   facet normal 2.775558e-017 -2.775558e-017 1.000000e+000
      outer loop
         vertex 5.751195e+002 6.306089e+002 6.384925e+002
         vertex 5.782945e+002 6.568596e+002 6.384925e+002
         vertex 5.772913e+002 6.563918e+002 6.384925e+002
      endloop
   endfacet
   facet normal 2.775558e-017 -2.775558e-017 1.000000e+000
      outer loop
         vertex 5.710378e+002 6.291233e+002 6.384925e+002
         vertex 5.719445e+002 6.297581e+002 6.384925e+002
         vertex 5.688660e+002 6.612562e+002 6.384925e+002
      endloop
   endfacet
   facet normal 2.775558e-017 -2.775558e-017 1.000000e+000
      outer loop
         vertex 5.688660e+002 6.612562e+002 6.384925e+002
         vertex 5.719445e+002 6.297581e+002 6.384925e+002
         vertex 5.729477e+002 6.302259e+002 6.384925e+002
      endloop
   endfacet
   facet normal 2.775558e-017 -2.775558e-017 1.000000e+000
      outer loop
         vertex 5.688660e+002 6.612562e+002 6.384925e+002
         vertex 5.729477e+002 6.302259e+002 6.384925e+002
         vertex 5.691525e+002 6.601871e+002 6.384925e+002
      endloop
   endfacet
   facet normal 2.775558e-017 -2.775558e-017 1.000000e+000
      outer loop
         vertex 5.691525e+002 6.601871e+002 6.384925e+002
         vertex 5.729477e+002 6.302259e+002 6.384925e+002
         vertex 5.696202e+002 6.591838e+002 6.384925e+002
      endloop
   endfacet
   facet normal 2.775558e-017 -2.775558e-017 1.000000e+000
      outer loop
         vertex 5.814695e+002 6.623589e+002 6.384925e+002
         vertex 5.792012e+002 6.291233e+002 6.384925e+002
         vertex 5.909945e+002 7.683500e+002 6.384925e+002
      endloop
   endfacet
   facet normal 2.775558e-017 -2.775558e-017 1.000000e+000
      outer loop
         vertex 5.909945e+002 7.683500e+002 6.384925e+002
         vertex 5.792012e+002 6.291233e+002 6.384925e+002
         vertex 5.799839e+002 6.283406e+002 6.384925e+002
      endloop
   endfacet
   facet normal 2.775558e-017 -2.775558e-017 1.000000e+000
      outer loop
         vertex 5.909945e+002 7.683500e+002 6.384925e+002
         vertex 5.799839e+002 6.283406e+002 6.384925e+002
         vertex 5.806187e+002 6.274339e+002 6.384925e+002
      endloop
   endfacet
   facet normal 2.775558e-017 -2.775558e-017 1.000000e+000
      outer loop
         vertex 5.772913e+002 6.563918e+002 6.384925e+002
         vertex 5.762222e+002 6.561053e+002 6.384925e+002
         vertex 5.751195e+002 6.306089e+002 6.384925e+002
      endloop
   endfacet
   facet normal 2.775558e-017 -2.775558e-017 1.000000e+000
      outer loop
         vertex 5.751195e+002 6.306089e+002 6.384925e+002
         vertex 5.762222e+002 6.561053e+002 6.384925e+002
         vertex 5.751195e+002 6.560089e+002 6.384925e+002
      endloop
   endfacet
   facet normal 2.775558e-017 -2.775558e-017 1.000000e+000
      outer loop
         vertex 5.751195e+002 6.306089e+002 6.384925e+002
         vertex 5.751195e+002 6.560089e+002 6.384925e+002
         vertex 5.740168e+002 6.305124e+002 6.384925e+002
      endloop
   endfacet
   facet normal 2.775558e-017 -2.775558e-017 1.000000e+000
      outer loop
         vertex 5.740168e+002 6.305124e+002 6.384925e+002
         vertex 5.751195e+002 6.560089e+002 6.384925e+002
         vertex 5.740168e+002 6.561053e+002 6.384925e+002
      endloop
   endfacet
   facet normal 2.775558e-017 -2.775558e-017 1.000000e+000
      outer loop
         vertex 5.740168e+002 6.305124e+002 6.384925e+002
         vertex 5.740168e+002 6.561053e+002 6.384925e+002
         vertex 5.729477e+002 6.302259e+002 6.384925e+002
      endloop
   endfacet
   facet normal 2.775558e-017 -2.775558e-017 1.000000e+000
      outer loop
         vertex 5.729477e+002 6.302259e+002 6.384925e+002
         vertex 5.740168e+002 6.561053e+002 6.384925e+002
         vertex 5.729477e+002 6.563918e+002 6.384925e+002
      endloop
   endfacet
   facet normal 2.775558e-017 -2.775558e-017 1.000000e+000
      outer loop
         vertex 5.729477e+002 6.302259e+002 6.384925e+002
         vertex 5.729477e+002 6.563918e+002 6.384925e+002
         vertex 5.719445e+002 6.568596e+002 6.384925e+002
      endloop
   endfacet
   facet normal 1.000000e+000 -8.326673e-017 1.942890e-016
      outer loop
         vertex 5.592445e+002 3.492500e+002 6.702425e+002
         vertex 5.592445e+002 3.492500e+002 6.384925e+002
         vertex 5.592445e+002 7.683500e+002 6.702425e+002
      endloop
   endfacet
   facet normal 1.000000e+000 -8.326673e-017 1.942890e-016
      outer loop
         vertex 5.592445e+002 7.683500e+002 6.702425e+002
         vertex 5.592445e+002 3.492500e+002 6.384925e+002
         vertex 5.592445e+002 7.683500e+002 6.384925e+002
      endloop
   endfacet
   facet normal 2.775558e-017 -2.775558e-017 1.000000e+000
      outer loop
         vertex 5.528945e+002 3.492500e+002 6.702425e+002
         vertex 5.592445e+002 3.492500e+002 6.702425e+002
         vertex 5.528945e+002 7.683500e+002 6.702425e+002
      endloop
   endfacet
   facet normal 2.775558e-017 -2.775558e-017 1.000000e+000
      outer loop
         vertex 5.528945e+002 7.683500e+002 6.702425e+002
         vertex 5.592445e+002 3.492500e+002 6.702425e+002
         vertex 5.592445e+002 7.683500e+002 6.702425e+002
      endloop
   endfacet
   facet normal -1.000000e+000 8.326673e-017 -1.942890e-016
      outer loop
         vertex 5.528945e+002 7.683500e+002 6.321425e+002
         vertex 5.528945e+002 3.492500e+002 6.321425e+002
         vertex 5.528945e+002 7.683500e+002 6.702425e+002
      endloop
   endfacet
   facet normal -1.000000e+000 8.326673e-017 -1.942890e-016
      outer loop
         vertex 5.528945e+002 7.683500e+002 6.702425e+002
         vertex 5.528945e+002 3.492500e+002 6.321425e+002
         vertex 5.528945e+002 3.492500e+002 6.702425e+002
      endloop
   endfacet
   facet normal -5.080073e-017 1.000000e+000 -5.694234e-018
      outer loop
         vertex 5.909945e+002 7.683500e+002 6.384925e+002
         vertex 5.909945e+002 7.683500e+002 6.321425e+002
         vertex 5.592445e+002 7.683500e+002 6.384925e+002
      endloop
   endfacet
   facet normal -5.080073e-017 1.000000e+000 -5.694234e-018
      outer loop
         vertex 5.592445e+002 7.683500e+002 6.384925e+002
         vertex 5.909945e+002 7.683500e+002 6.321425e+002
         vertex 5.528945e+002 7.683500e+002 6.321425e+002
      endloop
   endfacet
   facet normal -5.080073e-017 1.000000e+000 -5.694234e-018
      outer loop
         vertex 5.592445e+002 7.683500e+002 6.384925e+002
         vertex 5.528945e+002 7.683500e+002 6.321425e+002
         vertex 5.592445e+002 7.683500e+002 6.702425e+002
      endloop
   endfacet
   facet normal -5.080073e-017 1.000000e+000 -5.694234e-018
      outer loop
         vertex 5.592445e+002 7.683500e+002 6.702425e+002
         vertex 5.528945e+002 7.683500e+002 6.321425e+002
         vertex 5.528945e+002 7.683500e+002 6.702425e+002
      endloop
   endfacet
   facet normal 5.080073e-017 -1.000000e+000 5.694234e-018
      outer loop
         vertex 5.592445e+002 3.492500e+002 6.702425e+002
         vertex 5.528945e+002 3.492500e+002 6.702425e+002
         vertex 5.592445e+002 3.492500e+002 6.384925e+002
      endloop
   endfacet
   facet normal 5.080073e-017 -1.000000e+000 5.694234e-018
      outer loop
         vertex 5.592445e+002 3.492500e+002 6.384925e+002
         vertex 5.528945e+002 3.492500e+002 6.702425e+002
         vertex 5.528945e+002 3.492500e+002 6.321425e+002
      endloop
   endfacet
   facet normal 5.080073e-017 -1.000000e+000 5.694234e-018
      outer loop
         vertex 5.592445e+002 3.492500e+002 6.384925e+002
         vertex 5.528945e+002 3.492500e+002 6.321425e+002
         vertex 5.909945e+002 3.492500e+002 6.384925e+002
      endloop
   endfacet
   facet normal 5.080073e-017 -1.000000e+000 5.694234e-018
      outer loop
         vertex 5.909945e+002 3.492500e+002 6.384925e+002
         vertex 5.528945e+002 3.492500e+002 6.321425e+002
         vertex 5.909945e+002 3.492500e+002 6.321425e+002
      endloop
   endfacet
   facet normal -5.807914e-002 -9.983120e-001 -3.330824e-017
      outer loop
         vertex 5.762222e+002 6.686124e+002 6.321425e+002
         vertex 5.751195e+002 6.687089e+002 6.384925e+002
         vertex 5.751195e+002 6.687089e+002 6.321425e+002
      endloop
   endfacet
   facet normal 5.807914e-002 -9.983120e-001 -1.073996e-017
      outer loop
         vertex 5.751195e+002 6.687089e+002 6.321425e+002
         vertex 5.751195e+002 6.687089e+002 6.384925e+002
         vertex 5.740168e+002 6.686124e+002 6.384925e+002
      endloop
   endfacet
   facet normal 1.161583e-001 -9.932307e-001 6.562767e-019
      outer loop
         vertex 5.751195e+002 6.687089e+002 6.321425e+002
         vertex 5.740168e+002 6.686124e+002 6.384925e+002
         vertex 5.740168e+002 6.686124e+002 6.321425e+002
      endloop
   endfacet
   facet normal 2.305519e-001 -9.730600e-001 2.332669e-017
      outer loop
         vertex 5.740168e+002 6.686124e+002 6.321425e+002
         vertex 5.740168e+002 6.686124e+002 6.384925e+002
         vertex 5.729477e+002 6.683259e+002 6.384925e+002
      endloop
   endfacet
   facet normal 2.868663e-001 -9.579706e-001 3.460085e-017
      outer loop
         vertex 5.740168e+002 6.686124e+002 6.321425e+002
         vertex 5.729477e+002 6.683259e+002 6.384925e+002
         vertex 5.729477e+002 6.683259e+002 6.321425e+002
      endloop
   endfacet
   facet normal 3.960194e-001 -9.182422e-001 5.668456e-017
      outer loop
         vertex 5.729477e+002 6.683259e+002 6.321425e+002
         vertex 5.729477e+002 6.683259e+002 6.384925e+002
         vertex 5.719445e+002 6.678582e+002 6.384925e+002
      endloop
   endfacet
   facet normal 4.488580e-001 -8.936031e-001 6.749410e-017
      outer loop
         vertex 5.729477e+002 6.683259e+002 6.321425e+002
         vertex 5.719445e+002 6.678582e+002 6.384925e+002
         vertex 5.719445e+002 6.678582e+002 6.321425e+002
      endloop
   endfacet
   facet normal 5.494540e-001 -8.355240e-001 8.832011e-017
      outer loop
         vertex 5.719445e+002 6.678582e+002 6.321425e+002
         vertex 5.719445e+002 6.678582e+002 6.384925e+002
         vertex 5.710378e+002 6.672233e+002 6.384925e+002
      endloop
   endfacet
   facet normal 5.972114e-001 -8.020839e-001 9.833657e-017
      outer loop
         vertex 5.719445e+002 6.678582e+002 6.321425e+002
         vertex 5.710378e+002 6.672233e+002 6.384925e+002
         vertex 5.710378e+002 6.672233e+002 6.321425e+002
      endloop
   endfacet
   facet normal 6.861938e-001 -7.274188e-001 1.172721e-016
      outer loop
         vertex 5.710378e+002 6.672233e+002 6.321425e+002
         vertex 5.710378e+002 6.672233e+002 6.384925e+002
         vertex 5.702551e+002 6.664406e+002 6.384925e+002
      endloop
   endfacet
   facet normal 7.274188e-001 -6.861938e-001 1.261911e-016
      outer loop
         vertex 5.710378e+002 6.672233e+002 6.321425e+002
         vertex 5.702551e+002 6.664406e+002 6.384925e+002
         vertex 5.702551e+002 6.664406e+002 6.321425e+002
      endloop
   endfacet
   facet normal 8.020839e-001 -5.972114e-001 1.426608e-016
      outer loop
         vertex 5.702551e+002 6.664406e+002 6.321425e+002
         vertex 5.702551e+002 6.664406e+002 6.384925e+002
         vertex 5.696202e+002 6.655339e+002 6.384925e+002
      endloop
   endfacet
   facet normal 8.355240e-001 -5.494540e-001 1.502114e-016
      outer loop
         vertex 5.702551e+002 6.664406e+002 6.321425e+002
         vertex 5.696202e+002 6.655339e+002 6.384925e+002
         vertex 5.696202e+002 6.655339e+002 6.321425e+002
      endloop
   endfacet
   facet normal 8.936031e-001 -4.488580e-001 1.637149e-016
      outer loop
         vertex 5.696202e+002 6.655339e+002 6.321425e+002
         vertex 5.696202e+002 6.655339e+002 6.384925e+002
         vertex 5.691525e+002 6.645307e+002 6.384925e+002
      endloop
   endfacet
   facet normal 9.182422e-001 -3.960194e-001 1.696677e-016
      outer loop
         vertex 5.696202e+002 6.655339e+002 6.321425e+002
         vertex 5.691525e+002 6.645307e+002 6.384925e+002
         vertex 5.691525e+002 6.645307e+002 6.321425e+002
      endloop
   endfacet
   facet normal 9.579706e-001 -2.868663e-001 1.797945e-016
      outer loop
         vertex 5.691525e+002 6.645307e+002 6.321425e+002
         vertex 5.691525e+002 6.645307e+002 6.384925e+002
         vertex 5.688660e+002 6.634615e+002 6.384925e+002
      endloop
   endfacet
   facet normal 9.730600e-001 -2.305519e-001 1.839686e-016
      outer loop
         vertex 5.691525e+002 6.645307e+002 6.321425e+002
         vertex 5.688660e+002 6.634615e+002 6.384925e+002
         vertex 5.688660e+002 6.634615e+002 6.321425e+002
      endloop
   endfacet
   facet normal 9.932307e-001 -1.161583e-001 1.904112e-016
      outer loop
         vertex 5.688660e+002 6.634615e+002 6.321425e+002
         vertex 5.688660e+002 6.634615e+002 6.384925e+002
         vertex 5.687695e+002 6.623589e+002 6.384925e+002
      endloop
   endfacet
   facet normal 9.983120e-001 -5.807914e-002 1.926798e-016
      outer loop
         vertex 5.688660e+002 6.634615e+002 6.321425e+002
         vertex 5.687695e+002 6.623589e+002 6.384925e+002
         vertex 5.687695e+002 6.623589e+002 6.321425e+002
      endloop
   endfacet
   facet normal 9.983120e-001 5.807914e-002 1.952424e-016
      outer loop
         vertex 5.687695e+002 6.623589e+002 6.321425e+002
         vertex 5.687695e+002 6.623589e+002 6.384925e+002
         vertex 5.688660e+002 6.612562e+002 6.384925e+002
      endloop
   endfacet
   facet normal 9.932307e-001 1.161583e-001 1.955364e-016
      outer loop
         vertex 5.687695e+002 6.623589e+002 6.321425e+002
         vertex 5.688660e+002 6.612562e+002 6.384925e+002
         vertex 5.688660e+002 6.612562e+002 6.321425e+002
      endloop
   endfacet
   facet normal 9.730600e-001 2.305519e-001 1.941412e-016
      outer loop
         vertex 5.688660e+002 6.612562e+002 6.321425e+002
         vertex 5.688660e+002 6.612562e+002 6.384925e+002
         vertex 5.691525e+002 6.601871e+002 6.384925e+002
      endloop
   endfacet
   facet normal 9.579706e-001 2.868663e-001 1.924518e-016
      outer loop
         vertex 5.688660e+002 6.612562e+002 6.321425e+002
         vertex 5.691525e+002 6.601871e+002 6.384925e+002
         vertex 5.691525e+002 6.601871e+002 6.321425e+002
      endloop
   endfacet
   facet normal 9.182422e-001 3.960194e-001 1.871411e-016
      outer loop
         vertex 5.691525e+002 6.601871e+002 6.321425e+002
         vertex 5.691525e+002 6.601871e+002 6.384925e+002
         vertex 5.696202e+002 6.591838e+002 6.384925e+002
      endloop
   endfacet
   facet normal 8.936031e-001 4.488580e-001 1.835197e-016
      outer loop
         vertex 5.691525e+002 6.601871e+002 6.321425e+002
         vertex 5.696202e+002 6.591838e+002 6.384925e+002
         vertex 5.696202e+002 6.591838e+002 6.321425e+002
      endloop
   endfacet
   facet normal 8.355240e-001 5.494540e-001 1.744548e-016
      outer loop
         vertex 5.696202e+002 6.591838e+002 6.321425e+002
         vertex 5.696202e+002 6.591838e+002 6.384925e+002
         vertex 5.702551e+002 6.582772e+002 6.384925e+002
      endloop
   endfacet
   facet normal 8.020839e-001 5.972114e-001 1.690114e-016
      outer loop
         vertex 5.696202e+002 6.591838e+002 6.321425e+002
         vertex 5.702551e+002 6.582772e+002 6.384925e+002
         vertex 5.702551e+002 6.582772e+002 6.321425e+002
      endloop
   endfacet
   facet normal 7.274188e-001 6.861938e-001 1.564678e-016
      outer loop
         vertex 5.702551e+002 6.582772e+002 6.321425e+002
         vertex 5.702551e+002 6.582772e+002 6.384925e+002
         vertex 5.710378e+002 6.574945e+002 6.384925e+002
      endloop
   endfacet
   facet normal 6.861938e-001 7.274188e-001 1.493678e-016
      outer loop
         vertex 5.702551e+002 6.582772e+002 6.321425e+002
         vertex 5.710378e+002 6.574945e+002 6.384925e+002
         vertex 5.710378e+002 6.574945e+002 6.321425e+002
      endloop
   endfacet
   facet normal 5.972114e-001 8.020839e-001 1.337267e-016
      outer loop
         vertex 5.710378e+002 6.574945e+002 6.321425e+002
         vertex 5.710378e+002 6.574945e+002 6.384925e+002
         vertex 5.719445e+002 6.568596e+002 6.384925e+002
      endloop
   endfacet
   facet normal 5.494540e-001 8.355240e-001 1.251857e-016
      outer loop
         vertex 5.710378e+002 6.574945e+002 6.321425e+002
         vertex 5.719445e+002 6.568596e+002 6.384925e+002
         vertex 5.719445e+002 6.568596e+002 6.321425e+002
      endloop
   endfacet
   facet normal 4.488580e-001 8.936031e-001 1.069223e-016
      outer loop
         vertex 5.719445e+002 6.568596e+002 6.321425e+002
         vertex 5.719445e+002 6.568596e+002 6.384925e+002
         vertex 5.729477e+002 6.563918e+002 6.384925e+002
      endloop
   endfacet
   facet normal 3.960194e-001 9.182422e-001 9.719988e-017
      outer loop
         vertex 5.719445e+002 6.568596e+002 6.321425e+002
         vertex 5.729477e+002 6.563918e+002 6.384925e+002
         vertex 5.729477e+002 6.563918e+002 6.321425e+002
      endloop
   endfacet
   facet normal 2.868663e-001 9.579706e-001 7.686909e-017
      outer loop
         vertex 5.729477e+002 6.563918e+002 6.321425e+002
         vertex 5.729477e+002 6.563918e+002 6.384925e+002
         vertex 5.740168e+002 6.561053e+002 6.384925e+002
      endloop
   endfacet
   facet normal 2.305519e-001 9.730600e-001 6.626071e-017
      outer loop
         vertex 5.729477e+002 6.563918e+002 6.321425e+002
         vertex 5.740168e+002 6.561053e+002 6.384925e+002
         vertex 5.740168e+002 6.561053e+002 6.321425e+002
      endloop
   endfacet
   facet normal 1.161583e-001 9.932307e-001 4.448028e-017
      outer loop
         vertex 5.740168e+002 6.561053e+002 6.321425e+002
         vertex 5.740168e+002 6.561053e+002 6.384925e+002
         vertex 5.751195e+002 6.560089e+002 6.384925e+002
      endloop
   endfacet
   facet normal 5.807914e-002 9.983120e-001 3.330824e-017
      outer loop
         vertex 5.740168e+002 6.561053e+002 6.321425e+002
         vertex 5.751195e+002 6.560089e+002 6.384925e+002
         vertex 5.751195e+002 6.560089e+002 6.321425e+002
      endloop
   endfacet
   facet normal -5.807914e-002 9.983120e-001 1.073996e-017
      outer loop
         vertex 5.751195e+002 6.560089e+002 6.321425e+002
         vertex 5.751195e+002 6.560089e+002 6.384925e+002
         vertex 5.762222e+002 6.561053e+002 6.384925e+002
      endloop
   endfacet
   facet normal -1.161583e-001 9.932307e-001 -6.562767e-019
      outer loop
         vertex 5.751195e+002 6.560089e+002 6.321425e+002
         vertex 5.762222e+002 6.561053e+002 6.384925e+002
         vertex 5.762222e+002 6.561053e+002 6.321425e+002
      endloop
   endfacet
   facet normal -2.305519e-001 9.730600e-001 -2.332669e-017
      outer loop
         vertex 5.762222e+002 6.561053e+002 6.321425e+002
         vertex 5.762222e+002 6.561053e+002 6.384925e+002
         vertex 5.772913e+002 6.563918e+002 6.384925e+002
      endloop
   endfacet
   facet normal -2.868663e-001 9.579706e-001 -3.460085e-017
      outer loop
         vertex 5.762222e+002 6.561053e+002 6.321425e+002
         vertex 5.772913e+002 6.563918e+002 6.384925e+002
         vertex 5.772913e+002 6.563918e+002 6.321425e+002
      endloop
   endfacet
   facet normal -3.960194e-001 9.182422e-001 -5.668456e-017
      outer loop
         vertex 5.772913e+002 6.563918e+002 6.321425e+002
         vertex 5.772913e+002 6.563918e+002 6.384925e+002
         vertex 5.782945e+002 6.568596e+002 6.384925e+002
      endloop
   endfacet
   facet normal -4.488580e-001 8.936031e-001 -6.749410e-017
      outer loop
         vertex 5.772913e+002 6.563918e+002 6.321425e+002
         vertex 5.782945e+002 6.568596e+002 6.384925e+002
         vertex 5.782945e+002 6.568596e+002 6.321425e+002
      endloop
   endfacet
   facet normal -5.494540e-001 8.355240e-001 -8.832011e-017
      outer loop
         vertex 5.782945e+002 6.568596e+002 6.321425e+002
         vertex 5.782945e+002 6.568596e+002 6.384925e+002
         vertex 5.792012e+002 6.574945e+002 6.384925e+002
      endloop
   endfacet
   facet normal -5.972114e-001 8.020839e-001 -9.833657e-017
      outer loop
         vertex 5.782945e+002 6.568596e+002 6.321425e+002
         vertex 5.792012e+002 6.574945e+002 6.384925e+002
         vertex 5.792012e+002 6.574945e+002 6.321425e+002
      endloop
   endfacet
   facet normal -6.861938e-001 7.274188e-001 -1.172721e-016
      outer loop
         vertex 5.792012e+002 6.574945e+002 6.321425e+002
         vertex 5.792012e+002 6.574945e+002 6.384925e+002
         vertex 5.799839e+002 6.582772e+002 6.384925e+002
      endloop
   endfacet
   facet normal -7.274188e-001 6.861938e-001 -1.261911e-016
      outer loop
         vertex 5.792012e+002 6.574945e+002 6.321425e+002
         vertex 5.799839e+002 6.582772e+002 6.384925e+002
         vertex 5.799839e+002 6.582772e+002 6.321425e+002
      endloop
   endfacet
   facet normal -8.020839e-001 5.972114e-001 -1.426608e-016
      outer loop
         vertex 5.799839e+002 6.582772e+002 6.321425e+002
         vertex 5.799839e+002 6.582772e+002 6.384925e+002
         vertex 5.806187e+002 6.591838e+002 6.384925e+002
      endloop
   endfacet
   facet normal -8.355240e-001 5.494540e-001 -1.502114e-016
      outer loop
         vertex 5.799839e+002 6.582772e+002 6.321425e+002
         vertex 5.806187e+002 6.591838e+002 6.384925e+002
         vertex 5.806187e+002 6.591838e+002 6.321425e+002
      endloop
   endfacet
   facet normal -8.936031e-001 4.488580e-001 -1.637149e-016
      outer loop
         vertex 5.806187e+002 6.591838e+002 6.321425e+002
         vertex 5.806187e+002 6.591838e+002 6.384925e+002
         vertex 5.810865e+002 6.601871e+002 6.384925e+002
      endloop
   endfacet
   facet normal -9.182422e-001 3.960194e-001 -1.696677e-016
      outer loop
         vertex 5.806187e+002 6.591838e+002 6.321425e+002
         vertex 5.810865e+002 6.601871e+002 6.384925e+002
         vertex 5.810865e+002 6.601871e+002 6.321425e+002
      endloop
   endfacet
   facet normal -9.579706e-001 2.868663e-001 -1.797945e-016
      outer loop
         vertex 5.810865e+002 6.601871e+002 6.321425e+002
         vertex 5.810865e+002 6.601871e+002 6.384925e+002
         vertex 5.813730e+002 6.612562e+002 6.384925e+002
      endloop
   endfacet
   facet normal -9.730600e-001 2.305519e-001 -1.839686e-016
      outer loop
         vertex 5.810865e+002 6.601871e+002 6.321425e+002
         vertex 5.813730e+002 6.612562e+002 6.384925e+002
         vertex 5.813730e+002 6.612562e+002 6.321425e+002
      endloop
   endfacet
   facet normal -9.932307e-001 1.161583e-001 -1.904112e-016
      outer loop
         vertex 5.813730e+002 6.612562e+002 6.321425e+002
         vertex 5.813730e+002 6.612562e+002 6.384925e+002
         vertex 5.814695e+002 6.623589e+002 6.384925e+002
      endloop
   endfacet
   facet normal -9.983120e-001 5.807914e-002 -1.926798e-016
      outer loop
         vertex 5.813730e+002 6.612562e+002 6.321425e+002
         vertex 5.814695e+002 6.623589e+002 6.384925e+002
         vertex 5.814695e+002 6.623589e+002 6.321425e+002
      endloop
   endfacet
   facet normal -9.983120e-001 -5.807914e-002 -1.952424e-016
      outer loop
         vertex 5.814695e+002 6.623589e+002 6.321425e+002
         vertex 5.814695e+002 6.623589e+002 6.384925e+002
         vertex 5.813730e+002 6.634615e+002 6.384925e+002
      endloop
   endfacet
   facet normal -9.932307e-001 -1.161583e-001 -1.955364e-016
      outer loop
         vertex 5.814695e+002 6.623589e+002 6.321425e+002
         vertex 5.813730e+002 6.634615e+002 6.384925e+002
         vertex 5.813730e+002 6.634615e+002 6.321425e+002
      endloop
   endfacet
   facet normal -9.730600e-001 -2.305519e-001 -1.941412e-016
      outer loop
         vertex 5.813730e+002 6.634615e+002 6.321425e+002
         vertex 5.813730e+002 6.634615e+002 6.384925e+002
         vertex 5.810865e+002 6.645307e+002 6.384925e+002
      endloop
   endfacet
   facet normal -9.579706e-001 -2.868663e-001 -1.924518e-016
      outer loop
         vertex 5.813730e+002 6.634615e+002 6.321425e+002
         vertex 5.810865e+002 6.645307e+002 6.384925e+002
         vertex 5.810865e+002 6.645307e+002 6.321425e+002
      endloop
   endfacet
   facet normal -9.182422e-001 -3.960194e-001 -1.871411e-016
      outer loop
         vertex 5.810865e+002 6.645307e+002 6.321425e+002
         vertex 5.810865e+002 6.645307e+002 6.384925e+002
         vertex 5.806187e+002 6.655339e+002 6.384925e+002
      endloop
   endfacet
   facet normal -8.936031e-001 -4.488580e-001 -1.835197e-016
      outer loop
         vertex 5.810865e+002 6.645307e+002 6.321425e+002
         vertex 5.806187e+002 6.655339e+002 6.384925e+002
         vertex 5.806187e+002 6.655339e+002 6.321425e+002
      endloop
   endfacet
   facet normal -8.355240e-001 -5.494540e-001 -1.744548e-016
      outer loop
         vertex 5.806187e+002 6.655339e+002 6.321425e+002
         vertex 5.806187e+002 6.655339e+002 6.384925e+002
         vertex 5.799839e+002 6.664406e+002 6.384925e+002
      endloop
   endfacet
   facet normal -8.020839e-001 -5.972114e-001 -1.690114e-016
      outer loop
         vertex 5.806187e+002 6.655339e+002 6.321425e+002
         vertex 5.799839e+002 6.664406e+002 6.384925e+002
         vertex 5.799839e+002 6.664406e+002 6.321425e+002
      endloop
   endfacet
   facet normal -7.274188e-001 -6.861938e-001 -1.564678e-016
      outer loop
         vertex 5.799839e+002 6.664406e+002 6.321425e+002
         vertex 5.799839e+002 6.664406e+002 6.384925e+002
         vertex 5.792012e+002 6.672233e+002 6.384925e+002
      endloop
   endfacet
   facet normal -6.861938e-001 -7.274188e-001 -1.493678e-016
      outer loop
         vertex 5.799839e+002 6.664406e+002 6.321425e+002
         vertex 5.792012e+002 6.672233e+002 6.384925e+002
         vertex 5.792012e+002 6.672233e+002 6.321425e+002
      endloop
   endfacet
   facet normal -5.972114e-001 -8.020839e-001 -1.337267e-016
      outer loop
         vertex 5.792012e+002 6.672233e+002 6.321425e+002
         vertex 5.792012e+002 6.672233e+002 6.384925e+002
         vertex 5.782945e+002 6.678582e+002 6.384925e+002
      endloop
   endfacet
   facet normal -5.494540e-001 -8.355240e-001 -1.251857e-016
      outer loop
         vertex 5.792012e+002 6.672233e+002 6.321425e+002
         vertex 5.782945e+002 6.678582e+002 6.384925e+002
         vertex 5.782945e+002 6.678582e+002 6.321425e+002
      endloop
   endfacet
   facet normal -4.488580e-001 -8.936031e-001 -1.069223e-016
      outer loop
         vertex 5.782945e+002 6.678582e+002 6.321425e+002
         vertex 5.782945e+002 6.678582e+002 6.384925e+002
         vertex 5.772913e+002 6.683259e+002 6.384925e+002
      endloop
   endfacet
   facet normal -3.960194e-001 -9.182422e-001 -9.719988e-017
      outer loop
         vertex 5.782945e+002 6.678582e+002 6.321425e+002
         vertex 5.772913e+002 6.683259e+002 6.384925e+002
         vertex 5.772913e+002 6.683259e+002 6.321425e+002
      endloop
   endfacet
   facet normal -2.868663e-001 -9.579706e-001 -7.686909e-017
      outer loop
         vertex 5.772913e+002 6.683259e+002 6.321425e+002
         vertex 5.772913e+002 6.683259e+002 6.384925e+002
         vertex 5.762222e+002 6.686124e+002 6.384925e+002
      endloop
   endfacet
   facet normal -2.305519e-001 -9.730600e-001 -6.626071e-017
      outer loop
         vertex 5.772913e+002 6.683259e+002 6.321425e+002
         vertex 5.762222e+002 6.686124e+002 6.384925e+002
         vertex 5.762222e+002 6.686124e+002 6.321425e+002
      endloop
   endfacet
   facet normal -1.161583e-001 -9.932307e-001 -4.448028e-017
      outer loop
         vertex 5.762222e+002 6.686124e+002 6.321425e+002
         vertex 5.762222e+002 6.686124e+002 6.384925e+002
         vertex 5.751195e+002 6.687089e+002 6.384925e+002
      endloop
   endfacet
   facet normal -5.807914e-002 -9.983120e-001 -3.330824e-017
      outer loop
         vertex 5.762222e+002 6.305124e+002 6.321425e+002
         vertex 5.751195e+002 6.306089e+002 6.384925e+002
         vertex 5.751195e+002 6.306089e+002 6.321425e+002
      endloop
   endfacet
   facet normal 5.807914e-002 -9.983120e-001 -1.073996e-017
      outer loop
         vertex 5.751195e+002 6.306089e+002 6.321425e+002
         vertex 5.751195e+002 6.306089e+002 6.384925e+002
         vertex 5.740168e+002 6.305124e+002 6.384925e+002
      endloop
   endfacet
   facet normal 1.161583e-001 -9.932307e-001 6.562767e-019
      outer loop
         vertex 5.751195e+002 6.306089e+002 6.321425e+002
         vertex 5.740168e+002 6.305124e+002 6.384925e+002
         vertex 5.740168e+002 6.305124e+002 6.321425e+002
      endloop
   endfacet
   facet normal 2.305519e-001 -9.730600e-001 2.332669e-017
      outer loop
         vertex 5.740168e+002 6.305124e+002 6.321425e+002
         vertex 5.740168e+002 6.305124e+002 6.384925e+002
         vertex 5.729477e+002 6.302259e+002 6.384925e+002
      endloop
   endfacet
   facet normal 2.868663e-001 -9.579706e-001 3.460085e-017
      outer loop
         vertex 5.740168e+002 6.305124e+002 6.321425e+002
         vertex 5.729477e+002 6.302259e+002 6.384925e+002
         vertex 5.729477e+002 6.302259e+002 6.321425e+002
      endloop
   endfacet
   facet normal 3.960194e-001 -9.182422e-001 5.668456e-017
      outer loop
         vertex 5.729477e+002 6.302259e+002 6.321425e+002
         vertex 5.729477e+002 6.302259e+002 6.384925e+002
         vertex 5.719445e+002 6.297581e+002 6.384925e+002
      endloop
   endfacet
   facet normal 4.488580e-001 -8.936031e-001 6.749410e-017
      outer loop
         vertex 5.729477e+002 6.302259e+002 6.321425e+002
         vertex 5.719445e+002 6.297581e+002 6.384925e+002
         vertex 5.719445e+002 6.297581e+002 6.321425e+002
      endloop
   endfacet
   facet normal 5.494540e-001 -8.355240e-001 8.832011e-017
      outer loop
         vertex 5.719445e+002 6.297581e+002 6.321425e+002
         vertex 5.719445e+002 6.297581e+002 6.384925e+002
         vertex 5.710378e+002 6.291233e+002 6.384925e+002
      endloop
   endfacet
   facet normal 5.972114e-001 -8.020839e-001 9.833657e-017
      outer loop
         vertex 5.719445e+002 6.297581e+002 6.321425e+002
         vertex 5.710378e+002 6.291233e+002 6.384925e+002
         vertex 5.710378e+002 6.291233e+002 6.321425e+002
      endloop
   endfacet
   facet normal 6.861938e-001 -7.274188e-001 1.172721e-016
      outer loop
         vertex 5.710378e+002 6.291233e+002 6.321425e+002
         vertex 5.710378e+002 6.291233e+002 6.384925e+002
         vertex 5.702551e+002 6.283406e+002 6.384925e+002
      endloop
   endfacet
   facet normal 7.274188e-001 -6.861938e-001 1.261911e-016
      outer loop
         vertex 5.710378e+002 6.291233e+002 6.321425e+002
         vertex 5.702551e+002 6.283406e+002 6.384925e+002
         vertex 5.702551e+002 6.283406e+002 6.321425e+002
      endloop
   endfacet
   facet normal 8.020839e-001 -5.972114e-001 1.426608e-016
      outer loop
         vertex 5.702551e+002 6.283406e+002 6.321425e+002
         vertex 5.702551e+002 6.283406e+002 6.384925e+002
         vertex 5.696202e+002 6.274339e+002 6.384925e+002
      endloop
   endfacet
   facet normal 8.355240e-001 -5.494540e-001 1.502114e-016
      outer loop
         vertex 5.702551e+002 6.283406e+002 6.321425e+002
         vertex 5.696202e+002 6.274339e+002 6.384925e+002
         vertex 5.696202e+002 6.274339e+002 6.321425e+002
      endloop
   endfacet
   facet normal 8.936031e-001 -4.488580e-001 1.637149e-016
      outer loop
         vertex 5.696202e+002 6.274339e+002 6.321425e+002
         vertex 5.696202e+002 6.274339e+002 6.384925e+002
         vertex 5.691525e+002 6.264307e+002 6.384925e+002
      endloop
   endfacet
   facet normal 9.182422e-001 -3.960194e-001 1.696677e-016
      outer loop
         vertex 5.696202e+002 6.274339e+002 6.321425e+002
         vertex 5.691525e+002 6.264307e+002 6.384925e+002
         vertex 5.691525e+002 6.264307e+002 6.321425e+002
      endloop
   endfacet
   facet normal 9.579706e-001 -2.868663e-001 1.797945e-016
      outer loop
         vertex 5.691525e+002 6.264307e+002 6.321425e+002
         vertex 5.691525e+002 6.264307e+002 6.384925e+002
         vertex 5.688660e+002 6.253616e+002 6.384925e+002
      endloop
   endfacet
   facet normal 9.730600e-001 -2.305519e-001 1.839686e-016
      outer loop
         vertex 5.691525e+002 6.264307e+002 6.321425e+002
         vertex 5.688660e+002 6.253616e+002 6.384925e+002
         vertex 5.688660e+002 6.253616e+002 6.321425e+002
      endloop
   endfacet
   facet normal 9.932307e-001 -1.161583e-001 1.904112e-016
      outer loop
         vertex 5.688660e+002 6.253616e+002 6.321425e+002
         vertex 5.688660e+002 6.253616e+002 6.384925e+002
         vertex 5.687695e+002 6.242589e+002 6.384925e+002
      endloop
   endfacet
   facet normal 9.983120e-001 -5.807914e-002 1.926798e-016
      outer loop
         vertex 5.688660e+002 6.253616e+002 6.321425e+002
         vertex 5.687695e+002 6.242589e+002 6.384925e+002
         vertex 5.687695e+002 6.242589e+002 6.321425e+002
      endloop
   endfacet
   facet normal 9.983120e-001 5.807914e-002 1.952424e-016
      outer loop
         vertex 5.687695e+002 6.242589e+002 6.321425e+002
         vertex 5.687695e+002 6.242589e+002 6.384925e+002
         vertex 5.688660e+002 6.231562e+002 6.384925e+002
      endloop
   endfacet
   facet normal 9.932307e-001 1.161583e-001 1.955364e-016
      outer loop
         vertex 5.687695e+002 6.242589e+002 6.321425e+002
         vertex 5.688660e+002 6.231562e+002 6.384925e+002
         vertex 5.688660e+002 6.231562e+002 6.321425e+002
      endloop
   endfacet
   facet normal 9.730600e-001 2.305519e-001 1.941412e-016
      outer loop
         vertex 5.688660e+002 6.231562e+002 6.321425e+002
         vertex 5.688660e+002 6.231562e+002 6.384925e+002
         vertex 5.691525e+002 6.220870e+002 6.384925e+002
      endloop
   endfacet
   facet normal 9.579706e-001 2.868663e-001 1.924518e-016
      outer loop
         vertex 5.688660e+002 6.231562e+002 6.321425e+002
         vertex 5.691525e+002 6.220870e+002 6.384925e+002
         vertex 5.691525e+002 6.220870e+002 6.321425e+002
      endloop
   endfacet
   facet normal 9.182422e-001 3.960194e-001 1.871411e-016
      outer loop
         vertex 5.691525e+002 6.220870e+002 6.321425e+002
         vertex 5.691525e+002 6.220870e+002 6.384925e+002
         vertex 5.696202e+002 6.210839e+002 6.384925e+002
      endloop
   endfacet
   facet normal 8.936031e-001 4.488580e-001 1.835197e-016
      outer loop
         vertex 5.691525e+002 6.220870e+002 6.321425e+002
         vertex 5.696202e+002 6.210839e+002 6.384925e+002
         vertex 5.696202e+002 6.210839e+002 6.321425e+002
      endloop
   endfacet
   facet normal 8.355240e-001 5.494540e-001 1.744548e-016
      outer loop
         vertex 5.696202e+002 6.210839e+002 6.321425e+002
         vertex 5.696202e+002 6.210839e+002 6.384925e+002
         vertex 5.702551e+002 6.201771e+002 6.384925e+002
      endloop
   endfacet
   facet normal 8.020839e-001 5.972114e-001 1.690114e-016
      outer loop
         vertex 5.696202e+002 6.210839e+002 6.321425e+002
         vertex 5.702551e+002 6.201771e+002 6.384925e+002
         vertex 5.702551e+002 6.201771e+002 6.321425e+002
      endloop
   endfacet
   facet normal 7.274188e-001 6.861938e-001 1.564678e-016
      outer loop
         vertex 5.702551e+002 6.201771e+002 6.321425e+002
         vertex 5.702551e+002 6.201771e+002 6.384925e+002
         vertex 5.710378e+002 6.193945e+002 6.384925e+002
      endloop
   endfacet
   facet normal 6.861938e-001 7.274188e-001 1.493678e-016
      outer loop
         vertex 5.702551e+002 6.201771e+002 6.321425e+002
         vertex 5.710378e+002 6.193945e+002 6.384925e+002
         vertex 5.710378e+002 6.193945e+002 6.321425e+002
      endloop
   endfacet
   facet normal 5.972114e-001 8.020839e-001 1.337267e-016
      outer loop
         vertex 5.710378e+002 6.193945e+002 6.321425e+002
         vertex 5.710378e+002 6.193945e+002 6.384925e+002
         vertex 5.719445e+002 6.187596e+002 6.384925e+002
      endloop
   endfacet
   facet normal 5.494540e-001 8.355240e-001 1.251857e-016
      outer loop
         vertex 5.710378e+002 6.193945e+002 6.321425e+002
         vertex 5.719445e+002 6.187596e+002 6.384925e+002
         vertex 5.719445e+002 6.187596e+002 6.321425e+002
      endloop
   endfacet
   facet normal 4.488580e-001 8.936031e-001 1.069223e-016
      outer loop
         vertex 5.719445e+002 6.187596e+002 6.321425e+002
         vertex 5.719445e+002 6.187596e+002 6.384925e+002
         vertex 5.729477e+002 6.182918e+002 6.384925e+002
      endloop
   endfacet
   facet normal 3.960194e-001 9.182422e-001 9.719988e-017
      outer loop
         vertex 5.719445e+002 6.187596e+002 6.321425e+002
         vertex 5.729477e+002 6.182918e+002 6.384925e+002
         vertex 5.729477e+002 6.182918e+002 6.321425e+002
      endloop
   endfacet
   facet normal 2.868663e-001 9.579706e-001 7.686909e-017
      outer loop
         vertex 5.729477e+002 6.182918e+002 6.321425e+002
         vertex 5.729477e+002 6.182918e+002 6.384925e+002
         vertex 5.740168e+002 6.180053e+002 6.384925e+002
      endloop
   endfacet
   facet normal 2.305519e-001 9.730600e-001 6.626071e-017
      outer loop
         vertex 5.729477e+002 6.182918e+002 6.321425e+002
         vertex 5.740168e+002 6.180053e+002 6.384925e+002
         vertex 5.740168e+002 6.180053e+002 6.321425e+002
      endloop
   endfacet
   facet normal 1.161583e-001 9.932307e-001 4.448028e-017
      outer loop
         vertex 5.740168e+002 6.180053e+002 6.321425e+002
         vertex 5.740168e+002 6.180053e+002 6.384925e+002
         vertex 5.751195e+002 6.179089e+002 6.384925e+002
      endloop
   endfacet
   facet normal 5.807914e-002 9.983120e-001 3.330824e-017
      outer loop
         vertex 5.740168e+002 6.180053e+002 6.321425e+002
         vertex 5.751195e+002 6.179089e+002 6.384925e+002
         vertex 5.751195e+002 6.179089e+002 6.321425e+002
      endloop
   endfacet
   facet normal -5.807914e-002 9.983120e-001 1.073996e-017
      outer loop
         vertex 5.751195e+002 6.179089e+002 6.321425e+002
         vertex 5.751195e+002 6.179089e+002 6.384925e+002
         vertex 5.762222e+002 6.180053e+002 6.384925e+002
      endloop
   endfacet
   facet normal -1.161583e-001 9.932307e-001 -6.562767e-019
      outer loop
         vertex 5.751195e+002 6.179089e+002 6.321425e+002
         vertex 5.762222e+002 6.180053e+002 6.384925e+002
         vertex 5.762222e+002 6.180053e+002 6.321425e+002
      endloop
   endfacet
   facet normal -2.305519e-001 9.730600e-001 -2.332669e-017
      outer loop
         vertex 5.762222e+002 6.180053e+002 6.321425e+002
         vertex 5.762222e+002 6.180053e+002 6.384925e+002
         vertex 5.772913e+002 6.182918e+002 6.384925e+002
      endloop
   endfacet
   facet normal -2.868663e-001 9.579706e-001 -3.460085e-017
      outer loop
         vertex 5.762222e+002 6.180053e+002 6.321425e+002
         vertex 5.772913e+002 6.182918e+002 6.384925e+002
         vertex 5.772913e+002 6.182918e+002 6.321425e+002
      endloop
   endfacet
   facet normal -3.960194e-001 9.182422e-001 -5.668456e-017
      outer loop
         vertex 5.772913e+002 6.182918e+002 6.321425e+002
         vertex 5.772913e+002 6.182918e+002 6.384925e+002
         vertex 5.782945e+002 6.187596e+002 6.384925e+002
      endloop
   endfacet
   facet normal -4.488580e-001 8.936031e-001 -6.749410e-017
      outer loop
         vertex 5.772913e+002 6.182918e+002 6.321425e+002
         vertex 5.782945e+002 6.187596e+002 6.384925e+002
         vertex 5.782945e+002 6.187596e+002 6.321425e+002
      endloop
   endfacet
   facet normal -5.494540e-001 8.355240e-001 -8.832011e-017
      outer loop
         vertex 5.782945e+002 6.187596e+002 6.321425e+002
         vertex 5.782945e+002 6.187596e+002 6.384925e+002
         vertex 5.792012e+002 6.193945e+002 6.384925e+002
      endloop
   endfacet
   facet normal -5.972114e-001 8.020839e-001 -9.833657e-017
      outer loop
         vertex 5.782945e+002 6.187596e+002 6.321425e+002
         vertex 5.792012e+002 6.193945e+002 6.384925e+002
         vertex 5.792012e+002 6.193945e+002 6.321425e+002
      endloop
   endfacet
   facet normal -6.861938e-001 7.274188e-001 -1.172721e-016
      outer loop
         vertex 5.792012e+002 6.193945e+002 6.321425e+002
         vertex 5.792012e+002 6.193945e+002 6.384925e+002
         vertex 5.799839e+002 6.201771e+002 6.384925e+002
      endloop
   endfacet
   facet normal -7.274188e-001 6.861938e-001 -1.261911e-016
      outer loop
         vertex 5.792012e+002 6.193945e+002 6.321425e+002
         vertex 5.799839e+002 6.201771e+002 6.384925e+002
         vertex 5.799839e+002 6.201771e+002 6.321425e+002
      endloop
   endfacet
   facet normal -8.020839e-001 5.972114e-001 -1.426608e-016
      outer loop
         vertex 5.799839e+002 6.201771e+002 6.321425e+002
         vertex 5.799839e+002 6.201771e+002 6.384925e+002
         vertex 5.806187e+002 6.210839e+002 6.384925e+002
      endloop
   endfacet
   facet normal -8.355240e-001 5.494540e-001 -1.502114e-016
      outer loop
         vertex 5.799839e+002 6.201771e+002 6.321425e+002
         vertex 5.806187e+002 6.210839e+002 6.384925e+002
         vertex 5.806187e+002 6.210839e+002 6.321425e+002
      endloop
   endfacet
   facet normal -8.936031e-001 4.488580e-001 -1.637149e-016
      outer loop
         vertex 5.806187e+002 6.210839e+002 6.321425e+002
         vertex 5.806187e+002 6.210839e+002 6.384925e+002
         vertex 5.810865e+002 6.220870e+002 6.384925e+002
      endloop
   endfacet
   facet normal -9.182422e-001 3.960194e-001 -1.696677e-016
      outer loop
         vertex 5.806187e+002 6.210839e+002 6.321425e+002
         vertex 5.810865e+002 6.220870e+002 6.384925e+002
         vertex 5.810865e+002 6.220870e+002 6.321425e+002
      endloop
   endfacet
   facet normal -9.579706e-001 2.868663e-001 -1.797945e-016
      outer loop
         vertex 5.810865e+002 6.220870e+002 6.321425e+002
         vertex 5.810865e+002 6.220870e+002 6.384925e+002
         vertex 5.813730e+002 6.231562e+002 6.384925e+002
      endloop
   endfacet
   facet normal -9.730600e-001 2.305519e-001 -1.839686e-016
      outer loop
         vertex 5.810865e+002 6.220870e+002 6.321425e+002
         vertex 5.813730e+002 6.231562e+002 6.384925e+002
         vertex 5.813730e+002 6.231562e+002 6.321425e+002
      endloop
   endfacet
   facet normal -9.932307e-001 1.161583e-001 -1.904112e-016
      outer loop
         vertex 5.813730e+002 6.231562e+002 6.321425e+002
         vertex 5.813730e+002 6.231562e+002 6.384925e+002
         vertex 5.814695e+002 6.242589e+002 6.384925e+002
      endloop
   endfacet
   facet normal -9.983120e-001 5.807914e-002 -1.926798e-016
      outer loop
         vertex 5.813730e+002 6.231562e+002 6.321425e+002
         vertex 5.814695e+002 6.242589e+002 6.384925e+002
         vertex 5.814695e+002 6.242589e+002 6.321425e+002
      endloop
   endfacet
   facet normal -9.983120e-001 -5.807914e-002 -1.952424e-016
      outer loop
         vertex 5.814695e+002 6.242589e+002 6.321425e+002
         vertex 5.814695e+002 6.242589e+002 6.384925e+002
         vertex 5.813730e+002 6.253616e+002 6.384925e+002
      endloop
   endfacet
   facet normal -9.932307e-001 -1.161583e-001 -1.955364e-016
      outer loop
         vertex 5.814695e+002 6.242589e+002 6.321425e+002
         vertex 5.813730e+002 6.253616e+002 6.384925e+002
         vertex 5.813730e+002 6.253616e+002 6.321425e+002
      endloop
   endfacet
   facet normal -9.730600e-001 -2.305519e-001 -1.941412e-016
      outer loop
         vertex 5.813730e+002 6.253616e+002 6.321425e+002
         vertex 5.813730e+002 6.253616e+002 6.384925e+002
         vertex 5.810865e+002 6.264307e+002 6.384925e+002
      endloop
   endfacet
   facet normal -9.579706e-001 -2.868663e-001 -1.924518e-016
      outer loop
         vertex 5.813730e+002 6.253616e+002 6.321425e+002
         vertex 5.810865e+002 6.264307e+002 6.384925e+002
         vertex 5.810865e+002 6.264307e+002 6.321425e+002
      endloop
   endfacet
   facet normal -9.182422e-001 -3.960194e-001 -1.871411e-016
      outer loop
         vertex 5.810865e+002 6.264307e+002 6.321425e+002
         vertex 5.810865e+002 6.264307e+002 6.384925e+002
         vertex 5.806187e+002 6.274339e+002 6.384925e+002
      endloop
   endfacet
   facet normal -8.936031e-001 -4.488580e-001 -1.835197e-016
      outer loop
         vertex 5.810865e+002 6.264307e+002 6.321425e+002
         vertex 5.806187e+002 6.274339e+002 6.384925e+002
         vertex 5.806187e+002 6.274339e+002 6.321425e+002
      endloop
   endfacet
   facet normal -8.355240e-001 -5.494540e-001 -1.744548e-016
      outer loop
         vertex 5.806187e+002 6.274339e+002 6.321425e+002
         vertex 5.806187e+002 6.274339e+002 6.384925e+002
         vertex 5.799839e+002 6.283406e+002 6.384925e+002
      endloop
   endfacet
   facet normal -8.020839e-001 -5.972114e-001 -1.690114e-016
      outer loop
         vertex 5.806187e+002 6.274339e+002 6.321425e+002
         vertex 5.799839e+002 6.283406e+002 6.384925e+002
         vertex 5.799839e+002 6.283406e+002 6.321425e+002
      endloop
   endfacet
   facet normal -7.274188e-001 -6.861938e-001 -1.564678e-016
      outer loop
         vertex 5.799839e+002 6.283406e+002 6.321425e+002
         vertex 5.799839e+002 6.283406e+002 6.384925e+002
         vertex 5.792012e+002 6.291233e+002 6.384925e+002
      endloop
   endfacet
   facet normal -6.861938e-001 -7.274188e-001 -1.493678e-016
      outer loop
         vertex 5.799839e+002 6.283406e+002 6.321425e+002
         vertex 5.792012e+002 6.291233e+002 6.384925e+002
         vertex 5.792012e+002 6.291233e+002 6.321425e+002
      endloop
   endfacet
   facet normal -5.972114e-001 -8.020839e-001 -1.337267e-016
      outer loop
         vertex 5.792012e+002 6.291233e+002 6.321425e+002
         vertex 5.792012e+002 6.291233e+002 6.384925e+002
         vertex 5.782945e+002 6.297581e+002 6.384925e+002
      endloop
   endfacet
   facet normal -5.494540e-001 -8.355240e-001 -1.251857e-016
      outer loop
         vertex 5.792012e+002 6.291233e+002 6.321425e+002
         vertex 5.782945e+002 6.297581e+002 6.384925e+002
         vertex 5.782945e+002 6.297581e+002 6.321425e+002
      endloop
   endfacet
   facet normal -4.488580e-001 -8.936031e-001 -1.069223e-016
      outer loop
         vertex 5.782945e+002 6.297581e+002 6.321425e+002
         vertex 5.782945e+002 6.297581e+002 6.384925e+002
         vertex 5.772913e+002 6.302259e+002 6.384925e+002
      endloop
   endfacet
   facet normal -3.960194e-001 -9.182422e-001 -9.719988e-017
      outer loop
         vertex 5.782945e+002 6.297581e+002 6.321425e+002
         vertex 5.772913e+002 6.302259e+002 6.384925e+002
         vertex 5.772913e+002 6.302259e+002 6.321425e+002
      endloop
   endfacet
   facet normal -2.868663e-001 -9.579706e-001 -7.686909e-017
      outer loop
         vertex 5.772913e+002 6.302259e+002 6.321425e+002
         vertex 5.772913e+002 6.302259e+002 6.384925e+002
         vertex 5.762222e+002 6.305124e+002 6.384925e+002
      endloop
   endfacet
   facet normal -2.305519e-001 -9.730600e-001 -6.626071e-017
      outer loop
         vertex 5.772913e+002 6.302259e+002 6.321425e+002
         vertex 5.762222e+002 6.305124e+002 6.384925e+002
         vertex 5.762222e+002 6.305124e+002 6.321425e+002
      endloop
   endfacet
   facet normal -1.161583e-001 -9.932307e-001 -4.448028e-017
      outer loop
         vertex 5.762222e+002 6.305124e+002 6.321425e+002
         vertex 5.762222e+002 6.305124e+002 6.384925e+002
         vertex 5.751195e+002 6.306089e+002 6.384925e+002
      endloop
   endfacet
endsolid