solid 000-UltraSoundMachine_Johnsonville - 100-UltraSoundSource-1 103-RodYokes-2
   facet normal -9.983120e-001 5.807914e-002 0.000000e+000
      outer loop
         vertex 7.455043e+002 1.154127e+003 5.940425e+002
         vertex 7.454320e+002 1.153300e+003 1.114425e+002
         vertex 7.454320e+002 1.153300e+003 5.940425e+002
      endloop
   endfacet
   facet normal -9.983120e-001 -5.807914e-002 0.000000e+000
      outer loop
         vertex 7.454320e+002 1.153300e+003 5.940425e+002
         vertex 7.454320e+002 1.153300e+003 1.114425e+002
         vertex 7.455043e+002 1.152473e+003 1.114425e+002
      endloop
   endfacet
   facet normal -9.932307e-001 -1.161583e-001 0.000000e+000
      outer loop
         vertex 7.454320e+002 1.153300e+003 5.940425e+002
         vertex 7.455043e+002 1.152473e+003 1.114425e+002
         vertex 7.455043e+002 1.152473e+003 5.940425e+002
      endloop
   endfacet
   facet normal -9.730600e-001 -2.305519e-001 0.000000e+000
      outer loop
         vertex 7.455043e+002 1.152473e+003 5.940425e+002
         vertex 7.455043e+002 1.152473e+003 1.114425e+002
         vertex 7.457192e+002 1.151671e+003 1.114425e+002
      endloop
   endfacet
   facet normal -9.579706e-001 -2.868663e-001 0.000000e+000
      outer loop
         vertex 7.455043e+002 1.152473e+003 5.940425e+002
         vertex 7.457192e+002 1.151671e+003 1.114425e+002
         vertex 7.457192e+002 1.151671e+003 5.940425e+002
      endloop
   endfacet
   facet normal -9.182422e-001 -3.960194e-001 0.000000e+000
      outer loop
         vertex 7.457192e+002 1.151671e+003 5.940425e+002
         vertex 7.457192e+002 1.151671e+003 1.114425e+002
         vertex 7.460700e+002 1.150919e+003 1.114425e+002
      endloop
   endfacet
   facet normal -8.936031e-001 -4.488580e-001 0.000000e+000
      outer loop
         vertex 7.457192e+002 1.151671e+003 5.940425e+002
         vertex 7.460700e+002 1.150919e+003 1.114425e+002
         vertex 7.460700e+002 1.150919e+003 5.940425e+002
      endloop
   endfacet
   facet normal -8.355240e-001 -5.494540e-001 0.000000e+000
      outer loop
         vertex 7.460700e+002 1.150919e+003 5.940425e+002
         vertex 7.460700e+002 1.150919e+003 1.114425e+002
         vertex 7.465462e+002 1.150239e+003 1.114425e+002
      endloop
   endfacet
   facet normal -8.020839e-001 -5.972114e-001 0.000000e+000
      outer loop
         vertex 7.460700e+002 1.150919e+003 5.940425e+002
         vertex 7.465462e+002 1.150239e+003 1.114425e+002
         vertex 7.465462e+002 1.150239e+003 5.940425e+002
      endloop
   endfacet
   facet normal -7.274188e-001 -6.861938e-001 0.000000e+000
      outer loop
         vertex 7.465462e+002 1.150239e+003 5.940425e+002
         vertex 7.465462e+002 1.150239e+003 1.114425e+002
         vertex 7.471332e+002 1.149652e+003 1.114425e+002
      endloop
   endfacet
   facet normal -6.861938e-001 -7.274188e-001 0.000000e+000
      outer loop
         vertex 7.465462e+002 1.150239e+003 5.940425e+002
         vertex 7.471332e+002 1.149652e+003 1.114425e+002
         vertex 7.471332e+002 1.149652e+003 5.940425e+002
      endloop
   endfacet
   facet normal -5.972114e-001 -8.020839e-001 0.000000e+000
      outer loop
         vertex 7.471332e+002 1.149652e+003 5.940425e+002
         vertex 7.471332e+002 1.149652e+003 1.114425e+002
         vertex 7.478132e+002 1.149176e+003 1.114425e+002
      endloop
   endfacet
   facet normal -5.494540e-001 -8.355240e-001 0.000000e+000
      outer loop
         vertex 7.471332e+002 1.149652e+003 5.940425e+002
         vertex 7.478132e+002 1.149176e+003 1.114425e+002
         vertex 7.478132e+002 1.149176e+003 5.940425e+002
      endloop
   endfacet
   facet normal -4.488580e-001 -8.936031e-001 0.000000e+000
      outer loop
         vertex 7.478132e+002 1.149176e+003 5.940425e+002
         vertex 7.478132e+002 1.149176e+003 1.114425e+002
         vertex 7.485656e+002 1.148825e+003 1.114425e+002
      endloop
   endfacet
   facet normal -3.960194e-001 -9.182422e-001 0.000000e+000
      outer loop
         vertex 7.478132e+002 1.149176e+003 5.940425e+002
         vertex 7.485656e+002 1.148825e+003 1.114425e+002
         vertex 7.485656e+002 1.148825e+003 5.940425e+002
      endloop
   endfacet
   facet normal -2.868663e-001 -9.579706e-001 0.000000e+000
      outer loop
         vertex 7.485656e+002 1.148825e+003 5.940425e+002
         vertex 7.485656e+002 1.148825e+003 1.114425e+002
         vertex 7.493675e+002 1.148610e+003 1.114425e+002
      endloop
   endfacet
   facet normal -2.305519e-001 -9.730600e-001 0.000000e+000
      outer loop
         vertex 7.485656e+002 1.148825e+003 5.940425e+002
         vertex 7.493675e+002 1.148610e+003 1.114425e+002
         vertex 7.493675e+002 1.148610e+003 5.940425e+002
      endloop
   endfacet
   facet normal -1.161583e-001 -9.932307e-001 0.000000e+000
      outer loop
         vertex 7.493675e+002 1.148610e+003 5.940425e+002
         vertex 7.493675e+002 1.148610e+003 1.114425e+002
         vertex 7.501945e+002 1.148537e+003 1.114425e+002
      endloop
   endfacet
   facet normal -5.807914e-002 -9.983120e-001 0.000000e+000
      outer loop
         vertex 7.493675e+002 1.148610e+003 5.940425e+002
         vertex 7.501945e+002 1.148537e+003 1.114425e+002
         vertex 7.501945e+002 1.148537e+003 5.940425e+002
      endloop
   endfacet
   facet normal 5.807914e-002 -9.983120e-001 0.000000e+000
      outer loop
         vertex 7.501945e+002 1.148537e+003 5.940425e+002
         vertex 7.501945e+002 1.148537e+003 1.114425e+002
         vertex 7.510215e+002 1.148610e+003 1.114425e+002
      endloop
   endfacet
   facet normal 1.161583e-001 -9.932307e-001 0.000000e+000
      outer loop
         vertex 7.501945e+002 1.148537e+003 5.940425e+002
         vertex 7.510215e+002 1.148610e+003 1.114425e+002
         vertex 7.510215e+002 1.148610e+003 5.940425e+002
      endloop
   endfacet
   facet normal 2.305519e-001 -9.730600e-001 0.000000e+000
      outer loop
         vertex 7.510215e+002 1.148610e+003 5.940425e+002
         vertex 7.510215e+002 1.148610e+003 1.114425e+002
         vertex 7.518234e+002 1.148825e+003 1.114425e+002
      endloop
   endfacet
   facet normal 2.868663e-001 -9.579706e-001 0.000000e+000
      outer loop
         vertex 7.510215e+002 1.148610e+003 5.940425e+002
         vertex 7.518234e+002 1.148825e+003 1.114425e+002
         vertex 7.518234e+002 1.148825e+003 5.940425e+002
      endloop
   endfacet
   facet normal 3.960194e-001 -9.182422e-001 0.000000e+000
      outer loop
         vertex 7.518234e+002 1.148825e+003 5.940425e+002
         vertex 7.518234e+002 1.148825e+003 1.114425e+002
         vertex 7.525757e+002 1.149176e+003 1.114425e+002
      endloop
   endfacet
   facet normal 4.488580e-001 -8.936031e-001 0.000000e+000
      outer loop
         vertex 7.518234e+002 1.148825e+003 5.940425e+002
         vertex 7.525757e+002 1.149176e+003 1.114425e+002
         vertex 7.525757e+002 1.149176e+003 5.940425e+002
      endloop
   endfacet
   facet normal 5.494540e-001 -8.355240e-001 0.000000e+000
      outer loop
         vertex 7.525757e+002 1.149176e+003 5.940425e+002
         vertex 7.525757e+002 1.149176e+003 1.114425e+002
         vertex 7.532558e+002 1.149652e+003 1.114425e+002
      endloop
   endfacet
   facet normal 5.972114e-001 -8.020839e-001 0.000000e+000
      outer loop
         vertex 7.525757e+002 1.149176e+003 5.940425e+002
         vertex 7.532558e+002 1.149652e+003 1.114425e+002
         vertex 7.532558e+002 1.149652e+003 5.940425e+002
      endloop
   endfacet
   facet normal 6.861938e-001 -7.274188e-001 0.000000e+000
      outer loop
         vertex 7.532558e+002 1.149652e+003 5.940425e+002
         vertex 7.532558e+002 1.149652e+003 1.114425e+002
         vertex 7.538428e+002 1.150239e+003 1.114425e+002
      endloop
   endfacet
   facet normal 7.274188e-001 -6.861938e-001 0.000000e+000
      outer loop
         vertex 7.532558e+002 1.149652e+003 5.940425e+002
         vertex 7.538428e+002 1.150239e+003 1.114425e+002
         vertex 7.538428e+002 1.150239e+003 5.940425e+002
      endloop
   endfacet
   facet normal 8.020839e-001 -5.972114e-001 0.000000e+000
      outer loop
         vertex 7.538428e+002 1.150239e+003 5.940425e+002
         vertex 7.538428e+002 1.150239e+003 1.114425e+002
         vertex 7.543190e+002 1.150919e+003 1.114425e+002
      endloop
   endfacet
   facet normal 8.355240e-001 -5.494540e-001 0.000000e+000
      outer loop
         vertex 7.538428e+002 1.150239e+003 5.940425e+002
         vertex 7.543190e+002 1.150919e+003 1.114425e+002
         vertex 7.543190e+002 1.150919e+003 5.940425e+002
      endloop
   endfacet
   facet normal 8.936031e-001 -4.488580e-001 0.000000e+000
      outer loop
         vertex 7.543190e+002 1.150919e+003 5.940425e+002
         vertex 7.543190e+002 1.150919e+003 1.114425e+002
         vertex 7.546698e+002 1.151671e+003 1.114425e+002
      endloop
   endfacet
   facet normal 9.182422e-001 -3.960194e-001 0.000000e+000
      outer loop
         vertex 7.543190e+002 1.150919e+003 5.940425e+002
         vertex 7.546698e+002 1.151671e+003 1.114425e+002
         vertex 7.546698e+002 1.151671e+003 5.940425e+002
      endloop
   endfacet
   facet normal 9.579706e-001 -2.868663e-001 0.000000e+000
      outer loop
         vertex 7.546698e+002 1.151671e+003 5.940425e+002
         vertex 7.546698e+002 1.151671e+003 1.114425e+002
         vertex 7.548846e+002 1.152473e+003 1.114425e+002
      endloop
   endfacet
   facet normal 9.730600e-001 -2.305519e-001 0.000000e+000
      outer loop
         vertex 7.546698e+002 1.151671e+003 5.940425e+002
         vertex 7.548846e+002 1.152473e+003 1.114425e+002
         vertex 7.548846e+002 1.152473e+003 5.940425e+002
      endloop
   endfacet
   facet normal 9.932307e-001 -1.161583e-001 0.000000e+000
      outer loop
         vertex 7.548846e+002 1.152473e+003 5.940425e+002
         vertex 7.548846e+002 1.152473e+003 1.114425e+002
         vertex 7.549570e+002 1.153300e+003 1.114425e+002
      endloop
   endfacet
   facet normal 9.983120e-001 -5.807914e-002 0.000000e+000
      outer loop
         vertex 7.548846e+002 1.152473e+003 5.940425e+002
         vertex 7.549570e+002 1.153300e+003 1.114425e+002
         vertex 7.549570e+002 1.153300e+003 5.940425e+002
      endloop
   endfacet
   facet normal 9.983120e-001 5.807914e-002 0.000000e+000
      outer loop
         vertex 7.549570e+002 1.153300e+003 5.940425e+002
         vertex 7.549570e+002 1.153300e+003 1.114425e+002
         vertex 7.548846e+002 1.154127e+003 1.114425e+002
      endloop
   endfacet
   facet normal 9.932307e-001 1.161583e-001 0.000000e+000
      outer loop
         vertex 7.549570e+002 1.153300e+003 5.940425e+002
         vertex 7.548846e+002 1.154127e+003 1.114425e+002
         vertex 7.548846e+002 1.154127e+003 5.940425e+002
      endloop
   endfacet
   facet normal 9.730600e-001 2.305519e-001 0.000000e+000
      outer loop
         vertex 7.548846e+002 1.154127e+003 5.940425e+002
         vertex 7.548846e+002 1.154127e+003 1.114425e+002
         vertex 7.546698e+002 1.154929e+003 1.114425e+002
      endloop
   endfacet
   facet normal 9.579706e-001 2.868663e-001 0.000000e+000
      outer loop
         vertex 7.548846e+002 1.154127e+003 5.940425e+002
         vertex 7.546698e+002 1.154929e+003 1.114425e+002
         vertex 7.546698e+002 1.154929e+003 5.940425e+002
      endloop
   endfacet
   facet normal 9.182422e-001 3.960194e-001 0.000000e+000
      outer loop
         vertex 7.546698e+002 1.154929e+003 5.940425e+002
         vertex 7.546698e+002 1.154929e+003 1.114425e+002
         vertex 7.543190e+002 1.155681e+003 1.114425e+002
      endloop
   endfacet
   facet normal 8.936031e-001 4.488580e-001 0.000000e+000
      outer loop
         vertex 7.546698e+002 1.154929e+003 5.940425e+002
         vertex 7.543190e+002 1.155681e+003 1.114425e+002
         vertex 7.543190e+002 1.155681e+003 5.940425e+002
      endloop
   endfacet
   facet normal 8.355240e-001 5.494540e-001 0.000000e+000
      outer loop
         vertex 7.543190e+002 1.155681e+003 5.940425e+002
         vertex 7.543190e+002 1.155681e+003 1.114425e+002
         vertex 7.538428e+002 1.156361e+003 1.114425e+002
      endloop
   endfacet
   facet normal 8.020839e-001 5.972114e-001 0.000000e+000
      outer loop
         vertex 7.543190e+002 1.155681e+003 5.940425e+002
         vertex 7.538428e+002 1.156361e+003 1.114425e+002
         vertex 7.538428e+002 1.156361e+003 5.940425e+002
      endloop
   endfacet
   facet normal 7.274188e-001 6.861938e-001 0.000000e+000
      outer loop
         vertex 7.538428e+002 1.156361e+003 5.940425e+002
         vertex 7.538428e+002 1.156361e+003 1.114425e+002
         vertex 7.532558e+002 1.156948e+003 1.114425e+002
      endloop
   endfacet
   facet normal 6.861938e-001 7.274188e-001 0.000000e+000
      outer loop
         vertex 7.538428e+002 1.156361e+003 5.940425e+002
         vertex 7.532558e+002 1.156948e+003 1.114425e+002
         vertex 7.532558e+002 1.156948e+003 5.940425e+002
      endloop
   endfacet
   facet normal 5.972114e-001 8.020839e-001 0.000000e+000
      outer loop
         vertex 7.532558e+002 1.156948e+003 5.940425e+002
         vertex 7.532558e+002 1.156948e+003 1.114425e+002
         vertex 7.525757e+002 1.157424e+003 1.114425e+002
      endloop
   endfacet
   facet normal 5.494540e-001 8.355240e-001 0.000000e+000
      outer loop
         vertex 7.532558e+002 1.156948e+003 5.940425e+002
         vertex 7.525757e+002 1.157424e+003 1.114425e+002
         vertex 7.525757e+002 1.157424e+003 5.940425e+002
      endloop
   endfacet
   facet normal 4.488580e-001 8.936031e-001 0.000000e+000
      outer loop
         vertex 7.525757e+002 1.157424e+003 5.940425e+002
         vertex 7.525757e+002 1.157424e+003 1.114425e+002
         vertex 7.518234e+002 1.157775e+003 1.114425e+002
      endloop
   endfacet
   facet normal 3.960194e-001 9.182422e-001 0.000000e+000
      outer loop
         vertex 7.525757e+002 1.157424e+003 5.940425e+002
         vertex 7.518234e+002 1.157775e+003 1.114425e+002
         vertex 7.518234e+002 1.157775e+003 5.940425e+002
      endloop
   endfacet
   facet normal 2.868663e-001 9.579706e-001 0.000000e+000
      outer loop
         vertex 7.518234e+002 1.157775e+003 5.940425e+002
         vertex 7.518234e+002 1.157775e+003 1.114425e+002
         vertex 7.510215e+002 1.157990e+003 1.114425e+002
      endloop
   endfacet
   facet normal 2.305519e-001 9.730600e-001 0.000000e+000
      outer loop
         vertex 7.518234e+002 1.157775e+003 5.940425e+002
         vertex 7.510215e+002 1.157990e+003 1.114425e+002
         vertex 7.510215e+002 1.157990e+003 5.940425e+002
      endloop
   endfacet
   facet normal 1.161583e-001 9.932307e-001 0.000000e+000
      outer loop
         vertex 7.510215e+002 1.157990e+003 5.940425e+002
         vertex 7.510215e+002 1.157990e+003 1.114425e+002
         vertex 7.501945e+002 1.158063e+003 1.114425e+002
      endloop
   endfacet
   facet normal 5.807914e-002 9.983120e-001 0.000000e+000
      outer loop
         vertex 7.510215e+002 1.157990e+003 5.940425e+002
         vertex 7.501945e+002 1.158063e+003 1.114425e+002
         vertex 7.501945e+002 1.158063e+003 5.940425e+002
      endloop
   endfacet
   facet normal -5.807914e-002 9.983120e-001 0.000000e+000
      outer loop
         vertex 7.501945e+002 1.158063e+003 5.940425e+002
         vertex 7.501945e+002 1.158063e+003 1.114425e+002
         vertex 7.493675e+002 1.157990e+003 1.114425e+002
      endloop
   endfacet
   facet normal -1.161583e-001 9.932307e-001 0.000000e+000
      outer loop
         vertex 7.501945e+002 1.158063e+003 5.940425e+002
         vertex 7.493675e+002 1.157990e+003 1.114425e+002
         vertex 7.493675e+002 1.157990e+003 5.940425e+002
      endloop
   endfacet
   facet normal -2.305519e-001 9.730600e-001 0.000000e+000
      outer loop
         vertex 7.493675e+002 1.157990e+003 5.940425e+002
         vertex 7.493675e+002 1.157990e+003 1.114425e+002
         vertex 7.485656e+002 1.157775e+003 1.114425e+002
      endloop
   endfacet
   facet normal -2.868663e-001 9.579706e-001 0.000000e+000
      outer loop
         vertex 7.493675e+002 1.157990e+003 5.940425e+002
         vertex 7.485656e+002 1.157775e+003 1.114425e+002
         vertex 7.485656e+002 1.157775e+003 5.940425e+002
      endloop
   endfacet
   facet normal -3.960194e-001 9.182422e-001 0.000000e+000
      outer loop
         vertex 7.485656e+002 1.157775e+003 5.940425e+002
         vertex 7.485656e+002 1.157775e+003 1.114425e+002
         vertex 7.478132e+002 1.157424e+003 1.114425e+002
      endloop
   endfacet
   facet normal -4.488580e-001 8.936031e-001 0.000000e+000
      outer loop
         vertex 7.485656e+002 1.157775e+003 5.940425e+002
         vertex 7.478132e+002 1.157424e+003 1.114425e+002
         vertex 7.478132e+002 1.157424e+003 5.940425e+002
      endloop
   endfacet
   facet normal -5.494540e-001 8.355240e-001 0.000000e+000
      outer loop
         vertex 7.478132e+002 1.157424e+003 5.940425e+002
         vertex 7.478132e+002 1.157424e+003 1.114425e+002
         vertex 7.471332e+002 1.156948e+003 1.114425e+002
      endloop
   endfacet
   facet normal -5.972114e-001 8.020839e-001 0.000000e+000
      outer loop
         vertex 7.478132e+002 1.157424e+003 5.940425e+002
         vertex 7.471332e+002 1.156948e+003 1.114425e+002
         vertex 7.471332e+002 1.156948e+003 5.940425e+002
      endloop
   endfacet
   facet normal -6.861938e-001 7.274188e-001 0.000000e+000
      outer loop
         vertex 7.471332e+002 1.156948e+003 5.940425e+002
         vertex 7.471332e+002 1.156948e+003 1.114425e+002
         vertex 7.465462e+002 1.156361e+003 1.114425e+002
      endloop
   endfacet
   facet normal -7.274188e-001 6.861938e-001 0.000000e+000
      outer loop
         vertex 7.471332e+002 1.156948e+003 5.940425e+002
         vertex 7.465462e+002 1.156361e+003 1.114425e+002
         vertex 7.465462e+002 1.156361e+003 5.940425e+002
      endloop
   endfacet
   facet normal -8.020839e-001 5.972114e-001 0.000000e+000
      outer loop
         vertex 7.465462e+002 1.156361e+003 5.940425e+002
         vertex 7.465462e+002 1.156361e+003 1.114425e+002
         vertex 7.460700e+002 1.155681e+003 1.114425e+002
      endloop
   endfacet
   facet normal -8.355240e-001 5.494540e-001 0.000000e+000
      outer loop
         vertex 7.465462e+002 1.156361e+003 5.940425e+002
         vertex 7.460700e+002 1.155681e+003 1.114425e+002
         vertex 7.460700e+002 1.155681e+003 5.940425e+002
      endloop
   endfacet
   facet normal -8.936031e-001 4.488580e-001 0.000000e+000
      outer loop
         vertex 7.460700e+002 1.155681e+003 5.940425e+002
         vertex 7.460700e+002 1.155681e+003 1.114425e+002
         vertex 7.457192e+002 1.154929e+003 1.114425e+002
      endloop
   endfacet
   facet normal -9.182422e-001 3.960194e-001 0.000000e+000
      outer loop
         vertex 7.460700e+002 1.155681e+003 5.940425e+002
         vertex 7.457192e+002 1.154929e+003 1.114425e+002
         vertex 7.457192e+002 1.154929e+003 5.940425e+002
      endloop
   endfacet
   facet normal -9.579706e-001 2.868663e-001 0.000000e+000
      outer loop
         vertex 7.457192e+002 1.154929e+003 5.940425e+002
         vertex 7.457192e+002 1.154929e+003 1.114425e+002
         vertex 7.455043e+002 1.154127e+003 1.114425e+002
      endloop
   endfacet
   facet normal -9.730600e-001 2.305519e-001 0.000000e+000
      outer loop
         vertex 7.457192e+002 1.154929e+003 5.940425e+002
         vertex 7.455043e+002 1.154127e+003 1.114425e+002
         vertex 7.455043e+002 1.154127e+003 5.940425e+002
      endloop
   endfacet
   facet normal -9.932307e-001 1.161583e-001 0.000000e+000
      outer loop
         vertex 7.455043e+002 1.154127e+003 5.940425e+002
         vertex 7.455043e+002 1.154127e+003 1.114425e+002
         vertex 7.454320e+002 1.153300e+003 1.114425e+002
      endloop
   endfacet
   facet normal 0.000000e+000 0.000000e+000 1.000000e+000
      outer loop
         vertex 7.457192e+002 1.151671e+003 5.940425e+002
         vertex 7.538428e+002 1.156361e+003 5.940425e+002
         vertex 7.455043e+002 1.152473e+003 5.940425e+002
      endloop
   endfacet
   facet normal 0.000000e+000 0.000000e+000 1.000000e+000
      outer loop
         vertex 7.455043e+002 1.152473e+003 5.940425e+002
         vertex 7.538428e+002 1.156361e+003 5.940425e+002
         vertex 7.454320e+002 1.153300e+003 5.940425e+002
      endloop
   endfacet
   facet normal 0.000000e+000 0.000000e+000 1.000000e+000
      outer loop
         vertex 7.546698e+002 1.154929e+003 5.940425e+002
         vertex 7.465462e+002 1.150239e+003 5.940425e+002
         vertex 7.548846e+002 1.154127e+003 5.940425e+002
      endloop
   endfacet
   facet normal 0.000000e+000 0.000000e+000 1.000000e+000
      outer loop
         vertex 7.548846e+002 1.154127e+003 5.940425e+002
         vertex 7.465462e+002 1.150239e+003 5.940425e+002
         vertex 7.549570e+002 1.153300e+003 5.940425e+002
      endloop
   endfacet
   facet normal 0.000000e+000 0.000000e+000 1.000000e+000
      outer loop
         vertex 7.457192e+002 1.151671e+003 5.940425e+002
         vertex 7.460700e+002 1.150919e+003 5.940425e+002
         vertex 7.538428e+002 1.156361e+003 5.940425e+002
      endloop
   endfacet
   facet normal 0.000000e+000 0.000000e+000 1.000000e+000
      outer loop
         vertex 7.538428e+002 1.156361e+003 5.940425e+002
         vertex 7.460700e+002 1.150919e+003 5.940425e+002
         vertex 7.465462e+002 1.150239e+003 5.940425e+002
      endloop
   endfacet
   facet normal 0.000000e+000 0.000000e+000 1.000000e+000
      outer loop
         vertex 7.538428e+002 1.156361e+003 5.940425e+002
         vertex 7.465462e+002 1.150239e+003 5.940425e+002
         vertex 7.543190e+002 1.155681e+003 5.940425e+002
      endloop
   endfacet
   facet normal 0.000000e+000 0.000000e+000 1.000000e+000
      outer loop
         vertex 7.543190e+002 1.155681e+003 5.940425e+002
         vertex 7.465462e+002 1.150239e+003 5.940425e+002
         vertex 7.546698e+002 1.154929e+003 5.940425e+002
      endloop
   endfacet
   facet normal 0.000000e+000 0.000000e+000 1.000000e+000
      outer loop
         vertex 7.465462e+002 1.150239e+003 5.940425e+002
         vertex 7.471332e+002 1.149652e+003 5.940425e+002
         vertex 7.549570e+002 1.153300e+003 5.940425e+002
      endloop
   endfacet
   facet normal 0.000000e+000 0.000000e+000 1.000000e+000
      outer loop
         vertex 7.549570e+002 1.153300e+003 5.940425e+002
         vertex 7.471332e+002 1.149652e+003 5.940425e+002
         vertex 7.478132e+002 1.149176e+003 5.940425e+002
      endloop
   endfacet
   facet normal 0.000000e+000 0.000000e+000 1.000000e+000
      outer loop
         vertex 7.549570e+002 1.153300e+003 5.940425e+002
         vertex 7.478132e+002 1.149176e+003 5.940425e+002
         vertex 7.485656e+002 1.148825e+003 5.940425e+002
      endloop
   endfacet
   facet normal 0.000000e+000 0.000000e+000 1.000000e+000
      outer loop
         vertex 7.546698e+002 1.151671e+003 5.940425e+002
         vertex 7.548846e+002 1.152473e+003 5.940425e+002
         vertex 7.501945e+002 1.148537e+003 5.940425e+002
      endloop
   endfacet
   facet normal 0.000000e+000 0.000000e+000 1.000000e+000
      outer loop
         vertex 7.501945e+002 1.148537e+003 5.940425e+002
         vertex 7.548846e+002 1.152473e+003 5.940425e+002
         vertex 7.549570e+002 1.153300e+003 5.940425e+002
      endloop
   endfacet
   facet normal 0.000000e+000 0.000000e+000 1.000000e+000
      outer loop
         vertex 7.501945e+002 1.148537e+003 5.940425e+002
         vertex 7.549570e+002 1.153300e+003 5.940425e+002
         vertex 7.493675e+002 1.148610e+003 5.940425e+002
      endloop
   endfacet
   facet normal 0.000000e+000 0.000000e+000 1.000000e+000
      outer loop
         vertex 7.493675e+002 1.148610e+003 5.940425e+002
         vertex 7.549570e+002 1.153300e+003 5.940425e+002
         vertex 7.485656e+002 1.148825e+003 5.940425e+002
      endloop
   endfacet
   facet normal 0.000000e+000 0.000000e+000 1.000000e+000
      outer loop
         vertex 7.538428e+002 1.156361e+003 5.940425e+002
         vertex 7.532558e+002 1.156948e+003 5.940425e+002
         vertex 7.454320e+002 1.153300e+003 5.940425e+002
      endloop
   endfacet
   facet normal 0.000000e+000 0.000000e+000 1.000000e+000
      outer loop
         vertex 7.454320e+002 1.153300e+003 5.940425e+002
         vertex 7.532558e+002 1.156948e+003 5.940425e+002
         vertex 7.525757e+002 1.157424e+003 5.940425e+002
      endloop
   endfacet
   facet normal 0.000000e+000 0.000000e+000 1.000000e+000
      outer loop
         vertex 7.454320e+002 1.153300e+003 5.940425e+002
         vertex 7.525757e+002 1.157424e+003 5.940425e+002
         vertex 7.518234e+002 1.157775e+003 5.940425e+002
      endloop
   endfacet
   facet normal 0.000000e+000 0.000000e+000 1.000000e+000
      outer loop
         vertex 7.510215e+002 1.148610e+003 5.940425e+002
         vertex 7.518234e+002 1.148825e+003 5.940425e+002
         vertex 7.501945e+002 1.148537e+003 5.940425e+002
      endloop
   endfacet
   facet normal 0.000000e+000 0.000000e+000 1.000000e+000
      outer loop
         vertex 7.501945e+002 1.148537e+003 5.940425e+002
         vertex 7.518234e+002 1.148825e+003 5.940425e+002
         vertex 7.525757e+002 1.149176e+003 5.940425e+002
      endloop
   endfacet
   facet normal 0.000000e+000 0.000000e+000 1.000000e+000
      outer loop
         vertex 7.501945e+002 1.148537e+003 5.940425e+002
         vertex 7.525757e+002 1.149176e+003 5.940425e+002
         vertex 7.532558e+002 1.149652e+003 5.940425e+002
      endloop
   endfacet
   facet normal 0.000000e+000 0.000000e+000 1.000000e+000
      outer loop
         vertex 7.532558e+002 1.149652e+003 5.940425e+002
         vertex 7.538428e+002 1.150239e+003 5.940425e+002
         vertex 7.501945e+002 1.148537e+003 5.940425e+002
      endloop
   endfacet
   facet normal 0.000000e+000 0.000000e+000 1.000000e+000
      outer loop
         vertex 7.501945e+002 1.148537e+003 5.940425e+002
         vertex 7.538428e+002 1.150239e+003 5.940425e+002
         vertex 7.543190e+002 1.150919e+003 5.940425e+002
      endloop
   endfacet
   facet normal 0.000000e+000 0.000000e+000 1.000000e+000
      outer loop
         vertex 7.501945e+002 1.148537e+003 5.940425e+002
         vertex 7.543190e+002 1.150919e+003 5.940425e+002
         vertex 7.546698e+002 1.151671e+003 5.940425e+002
      endloop
   endfacet
   facet normal 0.000000e+000 0.000000e+000 1.000000e+000
      outer loop
         vertex 7.457192e+002 1.154929e+003 5.940425e+002
         vertex 7.455043e+002 1.154127e+003 5.940425e+002
         vertex 7.501945e+002 1.158063e+003 5.940425e+002
      endloop
   endfacet
   facet normal 0.000000e+000 0.000000e+000 1.000000e+000
      outer loop
         vertex 7.501945e+002 1.158063e+003 5.940425e+002
         vertex 7.455043e+002 1.154127e+003 5.940425e+002
         vertex 7.454320e+002 1.153300e+003 5.940425e+002
      endloop
   endfacet
   facet normal 0.000000e+000 0.000000e+000 1.000000e+000
      outer loop
         vertex 7.501945e+002 1.158063e+003 5.940425e+002
         vertex 7.454320e+002 1.153300e+003 5.940425e+002
         vertex 7.510215e+002 1.157990e+003 5.940425e+002
      endloop
   endfacet
   facet normal 0.000000e+000 0.000000e+000 1.000000e+000
      outer loop
         vertex 7.510215e+002 1.157990e+003 5.940425e+002
         vertex 7.454320e+002 1.153300e+003 5.940425e+002
         vertex 7.518234e+002 1.157775e+003 5.940425e+002
      endloop
   endfacet
   facet normal 0.000000e+000 0.000000e+000 1.000000e+000
      outer loop
         vertex 7.493675e+002 1.157990e+003 5.940425e+002
         vertex 7.485656e+002 1.157775e+003 5.940425e+002
         vertex 7.501945e+002 1.158063e+003 5.940425e+002
      endloop
   endfacet
   facet normal 0.000000e+000 0.000000e+000 1.000000e+000
      outer loop
         vertex 7.501945e+002 1.158063e+003 5.940425e+002
         vertex 7.485656e+002 1.157775e+003 5.940425e+002
         vertex 7.478132e+002 1.157424e+003 5.940425e+002
      endloop
   endfacet
   facet normal 0.000000e+000 0.000000e+000 1.000000e+000
      outer loop
         vertex 7.501945e+002 1.158063e+003 5.940425e+002
         vertex 7.478132e+002 1.157424e+003 5.940425e+002
         vertex 7.471332e+002 1.156948e+003 5.940425e+002
      endloop
   endfacet
   facet normal 0.000000e+000 0.000000e+000 1.000000e+000
      outer loop
         vertex 7.471332e+002 1.156948e+003 5.940425e+002
         vertex 7.465462e+002 1.156361e+003 5.940425e+002
         vertex 7.501945e+002 1.158063e+003 5.940425e+002
      endloop
   endfacet
   facet normal 0.000000e+000 0.000000e+000 1.000000e+000
      outer loop
         vertex 7.501945e+002 1.158063e+003 5.940425e+002
         vertex 7.465462e+002 1.156361e+003 5.940425e+002
         vertex 7.460700e+002 1.155681e+003 5.940425e+002
      endloop
   endfacet
   facet normal 0.000000e+000 0.000000e+000 1.000000e+000
      outer loop
         vertex 7.501945e+002 1.158063e+003 5.940425e+002
         vertex 7.460700e+002 1.155681e+003 5.940425e+002
         vertex 7.457192e+002 1.154929e+003 5.940425e+002
      endloop
   endfacet
   facet normal 0.000000e+000 0.000000e+000 -1.000000e+000
      outer loop
         vertex 7.460700e+002 1.150919e+003 1.114425e+002
         vertex 7.538428e+002 1.156361e+003 1.114425e+002
         vertex 7.465462e+002 1.150239e+003 1.114425e+002
      endloop
   endfacet
   facet normal 0.000000e+000 0.000000e+000 -1.000000e+000
      outer loop
         vertex 7.465462e+002 1.150239e+003 1.114425e+002
         vertex 7.538428e+002 1.156361e+003 1.114425e+002
         vertex 7.543190e+002 1.155681e+003 1.114425e+002
      endloop
   endfacet
   facet normal 0.000000e+000 0.000000e+000 -1.000000e+000
      outer loop
         vertex 7.465462e+002 1.150239e+003 1.114425e+002
         vertex 7.543190e+002 1.155681e+003 1.114425e+002
         vertex 7.546698e+002 1.154929e+003 1.114425e+002
      endloop
   endfacet
   facet normal 0.000000e+000 0.000000e+000 -1.000000e+000
      outer loop
         vertex 7.548846e+002 1.152473e+003 1.114425e+002
         vertex 7.546698e+002 1.151671e+003 1.114425e+002
         vertex 7.501945e+002 1.148537e+003 1.114425e+002
      endloop
   endfacet
   facet normal 0.000000e+000 0.000000e+000 -1.000000e+000
      outer loop
         vertex 7.485656e+002 1.148825e+003 1.114425e+002
         vertex 7.478132e+002 1.149176e+003 1.114425e+002
         vertex 7.549570e+002 1.153300e+003 1.114425e+002
      endloop
   endfacet
   facet normal 0.000000e+000 0.000000e+000 -1.000000e+000
      outer loop
         vertex 7.460700e+002 1.150919e+003 1.114425e+002
         vertex 7.457192e+002 1.151671e+003 1.114425e+002
         vertex 7.538428e+002 1.156361e+003 1.114425e+002
      endloop
   endfacet
   facet normal 0.000000e+000 0.000000e+000 -1.000000e+000
      outer loop
         vertex 7.538428e+002 1.156361e+003 1.114425e+002
         vertex 7.457192e+002 1.151671e+003 1.114425e+002
         vertex 7.455043e+002 1.152473e+003 1.114425e+002
      endloop
   endfacet
   facet normal 0.000000e+000 0.000000e+000 -1.000000e+000
      outer loop
         vertex 7.538428e+002 1.156361e+003 1.114425e+002
         vertex 7.455043e+002 1.152473e+003 1.114425e+002
         vertex 7.454320e+002 1.153300e+003 1.114425e+002
      endloop
   endfacet
   facet normal 0.000000e+000 0.000000e+000 -1.000000e+000
      outer loop
         vertex 7.546698e+002 1.154929e+003 1.114425e+002
         vertex 7.548846e+002 1.154127e+003 1.114425e+002
         vertex 7.465462e+002 1.150239e+003 1.114425e+002
      endloop
   endfacet
   facet normal 0.000000e+000 0.000000e+000 -1.000000e+000
      outer loop
         vertex 7.465462e+002 1.150239e+003 1.114425e+002
         vertex 7.548846e+002 1.154127e+003 1.114425e+002
         vertex 7.549570e+002 1.153300e+003 1.114425e+002
      endloop
   endfacet
   facet normal 0.000000e+000 0.000000e+000 -1.000000e+000
      outer loop
         vertex 7.465462e+002 1.150239e+003 1.114425e+002
         vertex 7.549570e+002 1.153300e+003 1.114425e+002
         vertex 7.471332e+002 1.149652e+003 1.114425e+002
      endloop
   endfacet
   facet normal 0.000000e+000 0.000000e+000 -1.000000e+000
      outer loop
         vertex 7.471332e+002 1.149652e+003 1.114425e+002
         vertex 7.549570e+002 1.153300e+003 1.114425e+002
         vertex 7.478132e+002 1.149176e+003 1.114425e+002
      endloop
   endfacet
   facet normal 0.000000e+000 0.000000e+000 -1.000000e+000
      outer loop
         vertex 7.455043e+002 1.154127e+003 1.114425e+002
         vertex 7.457192e+002 1.154929e+003 1.114425e+002
         vertex 7.501945e+002 1.158063e+003 1.114425e+002
      endloop
   endfacet
   facet normal 0.000000e+000 0.000000e+000 -1.000000e+000
      outer loop
         vertex 7.548846e+002 1.152473e+003 1.114425e+002
         vertex 7.501945e+002 1.148537e+003 1.114425e+002
         vertex 7.549570e+002 1.153300e+003 1.114425e+002
      endloop
   endfacet
   facet normal 0.000000e+000 0.000000e+000 -1.000000e+000
      outer loop
         vertex 7.549570e+002 1.153300e+003 1.114425e+002
         vertex 7.501945e+002 1.148537e+003 1.114425e+002
         vertex 7.493675e+002 1.148610e+003 1.114425e+002
      endloop
   endfacet
   facet normal 0.000000e+000 0.000000e+000 -1.000000e+000
      outer loop
         vertex 7.549570e+002 1.153300e+003 1.114425e+002
         vertex 7.493675e+002 1.148610e+003 1.114425e+002
         vertex 7.485656e+002 1.148825e+003 1.114425e+002
      endloop
   endfacet
   facet normal 0.000000e+000 0.000000e+000 -1.000000e+000
      outer loop
         vertex 7.518234e+002 1.157775e+003 1.114425e+002
         vertex 7.525757e+002 1.157424e+003 1.114425e+002
         vertex 7.454320e+002 1.153300e+003 1.114425e+002
      endloop
   endfacet
   facet normal 0.000000e+000 0.000000e+000 -1.000000e+000
      outer loop
         vertex 7.454320e+002 1.153300e+003 1.114425e+002
         vertex 7.525757e+002 1.157424e+003 1.114425e+002
         vertex 7.532558e+002 1.156948e+003 1.114425e+002
      endloop
   endfacet
   facet normal 0.000000e+000 0.000000e+000 -1.000000e+000
      outer loop
         vertex 7.454320e+002 1.153300e+003 1.114425e+002
         vertex 7.532558e+002 1.156948e+003 1.114425e+002
         vertex 7.538428e+002 1.156361e+003 1.114425e+002
      endloop
   endfacet
   facet normal 0.000000e+000 0.000000e+000 -1.000000e+000
      outer loop
         vertex 7.546698e+002 1.151671e+003 1.114425e+002
         vertex 7.543190e+002 1.150919e+003 1.114425e+002
         vertex 7.501945e+002 1.148537e+003 1.114425e+002
      endloop
   endfacet
   facet normal 0.000000e+000 0.000000e+000 -1.000000e+000
      outer loop
         vertex 7.501945e+002 1.148537e+003 1.114425e+002
         vertex 7.543190e+002 1.150919e+003 1.114425e+002
         vertex 7.538428e+002 1.150239e+003 1.114425e+002
      endloop
   endfacet
   facet normal 0.000000e+000 0.000000e+000 -1.000000e+000
      outer loop
         vertex 7.501945e+002 1.148537e+003 1.114425e+002
         vertex 7.538428e+002 1.150239e+003 1.114425e+002
         vertex 7.532558e+002 1.149652e+003 1.114425e+002
      endloop
   endfacet
   facet normal 0.000000e+000 0.000000e+000 -1.000000e+000
      outer loop
         vertex 7.532558e+002 1.149652e+003 1.114425e+002
         vertex 7.525757e+002 1.149176e+003 1.114425e+002
         vertex 7.501945e+002 1.148537e+003 1.114425e+002
      endloop
   endfacet
   facet normal 0.000000e+000 0.000000e+000 -1.000000e+000
      outer loop
         vertex 7.501945e+002 1.148537e+003 1.114425e+002
         vertex 7.525757e+002 1.149176e+003 1.114425e+002
         vertex 7.518234e+002 1.148825e+003 1.114425e+002
      endloop
   endfacet
   facet normal 0.000000e+000 0.000000e+000 -1.000000e+000
      outer loop
         vertex 7.501945e+002 1.148537e+003 1.114425e+002
         vertex 7.518234e+002 1.148825e+003 1.114425e+002
         vertex 7.510215e+002 1.148610e+003 1.114425e+002
      endloop
   endfacet
   facet normal 0.000000e+000 0.000000e+000 -1.000000e+000
      outer loop
         vertex 7.457192e+002 1.154929e+003 1.114425e+002
         vertex 7.460700e+002 1.155681e+003 1.114425e+002
         vertex 7.501945e+002 1.158063e+003 1.114425e+002
      endloop
   endfacet
   facet normal 0.000000e+000 0.000000e+000 -1.000000e+000
      outer loop
         vertex 7.501945e+002 1.158063e+003 1.114425e+002
         vertex 7.460700e+002 1.155681e+003 1.114425e+002
         vertex 7.465462e+002 1.156361e+003 1.114425e+002
      endloop
   endfacet
   facet normal 0.000000e+000 0.000000e+000 -1.000000e+000
      outer loop
         vertex 7.501945e+002 1.158063e+003 1.114425e+002
         vertex 7.465462e+002 1.156361e+003 1.114425e+002
         vertex 7.471332e+002 1.156948e+003 1.114425e+002
      endloop
   endfacet
   facet normal 0.000000e+000 0.000000e+000 -1.000000e+000
      outer loop
         vertex 7.471332e+002 1.156948e+003 1.114425e+002
         vertex 7.478132e+002 1.157424e+003 1.114425e+002
         vertex 7.501945e+002 1.158063e+003 1.114425e+002
      endloop
   endfacet
   facet normal 0.000000e+000 0.000000e+000 -1.000000e+000
      outer loop
         vertex 7.501945e+002 1.158063e+003 1.114425e+002
         vertex 7.478132e+002 1.157424e+003 1.114425e+002
         vertex 7.485656e+002 1.157775e+003 1.114425e+002
      endloop
   endfacet
   facet normal 0.000000e+000 0.000000e+000 -1.000000e+000
      outer loop
         vertex 7.501945e+002 1.158063e+003 1.114425e+002
         vertex 7.485656e+002 1.157775e+003 1.114425e+002
         vertex 7.493675e+002 1.157990e+003 1.114425e+002
      endloop
   endfacet
   facet normal 0.000000e+000 0.000000e+000 -1.000000e+000
      outer loop
         vertex 7.455043e+002 1.154127e+003 1.114425e+002
         vertex 7.501945e+002 1.158063e+003 1.114425e+002
         vertex 7.454320e+002 1.153300e+003 1.114425e+002
      endloop
   endfacet
   facet normal 0.000000e+000 0.000000e+000 -1.000000e+000
      outer loop
         vertex 7.454320e+002 1.153300e+003 1.114425e+002
         vertex 7.501945e+002 1.158063e+003 1.114425e+002
         vertex 7.510215e+002 1.157990e+003 1.114425e+002
      endloop
   endfacet
   facet normal 0.000000e+000 0.000000e+000 -1.000000e+000
      outer loop
         vertex 7.454320e+002 1.153300e+003 1.114425e+002
         vertex 7.510215e+002 1.157990e+003 1.114425e+002
         vertex 7.518234e+002 1.157775e+003 1.114425e+002
      endloop
   endfacet
endsolid