solid 000-UltraSoundMachine_Johnsonville - 100-UltraSoundSource-2 103-RodYokes-4
   facet normal 9.983120e-001 -5.807914e-002 -2.991294e-017
      outer loop
         vertex 3.348846e+002 8.004030e+002 5.940425e+002
         vertex 3.349570e+002 8.012300e+002 1.114425e+002
         vertex 3.349570e+002 8.012300e+002 5.940425e+002
      endloop
   endfacet
   facet normal 9.983120e-001 5.807914e-002 -2.467387e-017
      outer loop
         vertex 3.349570e+002 8.012300e+002 5.940425e+002
         vertex 3.349570e+002 8.012300e+002 1.114425e+002
         vertex 3.348846e+002 8.020570e+002 1.114425e+002
      endloop
   endfacet
   facet normal 9.932307e-001 1.161583e-001 -2.191542e-017
      outer loop
         vertex 3.349570e+002 8.012300e+002 5.940425e+002
         vertex 3.348846e+002 8.020570e+002 1.114425e+002
         vertex 3.348846e+002 8.020570e+002 5.940425e+002
      endloop
   endfacet
   facet normal 9.730600e-001 2.305519e-001 -1.620449e-017
      outer loop
         vertex 3.348846e+002 8.020570e+002 5.940425e+002
         vertex 3.348846e+002 8.020570e+002 1.114425e+002
         vertex 3.346698e+002 8.028589e+002 1.114425e+002
      endloop
   endfacet
   facet normal 9.579706e-001 2.868663e-001 -1.325202e-017
      outer loop
         vertex 3.348846e+002 8.020570e+002 5.940425e+002
         vertex 3.346698e+002 8.028589e+002 1.114425e+002
         vertex 3.346698e+002 8.028589e+002 5.940425e+002
      endloop
   endfacet
   facet normal 9.182422e-001 3.960194e-001 -7.242747e-018
      outer loop
         vertex 3.346698e+002 8.028589e+002 5.940425e+002
         vertex 3.346698e+002 8.028589e+002 1.114425e+002
         vertex 3.343189e+002 8.036113e+002 1.114425e+002
      endloop
   endfacet
   facet normal 8.936031e-001 4.488580e-001 -4.185955e-018
      outer loop
         vertex 3.346698e+002 8.028589e+002 5.940425e+002
         vertex 3.343189e+002 8.036113e+002 1.114425e+002
         vertex 3.343189e+002 8.036113e+002 5.940425e+002
      endloop
   endfacet
   facet normal 8.355240e-001 5.494540e-001 1.939066e-018
      outer loop
         vertex 3.343189e+002 8.036113e+002 5.940425e+002
         vertex 3.343189e+002 8.036113e+002 1.114425e+002
         vertex 3.338428e+002 8.042913e+002 1.114425e+002
      endloop
   endfacet
   facet normal 8.020839e-001 5.972114e-001 5.007294e-018
      outer loop
         vertex 3.343189e+002 8.036113e+002 5.940425e+002
         vertex 3.338428e+002 8.042913e+002 1.114425e+002
         vertex 3.338428e+002 8.042913e+002 5.940425e+002
      endloop
   endfacet
   facet normal 7.274188e-001 6.861938e-001 1.106196e-017
      outer loop
         vertex 3.338428e+002 8.042913e+002 5.940425e+002
         vertex 3.338428e+002 8.042913e+002 1.114425e+002
         vertex 3.332558e+002 8.048783e+002 1.114425e+002
      endloop
   endfacet
   facet normal 6.861938e-001 7.274188e-001 1.404840e-017
      outer loop
         vertex 3.338428e+002 8.042913e+002 5.940425e+002
         vertex 3.332558e+002 8.048783e+002 1.114425e+002
         vertex 3.332558e+002 8.048783e+002 5.940425e+002
      endloop
   endfacet
   facet normal 5.972114e-001 8.020839e-001 1.984874e-017
      outer loop
         vertex 3.332558e+002 8.048783e+002 5.940425e+002
         vertex 3.332558e+002 8.048783e+002 1.114425e+002
         vertex 3.325757e+002 8.053545e+002 1.114425e+002
      endloop
   endfacet
   facet normal 5.494540e-001 8.355240e-001 2.266265e-017
      outer loop
         vertex 3.332558e+002 8.048783e+002 5.940425e+002
         vertex 3.325757e+002 8.053545e+002 1.114425e+002
         vertex 3.325757e+002 8.053545e+002 5.940425e+002
      endloop
   endfacet
   facet normal 4.488580e-001 8.936031e-001 2.803243e-017
      outer loop
         vertex 3.325757e+002 8.053545e+002 5.940425e+002
         vertex 3.325757e+002 8.053545e+002 1.114425e+002
         vertex 3.318234e+002 8.057053e+002 1.114425e+002
      endloop
   endfacet
   facet normal 3.960194e-001 9.182422e-001 3.058831e-017
      outer loop
         vertex 3.325757e+002 8.053545e+002 5.940425e+002
         vertex 3.318234e+002 8.057053e+002 1.114425e+002
         vertex 3.318234e+002 8.057053e+002 5.940425e+002
      endloop
   endfacet
   facet normal 2.868663e-001 9.579706e-001 3.536437e-017
      outer loop
         vertex 3.318234e+002 8.057053e+002 5.940425e+002
         vertex 3.318234e+002 8.057053e+002 1.114425e+002
         vertex 3.310215e+002 8.059201e+002 1.114425e+002
      endloop
   endfacet
   facet normal 2.305519e-001 9.730600e-001 3.758456e-017
      outer loop
         vertex 3.318234e+002 8.057053e+002 5.940425e+002
         vertex 3.310215e+002 8.059201e+002 1.114425e+002
         vertex 3.310215e+002 8.059201e+002 5.940425e+002
      endloop
   endfacet
   facet normal 1.161583e-001 9.932307e-001 4.162178e-017
      outer loop
         vertex 3.310215e+002 8.059201e+002 5.940425e+002
         vertex 3.310215e+002 8.059201e+002 1.114425e+002
         vertex 3.301945e+002 8.059925e+002 1.114425e+002
      endloop
   endfacet
   facet normal 5.807914e-002 9.983120e-001 4.343882e-017
      outer loop
         vertex 3.310215e+002 8.059201e+002 5.940425e+002
         vertex 3.301945e+002 8.059925e+002 1.114425e+002
         vertex 3.301945e+002 8.059925e+002 5.940425e+002
      endloop
   endfacet
   facet normal -5.807914e-002 9.983120e-001 4.661453e-017
      outer loop
         vertex 3.301945e+002 8.059925e+002 5.940425e+002
         vertex 3.301945e+002 8.059925e+002 1.114425e+002
         vertex 3.293675e+002 8.059201e+002 1.114425e+002
      endloop
   endfacet
   facet normal -1.161583e-001 9.932307e-001 4.797321e-017
      outer loop
         vertex 3.301945e+002 8.059925e+002 5.940425e+002
         vertex 3.293675e+002 8.059201e+002 1.114425e+002
         vertex 3.293675e+002 8.059201e+002 5.940425e+002
      endloop
   endfacet
   facet normal -2.305519e-001 9.730600e-001 5.019093e-017
      outer loop
         vertex 3.293675e+002 8.059201e+002 5.940425e+002
         vertex 3.293675e+002 8.059201e+002 1.114425e+002
         vertex 3.285656e+002 8.057053e+002 1.114425e+002
      endloop
   endfacet
   facet normal -2.868663e-001 9.579706e-001 5.104996e-017
      outer loop
         vertex 3.293675e+002 8.059201e+002 5.940425e+002
         vertex 3.285656e+002 8.057053e+002 1.114425e+002
         vertex 3.285656e+002 8.057053e+002 5.940425e+002
      endloop
   endfacet
   facet normal -3.960194e-001 9.182422e-001 5.224230e-017
      outer loop
         vertex 3.285656e+002 8.057053e+002 5.940425e+002
         vertex 3.285656e+002 8.057053e+002 1.114425e+002
         vertex 3.278132e+002 8.053545e+002 1.114425e+002
      endloop
   endfacet
   facet normal -4.488580e-001 8.936031e-001 5.257559e-017
      outer loop
         vertex 3.285656e+002 8.057053e+002 5.940425e+002
         vertex 3.278132e+002 8.053545e+002 1.114425e+002
         vertex 3.278132e+002 8.053545e+002 5.940425e+002
      endloop
   endfacet
   facet normal -5.494540e-001 8.355240e-001 5.270631e-017
      outer loop
         vertex 3.278132e+002 8.053545e+002 5.940425e+002
         vertex 3.278132e+002 8.053545e+002 1.114425e+002
         vertex 3.271332e+002 8.048783e+002 1.114425e+002
      endloop
   endfacet
   facet normal -5.972114e-001 8.020839e-001 5.250373e-017
      outer loop
         vertex 3.278132e+002 8.053545e+002 5.940425e+002
         vertex 3.271332e+002 8.048783e+002 1.114425e+002
         vertex 3.271332e+002 8.048783e+002 5.940425e+002
      endloop
   endfacet
   facet normal -6.861938e-001 7.274188e-001 5.156886e-017
      outer loop
         vertex 3.271332e+002 8.048783e+002 5.940425e+002
         vertex 3.271332e+002 8.048783e+002 1.114425e+002
         vertex 3.265462e+002 8.042913e+002 1.114425e+002
      endloop
   endfacet
   facet normal -7.274188e-001 6.861938e-001 5.083657e-017
      outer loop
         vertex 3.271332e+002 8.048783e+002 5.940425e+002
         vertex 3.265462e+002 8.042913e+002 1.114425e+002
         vertex 3.265462e+002 8.042913e+002 5.940425e+002
      endloop
   endfacet
   facet normal -8.020839e-001 5.972114e-001 4.886453e-017
      outer loop
         vertex 3.265462e+002 8.042913e+002 5.940425e+002
         vertex 3.265462e+002 8.042913e+002 1.114425e+002
         vertex 3.260700e+002 8.036113e+002 1.114425e+002
      endloop
   endfacet
   facet normal -8.355240e-001 5.494540e-001 4.762477e-017
      outer loop
         vertex 3.265462e+002 8.042913e+002 5.940425e+002
         vertex 3.260700e+002 8.036113e+002 1.114425e+002
         vertex 3.260700e+002 8.036113e+002 5.940425e+002
      endloop
   endfacet
   facet normal -8.936031e-001 4.488580e-001 4.467547e-017
      outer loop
         vertex 3.260700e+002 8.036113e+002 5.940425e+002
         vertex 3.260700e+002 8.036113e+002 1.114425e+002
         vertex 3.257192e+002 8.028589e+002 1.114425e+002
      endloop
   endfacet
   facet normal -9.182422e-001 3.960194e-001 4.296592e-017
      outer loop
         vertex 3.260700e+002 8.036113e+002 5.940425e+002
         vertex 3.257192e+002 8.028589e+002 1.114425e+002
         vertex 3.257192e+002 8.028589e+002 5.940425e+002
      endloop
   endfacet
   facet normal -9.579706e-001 2.868663e-001 3.912897e-017
      outer loop
         vertex 3.257192e+002 8.028589e+002 5.940425e+002
         vertex 3.257192e+002 8.028589e+002 1.114425e+002
         vertex 3.255043e+002 8.020570e+002 1.114425e+002
      endloop
   endfacet
   facet normal -9.730600e-001 2.305519e-001 3.700157e-017
      outer loop
         vertex 3.257192e+002 8.028589e+002 5.940425e+002
         vertex 3.255043e+002 8.020570e+002 1.114425e+002
         vertex 3.255043e+002 8.020570e+002 5.940425e+002
      endloop
   endfacet
   facet normal -9.932307e-001 1.161583e-001 3.239355e-017
      outer loop
         vertex 3.255043e+002 8.020570e+002 5.940425e+002
         vertex 3.255043e+002 8.020570e+002 1.114425e+002
         vertex 3.254320e+002 8.012300e+002 1.114425e+002
      endloop
   endfacet
   facet normal -9.983120e-001 5.807914e-002 2.991294e-017
      outer loop
         vertex 3.255043e+002 8.020570e+002 5.940425e+002
         vertex 3.254320e+002 8.012300e+002 1.114425e+002
         vertex 3.254320e+002 8.012300e+002 5.940425e+002
      endloop
   endfacet
   facet normal -9.983120e-001 -5.807914e-002 2.467387e-017
      outer loop
         vertex 3.254320e+002 8.012300e+002 5.940425e+002
         vertex 3.254320e+002 8.012300e+002 1.114425e+002
         vertex 3.255043e+002 8.004030e+002 1.114425e+002
      endloop
   endfacet
   facet normal -9.932307e-001 -1.161583e-001 2.191542e-017
      outer loop
         vertex 3.254320e+002 8.012300e+002 5.940425e+002
         vertex 3.255043e+002 8.004030e+002 1.114425e+002
         vertex 3.255043e+002 8.004030e+002 5.940425e+002
      endloop
   endfacet
   facet normal -9.730600e-001 -2.305519e-001 1.620449e-017
      outer loop
         vertex 3.255043e+002 8.004030e+002 5.940425e+002
         vertex 3.255043e+002 8.004030e+002 1.114425e+002
         vertex 3.257192e+002 7.996011e+002 1.114425e+002
      endloop
   endfacet
   facet normal -9.579706e-001 -2.868663e-001 1.325202e-017
      outer loop
         vertex 3.255043e+002 8.004030e+002 5.940425e+002
         vertex 3.257192e+002 7.996011e+002 1.114425e+002
         vertex 3.257192e+002 7.996011e+002 5.940425e+002
      endloop
   endfacet
   facet normal -9.182422e-001 -3.960194e-001 7.242747e-018
      outer loop
         vertex 3.257192e+002 7.996011e+002 5.940425e+002
         vertex 3.257192e+002 7.996011e+002 1.114425e+002
         vertex 3.260700e+002 7.988488e+002 1.114425e+002
      endloop
   endfacet
   facet normal -8.936031e-001 -4.488580e-001 4.185955e-018
      outer loop
         vertex 3.257192e+002 7.996011e+002 5.940425e+002
         vertex 3.260700e+002 7.988488e+002 1.114425e+002
         vertex 3.260700e+002 7.988488e+002 5.940425e+002
      endloop
   endfacet
   facet normal -8.355240e-001 -5.494540e-001 -1.939066e-018
      outer loop
         vertex 3.260700e+002 7.988488e+002 5.940425e+002
         vertex 3.260700e+002 7.988488e+002 1.114425e+002
         vertex 3.265462e+002 7.981687e+002 1.114425e+002
      endloop
   endfacet
   facet normal -8.020839e-001 -5.972114e-001 -5.007294e-018
      outer loop
         vertex 3.260700e+002 7.988488e+002 5.940425e+002
         vertex 3.265462e+002 7.981687e+002 1.114425e+002
         vertex 3.265462e+002 7.981687e+002 5.940425e+002
      endloop
   endfacet
   facet normal -7.274188e-001 -6.861938e-001 -1.106196e-017
      outer loop
         vertex 3.265462e+002 7.981687e+002 5.940425e+002
         vertex 3.265462e+002 7.981687e+002 1.114425e+002
         vertex 3.271332e+002 7.975817e+002 1.114425e+002
      endloop
   endfacet
   facet normal -6.861938e-001 -7.274188e-001 -1.404840e-017
      outer loop
         vertex 3.265462e+002 7.981687e+002 5.940425e+002
         vertex 3.271332e+002 7.975817e+002 1.114425e+002
         vertex 3.271332e+002 7.975817e+002 5.940425e+002
      endloop
   endfacet
   facet normal -5.972114e-001 -8.020839e-001 -1.984874e-017
      outer loop
         vertex 3.271332e+002 7.975817e+002 5.940425e+002
         vertex 3.271332e+002 7.975817e+002 1.114425e+002
         vertex 3.278132e+002 7.971055e+002 1.114425e+002
      endloop
   endfacet
   facet normal -5.494540e-001 -8.355240e-001 -2.266265e-017
      outer loop
         vertex 3.271332e+002 7.975817e+002 5.940425e+002
         vertex 3.278132e+002 7.971055e+002 1.114425e+002
         vertex 3.278132e+002 7.971055e+002 5.940425e+002
      endloop
   endfacet
   facet normal -4.488580e-001 -8.936031e-001 -2.803243e-017
      outer loop
         vertex 3.278132e+002 7.971055e+002 5.940425e+002
         vertex 3.278132e+002 7.971055e+002 1.114425e+002
         vertex 3.285656e+002 7.967547e+002 1.114425e+002
      endloop
   endfacet
   facet normal -3.960194e-001 -9.182422e-001 -3.058831e-017
      outer loop
         vertex 3.278132e+002 7.971055e+002 5.940425e+002
         vertex 3.285656e+002 7.967547e+002 1.114425e+002
         vertex 3.285656e+002 7.967547e+002 5.940425e+002
      endloop
   endfacet
   facet normal -2.868663e-001 -9.579706e-001 -3.536437e-017
      outer loop
         vertex 3.285656e+002 7.967547e+002 5.940425e+002
         vertex 3.285656e+002 7.967547e+002 1.114425e+002
         vertex 3.293675e+002 7.965399e+002 1.114425e+002
      endloop
   endfacet
   facet normal -2.305519e-001 -9.730600e-001 -3.758456e-017
      outer loop
         vertex 3.285656e+002 7.967547e+002 5.940425e+002
         vertex 3.293675e+002 7.965399e+002 1.114425e+002
         vertex 3.293675e+002 7.965399e+002 5.940425e+002
      endloop
   endfacet
   facet normal -1.161583e-001 -9.932307e-001 -4.162178e-017
      outer loop
         vertex 3.293675e+002 7.965399e+002 5.940425e+002
         vertex 3.293675e+002 7.965399e+002 1.114425e+002
         vertex 3.301945e+002 7.964675e+002 1.114425e+002
      endloop
   endfacet
   facet normal -5.807914e-002 -9.983120e-001 -4.343882e-017
      outer loop
         vertex 3.293675e+002 7.965399e+002 5.940425e+002
         vertex 3.301945e+002 7.964675e+002 1.114425e+002
         vertex 3.301945e+002 7.964675e+002 5.940425e+002
      endloop
   endfacet
   facet normal 5.807914e-002 -9.983120e-001 -4.661453e-017
      outer loop
         vertex 3.301945e+002 7.964675e+002 5.940425e+002
         vertex 3.301945e+002 7.964675e+002 1.114425e+002
         vertex 3.310215e+002 7.965399e+002 1.114425e+002
      endloop
   endfacet
   facet normal 1.161583e-001 -9.932307e-001 -4.797321e-017
      outer loop
         vertex 3.301945e+002 7.964675e+002 5.940425e+002
         vertex 3.310215e+002 7.965399e+002 1.114425e+002
         vertex 3.310215e+002 7.965399e+002 5.940425e+002
      endloop
   endfacet
   facet normal 2.305519e-001 -9.730600e-001 -5.019093e-017
      outer loop
         vertex 3.310215e+002 7.965399e+002 5.940425e+002
         vertex 3.310215e+002 7.965399e+002 1.114425e+002
         vertex 3.318234e+002 7.967547e+002 1.114425e+002
      endloop
   endfacet
   facet normal 2.868663e-001 -9.579706e-001 -5.104996e-017
      outer loop
         vertex 3.310215e+002 7.965399e+002 5.940425e+002
         vertex 3.318234e+002 7.967547e+002 1.114425e+002
         vertex 3.318234e+002 7.967547e+002 5.940425e+002
      endloop
   endfacet
   facet normal 3.960194e-001 -9.182422e-001 -5.224230e-017
      outer loop
         vertex 3.318234e+002 7.967547e+002 5.940425e+002
         vertex 3.318234e+002 7.967547e+002 1.114425e+002
         vertex 3.325757e+002 7.971055e+002 1.114425e+002
      endloop
   endfacet
   facet normal 4.488580e-001 -8.936031e-001 -5.257559e-017
      outer loop
         vertex 3.318234e+002 7.967547e+002 5.940425e+002
         vertex 3.325757e+002 7.971055e+002 1.114425e+002
         vertex 3.325757e+002 7.971055e+002 5.940425e+002
      endloop
   endfacet
   facet normal 5.494540e-001 -8.355240e-001 -5.270631e-017
      outer loop
         vertex 3.325757e+002 7.971055e+002 5.940425e+002
         vertex 3.325757e+002 7.971055e+002 1.114425e+002
         vertex 3.332558e+002 7.975817e+002 1.114425e+002
      endloop
   endfacet
   facet normal 5.972114e-001 -8.020839e-001 -5.250373e-017
      outer loop
         vertex 3.325757e+002 7.971055e+002 5.940425e+002
         vertex 3.332558e+002 7.975817e+002 1.114425e+002
         vertex 3.332558e+002 7.975817e+002 5.940425e+002
      endloop
   endfacet
   facet normal 6.861938e-001 -7.274188e-001 -5.156886e-017
      outer loop
         vertex 3.332558e+002 7.975817e+002 5.940425e+002
         vertex 3.332558e+002 7.975817e+002 1.114425e+002
         vertex 3.338428e+002 7.981687e+002 1.114425e+002
      endloop
   endfacet
   facet normal 7.274188e-001 -6.861938e-001 -5.083657e-017
      outer loop
         vertex 3.332558e+002 7.975817e+002 5.940425e+002
         vertex 3.338428e+002 7.981687e+002 1.114425e+002
         vertex 3.338428e+002 7.981687e+002 5.940425e+002
      endloop
   endfacet
   facet normal 8.020839e-001 -5.972114e-001 -4.886453e-017
      outer loop
         vertex 3.338428e+002 7.981687e+002 5.940425e+002
         vertex 3.338428e+002 7.981687e+002 1.114425e+002
         vertex 3.343189e+002 7.988488e+002 1.114425e+002
      endloop
   endfacet
   facet normal 8.355240e-001 -5.494540e-001 -4.762477e-017
      outer loop
         vertex 3.338428e+002 7.981687e+002 5.940425e+002
         vertex 3.343189e+002 7.988488e+002 1.114425e+002
         vertex 3.343189e+002 7.988488e+002 5.940425e+002
      endloop
   endfacet
   facet normal 8.936031e-001 -4.488580e-001 -4.467547e-017
      outer loop
         vertex 3.343189e+002 7.988488e+002 5.940425e+002
         vertex 3.343189e+002 7.988488e+002 1.114425e+002
         vertex 3.346698e+002 7.996011e+002 1.114425e+002
      endloop
   endfacet
   facet normal 9.182422e-001 -3.960194e-001 -4.296592e-017
      outer loop
         vertex 3.343189e+002 7.988488e+002 5.940425e+002
         vertex 3.346698e+002 7.996011e+002 1.114425e+002
         vertex 3.346698e+002 7.996011e+002 5.940425e+002
      endloop
   endfacet
   facet normal 9.579706e-001 -2.868663e-001 -3.912897e-017
      outer loop
         vertex 3.346698e+002 7.996011e+002 5.940425e+002
         vertex 3.346698e+002 7.996011e+002 1.114425e+002
         vertex 3.348846e+002 8.004030e+002 1.114425e+002
      endloop
   endfacet
   facet normal 9.730600e-001 -2.305519e-001 -3.700157e-017
      outer loop
         vertex 3.346698e+002 7.996011e+002 5.940425e+002
         vertex 3.348846e+002 8.004030e+002 1.114425e+002
         vertex 3.348846e+002 8.004030e+002 5.940425e+002
      endloop
   endfacet
   facet normal 9.932307e-001 -1.161583e-001 -3.239355e-017
      outer loop
         vertex 3.348846e+002 8.004030e+002 5.940425e+002
         vertex 3.348846e+002 8.004030e+002 1.114425e+002
         vertex 3.349570e+002 8.012300e+002 1.114425e+002
      endloop
   endfacet
   facet normal 5.551115e-017 0.000000e+000 1.000000e+000
      outer loop
         vertex 3.346698e+002 8.028589e+002 5.940425e+002
         vertex 3.265462e+002 7.981687e+002 5.940425e+002
         vertex 3.348846e+002 8.020570e+002 5.940425e+002
      endloop
   endfacet
   facet normal 5.551115e-017 0.000000e+000 1.000000e+000
      outer loop
         vertex 3.348846e+002 8.020570e+002 5.940425e+002
         vertex 3.265462e+002 7.981687e+002 5.940425e+002
         vertex 3.349570e+002 8.012300e+002 5.940425e+002
      endloop
   endfacet
   facet normal 5.551115e-017 0.000000e+000 1.000000e+000
      outer loop
         vertex 3.257192e+002 7.996011e+002 5.940425e+002
         vertex 3.338428e+002 8.042913e+002 5.940425e+002
         vertex 3.255043e+002 8.004030e+002 5.940425e+002
      endloop
   endfacet
   facet normal 5.551115e-017 0.000000e+000 1.000000e+000
      outer loop
         vertex 3.255043e+002 8.004030e+002 5.940425e+002
         vertex 3.338428e+002 8.042913e+002 5.940425e+002
         vertex 3.254320e+002 8.012300e+002 5.940425e+002
      endloop
   endfacet
   facet normal 5.551115e-017 0.000000e+000 1.000000e+000
      outer loop
         vertex 3.346698e+002 8.028589e+002 5.940425e+002
         vertex 3.343189e+002 8.036113e+002 5.940425e+002
         vertex 3.265462e+002 7.981687e+002 5.940425e+002
      endloop
   endfacet
   facet normal 5.551115e-017 0.000000e+000 1.000000e+000
      outer loop
         vertex 3.265462e+002 7.981687e+002 5.940425e+002
         vertex 3.343189e+002 8.036113e+002 5.940425e+002
         vertex 3.338428e+002 8.042913e+002 5.940425e+002
      endloop
   endfacet
   facet normal 5.551115e-017 0.000000e+000 1.000000e+000
      outer loop
         vertex 3.265462e+002 7.981687e+002 5.940425e+002
         vertex 3.338428e+002 8.042913e+002 5.940425e+002
         vertex 3.260700e+002 7.988488e+002 5.940425e+002
      endloop
   endfacet
   facet normal 5.551115e-017 0.000000e+000 1.000000e+000
      outer loop
         vertex 3.260700e+002 7.988488e+002 5.940425e+002
         vertex 3.338428e+002 8.042913e+002 5.940425e+002
         vertex 3.257192e+002 7.996011e+002 5.940425e+002
      endloop
   endfacet
   facet normal 5.551115e-017 0.000000e+000 1.000000e+000
      outer loop
         vertex 3.338428e+002 8.042913e+002 5.940425e+002
         vertex 3.332558e+002 8.048783e+002 5.940425e+002
         vertex 3.254320e+002 8.012300e+002 5.940425e+002
      endloop
   endfacet
   facet normal 5.551115e-017 0.000000e+000 1.000000e+000
      outer loop
         vertex 3.254320e+002 8.012300e+002 5.940425e+002
         vertex 3.332558e+002 8.048783e+002 5.940425e+002
         vertex 3.325757e+002 8.053545e+002 5.940425e+002
      endloop
   endfacet
   facet normal 5.551115e-017 0.000000e+000 1.000000e+000
      outer loop
         vertex 3.254320e+002 8.012300e+002 5.940425e+002
         vertex 3.325757e+002 8.053545e+002 5.940425e+002
         vertex 3.318234e+002 8.057053e+002 5.940425e+002
      endloop
   endfacet
   facet normal 5.551115e-017 0.000000e+000 1.000000e+000
      outer loop
         vertex 3.257192e+002 8.028589e+002 5.940425e+002
         vertex 3.255043e+002 8.020570e+002 5.940425e+002
         vertex 3.301945e+002 8.059925e+002 5.940425e+002
      endloop
   endfacet
   facet normal 5.551115e-017 0.000000e+000 1.000000e+000
      outer loop
         vertex 3.301945e+002 8.059925e+002 5.940425e+002
         vertex 3.255043e+002 8.020570e+002 5.940425e+002
         vertex 3.254320e+002 8.012300e+002 5.940425e+002
      endloop
   endfacet
   facet normal 5.551115e-017 0.000000e+000 1.000000e+000
      outer loop
         vertex 3.301945e+002 8.059925e+002 5.940425e+002
         vertex 3.254320e+002 8.012300e+002 5.940425e+002
         vertex 3.310215e+002 8.059201e+002 5.940425e+002
      endloop
   endfacet
   facet normal 5.551115e-017 0.000000e+000 1.000000e+000
      outer loop
         vertex 3.310215e+002 8.059201e+002 5.940425e+002
         vertex 3.254320e+002 8.012300e+002 5.940425e+002
         vertex 3.318234e+002 8.057053e+002 5.940425e+002
      endloop
   endfacet
   facet normal 5.551115e-017 0.000000e+000 1.000000e+000
      outer loop
         vertex 3.265462e+002 7.981687e+002 5.940425e+002
         vertex 3.271332e+002 7.975817e+002 5.940425e+002
         vertex 3.349570e+002 8.012300e+002 5.940425e+002
      endloop
   endfacet
   facet normal 5.551115e-017 0.000000e+000 1.000000e+000
      outer loop
         vertex 3.349570e+002 8.012300e+002 5.940425e+002
         vertex 3.271332e+002 7.975817e+002 5.940425e+002
         vertex 3.278132e+002 7.971055e+002 5.940425e+002
      endloop
   endfacet
   facet normal 5.551115e-017 0.000000e+000 1.000000e+000
      outer loop
         vertex 3.349570e+002 8.012300e+002 5.940425e+002
         vertex 3.278132e+002 7.971055e+002 5.940425e+002
         vertex 3.285656e+002 7.967547e+002 5.940425e+002
      endloop
   endfacet
   facet normal 5.551115e-017 0.000000e+000 1.000000e+000
      outer loop
         vertex 3.293675e+002 8.059201e+002 5.940425e+002
         vertex 3.285656e+002 8.057053e+002 5.940425e+002
         vertex 3.301945e+002 8.059925e+002 5.940425e+002
      endloop
   endfacet
   facet normal 5.551115e-017 0.000000e+000 1.000000e+000
      outer loop
         vertex 3.301945e+002 8.059925e+002 5.940425e+002
         vertex 3.285656e+002 8.057053e+002 5.940425e+002
         vertex 3.278132e+002 8.053545e+002 5.940425e+002
      endloop
   endfacet
   facet normal 5.551115e-017 0.000000e+000 1.000000e+000
      outer loop
         vertex 3.301945e+002 8.059925e+002 5.940425e+002
         vertex 3.278132e+002 8.053545e+002 5.940425e+002
         vertex 3.271332e+002 8.048783e+002 5.940425e+002
      endloop
   endfacet
   facet normal 5.551115e-017 0.000000e+000 1.000000e+000
      outer loop
         vertex 3.271332e+002 8.048783e+002 5.940425e+002
         vertex 3.265462e+002 8.042913e+002 5.940425e+002
         vertex 3.301945e+002 8.059925e+002 5.940425e+002
      endloop
   endfacet
   facet normal 5.551115e-017 0.000000e+000 1.000000e+000
      outer loop
         vertex 3.301945e+002 8.059925e+002 5.940425e+002
         vertex 3.265462e+002 8.042913e+002 5.940425e+002
         vertex 3.260700e+002 8.036113e+002 5.940425e+002
      endloop
   endfacet
   facet normal 5.551115e-017 0.000000e+000 1.000000e+000
      outer loop
         vertex 3.301945e+002 8.059925e+002 5.940425e+002
         vertex 3.260700e+002 8.036113e+002 5.940425e+002
         vertex 3.257192e+002 8.028589e+002 5.940425e+002
      endloop
   endfacet
   facet normal 5.551115e-017 0.000000e+000 1.000000e+000
      outer loop
         vertex 3.346698e+002 7.996011e+002 5.940425e+002
         vertex 3.348846e+002 8.004030e+002 5.940425e+002
         vertex 3.301945e+002 7.964675e+002 5.940425e+002
      endloop
   endfacet
   facet normal 5.551115e-017 0.000000e+000 1.000000e+000
      outer loop
         vertex 3.301945e+002 7.964675e+002 5.940425e+002
         vertex 3.348846e+002 8.004030e+002 5.940425e+002
         vertex 3.349570e+002 8.012300e+002 5.940425e+002
      endloop
   endfacet
   facet normal 5.551115e-017 0.000000e+000 1.000000e+000
      outer loop
         vertex 3.301945e+002 7.964675e+002 5.940425e+002
         vertex 3.349570e+002 8.012300e+002 5.940425e+002
         vertex 3.293675e+002 7.965399e+002 5.940425e+002
      endloop
   endfacet
   facet normal 5.551115e-017 0.000000e+000 1.000000e+000
      outer loop
         vertex 3.293675e+002 7.965399e+002 5.940425e+002
         vertex 3.349570e+002 8.012300e+002 5.940425e+002
         vertex 3.285656e+002 7.967547e+002 5.940425e+002
      endloop
   endfacet
   facet normal 5.551115e-017 0.000000e+000 1.000000e+000
      outer loop
         vertex 3.310215e+002 7.965399e+002 5.940425e+002
         vertex 3.318234e+002 7.967547e+002 5.940425e+002
         vertex 3.301945e+002 7.964675e+002 5.940425e+002
      endloop
   endfacet
   facet normal 5.551115e-017 0.000000e+000 1.000000e+000
      outer loop
         vertex 3.301945e+002 7.964675e+002 5.940425e+002
         vertex 3.318234e+002 7.967547e+002 5.940425e+002
         vertex 3.325757e+002 7.971055e+002 5.940425e+002
      endloop
   endfacet
   facet normal 5.551115e-017 0.000000e+000 1.000000e+000
      outer loop
         vertex 3.301945e+002 7.964675e+002 5.940425e+002
         vertex 3.325757e+002 7.971055e+002 5.940425e+002
         vertex 3.332558e+002 7.975817e+002 5.940425e+002
      endloop
   endfacet
   facet normal 5.551115e-017 0.000000e+000 1.000000e+000
      outer loop
         vertex 3.332558e+002 7.975817e+002 5.940425e+002
         vertex 3.338428e+002 7.981687e+002 5.940425e+002
         vertex 3.301945e+002 7.964675e+002 5.940425e+002
      endloop
   endfacet
   facet normal 5.551115e-017 0.000000e+000 1.000000e+000
      outer loop
         vertex 3.301945e+002 7.964675e+002 5.940425e+002
         vertex 3.338428e+002 7.981687e+002 5.940425e+002
         vertex 3.343189e+002 7.988488e+002 5.940425e+002
      endloop
   endfacet
   facet normal 5.551115e-017 0.000000e+000 1.000000e+000
      outer loop
         vertex 3.301945e+002 7.964675e+002 5.940425e+002
         vertex 3.343189e+002 7.988488e+002 5.940425e+002
         vertex 3.346698e+002 7.996011e+002 5.940425e+002
      endloop
   endfacet
   facet normal -5.551115e-017 -0.000000e+000 -1.000000e+000
      outer loop
         vertex 3.343189e+002 8.036113e+002 1.114425e+002
         vertex 3.265462e+002 7.981687e+002 1.114425e+002
         vertex 3.338428e+002 8.042913e+002 1.114425e+002
      endloop
   endfacet
   facet normal -5.551115e-017 -0.000000e+000 -1.000000e+000
      outer loop
         vertex 3.338428e+002 8.042913e+002 1.114425e+002
         vertex 3.265462e+002 7.981687e+002 1.114425e+002
         vertex 3.260700e+002 7.988488e+002 1.114425e+002
      endloop
   endfacet
   facet normal -5.551115e-017 -0.000000e+000 -1.000000e+000
      outer loop
         vertex 3.338428e+002 8.042913e+002 1.114425e+002
         vertex 3.260700e+002 7.988488e+002 1.114425e+002
         vertex 3.257192e+002 7.996011e+002 1.114425e+002
      endloop
   endfacet
   facet normal -5.551115e-017 -0.000000e+000 -1.000000e+000
      outer loop
         vertex 3.255043e+002 8.020570e+002 1.114425e+002
         vertex 3.257192e+002 8.028589e+002 1.114425e+002
         vertex 3.301945e+002 8.059925e+002 1.114425e+002
      endloop
   endfacet
   facet normal -5.551115e-017 -0.000000e+000 -1.000000e+000
      outer loop
         vertex 3.318234e+002 8.057053e+002 1.114425e+002
         vertex 3.325757e+002 8.053545e+002 1.114425e+002
         vertex 3.254320e+002 8.012300e+002 1.114425e+002
      endloop
   endfacet
   facet normal -5.551115e-017 -0.000000e+000 -1.000000e+000
      outer loop
         vertex 3.343189e+002 8.036113e+002 1.114425e+002
         vertex 3.346698e+002 8.028589e+002 1.114425e+002
         vertex 3.265462e+002 7.981687e+002 1.114425e+002
      endloop
   endfacet
   facet normal -5.551115e-017 -0.000000e+000 -1.000000e+000
      outer loop
         vertex 3.265462e+002 7.981687e+002 1.114425e+002
         vertex 3.346698e+002 8.028589e+002 1.114425e+002
         vertex 3.348846e+002 8.020570e+002 1.114425e+002
      endloop
   endfacet
   facet normal -5.551115e-017 -0.000000e+000 -1.000000e+000
      outer loop
         vertex 3.265462e+002 7.981687e+002 1.114425e+002
         vertex 3.348846e+002 8.020570e+002 1.114425e+002
         vertex 3.349570e+002 8.012300e+002 1.114425e+002
      endloop
   endfacet
   facet normal -5.551115e-017 -0.000000e+000 -1.000000e+000
      outer loop
         vertex 3.257192e+002 7.996011e+002 1.114425e+002
         vertex 3.255043e+002 8.004030e+002 1.114425e+002
         vertex 3.338428e+002 8.042913e+002 1.114425e+002
      endloop
   endfacet
   facet normal -5.551115e-017 -0.000000e+000 -1.000000e+000
      outer loop
         vertex 3.338428e+002 8.042913e+002 1.114425e+002
         vertex 3.255043e+002 8.004030e+002 1.114425e+002
         vertex 3.254320e+002 8.012300e+002 1.114425e+002
      endloop
   endfacet
   facet normal -5.551115e-017 -0.000000e+000 -1.000000e+000
      outer loop
         vertex 3.338428e+002 8.042913e+002 1.114425e+002
         vertex 3.254320e+002 8.012300e+002 1.114425e+002
         vertex 3.332558e+002 8.048783e+002 1.114425e+002
      endloop
   endfacet
   facet normal -5.551115e-017 -0.000000e+000 -1.000000e+000
      outer loop
         vertex 3.332558e+002 8.048783e+002 1.114425e+002
         vertex 3.254320e+002 8.012300e+002 1.114425e+002
         vertex 3.325757e+002 8.053545e+002 1.114425e+002
      endloop
   endfacet
   facet normal -5.551115e-017 -0.000000e+000 -1.000000e+000
      outer loop
         vertex 3.348846e+002 8.004030e+002 1.114425e+002
         vertex 3.346698e+002 7.996011e+002 1.114425e+002
         vertex 3.301945e+002 7.964675e+002 1.114425e+002
      endloop
   endfacet
   facet normal -5.551115e-017 -0.000000e+000 -1.000000e+000
      outer loop
         vertex 3.255043e+002 8.020570e+002 1.114425e+002
         vertex 3.301945e+002 8.059925e+002 1.114425e+002
         vertex 3.254320e+002 8.012300e+002 1.114425e+002
      endloop
   endfacet
   facet normal -5.551115e-017 -0.000000e+000 -1.000000e+000
      outer loop
         vertex 3.254320e+002 8.012300e+002 1.114425e+002
         vertex 3.301945e+002 8.059925e+002 1.114425e+002
         vertex 3.310215e+002 8.059201e+002 1.114425e+002
      endloop
   endfacet
   facet normal -5.551115e-017 -0.000000e+000 -1.000000e+000
      outer loop
         vertex 3.254320e+002 8.012300e+002 1.114425e+002
         vertex 3.310215e+002 8.059201e+002 1.114425e+002
         vertex 3.318234e+002 8.057053e+002 1.114425e+002
      endloop
   endfacet
   facet normal -5.551115e-017 -0.000000e+000 -1.000000e+000
      outer loop
         vertex 3.285656e+002 7.967547e+002 1.114425e+002
         vertex 3.278132e+002 7.971055e+002 1.114425e+002
         vertex 3.349570e+002 8.012300e+002 1.114425e+002
      endloop
   endfacet
   facet normal -5.551115e-017 -0.000000e+000 -1.000000e+000
      outer loop
         vertex 3.349570e+002 8.012300e+002 1.114425e+002
         vertex 3.278132e+002 7.971055e+002 1.114425e+002
         vertex 3.271332e+002 7.975817e+002 1.114425e+002
      endloop
   endfacet
   facet normal -5.551115e-017 -0.000000e+000 -1.000000e+000
      outer loop
         vertex 3.349570e+002 8.012300e+002 1.114425e+002
         vertex 3.271332e+002 7.975817e+002 1.114425e+002
         vertex 3.265462e+002 7.981687e+002 1.114425e+002
      endloop
   endfacet
   facet normal -5.551115e-017 -0.000000e+000 -1.000000e+000
      outer loop
         vertex 3.257192e+002 8.028589e+002 1.114425e+002
         vertex 3.260700e+002 8.036113e+002 1.114425e+002
         vertex 3.301945e+002 8.059925e+002 1.114425e+002
      endloop
   endfacet
   facet normal -5.551115e-017 -0.000000e+000 -1.000000e+000
      outer loop
         vertex 3.301945e+002 8.059925e+002 1.114425e+002
         vertex 3.260700e+002 8.036113e+002 1.114425e+002
         vertex 3.265462e+002 8.042913e+002 1.114425e+002
      endloop
   endfacet
   facet normal -5.551115e-017 -0.000000e+000 -1.000000e+000
      outer loop
         vertex 3.301945e+002 8.059925e+002 1.114425e+002
         vertex 3.265462e+002 8.042913e+002 1.114425e+002
         vertex 3.271332e+002 8.048783e+002 1.114425e+002
      endloop
   endfacet
   facet normal -5.551115e-017 -0.000000e+000 -1.000000e+000
      outer loop
         vertex 3.271332e+002 8.048783e+002 1.114425e+002
         vertex 3.278132e+002 8.053545e+002 1.114425e+002
         vertex 3.301945e+002 8.059925e+002 1.114425e+002
      endloop
   endfacet
   facet normal -5.551115e-017 -0.000000e+000 -1.000000e+000
      outer loop
         vertex 3.301945e+002 8.059925e+002 1.114425e+002
         vertex 3.278132e+002 8.053545e+002 1.114425e+002
         vertex 3.285656e+002 8.057053e+002 1.114425e+002
      endloop
   endfacet
   facet normal -5.551115e-017 -0.000000e+000 -1.000000e+000
      outer loop
         vertex 3.301945e+002 8.059925e+002 1.114425e+002
         vertex 3.285656e+002 8.057053e+002 1.114425e+002
         vertex 3.293675e+002 8.059201e+002 1.114425e+002
      endloop
   endfacet
   facet normal -5.551115e-017 -0.000000e+000 -1.000000e+000
      outer loop
         vertex 3.346698e+002 7.996011e+002 1.114425e+002
         vertex 3.343189e+002 7.988488e+002 1.114425e+002
         vertex 3.301945e+002 7.964675e+002 1.114425e+002
      endloop
   endfacet
   facet normal -5.551115e-017 -0.000000e+000 -1.000000e+000
      outer loop
         vertex 3.301945e+002 7.964675e+002 1.114425e+002
         vertex 3.343189e+002 7.988488e+002 1.114425e+002
         vertex 3.338428e+002 7.981687e+002 1.114425e+002
      endloop
   endfacet
   facet normal -5.551115e-017 -0.000000e+000 -1.000000e+000
      outer loop
         vertex 3.301945e+002 7.964675e+002 1.114425e+002
         vertex 3.338428e+002 7.981687e+002 1.114425e+002
         vertex 3.332558e+002 7.975817e+002 1.114425e+002
      endloop
   endfacet
   facet normal -5.551115e-017 -0.000000e+000 -1.000000e+000
      outer loop
         vertex 3.332558e+002 7.975817e+002 1.114425e+002
         vertex 3.325757e+002 7.971055e+002 1.114425e+002
         vertex 3.301945e+002 7.964675e+002 1.114425e+002
      endloop
   endfacet
   facet normal -5.551115e-017 -0.000000e+000 -1.000000e+000
      outer loop
         vertex 3.301945e+002 7.964675e+002 1.114425e+002
         vertex 3.325757e+002 7.971055e+002 1.114425e+002
         vertex 3.318234e+002 7.967547e+002 1.114425e+002
      endloop
   endfacet
   facet normal -5.551115e-017 -0.000000e+000 -1.000000e+000
      outer loop
         vertex 3.301945e+002 7.964675e+002 1.114425e+002
         vertex 3.318234e+002 7.967547e+002 1.114425e+002
         vertex 3.310215e+002 7.965399e+002 1.114425e+002
      endloop
   endfacet
   facet normal -5.551115e-017 -0.000000e+000 -1.000000e+000
      outer loop
         vertex 3.348846e+002 8.004030e+002 1.114425e+002
         vertex 3.301945e+002 7.964675e+002 1.114425e+002
         vertex 3.349570e+002 8.012300e+002 1.114425e+002
      endloop
   endfacet
   facet normal -5.551115e-017 -0.000000e+000 -1.000000e+000
      outer loop
         vertex 3.349570e+002 8.012300e+002 1.114425e+002
         vertex 3.301945e+002 7.964675e+002 1.114425e+002
         vertex 3.293675e+002 7.965399e+002 1.114425e+002
      endloop
   endfacet
   facet normal -5.551115e-017 -0.000000e+000 -1.000000e+000
      outer loop
         vertex 3.349570e+002 8.012300e+002 1.114425e+002
         vertex 3.293675e+002 7.965399e+002 1.114425e+002
         vertex 3.285656e+002 7.967547e+002 1.114425e+002
      endloop
   endfacet
endsolid