solid 000-UltraSoundMachine_Johnsonville - 300-TableCage-1 311-PlateYoke-2
   facet normal -6.340735e-019 -1.000000e+000 -1.589439e-015
      outer loop
         vertex 1.464945e+002 8.255000e+002 6.130925e+002
         vertex 1.464945e+002 8.255000e+002 6.829425e+002
         vertex 1.401445e+002 8.255000e+002 6.130925e+002
      endloop
   endfacet
   facet normal -6.340735e-019 -1.000000e+000 -1.589439e-015
      outer loop
         vertex 1.401445e+002 8.255000e+002 6.130925e+002
         vertex 1.464945e+002 8.255000e+002 6.829425e+002
         vertex 1.401445e+002 8.255000e+002 6.829425e+002
      endloop
   endfacet
   facet normal -1.644330e-017 0.000000e+000 -1.000000e+000
      outer loop
         vertex 1.464945e+002 9.779000e+002 6.130925e+002
         vertex 1.464945e+002 8.255000e+002 6.130925e+002
         vertex 1.401445e+002 9.779000e+002 6.130925e+002
      endloop
   endfacet
   facet normal -1.644330e-017 0.000000e+000 -1.000000e+000
      outer loop
         vertex 1.401445e+002 9.779000e+002 6.130925e+002
         vertex 1.464945e+002 8.255000e+002 6.130925e+002
         vertex 1.401445e+002 8.255000e+002 6.130925e+002
      endloop
   endfacet
   facet normal 6.340735e-019 1.000000e+000 0.000000e+000
      outer loop
         vertex 1.464945e+002 9.779000e+002 6.829425e+002
         vertex 1.464945e+002 9.779000e+002 6.130925e+002
         vertex 1.401445e+002 9.779000e+002 6.829425e+002
      endloop
   endfacet
   facet normal 6.340735e-019 1.000000e+000 0.000000e+000
      outer loop
         vertex 1.401445e+002 9.779000e+002 6.829425e+002
         vertex 1.464945e+002 9.779000e+002 6.130925e+002
         vertex 1.401445e+002 9.779000e+002 6.130925e+002
      endloop
   endfacet
   facet normal 1.644330e-017 3.642464e-016 1.000000e+000
      outer loop
         vertex 1.464945e+002 8.255000e+002 6.829425e+002
         vertex 1.464945e+002 9.779000e+002 6.829425e+002
         vertex 1.401445e+002 8.255000e+002 6.829425e+002
      endloop
   endfacet
   facet normal 1.644330e-017 3.642464e-016 1.000000e+000
      outer loop
         vertex 1.401445e+002 8.255000e+002 6.829425e+002
         vertex 1.464945e+002 9.779000e+002 6.829425e+002
         vertex 1.401445e+002 9.779000e+002 6.829425e+002
      endloop
   endfacet
   facet normal 1.000000e+000 -6.340735e-019 -1.644330e-017
      outer loop
         vertex 1.464945e+002 9.571902e+002 6.236667e+002
         vertex 1.464945e+002 9.572625e+002 6.228397e+002
         vertex 1.464945e+002 9.779000e+002 6.130925e+002
      endloop
   endfacet
   facet normal 1.000000e+000 -6.340735e-019 -1.644330e-017
      outer loop
         vertex 1.464945e+002 9.779000e+002 6.130925e+002
         vertex 1.464945e+002 9.572625e+002 6.228397e+002
         vertex 1.464945e+002 9.571902e+002 6.220128e+002
      endloop
   endfacet
   facet normal 1.000000e+000 -6.340735e-019 -1.644330e-017
      outer loop
         vertex 1.464945e+002 8.617253e+002 6.212109e+002
         vertex 1.464945e+002 8.613745e+002 6.204585e+002
         vertex 1.464945e+002 9.480248e+002 6.212109e+002
      endloop
   endfacet
   facet normal 1.000000e+000 -6.340735e-019 -1.644330e-017
      outer loop
         vertex 1.464945e+002 8.524875e+002 6.228397e+002
         vertex 1.464945e+002 8.255000e+002 6.130925e+002
         vertex 1.464945e+002 8.525599e+002 6.220128e+002
      endloop
   endfacet
   facet normal 1.000000e+000 -6.340735e-019 -1.644330e-017
      outer loop
         vertex 1.464945e+002 8.525599e+002 6.220128e+002
         vertex 1.464945e+002 8.255000e+002 6.130925e+002
         vertex 1.464945e+002 8.527747e+002 6.212109e+002
      endloop
   endfacet
   facet normal 1.000000e+000 -6.340735e-019 -1.644330e-017
      outer loop
         vertex 1.464945e+002 8.536017e+002 6.259010e+002
         vertex 1.464945e+002 8.541887e+002 6.264880e+002
         vertex 1.464945e+002 8.255000e+002 6.829425e+002
      endloop
   endfacet
   facet normal 1.000000e+000 -6.340735e-019 -1.644330e-017
      outer loop
         vertex 1.464945e+002 8.596312e+002 6.269642e+002
         vertex 1.464945e+002 8.603113e+002 6.264880e+002
         vertex 1.464945e+002 9.779000e+002 6.829425e+002
      endloop
   endfacet
   facet normal 1.000000e+000 -6.340735e-019 -1.644330e-017
      outer loop
         vertex 1.464945e+002 9.571902e+002 6.220128e+002
         vertex 1.464945e+002 9.569753e+002 6.212109e+002
         vertex 1.464945e+002 9.779000e+002 6.130925e+002
      endloop
   endfacet
   facet normal 1.000000e+000 -6.340735e-019 -1.644330e-017
      outer loop
         vertex 1.464945e+002 9.779000e+002 6.130925e+002
         vertex 1.464945e+002 9.569753e+002 6.212109e+002
         vertex 1.464945e+002 9.566245e+002 6.204585e+002
      endloop
   endfacet
   facet normal 1.000000e+000 -6.340735e-019 -1.644330e-017
      outer loop
         vertex 1.464945e+002 9.779000e+002 6.130925e+002
         vertex 1.464945e+002 9.566245e+002 6.204585e+002
         vertex 1.464945e+002 9.561483e+002 6.197784e+002
      endloop
   endfacet
   facet normal 1.000000e+000 -6.340735e-019 -1.644330e-017
      outer loop
         vertex 1.464945e+002 8.524875e+002 6.228397e+002
         vertex 1.464945e+002 8.525599e+002 6.236667e+002
         vertex 1.464945e+002 8.255000e+002 6.130925e+002
      endloop
   endfacet
   facet normal 1.000000e+000 -6.340735e-019 -1.644330e-017
      outer loop
         vertex 1.464945e+002 8.255000e+002 6.130925e+002
         vertex 1.464945e+002 8.525599e+002 6.236667e+002
         vertex 1.464945e+002 8.527747e+002 6.244686e+002
      endloop
   endfacet
   facet normal 1.000000e+000 -6.340735e-019 -1.644330e-017
      outer loop
         vertex 1.464945e+002 8.255000e+002 6.130925e+002
         vertex 1.464945e+002 8.527747e+002 6.244686e+002
         vertex 1.464945e+002 8.255000e+002 6.829425e+002
      endloop
   endfacet
   facet normal 1.000000e+000 -6.340735e-019 -1.644330e-017
      outer loop
         vertex 1.464945e+002 8.255000e+002 6.829425e+002
         vertex 1.464945e+002 8.527747e+002 6.244686e+002
         vertex 1.464945e+002 8.531255e+002 6.252210e+002
      endloop
   endfacet
   facet normal 1.000000e+000 -6.340735e-019 -1.644330e-017
      outer loop
         vertex 1.464945e+002 8.255000e+002 6.829425e+002
         vertex 1.464945e+002 8.531255e+002 6.252210e+002
         vertex 1.464945e+002 8.536017e+002 6.259010e+002
      endloop
   endfacet
   facet normal 1.000000e+000 -6.340735e-019 -1.644330e-017
      outer loop
         vertex 1.464945e+002 9.561483e+002 6.197784e+002
         vertex 1.464945e+002 9.555613e+002 6.191915e+002
         vertex 1.464945e+002 9.779000e+002 6.130925e+002
      endloop
   endfacet
   facet normal 1.000000e+000 -6.340735e-019 -1.644330e-017
      outer loop
         vertex 1.464945e+002 9.779000e+002 6.130925e+002
         vertex 1.464945e+002 9.555613e+002 6.191915e+002
         vertex 1.464945e+002 9.548812e+002 6.187153e+002
      endloop
   endfacet
   facet normal 1.000000e+000 -6.340735e-019 -1.644330e-017
      outer loop
         vertex 1.464945e+002 9.779000e+002 6.130925e+002
         vertex 1.464945e+002 9.548812e+002 6.187153e+002
         vertex 1.464945e+002 9.541288e+002 6.183644e+002
      endloop
   endfacet
   facet normal 1.000000e+000 -6.340735e-019 -1.644330e-017
      outer loop
         vertex 1.464945e+002 9.508712e+002 6.183644e+002
         vertex 1.464945e+002 9.501188e+002 6.187153e+002
         vertex 1.464945e+002 8.255000e+002 6.130925e+002
      endloop
   endfacet
   facet normal 1.000000e+000 -6.340735e-019 -1.644330e-017
      outer loop
         vertex 1.464945e+002 8.255000e+002 6.130925e+002
         vertex 1.464945e+002 9.501188e+002 6.187153e+002
         vertex 1.464945e+002 9.494387e+002 6.191915e+002
      endloop
   endfacet
   facet normal 1.000000e+000 -6.340735e-019 -1.644330e-017
      outer loop
         vertex 1.464945e+002 9.494387e+002 6.191915e+002
         vertex 1.464945e+002 9.488517e+002 6.197784e+002
         vertex 1.464945e+002 8.255000e+002 6.130925e+002
      endloop
   endfacet
   facet normal 1.000000e+000 -6.340735e-019 -1.644330e-017
      outer loop
         vertex 1.464945e+002 8.255000e+002 6.130925e+002
         vertex 1.464945e+002 9.488517e+002 6.197784e+002
         vertex 1.464945e+002 9.483756e+002 6.204585e+002
      endloop
   endfacet
   facet normal 1.000000e+000 -6.340735e-019 -1.644330e-017
      outer loop
         vertex 1.464945e+002 8.255000e+002 6.130925e+002
         vertex 1.464945e+002 9.483756e+002 6.204585e+002
         vertex 1.464945e+002 9.480248e+002 6.212109e+002
      endloop
   endfacet
   facet normal 1.000000e+000 -6.340735e-019 -1.644330e-017
      outer loop
         vertex 1.464945e+002 8.613745e+002 6.204585e+002
         vertex 1.464945e+002 8.608983e+002 6.197784e+002
         vertex 1.464945e+002 9.480248e+002 6.212109e+002
      endloop
   endfacet
   facet normal 1.000000e+000 -6.340735e-019 -1.644330e-017
      outer loop
         vertex 1.464945e+002 9.480248e+002 6.212109e+002
         vertex 1.464945e+002 8.608983e+002 6.197784e+002
         vertex 1.464945e+002 8.603113e+002 6.191915e+002
      endloop
   endfacet
   facet normal 1.000000e+000 -6.340735e-019 -1.644330e-017
      outer loop
         vertex 1.464945e+002 9.480248e+002 6.212109e+002
         vertex 1.464945e+002 8.603113e+002 6.191915e+002
         vertex 1.464945e+002 8.596312e+002 6.187153e+002
      endloop
   endfacet
   facet normal 1.000000e+000 -6.340735e-019 -1.644330e-017
      outer loop
         vertex 1.464945e+002 8.603113e+002 6.264880e+002
         vertex 1.464945e+002 8.608983e+002 6.259010e+002
         vertex 1.464945e+002 9.779000e+002 6.829425e+002
      endloop
   endfacet
   facet normal 1.000000e+000 -6.340735e-019 -1.644330e-017
      outer loop
         vertex 1.464945e+002 9.779000e+002 6.829425e+002
         vertex 1.464945e+002 8.608983e+002 6.259010e+002
         vertex 1.464945e+002 8.613745e+002 6.252210e+002
      endloop
   endfacet
   facet normal 1.000000e+000 -6.340735e-019 -1.644330e-017
      outer loop
         vertex 1.464945e+002 9.779000e+002 6.829425e+002
         vertex 1.464945e+002 8.613745e+002 6.252210e+002
         vertex 1.464945e+002 8.617253e+002 6.244686e+002
      endloop
   endfacet
   facet normal 1.000000e+000 -6.340735e-019 -1.644330e-017
      outer loop
         vertex 1.464945e+002 8.541887e+002 6.191915e+002
         vertex 1.464945e+002 8.536017e+002 6.197784e+002
         vertex 1.464945e+002 8.255000e+002 6.130925e+002
      endloop
   endfacet
   facet normal 1.000000e+000 -6.340735e-019 -1.644330e-017
      outer loop
         vertex 1.464945e+002 8.255000e+002 6.130925e+002
         vertex 1.464945e+002 8.536017e+002 6.197784e+002
         vertex 1.464945e+002 8.531255e+002 6.204585e+002
      endloop
   endfacet
   facet normal 1.000000e+000 -6.340735e-019 -1.644330e-017
      outer loop
         vertex 1.464945e+002 8.255000e+002 6.130925e+002
         vertex 1.464945e+002 8.531255e+002 6.204585e+002
         vertex 1.464945e+002 8.527747e+002 6.212109e+002
      endloop
   endfacet
   facet normal 1.000000e+000 -6.340735e-019 -1.644330e-017
      outer loop
         vertex 1.464945e+002 8.617253e+002 6.212109e+002
         vertex 1.464945e+002 9.480248e+002 6.212109e+002
         vertex 1.464945e+002 8.619401e+002 6.220128e+002
      endloop
   endfacet
   facet normal 1.000000e+000 -6.340735e-019 -1.644330e-017
      outer loop
         vertex 1.464945e+002 8.619401e+002 6.220128e+002
         vertex 1.464945e+002 9.480248e+002 6.212109e+002
         vertex 1.464945e+002 9.478099e+002 6.220128e+002
      endloop
   endfacet
   facet normal 1.000000e+000 -6.340735e-019 -1.644330e-017
      outer loop
         vertex 1.464945e+002 8.619401e+002 6.220128e+002
         vertex 1.464945e+002 9.478099e+002 6.220128e+002
         vertex 1.464945e+002 8.620125e+002 6.228397e+002
      endloop
   endfacet
   facet normal 1.000000e+000 -6.340735e-019 -1.644330e-017
      outer loop
         vertex 1.464945e+002 8.620125e+002 6.228397e+002
         vertex 1.464945e+002 9.478099e+002 6.220128e+002
         vertex 1.464945e+002 9.477375e+002 6.228397e+002
      endloop
   endfacet
   facet normal 1.000000e+000 -6.340735e-019 -1.644330e-017
      outer loop
         vertex 1.464945e+002 8.620125e+002 6.228397e+002
         vertex 1.464945e+002 9.477375e+002 6.228397e+002
         vertex 1.464945e+002 8.619401e+002 6.236667e+002
      endloop
   endfacet
   facet normal 1.000000e+000 -6.340735e-019 -1.644330e-017
      outer loop
         vertex 1.464945e+002 8.619401e+002 6.236667e+002
         vertex 1.464945e+002 9.477375e+002 6.228397e+002
         vertex 1.464945e+002 9.478099e+002 6.236667e+002
      endloop
   endfacet
   facet normal 1.000000e+000 -6.340735e-019 -1.644330e-017
      outer loop
         vertex 1.464945e+002 8.619401e+002 6.236667e+002
         vertex 1.464945e+002 9.478099e+002 6.236667e+002
         vertex 1.464945e+002 8.617253e+002 6.244686e+002
      endloop
   endfacet
   facet normal 1.000000e+000 -6.340735e-019 -1.644330e-017
      outer loop
         vertex 1.464945e+002 8.617253e+002 6.244686e+002
         vertex 1.464945e+002 9.478099e+002 6.236667e+002
         vertex 1.464945e+002 9.480248e+002 6.244686e+002
      endloop
   endfacet
   facet normal 1.000000e+000 -6.340735e-019 -1.644330e-017
      outer loop
         vertex 1.464945e+002 8.617253e+002 6.244686e+002
         vertex 1.464945e+002 9.480248e+002 6.244686e+002
         vertex 1.464945e+002 9.483756e+002 6.252210e+002
      endloop
   endfacet
   facet normal 1.000000e+000 -6.340735e-019 -1.644330e-017
      outer loop
         vertex 1.464945e+002 9.541288e+002 6.183644e+002
         vertex 1.464945e+002 9.533270e+002 6.181497e+002
         vertex 1.464945e+002 9.779000e+002 6.130925e+002
      endloop
   endfacet
   facet normal 1.000000e+000 -6.340735e-019 -1.644330e-017
      outer loop
         vertex 1.464945e+002 9.779000e+002 6.130925e+002
         vertex 1.464945e+002 9.533270e+002 6.181497e+002
         vertex 1.464945e+002 9.525001e+002 6.180773e+002
      endloop
   endfacet
   facet normal 1.000000e+000 -6.340735e-019 -1.644330e-017
      outer loop
         vertex 1.464945e+002 9.779000e+002 6.130925e+002
         vertex 1.464945e+002 9.525001e+002 6.180773e+002
         vertex 1.464945e+002 8.255000e+002 6.130925e+002
      endloop
   endfacet
   facet normal 1.000000e+000 -6.340735e-019 -1.644330e-017
      outer loop
         vertex 1.464945e+002 8.255000e+002 6.130925e+002
         vertex 1.464945e+002 9.525001e+002 6.180773e+002
         vertex 1.464945e+002 9.516730e+002 6.181497e+002
      endloop
   endfacet
   facet normal 1.000000e+000 -6.340735e-019 -1.644330e-017
      outer loop
         vertex 1.464945e+002 8.255000e+002 6.130925e+002
         vertex 1.464945e+002 9.516730e+002 6.181497e+002
         vertex 1.464945e+002 9.508712e+002 6.183644e+002
      endloop
   endfacet
   facet normal 1.000000e+000 -6.340735e-019 -1.644330e-017
      outer loop
         vertex 1.464945e+002 8.541887e+002 6.264880e+002
         vertex 1.464945e+002 8.548688e+002 6.269642e+002
         vertex 1.464945e+002 8.255000e+002 6.829425e+002
      endloop
   endfacet
   facet normal 1.000000e+000 -6.340735e-019 -1.644330e-017
      outer loop
         vertex 1.464945e+002 8.255000e+002 6.829425e+002
         vertex 1.464945e+002 8.548688e+002 6.269642e+002
         vertex 1.464945e+002 8.556212e+002 6.273151e+002
      endloop
   endfacet
   facet normal 1.000000e+000 -6.340735e-019 -1.644330e-017
      outer loop
         vertex 1.464945e+002 8.255000e+002 6.829425e+002
         vertex 1.464945e+002 8.556212e+002 6.273151e+002
         vertex 1.464945e+002 8.564230e+002 6.275298e+002
      endloop
   endfacet
   facet normal 1.000000e+000 -6.340735e-019 -1.644330e-017
      outer loop
         vertex 1.464945e+002 9.483756e+002 6.252210e+002
         vertex 1.464945e+002 9.488517e+002 6.259010e+002
         vertex 1.464945e+002 8.617253e+002 6.244686e+002
      endloop
   endfacet
   facet normal 1.000000e+000 -6.340735e-019 -1.644330e-017
      outer loop
         vertex 1.464945e+002 8.617253e+002 6.244686e+002
         vertex 1.464945e+002 9.488517e+002 6.259010e+002
         vertex 1.464945e+002 9.494387e+002 6.264880e+002
      endloop
   endfacet
   facet normal 1.000000e+000 -6.340735e-019 -1.644330e-017
      outer loop
         vertex 1.464945e+002 8.617253e+002 6.244686e+002
         vertex 1.464945e+002 9.494387e+002 6.264880e+002
         vertex 1.464945e+002 9.779000e+002 6.829425e+002
      endloop
   endfacet
   facet normal 1.000000e+000 -6.340735e-019 -1.644330e-017
      outer loop
         vertex 1.464945e+002 9.779000e+002 6.829425e+002
         vertex 1.464945e+002 9.494387e+002 6.264880e+002
         vertex 1.464945e+002 9.501188e+002 6.269642e+002
      endloop
   endfacet
   facet normal 1.000000e+000 -6.340735e-019 -1.644330e-017
      outer loop
         vertex 1.464945e+002 9.779000e+002 6.829425e+002
         vertex 1.464945e+002 9.501188e+002 6.269642e+002
         vertex 1.464945e+002 9.508712e+002 6.273151e+002
      endloop
   endfacet
   facet normal 1.000000e+000 -6.340735e-019 -1.644330e-017
      outer loop
         vertex 1.464945e+002 9.508712e+002 6.273151e+002
         vertex 1.464945e+002 9.516730e+002 6.275298e+002
         vertex 1.464945e+002 9.779000e+002 6.829425e+002
      endloop
   endfacet
   facet normal 1.000000e+000 -6.340735e-019 -1.644330e-017
      outer loop
         vertex 1.464945e+002 9.779000e+002 6.829425e+002
         vertex 1.464945e+002 9.516730e+002 6.275298e+002
         vertex 1.464945e+002 9.525001e+002 6.276022e+002
      endloop
   endfacet
   facet normal 1.000000e+000 -6.340735e-019 -1.644330e-017
      outer loop
         vertex 1.464945e+002 9.779000e+002 6.829425e+002
         vertex 1.464945e+002 9.525001e+002 6.276022e+002
         vertex 1.464945e+002 9.533270e+002 6.275298e+002
      endloop
   endfacet
   facet normal 1.000000e+000 -6.340735e-019 -1.644330e-017
      outer loop
         vertex 1.464945e+002 9.533270e+002 6.275298e+002
         vertex 1.464945e+002 9.541288e+002 6.273151e+002
         vertex 1.464945e+002 9.779000e+002 6.829425e+002
      endloop
   endfacet
   facet normal 1.000000e+000 -6.340735e-019 -1.644330e-017
      outer loop
         vertex 1.464945e+002 9.779000e+002 6.829425e+002
         vertex 1.464945e+002 9.541288e+002 6.273151e+002
         vertex 1.464945e+002 9.548812e+002 6.269642e+002
      endloop
   endfacet
   facet normal 1.000000e+000 -6.340735e-019 -1.644330e-017
      outer loop
         vertex 1.464945e+002 9.779000e+002 6.829425e+002
         vertex 1.464945e+002 9.548812e+002 6.269642e+002
         vertex 1.464945e+002 9.555613e+002 6.264880e+002
      endloop
   endfacet
   facet normal 1.000000e+000 -6.340735e-019 -1.644330e-017
      outer loop
         vertex 1.464945e+002 9.555613e+002 6.264880e+002
         vertex 1.464945e+002 9.561483e+002 6.259010e+002
         vertex 1.464945e+002 9.779000e+002 6.829425e+002
      endloop
   endfacet
   facet normal 1.000000e+000 -6.340735e-019 -1.644330e-017
      outer loop
         vertex 1.464945e+002 9.779000e+002 6.829425e+002
         vertex 1.464945e+002 9.561483e+002 6.259010e+002
         vertex 1.464945e+002 9.566245e+002 6.252210e+002
      endloop
   endfacet
   facet normal 1.000000e+000 -6.340735e-019 -1.644330e-017
      outer loop
         vertex 1.464945e+002 9.779000e+002 6.829425e+002
         vertex 1.464945e+002 9.566245e+002 6.252210e+002
         vertex 1.464945e+002 9.779000e+002 6.130925e+002
      endloop
   endfacet
   facet normal 1.000000e+000 -6.340735e-019 -1.644330e-017
      outer loop
         vertex 1.464945e+002 9.779000e+002 6.130925e+002
         vertex 1.464945e+002 9.566245e+002 6.252210e+002
         vertex 1.464945e+002 9.569753e+002 6.244686e+002
      endloop
   endfacet
   facet normal 1.000000e+000 -6.340735e-019 -1.644330e-017
      outer loop
         vertex 1.464945e+002 9.779000e+002 6.130925e+002
         vertex 1.464945e+002 9.569753e+002 6.244686e+002
         vertex 1.464945e+002 9.571902e+002 6.236667e+002
      endloop
   endfacet
   facet normal 1.000000e+000 -6.340735e-019 -1.644330e-017
      outer loop
         vertex 1.464945e+002 8.564230e+002 6.181497e+002
         vertex 1.464945e+002 8.556212e+002 6.183644e+002
         vertex 1.464945e+002 8.255000e+002 6.130925e+002
      endloop
   endfacet
   facet normal 1.000000e+000 -6.340735e-019 -1.644330e-017
      outer loop
         vertex 1.464945e+002 8.255000e+002 6.130925e+002
         vertex 1.464945e+002 8.556212e+002 6.183644e+002
         vertex 1.464945e+002 8.548688e+002 6.187153e+002
      endloop
   endfacet
   facet normal 1.000000e+000 -6.340735e-019 -1.644330e-017
      outer loop
         vertex 1.464945e+002 8.255000e+002 6.130925e+002
         vertex 1.464945e+002 8.548688e+002 6.187153e+002
         vertex 1.464945e+002 8.541887e+002 6.191915e+002
      endloop
   endfacet
   facet normal 1.000000e+000 -6.340735e-019 -1.644330e-017
      outer loop
         vertex 1.464945e+002 8.564230e+002 6.275298e+002
         vertex 1.464945e+002 8.572501e+002 6.276022e+002
         vertex 1.464945e+002 8.255000e+002 6.829425e+002
      endloop
   endfacet
   facet normal 1.000000e+000 -6.340735e-019 -1.644330e-017
      outer loop
         vertex 1.464945e+002 8.255000e+002 6.829425e+002
         vertex 1.464945e+002 8.572501e+002 6.276022e+002
         vertex 1.464945e+002 8.580770e+002 6.275298e+002
      endloop
   endfacet
   facet normal 1.000000e+000 -6.340735e-019 -1.644330e-017
      outer loop
         vertex 1.464945e+002 8.255000e+002 6.829425e+002
         vertex 1.464945e+002 8.580770e+002 6.275298e+002
         vertex 1.464945e+002 9.779000e+002 6.829425e+002
      endloop
   endfacet
   facet normal 1.000000e+000 -6.340735e-019 -1.644330e-017
      outer loop
         vertex 1.464945e+002 9.779000e+002 6.829425e+002
         vertex 1.464945e+002 8.580770e+002 6.275298e+002
         vertex 1.464945e+002 8.588789e+002 6.273151e+002
      endloop
   endfacet
   facet normal 1.000000e+000 -6.340735e-019 -1.644330e-017
      outer loop
         vertex 1.464945e+002 9.779000e+002 6.829425e+002
         vertex 1.464945e+002 8.588789e+002 6.273151e+002
         vertex 1.464945e+002 8.596312e+002 6.269642e+002
      endloop
   endfacet
   facet normal 1.000000e+000 -6.340735e-019 -1.644330e-017
      outer loop
         vertex 1.464945e+002 8.596312e+002 6.187153e+002
         vertex 1.464945e+002 8.588789e+002 6.183644e+002
         vertex 1.464945e+002 9.480248e+002 6.212109e+002
      endloop
   endfacet
   facet normal 1.000000e+000 -6.340735e-019 -1.644330e-017
      outer loop
         vertex 1.464945e+002 9.480248e+002 6.212109e+002
         vertex 1.464945e+002 8.588789e+002 6.183644e+002
         vertex 1.464945e+002 8.580770e+002 6.181497e+002
      endloop
   endfacet
   facet normal 1.000000e+000 -6.340735e-019 -1.644330e-017
      outer loop
         vertex 1.464945e+002 9.480248e+002 6.212109e+002
         vertex 1.464945e+002 8.580770e+002 6.181497e+002
         vertex 1.464945e+002 8.255000e+002 6.130925e+002
      endloop
   endfacet
   facet normal 1.000000e+000 -6.340735e-019 -1.644330e-017
      outer loop
         vertex 1.464945e+002 8.255000e+002 6.130925e+002
         vertex 1.464945e+002 8.580770e+002 6.181497e+002
         vertex 1.464945e+002 8.572501e+002 6.180773e+002
      endloop
   endfacet
   facet normal 1.000000e+000 -6.340735e-019 -1.644330e-017
      outer loop
         vertex 1.464945e+002 8.255000e+002 6.130925e+002
         vertex 1.464945e+002 8.572501e+002 6.180773e+002
         vertex 1.464945e+002 8.564230e+002 6.181497e+002
      endloop
   endfacet
   facet normal -1.000000e+000 6.340735e-019 1.644330e-017
      outer loop
         vertex 1.401445e+002 8.525599e+002 6.236667e+002
         vertex 1.401445e+002 8.524875e+002 6.228397e+002
         vertex 1.401445e+002 8.255000e+002 6.130925e+002
      endloop
   endfacet
   facet normal -1.000000e+000 6.340735e-019 1.644330e-017
      outer loop
         vertex 1.401445e+002 8.524875e+002 6.228397e+002
         vertex 1.401445e+002 8.525599e+002 6.220128e+002
         vertex 1.401445e+002 8.255000e+002 6.130925e+002
      endloop
   endfacet
   facet normal -1.000000e+000 6.340735e-019 1.644330e-017
      outer loop
         vertex 1.401445e+002 8.255000e+002 6.130925e+002
         vertex 1.401445e+002 8.525599e+002 6.220128e+002
         vertex 1.401445e+002 8.527747e+002 6.212109e+002
      endloop
   endfacet
   facet normal -1.000000e+000 6.340735e-019 1.644330e-017
      outer loop
         vertex 1.401445e+002 8.255000e+002 6.130925e+002
         vertex 1.401445e+002 8.527747e+002 6.212109e+002
         vertex 1.401445e+002 8.531255e+002 6.204585e+002
      endloop
   endfacet
   facet normal -1.000000e+000 6.340735e-019 1.644330e-017
      outer loop
         vertex 1.401445e+002 8.617253e+002 6.244686e+002
         vertex 1.401445e+002 8.613745e+002 6.252210e+002
         vertex 1.401445e+002 9.779000e+002 6.829425e+002
      endloop
   endfacet
   facet normal -1.000000e+000 6.340735e-019 1.644330e-017
      outer loop
         vertex 1.401445e+002 9.779000e+002 6.829425e+002
         vertex 1.401445e+002 8.613745e+002 6.252210e+002
         vertex 1.401445e+002 8.608983e+002 6.259010e+002
      endloop
   endfacet
   facet normal -1.000000e+000 6.340735e-019 1.644330e-017
      outer loop
         vertex 1.401445e+002 8.531255e+002 6.204585e+002
         vertex 1.401445e+002 8.536017e+002 6.197784e+002
         vertex 1.401445e+002 8.255000e+002 6.130925e+002
      endloop
   endfacet
   facet normal -1.000000e+000 6.340735e-019 1.644330e-017
      outer loop
         vertex 1.401445e+002 8.255000e+002 6.130925e+002
         vertex 1.401445e+002 8.536017e+002 6.197784e+002
         vertex 1.401445e+002 8.541887e+002 6.191915e+002
      endloop
   endfacet
   facet normal -1.000000e+000 6.340735e-019 1.644330e-017
      outer loop
         vertex 1.401445e+002 8.255000e+002 6.130925e+002
         vertex 1.401445e+002 8.541887e+002 6.191915e+002
         vertex 1.401445e+002 8.548688e+002 6.187153e+002
      endloop
   endfacet
   facet normal -1.000000e+000 6.340735e-019 1.644330e-017
      outer loop
         vertex 1.401445e+002 9.571902e+002 6.220128e+002
         vertex 1.401445e+002 9.572625e+002 6.228397e+002
         vertex 1.401445e+002 9.779000e+002 6.130925e+002
      endloop
   endfacet
   facet normal -1.000000e+000 6.340735e-019 1.644330e-017
      outer loop
         vertex 1.401445e+002 8.541887e+002 6.264880e+002
         vertex 1.401445e+002 8.536017e+002 6.259010e+002
         vertex 1.401445e+002 8.255000e+002 6.829425e+002
      endloop
   endfacet
   facet normal -1.000000e+000 6.340735e-019 1.644330e-017
      outer loop
         vertex 1.401445e+002 8.255000e+002 6.829425e+002
         vertex 1.401445e+002 8.536017e+002 6.259010e+002
         vertex 1.401445e+002 8.531255e+002 6.252210e+002
      endloop
   endfacet
   facet normal -1.000000e+000 6.340735e-019 1.644330e-017
      outer loop
         vertex 1.401445e+002 8.255000e+002 6.829425e+002
         vertex 1.401445e+002 8.531255e+002 6.252210e+002
         vertex 1.401445e+002 8.255000e+002 6.130925e+002
      endloop
   endfacet
   facet normal -1.000000e+000 6.340735e-019 1.644330e-017
      outer loop
         vertex 1.401445e+002 8.255000e+002 6.130925e+002
         vertex 1.401445e+002 8.531255e+002 6.252210e+002
         vertex 1.401445e+002 8.527747e+002 6.244686e+002
      endloop
   endfacet
   facet normal -1.000000e+000 6.340735e-019 1.644330e-017
      outer loop
         vertex 1.401445e+002 8.255000e+002 6.130925e+002
         vertex 1.401445e+002 8.527747e+002 6.244686e+002
         vertex 1.401445e+002 8.525599e+002 6.236667e+002
      endloop
   endfacet
   facet normal -1.000000e+000 6.340735e-019 1.644330e-017
      outer loop
         vertex 1.401445e+002 9.488517e+002 6.197784e+002
         vertex 1.401445e+002 8.255000e+002 6.130925e+002
         vertex 1.401445e+002 9.483756e+002 6.204585e+002
      endloop
   endfacet
   facet normal -1.000000e+000 6.340735e-019 1.644330e-017
      outer loop
         vertex 1.401445e+002 9.483756e+002 6.204585e+002
         vertex 1.401445e+002 8.255000e+002 6.130925e+002
         vertex 1.401445e+002 9.480248e+002 6.212109e+002
      endloop
   endfacet
   facet normal -1.000000e+000 6.340735e-019 1.644330e-017
      outer loop
         vertex 1.401445e+002 8.548688e+002 6.187153e+002
         vertex 1.401445e+002 8.556212e+002 6.183644e+002
         vertex 1.401445e+002 8.255000e+002 6.130925e+002
      endloop
   endfacet
   facet normal -1.000000e+000 6.340735e-019 1.644330e-017
      outer loop
         vertex 1.401445e+002 8.255000e+002 6.130925e+002
         vertex 1.401445e+002 8.556212e+002 6.183644e+002
         vertex 1.401445e+002 8.564230e+002 6.181497e+002
      endloop
   endfacet
   facet normal -1.000000e+000 6.340735e-019 1.644330e-017
      outer loop
         vertex 1.401445e+002 8.255000e+002 6.130925e+002
         vertex 1.401445e+002 8.564230e+002 6.181497e+002
         vertex 1.401445e+002 8.572501e+002 6.180773e+002
      endloop
   endfacet
   facet normal -1.000000e+000 6.340735e-019 1.644330e-017
      outer loop
         vertex 1.401445e+002 9.488517e+002 6.197784e+002
         vertex 1.401445e+002 9.494387e+002 6.191915e+002
         vertex 1.401445e+002 8.255000e+002 6.130925e+002
      endloop
   endfacet
   facet normal -1.000000e+000 6.340735e-019 1.644330e-017
      outer loop
         vertex 1.401445e+002 8.255000e+002 6.130925e+002
         vertex 1.401445e+002 9.494387e+002 6.191915e+002
         vertex 1.401445e+002 9.501188e+002 6.187153e+002
      endloop
   endfacet
   facet normal -1.000000e+000 6.340735e-019 1.644330e-017
      outer loop
         vertex 1.401445e+002 8.255000e+002 6.130925e+002
         vertex 1.401445e+002 9.501188e+002 6.187153e+002
         vertex 1.401445e+002 9.508712e+002 6.183644e+002
      endloop
   endfacet
   facet normal -1.000000e+000 6.340735e-019 1.644330e-017
      outer loop
         vertex 1.401445e+002 9.541288e+002 6.183644e+002
         vertex 1.401445e+002 9.548812e+002 6.187153e+002
         vertex 1.401445e+002 9.779000e+002 6.130925e+002
      endloop
   endfacet
   facet normal -1.000000e+000 6.340735e-019 1.644330e-017
      outer loop
         vertex 1.401445e+002 9.779000e+002 6.130925e+002
         vertex 1.401445e+002 9.548812e+002 6.187153e+002
         vertex 1.401445e+002 9.555613e+002 6.191915e+002
      endloop
   endfacet
   facet normal -1.000000e+000 6.340735e-019 1.644330e-017
      outer loop
         vertex 1.401445e+002 9.779000e+002 6.130925e+002
         vertex 1.401445e+002 9.555613e+002 6.191915e+002
         vertex 1.401445e+002 9.561483e+002 6.197784e+002
      endloop
   endfacet
   facet normal -1.000000e+000 6.340735e-019 1.644330e-017
      outer loop
         vertex 1.401445e+002 9.561483e+002 6.197784e+002
         vertex 1.401445e+002 9.566245e+002 6.204585e+002
         vertex 1.401445e+002 9.779000e+002 6.130925e+002
      endloop
   endfacet
   facet normal -1.000000e+000 6.340735e-019 1.644330e-017
      outer loop
         vertex 1.401445e+002 9.779000e+002 6.130925e+002
         vertex 1.401445e+002 9.566245e+002 6.204585e+002
         vertex 1.401445e+002 9.569753e+002 6.212109e+002
      endloop
   endfacet
   facet normal -1.000000e+000 6.340735e-019 1.644330e-017
      outer loop
         vertex 1.401445e+002 9.779000e+002 6.130925e+002
         vertex 1.401445e+002 9.569753e+002 6.212109e+002
         vertex 1.401445e+002 9.571902e+002 6.220128e+002
      endloop
   endfacet
   facet normal -1.000000e+000 6.340735e-019 1.644330e-017
      outer loop
         vertex 1.401445e+002 8.596312e+002 6.187153e+002
         vertex 1.401445e+002 8.603113e+002 6.191915e+002
         vertex 1.401445e+002 9.477375e+002 6.228397e+002
      endloop
   endfacet
   facet normal -1.000000e+000 6.340735e-019 1.644330e-017
      outer loop
         vertex 1.401445e+002 8.608983e+002 6.259010e+002
         vertex 1.401445e+002 8.603113e+002 6.264880e+002
         vertex 1.401445e+002 9.779000e+002 6.829425e+002
      endloop
   endfacet
   facet normal -1.000000e+000 6.340735e-019 1.644330e-017
      outer loop
         vertex 1.401445e+002 9.779000e+002 6.829425e+002
         vertex 1.401445e+002 8.603113e+002 6.264880e+002
         vertex 1.401445e+002 8.596312e+002 6.269642e+002
      endloop
   endfacet
   facet normal -1.000000e+000 6.340735e-019 1.644330e-017
      outer loop
         vertex 1.401445e+002 9.779000e+002 6.829425e+002
         vertex 1.401445e+002 8.596312e+002 6.269642e+002
         vertex 1.401445e+002 8.255000e+002 6.829425e+002
      endloop
   endfacet
   facet normal -1.000000e+000 6.340735e-019 1.644330e-017
      outer loop
         vertex 1.401445e+002 8.255000e+002 6.829425e+002
         vertex 1.401445e+002 8.596312e+002 6.269642e+002
         vertex 1.401445e+002 8.588789e+002 6.273151e+002
      endloop
   endfacet
   facet normal -1.000000e+000 6.340735e-019 1.644330e-017
      outer loop
         vertex 1.401445e+002 8.588789e+002 6.273151e+002
         vertex 1.401445e+002 8.580770e+002 6.275298e+002
         vertex 1.401445e+002 8.255000e+002 6.829425e+002
      endloop
   endfacet
   facet normal -1.000000e+000 6.340735e-019 1.644330e-017
      outer loop
         vertex 1.401445e+002 8.255000e+002 6.829425e+002
         vertex 1.401445e+002 8.580770e+002 6.275298e+002
         vertex 1.401445e+002 8.572501e+002 6.276022e+002
      endloop
   endfacet
   facet normal -1.000000e+000 6.340735e-019 1.644330e-017
      outer loop
         vertex 1.401445e+002 8.255000e+002 6.829425e+002
         vertex 1.401445e+002 8.572501e+002 6.276022e+002
         vertex 1.401445e+002 8.564230e+002 6.275298e+002
      endloop
   endfacet
   facet normal -1.000000e+000 6.340735e-019 1.644330e-017
      outer loop
         vertex 1.401445e+002 8.564230e+002 6.275298e+002
         vertex 1.401445e+002 8.556212e+002 6.273151e+002
         vertex 1.401445e+002 8.255000e+002 6.829425e+002
      endloop
   endfacet
   facet normal -1.000000e+000 6.340735e-019 1.644330e-017
      outer loop
         vertex 1.401445e+002 8.255000e+002 6.829425e+002
         vertex 1.401445e+002 8.556212e+002 6.273151e+002
         vertex 1.401445e+002 8.548688e+002 6.269642e+002
      endloop
   endfacet
   facet normal -1.000000e+000 6.340735e-019 1.644330e-017
      outer loop
         vertex 1.401445e+002 8.255000e+002 6.829425e+002
         vertex 1.401445e+002 8.548688e+002 6.269642e+002
         vertex 1.401445e+002 8.541887e+002 6.264880e+002
      endloop
   endfacet
   facet normal -1.000000e+000 6.340735e-019 1.644330e-017
      outer loop
         vertex 1.401445e+002 9.508712e+002 6.183644e+002
         vertex 1.401445e+002 9.516730e+002 6.181497e+002
         vertex 1.401445e+002 8.255000e+002 6.130925e+002
      endloop
   endfacet
   facet normal -1.000000e+000 6.340735e-019 1.644330e-017
      outer loop
         vertex 1.401445e+002 8.255000e+002 6.130925e+002
         vertex 1.401445e+002 9.516730e+002 6.181497e+002
         vertex 1.401445e+002 9.525001e+002 6.180773e+002
      endloop
   endfacet
   facet normal -1.000000e+000 6.340735e-019 1.644330e-017
      outer loop
         vertex 1.401445e+002 8.255000e+002 6.130925e+002
         vertex 1.401445e+002 9.525001e+002 6.180773e+002
         vertex 1.401445e+002 9.779000e+002 6.130925e+002
      endloop
   endfacet
   facet normal -1.000000e+000 6.340735e-019 1.644330e-017
      outer loop
         vertex 1.401445e+002 9.779000e+002 6.130925e+002
         vertex 1.401445e+002 9.525001e+002 6.180773e+002
         vertex 1.401445e+002 9.533270e+002 6.181497e+002
      endloop
   endfacet
   facet normal -1.000000e+000 6.340735e-019 1.644330e-017
      outer loop
         vertex 1.401445e+002 9.779000e+002 6.130925e+002
         vertex 1.401445e+002 9.533270e+002 6.181497e+002
         vertex 1.401445e+002 9.541288e+002 6.183644e+002
      endloop
   endfacet
   facet normal -1.000000e+000 6.340735e-019 1.644330e-017
      outer loop
         vertex 1.401445e+002 9.572625e+002 6.228397e+002
         vertex 1.401445e+002 9.571902e+002 6.236667e+002
         vertex 1.401445e+002 9.779000e+002 6.130925e+002
      endloop
   endfacet
   facet normal -1.000000e+000 6.340735e-019 1.644330e-017
      outer loop
         vertex 1.401445e+002 9.779000e+002 6.130925e+002
         vertex 1.401445e+002 9.571902e+002 6.236667e+002
         vertex 1.401445e+002 9.569753e+002 6.244686e+002
      endloop
   endfacet
   facet normal -1.000000e+000 6.340735e-019 1.644330e-017
      outer loop
         vertex 1.401445e+002 9.779000e+002 6.130925e+002
         vertex 1.401445e+002 9.569753e+002 6.244686e+002
         vertex 1.401445e+002 9.779000e+002 6.829425e+002
      endloop
   endfacet
   facet normal -1.000000e+000 6.340735e-019 1.644330e-017
      outer loop
         vertex 1.401445e+002 9.779000e+002 6.829425e+002
         vertex 1.401445e+002 9.569753e+002 6.244686e+002
         vertex 1.401445e+002 9.566245e+002 6.252210e+002
      endloop
   endfacet
   facet normal -1.000000e+000 6.340735e-019 1.644330e-017
      outer loop
         vertex 1.401445e+002 9.779000e+002 6.829425e+002
         vertex 1.401445e+002 9.566245e+002 6.252210e+002
         vertex 1.401445e+002 9.561483e+002 6.259010e+002
      endloop
   endfacet
   facet normal -1.000000e+000 6.340735e-019 1.644330e-017
      outer loop
         vertex 1.401445e+002 9.561483e+002 6.259010e+002
         vertex 1.401445e+002 9.555613e+002 6.264880e+002
         vertex 1.401445e+002 9.779000e+002 6.829425e+002
      endloop
   endfacet
   facet normal -1.000000e+000 6.340735e-019 1.644330e-017
      outer loop
         vertex 1.401445e+002 9.779000e+002 6.829425e+002
         vertex 1.401445e+002 9.555613e+002 6.264880e+002
         vertex 1.401445e+002 9.548812e+002 6.269642e+002
      endloop
   endfacet
   facet normal -1.000000e+000 6.340735e-019 1.644330e-017
      outer loop
         vertex 1.401445e+002 9.779000e+002 6.829425e+002
         vertex 1.401445e+002 9.548812e+002 6.269642e+002
         vertex 1.401445e+002 9.541288e+002 6.273151e+002
      endloop
   endfacet
   facet normal -1.000000e+000 6.340735e-019 1.644330e-017
      outer loop
         vertex 1.401445e+002 9.488517e+002 6.259010e+002
         vertex 1.401445e+002 9.483756e+002 6.252210e+002
         vertex 1.401445e+002 8.617253e+002 6.244686e+002
      endloop
   endfacet
   facet normal -1.000000e+000 6.340735e-019 1.644330e-017
      outer loop
         vertex 1.401445e+002 8.617253e+002 6.244686e+002
         vertex 1.401445e+002 9.483756e+002 6.252210e+002
         vertex 1.401445e+002 9.480248e+002 6.244686e+002
      endloop
   endfacet
   facet normal -1.000000e+000 6.340735e-019 1.644330e-017
      outer loop
         vertex 1.401445e+002 8.617253e+002 6.244686e+002
         vertex 1.401445e+002 9.480248e+002 6.244686e+002
         vertex 1.401445e+002 9.478099e+002 6.236667e+002
      endloop
   endfacet
   facet normal -1.000000e+000 6.340735e-019 1.644330e-017
      outer loop
         vertex 1.401445e+002 8.596312e+002 6.187153e+002
         vertex 1.401445e+002 9.477375e+002 6.228397e+002
         vertex 1.401445e+002 8.588789e+002 6.183644e+002
      endloop
   endfacet
   facet normal -1.000000e+000 6.340735e-019 1.644330e-017
      outer loop
         vertex 1.401445e+002 8.603113e+002 6.191915e+002
         vertex 1.401445e+002 8.608983e+002 6.197784e+002
         vertex 1.401445e+002 9.477375e+002 6.228397e+002
      endloop
   endfacet
   facet normal -1.000000e+000 6.340735e-019 1.644330e-017
      outer loop
         vertex 1.401445e+002 9.477375e+002 6.228397e+002
         vertex 1.401445e+002 8.608983e+002 6.197784e+002
         vertex 1.401445e+002 8.613745e+002 6.204585e+002
      endloop
   endfacet
   facet normal -1.000000e+000 6.340735e-019 1.644330e-017
      outer loop
         vertex 1.401445e+002 9.477375e+002 6.228397e+002
         vertex 1.401445e+002 8.613745e+002 6.204585e+002
         vertex 1.401445e+002 8.617253e+002 6.212109e+002
      endloop
   endfacet
   facet normal -1.000000e+000 6.340735e-019 1.644330e-017
      outer loop
         vertex 1.401445e+002 9.541288e+002 6.273151e+002
         vertex 1.401445e+002 9.533270e+002 6.275298e+002
         vertex 1.401445e+002 9.779000e+002 6.829425e+002
      endloop
   endfacet
   facet normal -1.000000e+000 6.340735e-019 1.644330e-017
      outer loop
         vertex 1.401445e+002 9.779000e+002 6.829425e+002
         vertex 1.401445e+002 9.533270e+002 6.275298e+002
         vertex 1.401445e+002 9.525001e+002 6.276022e+002
      endloop
   endfacet
   facet normal -1.000000e+000 6.340735e-019 1.644330e-017
      outer loop
         vertex 1.401445e+002 9.779000e+002 6.829425e+002
         vertex 1.401445e+002 9.525001e+002 6.276022e+002
         vertex 1.401445e+002 9.516730e+002 6.275298e+002
      endloop
   endfacet
   facet normal -1.000000e+000 6.340735e-019 1.644330e-017
      outer loop
         vertex 1.401445e+002 9.516730e+002 6.275298e+002
         vertex 1.401445e+002 9.508712e+002 6.273151e+002
         vertex 1.401445e+002 9.779000e+002 6.829425e+002
      endloop
   endfacet
   facet normal -1.000000e+000 6.340735e-019 1.644330e-017
      outer loop
         vertex 1.401445e+002 9.779000e+002 6.829425e+002
         vertex 1.401445e+002 9.508712e+002 6.273151e+002
         vertex 1.401445e+002 9.501188e+002 6.269642e+002
      endloop
   endfacet
   facet normal -1.000000e+000 6.340735e-019 1.644330e-017
      outer loop
         vertex 1.401445e+002 9.779000e+002 6.829425e+002
         vertex 1.401445e+002 9.501188e+002 6.269642e+002
         vertex 1.401445e+002 8.617253e+002 6.244686e+002
      endloop
   endfacet
   facet normal -1.000000e+000 6.340735e-019 1.644330e-017
      outer loop
         vertex 1.401445e+002 8.617253e+002 6.244686e+002
         vertex 1.401445e+002 9.501188e+002 6.269642e+002
         vertex 1.401445e+002 9.494387e+002 6.264880e+002
      endloop
   endfacet
   facet normal -1.000000e+000 6.340735e-019 1.644330e-017
      outer loop
         vertex 1.401445e+002 8.617253e+002 6.244686e+002
         vertex 1.401445e+002 9.494387e+002 6.264880e+002
         vertex 1.401445e+002 9.488517e+002 6.259010e+002
      endloop
   endfacet
   facet normal -1.000000e+000 6.340735e-019 1.644330e-017
      outer loop
         vertex 1.401445e+002 9.480248e+002 6.212109e+002
         vertex 1.401445e+002 8.255000e+002 6.130925e+002
         vertex 1.401445e+002 9.478099e+002 6.220128e+002
      endloop
   endfacet
   facet normal -1.000000e+000 6.340735e-019 1.644330e-017
      outer loop
         vertex 1.401445e+002 9.478099e+002 6.220128e+002
         vertex 1.401445e+002 8.255000e+002 6.130925e+002
         vertex 1.401445e+002 8.572501e+002 6.180773e+002
      endloop
   endfacet
   facet normal -1.000000e+000 6.340735e-019 1.644330e-017
      outer loop
         vertex 1.401445e+002 9.478099e+002 6.220128e+002
         vertex 1.401445e+002 8.572501e+002 6.180773e+002
         vertex 1.401445e+002 9.477375e+002 6.228397e+002
      endloop
   endfacet
   facet normal -1.000000e+000 6.340735e-019 1.644330e-017
      outer loop
         vertex 1.401445e+002 9.477375e+002 6.228397e+002
         vertex 1.401445e+002 8.572501e+002 6.180773e+002
         vertex 1.401445e+002 8.580770e+002 6.181497e+002
      endloop
   endfacet
   facet normal -1.000000e+000 6.340735e-019 1.644330e-017
      outer loop
         vertex 1.401445e+002 9.477375e+002 6.228397e+002
         vertex 1.401445e+002 8.580770e+002 6.181497e+002
         vertex 1.401445e+002 8.588789e+002 6.183644e+002
      endloop
   endfacet
   facet normal -1.000000e+000 6.340735e-019 1.644330e-017
      outer loop
         vertex 1.401445e+002 8.617253e+002 6.212109e+002
         vertex 1.401445e+002 8.619401e+002 6.220128e+002
         vertex 1.401445e+002 9.477375e+002 6.228397e+002
      endloop
   endfacet
   facet normal -1.000000e+000 6.340735e-019 1.644330e-017
      outer loop
         vertex 1.401445e+002 9.477375e+002 6.228397e+002
         vertex 1.401445e+002 8.619401e+002 6.220128e+002
         vertex 1.401445e+002 8.620125e+002 6.228397e+002
      endloop
   endfacet
   facet normal -1.000000e+000 6.340735e-019 1.644330e-017
      outer loop
         vertex 1.401445e+002 9.477375e+002 6.228397e+002
         vertex 1.401445e+002 8.620125e+002 6.228397e+002
         vertex 1.401445e+002 9.478099e+002 6.236667e+002
      endloop
   endfacet
   facet normal -1.000000e+000 6.340735e-019 1.644330e-017
      outer loop
         vertex 1.401445e+002 9.478099e+002 6.236667e+002
         vertex 1.401445e+002 8.620125e+002 6.228397e+002
         vertex 1.401445e+002 8.619401e+002 6.236667e+002
      endloop
   endfacet
   facet normal -1.000000e+000 6.340735e-019 1.644330e-017
      outer loop
         vertex 1.401445e+002 9.478099e+002 6.236667e+002
         vertex 1.401445e+002 8.619401e+002 6.236667e+002
         vertex 1.401445e+002 8.617253e+002 6.244686e+002
      endloop
   endfacet
   facet normal 3.220096e-019 -9.983120e-001 5.807914e-002
      outer loop
         vertex 1.401445e+002 9.571902e+002 6.220128e+002
         vertex 1.464945e+002 9.572625e+002 6.228397e+002
         vertex 1.401445e+002 9.572625e+002 6.228397e+002
      endloop
   endfacet
   facet normal -1.588016e-018 -9.983120e-001 -5.807914e-002
      outer loop
         vertex 1.401445e+002 9.572625e+002 6.228397e+002
         vertex 1.464945e+002 9.572625e+002 6.228397e+002
         vertex 1.464945e+002 9.571902e+002 6.236667e+002
      endloop
   endfacet
   facet normal -2.539807e-018 -9.932307e-001 -1.161583e-001
      outer loop
         vertex 1.401445e+002 9.572625e+002 6.228397e+002
         vertex 1.464945e+002 9.571902e+002 6.236667e+002
         vertex 1.401445e+002 9.571902e+002 6.236667e+002
      endloop
   endfacet
   facet normal -4.408026e-018 -9.730600e-001 -2.305519e-001
      outer loop
         vertex 1.401445e+002 9.571902e+002 6.236667e+002
         vertex 1.464945e+002 9.571902e+002 6.236667e+002
         vertex 1.464945e+002 9.569753e+002 6.244686e+002
      endloop
   endfacet
   facet normal -5.324453e-018 -9.579706e-001 -2.868663e-001
      outer loop
         vertex 1.401445e+002 9.571902e+002 6.236667e+002
         vertex 1.464945e+002 9.569753e+002 6.244686e+002
         vertex 1.401445e+002 9.569753e+002 6.244686e+002
      endloop
   endfacet
   facet normal -7.094099e-018 -9.182422e-001 -3.960194e-001
      outer loop
         vertex 1.401445e+002 9.569753e+002 6.244686e+002
         vertex 1.464945e+002 9.569753e+002 6.244686e+002
         vertex 1.464945e+002 9.566245e+002 6.252210e+002
      endloop
   endfacet
   facet normal -7.947318e-018 -8.936031e-001 -4.488580e-001
      outer loop
         vertex 1.401445e+002 9.569753e+002 6.244686e+002
         vertex 1.464945e+002 9.566245e+002 6.252210e+002
         vertex 1.401445e+002 9.566245e+002 6.252210e+002
      endloop
   endfacet
   facet normal -9.564622e-018 -8.355240e-001 -5.494540e-001
      outer loop
         vertex 1.401445e+002 9.566245e+002 6.252210e+002
         vertex 1.464945e+002 9.566245e+002 6.252210e+002
         vertex 1.464945e+002 9.561483e+002 6.259010e+002
      endloop
   endfacet
   facet normal -1.032871e-017 -8.020839e-001 -5.972114e-001
      outer loop
         vertex 1.401445e+002 9.566245e+002 6.252210e+002
         vertex 1.464945e+002 9.561483e+002 6.259010e+002
         vertex 1.401445e+002 9.561483e+002 6.259010e+002
      endloop
   endfacet
   facet normal -1.174453e-017 -7.274188e-001 -6.861938e-001
      outer loop
         vertex 1.401445e+002 9.561483e+002 6.259010e+002
         vertex 1.464945e+002 9.561483e+002 6.259010e+002
         vertex 1.464945e+002 9.555613e+002 6.264880e+002
      endloop
   endfacet
   facet normal -1.239626e-017 -6.861938e-001 -7.274188e-001
      outer loop
         vertex 1.401445e+002 9.561483e+002 6.259010e+002
         vertex 1.464945e+002 9.555613e+002 6.264880e+002
         vertex 1.401445e+002 9.555613e+002 6.264880e+002
      endloop
   endfacet
   facet normal -1.356758e-017 -5.972114e-001 -8.020839e-001
      outer loop
         vertex 1.401445e+002 9.555613e+002 6.264880e+002
         vertex 1.464945e+002 9.555613e+002 6.264880e+002
         vertex 1.464945e+002 9.548812e+002 6.269642e+002
      endloop
   endfacet
   facet normal -1.408717e-017 -5.494540e-001 -8.355240e-001
      outer loop
         vertex 1.401445e+002 9.555613e+002 6.264880e+002
         vertex 1.464945e+002 9.548812e+002 6.269642e+002
         vertex 1.401445e+002 9.548812e+002 6.269642e+002
      endloop
   endfacet
   facet normal -1.497839e-017 -4.488580e-001 -8.936031e-001
      outer loop
         vertex 1.401445e+002 9.548812e+002 6.269642e+002
         vertex 1.464945e+002 9.548812e+002 6.269642e+002
         vertex 1.464945e+002 9.541288e+002 6.273151e+002
      endloop
   endfacet
   facet normal -1.535004e-017 -3.960194e-001 -9.182422e-001
      outer loop
         vertex 1.401445e+002 9.548812e+002 6.269642e+002
         vertex 1.464945e+002 9.541288e+002 6.273151e+002
         vertex 1.401445e+002 9.541288e+002 6.273151e+002
      endloop
   endfacet
   facet normal -1.593410e-017 -2.868663e-001 -9.579706e-001
      outer loop
         vertex 1.401445e+002 9.541288e+002 6.273151e+002
         vertex 1.464945e+002 9.541288e+002 6.273151e+002
         vertex 1.464945e+002 9.533270e+002 6.275298e+002
      endloop
   endfacet
   facet normal -1.614651e-017 -2.305519e-001 -9.730600e-001
      outer loop
         vertex 1.401445e+002 9.541288e+002 6.273151e+002
         vertex 1.464945e+002 9.533270e+002 6.275298e+002
         vertex 1.401445e+002 9.533270e+002 6.275298e+002
      endloop
   endfacet
   facet normal -1.640565e-017 -1.161583e-001 -9.932307e-001
      outer loop
         vertex 1.401445e+002 9.533270e+002 6.275298e+002
         vertex 1.464945e+002 9.533270e+002 6.275298e+002
         vertex 1.464945e+002 9.525001e+002 6.276022e+002
      endloop
   endfacet
   facet normal -1.645237e-017 -5.807914e-002 -9.983120e-001
      outer loop
         vertex 1.401445e+002 9.533270e+002 6.275298e+002
         vertex 1.464945e+002 9.525001e+002 6.276022e+002
         vertex 1.401445e+002 9.525001e+002 6.276022e+002
      endloop
   endfacet
   facet normal -1.637872e-017 5.807914e-002 -9.983120e-001
      outer loop
         vertex 1.401445e+002 9.525001e+002 6.276022e+002
         vertex 1.464945e+002 9.525001e+002 6.276022e+002
         vertex 1.464945e+002 9.516730e+002 6.275298e+002
      endloop
   endfacet
   facet normal -1.625834e-017 1.161583e-001 -9.932307e-001
      outer loop
         vertex 1.401445e+002 9.525001e+002 6.276022e+002
         vertex 1.464945e+002 9.516730e+002 6.275298e+002
         vertex 1.401445e+002 9.516730e+002 6.275298e+002
      endloop
   endfacet
   facet normal -1.585413e-017 2.305519e-001 -9.730600e-001
      outer loop
         vertex 1.401445e+002 9.516730e+002 6.275298e+002
         vertex 1.464945e+002 9.516730e+002 6.275298e+002
         vertex 1.464945e+002 9.508712e+002 6.273151e+002
      endloop
   endfacet
   facet normal -1.557031e-017 2.868663e-001 -9.579706e-001
      outer loop
         vertex 1.401445e+002 9.516730e+002 6.275298e+002
         vertex 1.464945e+002 9.508712e+002 6.273151e+002
         vertex 1.401445e+002 9.508712e+002 6.273151e+002
      endloop
   endfacet
   facet normal -1.484783e-017 3.960194e-001 -9.182422e-001
      outer loop
         vertex 1.401445e+002 9.508712e+002 6.273151e+002
         vertex 1.464945e+002 9.508712e+002 6.273151e+002
         vertex 1.464945e+002 9.501188e+002 6.269642e+002
      endloop
   endfacet
   facet normal -1.440918e-017 4.488580e-001 -8.936031e-001
      outer loop
         vertex 1.401445e+002 9.508712e+002 6.273151e+002
         vertex 1.464945e+002 9.501188e+002 6.269642e+002
         vertex 1.401445e+002 9.501188e+002 6.269642e+002
      endloop
   endfacet
   facet normal -1.339038e-017 5.494540e-001 -8.355240e-001
      outer loop
         vertex 1.401445e+002 9.501188e+002 6.269642e+002
         vertex 1.464945e+002 9.501188e+002 6.269642e+002
         vertex 1.464945e+002 9.494387e+002 6.264880e+002
      endloop
   endfacet
   facet normal -1.281023e-017 5.972114e-001 -8.020839e-001
      outer loop
         vertex 1.401445e+002 9.501188e+002 6.269642e+002
         vertex 1.464945e+002 9.494387e+002 6.264880e+002
         vertex 1.401445e+002 9.494387e+002 6.264880e+002
      endloop
   endfacet
   facet normal -1.152607e-017 6.861938e-001 -7.274188e-001
      outer loop
         vertex 1.401445e+002 9.494387e+002 6.264880e+002
         vertex 1.464945e+002 9.494387e+002 6.264880e+002
         vertex 1.464945e+002 9.488517e+002 6.259010e+002
      endloop
   endfacet
   facet normal -1.082206e-017 7.274188e-001 -6.861938e-001
      outer loop
         vertex 1.401445e+002 9.494387e+002 6.264880e+002
         vertex 1.464945e+002 9.488517e+002 6.259010e+002
         vertex 1.401445e+002 9.488517e+002 6.259010e+002
      endloop
   endfacet
   facet normal -9.311547e-018 8.020839e-001 -5.972114e-001
      outer loop
         vertex 1.401445e+002 9.488517e+002 6.259010e+002
         vertex 1.464945e+002 9.488517e+002 6.259010e+002
         vertex 1.464945e+002 9.483756e+002 6.252210e+002
      endloop
   endfacet
   facet normal -8.505055e-018 8.355240e-001 -5.494540e-001
      outer loop
         vertex 1.401445e+002 9.488517e+002 6.259010e+002
         vertex 1.464945e+002 9.483756e+002 6.252210e+002
         vertex 1.401445e+002 9.483756e+002 6.252210e+002
      endloop
   endfacet
   facet normal -6.814098e-018 8.936031e-001 -4.488580e-001
      outer loop
         vertex 1.401445e+002 9.483756e+002 6.252210e+002
         vertex 1.464945e+002 9.483756e+002 6.252210e+002
         vertex 1.464945e+002 9.480248e+002 6.244686e+002
      endloop
   endfacet
   facet normal -5.929634e-018 9.182422e-001 -3.960194e-001
      outer loop
         vertex 1.401445e+002 9.483756e+002 6.252210e+002
         vertex 1.464945e+002 9.480248e+002 6.244686e+002
         vertex 1.401445e+002 9.480248e+002 6.244686e+002
      endloop
   endfacet
   facet normal -4.109605e-018 9.579706e-001 -2.868663e-001
      outer loop
         vertex 1.401445e+002 9.480248e+002 6.244686e+002
         vertex 1.464945e+002 9.480248e+002 6.244686e+002
         vertex 1.464945e+002 9.478099e+002 6.236667e+002
      endloop
   endfacet
   facet normal -3.174042e-018 9.730600e-001 -2.305519e-001
      outer loop
         vertex 1.401445e+002 9.480248e+002 6.244686e+002
         vertex 1.464945e+002 9.478099e+002 6.236667e+002
         vertex 1.401445e+002 9.478099e+002 6.236667e+002
      endloop
   endfacet
   facet normal -1.280244e-018 9.932307e-001 -1.161583e-001
      outer loop
         vertex 1.401445e+002 9.478099e+002 6.236667e+002
         vertex 1.464945e+002 9.478099e+002 6.236667e+002
         vertex 1.464945e+002 9.477375e+002 6.228397e+002
      endloop
   endfacet
   facet normal -3.220096e-019 9.983120e-001 -5.807914e-002
      outer loop
         vertex 1.401445e+002 9.478099e+002 6.236667e+002
         vertex 1.464945e+002 9.477375e+002 6.228397e+002
         vertex 1.401445e+002 9.477375e+002 6.228397e+002
      endloop
   endfacet
   facet normal 1.588016e-018 9.983120e-001 5.807914e-002
      outer loop
         vertex 1.401445e+002 9.477375e+002 6.228397e+002
         vertex 1.464945e+002 9.477375e+002 6.228397e+002
         vertex 1.464945e+002 9.478099e+002 6.220128e+002
      endloop
   endfacet
   facet normal 2.539807e-018 9.932307e-001 1.161583e-001
      outer loop
         vertex 1.401445e+002 9.477375e+002 6.228397e+002
         vertex 1.464945e+002 9.478099e+002 6.220128e+002
         vertex 1.401445e+002 9.478099e+002 6.220128e+002
      endloop
   endfacet
   facet normal 4.408026e-018 9.730600e-001 2.305519e-001
      outer loop
         vertex 1.401445e+002 9.478099e+002 6.220128e+002
         vertex 1.464945e+002 9.478099e+002 6.220128e+002
         vertex 1.464945e+002 9.480248e+002 6.212109e+002
      endloop
   endfacet
   facet normal 5.324453e-018 9.579706e-001 2.868663e-001
      outer loop
         vertex 1.401445e+002 9.478099e+002 6.220128e+002
         vertex 1.464945e+002 9.480248e+002 6.212109e+002
         vertex 1.401445e+002 9.480248e+002 6.212109e+002
      endloop
   endfacet
   facet normal 7.094099e-018 9.182422e-001 3.960194e-001
      outer loop
         vertex 1.401445e+002 9.480248e+002 6.212109e+002
         vertex 1.464945e+002 9.480248e+002 6.212109e+002
         vertex 1.464945e+002 9.483756e+002 6.204585e+002
      endloop
   endfacet
   facet normal 7.947318e-018 8.936031e-001 4.488580e-001
      outer loop
         vertex 1.401445e+002 9.480248e+002 6.212109e+002
         vertex 1.464945e+002 9.483756e+002 6.204585e+002
         vertex 1.401445e+002 9.483756e+002 6.204585e+002
      endloop
   endfacet
   facet normal 9.564622e-018 8.355240e-001 5.494540e-001
      outer loop
         vertex 1.401445e+002 9.483756e+002 6.204585e+002
         vertex 1.464945e+002 9.483756e+002 6.204585e+002
         vertex 1.464945e+002 9.488517e+002 6.197784e+002
      endloop
   endfacet
   facet normal 1.032871e-017 8.020839e-001 5.972114e-001
      outer loop
         vertex 1.401445e+002 9.483756e+002 6.204585e+002
         vertex 1.464945e+002 9.488517e+002 6.197784e+002
         vertex 1.401445e+002 9.488517e+002 6.197784e+002
      endloop
   endfacet
   facet normal 1.174453e-017 7.274188e-001 6.861938e-001
      outer loop
         vertex 1.401445e+002 9.488517e+002 6.197784e+002
         vertex 1.464945e+002 9.488517e+002 6.197784e+002
         vertex 1.464945e+002 9.494387e+002 6.191915e+002
      endloop
   endfacet
   facet normal 1.239626e-017 6.861938e-001 7.274188e-001
      outer loop
         vertex 1.401445e+002 9.488517e+002 6.197784e+002
         vertex 1.464945e+002 9.494387e+002 6.191915e+002
         vertex 1.401445e+002 9.494387e+002 6.191915e+002
      endloop
   endfacet
   facet normal 1.356758e-017 5.972114e-001 8.020839e-001
      outer loop
         vertex 1.401445e+002 9.494387e+002 6.191915e+002
         vertex 1.464945e+002 9.494387e+002 6.191915e+002
         vertex 1.464945e+002 9.501188e+002 6.187153e+002
      endloop
   endfacet
   facet normal 1.408717e-017 5.494540e-001 8.355240e-001
      outer loop
         vertex 1.401445e+002 9.494387e+002 6.191915e+002
         vertex 1.464945e+002 9.501188e+002 6.187153e+002
         vertex 1.401445e+002 9.501188e+002 6.187153e+002
      endloop
   endfacet
   facet normal 1.497839e-017 4.488580e-001 8.936031e-001
      outer loop
         vertex 1.401445e+002 9.501188e+002 6.187153e+002
         vertex 1.464945e+002 9.501188e+002 6.187153e+002
         vertex 1.464945e+002 9.508712e+002 6.183644e+002
      endloop
   endfacet
   facet normal 1.535004e-017 3.960194e-001 9.182422e-001
      outer loop
         vertex 1.401445e+002 9.501188e+002 6.187153e+002
         vertex 1.464945e+002 9.508712e+002 6.183644e+002
         vertex 1.401445e+002 9.508712e+002 6.183644e+002
      endloop
   endfacet
   facet normal 1.593410e-017 2.868663e-001 9.579706e-001
      outer loop
         vertex 1.401445e+002 9.508712e+002 6.183644e+002
         vertex 1.464945e+002 9.508712e+002 6.183644e+002
         vertex 1.464945e+002 9.516730e+002 6.181497e+002
      endloop
   endfacet
   facet normal 1.614651e-017 2.305519e-001 9.730600e-001
      outer loop
         vertex 1.401445e+002 9.508712e+002 6.183644e+002
         vertex 1.464945e+002 9.516730e+002 6.181497e+002
         vertex 1.401445e+002 9.516730e+002 6.181497e+002
      endloop
   endfacet
   facet normal 1.640565e-017 1.161583e-001 9.932307e-001
      outer loop
         vertex 1.401445e+002 9.516730e+002 6.181497e+002
         vertex 1.464945e+002 9.516730e+002 6.181497e+002
         vertex 1.464945e+002 9.525001e+002 6.180773e+002
      endloop
   endfacet
   facet normal 1.645237e-017 5.807914e-002 9.983120e-001
      outer loop
         vertex 1.401445e+002 9.516730e+002 6.181497e+002
         vertex 1.464945e+002 9.525001e+002 6.180773e+002
         vertex 1.401445e+002 9.525001e+002 6.180773e+002
      endloop
   endfacet
   facet normal 1.637872e-017 -5.807914e-002 9.983120e-001
      outer loop
         vertex 1.401445e+002 9.525001e+002 6.180773e+002
         vertex 1.464945e+002 9.525001e+002 6.180773e+002
         vertex 1.464945e+002 9.533270e+002 6.181497e+002
      endloop
   endfacet
   facet normal 1.625834e-017 -1.161583e-001 9.932307e-001
      outer loop
         vertex 1.401445e+002 9.525001e+002 6.180773e+002
         vertex 1.464945e+002 9.533270e+002 6.181497e+002
         vertex 1.401445e+002 9.533270e+002 6.181497e+002
      endloop
   endfacet
   facet normal 1.585413e-017 -2.305519e-001 9.730600e-001
      outer loop
         vertex 1.401445e+002 9.533270e+002 6.181497e+002
         vertex 1.464945e+002 9.533270e+002 6.181497e+002
         vertex 1.464945e+002 9.541288e+002 6.183644e+002
      endloop
   endfacet
   facet normal 1.557031e-017 -2.868663e-001 9.579706e-001
      outer loop
         vertex 1.401445e+002 9.533270e+002 6.181497e+002
         vertex 1.464945e+002 9.541288e+002 6.183644e+002
         vertex 1.401445e+002 9.541288e+002 6.183644e+002
      endloop
   endfacet
   facet normal 1.484783e-017 -3.960194e-001 9.182422e-001
      outer loop
         vertex 1.401445e+002 9.541288e+002 6.183644e+002
         vertex 1.464945e+002 9.541288e+002 6.183644e+002
         vertex 1.464945e+002 9.548812e+002 6.187153e+002
      endloop
   endfacet
   facet normal 1.440918e-017 -4.488580e-001 8.936031e-001
      outer loop
         vertex 1.401445e+002 9.541288e+002 6.183644e+002
         vertex 1.464945e+002 9.548812e+002 6.187153e+002
         vertex 1.401445e+002 9.548812e+002 6.187153e+002
      endloop
   endfacet
   facet normal 1.339038e-017 -5.494540e-001 8.355240e-001
      outer loop
         vertex 1.401445e+002 9.548812e+002 6.187153e+002
         vertex 1.464945e+002 9.548812e+002 6.187153e+002
         vertex 1.464945e+002 9.555613e+002 6.191915e+002
      endloop
   endfacet
   facet normal 1.281023e-017 -5.972114e-001 8.020839e-001
      outer loop
         vertex 1.401445e+002 9.548812e+002 6.187153e+002
         vertex 1.464945e+002 9.555613e+002 6.191915e+002
         vertex 1.401445e+002 9.555613e+002 6.191915e+002
      endloop
   endfacet
   facet normal 1.152607e-017 -6.861938e-001 7.274188e-001
      outer loop
         vertex 1.401445e+002 9.555613e+002 6.191915e+002
         vertex 1.464945e+002 9.555613e+002 6.191915e+002
         vertex 1.464945e+002 9.561483e+002 6.197784e+002
      endloop
   endfacet
   facet normal 1.082206e-017 -7.274188e-001 6.861938e-001
      outer loop
         vertex 1.401445e+002 9.555613e+002 6.191915e+002
         vertex 1.464945e+002 9.561483e+002 6.197784e+002
         vertex 1.401445e+002 9.561483e+002 6.197784e+002
      endloop
   endfacet
   facet normal 9.311547e-018 -8.020839e-001 5.972114e-001
      outer loop
         vertex 1.401445e+002 9.561483e+002 6.197784e+002
         vertex 1.464945e+002 9.561483e+002 6.197784e+002
         vertex 1.464945e+002 9.566245e+002 6.204585e+002
      endloop
   endfacet
   facet normal 8.505055e-018 -8.355240e-001 5.494540e-001
      outer loop
         vertex 1.401445e+002 9.561483e+002 6.197784e+002
         vertex 1.464945e+002 9.566245e+002 6.204585e+002
         vertex 1.401445e+002 9.566245e+002 6.204585e+002
      endloop
   endfacet
   facet normal 6.814098e-018 -8.936031e-001 4.488580e-001
      outer loop
         vertex 1.401445e+002 9.566245e+002 6.204585e+002
         vertex 1.464945e+002 9.566245e+002 6.204585e+002
         vertex 1.464945e+002 9.569753e+002 6.212109e+002
      endloop
   endfacet
   facet normal 5.929634e-018 -9.182422e-001 3.960194e-001
      outer loop
         vertex 1.401445e+002 9.566245e+002 6.204585e+002
         vertex 1.464945e+002 9.569753e+002 6.212109e+002
         vertex 1.401445e+002 9.569753e+002 6.212109e+002
      endloop
   endfacet
   facet normal 4.109605e-018 -9.579706e-001 2.868663e-001
      outer loop
         vertex 1.401445e+002 9.569753e+002 6.212109e+002
         vertex 1.464945e+002 9.569753e+002 6.212109e+002
         vertex 1.464945e+002 9.571902e+002 6.220128e+002
      endloop
   endfacet
   facet normal 3.174042e-018 -9.730600e-001 2.305519e-001
      outer loop
         vertex 1.401445e+002 9.569753e+002 6.212109e+002
         vertex 1.464945e+002 9.571902e+002 6.220128e+002
         vertex 1.401445e+002 9.571902e+002 6.220128e+002
      endloop
   endfacet
   facet normal 1.280244e-018 -9.932307e-001 1.161583e-001
      outer loop
         vertex 1.401445e+002 9.571902e+002 6.220128e+002
         vertex 1.464945e+002 9.571902e+002 6.220128e+002
         vertex 1.464945e+002 9.572625e+002 6.228397e+002
      endloop
   endfacet
   facet normal 3.220096e-019 -9.983120e-001 5.807914e-002
      outer loop
         vertex 1.401445e+002 8.619401e+002 6.220128e+002
         vertex 1.464945e+002 8.620125e+002 6.228397e+002
         vertex 1.401445e+002 8.620125e+002 6.228397e+002
      endloop
   endfacet
   facet normal -1.588016e-018 -9.983120e-001 -5.807914e-002
      outer loop
         vertex 1.401445e+002 8.620125e+002 6.228397e+002
         vertex 1.464945e+002 8.620125e+002 6.228397e+002
         vertex 1.464945e+002 8.619401e+002 6.236667e+002
      endloop
   endfacet
   facet normal -2.539807e-018 -9.932307e-001 -1.161583e-001
      outer loop
         vertex 1.401445e+002 8.620125e+002 6.228397e+002
         vertex 1.464945e+002 8.619401e+002 6.236667e+002
         vertex 1.401445e+002 8.619401e+002 6.236667e+002
      endloop
   endfacet
   facet normal -4.408026e-018 -9.730600e-001 -2.305519e-001
      outer loop
         vertex 1.401445e+002 8.619401e+002 6.236667e+002
         vertex 1.464945e+002 8.619401e+002 6.236667e+002
         vertex 1.464945e+002 8.617253e+002 6.244686e+002
      endloop
   endfacet
   facet normal -5.324453e-018 -9.579706e-001 -2.868663e-001
      outer loop
         vertex 1.401445e+002 8.619401e+002 6.236667e+002
         vertex 1.464945e+002 8.617253e+002 6.244686e+002
         vertex 1.401445e+002 8.617253e+002 6.244686e+002
      endloop
   endfacet
   facet normal -7.094099e-018 -9.182422e-001 -3.960194e-001
      outer loop
         vertex 1.401445e+002 8.617253e+002 6.244686e+002
         vertex 1.464945e+002 8.617253e+002 6.244686e+002
         vertex 1.464945e+002 8.613745e+002 6.252210e+002
      endloop
   endfacet
   facet normal -7.947318e-018 -8.936031e-001 -4.488580e-001
      outer loop
         vertex 1.401445e+002 8.617253e+002 6.244686e+002
         vertex 1.464945e+002 8.613745e+002 6.252210e+002
         vertex 1.401445e+002 8.613745e+002 6.252210e+002
      endloop
   endfacet
   facet normal -9.564622e-018 -8.355240e-001 -5.494540e-001
      outer loop
         vertex 1.401445e+002 8.613745e+002 6.252210e+002
         vertex 1.464945e+002 8.613745e+002 6.252210e+002
         vertex 1.464945e+002 8.608983e+002 6.259010e+002
      endloop
   endfacet
   facet normal -1.032871e-017 -8.020839e-001 -5.972114e-001
      outer loop
         vertex 1.401445e+002 8.613745e+002 6.252210e+002
         vertex 1.464945e+002 8.608983e+002 6.259010e+002
         vertex 1.401445e+002 8.608983e+002 6.259010e+002
      endloop
   endfacet
   facet normal -1.174453e-017 -7.274188e-001 -6.861938e-001
      outer loop
         vertex 1.401445e+002 8.608983e+002 6.259010e+002
         vertex 1.464945e+002 8.608983e+002 6.259010e+002
         vertex 1.464945e+002 8.603113e+002 6.264880e+002
      endloop
   endfacet
   facet normal -1.239626e-017 -6.861938e-001 -7.274188e-001
      outer loop
         vertex 1.401445e+002 8.608983e+002 6.259010e+002
         vertex 1.464945e+002 8.603113e+002 6.264880e+002
         vertex 1.401445e+002 8.603113e+002 6.264880e+002
      endloop
   endfacet
   facet normal -1.356758e-017 -5.972114e-001 -8.020839e-001
      outer loop
         vertex 1.401445e+002 8.603113e+002 6.264880e+002
         vertex 1.464945e+002 8.603113e+002 6.264880e+002
         vertex 1.464945e+002 8.596312e+002 6.269642e+002
      endloop
   endfacet
   facet normal -1.408717e-017 -5.494540e-001 -8.355240e-001
      outer loop
         vertex 1.401445e+002 8.603113e+002 6.264880e+002
         vertex 1.464945e+002 8.596312e+002 6.269642e+002
         vertex 1.401445e+002 8.596312e+002 6.269642e+002
      endloop
   endfacet
   facet normal -1.497839e-017 -4.488580e-001 -8.936031e-001
      outer loop
         vertex 1.401445e+002 8.596312e+002 6.269642e+002
         vertex 1.464945e+002 8.596312e+002 6.269642e+002
         vertex 1.464945e+002 8.588789e+002 6.273151e+002
      endloop
   endfacet
   facet normal -1.535004e-017 -3.960194e-001 -9.182422e-001
      outer loop
         vertex 1.401445e+002 8.596312e+002 6.269642e+002
         vertex 1.464945e+002 8.588789e+002 6.273151e+002
         vertex 1.401445e+002 8.588789e+002 6.273151e+002
      endloop
   endfacet
   facet normal -1.593410e-017 -2.868663e-001 -9.579706e-001
      outer loop
         vertex 1.401445e+002 8.588789e+002 6.273151e+002
         vertex 1.464945e+002 8.588789e+002 6.273151e+002
         vertex 1.464945e+002 8.580770e+002 6.275298e+002
      endloop
   endfacet
   facet normal -1.614651e-017 -2.305519e-001 -9.730600e-001
      outer loop
         vertex 1.401445e+002 8.588789e+002 6.273151e+002
         vertex 1.464945e+002 8.580770e+002 6.275298e+002
         vertex 1.401445e+002 8.580770e+002 6.275298e+002
      endloop
   endfacet
   facet normal -1.640565e-017 -1.161583e-001 -9.932307e-001
      outer loop
         vertex 1.401445e+002 8.580770e+002 6.275298e+002
         vertex 1.464945e+002 8.580770e+002 6.275298e+002
         vertex 1.464945e+002 8.572501e+002 6.276022e+002
      endloop
   endfacet
   facet normal -1.645237e-017 -5.807914e-002 -9.983120e-001
      outer loop
         vertex 1.401445e+002 8.580770e+002 6.275298e+002
         vertex 1.464945e+002 8.572501e+002 6.276022e+002
         vertex 1.401445e+002 8.572501e+002 6.276022e+002
      endloop
   endfacet
   facet normal -1.637872e-017 5.807914e-002 -9.983120e-001
      outer loop
         vertex 1.401445e+002 8.572501e+002 6.276022e+002
         vertex 1.464945e+002 8.572501e+002 6.276022e+002
         vertex 1.464945e+002 8.564230e+002 6.275298e+002
      endloop
   endfacet
   facet normal -1.625834e-017 1.161583e-001 -9.932307e-001
      outer loop
         vertex 1.401445e+002 8.572501e+002 6.276022e+002
         vertex 1.464945e+002 8.564230e+002 6.275298e+002
         vertex 1.401445e+002 8.564230e+002 6.275298e+002
      endloop
   endfacet
   facet normal -1.585413e-017 2.305519e-001 -9.730600e-001
      outer loop
         vertex 1.401445e+002 8.564230e+002 6.275298e+002
         vertex 1.464945e+002 8.564230e+002 6.275298e+002
         vertex 1.464945e+002 8.556212e+002 6.273151e+002
      endloop
   endfacet
   facet normal -1.557031e-017 2.868663e-001 -9.579706e-001
      outer loop
         vertex 1.401445e+002 8.564230e+002 6.275298e+002
         vertex 1.464945e+002 8.556212e+002 6.273151e+002
         vertex 1.401445e+002 8.556212e+002 6.273151e+002
      endloop
   endfacet
   facet normal -1.484783e-017 3.960194e-001 -9.182422e-001
      outer loop
         vertex 1.401445e+002 8.556212e+002 6.273151e+002
         vertex 1.464945e+002 8.556212e+002 6.273151e+002
         vertex 1.464945e+002 8.548688e+002 6.269642e+002
      endloop
   endfacet
   facet normal -1.440918e-017 4.488580e-001 -8.936031e-001
      outer loop
         vertex 1.401445e+002 8.556212e+002 6.273151e+002
         vertex 1.464945e+002 8.548688e+002 6.269642e+002
         vertex 1.401445e+002 8.548688e+002 6.269642e+002
      endloop
   endfacet
   facet normal -1.339038e-017 5.494540e-001 -8.355240e-001
      outer loop
         vertex 1.401445e+002 8.548688e+002 6.269642e+002
         vertex 1.464945e+002 8.548688e+002 6.269642e+002
         vertex 1.464945e+002 8.541887e+002 6.264880e+002
      endloop
   endfacet
   facet normal -1.281023e-017 5.972114e-001 -8.020839e-001
      outer loop
         vertex 1.401445e+002 8.548688e+002 6.269642e+002
         vertex 1.464945e+002 8.541887e+002 6.264880e+002
         vertex 1.401445e+002 8.541887e+002 6.264880e+002
      endloop
   endfacet
   facet normal -1.152607e-017 6.861938e-001 -7.274188e-001
      outer loop
         vertex 1.401445e+002 8.541887e+002 6.264880e+002
         vertex 1.464945e+002 8.541887e+002 6.264880e+002
         vertex 1.464945e+002 8.536017e+002 6.259010e+002
      endloop
   endfacet
   facet normal -1.082206e-017 7.274188e-001 -6.861938e-001
      outer loop
         vertex 1.401445e+002 8.541887e+002 6.264880e+002
         vertex 1.464945e+002 8.536017e+002 6.259010e+002
         vertex 1.401445e+002 8.536017e+002 6.259010e+002
      endloop
   endfacet
   facet normal -9.311547e-018 8.020839e-001 -5.972114e-001
      outer loop
         vertex 1.401445e+002 8.536017e+002 6.259010e+002
         vertex 1.464945e+002 8.536017e+002 6.259010e+002
         vertex 1.464945e+002 8.531255e+002 6.252210e+002
      endloop
   endfacet
   facet normal -8.505055e-018 8.355240e-001 -5.494540e-001
      outer loop
         vertex 1.401445e+002 8.536017e+002 6.259010e+002
         vertex 1.464945e+002 8.531255e+002 6.252210e+002
         vertex 1.401445e+002 8.531255e+002 6.252210e+002
      endloop
   endfacet
   facet normal -6.814098e-018 8.936031e-001 -4.488580e-001
      outer loop
         vertex 1.401445e+002 8.531255e+002 6.252210e+002
         vertex 1.464945e+002 8.531255e+002 6.252210e+002
         vertex 1.464945e+002 8.527747e+002 6.244686e+002
      endloop
   endfacet
   facet normal -5.929634e-018 9.182422e-001 -3.960194e-001
      outer loop
         vertex 1.401445e+002 8.531255e+002 6.252210e+002
         vertex 1.464945e+002 8.527747e+002 6.244686e+002
         vertex 1.401445e+002 8.527747e+002 6.244686e+002
      endloop
   endfacet
   facet normal -4.109605e-018 9.579706e-001 -2.868663e-001
      outer loop
         vertex 1.401445e+002 8.527747e+002 6.244686e+002
         vertex 1.464945e+002 8.527747e+002 6.244686e+002
         vertex 1.464945e+002 8.525599e+002 6.236667e+002
      endloop
   endfacet
   facet normal -3.174042e-018 9.730600e-001 -2.305519e-001
      outer loop
         vertex 1.401445e+002 8.527747e+002 6.244686e+002
         vertex 1.464945e+002 8.525599e+002 6.236667e+002
         vertex 1.401445e+002 8.525599e+002 6.236667e+002
      endloop
   endfacet
   facet normal -1.280244e-018 9.932307e-001 -1.161583e-001
      outer loop
         vertex 1.401445e+002 8.525599e+002 6.236667e+002
         vertex 1.464945e+002 8.525599e+002 6.236667e+002
         vertex 1.464945e+002 8.524875e+002 6.228397e+002
      endloop
   endfacet
   facet normal -3.220096e-019 9.983120e-001 -5.807914e-002
      outer loop
         vertex 1.401445e+002 8.525599e+002 6.236667e+002
         vertex 1.464945e+002 8.524875e+002 6.228397e+002
         vertex 1.401445e+002 8.524875e+002 6.228397e+002
      endloop
   endfacet
   facet normal 1.588016e-018 9.983120e-001 5.807914e-002
      outer loop
         vertex 1.401445e+002 8.524875e+002 6.228397e+002
         vertex 1.464945e+002 8.524875e+002 6.228397e+002
         vertex 1.464945e+002 8.525599e+002 6.220128e+002
      endloop
   endfacet
   facet normal 2.539807e-018 9.932307e-001 1.161583e-001
      outer loop
         vertex 1.401445e+002 8.524875e+002 6.228397e+002
         vertex 1.464945e+002 8.525599e+002 6.220128e+002
         vertex 1.401445e+002 8.525599e+002 6.220128e+002
      endloop
   endfacet
   facet normal 4.408026e-018 9.730600e-001 2.305519e-001
      outer loop
         vertex 1.401445e+002 8.525599e+002 6.220128e+002
         vertex 1.464945e+002 8.525599e+002 6.220128e+002
         vertex 1.464945e+002 8.527747e+002 6.212109e+002
      endloop
   endfacet
   facet normal 5.324453e-018 9.579706e-001 2.868663e-001
      outer loop
         vertex 1.401445e+002 8.525599e+002 6.220128e+002
         vertex 1.464945e+002 8.527747e+002 6.212109e+002
         vertex 1.401445e+002 8.527747e+002 6.212109e+002
      endloop
   endfacet
   facet normal 7.094099e-018 9.182422e-001 3.960194e-001
      outer loop
         vertex 1.401445e+002 8.527747e+002 6.212109e+002
         vertex 1.464945e+002 8.527747e+002 6.212109e+002
         vertex 1.464945e+002 8.531255e+002 6.204585e+002
      endloop
   endfacet
   facet normal 7.947318e-018 8.936031e-001 4.488580e-001
      outer loop
         vertex 1.401445e+002 8.527747e+002 6.212109e+002
         vertex 1.464945e+002 8.531255e+002 6.204585e+002
         vertex 1.401445e+002 8.531255e+002 6.204585e+002
      endloop
   endfacet
   facet normal 9.564622e-018 8.355240e-001 5.494540e-001
      outer loop
         vertex 1.401445e+002 8.531255e+002 6.204585e+002
         vertex 1.464945e+002 8.531255e+002 6.204585e+002
         vertex 1.464945e+002 8.536017e+002 6.197784e+002
      endloop
   endfacet
   facet normal 1.032871e-017 8.020839e-001 5.972114e-001
      outer loop
         vertex 1.401445e+002 8.531255e+002 6.204585e+002
         vertex 1.464945e+002 8.536017e+002 6.197784e+002
         vertex 1.401445e+002 8.536017e+002 6.197784e+002
      endloop
   endfacet
   facet normal 1.174453e-017 7.274188e-001 6.861938e-001
      outer loop
         vertex 1.401445e+002 8.536017e+002 6.197784e+002
         vertex 1.464945e+002 8.536017e+002 6.197784e+002
         vertex 1.464945e+002 8.541887e+002 6.191915e+002
      endloop
   endfacet
   facet normal 1.239626e-017 6.861938e-001 7.274188e-001
      outer loop
         vertex 1.401445e+002 8.536017e+002 6.197784e+002
         vertex 1.464945e+002 8.541887e+002 6.191915e+002
         vertex 1.401445e+002 8.541887e+002 6.191915e+002
      endloop
   endfacet
   facet normal 1.356758e-017 5.972114e-001 8.020839e-001
      outer loop
         vertex 1.401445e+002 8.541887e+002 6.191915e+002
         vertex 1.464945e+002 8.541887e+002 6.191915e+002
         vertex 1.464945e+002 8.548688e+002 6.187153e+002
      endloop
   endfacet
   facet normal 1.408717e-017 5.494540e-001 8.355240e-001
      outer loop
         vertex 1.401445e+002 8.541887e+002 6.191915e+002
         vertex 1.464945e+002 8.548688e+002 6.187153e+002
         vertex 1.401445e+002 8.548688e+002 6.187153e+002
      endloop
   endfacet
   facet normal 1.497839e-017 4.488580e-001 8.936031e-001
      outer loop
         vertex 1.401445e+002 8.548688e+002 6.187153e+002
         vertex 1.464945e+002 8.548688e+002 6.187153e+002
         vertex 1.464945e+002 8.556212e+002 6.183644e+002
      endloop
   endfacet
   facet normal 1.535004e-017 3.960194e-001 9.182422e-001
      outer loop
         vertex 1.401445e+002 8.548688e+002 6.187153e+002
         vertex 1.464945e+002 8.556212e+002 6.183644e+002
         vertex 1.401445e+002 8.556212e+002 6.183644e+002
      endloop
   endfacet
   facet normal 1.593410e-017 2.868663e-001 9.579706e-001
      outer loop
         vertex 1.401445e+002 8.556212e+002 6.183644e+002
         vertex 1.464945e+002 8.556212e+002 6.183644e+002
         vertex 1.464945e+002 8.564230e+002 6.181497e+002
      endloop
   endfacet
   facet normal 1.614651e-017 2.305519e-001 9.730600e-001
      outer loop
         vertex 1.401445e+002 8.556212e+002 6.183644e+002
         vertex 1.464945e+002 8.564230e+002 6.181497e+002
         vertex 1.401445e+002 8.564230e+002 6.181497e+002
      endloop
   endfacet
   facet normal 1.640565e-017 1.161583e-001 9.932307e-001
      outer loop
         vertex 1.401445e+002 8.564230e+002 6.181497e+002
         vertex 1.464945e+002 8.564230e+002 6.181497e+002
         vertex 1.464945e+002 8.572501e+002 6.180773e+002
      endloop
   endfacet
   facet normal 1.645237e-017 5.807914e-002 9.983120e-001
      outer loop
         vertex 1.401445e+002 8.564230e+002 6.181497e+002
         vertex 1.464945e+002 8.572501e+002 6.180773e+002
         vertex 1.401445e+002 8.572501e+002 6.180773e+002
      endloop
   endfacet
   facet normal 1.637872e-017 -5.807914e-002 9.983120e-001
      outer loop
         vertex 1.401445e+002 8.572501e+002 6.180773e+002
         vertex 1.464945e+002 8.572501e+002 6.180773e+002
         vertex 1.464945e+002 8.580770e+002 6.181497e+002
      endloop
   endfacet
   facet normal 1.625834e-017 -1.161583e-001 9.932307e-001
      outer loop
         vertex 1.401445e+002 8.572501e+002 6.180773e+002
         vertex 1.464945e+002 8.580770e+002 6.181497e+002
         vertex 1.401445e+002 8.580770e+002 6.181497e+002
      endloop
   endfacet
   facet normal 1.585413e-017 -2.305519e-001 9.730600e-001
      outer loop
         vertex 1.401445e+002 8.580770e+002 6.181497e+002
         vertex 1.464945e+002 8.580770e+002 6.181497e+002
         vertex 1.464945e+002 8.588789e+002 6.183644e+002
      endloop
   endfacet
   facet normal 1.557031e-017 -2.868663e-001 9.579706e-001
      outer loop
         vertex 1.401445e+002 8.580770e+002 6.181497e+002
         vertex 1.464945e+002 8.588789e+002 6.183644e+002
         vertex 1.401445e+002 8.588789e+002 6.183644e+002
      endloop
   endfacet
   facet normal 1.484783e-017 -3.960194e-001 9.182422e-001
      outer loop
         vertex 1.401445e+002 8.588789e+002 6.183644e+002
         vertex 1.464945e+002 8.588789e+002 6.183644e+002
         vertex 1.464945e+002 8.596312e+002 6.187153e+002
      endloop
   endfacet
   facet normal 1.440918e-017 -4.488580e-001 8.936031e-001
      outer loop
         vertex 1.401445e+002 8.588789e+002 6.183644e+002
         vertex 1.464945e+002 8.596312e+002 6.187153e+002
         vertex 1.401445e+002 8.596312e+002 6.187153e+002
      endloop
   endfacet
   facet normal 1.339038e-017 -5.494540e-001 8.355240e-001
      outer loop
         vertex 1.401445e+002 8.596312e+002 6.187153e+002
         vertex 1.464945e+002 8.596312e+002 6.187153e+002
         vertex 1.464945e+002 8.603113e+002 6.191915e+002
      endloop
   endfacet
   facet normal 1.281023e-017 -5.972114e-001 8.020839e-001
      outer loop
         vertex 1.401445e+002 8.596312e+002 6.187153e+002
         vertex 1.464945e+002 8.603113e+002 6.191915e+002
         vertex 1.401445e+002 8.603113e+002 6.191915e+002
      endloop
   endfacet
   facet normal 1.152607e-017 -6.861938e-001 7.274188e-001
      outer loop
         vertex 1.401445e+002 8.603113e+002 6.191915e+002
         vertex 1.464945e+002 8.603113e+002 6.191915e+002
         vertex 1.464945e+002 8.608983e+002 6.197784e+002
      endloop
   endfacet
   facet normal 1.082206e-017 -7.274188e-001 6.861938e-001
      outer loop
         vertex 1.401445e+002 8.603113e+002 6.191915e+002
         vertex 1.464945e+002 8.608983e+002 6.197784e+002
         vertex 1.401445e+002 8.608983e+002 6.197784e+002
      endloop
   endfacet
   facet normal 9.311547e-018 -8.020839e-001 5.972114e-001
      outer loop
         vertex 1.401445e+002 8.608983e+002 6.197784e+002
         vertex 1.464945e+002 8.608983e+002 6.197784e+002
         vertex 1.464945e+002 8.613745e+002 6.204585e+002
      endloop
   endfacet
   facet normal 8.505055e-018 -8.355240e-001 5.494540e-001
      outer loop
         vertex 1.401445e+002 8.608983e+002 6.197784e+002
         vertex 1.464945e+002 8.613745e+002 6.204585e+002
         vertex 1.401445e+002 8.613745e+002 6.204585e+002
      endloop
   endfacet
   facet normal 6.814098e-018 -8.936031e-001 4.488580e-001
      outer loop
         vertex 1.401445e+002 8.613745e+002 6.204585e+002
         vertex 1.464945e+002 8.613745e+002 6.204585e+002
         vertex 1.464945e+002 8.617253e+002 6.212109e+002
      endloop
   endfacet
   facet normal 5.929634e-018 -9.182422e-001 3.960194e-001
      outer loop
         vertex 1.401445e+002 8.613745e+002 6.204585e+002
         vertex 1.464945e+002 8.617253e+002 6.212109e+002
         vertex 1.401445e+002 8.617253e+002 6.212109e+002
      endloop
   endfacet
   facet normal 4.109605e-018 -9.579706e-001 2.868663e-001
      outer loop
         vertex 1.401445e+002 8.617253e+002 6.212109e+002
         vertex 1.464945e+002 8.617253e+002 6.212109e+002
         vertex 1.464945e+002 8.619401e+002 6.220128e+002
      endloop
   endfacet
   facet normal 3.174042e-018 -9.730600e-001 2.305519e-001
      outer loop
         vertex 1.401445e+002 8.617253e+002 6.212109e+002
         vertex 1.464945e+002 8.619401e+002 6.220128e+002
         vertex 1.401445e+002 8.619401e+002 6.220128e+002
      endloop
   endfacet
   facet normal 1.280244e-018 -9.932307e-001 1.161583e-001
      outer loop
         vertex 1.401445e+002 8.619401e+002 6.220128e+002
         vertex 1.464945e+002 8.619401e+002 6.220128e+002
         vertex 1.464945e+002 8.620125e+002 6.228397e+002
      endloop
   endfacet
endsolid