solid 000-UltraSoundMachine_Johnsonville - 700-LipTop-1 701-PlateCurved-1
   facet normal 1.000000e+000 0.000000e+000 0.000000e+000
      outer loop
         vertex 1.425695e+002 1.168400e+003 5.178425e+002
         vertex 1.425695e+002 1.066800e+003 5.178425e+002
         vertex 1.425695e+002 1.168400e+003 1.876425e+002
      endloop
   endfacet
   facet normal 1.000000e+000 0.000000e+000 0.000000e+000
      outer loop
         vertex 1.425695e+002 1.168400e+003 1.876425e+002
         vertex 1.425695e+002 1.066800e+003 5.178425e+002
         vertex 1.425695e+002 1.066800e+003 1.876425e+002
      endloop
   endfacet
   facet normal 0.000000e+000 1.000000e+000 0.000000e+000
      outer loop
         vertex 1.410695e+002 1.168400e+003 5.178425e+002
         vertex 1.425695e+002 1.168400e+003 5.178425e+002
         vertex 1.410695e+002 1.168400e+003 1.876425e+002
      endloop
   endfacet
   facet normal 0.000000e+000 1.000000e+000 0.000000e+000
      outer loop
         vertex 1.410695e+002 1.168400e+003 1.876425e+002
         vertex 1.425695e+002 1.168400e+003 5.178425e+002
         vertex 1.425695e+002 1.168400e+003 1.876425e+002
      endloop
   endfacet
   facet normal -1.000000e+000 0.000000e+000 0.000000e+000
      outer loop
         vertex 1.410695e+002 1.066800e+003 5.178425e+002
         vertex 1.410695e+002 1.168400e+003 5.178425e+002
         vertex 1.410695e+002 1.066800e+003 1.876425e+002
      endloop
   endfacet
   facet normal -1.000000e+000 0.000000e+000 0.000000e+000
      outer loop
         vertex 1.410695e+002 1.066800e+003 1.876425e+002
         vertex 1.410695e+002 1.168400e+003 5.178425e+002
         vertex 1.410695e+002 1.168400e+003 1.876425e+002
      endloop
   endfacet
   facet normal -9.990494e-001 -4.359168e-002 0.000000e+000
      outer loop
         vertex 1.410695e+002 1.066800e+003 5.178425e+002
         vertex 1.410695e+002 1.066800e+003 1.876425e+002
         vertex 1.417214e+002 1.056854e+003 1.876425e+002
      endloop
   endfacet
   facet normal -9.961923e-001 -8.718336e-002 0.000000e+000
      outer loop
         vertex 1.410695e+002 1.066800e+003 5.178425e+002
         vertex 1.417214e+002 1.056854e+003 1.876425e+002
         vertex 1.417214e+002 1.056854e+003 5.178425e+002
      endloop
   endfacet
   facet normal -9.848126e-001 -1.736209e-001 0.000000e+000
      outer loop
         vertex 1.417214e+002 1.056854e+003 5.178425e+002
         vertex 1.417214e+002 1.056854e+003 1.876425e+002
         vertex 1.436660e+002 1.047078e+003 1.876425e+002
      endloop
   endfacet
   facet normal -9.762900e-001 -2.164667e-001 0.000000e+000
      outer loop
         vertex 1.417214e+002 1.056854e+003 5.178425e+002
         vertex 1.436660e+002 1.047078e+003 1.876425e+002
         vertex 1.436660e+002 1.047078e+003 5.178425e+002
      endloop
   endfacet
   facet normal -9.537253e-001 -3.006794e-001 0.000000e+000
      outer loop
         vertex 1.436660e+002 1.047078e+003 5.178425e+002
         vertex 1.436660e+002 1.047078e+003 1.876425e+002
         vertex 1.468698e+002 1.037640e+003 1.876425e+002
      endloop
   endfacet
   facet normal -9.396831e-001 -3.420462e-001 0.000000e+000
      outer loop
         vertex 1.436660e+002 1.047078e+003 5.178425e+002
         vertex 1.468698e+002 1.037640e+003 1.876425e+002
         vertex 1.468698e+002 1.037640e+003 5.178425e+002
      endloop
   endfacet
   facet normal -9.063195e-001 -4.225931e-001 0.000000e+000
      outer loop
         vertex 1.468698e+002 1.037640e+003 5.178425e+002
         vertex 1.468698e+002 1.037640e+003 1.876425e+002
         vertex 1.512784e+002 1.028700e+003 1.876425e+002
      endloop
   endfacet
   facet normal -8.869981e-001 -4.617732e-001 0.000000e+000
      outer loop
         vertex 1.468698e+002 1.037640e+003 5.178425e+002
         vertex 1.512784e+002 1.028700e+003 1.876425e+002
         vertex 1.512784e+002 1.028700e+003 5.178425e+002
      endloop
   endfacet
   facet normal -8.434063e-001 -5.372763e-001 0.000000e+000
      outer loop
         vertex 1.512784e+002 1.028700e+003 5.178425e+002
         vertex 1.512784e+002 1.028700e+003 1.876425e+002
         vertex 1.568159e+002 1.020412e+003 1.876425e+002
      endloop
   endfacet
   facet normal -8.191361e-001 -5.735992e-001 0.000000e+000
      outer loop
         vertex 1.512784e+002 1.028700e+003 5.178425e+002
         vertex 1.568159e+002 1.020412e+003 1.876425e+002
         vertex 1.568159e+002 1.020412e+003 5.178425e+002
      endloop
   endfacet
   facet normal -7.660623e-001 -6.427664e-001 0.000000e+000
      outer loop
         vertex 1.568159e+002 1.020412e+003 5.178425e+002
         vertex 1.568159e+002 1.020412e+003 1.876425e+002
         vertex 1.633880e+002 1.012918e+003 1.876425e+002
      endloop
   endfacet
   facet normal -7.372586e-001 -6.756107e-001 0.000000e+000
      outer loop
         vertex 1.568159e+002 1.020412e+003 5.178425e+002
         vertex 1.633880e+002 1.012918e+003 1.876425e+002
         vertex 1.633880e+002 1.012918e+003 5.178425e+002
      endloop
   endfacet
   facet normal -6.756107e-001 -7.372586e-001 0.000000e+000
      outer loop
         vertex 1.633880e+002 1.012918e+003 5.178425e+002
         vertex 1.633880e+002 1.012918e+003 1.876425e+002
         vertex 1.708819e+002 1.006346e+003 1.876425e+002
      endloop
   endfacet
   facet normal -6.427664e-001 -7.660623e-001 0.000000e+000
      outer loop
         vertex 1.633880e+002 1.012918e+003 5.178425e+002
         vertex 1.708819e+002 1.006346e+003 1.876425e+002
         vertex 1.708819e+002 1.006346e+003 5.178425e+002
      endloop
   endfacet
   facet normal -5.735992e-001 -8.191361e-001 0.000000e+000
      outer loop
         vertex 1.708819e+002 1.006346e+003 5.178425e+002
         vertex 1.708819e+002 1.006346e+003 1.876425e+002
         vertex 1.791695e+002 1.000809e+003 1.876425e+002
      endloop
   endfacet
   facet normal -5.372762e-001 -8.434064e-001 0.000000e+000
      outer loop
         vertex 1.708819e+002 1.006346e+003 5.178425e+002
         vertex 1.791695e+002 1.000809e+003 1.876425e+002
         vertex 1.791695e+002 1.000809e+003 5.178425e+002
      endloop
   endfacet
   facet normal -4.617732e-001 -8.869981e-001 0.000000e+000
      outer loop
         vertex 1.791695e+002 1.000809e+003 5.178425e+002
         vertex 1.791695e+002 1.000809e+003 1.876425e+002
         vertex 1.881090e+002 9.964003e+002 1.876425e+002
      endloop
   endfacet
   facet normal -4.225931e-001 -9.063195e-001 0.000000e+000
      outer loop
         vertex 1.791695e+002 1.000809e+003 5.178425e+002
         vertex 1.881090e+002 9.964003e+002 1.876425e+002
         vertex 1.881090e+002 9.964003e+002 5.178425e+002
      endloop
   endfacet
   facet normal -3.420462e-001 -9.396831e-001 0.000000e+000
      outer loop
         vertex 1.881090e+002 9.964003e+002 5.178425e+002
         vertex 1.881090e+002 9.964003e+002 1.876425e+002
         vertex 1.975475e+002 9.931964e+002 1.876425e+002
      endloop
   endfacet
   facet normal -3.006794e-001 -9.537253e-001 0.000000e+000
      outer loop
         vertex 1.881090e+002 9.964003e+002 5.178425e+002
         vertex 1.975475e+002 9.931964e+002 1.876425e+002
         vertex 1.975475e+002 9.931964e+002 5.178425e+002
      endloop
   endfacet
   facet normal -2.164667e-001 -9.762900e-001 0.000000e+000
      outer loop
         vertex 1.975475e+002 9.931964e+002 5.178425e+002
         vertex 1.975475e+002 9.931964e+002 1.876425e+002
         vertex 2.073234e+002 9.912519e+002 1.876425e+002
      endloop
   endfacet
   facet normal -1.736209e-001 -9.848126e-001 0.000000e+000
      outer loop
         vertex 1.975475e+002 9.931964e+002 5.178425e+002
         vertex 2.073234e+002 9.912519e+002 1.876425e+002
         vertex 2.073234e+002 9.912519e+002 5.178425e+002
      endloop
   endfacet
   facet normal -8.718336e-002 -9.961923e-001 0.000000e+000
      outer loop
         vertex 2.073234e+002 9.912519e+002 5.178425e+002
         vertex 2.073234e+002 9.912519e+002 1.876425e+002
         vertex 2.172695e+002 9.906000e+002 1.876425e+002
      endloop
   endfacet
   facet normal -4.359168e-002 -9.990494e-001 0.000000e+000
      outer loop
         vertex 2.073234e+002 9.912519e+002 5.178425e+002
         vertex 2.172695e+002 9.906000e+002 1.876425e+002
         vertex 2.172695e+002 9.906000e+002 5.178425e+002
      endloop
   endfacet
   facet normal -2.185478e-015 -1.000000e+000 0.000000e+000
      outer loop
         vertex 2.680695e+002 9.906000e+002 5.178425e+002
         vertex 2.172695e+002 9.906000e+002 5.178425e+002
         vertex 2.680695e+002 9.906000e+002 1.876425e+002
      endloop
   endfacet
   facet normal -2.185478e-015 -1.000000e+000 0.000000e+000
      outer loop
         vertex 2.680695e+002 9.906000e+002 1.876425e+002
         vertex 2.172695e+002 9.906000e+002 5.178425e+002
         vertex 2.172695e+002 9.906000e+002 1.876425e+002
      endloop
   endfacet
   facet normal 1.000000e+000 0.000000e+000 0.000000e+000
      outer loop
         vertex 2.680695e+002 9.921000e+002 5.178425e+002
         vertex 2.680695e+002 9.906000e+002 5.178425e+002
         vertex 2.680695e+002 9.921000e+002 1.876425e+002
      endloop
   endfacet
   facet normal 1.000000e+000 0.000000e+000 0.000000e+000
      outer loop
         vertex 2.680695e+002 9.921000e+002 1.876425e+002
         vertex 2.680695e+002 9.906000e+002 5.178425e+002
         vertex 2.680695e+002 9.906000e+002 1.876425e+002
      endloop
   endfacet
   facet normal 2.185478e-015 1.000000e+000 0.000000e+000
      outer loop
         vertex 2.172695e+002 9.921000e+002 5.178425e+002
         vertex 2.680695e+002 9.921000e+002 5.178425e+002
         vertex 2.172695e+002 9.921000e+002 1.876425e+002
      endloop
   endfacet
   facet normal 2.185478e-015 1.000000e+000 0.000000e+000
      outer loop
         vertex 2.172695e+002 9.921000e+002 1.876425e+002
         vertex 2.680695e+002 9.921000e+002 5.178425e+002
         vertex 2.680695e+002 9.921000e+002 1.876425e+002
      endloop
   endfacet
   facet normal 4.754595e-002 9.988691e-001 0.000000e+000
      outer loop
         vertex 2.172695e+002 9.921000e+002 5.178425e+002
         vertex 2.172695e+002 9.921000e+002 1.876425e+002
         vertex 2.066386e+002 9.928603e+002 1.876425e+002
      endloop
   endfacet
   facet normal 9.509189e-002 9.954685e-001 0.000000e+000
      outer loop
         vertex 2.172695e+002 9.921000e+002 5.178425e+002
         vertex 2.066386e+002 9.928603e+002 1.876425e+002
         vertex 2.066386e+002 9.928603e+002 5.178425e+002
      endloop
   endfacet
   facet normal 1.892159e-001 9.819355e-001 0.000000e+000
      outer loop
         vertex 2.066386e+002 9.928603e+002 5.178425e+002
         vertex 2.066386e+002 9.928603e+002 1.876425e+002
         vertex 1.962241e+002 9.951259e+002 1.876425e+002
      endloop
   endfacet
   facet normal 2.357939e-001 9.718031e-001 0.000000e+000
      outer loop
         vertex 2.066386e+002 9.928603e+002 5.178425e+002
         vertex 1.962241e+002 9.951259e+002 1.876425e+002
         vertex 1.962241e+002 9.951259e+002 5.178425e+002
      endloop
   endfacet
   facet normal 3.270339e-001 9.450126e-001 0.000000e+000
      outer loop
         vertex 1.962241e+002 9.951259e+002 5.178425e+002
         vertex 1.962241e+002 9.951259e+002 1.876425e+002
         vertex 1.862380e+002 9.988505e+002 1.876425e+002
      endloop
   endfacet
   facet normal 3.716959e-001 9.283546e-001 0.000000e+000
      outer loop
         vertex 1.962241e+002 9.951259e+002 5.178425e+002
         vertex 1.862380e+002 9.988505e+002 1.876425e+002
         vertex 1.862380e+002 9.988505e+002 5.178425e+002
      endloop
   endfacet
   facet normal 4.581946e-001 8.888519e-001 0.000000e+000
      outer loop
         vertex 1.862380e+002 9.988505e+002 5.178425e+002
         vertex 1.862380e+002 9.988505e+002 1.876425e+002
         vertex 1.768836e+002 1.003958e+003 1.876425e+002
      endloop
   endfacet
   facet normal 5.000312e-001 8.660074e-001 0.000000e+000
      outer loop
         vertex 1.862380e+002 9.988505e+002 5.178425e+002
         vertex 1.768836e+002 1.003958e+003 1.876425e+002
         vertex 1.768836e+002 1.003958e+003 5.178425e+002
      endloop
   endfacet
   facet normal 5.800276e-001 8.145968e-001 0.000000e+000
      outer loop
         vertex 1.768836e+002 1.003958e+003 5.178425e+002
         vertex 1.768836e+002 1.003958e+003 1.876425e+002
         vertex 1.683514e+002 1.010345e+003 1.876425e+002
      endloop
   endfacet
   facet normal 6.181873e-001 7.860308e-001 0.000000e+000
      outer loop
         vertex 1.768836e+002 1.003958e+003 5.178425e+002
         vertex 1.683514e+002 1.010345e+003 1.876425e+002
         vertex 1.683514e+002 1.010345e+003 5.178425e+002
      endloop
   endfacet
   facet normal 6.900530e-001 7.237589e-001 0.000000e+000
      outer loop
         vertex 1.683514e+002 1.010345e+003 5.178425e+002
         vertex 1.683514e+002 1.010345e+003 1.876425e+002
         vertex 1.608150e+002 1.017882e+003 1.876425e+002
      endloop
   endfacet
   facet normal 7.237589e-001 6.900530e-001 0.000000e+000
      outer loop
         vertex 1.683514e+002 1.010345e+003 5.178425e+002
         vertex 1.608150e+002 1.017882e+003 1.876425e+002
         vertex 1.608150e+002 1.017882e+003 5.178425e+002
      endloop
   endfacet
   facet normal 7.860308e-001 6.181873e-001 0.000000e+000
      outer loop
         vertex 1.608150e+002 1.017882e+003 5.178425e+002
         vertex 1.608150e+002 1.017882e+003 1.876425e+002
         vertex 1.544278e+002 1.026414e+003 1.876425e+002
      endloop
   endfacet
   facet normal 8.145968e-001 5.800276e-001 0.000000e+000
      outer loop
         vertex 1.608150e+002 1.017882e+003 5.178425e+002
         vertex 1.544278e+002 1.026414e+003 1.876425e+002
         vertex 1.544278e+002 1.026414e+003 5.178425e+002
      endloop
   endfacet
   facet normal 8.660074e-001 5.000312e-001 0.000000e+000
      outer loop
         vertex 1.544278e+002 1.026414e+003 5.178425e+002
         vertex 1.544278e+002 1.026414e+003 1.876425e+002
         vertex 1.493200e+002 1.035769e+003 1.876425e+002
      endloop
   endfacet
   facet normal 8.888519e-001 4.581946e-001 0.000000e+000
      outer loop
         vertex 1.544278e+002 1.026414e+003 5.178425e+002
         vertex 1.493200e+002 1.035769e+003 1.876425e+002
         vertex 1.493200e+002 1.035769e+003 5.178425e+002
      endloop
   endfacet
   facet normal 9.283546e-001 3.716959e-001 0.000000e+000
      outer loop
         vertex 1.493200e+002 1.035769e+003 5.178425e+002
         vertex 1.493200e+002 1.035769e+003 1.876425e+002
         vertex 1.455954e+002 1.045755e+003 1.876425e+002
      endloop
   endfacet
   facet normal 9.450126e-001 3.270340e-001 0.000000e+000
      outer loop
         vertex 1.493200e+002 1.035769e+003 5.178425e+002
         vertex 1.455954e+002 1.045755e+003 1.876425e+002
         vertex 1.455954e+002 1.045755e+003 5.178425e+002
      endloop
   endfacet
   facet normal 9.718031e-001 2.357939e-001 0.000000e+000
      outer loop
         vertex 1.455954e+002 1.045755e+003 5.178425e+002
         vertex 1.455954e+002 1.045755e+003 1.876425e+002
         vertex 1.433298e+002 1.056169e+003 1.876425e+002
      endloop
   endfacet
   facet normal 9.819355e-001 1.892159e-001 0.000000e+000
      outer loop
         vertex 1.455954e+002 1.045755e+003 5.178425e+002
         vertex 1.433298e+002 1.056169e+003 1.876425e+002
         vertex 1.433298e+002 1.056169e+003 5.178425e+002
      endloop
   endfacet
   facet normal 9.954685e-001 9.509189e-002 0.000000e+000
      outer loop
         vertex 1.433298e+002 1.056169e+003 5.178425e+002
         vertex 1.433298e+002 1.056169e+003 1.876425e+002
         vertex 1.425695e+002 1.066800e+003 1.876425e+002
      endloop
   endfacet
   facet normal 9.988691e-001 4.754595e-002 0.000000e+000
      outer loop
         vertex 1.433298e+002 1.056169e+003 5.178425e+002
         vertex 1.425695e+002 1.066800e+003 1.876425e+002
         vertex 1.425695e+002 1.066800e+003 5.178425e+002
      endloop
   endfacet
   facet normal 0.000000e+000 0.000000e+000 1.000000e+000
      outer loop
         vertex 2.680695e+002 9.906000e+002 5.178425e+002
         vertex 2.680695e+002 9.921000e+002 5.178425e+002
         vertex 2.172695e+002 9.906000e+002 5.178425e+002
      endloop
   endfacet
   facet normal 0.000000e+000 0.000000e+000 1.000000e+000
      outer loop
         vertex 2.172695e+002 9.906000e+002 5.178425e+002
         vertex 2.680695e+002 9.921000e+002 5.178425e+002
         vertex 2.172695e+002 9.921000e+002 5.178425e+002
      endloop
   endfacet
   facet normal 0.000000e+000 0.000000e+000 1.000000e+000
      outer loop
         vertex 2.172695e+002 9.906000e+002 5.178425e+002
         vertex 2.172695e+002 9.921000e+002 5.178425e+002
         vertex 2.073234e+002 9.912519e+002 5.178425e+002
      endloop
   endfacet
   facet normal 0.000000e+000 0.000000e+000 1.000000e+000
      outer loop
         vertex 2.073234e+002 9.912519e+002 5.178425e+002
         vertex 2.172695e+002 9.921000e+002 5.178425e+002
         vertex 2.066386e+002 9.928603e+002 5.178425e+002
      endloop
   endfacet
   facet normal 0.000000e+000 0.000000e+000 1.000000e+000
      outer loop
         vertex 2.073234e+002 9.912519e+002 5.178425e+002
         vertex 2.066386e+002 9.928603e+002 5.178425e+002
         vertex 1.975475e+002 9.931964e+002 5.178425e+002
      endloop
   endfacet
   facet normal 0.000000e+000 0.000000e+000 1.000000e+000
      outer loop
         vertex 1.975475e+002 9.931964e+002 5.178425e+002
         vertex 2.066386e+002 9.928603e+002 5.178425e+002
         vertex 1.962241e+002 9.951259e+002 5.178425e+002
      endloop
   endfacet
   facet normal 0.000000e+000 0.000000e+000 1.000000e+000
      outer loop
         vertex 1.975475e+002 9.931964e+002 5.178425e+002
         vertex 1.962241e+002 9.951259e+002 5.178425e+002
         vertex 1.881090e+002 9.964003e+002 5.178425e+002
      endloop
   endfacet
   facet normal 0.000000e+000 0.000000e+000 1.000000e+000
      outer loop
         vertex 1.881090e+002 9.964003e+002 5.178425e+002
         vertex 1.962241e+002 9.951259e+002 5.178425e+002
         vertex 1.862380e+002 9.988505e+002 5.178425e+002
      endloop
   endfacet
   facet normal 0.000000e+000 0.000000e+000 1.000000e+000
      outer loop
         vertex 1.881090e+002 9.964003e+002 5.178425e+002
         vertex 1.862380e+002 9.988505e+002 5.178425e+002
         vertex 1.791695e+002 1.000809e+003 5.178425e+002
      endloop
   endfacet
   facet normal 0.000000e+000 0.000000e+000 1.000000e+000
      outer loop
         vertex 1.791695e+002 1.000809e+003 5.178425e+002
         vertex 1.862380e+002 9.988505e+002 5.178425e+002
         vertex 1.768836e+002 1.003958e+003 5.178425e+002
      endloop
   endfacet
   facet normal 0.000000e+000 0.000000e+000 1.000000e+000
      outer loop
         vertex 1.791695e+002 1.000809e+003 5.178425e+002
         vertex 1.768836e+002 1.003958e+003 5.178425e+002
         vertex 1.708819e+002 1.006346e+003 5.178425e+002
      endloop
   endfacet
   facet normal 0.000000e+000 0.000000e+000 1.000000e+000
      outer loop
         vertex 1.708819e+002 1.006346e+003 5.178425e+002
         vertex 1.768836e+002 1.003958e+003 5.178425e+002
         vertex 1.683514e+002 1.010345e+003 5.178425e+002
      endloop
   endfacet
   facet normal 0.000000e+000 0.000000e+000 1.000000e+000
      outer loop
         vertex 1.708819e+002 1.006346e+003 5.178425e+002
         vertex 1.683514e+002 1.010345e+003 5.178425e+002
         vertex 1.633880e+002 1.012918e+003 5.178425e+002
      endloop
   endfacet
   facet normal 0.000000e+000 0.000000e+000 1.000000e+000
      outer loop
         vertex 1.633880e+002 1.012918e+003 5.178425e+002
         vertex 1.683514e+002 1.010345e+003 5.178425e+002
         vertex 1.608150e+002 1.017882e+003 5.178425e+002
      endloop
   endfacet
   facet normal 0.000000e+000 0.000000e+000 1.000000e+000
      outer loop
         vertex 1.633880e+002 1.012918e+003 5.178425e+002
         vertex 1.608150e+002 1.017882e+003 5.178425e+002
         vertex 1.568159e+002 1.020412e+003 5.178425e+002
      endloop
   endfacet
   facet normal 0.000000e+000 0.000000e+000 1.000000e+000
      outer loop
         vertex 1.568159e+002 1.020412e+003 5.178425e+002
         vertex 1.608150e+002 1.017882e+003 5.178425e+002
         vertex 1.544278e+002 1.026414e+003 5.178425e+002
      endloop
   endfacet
   facet normal 0.000000e+000 0.000000e+000 1.000000e+000
      outer loop
         vertex 1.425695e+002 1.168400e+003 5.178425e+002
         vertex 1.410695e+002 1.168400e+003 5.178425e+002
         vertex 1.425695e+002 1.066800e+003 5.178425e+002
      endloop
   endfacet
   facet normal 0.000000e+000 0.000000e+000 1.000000e+000
      outer loop
         vertex 1.425695e+002 1.066800e+003 5.178425e+002
         vertex 1.410695e+002 1.168400e+003 5.178425e+002
         vertex 1.410695e+002 1.066800e+003 5.178425e+002
      endloop
   endfacet
   facet normal 0.000000e+000 0.000000e+000 1.000000e+000
      outer loop
         vertex 1.425695e+002 1.066800e+003 5.178425e+002
         vertex 1.410695e+002 1.066800e+003 5.178425e+002
         vertex 1.433298e+002 1.056169e+003 5.178425e+002
      endloop
   endfacet
   facet normal 0.000000e+000 0.000000e+000 1.000000e+000
      outer loop
         vertex 1.433298e+002 1.056169e+003 5.178425e+002
         vertex 1.410695e+002 1.066800e+003 5.178425e+002
         vertex 1.417214e+002 1.056854e+003 5.178425e+002
      endloop
   endfacet
   facet normal 0.000000e+000 0.000000e+000 1.000000e+000
      outer loop
         vertex 1.433298e+002 1.056169e+003 5.178425e+002
         vertex 1.417214e+002 1.056854e+003 5.178425e+002
         vertex 1.455954e+002 1.045755e+003 5.178425e+002
      endloop
   endfacet
   facet normal 0.000000e+000 0.000000e+000 1.000000e+000
      outer loop
         vertex 1.455954e+002 1.045755e+003 5.178425e+002
         vertex 1.417214e+002 1.056854e+003 5.178425e+002
         vertex 1.436660e+002 1.047078e+003 5.178425e+002
      endloop
   endfacet
   facet normal 0.000000e+000 0.000000e+000 1.000000e+000
      outer loop
         vertex 1.455954e+002 1.045755e+003 5.178425e+002
         vertex 1.436660e+002 1.047078e+003 5.178425e+002
         vertex 1.493200e+002 1.035769e+003 5.178425e+002
      endloop
   endfacet
   facet normal 0.000000e+000 0.000000e+000 1.000000e+000
      outer loop
         vertex 1.493200e+002 1.035769e+003 5.178425e+002
         vertex 1.436660e+002 1.047078e+003 5.178425e+002
         vertex 1.468698e+002 1.037640e+003 5.178425e+002
      endloop
   endfacet
   facet normal 0.000000e+000 0.000000e+000 1.000000e+000
      outer loop
         vertex 1.493200e+002 1.035769e+003 5.178425e+002
         vertex 1.468698e+002 1.037640e+003 5.178425e+002
         vertex 1.544278e+002 1.026414e+003 5.178425e+002
      endloop
   endfacet
   facet normal 0.000000e+000 0.000000e+000 1.000000e+000
      outer loop
         vertex 1.544278e+002 1.026414e+003 5.178425e+002
         vertex 1.468698e+002 1.037640e+003 5.178425e+002
         vertex 1.512784e+002 1.028700e+003 5.178425e+002
      endloop
   endfacet
   facet normal 0.000000e+000 0.000000e+000 1.000000e+000
      outer loop
         vertex 1.544278e+002 1.026414e+003 5.178425e+002
         vertex 1.512784e+002 1.028700e+003 5.178425e+002
         vertex 1.568159e+002 1.020412e+003 5.178425e+002
      endloop
   endfacet
   facet normal 0.000000e+000 0.000000e+000 -1.000000e+000
      outer loop
         vertex 1.768836e+002 1.003958e+003 1.876425e+002
         vertex 1.708819e+002 1.006346e+003 1.876425e+002
         vertex 1.683514e+002 1.010345e+003 1.876425e+002
      endloop
   endfacet
   facet normal 0.000000e+000 0.000000e+000 -1.000000e+000
      outer loop
         vertex 1.683514e+002 1.010345e+003 1.876425e+002
         vertex 1.708819e+002 1.006346e+003 1.876425e+002
         vertex 1.633880e+002 1.012918e+003 1.876425e+002
      endloop
   endfacet
   facet normal 0.000000e+000 0.000000e+000 -1.000000e+000
      outer loop
         vertex 1.683514e+002 1.010345e+003 1.876425e+002
         vertex 1.633880e+002 1.012918e+003 1.876425e+002
         vertex 1.608150e+002 1.017882e+003 1.876425e+002
      endloop
   endfacet
   facet normal 0.000000e+000 0.000000e+000 -1.000000e+000
      outer loop
         vertex 1.608150e+002 1.017882e+003 1.876425e+002
         vertex 1.633880e+002 1.012918e+003 1.876425e+002
         vertex 1.568159e+002 1.020412e+003 1.876425e+002
      endloop
   endfacet
   facet normal 0.000000e+000 0.000000e+000 -1.000000e+000
      outer loop
         vertex 1.608150e+002 1.017882e+003 1.876425e+002
         vertex 1.568159e+002 1.020412e+003 1.876425e+002
         vertex 1.544278e+002 1.026414e+003 1.876425e+002
      endloop
   endfacet
   facet normal 0.000000e+000 0.000000e+000 -1.000000e+000
      outer loop
         vertex 1.544278e+002 1.026414e+003 1.876425e+002
         vertex 1.568159e+002 1.020412e+003 1.876425e+002
         vertex 1.512784e+002 1.028700e+003 1.876425e+002
      endloop
   endfacet
   facet normal 0.000000e+000 0.000000e+000 -1.000000e+000
      outer loop
         vertex 1.544278e+002 1.026414e+003 1.876425e+002
         vertex 1.512784e+002 1.028700e+003 1.876425e+002
         vertex 1.493200e+002 1.035769e+003 1.876425e+002
      endloop
   endfacet
   facet normal 0.000000e+000 0.000000e+000 -1.000000e+000
      outer loop
         vertex 1.493200e+002 1.035769e+003 1.876425e+002
         vertex 1.512784e+002 1.028700e+003 1.876425e+002
         vertex 1.468698e+002 1.037640e+003 1.876425e+002
      endloop
   endfacet
   facet normal 0.000000e+000 0.000000e+000 -1.000000e+000
      outer loop
         vertex 1.493200e+002 1.035769e+003 1.876425e+002
         vertex 1.468698e+002 1.037640e+003 1.876425e+002
         vertex 1.455954e+002 1.045755e+003 1.876425e+002
      endloop
   endfacet
   facet normal 0.000000e+000 0.000000e+000 -1.000000e+000
      outer loop
         vertex 1.455954e+002 1.045755e+003 1.876425e+002
         vertex 1.468698e+002 1.037640e+003 1.876425e+002
         vertex 1.436660e+002 1.047078e+003 1.876425e+002
      endloop
   endfacet
   facet normal 0.000000e+000 0.000000e+000 -1.000000e+000
      outer loop
         vertex 1.455954e+002 1.045755e+003 1.876425e+002
         vertex 1.436660e+002 1.047078e+003 1.876425e+002
         vertex 1.433298e+002 1.056169e+003 1.876425e+002
      endloop
   endfacet
   facet normal 0.000000e+000 0.000000e+000 -1.000000e+000
      outer loop
         vertex 1.433298e+002 1.056169e+003 1.876425e+002
         vertex 1.436660e+002 1.047078e+003 1.876425e+002
         vertex 1.417214e+002 1.056854e+003 1.876425e+002
      endloop
   endfacet
   facet normal 0.000000e+000 0.000000e+000 -1.000000e+000
      outer loop
         vertex 1.433298e+002 1.056169e+003 1.876425e+002
         vertex 1.417214e+002 1.056854e+003 1.876425e+002
         vertex 1.425695e+002 1.066800e+003 1.876425e+002
      endloop
   endfacet
   facet normal 0.000000e+000 0.000000e+000 -1.000000e+000
      outer loop
         vertex 1.425695e+002 1.066800e+003 1.876425e+002
         vertex 1.417214e+002 1.056854e+003 1.876425e+002
         vertex 1.410695e+002 1.066800e+003 1.876425e+002
      endloop
   endfacet
   facet normal 0.000000e+000 0.000000e+000 -1.000000e+000
      outer loop
         vertex 1.425695e+002 1.066800e+003 1.876425e+002
         vertex 1.410695e+002 1.066800e+003 1.876425e+002
         vertex 1.425695e+002 1.168400e+003 1.876425e+002
      endloop
   endfacet
   facet normal 0.000000e+000 0.000000e+000 -1.000000e+000
      outer loop
         vertex 1.425695e+002 1.168400e+003 1.876425e+002
         vertex 1.410695e+002 1.066800e+003 1.876425e+002
         vertex 1.410695e+002 1.168400e+003 1.876425e+002
      endloop
   endfacet
   facet normal 0.000000e+000 0.000000e+000 -1.000000e+000
      outer loop
         vertex 2.680695e+002 9.921000e+002 1.876425e+002
         vertex 2.680695e+002 9.906000e+002 1.876425e+002
         vertex 2.172695e+002 9.921000e+002 1.876425e+002
      endloop
   endfacet
   facet normal 0.000000e+000 0.000000e+000 -1.000000e+000
      outer loop
         vertex 2.172695e+002 9.921000e+002 1.876425e+002
         vertex 2.680695e+002 9.906000e+002 1.876425e+002
         vertex 2.172695e+002 9.906000e+002 1.876425e+002
      endloop
   endfacet
   facet normal 0.000000e+000 0.000000e+000 -1.000000e+000
      outer loop
         vertex 2.172695e+002 9.921000e+002 1.876425e+002
         vertex 2.172695e+002 9.906000e+002 1.876425e+002
         vertex 2.066386e+002 9.928603e+002 1.876425e+002
      endloop
   endfacet
   facet normal 0.000000e+000 0.000000e+000 -1.000000e+000
      outer loop
         vertex 2.066386e+002 9.928603e+002 1.876425e+002
         vertex 2.172695e+002 9.906000e+002 1.876425e+002
         vertex 2.073234e+002 9.912519e+002 1.876425e+002
      endloop
   endfacet
   facet normal 0.000000e+000 0.000000e+000 -1.000000e+000
      outer loop
         vertex 2.066386e+002 9.928603e+002 1.876425e+002
         vertex 2.073234e+002 9.912519e+002 1.876425e+002
         vertex 1.962241e+002 9.951259e+002 1.876425e+002
      endloop
   endfacet
   facet normal 0.000000e+000 0.000000e+000 -1.000000e+000
      outer loop
         vertex 1.962241e+002 9.951259e+002 1.876425e+002
         vertex 2.073234e+002 9.912519e+002 1.876425e+002
         vertex 1.975475e+002 9.931964e+002 1.876425e+002
      endloop
   endfacet
   facet normal 0.000000e+000 0.000000e+000 -1.000000e+000
      outer loop
         vertex 1.962241e+002 9.951259e+002 1.876425e+002
         vertex 1.975475e+002 9.931964e+002 1.876425e+002
         vertex 1.862380e+002 9.988505e+002 1.876425e+002
      endloop
   endfacet
   facet normal 0.000000e+000 0.000000e+000 -1.000000e+000
      outer loop
         vertex 1.862380e+002 9.988505e+002 1.876425e+002
         vertex 1.975475e+002 9.931964e+002 1.876425e+002
         vertex 1.881090e+002 9.964003e+002 1.876425e+002
      endloop
   endfacet
   facet normal 0.000000e+000 0.000000e+000 -1.000000e+000
      outer loop
         vertex 1.862380e+002 9.988505e+002 1.876425e+002
         vertex 1.881090e+002 9.964003e+002 1.876425e+002
         vertex 1.768836e+002 1.003958e+003 1.876425e+002
      endloop
   endfacet
   facet normal 0.000000e+000 0.000000e+000 -1.000000e+000
      outer loop
         vertex 1.768836e+002 1.003958e+003 1.876425e+002
         vertex 1.881090e+002 9.964003e+002 1.876425e+002
         vertex 1.791695e+002 1.000809e+003 1.876425e+002
      endloop
   endfacet
   facet normal 0.000000e+000 0.000000e+000 -1.000000e+000
      outer loop
         vertex 1.768836e+002 1.003958e+003 1.876425e+002
         vertex 1.791695e+002 1.000809e+003 1.876425e+002
         vertex 1.708819e+002 1.006346e+003 1.876425e+002
      endloop
   endfacet
endsolid