solid PumpAssembly - Screw2-1
   facet normal -6.381136e-001 -2.106683e-016 7.699422e-001
      outer loop
         vertex 2.538997e+002 1.493260e+002 1.197647e+002
         vertex 2.542256e+002 1.723261e+002 1.200183e+002
         vertex 2.538843e+002 1.493260e+002 1.197478e+002
      endloop
   endfacet
   facet normal -6.404724e-001 -2.110994e-016 7.679812e-001
      outer loop
         vertex 2.538843e+002 1.493260e+002 1.197478e+002
         vertex 2.542256e+002 1.723261e+002 1.200183e+002
         vertex 2.538829e+002 1.723261e+002 1.197490e+002
      endloop
   endfacet
   facet normal -7.209911e-001 -2.252308e-016 6.929443e-001
      outer loop
         vertex 2.538843e+002 1.493260e+002 1.197478e+002
         vertex 2.538829e+002 1.723261e+002 1.197490e+002
         vertex 2.536201e+002 1.493260e+002 1.194609e+002
      endloop
   endfacet
   facet normal -7.601210e-001 -2.316140e-016 6.497815e-001
      outer loop
         vertex 2.536201e+002 1.493260e+002 1.194609e+002
         vertex 2.538829e+002 1.723261e+002 1.197490e+002
         vertex 2.535950e+002 1.493260e+002 1.194225e+002
      endloop
   endfacet
   facet normal -7.640933e-001 -2.322407e-016 6.451057e-001
      outer loop
         vertex 2.535950e+002 1.493260e+002 1.194225e+002
         vertex 2.538829e+002 1.723261e+002 1.197490e+002
         vertex 2.535922e+002 1.723261e+002 1.194244e+002
      endloop
   endfacet
   facet normal -8.286541e-001 -2.417506e-016 5.597610e-001
      outer loop
         vertex 2.535950e+002 1.493260e+002 1.194225e+002
         vertex 2.535922e+002 1.723261e+002 1.194244e+002
         vertex 2.533943e+002 1.493260e+002 1.191152e+002
      endloop
   endfacet
   facet normal -8.598409e-001 -2.457679e-016 5.105621e-001
      outer loop
         vertex 2.533943e+002 1.493260e+002 1.191152e+002
         vertex 2.535922e+002 1.723261e+002 1.194244e+002
         vertex 2.533667e+002 1.493260e+002 1.190523e+002
      endloop
   endfacet
   facet normal -8.645034e-001 -2.463266e-016 5.026269e-001
      outer loop
         vertex 2.533667e+002 1.493260e+002 1.190523e+002
         vertex 2.535922e+002 1.723261e+002 1.194244e+002
         vertex 2.533623e+002 1.723261e+002 1.190542e+002
      endloop
   endfacet
   facet normal -9.120152e-001 -2.511802e-016 4.101564e-001
      outer loop
         vertex 2.533667e+002 1.493260e+002 1.190523e+002
         vertex 2.533623e+002 1.723261e+002 1.190542e+002
         vertex 2.532284e+002 1.493260e+002 1.187371e+002
      endloop
   endfacet
   facet normal -9.343465e-001 -2.527146e-016 3.563659e-001
      outer loop
         vertex 2.532284e+002 1.493260e+002 1.187371e+002
         vertex 2.533623e+002 1.723261e+002 1.190542e+002
         vertex 2.532059e+002 1.493260e+002 1.186482e+002
      endloop
   endfacet
   facet normal -9.386495e-001 -2.529287e-016 3.448727e-001
      outer loop
         vertex 2.532059e+002 1.493260e+002 1.186482e+002
         vertex 2.533623e+002 1.723261e+002 1.190542e+002
         vertex 2.532002e+002 1.723261e+002 1.186497e+002
      endloop
   endfacet
   facet normal -9.686273e-001 -2.532425e-016 2.485178e-001
      outer loop
         vertex 2.532059e+002 1.493260e+002 1.186482e+002
         vertex 2.532002e+002 1.723261e+002 1.186497e+002
         vertex 2.531270e+002 1.493260e+002 1.183368e+002
      endloop
   endfacet
   facet normal -9.814507e-001 -2.522497e-016 1.917148e-001
      outer loop
         vertex 2.531270e+002 1.493260e+002 1.183368e+002
         vertex 2.532002e+002 1.723261e+002 1.186497e+002
         vertex 2.531176e+002 1.493260e+002 1.182226e+002
      endloop
   endfacet
   facet normal -9.842762e-001 -2.518456e-016 1.766360e-001
      outer loop
         vertex 2.531176e+002 1.493260e+002 1.182226e+002
         vertex 2.532002e+002 1.723261e+002 1.186497e+002
         vertex 2.531108e+002 1.723261e+002 1.182232e+002
      endloop
   endfacet
   facet normal -9.968280e-001 -2.478766e-016 7.958686e-002
      outer loop
         vertex 2.531176e+002 1.493260e+002 1.182226e+002
         vertex 2.531108e+002 1.723261e+002 1.182232e+002
         vertex 2.530929e+002 1.493260e+002 1.179253e+002
      endloop
   endfacet
   facet normal -9.997708e-001 -2.443845e-016 2.141014e-002
      outer loop
         vertex 2.530929e+002 1.493260e+002 1.179253e+002
         vertex 2.531108e+002 1.723261e+002 1.182232e+002
         vertex 2.530968e+002 1.723261e+002 1.177876e+002
      endloop
   endfacet
   facet normal -9.993262e-001 -2.400742e-016 -3.670476e-002
      outer loop
         vertex 2.530929e+002 1.493260e+002 1.179253e+002
         vertex 2.530968e+002 1.723261e+002 1.177876e+002
         vertex 2.531043e+002 1.493260e+002 1.177883e+002
      endloop
   endfacet
   facet normal -9.957884e-001 -2.352394e-016 -9.168113e-002
      outer loop
         vertex 2.531043e+002 1.493260e+002 1.177883e+002
         vertex 2.530968e+002 1.723261e+002 1.177876e+002
         vertex 2.531270e+002 1.493260e+002 1.175139e+002
      endloop
   endfacet
   facet normal -9.887634e-001 -2.293529e-016 -1.494891e-001
      outer loop
         vertex 2.531270e+002 1.493260e+002 1.175139e+002
         vertex 2.530968e+002 1.723261e+002 1.177876e+002
         vertex 2.531586e+002 1.723261e+002 1.173563e+002
      endloop
   endfacet
   facet normal -9.784060e-001 -2.227007e-016 -2.066925e-001
      outer loop
         vertex 2.531270e+002 1.493260e+002 1.175139e+002
         vertex 2.531586e+002 1.723261e+002 1.173563e+002
         vertex 2.531664e+002 1.493260e+002 1.173583e+002
      endloop
   endfacet
   facet normal -9.655382e-001 -2.157016e-016 -2.602613e-001
      outer loop
         vertex 2.531664e+002 1.493260e+002 1.173583e+002
         vertex 2.531586e+002 1.723261e+002 1.173563e+002
         vertex 2.532284e+002 1.493260e+002 1.171136e+002
      endloop
   endfacet
   facet normal -9.487578e-001 -2.075950e-016 -3.160042e-001
      outer loop
         vertex 2.532284e+002 1.493260e+002 1.171136e+002
         vertex 2.531586e+002 1.723261e+002 1.173563e+002
         vertex 2.532944e+002 1.723261e+002 1.169422e+002
      endloop
   endfacet
   facet normal -9.287850e-001 -1.987944e-016 -3.706190e-001
      outer loop
         vertex 2.532284e+002 1.493260e+002 1.171136e+002
         vertex 2.532944e+002 1.723261e+002 1.169422e+002
         vertex 2.533021e+002 1.493260e+002 1.169456e+002
      endloop
   endfacet
   facet normal -9.069642e-001 -1.898362e-016 -4.212078e-001
      outer loop
         vertex 2.533021e+002 1.493260e+002 1.169456e+002
         vertex 2.532944e+002 1.723261e+002 1.169422e+002
         vertex 2.533942e+002 1.493260e+002 1.167355e+002
      endloop
   endfacet
   facet normal -8.809274e-001 -1.797487e-016 -4.732514e-001
      outer loop
         vertex 2.533942e+002 1.493260e+002 1.167355e+002
         vertex 2.532944e+002 1.723261e+002 1.169422e+002
         vertex 2.535000e+002 1.723261e+002 1.165580e+002
      endloop
   endfacet
   facet normal -8.519183e-001 -1.690564e-016 -5.236748e-001
      outer loop
         vertex 2.533942e+002 1.493260e+002 1.167355e+002
         vertex 2.535000e+002 1.723261e+002 1.165580e+002
         vertex 2.535072e+002 1.493260e+002 1.165627e+002
      endloop
   endfacet
   facet normal -8.217846e-001 -1.584019e-016 -5.697984e-001
      outer loop
         vertex 2.535072e+002 1.493260e+002 1.165627e+002
         vertex 2.535000e+002 1.723261e+002 1.165580e+002
         vertex 2.536201e+002 1.493260e+002 1.163898e+002
      endloop
   endfacet
   facet normal -7.872615e-001 -1.466309e-016 -6.166193e-001
      outer loop
         vertex 2.536201e+002 1.493260e+002 1.163898e+002
         vertex 2.535000e+002 1.723261e+002 1.165580e+002
         vertex 2.537692e+002 1.723261e+002 1.162153e+002
      endloop
   endfacet
   facet normal -7.500606e-001 -1.343591e-016 -6.613691e-001
      outer loop
         vertex 2.536201e+002 1.493260e+002 1.163898e+002
         vertex 2.537692e+002 1.723261e+002 1.162153e+002
         vertex 2.537755e+002 1.493260e+002 1.162210e+002
      endloop
   endfacet
   facet normal -7.124984e-001 -1.223211e-016 -7.016737e-001
      outer loop
         vertex 2.537755e+002 1.493260e+002 1.162210e+002
         vertex 2.537692e+002 1.723261e+002 1.162153e+002
         vertex 2.538997e+002 1.493260e+002 1.160860e+002
      endloop
   endfacet
   facet normal -6.705070e-001 -1.092127e-016 -7.419032e-001
      outer loop
         vertex 2.538997e+002 1.493260e+002 1.160860e+002
         vertex 2.537692e+002 1.723261e+002 1.162153e+002
         vertex 2.540939e+002 1.723261e+002 1.159246e+002
      endloop
   endfacet
   facet normal -6.262002e-001 -9.572050e-017 -7.796623e-001
      outer loop
         vertex 2.538997e+002 1.493260e+002 1.160860e+002
         vertex 2.540939e+002 1.723261e+002 1.159246e+002
         vertex 2.540989e+002 1.493260e+002 1.159310e+002
      endloop
   endfacet
   facet normal -5.823125e-001 -8.265236e-017 -8.129650e-001
      outer loop
         vertex 2.540989e+002 1.493260e+002 1.159310e+002
         vertex 2.540939e+002 1.723261e+002 1.159246e+002
         vertex 2.542256e+002 1.493260e+002 1.158324e+002
      endloop
   endfacet
   facet normal -5.340880e-001 -6.859152e-017 -8.454289e-001
      outer loop
         vertex 2.542256e+002 1.493260e+002 1.158324e+002
         vertex 2.540939e+002 1.723261e+002 1.159246e+002
         vertex 2.544641e+002 1.723261e+002 1.156947e+002
      endloop
   endfacet
   facet normal -4.839712e-001 -5.427415e-017 -8.750839e-001
      outer loop
         vertex 2.542256e+002 1.493260e+002 1.158324e+002
         vertex 2.544641e+002 1.723261e+002 1.156947e+002
         vertex 2.544677e+002 1.493260e+002 1.157014e+002
      endloop
   endfacet
   facet normal -4.350466e-001 -4.055954e-017 -9.004079e-001
      outer loop
         vertex 2.544677e+002 1.493260e+002 1.157014e+002
         vertex 2.544641e+002 1.723261e+002 1.156947e+002
         vertex 2.545887e+002 1.493260e+002 1.156359e+002
      endloop
   endfacet
   facet normal -3.820053e-001 -2.595868e-017 -9.241601e-001
      outer loop
         vertex 2.545887e+002 1.493260e+002 1.156359e+002
         vertex 2.544641e+002 1.723261e+002 1.156947e+002
         vertex 2.548686e+002 1.723261e+002 1.155326e+002
      endloop
   endfacet
   facet normal -3.275468e-001 -1.123613e-017 -9.448349e-001
      outer loop
         vertex 2.545887e+002 1.493260e+002 1.156359e+002
         vertex 2.548686e+002 1.723261e+002 1.155326e+002
         vertex 2.548708e+002 1.493260e+002 1.155391e+002
      endloop
   endfacet
   facet normal -2.750220e-001 2.722323e-018 -9.614379e-001
      outer loop
         vertex 2.548708e+002 1.493260e+002 1.155391e+002
         vertex 2.548686e+002 1.723261e+002 1.155326e+002
         vertex 2.549792e+002 1.493260e+002 1.155018e+002
      endloop
   endfacet
   facet normal -2.187191e-001 1.743550e-017 -9.757879e-001
      outer loop
         vertex 2.549792e+002 1.493260e+002 1.155018e+002
         vertex 2.548686e+002 1.723261e+002 1.155326e+002
         vertex 2.552951e+002 1.723261e+002 1.154431e+002
      endloop
   endfacet
   facet normal -1.615167e-001 3.213088e-017 -9.868700e-001
      outer loop
         vertex 2.549792e+002 1.493260e+002 1.155018e+002
         vertex 2.552951e+002 1.723261e+002 1.154431e+002
         vertex 2.552961e+002 1.493260e+002 1.154490e+002
      endloop
   endfacet
   facet normal -1.069336e-001 4.592350e-017 -9.942662e-001
      outer loop
         vertex 2.552961e+002 1.493260e+002 1.154490e+002
         vertex 2.552951e+002 1.723261e+002 1.154431e+002
         vertex 2.553865e+002 1.493260e+002 1.154339e+002
      endloop
   endfacet
   facet normal -4.901813e-002 6.031841e-017 -9.987979e-001
      outer loop
         vertex 2.553865e+002 1.493260e+002 1.154339e+002
         vertex 2.552951e+002 1.723261e+002 1.154431e+002
         vertex 2.557307e+002 1.723261e+002 1.154291e+002
      endloop
   endfacet
   facet normal 9.248273e-003 7.455468e-017 -9.999573e-001
      outer loop
         vertex 2.553865e+002 1.493260e+002 1.154339e+002
         vertex 2.557307e+002 1.723261e+002 1.154291e+002
         vertex 2.557307e+002 1.493260e+002 1.154339e+002
      endloop
   endfacet
   facet normal 6.428709e-002 8.777668e-017 -9.979314e-001
      outer loop
         vertex 2.557307e+002 1.493260e+002 1.154339e+002
         vertex 2.557307e+002 1.723261e+002 1.154291e+002
         vertex 2.557994e+002 1.493260e+002 1.154339e+002
      endloop
   endfacet
   facet normal 1.221208e-001 1.014324e-016 -9.925153e-001
      outer loop
         vertex 2.557994e+002 1.493260e+002 1.154339e+002
         vertex 2.557307e+002 1.723261e+002 1.154291e+002
         vertex 2.561620e+002 1.723261e+002 1.154910e+002
      endloop
   endfacet
   facet normal 1.797382e-001 1.147908e-016 -9.837145e-001
      outer loop
         vertex 2.557994e+002 1.493260e+002 1.154339e+002
         vertex 2.561620e+002 1.723261e+002 1.154910e+002
         vertex 2.561615e+002 1.493260e+002 1.154943e+002
      endloop
   endfacet
   facet normal 2.336176e-001 1.270543e-016 -9.723285e-001
      outer loop
         vertex 2.561615e+002 1.493260e+002 1.154943e+002
         vertex 2.561620e+002 1.723261e+002 1.154910e+002
         vertex 2.562067e+002 1.493260e+002 1.155018e+002
      endloop
   endfacet
   facet normal 2.896785e-001 1.395716e-016 -9.571240e-001
      outer loop
         vertex 2.562067e+002 1.493260e+002 1.155018e+002
         vertex 2.561620e+002 1.723261e+002 1.154910e+002
         vertex 2.565761e+002 1.723261e+002 1.156268e+002
      endloop
   endfacet
   facet normal 3.449521e-001 1.516591e-016 -9.386203e-001
      outer loop
         vertex 2.562067e+002 1.493260e+002 1.155018e+002
         vertex 2.565761e+002 1.723261e+002 1.156268e+002
         vertex 2.565755e+002 1.493260e+002 1.156285e+002
      endloop
   endfacet
   facet normal 3.960915e-001 1.626046e-016 -9.182110e-001
      outer loop
         vertex 2.565755e+002 1.493260e+002 1.156285e+002
         vertex 2.565761e+002 1.723261e+002 1.156268e+002
         vertex 2.565972e+002 1.493260e+002 1.156359e+002
      endloop
   endfacet
   facet normal 4.487410e-001 1.736176e-016 -8.936619e-001
      outer loop
         vertex 2.565972e+002 1.493260e+002 1.156359e+002
         vertex 2.565761e+002 1.723261e+002 1.156268e+002
         vertex 2.569603e+002 1.723261e+002 1.158324e+002
      endloop
   endfacet
   facet normal 5.000443e-001 1.840784e-016 -8.659998e-001
      outer loop
         vertex 2.565972e+002 1.493260e+002 1.156359e+002
         vertex 2.569603e+002 1.723261e+002 1.158324e+002
         vertex 2.569603e+002 1.493260e+002 1.158324e+002
      endloop
   endfacet
   facet normal 7.640933e-001 2.322407e-016 -6.451057e-001
      outer loop
         vertex 2.573030e+002 1.723261e+002 1.161017e+002
         vertex 2.575937e+002 1.723261e+002 1.164263e+002
         vertex 2.575909e+002 1.493260e+002 1.164281e+002
      endloop
   endfacet
   facet normal 7.601210e-001 2.316139e-016 -6.497815e-001
      outer loop
         vertex 2.575909e+002 1.493260e+002 1.164281e+002
         vertex 2.575658e+002 1.493260e+002 1.163898e+002
         vertex 2.573030e+002 1.723261e+002 1.161017e+002
      endloop
   endfacet
   facet normal 7.209911e-001 2.252308e-016 -6.929443e-001
      outer loop
         vertex 2.573030e+002 1.723261e+002 1.161017e+002
         vertex 2.575658e+002 1.493260e+002 1.163898e+002
         vertex 2.573017e+002 1.493260e+002 1.161029e+002
      endloop
   endfacet
   facet normal 6.404724e-001 2.110994e-016 -7.679812e-001
      outer loop
         vertex 2.573030e+002 1.723261e+002 1.161017e+002
         vertex 2.573017e+002 1.493260e+002 1.161029e+002
         vertex 2.569603e+002 1.723261e+002 1.158324e+002
      endloop
   endfacet
   facet normal 6.381136e-001 2.106683e-016 -7.699422e-001
      outer loop
         vertex 2.569603e+002 1.723261e+002 1.158324e+002
         vertex 2.573017e+002 1.493260e+002 1.161029e+002
         vertex 2.572861e+002 1.493260e+002 1.160860e+002
      endloop
   endfacet
   facet normal 5.921863e-001 2.021060e-016 -8.058011e-001
      outer loop
         vertex 2.569603e+002 1.723261e+002 1.158324e+002
         vertex 2.572861e+002 1.493260e+002 1.160860e+002
         vertex 2.569603e+002 1.493260e+002 1.158324e+002
      endloop
   endfacet
   facet normal 9.386495e-001 2.529287e-016 -3.448727e-001
      outer loop
         vertex 2.578236e+002 1.723261e+002 1.167965e+002
         vertex 2.579857e+002 1.723261e+002 1.172010e+002
         vertex 2.579800e+002 1.493260e+002 1.172024e+002
      endloop
   endfacet
   facet normal 9.343465e-001 2.527146e-016 -3.563659e-001
      outer loop
         vertex 2.579800e+002 1.493260e+002 1.172024e+002
         vertex 2.579575e+002 1.493260e+002 1.171136e+002
         vertex 2.578236e+002 1.723261e+002 1.167965e+002
      endloop
   endfacet
   facet normal 9.120153e-001 2.511802e-016 -4.101563e-001
      outer loop
         vertex 2.578236e+002 1.723261e+002 1.167965e+002
         vertex 2.579575e+002 1.493260e+002 1.171136e+002
         vertex 2.578192e+002 1.493260e+002 1.167984e+002
      endloop
   endfacet
   facet normal 8.645034e-001 2.463266e-016 -5.026269e-001
      outer loop
         vertex 2.578236e+002 1.723261e+002 1.167965e+002
         vertex 2.578192e+002 1.493260e+002 1.167984e+002
         vertex 2.575937e+002 1.723261e+002 1.164263e+002
      endloop
   endfacet
   facet normal 8.598409e-001 2.457679e-016 -5.105621e-001
      outer loop
         vertex 2.575937e+002 1.723261e+002 1.164263e+002
         vertex 2.578192e+002 1.493260e+002 1.167984e+002
         vertex 2.577916e+002 1.493260e+002 1.167355e+002
      endloop
   endfacet
   facet normal 8.286541e-001 2.417506e-016 -5.597610e-001
      outer loop
         vertex 2.575937e+002 1.723261e+002 1.164263e+002
         vertex 2.577916e+002 1.493260e+002 1.167355e+002
         vertex 2.575909e+002 1.493260e+002 1.164281e+002
      endloop
   endfacet
   facet normal 9.997708e-001 2.443845e-016 -2.141022e-002
      outer loop
         vertex 2.580891e+002 1.723261e+002 1.180630e+002
         vertex 2.580929e+002 1.493260e+002 1.179253e+002
         vertex 2.580751e+002 1.723261e+002 1.176275e+002
      endloop
   endfacet
   facet normal 9.968280e-001 2.478766e-016 -7.958677e-002
      outer loop
         vertex 2.580751e+002 1.723261e+002 1.176275e+002
         vertex 2.580929e+002 1.493260e+002 1.179253e+002
         vertex 2.580683e+002 1.493260e+002 1.176281e+002
      endloop
   endfacet
   facet normal 9.842762e-001 2.518456e-016 -1.766360e-001
      outer loop
         vertex 2.580751e+002 1.723261e+002 1.176275e+002
         vertex 2.580683e+002 1.493260e+002 1.176281e+002
         vertex 2.579857e+002 1.723261e+002 1.172010e+002
      endloop
   endfacet
   facet normal 9.814507e-001 2.522497e-016 -1.917148e-001
      outer loop
         vertex 2.579857e+002 1.723261e+002 1.172010e+002
         vertex 2.580683e+002 1.493260e+002 1.176281e+002
         vertex 2.580588e+002 1.493260e+002 1.175138e+002
      endloop
   endfacet
   facet normal 9.686273e-001 2.532425e-016 -2.485178e-001
      outer loop
         vertex 2.579857e+002 1.723261e+002 1.172010e+002
         vertex 2.580588e+002 1.493260e+002 1.175138e+002
         vertex 2.579800e+002 1.493260e+002 1.172024e+002
      endloop
   endfacet
   facet normal 9.887634e-001 2.293529e-016 1.494891e-001
      outer loop
         vertex 2.580273e+002 1.723261e+002 1.184944e+002
         vertex 2.580588e+002 1.493260e+002 1.183368e+002
         vertex 2.580891e+002 1.723261e+002 1.180630e+002
      endloop
   endfacet
   facet normal 9.957884e-001 2.352394e-016 9.168115e-002
      outer loop
         vertex 2.580891e+002 1.723261e+002 1.180630e+002
         vertex 2.580588e+002 1.493260e+002 1.183368e+002
         vertex 2.580816e+002 1.493260e+002 1.180624e+002
      endloop
   endfacet
   facet normal 9.993262e-001 2.400742e-016 3.670476e-002
      outer loop
         vertex 2.580891e+002 1.723261e+002 1.180630e+002
         vertex 2.580816e+002 1.493260e+002 1.180624e+002
         vertex 2.580929e+002 1.493260e+002 1.179253e+002
      endloop
   endfacet
   facet normal 9.487578e-001 2.075950e-016 3.160042e-001
      outer loop
         vertex 2.578915e+002 1.723261e+002 1.189085e+002
         vertex 2.579575e+002 1.493260e+002 1.187371e+002
         vertex 2.580273e+002 1.723261e+002 1.184944e+002
      endloop
   endfacet
   facet normal 9.655382e-001 2.157016e-016 2.602614e-001
      outer loop
         vertex 2.580273e+002 1.723261e+002 1.184944e+002
         vertex 2.579575e+002 1.493260e+002 1.187371e+002
         vertex 2.580194e+002 1.493260e+002 1.184924e+002
      endloop
   endfacet
   facet normal 9.784060e-001 2.227007e-016 2.066925e-001
      outer loop
         vertex 2.580273e+002 1.723261e+002 1.184944e+002
         vertex 2.580194e+002 1.493260e+002 1.184924e+002
         vertex 2.580588e+002 1.493260e+002 1.183368e+002
      endloop
   endfacet
   facet normal 8.809274e-001 1.797487e-016 4.732514e-001
      outer loop
         vertex 2.576859e+002 1.723261e+002 1.192927e+002
         vertex 2.577916e+002 1.493260e+002 1.191152e+002
         vertex 2.578915e+002 1.723261e+002 1.189085e+002
      endloop
   endfacet
   facet normal 9.069642e-001 1.898362e-016 4.212078e-001
      outer loop
         vertex 2.578915e+002 1.723261e+002 1.189085e+002
         vertex 2.577916e+002 1.493260e+002 1.191152e+002
         vertex 2.578838e+002 1.493260e+002 1.189051e+002
      endloop
   endfacet
   facet normal 9.287850e-001 1.987944e-016 3.706190e-001
      outer loop
         vertex 2.578915e+002 1.723261e+002 1.189085e+002
         vertex 2.578838e+002 1.493260e+002 1.189051e+002
         vertex 2.579575e+002 1.493260e+002 1.187371e+002
      endloop
   endfacet
   facet normal 7.872615e-001 1.466309e-016 6.166193e-001
      outer loop
         vertex 2.574166e+002 1.723261e+002 1.196354e+002
         vertex 2.575658e+002 1.493260e+002 1.194609e+002
         vertex 2.576859e+002 1.723261e+002 1.192927e+002
      endloop
   endfacet
   facet normal 8.217846e-001 1.584019e-016 5.697984e-001
      outer loop
         vertex 2.576859e+002 1.723261e+002 1.192927e+002
         vertex 2.575658e+002 1.493260e+002 1.194609e+002
         vertex 2.576787e+002 1.493260e+002 1.192880e+002
      endloop
   endfacet
   facet normal 8.519183e-001 1.690564e-016 5.236748e-001
      outer loop
         vertex 2.576859e+002 1.723261e+002 1.192927e+002
         vertex 2.576787e+002 1.493260e+002 1.192880e+002
         vertex 2.577916e+002 1.493260e+002 1.191152e+002
      endloop
   endfacet
   facet normal 6.705070e-001 1.092127e-016 7.419032e-001
      outer loop
         vertex 2.570920e+002 1.723261e+002 1.199261e+002
         vertex 2.572862e+002 1.493260e+002 1.197646e+002
         vertex 2.574166e+002 1.723261e+002 1.196354e+002
      endloop
   endfacet
   facet normal 7.124984e-001 1.223211e-016 7.016737e-001
      outer loop
         vertex 2.574166e+002 1.723261e+002 1.196354e+002
         vertex 2.572862e+002 1.493260e+002 1.197646e+002
         vertex 2.574104e+002 1.493260e+002 1.196296e+002
      endloop
   endfacet
   facet normal 7.500606e-001 1.343591e-016 6.613691e-001
      outer loop
         vertex 2.574166e+002 1.723261e+002 1.196354e+002
         vertex 2.574104e+002 1.493260e+002 1.196296e+002
         vertex 2.575658e+002 1.493260e+002 1.194609e+002
      endloop
   endfacet
   facet normal 5.340880e-001 6.859152e-017 8.454289e-001
      outer loop
         vertex 2.567218e+002 1.723261e+002 1.201560e+002
         vertex 2.569603e+002 1.493260e+002 1.200182e+002
         vertex 2.570920e+002 1.723261e+002 1.199261e+002
      endloop
   endfacet
   facet normal 5.823125e-001 8.265236e-017 8.129650e-001
      outer loop
         vertex 2.570920e+002 1.723261e+002 1.199261e+002
         vertex 2.569603e+002 1.493260e+002 1.200182e+002
         vertex 2.570870e+002 1.493260e+002 1.199196e+002
      endloop
   endfacet
   facet normal 6.262001e-001 9.572049e-017 7.796624e-001
      outer loop
         vertex 2.570920e+002 1.723261e+002 1.199261e+002
         vertex 2.570870e+002 1.493260e+002 1.199196e+002
         vertex 2.572862e+002 1.493260e+002 1.197646e+002
      endloop
   endfacet
   facet normal 3.820054e-001 2.595870e-017 9.241601e-001
      outer loop
         vertex 2.563173e+002 1.723261e+002 1.203181e+002
         vertex 2.565972e+002 1.493260e+002 1.202148e+002
         vertex 2.567218e+002 1.723261e+002 1.201560e+002
      endloop
   endfacet
   facet normal 4.350466e-001 4.055954e-017 9.004079e-001
      outer loop
         vertex 2.567218e+002 1.723261e+002 1.201560e+002
         vertex 2.565972e+002 1.493260e+002 1.202148e+002
         vertex 2.567182e+002 1.493260e+002 1.201493e+002
      endloop
   endfacet
   facet normal 4.839712e-001 5.427414e-017 8.750839e-001
      outer loop
         vertex 2.567218e+002 1.723261e+002 1.201560e+002
         vertex 2.567182e+002 1.493260e+002 1.201493e+002
         vertex 2.569603e+002 1.493260e+002 1.200182e+002
      endloop
   endfacet
   facet normal 2.187191e-001 -1.743550e-017 9.757879e-001
      outer loop
         vertex 2.558908e+002 1.723261e+002 1.204075e+002
         vertex 2.562067e+002 1.493260e+002 1.203488e+002
         vertex 2.563173e+002 1.723261e+002 1.203181e+002
      endloop
   endfacet
   facet normal 2.750220e-001 -2.722313e-018 9.614379e-001
      outer loop
         vertex 2.563173e+002 1.723261e+002 1.203181e+002
         vertex 2.562067e+002 1.493260e+002 1.203488e+002
         vertex 2.563151e+002 1.493260e+002 1.203116e+002
      endloop
   endfacet
   facet normal 3.275468e-001 1.123611e-017 9.448349e-001
      outer loop
         vertex 2.563173e+002 1.723261e+002 1.203181e+002
         vertex 2.563151e+002 1.493260e+002 1.203116e+002
         vertex 2.565972e+002 1.493260e+002 1.202148e+002
      endloop
   endfacet
   facet normal 4.901818e-002 -6.031839e-017 9.987979e-001
      outer loop
         vertex 2.554553e+002 1.723261e+002 1.204215e+002
         vertex 2.557994e+002 1.493260e+002 1.204168e+002
         vertex 2.558908e+002 1.723261e+002 1.204075e+002
      endloop
   endfacet
   facet normal 1.069336e-001 -4.592350e-017 9.942662e-001
      outer loop
         vertex 2.558908e+002 1.723261e+002 1.204075e+002
         vertex 2.557994e+002 1.493260e+002 1.204168e+002
         vertex 2.558898e+002 1.493260e+002 1.204017e+002
      endloop
   endfacet
   facet normal 1.615167e-001 -3.213088e-017 9.868700e-001
      outer loop
         vertex 2.558908e+002 1.723261e+002 1.204075e+002
         vertex 2.558898e+002 1.493260e+002 1.204017e+002
         vertex 2.562067e+002 1.493260e+002 1.203488e+002
      endloop
   endfacet
   facet normal -1.221209e-001 -1.014324e-016 9.925153e-001
      outer loop
         vertex 2.550239e+002 1.723261e+002 1.203597e+002
         vertex 2.553865e+002 1.493260e+002 1.204168e+002
         vertex 2.554553e+002 1.723261e+002 1.204215e+002
      endloop
   endfacet
   facet normal -6.428709e-002 -8.777668e-017 9.979314e-001
      outer loop
         vertex 2.554553e+002 1.723261e+002 1.204215e+002
         vertex 2.553865e+002 1.493260e+002 1.204168e+002
         vertex 2.554553e+002 1.493260e+002 1.204168e+002
      endloop
   endfacet
   facet normal -9.248323e-003 -7.455470e-017 9.999572e-001
      outer loop
         vertex 2.554553e+002 1.723261e+002 1.204215e+002
         vertex 2.554553e+002 1.493260e+002 1.204168e+002
         vertex 2.557994e+002 1.493260e+002 1.204168e+002
      endloop
   endfacet
   facet normal -2.896785e-001 -1.395716e-016 9.571240e-001
      outer loop
         vertex 2.546098e+002 1.723261e+002 1.202239e+002
         vertex 2.549792e+002 1.493260e+002 1.203488e+002
         vertex 2.550239e+002 1.723261e+002 1.203597e+002
      endloop
   endfacet
   facet normal -2.336176e-001 -1.270543e-016 9.723285e-001
      outer loop
         vertex 2.550239e+002 1.723261e+002 1.203597e+002
         vertex 2.549792e+002 1.493260e+002 1.203488e+002
         vertex 2.550244e+002 1.493260e+002 1.203564e+002
      endloop
   endfacet
   facet normal -1.797382e-001 -1.147908e-016 9.837145e-001
      outer loop
         vertex 2.550239e+002 1.723261e+002 1.203597e+002
         vertex 2.550244e+002 1.493260e+002 1.203564e+002
         vertex 2.553865e+002 1.493260e+002 1.204168e+002
      endloop
   endfacet
   facet normal -5.921863e-001 -2.021060e-016 8.058011e-001
      outer loop
         vertex 2.538997e+002 1.493260e+002 1.197647e+002
         vertex 2.542256e+002 1.493260e+002 1.200183e+002
         vertex 2.542256e+002 1.723261e+002 1.200183e+002
      endloop
   endfacet
   facet normal -5.000443e-001 -1.840784e-016 8.659998e-001
      outer loop
         vertex 2.542256e+002 1.723261e+002 1.200183e+002
         vertex 2.542256e+002 1.493260e+002 1.200183e+002
         vertex 2.545887e+002 1.493260e+002 1.202148e+002
      endloop
   endfacet
   facet normal -4.487410e-001 -1.736176e-016 8.936619e-001
      outer loop
         vertex 2.542256e+002 1.723261e+002 1.200183e+002
         vertex 2.545887e+002 1.493260e+002 1.202148e+002
         vertex 2.546098e+002 1.723261e+002 1.202239e+002
      endloop
   endfacet
   facet normal -3.960915e-001 -1.626046e-016 9.182110e-001
      outer loop
         vertex 2.546098e+002 1.723261e+002 1.202239e+002
         vertex 2.545887e+002 1.493260e+002 1.202148e+002
         vertex 2.546104e+002 1.493260e+002 1.202222e+002
      endloop
   endfacet
   facet normal -3.449521e-001 -1.516591e-016 9.386203e-001
      outer loop
         vertex 2.546098e+002 1.723261e+002 1.202239e+002
         vertex 2.546104e+002 1.493260e+002 1.202222e+002
         vertex 2.549792e+002 1.493260e+002 1.203488e+002
      endloop
   endfacet
   facet normal -2.428920e-016 1.000000e+000 7.231144e-017
      outer loop
         vertex 2.576859e+002 1.723261e+002 1.192927e+002
         vertex 2.578915e+002 1.723261e+002 1.189085e+002
         vertex 2.537692e+002 1.723261e+002 1.162153e+002
      endloop
   endfacet
   facet normal -2.428920e-016 1.000000e+000 7.231144e-017
      outer loop
         vertex 2.533623e+002 1.723261e+002 1.190542e+002
         vertex 2.535922e+002 1.723261e+002 1.194244e+002
         vertex 2.574166e+002 1.723261e+002 1.196354e+002
      endloop
   endfacet
   facet normal -2.428920e-016 1.000000e+000 7.231144e-017
      outer loop
         vertex 2.532944e+002 1.723261e+002 1.169422e+002
         vertex 2.531586e+002 1.723261e+002 1.173563e+002
         vertex 2.574166e+002 1.723261e+002 1.196354e+002
      endloop
   endfacet
   facet normal -2.428920e-016 1.000000e+000 7.231144e-017
      outer loop
         vertex 2.574166e+002 1.723261e+002 1.196354e+002
         vertex 2.531586e+002 1.723261e+002 1.173563e+002
         vertex 2.530968e+002 1.723261e+002 1.177876e+002
      endloop
   endfacet
   facet normal -2.428920e-016 1.000000e+000 7.231144e-017
      outer loop
         vertex 2.576859e+002 1.723261e+002 1.192927e+002
         vertex 2.537692e+002 1.723261e+002 1.162153e+002
         vertex 2.574166e+002 1.723261e+002 1.196354e+002
      endloop
   endfacet
   facet normal -2.428920e-016 1.000000e+000 7.231144e-017
      outer loop
         vertex 2.574166e+002 1.723261e+002 1.196354e+002
         vertex 2.537692e+002 1.723261e+002 1.162153e+002
         vertex 2.535000e+002 1.723261e+002 1.165580e+002
      endloop
   endfacet
   facet normal -2.428920e-016 1.000000e+000 7.231144e-017
      outer loop
         vertex 2.574166e+002 1.723261e+002 1.196354e+002
         vertex 2.535000e+002 1.723261e+002 1.165580e+002
         vertex 2.532944e+002 1.723261e+002 1.169422e+002
      endloop
   endfacet
   facet normal -2.428920e-016 1.000000e+000 7.231144e-017
      outer loop
         vertex 2.530968e+002 1.723261e+002 1.177876e+002
         vertex 2.531108e+002 1.723261e+002 1.182232e+002
         vertex 2.574166e+002 1.723261e+002 1.196354e+002
      endloop
   endfacet
   facet normal -2.428920e-016 1.000000e+000 7.231144e-017
      outer loop
         vertex 2.574166e+002 1.723261e+002 1.196354e+002
         vertex 2.531108e+002 1.723261e+002 1.182232e+002
         vertex 2.532002e+002 1.723261e+002 1.186497e+002
      endloop
   endfacet
   facet normal -2.428920e-016 1.000000e+000 7.231144e-017
      outer loop
         vertex 2.574166e+002 1.723261e+002 1.196354e+002
         vertex 2.532002e+002 1.723261e+002 1.186497e+002
         vertex 2.533623e+002 1.723261e+002 1.190542e+002
      endloop
   endfacet
   facet normal -2.428920e-016 1.000000e+000 7.231144e-017
      outer loop
         vertex 2.578915e+002 1.723261e+002 1.189085e+002
         vertex 2.580273e+002 1.723261e+002 1.184944e+002
         vertex 2.537692e+002 1.723261e+002 1.162153e+002
      endloop
   endfacet
   facet normal -2.428920e-016 1.000000e+000 7.231144e-017
      outer loop
         vertex 2.537692e+002 1.723261e+002 1.162153e+002
         vertex 2.580273e+002 1.723261e+002 1.184944e+002
         vertex 2.580891e+002 1.723261e+002 1.180630e+002
      endloop
   endfacet
   facet normal -2.428920e-016 1.000000e+000 7.231144e-017
      outer loop
         vertex 2.537692e+002 1.723261e+002 1.162153e+002
         vertex 2.580891e+002 1.723261e+002 1.180630e+002
         vertex 2.580751e+002 1.723261e+002 1.176275e+002
      endloop
   endfacet
   facet normal -2.428920e-016 1.000000e+000 7.231144e-017
      outer loop
         vertex 2.580751e+002 1.723261e+002 1.176275e+002
         vertex 2.579857e+002 1.723261e+002 1.172010e+002
         vertex 2.537692e+002 1.723261e+002 1.162153e+002
      endloop
   endfacet
   facet normal -2.428920e-016 1.000000e+000 7.231144e-017
      outer loop
         vertex 2.537692e+002 1.723261e+002 1.162153e+002
         vertex 2.579857e+002 1.723261e+002 1.172010e+002
         vertex 2.578236e+002 1.723261e+002 1.167965e+002
      endloop
   endfacet
   facet normal -2.428920e-016 1.000000e+000 7.231144e-017
      outer loop
         vertex 2.537692e+002 1.723261e+002 1.162153e+002
         vertex 2.578236e+002 1.723261e+002 1.167965e+002
         vertex 2.575937e+002 1.723261e+002 1.164263e+002
      endloop
   endfacet
   facet normal -2.428920e-016 1.000000e+000 7.231144e-017
      outer loop
         vertex 2.535922e+002 1.723261e+002 1.194244e+002
         vertex 2.538829e+002 1.723261e+002 1.197490e+002
         vertex 2.574166e+002 1.723261e+002 1.196354e+002
      endloop
   endfacet
   facet normal -2.428920e-016 1.000000e+000 7.231144e-017
      outer loop
         vertex 2.574166e+002 1.723261e+002 1.196354e+002
         vertex 2.538829e+002 1.723261e+002 1.197490e+002
         vertex 2.542256e+002 1.723261e+002 1.200183e+002
      endloop
   endfacet
   facet normal -2.428920e-016 1.000000e+000 7.231144e-017
      outer loop
         vertex 2.574166e+002 1.723261e+002 1.196354e+002
         vertex 2.542256e+002 1.723261e+002 1.200183e+002
         vertex 2.546098e+002 1.723261e+002 1.202239e+002
      endloop
   endfacet
   facet normal -2.428920e-016 1.000000e+000 7.231144e-017
      outer loop
         vertex 2.546098e+002 1.723261e+002 1.202239e+002
         vertex 2.550239e+002 1.723261e+002 1.203597e+002
         vertex 2.574166e+002 1.723261e+002 1.196354e+002
      endloop
   endfacet
   facet normal -2.428920e-016 1.000000e+000 7.231144e-017
      outer loop
         vertex 2.574166e+002 1.723261e+002 1.196354e+002
         vertex 2.550239e+002 1.723261e+002 1.203597e+002
         vertex 2.554553e+002 1.723261e+002 1.204215e+002
      endloop
   endfacet
   facet normal -2.428920e-016 1.000000e+000 7.231144e-017
      outer loop
         vertex 2.574166e+002 1.723261e+002 1.196354e+002
         vertex 2.554553e+002 1.723261e+002 1.204215e+002
         vertex 2.558908e+002 1.723261e+002 1.204075e+002
      endloop
   endfacet
   facet normal -2.428920e-016 1.000000e+000 7.231144e-017
      outer loop
         vertex 2.575937e+002 1.723261e+002 1.164263e+002
         vertex 2.573030e+002 1.723261e+002 1.161017e+002
         vertex 2.537692e+002 1.723261e+002 1.162153e+002
      endloop
   endfacet
   facet normal -2.428920e-016 1.000000e+000 7.231144e-017
      outer loop
         vertex 2.537692e+002 1.723261e+002 1.162153e+002
         vertex 2.573030e+002 1.723261e+002 1.161017e+002
         vertex 2.569603e+002 1.723261e+002 1.158324e+002
      endloop
   endfacet
   facet normal -2.428920e-016 1.000000e+000 7.231144e-017
      outer loop
         vertex 2.537692e+002 1.723261e+002 1.162153e+002
         vertex 2.569603e+002 1.723261e+002 1.158324e+002
         vertex 2.565761e+002 1.723261e+002 1.156268e+002
      endloop
   endfacet
   facet normal -2.428920e-016 1.000000e+000 7.231144e-017
      outer loop
         vertex 2.565761e+002 1.723261e+002 1.156268e+002
         vertex 2.561620e+002 1.723261e+002 1.154910e+002
         vertex 2.537692e+002 1.723261e+002 1.162153e+002
      endloop
   endfacet
   facet normal -2.428920e-016 1.000000e+000 7.231144e-017
      outer loop
         vertex 2.537692e+002 1.723261e+002 1.162153e+002
         vertex 2.561620e+002 1.723261e+002 1.154910e+002
         vertex 2.557307e+002 1.723261e+002 1.154291e+002
      endloop
   endfacet
   facet normal -2.428920e-016 1.000000e+000 7.231144e-017
      outer loop
         vertex 2.537692e+002 1.723261e+002 1.162153e+002
         vertex 2.557307e+002 1.723261e+002 1.154291e+002
         vertex 2.552951e+002 1.723261e+002 1.154431e+002
      endloop
   endfacet
   facet normal -2.428920e-016 1.000000e+000 7.231144e-017
      outer loop
         vertex 2.558908e+002 1.723261e+002 1.204075e+002
         vertex 2.563173e+002 1.723261e+002 1.203181e+002
         vertex 2.574166e+002 1.723261e+002 1.196354e+002
      endloop
   endfacet
   facet normal -2.428920e-016 1.000000e+000 7.231144e-017
      outer loop
         vertex 2.574166e+002 1.723261e+002 1.196354e+002
         vertex 2.563173e+002 1.723261e+002 1.203181e+002
         vertex 2.567218e+002 1.723261e+002 1.201560e+002
      endloop
   endfacet
   facet normal -2.428920e-016 1.000000e+000 7.231144e-017
      outer loop
         vertex 2.574166e+002 1.723261e+002 1.196354e+002
         vertex 2.567218e+002 1.723261e+002 1.201560e+002
         vertex 2.570920e+002 1.723261e+002 1.199261e+002
      endloop
   endfacet
   facet normal -2.428920e-016 1.000000e+000 7.231144e-017
      outer loop
         vertex 2.552951e+002 1.723261e+002 1.154431e+002
         vertex 2.548686e+002 1.723261e+002 1.155326e+002
         vertex 2.537692e+002 1.723261e+002 1.162153e+002
      endloop
   endfacet
   facet normal -2.428920e-016 1.000000e+000 7.231144e-017
      outer loop
         vertex 2.537692e+002 1.723261e+002 1.162153e+002
         vertex 2.548686e+002 1.723261e+002 1.155326e+002
         vertex 2.544641e+002 1.723261e+002 1.156947e+002
      endloop
   endfacet
   facet normal -2.428920e-016 1.000000e+000 7.231144e-017
      outer loop
         vertex 2.537692e+002 1.723261e+002 1.162153e+002
         vertex 2.544641e+002 1.723261e+002 1.156947e+002
         vertex 2.540939e+002 1.723261e+002 1.159246e+002
      endloop
   endfacet
   facet normal 2.428920e-016 -1.000000e+000 -7.231144e-017
      outer loop
         vertex 2.570793e+002 1.481261e+002 1.213137e+002
         vertex 2.541067e+002 1.481261e+002 1.145370e+002
         vertex 2.546846e+002 1.481261e+002 1.143386e+002
      endloop
   endfacet
   facet normal 2.428920e-016 -1.000000e+000 -7.231144e-017
      outer loop
         vertex 2.535692e+002 1.481261e+002 1.210229e+002
         vertex 2.530870e+002 1.481261e+002 1.206475e+002
         vertex 2.541067e+002 1.481261e+002 1.145370e+002
      endloop
   endfacet
   facet normal 2.428920e-016 -1.000000e+000 -7.231144e-017
      outer loop
         vertex 2.570793e+002 1.481261e+002 1.213137e+002
         vertex 2.565013e+002 1.481261e+002 1.215121e+002
         vertex 2.541067e+002 1.481261e+002 1.145370e+002
      endloop
   endfacet
   facet normal 2.428920e-016 -1.000000e+000 -7.231144e-017
      outer loop
         vertex 2.541067e+002 1.481261e+002 1.145370e+002
         vertex 2.565013e+002 1.481261e+002 1.215121e+002
         vertex 2.558985e+002 1.481261e+002 1.216127e+002
      endloop
   endfacet
   facet normal 2.428920e-016 -1.000000e+000 -7.231144e-017
      outer loop
         vertex 2.541067e+002 1.481261e+002 1.145370e+002
         vertex 2.558985e+002 1.481261e+002 1.216127e+002
         vertex 2.552874e+002 1.481261e+002 1.216127e+002
      endloop
   endfacet
   facet normal 2.428920e-016 -1.000000e+000 -7.231144e-017
      outer loop
         vertex 2.546846e+002 1.481261e+002 1.143386e+002
         vertex 2.552874e+002 1.481261e+002 1.142380e+002
         vertex 2.570793e+002 1.481261e+002 1.213137e+002
      endloop
   endfacet
   facet normal 2.428920e-016 -1.000000e+000 -7.231144e-017
      outer loop
         vertex 2.570793e+002 1.481261e+002 1.213137e+002
         vertex 2.552874e+002 1.481261e+002 1.142380e+002
         vertex 2.558985e+002 1.481261e+002 1.142380e+002
      endloop
   endfacet
   facet normal 2.428920e-016 -1.000000e+000 -7.231144e-017
      outer loop
         vertex 2.570793e+002 1.481261e+002 1.213137e+002
         vertex 2.558985e+002 1.481261e+002 1.142380e+002
         vertex 2.565012e+002 1.481261e+002 1.143386e+002
      endloop
   endfacet
   facet normal 2.428920e-016 -1.000000e+000 -7.231144e-017
      outer loop
         vertex 2.570793e+002 1.481261e+002 1.213137e+002
         vertex 2.590925e+002 1.481261e+002 1.167239e+002
         vertex 2.592425e+002 1.481261e+002 1.173163e+002
      endloop
   endfacet
   facet normal 2.428920e-016 -1.000000e+000 -7.231144e-017
      outer loop
         vertex 2.552874e+002 1.481261e+002 1.216127e+002
         vertex 2.546847e+002 1.481261e+002 1.215121e+002
         vertex 2.541067e+002 1.481261e+002 1.145370e+002
      endloop
   endfacet
   facet normal 2.428920e-016 -1.000000e+000 -7.231144e-017
      outer loop
         vertex 2.541067e+002 1.481261e+002 1.145370e+002
         vertex 2.546847e+002 1.481261e+002 1.215121e+002
         vertex 2.541067e+002 1.481261e+002 1.213137e+002
      endloop
   endfacet
   facet normal 2.428920e-016 -1.000000e+000 -7.231144e-017
      outer loop
         vertex 2.541067e+002 1.481261e+002 1.145370e+002
         vertex 2.541067e+002 1.481261e+002 1.213137e+002
         vertex 2.535692e+002 1.481261e+002 1.210229e+002
      endloop
   endfacet
   facet normal 2.428920e-016 -1.000000e+000 -7.231144e-017
      outer loop
         vertex 2.523389e+002 1.481261e+002 1.196864e+002
         vertex 2.520934e+002 1.481261e+002 1.191267e+002
         vertex 2.520934e+002 1.481261e+002 1.167240e+002
      endloop
   endfacet
   facet normal 2.428920e-016 -1.000000e+000 -7.231144e-017
      outer loop
         vertex 2.520934e+002 1.481261e+002 1.167240e+002
         vertex 2.520934e+002 1.481261e+002 1.191267e+002
         vertex 2.519434e+002 1.481261e+002 1.185344e+002
      endloop
   endfacet
   facet normal 2.428920e-016 -1.000000e+000 -7.231144e-017
      outer loop
         vertex 2.520934e+002 1.481261e+002 1.167240e+002
         vertex 2.519434e+002 1.481261e+002 1.185344e+002
         vertex 2.519434e+002 1.481261e+002 1.173164e+002
      endloop
   endfacet
   facet normal 2.428920e-016 -1.000000e+000 -7.231144e-017
      outer loop
         vertex 2.519434e+002 1.481261e+002 1.173164e+002
         vertex 2.519434e+002 1.481261e+002 1.185344e+002
         vertex 2.518930e+002 1.481261e+002 1.179254e+002
      endloop
   endfacet
   facet normal 2.428920e-016 -1.000000e+000 -7.231144e-017
      outer loop
         vertex 2.520934e+002 1.481261e+002 1.167240e+002
         vertex 2.523389e+002 1.481261e+002 1.161644e+002
         vertex 2.523389e+002 1.481261e+002 1.196864e+002
      endloop
   endfacet
   facet normal 2.428920e-016 -1.000000e+000 -7.231144e-017
      outer loop
         vertex 2.523389e+002 1.481261e+002 1.196864e+002
         vertex 2.523389e+002 1.481261e+002 1.161644e+002
         vertex 2.526731e+002 1.481261e+002 1.156528e+002
      endloop
   endfacet
   facet normal 2.428920e-016 -1.000000e+000 -7.231144e-017
      outer loop
         vertex 2.523389e+002 1.481261e+002 1.196864e+002
         vertex 2.526731e+002 1.481261e+002 1.156528e+002
         vertex 2.530870e+002 1.481261e+002 1.152032e+002
      endloop
   endfacet
   facet normal 2.428920e-016 -1.000000e+000 -7.231144e-017
      outer loop
         vertex 2.565012e+002 1.481261e+002 1.143386e+002
         vertex 2.570792e+002 1.481261e+002 1.145370e+002
         vertex 2.570793e+002 1.481261e+002 1.213137e+002
      endloop
   endfacet
   facet normal 2.428920e-016 -1.000000e+000 -7.231144e-017
      outer loop
         vertex 2.570793e+002 1.481261e+002 1.213137e+002
         vertex 2.570792e+002 1.481261e+002 1.145370e+002
         vertex 2.576166e+002 1.481261e+002 1.148278e+002
      endloop
   endfacet
   facet normal 2.428920e-016 -1.000000e+000 -7.231144e-017
      outer loop
         vertex 2.570793e+002 1.481261e+002 1.213137e+002
         vertex 2.576166e+002 1.481261e+002 1.148278e+002
         vertex 2.580989e+002 1.481261e+002 1.152031e+002
      endloop
   endfacet
   facet normal 2.428920e-016 -1.000000e+000 -7.231144e-017
      outer loop
         vertex 2.580989e+002 1.481261e+002 1.152031e+002
         vertex 2.585128e+002 1.481261e+002 1.156527e+002
         vertex 2.570793e+002 1.481261e+002 1.213137e+002
      endloop
   endfacet
   facet normal 2.428920e-016 -1.000000e+000 -7.231144e-017
      outer loop
         vertex 2.570793e+002 1.481261e+002 1.213137e+002
         vertex 2.585128e+002 1.481261e+002 1.156527e+002
         vertex 2.588470e+002 1.481261e+002 1.161643e+002
      endloop
   endfacet
   facet normal 2.428920e-016 -1.000000e+000 -7.231144e-017
      outer loop
         vertex 2.570793e+002 1.481261e+002 1.213137e+002
         vertex 2.588470e+002 1.481261e+002 1.161643e+002
         vertex 2.590925e+002 1.481261e+002 1.167239e+002
      endloop
   endfacet
   facet normal 2.428920e-016 -1.000000e+000 -7.231144e-017
      outer loop
         vertex 2.530870e+002 1.481261e+002 1.206475e+002
         vertex 2.526732e+002 1.481261e+002 1.201979e+002
         vertex 2.541067e+002 1.481261e+002 1.145370e+002
      endloop
   endfacet
   facet normal 2.428920e-016 -1.000000e+000 -7.231144e-017
      outer loop
         vertex 2.541067e+002 1.481261e+002 1.145370e+002
         vertex 2.526732e+002 1.481261e+002 1.201979e+002
         vertex 2.523389e+002 1.481261e+002 1.196864e+002
      endloop
   endfacet
   facet normal 2.428920e-016 -1.000000e+000 -7.231144e-017
      outer loop
         vertex 2.541067e+002 1.481261e+002 1.145370e+002
         vertex 2.523389e+002 1.481261e+002 1.196864e+002
         vertex 2.535692e+002 1.481261e+002 1.148278e+002
      endloop
   endfacet
   facet normal 2.428920e-016 -1.000000e+000 -7.231144e-017
      outer loop
         vertex 2.535692e+002 1.481261e+002 1.148278e+002
         vertex 2.523389e+002 1.481261e+002 1.196864e+002
         vertex 2.530870e+002 1.481261e+002 1.152032e+002
      endloop
   endfacet
   facet normal 2.428920e-016 -1.000000e+000 -7.231144e-017
      outer loop
         vertex 2.592425e+002 1.481261e+002 1.173163e+002
         vertex 2.592930e+002 1.481261e+002 1.179253e+002
         vertex 2.570793e+002 1.481261e+002 1.213137e+002
      endloop
   endfacet
   facet normal 2.428920e-016 -1.000000e+000 -7.231144e-017
      outer loop
         vertex 2.570793e+002 1.481261e+002 1.213137e+002
         vertex 2.592930e+002 1.481261e+002 1.179253e+002
         vertex 2.592425e+002 1.481261e+002 1.185343e+002
      endloop
   endfacet
   facet normal 2.428920e-016 -1.000000e+000 -7.231144e-017
      outer loop
         vertex 2.570793e+002 1.481261e+002 1.213137e+002
         vertex 2.592425e+002 1.481261e+002 1.185343e+002
         vertex 2.576167e+002 1.481261e+002 1.210228e+002
      endloop
   endfacet
   facet normal 2.428920e-016 -1.000000e+000 -7.231144e-017
      outer loop
         vertex 2.588470e+002 1.481261e+002 1.196863e+002
         vertex 2.585128e+002 1.481261e+002 1.201979e+002
         vertex 2.580989e+002 1.481261e+002 1.206475e+002
      endloop
   endfacet
   facet normal 2.428920e-016 -1.000000e+000 -7.231144e-017
      outer loop
         vertex 2.576167e+002 1.481261e+002 1.210228e+002
         vertex 2.592425e+002 1.481261e+002 1.185343e+002
         vertex 2.580989e+002 1.481261e+002 1.206475e+002
      endloop
   endfacet
   facet normal 2.428920e-016 -1.000000e+000 -7.231144e-017
      outer loop
         vertex 2.580989e+002 1.481261e+002 1.206475e+002
         vertex 2.592425e+002 1.481261e+002 1.185343e+002
         vertex 2.590925e+002 1.481261e+002 1.191267e+002
      endloop
   endfacet
   facet normal 2.428920e-016 -1.000000e+000 -7.231144e-017
      outer loop
         vertex 2.580989e+002 1.481261e+002 1.206475e+002
         vertex 2.590925e+002 1.481261e+002 1.191267e+002
         vertex 2.588470e+002 1.481261e+002 1.196863e+002
      endloop
   endfacet
   facet normal 1.311758e-001 7.080752e-001 -6.938462e-001
      outer loop
         vertex 2.561615e+002 1.493260e+002 1.154943e+002
         vertex 2.565012e+002 1.481261e+002 1.143386e+002
         vertex 2.558985e+002 1.481261e+002 1.142380e+002
      endloop
   endfacet
   facet normal 1.302261e-002 7.080321e-001 -7.060602e-001
      outer loop
         vertex 2.552874e+002 1.481261e+002 1.142380e+002
         vertex 2.557307e+002 1.493260e+002 1.154339e+002
         vertex 2.558985e+002 1.481261e+002 1.142380e+002
      endloop
   endfacet
   facet normal 5.193605e-002 7.071364e-001 -7.051672e-001
      outer loop
         vertex 2.558985e+002 1.481261e+002 1.142380e+002
         vertex 2.557307e+002 1.493260e+002 1.154339e+002
         vertex 2.557994e+002 1.493260e+002 1.154339e+002
      endloop
   endfacet
   facet normal 9.271026e-002 7.079564e-001 -7.001447e-001
      outer loop
         vertex 2.558985e+002 1.481261e+002 1.142380e+002
         vertex 2.557994e+002 1.493260e+002 1.154339e+002
         vertex 2.561615e+002 1.493260e+002 1.154943e+002
      endloop
   endfacet
   facet normal -1.055160e-001 7.079955e-001 -6.982898e-001
      outer loop
         vertex 2.546846e+002 1.481261e+002 1.143386e+002
         vertex 2.552961e+002 1.493260e+002 1.154490e+002
         vertex 2.552874e+002 1.481261e+002 1.142380e+002
      endloop
   endfacet
   facet normal -6.699133e-002 7.071595e-001 -7.038733e-001
      outer loop
         vertex 2.552874e+002 1.481261e+002 1.142380e+002
         vertex 2.552961e+002 1.493260e+002 1.154490e+002
         vertex 2.553865e+002 1.493260e+002 1.154339e+002
      endloop
   endfacet
   facet normal -2.595009e-002 7.078538e-001 -7.058821e-001
      outer loop
         vertex 2.552874e+002 1.481261e+002 1.142380e+002
         vertex 2.553865e+002 1.493260e+002 1.154339e+002
         vertex 2.557307e+002 1.493260e+002 1.154339e+002
      endloop
   endfacet
   facet normal -2.210819e-001 7.079656e-001 -6.707515e-001
      outer loop
         vertex 2.541067e+002 1.481261e+002 1.145370e+002
         vertex 2.548708e+002 1.493260e+002 1.155391e+002
         vertex 2.546846e+002 1.481261e+002 1.143386e+002
      endloop
   endfacet
   facet normal -1.840161e-001 7.071893e-001 -6.826576e-001
      outer loop
         vertex 2.546846e+002 1.481261e+002 1.143386e+002
         vertex 2.548708e+002 1.493260e+002 1.155391e+002
         vertex 2.549792e+002 1.493260e+002 1.155018e+002
      endloop
   endfacet
   facet normal -1.439133e-001 7.077576e-001 -6.916416e-001
      outer loop
         vertex 2.546846e+002 1.481261e+002 1.143386e+002
         vertex 2.549792e+002 1.493260e+002 1.155018e+002
         vertex 2.552961e+002 1.493260e+002 1.154490e+002
      endloop
   endfacet
   facet normal -3.304001e-001 7.079423e-001 -6.242223e-001
      outer loop
         vertex 2.535692e+002 1.481261e+002 1.148278e+002
         vertex 2.544677e+002 1.493260e+002 1.157014e+002
         vertex 2.541067e+002 1.481261e+002 1.145370e+002
      endloop
   endfacet
   facet normal -2.958237e-001 7.072257e-001 -6.421216e-001
      outer loop
         vertex 2.541067e+002 1.481261e+002 1.145370e+002
         vertex 2.544677e+002 1.493260e+002 1.157014e+002
         vertex 2.545887e+002 1.493260e+002 1.156359e+002
      endloop
   endfacet
   facet normal -2.578371e-001 7.076679e-001 -6.578192e-001
      outer loop
         vertex 2.541067e+002 1.481261e+002 1.145370e+002
         vertex 2.545887e+002 1.493260e+002 1.156359e+002
         vertex 2.548708e+002 1.493260e+002 1.155391e+002
      endloop
   endfacet
   facet normal -4.303728e-001 7.079256e-001 -5.600184e-001
      outer loop
         vertex 2.530870e+002 1.481261e+002 1.152032e+002
         vertex 2.540989e+002 1.493260e+002 1.159310e+002
         vertex 2.535692e+002 1.481261e+002 1.148278e+002
      endloop
   endfacet
   facet normal -3.992468e-001 7.072689e-001 -5.834147e-001
      outer loop
         vertex 2.535692e+002 1.481261e+002 1.148278e+002
         vertex 2.540989e+002 1.493260e+002 1.159310e+002
         vertex 2.542256e+002 1.493260e+002 1.158324e+002
      endloop
   endfacet
   facet normal -3.644928e-001 7.075848e-001 -6.053666e-001
      outer loop
         vertex 2.535692e+002 1.481261e+002 1.148278e+002
         vertex 2.542256e+002 1.493260e+002 1.158324e+002
         vertex 2.544677e+002 1.493260e+002 1.157014e+002
      endloop
   endfacet
   facet normal -5.181664e-001 7.079156e-001 -4.799574e-001
      outer loop
         vertex 2.526731e+002 1.481261e+002 1.156528e+002
         vertex 2.537755e+002 1.493260e+002 1.162210e+002
         vertex 2.530870e+002 1.481261e+002 1.152032e+002
      endloop
   endfacet
   facet normal -4.913564e-001 7.073187e-001 -5.082018e-001
      outer loop
         vertex 2.530870e+002 1.481261e+002 1.152032e+002
         vertex 2.537755e+002 1.493260e+002 1.162210e+002
         vertex 2.538997e+002 1.493260e+002 1.160860e+002
      endloop
   endfacet
   facet normal -4.608563e-001 7.075083e-001 -5.357643e-001
      outer loop
         vertex 2.530870e+002 1.481261e+002 1.152032e+002
         vertex 2.538997e+002 1.493260e+002 1.160860e+002
         vertex 2.540989e+002 1.493260e+002 1.159310e+002
      endloop
   endfacet
   facet normal -5.912929e-001 7.079123e-001 -3.863069e-001
      outer loop
         vertex 2.523389e+002 1.481261e+002 1.161644e+002
         vertex 2.535072e+002 1.493260e+002 1.165627e+002
         vertex 2.526731e+002 1.481261e+002 1.156528e+002
      endloop
   endfacet
   facet normal -5.695446e-001 7.073753e-001 -4.186157e-001
      outer loop
         vertex 2.526731e+002 1.481261e+002 1.156528e+002
         vertex 2.535072e+002 1.493260e+002 1.165627e+002
         vertex 2.536201e+002 1.493260e+002 1.163898e+002
      endloop
   endfacet
   facet normal -5.441948e-001 7.074385e-001 -4.509799e-001
      outer loop
         vertex 2.526731e+002 1.481261e+002 1.156528e+002
         vertex 2.536201e+002 1.493260e+002 1.163898e+002
         vertex 2.537755e+002 1.493260e+002 1.162210e+002
      endloop
   endfacet
   facet normal -6.476799e-001 7.079156e-001 -2.817201e-001
      outer loop
         vertex 2.520934e+002 1.481261e+002 1.167240e+002
         vertex 2.533021e+002 1.493260e+002 1.169456e+002
         vertex 2.523389e+002 1.481261e+002 1.161644e+002
      endloop
   endfacet
   facet normal -6.315989e-001 7.074385e-001 -3.171965e-001
      outer loop
         vertex 2.523389e+002 1.481261e+002 1.161644e+002
         vertex 2.533021e+002 1.493260e+002 1.169456e+002
         vertex 2.533942e+002 1.493260e+002 1.167355e+002
      endloop
   endfacet
   facet normal -6.121440e-001 7.073753e-001 -3.534119e-001
      outer loop
         vertex 2.523389e+002 1.481261e+002 1.161644e+002
         vertex 2.533942e+002 1.493260e+002 1.167355e+002
         vertex 2.535072e+002 1.493260e+002 1.165627e+002
      endloop
   endfacet
   facet normal -6.857303e-001 7.079256e-001 -1.691605e-001
      outer loop
         vertex 2.519434e+002 1.481261e+002 1.173164e+002
         vertex 2.531664e+002 1.493260e+002 1.173583e+002
         vertex 2.520934e+002 1.481261e+002 1.167240e+002
      endloop
   endfacet
   facet normal -6.757645e-001 7.075083e-001 -2.068194e-001
      outer loop
         vertex 2.520934e+002 1.481261e+002 1.167240e+002
         vertex 2.531664e+002 1.493260e+002 1.173583e+002
         vertex 2.532284e+002 1.493260e+002 1.171136e+002
      endloop
   endfacet
   facet normal -6.627757e-001 7.073187e-001 -2.458223e-001
      outer loop
         vertex 2.520934e+002 1.481261e+002 1.167240e+002
         vertex 2.532284e+002 1.493260e+002 1.171136e+002
         vertex 2.533021e+002 1.493260e+002 1.169456e+002
      endloop
   endfacet
   facet normal -7.043669e-001 7.079423e-001 -5.181766e-002
      outer loop
         vertex 2.518930e+002 1.481261e+002 1.179254e+002
         vertex 2.531043e+002 1.493260e+002 1.177883e+002
         vertex 2.519434e+002 1.481261e+002 1.173164e+002
      endloop
   endfacet
   facet normal -7.007945e-001 7.075849e-001 -9.061304e-002
      outer loop
         vertex 2.519434e+002 1.481261e+002 1.173164e+002
         vertex 2.531043e+002 1.493260e+002 1.177883e+002
         vertex 2.531270e+002 1.493260e+002 1.175139e+002
      endloop
   endfacet
   facet normal -6.946525e-001 7.072689e-001 -1.312578e-001
      outer loop
         vertex 2.519434e+002 1.481261e+002 1.173164e+002
         vertex 2.531270e+002 1.493260e+002 1.175139e+002
         vertex 2.531664e+002 1.493260e+002 1.173583e+002
      endloop
   endfacet
   facet normal -7.030632e-001 7.079656e-001 6.698363e-002
      outer loop
         vertex 2.519434e+002 1.481261e+002 1.185344e+002
         vertex 2.531176e+002 1.493260e+002 1.182226e+002
         vertex 2.518930e+002 1.481261e+002 1.179254e+002
      endloop
   endfacet
   facet normal -7.059851e-001 7.076679e-001 2.812939e-002
      outer loop
         vertex 2.518930e+002 1.481261e+002 1.179254e+002
         vertex 2.531176e+002 1.493260e+002 1.182226e+002
         vertex 2.530929e+002 1.493260e+002 1.179253e+002
      endloop
   endfacet
   facet normal -7.068689e-001 7.072257e-001 -1.296331e-002
      outer loop
         vertex 2.518930e+002 1.481261e+002 1.179254e+002
         vertex 2.530929e+002 1.493260e+002 1.179253e+002
         vertex 2.531043e+002 1.493260e+002 1.177883e+002
      endloop
   endfacet
   facet normal -6.818587e-001 7.079955e-001 1.838776e-001
      outer loop
         vertex 2.520934e+002 1.481261e+002 1.191267e+002
         vertex 2.532059e+002 1.493260e+002 1.186482e+002
         vertex 2.519434e+002 1.481261e+002 1.185344e+002
      endloop
   endfacet
   facet normal -6.911949e-001 7.077576e-001 1.460440e-001
      outer loop
         vertex 2.519434e+002 1.481261e+002 1.185344e+002
         vertex 2.532059e+002 1.493260e+002 1.186482e+002
         vertex 2.531270e+002 1.493260e+002 1.183368e+002
      endloop
   endfacet
   facet normal -6.990771e-001 7.071893e-001 1.057100e-001
      outer loop
         vertex 2.519434e+002 1.481261e+002 1.185344e+002
         vertex 2.531270e+002 1.493260e+002 1.183368e+002
         vertex 2.531176e+002 1.493260e+002 1.182226e+002
      endloop
   endfacet
   facet normal -6.413571e-001 7.080321e-001 2.955530e-001
      outer loop
         vertex 2.523389e+002 1.481261e+002 1.196864e+002
         vertex 2.533667e+002 1.493260e+002 1.190523e+002
         vertex 2.520934e+002 1.481261e+002 1.191267e+002
      endloop
   endfacet
   facet normal -6.568496e-001 7.078537e-001 2.597915e-001
      outer loop
         vertex 2.520934e+002 1.481261e+002 1.191267e+002
         vertex 2.533667e+002 1.493260e+002 1.190523e+002
         vertex 2.532284e+002 1.493260e+002 1.187371e+002
      endloop
   endfacet
   facet normal -6.714964e-001 7.071595e-001 2.214003e-001
      outer loop
         vertex 2.520934e+002 1.481261e+002 1.191267e+002
         vertex 2.532284e+002 1.493260e+002 1.187371e+002
         vertex 2.532059e+002 1.493260e+002 1.186482e+002
      endloop
   endfacet
   facet normal -5.827093e-001 7.080752e-001 3.988477e-001
      outer loop
         vertex 2.526732e+002 1.481261e+002 1.201979e+002
         vertex 2.535950e+002 1.493260e+002 1.194225e+002
         vertex 2.523389e+002 1.481261e+002 1.196864e+002
      endloop
   endfacet
   facet normal -6.039290e-001 7.079564e-001 3.661523e-001
      outer loop
         vertex 2.523389e+002 1.481261e+002 1.196864e+002
         vertex 2.535950e+002 1.493260e+002 1.194225e+002
         vertex 2.533943e+002 1.493260e+002 1.191152e+002
      endloop
   endfacet
   facet normal -6.249077e-001 7.071364e-001 3.308301e-001
      outer loop
         vertex 2.523389e+002 1.481261e+002 1.196864e+002
         vertex 2.533943e+002 1.493260e+002 1.191152e+002
         vertex 2.533667e+002 1.493260e+002 1.190523e+002
      endloop
   endfacet
   facet normal -5.075803e-001 7.081248e-001 4.908377e-001
      outer loop
         vertex 2.530870e+002 1.481261e+002 1.206475e+002
         vertex 2.538843e+002 1.493260e+002 1.197478e+002
         vertex 2.526732e+002 1.481261e+002 1.201979e+002
      endloop
   endfacet
   facet normal -5.339390e-001 7.080654e-001 4.621175e-001
      outer loop
         vertex 2.526732e+002 1.481261e+002 1.201979e+002
         vertex 2.538843e+002 1.493260e+002 1.197478e+002
         vertex 2.536201e+002 1.493260e+002 1.194609e+002
      endloop
   endfacet
   facet normal -5.606309e-001 7.071199e-001 4.308996e-001
      outer loop
         vertex 2.526732e+002 1.481261e+002 1.201979e+002
         vertex 2.536201e+002 1.493260e+002 1.194609e+002
         vertex 2.535950e+002 1.493260e+002 1.194225e+002
      endloop
   endfacet
   facet normal -2.455971e-001 7.081248e-001 6.619981e-001
      outer loop
         vertex 2.546847e+002 1.481261e+002 1.215121e+002
         vertex 2.546104e+002 1.493260e+002 1.202222e+002
         vertex 2.541067e+002 1.481261e+002 1.213137e+002
      endloop
   endfacet
   facet normal -2.820644e-001 7.071100e-001 6.484096e-001
      outer loop
         vertex 2.541067e+002 1.481261e+002 1.213137e+002
         vertex 2.546104e+002 1.493260e+002 1.202222e+002
         vertex 2.545887e+002 1.493260e+002 1.202148e+002
      endloop
   endfacet
   facet normal -3.187583e-001 7.081808e-001 6.299787e-001
      outer loop
         vertex 2.541067e+002 1.481261e+002 1.213137e+002
         vertex 2.545887e+002 1.493260e+002 1.202148e+002
         vertex 2.535692e+002 1.481261e+002 1.210229e+002
      endloop
   endfacet
   facet normal -3.530468e-001 7.081808e-001 6.114228e-001
      outer loop
         vertex 2.535692e+002 1.481261e+002 1.210229e+002
         vertex 2.545887e+002 1.493260e+002 1.202148e+002
         vertex 2.542256e+002 1.493260e+002 1.200183e+002
      endloop
   endfacet
   facet normal -4.181020e-001 7.081808e-001 5.689206e-001
      outer loop
         vertex 2.535692e+002 1.481261e+002 1.210229e+002
         vertex 2.542256e+002 1.493260e+002 1.200183e+002
         vertex 2.530870e+002 1.481261e+002 1.206475e+002
      endloop
   endfacet
   facet normal -4.488686e-001 7.081808e-001 5.449742e-001
      outer loop
         vertex 2.530870e+002 1.481261e+002 1.206475e+002
         vertex 2.542256e+002 1.493260e+002 1.200183e+002
         vertex 2.538997e+002 1.493260e+002 1.197647e+002
      endloop
   endfacet
   facet normal -4.804873e-001 7.071100e-001 5.187749e-001
      outer loop
         vertex 2.530870e+002 1.481261e+002 1.206475e+002
         vertex 2.538997e+002 1.493260e+002 1.197647e+002
         vertex 2.538843e+002 1.493260e+002 1.197478e+002
      endloop
   endfacet
   facet normal -1.311758e-001 7.080752e-001 6.938462e-001
      outer loop
         vertex 2.552874e+002 1.481261e+002 1.216127e+002
         vertex 2.550244e+002 1.493260e+002 1.203564e+002
         vertex 2.546847e+002 1.481261e+002 1.215121e+002
      endloop
   endfacet
   facet normal -1.693969e-001 7.071199e-001 6.865028e-001
      outer loop
         vertex 2.546847e+002 1.481261e+002 1.215121e+002
         vertex 2.550244e+002 1.493260e+002 1.203564e+002
         vertex 2.549792e+002 1.493260e+002 1.203488e+002
      endloop
   endfacet
   facet normal -2.087075e-001 7.080654e-001 6.745996e-001
      outer loop
         vertex 2.546847e+002 1.481261e+002 1.215121e+002
         vertex 2.549792e+002 1.493260e+002 1.203488e+002
         vertex 2.546104e+002 1.493260e+002 1.202222e+002
      endloop
   endfacet
   facet normal -1.302261e-002 7.080321e-001 7.060602e-001
      outer loop
         vertex 2.558985e+002 1.481261e+002 1.216127e+002
         vertex 2.554553e+002 1.493260e+002 1.204168e+002
         vertex 2.552874e+002 1.481261e+002 1.216127e+002
      endloop
   endfacet
   facet normal -5.193605e-002 7.071364e-001 7.051672e-001
      outer loop
         vertex 2.552874e+002 1.481261e+002 1.216127e+002
         vertex 2.554553e+002 1.493260e+002 1.204168e+002
         vertex 2.553865e+002 1.493260e+002 1.204168e+002
      endloop
   endfacet
   facet normal -9.271026e-002 7.079564e-001 7.001447e-001
      outer loop
         vertex 2.552874e+002 1.481261e+002 1.216127e+002
         vertex 2.553865e+002 1.493260e+002 1.204168e+002
         vertex 2.550244e+002 1.493260e+002 1.203564e+002
      endloop
   endfacet
   facet normal 1.055160e-001 7.079955e-001 6.982898e-001
      outer loop
         vertex 2.565013e+002 1.481261e+002 1.215121e+002
         vertex 2.558898e+002 1.493260e+002 1.204017e+002
         vertex 2.558985e+002 1.481261e+002 1.216127e+002
      endloop
   endfacet
   facet normal 6.699133e-002 7.071595e-001 7.038733e-001
      outer loop
         vertex 2.558985e+002 1.481261e+002 1.216127e+002
         vertex 2.558898e+002 1.493260e+002 1.204017e+002
         vertex 2.557994e+002 1.493260e+002 1.204168e+002
      endloop
   endfacet
   facet normal 2.595009e-002 7.078538e-001 7.058821e-001
      outer loop
         vertex 2.558985e+002 1.481261e+002 1.216127e+002
         vertex 2.557994e+002 1.493260e+002 1.204168e+002
         vertex 2.554553e+002 1.493260e+002 1.204168e+002
      endloop
   endfacet
   facet normal 2.210819e-001 7.079656e-001 6.707515e-001
      outer loop
         vertex 2.570793e+002 1.481261e+002 1.213137e+002
         vertex 2.563151e+002 1.493260e+002 1.203116e+002
         vertex 2.565013e+002 1.481261e+002 1.215121e+002
      endloop
   endfacet
   facet normal 1.840161e-001 7.071893e-001 6.826576e-001
      outer loop
         vertex 2.565013e+002 1.481261e+002 1.215121e+002
         vertex 2.563151e+002 1.493260e+002 1.203116e+002
         vertex 2.562067e+002 1.493260e+002 1.203488e+002
      endloop
   endfacet
   facet normal 1.439133e-001 7.077576e-001 6.916416e-001
      outer loop
         vertex 2.565013e+002 1.481261e+002 1.215121e+002
         vertex 2.562067e+002 1.493260e+002 1.203488e+002
         vertex 2.558898e+002 1.493260e+002 1.204017e+002
      endloop
   endfacet
   facet normal 3.304001e-001 7.079423e-001 6.242223e-001
      outer loop
         vertex 2.576167e+002 1.481261e+002 1.210228e+002
         vertex 2.567182e+002 1.493260e+002 1.201493e+002
         vertex 2.570793e+002 1.481261e+002 1.213137e+002
      endloop
   endfacet
   facet normal 2.958237e-001 7.072257e-001 6.421216e-001
      outer loop
         vertex 2.570793e+002 1.481261e+002 1.213137e+002
         vertex 2.567182e+002 1.493260e+002 1.201493e+002
         vertex 2.565972e+002 1.493260e+002 1.202148e+002
      endloop
   endfacet
   facet normal 2.578371e-001 7.076679e-001 6.578192e-001
      outer loop
         vertex 2.570793e+002 1.481261e+002 1.213137e+002
         vertex 2.565972e+002 1.493260e+002 1.202148e+002
         vertex 2.563151e+002 1.493260e+002 1.203116e+002
      endloop
   endfacet
   facet normal 4.303728e-001 7.079256e-001 5.600184e-001
      outer loop
         vertex 2.580989e+002 1.481261e+002 1.206475e+002
         vertex 2.570870e+002 1.493260e+002 1.199196e+002
         vertex 2.576167e+002 1.481261e+002 1.210228e+002
      endloop
   endfacet
   facet normal 3.992468e-001 7.072689e-001 5.834147e-001
      outer loop
         vertex 2.576167e+002 1.481261e+002 1.210228e+002
         vertex 2.570870e+002 1.493260e+002 1.199196e+002
         vertex 2.569603e+002 1.493260e+002 1.200182e+002
      endloop
   endfacet
   facet normal 3.644928e-001 7.075848e-001 6.053666e-001
      outer loop
         vertex 2.576167e+002 1.481261e+002 1.210228e+002
         vertex 2.569603e+002 1.493260e+002 1.200182e+002
         vertex 2.567182e+002 1.493260e+002 1.201493e+002
      endloop
   endfacet
   facet normal 5.181664e-001 7.079156e-001 4.799574e-001
      outer loop
         vertex 2.585128e+002 1.481261e+002 1.201979e+002
         vertex 2.574104e+002 1.493260e+002 1.196296e+002
         vertex 2.580989e+002 1.481261e+002 1.206475e+002
      endloop
   endfacet
   facet normal 4.913564e-001 7.073187e-001 5.082018e-001
      outer loop
         vertex 2.580989e+002 1.481261e+002 1.206475e+002
         vertex 2.574104e+002 1.493260e+002 1.196296e+002
         vertex 2.572862e+002 1.493260e+002 1.197646e+002
      endloop
   endfacet
   facet normal 4.608563e-001 7.075083e-001 5.357643e-001
      outer loop
         vertex 2.580989e+002 1.481261e+002 1.206475e+002
         vertex 2.572862e+002 1.493260e+002 1.197646e+002
         vertex 2.570870e+002 1.493260e+002 1.199196e+002
      endloop
   endfacet
   facet normal 5.912929e-001 7.079123e-001 3.863069e-001
      outer loop
         vertex 2.588470e+002 1.481261e+002 1.196863e+002
         vertex 2.576787e+002 1.493260e+002 1.192880e+002
         vertex 2.585128e+002 1.481261e+002 1.201979e+002
      endloop
   endfacet
   facet normal 5.695446e-001 7.073753e-001 4.186157e-001
      outer loop
         vertex 2.585128e+002 1.481261e+002 1.201979e+002
         vertex 2.576787e+002 1.493260e+002 1.192880e+002
         vertex 2.575658e+002 1.493260e+002 1.194609e+002
      endloop
   endfacet
   facet normal 5.441948e-001 7.074385e-001 4.509799e-001
      outer loop
         vertex 2.585128e+002 1.481261e+002 1.201979e+002
         vertex 2.575658e+002 1.493260e+002 1.194609e+002
         vertex 2.574104e+002 1.493260e+002 1.196296e+002
      endloop
   endfacet
   facet normal 6.476799e-001 7.079156e-001 2.817201e-001
      outer loop
         vertex 2.590925e+002 1.481261e+002 1.191267e+002
         vertex 2.578838e+002 1.493260e+002 1.189051e+002
         vertex 2.588470e+002 1.481261e+002 1.196863e+002
      endloop
   endfacet
   facet normal 6.315989e-001 7.074385e-001 3.171965e-001
      outer loop
         vertex 2.588470e+002 1.481261e+002 1.196863e+002
         vertex 2.578838e+002 1.493260e+002 1.189051e+002
         vertex 2.577916e+002 1.493260e+002 1.191152e+002
      endloop
   endfacet
   facet normal 6.121440e-001 7.073753e-001 3.534119e-001
      outer loop
         vertex 2.588470e+002 1.481261e+002 1.196863e+002
         vertex 2.577916e+002 1.493260e+002 1.191152e+002
         vertex 2.576787e+002 1.493260e+002 1.192880e+002
      endloop
   endfacet
   facet normal 6.857303e-001 7.079256e-001 1.691605e-001
      outer loop
         vertex 2.592425e+002 1.481261e+002 1.185343e+002
         vertex 2.580194e+002 1.493260e+002 1.184924e+002
         vertex 2.590925e+002 1.481261e+002 1.191267e+002
      endloop
   endfacet
   facet normal 6.757645e-001 7.075083e-001 2.068194e-001
      outer loop
         vertex 2.590925e+002 1.481261e+002 1.191267e+002
         vertex 2.580194e+002 1.493260e+002 1.184924e+002
         vertex 2.579575e+002 1.493260e+002 1.187371e+002
      endloop
   endfacet
   facet normal 6.627757e-001 7.073187e-001 2.458223e-001
      outer loop
         vertex 2.590925e+002 1.481261e+002 1.191267e+002
         vertex 2.579575e+002 1.493260e+002 1.187371e+002
         vertex 2.578838e+002 1.493260e+002 1.189051e+002
      endloop
   endfacet
   facet normal 7.043669e-001 7.079423e-001 5.181766e-002
      outer loop
         vertex 2.592930e+002 1.481261e+002 1.179253e+002
         vertex 2.580816e+002 1.493260e+002 1.180624e+002
         vertex 2.592425e+002 1.481261e+002 1.185343e+002
      endloop
   endfacet
   facet normal 7.007945e-001 7.075849e-001 9.061304e-002
      outer loop
         vertex 2.592425e+002 1.481261e+002 1.185343e+002
         vertex 2.580816e+002 1.493260e+002 1.180624e+002
         vertex 2.580588e+002 1.493260e+002 1.183368e+002
      endloop
   endfacet
   facet normal 6.946525e-001 7.072689e-001 1.312578e-001
      outer loop
         vertex 2.592425e+002 1.481261e+002 1.185343e+002
         vertex 2.580588e+002 1.493260e+002 1.183368e+002
         vertex 2.580194e+002 1.493260e+002 1.184924e+002
      endloop
   endfacet
   facet normal 7.030632e-001 7.079656e-001 -6.698363e-002
      outer loop
         vertex 2.592425e+002 1.481261e+002 1.173163e+002
         vertex 2.580683e+002 1.493260e+002 1.176281e+002
         vertex 2.592930e+002 1.481261e+002 1.179253e+002
      endloop
   endfacet
   facet normal 7.059851e-001 7.076679e-001 -2.812939e-002
      outer loop
         vertex 2.592930e+002 1.481261e+002 1.179253e+002
         vertex 2.580683e+002 1.493260e+002 1.176281e+002
         vertex 2.580929e+002 1.493260e+002 1.179253e+002
      endloop
   endfacet
   facet normal 7.068689e-001 7.072257e-001 1.296331e-002
      outer loop
         vertex 2.592930e+002 1.481261e+002 1.179253e+002
         vertex 2.580929e+002 1.493260e+002 1.179253e+002
         vertex 2.580816e+002 1.493260e+002 1.180624e+002
      endloop
   endfacet
   facet normal 6.818587e-001 7.079955e-001 -1.838776e-001
      outer loop
         vertex 2.590925e+002 1.481261e+002 1.167239e+002
         vertex 2.579800e+002 1.493260e+002 1.172024e+002
         vertex 2.592425e+002 1.481261e+002 1.173163e+002
      endloop
   endfacet
   facet normal 6.911949e-001 7.077576e-001 -1.460440e-001
      outer loop
         vertex 2.592425e+002 1.481261e+002 1.173163e+002
         vertex 2.579800e+002 1.493260e+002 1.172024e+002
         vertex 2.580588e+002 1.493260e+002 1.175138e+002
      endloop
   endfacet
   facet normal 6.990771e-001 7.071893e-001 -1.057100e-001
      outer loop
         vertex 2.592425e+002 1.481261e+002 1.173163e+002
         vertex 2.580588e+002 1.493260e+002 1.175138e+002
         vertex 2.580683e+002 1.493260e+002 1.176281e+002
      endloop
   endfacet
   facet normal 6.413571e-001 7.080321e-001 -2.955530e-001
      outer loop
         vertex 2.588470e+002 1.481261e+002 1.161643e+002
         vertex 2.578192e+002 1.493260e+002 1.167984e+002
         vertex 2.590925e+002 1.481261e+002 1.167239e+002
      endloop
   endfacet
   facet normal 6.568496e-001 7.078537e-001 -2.597915e-001
      outer loop
         vertex 2.590925e+002 1.481261e+002 1.167239e+002
         vertex 2.578192e+002 1.493260e+002 1.167984e+002
         vertex 2.579575e+002 1.493260e+002 1.171136e+002
      endloop
   endfacet
   facet normal 6.714964e-001 7.071595e-001 -2.214003e-001
      outer loop
         vertex 2.590925e+002 1.481261e+002 1.167239e+002
         vertex 2.579575e+002 1.493260e+002 1.171136e+002
         vertex 2.579800e+002 1.493260e+002 1.172024e+002
      endloop
   endfacet
   facet normal 5.827093e-001 7.080752e-001 -3.988477e-001
      outer loop
         vertex 2.585128e+002 1.481261e+002 1.156527e+002
         vertex 2.575909e+002 1.493260e+002 1.164281e+002
         vertex 2.588470e+002 1.481261e+002 1.161643e+002
      endloop
   endfacet
   facet normal 6.039290e-001 7.079564e-001 -3.661523e-001
      outer loop
         vertex 2.588470e+002 1.481261e+002 1.161643e+002
         vertex 2.575909e+002 1.493260e+002 1.164281e+002
         vertex 2.577916e+002 1.493260e+002 1.167355e+002
      endloop
   endfacet
   facet normal 6.249077e-001 7.071364e-001 -3.308301e-001
      outer loop
         vertex 2.588470e+002 1.481261e+002 1.161643e+002
         vertex 2.577916e+002 1.493260e+002 1.167355e+002
         vertex 2.578192e+002 1.493260e+002 1.167984e+002
      endloop
   endfacet
   facet normal 5.075803e-001 7.081248e-001 -4.908377e-001
      outer loop
         vertex 2.580989e+002 1.481261e+002 1.152031e+002
         vertex 2.573017e+002 1.493260e+002 1.161029e+002
         vertex 2.585128e+002 1.481261e+002 1.156527e+002
      endloop
   endfacet
   facet normal 5.339390e-001 7.080654e-001 -4.621175e-001
      outer loop
         vertex 2.585128e+002 1.481261e+002 1.156527e+002
         vertex 2.573017e+002 1.493260e+002 1.161029e+002
         vertex 2.575658e+002 1.493260e+002 1.163898e+002
      endloop
   endfacet
   facet normal 5.606309e-001 7.071199e-001 -4.308996e-001
      outer loop
         vertex 2.585128e+002 1.481261e+002 1.156527e+002
         vertex 2.575658e+002 1.493260e+002 1.163898e+002
         vertex 2.575909e+002 1.493260e+002 1.164281e+002
      endloop
   endfacet
   facet normal 1.693969e-001 7.071199e-001 -6.865028e-001
      outer loop
         vertex 2.561615e+002 1.493260e+002 1.154943e+002
         vertex 2.562067e+002 1.493260e+002 1.155018e+002
         vertex 2.565012e+002 1.481261e+002 1.143386e+002
      endloop
   endfacet
   facet normal 2.087075e-001 7.080654e-001 -6.745996e-001
      outer loop
         vertex 2.565012e+002 1.481261e+002 1.143386e+002
         vertex 2.562067e+002 1.493260e+002 1.155018e+002
         vertex 2.565755e+002 1.493260e+002 1.156285e+002
      endloop
   endfacet
   facet normal 2.455971e-001 7.081248e-001 -6.619981e-001
      outer loop
         vertex 2.565012e+002 1.481261e+002 1.143386e+002
         vertex 2.565755e+002 1.493260e+002 1.156285e+002
         vertex 2.570792e+002 1.481261e+002 1.145370e+002
      endloop
   endfacet
   facet normal 2.820644e-001 7.071100e-001 -6.484096e-001
      outer loop
         vertex 2.570792e+002 1.481261e+002 1.145370e+002
         vertex 2.565755e+002 1.493260e+002 1.156285e+002
         vertex 2.565972e+002 1.493260e+002 1.156359e+002
      endloop
   endfacet
   facet normal 3.187583e-001 7.081808e-001 -6.299787e-001
      outer loop
         vertex 2.570792e+002 1.481261e+002 1.145370e+002
         vertex 2.565972e+002 1.493260e+002 1.156359e+002
         vertex 2.576166e+002 1.481261e+002 1.148278e+002
      endloop
   endfacet
   facet normal 3.530468e-001 7.081808e-001 -6.114228e-001
      outer loop
         vertex 2.576166e+002 1.481261e+002 1.148278e+002
         vertex 2.565972e+002 1.493260e+002 1.156359e+002
         vertex 2.569603e+002 1.493260e+002 1.158324e+002
      endloop
   endfacet
   facet normal 4.181020e-001 7.081808e-001 -5.689206e-001
      outer loop
         vertex 2.576166e+002 1.481261e+002 1.148278e+002
         vertex 2.569603e+002 1.493260e+002 1.158324e+002
         vertex 2.580989e+002 1.481261e+002 1.152031e+002
      endloop
   endfacet
   facet normal 4.488686e-001 7.081808e-001 -5.449742e-001
      outer loop
         vertex 2.580989e+002 1.481261e+002 1.152031e+002
         vertex 2.569603e+002 1.493260e+002 1.158324e+002
         vertex 2.572861e+002 1.493260e+002 1.160860e+002
      endloop
   endfacet
   facet normal 4.804873e-001 7.071100e-001 -5.187749e-001
      outer loop
         vertex 2.580989e+002 1.481261e+002 1.152031e+002
         vertex 2.572861e+002 1.493260e+002 1.160860e+002
         vertex 2.573017e+002 1.493260e+002 1.161029e+002
      endloop
   endfacet
endsolid