solid PumpAssembly - PumpExtention-2 PinL-2
   facet normal 9.826525e-001 2.174678e-016 -1.854562e-001
      outer loop
         vertex 3.465060e+002 9.912605e+001 4.161317e+001
         vertex 3.465993e+002 1.291261e+002 4.203885e+001
         vertex 3.465993e+002 9.912605e+001 4.203885e+001
      endloop
   endfacet
   facet normal 9.975291e-001 1.112921e-017 -7.025451e-002
      outer loop
         vertex 3.465993e+002 9.912605e+001 4.203885e+001
         vertex 3.465993e+002 1.291261e+002 4.203885e+001
         vertex 3.466172e+002 1.291261e+002 4.247426e+001
      endloop
   endfacet
   facet normal 9.999279e-001 -9.262183e-017 -1.200289e-002
      outer loop
         vertex 3.465993e+002 9.912605e+001 4.203885e+001
         vertex 3.466172e+002 1.291261e+002 4.247426e+001
         vertex 3.466172e+002 9.912605e+001 4.247426e+001
      endloop
   endfacet
   facet normal 9.945740e-001 -2.981350e-016 1.040319e-001
      outer loop
         vertex 3.466172e+002 9.912605e+001 4.247426e+001
         vertex 3.466172e+002 1.291261e+002 4.247426e+001
         vertex 3.465593e+002 1.291261e+002 4.290617e+001
      endloop
   endfacet
   facet normal 9.868211e-001 -3.998971e-016 1.618151e-001
      outer loop
         vertex 3.466172e+002 9.912605e+001 4.247426e+001
         vertex 3.465593e+002 1.291261e+002 4.290617e+001
         vertex 3.465593e+002 9.912605e+001 4.290617e+001
      endloop
   endfacet
   facet normal 9.613992e-001 -5.983406e-016 2.751574e-001
      outer loop
         vertex 3.465593e+002 9.912605e+001 4.290617e+001
         vertex 3.465593e+002 1.291261e+002 4.290617e+001
         vertex 3.464272e+002 1.291261e+002 4.332146e+001
      endloop
   endfacet
   facet normal 9.437302e-001 -6.950218e-016 3.307165e-001
      outer loop
         vertex 3.465593e+002 9.912605e+001 4.290617e+001
         vertex 3.464272e+002 1.291261e+002 4.332146e+001
         vertex 3.464272e+002 9.912605e+001 4.332146e+001
      endloop
   endfacet
   facet normal 8.990128e-001 -8.803658e-016 4.379224e-001
      outer loop
         vertex 3.464272e+002 9.912605e+001 4.332146e+001
         vertex 3.464272e+002 1.291261e+002 4.332146e+001
         vertex 3.462250e+002 1.291261e+002 4.370750e+001
      endloop
   endfacet
   facet normal 8.719645e-001 -9.690286e-016 4.895692e-001
      outer loop
         vertex 3.464272e+002 9.912605e+001 4.332146e+001
         vertex 3.462250e+002 1.291261e+002 4.370750e+001
         vertex 3.462250e+002 9.912605e+001 4.370750e+001
      endloop
   endfacet
   facet normal 8.093104e-001 -1.135642e-015 5.873812e-001
      outer loop
         vertex 3.462250e+002 9.912605e+001 4.370750e+001
         vertex 3.462250e+002 1.291261e+002 4.370750e+001
         vertex 3.459589e+002 1.291261e+002 4.405256e+001
      endloop
   endfacet
   facet normal 7.737046e-001 -1.213592e-015 6.335465e-001
      outer loop
         vertex 3.462250e+002 9.912605e+001 4.370750e+001
         vertex 3.459589e+002 1.291261e+002 4.405256e+001
         vertex 3.459589e+002 9.912605e+001 4.405256e+001
      endloop
   endfacet
   facet normal 6.950175e-001 -1.356411e-015 7.189929e-001
      outer loop
         vertex 3.459589e+002 9.912605e+001 4.405256e+001
         vertex 3.459589e+002 1.291261e+002 4.405256e+001
         vertex 3.456368e+002 1.291261e+002 4.434618e+001
      endloop
   endfacet
   facet normal 6.519361e-001 -1.421281e-015 7.582739e-001
      outer loop
         vertex 3.459589e+002 9.912605e+001 4.405256e+001
         vertex 3.456368e+002 1.291261e+002 4.434618e+001
         vertex 3.456368e+002 9.912605e+001 4.434618e+001
      endloop
   endfacet
   facet normal 5.596067e-001 -1.535967e-015 8.287583e-001
      outer loop
         vertex 3.456368e+002 9.912605e+001 4.434618e+001
         vertex 3.456368e+002 1.291261e+002 4.434618e+001
         vertex 3.452687e+002 1.291261e+002 4.457941e+001
      endloop
   endfacet
   facet normal 5.103589e-001 -1.585785e-015 8.599616e-001
      outer loop
         vertex 3.456368e+002 9.912605e+001 4.434618e+001
         vertex 3.452687e+002 1.291261e+002 4.457941e+001
         vertex 3.452687e+002 9.912605e+001 4.457941e+001
      endloop
   endfacet
   facet normal 4.071927e-001 -1.668854e-015 9.133423e-001
      outer loop
         vertex 3.452687e+002 9.912605e+001 4.457941e+001
         vertex 3.452687e+002 1.291261e+002 4.457941e+001
         vertex 3.448657e+002 1.291261e+002 4.474518e+001
      endloop
   endfacet
   facet normal 3.532746e-001 -1.702106e-015 9.355197e-001
      outer loop
         vertex 3.452687e+002 9.912605e+001 4.457941e+001
         vertex 3.448657e+002 1.291261e+002 4.474518e+001
         vertex 3.448657e+002 9.912605e+001 4.474518e+001
      endloop
   endfacet
   facet normal 2.424063e-001 -1.751033e-015 9.701748e-001
      outer loop
         vertex 3.448657e+002 9.912605e+001 4.474518e+001
         vertex 3.448657e+002 1.291261e+002 4.474518e+001
         vertex 3.444400e+002 1.291261e+002 4.483844e+001
      endloop
   endfacet
   facet normal 1.854562e-001 -1.766709e-015 9.826525e-001
      outer loop
         vertex 3.448657e+002 9.912605e+001 4.474518e+001
         vertex 3.444400e+002 1.291261e+002 4.483844e+001
         vertex 3.444400e+002 9.912605e+001 4.483844e+001
      endloop
   endfacet
   facet normal 7.025451e-002 -1.780008e-015 9.975291e-001
      outer loop
         vertex 3.444400e+002 9.912605e+001 4.483844e+001
         vertex 3.444400e+002 1.291261e+002 4.483844e+001
         vertex 3.440046e+002 1.291261e+002 4.485638e+001
      endloop
   endfacet
   facet normal 1.200289e-002 -1.777631e-015 9.999279e-001
      outer loop
         vertex 3.444400e+002 9.912605e+001 4.483844e+001
         vertex 3.440046e+002 1.291261e+002 4.485638e+001
         vertex 3.440046e+002 9.912605e+001 4.485638e+001
      endloop
   endfacet
   facet normal -1.040319e-001 -1.754898e-015 9.945740e-001
      outer loop
         vertex 3.440046e+002 9.912605e+001 4.485638e+001
         vertex 3.440046e+002 1.291261e+002 4.485638e+001
         vertex 3.435727e+002 1.291261e+002 4.479843e+001
      endloop
   endfacet
   facet normal -1.618151e-001 -1.734541e-015 9.868211e-001
      outer loop
         vertex 3.440046e+002 9.912605e+001 4.485638e+001
         vertex 3.435727e+002 1.291261e+002 4.479843e+001
         vertex 3.435727e+002 9.912605e+001 4.479843e+001
      endloop
   endfacet
   facet normal -2.751574e-001 -1.676467e-015 9.613992e-001
      outer loop
         vertex 3.435727e+002 9.912605e+001 4.479843e+001
         vertex 3.435727e+002 1.291261e+002 4.479843e+001
         vertex 3.431574e+002 1.291261e+002 4.466636e+001
      endloop
   endfacet
   facet normal -3.307165e-001 -1.638749e-015 9.437302e-001
      outer loop
         vertex 3.435727e+002 9.912605e+001 4.479843e+001
         vertex 3.431574e+002 1.291261e+002 4.466636e+001
         vertex 3.431574e+002 9.912605e+001 4.466636e+001
      endloop
   endfacet
   facet normal -4.379224e-001 -1.547097e-015 8.990128e-001
      outer loop
         vertex 3.431574e+002 9.912605e+001 4.466636e+001
         vertex 3.431574e+002 1.291261e+002 4.466636e+001
         vertex 3.427714e+002 1.291261e+002 4.446418e+001
      endloop
   endfacet
   facet normal -4.895692e-001 -1.493163e-015 8.719645e-001
      outer loop
         vertex 3.431574e+002 9.912605e+001 4.466636e+001
         vertex 3.427714e+002 1.291261e+002 4.446418e+001
         vertex 3.427714e+002 9.912605e+001 4.446418e+001
      endloop
   endfacet
   facet normal -5.873812e-001 -1.370719e-015 8.093104e-001
      outer loop
         vertex 3.427714e+002 9.912605e+001 4.446418e+001
         vertex 3.427714e+002 1.291261e+002 4.446418e+001
         vertex 3.424263e+002 1.291261e+002 4.419804e+001
      endloop
   endfacet
   facet normal -6.335465e-001 -1.302208e-015 7.737046e-001
      outer loop
         vertex 3.427714e+002 9.912605e+001 4.446418e+001
         vertex 3.424263e+002 1.291261e+002 4.419804e+001
         vertex 3.424263e+002 9.912605e+001 4.419804e+001
      endloop
   endfacet
   facet normal -7.189929e-001 -1.152693e-015 6.950175e-001
      outer loop
         vertex 3.424263e+002 9.912605e+001 4.419804e+001
         vertex 3.424263e+002 1.291261e+002 4.419804e+001
         vertex 3.421327e+002 1.291261e+002 4.387602e+001
      endloop
   endfacet
   facet normal -7.582739e-001 -1.071687e-015 6.519361e-001
      outer loop
         vertex 3.424263e+002 9.912605e+001 4.419804e+001
         vertex 3.421327e+002 1.291261e+002 4.387602e+001
         vertex 3.421327e+002 9.912605e+001 4.387602e+001
      endloop
   endfacet
   facet normal -8.287583e-001 -8.996422e-016 5.596067e-001
      outer loop
         vertex 3.421327e+002 9.912605e+001 4.387602e+001
         vertex 3.421327e+002 1.291261e+002 4.387602e+001
         vertex 3.418995e+002 1.291261e+002 4.350791e+001
      endloop
   endfacet
   facet normal -8.599616e-001 -8.086029e-016 5.103589e-001
      outer loop
         vertex 3.421327e+002 9.912605e+001 4.387602e+001
         vertex 3.418995e+002 1.291261e+002 4.350791e+001
         vertex 3.418995e+002 9.912605e+001 4.350791e+001
      endloop
   endfacet
   facet normal -9.133423e-001 -6.192566e-016 4.071927e-001
      outer loop
         vertex 3.418995e+002 9.912605e+001 4.350791e+001
         vertex 3.418995e+002 1.291261e+002 4.350791e+001
         vertex 3.417337e+002 1.291261e+002 4.310489e+001
      endloop
   endfacet
   facet normal -9.355197e-001 -5.209497e-016 3.532746e-001
      outer loop
         vertex 3.418995e+002 9.912605e+001 4.350791e+001
         vertex 3.417337e+002 1.291261e+002 4.310489e+001
         vertex 3.417337e+002 9.912605e+001 4.310489e+001
      endloop
   endfacet
   facet normal -9.701748e-001 -3.200553e-016 2.424063e-001
      outer loop
         vertex 3.417337e+002 9.912605e+001 4.310489e+001
         vertex 3.417337e+002 1.291261e+002 4.310489e+001
         vertex 3.416404e+002 1.291261e+002 4.267921e+001
      endloop
   endfacet
   facet normal -9.826525e-001 -2.174678e-016 1.854562e-001
      outer loop
         vertex 3.417337e+002 9.912605e+001 4.310489e+001
         vertex 3.416404e+002 1.291261e+002 4.267921e+001
         vertex 3.416404e+002 9.912605e+001 4.267921e+001
      endloop
   endfacet
   facet normal -9.975291e-001 -1.112921e-017 7.025451e-002
      outer loop
         vertex 3.416404e+002 9.912605e+001 4.267921e+001
         vertex 3.416404e+002 1.291261e+002 4.267921e+001
         vertex 3.416225e+002 1.291261e+002 4.224380e+001
      endloop
   endfacet
   facet normal -9.999279e-001 9.262183e-017 1.200289e-002
      outer loop
         vertex 3.416404e+002 9.912605e+001 4.267921e+001
         vertex 3.416225e+002 1.291261e+002 4.224380e+001
         vertex 3.416225e+002 9.912605e+001 4.224380e+001
      endloop
   endfacet
   facet normal -9.945740e-001 2.981350e-016 -1.040319e-001
      outer loop
         vertex 3.416225e+002 9.912605e+001 4.224380e+001
         vertex 3.416225e+002 1.291261e+002 4.224380e+001
         vertex 3.416805e+002 1.291261e+002 4.181189e+001
      endloop
   endfacet
   facet normal -9.868211e-001 3.998971e-016 -1.618151e-001
      outer loop
         vertex 3.416225e+002 9.912605e+001 4.224380e+001
         vertex 3.416805e+002 1.291261e+002 4.181189e+001
         vertex 3.416805e+002 9.912605e+001 4.181189e+001
      endloop
   endfacet
   facet normal -9.613992e-001 5.983406e-016 -2.751574e-001
      outer loop
         vertex 3.416805e+002 9.912605e+001 4.181189e+001
         vertex 3.416805e+002 1.291261e+002 4.181189e+001
         vertex 3.418126e+002 1.291261e+002 4.139661e+001
      endloop
   endfacet
   facet normal -9.437302e-001 6.950218e-016 -3.307165e-001
      outer loop
         vertex 3.416805e+002 9.912605e+001 4.181189e+001
         vertex 3.418126e+002 1.291261e+002 4.139661e+001
         vertex 3.418126e+002 9.912605e+001 4.139661e+001
      endloop
   endfacet
   facet normal -8.990128e-001 8.803658e-016 -4.379224e-001
      outer loop
         vertex 3.418126e+002 9.912605e+001 4.139661e+001
         vertex 3.418126e+002 1.291261e+002 4.139661e+001
         vertex 3.420147e+002 1.291261e+002 4.101057e+001
      endloop
   endfacet
   facet normal -8.719645e-001 9.690286e-016 -4.895692e-001
      outer loop
         vertex 3.418126e+002 9.912605e+001 4.139661e+001
         vertex 3.420147e+002 1.291261e+002 4.101057e+001
         vertex 3.420147e+002 9.912605e+001 4.101057e+001
      endloop
   endfacet
   facet normal -8.093104e-001 1.135642e-015 -5.873812e-001
      outer loop
         vertex 3.420147e+002 9.912605e+001 4.101057e+001
         vertex 3.420147e+002 1.291261e+002 4.101057e+001
         vertex 3.422809e+002 1.291261e+002 4.066550e+001
      endloop
   endfacet
   facet normal -7.737046e-001 1.213592e-015 -6.335465e-001
      outer loop
         vertex 3.420147e+002 9.912605e+001 4.101057e+001
         vertex 3.422809e+002 1.291261e+002 4.066550e+001
         vertex 3.422809e+002 9.912605e+001 4.066550e+001
      endloop
   endfacet
   facet normal -6.950175e-001 1.356411e-015 -7.189929e-001
      outer loop
         vertex 3.422809e+002 9.912605e+001 4.066550e+001
         vertex 3.422809e+002 1.291261e+002 4.066550e+001
         vertex 3.426029e+002 1.291261e+002 4.037189e+001
      endloop
   endfacet
   facet normal -6.519361e-001 1.421281e-015 -7.582739e-001
      outer loop
         vertex 3.422809e+002 9.912605e+001 4.066550e+001
         vertex 3.426029e+002 1.291261e+002 4.037189e+001
         vertex 3.426029e+002 9.912605e+001 4.037189e+001
      endloop
   endfacet
   facet normal -5.596067e-001 1.535967e-015 -8.287583e-001
      outer loop
         vertex 3.426029e+002 9.912605e+001 4.037189e+001
         vertex 3.426029e+002 1.291261e+002 4.037189e+001
         vertex 3.429710e+002 1.291261e+002 4.013865e+001
      endloop
   endfacet
   facet normal -5.103589e-001 1.585785e-015 -8.599616e-001
      outer loop
         vertex 3.426029e+002 9.912605e+001 4.037189e+001
         vertex 3.429710e+002 1.291261e+002 4.013865e+001
         vertex 3.429710e+002 9.912605e+001 4.013865e+001
      endloop
   endfacet
   facet normal -4.071927e-001 1.668854e-015 -9.133423e-001
      outer loop
         vertex 3.429710e+002 9.912605e+001 4.013865e+001
         vertex 3.429710e+002 1.291261e+002 4.013865e+001
         vertex 3.433740e+002 1.291261e+002 3.997289e+001
      endloop
   endfacet
   facet normal -3.532746e-001 1.702106e-015 -9.355197e-001
      outer loop
         vertex 3.429710e+002 9.912605e+001 4.013865e+001
         vertex 3.433740e+002 1.291261e+002 3.997289e+001
         vertex 3.433740e+002 9.912605e+001 3.997289e+001
      endloop
   endfacet
   facet normal -2.424063e-001 1.751033e-015 -9.701748e-001
      outer loop
         vertex 3.433740e+002 9.912605e+001 3.997289e+001
         vertex 3.433740e+002 1.291261e+002 3.997289e+001
         vertex 3.437997e+002 1.291261e+002 3.987962e+001
      endloop
   endfacet
   facet normal -1.854562e-001 1.766709e-015 -9.826525e-001
      outer loop
         vertex 3.433740e+002 9.912605e+001 3.997289e+001
         vertex 3.437997e+002 1.291261e+002 3.987962e+001
         vertex 3.437997e+002 9.912605e+001 3.987962e+001
      endloop
   endfacet
   facet normal -7.025451e-002 1.780008e-015 -9.975291e-001
      outer loop
         vertex 3.437997e+002 9.912605e+001 3.987962e+001
         vertex 3.437997e+002 1.291261e+002 3.987962e+001
         vertex 3.442351e+002 1.291261e+002 3.986169e+001
      endloop
   endfacet
   facet normal -1.200289e-002 1.777631e-015 -9.999279e-001
      outer loop
         vertex 3.437997e+002 9.912605e+001 3.987962e+001
         vertex 3.442351e+002 1.291261e+002 3.986169e+001
         vertex 3.442351e+002 9.912605e+001 3.986169e+001
      endloop
   endfacet
   facet normal 1.040319e-001 1.754898e-015 -9.945740e-001
      outer loop
         vertex 3.442351e+002 9.912605e+001 3.986169e+001
         vertex 3.442351e+002 1.291261e+002 3.986169e+001
         vertex 3.446670e+002 1.291261e+002 3.991964e+001
      endloop
   endfacet
   facet normal 1.618151e-001 1.734541e-015 -9.868211e-001
      outer loop
         vertex 3.442351e+002 9.912605e+001 3.986169e+001
         vertex 3.446670e+002 1.291261e+002 3.991964e+001
         vertex 3.446670e+002 9.912605e+001 3.991964e+001
      endloop
   endfacet
   facet normal 2.751574e-001 1.676467e-015 -9.613992e-001
      outer loop
         vertex 3.446670e+002 9.912605e+001 3.991964e+001
         vertex 3.446670e+002 1.291261e+002 3.991964e+001
         vertex 3.450823e+002 1.291261e+002 4.005171e+001
      endloop
   endfacet
   facet normal 3.307165e-001 1.638749e-015 -9.437302e-001
      outer loop
         vertex 3.446670e+002 9.912605e+001 3.991964e+001
         vertex 3.450823e+002 1.291261e+002 4.005171e+001
         vertex 3.450823e+002 9.912605e+001 4.005171e+001
      endloop
   endfacet
   facet normal 4.379224e-001 1.547097e-015 -8.990128e-001
      outer loop
         vertex 3.450823e+002 9.912605e+001 4.005171e+001
         vertex 3.450823e+002 1.291261e+002 4.005171e+001
         vertex 3.454683e+002 1.291261e+002 4.025388e+001
      endloop
   endfacet
   facet normal 4.895692e-001 1.493163e-015 -8.719645e-001
      outer loop
         vertex 3.450823e+002 9.912605e+001 4.005171e+001
         vertex 3.454683e+002 1.291261e+002 4.025388e+001
         vertex 3.454683e+002 9.912605e+001 4.025388e+001
      endloop
   endfacet
   facet normal 5.873812e-001 1.370719e-015 -8.093104e-001
      outer loop
         vertex 3.454683e+002 9.912605e+001 4.025388e+001
         vertex 3.454683e+002 1.291261e+002 4.025388e+001
         vertex 3.458134e+002 1.291261e+002 4.052003e+001
      endloop
   endfacet
   facet normal 6.335465e-001 1.302208e-015 -7.737046e-001
      outer loop
         vertex 3.454683e+002 9.912605e+001 4.025388e+001
         vertex 3.458134e+002 1.291261e+002 4.052003e+001
         vertex 3.458134e+002 9.912605e+001 4.052003e+001
      endloop
   endfacet
   facet normal 7.189929e-001 1.152693e-015 -6.950175e-001
      outer loop
         vertex 3.458134e+002 9.912605e+001 4.052003e+001
         vertex 3.458134e+002 1.291261e+002 4.052003e+001
         vertex 3.461070e+002 1.291261e+002 4.084204e+001
      endloop
   endfacet
   facet normal 7.582739e-001 1.071687e-015 -6.519361e-001
      outer loop
         vertex 3.458134e+002 9.912605e+001 4.052003e+001
         vertex 3.461070e+002 1.291261e+002 4.084204e+001
         vertex 3.461070e+002 9.912605e+001 4.084204e+001
      endloop
   endfacet
   facet normal 8.287583e-001 8.996422e-016 -5.596067e-001
      outer loop
         vertex 3.461070e+002 9.912605e+001 4.084204e+001
         vertex 3.461070e+002 1.291261e+002 4.084204e+001
         vertex 3.463402e+002 1.291261e+002 4.121015e+001
      endloop
   endfacet
   facet normal 8.599616e-001 8.086029e-016 -5.103589e-001
      outer loop
         vertex 3.461070e+002 9.912605e+001 4.084204e+001
         vertex 3.463402e+002 1.291261e+002 4.121015e+001
         vertex 3.463402e+002 9.912605e+001 4.121015e+001
      endloop
   endfacet
   facet normal 9.133423e-001 6.192566e-016 -4.071927e-001
      outer loop
         vertex 3.463402e+002 9.912605e+001 4.121015e+001
         vertex 3.463402e+002 1.291261e+002 4.121015e+001
         vertex 3.465060e+002 1.291261e+002 4.161317e+001
      endloop
   endfacet
   facet normal 9.355197e-001 5.209497e-016 -3.532746e-001
      outer loop
         vertex 3.463402e+002 9.912605e+001 4.121015e+001
         vertex 3.465060e+002 1.291261e+002 4.161317e+001
         vertex 3.465060e+002 9.912605e+001 4.161317e+001
      endloop
   endfacet
   facet normal 9.701748e-001 3.200553e-016 -2.424063e-001
      outer loop
         vertex 3.465060e+002 9.912605e+001 4.161317e+001
         vertex 3.465060e+002 1.291261e+002 4.161317e+001
         vertex 3.465993e+002 1.291261e+002 4.203885e+001
      endloop
   endfacet
   facet normal 1.413440e-016 1.000000e+000 1.804112e-015
      outer loop
         vertex 3.462250e+002 1.291261e+002 4.370750e+001
         vertex 3.426029e+002 1.291261e+002 4.037189e+001
         vertex 3.459589e+002 1.291261e+002 4.405256e+001
      endloop
   endfacet
   facet normal 1.413440e-016 1.000000e+000 1.804112e-015
      outer loop
         vertex 3.459589e+002 1.291261e+002 4.405256e+001
         vertex 3.426029e+002 1.291261e+002 4.037189e+001
         vertex 3.456368e+002 1.291261e+002 4.434618e+001
      endloop
   endfacet
   facet normal 1.413440e-016 1.000000e+000 1.804112e-015
      outer loop
         vertex 3.426029e+002 1.291261e+002 4.037189e+001
         vertex 3.422809e+002 1.291261e+002 4.066550e+001
         vertex 3.456368e+002 1.291261e+002 4.434618e+001
      endloop
   endfacet
   facet normal 1.413440e-016 1.000000e+000 1.804112e-015
      outer loop
         vertex 3.456368e+002 1.291261e+002 4.434618e+001
         vertex 3.422809e+002 1.291261e+002 4.066550e+001
         vertex 3.420147e+002 1.291261e+002 4.101057e+001
      endloop
   endfacet
   facet normal 1.413440e-016 1.000000e+000 1.804112e-015
      outer loop
         vertex 3.456368e+002 1.291261e+002 4.434618e+001
         vertex 3.420147e+002 1.291261e+002 4.101057e+001
         vertex 3.452687e+002 1.291261e+002 4.457941e+001
      endloop
   endfacet
   facet normal 1.413440e-016 1.000000e+000 1.804112e-015
      outer loop
         vertex 3.452687e+002 1.291261e+002 4.457941e+001
         vertex 3.420147e+002 1.291261e+002 4.101057e+001
         vertex 3.448657e+002 1.291261e+002 4.474518e+001
      endloop
   endfacet
   facet normal 1.413440e-016 1.000000e+000 1.804112e-015
      outer loop
         vertex 3.466172e+002 1.291261e+002 4.247426e+001
         vertex 3.442351e+002 1.291261e+002 3.986169e+001
         vertex 3.465593e+002 1.291261e+002 4.290617e+001
      endloop
   endfacet
   facet normal 1.413440e-016 1.000000e+000 1.804112e-015
      outer loop
         vertex 3.465593e+002 1.291261e+002 4.290617e+001
         vertex 3.442351e+002 1.291261e+002 3.986169e+001
         vertex 3.437997e+002 1.291261e+002 3.987962e+001
      endloop
   endfacet
   facet normal 1.413440e-016 1.000000e+000 1.804112e-015
      outer loop
         vertex 3.465593e+002 1.291261e+002 4.290617e+001
         vertex 3.437997e+002 1.291261e+002 3.987962e+001
         vertex 3.433740e+002 1.291261e+002 3.997289e+001
      endloop
   endfacet
   facet normal 1.413440e-016 1.000000e+000 1.804112e-015
      outer loop
         vertex 3.462250e+002 1.291261e+002 4.370750e+001
         vertex 3.464272e+002 1.291261e+002 4.332146e+001
         vertex 3.426029e+002 1.291261e+002 4.037189e+001
      endloop
   endfacet
   facet normal 1.413440e-016 1.000000e+000 1.804112e-015
      outer loop
         vertex 3.426029e+002 1.291261e+002 4.037189e+001
         vertex 3.464272e+002 1.291261e+002 4.332146e+001
         vertex 3.465593e+002 1.291261e+002 4.290617e+001
      endloop
   endfacet
   facet normal 1.413440e-016 1.000000e+000 1.804112e-015
      outer loop
         vertex 3.426029e+002 1.291261e+002 4.037189e+001
         vertex 3.465593e+002 1.291261e+002 4.290617e+001
         vertex 3.429710e+002 1.291261e+002 4.013865e+001
      endloop
   endfacet
   facet normal 1.413440e-016 1.000000e+000 1.804112e-015
      outer loop
         vertex 3.429710e+002 1.291261e+002 4.013865e+001
         vertex 3.465593e+002 1.291261e+002 4.290617e+001
         vertex 3.433740e+002 1.291261e+002 3.997289e+001
      endloop
   endfacet
   facet normal 1.413440e-016 1.000000e+000 1.804112e-015
      outer loop
         vertex 3.416225e+002 1.291261e+002 4.224380e+001
         vertex 3.440046e+002 1.291261e+002 4.485638e+001
         vertex 3.416805e+002 1.291261e+002 4.181189e+001
      endloop
   endfacet
   facet normal 1.413440e-016 1.000000e+000 1.804112e-015
      outer loop
         vertex 3.416805e+002 1.291261e+002 4.181189e+001
         vertex 3.440046e+002 1.291261e+002 4.485638e+001
         vertex 3.418126e+002 1.291261e+002 4.139661e+001
      endloop
   endfacet
   facet normal 1.413440e-016 1.000000e+000 1.804112e-015
      outer loop
         vertex 3.418126e+002 1.291261e+002 4.139661e+001
         vertex 3.440046e+002 1.291261e+002 4.485638e+001
         vertex 3.420147e+002 1.291261e+002 4.101057e+001
      endloop
   endfacet
   facet normal 1.413440e-016 1.000000e+000 1.804112e-015
      outer loop
         vertex 3.420147e+002 1.291261e+002 4.101057e+001
         vertex 3.440046e+002 1.291261e+002 4.485638e+001
         vertex 3.444400e+002 1.291261e+002 4.483844e+001
      endloop
   endfacet
   facet normal 1.413440e-016 1.000000e+000 1.804112e-015
      outer loop
         vertex 3.420147e+002 1.291261e+002 4.101057e+001
         vertex 3.444400e+002 1.291261e+002 4.483844e+001
         vertex 3.448657e+002 1.291261e+002 4.474518e+001
      endloop
   endfacet
   facet normal 1.413440e-016 1.000000e+000 1.804112e-015
      outer loop
         vertex 3.466172e+002 1.291261e+002 4.247426e+001
         vertex 3.465993e+002 1.291261e+002 4.203885e+001
         vertex 3.442351e+002 1.291261e+002 3.986169e+001
      endloop
   endfacet
   facet normal 1.413440e-016 1.000000e+000 1.804112e-015
      outer loop
         vertex 3.442351e+002 1.291261e+002 3.986169e+001
         vertex 3.465993e+002 1.291261e+002 4.203885e+001
         vertex 3.465060e+002 1.291261e+002 4.161317e+001
      endloop
   endfacet
   facet normal 1.413440e-016 1.000000e+000 1.804112e-015
      outer loop
         vertex 3.442351e+002 1.291261e+002 3.986169e+001
         vertex 3.465060e+002 1.291261e+002 4.161317e+001
         vertex 3.463402e+002 1.291261e+002 4.121015e+001
      endloop
   endfacet
   facet normal 1.413440e-016 1.000000e+000 1.804112e-015
      outer loop
         vertex 3.416225e+002 1.291261e+002 4.224380e+001
         vertex 3.416404e+002 1.291261e+002 4.267921e+001
         vertex 3.440046e+002 1.291261e+002 4.485638e+001
      endloop
   endfacet
   facet normal 1.413440e-016 1.000000e+000 1.804112e-015
      outer loop
         vertex 3.440046e+002 1.291261e+002 4.485638e+001
         vertex 3.416404e+002 1.291261e+002 4.267921e+001
         vertex 3.417337e+002 1.291261e+002 4.310489e+001
      endloop
   endfacet
   facet normal 1.413440e-016 1.000000e+000 1.804112e-015
      outer loop
         vertex 3.440046e+002 1.291261e+002 4.485638e+001
         vertex 3.417337e+002 1.291261e+002 4.310489e+001
         vertex 3.418995e+002 1.291261e+002 4.350791e+001
      endloop
   endfacet
   facet normal 1.413440e-016 1.000000e+000 1.804112e-015
      outer loop
         vertex 3.435727e+002 1.291261e+002 4.479843e+001
         vertex 3.440046e+002 1.291261e+002 4.485638e+001
         vertex 3.431574e+002 1.291261e+002 4.466636e+001
      endloop
   endfacet
   facet normal 1.413440e-016 1.000000e+000 1.804112e-015
      outer loop
         vertex 3.431574e+002 1.291261e+002 4.466636e+001
         vertex 3.440046e+002 1.291261e+002 4.485638e+001
         vertex 3.427714e+002 1.291261e+002 4.446418e+001
      endloop
   endfacet
   facet normal 1.413440e-016 1.000000e+000 1.804112e-015
      outer loop
         vertex 3.458134e+002 1.291261e+002 4.052003e+001
         vertex 3.454683e+002 1.291261e+002 4.025388e+001
         vertex 3.450823e+002 1.291261e+002 4.005171e+001
      endloop
   endfacet
   facet normal 1.413440e-016 1.000000e+000 1.804112e-015
      outer loop
         vertex 3.418995e+002 1.291261e+002 4.350791e+001
         vertex 3.421327e+002 1.291261e+002 4.387602e+001
         vertex 3.440046e+002 1.291261e+002 4.485638e+001
      endloop
   endfacet
   facet normal 1.413440e-016 1.000000e+000 1.804112e-015
      outer loop
         vertex 3.440046e+002 1.291261e+002 4.485638e+001
         vertex 3.421327e+002 1.291261e+002 4.387602e+001
         vertex 3.424263e+002 1.291261e+002 4.419804e+001
      endloop
   endfacet
   facet normal 1.413440e-016 1.000000e+000 1.804112e-015
      outer loop
         vertex 3.440046e+002 1.291261e+002 4.485638e+001
         vertex 3.424263e+002 1.291261e+002 4.419804e+001
         vertex 3.427714e+002 1.291261e+002 4.446418e+001
      endloop
   endfacet
   facet normal 1.413440e-016 1.000000e+000 1.804112e-015
      outer loop
         vertex 3.463402e+002 1.291261e+002 4.121015e+001
         vertex 3.461070e+002 1.291261e+002 4.084204e+001
         vertex 3.442351e+002 1.291261e+002 3.986169e+001
      endloop
   endfacet
   facet normal 1.413440e-016 1.000000e+000 1.804112e-015
      outer loop
         vertex 3.442351e+002 1.291261e+002 3.986169e+001
         vertex 3.461070e+002 1.291261e+002 4.084204e+001
         vertex 3.458134e+002 1.291261e+002 4.052003e+001
      endloop
   endfacet
   facet normal 1.413440e-016 1.000000e+000 1.804112e-015
      outer loop
         vertex 3.442351e+002 1.291261e+002 3.986169e+001
         vertex 3.458134e+002 1.291261e+002 4.052003e+001
         vertex 3.446670e+002 1.291261e+002 3.991964e+001
      endloop
   endfacet
   facet normal 1.413440e-016 1.000000e+000 1.804112e-015
      outer loop
         vertex 3.446670e+002 1.291261e+002 3.991964e+001
         vertex 3.458134e+002 1.291261e+002 4.052003e+001
         vertex 3.450823e+002 1.291261e+002 4.005171e+001
      endloop
   endfacet
   facet normal 1.413440e-016 1.000000e+000 1.804112e-015
      outer loop
         vertex 3.465060e+002 9.912605e+001 4.161317e+001
         vertex 3.465993e+002 9.912605e+001 4.203885e+001
         vertex 3.466305e+002 9.912605e+001 3.447255e+001
      endloop
   endfacet
   facet normal 1.413440e-016 1.000000e+000 1.804112e-015
      outer loop
         vertex 3.465593e+002 9.912605e+001 4.290617e+001
         vertex 3.464272e+002 9.912605e+001 4.332146e+001
         vertex 3.485516e+002 9.912605e+001 4.934902e+001
      endloop
   endfacet
   facet normal 1.413440e-016 1.000000e+000 1.804112e-015
      outer loop
         vertex 3.426029e+002 9.912605e+001 4.037189e+001
         vertex 3.429710e+002 9.912605e+001 4.013865e+001
         vertex 3.396881e+002 9.912605e+001 3.536905e+001
      endloop
   endfacet
   facet normal 1.413440e-016 1.000000e+000 1.804112e-015
      outer loop
         vertex 3.466305e+002 9.912605e+001 3.447255e+001
         vertex 3.465993e+002 9.912605e+001 4.203885e+001
         vertex 3.485516e+002 9.912605e+001 4.934902e+001
      endloop
   endfacet
   facet normal 1.413440e-016 1.000000e+000 1.804112e-015
      outer loop
         vertex 3.485516e+002 9.912605e+001 4.934902e+001
         vertex 3.465993e+002 9.912605e+001 4.203885e+001
         vertex 3.466172e+002 9.912605e+001 4.247426e+001
      endloop
   endfacet
   facet normal 1.413440e-016 1.000000e+000 1.804112e-015
      outer loop
         vertex 3.485516e+002 9.912605e+001 4.934902e+001
         vertex 3.466172e+002 9.912605e+001 4.247426e+001
         vertex 3.465593e+002 9.912605e+001 4.290617e+001
      endloop
   endfacet
   facet normal 1.413440e-016 1.000000e+000 1.804112e-015
      outer loop
         vertex 3.429710e+002 9.912605e+001 4.013865e+001
         vertex 3.433740e+002 9.912605e+001 3.997289e+001
         vertex 3.396881e+002 9.912605e+001 3.536905e+001
      endloop
   endfacet
   facet normal 1.413440e-016 1.000000e+000 1.804112e-015
      outer loop
         vertex 3.396881e+002 9.912605e+001 3.536905e+001
         vertex 3.433740e+002 9.912605e+001 3.997289e+001
         vertex 3.437997e+002 9.912605e+001 3.987962e+001
      endloop
   endfacet
   facet normal 1.413440e-016 1.000000e+000 1.804112e-015
      outer loop
         vertex 3.396881e+002 9.912605e+001 3.536905e+001
         vertex 3.437997e+002 9.912605e+001 3.987962e+001
         vertex 3.466305e+002 9.912605e+001 3.447255e+001
      endloop
   endfacet
   facet normal 1.413440e-016 1.000000e+000 1.804112e-015
      outer loop
         vertex 3.466305e+002 9.912605e+001 3.447255e+001
         vertex 3.437997e+002 9.912605e+001 3.987962e+001
         vertex 3.442351e+002 9.912605e+001 3.986169e+001
      endloop
   endfacet
   facet normal 1.413440e-016 1.000000e+000 1.804112e-015
      outer loop
         vertex 3.466305e+002 9.912605e+001 3.447255e+001
         vertex 3.442351e+002 9.912605e+001 3.986169e+001
         vertex 3.446670e+002 9.912605e+001 3.991964e+001
      endloop
   endfacet
   facet normal 1.413440e-016 1.000000e+000 1.804112e-015
      outer loop
         vertex 3.464272e+002 9.912605e+001 4.332146e+001
         vertex 3.462250e+002 9.912605e+001 4.370750e+001
         vertex 3.485516e+002 9.912605e+001 4.934902e+001
      endloop
   endfacet
   facet normal 1.413440e-016 1.000000e+000 1.804112e-015
      outer loop
         vertex 3.485516e+002 9.912605e+001 4.934902e+001
         vertex 3.462250e+002 9.912605e+001 4.370750e+001
         vertex 3.459589e+002 9.912605e+001 4.405256e+001
      endloop
   endfacet
   facet normal 1.413440e-016 1.000000e+000 1.804112e-015
      outer loop
         vertex 3.485516e+002 9.912605e+001 4.934902e+001
         vertex 3.459589e+002 9.912605e+001 4.405256e+001
         vertex 3.456368e+002 9.912605e+001 4.434618e+001
      endloop
   endfacet
   facet normal 1.413440e-016 1.000000e+000 1.804112e-015
      outer loop
         vertex 3.446670e+002 9.912605e+001 3.991964e+001
         vertex 3.450823e+002 9.912605e+001 4.005171e+001
         vertex 3.466305e+002 9.912605e+001 3.447255e+001
      endloop
   endfacet
   facet normal 1.413440e-016 1.000000e+000 1.804112e-015
      outer loop
         vertex 3.466305e+002 9.912605e+001 3.447255e+001
         vertex 3.450823e+002 9.912605e+001 4.005171e+001
         vertex 3.454683e+002 9.912605e+001 4.025388e+001
      endloop
   endfacet
   facet normal 1.413440e-016 1.000000e+000 1.804112e-015
      outer loop
         vertex 3.466305e+002 9.912605e+001 3.447255e+001
         vertex 3.454683e+002 9.912605e+001 4.025388e+001
         vertex 3.458134e+002 9.912605e+001 4.052003e+001
      endloop
   endfacet
   facet normal 1.413440e-016 1.000000e+000 1.804112e-015
      outer loop
         vertex 3.456368e+002 9.912605e+001 4.434618e+001
         vertex 3.452687e+002 9.912605e+001 4.457941e+001
         vertex 3.485516e+002 9.912605e+001 4.934902e+001
      endloop
   endfacet
   facet normal 1.413440e-016 1.000000e+000 1.804112e-015
      outer loop
         vertex 3.485516e+002 9.912605e+001 4.934902e+001
         vertex 3.452687e+002 9.912605e+001 4.457941e+001
         vertex 3.448657e+002 9.912605e+001 4.474518e+001
      endloop
   endfacet
   facet normal 1.413440e-016 1.000000e+000 1.804112e-015
      outer loop
         vertex 3.485516e+002 9.912605e+001 4.934902e+001
         vertex 3.448657e+002 9.912605e+001 4.474518e+001
         vertex 3.416092e+002 9.912605e+001 5.024552e+001
      endloop
   endfacet
   facet normal 1.413440e-016 1.000000e+000 1.804112e-015
      outer loop
         vertex 3.416092e+002 9.912605e+001 5.024552e+001
         vertex 3.448657e+002 9.912605e+001 4.474518e+001
         vertex 3.444400e+002 9.912605e+001 4.483844e+001
      endloop
   endfacet
   facet normal 1.413440e-016 1.000000e+000 1.804112e-015
      outer loop
         vertex 3.416092e+002 9.912605e+001 5.024552e+001
         vertex 3.444400e+002 9.912605e+001 4.483844e+001
         vertex 3.440046e+002 9.912605e+001 4.485638e+001
      endloop
   endfacet
   facet normal 1.413440e-016 1.000000e+000 1.804112e-015
      outer loop
         vertex 3.458134e+002 9.912605e+001 4.052003e+001
         vertex 3.461070e+002 9.912605e+001 4.084204e+001
         vertex 3.466305e+002 9.912605e+001 3.447255e+001
      endloop
   endfacet
   facet normal 1.413440e-016 1.000000e+000 1.804112e-015
      outer loop
         vertex 3.466305e+002 9.912605e+001 3.447255e+001
         vertex 3.461070e+002 9.912605e+001 4.084204e+001
         vertex 3.463402e+002 9.912605e+001 4.121015e+001
      endloop
   endfacet
   facet normal 1.413440e-016 1.000000e+000 1.804112e-015
      outer loop
         vertex 3.466305e+002 9.912605e+001 3.447255e+001
         vertex 3.463402e+002 9.912605e+001 4.121015e+001
         vertex 3.465060e+002 9.912605e+001 4.161317e+001
      endloop
   endfacet
   facet normal 1.413440e-016 1.000000e+000 1.804112e-015
      outer loop
         vertex 3.440046e+002 9.912605e+001 4.485638e+001
         vertex 3.435727e+002 9.912605e+001 4.479843e+001
         vertex 3.416092e+002 9.912605e+001 5.024552e+001
      endloop
   endfacet
   facet normal 1.413440e-016 1.000000e+000 1.804112e-015
      outer loop
         vertex 3.416092e+002 9.912605e+001 5.024552e+001
         vertex 3.435727e+002 9.912605e+001 4.479843e+001
         vertex 3.431574e+002 9.912605e+001 4.466636e+001
      endloop
   endfacet
   facet normal 1.413440e-016 1.000000e+000 1.804112e-015
      outer loop
         vertex 3.416092e+002 9.912605e+001 5.024552e+001
         vertex 3.431574e+002 9.912605e+001 4.466636e+001
         vertex 3.427714e+002 9.912605e+001 4.446418e+001
      endloop
   endfacet
   facet normal 1.413440e-016 1.000000e+000 1.804112e-015
      outer loop
         vertex 3.427714e+002 9.912605e+001 4.446418e+001
         vertex 3.424263e+002 9.912605e+001 4.419804e+001
         vertex 3.416092e+002 9.912605e+001 5.024552e+001
      endloop
   endfacet
   facet normal 1.413440e-016 1.000000e+000 1.804112e-015
      outer loop
         vertex 3.416092e+002 9.912605e+001 5.024552e+001
         vertex 3.424263e+002 9.912605e+001 4.419804e+001
         vertex 3.421327e+002 9.912605e+001 4.387602e+001
      endloop
   endfacet
   facet normal 1.413440e-016 1.000000e+000 1.804112e-015
      outer loop
         vertex 3.416092e+002 9.912605e+001 5.024552e+001
         vertex 3.421327e+002 9.912605e+001 4.387602e+001
         vertex 3.418995e+002 9.912605e+001 4.350791e+001
      endloop
   endfacet
   facet normal 1.413440e-016 1.000000e+000 1.804112e-015
      outer loop
         vertex 3.396881e+002 9.912605e+001 3.536905e+001
         vertex 3.416805e+002 9.912605e+001 4.181189e+001
         vertex 3.418126e+002 9.912605e+001 4.139661e+001
      endloop
   endfacet
   facet normal 1.413440e-016 1.000000e+000 1.804112e-015
      outer loop
         vertex 3.418995e+002 9.912605e+001 4.350791e+001
         vertex 3.417337e+002 9.912605e+001 4.310489e+001
         vertex 3.416092e+002 9.912605e+001 5.024552e+001
      endloop
   endfacet
   facet normal 1.413440e-016 1.000000e+000 1.804112e-015
      outer loop
         vertex 3.416092e+002 9.912605e+001 5.024552e+001
         vertex 3.417337e+002 9.912605e+001 4.310489e+001
         vertex 3.416404e+002 9.912605e+001 4.267921e+001
      endloop
   endfacet
   facet normal 1.413440e-016 1.000000e+000 1.804112e-015
      outer loop
         vertex 3.416092e+002 9.912605e+001 5.024552e+001
         vertex 3.416404e+002 9.912605e+001 4.267921e+001
         vertex 3.396881e+002 9.912605e+001 3.536905e+001
      endloop
   endfacet
   facet normal 1.413440e-016 1.000000e+000 1.804112e-015
      outer loop
         vertex 3.396881e+002 9.912605e+001 3.536905e+001
         vertex 3.416404e+002 9.912605e+001 4.267921e+001
         vertex 3.416225e+002 9.912605e+001 4.224380e+001
      endloop
   endfacet
   facet normal 1.413440e-016 1.000000e+000 1.804112e-015
      outer loop
         vertex 3.396881e+002 9.912605e+001 3.536905e+001
         vertex 3.416225e+002 9.912605e+001 4.224380e+001
         vertex 3.416805e+002 9.912605e+001 4.181189e+001
      endloop
   endfacet
   facet normal 1.413440e-016 1.000000e+000 1.804112e-015
      outer loop
         vertex 3.418126e+002 9.912605e+001 4.139661e+001
         vertex 3.420147e+002 9.912605e+001 4.101057e+001
         vertex 3.396881e+002 9.912605e+001 3.536905e+001
      endloop
   endfacet
   facet normal 1.413440e-016 1.000000e+000 1.804112e-015
      outer loop
         vertex 3.396881e+002 9.912605e+001 3.536905e+001
         vertex 3.420147e+002 9.912605e+001 4.101057e+001
         vertex 3.422809e+002 9.912605e+001 4.066550e+001
      endloop
   endfacet
   facet normal 1.413440e-016 1.000000e+000 1.804112e-015
      outer loop
         vertex 3.396881e+002 9.912605e+001 3.536905e+001
         vertex 3.422809e+002 9.912605e+001 4.066550e+001
         vertex 3.426029e+002 9.912605e+001 4.037189e+001
      endloop
   endfacet
   facet normal 1.280715e-001 -1.776357e-015 9.917649e-001
      outer loop
         vertex 3.416092e+002 9.812606e+001 5.024552e+001
         vertex 3.485516e+002 9.812606e+001 4.934902e+001
         vertex 3.416092e+002 9.912605e+001 5.024552e+001
      endloop
   endfacet
   facet normal 1.280715e-001 -1.776357e-015 9.917649e-001
      outer loop
         vertex 3.416092e+002 9.912605e+001 5.024552e+001
         vertex 3.485516e+002 9.812606e+001 4.934902e+001
         vertex 3.485516e+002 9.912605e+001 4.934902e+001
      endloop
   endfacet
   facet normal -9.917649e-001 -1.144917e-016 1.280715e-001
      outer loop
         vertex 3.396881e+002 9.812606e+001 3.536905e+001
         vertex 3.416092e+002 9.812606e+001 5.024552e+001
         vertex 3.396881e+002 9.912605e+001 3.536905e+001
      endloop
   endfacet
   facet normal -9.917649e-001 -1.144917e-016 1.280715e-001
      outer loop
         vertex 3.396881e+002 9.912605e+001 3.536905e+001
         vertex 3.416092e+002 9.812606e+001 5.024552e+001
         vertex 3.416092e+002 9.912605e+001 5.024552e+001
      endloop
   endfacet
   facet normal -1.280715e-001 1.776357e-015 -9.917649e-001
      outer loop
         vertex 3.466305e+002 9.812606e+001 3.447255e+001
         vertex 3.396881e+002 9.812606e+001 3.536905e+001
         vertex 3.466305e+002 9.912605e+001 3.447255e+001
      endloop
   endfacet
   facet normal -1.280715e-001 1.776357e-015 -9.917649e-001
      outer loop
         vertex 3.466305e+002 9.912605e+001 3.447255e+001
         vertex 3.396881e+002 9.812606e+001 3.536905e+001
         vertex 3.396881e+002 9.912605e+001 3.536905e+001
      endloop
   endfacet
   facet normal 9.917649e-001 1.144917e-016 -1.280715e-001
      outer loop
         vertex 3.485516e+002 9.812606e+001 4.934902e+001
         vertex 3.466305e+002 9.812606e+001 3.447255e+001
         vertex 3.485516e+002 9.912605e+001 4.934902e+001
      endloop
   endfacet
   facet normal 9.917649e-001 1.144917e-016 -1.280715e-001
      outer loop
         vertex 3.485516e+002 9.912605e+001 4.934902e+001
         vertex 3.466305e+002 9.812606e+001 3.447255e+001
         vertex 3.466305e+002 9.912605e+001 3.447255e+001
      endloop
   endfacet
   facet normal -1.413440e-016 -1.000000e+000 -1.804112e-015
      outer loop
         vertex 3.396881e+002 9.812606e+001 3.536905e+001
         vertex 3.466305e+002 9.812606e+001 3.447255e+001
         vertex 3.416092e+002 9.812606e+001 5.024552e+001
      endloop
   endfacet
   facet normal -1.413440e-016 -1.000000e+000 -1.804112e-015
      outer loop
         vertex 3.416092e+002 9.812606e+001 5.024552e+001
         vertex 3.466305e+002 9.812606e+001 3.447255e+001
         vertex 3.485516e+002 9.812606e+001 4.934902e+001
      endloop
   endfacet
endsolid